<?xml version="1.0" standalone="no"?>
<!DOCTYPE svg PUBLIC "-//W3C//DTD SVG 1.1//EN" "http://www.w3.org/Graphics/SVG/1.1/DTD/svg11.dtd" >
<svg xmlns="http://www.w3.org/2000/svg" xmlns:xlink="http://www.w3.org/1999/xlink" version="1.1">
<metadata>
Created by FontForge 20170731 at Thu Sep  8 02:52:06 2022
 By Aleksey,,,
Copyright (c) 2019 by Emil Bertell. All rights reserved.
</metadata>
<defs>
<font id="Resolve-BlackExt" horiz-adv-x="0" >
  <font-face 
    font-family="Resolve-BlackExt"
    font-weight="900"
    font-stretch="expanded"
    units-per-em="2048"
    panose-1="1 0 0 0 0 0 0 0 0 0"
    ascent="1638"
    descent="-410"
    x-height="979"
    cap-height="1362"
    bbox="-1481 -506 4026 1944"
    underline-thickness="102"
    underline-position="-358"
    unicode-range="U+0020-FB02"
  />
<missing-glyph horiz-adv-x="882" 
d="M164 1405h559v-1763h-559v1763zM588 1229v57h-291v-57h115v-66h-117v-57h293v57h-117v66h117zM471 936v123h-176v-182h293v59h-117zM352 999h60v-63h-60v63zM588 770v57h-293v-57h117v-65h-117v-58h176v123h117zM588 547v176h-60v-117h-233v-59h293zM588 307v201h-176
v-98h59v39h57v-82h-176v141h-57v-201h293zM588 4v199h-293v-199h293zM352 143h176v-82h-176v82zM588 -96v59h-293v-59h123l-123 -82v-60h293v60h-180l122 82h58z" />
    <glyph glyph-name="fi" unicode="fi" horiz-adv-x="2283" 
d="M1858 1042q-134 0 -202.5 57t-68.5 165q0 219 271 219q268 0 268 -219q0 -222 -268 -222zM1450 1026h-580q-47 0 -68.5 -11t-27.5 -36h535v-383h-539v-596h-491v596h-220v383h222q11 207 143.5 316.5t384.5 109.5h639zM2095 0h-491v979h491v-979z" />
    <glyph glyph-name="fl" unicode="fl" horiz-adv-x="2215" 
d="M1450 1026h-580q-47 0 -68.5 -11t-27.5 -36h535v-383h-539v-596h-491v596h-220v383h222q11 207 143.5 316.5t384.5 109.5h639zM1587 0v1405h492v-1405h-492z" />
    <glyph glyph-name=".notdef" horiz-adv-x="882" 
d="M164 1405h559v-1763h-559v1763zM588 1229v57h-291v-57h115v-66h-117v-57h293v57h-117v66h117zM471 936v123h-176v-182h293v59h-117zM352 999h60v-63h-60v63zM588 770v57h-293v-57h117v-65h-117v-58h176v123h117zM588 547v176h-60v-117h-233v-59h293zM588 307v201h-176
v-98h59v39h57v-82h-176v141h-57v-201h293zM588 4v199h-293v-199h293zM352 143h176v-82h-176v82zM588 -96v59h-293v-59h123l-123 -82v-60h293v60h-180l122 82h58z" />
    <glyph glyph-name=".null" 
 />
    <glyph glyph-name="nonmarkingreturn" horiz-adv-x="682" 
 />
    <glyph glyph-name="space" unicode=" " horiz-adv-x="491" 
 />
    <glyph glyph-name="exclam" unicode="!" horiz-adv-x="872" 
d="M219 508l-82 854h598l-82 -854h-434zM436 -31q-168 0 -253 61t-85 177q0 233 338 233t338 -233q0 -117 -84.5 -177.5t-253.5 -60.5z" />
    <glyph glyph-name="quotedbl" unicode="&#x22;" horiz-adv-x="1007" 
d="M897 1362l-55 -580h-305l-33 344l-33 -344h-305l-55 580h786z" />
    <glyph glyph-name="numbersign" unicode="#" horiz-adv-x="2336" 
d="M2247 1137l-41 -351h-181l-51 -184h131l-41 -350h-188l-70 -252h-557l70 252h-541l-69 -252h-557l69 252h-131l41 350h188l52 184h-158l41 351h215l63 225h558l-64 -225h541l63 225h557l-63 -225h123zM877 602h540l51 184h-540z" />
    <glyph glyph-name="dollar" unicode="$" horiz-adv-x="1951" 
d="M737 879l590 -23q279 -10 412 -100.5t133 -263.5v-7q-1 -82 -20.5 -143.5t-66 -114t-123.5 -87.5t-194 -57.5t-276 -31.5v-112h-492v116q-151 11 -263 38t-180.5 62t-110 85t-57.5 101t-17 116v6h553v-4q0 -31 28 -48.5t103.5 -26.5t212.5 -9q165 0 250 7.5t110 19.5
t25 36v6q0 20 -25.5 28.5t-83.5 10.5l-581 19q-133 4 -235 27.5t-180.5 70.5t-119.5 125.5t-41 185.5v4q1 85 32 149t101 114.5t189 81.5t290 43v120h492v-120q145 -11 255 -36t181 -60t115 -82.5t62 -99.5t18 -116v-8h-553v4q0 28 -28 43.5t-102.5 24t-209.5 8.5
q-131 0 -202.5 -6.5t-95.5 -17.5t-24 -31v-2q0 -22 28 -32t101 -13z" />
    <glyph glyph-name="percent" unicode="%" horiz-adv-x="2861" 
d="M623 600q-128 0 -227 18t-166 50t-110 79.5t-62 104t-19 125.5v41q0 70 19 127t62 105t110 80.5t166 50.5t227 18q159 0 273.5 -27t181.5 -79t97.5 -119.5t30.5 -155.5v-41q0 -87 -30.5 -154t-97.5 -118t-181.5 -78t-273.5 -27zM954 0h-716l1681 1362h717zM623 928
q98 0 141 15t43 52v11q0 36 -43 50.5t-141 14.5t-141.5 -14.5t-43.5 -50.5v-11q0 -37 43.5 -52t141.5 -15zM2238 -37q-159 0 -273.5 27t-181.5 78t-97.5 118t-30.5 154v41q0 88 30.5 155.5t97.5 119.5t181.5 79t273.5 27q128 0 227 -18t166 -50.5t110 -80.5t62 -105t19 -127
v-41q0 -69 -19 -125.5t-62 -104t-110 -79.5t-166 -50t-227 -18zM2238 291q98 0 141.5 15t43.5 52v11q0 36 -43.5 50.5t-141.5 14.5t-141 -14.5t-43 -50.5v-11q0 -37 43 -52t141 -15z" />
    <glyph glyph-name="ampersand" unicode="&#x26;" horiz-adv-x="2535" 
d="M2071 258l434 -258h-764l-80 43q-266 -80 -690 -80q-315 0 -501 37.5t-271.5 119.5t-85.5 220v10q0 139 106 227t344 130q-121 133 -121 284v15q0 199 186 296t595 97q776 0 776 -398v-14q0 -151 -136.5 -247t-371.5 -138l192 -115q27 19 64 52l123 110h612l-332 -321
q-6 -5 -24 -22.5t-30 -28t-25 -19.5zM973 958v-6q0 -27 36.5 -55t151.5 -98q307 35 307 129v4q0 47 -56 67.5t-189 20.5q-132 0 -191 -14.5t-59 -47.5zM991 319q71 0 160 7l-262 143q-24 12 -45 27q-87 -17 -120.5 -38.5t-33.5 -47.5v-4q0 -20 12.5 -34.5t44 -27t92.5 -19
t152 -6.5z" />
    <glyph glyph-name="quotesingle" unicode="'" horiz-adv-x="636" 
d="M471 782h-305l-55 580h415z" />
    <glyph glyph-name="parenleft" unicode="(" horiz-adv-x="1040" 
d="M961 246v-451q-445 0 -641.5 169t-196.5 556v422q0 374 197 539.5t641 165.5v-451q-175 0 -246.5 -61.5t-71.5 -210.5v-387q0 -163 71 -227t247 -64z" />
    <glyph glyph-name="parenright" unicode=")" horiz-adv-x="1040" 
d="M80 -205v451q176 0 246.5 64t70.5 227v387q0 149 -71 210.5t-246 61.5v451q444 0 641 -165.5t197 -539.5v-422q0 -387 -196.5 -556t-641.5 -169z" />
    <glyph glyph-name="asterisk" unicode="*" horiz-adv-x="1159" 
d="M932 1231l98 -264l-256 -72l207 -182l-215 -189l-191 199l-192 -199l-215 189l209 184l-248 70l98 264l228 -82l-21 213h291l-20 -213z" />
    <glyph glyph-name="plus" unicode="+" horiz-adv-x="1552" 
d="M997 874h408v-395h-408v-289h-442v289h-408v395h408v289h442v-289z" />
    <glyph glyph-name="comma" unicode="," horiz-adv-x="724" 
d="M33 -336l119 608h514l-236 -608h-397z" />
    <glyph glyph-name="hyphen" unicode="-" horiz-adv-x="1492" 
d="M1395 436h-1297v453h1297v-453z" />
    <glyph glyph-name="period" unicode="." horiz-adv-x="835" 
d="M418 -31q-145 0 -218 60.5t-73 177.5q0 233 291 233t291 -233q0 -238 -291 -238z" />
    <glyph glyph-name="slash" unicode="/" horiz-adv-x="2187" 
d="M750 -143h-687l1379 1616h682z" />
    <glyph glyph-name="zero" unicode="0" horiz-adv-x="2260" 
d="M1130 -37q-491 -2 -744 171t-253 513v88q0 325 253.5 493.5t743.5 170.5q489 1 743.5 -168.5t254.5 -495.5v-88q0 -339 -253 -510.5t-745 -173.5zM1130 426q227 0 336 55.5t109 192.5v37q0 123 -109.5 174t-335.5 51t-335 -51t-109 -174v-37q0 -137 108.5 -192.5
t335.5 -55.5z" />
    <glyph glyph-name="one" unicode="1" horiz-adv-x="1206" 
d="M20 1266l543 96h447v-1362h-531v918l-368 -68z" />
    <glyph glyph-name="two" unicode="2" horiz-adv-x="2033" 
d="M1206 481l-284 -49l1032 14v-446h-1811v492l916 245q163 43 215.5 69.5t52.5 67.5v5q0 41 -59.5 55t-229.5 14q-217 0 -304 -32t-87 -111v-21h-557v23q0 101 30 187t99.5 162t177 129t270.5 83.5t371 30.5q313 0 502 -48t267.5 -138t78.5 -234v-14q0 -135 -61.5 -223.5
t-209.5 -152t-409 -108.5z" />
    <glyph glyph-name="three" unicode="3" horiz-adv-x="2007" 
d="M1710 692q217 -70 217 -295v-14q0 -144 -90.5 -235t-296.5 -138t-541 -47q-925 0 -925 561v15h559v-15q0 -84 82 -113.5t274 -29.5q206 0 290.5 18.5t84.5 67.5v6q0 25 -15 39t-58 21.5t-124 7.5h-436v284h436q94 0 132 18t38 60v4q0 32 -22.5 47.5t-91.5 23t-211 7.5
q-149 0 -229 -12.5t-111 -39.5t-31 -77v-20h-559v26q0 126 49 222t156 168t289 109.5t436 37.5q247 0 419 -24t275 -73t149 -118.5t46 -165.5v-14q0 -98 -47 -180.5t-144 -131.5z" />
    <glyph glyph-name="four" unicode="4" horiz-adv-x="2037" 
d="M1749 522h223v-368h-223v-154h-532v154h-1154v346l1115 862h571v-840zM1217 901l-502 -379h502v379z" />
    <glyph glyph-name="five" unicode="5" horiz-adv-x="1955" 
d="M1231 838q350 0 510 -85.5t160 -297.5v-11q0 -163 -85 -267.5t-277 -159t-501 -54.5q-932 0 -932 500v12h560v-4q11 -80 352 -80q184 0 254.5 22.5t70.5 73.5v9q0 57 -69.5 79.5t-255.5 22.5q-329 0 -346 -68v-2h-522v834h1656v-447h-1165v-172q182 95 590 95z" />
    <glyph glyph-name="six" unicode="6" horiz-adv-x="2144" 
d="M1319 840q379 0 548 -87.5t169 -303.5v-13q0 -121 -46.5 -206.5t-154.5 -146.5t-290 -90.5t-447 -29.5q-260 0 -446 42t-299.5 126t-166.5 202.5t-53 278.5v123q0 222 100.5 367.5t318.5 221t560 75.5q453 0 675 -133.5t222 -384.5v-11h-557v7q0 52 -72 72t-266 20
q-174 0 -265.5 -23t-125 -68.5t-37.5 -132.5q173 95 633 95zM1479 498v4q0 33 -26 50.5t-110 27.5t-245 10q-170 0 -258 -10t-115 -27.5t-27 -50.5v-4q0 -36 27 -55.5t115.5 -30.5t257.5 -11q160 0 244.5 11t110.5 30.5t26 55.5z" />
    <glyph glyph-name="seven" unicode="7" horiz-adv-x="1816" 
d="M72 903v459h1607v-401l-733 -961h-635l729 903h-968z" />
    <glyph glyph-name="eight" unicode="8" horiz-adv-x="2002" 
d="M1622 688q159 -43 230 -120.5t71 -188.5v-14q0 -81 -22.5 -140t-82.5 -110.5t-162 -83.5t-262.5 -50t-381.5 -18t-384 18t-267.5 50t-167.5 83t-88 111t-25 140v14q0 111 72.5 188.5t236.5 120.5q-278 95 -278 318v14q0 95 41 161.5t140.5 117.5t278 75.5t441.5 24.5
q212 0 366 -17t252.5 -47t157.5 -78.5t81.5 -104.5t22.5 -132v-14q0 -223 -270 -318zM621 915v-10q0 -17 19 -29.5t62.5 -22t121 -14.5t188.5 -5q113 0 187.5 5t113.5 15t54 22t15 29v10q0 20 -14 31.5t-56 19.5t-111.5 10.5t-188.5 2.5q-229 0 -310 -13t-81 -51zM1407 469
v8q0 26 -25.5 41t-114.5 25t-255 10t-260 -9.5t-125 -25.5t-31 -41v-8q0 -32 32 -49.5t122.5 -26t261.5 -8.5q170 0 256 9t112.5 25.5t26.5 49.5z" />
    <glyph glyph-name="nine" unicode="9" horiz-adv-x="2134" 
d="M1057 1399q251 0 432.5 -42t293.5 -125.5t165 -201t53 -274.5v-162q0 -631 -959 -631q-470 0 -697.5 137t-227.5 416v10h569v-6q0 -35 29.5 -55.5t111 -31.5t228.5 -11q157 0 241 21.5t116.5 65.5t33.5 124q-168 -80 -543 -80q-171 0 -293 12t-216 40t-150 76t-83.5 117
t-27.5 165v12q0 71 26.5 131t92.5 115t169 93.5t265 61.5t371 23zM1436 854v8q0 29 -30 45t-111.5 24.5t-229.5 8.5q-211 0 -292 -18t-81 -60v-8q0 -42 83 -62t290 -20q146 0 229 10t112.5 27t29.5 45z" />
    <glyph glyph-name="colon" unicode=":" horiz-adv-x="958" 
d="M479 565q-145 0 -218 60.5t-73 177.5q0 233 291 233t291 -233q0 -238 -291 -238zM479 -25q-145 0 -218 60.5t-73 177.5q0 233 291 233t291 -233q0 -238 -291 -238z" />
    <glyph glyph-name="semicolon" unicode=";" horiz-adv-x="886" 
d="M483 561q-290 0 -290 238q0 233 290 233q291 0 291 -233q0 -238 -291 -238zM119 -336l119 608h514l-236 -608h-397z" />
    <glyph glyph-name="less" unicode="&#x3c;" horiz-adv-x="1370" 
d="M160 891l1057 270v-393l-664 -119l664 -119v-393l-1057 271v483z" />
    <glyph glyph-name="equal" unicode="=" horiz-adv-x="1421" 
d="M1282 698h-1143v375h1143v-375zM1282 229h-1143v375h1143v-375z" />
    <glyph glyph-name="greater" unicode="&#x3e;" horiz-adv-x="1370" 
d="M154 768v393l1056 -270v-483l-1056 -271v393l663 119z" />
    <glyph glyph-name="question" unicode="?" horiz-adv-x="2091" 
d="M1087 1399q145 0 259.5 -7.5t222.5 -25t185.5 -49t136.5 -78t88.5 -114t29.5 -154.5v-15q0 -160 -63 -260t-205 -152.5t-379 -60.5l-82 -4v-49h-545v367l406 14q129 5 198.5 15.5t91 25t21.5 39.5v4q0 37 -81.5 52.5t-283.5 15.5q-115 0 -184.5 -4t-115.5 -15.5
t-65.5 -30t-25.5 -49.5l-4 -22h-557l4 22q36 193 138.5 308.5t298.5 171t511 55.5zM1022 387q403 0 403 -207q0 -211 -403 -211q-406 0 -406 211q0 207 406 207z" />
    <glyph glyph-name="at" unicode="@" horiz-adv-x="2940" 
d="M1516 1405q276 0 473.5 -22t350.5 -72.5t244.5 -136.5t137 -211t45.5 -299v-76q0 -251 -128.5 -383.5t-367.5 -132.5q-372 0 -454 319q-63 -100 -209.5 -156.5t-378.5 -56.5q-290 0 -442 104t-152 308v49q0 216 149.5 316t444.5 100q360 0 497 -156v123h472v-475
q0 -107 34.5 -157t108.5 -50q76 0 113.5 53t37.5 172v121q0 111 -30.5 188t-97 133t-183 87.5t-276 46t-389.5 14.5q-232 0 -398.5 -14t-296.5 -47.5t-207.5 -90t-117 -139.5t-39.5 -198v-80q0 -115 28 -196t87.5 -139t162 -91.5t241 -48.5t335.5 -15h504v-250h-504
q-202 0 -356.5 15t-284 50.5t-218.5 93t-151 142t-90.5 198.5t-28.5 263v35q0 149 36 264t112.5 199.5t183.5 142t260.5 92t332.5 49.5t409 15zM1427 543q161 0 230 14t69 47v21q0 63 -299 63q-162 0 -227 -13t-65 -48v-17q0 -38 65 -52.5t227 -14.5z" />
    <glyph glyph-name="A" unicode="A" horiz-adv-x="2123" 
d="M2124 0h-576l-98 178h-776l-99 -178h-575l821 1364h482zM1063 883l-191 -344h379z" />
    <glyph glyph-name="B" unicode="B" horiz-adv-x="2193" 
d="M1845 735q136 -31 209 -110.5t74 -204.5v-6q0 -414 -637 -414h-1290v1362h1331q260 0 376.5 -78t116.5 -248v-4q-2 -103 -48 -180t-132 -117zM1470 887v2q0 32 -20.5 46.5t-75.5 14.5h-637v-123h637q51 0 73.5 14.5t22.5 45.5zM1544 492v6q-1 37 -33.5 52t-101.5 15h-672
v-153h672q135 0 135 80z" />
    <glyph glyph-name="C" unicode="C" horiz-adv-x="2314" 
d="M1157 -31q-291 -1 -495.5 41t-328.5 128t-179.5 207t-55.5 288v96q0 167 55.5 287.5t179.5 206t328.5 127.5t495.5 43t494.5 -39t326.5 -122.5t179 -199t59 -280.5v-15h-557v6q0 95 -121.5 140t-380.5 45t-380.5 -52.5t-121.5 -183.5v-22q0 -129 122 -182.5t380 -53.5
q260 0 381 44.5t121 139.5v7h557v-15q0 -163 -55.5 -279.5t-179.5 -198.5t-328 -122t-496 -41z" />
    <glyph glyph-name="D" unicode="D" horiz-adv-x="2166" 
d="M201 1362h1042q438 0 631.5 -160.5t193.5 -507.5v-35q0 -230 -83.5 -373.5t-265 -214.5t-476.5 -71h-1042v1362zM1511 670v24q0 115 -61 162t-193 47h-520v-442h520q132 0 193 46.5t61 162.5z" />
    <glyph glyph-name="E" unicode="E" horiz-adv-x="1914" 
d="M1794 1362v-442h-1057v-109h930v-252h-930v-117h1057v-442h-1593v1362h1593z" />
    <glyph glyph-name="F" unicode="F" horiz-adv-x="1837" 
d="M1753 1362v-459h-1016v-133h889v-420h-889v-350h-536v1362h1552z" />
    <glyph glyph-name="G" unicode="G" horiz-adv-x="2304" 
d="M973 508v276h1171v-784h-512l-22 106q-234 -143 -604 -143q-443 0 -675.5 171t-232.5 501v92q0 672 1051 672q267 0 457 -35t306.5 -106.5t171 -172t56.5 -237.5v-10h-559v6q0 49 -103 69.5t-329 20.5q-96 0 -169 -6.5t-136 -23t-103.5 -44t-63 -70t-22.5 -100.5v-18
q0 -69 33.5 -116.5t99.5 -73.5t149.5 -37t197.5 -11q182 0 273 16.5t124 57.5h-559z" />
    <glyph glyph-name="H" unicode="H" horiz-adv-x="2400" 
d="M1663 907v455h537v-1362h-537v449h-926v-449h-536v1362h536v-455h926z" />
    <glyph glyph-name="I" unicode="I" horiz-adv-x="937" 
d="M737 0h-536v1362h536v-1362z" />
    <glyph glyph-name="J" unicode="J" horiz-adv-x="1396" 
d="M449 0h-373v459h385q73 0 115.5 7.5t78.5 33.5t51 78t15 137v647h536v-614q0 -147 -17 -256.5t-57 -194t-100.5 -140.5t-153 -91.5t-208.5 -50.5t-272 -15z" />
    <glyph glyph-name="K" unicode="K" horiz-adv-x="2136" 
d="M2124 0h-705l-411 500l-271 -215v-285h-536v1362h536v-512l617 512h747l-678 -535z" />
    <glyph glyph-name="L" unicode="L" horiz-adv-x="1779" 
d="M737 1362v-903h1002v-459h-1538v1362h536z" />
    <glyph glyph-name="M" unicode="M" horiz-adv-x="2775" 
d="M1411 670l455 692h708v-1362h-532v680l-387 -594h-486l-436 662v-748h-532v1362h751z" />
    <glyph glyph-name="N" unicode="N" horiz-adv-x="2394" 
d="M1694 627v735h499v-1362h-614l-877 739v-739h-501v1362h592z" />
    <glyph glyph-name="O" unicode="O" horiz-adv-x="2396" 
d="M1198 -37q-1100 -3 -1100 670v96q0 332 271 500.5t829 169.5q558 -1 829 -169.5t271 -500.5v-96q0 -673 -1100 -670zM1198 428q289 0 416 53.5t127 188.5v22q0 136 -126.5 189t-416.5 53q-289 0 -416 -53.5t-127 -188.5v-22q0 -135 127 -188.5t416 -53.5z" />
    <glyph glyph-name="P" unicode="P" horiz-adv-x="1986" 
d="M201 1362h1122q152 0 262.5 -27t190.5 -86.5t119.5 -159t39.5 -241.5v-12q0 -142 -39.5 -241.5t-120 -158t-190.5 -84.5t-262 -26h-586v-326h-536v1362zM1378 827v13q0 37 -27.5 50t-88.5 13h-525v-139h525q61 0 88.5 13t27.5 50z" />
    <glyph glyph-name="Q" unicode="Q" horiz-adv-x="2396" 
d="M1198 1399q558 -1 829 -169.5t271 -500.5v-96q0 -464 -522 -606l280 -160l-248 -350l-776 450q-934 45 -934 666v96q0 332 271 500.5t829 169.5zM655 692v-22q0 -135 127 -188.5t416 -53.5t416 53.5t127 188.5v22q0 136 -126.5 189t-416.5 53q-289 0 -416 -53.5
t-127 -188.5z" />
    <glyph glyph-name="R" unicode="R" horiz-adv-x="2191" 
d="M2085 0h-641l-283 375h-424v-375h-536v1362h1188q127 0 225.5 -15.5t178.5 -50.5t132 -91.5t79.5 -140t27.5 -194.5v-10q0 -179 -71.5 -285t-213.5 -155zM1356 924h-619v-162h619q119 0 119 76v10q0 42 -28.5 59t-90.5 17z" />
    <glyph glyph-name="S" unicode="S" horiz-adv-x="2033" 
d="M1014 -37q-168 0 -303.5 12.5t-232.5 34.5t-169 56t-116 72t-71 88t-36.5 99.5t-9.5 110.5v21h553v-19q0 -32 29.5 -50t114.5 -28t241 -10q177 0 268.5 7.5t117 19.5t25.5 35v6q0 23 -26.5 34.5t-87.5 14.5l-643 27q-133 5 -235 30.5t-180.5 75.5t-119.5 131.5t-41 192.5
v4q1 76 19.5 136.5t59.5 114t110 92t168 66.5t235.5 42t310.5 14q156 0 283.5 -12t222 -33t165.5 -53t117 -70t74.5 -86.5t40 -98.5t11.5 -110v-25h-553v21q0 29 -29.5 45.5t-113.5 25.5t-238 9q-145 0 -222.5 -7t-102.5 -18.5t-25 -32.5v-2q0 -26 24 -37t88 -14l676 -31
q286 -13 415.5 -111t129.5 -296v-6q-1 -82 -18.5 -145.5t-58.5 -120t-111 -96t-173.5 -69t-249 -43.5t-333.5 -14z" />
    <glyph glyph-name="T" unicode="T" horiz-adv-x="1789" 
d="M63 1362h1663v-459h-563v-903h-536v903h-564v459z" />
    <glyph glyph-name="U" unicode="U" horiz-adv-x="2179" 
d="M1090 -37q-239 -1 -411.5 45t-291 146.5t-176 263t-57.5 393.5v551h536v-602q0 -98 25.5 -164.5t79 -104.5t124 -53.5t171.5 -15.5t171.5 15.5t123.5 53.5t78.5 104.5t25.5 164.5v602h536v-551q0 -231 -57 -393t-176 -262.5t-290.5 -146t-411.5 -46.5z" />
    <glyph glyph-name="V" unicode="V" horiz-adv-x="2181" 
d="M1092 555l448 809h633l-842 -1364h-481l-842 1364h633z" />
    <glyph glyph-name="W" unicode="W" horiz-adv-x="3006" 
d="M2142 543l273 819h583l-524 -1364h-670l-303 721l-303 -721h-666l-524 1364h580l272 -819l336 819h610z" />
    <glyph glyph-name="X" unicode="X" horiz-adv-x="2242" 
d="M1552 688l691 -688h-752l-381 385l-381 -385h-729l698 694l-620 668h690l360 -377l347 377h690z" />
    <glyph glyph-name="Y" unicode="Y" horiz-adv-x="2115" 
d="M1450 1362h682l-799 -805v-557h-536v549l-813 813h690l383 -399z" />
    <glyph glyph-name="Z" unicode="Z" horiz-adv-x="2060" 
d="M1884 907l-805 -448h916v-459h-1837v446l790 457h-848v459h1784v-455z" />
    <glyph glyph-name="bracketleft" unicode="[" horiz-adv-x="1107" 
d="M688 1233v-1026h307v-414h-825v1874h825v-434h-307z" />
    <glyph glyph-name="backslash" unicode="\" horiz-adv-x="2187" 
d="M745 1473l1379 -1616h-686l-1375 1616h682z" />
    <glyph glyph-name="bracketright" unicode="]" horiz-adv-x="1107" 
d="M113 207h307v1026h-307v434h825v-1874h-825v414z" />
    <glyph glyph-name="asciicircum" unicode="^" horiz-adv-x="1228" 
 />
    <glyph glyph-name="underscore" unicode="_" horiz-adv-x="1857" 
d="M1759 -428h-1661v387h1661v-387z" />
    <glyph glyph-name="a" unicode="a" horiz-adv-x="2029" 
d="M1016 1010q249 0 416.5 -34t267.5 -108t142 -180t42 -260v-428h-457v109q-75 -71 -224 -101.5t-380 -30.5h-112q-178 0 -295 17t-183 55t-92 89.5t-26 129.5v8q0 124 89 187t279 63h903q-20 67 -96.5 89t-273.5 22q-144 0 -221 -7t-105 -21t-28 -40v-12h-492v10
q0 77 22 139.5t80.5 120.5t151.5 97t243.5 62.5t348.5 23.5zM913 279h125q357 0 357 71v6h-715q-47 0 -47 -24v-2q0 -18 13 -27.5t76.5 -16.5t190.5 -7z" />
    <glyph glyph-name="b" unicode="b" horiz-adv-x="2097" 
d="M1229 1012q421 0 610 -117t189 -381v-49q0 -263 -188.5 -379.5t-610.5 -116.5q-434 0 -623 131v-100h-469v1405h492v-539q80 74 225.5 110t374.5 36zM1507 485v17q0 48 -33.5 73.5t-127 37.5t-275.5 12q-180 0 -273.5 -11.5t-131 -38t-37.5 -77.5v-21q0 -48 37 -73.5
t132 -37.5t273 -12q183 0 275.5 12.5t126.5 39.5t34 79z" />
    <glyph glyph-name="c" unicode="c" horiz-adv-x="1990" 
d="M997 -31q-259 0 -437.5 29.5t-286.5 93t-155.5 154.5t-47.5 221v43q0 173 87.5 280.5t292.5 163t547 56.5q341 1 547.5 -53t295.5 -159t89 -274v-4h-520v4q0 59 -99.5 80t-312.5 21q-170 0 -254.5 -11t-118.5 -37.5t-34 -80.5v-13q0 -54 34 -80.5t118.5 -37.5t254.5 -11
q213 0 312.5 22t99.5 81v4h520v-10q0 -170 -87.5 -273.5t-293 -156t-551.5 -52.5z" />
    <glyph glyph-name="d" unicode="d" horiz-adv-x="2117" 
d="M1489 864v541h491v-1405h-460v106q-185 -137 -631 -137q-436 0 -627.5 115.5t-191.5 378.5v49q0 264 191.5 381t627.5 117q229 0 374.5 -36t225.5 -110zM1047 354q178 0 273 12t132 37.5t37 73.5v21q0 50 -37.5 76t-131 37.5t-273.5 11.5q-192 0 -290 -12t-132.5 -37
t-34.5 -74v-17q0 -52 34.5 -78t132 -38.5t290.5 -12.5z" />
    <glyph glyph-name="e" unicode="e" horiz-adv-x="1953" 
d="M1896 524v-51h-1316v-2q0 -47 34 -71.5t117.5 -35t245.5 -10.5q163 0 253.5 8t123 22.5t32.5 39.5v2h510v-10q0 -77 -18 -137t-59 -112t-110.5 -89t-171 -63.5t-241 -39t-319.5 -12.5q-212 0 -366.5 20t-259 58.5t-166.5 101t-88.5 140.5t-26.5 184v43q0 88 18.5 156.5
t60 126t110.5 98t169 69t235 42.5t310 14q267 1 446.5 -28t284.5 -92.5t148.5 -152.5t43.5 -219zM973 651q-189 0 -270.5 -15t-106.5 -54h778q-28 40 -119.5 54.5t-281.5 14.5z" />
    <glyph glyph-name="f" unicode="f" horiz-adv-x="1470" 
d="M1450 1026h-580q-47 0 -68.5 -11t-27.5 -36h535v-383h-539v-596h-491v596h-220v383h222q11 207 143.5 316.5t384.5 109.5h639z" />
    <glyph glyph-name="g" unicode="g" horiz-adv-x="2011" 
d="M1444 860v119h475v-635q0 -170 -38.5 -295t-112 -209t-191.5 -135t-264.5 -72.5t-343.5 -21.5q-198 0 -350 21.5t-250.5 59.5t-161 94.5t-88 121t-25.5 143.5v12h506v-4q0 -48 95 -68t274 -20q75 0 127 3t106.5 12.5t90.5 28t66 48t46 73.5t20 104q-154 -148 -598 -148
q-398 0 -581 102.5t-183 333.5v41q0 233 183 337t581 104q250 0 396.5 -36t220.5 -114zM1006 457q174 0 266 8.5t123.5 24.5t31.5 45v20q0 28 -15.5 43.5t-63.5 26.5t-127 14.5t-215 3.5q-171 0 -261 -8t-125.5 -26t-35.5 -52v-8q0 -37 36 -56t125 -27.5t261 -8.5z" />
    <glyph glyph-name="h" unicode="h" horiz-adv-x="2146" 
d="M1223 1010q148 0 260.5 -16.5t211.5 -58.5t162.5 -111.5t99.5 -178.5t36 -256v-389h-492v303q0 98 -21.5 159.5t-73 95.5t-121 46t-181.5 12q-91 0 -160.5 -8.5t-130.5 -30.5t-100 -57.5t-61.5 -92t-22.5 -132.5v-295h-492v1405h492v-576q193 181 594 181z" />
    <glyph glyph-name="i" unicode="i" horiz-adv-x="854" 
d="M428 1042q-134 0 -202 57t-68 165q0 219 270 219q268 0 268 -219q0 -222 -268 -222zM666 0h-492v979h492v-979z" />
    <glyph glyph-name="j" unicode="j" horiz-adv-x="827" 
d="M424 1042q-134 0 -202 57t-68 165q0 219 270 219q268 0 268 -219q0 -222 -268 -222zM145 -358h-67l-2 401h41q30 0 44.5 14t14.5 47v875h500v-930q0 -212 -129 -309.5t-402 -97.5z" />
    <glyph glyph-name="k" unicode="k" horiz-adv-x="2043" 
d="M2019 0h-716l-373 354l-301 -178v-176h-492v1405h492v-764l559 338h803l-635 -375z" />
    <glyph glyph-name="l" unicode="l" horiz-adv-x="765" 
d="M137 0h492v1405h-492v-1405z" />
    <glyph glyph-name="m" unicode="m" horiz-adv-x="3260" 
d="M2423 1010q122 0 219.5 -16t187 -58.5t148.5 -111.5t94 -179t35 -256v-389h-492v303q0 97 -21 159.5t-67 95.5t-105 45.5t-149 12.5q-95 0 -162.5 -14t-120 -49t-78.5 -99t-26 -159v-295h-491v303q0 96 -21.5 159t-67.5 96t-104.5 45.5t-146.5 12.5q-70 0 -125.5 -8.5
t-106.5 -30.5t-84.5 -57.5t-53 -92t-19.5 -132.5v-295h-492v979h451v-195q170 226 569 226q146 0 258 -22.5t208.5 -84t151.5 -162.5q159 269 611 269z" />
    <glyph glyph-name="n" unicode="n" horiz-adv-x="2142" 
d="M1239 1010q100 0 182.5 -8t161 -27.5t139.5 -51t112 -80t84.5 -112.5t52 -150t18.5 -192v-389h-492v303q0 98 -21.5 159.5t-71 95.5t-115 46t-169.5 12q-106 0 -184 -14.5t-141.5 -49t-96 -99t-32.5 -158.5v-295h-492v979h451v-191q184 222 614 222z" />
    <glyph glyph-name="o" unicode="o" horiz-adv-x="2060" 
d="M1030 -31q-274 0 -459 29.5t-296 93.5t-158 154t-47 221v43q0 131 47.5 221.5t159 154t296.5 93.5t457 31t457.5 -29t296.5 -94t159 -155t48 -222v-43q0 -104 -29.5 -182t-97.5 -139t-179 -99.5t-273.5 -58t-381.5 -19.5zM1030 354q189 0 280.5 11t125.5 37.5t34 80.5v13
q0 54 -34 80.5t-125.5 37.5t-280.5 11t-280.5 -11t-125.5 -37.5t-34 -80.5v-13q0 -54 34 -80.5t125.5 -37.5t280.5 -11z" />
    <glyph glyph-name="p" unicode="p" horiz-adv-x="2058" 
d="M1190 1012q421 0 610 -117t189 -381v-49q0 -263 -188.5 -379.5t-610.5 -116.5q-414 0 -600 117v-444h-492v1337h441v-170q73 104 227 153.5t424 49.5zM1468 485v17q0 48 -33.5 73.5t-127 37.5t-275.5 12q-180 0 -273.5 -11.5t-131 -38t-37.5 -77.5v-21q0 -48 37 -73.5
t132 -37.5t273 -12q183 0 275.5 12.5t126.5 39.5t34 79z" />
    <glyph glyph-name="q" unicode="q" horiz-adv-x="2117" 
d="M1522 868v111h458v-1337h-491v444q-186 -117 -600 -117q-436 0 -627.5 116t-191.5 380v45q0 266 191.5 383t627.5 117q459 0 633 -142zM1047 354q178 0 273 12t132 37.5t37 73.5v21q0 50 -37.5 76t-131 37.5t-273.5 11.5q-192 0 -290 -12.5t-132.5 -37.5t-34.5 -75v-13
q0 -53 35 -79.5t132 -39t290 -12.5z" />
    <glyph glyph-name="r" unicode="r" horiz-adv-x="1478" 
d="M637 979v-176q86 118 263.5 170t471.5 35v-424q-123 0 -209 -1.5t-163 -6.5t-125 -11.5t-88.5 -20t-61.5 -29t-35.5 -40t-19 -52t-4.5 -67.5v-356h-492v979h463z" />
    <glyph glyph-name="s" unicode="s" horiz-adv-x="1929" 
d="M983 -37q-230 0 -399 19.5t-267.5 50.5t-157 79t-77.5 96t-19 111v9h512v-2q0 -21 29.5 -32.5t119.5 -17.5t259 -6q117 0 189.5 2t113.5 6.5t55.5 11t14.5 17.5v2q0 15 -20 21.5t-79 7.5l-729 27q-242 9 -348 85t-106 222v4q0 86 40.5 146.5t137 105.5t265 66.5
t415.5 21.5q207 0 361 -17.5t250 -47t155 -74.5t81.5 -95t22.5 -114v-9h-512v5q0 10 -9 18t-33 15t-64 11t-103 6.5t-149 2.5q-155 0 -235 -5t-101 -12.5t-21 -21.5v-2q0 -33 105 -35l715 -18q245 -6 354 -73t109 -210v-6q0 -96 -41.5 -162.5t-140.5 -114.5t-269.5 -71
t-423.5 -23z" />
    <glyph glyph-name="t" unicode="t" horiz-adv-x="1597" 
d="M940 401h539v-401h-658q-168 0 -279.5 29t-179 94t-96 160t-28.5 237v76h-177v383h177v254h491v-254h741v-383h-741v-10q0 -107 42 -146t169 -39z" />
    <glyph glyph-name="u" unicode="u" horiz-adv-x="2148" 
d="M1483 684v295h491v-979h-450v190q-183 -221 -615 -221q-148 0 -260.5 16.5t-211.5 58.5t-162.5 111.5t-99.5 178.5t-36 256v389h492v-303q0 -79 15 -133.5t43 -90t78.5 -55.5t111 -27.5t149.5 -7.5q109 0 187.5 14.5t141.5 49.5t94.5 99.5t31.5 158.5z" />
    <glyph glyph-name="v" unicode="v" horiz-adv-x="1886" 
d="M944 444l356 535h566l-701 -979h-444l-701 979h562z" />
    <glyph glyph-name="w" unicode="w" horiz-adv-x="2543" 
d="M1804 518l224 461h530l-514 -979h-418l-348 479l-301 -479h-457l-534 979h532l248 -479l307 479h397z" />
    <glyph glyph-name="x" unicode="x" horiz-adv-x="1978" 
d="M1331 487l623 -487h-678l-299 231l-291 -231h-661l612 483l-598 496h678l276 -236l283 236h661z" />
    <glyph glyph-name="y" unicode="y" horiz-adv-x="1898" 
d="M985 373l356 606h572l-903 -1337h-557l264 340l-731 997h608z" />
    <glyph glyph-name="z" unicode="z" horiz-adv-x="1830" 
d="M1735 580l-611 -218h660v-362h-1708v340l798 276h-802v363h1663v-399z" />
    <glyph glyph-name="braceleft" unicode="{" horiz-adv-x="1204" 
d="M827 1016v-43q0 -111 -53 -175.5t-166 -90.5q113 -26 166 -91t53 -176v-41q0 -45 2 -70t11.5 -49t24 -34.5t44 -19.5t67.5 -11t99 -2v-453q-182 0 -309 18t-213 54t-134.5 98.5t-68.5 142.5t-20 195v111q0 50 -20.5 70t-73.5 20h-101v473h101q53 0 73.5 20t20.5 70v115
q0 115 20 195t68.5 142.5t134.5 98.5t213 54t309 18v-453q-61 0 -99 -2t-67.5 -11t-44 -19.5t-24 -34.5t-11.5 -49t-2 -70z" />
    <glyph glyph-name="bar" unicode="|" horiz-adv-x="970" 
d="M240 -182h491v1765h-491v-1765z" />
    <glyph glyph-name="braceright" unicode="}" horiz-adv-x="1204" 
d="M969 942h100v-473h-100q-54 0 -74.5 -20t-20.5 -70v-111q0 -115 -20 -195t-68.5 -142.5t-134.5 -98.5t-213 -54t-309 -18v453q61 0 99 2t67.5 11t44 19.5t24 34.5t11.5 49t2 70v41q0 111 53 176t166 91q-113 26 -166 90.5t-53 175.5v43q0 45 -2 70t-11.5 49t-24 34.5
t-44 19.5t-67.5 11t-99 2v453q182 0 309 -18t213 -54t134.5 -98.5t68.5 -142.5t20 -195v-115q0 -50 20.5 -70t74.5 -20z" />
    <glyph glyph-name="asciitilde" unicode="~" horiz-adv-x="1458" 
d="M977 848q-68 0 -134 18t-112 39.5t-113 39.5t-137 18q-117 0 -193 -19t-186 -70v-442q108 51 191.5 70.5t187.5 19.5q67 0 132.5 -18t111.5 -39t114 -39t138 -18q115 0 196.5 21t182.5 69v442q-98 -49 -186.5 -70.5t-192.5 -21.5z" />
    <glyph glyph-name="exclamdown" unicode="&#xa1;" horiz-adv-x="872" 
d="M436 1008q169 0 253.5 -60.5t84.5 -177.5q0 -233 -338 -233t-338 233q0 116 85 177t253 61zM735 -385h-598l82 854h434z" />
    <glyph glyph-name="cent" unicode="&#xa2;" horiz-adv-x="2314" 
d="M2154 737v-14h-557v6q0 47 -104 67.5t-338 20.5q-237 0 -337.5 -28t-100.5 -97v-22q0 -69 100.5 -97t337.5 -28q231 0 336.5 24t105.5 74v6h557v-14q0 -166 -75.5 -274.5t-243.5 -171.5t-442 -80v-109h-492v109q-391 30 -566 163.5t-175 380.5v56q0 247 174.5 379.5
t566.5 162.5v111h492v-107q403 -26 582 -153t179 -365z" />
    <glyph glyph-name="sterling" unicode="&#xa3;" horiz-adv-x="2369" 
d="M1137 459h1065v-459h-2059v459h320q57 0 83.5 8t26.5 29v2q0 4 -1 8t-3 7.5l-4 7t-6.5 7.5t-8 7t-10 7.5t-10.5 7.5t-12.5 9t-13.5 10l-17 11l-28 18h-295v154h139q-45 77 -45 172v12q0 81 31.5 149.5t103 127t181 99t272 63.5t368.5 24q257 1 440 -35.5t296.5 -111
t166.5 -180.5t56 -253v-14h-543v6q0 66 -97.5 96.5t-318.5 30.5q-83 0 -143.5 -3.5t-94.5 -9t-54 -14t-25.5 -16t-5.5 -16.5v-2q0 -18 18.5 -31t65.5 -33l139 -61h455v-154h-328v-10v-4q0 -85 -104 -125z" />
    <glyph glyph-name="currency" unicode="&#xa4;" horiz-adv-x="2318" 
d="M2052 729v-55q0 -191 -115 -309l125 -91l-221 -274l-280 195q-165 -33 -404 -33q-226 0 -401 31l-279 -193l-221 274l121 88q-115 118 -115 312v55q0 204 129 324l-135 98l221 274l305 -211q159 27 375 27q206 0 377 -29l307 213l221 -274l-137 -100q127 -118 127 -322z
M778 713v-23q0 -69 90 -97t289 -28t289 28t90 97v23q0 69 -90 97t-289 28t-289 -28t-90 -97z" />
    <glyph glyph-name="yen" unicode="&#xa5;" horiz-adv-x="1964" 
d="M1292 1362h662l-512 -604h397v-262h-582v-68h582v-262h-582v-166h-536v166h-582v262h582v68h-582v262h385l-514 604h670l301 -449z" />
    <glyph glyph-name="brokenbar" unicode="&#xa6;" horiz-adv-x="970" 
d="M240 786h491v797h-491v-797zM731 616h-491v-798h491v798z" />
    <glyph glyph-name="section" unicode="&#xa7;" horiz-adv-x="2242" 
d="M944 924l715 -33q218 -9 322 -78.5t104 -208.5v-6q0 -108 -62 -179t-192 -112q111 -97 111 -262v-4q0 -99 -41.5 -172t-133 -126.5t-247 -80.5t-375.5 -27q-836 0 -836 449v8h553v-4q0 -46 63 -66t220 -20q104 0 163.5 6.5t81 18t21.5 30.5v2q0 27 -24 38t-89 14l-714 32
q-220 9 -323 82t-103 226v6q0 99 61.5 166t192.5 106q-111 97 -111 260v4q0 99 41.5 172t133 126.5t247 80.5t375.5 27q835 0 835 -449v-8h-553v4q0 46 -62.5 66t-219.5 20q-78 0 -131 -3.5t-82.5 -11t-41.5 -17t-12 -23.5v-2q0 -27 23.5 -37.5t89.5 -13.5zM696 532v-6
q0 -30 29 -43t94 -16l387 -18q133 -9 208.5 -3.5t103.5 19.5t28 41v4q0 32 -24.5 44t-89.5 15l-383 17q-134 8 -212.5 2.5t-109.5 -19t-31 -37.5z" />
    <glyph glyph-name="copyright" unicode="&#xa9;" horiz-adv-x="2273" 
d="M1137 -37q-129 0 -237.5 9.5t-210 31.5t-181.5 57.5t-147 89.5t-111 124.5t-68 164.5t-24 209v66q0 160 47 279.5t129.5 196t208.5 124t268.5 66t325.5 18.5t325.5 -18.5t268.5 -66t208.5 -124t129.5 -196t47 -279.5v-66q0 -115 -24 -209t-68 -164.5t-111 -124.5
t-147 -89.5t-181.5 -57.5t-210 -31.5t-237.5 -9.5zM1137 129q148 0 263.5 14.5t213.5 50t162 92.5t99.5 144.5t35.5 204.5v92q0 117 -35.5 205t-99.5 145t-162 92t-213 49.5t-264 14.5t-264 -14.5t-213.5 -49.5t-162.5 -92t-99.5 -145t-35.5 -205v-92q0 -145 53 -245
t158 -156.5t241 -80.5t323 -24zM1137 215q-335 -1 -490 108.5t-155 327.5v64q0 219 154.5 328t490.5 110q337 1 491 -103.5t154 -318.5v-10h-359v4q0 96 -286 96q-138 0 -211.5 -30t-73.5 -101v-14q0 -70 73.5 -99.5t211.5 -29.5q286 0 286 94v4h359v-10q0 -211 -154 -315
t-491 -105z" />
    <glyph glyph-name="guillemotleft" unicode="&#xab;" horiz-adv-x="1544" 
d="M449 1014h450l-319 -434l319 -418h-450l-396 416zM1042 1014h451l-319 -434l319 -418h-451l-395 416z" />
    <glyph glyph-name="logicalnot" unicode="&#xac;" horiz-adv-x="1228" 
 />
    <glyph glyph-name="registered" unicode="&#xae;" horiz-adv-x="1800" 
d="M911 1399q137 0 242 -13t196 -45t149 -84t91 -133t33 -190v-27q0 -109 -33 -190t-91 -133t-149 -84t-196 -45t-242 -13t-244.5 12.5t-201.5 45t-155.5 84.5t-96.5 133.5t-35 189.5v27q0 108 35 189.5t96.5 133.5t155.5 84.5t201.5 45t244.5 12.5zM1473 891v61
q0 91 -36.5 153.5t-111.5 97.5t-174 50t-240 15q-142 0 -244 -15t-181 -50t-118.5 -97.5t-39.5 -153.5v-61q0 -74 26.5 -129.5t74.5 -91.5t122 -57.5t160.5 -30.5t199.5 -9q112 0 196.5 9t155.5 30.5t116 57.5t69.5 91t24.5 130zM1296 983v-4q0 -126 -88 -172l107 -133h-252
l-78 102h-199v-102h-215v493h461q136 0 200 -41t64 -143zM1030 999h-244v-61h244q45 0 45 33v2q0 26 -45 26z" />
    <glyph glyph-name="degree" unicode="&#xb0;" horiz-adv-x="1449" 
d="M725 600q-128 0 -227 18t-166 50t-110 79.5t-62 104t-19 125.5v41q0 70 19 127t62 105t110 80.5t166 50.5t227 18t227 -18t166 -50.5t110 -80.5t62 -105t19 -127v-41q0 -69 -19 -125.5t-62 -104t-110 -79.5t-166 -50t-227 -18zM725 928q98 0 141 15t43 52v11
q0 36 -43 50.5t-141 14.5t-141 -14.5t-43 -50.5v-11q0 -37 43 -52t141 -15z" />
    <glyph glyph-name="plusminus" unicode="&#xb1;" horiz-adv-x="1552" 
d="M997 1231v-172h408v-375h-408v-172h-442v172h-408v375h408v172h442zM1405 104h-1258v375h1258v-375z" />
    <glyph glyph-name="paragraph" unicode="&#xb6;" horiz-adv-x="2414" 
d="M786 1362h1328v-1595h-496v1136h-170v-1136h-496v477h-166q-161 0 -278 28t-203 91t-129 170.5t-43 261.5v12q0 153 43 261t129 172t203.5 93t277.5 29zM813 682h139v221h-139q-76 0 -109.5 -21t-33.5 -83v-13q0 -62 33.5 -83t109.5 -21z" />
    <glyph glyph-name="periodcentered" unicode="&#xb7;" horiz-adv-x="835" 
d="M418 444q-145 0 -218 60.5t-73 177.5q0 233 291 233t291 -233q0 -238 -291 -238z" />
    <glyph glyph-name="guillemotright" unicode="&#xbb;" horiz-adv-x="1544" 
d="M51 1014h451l395 -436l-395 -416h-451l320 418zM645 1014h451l395 -436l-395 -416h-451l320 418z" />
    <glyph glyph-name="onequarter" unicode="&#xbc;" horiz-adv-x="2639" 
d="M150 0l1538 1362h634l-1538 -1362h-634zM688 674h-358v385l-260 -33l-62 281l377 49h303v-682zM2435 297h160v-207h-160v-90h-358v90h-772v193l745 401h385v-387zM2077 451l-330 -154h330v154z" />
    <glyph glyph-name="onehalf" unicode="&#xbd;" horiz-adv-x="2916" 
d="M123 0l1538 1362h635l-1538 -1362h-635zM688 674h-358v385l-260 -33l-62 281l377 49h303v-682zM2425 266l-107 -8h545v-258h-1266v297l623 53q85 7 133 15.5t65 18t17 22.5v2q0 9 -16.5 13.5t-64 7.5t-132.5 3q-283 0 -283 -47v-10h-356v12q0 57 18 103.5t62.5 87.5
t115.5 69t182 44t257 16q145 0 252.5 -11.5t172 -30.5t103.5 -48t52.5 -59.5t13.5 -70.5v-8q0 -92 -93.5 -145t-293.5 -68z" />
    <glyph glyph-name="threequarters" unicode="&#xbe;" horiz-adv-x="3115" 
d="M1343 883v-9q0 -54 -29.5 -93t-99.5 -68.5t-195 -44.5t-308 -15q-148 0 -261.5 16t-188 44.5t-122 70t-67 89t-19.5 106.5v6h377v-6q0 -30 64.5 -43.5t220.5 -13.5q92 0 144.5 4.5t68.5 11.5t16 18v2q0 19 -72 19h-368v86h332q88 0 88 20v2q0 6 -8 10.5t-31.5 8t-66 6
t-111.5 4.5q-162 0 -216.5 -10t-54.5 -41v-10h-377v16q0 75 31.5 130t104.5 97.5t202 64t314 21.5q182 0 305 -13.5t189.5 -40.5t93 -61.5t26.5 -82.5v-8q0 -106 -135 -146q85 -19 119 -56t34 -91zM608 0l1538 1362h635l-1538 -1362h-635zM2910 297h160v-207h-160v-90h-358
v90h-772v193l745 401h385v-387zM2552 451l-330 -154h330v154z" />
    <glyph glyph-name="questiondown" unicode="&#xbf;" horiz-adv-x="2007" 
d="M1038 590q-403 0 -403 207q0 211 403 211q406 0 406 -211q0 -207 -406 -207zM1364 113l4 22h557l-4 -22q-36 -193 -138.5 -308.5t-298.5 -171t-511 -55.5q-145 0 -259.5 7.5t-222.5 25t-185.5 49t-136.5 78t-88.5 114t-29.5 154.5v14q0 240 147.5 351t499.5 123l82 4v49
h545v-367l-405 -14q-130 -5 -199.5 -15.5t-91 -25.5t-21.5 -39v-4q0 -37 81.5 -52.5t283.5 -15.5q115 0 184.5 4t115.5 15.5t65.5 30t25.5 49.5z" />
    <glyph glyph-name="Agrave" unicode="&#xc0;" horiz-adv-x="2123" 
d="M967 1829l424 -344h-424l-457 344h457zM2124 0h-576l-98 178h-776l-99 -178h-575l821 1364h482zM1063 883l-191 -344h379z" />
    <glyph glyph-name="Aacute" unicode="&#xc1;" horiz-adv-x="2123" 
d="M1202 1829h457l-457 -344h-424zM2124 0h-576l-98 178h-776l-99 -178h-575l821 1364h482zM1063 883l-191 -344h379z" />
    <glyph glyph-name="Acircumflex" unicode="&#xc2;" horiz-adv-x="2123" 
d="M1251 1491l-194 125l-185 -125h-464l423 344h441l444 -344h-465zM2124 0h-576l-98 178h-776l-99 -178h-575l821 1364h482zM1063 883l-191 -344h379z" />
    <glyph glyph-name="Atilde" unicode="&#xc3;" horiz-adv-x="2123" 
d="M1288 1481q-64 0 -126 18t-104 39t-102.5 39t-121.5 18q-81 0 -147 -20t-150 -70v328q84 49 144.5 68.5t152.5 19.5q64 0 126 -18t103.5 -39.5t102 -39.5t122.5 -18q152 0 297 92v-327q-76 -47 -141 -68.5t-156 -21.5zM2124 0h-576l-98 178h-776l-99 -178h-575l821 1364
h482zM1063 883l-191 -344h379z" />
    <glyph glyph-name="Adieresis" unicode="&#xc4;" horiz-adv-x="2123" 
d="M723 1452q-127 0 -191.5 49.5t-64.5 145.5q0 192 256 192q254 0 254 -192q0 -195 -254 -195zM1405 1452q-127 0 -191.5 49.5t-64.5 145.5q0 192 256 192q254 0 254 -192q0 -195 -254 -195zM2124 0h-576l-98 178h-776l-99 -178h-575l821 1364h482zM1063 883l-191 -344h379
z" />
    <glyph glyph-name="Aring" unicode="&#xc5;" horiz-adv-x="2123" 
d="M1063 1432q-180 0 -289 28t-157.5 83t-49.5 145q-2 134 113 195t383 61t383 -61t113 -195q2 -134 -113 -195t-383 -61zM1063 1729q-87 0 -130.5 -4.5t-56 -12.5t-12.5 -24q0 -15 12.5 -22.5t56.5 -12t130 -4.5t130 4.5t56.5 12t12.5 22.5q0 16 -12.5 24t-56 12.5
t-130.5 4.5zM2124 0h-576l-98 178h-776l-99 -178h-575l821 1364h482zM1063 883l-191 -344h379z" />
    <glyph glyph-name="AE" unicode="&#xc6;" horiz-adv-x="3008" 
d="M2888 1362v-442h-889v-93h762v-284h-762v-101h889v-442h-1426v199h-712l-138 -199h-612l1006 1364h618v-2h1264zM1249 920l-264 -381h477v381h-213z" />
    <glyph glyph-name="Ccedilla" unicode="&#xc7;" horiz-adv-x="2314" 
d="M2216 752v-15h-557v6q0 95 -121.5 140t-380.5 45t-380.5 -52.5t-121.5 -183.5v-22q0 -129 122 -182.5t380 -53.5q260 0 381 44.5t121 139.5v7h557v-15q0 -152 -47.5 -263t-153.5 -192.5t-279.5 -126t-420.5 -55.5l-90 -61h49q71 0 115 -2t89.5 -8t71 -18t46.5 -32
t29.5 -49.5t8.5 -70.5q0 -126 -93 -182t-314 -56h-467v205h416q116 0 116 31q0 16 -28.5 21t-96.5 5h-309v142l115 75q-239 12 -408 60t-271.5 133t-149 199.5t-46.5 267.5v96q0 167 55.5 287.5t179.5 206t328.5 127.5t495.5 43t494.5 -39t326.5 -122.5t179 -199t59 -280.5z
" />
    <glyph glyph-name="Egrave" unicode="&#xc8;" horiz-adv-x="1914" 
d="M862 1829l424 -344h-424l-456 344h456zM1794 1362v-442h-1057v-109h930v-252h-930v-117h1057v-442h-1593v1362h1593z" />
    <glyph glyph-name="Eacute" unicode="&#xc9;" horiz-adv-x="1914" 
d="M1098 1829h456l-456 -344h-424zM1794 1362v-442h-1057v-109h930v-252h-930v-117h1057v-442h-1593v1362h1593z" />
    <glyph glyph-name="Ecircumflex" unicode="&#xca;" horiz-adv-x="1914" 
d="M1147 1491l-195 125l-184 -125h-465l424 344h440l445 -344h-465zM1794 1362v-442h-1057v-109h930v-252h-930v-117h1057v-442h-1593v1362h1593z" />
    <glyph glyph-name="Edieresis" unicode="&#xcb;" horiz-adv-x="1914" 
d="M618 1452q-127 0 -191.5 49.5t-64.5 145.5q0 192 256 192q254 0 254 -192q0 -195 -254 -195zM1300 1452q-127 0 -191.5 49.5t-64.5 145.5q0 192 256 192q254 0 254 -192q0 -195 -254 -195zM1794 1362v-442h-1057v-109h930v-252h-930v-117h1057v-442h-1593v1362h1593z" />
    <glyph glyph-name="Igrave" unicode="&#xcc;" horiz-adv-x="937" 
d="M836 1485h-424l-457 344h457zM737 0h-536v1362h536v-1362z" />
    <glyph glyph-name="Iacute" unicode="&#xcd;" horiz-adv-x="937" 
d="M647 1485h-424l424 344h457zM737 0h-536v1362h536v-1362z" />
    <glyph glyph-name="Icircumflex" unicode="&#xce;" horiz-adv-x="937" 
d="M696 1491l-194 125l-185 -125h-464l423 344h441l444 -344h-465zM737 0h-536v1362h536v-1362z" />
    <glyph glyph-name="Idieresis" unicode="&#xcf;" horiz-adv-x="937" 
d="M168 1452q-127 0 -191.5 49.5t-64.5 145.5q0 192 256 192q254 0 254 -192q0 -195 -254 -195zM850 1452q-127 0 -191.5 49.5t-64.5 145.5q0 192 256 192q254 0 254 -192q0 -195 -254 -195zM737 0h-536v1362h536v-1362z" />
    <glyph glyph-name="Eth" unicode="&#xd0;" horiz-adv-x="2269" 
d="M303 1362h1043q438 0 631.5 -160.5t193.5 -507.5v-35q0 -230 -83.5 -373.5t-265 -214.5t-476.5 -71h-1043v567h-235v246h235v549zM1614 670v24q0 115 -61 162t-193 47h-520v-90h549v-246h-549v-106h520q132 0 193 46.5t61 162.5z" />
    <glyph glyph-name="Ntilde" unicode="&#xd1;" horiz-adv-x="2394" 
d="M1423 1481q-64 0 -126 18t-104 39t-102.5 39t-121.5 18q-81 0 -147 -20t-150 -70v328q84 49 144.5 68.5t152.5 19.5q64 0 126 -18t103.5 -39.5t102 -39.5t122.5 -18q152 0 297 92v-327q-76 -47 -141 -68.5t-156 -21.5zM1694 627v735h499v-1362h-614l-877 739v-739h-501
v1362h592z" />
    <glyph glyph-name="Ograve" unicode="&#xd2;" horiz-adv-x="2396" 
d="M1526 1485h-424l-457 344h457zM1198 -37q-1100 -3 -1100 670v96q0 332 271 500.5t829 169.5q558 -1 829 -169.5t271 -500.5v-96q0 -673 -1100 -670zM1198 428q289 0 416 53.5t127 188.5v22q0 136 -126.5 189t-416.5 53q-289 0 -416 -53.5t-127 -188.5v-22
q0 -135 127 -188.5t416 -53.5z" />
    <glyph glyph-name="Oacute" unicode="&#xd3;" horiz-adv-x="2396" 
d="M1337 1485h-424l424 344h457zM1198 -37q-1100 -3 -1100 670v96q0 332 271 500.5t829 169.5q558 -1 829 -169.5t271 -500.5v-96q0 -673 -1100 -670zM1198 428q289 0 416 53.5t127 188.5v22q0 136 -126.5 189t-416.5 53q-289 0 -416 -53.5t-127 -188.5v-22
q0 -135 127 -188.5t416 -53.5z" />
    <glyph glyph-name="Ocircumflex" unicode="&#xd4;" horiz-adv-x="2396" 
d="M1386 1491l-194 125l-184 -125h-465l424 344h440l444 -344h-465zM1198 1399q558 -1 829 -169.5t271 -500.5v-96q0 -673 -1100 -670q-1100 -3 -1100 670v96q0 332 271 500.5t829 169.5zM1741 670v22q0 136 -126.5 189t-416.5 53q-289 0 -416 -53.5t-127 -188.5v-22
q0 -135 127 -188.5t416 -53.5t416 53.5t127 188.5z" />
    <glyph glyph-name="Otilde" unicode="&#xd5;" horiz-adv-x="2396" 
d="M1423 1481q-64 0 -126 18t-104 39t-102.5 39t-121.5 18q-81 0 -147 -20t-150 -70v328q84 49 144.5 68.5t152.5 19.5q64 0 126 -18t103.5 -39.5t102 -39.5t122.5 -18q152 0 297 92v-327q-76 -47 -141 -68.5t-156 -21.5zM1198 -37q-1100 -3 -1100 670v96q0 332 271 500.5
t829 169.5q558 -1 829 -169.5t271 -500.5v-96q0 -673 -1100 -670zM1198 428q289 0 416 53.5t127 188.5v22q0 136 -126.5 189t-416.5 53q-289 0 -416 -53.5t-127 -188.5v-22q0 -135 127 -188.5t416 -53.5z" />
    <glyph glyph-name="Odieresis" unicode="&#xd6;" horiz-adv-x="2396" 
d="M858 1452q-127 0 -191.5 49.5t-64.5 145.5q0 192 256 192q254 0 254 -192q0 -195 -254 -195zM1540 1452q-127 0 -191.5 49.5t-64.5 145.5q0 192 256 192q254 0 254 -192q0 -195 -254 -195zM1198 -37q-1100 -3 -1100 670v96q0 332 271 500.5t829 169.5q558 -1 829 -169.5
t271 -500.5v-96q0 -673 -1100 -670zM1198 428q289 0 416 53.5t127 188.5v22q0 136 -126.5 189t-416.5 53q-289 0 -416 -53.5t-127 -188.5v-22q0 -135 127 -188.5t416 -53.5z" />
    <glyph glyph-name="multiply" unicode="&#xd7;" horiz-adv-x="1570" 
d="M1219 1137l198 -314l-282 -178l282 -178l-198 -313l-433 272l-434 -272l-198 313l282 178l-282 178l198 314l434 -273z" />
    <glyph glyph-name="Oslash" unicode="&#xd8;" horiz-adv-x="2396" 
d="M2146 1407l185 -334l-99 -55q66 -126 66 -289v-96q0 -673 -1100 -670q-439 0 -692 100l-254 -139l-186 336l110 62q-78 135 -78 311v96q0 332 271 500.5t829 169.5q457 0 723 -115zM655 692v-22q0 -41 13 -78l618 340q-29 2 -88 2q-289 0 -416 -53.5t-127 -188.5z
M1741 670v22q0 23 -4 51l-574 -315h35q289 0 416 53.5t127 188.5z" />
    <glyph glyph-name="Ugrave" unicode="&#xd9;" horiz-adv-x="2179" 
d="M1417 1485h-424l-456 344h456zM1090 -37q-239 -1 -411.5 45t-291 146.5t-176 263t-57.5 393.5v551h536v-602q0 -98 25.5 -164.5t79 -104.5t124 -53.5t171.5 -15.5t171.5 15.5t123.5 53.5t78.5 104.5t25.5 164.5v602h536v-551q0 -231 -57 -393t-176 -262.5t-290.5 -146
t-411.5 -46.5z" />
    <glyph glyph-name="Uacute" unicode="&#xda;" horiz-adv-x="2179" 
d="M1229 1485h-424l424 344h457zM1090 -37q-239 -1 -411.5 45t-291 146.5t-176 263t-57.5 393.5v551h536v-602q0 -98 25.5 -164.5t79 -104.5t124 -53.5t171.5 -15.5t171.5 15.5t123.5 53.5t78.5 104.5t25.5 164.5v602h536v-551q0 -231 -57 -393t-176 -262.5t-290.5 -146
t-411.5 -46.5z" />
    <glyph glyph-name="Ucircumflex" unicode="&#xdb;" horiz-adv-x="2179" 
d="M1278 1491l-195 125l-184 -125h-465l424 344h440l445 -344h-465zM1489 760v602h536v-551q0 -231 -57 -393t-176 -262.5t-290.5 -146t-411.5 -46.5q-239 -1 -411.5 45t-291 146.5t-176 263t-57.5 393.5v551h536v-602q0 -98 25.5 -164.5t79 -104.5t124 -53.5t171.5 -15.5
t171.5 15.5t123.5 53.5t78.5 104.5t25.5 164.5z" />
    <glyph glyph-name="Udieresis" unicode="&#xdc;" horiz-adv-x="2179" 
d="M750 1452q-127 0 -191.5 49.5t-64.5 145.5q0 192 256 192q254 0 254 -192q0 -195 -254 -195zM1432 1452q-127 0 -191.5 49.5t-64.5 145.5q0 192 256 192q254 0 254 -192q0 -195 -254 -195zM1090 -37q-239 -1 -411.5 45t-291 146.5t-176 263t-57.5 393.5v551h536v-602
q0 -98 25.5 -164.5t79 -104.5t124 -53.5t171.5 -15.5t171.5 15.5t123.5 53.5t78.5 104.5t25.5 164.5v602h536v-551q0 -231 -57 -393t-176 -262.5t-290.5 -146t-411.5 -46.5z" />
    <glyph glyph-name="Yacute" unicode="&#xdd;" horiz-adv-x="2115" 
d="M1198 1829h457l-457 -344h-424zM1450 1362h682l-799 -805v-557h-536v549l-813 813h690l383 -399z" />
    <glyph glyph-name="Thorn" unicode="&#xde;" horiz-adv-x="1904" 
d="M737 1219h504q152 0 262.5 -27t190.5 -86.5t119.5 -159t39.5 -241.5v-29q0 -142 -39.5 -241.5t-119.5 -159t-190.5 -86.5t-262.5 -27h-504v-162h-536v1362h536v-143zM1296 684v12q0 47 -27.5 62.5t-88.5 15.5h-443v-166h443q60 0 88 15.5t28 60.5z" />
    <glyph glyph-name="germandbls" unicode="&#xdf;" horiz-adv-x="2148" 
d="M1729 762q189 -38 264 -124t75 -228v-7q0 -145 -65.5 -232t-215 -129t-403.5 -42h-581v385h620q144 0 144 72v2q0 41 -33.5 58.5t-110.5 17.5h-559v337h359q102 0 150 20t48 69v8q0 36 -30.5 54.5t-108 26t-231.5 7.5q-90 0 -153 -6t-110 -22.5t-74 -38.5t-43.5 -61
t-22 -84t-5.5 -112v-733h-491v733q0 203 42.5 334.5t148 217.5t275.5 121.5t433 35.5q201 0 336.5 -10t241 -34t164.5 -68t88.5 -108t31.5 -157v-8q0 -204 -184 -295z" />
    <glyph glyph-name="agrave" unicode="&#xe0;" horiz-adv-x="2029" 
d="M973 1446l342 -344h-465l-457 344h580zM1016 1010q249 0 416.5 -34t267.5 -108t142 -180t42 -260v-428h-457v109q-75 -71 -224 -101.5t-380 -30.5h-112q-178 0 -295 17t-183 55t-92 89.5t-26 129.5v8q0 124 89 187t279 63h903q-20 67 -96.5 89t-273.5 22q-144 0 -221 -7
t-105 -21t-28 -40v-12h-492v10q0 77 22 139.5t80.5 120.5t151.5 97t243.5 62.5t348.5 23.5zM913 279h125q357 0 357 71v6h-715q-47 0 -47 -24v-2q0 -18 13 -27.5t76.5 -16.5t190.5 -7z" />
    <glyph glyph-name="aacute" unicode="&#xe1;" horiz-adv-x="2029" 
d="M1133 1446h579l-457 -344h-464zM1016 1010q249 0 416.5 -34t267.5 -108t142 -180t42 -260v-428h-457v109q-75 -71 -224 -101.5t-380 -30.5h-112q-178 0 -295 17t-183 55t-92 89.5t-26 129.5v8q0 124 89 187t279 63h903q-20 67 -96.5 89t-273.5 22q-144 0 -221 -7
t-105 -21t-28 -40v-12h-492v10q0 77 22 139.5t80.5 120.5t151.5 97t243.5 62.5t348.5 23.5zM913 279h125q357 0 357 71v6h-715q-47 0 -47 -24v-2q0 -18 13 -27.5t76.5 -16.5t190.5 -7z" />
    <glyph glyph-name="acircumflex" unicode="&#xe2;" horiz-adv-x="2029" 
d="M1231 1087l-195 130l-184 -130h-465l424 345h440l445 -345h-465zM1016 1010q249 0 416.5 -34t267.5 -108t142 -180t42 -260v-428h-457v109q-75 -71 -224 -101.5t-380 -30.5h-112q-178 0 -295 17t-183 55t-92 89.5t-26 129.5v8q0 124 89 187t279 63h903q-20 67 -96.5 89
t-273.5 22q-144 0 -221 -7t-105 -21t-28 -40v-12h-492v10q0 77 22 139.5t80.5 120.5t151.5 97t243.5 62.5t348.5 23.5zM913 279h125q357 0 357 71v6h-715q-47 0 -47 -24v-2q0 -18 13 -27.5t76.5 -16.5t190.5 -7z" />
    <glyph glyph-name="atilde" unicode="&#xe3;" horiz-adv-x="2029" 
d="M1257 1098q-98 0 -230.5 36.5t-223.5 36.5q-81 0 -147 -20t-150 -70v287q84 49 144.5 68.5t152.5 19.5q97 0 229.5 -37t224.5 -37q80 0 149.5 22t147.5 71v-287q-76 -47 -141 -68.5t-156 -21.5zM1016 1010q249 0 416.5 -34t267.5 -108t142 -180t42 -260v-428h-457v109
q-75 -71 -224 -101.5t-380 -30.5h-112q-178 0 -295 17t-183 55t-92 89.5t-26 129.5v8q0 124 89 187t279 63h903q-20 67 -96.5 89t-273.5 22q-144 0 -221 -7t-105 -21t-28 -40v-12h-492v10q0 77 22 139.5t80.5 120.5t151.5 97t243.5 62.5t348.5 23.5zM913 279h125
q357 0 357 71v6h-715q-47 0 -47 -24v-2q0 -18 13 -27.5t76.5 -16.5t190.5 -7z" />
    <glyph glyph-name="adieresis" unicode="&#xe4;" horiz-adv-x="2029" 
d="M692 1069q-127 0 -191.5 49.5t-64.5 145.5q0 192 256 192q254 0 254 -192q0 -195 -254 -195zM1374 1069q-127 0 -191.5 49.5t-64.5 145.5q0 192 256 192q254 0 254 -192q0 -195 -254 -195zM1016 1010q249 0 416.5 -34t267.5 -108t142 -180t42 -260v-428h-457v109
q-75 -71 -224 -101.5t-380 -30.5h-112q-178 0 -295 17t-183 55t-92 89.5t-26 129.5v8q0 124 89 187t279 63h903q-20 67 -96.5 89t-273.5 22q-144 0 -221 -7t-105 -21t-28 -40v-12h-492v10q0 77 22 139.5t80.5 120.5t151.5 97t243.5 62.5t348.5 23.5zM913 279h125
q357 0 357 71v6h-715q-47 0 -47 -24v-2q0 -18 13 -27.5t76.5 -16.5t190.5 -7z" />
    <glyph glyph-name="aring" unicode="&#xe5;" horiz-adv-x="2029" 
d="M1032 1069q-267 0 -380 56t-115 180q-2 123 112.5 179t382.5 56t383 -56t113 -179q2 -123 -113 -179.5t-383 -56.5zM1032 1341q-74 0 -117 -1.5t-66 -6.5t-29.5 -11t-6.5 -17q0 -14 13.5 -20.5t61 -10.5t144.5 -4t144.5 4t61 10.5t13.5 20.5q0 11 -6.5 17t-29.5 11
t-66 6.5t-117 1.5zM1016 1010q249 0 416.5 -34t267.5 -108t142 -180t42 -260v-428h-457v109q-75 -71 -224 -101.5t-380 -30.5h-112q-178 0 -295 17t-183 55t-92 89.5t-26 129.5v8q0 124 89 187t279 63h903q-20 67 -96.5 89t-273.5 22q-144 0 -221 -7t-105 -21t-28 -40v-12
h-492v10q0 77 22 139.5t80.5 120.5t151.5 97t243.5 62.5t348.5 23.5zM913 279h125q357 0 357 71v6h-715q-47 0 -47 -24v-2q0 -18 13 -27.5t76.5 -16.5t190.5 -7z" />
    <glyph glyph-name="ae" unicode="&#xe6;" horiz-adv-x="3278" 
d="M3222 524v-51h-1317v-2q0 -47 34 -71.5t117.5 -35t245.5 -10.5q163 0 254 8t123.5 22.5t32.5 39.5v2h510v-10q0 -93 -26 -162t-89 -125.5t-168 -92t-263 -54.5t-374 -19q-544 0 -731 156q-79 -84 -247.5 -120t-438.5 -36h-154q-186 0 -307 18t-189 57.5t-94 93.5t-26 136
v8q0 124 89 187t279 63h903q-20 67 -96.5 89t-273.5 22q-144 0 -221 -7t-105 -21t-28 -40v-12h-492v10q0 78 22 141.5t80.5 122.5t151.5 98.5t243.5 63t348.5 23.5q433 0 622 -123q204 123 660 123q214 1 371.5 -18.5t263.5 -57t170 -98.5t91.5 -137.5t27.5 -180.5z
M2298 651q-189 0 -270.5 -15t-106.5 -54h778q-28 40 -119.5 54.5t-281.5 14.5zM913 279h125q357 0 357 71v6h-715q-47 0 -47 -24v-2q0 -18 13 -27.5t76.5 -16.5t190.5 -7z" />
    <glyph glyph-name="ccedilla" unicode="&#xe7;" horiz-adv-x="1990" 
d="M1929 524v-4h-520v4q0 59 -99.5 80t-312.5 21q-170 0 -254.5 -11t-118.5 -37.5t-34 -80.5v-13q0 -54 34 -80.5t118.5 -37.5t254.5 -11q213 0 312.5 22t99.5 81v4h520v-10q0 -156 -73.5 -256t-245.5 -156.5t-457 -67.5l-84 -55q136 0 211 -19.5t104 -58t29 -106.5
q0 -89 -53.5 -139t-191 -74.5t-388.5 -24.5h-180v205h139q133 0 207 4t99.5 11.5t25.5 19.5q0 16 -22 19t-103 3h-248v142l115 75q-205 10 -348 45t-230 98t-126 148.5t-39 202.5v43q0 173 87.5 280.5t292.5 163t547 56.5q341 1 547.5 -53t295.5 -159t89 -274z" />
    <glyph glyph-name="egrave" unicode="&#xe8;" horiz-adv-x="1953" 
d="M918 1446l342 -344h-465l-457 344h580zM1896 524v-51h-1316v-2q0 -47 34 -71.5t117.5 -35t245.5 -10.5q163 0 253.5 8t123 22.5t32.5 39.5v2h510v-10q0 -77 -18 -137t-59 -112t-110.5 -89t-171 -63.5t-241 -39t-319.5 -12.5q-212 0 -366.5 20t-259 58.5t-166.5 101
t-88.5 140.5t-26.5 184v43q0 88 18.5 156.5t60 126t110.5 98t169 69t235 42.5t310 14q267 1 446.5 -28t284.5 -92.5t148.5 -152.5t43.5 -219zM973 651q-189 0 -270.5 -15t-106.5 -54h778q-28 40 -119.5 54.5t-281.5 14.5z" />
    <glyph glyph-name="eacute" unicode="&#xe9;" horiz-adv-x="1953" 
d="M1077 1446h580l-457 -344h-465zM1896 524v-51h-1316v-2q0 -47 34 -71.5t117.5 -35t245.5 -10.5q163 0 253.5 8t123 22.5t32.5 39.5v2h510v-10q0 -77 -18 -137t-59 -112t-110.5 -89t-171 -63.5t-241 -39t-319.5 -12.5q-212 0 -366.5 20t-259 58.5t-166.5 101t-88.5 140.5
t-26.5 184v43q0 88 18.5 156.5t60 126t110.5 98t169 69t235 42.5t310 14q267 1 446.5 -28t284.5 -92.5t148.5 -152.5t43.5 -219zM973 651q-189 0 -270.5 -15t-106.5 -54h778q-28 40 -119.5 54.5t-281.5 14.5z" />
    <glyph glyph-name="ecircumflex" unicode="&#xea;" horiz-adv-x="1953" 
d="M1176 1087l-195 130l-184 -130h-465l424 345h440l444 -345h-464zM1896 524v-51h-1316v-2q0 -47 34 -71.5t117.5 -35t245.5 -10.5q163 0 253.5 8t123 22.5t32.5 39.5v2h510v-10q0 -77 -18 -137t-59 -112t-110.5 -89t-171 -63.5t-241 -39t-319.5 -12.5q-212 0 -366.5 20
t-259 58.5t-166.5 101t-88.5 140.5t-26.5 184v43q0 88 18.5 156.5t60 126t110.5 98t169 69t235 42.5t310 14q267 1 446.5 -28t284.5 -92.5t148.5 -152.5t43.5 -219zM973 651q-189 0 -270.5 -15t-106.5 -54h778q-28 40 -119.5 54.5t-281.5 14.5z" />
    <glyph glyph-name="edieresis" unicode="&#xeb;" horiz-adv-x="1953" 
d="M637 1069q-127 0 -191.5 49.5t-64.5 145.5q0 192 256 192q254 0 254 -192q0 -195 -254 -195zM1319 1069q-127 0 -191.5 49.5t-64.5 145.5q0 192 256 192q254 0 254 -192q0 -195 -254 -195zM1896 524v-51h-1316v-2q0 -47 34 -71.5t117.5 -35t245.5 -10.5q163 0 253.5 8
t123 22.5t32.5 39.5v2h510v-10q0 -77 -18 -137t-59 -112t-110.5 -89t-171 -63.5t-241 -39t-319.5 -12.5q-212 0 -366.5 20t-259 58.5t-166.5 101t-88.5 140.5t-26.5 184v43q0 88 18.5 156.5t60 126t110.5 98t169 69t235 42.5t310 14q267 1 446.5 -28t284.5 -92.5
t148.5 -152.5t43.5 -219zM973 651q-189 0 -270.5 -15t-106.5 -54h778q-28 40 -119.5 54.5t-281.5 14.5z" />
    <glyph glyph-name="igrave" unicode="&#xec;" horiz-adv-x="854" 
d="M711 1102h-465l-457 344h580zM666 0h-492v979h492v-979z" />
    <glyph glyph-name="iacute" unicode="&#xed;" horiz-adv-x="854" 
d="M651 1102h-465l342 344h580zM666 0h-492v979h492v-979z" />
    <glyph glyph-name="icircumflex" unicode="&#xee;" horiz-adv-x="854" 
d="M627 1087l-195 130l-184 -130h-465l424 345h440l445 -345h-465zM666 0h-492v979h492v-979z" />
    <glyph glyph-name="idieresis" unicode="&#xef;" horiz-adv-x="854" 
d="M88 1069q-127 0 -191.5 49.5t-64.5 145.5q0 192 256 192q254 0 254 -192q0 -195 -254 -195zM770 1069q-127 0 -191.5 49.5t-64.5 145.5q0 192 256 192q254 0 254 -192q0 -195 -254 -195zM666 0h-492v979h492v-979z" />
    <glyph glyph-name="eth" unicode="&#xf0;" horiz-adv-x="2174" 
d="M2189 1137l23 -127l-168 -35q22 -99 22 -242v-141q0 -140 -31 -238.5t-106 -176t-206 -123t-324.5 -68.5t-468.5 -23q-206 0 -359 21t-252 58.5t-159.5 96t-84.5 126.5t-24 157v24q0 106 39 181.5t132.5 132t259 84.5t407.5 28q254 0 417 -36.5t248 -114.5v98q0 37 -2 53
l-182 -38l-22 129l139 28q-45 25 -117 25h-1116v389h1063q286 0 451 -73.5t237 -233.5zM1548 442v7q0 17 -14 26t-65 16t-145.5 10t-262.5 5q-214 2 -322.5 -4.5t-138 -18t-29.5 -34.5v-7q0 -17 14 -26t66 -16t147 -10t263 -5q214 -2 322 4.5t136.5 18t28.5 34.5z" />
    <glyph glyph-name="ntilde" unicode="&#xf1;" horiz-adv-x="2142" 
d="M1296 1098q-98 0 -230.5 36.5t-223.5 36.5q-81 0 -147 -20t-150 -70v287q84 49 144.5 68.5t152.5 19.5q97 0 229.5 -37t224.5 -37q80 0 149.5 22t147.5 71v-287q-76 -47 -141 -68.5t-156 -21.5zM1239 1010q100 0 182.5 -8t161 -27.5t139.5 -51t112 -80t84.5 -112.5
t52 -150t18.5 -192v-389h-492v303q0 98 -21.5 159.5t-71 95.5t-115 46t-169.5 12q-106 0 -184 -14.5t-141.5 -49t-96 -99t-32.5 -158.5v-295h-492v979h451v-191q184 222 614 222z" />
    <glyph glyph-name="ograve" unicode="&#xf2;" horiz-adv-x="2060" 
d="M1313 1102h-465l-457 344h580zM1030 -31q-274 0 -459 29.5t-296 93.5t-158 154t-47 221v43q0 131 47.5 221.5t159 154t296.5 93.5t457 31t457.5 -29t296.5 -94t159 -155t48 -222v-43q0 -104 -29.5 -182t-97.5 -139t-179 -99.5t-273.5 -58t-381.5 -19.5zM1030 354
q189 0 280.5 11t125.5 37.5t34 80.5v13q0 54 -34 80.5t-125.5 37.5t-280.5 11t-280.5 -11t-125.5 -37.5t-34 -80.5v-13q0 -54 34 -80.5t125.5 -37.5t280.5 -11z" />
    <glyph glyph-name="oacute" unicode="&#xf3;" horiz-adv-x="2060" 
d="M1253 1102h-465l342 344h580zM1030 -31q-274 0 -459 29.5t-296 93.5t-158 154t-47 221v43q0 131 47.5 221.5t159 154t296.5 93.5t457 31t457.5 -29t296.5 -94t159 -155t48 -222v-43q0 -104 -29.5 -182t-97.5 -139t-179 -99.5t-273.5 -58t-381.5 -19.5zM1030 354
q189 0 280.5 11t125.5 37.5t34 80.5v13q0 54 -34 80.5t-125.5 37.5t-280.5 11t-280.5 -11t-125.5 -37.5t-34 -80.5v-13q0 -54 34 -80.5t125.5 -37.5t280.5 -11z" />
    <glyph glyph-name="ocircumflex" unicode="&#xf4;" horiz-adv-x="2060" 
d="M1229 1087l-195 130l-184 -130h-465l424 345h440l445 -345h-465zM1030 1010q272 1 457.5 -29t296.5 -94t159 -155t48 -222v-43q0 -104 -29.5 -182t-97.5 -139t-179 -99.5t-273.5 -58t-381.5 -19.5q-274 0 -459 29.5t-296 93.5t-158 154t-47 221v43q0 131 47.5 221.5
t159 154t296.5 93.5t457 31zM1470 483v13q0 54 -34 80.5t-125.5 37.5t-280.5 11t-280.5 -11t-125.5 -37.5t-34 -80.5v-13q0 -54 34 -80.5t125.5 -37.5t280.5 -11t280.5 11t125.5 37.5t34 80.5z" />
    <glyph glyph-name="otilde" unicode="&#xf5;" horiz-adv-x="2060" 
d="M1255 1098q-98 0 -230.5 36.5t-223.5 36.5q-81 0 -147 -20t-150 -70v287q84 49 144.5 68.5t152.5 19.5q97 0 229.5 -37t224.5 -37q80 0 149.5 22t147.5 71v-287q-76 -47 -141 -68.5t-156 -21.5zM1030 -31q-274 0 -459 29.5t-296 93.5t-158 154t-47 221v43
q0 131 47.5 221.5t159 154t296.5 93.5t457 31t457.5 -29t296.5 -94t159 -155t48 -222v-43q0 -104 -29.5 -182t-97.5 -139t-179 -99.5t-273.5 -58t-381.5 -19.5zM1030 354q189 0 280.5 11t125.5 37.5t34 80.5v13q0 54 -34 80.5t-125.5 37.5t-280.5 11t-280.5 -11
t-125.5 -37.5t-34 -80.5v-13q0 -54 34 -80.5t125.5 -37.5t280.5 -11z" />
    <glyph glyph-name="odieresis" unicode="&#xf6;" horiz-adv-x="2060" 
d="M690 1069q-127 0 -191.5 49.5t-64.5 145.5q0 192 256 192q254 0 254 -192q0 -195 -254 -195zM1372 1069q-127 0 -191.5 49.5t-64.5 145.5q0 192 256 192q254 0 254 -192q0 -195 -254 -195zM1030 -31q-274 0 -459 29.5t-296 93.5t-158 154t-47 221v43q0 131 47.5 221.5
t159 154t296.5 93.5t457 31t457.5 -29t296.5 -94t159 -155t48 -222v-43q0 -104 -29.5 -182t-97.5 -139t-179 -99.5t-273.5 -58t-381.5 -19.5zM1030 354q189 0 280.5 11t125.5 37.5t34 80.5v13q0 54 -34 80.5t-125.5 37.5t-280.5 11t-280.5 -11t-125.5 -37.5t-34 -80.5v-13
q0 -54 34 -80.5t125.5 -37.5t280.5 -11z" />
    <glyph glyph-name="divide" unicode="&#xf7;" horiz-adv-x="1550" 
d="M776 903q-256 0 -256 209q0 205 256 205t256 -205q0 -209 -256 -209zM1403 479h-1256v395h1256v-395zM776 33q-256 0 -256 209q0 204 256 204t256 -204q0 -209 -256 -209z" />
    <glyph glyph-name="oslash" unicode="&#xf8;" horiz-adv-x="2060" 
d="M1958 891l-98 -55q131 -114 131 -326v-43q0 -104 -29.5 -182t-97.5 -139t-179 -99.5t-273.5 -58t-381.5 -19.5q-389 0 -608 64l-240 -135l-121 215l107 59q-98 106 -98 295v43q0 131 47.5 221.5t159 154t296.5 93.5t457 31q353 0 551 -47l258 143zM590 496v-13
q0 -44 18 -65l369 207q-163 -1 -245 -13.5t-112 -38.5t-30 -77zM1470 483v13q0 69 -53 92l-418 -234h31q189 0 280.5 11t125.5 37.5t34 80.5z" />
    <glyph glyph-name="ugrave" unicode="&#xf9;" horiz-adv-x="2148" 
d="M1008 1446l342 -344h-465l-457 344h580zM1483 684v295h491v-979h-450v190q-183 -221 -615 -221q-148 0 -260.5 16.5t-211.5 58.5t-162.5 111.5t-99.5 178.5t-36 256v389h492v-303q0 -79 15 -133.5t43 -90t78.5 -55.5t111 -27.5t149.5 -7.5q109 0 187.5 14.5t141.5 49.5
t94.5 99.5t31.5 158.5z" />
    <glyph glyph-name="uacute" unicode="&#xfa;" horiz-adv-x="2148" 
d="M1167 1446h580l-457 -344h-465zM1483 684v295h491v-979h-450v190q-183 -221 -615 -221q-148 0 -260.5 16.5t-211.5 58.5t-162.5 111.5t-99.5 178.5t-36 256v389h492v-303q0 -79 15 -133.5t43 -90t78.5 -55.5t111 -27.5t149.5 -7.5q109 0 187.5 14.5t141.5 49.5t94.5 99.5
t31.5 158.5z" />
    <glyph glyph-name="ucircumflex" unicode="&#xfb;" horiz-adv-x="2148" 
d="M1266 1087l-195 130l-184 -130h-465l424 345h440l445 -345h-465zM1483 684v295h491v-979h-450v190q-183 -221 -615 -221q-148 0 -260.5 16.5t-211.5 58.5t-162.5 111.5t-99.5 178.5t-36 256v389h492v-303q0 -79 15 -133.5t43 -90t78.5 -55.5t111 -27.5t149.5 -7.5
q109 0 187.5 14.5t141.5 49.5t94.5 99.5t31.5 158.5z" />
    <glyph glyph-name="udieresis" unicode="&#xfc;" horiz-adv-x="2148" 
d="M727 1069q-127 0 -191.5 49.5t-64.5 145.5q0 192 256 192q254 0 254 -192q0 -195 -254 -195zM1409 1069q-127 0 -191.5 49.5t-64.5 145.5q0 192 256 192q254 0 254 -192q0 -195 -254 -195zM1483 684v295h491v-979h-450v190q-183 -221 -615 -221q-148 0 -260.5 16.5
t-211.5 58.5t-162.5 111.5t-99.5 178.5t-36 256v389h492v-303q0 -79 15 -133.5t43 -90t78.5 -55.5t111 -27.5t149.5 -7.5q109 0 187.5 14.5t141.5 49.5t94.5 99.5t31.5 158.5z" />
    <glyph glyph-name="yacute" unicode="&#xfd;" horiz-adv-x="1898" 
d="M1051 1446h579l-456 -344h-465zM985 373l356 606h572l-903 -1337h-557l264 340l-731 997h608z" />
    <glyph glyph-name="thorn" unicode="&#xfe;" horiz-adv-x="2058" 
d="M1190 1012q421 0 610 -117t189 -381v-49q0 -263 -188.5 -379.5t-610.5 -116.5q-414 0 -600 117v-444h-492v1763h482v-547q81 78 228 116t382 38zM1468 485v17q0 48 -33.5 73.5t-127 37.5t-275.5 12q-180 0 -273.5 -11.5t-131 -38t-37.5 -77.5v-21q0 -48 37 -73.5
t132 -37.5t273 -12q183 0 275.5 12.5t126.5 39.5t34 79z" />
    <glyph glyph-name="ydieresis" unicode="&#xff;" horiz-adv-x="1898" 
d="M610 1069q-127 0 -191.5 49.5t-64.5 145.5q0 192 256 192q254 0 254 -192q0 -195 -254 -195zM1292 1069q-127 0 -191.5 49.5t-64.5 145.5q0 192 256 192q254 0 254 -192q0 -195 -254 -195zM985 373l356 606h572l-903 -1337h-557l264 340l-731 997h608z" />
    <glyph glyph-name="Amacron" unicode="&#x100;" horiz-adv-x="2123" 
d="M467 1815h1192v-295h-1192v295zM2124 0h-576l-98 178h-776l-99 -178h-575l821 1364h482zM1063 883l-191 -344h379z" />
    <glyph glyph-name="amacron" unicode="&#x101;" horiz-adv-x="2029" 
d="M436 1432h1192v-295h-1192v295zM1016 1010q249 0 416.5 -34t267.5 -108t142 -180t42 -260v-428h-457v109q-75 -71 -224 -101.5t-380 -30.5h-112q-178 0 -295 17t-183 55t-92 89.5t-26 129.5v8q0 124 89 187t279 63h903q-20 67 -96.5 89t-273.5 22q-144 0 -221 -7
t-105 -21t-28 -40v-12h-492v10q0 77 22 139.5t80.5 120.5t151.5 97t243.5 62.5t348.5 23.5zM913 279h125q357 0 357 71v6h-715q-47 0 -47 -24v-2q0 -18 13 -27.5t76.5 -16.5t190.5 -7z" />
    <glyph glyph-name="Abreve" unicode="&#x102;" horiz-adv-x="2123" 
d="M1063 1440q-499 0 -496 372h316q0 -66 37 -92t143 -26t143 26t37 92h316q3 -372 -496 -372zM2124 0h-576l-98 178h-776l-99 -178h-575l821 1364h482zM1063 883l-191 -344h379z" />
    <glyph glyph-name="abreve" unicode="&#x103;" horiz-adv-x="2029" 
d="M1032 1057q-498 0 -495 379h315q0 -66 43 -94.5t137 -28.5t137 28.5t43 94.5h316q3 -379 -496 -379zM1016 1010q249 0 416.5 -34t267.5 -108t142 -180t42 -260v-428h-457v109q-75 -71 -224 -101.5t-380 -30.5h-112q-178 0 -295 17t-183 55t-92 89.5t-26 129.5v8
q0 124 89 187t279 63h903q-20 67 -96.5 89t-273.5 22q-144 0 -221 -7t-105 -21t-28 -40v-12h-492v10q0 77 22 139.5t80.5 120.5t151.5 97t243.5 62.5t348.5 23.5zM913 279h125q357 0 357 71v6h-715q-47 0 -47 -24v-2q0 -18 13 -27.5t76.5 -16.5t190.5 -7z" />
    <glyph glyph-name="Aogonek" unicode="&#x104;" horiz-adv-x="2123" 
d="M1878 -203h250v-268h-344q-164 0 -234.5 56t-70.5 169q0 152 135 246h-66l-98 178h-776l-99 -178h-575l821 1364h482l821 -1364q-164 -56 -239 -94.5t-75 -75.5q0 -18 15 -25.5t53 -7.5zM1063 883l-191 -344h379z" />
    <glyph glyph-name="aogonek" unicode="&#x105;" horiz-adv-x="2029" 
d="M1638 -203h250v-268h-344q-164 0 -234.5 56t-70.5 169q0 88 43.5 156t144.5 123v76q-75 -71 -224 -101.5t-380 -30.5h-112q-178 0 -295 17t-183 55t-92 89.5t-26 129.5v8q0 124 89 187t279 63h903q-20 67 -96.5 89t-273.5 22q-144 0 -221 -7t-105 -21t-28 -40v-12h-492
v10q0 77 22 139.5t80.5 120.5t151.5 97t243.5 62.5t348.5 23.5q249 0 416.5 -34t267.5 -108t142 -180t42 -260v-428q-164 -55 -238.5 -94t-74.5 -76q0 -18 15 -25.5t52 -7.5zM913 279h125q357 0 357 71v6h-715q-47 0 -47 -24v-2q0 -18 13 -27.5t76.5 -16.5t190.5 -7z" />
    <glyph glyph-name="Cacute" unicode="&#x106;" horiz-adv-x="2314" 
d="M1296 1485h-424l424 344h457zM1157 -31q-291 -1 -495.5 41t-328.5 128t-179.5 207t-55.5 288v96q0 167 55.5 287.5t179.5 206t328.5 127.5t495.5 43t494.5 -39t326.5 -122.5t179 -199t59 -280.5v-15h-557v6q0 95 -121.5 140t-380.5 45t-380.5 -52.5t-121.5 -183.5v-22
q0 -129 122 -182.5t380 -53.5q260 0 381 44.5t121 139.5v7h557v-15q0 -163 -55.5 -279.5t-179.5 -198.5t-328 -122t-496 -41z" />
    <glyph glyph-name="cacute" unicode="&#x107;" horiz-adv-x="1990" 
d="M1219 1102h-465l342 344h579zM997 -31q-259 0 -437.5 29.5t-286.5 93t-155.5 154.5t-47.5 221v43q0 173 87.5 280.5t292.5 163t547 56.5q341 1 547.5 -53t295.5 -159t89 -274v-4h-520v4q0 59 -99.5 80t-312.5 21q-170 0 -254.5 -11t-118.5 -37.5t-34 -80.5v-13
q0 -54 34 -80.5t118.5 -37.5t254.5 -11q213 0 312.5 22t99.5 81v4h520v-10q0 -170 -87.5 -273.5t-293 -156t-551.5 -52.5z" />
    <glyph glyph-name="Cdotaccent" unicode="&#x10a;" horiz-adv-x="2314" 
d="M1157 1452q-360 0 -360 195q0 192 360 192q359 0 359 -192q0 -195 -359 -195zM1157 -31q-291 -1 -495.5 41t-328.5 128t-179.5 207t-55.5 288v96q0 167 55.5 287.5t179.5 206t328.5 127.5t495.5 43t494.5 -39t326.5 -122.5t179 -199t59 -280.5v-15h-557v6
q0 95 -121.5 140t-380.5 45t-380.5 -52.5t-121.5 -183.5v-22q0 -129 122 -182.5t380 -53.5q260 0 381 44.5t121 139.5v7h557v-15q0 -163 -55.5 -279.5t-179.5 -198.5t-328 -122t-496 -41z" />
    <glyph glyph-name="cdotaccent" unicode="&#x10b;" horiz-adv-x="1990" 
d="M995 1067q-154 0 -232.5 55.5t-78.5 161.5q0 215 311 215q310 0 310 -215q0 -217 -310 -217zM997 -31q-259 0 -437.5 29.5t-286.5 93t-155.5 154.5t-47.5 221v43q0 173 87.5 280.5t292.5 163t547 56.5q341 1 547.5 -53t295.5 -159t89 -274v-4h-520v4q0 59 -99.5 80
t-312.5 21q-170 0 -254.5 -11t-118.5 -37.5t-34 -80.5v-13q0 -54 34 -80.5t118.5 -37.5t254.5 -11q213 0 312.5 22t99.5 81v4h520v-10q0 -170 -87.5 -273.5t-293 -156t-551.5 -52.5z" />
    <glyph glyph-name="Ccaron" unicode="&#x10c;" horiz-adv-x="2314" 
d="M1810 1806l-444 -344h-440l-424 344h465l184 -125l195 125h464zM2216 752v-15h-557v6q0 95 -121.5 140t-380.5 45t-380.5 -52.5t-121.5 -183.5v-22q0 -129 122 -182.5t380 -53.5q260 0 381 44.5t121 139.5v7h557v-15q0 -163 -55.5 -279.5t-179.5 -198.5t-328 -122
t-496 -41q-291 -1 -495.5 41t-328.5 128t-179.5 207t-55.5 288v96q0 167 55.5 287.5t179.5 206t328.5 127.5t495.5 43t494.5 -39t326.5 -122.5t179 -199t59 -280.5z" />
    <glyph glyph-name="ccaron" unicode="&#x10d;" horiz-adv-x="1990" 
d="M1649 1423l-445 -344h-440l-424 344h465l184 -129l195 129h465zM1929 524v-4h-520v4q0 59 -99.5 80t-312.5 21q-170 0 -254.5 -11t-118.5 -37.5t-34 -80.5v-13q0 -54 34 -80.5t118.5 -37.5t254.5 -11q213 0 312.5 22t99.5 81v4h520v-10q0 -170 -87.5 -273.5t-293 -156
t-551.5 -52.5q-259 0 -437.5 29.5t-286.5 93t-155.5 154.5t-47.5 221v43q0 173 87.5 280.5t292.5 163t547 56.5q341 1 547.5 -53t295.5 -159t89 -274z" />
    <glyph glyph-name="Dcaron" unicode="&#x10e;" horiz-adv-x="2166" 
d="M1737 1806l-445 -344h-440l-424 344h465l184 -125l195 125h465zM201 1362h1042q438 0 631.5 -160.5t193.5 -507.5v-35q0 -230 -83.5 -373.5t-265 -214.5t-476.5 -71h-1042v1362zM1511 670v24q0 115 -61 162t-193 47h-520v-442h520q132 0 193 46.5t61 162.5z" />
    <glyph glyph-name="dcaron" unicode="&#x10f;" horiz-adv-x="2117" 
d="M2032 936l206 512h431l-326 -512h-311zM1489 864v541h491v-1405h-460v106q-185 -137 -631 -137q-436 0 -627.5 115.5t-191.5 378.5v49q0 264 191.5 381t627.5 117q229 0 374.5 -36t225.5 -110zM1047 354q178 0 273 12t132 37.5t37 73.5v21q0 50 -37.5 76t-131 37.5
t-273.5 11.5q-192 0 -290 -12t-132.5 -37t-34.5 -74v-17q0 -52 34.5 -78t132 -38.5t290.5 -12.5z" />
    <glyph glyph-name="Dcroat" unicode="&#x110;" horiz-adv-x="2269" 
d="M303 1362h1043q438 0 631.5 -160.5t193.5 -507.5v-35q0 -230 -83.5 -373.5t-265 -214.5t-476.5 -71h-1043v567h-235v246h235v549zM1614 670v24q0 115 -61 162t-193 47h-520v-90h549v-246h-549v-106h520q132 0 193 46.5t61 162.5z" />
    <glyph glyph-name="dcroat" unicode="&#x111;" horiz-adv-x="2117" 
d="M1980 1317h164v-258h-164v-1059h-460v106q-185 -137 -631 -137q-436 0 -627.5 115.5t-191.5 378.5v49q0 264 191.5 381t627.5 117q229 0 374.5 -36t225.5 -110v195h-830v258h830v88h491v-88zM1047 354q178 0 273 12t132 37.5t37 73.5v21q0 50 -37.5 76t-131 37.5
t-273.5 11.5q-192 0 -290 -12t-132.5 -37t-34.5 -74v-17q0 -52 34.5 -78t132 -38.5t290.5 -12.5z" />
    <glyph glyph-name="Emacron" unicode="&#x112;" horiz-adv-x="1914" 
d="M362 1815h1192v-295h-1192v295zM1794 1362v-442h-1057v-109h930v-252h-930v-117h1057v-442h-1593v1362h1593z" />
    <glyph glyph-name="emacron" unicode="&#x113;" horiz-adv-x="1953" 
d="M381 1432h1192v-295h-1192v295zM1896 524v-51h-1316v-2q0 -47 34 -71.5t117.5 -35t245.5 -10.5q163 0 253.5 8t123 22.5t32.5 39.5v2h510v-10q0 -77 -18 -137t-59 -112t-110.5 -89t-171 -63.5t-241 -39t-319.5 -12.5q-212 0 -366.5 20t-259 58.5t-166.5 101t-88.5 140.5
t-26.5 184v43q0 88 18.5 156.5t60 126t110.5 98t169 69t235 42.5t310 14q267 1 446.5 -28t284.5 -92.5t148.5 -152.5t43.5 -219zM973 651q-189 0 -270.5 -15t-106.5 -54h778q-28 40 -119.5 54.5t-281.5 14.5z" />
    <glyph glyph-name="Edotaccent" unicode="&#x116;" horiz-adv-x="1914" 
d="M958 1452q-360 0 -360 195q0 192 360 192q359 0 359 -192q0 -195 -359 -195zM1794 1362v-442h-1057v-109h930v-252h-930v-117h1057v-442h-1593v1362h1593z" />
    <glyph glyph-name="edotaccent" unicode="&#x117;" horiz-adv-x="1953" 
d="M977 1067q-154 0 -232.5 55.5t-78.5 161.5q0 215 311 215q309 0 309 -215q0 -217 -309 -217zM1896 524v-51h-1316v-2q0 -47 34 -71.5t117.5 -35t245.5 -10.5q163 0 253.5 8t123 22.5t32.5 39.5v2h510v-10q0 -77 -18 -137t-59 -112t-110.5 -89t-171 -63.5t-241 -39
t-319.5 -12.5q-212 0 -366.5 20t-259 58.5t-166.5 101t-88.5 140.5t-26.5 184v43q0 88 18.5 156.5t60 126t110.5 98t169 69t235 42.5t310 14q267 1 446.5 -28t284.5 -92.5t148.5 -152.5t43.5 -219zM973 651q-189 0 -270.5 -15t-106.5 -54h778q-28 40 -119.5 54.5
t-281.5 14.5z" />
    <glyph glyph-name="Eogonek" unicode="&#x118;" horiz-adv-x="1914" 
d="M1548 -203h250v-268h-344q-164 0 -234.5 56t-70.5 169q0 152 135 246h-1083v1362h1593v-442h-1057v-109h930v-252h-930v-117h1057v-442q-164 -55 -238.5 -94t-74.5 -76q0 -18 15 -25.5t52 -7.5z" />
    <glyph glyph-name="eogonek" unicode="&#x119;" horiz-adv-x="1953" 
d="M1896 524v-51h-1316v-2q0 -47 34 -71.5t117.5 -35t245.5 -10.5q163 0 253.5 8t123 22.5t32.5 39.5v2h510v-10q0 -175 -102 -277.5t-354 -144.5q-154 -51 -225.5 -89.5t-71.5 -74.5q0 -18 15 -25.5t52 -7.5h250v-268h-344q-164 0 -234.5 56t-70.5 169q0 129 90 209
q-241 4 -402.5 36.5t-256 97t-133.5 153t-39 217.5v43q0 88 18.5 156.5t60 126t110.5 98t169 69t235 42.5t310 14q267 1 446.5 -28t284.5 -92.5t148.5 -152.5t43.5 -219zM973 651q-189 0 -270.5 -15t-106.5 -54h778q-28 40 -119.5 54.5t-281.5 14.5z" />
    <glyph glyph-name="Ecaron" unicode="&#x11a;" horiz-adv-x="1914" 
d="M1612 1806l-445 -344h-440l-424 344h465l184 -125l195 125h465zM1794 1362v-442h-1057v-109h930v-252h-930v-117h1057v-442h-1593v1362h1593z" />
    <glyph glyph-name="ecaron" unicode="&#x11b;" horiz-adv-x="1953" 
d="M1630 1423l-444 -344h-441l-423 344h464l185 -129l194 129h465zM1896 524v-51h-1316v-2q0 -47 34 -71.5t117.5 -35t245.5 -10.5q163 0 253.5 8t123 22.5t32.5 39.5v2h510v-10q0 -77 -18 -137t-59 -112t-110.5 -89t-171 -63.5t-241 -39t-319.5 -12.5q-212 0 -366.5 20
t-259 58.5t-166.5 101t-88.5 140.5t-26.5 184v43q0 88 18.5 156.5t60 126t110.5 98t169 69t235 42.5t310 14q267 1 446.5 -28t284.5 -92.5t148.5 -152.5t43.5 -219zM973 651q-189 0 -270.5 -15t-106.5 -54h778q-28 40 -119.5 54.5t-281.5 14.5z" />
    <glyph glyph-name="Gbreve" unicode="&#x11e;" horiz-adv-x="2304" 
d="M1153 1440q-499 0 -496 372h316q0 -66 37 -92t143 -26t143 26t37 92h316q3 -372 -496 -372zM973 508v276h1171v-784h-512l-22 106q-234 -143 -604 -143q-443 0 -675.5 171t-232.5 501v92q0 672 1051 672q267 0 457 -35t306.5 -106.5t171 -172t56.5 -237.5v-10h-559v6
q0 49 -103 69.5t-329 20.5q-96 0 -169 -6.5t-136 -23t-103.5 -44t-63 -70t-22.5 -100.5v-18q0 -69 33.5 -116.5t99.5 -73.5t149.5 -37t197.5 -11q182 0 273 16.5t124 57.5h-559z" />
    <glyph glyph-name="gbreve" unicode="&#x11f;" horiz-adv-x="2011" 
d="M995 1057q-498 0 -495 379h315q0 -66 43 -94.5t137 -28.5q95 0 138 29t43 94h315q3 -379 -496 -379zM1444 860v119h475v-635q0 -170 -38.5 -295t-112 -209t-191.5 -135t-264.5 -72.5t-343.5 -21.5q-198 0 -350 21.5t-250.5 59.5t-161 94.5t-88 121t-25.5 143.5v12h506v-4
q0 -48 95 -68t274 -20q75 0 127 3t106.5 12.5t90.5 28t66 48t46 73.5t20 104q-154 -148 -598 -148q-398 0 -581 102.5t-183 333.5v41q0 233 183 337t581 104q250 0 396.5 -36t220.5 -114zM1006 457q174 0 266 8.5t123.5 24.5t31.5 45v20q0 28 -15.5 43.5t-63.5 26.5
t-127 14.5t-215 3.5q-171 0 -261 -8t-125.5 -26t-35.5 -52v-8q0 -37 36 -56t125 -27.5t261 -8.5z" />
    <glyph glyph-name="Gdotaccent" unicode="&#x120;" horiz-adv-x="2304" 
d="M1153 1452q-360 0 -360 195q0 192 360 192q358 0 358 -192q0 -195 -358 -195zM973 508v276h1171v-784h-512l-22 106q-234 -143 -604 -143q-443 0 -675.5 171t-232.5 501v92q0 672 1051 672q267 0 457 -35t306.5 -106.5t171 -172t56.5 -237.5v-10h-559v6q0 49 -103 69.5
t-329 20.5q-96 0 -169 -6.5t-136 -23t-103.5 -44t-63 -70t-22.5 -100.5v-18q0 -69 33.5 -116.5t99.5 -73.5t149.5 -37t197.5 -11q182 0 273 16.5t124 57.5h-559z" />
    <glyph glyph-name="gdotaccent" unicode="&#x121;" horiz-adv-x="2011" 
d="M995 1067q-154 0 -232.5 55.5t-78.5 161.5q0 215 311 215q310 0 310 -215q0 -217 -310 -217zM1444 860v119h475v-635q0 -170 -38.5 -295t-112 -209t-191.5 -135t-264.5 -72.5t-343.5 -21.5q-198 0 -350 21.5t-250.5 59.5t-161 94.5t-88 121t-25.5 143.5v12h506v-4
q0 -48 95 -68t274 -20q75 0 127 3t106.5 12.5t90.5 28t66 48t46 73.5t20 104q-154 -148 -598 -148q-398 0 -581 102.5t-183 333.5v41q0 233 183 337t581 104q250 0 396.5 -36t220.5 -114zM1006 457q174 0 266 8.5t123.5 24.5t31.5 45v20q0 28 -15.5 43.5t-63.5 26.5
t-127 14.5t-215 3.5q-171 0 -261 -8t-125.5 -26t-35.5 -52v-8q0 -37 36 -56t125 -27.5t261 -8.5z" />
    <glyph glyph-name="uni0122" unicode="&#x122;" horiz-adv-x="2304" 
d="M973 508v276h1171v-784h-512l-22 106q-234 -143 -604 -143q-443 0 -675.5 171t-232.5 501v92q0 672 1051 672q267 0 457 -35t306.5 -106.5t171 -172t56.5 -237.5v-10h-559v6q0 49 -103 69.5t-329 20.5q-96 0 -169 -6.5t-136 -23t-103.5 -44t-63 -70t-22.5 -100.5v-18
q0 -69 33.5 -116.5t99.5 -73.5t149.5 -37t197.5 -11q182 0 273 16.5t124 57.5h-559zM1053 -446h-424l295 350h510z" />
    <glyph glyph-name="uni0123" unicode="&#x123;" horiz-adv-x="2011" 
d="M1176 1489h383l-381 -375h-486zM1444 860v119h475v-635q0 -170 -38.5 -295t-112 -209t-191.5 -135t-264.5 -72.5t-343.5 -21.5q-198 0 -350 21.5t-250.5 59.5t-161 94.5t-88 121t-25.5 143.5v12h506v-4q0 -48 95 -68t274 -20q75 0 127 3t106.5 12.5t90.5 28t66 48
t46 73.5t20 104q-154 -148 -598 -148q-398 0 -581 102.5t-183 333.5v41q0 233 183 337t581 104q250 0 396.5 -36t220.5 -114zM1006 457q174 0 266 8.5t123.5 24.5t31.5 45v20q0 28 -15.5 43.5t-63.5 26.5t-127 14.5t-215 3.5q-171 0 -261 -8t-125.5 -26t-35.5 -52v-8
q0 -37 36 -56t125 -27.5t261 -8.5z" />
    <glyph glyph-name="Hbar" unicode="&#x126;" horiz-adv-x="2400" 
d="M2200 1208h110v-393h-110v-815h-537v258h-926v-258h-536v815h-111v393h111v154h536v-154h926v154h537v-154zM737 696h926v119h-926v-119z" />
    <glyph glyph-name="hbar" unicode="&#x127;" horiz-adv-x="2146" 
d="M1223 1010q148 0 260.5 -16.5t211.5 -58.5t162.5 -111.5t99.5 -178.5t36 -256v-389h-492v303q0 98 -21.5 159.5t-73 95.5t-121 46t-181.5 12q-91 0 -160.5 -8.5t-130.5 -30.5t-100 -57.5t-61.5 -92t-22.5 -132.5v-295h-492v1065h-145v233h145v107h492v-107h608v-233h-608
v-236q193 181 594 181z" />
    <glyph glyph-name="Imacron" unicode="&#x12a;" horiz-adv-x="937" 
d="M1104 1520h-1192v295h1192v-295zM737 0h-536v1362h536v-1362z" />
    <glyph glyph-name="imacron" unicode="&#x12b;" horiz-adv-x="854" 
d="M823 1137h-790v295h790v-295zM666 0h-492v979h492v-979z" />
    <glyph glyph-name="Iogonek" unicode="&#x12e;" horiz-adv-x="937" 
d="M492 -203h249v-268h-344q-164 0 -234.5 56t-70.5 169q0 152 135 246h-26v1362h536v-1362q-164 -55 -238.5 -94t-74.5 -76q0 -18 15 -25.5t53 -7.5z" />
    <glyph glyph-name="iogonek" unicode="&#x12f;" horiz-adv-x="854" 
d="M428 1499q309 0 309 -215q0 -217 -309 -217q-154 0 -232.5 55.5t-78.5 161.5q0 215 311 215zM352 -170q0 -18 15 -25.5t53 -7.5h250v-268h-344q-164 0 -235 56t-71 169q0 160 154 258v967h492v-979q-164 -56 -239 -94.5t-75 -75.5z" />
    <glyph glyph-name="Idotaccent" unicode="&#x130;" horiz-adv-x="937" 
d="M508 1452q-361 0 -361 195q0 192 361 192q358 0 358 -192q0 -195 -358 -195zM737 0h-536v1362h536v-1362z" />
    <glyph glyph-name="dotlessi" unicode="&#x131;" horiz-adv-x="854" 
d="M666 0h-492v979h492v-979z" />
    <glyph glyph-name="uni0136" unicode="&#x136;" horiz-adv-x="2136" 
d="M2101 1362l-678 -535l701 -827h-705l-411 500l-271 -215v-285h-536v1362h536v-512l617 512h747zM975 -446h-424l295 350h510z" />
    <glyph glyph-name="uni0137" unicode="&#x137;" horiz-adv-x="2043" 
d="M1991 979l-635 -375l663 -604h-716l-373 354l-301 -178v-176h-492v1405h492v-764l559 338h803zM950 -449h-362l215 375h467z" />
    <glyph glyph-name="Lacute" unicode="&#x139;" horiz-adv-x="1779" 
d="M674 1829h456l-456 -344h-424zM737 1362v-903h1002v-459h-1538v1362h536z" />
    <glyph glyph-name="lacute" unicode="&#x13a;" horiz-adv-x="765" 
d="M600 1528h-424l424 344h457zM137 0h492v1405h-492v-1405z" />
    <glyph glyph-name="uni013B" unicode="&#x13b;" horiz-adv-x="1779" 
d="M737 1362v-903h1002v-459h-1538v1362h536zM780 -446h-424l295 350h510z" />
    <glyph glyph-name="uni013C" unicode="&#x13c;" horiz-adv-x="765" 
d="M137 0h492v1405h-492v-1405zM-61 -449l215 375h467l-320 -375h-362z" />
    <glyph glyph-name="Lcaron" unicode="&#x13d;" horiz-adv-x="1779" 
d="M1145 1405h430l-182 -680h-312zM737 1362v-903h1002v-459h-1538v1362h536z" />
    <glyph glyph-name="lcaron" unicode="&#x13e;" horiz-adv-x="765" 
d="M1012 936h-312l207 512h430zM137 0h492v1405h-492v-1405z" />
    <glyph glyph-name="Lslash" unicode="&#x141;" horiz-adv-x="1882" 
d="M840 649v-190h1001v-459h-1538v481l-246 -78l-114 365l360 113v481h537v-313l338 106l116 -364z" />
    <glyph glyph-name="lslash" unicode="&#x142;" horiz-adv-x="1210" 
d="M1065 1090l119 -308l-332 -133v-649h-492v453l-217 -88l-116 307l333 135v598h492v-401z" />
    <glyph glyph-name="Nacute" unicode="&#x143;" horiz-adv-x="2394" 
d="M1337 1829h457l-457 -344h-424zM1694 627v735h499v-1362h-614l-877 739v-739h-501v1362h592z" />
    <glyph glyph-name="nacute" unicode="&#x144;" horiz-adv-x="2142" 
d="M1171 1446h580l-457 -344h-465zM1239 1010q100 0 182.5 -8t161 -27.5t139.5 -51t112 -80t84.5 -112.5t52 -150t18.5 -192v-389h-492v303q0 98 -21.5 159.5t-71 95.5t-115 46t-169.5 12q-106 0 -184 -14.5t-141.5 -49t-96 -99t-32.5 -158.5v-295h-492v979h451v-191
q184 222 614 222z" />
    <glyph glyph-name="uni0145" unicode="&#x145;" horiz-adv-x="2394" 
d="M1694 627v735h499v-1362h-614l-877 739v-739h-501v1362h592zM1098 -446h-424l295 350h510z" />
    <glyph glyph-name="uni0146" unicode="&#x146;" horiz-adv-x="2142" 
d="M1239 1010q100 0 182.5 -8t161 -27.5t139.5 -51t112 -80t84.5 -112.5t52 -150t18.5 -192v-389h-492v303q0 98 -21.5 159.5t-71 95.5t-115 46t-169.5 12q-106 0 -184 -14.5t-141.5 -49t-96 -99t-32.5 -158.5v-295h-492v979h451v-191q184 222 614 222zM1073 -449h-362
l215 375h467z" />
    <glyph glyph-name="Ncaron" unicode="&#x147;" horiz-adv-x="2394" 
d="M1851 1806l-444 -344h-440l-424 344h465l184 -125l194 125h465zM1694 627v735h499v-1362h-614l-877 739v-739h-501v1362h592z" />
    <glyph glyph-name="ncaron" unicode="&#x148;" horiz-adv-x="2142" 
d="M1724 1423l-444 -344h-440l-424 344h465l184 -129l195 129h464zM1239 1010q100 0 182.5 -8t161 -27.5t139.5 -51t112 -80t84.5 -112.5t52 -150t18.5 -192v-389h-492v303q0 98 -21.5 159.5t-71 95.5t-115 46t-169.5 12q-106 0 -184 -14.5t-141.5 -49t-96 -99t-32.5 -158.5
v-295h-492v979h451v-191q184 222 614 222z" />
    <glyph glyph-name="Eng" unicode="&#x14a;" horiz-adv-x="2394" 
d="M1694 627v735h499v-1079q0 -147 -17 -256.5t-57.5 -194t-101 -140.5t-153 -91.5t-208.5 -50.5t-272 -15h-372v459h422q93 0 137 12l-869 733v-739h-501v1362h592z" />
    <glyph glyph-name="eng" unicode="&#x14b;" horiz-adv-x="2142" 
d="M1239 1010q100 0 182.5 -8t161 -27.5t139.5 -51t112 -80t84.5 -112.5t52 -150t18.5 -192v-278q0 -253 -118.5 -361t-363.5 -108h-293v381h164q60 0 89.5 27.5t29.5 90.5v162q0 98 -21.5 159.5t-71 95.5t-115 46t-169.5 12q-106 0 -184 -14.5t-141.5 -49t-96 -99
t-32.5 -158.5v-295h-492v979h451v-191q184 222 614 222z" />
    <glyph glyph-name="Omacron" unicode="&#x14c;" horiz-adv-x="2396" 
d="M1794 1520h-1192v295h1192v-295zM1198 -37q-1100 -3 -1100 670v96q0 332 271 500.5t829 169.5q558 -1 829 -169.5t271 -500.5v-96q0 -673 -1100 -670zM1198 428q289 0 416 53.5t127 188.5v22q0 136 -126.5 189t-416.5 53q-289 0 -416 -53.5t-127 -188.5v-22
q0 -135 127 -188.5t416 -53.5z" />
    <glyph glyph-name="omacron" unicode="&#x14d;" horiz-adv-x="2060" 
d="M1626 1137h-1192v295h1192v-295zM1030 -31q-274 0 -459 29.5t-296 93.5t-158 154t-47 221v43q0 131 47.5 221.5t159 154t296.5 93.5t457 31t457.5 -29t296.5 -94t159 -155t48 -222v-43q0 -104 -29.5 -182t-97.5 -139t-179 -99.5t-273.5 -58t-381.5 -19.5zM1030 354
q189 0 280.5 11t125.5 37.5t34 80.5v13q0 54 -34 80.5t-125.5 37.5t-280.5 11t-280.5 -11t-125.5 -37.5t-34 -80.5v-13q0 -54 34 -80.5t125.5 -37.5t280.5 -11z" />
    <glyph glyph-name="Ohungarumlaut" unicode="&#x150;" horiz-adv-x="2396" 
d="M1108 1485h-444l342 344h477zM1667 1485h-444l424 344h477zM1198 -37q-1100 -3 -1100 670v96q0 332 271 500.5t829 169.5q558 -1 829 -169.5t271 -500.5v-96q0 -673 -1100 -670zM1198 428q289 0 416 53.5t127 188.5v22q0 136 -126.5 189t-416.5 53q-289 0 -416 -53.5
t-127 -188.5v-22q0 -135 127 -188.5t416 -53.5z" />
    <glyph glyph-name="ohungarumlaut" unicode="&#x151;" horiz-adv-x="2060" 
d="M940 1102h-444l342 344h477zM1499 1102h-444l424 344h477zM1030 -31q-274 0 -459 29.5t-296 93.5t-158 154t-47 221v43q0 131 47.5 221.5t159 154t296.5 93.5t457 31t457.5 -29t296.5 -94t159 -155t48 -222v-43q0 -104 -29.5 -182t-97.5 -139t-179 -99.5t-273.5 -58
t-381.5 -19.5zM1030 354q189 0 280.5 11t125.5 37.5t34 80.5v13q0 54 -34 80.5t-125.5 37.5t-280.5 11t-280.5 -11t-125.5 -37.5t-34 -80.5v-13q0 -54 34 -80.5t125.5 -37.5t280.5 -11z" />
    <glyph glyph-name="OE" unicode="&#x152;" horiz-adv-x="3119" 
d="M2998 1362v-442h-934v-109h807v-252h-807v-117h934v-442h-1902q-998 0 -998 653v76q0 313 249.5 473t748.5 160h1902zM1092 465h436v432h-436q-228 0 -332.5 -45.5t-104.5 -159.5v-22q0 -114 104.5 -159.5t332.5 -45.5z" />
    <glyph glyph-name="oe" unicode="&#x153;" horiz-adv-x="3366" 
d="M3310 524v-51h-1317v-2q0 -47 34 -71.5t117.5 -35t245.5 -10.5q163 0 254 8t123.5 22.5t32.5 39.5v2h510v-10q0 -93 -26 -162t-89 -125.5t-168 -92t-263 -54.5t-374 -19q-461 0 -670 98q-226 -92 -690 -92q-274 0 -459 29.5t-296 93.5t-158 154t-47 221v43
q0 131 47.5 221.5t159 154t296.5 93.5t457 31q463 0 692 -92q206 98 664 98q214 1 371.5 -18.5t263.5 -57t170 -98.5t91.5 -137.5t27.5 -180.5zM2386 651q-189 0 -270.5 -15t-106.5 -54h778q-28 40 -119.5 54.5t-281.5 14.5zM1470 483v13q0 54 -34 80.5t-125.5 37.5
t-280.5 11t-280.5 -11t-125.5 -37.5t-34 -80.5v-13q0 -54 34 -80.5t125.5 -37.5t280.5 -11t280.5 11t125.5 37.5t34 80.5z" />
    <glyph glyph-name="Racute" unicode="&#x154;" horiz-adv-x="2191" 
d="M1235 1829h457l-457 -344h-424zM2085 0h-641l-283 375h-424v-375h-536v1362h1188q127 0 225.5 -15.5t178.5 -50.5t132 -91.5t79.5 -140t27.5 -194.5v-10q0 -179 -71.5 -285t-213.5 -155zM1356 924h-619v-162h619q119 0 119 76v10q0 42 -28.5 59t-90.5 17z" />
    <glyph glyph-name="racute" unicode="&#x155;" horiz-adv-x="1478" 
d="M885 1446h579l-456 -344h-465zM637 979v-176q86 118 263.5 170t471.5 35v-424q-123 0 -209 -1.5t-163 -6.5t-125 -11.5t-88.5 -20t-61.5 -29t-35.5 -40t-19 -52t-4.5 -67.5v-356h-492v979h463z" />
    <glyph glyph-name="uni0156" unicode="&#x156;" horiz-adv-x="2191" 
d="M1747 420l338 -420h-641l-283 375h-424v-375h-536v1362h1188q127 0 225.5 -15.5t178.5 -50.5t132 -91.5t79.5 -140t27.5 -194.5v-10q0 -179 -71.5 -285t-213.5 -155zM1356 924h-619v-162h619q119 0 119 76v10q0 42 -28.5 59t-90.5 17zM995 -446h-424l295 350h510z" />
    <glyph glyph-name="uni0157" unicode="&#x157;" horiz-adv-x="1478" 
d="M637 979v-176q86 118 263.5 170t471.5 35v-424q-123 0 -209 -1.5t-163 -6.5t-125 -11.5t-88.5 -20t-61.5 -29t-35.5 -40t-19 -52t-4.5 -67.5v-356h-492v979h463zM358 -449h-362l215 375h467z" />
    <glyph glyph-name="Rcaron" unicode="&#x158;" horiz-adv-x="2191" 
d="M1749 1806l-444 -344h-441l-424 344h465l185 -125l194 125h465zM2085 0h-641l-283 375h-424v-375h-536v1362h1188q127 0 225.5 -15.5t178.5 -50.5t132 -91.5t79.5 -140t27.5 -194.5v-10q0 -179 -71.5 -285t-213.5 -155zM1356 924h-619v-162h619q119 0 119 76v10
q0 42 -28.5 59t-90.5 17z" />
    <glyph glyph-name="rcaron" unicode="&#x159;" horiz-adv-x="1478" 
d="M1438 1423l-445 -344h-440l-424 344h465l184 -129l195 129h465zM637 979v-176q86 118 263.5 170t471.5 35v-424q-123 0 -209 -1.5t-163 -6.5t-125 -11.5t-88.5 -20t-61.5 -29t-35.5 -40t-19 -52t-4.5 -67.5v-356h-492v979h463z" />
    <glyph glyph-name="Sacute" unicode="&#x15a;" horiz-adv-x="2033" 
d="M1157 1485h-424l424 344h457zM1014 -37q-168 0 -303.5 12.5t-232.5 34.5t-169 56t-116 72t-71 88t-36.5 99.5t-9.5 110.5v21h553v-19q0 -32 29.5 -50t114.5 -28t241 -10q177 0 268.5 7.5t117 19.5t25.5 35v6q0 23 -26.5 34.5t-87.5 14.5l-643 27q-133 5 -235 30.5
t-180.5 75.5t-119.5 131.5t-41 192.5v4q1 76 19.5 136.5t59.5 114t110 92t168 66.5t235.5 42t310.5 14q156 0 283.5 -12t222 -33t165.5 -53t117 -70t74.5 -86.5t40 -98.5t11.5 -110v-25h-553v21q0 29 -29.5 45.5t-113.5 25.5t-238 9q-145 0 -222.5 -7t-102.5 -18.5
t-25 -32.5v-2q0 -26 24 -37t88 -14l676 -31q286 -13 415.5 -111t129.5 -296v-6q-1 -82 -18.5 -145.5t-58.5 -120t-111 -96t-173.5 -69t-249 -43.5t-333.5 -14z" />
    <glyph glyph-name="sacute" unicode="&#x15b;" horiz-adv-x="1929" 
d="M1188 1102h-465l342 344h580zM983 -37q-230 0 -399 19.5t-267.5 50.5t-157 79t-77.5 96t-19 111v9h512v-2q0 -21 29.5 -32.5t119.5 -17.5t259 -6q117 0 189.5 2t113.5 6.5t55.5 11t14.5 17.5v2q0 15 -20 21.5t-79 7.5l-729 27q-242 9 -348 85t-106 222v4q0 86 40.5 146.5
t137 105.5t265 66.5t415.5 21.5q207 0 361 -17.5t250 -47t155 -74.5t81.5 -95t22.5 -114v-9h-512v5q0 10 -9 18t-33 15t-64 11t-103 6.5t-149 2.5q-155 0 -235 -5t-101 -12.5t-21 -21.5v-2q0 -33 105 -35l715 -18q245 -6 354 -73t109 -210v-6q0 -96 -41.5 -162.5
t-140.5 -114.5t-269.5 -71t-423.5 -23z" />
    <glyph glyph-name="Scedilla" unicode="&#x15e;" horiz-adv-x="2033" 
d="M737 895l676 -31q286 -13 415.5 -111t129.5 -296v-6q-1 -92 -22.5 -161t-75.5 -129t-143 -99.5t-227 -64.5t-325 -32l-80 -53h50q71 0 115 -2t89.5 -8t71 -18t46.5 -32t29.5 -49.5t8.5 -70.5q0 -126 -93.5 -182t-314.5 -56h-466v205h415q117 0 117 31q0 16 -28.5 21
t-96.5 5h-309v142l106 69q-186 9 -321.5 38t-217 69.5t-129.5 100.5t-64.5 121t-16.5 140v21h553v-19q0 -32 29.5 -50t114.5 -28t241 -10q177 0 268.5 7.5t117 19.5t25.5 35v6q0 23 -26.5 34.5t-87.5 14.5l-643 27q-133 5 -235 30.5t-180.5 75.5t-119.5 131.5t-41 192.5v4
q1 76 19.5 136.5t59.5 114t110 92t168 66.5t235.5 42t310.5 14q156 0 283.5 -12t222 -33t165.5 -53t117 -70t74.5 -86.5t40 -98.5t11.5 -110v-25h-553v21q0 29 -29.5 45.5t-113.5 25.5t-238 9q-145 0 -222.5 -7t-102.5 -18.5t-25 -32.5v-2q0 -26 24 -37t88 -14z" />
    <glyph glyph-name="scedilla" unicode="&#x15f;" horiz-adv-x="1929" 
d="M680 641l715 -18q245 -6 354 -73t109 -210v-6q0 -89 -36 -153t-121 -112t-230.5 -73.5t-358.5 -30.5l-74 -49q136 0 211 -19.5t104 -58t29 -106.5q0 -89 -53.5 -139t-190.5 -74.5t-388 -24.5h-181v205h140q133 0 206.5 4t99 11.5t25.5 19.5q0 16 -22 19t-103 3h-247v142
l106 69q-127 6 -229.5 20t-176 32.5t-128 44.5t-88 53.5t-54 62t-28 67.5t-7.5 72v9h512v-2q0 -21 29.5 -32.5t119.5 -17.5t259 -6q117 0 189.5 2t113.5 6.5t55.5 11t14.5 17.5v2q0 15 -20 21.5t-79 7.5l-729 27q-242 9 -348 85t-106 222v4q0 86 40.5 146.5t137 105.5
t265 66.5t415.5 21.5q207 0 361 -17.5t250 -47t155 -74.5t81.5 -95t22.5 -114v-9h-512v5q0 10 -9 18t-33 15t-64 11t-103 6.5t-149 2.5q-155 0 -235 -5t-101 -12.5t-21 -21.5v-2q0 -33 105 -35z" />
    <glyph glyph-name="Scaron" unicode="&#x160;" horiz-adv-x="2033" 
d="M1671 1806l-444 -344h-441l-424 344h465l185 -125l194 125h465zM737 895l676 -31q286 -13 415.5 -111t129.5 -296v-6q-1 -82 -18.5 -145.5t-58.5 -120t-111 -96t-173.5 -69t-249 -43.5t-333.5 -14q-168 0 -303.5 12.5t-232.5 34.5t-169 56t-116 72t-71 88t-36.5 99.5
t-9.5 110.5v21h553v-19q0 -32 29.5 -50t114.5 -28t241 -10q177 0 268.5 7.5t117 19.5t25.5 35v6q0 23 -26.5 34.5t-87.5 14.5l-643 27q-133 5 -235 30.5t-180.5 75.5t-119.5 131.5t-41 192.5v4q1 76 19.5 136.5t59.5 114t110 92t168 66.5t235.5 42t310.5 14q156 0 283.5 -12
t222 -33t165.5 -53t117 -70t74.5 -86.5t40 -98.5t11.5 -110v-25h-553v21q0 29 -29.5 45.5t-113.5 25.5t-238 9q-145 0 -222.5 -7t-102.5 -18.5t-25 -32.5v-2q0 -26 24 -37t88 -14z" />
    <glyph glyph-name="scaron" unicode="&#x161;" horiz-adv-x="1929" 
d="M1618 1423l-444 -344h-441l-424 344h465l184 -129l195 129h465zM680 641l715 -18q245 -6 354 -73t109 -210v-6q0 -96 -41.5 -162.5t-140.5 -114.5t-269.5 -71t-423.5 -23q-230 0 -399 19.5t-267.5 50.5t-157 79t-77.5 96t-19 111v9h512v-2q0 -21 29.5 -32.5t119.5 -17.5
t259 -6q117 0 189.5 2t113.5 6.5t55.5 11t14.5 17.5v2q0 15 -20 21.5t-79 7.5l-729 27q-242 9 -348 85t-106 222v4q0 86 40.5 146.5t137 105.5t265 66.5t415.5 21.5q207 0 361 -17.5t250 -47t155 -74.5t81.5 -95t22.5 -114v-9h-512v5q0 10 -9 18t-33 15t-64 11t-103 6.5
t-149 2.5q-155 0 -235 -5t-101 -12.5t-21 -21.5v-2q0 -33 105 -35z" />
    <glyph glyph-name="uni0162" unicode="&#x162;" horiz-adv-x="1789" 
d="M1163 903v-903h-78l-129 -88h50q71 0 115 -2t89.5 -8t71 -18t46.5 -32t29.5 -49.5t8.5 -70.5q0 -126 -93.5 -182t-314.5 -56h-466v205h415q117 0 117 31q0 16 -28.5 21t-96.5 5h-309v142l155 102h-118v903h-564v459h1663v-459h-563z" />
    <glyph glyph-name="uni0163" unicode="&#x163;" horiz-adv-x="1597" 
d="M1479 401v-401h-320l-125 -84q136 0 211 -19.5t104 -58t29 -106.5q0 -89 -53.5 -139t-191 -74.5t-388.5 -24.5h-180v205h140q133 0 206.5 4t99 11.5t25.5 19.5q0 16 -22 19t-103 3h-247v142l155 102q-167 0 -278 29t-178.5 94t-96 160t-28.5 237v76h-177v383h177v254h491
v-254h741v-383h-741v-10q0 -107 42 -146t169 -39h539z" />
    <glyph glyph-name="Tcaron" unicode="&#x164;" horiz-adv-x="1789" 
d="M1548 1806l-444 -344h-440l-424 344h465l184 -125l194 125h465zM63 1362h1663v-459h-563v-903h-536v903h-564v459z" />
    <glyph glyph-name="tcaron" unicode="&#x165;" horiz-adv-x="1624" 
d="M1141 1540h430l-391 -465h-312zM729 596v-10q0 -107 42 -146t169 -39h539v-401h-658q-168 0 -279.5 29t-179 94t-96 160t-28.5 237v76h-177v383h177v254h491v-254h741v-383h-741z" />
    <glyph glyph-name="Tbar" unicode="&#x166;" horiz-adv-x="1789" 
d="M1726 1362v-459h-563v-194h422v-365h-422v-344h-536v344h-420v365h420v194h-564v459h1663z" />
    <glyph glyph-name="tbar" unicode="&#x167;" horiz-adv-x="1624" 
d="M938 401h539v-401h-658q-211 0 -336 49t-181.5 148t-63.5 266h-179v194h177v52h-177v270h177v254h491v-254h741v-270h-741v-52h741v-194h-718q20 -33 64 -47.5t124 -14.5z" />
    <glyph glyph-name="Umacron" unicode="&#x16a;" horiz-adv-x="2179" 
d="M1686 1520h-1192v295h1192v-295zM1090 -37q-239 -1 -411.5 45t-291 146.5t-176 263t-57.5 393.5v551h536v-602q0 -98 25.5 -164.5t79 -104.5t124 -53.5t171.5 -15.5t171.5 15.5t123.5 53.5t78.5 104.5t25.5 164.5v602h536v-551q0 -231 -57 -393t-176 -262.5t-290.5 -146
t-411.5 -46.5z" />
    <glyph glyph-name="umacron" unicode="&#x16b;" horiz-adv-x="2148" 
d="M471 1432h1192v-295h-1192v295zM1483 684v295h491v-979h-450v190q-183 -221 -615 -221q-148 0 -260.5 16.5t-211.5 58.5t-162.5 111.5t-99.5 178.5t-36 256v389h492v-303q0 -79 15 -133.5t43 -90t78.5 -55.5t111 -27.5t149.5 -7.5q109 0 187.5 14.5t141.5 49.5t94.5 99.5
t31.5 158.5z" />
    <glyph glyph-name="Uring" unicode="&#x16e;" horiz-adv-x="2179" 
d="M1090 1432q-180 0 -289 28t-157.5 83t-49.5 145q-2 134 113 195t383 61t382.5 -61t112.5 -195q2 -134 -112.5 -195t-382.5 -61zM1090 1649q86 0 129.5 4.5t56 12t12.5 22.5q0 16 -12.5 24t-55.5 12.5t-130 4.5t-130.5 -4.5t-56 -12.5t-12.5 -24q0 -15 12.5 -22.5
t56.5 -12t130 -4.5zM1090 -37q-239 -1 -411.5 45t-291 146.5t-176 263t-57.5 393.5v551h536v-602q0 -98 25.5 -164.5t79 -104.5t124 -53.5t171.5 -15.5t171.5 15.5t123.5 53.5t78.5 104.5t25.5 164.5v602h536v-551q0 -231 -57 -393t-176 -262.5t-290.5 -146t-411.5 -46.5z
" />
    <glyph glyph-name="uring" unicode="&#x16f;" horiz-adv-x="2148" 
d="M1067 1069q-267 0 -380.5 56t-115.5 180q-2 123 113 179t383 56t383 -56t113 -179q2 -123 -113 -179.5t-383 -56.5zM1067 1341q-74 0 -117 -1.5t-66 -6.5t-29.5 -11t-6.5 -17q0 -14 13.5 -20.5t61 -10.5t144.5 -4t144.5 4t61 10.5t13.5 20.5q0 11 -6.5 17t-29.5 11
t-66 6.5t-117 1.5zM1483 684v295h491v-979h-450v190q-183 -221 -615 -221q-148 0 -260.5 16.5t-211.5 58.5t-162.5 111.5t-99.5 178.5t-36 256v389h492v-303q0 -79 15 -133.5t43 -90t78.5 -55.5t111 -27.5t149.5 -7.5q109 0 187.5 14.5t141.5 49.5t94.5 99.5t31.5 158.5z
" />
    <glyph glyph-name="Uhungarumlaut" unicode="&#x170;" horiz-adv-x="2179" 
d="M999 1485h-444l342 344h477zM1559 1485h-445l424 344h477zM1090 -37q-239 -1 -411.5 45t-291 146.5t-176 263t-57.5 393.5v551h536v-602q0 -98 25.5 -164.5t79 -104.5t124 -53.5t171.5 -15.5t171.5 15.5t123.5 53.5t78.5 104.5t25.5 164.5v602h536v-551q0 -231 -57 -393
t-176 -262.5t-290.5 -146t-411.5 -46.5z" />
    <glyph glyph-name="uhungarumlaut" unicode="&#x171;" horiz-adv-x="2148" 
d="M874 1446h478l-375 -344h-445zM1993 1446l-457 -344h-444l424 344h477zM1483 684v295h491v-979h-450v190q-183 -221 -615 -221q-148 0 -260.5 16.5t-211.5 58.5t-162.5 111.5t-99.5 178.5t-36 256v389h492v-303q0 -79 15 -133.5t43 -90t78.5 -55.5t111 -27.5t149.5 -7.5
q109 0 187.5 14.5t141.5 49.5t94.5 99.5t31.5 158.5z" />
    <glyph glyph-name="Uogonek" unicode="&#x172;" horiz-adv-x="2179" 
d="M1489 760v602h536v-551q0 -366 -145.5 -561t-449.5 -256q-154 -54 -223.5 -91.5t-69.5 -72.5q0 -18 15 -25.5t52 -7.5h250v-268h-344q-164 0 -234.5 56t-70.5 169q0 131 96 217q-254 22 -417 114t-246.5 271.5t-83.5 454.5v551h536v-602q0 -98 25.5 -164.5t79 -104.5
t124 -53.5t171.5 -15.5t171.5 15.5t123.5 53.5t78.5 104.5t25.5 164.5z" />
    <glyph glyph-name="uogonek" unicode="&#x173;" horiz-adv-x="2148" 
d="M1729 -203h249v-268h-344q-164 0 -234.5 56t-70.5 169q0 89 45 158t150 125v153q-183 -221 -615 -221q-148 0 -260.5 16.5t-211.5 58.5t-162.5 111.5t-99.5 178.5t-36 256v389h492v-303q0 -79 15 -133.5t43 -90t78.5 -55.5t111 -27.5t149.5 -7.5q109 0 187.5 14.5
t141.5 49.5t94.5 99.5t31.5 158.5v295h491v-979q-164 -55 -238.5 -94t-74.5 -76q0 -18 15 -25.5t53 -7.5z" />
    <glyph glyph-name="Wcircumflex" unicode="&#x174;" horiz-adv-x="3006" 
d="M1692 1491l-195 125l-184 -125h-465l424 344h440l445 -344h-465zM2142 543l273 819h583l-524 -1364h-670l-303 721l-303 -721h-666l-524 1364h580l272 -819l336 819h610z" />
    <glyph glyph-name="wcircumflex" unicode="&#x175;" horiz-adv-x="2543" 
d="M1470 1087l-194 130l-184 -130h-465l424 345h440l444 -345h-465zM1804 518l224 461h530l-514 -979h-418l-348 479l-301 -479h-457l-534 979h532l248 -479l307 479h397z" />
    <glyph glyph-name="Ycircumflex" unicode="&#x176;" horiz-adv-x="2115" 
d="M1247 1491l-194 125l-185 -125h-465l424 344h441l444 -344h-465zM1450 1362h682l-799 -805v-557h-536v549l-813 813h690l383 -399z" />
    <glyph glyph-name="ycircumflex" unicode="&#x177;" horiz-adv-x="1898" 
d="M1149 1087l-195 130l-184 -130h-465l424 345h440l445 -345h-465zM985 373l356 606h572l-903 -1337h-557l264 340l-731 997h608z" />
    <glyph glyph-name="Ydieresis" unicode="&#x178;" horiz-adv-x="2115" 
d="M719 1452q-127 0 -191.5 49.5t-64.5 145.5q0 192 256 192q254 0 254 -192q0 -195 -254 -195zM1401 1452q-127 0 -191.5 49.5t-64.5 145.5q0 192 256 192q254 0 254 -192q0 -195 -254 -195zM1450 1362h682l-799 -805v-557h-536v549l-813 813h690l383 -399z" />
    <glyph glyph-name="Zacute" unicode="&#x179;" horiz-adv-x="2060" 
d="M1169 1829h457l-457 -344h-424zM1884 907l-805 -448h916v-459h-1837v446l790 457h-848v459h1784v-455z" />
    <glyph glyph-name="zacute" unicode="&#x17a;" horiz-adv-x="1830" 
d="M1016 1446h579l-456 -344h-465zM1735 580l-611 -218h660v-362h-1708v340l798 276h-802v363h1663v-399z" />
    <glyph glyph-name="Zdotaccent" unicode="&#x17b;" horiz-adv-x="2060" 
d="M1030 1452q-360 0 -360 195q0 192 360 192q359 0 359 -192q0 -195 -359 -195zM1884 907l-805 -448h916v-459h-1837v446l790 457h-848v459h1784v-455z" />
    <glyph glyph-name="zdotaccent" unicode="&#x17c;" horiz-adv-x="1830" 
d="M915 1067q-154 0 -232.5 55.5t-78.5 161.5q0 215 311 215q310 0 310 -215q0 -217 -310 -217zM1735 580l-611 -218h660v-362h-1708v340l798 276h-802v363h1663v-399z" />
    <glyph glyph-name="Zcaron" unicode="&#x17d;" horiz-adv-x="2060" 
d="M1683 1806l-444 -344h-440l-424 344h465l184 -125l195 125h464zM1884 907l-805 -448h916v-459h-1837v446l790 457h-848v459h1784v-455z" />
    <glyph glyph-name="zcaron" unicode="&#x17e;" horiz-adv-x="1830" 
d="M1569 1423l-445 -344h-440l-424 344h465l184 -129l195 129h465zM1735 580l-611 -218h660v-362h-1708v340l798 276h-802v363h1663v-399z" />
    <glyph glyph-name="uni0218" unicode="&#x218;" horiz-adv-x="2033" 
d="M1014 -37q-168 0 -303.5 12.5t-232.5 34.5t-169 56t-116 72t-71 88t-36.5 99.5t-9.5 110.5v21h553v-19q0 -32 29.5 -50t114.5 -28t241 -10q177 0 268.5 7.5t117 19.5t25.5 35v6q0 23 -26.5 34.5t-87.5 14.5l-643 27q-133 5 -235 30.5t-180.5 75.5t-119.5 131.5t-41 192.5
v4q1 76 19.5 136.5t59.5 114t110 92t168 66.5t235.5 42t310.5 14q156 0 283.5 -12t222 -33t165.5 -53t117 -70t74.5 -86.5t40 -98.5t11.5 -110v-25h-553v21q0 29 -29.5 45.5t-113.5 25.5t-238 9q-145 0 -222.5 -7t-102.5 -18.5t-25 -32.5v-2q0 -26 24 -37t88 -14l676 -31
q286 -13 415.5 -111t129.5 -296v-6q-1 -82 -18.5 -145.5t-58.5 -120t-111 -96t-173.5 -69t-249 -43.5t-333.5 -14zM494 -446l294 350h510l-380 -350h-424z" />
    <glyph glyph-name="uni0219" unicode="&#x219;" horiz-adv-x="1929" 
d="M983 -37q-230 0 -399 19.5t-267.5 50.5t-157 79t-77.5 96t-19 111v9h512v-2q0 -21 29.5 -32.5t119.5 -17.5t259 -6q117 0 189.5 2t113.5 6.5t55.5 11t14.5 17.5v2q0 15 -20 21.5t-79 7.5l-729 27q-242 9 -348 85t-106 222v4q0 86 40.5 146.5t137 105.5t265 66.5
t415.5 21.5q207 0 361 -17.5t250 -47t155 -74.5t81.5 -95t22.5 -114v-9h-512v5q0 10 -9 18t-33 15t-64 11t-103 6.5t-149 2.5q-155 0 -235 -5t-101 -12.5t-21 -21.5v-2q0 -33 105 -35l715 -18q245 -6 354 -73t109 -210v-6q0 -96 -41.5 -162.5t-140.5 -114.5t-269.5 -71
t-423.5 -23zM520 -449l215 375h467l-319 -375h-363z" />
    <glyph glyph-name="uni021A" unicode="&#x21a;" horiz-adv-x="1789" 
d="M63 903v459h1663v-459h-563v-903h-536v903h-564zM788 -446h-423l294 350h510z" />
    <glyph glyph-name="uni021B" unicode="&#x21b;" horiz-adv-x="1597" 
d="M940 401h539v-401h-658q-168 0 -279.5 29t-179 94t-96 160t-28.5 237v76h-177v383h177v254h491v-254h741v-383h-741v-10q0 -107 42 -146t169 -39zM879 -449h-363l215 375h467z" />
    <glyph glyph-name="gravecomb" unicode="&#x300;" 
d="M-61 1102h-465l-457 344h580z" />
    <glyph glyph-name="acutecomb" unicode="&#x301;" 
d="M-436 1102h-465l342 344h579z" />
    <glyph glyph-name="uni0302" unicode="&#x302;" 
d="M-465 1432l445 -345h-465l-195 130l-184 -130h-465l424 345h440z" />
    <glyph glyph-name="tildecomb" unicode="&#x303;" 
d="M-379 1098q-98 0 -231 36.5t-224 36.5q-80 0 -146 -20t-150 -70v287q84 50 144.5 69t151.5 19q97 0 230 -37t225 -37q80 0 149.5 22t147.5 71v-287q-76 -47 -141 -68.5t-156 -21.5z" />
    <glyph glyph-name="uni0304" unicode="&#x304;" 
d="M-66 1137h-1191v295h1191v-295z" />
    <glyph glyph-name="uni0306" unicode="&#x306;" 
d="M-514 1057q-499 0 -496 379h316q0 -66 43 -94.5t137 -28.5t137 28.5t43 94.5h316q3 -379 -496 -379z" />
    <glyph glyph-name="uni0307" unicode="&#x307;" 
d="M-397 1067q-154 0 -233 55.5t-79 161.5q0 215 312 215q309 0 309 -215q0 -217 -309 -217z" />
    <glyph glyph-name="uni0308" unicode="&#x308;" 
d="M-1051 1069q-127 0 -191.5 49.5t-64.5 145.5q0 192 256 192q254 0 254 -192q0 -195 -254 -195zM-369 1069q-127 0 -191.5 49.5t-64.5 145.5q0 192 256 192q254 0 254 -192q0 -195 -254 -195z" />
    <glyph glyph-name="uni030A" unicode="&#x30a;" 
d="M-575 1069q-267 0 -380.5 56t-115.5 180q-2 123 113 179t383 56t382.5 -56t112.5 -179q2 -123 -112.5 -179.5t-382.5 -56.5zM-575 1270q97 0 144.5 4t61 10.5t13.5 20.5q0 11 -6.5 17t-29.5 11t-66 6.5t-117 1.5t-117.5 -1.5t-66.5 -6.5t-29.5 -11t-6.5 -17
q0 -14 13.5 -20.5t61.5 -10.5t145 -4z" />
    <glyph glyph-name="uni030B" unicode="&#x30b;" 
d="M-1036 1102h-445l342 344h477zM-477 1102h-445l424 344h478z" />
    <glyph glyph-name="uni030C" unicode="&#x30c;" 
d="M-680 1294l195 129h465l-445 -344h-440l-424 344h465z" />
    <glyph glyph-name="uni0312" unicode="&#x312;" 
d="M0 1489l-381 -375h-485l483 375h383z" />
    <glyph glyph-name="uni0326" unicode="&#x326;" 
d="M-805 -449l215 375h467l-319 -375h-363z" />
    <glyph glyph-name="uni0327" unicode="&#x327;" 
d="M-248 8l-137 -92q136 0 211 -19.5t104 -58t29 -106.5q0 -89 -53.5 -139t-191 -74.5t-388.5 -24.5h-180v205h139q133 0 207 4t99.5 11.5t25.5 19.5q0 16 -22 19t-103 3h-248v142l168 110h340z" />
    <glyph glyph-name="uni0328" unicode="&#x328;" 
d="M-41 -471h-344q-164 0 -234.5 56t-70.5 169q0 69 26 124.5t87.5 106t168 93t261.5 78.5l102 -156q-164 -55 -238.5 -94t-74.5 -76q0 -18 15 -25.5t52 -7.5h250v-268z" />
    <glyph glyph-name="Wgrave" unicode="&#x1e80;" horiz-adv-x="3006" 
d="M1407 1829l424 -344h-424l-457 344h457zM2142 543l273 819h583l-524 -1364h-670l-303 721l-303 -721h-666l-524 1364h580l272 -819l336 819h610z" />
    <glyph glyph-name="wgrave" unicode="&#x1e81;" horiz-adv-x="2543" 
d="M1212 1446l342 -344h-464l-457 344h579zM1804 518l224 461h530l-514 -979h-418l-348 479l-301 -479h-457l-534 979h532l248 -479l307 479h397z" />
    <glyph glyph-name="Wacute" unicode="&#x1e82;" horiz-adv-x="3006" 
d="M1642 1829h457l-457 -344h-423zM2142 543l273 819h583l-524 -1364h-670l-303 721l-303 -721h-666l-524 1364h580l272 -819l336 819h610z" />
    <glyph glyph-name="wacute" unicode="&#x1e83;" horiz-adv-x="2543" 
d="M1372 1446h580l-457 -344h-465zM1804 518l224 461h530l-514 -979h-418l-348 479l-301 -479h-457l-534 979h532l248 -479l307 479h397z" />
    <glyph glyph-name="Wdieresis" unicode="&#x1e84;" horiz-adv-x="3006" 
d="M1163 1452q-127 0 -191.5 49.5t-64.5 145.5q0 192 256 192q254 0 254 -192q0 -195 -254 -195zM1845 1452q-127 0 -191.5 49.5t-64.5 145.5q0 192 256 192q254 0 254 -192q0 -195 -254 -195zM2142 543l273 819h583l-524 -1364h-670l-303 721l-303 -721h-666l-524 1364h580
l272 -819l336 819h610z" />
    <glyph glyph-name="wdieresis" unicode="&#x1e85;" horiz-adv-x="2543" 
d="M932 1069q-127 0 -191.5 49.5t-64.5 145.5q0 192 256 192q254 0 254 -192q0 -195 -254 -195zM1614 1069q-127 0 -191.5 49.5t-64.5 145.5q0 192 256 192q254 0 254 -192q0 -195 -254 -195zM1804 518l224 461h530l-514 -979h-418l-348 479l-301 -479h-457l-534 979h532
l248 -479l307 479h397z" />
    <glyph glyph-name="uni1E9E" unicode="&#x1e9e;" horiz-adv-x="2465" 
d="M1794 805h86q93 0 168.5 -10.5t143.5 -36t114 -66.5t73 -105t27 -147v-22q0 -103 -28 -177t-77.5 -120.5t-129.5 -73.5t-171 -37t-216 -10h-969v446h897q70 0 98.5 11.5t28.5 36.5v4q0 23 -20.5 30t-69.5 7h-748v239l410 141h-432q-138 0 -202 -57t-64 -186v-672h-537
v680q0 189 43.5 318.5t139.5 210.5t241 117t356 36h1215v-428z" />
    <glyph glyph-name="Ygrave" unicode="&#x1ef2;" horiz-adv-x="2115" 
d="M963 1829l423 -344h-423l-457 344h457zM1450 1362h682l-799 -805v-557h-536v549l-813 813h690l383 -399z" />
    <glyph glyph-name="ygrave" unicode="&#x1ef3;" horiz-adv-x="1898" 
d="M891 1446l342 -344h-465l-457 344h580zM985 373l356 606h572l-903 -1337h-557l264 340l-731 997h608z" />
    <glyph glyph-name="endash" unicode="&#x2013;" horiz-adv-x="1857" 
d="M1759 434h-1661v453h1661v-453z" />
    <glyph glyph-name="emdash" unicode="&#x2014;" horiz-adv-x="2512" 
d="M2415 436h-2317v453h2317v-453z" />
    <glyph glyph-name="quoteleft" unicode="&#x2018;" horiz-adv-x="671" 
d="M580 1362l-64 -518h-444l159 518h349z" />
    <glyph glyph-name="quoteright" unicode="&#x2019;" horiz-adv-x="671" 
d="M92 844l64 518h444l-160 -518h-348z" />
    <glyph glyph-name="quotesinglbase" unicode="&#x201a;" horiz-adv-x="702" 
d="M33 -336l119 608h514l-236 -608h-397z" />
    <glyph glyph-name="quotedblleft" unicode="&#x201c;" horiz-adv-x="1132" 
d="M580 1444l-64 -518h-444l159 518h349zM1040 1444l-63 -518h-445l160 518h348z" />
    <glyph glyph-name="quotedblright" unicode="&#x201d;" horiz-adv-x="1132" 
d="M92 844l64 518h444l-160 -518h-348zM553 844l63 518h445l-160 -518h-348z" />
    <glyph glyph-name="quotedblbase" unicode="&#x201e;" horiz-adv-x="1257" 
d="M33 -336l119 608h514l-236 -608h-397zM586 -336l119 608h514l-236 -608h-397z" />
    <glyph glyph-name="dagger" unicode="&#x2020;" horiz-adv-x="1552" 
d="M997 1118h363v-381h-363v-504h-442v504h-362v381h362v244h442v-244z" />
    <glyph glyph-name="daggerdbl" unicode="&#x2021;" horiz-adv-x="1552" 
d="M1360 1227v-381h-363v-137h363v-381h-363v-135h-442v135h-362v381h362v137h-362v381h362v135h442v-135h363z" />
    <glyph glyph-name="bullet" unicode="&#x2022;" horiz-adv-x="1175" 
d="M588 399q-195 0 -293 81.5t-98 238.5q0 313 391 313t391 -313q0 -157 -97.5 -238.5t-293.5 -81.5z" />
    <glyph glyph-name="ellipsis" unicode="&#x2026;" horiz-adv-x="2060" 
d="M418 -31q-145 0 -218 60.5t-73 177.5q0 233 291 233t291 -233q0 -238 -291 -238zM1030 -31q-145 0 -218 60.5t-73 177.5q0 233 291 233t291 -233q0 -238 -291 -238zM1642 -31q-290 0 -290 238q0 233 290 233q291 0 291 -233q0 -238 -291 -238z" />
    <glyph glyph-name="perthousand" unicode="&#x2030;" horiz-adv-x="4065" 
d="M623 600q-128 0 -227 18t-166 50t-110 79.5t-62 104t-19 125.5v41q0 70 19 127t62 105t110 80.5t166 50.5t227 18q159 0 273.5 -27t181.5 -79t97.5 -119.5t30.5 -155.5v-41q0 -87 -30.5 -154t-97.5 -118t-181.5 -78t-273.5 -27zM954 0h-716l1681 1362h717zM623 928
q98 0 141 15t43 52v11q0 36 -43 50.5t-141 14.5t-141.5 -14.5t-43.5 -50.5v-11q0 -37 43.5 -52t141.5 -15zM2238 -37q-159 0 -273.5 27t-181.5 78t-97.5 118t-30.5 154v41q0 88 30.5 155.5t97.5 119.5t181.5 79t273.5 27q128 0 227 -18t166 -50.5t110 -80.5t62 -105t19 -127
v-41q0 -69 -19 -125.5t-62 -104t-110 -79.5t-166 -50t-227 -18zM3443 -37q-128 0 -227 18t-166 50t-110 79.5t-62 104t-19 125.5v41q0 70 19 127t62 105t110 80.5t166 50.5t227 18q159 0 273.5 -27t181.5 -79t97.5 -119.5t30.5 -155.5v-41q0 -87 -30.5 -154t-97.5 -118
t-181.5 -78t-273.5 -27zM2238 291q98 0 141.5 15t43.5 52v11q0 36 -43.5 50.5t-141.5 14.5t-141 -14.5t-43 -50.5v-11q0 -37 43 -52t141 -15zM3443 291q98 0 141 15t43 52v11q0 36 -43 50.5t-141 14.5t-141.5 -14.5t-43.5 -50.5v-11q0 -37 43.5 -52t141.5 -15z" />
    <glyph glyph-name="guilsinglleft" unicode="&#x2039;" horiz-adv-x="950" 
d="M449 1014h450l-319 -434l319 -418h-450l-396 416z" />
    <glyph glyph-name="guilsinglright" unicode="&#x203a;" horiz-adv-x="950" 
d="M51 1014h451l395 -436l-395 -416h-451l320 418z" />
    <glyph glyph-name="fraction" unicode="&#x2044;" horiz-adv-x="2312" 
d="M705 0h-635l1538 1362h635z" />
    <glyph glyph-name="Euro" unicode="&#x20ac;" horiz-adv-x="2369" 
d="M2247 752v-15h-543v6q0 101 -106.5 148t-348.5 47q-269 0 -370 -64h577v-153h-665q-3 -12 -3 -29v-22v-11h668v-153h-604q99 -84 397 -84q242 0 348.5 47t106.5 149v7h543v-15q0 -164 -54 -282t-172 -200.5t-309.5 -123t-462.5 -41.5q-320 -1 -531.5 61t-320 181
t-135.5 301h-196v153h186v60v2h-186v153h198q31 176 141.5 290t319.5 174t524 61q268 1 458 -39.5t308 -123.5t173.5 -201.5t58.5 -282.5z" />
    <glyph glyph-name="trademark" unicode="&#x2122;" horiz-adv-x="3620" 
d="M528 985h-391v377h1270v-377h-391v-381h-488v381zM2429 1096l301 266h590v-758h-463v277l-256 -232h-342l-285 254v-299h-465v758h615z" />
    <glyph glyph-name="oneeighth" unicode="&#x215b;" horiz-adv-x="2781" 
d="M53 0l1538 1362h635l-1538 -1362h-635zM330 674v385l-260 -33l-62 281l377 49h303v-682h-358zM2578 356q146 -43 146 -153v-8q0 -33 -9 -58t-32 -51t-69 -44.5t-114 -34t-172.5 -23t-240.5 -7.5t-241 7.5t-175 22.5t-117 34t-72 45t-34.5 51.5t-9.5 57.5v8q0 113 145 151
q-123 41 -123 146v8q0 36 11 62t48.5 53.5t104 44.5t183.5 28t280 11q156 0 267.5 -9.5t178 -25.5t105 -42.5t51 -54.5t12.5 -67v-8q0 -100 -123 -144zM2370 432v2q0 33 -283 33t-283 -33v-2q0 -9 17 -15t82 -10t184 -4t184 4t82 10t17 15zM2370 266v2q0 9 -17 15t-82 10
t-184 4t-184 -4t-82 -10t-17 -15v-2q0 -33 283 -33t283 33z" />
    <glyph glyph-name="threeeighths" unicode="&#x215c;" horiz-adv-x="3198" 
d="M1343 883v-9q0 -54 -29.5 -93t-99.5 -68.5t-195 -44.5t-308 -15q-148 0 -261.5 16t-188 44.5t-122 70t-67 89t-19.5 106.5v6h377v-6q0 -30 64.5 -43.5t220.5 -13.5q92 0 144.5 4.5t68.5 11.5t16 18v2q0 19 -72 19h-368v86h332q88 0 88 20v2q0 6 -8 10.5t-31.5 8t-66 6
t-111.5 4.5q-162 0 -216.5 -10t-54.5 -41v-10h-377v16q0 75 31.5 130t104.5 97.5t202 64t314 21.5q182 0 305 -13.5t189.5 -40.5t93 -61.5t26.5 -82.5v-8q0 -106 -135 -146q85 -19 119 -56t34 -91zM522 0l1538 1362h635l-1538 -1362h-635zM2996 356q146 -43 146 -153v-8
q0 -33 -9 -58t-32 -51t-69 -44.5t-114 -34t-172.5 -23t-240.5 -7.5q-162 0 -281 11.5t-189 30.5t-111.5 48.5t-55 59t-13.5 68.5v8q0 113 146 151q-123 41 -123 146v8q0 36 11 62t48.5 53.5t104 44.5t183.5 28t280 11q156 0 267.5 -9.5t178 -25.5t105 -42.5t51 -54.5
t12.5 -67v-8q0 -100 -123 -144zM2787 432v2q0 33 -282 33q-283 0 -283 -33v-2q0 -9 17 -15t82 -10t184 -4q118 0 183 4t82 10t17 15zM2787 266v2q0 9 -17 15t-82 10t-183 4q-119 0 -184 -4t-82 -10t-17 -15v-2q0 -33 283 -33q282 0 282 33z" />
    <glyph glyph-name="fiveeighths" unicode="&#x215d;" horiz-adv-x="3153" 
d="M487 0l1538 1362h635l-1538 -1362h-635zM1325 897v-4q0 -57 -26 -98.5t-90.5 -76t-185.5 -52t-298 -17.5q-147 0 -261 16.5t-184.5 43t-115.5 64t-62.5 75.5t-17.5 82v12h375l2 -2q16 -29 250 -29q128 0 183.5 8t55.5 29v4q0 20 -48 26.5t-191 6.5q-230 0 -256 -22l-2 -2
h-347v395h1135v-242h-803v-67q121 43 420 43q139 0 231.5 -12.5t143.5 -38.5t71.5 -59.5t20.5 -82.5zM2968 356q145 -42 145 -153v-8q0 -33 -9 -58t-32 -51t-69 -44.5t-114 -34t-172.5 -23t-240.5 -7.5t-241 7.5t-175 22.5t-117 34t-72 45t-34.5 51.5t-9.5 57.5v8
q0 113 145 151q-123 41 -123 146v8q0 36 11 62t48.5 53.5t104 44.5t183.5 28t280 11q156 0 267.5 -9.5t178 -25.5t105 -42.5t51 -54.5t12.5 -67v-8q0 -100 -122 -144zM2759 432v2q0 33 -283 33t-283 -33v-2q0 -9 17 -15t82 -10t184 -4t184 4t82 10t17 15zM2759 266v2
q0 9 -17 15t-82 10t-184 4t-184 -4t-82 -10t-17 -15v-2q0 -33 283 -33t283 33z" />
    <glyph glyph-name="seveneighths" unicode="&#x215e;" horiz-adv-x="2871" 
d="M174 0l1538 1362h635l-1538 -1362h-635zM735 672h-489l493 413h-690v271h1122v-273zM2669 356q145 -42 145 -153v-8q0 -33 -9 -58t-32 -51t-69 -44.5t-114 -34t-172.5 -23t-240.5 -7.5t-241 7.5t-175 22.5t-117 34t-72 45t-34.5 51.5t-9.5 57.5v8q0 113 145 151
q-123 41 -123 146v8q0 36 11 62t48.5 53.5t104 44.5t183.5 28t280 11q156 0 267.5 -9.5t178 -25.5t105 -42.5t51 -54.5t12.5 -67v-8q0 -100 -122 -144zM2460 432v2q0 33 -283 33t-283 -33v-2q0 -9 17 -15t82 -10t184 -4t184 4t82 10t17 15zM2460 266v2q0 9 -17 15t-82 10
t-184 4t-184 -4t-82 -10t-17 -15v-2q0 -33 283 -33t283 33z" />
    <glyph glyph-name="minus" unicode="&#x2212;" horiz-adv-x="1552" 
d="M1405 479h-1258v395h1258v-395z" />
    <glyph glyph-name="approxequal" unicode="&#x2248;" horiz-adv-x="1228" 
 />
    <glyph glyph-name="notequal" unicode="&#x2260;" horiz-adv-x="1421" 
d="M1282 1073v-375h-340l-43 -94h383v-375h-563l-64 -133h-415l63 133h-164v375h342l45 94h-387v375h566l63 133h418l-64 -133h160z" />
    <glyph glyph-name="lessequal" unicode="&#x2264;" horiz-adv-x="1228" 
d="M84 1018l1067 184v-332l-631 -57l631 -57v-332l-1067 184v410zM1151 82h-1067v317h1067v-317z" />
    <glyph glyph-name="greaterequal" unicode="&#x2265;" horiz-adv-x="1228" 
d="M78 870v332l1067 -184v-410l-1067 -184v332l631 57zM1145 82h-1067v317h1067v-317z" />
    <glyph glyph-name="lozenge" unicode="&#x25ca;" horiz-adv-x="1228" 
 />
    <glyph glyph-name="i.loclTRK" horiz-adv-x="854" 
d="M428 1067q-154 0 -232.5 55.5t-78.5 161.5q0 215 311 215q309 0 309 -215q0 -217 -309 -217zM666 0h-492v979h492v-979z" />
    <glyph glyph-name="a.sc" horiz-adv-x="1994" 
d="M1995 0h-541l-72 102h-772l-71 -102h-541l772 1061h453zM997 651l-147 -209h293z" />
    <glyph glyph-name="aacute.sc" horiz-adv-x="1994" 
d="M1098 1526h579l-456 -344h-465zM1995 0h-541l-72 102h-772l-71 -102h-541l772 1061h453zM997 651l-147 -209h293z" />
    <glyph glyph-name="abreve.sc" horiz-adv-x="1994" 
d="M997 1137q-498 0 -495 379h315q0 -66 43 -94.5t137 -28.5q95 0 138 29t43 94h315q3 -379 -496 -379zM1995 0h-541l-72 102h-772l-71 -102h-541l772 1061h453zM997 651l-147 -209h293z" />
    <glyph glyph-name="acircumflex.sc" horiz-adv-x="1994" 
d="M1196 1167l-195 129l-184 -129h-465l424 344h441l444 -344h-465zM1995 0h-541l-72 102h-772l-71 -102h-541l772 1061h453zM997 651l-147 -209h293z" />
    <glyph glyph-name="adieresis.sc" horiz-adv-x="1994" 
d="M657 1149q-256 0 -256 194q0 193 256 193q254 0 254 -193q0 -194 -254 -194zM1339 1149q-256 0 -256 194q0 193 256 193q254 0 254 -193q0 -194 -254 -194zM1995 0h-541l-72 102h-772l-71 -102h-541l772 1061h453zM997 651l-147 -209h293z" />
    <glyph glyph-name="agrave.sc" horiz-adv-x="1994" 
d="M938 1526l342 -344h-465l-457 344h580zM1995 0h-541l-72 102h-772l-71 -102h-541l772 1061h453zM997 651l-147 -209h293z" />
    <glyph glyph-name="amacron.sc" horiz-adv-x="1994" 
d="M401 1511h1192v-294h-1192v294zM1995 0h-541l-72 102h-772l-71 -102h-541l772 1061h453zM997 651l-147 -209h293z" />
    <glyph glyph-name="aogonek.sc" horiz-adv-x="1994" 
d="M1749 -203h250v-268h-344q-164 0 -234.5 56t-70.5 169q0 152 135 246h-31l-72 102h-772l-71 -102h-541l772 1061h453l659 -907q2 0 5 1t5 1l103 -156q-164 -56 -239 -94.5t-75 -75.5q0 -18 15 -25.5t53 -7.5zM997 651l-147 -209h293z" />
    <glyph glyph-name="aring.sc" horiz-adv-x="1994" 
d="M997 1149q-267 0 -380 55.5t-115 179.5q-2 123 112.5 179.5t382.5 56.5t383 -56.5t113 -179.5q2 -123 -113 -179t-383 -56zM997 1421q-97 0 -144.5 -4t-61 -11t-13.5 -22q0 -14 13.5 -20.5t60.5 -10t145 -3.5t145.5 3.5t61 10t13.5 20.5q0 15 -13.5 22t-61.5 11t-145 4z
M1995 0h-541l-72 102h-772l-71 -102h-541l772 1061h453zM997 651l-147 -209h293z" />
    <glyph glyph-name="atilde.sc" horiz-adv-x="1994" 
d="M1223 1178q-98 0 -231 36.5t-224 36.5q-81 0 -147 -20t-150 -70v287q84 49 144.5 68.5t152.5 19.5q97 0 230 -37t225 -37q152 0 297 92v-286q-76 -47 -141 -68.5t-156 -21.5zM1995 0h-541l-72 102h-772l-71 -102h-541l772 1061h453zM997 651l-147 -209h293z" />
    <glyph glyph-name="ae.sc" horiz-adv-x="3041" 
d="M2902 1055v-406h-993v-47h874v-143h-874v-53h993v-406h-1477v160h-712l-133 -160h-582l915 1055h1989zM1118 649l-141 -170h448v170h-307z" />
    <glyph glyph-name="b.sc" horiz-adv-x="2072" 
d="M1741 575q125 -25 182 -87.5t57 -170.5v-4q0 -147 -122 -230t-334 -83h-1336v1059h1274q217 0 319.5 -56.5t102.5 -201.5v-4q0 -73 -37 -130.5t-106 -91.5zM1382 647v2q0 20 -13.5 26.5t-47.5 6.5h-637v-70h637q34 0 47.5 7t13.5 28zM1450 418v4q0 18 -13.5 26.5
t-50.5 8.5h-702v-78h702q64 0 64 39z" />
    <glyph glyph-name="c.sc" horiz-adv-x="2174" 
d="M1087 -37q-222 -1 -392 22.5t-283.5 67t-185.5 109.5t-103 146t-31 181v72q0 97 27 174t96 145.5t180 113.5t285.5 71t406.5 27q226 1 396.5 -22.5t283 -66.5t183 -109.5t100 -146t29.5 -182.5v-10h-520v6q0 44 -39 70.5t-144 41.5t-289 15q-188 0 -289.5 -15.5
t-141.5 -48.5t-40 -94v-10q0 -58 39 -90t141.5 -47.5t290.5 -15.5q185 0 290 14t143.5 39t38.5 67v9h524v-13q0 -99 -29.5 -176.5t-100 -143t-183.5 -108.5t-284.5 -67t-398.5 -25z" />
    <glyph glyph-name="cacute.sc" horiz-adv-x="2174" 
d="M1311 1182h-465l342 344h579zM1087 -37q-222 -1 -392 22.5t-283.5 67t-185.5 109.5t-103 146t-31 181v72q0 97 27 174t96 145.5t180 113.5t285.5 71t406.5 27q226 1 396.5 -22.5t283 -66.5t183 -109.5t100 -146t29.5 -182.5v-10h-520v6q0 44 -39 70.5t-144 41.5t-289 15
q-188 0 -289.5 -15.5t-141.5 -48.5t-40 -94v-10q0 -58 39 -90t141.5 -47.5t290.5 -15.5q185 0 290 14t143.5 39t38.5 67v9h524v-13q0 -99 -29.5 -176.5t-100 -143t-183.5 -108.5t-284.5 -67t-398.5 -25z" />
    <glyph glyph-name="ccaron.sc" horiz-adv-x="2174" 
d="M1741 1503l-445 -344h-440l-424 344h465l184 -129l195 129h465zM1559 487v9h524v-13q0 -99 -29.5 -176.5t-100 -143t-183.5 -108.5t-284.5 -67t-398.5 -25q-222 -1 -392 22.5t-283.5 67t-185.5 109.5t-103 146t-31 181v72q0 97 27 174t96 145.5t180 113.5t285.5 71
t406.5 27q226 1 396.5 -22.5t283 -66.5t183 -109.5t100 -146t29.5 -182.5v-10h-520v6q0 44 -39 70.5t-144 41.5t-289 15q-188 0 -289.5 -15.5t-141.5 -48.5t-40 -94v-10q0 -58 39 -90t141.5 -47.5t290.5 -15.5q185 0 290 14t143.5 39t38.5 67z" />
    <glyph glyph-name="ccedilla.sc" horiz-adv-x="2174" 
d="M1559 487v9h524v-13q0 -93 -25.5 -166.5t-86 -137t-157 -107t-242 -71.5t-337.5 -36l-74 -47q136 0 211 -19.5t104 -58t29 -106.5q0 -89 -53.5 -139t-191 -74.5t-388.5 -24.5h-180v205h139q133 0 207 4t99.5 11.5t25.5 19.5q0 16 -22 19t-103 3h-247v142l102 67
q-177 9 -313.5 38t-228 73.5t-150 107.5t-84 137t-25.5 166v72q0 97 27 174t96 145.5t180 113.5t285.5 71t406.5 27q226 1 396.5 -22.5t283 -66.5t183 -109.5t100 -146t29.5 -182.5v-10h-520v6q0 44 -39 70.5t-144 41.5t-289 15q-188 0 -289.5 -15.5t-141.5 -48.5t-40 -94
v-10q0 -58 39 -90t141.5 -47.5t290.5 -15.5q185 0 290 14t143.5 39t38.5 67z" />
    <glyph glyph-name="cdotaccent.sc" horiz-adv-x="2174" 
d="M1087 1147q-154 0 -232.5 55.5t-78.5 161.5q0 215 311 215q310 0 310 -215q0 -217 -310 -217zM1087 -37q-222 -1 -392 22.5t-283.5 67t-185.5 109.5t-103 146t-31 181v72q0 97 27 174t96 145.5t180 113.5t285.5 71t406.5 27q226 1 396.5 -22.5t283 -66.5t183 -109.5
t100 -146t29.5 -182.5v-10h-520v6q0 44 -39 70.5t-144 41.5t-289 15q-188 0 -289.5 -15.5t-141.5 -48.5t-40 -94v-10q0 -58 39 -90t141.5 -47.5t290.5 -15.5q185 0 290 14t143.5 39t38.5 67v9h524v-13q0 -99 -29.5 -176.5t-100 -143t-183.5 -108.5t-284.5 -67t-398.5 -25z
" />
    <glyph glyph-name="d.sc" horiz-adv-x="2076" 
d="M188 1055h1061q144 0 253.5 -14.5t203 -50t153.5 -95t93 -150.5t33 -215v-10q0 -122 -33 -213t-93 -149.5t-153.5 -94t-203 -49.5t-253.5 -14h-1061v1055zM1462 520v10q0 66 -49.5 90.5t-161.5 24.5h-559v-235h559q112 0 161.5 23t49.5 87z" />
    <glyph glyph-name="eth.sc" horiz-adv-x="2076" 
d="M188 1055h1061q144 0 253.5 -14.5t203 -50t153.5 -95t93 -150.5t33 -215v-10q0 -122 -33 -213t-93 -149.5t-153.5 -94t-203 -49.5t-253.5 -14h-1061v475h-141v109h141v471zM1462 520v10q0 66 -49.5 90.5t-161.5 24.5h-559v-61h469v-109h-469v-65h559q112 0 161.5 23
t49.5 87z" />
    <glyph glyph-name="dcaron.sc" horiz-adv-x="2076" 
d="M1671 1503l-444 -344h-441l-424 344h465l185 -129l194 129h465zM188 1055h1061q144 0 253.5 -14.5t203 -50t153.5 -95t93 -150.5t33 -215v-10q0 -122 -33 -213t-93 -149.5t-153.5 -94t-203 -49.5t-253.5 -14h-1061v1055zM1462 520v10q0 66 -49.5 90.5t-161.5 24.5h-559
v-235h559q112 0 161.5 23t49.5 87z" />
    <glyph glyph-name="dcroat.sc" horiz-adv-x="2076" 
d="M188 1055h1061q144 0 253.5 -14.5t203 -50t153.5 -95t93 -150.5t33 -215v-10q0 -122 -33 -213t-93 -149.5t-153.5 -94t-203 -49.5t-253.5 -14h-1061v475h-141v109h141v471zM1462 520v10q0 66 -49.5 90.5t-161.5 24.5h-559v-61h469v-109h-469v-65h559q112 0 161.5 23
t49.5 87z" />
    <glyph glyph-name="e.sc" horiz-adv-x="1824" 
d="M1686 1059v-410h-994v-47h875v-143h-875v-51h994v-408h-1498v1059h1498z" />
    <glyph glyph-name="eacute.sc" horiz-adv-x="1824" 
d="M1001 1526h580l-457 -344h-465zM1686 1059v-410h-994v-47h875v-143h-875v-51h994v-408h-1498v1059h1498z" />
    <glyph glyph-name="ecaron.sc" horiz-adv-x="1824" 
d="M1554 1503l-444 -344h-440l-424 344h465l184 -129l195 129h464zM1686 1059v-410h-994v-47h875v-143h-875v-51h994v-408h-1498v1059h1498z" />
    <glyph glyph-name="ecircumflex.sc" horiz-adv-x="1824" 
d="M1100 1167l-195 129l-184 -129h-465l424 344h440l445 -344h-465zM1686 1059v-410h-994v-47h875v-143h-875v-51h994v-408h-1498v1059h1498z" />
    <glyph glyph-name="edieresis.sc" horiz-adv-x="1824" 
d="M561 1149q-256 0 -256 194q0 193 256 193q254 0 254 -193q0 -194 -254 -194zM1243 1149q-256 0 -256 194q0 193 256 193q254 0 254 -193q0 -194 -254 -194zM1686 1059v-410h-994v-47h875v-143h-875v-51h994v-408h-1498v1059h1498z" />
    <glyph glyph-name="edotaccent.sc" horiz-adv-x="1824" 
d="M901 1147q-154 0 -232.5 55.5t-78.5 161.5q0 215 311 215q309 0 309 -215q0 -217 -309 -217zM1686 1059v-410h-994v-47h875v-143h-875v-51h994v-408h-1498v1059h1498z" />
    <glyph glyph-name="egrave.sc" horiz-adv-x="1824" 
d="M842 1526l342 -344h-465l-457 344h580zM1686 1059v-410h-994v-47h875v-143h-875v-51h994v-408h-1498v1059h1498z" />
    <glyph glyph-name="emacron.sc" horiz-adv-x="1824" 
d="M305 1511h1192v-294h-1192v294zM1686 1059v-410h-994v-47h875v-143h-875v-51h994v-408h-1498v1059h1498z" />
    <glyph glyph-name="eogonek.sc" horiz-adv-x="1824" 
d="M1440 -203h250v-268h-344q-164 0 -235 56t-71 169q0 151 136 246h-988v1059h1498v-410h-994v-47h875v-143h-875v-51h994v-408q-164 -56 -239 -94.5t-75 -75.5q0 -18 15 -25.5t53 -7.5z" />
    <glyph glyph-name="f.sc" horiz-adv-x="1728" 
d="M1649 1059v-410h-957v-90h836v-293h-836v-266h-504v1059h1461z" />
    <glyph glyph-name="g.sc" horiz-adv-x="2164" 
d="M913 436v142h1102v-578h-481l-25 115q-161 -152 -559 -152q-858 0 -858 531v67q0 105 33.5 187t106.5 147.5t188 108.5t280 65.5t379 22.5q222 0 388 -25.5t268 -67.5t165 -104.5t86 -129t23 -149.5v-6h-522v4q0 36 -88.5 50t-335.5 14q-241 0 -339.5 -31t-98.5 -110v-13
q0 -84 97.5 -115.5t340.5 -31.5q224 0 311.5 10.5t87.5 42.5v6h-549z" />
    <glyph glyph-name="gbreve.sc" horiz-adv-x="2164" 
d="M1083 1137q-498 0 -495 379h315q0 -66 43 -94.5t137 -28.5q95 0 138 29t43 94h315q3 -379 -496 -379zM913 436v142h1102v-578h-481l-25 115q-161 -152 -559 -152q-858 0 -858 531v67q0 105 33.5 187t106.5 147.5t188 108.5t280 65.5t379 22.5q222 0 388 -25.5t268 -67.5
t165 -104.5t86 -129t23 -149.5v-6h-522v4q0 36 -88.5 50t-335.5 14q-241 0 -339.5 -31t-98.5 -110v-13q0 -84 97.5 -115.5t340.5 -31.5q224 0 311.5 10.5t87.5 42.5v6h-549z" />
    <glyph glyph-name="uni0123.sc" horiz-adv-x="2164" 
d="M913 436v142h1102v-578h-481l-25 115q-161 -152 -559 -152q-858 0 -858 531v67q0 105 33.5 187t106.5 147.5t188 108.5t280 65.5t379 22.5q222 0 388 -25.5t268 -67.5t165 -104.5t86 -129t23 -149.5v-6h-522v4q0 36 -88.5 50t-335.5 14q-241 0 -339.5 -31t-98.5 -110v-13
q0 -84 97.5 -115.5t340.5 -31.5q224 0 311.5 10.5t87.5 42.5v6h-549zM1001 -449h-362l215 375h467z" />
    <glyph glyph-name="gdotaccent.sc" horiz-adv-x="2164" 
d="M1083 1147q-154 0 -232.5 55.5t-78.5 161.5q0 215 311 215q310 0 310 -215q0 -217 -310 -217zM913 436v142h1102v-578h-481l-25 115q-161 -152 -559 -152q-858 0 -858 531v67q0 105 33.5 187t106.5 147.5t188 108.5t280 65.5t379 22.5q222 0 388 -25.5t268 -67.5
t165 -104.5t86 -129t23 -149.5v-6h-522v4q0 36 -88.5 50t-335.5 14q-241 0 -339.5 -31t-98.5 -110v-13q0 -84 97.5 -115.5t340.5 -31.5q224 0 311.5 10.5t87.5 42.5v6h-549z" />
    <glyph glyph-name="h.sc" horiz-adv-x="2254" 
d="M1563 733v322h503v-1055h-503v324h-871v-324h-504v1055h504v-322h871z" />
    <glyph glyph-name="hbar.sc" horiz-adv-x="2295" 
d="M2087 903h117v-297h-117v-606h-504v199h-870v-199h-504v606h-117v297h117v152h504v-152h870v152h504v-152zM713 504h870v102h-870v-102z" />
    <glyph glyph-name="i.sc" horiz-adv-x="880" 
d="M692 0h-504v1055h504v-1055z" />
    <glyph glyph-name="iacute.sc" horiz-adv-x="880" 
d="M700 1182h-464l342 344h579zM692 0h-504v1055h504v-1055z" />
    <glyph glyph-name="icircumflex.sc" horiz-adv-x="880" 
d="M676 1167l-195 129l-184 -129h-465l424 344h440l445 -344h-465zM692 0h-504v1055h504v-1055z" />
    <glyph glyph-name="idieresis.sc" horiz-adv-x="880" 
d="M137 1149q-256 0 -256 194q0 193 256 193q254 0 254 -193q0 -194 -254 -194zM819 1149q-256 0 -256 194q0 193 256 193q254 0 254 -193q0 -194 -254 -194zM692 0h-504v1055h504v-1055z" />
    <glyph glyph-name="i.sc.loclTRK" horiz-adv-x="880" 
d="M477 1147q-154 0 -232.5 55.5t-78.5 161.5q0 215 311 215q309 0 309 -215q0 -217 -309 -217zM692 0h-504v1055h504v-1055z" />
    <glyph glyph-name="igrave.sc" horiz-adv-x="880" 
d="M760 1182h-465l-457 344h580zM692 0h-504v1055h504v-1055z" />
    <glyph glyph-name="imacron.sc" horiz-adv-x="880" 
d="M1073 1217h-1192v294h1192v-294zM692 0h-504v1055h504v-1055z" />
    <glyph glyph-name="iogonek.sc" horiz-adv-x="880" 
d="M446 -203h250v-268h-344q-164 0 -234.5 56t-70.5 169q0 155 141 250v1051h504v-1055q-164 -55 -238.5 -94t-74.5 -76q0 -18 15 -25.5t52 -7.5z" />
    <glyph glyph-name="j.sc" horiz-adv-x="1312" 
d="M588 0h-516v410h450q85 0 120.5 33t35.5 122v490h504v-467q0 -305 -137 -446.5t-457 -141.5z" />
    <glyph glyph-name="k.sc" horiz-adv-x="2009" 
d="M1997 0h-672l-389 381l-244 -160v-221h-504v1055h504v-379l580 383h702l-624 -408z" />
    <glyph glyph-name="uni0137.sc" horiz-adv-x="2009" 
d="M1974 1059l-624 -408l647 -651h-672l-389 381l-244 -160v-221h-504v1055h504v-379l580 383h702zM928 -449h-363l215 375h467z" />
    <glyph glyph-name="l.sc" horiz-adv-x="1673" 
d="M692 1055v-645h942v-410h-1446v1055h504z" />
    <glyph glyph-name="lacute.sc" horiz-adv-x="1673" 
d="M602 1526h580l-457 -344h-465zM692 1055v-645h942v-410h-1446v1055h504z" />
    <glyph glyph-name="lcaron.sc" horiz-adv-x="1673" 
d="M1161 1102h430l-325 -512h-312zM692 1055v-645h942v-410h-1446v1055h504z" />
    <glyph glyph-name="uni013C.sc" horiz-adv-x="1673" 
d="M692 1055v-645h942v-410h-1446v1055h504zM745 -449h-362l215 375h467z" />
    <glyph glyph-name="lslash.sc" horiz-adv-x="1710" 
d="M729 539v-129h942v-410h-1446v381l-166 -53v311l166 53v363h504v-205l381 121v-312z" />
    <glyph glyph-name="m.sc" horiz-adv-x="2607" 
d="M1305 557l405 500h709v-1057h-500v541l-395 -482h-439l-397 480v-539h-500v1057h705z" />
    <glyph glyph-name="n.sc" horiz-adv-x="2250" 
d="M1550 553v502h512v-1055h-577l-785 494v-494h-512v1055h557z" />
    <glyph glyph-name="nacute.sc" horiz-adv-x="2250" 
d="M1227 1526h579l-456 -344h-465zM1550 553v502h512v-1055h-577l-785 494v-494h-512v1055h557z" />
    <glyph glyph-name="ncaron.sc" horiz-adv-x="2250" 
d="M1780 1503l-445 -344h-440l-424 344h465l184 -129l195 129h465zM1550 553v502h512v-1055h-577l-785 494v-494h-512v1055h557z" />
    <glyph glyph-name="uni0146.sc" horiz-adv-x="2250" 
d="M1550 553v502h512v-1055h-577l-785 494v-494h-512v1055h557zM1044 -449h-362l215 375h467z" />
    <glyph glyph-name="eng.sc" horiz-adv-x="2250" 
d="M1550 571v484h512v-918q0 -305 -137 -446.5t-457 -141.5h-393v410h328q98 0 129 55l-832 490v-504h-512v1055h557z" />
    <glyph glyph-name="ntilde.sc" horiz-adv-x="2250" 
d="M1352 1178q-98 0 -231 36.5t-224 36.5q-81 0 -147 -20t-150 -70v287q84 49 144.5 68.5t152.5 19.5q97 0 230 -37t225 -37q152 0 297 92v-286q-76 -47 -141 -68.5t-156 -21.5zM1550 553v502h512v-1055h-577l-785 494v-494h-512v1055h557z" />
    <glyph glyph-name="o.sc" horiz-adv-x="2252" 
d="M1126 -37q-237 0 -414 22.5t-295 64.5t-191 108t-103.5 146t-30.5 185v72q0 133 49.5 227.5t166 164.5t319.5 104.5t499 34.5q238 0 415 -23t295.5 -65.5t191 -109t103 -147t30.5 -186.5v-72q0 -104 -31 -184t-103.5 -146t-190.5 -108t-295.5 -65t-414.5 -23zM1126 385
q201 0 311 14t150.5 41.5t40.5 75.5v23q0 49 -39.5 76t-149.5 41t-313 14q-201 0 -312 -15t-150 -42t-39 -74v-23q0 -48 40 -75.5t150 -41.5t311 -14z" />
    <glyph glyph-name="oacute.sc" horiz-adv-x="2252" 
d="M1350 1182h-465l342 344h579zM1126 -37q-237 0 -414 22.5t-295 64.5t-191 108t-103.5 146t-30.5 185v72q0 133 49.5 227.5t166 164.5t319.5 104.5t499 34.5q238 0 415 -23t295.5 -65.5t191 -109t103 -147t30.5 -186.5v-72q0 -104 -31 -184t-103.5 -146t-190.5 -108
t-295.5 -65t-414.5 -23zM1126 385q201 0 311 14t150.5 41.5t40.5 75.5v23q0 49 -39.5 76t-149.5 41t-313 14q-201 0 -312 -15t-150 -42t-39 -74v-23q0 -48 40 -75.5t150 -41.5t311 -14z" />
    <glyph glyph-name="ocircumflex.sc" horiz-adv-x="2252" 
d="M1325 1167l-195 129l-184 -129h-465l424 344h441l444 -344h-465zM1126 1092q238 0 415 -23t295.5 -65.5t191 -109t103 -147t30.5 -186.5v-72q0 -104 -31 -184t-103.5 -146t-190.5 -108t-295.5 -65t-414.5 -23t-414 22.5t-295 64.5t-191 108t-103.5 146t-30.5 185v72
q0 133 49.5 227.5t166 164.5t319.5 104.5t499 34.5zM1628 516v23q0 49 -39.5 76t-149.5 41t-313 14q-201 0 -312 -15t-150 -42t-39 -74v-23q0 -48 40 -75.5t150 -41.5t311 -14t311 14t150.5 41.5t40.5 75.5z" />
    <glyph glyph-name="odieresis.sc" horiz-adv-x="2252" 
d="M786 1149q-256 0 -256 194q0 193 256 193q254 0 254 -193q0 -194 -254 -194zM1468 1149q-256 0 -256 194q0 193 256 193q254 0 254 -193q0 -194 -254 -194zM1126 -37q-237 0 -414 22.5t-295 64.5t-191 108t-103.5 146t-30.5 185v72q0 133 49.5 227.5t166 164.5
t319.5 104.5t499 34.5q238 0 415 -23t295.5 -65.5t191 -109t103 -147t30.5 -186.5v-72q0 -104 -31 -184t-103.5 -146t-190.5 -108t-295.5 -65t-414.5 -23zM1126 385q201 0 311 14t150.5 41.5t40.5 75.5v23q0 49 -39.5 76t-149.5 41t-313 14q-201 0 -312 -15t-150 -42
t-39 -74v-23q0 -48 40 -75.5t150 -41.5t311 -14z" />
    <glyph glyph-name="ograve.sc" horiz-adv-x="2252" 
d="M1409 1182h-465l-457 344h580zM1126 -37q-237 0 -414 22.5t-295 64.5t-191 108t-103.5 146t-30.5 185v72q0 133 49.5 227.5t166 164.5t319.5 104.5t499 34.5q238 0 415 -23t295.5 -65.5t191 -109t103 -147t30.5 -186.5v-72q0 -104 -31 -184t-103.5 -146t-190.5 -108
t-295.5 -65t-414.5 -23zM1126 385q201 0 311 14t150.5 41.5t40.5 75.5v23q0 49 -39.5 76t-149.5 41t-313 14q-201 0 -312 -15t-150 -42t-39 -74v-23q0 -48 40 -75.5t150 -41.5t311 -14z" />
    <glyph glyph-name="ohungarumlaut.sc" horiz-adv-x="2252" 
d="M1036 1182h-444l342 344h477zM1595 1182h-444l424 344h477zM1126 -37q-237 0 -414 22.5t-295 64.5t-191 108t-103.5 146t-30.5 185v72q0 133 49.5 227.5t166 164.5t319.5 104.5t499 34.5q238 0 415 -23t295.5 -65.5t191 -109t103 -147t30.5 -186.5v-72q0 -104 -31 -184
t-103.5 -146t-190.5 -108t-295.5 -65t-414.5 -23zM1126 385q201 0 311 14t150.5 41.5t40.5 75.5v23q0 49 -39.5 76t-149.5 41t-313 14q-201 0 -312 -15t-150 -42t-39 -74v-23q0 -48 40 -75.5t150 -41.5t311 -14z" />
    <glyph glyph-name="omacron.sc" horiz-adv-x="2252" 
d="M1722 1217h-1192v294h1192v-294zM1126 -37q-237 0 -414 22.5t-295 64.5t-191 108t-103.5 146t-30.5 185v72q0 133 49.5 227.5t166 164.5t319.5 104.5t499 34.5q238 0 415 -23t295.5 -65.5t191 -109t103 -147t30.5 -186.5v-72q0 -104 -31 -184t-103.5 -146t-190.5 -108
t-295.5 -65t-414.5 -23zM1126 385q201 0 311 14t150.5 41.5t40.5 75.5v23q0 49 -39.5 76t-149.5 41t-313 14q-201 0 -312 -15t-150 -42t-39 -74v-23q0 -48 40 -75.5t150 -41.5t311 -14z" />
    <glyph glyph-name="oslash.sc" horiz-adv-x="2252" 
d="M2116 956l-97 -53q142 -123 142 -342v-72q0 -104 -31 -184t-103.5 -146t-190.5 -108t-295.5 -65t-414.5 -23q-420 0 -659 72l-246 -137l-121 215l109 61q-117 114 -117 315v72q0 133 49.5 227.5t166 164.5t319.5 104.5t499 34.5q389 0 619 -62l252 141zM625 539v-23
q0 -54 51 -82l422 236q-189 -1 -294 -16.5t-142 -42t-37 -72.5zM1628 516v23q0 70 -86 96l-448 -250h32q201 0 311 14t150.5 41.5t40.5 75.5z" />
    <glyph glyph-name="otilde.sc" horiz-adv-x="2252" 
d="M1352 1178q-98 0 -231 36.5t-224 36.5q-81 0 -147 -20t-150 -70v287q84 49 144.5 68.5t152.5 19.5q97 0 230 -37t225 -37q152 0 297 92v-286q-76 -47 -141 -68.5t-156 -21.5zM1126 -37q-237 0 -414 22.5t-295 64.5t-191 108t-103.5 146t-30.5 185v72q0 133 49.5 227.5
t166 164.5t319.5 104.5t499 34.5q238 0 415 -23t295.5 -65.5t191 -109t103 -147t30.5 -186.5v-72q0 -104 -31 -184t-103.5 -146t-190.5 -108t-295.5 -65t-414.5 -23zM1126 385q201 0 311 14t150.5 41.5t40.5 75.5v23q0 49 -39.5 76t-149.5 41t-313 14q-201 0 -312 -15
t-150 -42t-39 -74v-23q0 -48 40 -75.5t150 -41.5t311 -14z" />
    <glyph glyph-name="oe.sc" horiz-adv-x="3115" 
d="M2976 1055v-406h-953v-47h834v-143h-834v-51h953v-408h-2013q-245 0 -412.5 29t-269 91t-145.5 151t-44 218v72q0 172 80 278t273 161t518 55h2013zM946 416h574v223h-574q-125 0 -196 -11t-98 -32t-27 -57v-23q0 -54 69 -77t252 -23z" />
    <glyph glyph-name="p.sc" horiz-adv-x="1824" 
d="M188 1055h1002q99 0 177.5 -10.5t151 -37.5t120 -71.5t76 -116.5t28.5 -168v-12q0 -236 -128.5 -337t-424.5 -101h-498v-201h-504v1055zM1219 596v6q0 23 -17 33t-55 10h-455v-94h455q72 0 72 45z" />
    <glyph glyph-name="thorn.sc" horiz-adv-x="1792" 
d="M692 942h498q100 0 177.5 -9.5t150.5 -36t120.5 -70.5t76 -116.5t28.5 -170.5v-33q0 -98 -28.5 -170.5t-76 -117t-120.5 -71t-150.5 -36t-177.5 -9.5h-498v-102h-504v1055h504v-113zM1219 514v16q0 23 -17 33t-55 10h-455v-102h455q38 0 55 10t17 33z" />
    <glyph glyph-name="q.sc" horiz-adv-x="2252" 
d="M1126 1092q238 0 415 -23t295.5 -65.5t191 -109t103 -147t30.5 -186.5v-72q0 -197 -121.5 -318t-409.5 -171l326 -164l-234 -328l-880 465q-169 12 -297 41.5t-214 73t-139.5 105t-76.5 133.5t-23 163v72q0 133 49.5 227.5t166 164.5t319.5 104.5t499 34.5zM625 539v-23
q0 -48 40 -75.5t150 -41.5t311 -14t311 14t150.5 41.5t40.5 75.5v23q0 49 -39.5 76t-149.5 41t-313 14q-201 0 -312 -15t-150 -42t-39 -74z" />
    <glyph glyph-name="r.sc" horiz-adv-x="2062" 
d="M1960 0h-602l-246 246h-420v-246h-504v1055h1164q103 0 182 -9t152 -34.5t120 -67.5t75 -110.5t28 -161.5v-6q0 -143 -59 -233t-179 -136zM1305 670h-613v-80h613q42 0 61.5 7.5t19.5 29.5v8q0 22 -19 28.5t-62 6.5z" />
    <glyph glyph-name="racute.sc" horiz-adv-x="2062" 
d="M1130 1526h580l-457 -344h-465zM1960 0h-602l-246 246h-420v-246h-504v1055h1164q103 0 182 -9t152 -34.5t120 -67.5t75 -110.5t28 -161.5v-6q0 -143 -59 -233t-179 -136zM1305 670h-613v-80h613q42 0 61.5 7.5t19.5 29.5v8q0 22 -19 28.5t-62 6.5z" />
    <glyph glyph-name="rcaron.sc" horiz-adv-x="2062" 
d="M1683 1503l-444 -344h-440l-424 344h465l184 -129l195 129h464zM1960 0h-602l-246 246h-420v-246h-504v1055h1164q103 0 182 -9t152 -34.5t120 -67.5t75 -110.5t28 -161.5v-6q0 -143 -59 -233t-179 -136zM1305 670h-613v-80h613q42 0 61.5 7.5t19.5 29.5v8q0 22 -19 28.5
t-62 6.5z" />
    <glyph glyph-name="uni0157.sc" horiz-adv-x="2062" 
d="M1671 297l289 -297h-602l-246 246h-420v-246h-504v1055h1164q103 0 182 -9t152 -34.5t120 -67.5t75 -110.5t28 -161.5v-6q0 -143 -59 -233t-179 -136zM1305 670h-613v-80h613q42 0 61.5 7.5t19.5 29.5v8q0 22 -19 28.5t-62 6.5zM948 -449h-362l215 375h467z" />
    <glyph glyph-name="s.sc" horiz-adv-x="1912" 
d="M938 -37q-172 0 -308.5 13.5t-226 34.5t-154 55t-98 65.5t-52.5 76t-23 76.5t-4 76v9h520v-4q0 -22 18 -32t96.5 -16t247.5 -6q171 0 256.5 5t107 13.5t21.5 24.5v4q0 15 -17 21t-62 6l-631 4q-269 2 -405 80t-136 258v2q0 56 13.5 100.5t47 87t95.5 73.5t154 54.5
t227.5 35.5t310.5 12q154 0 278.5 -11.5t212.5 -31t154 -49t106 -62.5t64.5 -75.5t33.5 -83t9 -89.5v-10h-518v6q0 21 -28 32t-106.5 17t-223.5 6q-91 0 -154.5 -2.5t-97.5 -6t-52 -9.5t-22 -11.5t-4 -13.5v-2q0 -17 15.5 -23.5t53.5 -6.5l672 -11q281 -5 395.5 -68
t114.5 -220v-5q0 -52 -8 -92t-31.5 -83.5t-64 -75t-108.5 -61t-161.5 -47.5t-227 -29t-300.5 -11z" />
    <glyph glyph-name="sacute.sc" horiz-adv-x="1912" 
d="M1180 1182h-465l342 344h579zM938 -37q-172 0 -308.5 13.5t-226 34.5t-154 55t-98 65.5t-52.5 76t-23 76.5t-4 76v9h520v-4q0 -22 18 -32t96.5 -16t247.5 -6q171 0 256.5 5t107 13.5t21.5 24.5v4q0 15 -17 21t-62 6l-631 4q-269 2 -405 80t-136 258v2q0 56 13.5 100.5
t47 87t95.5 73.5t154 54.5t227.5 35.5t310.5 12q154 0 278.5 -11.5t212.5 -31t154 -49t106 -62.5t64.5 -75.5t33.5 -83t9 -89.5v-10h-518v6q0 21 -28 32t-106.5 17t-223.5 6q-91 0 -154.5 -2.5t-97.5 -6t-52 -9.5t-22 -11.5t-4 -13.5v-2q0 -17 15.5 -23.5t53.5 -6.5l672 -11
q281 -5 395.5 -68t114.5 -220v-5q0 -52 -8 -92t-31.5 -83.5t-64 -75t-108.5 -61t-161.5 -47.5t-227 -29t-300.5 -11z" />
    <glyph glyph-name="scaron.sc" horiz-adv-x="1912" 
d="M1610 1503l-445 -344h-440l-424 344h465l184 -129l195 129h465zM657 666l672 -11q281 -5 395.5 -68t114.5 -220v-5q0 -52 -8 -92t-31.5 -83.5t-64 -75t-108.5 -61t-161.5 -47.5t-227 -29t-300.5 -11q-172 0 -308.5 13.5t-226 34.5t-154 55t-98 65.5t-52.5 76t-23 76.5
t-4 76v9h520v-4q0 -22 18 -32t96.5 -16t247.5 -6q171 0 256.5 5t107 13.5t21.5 24.5v4q0 15 -17 21t-62 6l-631 4q-269 2 -405 80t-136 258v2q0 56 13.5 100.5t47 87t95.5 73.5t154 54.5t227.5 35.5t310.5 12q154 0 278.5 -11.5t212.5 -31t154 -49t106 -62.5t64.5 -75.5
t33.5 -83t9 -89.5v-10h-518v6q0 21 -28 32t-106.5 17t-223.5 6q-91 0 -154.5 -2.5t-97.5 -6t-52 -9.5t-22 -11.5t-4 -13.5v-2q0 -17 15.5 -23.5t53.5 -6.5z" />
    <glyph glyph-name="scedilla.sc" horiz-adv-x="1912" 
d="M657 666l672 -11q281 -5 395.5 -68t114.5 -220v-5q0 -56 -10 -99t-37 -88.5t-79.5 -79t-131.5 -61.5t-200 -45.5t-279 -23.5l-72 -47q136 0 211 -19.5t104 -58t29 -106.5q0 -89 -53.5 -139t-191 -74.5t-388.5 -24.5h-180v205h139q133 0 207 4t99.5 11.5t25.5 19.5
q0 16 -22 19t-103 3h-248v142l103 67q-107 5 -197 16.5t-156 27t-118.5 37.5t-87.5 43.5t-60 50t-38.5 53t-21 56.5t-9.5 55t-2 54v9h520v-4q0 -22 18 -32t96.5 -16t247.5 -6q171 0 256.5 5t107 13.5t21.5 24.5v4q0 15 -17 21t-62 6l-631 4q-269 2 -405 80t-136 258v2
q0 56 13.5 100.5t47 87t95.5 73.5t154 54.5t227.5 35.5t310.5 12q154 0 278.5 -11.5t212.5 -31t154 -49t106 -62.5t64.5 -75.5t33.5 -83t9 -89.5v-10h-518v6q0 21 -28 32t-106.5 17t-223.5 6q-91 0 -154.5 -2.5t-97.5 -6t-52 -9.5t-22 -11.5t-4 -13.5v-2q0 -17 15.5 -23.5
t53.5 -6.5z" />
    <glyph glyph-name="uni0219.sc" horiz-adv-x="1912" 
d="M938 -37q-172 0 -308.5 13.5t-226 34.5t-154 55t-98 65.5t-52.5 76t-23 76.5t-4 76v9h520v-4q0 -22 18 -32t96.5 -16t247.5 -6q171 0 256.5 5t107 13.5t21.5 24.5v4q0 15 -17 21t-62 6l-631 4q-269 2 -405 80t-136 258v2q0 56 13.5 100.5t47 87t95.5 73.5t154 54.5
t227.5 35.5t310.5 12q154 0 278.5 -11.5t212.5 -31t154 -49t106 -62.5t64.5 -75.5t33.5 -83t9 -89.5v-10h-518v6q0 21 -28 32t-106.5 17t-223.5 6q-91 0 -154.5 -2.5t-97.5 -6t-52 -9.5t-22 -11.5t-4 -13.5v-2q0 -17 15.5 -23.5t53.5 -6.5l672 -11q281 -5 395.5 -68
t114.5 -220v-5q0 -52 -8 -92t-31.5 -83.5t-64 -75t-108.5 -61t-161.5 -47.5t-227 -29t-300.5 -11zM512 -446l215 374h467l-320 -374h-362z" />
    <glyph glyph-name="germandbls.sc" horiz-adv-x="2355" 
d="M1530 612h194q78 0 137 -4t118 -14t100 -29.5t74 -49t49 -73.5t16 -102v-23q0 -73 -25.5 -128t-70.5 -91t-114 -58t-149 -31t-182 -9h-866v365h823q52 0 52 22v4q0 21 -52 21h-770v223l285 76h-244q-119 0 -173 -53.5t-54 -165.5v-492h-506v487q0 309 155.5 438.5
t520.5 129.5h1196v-353z" />
    <glyph glyph-name="t.sc" horiz-adv-x="1681" 
d="M59 1055h1563v-410h-528v-645h-504v645h-531v410z" />
    <glyph glyph-name="tbar.sc" horiz-adv-x="1681" 
d="M1622 1055v-410h-528v-141h395v-314h-395v-190h-504v190h-397v314h397v141h-531v410h1563z" />
    <glyph glyph-name="tcaron.sc" horiz-adv-x="1681" 
d="M1495 1503l-444 -344h-441l-424 344h465l185 -129l194 129h465zM59 1055h1563v-410h-528v-645h-504v645h-531v410z" />
    <glyph glyph-name="uni0163.sc" horiz-adv-x="1681" 
d="M1094 645v-645h-60l-125 -84q136 0 211 -19.5t104 -58t29 -106.5q0 -89 -53.5 -139t-190.5 -74.5t-388 -24.5h-181v205h140q133 0 206.5 4t99 11.5t25.5 19.5q0 16 -22 19t-103 3h-247v142l155 102h-104v645h-531v410h1563v-410h-528z" />
    <glyph glyph-name="uni021B.sc" horiz-adv-x="1681" 
d="M59 1055h1563v-410h-528v-645h-504v645h-531v410zM754 -449h-363l215 375h467z" />
    <glyph glyph-name="u.sc" horiz-adv-x="2050" 
d="M1026 -37q-200 -1 -350.5 29.5t-251 86.5t-163.5 142t-89.5 190t-26.5 238v406h504v-428q0 -134 85.5 -188t291.5 -54q204 0 289.5 54t85.5 188v428h504v-406q0 -174 -46.5 -299t-150 -212.5t-272.5 -130.5t-410 -44z" />
    <glyph glyph-name="uacute.sc" horiz-adv-x="2050" 
d="M1249 1182h-465l342 344h580zM1026 -37q-200 -1 -350.5 29.5t-251 86.5t-163.5 142t-89.5 190t-26.5 238v406h504v-428q0 -134 85.5 -188t291.5 -54q204 0 289.5 54t85.5 188v428h504v-406q0 -174 -46.5 -299t-150 -212.5t-272.5 -130.5t-410 -44z" />
    <glyph glyph-name="ucircumflex.sc" horiz-adv-x="2050" 
d="M1225 1167l-195 129l-184 -129h-465l424 344h440l445 -344h-465zM1401 627v428h504v-406q0 -174 -46.5 -299t-150 -212.5t-272.5 -130.5t-410 -44q-200 -1 -350.5 29.5t-251 86.5t-163.5 142t-89.5 190t-26.5 238v406h504v-428q0 -134 85.5 -188t291.5 -54
q204 0 289.5 54t85.5 188z" />
    <glyph glyph-name="udieresis.sc" horiz-adv-x="2050" 
d="M686 1149q-256 0 -256 194q0 193 256 193q254 0 254 -193q0 -194 -254 -194zM1368 1149q-256 0 -256 194q0 193 256 193q254 0 254 -193q0 -194 -254 -194zM1026 -37q-200 -1 -350.5 29.5t-251 86.5t-163.5 142t-89.5 190t-26.5 238v406h504v-428q0 -134 85.5 -188
t291.5 -54q204 0 289.5 54t85.5 188v428h504v-406q0 -174 -46.5 -299t-150 -212.5t-272.5 -130.5t-410 -44z" />
    <glyph glyph-name="ugrave.sc" horiz-adv-x="2050" 
d="M1309 1182h-465l-457 344h580zM1026 -37q-200 -1 -350.5 29.5t-251 86.5t-163.5 142t-89.5 190t-26.5 238v406h504v-428q0 -134 85.5 -188t291.5 -54q204 0 289.5 54t85.5 188v428h504v-406q0 -174 -46.5 -299t-150 -212.5t-272.5 -130.5t-410 -44z" />
    <glyph glyph-name="uhungarumlaut.sc" horiz-adv-x="2050" 
d="M936 1182h-444l342 344h477zM1495 1182h-444l424 344h477zM1026 -37q-200 -1 -350.5 29.5t-251 86.5t-163.5 142t-89.5 190t-26.5 238v406h504v-428q0 -134 85.5 -188t291.5 -54q204 0 289.5 54t85.5 188v428h504v-406q0 -174 -46.5 -299t-150 -212.5t-272.5 -130.5
t-410 -44z" />
    <glyph glyph-name="umacron.sc" horiz-adv-x="2050" 
d="M1622 1217h-1192v294h1192v-294zM1026 -37q-200 -1 -350.5 29.5t-251 86.5t-163.5 142t-89.5 190t-26.5 238v406h504v-428q0 -134 85.5 -188t291.5 -54q204 0 289.5 54t85.5 188v428h504v-406q0 -174 -46.5 -299t-150 -212.5t-272.5 -130.5t-410 -44z" />
    <glyph glyph-name="uogonek.sc" horiz-adv-x="2050" 
d="M1401 627v428h504v-406q0 -291 -138.5 -455t-451.5 -210q-136 -48 -200 -84t-64 -70q0 -18 15 -25.5t52 -7.5h250v-268h-344q-164 0 -234.5 56t-70.5 169q0 134 98 217q-187 18 -318.5 72t-208.5 143t-111 201.5t-34 261.5v406h504v-428q0 -134 85.5 -188t291.5 -54
q204 0 289.5 54t85.5 188z" />
    <glyph glyph-name="uring.sc" horiz-adv-x="2050" 
d="M1026 1149q-267 0 -380.5 55.5t-115.5 179.5q-2 123 113 179.5t383 56.5t383 -56.5t113 -179.5q2 -123 -113 -179t-383 -56zM1026 1350q98 0 145 3.5t60.5 10t13.5 20.5q0 15 -13.5 22t-61 11t-144.5 4t-144.5 -4t-61 -11t-13.5 -22q0 -14 13.5 -20.5t60.5 -10t145 -3.5z
M1026 -37q-200 -1 -350.5 29.5t-251 86.5t-163.5 142t-89.5 190t-26.5 238v406h504v-428q0 -134 85.5 -188t291.5 -54q204 0 289.5 54t85.5 188v428h504v-406q0 -174 -46.5 -299t-150 -212.5t-272.5 -130.5t-410 -44z" />
    <glyph glyph-name="v.sc" horiz-adv-x="2050" 
d="M1026 481l422 574h596l-793 -1055h-452l-791 1055h594z" />
    <glyph glyph-name="w.sc" horiz-adv-x="2785" 
d="M1942 487l247 568h547l-491 -1057h-590l-285 532l-285 -532h-583l-494 1057h545l246 -568l284 568h574z" />
    <glyph glyph-name="wacute.sc" horiz-adv-x="2785" 
d="M1473 1526h579l-457 -344h-465zM1942 487l247 568h547l-491 -1057h-590l-285 532l-285 -532h-583l-494 1057h545l246 -568l284 568h574z" />
    <glyph glyph-name="wcircumflex.sc" horiz-adv-x="2785" 
d="M1571 1167l-195 129l-184 -129h-465l424 344h440l445 -344h-465zM1942 487l247 568h547l-491 -1057h-590l-285 532l-285 -532h-583l-494 1057h545l246 -568l284 568h574z" />
    <glyph glyph-name="wdieresis.sc" horiz-adv-x="2785" 
d="M1032 1149q-256 0 -256 194q0 193 256 193q254 0 254 -193q0 -194 -254 -194zM1714 1149q-256 0 -256 194q0 193 256 193q254 0 254 -193q0 -194 -254 -194zM1942 487l247 568h547l-491 -1057h-590l-285 532l-285 -532h-583l-494 1057h545l246 -568l284 568h574z" />
    <glyph glyph-name="wgrave.sc" horiz-adv-x="2785" 
d="M1313 1526l342 -344h-465l-457 344h580zM1942 487l247 568h547l-491 -1057h-590l-285 532l-285 -532h-583l-494 1057h545l246 -568l284 568h574z" />
    <glyph glyph-name="x.sc" horiz-adv-x="2107" 
d="M1466 539l641 -539h-706l-350 311l-365 -311h-686l649 532l-575 523h649l334 -314l329 314h650z" />
    <glyph glyph-name="y.sc" horiz-adv-x="1986" 
d="M1362 1055h641l-752 -649v-404h-503v401l-764 652h649l360 -320z" />
    <glyph glyph-name="yacute.sc" horiz-adv-x="1986" 
d="M1096 1526h579l-456 -344h-465zM1362 1055h641l-752 -649v-404h-503v401l-764 652h649l360 -320z" />
    <glyph glyph-name="ycircumflex.sc" horiz-adv-x="1986" 
d="M1194 1167l-195 129l-184 -129h-465l424 344h440l445 -344h-465zM1362 1055h641l-752 -649v-404h-503v401l-764 652h649l360 -320z" />
    <glyph glyph-name="ydieresis.sc" horiz-adv-x="1986" 
d="M655 1149q-256 0 -256 194q0 193 256 193q254 0 254 -193q0 -194 -254 -194zM1337 1149q-256 0 -256 194q0 193 256 193q254 0 254 -193q0 -194 -254 -194zM1362 1055h641l-752 -649v-404h-503v401l-764 652h649l360 -320z" />
    <glyph glyph-name="ygrave.sc" horiz-adv-x="1986" 
d="M936 1526l342 -344h-465l-457 344h580zM1362 1055h641l-752 -649v-404h-503v401l-764 652h649l360 -320z" />
    <glyph glyph-name="z.sc" horiz-adv-x="1939" 
d="M1769 651l-663 -241h768v-410h-1729v397l680 252h-712v410h1656v-408z" />
    <glyph glyph-name="zacute.sc" horiz-adv-x="1939" 
d="M1067 1526h580l-457 -344h-465zM1769 651l-663 -241h768v-410h-1729v397l680 252h-712v410h1656v-408z" />
    <glyph glyph-name="zcaron.sc" horiz-adv-x="1939" 
d="M1620 1503l-444 -344h-441l-424 344h465l185 -129l194 129h465zM1769 651l-663 -241h768v-410h-1729v397l680 252h-712v410h1656v-408z" />
    <glyph glyph-name="zdotaccent.sc" horiz-adv-x="1939" 
d="M967 1147q-154 0 -233 55.5t-79 161.5q0 215 312 215q309 0 309 -215q0 -217 -309 -217zM1769 651l-663 -241h768v-410h-1729v397l680 252h-712v410h1656v-408z" />
    <glyph glyph-name="zero.osf" horiz-adv-x="2260" 
d="M1130 -37q-344 -1 -558.5 58t-310 172t-95.5 290v88q0 130 53.5 225t168 162t299.5 100t443 34q342 1 558 -59.5t311.5 -174t95.5 -287.5v-88q0 -176 -96 -289t-310.5 -171.5t-558.5 -59.5zM1130 356q238 0 341.5 33t103.5 121v37q0 84 -104.5 117.5t-340.5 33.5
q-235 0 -339.5 -33.5t-104.5 -117.5v-37q0 -88 103 -121t341 -33z" />
    <glyph glyph-name="one.osf" horiz-adv-x="1173" 
d="M55 975l465 80h447v-1055h-492v631l-340 -66z" />
    <glyph glyph-name="two.osf" horiz-adv-x="2002" 
d="M1178 399l-295 -22h1024v-377h-1751v461l913 92q211 22 211 86v4q0 35 -59 45t-236 10q-191 0 -267.5 -21.5t-76.5 -76.5v-20h-516v22q0 85 23.5 154.5t84 133.5t155.5 107.5t247 69t350 25.5q316 0 506 -37.5t269 -108t79 -182.5v-14q0 -73 -28.5 -128t-79.5 -92.5
t-135.5 -63.5t-183 -41.5t-234.5 -25.5z" />
    <glyph glyph-name="three.osf" horiz-adv-x="1888" 
d="M1520 393q71 -14 122 -36t81.5 -48t48.5 -61.5t24 -70t6 -79.5v-14q0 -206 -216.5 -308t-672.5 -102q-845 0 -845 541v14h507v-14q0 -85 75 -114t263 -29q190 0 268.5 18.5t78.5 67.5v6q0 36 -33 51.5t-123 15.5h-379v285h340q88 0 128 18t40 64v4q0 37 -22 55.5
t-91.5 28.5t-206.5 10q-134 0 -204.5 -14.5t-97.5 -45.5t-27 -89v-21h-508v27q0 126 44 222t140.5 168t260.5 109.5t392 37.5q314 0 506.5 -44t274.5 -126t82 -211v-15q0 -65 -22.5 -119.5t-81.5 -104t-152 -77.5z" />
    <glyph glyph-name="four.osf" horiz-adv-x="2037" 
d="M1749 328h223v-328h-223v-238h-532v238h-1154v326l1115 729h571v-727zM1217 653l-498 -325h498v325z" />
    <glyph glyph-name="five.osf" horiz-adv-x="1914" 
d="M1180 557q357 0 518.5 -93t161.5 -317v-10q0 -161 -79.5 -260.5t-268.5 -151t-506 -51.5q-202 0 -357.5 22.5t-260.5 63t-172 101.5t-96.5 133t-29.5 162v12h518v-4q2 -23 18 -38.5t56 -29.5t118.5 -21t196.5 -7q197 0 271.5 27t74.5 93v9q0 62 -75 88t-271 26
q-353 0 -370 -86v-2h-500v832h1638v-426h-1155v-168q187 96 570 96z" />
    <glyph glyph-name="six.osf" horiz-adv-x="2127" 
d="M1307 819q354 0 514.5 -85.5t160.5 -297.5v-12q0 -116 -45.5 -199.5t-149 -143.5t-277.5 -89t-425 -29q-249 0 -429 42t-290 124t-162 196.5t-52 266.5v164q0 320 229.5 481.5t718.5 161.5q443 0 659.5 -133.5t216.5 -384.5v-11h-536v7q0 48 -31 75.5t-104 40.5t-203 13
q-111 0 -186.5 -10t-123.5 -28.5t-73.5 -53.5t-35 -75.5t-9.5 -103.5v-14q162 98 633 98zM1466 475v4q0 43 -25 64.5t-108.5 34t-247.5 12.5q-165 0 -252.5 -12t-117 -34.5t-29.5 -64.5v-4q0 -43 29.5 -67t118 -38t251.5 -14t247.5 14t109 37.5t24.5 67.5z" />
    <glyph glyph-name="seven.osf" horiz-adv-x="1712" 
d="M72 629v426h1546v-402l-647 -940h-619l684 916h-964z" />
    <glyph glyph-name="eight.osf" horiz-adv-x="2002" 
d="M1612 696q291 -95 291 -317v-14q0 -80 -22.5 -139.5t-82 -111t-159 -83.5t-256 -50t-371.5 -18t-374 18t-261.5 50t-164.5 83t-87 111t-25 140v14q0 112 74 190t240 121q-262 97 -262 316v14q0 75 24.5 132t84 105t157 78.5t246 47t348.5 16.5q248 0 414.5 -24.5
t258.5 -75.5t129 -117.5t37 -161.5v-14q0 -214 -239 -310zM664 915v-8q0 -51 74 -69.5t263 -18.5t263.5 18.5t74.5 69.5v8q0 53 -74.5 72t-263.5 19t-263 -19t-74 -72zM1386 457v12q0 36 -30.5 56.5t-115.5 32t-239 11.5t-239 -11.5t-115.5 -32t-30.5 -56.5v-12
q0 -36 30.5 -57t115.5 -32.5t239 -11.5t239 11.5t115.5 32.5t30.5 57z" />
    <glyph glyph-name="nine.osf" horiz-adv-x="2062" 
d="M1006 1092q468 0 685.5 -153t217.5 -460v-192q0 -297 -221 -454t-680 -157q-444 0 -662.5 127t-218.5 385v11h539v-6q0 -47 29.5 -72.5t103.5 -38t209 -12.5q152 0 235.5 26t117.5 81t34 153v18q-129 -102 -494 -102q-290 0 -462.5 44t-244 128t-71.5 219v12
q0 77 25 140.5t87.5 121t161 96.5t253 62t356.5 23zM1386 578v8q0 61 -83.5 86.5t-288.5 25.5t-289 -25.5t-84 -86.5v-8q0 -61 84 -87t289 -26t288.5 26t83.5 87z" />
    <glyph glyph-name="zero.dnom" horiz-adv-x="1583" 
d="M793 707q364 0 529 -85.5t165 -256.5v-35q0 -178 -164.5 -265.5t-529.5 -87.5q-366 0 -531.5 88t-165.5 265v35q0 170 166 256t531 86zM793 270q135 0 202 6.5t93 22t26 47.5q0 22 -12.5 34t-49.5 20.5t-97 11t-162 2.5q-103 0 -163 -3t-97.5 -11t-50.5 -20.5t-13 -33.5
q0 -32 27 -47.5t94.5 -22t202.5 -6.5z" />
    <glyph glyph-name="one.dnom" horiz-adv-x="845" 
d="M8 635l377 49h303v-682h-358v385l-260 -33z" />
    <glyph glyph-name="two.dnom" horiz-adv-x="1417" 
d="M926 266l-107 -8h545v-258h-1266v297l623 53q85 7 133 15.5t65 18t17 22.5v2q0 9 -16.5 13.5t-64 7.5t-132.5 3q-283 0 -283 -47v-10h-356v12q0 57 18 103.5t62.5 87.5t115.5 69t182 44t257 16q145 0 252.5 -11.5t172 -30.5t103.5 -48t52.5 -59.5t13.5 -70.5v-8
q0 -92 -93.5 -145t-293.5 -68z" />
    <glyph glyph-name="three.dnom" horiz-adv-x="1400" 
d="M1190 354q85 -19 119 -56t34 -91v-8q0 -54 -29.5 -93t-99 -69t-195 -45t-308.5 -15q-148 0 -261.5 16t-188 44.5t-122 70t-67 89t-19.5 106.5v6h377v-6q0 -30 64.5 -43.5t220.5 -13.5q92 0 144.5 5t68.5 12t16 18v2q0 18 -72 18h-368v86h332q88 0 88 21v2q0 6 -8 10
t-32 7.5t-65.5 6t-111.5 4.5q-162 0 -216.5 -10t-54.5 -41v-10h-377v16q0 75 31.5 130t104.5 97.5t202 64.5t314 22q182 0 305 -13.5t189.5 -41t93 -62t26.5 -82.5v-8q0 -106 -135 -146z" />
    <glyph glyph-name="four.dnom" horiz-adv-x="1419" 
d="M1214 297h160v-207h-160v-90h-358v90h-772v193l745 401h385v-387zM856 451l-330 -154h330v154z" />
    <glyph glyph-name="five.dnom" horiz-adv-x="1366" 
d="M858 418q139 0 231.5 -12.5t143.5 -38.5t71.5 -59.5t20.5 -82.5v-4q0 -57 -26 -98.5t-90.5 -76t-185.5 -52t-298 -17.5q-147 0 -261 16.5t-184.5 43t-115.5 64t-62.5 75.5t-17.5 82v12h375l2 -2q16 -28 250 -28q129 0 184 7.5t55 28.5v5q0 20 -47.5 26t-191.5 6
q-230 0 -256 -22l-2 -2h-347v395h1135v-242h-803v-67q121 43 420 43z" />
    <glyph glyph-name="six.dnom" horiz-adv-x="1501" 
d="M948 399q273 0 374 -32.5t101 -133.5v-6q0 -50 -16.5 -87t-60.5 -69t-119.5 -52t-194.5 -31t-284 -11q-155 0 -269.5 16t-187.5 44.5t-117 73.5t-61 98t-17 123v24q0 65 21 117t70 96.5t126.5 74.5t195 46.5t269.5 16.5q153 0 264 -13t180.5 -35.5t110.5 -59t56.5 -78.5
t15.5 -99v-6h-361v2q0 17 -46.5 20.5t-219.5 3.5q-88 0 -149 -5t-95.5 -12.5t-52.5 -21.5t-23 -27t-5 -34q59 32 175 44.5t320 12.5zM1047 262v2q0 11 -20 17.5t-85.5 11t-181.5 4.5q-121 0 -185 -4.5t-81 -11t-17 -17.5v-4q0 -10 19 -16t85 -9.5t187 -3.5q113 0 175.5 4
t83 10t20.5 17z" />
    <glyph glyph-name="seven.dnom" horiz-adv-x="1265" 
d="M49 414v270h1122v-272l-436 -412h-489l493 414h-690z" />
    <glyph glyph-name="eight.dnom" horiz-adv-x="1400" 
d="M1198 356q145 -42 145 -153v-8q0 -33 -9 -58t-32 -51t-68.5 -44.5t-114 -34t-172.5 -23t-240 -7.5q-162 0 -281 11.5t-189 30.5t-111.5 48.5t-55 59t-13.5 68.5v8q0 113 146 151q-123 41 -123 146v8q0 36 11 62t48.5 53.5t104 44.5t183.5 28t280 11q156 0 267.5 -9.5
t178 -25.5t105 -42.5t51 -54.5t12.5 -67v-8q0 -100 -123 -144zM989 432v2q0 33 -282 33q-283 0 -283 -33v-2q0 -9 17 -15t82 -10t184 -4q118 0 183 4t82 10t17 15zM989 266v2q0 9 -17 15t-82 10t-183 4q-119 0 -184 -4t-82 -10t-17 -15v-2q0 -33 283 -33q282 0 282 33z" />
    <glyph glyph-name="nine.dnom" horiz-adv-x="1501" 
d="M733 707q160 0 279.5 -18.5t193.5 -49.5t119.5 -77.5t62.5 -96.5t17 -113v-24q0 -65 -21 -117t-70 -96.5t-126.5 -74.5t-195 -46.5t-269.5 -16.5t-264 15t-181 41t-110.5 66.5t-56.5 84t-15 101.5v6h361v-2q0 -16 23.5 -26t82.5 -15.5t160 -5.5q88 0 149 5t95.5 12.5
t53 21.5t23.5 27t5 34v10q-53 -27 -153.5 -37t-270.5 -10q-200 0 -314.5 17t-163.5 53.5t-49 99.5v6q0 54 27.5 93t95.5 70.5t196 47t316 15.5zM1024 420v2q0 11 -20 17t-81.5 10t-172.5 4t-173 -4t-82 -10t-20 -17v-2q0 -11 20 -17.5t82.5 -11t172.5 -4.5t172.5 4.5t82 11
t19.5 17.5z" />
    <glyph glyph-name="zero.numr" horiz-adv-x="1583" 
d="M793 1380q364 0 529 -85.5t165 -256.5v-34q0 -178 -164.5 -265.5t-529.5 -87.5q-366 0 -531.5 88t-165.5 265v34q0 170 166 256t531 86zM793 944q135 0 202 6.5t93 22t26 47.5q0 21 -12.5 33.5t-50 20.5t-96.5 10.5t-162 2.5t-162.5 -2.5t-97.5 -10.5t-51 -20.5
t-13 -33.5q0 -32 27 -47.5t94.5 -22t202.5 -6.5z" />
    <glyph glyph-name="one.numr" horiz-adv-x="845" 
d="M8 1307l377 49h303v-682h-358v385l-260 -33z" />
    <glyph glyph-name="two.numr" horiz-adv-x="1417" 
d="M926 942l-107 -8h545v-258h-1266v297l623 53q85 7 133 15t65 17.5t17 22.5v2q0 9 -16.5 14t-64 8t-132.5 3q-283 0 -283 -47v-10h-356v12q0 57 18 103t62.5 87.5t115.5 69t182 43.5t257 16q145 0 252.5 -11.5t172 -30t103.5 -47.5t52.5 -59.5t13.5 -70.5v-8
q0 -92 -93.5 -145t-293.5 -68z" />
    <glyph glyph-name="three.numr" horiz-adv-x="1400" 
d="M1190 1030q85 -19 119 -56t34 -91v-9q0 -54 -29.5 -93t-99.5 -68.5t-195 -44.5t-308 -15q-148 0 -261.5 16t-188 44.5t-122 70t-67 89t-19.5 106.5v6h377v-6q0 -30 64.5 -43.5t220.5 -13.5q92 0 144.5 4.5t68.5 11.5t16 18v2q0 19 -72 19h-368v86h332q88 0 88 20v2
q0 6 -8 10.5t-31.5 8t-66 6t-111.5 4.5q-162 0 -216.5 -10t-54.5 -41v-10h-377v16q0 75 31.5 130t104.5 97.5t202 64t314 21.5q182 0 305 -13.5t189.5 -40.5t93 -61.5t26.5 -82.5v-8q0 -106 -135 -146z" />
    <glyph glyph-name="four.numr" horiz-adv-x="1419" 
d="M1214 969h160v-207h-160v-90h-358v90h-772v192l745 402h385v-387zM856 1122l-330 -153h330v153z" />
    <glyph glyph-name="five.numr" horiz-adv-x="1366" 
d="M858 1090q139 0 231.5 -12.5t143.5 -38.5t71.5 -59.5t20.5 -82.5v-4q0 -57 -26 -98.5t-90.5 -76t-185.5 -52t-298 -17.5q-147 0 -261 16.5t-184.5 43t-115.5 64t-62.5 75.5t-17.5 82v12h375l2 -2q16 -29 250 -29q128 0 183.5 8t55.5 29v4q0 20 -48 26.5t-191 6.5
q-230 0 -256 -22l-2 -2h-347v395h1135v-242h-803v-67q121 43 420 43z" />
    <glyph glyph-name="six.numr" horiz-adv-x="1501" 
d="M948 1073q273 0 374 -32.5t101 -133.5v-6q0 -50 -16.5 -87t-60.5 -69t-119.5 -52t-194.5 -31t-284 -11q-155 0 -269.5 16t-187.5 44.5t-117 73.5t-61 98t-17 123v24q0 65 21 117t70 96.5t126.5 74t194.5 46t270 16.5t264 -12.5t180.5 -35t110.5 -59t56.5 -78.5t15.5 -99
v-6h-361v2q0 17 -46.5 20.5t-219.5 3.5q-88 0 -149 -5t-95.5 -12.5t-52.5 -21.5t-23 -27t-5 -34q59 32 175 44.5t320 12.5zM1047 936v2q0 11 -20 17.5t-85.5 11t-181.5 4.5q-121 0 -185 -4.5t-81 -11t-17 -17.5v-4q0 -10 19 -16t85 -9.5t187 -3.5q113 0 175.5 4t83 10
t20.5 17z" />
    <glyph glyph-name="seven.numr" horiz-adv-x="1265" 
d="M49 1085v271h1122v-273l-436 -411h-489l493 413h-690z" />
    <glyph glyph-name="eight.numr" horiz-adv-x="1400" 
d="M1198 1030q145 -42 145 -153v-9q0 -40 -12.5 -69t-51.5 -58.5t-107 -48t-185.5 -30t-279.5 -11.5t-281 11.5t-189 30t-111.5 48t-55 59t-13.5 68.5v9q0 113 146 151q-123 41 -123 146v8q0 36 11 62t48.5 53t104 44t183.5 28t280 11q156 0 267.5 -9.5t178 -25.5t105 -42.5
t51 -54t12.5 -66.5v-8q0 -100 -123 -144zM989 1106v2q0 33 -282 33q-283 0 -283 -33v-2q0 -9 17 -15t82 -10t184 -4q118 0 183 4t82 10t17 15zM989 940v2q0 9 -17 15t-82 10t-183 4q-119 0 -184 -4t-82 -10t-17 -15v-2q0 -33 283 -33q282 0 282 33z" />
    <glyph glyph-name="nine.numr" horiz-adv-x="1501" 
d="M733 1378q160 0 279.5 -18.5t193.5 -49t119.5 -77t62.5 -96.5t17 -113v-25q0 -65 -21 -117t-70 -96.5t-126.5 -74t-194.5 -46t-270 -16.5q-152 0 -264 15t-181 40.5t-110.5 66t-56.5 84t-15 101.5v7h361v-2q0 -16 23.5 -26.5t83 -16t159.5 -5.5q110 0 177.5 6.5t99 21.5
t40.5 31t9 42v10q-53 -27 -153.5 -37t-270.5 -10q-200 0 -314.5 17t-163.5 53.5t-49 99.5v6q0 54 27.5 92.5t95.5 70t195.5 47t316.5 15.5zM1024 1092v2q0 11 -20 17t-81 9.5t-173 3.5t-173 -3.5t-81.5 -9.5t-20.5 -17v-2q0 -11 20 -17.5t82.5 -11t172.5 -4.5t172.5 4.5
t82 11t19.5 17.5z" />
    <glyph glyph-name="zero.sc" horiz-adv-x="2260" 
d="M1130 -37q-344 -1 -558.5 58t-310 172t-95.5 290v88q0 130 53.5 225t168 162t299.5 100t443 34q342 1 558 -59.5t311.5 -174t95.5 -287.5v-88q0 -176 -96 -289t-310.5 -171.5t-558.5 -59.5zM1130 356q238 0 341.5 33t103.5 121v37q0 84 -104.5 117.5t-340.5 33.5
q-235 0 -339.5 -33.5t-104.5 -117.5v-37q0 -88 103 -121t341 -33z" />
    <glyph glyph-name="one.sc" horiz-adv-x="1173" 
d="M55 975l465 80h447v-1055h-492v631l-340 -66z" />
    <glyph glyph-name="two.sc" horiz-adv-x="2002" 
d="M1178 399l-295 -22h1024v-377h-1751v461l913 92q211 22 211 86v4q0 35 -59 45t-236 10q-191 0 -267.5 -21.5t-76.5 -76.5v-20h-516v22q0 85 23.5 154.5t84 133.5t155.5 107.5t247 69t350 25.5q316 0 506 -37.5t269 -108t79 -182.5v-14q0 -73 -28.5 -128t-79.5 -92.5
t-135.5 -63.5t-183 -41.5t-234.5 -25.5z" />
    <glyph glyph-name="three.sc" horiz-adv-x="2007" 
d="M1640 532q126 -29 182 -83.5t56 -143.5v-14q0 -113 -79 -182.5t-276 -107.5t-530 -38q-203 0 -358 24t-253 65t-159.5 101t-85.5 125.5t-24 145.5v22h516v-20q0 -39 82 -54.5t282 -15.5q128 0 200 6.5t99 19t27 34.5v4q0 24 -47.5 32.5t-181.5 8.5h-377v135h377
q101 0 145.5 10.5t44.5 34.5v4q0 29 -62.5 41t-224.5 12q-195 0 -273.5 -15t-78.5 -54v-21h-516v23q0 80 24 145.5t85 125.5t157.5 101t249 65t352.5 24q312 0 502 -37t267 -103t77 -168v-14q0 -92 -47.5 -150t-151.5 -88z" />
    <glyph glyph-name="four.sc" horiz-adv-x="1955" 
d="M1667 481h223v-327h-223v-154h-532v154h-1092v325l1053 576h571v-574zM1135 682l-381 -201h381v201z" />
    <glyph glyph-name="five.sc" horiz-adv-x="1937" 
d="M1239 625q244 0 382.5 -28t197.5 -86.5t59 -160.5v-14q0 -93 -47 -161t-151 -116t-274.5 -72t-412.5 -24q-880 0 -880 422v23h516v-5q0 -28 79 -37.5t285 -9.5q127 0 200 8t99.5 21t26.5 35v4q0 28 -66 37.5t-260 9.5q-209 0 -276.5 -6t-91.5 -31l-2 -2h-465v623h1587
v-361h-1157v-121q188 52 651 52z" />
    <glyph glyph-name="six.sc" horiz-adv-x="2142" 
d="M1280 598q84 0 142 -0.5t123.5 -3t109.5 -6.5t92 -10.5t78.5 -16t62 -23.5t49.5 -32t33 -41t21 -51.5t6 -63.5v-12q0 -92 -46 -159t-148.5 -116.5t-278 -74.5t-424.5 -25q-333 0 -540.5 59.5t-300.5 174t-93 292.5v82q0 268 227 394.5t721 126.5q238 0 408 -29.5
t272.5 -87t149.5 -137t47 -185.5v-10h-537v4q0 39 -74 55.5t-264 16.5q-139 0 -222.5 -9t-129.5 -31.5t-61 -53.5t-15 -84v-13q168 70 592 70zM1470 393v4q0 22 -24 34t-106.5 19t-241.5 7q-163 0 -251 -7t-117.5 -19t-29.5 -34v-4q0 -25 30 -38.5t117 -21t251 -7.5
q160 0 241.5 7.5t106 20.5t24.5 39z" />
    <glyph glyph-name="seven.sc" horiz-adv-x="1734" 
d="M49 657v398h1608v-402l-690 -653h-637l704 657h-985z" />
    <glyph glyph-name="eight.sc" horiz-adv-x="1941" 
d="M1614 539q128 -39 188 -103.5t60 -138.5v-14q0 -64 -24 -111.5t-84 -88.5t-160.5 -66.5t-255.5 -39.5t-367 -14t-367 14t-255.5 39.5t-160.5 66.5t-84 88.5t-24 111.5v14q0 74 60 138.5t188 103.5q-217 67 -217 241v15q0 56 21.5 99t79 81.5t153 63t248 39t358.5 14.5
t358.5 -14.5t248 -39t153 -63t79 -81.5t21.5 -99v-15q0 -174 -217 -241zM621 690v-10q0 -51 350 -51t350 51v10q0 26 -71.5 34.5t-278.5 8.5t-278.5 -8.5t-71.5 -34.5zM1346 387v8q0 11 -9 19.5t-34 15.5t-66.5 11.5t-108 7t-157.5 2.5t-157.5 -2.5t-108 -7t-66.5 -11.5
t-34 -15.5t-9 -19.5v-8q0 -25 29.5 -38t110 -19t235.5 -6t235.5 6t110 19t29.5 38z" />
    <glyph glyph-name="nine.sc" horiz-adv-x="2142" 
d="M1063 1092q333 0 541 -59.5t300.5 -174.5t92.5 -293v-82q0 -265 -225 -392.5t-693 -127.5q-207 0 -364.5 19.5t-263.5 56t-173.5 92t-96.5 123t-29 154.5v10h536v-4q0 -29 31.5 -45t117 -24.5t242.5 -8.5q163 0 248.5 18t116.5 54.5t31 105.5v12q-166 -69 -592 -69
q-131 0 -226.5 4.5t-180 16t-139.5 31t-95 50.5t-58 74.5t-18 101.5v13q0 66 28 118.5t93 95.5t168 71t255.5 43.5t352.5 15.5zM1462 657v5q0 25 -29.5 38.5t-116.5 21t-251 7.5q-160 0 -242 -7.5t-106.5 -20.5t-24.5 -39v-5q0 -22 24.5 -34t106.5 -18.5t242 -6.5
q164 0 251 6.5t116.5 18.5t29.5 34z" />
    <glyph glyph-name="uni030C.alt" 
d="M-649 893h-312l207 512h430z" />
    <glyph glyph-name="uni0308.case" 
d="M-1051 1069q-127 0 -191.5 49.5t-64.5 145.5q0 192 256 192q254 0 254 -192q0 -195 -254 -195zM-369 1069q-127 0 -191.5 49.5t-64.5 145.5q0 192 256 192q254 0 254 -192q0 -195 -254 -195z" />
    <glyph glyph-name="uni0307.case" 
d="M-315 1069q-361 0 -361 195q0 192 361 192q358 0 358 -192q0 -195 -358 -195z" />
    <glyph glyph-name="gravecomb.case" 
d="M-61 1102h-424l-457 344h457z" />
    <glyph glyph-name="acutecomb.case" 
d="M-518 1102h-424l424 344h457z" />
    <glyph glyph-name="uni030B.case" 
d="M-1036 1102h-445l342 344h477zM-477 1102h-445l424 344h478z" />
    <glyph glyph-name="uni030C.alt.case" 
d="M-506 725h-311l63 680h430z" />
    <glyph glyph-name="uni0302.case" 
d="M-465 1835l445 -344h-465l-195 125l-184 -125h-465l424 344h440z" />
    <glyph glyph-name="uni030C.case" 
d="M-680 1298l195 125h465l-445 -344h-440l-424 344h465z" />
    <glyph glyph-name="uni0306.case" 
d="M-514 1057q-499 0 -496 373h316q0 -67 37 -93t143 -26t143 26t37 93h316q3 -373 -496 -373z" />
    <glyph glyph-name="uni030A.case" 
d="M-575 1049q-180 0 -289 28t-157.5 83t-49.5 145q-2 134 113 195t383 61t382.5 -61t112.5 -195q2 -134 -112.5 -195t-382.5 -61zM-575 1266q86 0 129.5 4.5t56 12t12.5 22.5q0 16 -12.5 24t-55.5 12.5t-130 4.5t-130.5 -4.5t-56 -12.5t-12.5 -24q0 -15 12.5 -22.5
t56.5 -12t130 -4.5z" />
    <glyph glyph-name="tildecomb.case" 
d="M-379 1098q-64 0 -126.5 18t-104.5 39t-102.5 39t-121.5 18q-80 0 -146 -20t-150 -70v328q84 50 144.5 69t151.5 19q64 0 126 -18t104 -39.5t102.5 -39.5t122.5 -18q80 0 149.5 22t147.5 71v-328q-76 -47 -141 -68.5t-156 -21.5z" />
    <glyph glyph-name="uni0304.case" 
d="M-66 1137h-1191v295h1191v-295z" />
    <glyph glyph-name="uni0326.case" 
d="M-1149 -446l295 350h510l-381 -350h-424z" />
    <glyph glyph-name="uni0327.case" 
d="M-430 -88h49q52 0 88 -1t74.5 -4t63 -8.5t49 -14.5t39 -22t26 -31.5t16.5 -43t5 -55.5q0 -126 -93.5 -182t-314.5 -56h-467v205h416q117 0 117 31q0 16 -28.5 21t-96.5 5h-310v142l168 110h340z" />
    <glyph glyph-name="uni0328.case" 
d="M-184 -471h-344q-164 0 -235 56t-71 169q0 69 26 124.5t87.5 106t168 93t261.5 78.5l103 -156q-164 -56 -239 -94.5t-75 -75.5q0 -18 15 -25.5t53 -7.5h250v-268z" />
    </font>
</defs>
</svg>
