<?xml version="1.0" standalone="no"?>
<!DOCTYPE svg PUBLIC "-//W3C//DTD SVG 1.1//EN" "http://www.w3.org/Graphics/SVG/1.1/DTD/svg11.dtd" >
<svg xmlns="http://www.w3.org/2000/svg" xmlns:xlink="http://www.w3.org/1999/xlink" version="1.1">
<metadata>
Created by FontForge 20170731 at Sun Dec 22 19:41:50 2013
 By Aleksey,,,
Copyright (c) 2013 by Andriy Konstantynov. All rights reserved.
</metadata>
<defs>
<font id="PancettaPro-ThinItalic" horiz-adv-x="530" >
  <font-face 
    font-family="Pancetta Pro"
    font-weight="250"
    font-style="italic"
    font-stretch="normal"
    units-per-em="1000"
    panose-1="2 11 0 3 3 2 0 8 0 4"
    ascent="776"
    descent="-224"
    x-height="500"
    cap-height="701"
    bbox="-87 -236 1141 893"
    underline-thickness="50"
    underline-position="-150"
    unicode-range="U+0020-FB03"
  />
<missing-glyph horiz-adv-x="190" 
 />
    <glyph glyph-name="ff" unicode="ff" horiz-adv-x="640" 
d="M679 483h-170l-108 -681q-4 -3 -10 -3l-10 3l108 681h-270l-108 -681q-4 -3 -10 -3l-10 3l108 681h-60l-1 10l4 10h60l12 77q21 123 150 123q29 0 59 -8l1 -10l-5 -11q-26 9 -58 9q-61 0 -89.5 -25t-37.5 -78l-12 -77h270l12 77q21 123 150 123q29 0 59 -8l1 -10l-5 -11
q-25 9 -58 9q-61 0 -89.5 -25t-37.5 -78l-12 -77h170l2 -10z" />
    <glyph glyph-name="fi" unicode="fi" horiz-adv-x="543" 
d="M389 483h-170l-108 -681q-4 -3 -10 -3l-10 3l108 681h-60l-1 10l4 10h60l12 77q21 123 150 123q29 0 59 -8l1 -10l-5 -11q-26 9 -58 9q-61 0 -89.5 -25t-37.5 -78l-12 -77h170l2 -10zM543 698l-14 -91q-6 -3 -11 -3l-9 3l14 91q5 3 11 3zM490 17q8 0 26 2l1 -10l-4 -9
q-13 -3 -26 -3q-75 0 -62 83l66 418q5 3 11 3l9 -3l-66 -418q-5 -32 5 -47.5t40 -15.5z" />
    <glyph glyph-name="ffi" unicode="ffi" horiz-adv-x="833" 
d="M679 483h-170l-108 -681q-4 -3 -10 -3l-10 3l108 681h-270l-108 -681q-4 -3 -10 -3l-10 3l108 681h-60l-1 10l4 10h60l12 77q21 123 150 123q29 0 59 -8l1 -10l-5 -11q-26 9 -58 9q-61 0 -89.5 -25t-37.5 -78l-12 -77h270l12 77q21 123 150 123q29 0 59 -8l1 -10l-5 -11
q-25 9 -58 9q-61 0 -89.5 -25t-37.5 -78l-12 -77h170l2 -10zM833 698l-14 -91q-6 -3 -11 -3l-9 3l14 91q5 3 11 3zM780 17q8 0 26 2l1 -10l-4 -9q-13 -3 -26 -3q-75 0 -62 83l66 418q5 3 11 3l9 -3l-66 -418q-5 -32 5 -47.5t40 -15.5z" />
    <glyph glyph-name="f_f_j" unicode="ffj" horiz-adv-x="803" 
d="M679 483h-170l-108 -681q-4 -3 -10 -3l-10 3l108 681h-270l-108 -681q-4 -3 -10 -3l-10 3l108 681h-60l-1 10l4 10h60l12 77q21 123 150 123q29 0 59 -8l1 -10l-5 -11q-26 9 -58 9q-61 0 -89.5 -25t-37.5 -78l-12 -77h270l12 77q21 123 150 123q29 0 59 -8l1 -10l-5 -11
q-25 9 -58 9q-61 0 -89.5 -25t-37.5 -78l-12 -77h170l2 -10zM688 -90l93 588q5 3 11 3l9 -3l-93 -588q-18 -113 -128 -113q-29 0 -58 8l-2 10l5 11q25 -9 59 -9q50 0 73.5 23t30.5 70zM833 698l-14 -91q-6 -3 -11 -3l-9 3l14 91q5 3 11 3z" />
    <glyph glyph-name="f_j" unicode="fj" horiz-adv-x="515" 
d="M389 483h-170l-108 -681q-4 -3 -10 -3l-10 3l108 681h-60l-1 10l4 10h60l12 77q21 123 150 123q29 0 59 -8l1 -10l-5 -11q-26 9 -58 9q-61 0 -89.5 -25t-37.5 -78l-12 -77h170l2 -10zM400 -90l93 588q5 3 11 3l9 -3l-93 -588q-18 -113 -128 -113q-29 0 -58 8l-2 10l5 11
q25 -9 59 -9q50 0 73.5 23t30.5 70zM545 698l-14 -91q-6 -3 -11 -3l-9 3l14 91q5 3 11 3z" />
    <glyph glyph-name="f_iogonek" unicode="f&#x12f;" horiz-adv-x="543" 
d="M389 483h-170l-108 -681q-4 -3 -10 -3l-10 3l108 681h-60l-1 10l4 10h60l12 77q21 123 150 123q29 0 59 -8l1 -10l-5 -11q-26 9 -58 9q-61 0 -89.5 -25t-37.5 -78l-12 -77h170l2 -10zM393 -81q4 27 26.5 51.5t34.5 30.5q-39 15 -29 79l66 418q5 3 11 3l9 -3l-66 -418
q-5 -32 5 -47.5t40 -15.5q8 0 26 2l1 -10l-4 -9q-13 -3 -26 -3q-3 0 -8.5 0.5t-7.5 0.5q-52 -40 -58 -79q-8 -50 50 -50q18 0 35.5 5t26.5 10l9 5l1 -11l-4 -10q-25 -19 -71 -19q-78 0 -67 70zM543 698l-14 -91q-6 -3 -11 -3l-9 3l14 91q5 3 11 3z" />
    <glyph glyph-name="f_f_iogonek" unicode="ff&#x12f;" horiz-adv-x="833" 
d="M679 483h-170l-108 -681q-4 -3 -10 -3l-10 3l108 681h-270l-108 -681q-4 -3 -10 -3l-10 3l108 681h-60l-1 10l4 10h60l12 77q21 123 150 123q29 0 59 -8l1 -10l-5 -11q-26 9 -58 9q-61 0 -89.5 -25t-37.5 -78l-12 -77h270l12 77q21 123 150 123q29 0 59 -8l1 -10l-5 -11
q-25 9 -58 9q-61 0 -89.5 -25t-37.5 -78l-12 -77h170l2 -10zM780 17q8 0 26 2l1 -10l-4 -9q-13 -3 -26 -3q-3 0 -9 0.5t-8 0.5q-52 -40 -58 -79q-8 -50 50 -50q18 0 35.5 5t26.5 10l9 5l1 -11l-4 -10q-25 -19 -71 -19q-78 0 -67 70q3 20 18 40.5t26 30t17 12.5
q-37 15 -28 78l66 418q5 3 11 3l9 -3l-66 -418q-5 -32 5 -47.5t40 -15.5zM833 698l-14 -91q-6 -3 -11 -3l-9 3l14 91q5 3 11 3z" />
    <glyph glyph-name="quoteright_afii10104" unicode="&#x2019;&#x457;" horiz-adv-x="250" 
d="M248 498l-78 -496q-6 -3 -11 -3l-9 3l78 496q5 3 11 3zM210 698q-5 -34 -15 -64t-20 -48t-19.5 -31t-15.5 -18l-6 -5q-6 -3 -11 -3l-9 3q6 5 16 16.5t31 54.5t29 95q5 3 11 3zM350 698l-14 -91q-6 -3 -11 -3l-9 3l14 91q5 3 11 3z" />
    <glyph glyph-name="afii10103_afii10104" unicode="&#x456;&#x457;" horiz-adv-x="360" 
d="M178 498l-78 -496q-6 -3 -11 -3l-9 3l78 496q5 3 11 3zM210 698l-14 -91q-6 -3 -11 -3l-9 3l14 91q5 3 11 3zM358 498l-78 -496q-6 -3 -11 -3l-9 3l78 496q5 3 11 3zM335 698l-14 -91q-6 -3 -11 -3l-9 3l14 91q5 3 11 3zM460 698l-14 -91q-6 -3 -11 -3l-9 3l14 91
q5 3 11 3z" />
    <glyph glyph-name="afii10104_afii10104" unicode="&#x457;&#x457;" horiz-adv-x="360" 
d="M178 498l-78 -496q-6 -3 -11 -3l-9 3l78 496q5 3 11 3zM140 698l-14 -91q-6 -3 -11 -3l-9 3l14 91q5 3 11 3zM300 698l-14 -91q-6 -3 -11 -3l-9 3l14 91q5 3 11 3zM358 498l-78 -496q-6 -3 -11 -3l-9 3l78 496q5 3 11 3zM460 698l-14 -91q-6 -3 -11 -3l-9 3l14 91
q5 3 11 3z" />
    <glyph glyph-name=".notdef" horiz-adv-x="190" 
 />
    <glyph glyph-name=".null" horiz-adv-x="0" 
 />
    <glyph glyph-name="nonmarkingreturn" horiz-adv-x="333" 
 />
    <glyph glyph-name="space" unicode=" " horiz-adv-x="190" 
 />
    <glyph glyph-name="exclam" unicode="!" horiz-adv-x="180" 
d="M114 78l-12 -76q-7 -3 -13 -3l-11 3l12 76q5 3 12 3zM210 698l-79 -496q-5 -3 -10 -3l-10 3l79 496q5 3 11 3z" />
    <glyph glyph-name="quotedbl" unicode="&#x22;" horiz-adv-x="280" 
d="M210 698l-31 -196q-5 -3 -10 -3l-10 3l31 196q5 3 11 3zM310 698l-31 -196q-5 -3 -10 -3l-10 3l31 196q5 3 11 3z" />
    <glyph glyph-name="numbersign" unicode="#" horiz-adv-x="546" 
d="M502 200h-84l-48 -198q-6 -3 -11 -3l-9 3l48 198h-220l-48 -198q-6 -3 -11 -3l-9 3l48 198h-76l-1 10l4 10h77l65 260h-76l-2 10l5 10h77l49 198q5 3 11 3l9 -3l-48 -198h219l49 198q5 3 11 3l9 -3l-48 -198h82l1 -10l-4 -10h-84l-65 -260h83l2 -10zM247 480l-65 -260
h220l65 260h-220z" />
    <glyph glyph-name="dollar" unicode="$" horiz-adv-x="556" 
d="M189 560l-9 -60q-6 -36 12 -61.5t50.5 -40t73 -25.5t81 -23.5t72.5 -29t49 -47t10 -73.5l-9 -60q-11 -69 -64 -105.5t-160 -37.5l-15 -95q-5 -3 -10 -3l-10 3l15 95q-107 1 -148 37.5t-30 105.5l2 15q5 3 11 3l9 -3l-2 -15q-10 -62 28.5 -92.5t142.5 -30.5t152.5 30.5
t58.5 92.5l9 60q6 39 -11.5 66t-50 42t-73 26.5t-80.5 23.5t-72.5 28t-49.5 44.5t-11 69.5l9 60q11 69 62 105t156 38l15 95q4 3 10 3l10 -3l-15 -95q101 -2 140 -38t28 -105l-2 -15q-5 -3 -11 -3l-9 3l2 15q10 62 -26.5 92.5t-134.5 30.5q-101 0 -148 -30.5t-57 -92.5z" />
    <glyph glyph-name="percent" unicode="%" horiz-adv-x="635" 
d="M370 101l5 28q17 104 131 104q116 0 99 -104l-5 -28q-15 -104 -131 -104q-114 0 -99 104zM140 571l4 28q17 104 132 104t98 -104l-4 -28q-17 -104 -132 -104t-98 104zM395 129l-5 -28q-6 -43 12.5 -63.5t69.5 -20.5t76.5 20.5t31.5 63.5l5 28q7 43 -12 63.5t-70 20.5
t-76 -20.5t-32 -63.5zM164 599l-4 -28q-7 -43 12 -63.5t70 -20.5t76 20.5t32 63.5l4 28q7 43 -11.5 63.5t-69.5 20.5q-96 0 -109 -84zM677 698l-583 -696q-8 -3 -13 -3l-11 3l583 696q5 3 13 3z" />
    <glyph glyph-name="ampersand" unicode="&#x26;" horiz-adv-x="725" 
d="M731 480h-170l-57 -360q-9 -53 11.5 -78t81.5 -25q33 0 62 9l1 -11l-5 -10q-30 -8 -61 -8q-81 0 -104 45q-8 -5 -23.5 -12.5t-69.5 -20t-116 -12.5q-109 0 -153 40.5t-32 116.5l9 59q19 121 155 147q-113 27 -94 144l7 45q25 154 220 154q107 0 149 -36.5t31 -106.5
l-9 -60h170l1 -10zM345 370h55q2 -4 2 -10l-5 -10h-55q-105 0 -155.5 -34t-61.5 -103l-9 -59q-11 -70 27.5 -103.5t140.5 -33.5q114 0 200 41q-6 27 0 62l69 440q10 63 -26 93t-137 30q-94 0 -140 -33t-57 -101l-7 -45q-11 -68 26 -101t133 -33z" />
    <glyph glyph-name="quotesingle" unicode="'" horiz-adv-x="180" 
d="M210 698l-31 -196q-5 -3 -10 -3l-10 3l31 196q5 3 11 3z" />
    <glyph glyph-name="parenleft" unicode="(" horiz-adv-x="286" 
d="M236 -130l1 -10l-4 -10q-155 0 -133 143l98 615q22 143 177 143l2 -10l-5 -10q-72 0 -108.5 -30.5t-45.5 -92.5l-98 -615q-9 -62 17.5 -92.5t98.5 -30.5z" />
    <glyph glyph-name="parenright" unicode=")" horiz-adv-x="286" 
d="M166 731l-1 10l4 10q155 0 133 -143l-98 -615q-22 -143 -177 -143l-2 10l5 10q72 0 108.5 30.5t45.5 92.5l98 615q9 62 -17.5 92.5t-98.5 30.5z" />
    <glyph glyph-name="asterisk" unicode="*" horiz-adv-x="486" 
d="M149 570l167 -58l29 186q5 3 11 3l9 -3l-29 -185l185 57q3 -2 5 -8l-2 -11l-185 -57l85 -150q-3 -5 -7 -8l-11 -4l-85 151l-133 -151q-5 0 -9 3l-5 9l132 149l-166 57q-2 5 1 11z" />
    <glyph glyph-name="plus" unicode="+" horiz-adv-x="422" 
d="M293 458l-23 -148h148l1 -10l-5 -10h-148l-23 -148q-4 -3 -10 -3l-10 3l23 148h-148l-1 10l5 10h148l23 148q5 3 11 3z" />
    <glyph glyph-name="comma" unicode="," horiz-adv-x="180" 
d="M114 78q-9 -55 -28.5 -96.5t-34.5 -55.5l-15 -14q-6 -3 -11 -3l-9 3q6 5 15.5 16.5t30 54.5t28.5 95q5 3 12 3z" />
    <glyph glyph-name="hyphen" unicode="-" horiz-adv-x="306" 
d="M297 280h-200l-2 10l5 10h200l1 -10z" />
    <glyph glyph-name="period" unicode="." horiz-adv-x="180" 
d="M114 78l-12 -76q-7 -3 -13 -3l-11 3l12 76q5 3 12 3z" />
    <glyph glyph-name="slash" unicode="/" horiz-adv-x="393" 
d="M463 748l-407 -846q-6 -3 -11 -3l-11 3l407 846q4 3 11 3z" />
    <glyph glyph-name="zero" unicode="0" horiz-adv-x="580" 
d="M126 140l66 420q22 143 233 143q109 0 153.5 -36.5t33.5 -106.5l-66 -420q-24 -143 -233 -143q-211 0 -187 143zM212 560l-16 -105l-34 -210l-16 -105q-10 -62 29 -92.5t141 -30.5t151 30.5t59 92.5l66 420q10 62 -29 92.5t-141 30.5t-151 -30.5t-59 -92.5z" />
    <glyph glyph-name="one" unicode="1" horiz-adv-x="302" 
d="M294 701l-111 -699q-6 -3 -11 -3l-9 3l107 676l-124 2q-1 4 0 9l3 9q59 3 145 3z" />
    <glyph glyph-name="two" unicode="2" horiz-adv-x="546" 
d="M535 500l9 60q10 62 -27 92.5t-138 30.5q-98 0 -144.5 -30.5t-56.5 -92.5l-2 -15q-5 -3 -11 -3l-9 3l2 15q11 71 63.5 107t160.5 36q109 0 151 -36t31 -107l-9 -60q-8 -53 -35.5 -91.5t-64.5 -61t-80.5 -41t-87 -36t-80.5 -40t-64.5 -60.5t-35.5 -90l-9 -60h380l1 -10
l-4 -10h-215l-185 5l12 75q9 55 36.5 96t64.5 64.5t81 42.5t87 36.5t80.5 38.5t64 57t34.5 85z" />
    <glyph glyph-name="three" unicode="3" horiz-adv-x="553" 
d="M185 680l-1 10l4 10h394l2 -10l-5 -10l-273 -288q77 0 126 -12.5t68.5 -33.5t26 -49.5t-1.5 -61.5l-13 -81q-26 -157 -235 -157q-66 0 -117 11t-68 22l-18 12l-1 10l4 11q7 -5 21.5 -12.5t67 -20.5t114.5 -13q102 0 151.5 34t60.5 103l13 81q11 71 -33 104t-156 33h-40
l-1 10l5 10l273 288h-368z" />
    <glyph glyph-name="four" unicode="4" horiz-adv-x="520" 
d="M478 498l-47 -298h82l2 -10l-5 -10h-82l-28 -178q-6 -3 -11 -3l-9 3l28 178h-322l-1 10l289 508q6 3 13 3l11 -3l-286 -498h299l47 298q5 3 11 3z" />
    <glyph glyph-name="five" unicode="5" horiz-adv-x="543" 
d="M242 680l-62 -280h151q118 0 155 -41.5t25 -115.5l-14 -89q-26 -157 -225 -157q-66 0 -117 11t-69 22l-17 12l-1 10l4 11q7 -5 21.5 -12.5t67 -20.5t114.5 -13q97 0 144 34t58 103l14 89q11 70 -26.5 103.5t-136.5 33.5h-170l-2 10l69 305q73 5 185 5h132l2 -10l-5 -10
h-297z" />
    <glyph glyph-name="six" unicode="6" horiz-adv-x="570" 
d="M170 372q9 6 27 15.5t80 25t131 15.5q85 0 117.5 -36.5t21.5 -106.5l-23 -145q-24 -143 -228 -143q-106 0 -150 36.5t-32 106.5l62 394q13 83 67.5 125.5t161.5 42.5q53 0 96.5 -6t60.5 -12l17 -7l1 -10l-5 -11q-59 26 -173 26q-100 0 -147 -36t-59 -111zM166 343
l-32 -203q-10 -62 28 -92.5t137 -30.5t147 30.5t58 92.5l23 145q9 63 -17.5 93t-103.5 30q-47 0 -89 -6.5t-68.5 -16t-46 -19.5t-28.5 -16z" />
    <glyph glyph-name="seven" unicode="7" horiz-adv-x="520" 
d="M574 690l-392 -688q-6 -3 -13 -3l-11 3l388 678h-381l-1 10l4 10h404z" />
    <glyph glyph-name="eight" unicode="8" horiz-adv-x="580" 
d="M185 493l10 67q22 143 218 143q101 0 142 -36.5t30 -106.5l-10 -67q-17 -105 -126 -132q115 -26 98 -134l-13 -87q-24 -143 -233 -143q-109 0 -154 36.5t-33 106.5l13 87q17 108 141 134q-100 27 -83 132zM147 227l-13 -87q-10 -62 29 -92.5t141 -30.5t151 30.5t59 92.5
l13 87q10 62 -29 92.5t-141 30.5t-151 -30.5t-59 -92.5zM215 560l-10 -67q-10 -62 25.5 -92.5t129.5 -30.5t139.5 30.5t55.5 92.5l10 67q10 62 -25.5 92.5t-129.5 30.5t-139.5 -30.5t-55.5 -92.5z" />
    <glyph glyph-name="nine" unicode="9" horiz-adv-x="570" 
d="M495 164l29 178q-9 -6 -27 -15.5t-80 -25t-131 -15.5q-85 0 -117.5 36.5t-21.5 106.5l21 130q22 143 228 143q106 0 149.5 -36.5t32.5 -106.5l-62 -394q-13 -83 -67 -125.5t-160 -42.5q-52 0 -96 6.5t-62 12.5l-18 6l-1 10l4 11q64 -26 176 -26q99 0 145 36t58 111z
M528 371l30 188q10 62 -28 92.5t-137 30.5t-147 -30.5t-58 -92.5l-21 -130q-9 -63 17.5 -93t103.5 -30q47 0 89 6.5t68.5 16t46 19.5t28.5 16z" />
    <glyph glyph-name="colon" unicode=":" horiz-adv-x="180" 
d="M180 498l-12 -76q-6 -3 -12 -3l-12 3l12 76q6 3 13 3zM114 78l-12 -76q-7 -3 -13 -3l-11 3l12 76q5 3 12 3z" />
    <glyph glyph-name="semicolon" unicode=";" horiz-adv-x="180" 
d="M180 498l-12 -76q-6 -3 -12 -3l-12 3l12 76q6 3 13 3zM114 78q-9 -55 -28.5 -96.5t-34.5 -55.5l-15 -14q-6 -3 -11 -3l-9 3q6 5 15.5 16.5t30 54.5t28.5 95q5 3 12 3z" />
    <glyph glyph-name="less" unicode="&#x3c;" horiz-adv-x="456" 
d="M467 477l-326 -155l277 -155l1 -12l-5 -12l-314 179l371 179l1 -12z" />
    <glyph glyph-name="equal" unicode="=" horiz-adv-x="442" 
d="M422 219h-336l-1 10l4 10h336l2 -10zM453 405h-336l-2 10l5 10h336l1 -10z" />
    <glyph glyph-name="greater" unicode="&#x3e;" horiz-adv-x="456" 
d="M89 167l325 155l-276 155l-1 12l5 12l313 -179l-370 -179l-1 12z" />
    <glyph glyph-name="question" unicode="?" horiz-adv-x="506" 
d="M495 500l9 60q10 63 -22.5 93t-122.5 30q-88 0 -129.5 -30.5t-51.5 -92.5l-2 -15q-5 -3 -11 -3l-9 3l2 15q11 71 59 107t145 36q98 0 135.5 -36t26.5 -107l-9 -60q-7 -41 -29.5 -68t-50.5 -41.5t-56 -28.5t-50 -39t-28 -63l-10 -58q-5 -3 -10 -3l-10 3l10 58
q7 42 29.5 70t50.5 43t56 28.5t50 38t28 60.5zM274 78l-12 -76q-7 -3 -13 -3l-11 3l12 76q5 3 12 3z" />
    <glyph glyph-name="at" unicode="@" horiz-adv-x="648" 
d="M90 -30l58 370q13 80 83.5 121.5t214.5 41.5q115 0 159 -41.5t31 -121.5l-53 -338q-5 -3 -11 -3l-9 3l8 51q-8 -6 -24.5 -15.5t-72.5 -25t-119 -15.5q-130 0 -109 123l3 25q10 58 55.5 89t138.5 41l166 17l7 48q12 73 -27 108t-146 35q-138 0 -200.5 -35t-74.5 -108
l-58 -370q-14 -84 29.5 -118.5t167.5 -34.5q69 0 130 11.5t87 23.5l26 11l1 -11l-5 -10q-8 -5 -25.5 -12.5t-80 -20t-136.5 -12.5q-130 0 -179.5 41.5t-34.5 131.5zM606 272l-166 -17q-85 -9 -124 -35t-47 -75l-3 -25q-9 -52 12 -77.5t81 -25.5q67 0 121 16.5t75 32.5l20 16
z" />
    <glyph glyph-name="A" unicode="A" horiz-adv-x="587" 
d="M34 2l356 696q7 3 15 3l12 -3l136 -696q-6 -3 -11 -3l-10 3l-43 218h-323l-111 -218q-6 -3 -12 -3zM401 678l-224 -438h309z" />
    <glyph glyph-name="B" unicode="B" horiz-adv-x="565" 
d="M80 2l110 696q86 5 206 5q104 0 145.5 -39.5t29.5 -114.5l-7 -45q-19 -117 -138 -144q126 -25 107 -147l-9 -59q-26 -157 -240 -157zM155 350l-53 -333h185q105 0 155.5 34t61.5 103l9 59q11 70 -29 103.5t-144 33.5h-185zM208 683l-50 -313h185q96 0 143 33t58 101l7 45
q11 68 -25.5 101t-132.5 33h-185z" />
    <glyph glyph-name="C" unicode="C" horiz-adv-x="600" 
d="M114 140l66 420q22 143 245 143q117 0 164 -36.5t36 -106.5l-2 -15q-5 -3 -11 -3l-9 3l2 15q10 63 -31 93t-152 30t-161.5 -30t-60.5 -93l-66 -420q-10 -63 30.5 -93t151.5 -30q63 0 118.5 11.5t79.5 23.5l24 11l2 -11l-5 -10q-8 -5 -23.5 -12.5t-73 -20t-125.5 -12.5
q-118 0 -164.5 36.5t-34.5 106.5z" />
    <glyph glyph-name="D" unicode="D" horiz-adv-x="595" 
d="M190 698q82 5 206 5q119 0 168.5 -36.5t38.5 -106.5l-66 -420q-24 -143 -253 -143l-204 5zM208 683l-106 -666h185q112 0 166 30.5t64 92.5l66 420q10 62 -34 92.5t-156 30.5h-185z" />
    <glyph glyph-name="E" unicode="E" 
d="M155 350l-52 -330h377l1 -10l-4 -10h-212l-185 5l110 690q73 5 185 5h207l2 -10l-5 -10h-372l-49 -310h337q2 -4 2 -10l-5 -10h-337z" />
    <glyph glyph-name="F" unicode="F" horiz-adv-x="515" 
d="M155 350l-55 -348q-6 -3 -11 -3l-9 3l110 693q73 5 185 5h197l2 -10l-5 -10h-362l-49 -310h327q2 -4 2 -10l-5 -10h-327z" />
    <glyph glyph-name="G" unicode="G" horiz-adv-x="605" 
d="M591 345l-49 -308q-94 -40 -229 -40q-115 0 -163 36.5t-36 106.5l66 420q22 143 245 143q117 0 164 -36.5t36 -106.5l-2 -15q-5 -3 -11 -3l-9 3l2 15q10 63 -31 93t-152 30t-161.5 -30t-60.5 -93l-66 -420q-10 -62 32 -92.5t150 -30.5q55 0 107.5 8.5t76.5 17.5l25 9
l44 278h-187l-2 10l5 10h47z" />
    <glyph glyph-name="H" unicode="H" horiz-adv-x="610" 
d="M640 698l-110 -696q-6 -3 -11 -3l-9 3l55 348h-410l-55 -348q-6 -3 -11 -3l-9 3l110 696q5 3 11 3l9 -3l-52 -328h410l52 328q5 3 11 3z" />
    <glyph glyph-name="I" unicode="I" horiz-adv-x="290" 
d="M51 20h87l104 660h-87l-1 10l4 10h194l2 -10l-5 -10h-87l-104 -660h87l1 -10l-4 -10h-194l-2 10z" />
    <glyph glyph-name="J" unicode="J" horiz-adv-x="470" 
d="M500 698l-88 -558q-12 -70 -58.5 -106.5t-138.5 -36.5q-32 0 -60.5 4.5t-45 11t-28.5 13.5t-17 12l-5 4l-1 10l4 11q5 -5 16 -12.5t51.5 -20.5t88.5 -13q85 0 124.5 30t49.5 93l88 558q5 3 11 3z" />
    <glyph glyph-name="K" unicode="K" horiz-adv-x="495" 
d="M440 2l-181 353l-108 -30l-51 -323q-6 -3 -11 -3l-9 3l110 696q5 3 11 3l9 -3l-56 -353l108 30l280 323q6 3 14 3l11 -3l-290 -333l188 -363q-6 -3 -14 -3z" />
    <glyph glyph-name="L" unicode="L" horiz-adv-x="490" 
d="M210 698l-107 -678h347l1 -10l-4 -10h-182l-185 5l110 693q5 3 11 3z" />
    <glyph glyph-name="M" unicode="M" horiz-adv-x="737" 
d="M767 698l-110 -696q-6 -3 -11 -3l-9 3l103 649l-341 -525q-5 -3 -13 -3l-14 3l-170 524l-102 -649q-6 -3 -11 -3l-9 3l110 696q4 3 10 3l10 -3l179 -553l358 554q5 3 11 3z" />
    <glyph glyph-name="N" unicode="N" horiz-adv-x="615" 
d="M80 2l110 696q5 3 11 3l9 -3l311 -660l104 660q5 3 11 3l9 -3l-110 -696q-5 -3 -11 -3l-9 3l-311 660l-104 -660q-5 -3 -11 -3z" />
    <glyph glyph-name="O" unicode="O" horiz-adv-x="620" 
d="M126 140l66 420q22 143 253 143q119 0 168.5 -36.5t38.5 -106.5l-66 -420q-24 -143 -253 -143q-231 0 -207 143zM212 560l-16 -105l-34 -210l-16 -105q-10 -62 34 -92.5t156 -30.5t166 30.5t64 92.5l66 420q10 62 -34 92.5t-156 30.5t-166 -30.5t-64 -92.5z" />
    <glyph glyph-name="P" unicode="P" horiz-adv-x="560" 
d="M190 698q78 5 196 5q109 0 153.5 -36.5t33.5 -106.5l-14 -87q-22 -143 -232 -143l-175 4l-52 -332q-6 -3 -11 -3l-9 3zM208 683l-53 -333h175q101 0 150.5 30.5t58.5 92.5l14 87q10 62 -29.5 92.5t-140.5 30.5h-175z" />
    <glyph glyph-name="Q" unicode="Q" horiz-adv-x="620" 
d="M456 -173l-73 172q-32 -2 -50 -2q-231 0 -207 143l66 420q22 143 253 143q119 0 168.5 -36.5t38.5 -106.5l-66 -420q-20 -119 -180 -139l74 -174q-4 -3 -12 -3zM212 560l-16 -105l-34 -210l-16 -105q-10 -62 34 -92.5t156 -30.5t166 30.5t64 92.5l66 420q10 62 -34 92.5
t-156 30.5t-166 -30.5t-64 -92.5z" />
    <glyph glyph-name="R" unicode="R" horiz-adv-x="560" 
d="M480 2l-138 328h-15l-175 4l-52 -332q-6 -3 -11 -3l-9 3l110 696q78 5 196 5q109 0 153.5 -36.5t33.5 -106.5l-14 -87q-21 -131 -195 -142l140 -329q-5 -3 -13 -3zM208 683l-53 -333h175q101 0 150.5 30.5t58.5 92.5l14 87q10 62 -29.5 92.5t-140.5 30.5h-175z" />
    <glyph glyph-name="S" unicode="S" horiz-adv-x="556" 
d="M190 560l-9 -60q-6 -36 12 -61.5t50.5 -40t73 -25.5t81 -23.5t72.5 -29t49 -47t10 -73.5l-9 -60q-12 -71 -67 -107t-167 -36t-156 36.5t-32 106.5l2 15q5 3 11 3l9 -3l-2 -15q-10 -62 28.5 -92.5t142.5 -30.5t152.5 30.5t58.5 92.5l9 60q6 39 -11.5 66t-50 42t-73 26.5
t-80.5 23.5t-72.5 28t-49.5 44.5t-11 69.5l9 60q11 70 65 106.5t163 36.5q108 0 148.5 -36t29.5 -107l-2 -15q-5 -3 -11 -3l-9 3l2 15q10 62 -26.5 92.5t-134.5 30.5q-101 0 -148 -30.5t-57 -92.5z" />
    <glyph glyph-name="T" unicode="T" horiz-adv-x="551" 
d="M609 680h-217l-107 -678q-6 -3 -11 -3l-9 3l107 678h-222l-1 10l4 10h459l2 -10z" />
    <glyph glyph-name="U" unicode="U" horiz-adv-x="610" 
d="M652 698l-88 -558q-24 -143 -248 -143q-116 0 -165 36.5t-37 106.5l88 558q5 3 11 3l9 -3l-88 -558q-10 -62 33 -92.5t152 -30.5t162 30.5t63 92.5l88 558q5 3 11 3z" />
    <glyph glyph-name="V" unicode="V" horiz-adv-x="587" 
d="M280 2l-136 696q5 3 11 3l10 -3l132 -676l345 676q6 3 12 3l9 -3l-356 -696q-6 -3 -14 -3z" />
    <glyph glyph-name="W" unicode="W" horiz-adv-x="925" 
d="M654 2l-85 675l-297 -675q-6 -3 -14 -3l-13 3l-97 696q6 3 12 3l10 -3l92 -676l298 676q5 3 13 3l12 -3l86 -676l305 676q5 3 11 3l10 -3l-316 -696q-7 -3 -15 -3z" />
    <glyph glyph-name="X" unicode="X" horiz-adv-x="536" 
d="M483 2l-162 335l-268 -335q-7 -3 -13 -3l-11 3l282 351l-167 345q5 3 12 3l12 -3l158 -329l262 329q6 3 14 3l10 -3l-277 -345l172 -351q-6 -3 -13 -3z" />
    <glyph glyph-name="Y" unicode="Y" horiz-adv-x="536" 
d="M612 698l-284 -376l-50 -320q-6 -3 -11 -3l-9 3l50 320l-164 376q5 3 12 3l12 -3l153 -359l267 359q6 3 14 3z" />
    <glyph glyph-name="Z" unicode="Z" horiz-adv-x="555" 
d="M604 680l-519 -660h415l1 -10l-4 -10h-439l-2 10l5 10l519 660h-415l-1 10l4 10h439l2 -10z" />
    <glyph glyph-name="bracketleft" unicode="[" horiz-adv-x="286" 
d="M56 -151l142 902l154 -3q1 -4 1 -9l-4 -9q-52 -2 -134 -2l-136 -856l134 -2q1 -4 0 -9l-3 -9q-62 -3 -154 -3z" />
    <glyph glyph-name="backslash" unicode="\" horiz-adv-x="393" 
d="M307 -98l-139 846q4 3 11 3l11 -3l139 -846q-4 -3 -11 -3z" />
    <glyph glyph-name="bracketright" unicode="]" horiz-adv-x="286" 
d="M324 751l-142 -902l-154 3q-1 4 -1 9l4 9q52 2 134 2l136 856l-134 2q-1 4 0 9l3 9q62 3 154 3z" />
    <glyph glyph-name="asciicircum" unicode="^" horiz-adv-x="440" 
d="M330 703l142 -169q-2 -5 -6 -9l-10 -5l-131 155l-179 -155q-5 1 -8 5l-4 9z" />
    <glyph glyph-name="underscore" unicode="_" horiz-adv-x="500" 
d="M488 -70h-499l4 20h499z" />
    <glyph glyph-name="grave" unicode="`" horiz-adv-x="180" 
d="M227 582l-98 116q6 3 14 3l12 -3l98 -116q-6 -3 -14 -3z" />
    <glyph glyph-name="a" unicode="a" horiz-adv-x="516" 
d="M440 2l8 51q-8 -6 -23.5 -15.5t-69 -25t-113.5 -15.5q-140 0 -116 143l35 220q22 143 180 143q45 0 78.5 -7t49.5 -16.5t26 -19.5t12 -17l2 -7l9 62q5 3 11 3l9 -3l-78 -496q-5 -3 -11 -3zM181 360l-35 -220q-10 -63 12 -93t87 -30q64 0 115.5 15.5t71.5 31.5l20 16
l45 280q9 62 -27 92.5t-131 30.5q-76 0 -112.5 -30t-45.5 -93z" />
    <glyph glyph-name="b" unicode="b" horiz-adv-x="520" 
d="M108 53l-8 -51q-5 -3 -11 -3l-9 3l110 696q5 3 11 3l9 -3l-41 -262q1 3 5.5 9.5t18.5 17t33.5 19t54.5 15t78 6.5q84 0 116.5 -36.5t21.5 -106.5l-35 -220q-12 -70 -50.5 -106.5t-113.5 -36.5q-60 0 -107.5 14t-64.5 28zM442 140l35 220q9 63 -18 93t-104 30
q-96 0 -142.5 -30.5t-55.5 -92.5l-45 -278q2 -3 5.5 -7t19 -15.5t35 -20t54 -15.5t75.5 -7q67 0 99 30t42 93z" />
    <glyph glyph-name="c" unicode="c" horiz-adv-x="505" 
d="M114 140l35 220q22 143 199 143q94 0 130.5 -36.5t25.5 -106.5l-3 -15q-4 -3 -10 -3l-10 3l3 15q9 63 -21.5 93t-117.5 30q-86 0 -126.5 -30t-49.5 -93l-35 -220q-10 -63 20.5 -93t117.5 -30q49 0 93 10.5t63 20.5l20 10l1 -11l-5 -10q-6 -4 -18.5 -11t-58 -18t-99.5 -11
q-94 0 -130 36.5t-24 106.5z" />
    <glyph glyph-name="d" unicode="d" horiz-adv-x="520" 
d="M444 2l8 51q-8 -6 -24 -15.5t-70 -25t-114 -15.5q-142 0 -118 143l35 220q22 143 182 143q45 0 79 -7t50.5 -16.5t26.5 -19.5t12 -17l2 -7l41 262q5 3 11 3l9 -3l-110 -696q-5 -3 -11 -3zM181 360l-35 -220q-10 -63 12 -93t89 -30q64 0 116.5 16.5t72.5 32.5l20 16
l45 278q9 62 -27.5 92.5t-132.5 30.5q-77 0 -114 -30t-46 -93z" />
    <glyph glyph-name="e" unicode="e" 
d="M114 140l35 220q22 143 207 143q98 0 136 -36.5t27 -106.5l-18 -110q-71 -5 -176 -5h-175l-16 -105q-10 -63 22.5 -93t122.5 -30q52 0 98 10.5t66 20.5l20 10l1 -11l-5 -10q-6 -4 -19 -11t-60.5 -18t-103.5 -11q-98 0 -136 36.5t-26 106.5zM153 265h330l16 95
q9 63 -23.5 93t-122.5 30q-91 0 -133 -30t-51 -93z" />
    <glyph glyph-name="f" unicode="f" horiz-adv-x="350" 
d="M389 483h-170l-108 -681q-4 -3 -10 -3l-10 3l108 681h-60l-1 10l4 10h60l12 77q21 123 150 123q29 0 59 -8l1 -10l-5 -11q-26 9 -58 9q-61 0 -89.5 -25t-37.5 -78l-12 -77h170l2 -10z" />
    <glyph glyph-name="g" unicode="g" horiz-adv-x="520" 
d="M410 -60l19 122q-2 -4 -6 -9.5t-18 -16t-33.5 -18.5t-54.5 -14.5t-78 -6.5q-161 0 -137 143l35 220q22 143 163 143q60 0 107.5 -14t64.5 -28l18 -14l8 51q5 3 11 3l9 -3l-88 -558q-22 -143 -208 -143q-46 0 -85 6.5t-55 12.5l-16 6l-1 10l5 11q57 -26 156 -26
q90 0 132 30t52 93zM157 360l-35 -220q-10 -63 17 -93t104 -30q96 0 142.5 30.5t56.5 92.5l44 278q-2 3 -5.5 7t-19 15.5t-35 20t-54 15.5t-75.5 7q-67 0 -99 -30t-41 -93z" />
    <glyph glyph-name="h" unicode="h" horiz-adv-x="525" 
d="M210 698l-40 -251q8 6 24 15.5t71 25t116 15.5q76 0 104 -36.5t17 -106.5l-57 -358q-5 -3 -11 -3l-9 3l57 358q9 63 -14 93t-90 30q-65 0 -118 -16.5t-74 -32.5l-20 -16l-66 -416q-6 -3 -11 -3l-9 3l110 696q5 3 11 3z" />
    <glyph glyph-name="i" unicode="i" horiz-adv-x="210" 
d="M170 17q8 0 26 2l1 -10l-4 -9q-14 -3 -26 -3q-75 0 -62 83l66 418q5 3 11 3l9 -3l-66 -418q-5 -32 5 -47.5t40 -15.5zM223 698l-14 -91q-6 -3 -11 -3l-9 3l14 91q5 3 11 3z" />
    <glyph glyph-name="j" unicode="j" horiz-adv-x="195" 
d="M80 -90l93 588q5 3 11 3l9 -3l-93 -588q-18 -113 -127 -113q-29 0 -58 8l-2 10l5 11q26 -9 59 -9q49 0 72.5 23t30.5 70zM225 698l-14 -91q-6 -3 -11 -3l-9 3l14 91q5 3 11 3z" />
    <glyph glyph-name="k" unicode="k" horiz-adv-x="415" 
d="M360 2l-137 253l-88 -30l-35 -223q-6 -3 -11 -3l-9 3l110 696q5 3 11 3l9 -3l-72 -453l88 30l204 223q6 3 14 3l11 -3l-214 -233l144 -263q-6 -3 -14 -3z" />
    <glyph glyph-name="l" unicode="l" horiz-adv-x="220" 
d="M170 17q8 0 26 2l1 -10l-4 -9q-14 -3 -26 -3q-75 0 -62 83l98 618q5 3 11 3l9 -3l-98 -618q-5 -32 5 -47.5t40 -15.5z" />
    <glyph glyph-name="m" unicode="m" horiz-adv-x="790" 
d="M80 2l78 496q5 3 11 3l9 -3l-8 -51q7 6 21.5 15.5t63 25t102.5 15.5q98 0 110 -64q8 7 23 17.5t65.5 28.5t106.5 18q128 0 107 -128l-59 -373q-5 -3 -11 -3l-9 3l59 373q9 55 -11.5 81.5t-79.5 26.5q-52 0 -96.5 -14.5t-62 -27t-28.5 -23.5l-66 -416q-5 -3 -11 -3l-9 3
l59 373q9 55 -11.5 81.5t-79.5 26.5q-57 0 -104 -16.5t-65 -32.5l-18 -16l-66 -416q-6 -3 -11 -3z" />
    <glyph glyph-name="n" unicode="n" 
d="M178 498l-8 -51q8 6 24.5 15.5t72 25t117.5 15.5q77 0 105.5 -36.5t17.5 -106.5l-57 -358q-5 -3 -11 -3l-9 3l57 358q9 63 -14 93t-92 30q-66 0 -120 -16.5t-75 -32.5l-20 -16l-66 -416q-6 -3 -11 -3l-9 3l78 496q5 3 11 3z" />
    <glyph glyph-name="o" unicode="o" horiz-adv-x="540" 
d="M126 140l35 220q22 143 212 143q98 0 138.5 -36.5t29.5 -106.5l-35 -220q-24 -143 -213 -143q-191 0 -167 143zM181 360l-9 -55q-8 -55 -17 -110l-9 -55q-10 -62 24.5 -92.5t125.5 -30.5t135.5 30.5t54.5 92.5l35 220q9 62 -25.5 92.5t-125.5 30.5t-135.5 -30.5
t-53.5 -92.5z" />
    <glyph glyph-name="p" unicode="p" horiz-adv-x="520" 
d="M178 498l-8 -51q8 6 24 15.5t70 25t114 15.5q75 0 102.5 -36.5t16.5 -106.5l-35 -220q-24 -143 -183 -143q-45 0 -79 7t-50.5 16.5t-26 19.5t-11.5 17l-2 7l-42 -262q-4 -3 -10 -3l-10 3l110 696q5 3 11 3zM442 140l35 220q9 63 -13.5 93t-88.5 30q-64 0 -116.5 -16.5
t-72.5 -32.5l-20 -16l-44 -278q-10 -62 26.5 -92.5t132.5 -30.5q77 0 114 30t47 93z" />
    <glyph glyph-name="q" unicode="q" horiz-adv-x="520" 
d="M514 447l8 51q5 3 11 3l9 -3l-110 -696q-4 -3 -10 -3l-10 3l42 261q-44 -66 -191 -66q-161 0 -137 143l35 220q22 143 163 143q60 0 107.5 -14t64.5 -28zM181 360l-35 -220q-10 -63 17 -93t104 -30q96 0 142.5 30.5t56.5 92.5l44 278q-2 3 -5.5 7t-19 15.5t-35 20
t-54 15.5t-75.5 7q-67 0 -99 -30t-41 -93z" />
    <glyph glyph-name="r" unicode="r" horiz-adv-x="355" 
d="M178 498l-11 -72q3 3 9 8.5t27 18.5t44.5 23t60.5 18.5t76 8.5l2 -10l-5 -10q-42 0 -80 -9.5t-62 -22.5t-42.5 -26t-26.5 -23l-8 -9l-62 -391q-6 -3 -11 -3l-9 3l78 496q5 3 11 3z" />
    <glyph glyph-name="s" unicode="s" horiz-adv-x="486" 
d="M160 370l-3 -20q-3 -20 6 -34.5t32 -24.5t43.5 -15.5t54.5 -12.5q39 -8 64 -15.5t51 -20.5t36.5 -32.5t6.5 -45.5l-3 -20q-10 -66 -56.5 -99.5t-140.5 -33.5t-129.5 36.5t-23.5 106.5v5q5 3 11 3l9 -3v-5q-10 -62 20.5 -92.5t115.5 -30.5t125 28t49 85l3 20
q6 40 -31.5 60.5t-109.5 34.5q-37 7 -61 14t-49 19t-36 30.5t-7 42.5l3 20q10 66 55 99.5t136 33.5q89 0 122 -36t22 -107l-1 -5q-5 -3 -11 -3l-9 3l1 5q9 62 -19.5 92.5t-107.5 30.5q-82 0 -120.5 -28t-47.5 -85z" />
    <glyph glyph-name="t" unicode="t" horiz-adv-x="385" 
d="M395 480h-170l-57 -360q-9 -53 11.5 -78t81.5 -25q33 0 62 9l1 -11l-5 -10q-30 -8 -61 -8q-131 0 -110 123l57 360h-60l-2 10l5 10h60l15 98q5 3 11 3l9 -3l-15 -98h170l1 -10z" />
    <glyph glyph-name="u" unicode="u" horiz-adv-x="525" 
d="M437 2l8 51q-8 -6 -24 -15.5t-71 -25t-116 -15.5q-76 0 -104 36.5t-16 106.5l56 358q5 3 11 3l9 -3l-56 -358q-10 -63 13 -93t90 -30q65 0 118 16.5t73 32.5l21 16l66 416q6 3 11 3l9 -3l-78 -496q-5 -3 -11 -3z" />
    <glyph glyph-name="v" unicode="v" horiz-adv-x="487" 
d="M230 2l-118 496q5 3 11 3l10 -3l114 -476l263 476q6 3 12 3l9 -3l-274 -496q-6 -3 -14 -3z" />
    <glyph glyph-name="w" unicode="w" horiz-adv-x="765" 
d="M534 2l-77 475l-225 -475q-6 -3 -14 -3l-13 3l-89 496q6 3 12 3l10 -3l84 -477l226 477q5 3 13 3l12 -3l77 -477l234 477q5 3 11 3l10 -3l-244 -496q-7 -3 -15 -3z" />
    <glyph glyph-name="x" unicode="x" horiz-adv-x="456" 
d="M403 2l-138 235l-212 -235q-7 -3 -13 -3l-11 3l227 251l-144 245q5 3 12 3l12 -3l134 -229l206 229q6 3 14 3l10 -3l-220 -245l147 -251q-6 -3 -13 -3z" />
    <glyph glyph-name="y" unicode="y" horiz-adv-x="501" 
d="M198 -90l52 90l-5 2l-119 496q6 3 12 3l9 -3l114 -476l263 476q6 3 12 3l10 -3l-327 -588q-32 -57 -65 -85t-79 -28l-37 4l-1 10l4 10q14 -4 38 -4q39 0 65.5 22.5t53.5 70.5z" />
    <glyph glyph-name="z" unicode="z" horiz-adv-x="475" 
d="M493 480l-407 -460h334l1 -10l-4 -10h-359l-2 10l5 10l407 460h-334l-2 10l5 10h359l1 -10z" />
    <glyph glyph-name="braceleft" unicode="{" horiz-adv-x="392" 
d="M456 731q-72 0 -108.5 -30.5t-45.5 -92.5l-28 -174q-17 -107 -105 -134q80 -27 63 -132l-28 -175q-9 -62 17.5 -92.5t98.5 -30.5l1 -10l-4 -10q-155 0 -133 143l28 175q9 61 -17 92t-98 31l-2 10l5 10q72 0 108.5 30.5t45.5 92.5l28 174q22 143 177 143l2 -10z" />
    <glyph glyph-name="bar" unicode="|" horiz-adv-x="180" 
d="M218 748l-134 -846q-5 -3 -10 -3l-10 3l134 846q4 3 10 3z" />
    <glyph glyph-name="braceright" unicode="}" horiz-adv-x="392" 
d="M166 731l-1 10l4 10q155 0 133 -143l-28 -174q-9 -62 17.5 -92.5t98.5 -30.5l1 -10l-4 -10q-136 0 -155 -123l-28 -175q-22 -143 -177 -143l-2 10l5 10q72 0 108.5 30.5t45.5 92.5l28 175q17 105 105 132q-80 27 -63 134l28 174q9 62 -17.5 92.5t-98.5 30.5z" />
    <glyph glyph-name="asciitilde" unicode="~" horiz-adv-x="430" 
d="M101 262l1 5q12 84 93 84q39 0 74 -36t66 -36q32 0 48 15.5t21 48.5l1 5q4 3 10 3l10 -3l-1 -5q-7 -43 -28 -63.5t-64 -20.5q-25 0 -45 11.5t-30.5 24.5t-27.5 24.5t-37 11.5q-61 0 -70 -64l-1 -5q-4 -3 -10 -3z" />
    <glyph glyph-name="exclamdown" unicode="&#xa1;" horiz-adv-x="180" 
d="M144 422l12 76q7 3 13 3l11 -3l-12 -76q-5 -3 -12 -3zM48 -198l79 496q5 3 10 3l10 -3l-79 -496q-4 -3 -10 -3z" />
    <glyph glyph-name="cent" unicode="&#xa2;" horiz-adv-x="505" 
d="M113 140l35 220q21 139 190 143l15 95q5 3 11 3l9 -3l-15 -95q88 -2 121.5 -38.5t23.5 -104.5l-3 -15q-4 -3 -10 -3l-10 3l3 15q9 63 -21.5 93t-117.5 30q-86 0 -126.5 -30t-49.5 -93l-35 -220q-10 -63 20.5 -93t117.5 -30q49 0 93 10.5t63 20.5l20 10l1 -11l-5 -10
q-6 -4 -17.5 -10.5t-54 -17.5t-93.5 -12l-15 -95q-5 -3 -10 -3l-10 3l15 95q-88 2 -122 38.5t-23 104.5z" />
    <glyph glyph-name="sterling" unicode="&#xa3;" horiz-adv-x="600" 
d="M424 325h-223l-48 -305h362l1 -10l-4 -10h-459l-2 10l5 10h77l48 305h-77l-1 10l4 10h77l34 215q22 143 215 143q102 0 141.5 -36.5t28.5 -106.5l-2 -15q-5 -3 -11 -3l-9 3l2 15q10 63 -24 93t-129 30q-94 0 -138 -30t-54 -93l-34 -215h223l2 -10z" />
    <glyph glyph-name="currency" unicode="&#xa4;" horiz-adv-x="390" 
d="M127 300l4 28q8 44 30 67l-53 64q2 5 7 9l9 5l53 -64q34 23 86 23q54 0 77 -23l74 64q5 -1 9 -5l3 -9l-74 -64q17 -26 9 -67l-4 -28q-6 -42 -31 -68l54 -63q-2 -5 -6 -9l-10 -5l-54 63q-31 -22 -84 -22q-52 0 -79 22l-73 -63q-5 1 -8 5l-4 9l73 63q-14 26 -8 68zM151 328
l-4 -28q-7 -43 12 -63.5t70 -20.5t76 20.5t32 63.5l4 28q7 43 -11.5 63.5t-69.5 20.5q-96 0 -109 -84z" />
    <glyph glyph-name="yen" unicode="&#xa5;" horiz-adv-x="536" 
d="M458 141h-158l-22 -139q-6 -3 -11 -3l-9 3l21 139h-157l-2 10l5 10h157l18 109h-157l-1 10l4 10h157l5 32l-164 376q5 3 12 3l12 -3l153 -359l267 359q6 3 14 3l10 -3l-284 -376l-5 -32h159l2 -10l-5 -10h-159l-17 -109h158l1 -10z" />
    <glyph glyph-name="brokenbar" unicode="&#xa6;" horiz-adv-x="180" 
d="M218 748l-59 -371q-5 -3 -10 -3l-10 3l59 371q4 3 10 3zM143 273l-59 -371q-5 -3 -10 -3l-10 3l59 371q4 3 10 3z" />
    <glyph glyph-name="section" unicode="&#xa7;" horiz-adv-x="556" 
d="M528 200q-12 -82 -85 -117q60 -40 49 -113l-5 -30q-11 -71 -66 -107t-168 -36q-112 0 -155.5 36t-32.5 107l2 15q5 3 11 3l9 -3l-2 -15q-10 -62 29 -92.5t143 -30.5t152 30t58 93l5 30q6 39 -11.5 66t-50 42t-73 26.5t-81 23.5t-73 28t-49.5 44.5t-11 69.5l5 30
q14 87 89 120q-64 38 -53 110l5 30q11 70 65 106.5t163 36.5q108 0 148.5 -36t29.5 -107l-2 -15q-5 -3 -11 -3l-9 3l2 15q10 62 -26.5 92.5t-134.5 30.5q-101 0 -148 -30.5t-57 -92.5l-5 -30q-6 -36 12 -61.5t50.5 -40t73 -25.5t81 -23.5t73 -29t49.5 -47t10 -73.5zM513 230
q6 37 -9 63t-47.5 42t-66.5 26t-79 22.5t-71 24.5q-80 -26 -92 -108l-5 -30q-7 -44 22 -73t69 -40.5t99.5 -28.5t90.5 -33q71 26 84 105z" />
    <glyph glyph-name="dieresis" unicode="&#xa8;" horiz-adv-x="400" 
d="M215 698l-14 -91q-6 -3 -11 -3l-9 3l14 91q5 3 11 3zM425 698l-14 -91q-6 -3 -11 -3l-9 3l14 91q5 3 11 3z" />
    <glyph glyph-name="copyright" unicode="&#xa9;" horiz-adv-x="811" 
d="M137 240l34 220q40 243 364 243q168 0 236.5 -62.5t49.5 -180.5l-34 -220q-40 -243 -364 -243q-168 0 -236.5 62.5t-49.5 180.5zM191 460l-8 -55l-18 -110l-8 -55q-18 -113 44 -168t225 -55t243 55.5t98 167.5l34 220q18 113 -44 168t-225 55t-243 -55.5t-98 -167.5z
M350 251l32 202q13 76 126 76q60 0 83 -19t17 -57l-1 -7q-4 -2 -9 -2l-10 2l1 7q5 31 -13.5 45.5t-69.5 14.5t-74.5 -14.5t-28.5 -45.5l-32 -202q-5 -31 14 -45.5t71 -14.5q31 0 58 5.5t39 11.5l12 6l1 -8l-3 -9q-36 -22 -110 -22q-61 0 -84.5 19t-18.5 57z" />
    <glyph glyph-name="ordfeminine" unicode="&#xaa;" horiz-adv-x="381" 
d="M369 351l6 35q-6 -4 -16.5 -10.5t-47.5 -17t-77 -10.5q-99 0 -82 101l24 152q16 101 128 101q43 0 71 -10.5t34.5 -18.5t8.5 -15l6 41q5 2 11 2l9 -2l-55 -348q-5 -2 -10 -2zM196 601l-24 -152q-7 -43 8 -63.5t59 -20.5q43 0 77.5 10.5t48.5 21.5l13 11l31 193
q6 43 -18 63.5t-88 20.5q-52 0 -76.5 -20.5t-30.5 -63.5z" />
    <glyph glyph-name="guillemotleft" unicode="&#xab;" horiz-adv-x="435" 
d="M94 270l196 169q5 -1 8 -5l4 -9l-180 -155l131 -155q-2 -5 -7 -9l-10 -5zM244 270l196 169q5 -1 8 -5l4 -9l-180 -155l131 -155q-2 -5 -7 -9l-10 -5z" />
    <glyph glyph-name="logicalnot" unicode="&#xac;" horiz-adv-x="405" 
d="M372 237l16 103h-282l-1 10l5 10h117l184 -5l-19 -118q-4 -3 -10 -3z" />
    <glyph glyph-name="uni00AD" unicode="&#xad;" horiz-adv-x="306" 
d="M297 280h-200l-2 10l5 10h200l1 -10z" />
    <glyph glyph-name="registered" unicode="&#xae;" horiz-adv-x="811" 
d="M137 240l34 220q40 243 364 243q168 0 236.5 -62.5t49.5 -180.5l-34 -220q-40 -243 -364 -243q-168 0 -236.5 62.5t-49.5 180.5zM191 460l-8 -55l-18 -110l-8 -55q-18 -113 44 -168t225 -55t243 55.5t98 167.5l34 220q18 113 -44 168t-225 55t-243 -55.5t-98 -167.5z
M550 176l-65 160h-5l-80 2l-26 -162q-6 -2 -11 -2l-10 2l55 348q41 3 102 3q56 0 79 -19.5t17 -56.5l-6 -40q-11 -66 -94 -74l67 -161q-5 -2 -11 -2zM427 511l-25 -159h80q47 0 70 14.5t28 44.5l6 40q5 30 -13.5 45t-65.5 15h-80z" />
    <glyph glyph-name="macron" unicode="&#xaf;" horiz-adv-x="180" 
d="M294 615h-214q-2 4 -2 10l5 10h214l1 -10z" />
    <glyph glyph-name="degree" unicode="&#xb0;" horiz-adv-x="310" 
d="M173 591l3 18q15 94 120 94t90 -94l-3 -18q-15 -94 -120 -94t-90 94zM196 609l-3 -18q-6 -38 11 -56t62 -18t68 18t29 56l3 18q6 38 -11 56t-62 18t-68 -18t-29 -56z" />
    <glyph glyph-name="plusminus" unicode="&#xb1;" horiz-adv-x="422" 
d="M299 498l-23 -148h148l1 -10l-4 -10h-148l-24 -148q-4 -3 -10 -3l-10 3l24 148h-148l-2 10l5 10h148l23 148q5 3 11 3zM386 110h-316l-1 10l4 10h316q2 -4 2 -10z" />
    <glyph glyph-name="twosuperior" unicode="&#xb2;" horiz-adv-x="304" 
d="M330 598l5 28q5 31 -12 45.5t-64 14.5q-46 0 -67 -14.5t-26 -45.5l-1 -7q-6 -2 -11 -2l-9 2l1 7q11 76 116 76q56 0 77 -19t16 -57l-5 -28q-6 -35 -28.5 -58t-52 -35t-58.5 -23.5t-52 -33t-28 -54.5l-5 -28h186l1 -8l-3 -8h-110l-95 3l7 41q6 37 29 61t52 36t58 23.5
t51.5 31.5t27.5 52z" />
    <glyph glyph-name="threesuperior" unicode="&#xb3;" horiz-adv-x="305" 
d="M160 684l-1 8l3 8h199l1 -8l-3 -8l-132 -136q71 0 92 -21t14 -60l-6 -38q-13 -81 -122 -81q-32 0 -57 5.5t-34 10.5l-9 6q-1 3 -1 8q1 5 4 8q1 -2 10.5 -6.5t34 -10t54.5 -5.5q91 0 100 65l6 38q6 34 -14 49.5t-72 15.5h-24l-1 8l3 8l131 136h-176z" />
    <glyph glyph-name="acute" unicode="&#xb4;" horiz-adv-x="180" 
d="M271 698l-134 -116q-8 -3 -14 -3l-12 3l134 116q6 3 14 3z" />
    <glyph glyph-name="mu" unicode="&#xb5;" horiz-adv-x="525" 
d="M108 53l-24 -151q-4 -3 -10 -3l-10 3l94 596q5 3 11 3l9 -3l-66 -416q2 -3 6 -7t19.5 -15.5t35.5 -20t55 -15.5t76 -7q67 0 100 30t43 93l56 358q5 3 11 3l9 -3l-56 -358q-12 -71 -51 -107t-115 -36q-61 0 -109 14t-66 28z" />
    <glyph glyph-name="paragraph" unicode="&#xb6;" horiz-adv-x="594" 
d="M659 680h-61l-123 -778q-4 -3 -10 -3l-10 3l123 778h-155l-123 -778q-4 -3 -10 -3l-10 3l68 428q-109 0 -154 36.5t-34 106.5l14 84q22 143 232 143h256l2 -10z" />
    <glyph glyph-name="periodcentered" unicode="&#xb7;" horiz-adv-x="180" 
d="M155 338l-12 -76q-6 -3 -12 -3l-12 3l12 76q6 3 13 3z" />
    <glyph glyph-name="cedilla" unicode="&#xb8;" horiz-adv-x="486" 
d="M252 0l-2 -8q-2 -16 8.5 -24.5t24.5 -11t25 -11.5t8 -26l-2 -8q-9 -62 -86 -62q-44 0 -58 15t-9 47l1 4q5 2 10 2l10 -2l-1 -4q-4 -24 6.5 -33t43.5 -9q32 0 45.5 9t17.5 33l2 8q2 11 -9.5 16.5t-25.5 8t-24 14.5t-7 34l2 8h20z" />
    <glyph glyph-name="onesuperior" unicode="&#xb9;" horiz-adv-x="188" 
d="M227 701l-56 -350q-5 -2 -10 -2l-10 2l53 331l-62 2q-1 3 0 7l2 8q34 2 83 2z" />
    <glyph glyph-name="ordmasculine" unicode="&#xba;" horiz-adv-x="397" 
d="M143 449l24 152q16 101 150 101q70 0 98.5 -25.5t20.5 -75.5l-24 -152q-17 -101 -151 -101q-70 0 -98 26t-20 75zM187 601l-24 -152q-7 -43 16 -63.5t84 -20.5t91.5 21t37.5 63l24 152q6 43 -17.5 63.5t-84.5 20.5t-91 -20.5t-36 -63.5z" />
    <glyph glyph-name="guillemotright" unicode="&#xbb;" horiz-adv-x="435" 
d="M277 270l-196 -169q-4 1 -8 5l-3 9l179 155l-130 155q2 5 6 9l10 5zM427 270l-196 -169q-4 1 -8 5l-3 9l179 155l-130 155q2 5 6 9l10 5z" />
    <glyph glyph-name="onequarter" unicode="&#xbc;" horiz-adv-x="630" 
d="M657 698l-583 -696q-8 -3 -13 -3l-11 3l583 696q5 3 13 3zM226 701l-56 -350q-5 -2 -10 -2l-10 2l53 331l-62 2q-1 3 0 7l2 8q34 2 83 2zM580 249l-23 -145h39q1 -3 1 -8l-4 -8h-38l-13 -87q-6 -2 -11 -2l-9 2l13 87h-159q-1 3 0 8l141 253q4 2 11 2l10 -2l-137 -245h137
l23 145q4 2 10 2z" />
    <glyph glyph-name="onehalf" unicode="&#xbd;" horiz-adv-x="645" 
d="M657 698l-583 -696q-8 -3 -13 -3l-11 3l583 696q5 3 13 3zM226 701l-56 -350q-5 -2 -10 -2l-10 2l53 331l-62 2q-1 3 0 7l2 8q34 2 83 2zM635 248l4 28q5 31 -11.5 45.5t-63.5 14.5q-46 0 -67.5 -14.5t-26.5 -45.5l-1 -7q-5 -2 -10 -2l-10 2l1 7q6 38 33 57t83 19
t77.5 -19.5t15.5 -56.5l-4 -28q-6 -35 -28.5 -58t-52 -35t-59 -23.5t-52.5 -33t-28 -54.5l-4 -28h186q1 -4 1 -8l-3 -8h-110l-95 3l6 41q6 37 29 61t52.5 36t58.5 23.5t51.5 31.5t27.5 52z" />
    <glyph glyph-name="threequarters" unicode="&#xbe;" horiz-adv-x="630" 
d="M697 698l-583 -696q-8 -3 -13 -3l-11 3l583 696q5 3 13 3zM160 684l-1 8l3 8h199l1 -8l-3 -8l-132 -136q71 0 92 -21t14 -60l-6 -38q-13 -81 -122 -81q-32 0 -57 5.5t-34 10.5l-9 6q-1 3 -1 8q1 5 4 8q1 -2 10.5 -6.5t34 -10t54.5 -5.5q91 0 100 65l6 38q6 34 -14 49.5
t-72 15.5h-24l-1 8l3 8l131 136h-176zM600 249l-23 -145h39q1 -3 1 -8l-4 -8h-38l-13 -87q-6 -2 -11 -2l-9 2l13 87h-159q-1 3 0 8l141 253q4 2 11 2l10 -2l-137 -245h137l23 145q4 2 10 2z" />
    <glyph glyph-name="questiondown" unicode="&#xbf;" horiz-adv-x="506" 
d="M101 0l-10 -60q-10 -63 22.5 -93t123.5 -30q88 0 129 30t51 93l2 15q5 3 11 3l9 -3l-2 -15q-11 -71 -59 -107t-145 -36q-98 0 -135.5 36t-26.5 107l10 60q6 41 28.5 68t50.5 41.5t56.5 28.5t50.5 39t28 63l9 58q5 3 10 3l10 -3l-9 -58q-7 -42 -29.5 -70t-51 -43
t-56 -28.5t-49.5 -38t-28 -60.5zM321 422l12 76q7 3 13 3l11 -3l-12 -76q-5 -3 -12 -3z" />
    <glyph glyph-name="Agrave" unicode="&#xc0;" horiz-adv-x="587" 
d="M34 2l356 696q7 3 15 3l12 -3l136 -696q-6 -3 -11 -3l-10 3l-43 218h-323l-111 -218q-6 -3 -12 -3zM401 678l-224 -438h309zM437 752l-98 116q5 3 13 3l13 -3l98 -116q-6 -3 -14 -3z" />
    <glyph glyph-name="Aacute" unicode="&#xc1;" horiz-adv-x="587" 
d="M34 2l356 696q7 3 15 3l12 -3l136 -696q-6 -3 -11 -3l-10 3l-43 218h-323l-111 -218q-6 -3 -12 -3zM401 678l-224 -438h309zM521 868l-134 -116q-8 -3 -14 -3l-12 3l134 116q5 3 13 3z" />
    <glyph glyph-name="Acircumflex" unicode="&#xc2;" horiz-adv-x="587" 
d="M34 2l356 696q7 3 15 3l12 -3l136 -696q-6 -3 -11 -3l-10 3l-43 218h-323l-111 -218q-6 -3 -12 -3zM401 678l-224 -438h309zM505 752l-79 93l-107 -93q-8 -3 -14 -3l-12 3l122 106q6 3 14 3l12 -3l90 -106q-6 -3 -14 -3z" />
    <glyph glyph-name="Atilde" unicode="&#xc3;" horiz-adv-x="587" 
d="M34 2l356 696q7 3 15 3l12 -3l136 -696q-6 -3 -11 -3l-10 3l-43 218h-323l-111 -218q-6 -3 -12 -3zM401 678l-224 -438h309zM277 752v5q11 69 81 69q34 0 64.5 -28.5t56.5 -28.5q28 0 41 12t17 37l1 5q4 3 10 3l10 -3l-1 -5q-11 -69 -81 -69q-34 0 -65 28.5t-56 28.5
q-28 0 -41 -12t-17 -37v-5q-5 -3 -11 -3z" />
    <glyph glyph-name="Adieresis" unicode="&#xc4;" horiz-adv-x="587" 
d="M34 2l356 696q7 3 15 3l12 -3l136 -696q-6 -3 -11 -3l-10 3l-43 218h-323l-111 -218q-6 -3 -12 -3zM401 678l-224 -438h309zM331 843l-14 -91q-6 -3 -11 -3l-9 3l14 91q4 3 10 3zM541 843l-14 -91q-6 -3 -11 -3l-9 3l14 91q4 3 10 3z" />
    <glyph glyph-name="Aring" unicode="&#xc5;" horiz-adv-x="587" 
d="M34 2l356 696q7 3 15 3l12 -3l136 -696q-6 -3 -11 -3l-10 3l-43 218h-323l-111 -218q-6 -3 -12 -3zM401 678l-224 -438h309zM346 811l3 18q10 64 85 64q38 0 54 -17t11 -47l-3 -18q-10 -64 -85 -64q-38 0 -54 17t-11 47zM369 829l-3 -18q-4 -22 7.5 -33t40.5 -11
q54 0 62 44l3 18q3 22 -8 33t-40 11q-56 0 -62 -44z" />
    <glyph glyph-name="AE" unicode="&#xc6;" horiz-adv-x="717" 
d="M382 350l-52 -330h337l1 -10l-4 -10h-172l-185 5l34 215h-175l-111 -218q-6 -3 -12 -3l-9 3l356 695q85 3 212 3h167l2 -10l-5 -10h-332l-49 -310h297q2 -4 2 -10l-5 -10h-297zM401 680l-224 -440h168l69 440h-13z" />
    <glyph glyph-name="Ccedilla" unicode="&#xc7;" horiz-adv-x="600" 
d="M114 140l66 420q22 143 245 143q117 0 164 -36.5t36 -106.5l-2 -15q-5 -3 -11 -3l-9 3l2 15q10 63 -31 93t-152 30t-161.5 -30t-60.5 -93l-66 -420q-10 -63 30.5 -93t151.5 -30q63 0 118.5 11.5t79.5 23.5l24 11l2 -11l-5 -10q-8 -5 -23 -12t-70.5 -19.5t-121.5 -13.5
l-1 -5q-2 -16 8.5 -24.5t24.5 -11t25 -11.5t8 -26l-2 -8q-9 -62 -86 -62q-44 0 -58 15t-9 47l1 4q5 2 10 2l10 -2l-1 -4q-4 -24 6.5 -33t43.5 -9q32 0 45.5 9t17.5 33l2 8q2 11 -9.5 16.5t-25.5 8t-24 14.5t-7 34l1 5q-111 2 -154.5 38.5t-31.5 104.5z" />
    <glyph glyph-name="Egrave" unicode="&#xc8;" 
d="M155 350l-52 -330h377l1 -10l-4 -10h-212l-185 5l110 690q73 5 185 5h207l2 -10l-5 -10h-372l-49 -310h337q2 -4 2 -10l-5 -10h-337zM429 752l-98 116q5 3 13 3l13 -3l98 -116q-6 -3 -14 -3z" />
    <glyph glyph-name="Eacute" unicode="&#xc9;" 
d="M155 350l-52 -330h377l1 -10l-4 -10h-212l-185 5l110 690q73 5 185 5h207l2 -10l-5 -10h-372l-49 -310h337q2 -4 2 -10l-5 -10h-337zM503 868l-134 -116q-8 -3 -14 -3l-12 3l134 116q5 3 13 3z" />
    <glyph glyph-name="Ecircumflex" unicode="&#xca;" 
d="M155 350l-52 -330h377l1 -10l-4 -10h-212l-185 5l110 690q73 5 185 5h207l2 -10l-5 -10h-372l-49 -310h337q2 -4 2 -10l-5 -10h-337zM492 752l-79 93l-107 -93q-8 -3 -14 -3l-12 3l122 106q6 3 14 3l12 -3l90 -106q-6 -3 -14 -3z" />
    <glyph glyph-name="Edieresis" unicode="&#xcb;" 
d="M155 350l-52 -330h377l1 -10l-4 -10h-212l-185 5l110 690q73 5 185 5h207l2 -10l-5 -10h-372l-49 -310h337q2 -4 2 -10l-5 -10h-337zM318 843l-14 -91q-6 -3 -11 -3l-9 3l14 91q4 3 10 3zM528 843l-14 -91q-6 -3 -11 -3l-9 3l14 91q4 3 10 3z" />
    <glyph glyph-name="Igrave" unicode="&#xcc;" horiz-adv-x="290" 
d="M51 20h87l104 660h-87l-1 10l4 10h194l2 -10l-5 -10h-87l-104 -660h87l1 -10l-4 -10h-194l-2 10zM289 752l-98 116q5 3 13 3l13 -3l98 -116q-6 -3 -14 -3z" />
    <glyph glyph-name="Iacute" unicode="&#xcd;" horiz-adv-x="290" 
d="M51 20h87l104 660h-87l-1 10l4 10h194l2 -10l-5 -10h-87l-104 -660h87l1 -10l-4 -10h-194l-2 10zM373 868l-134 -116q-8 -3 -14 -3l-12 3l134 116q5 3 13 3z" />
    <glyph glyph-name="Icircumflex" unicode="&#xce;" horiz-adv-x="290" 
d="M51 20h87l104 660h-87l-1 10l4 10h194l2 -10l-5 -10h-87l-104 -660h87l1 -10l-4 -10h-194l-2 10zM357 752l-79 93l-107 -93q-8 -3 -14 -3l-12 3l122 106q6 3 14 3l12 -3l90 -106q-6 -3 -14 -3z" />
    <glyph glyph-name="Idieresis" unicode="&#xcf;" horiz-adv-x="290" 
d="M203 843l-14 -91q-6 -3 -11 -3l-9 3l14 91q4 3 10 3zM373 843l-14 -91q-6 -3 -11 -3l-9 3l14 91q4 3 10 3zM51 20h87l104 660h-87l-1 10l4 10h194l2 -10l-5 -10h-87l-104 -660h87l1 -10l-4 -10h-194l-2 10z" />
    <glyph glyph-name="Eth" unicode="&#xd0;" horiz-adv-x="628" 
d="M223 698q82 5 206 5q119 0 168.5 -36.5t38.5 -106.5l-66 -420q-24 -143 -253 -143l-204 5l55 348h-60l-1 10l4 10h60zM398 350h-210l-53 -333h185q112 0 166 30.5t64 92.5l66 420q10 62 -34 92.5t-156 30.5h-185l-50 -313h210q2 -4 2 -10z" />
    <glyph glyph-name="Ntilde" unicode="&#xd1;" horiz-adv-x="615" 
d="M80 2l110 696q5 3 11 3l9 -3l311 -660l104 660q5 3 11 3l9 -3l-110 -696q-5 -3 -11 -3l-9 3l-311 660l-104 -660q-5 -3 -11 -3zM291 752v5q11 69 81 69q34 0 64.5 -28.5t56.5 -28.5q28 0 41 12t17 37l1 5q4 3 10 3l10 -3l-1 -5q-11 -69 -81 -69q-34 0 -65 28.5t-56 28.5
q-28 0 -41 -12t-17 -37v-5q-5 -3 -11 -3z" />
    <glyph glyph-name="Ograve" unicode="&#xd2;" horiz-adv-x="620" 
d="M126 140l66 420q22 143 253 143q119 0 168.5 -36.5t38.5 -106.5l-66 -420q-24 -143 -253 -143q-231 0 -207 143zM212 560l-16 -105l-34 -210l-16 -105q-10 -62 34 -92.5t156 -30.5t166 30.5t64 92.5l66 420q10 62 -34 92.5t-156 30.5t-166 -30.5t-64 -92.5zM478 752
l-98 116q5 3 13 3l13 -3l98 -116q-6 -3 -14 -3z" />
    <glyph glyph-name="Oacute" unicode="&#xd3;" horiz-adv-x="620" 
d="M126 140l66 420q22 143 253 143q119 0 168.5 -36.5t38.5 -106.5l-66 -420q-24 -143 -253 -143q-231 0 -207 143zM212 560l-16 -105l-34 -210l-16 -105q-10 -62 34 -92.5t156 -30.5t166 30.5t64 92.5l66 420q10 62 -34 92.5t-156 30.5t-166 -30.5t-64 -92.5zM562 868
l-134 -116q-8 -3 -14 -3l-12 3l134 116q5 3 13 3z" />
    <glyph glyph-name="Ocircumflex" unicode="&#xd4;" horiz-adv-x="620" 
d="M126 140l66 420q22 143 253 143q119 0 168.5 -36.5t38.5 -106.5l-66 -420q-24 -143 -253 -143q-231 0 -207 143zM212 560l-16 -105l-34 -210l-16 -105q-10 -62 34 -92.5t156 -30.5t166 30.5t64 92.5l66 420q10 62 -34 92.5t-156 30.5t-166 -30.5t-64 -92.5zM546 752
l-79 93l-107 -93q-8 -3 -14 -3l-12 3l122 106q6 3 14 3l12 -3l90 -106q-6 -3 -14 -3z" />
    <glyph glyph-name="Otilde" unicode="&#xd5;" horiz-adv-x="620" 
d="M126 140l66 420q22 143 253 143q119 0 168.5 -36.5t38.5 -106.5l-66 -420q-24 -143 -253 -143q-231 0 -207 143zM212 560l-16 -105l-34 -210l-16 -105q-10 -62 34 -92.5t156 -30.5t166 30.5t64 92.5l66 420q10 62 -34 92.5t-156 30.5t-166 -30.5t-64 -92.5zM318 752v5
q11 69 81 69q34 0 64.5 -28.5t56.5 -28.5q28 0 41 12t17 37l1 5q4 3 10 3l10 -3l-1 -5q-11 -69 -81 -69q-34 0 -65 28.5t-56 28.5q-28 0 -41 -12t-17 -37v-5q-5 -3 -11 -3z" />
    <glyph glyph-name="Odieresis" unicode="&#xd6;" horiz-adv-x="620" 
d="M126 140l66 420q22 143 253 143q119 0 168.5 -36.5t38.5 -106.5l-66 -420q-24 -143 -253 -143q-231 0 -207 143zM212 560l-16 -105l-34 -210l-16 -105q-10 -62 34 -92.5t156 -30.5t166 30.5t64 92.5l66 420q10 62 -34 92.5t-156 30.5t-166 -30.5t-64 -92.5zM372 843
l-14 -91q-6 -3 -11 -3l-9 3l14 91q4 3 10 3zM582 843l-14 -91q-6 -3 -11 -3l-9 3l14 91q4 3 10 3z" />
    <glyph glyph-name="multiply" unicode="&#xd7;" horiz-adv-x="422" 
d="M138 459l122 -145l168 145q5 -1 8 -5l4 -9l-168 -145l122 -145q-2 -5 -6 -9l-10 -5l-122 145l-168 -145q-5 1 -8 5l-4 9l168 145l-122 145q2 5 6 9z" />
    <glyph glyph-name="Oslash" unicode="&#xd8;" horiz-adv-x="620" 
d="M668 698l-51 -62q17 -30 11 -76l-66 -420q-24 -143 -253 -143q-139 0 -185 51l-39 -46q-8 -3 -13 -3l-11 3l51 61q-18 31 -10 77l66 420q22 143 253 143q138 0 184 -51l39 46q5 3 13 3zM608 560q6 34 -5 60l-466 -556q39 -47 175 -47q112 0 166 30.5t64 92.5zM188 560
l-16 -105l-34 -210l-16 -105q-6 -36 5 -60l465 556q-38 47 -174 47q-112 0 -166 -30.5t-64 -92.5z" />
    <glyph glyph-name="Ugrave" unicode="&#xd9;" horiz-adv-x="610" 
d="M652 698l-88 -558q-24 -143 -248 -143q-116 0 -165 36.5t-37 106.5l88 558q5 3 11 3l9 -3l-88 -558q-10 -62 33 -92.5t152 -30.5t162 30.5t63 92.5l88 558q5 3 11 3zM461 752l-98 116q5 3 13 3l13 -3l98 -116q-6 -3 -14 -3z" />
    <glyph glyph-name="Uacute" unicode="&#xda;" horiz-adv-x="610" 
d="M652 698l-88 -558q-24 -143 -248 -143q-116 0 -165 36.5t-37 106.5l88 558q5 3 11 3l9 -3l-88 -558q-10 -62 33 -92.5t152 -30.5t162 30.5t63 92.5l88 558q5 3 11 3zM545 868l-134 -116q-8 -3 -14 -3l-12 3l134 116q5 3 13 3z" />
    <glyph glyph-name="Ucircumflex" unicode="&#xdb;" horiz-adv-x="610" 
d="M652 698l-88 -558q-24 -143 -248 -143q-116 0 -165 36.5t-37 106.5l88 558q5 3 11 3l9 -3l-88 -558q-10 -62 33 -92.5t152 -30.5t162 30.5t63 92.5l88 558q5 3 11 3zM529 752l-79 93l-107 -93q-8 -3 -14 -3l-12 3l122 106q6 3 14 3l12 -3l90 -106q-6 -3 -14 -3z" />
    <glyph glyph-name="Udieresis" unicode="&#xdc;" horiz-adv-x="610" 
d="M652 698l-88 -558q-24 -143 -248 -143q-116 0 -165 36.5t-37 106.5l88 558q5 3 11 3l9 -3l-88 -558q-10 -62 33 -92.5t152 -30.5t162 30.5t63 92.5l88 558q5 3 11 3zM355 843l-14 -91q-6 -3 -11 -3l-9 3l14 91q4 3 10 3zM565 843l-14 -91q-6 -3 -11 -3l-9 3l14 91
q4 3 10 3z" />
    <glyph glyph-name="Yacute" unicode="&#xdd;" horiz-adv-x="536" 
d="M612 698l-284 -376l-50 -320q-6 -3 -11 -3l-9 3l50 320l-164 376q5 3 12 3l12 -3l153 -359l267 359q6 3 14 3zM496 868l-134 -116q-8 -3 -14 -3l-12 3l134 116q5 3 13 3z" />
    <glyph glyph-name="Thorn" unicode="&#xde;" horiz-adv-x="500" 
d="M210 698l-24 -149q59 4 149 4q92 0 129 -36.5t25 -106.5l-13 -87q-24 -143 -200 -143l-147 4l-29 -182q-6 -3 -11 -3l-9 3l110 696q5 3 11 3zM184 533l-53 -333h146q85 0 127 30.5t52 92.5l13 87q10 62 -22 92.5t-117 30.5h-146z" />
    <glyph glyph-name="germandbls" unicode="&#xdf;" horiz-adv-x="609" 
d="M91 -198l108 681h-60l-1 10l4 10h60l12 77q21 123 150 123q73 0 99.5 -31t16.5 -92l-2 -15q-6 -36 -21 -59.5t-33.5 -35.5t-37 -23t-33 -31t-19.5 -51l-2 -15q-3 -16 2.5 -29t14.5 -21t26.5 -15.5t31.5 -11.5t36 -10q32 -8 52.5 -15.5t42 -20.5t30 -32.5t4.5 -45.5
l-3 -20q-10 -66 -49.5 -99.5t-117.5 -33.5t-106.5 33.5t-18.5 99.5l2 10q4 3 10 3l10 -3l-2 -10q-9 -57 15 -85t93 -28q68 0 101.5 28t42.5 85l3 20q6 40 -24 60.5t-89 34.5q-30 7 -50 14t-41.5 19t-30.5 30.5t-5 42.5l2 15q7 42 28.5 67t44 34.5t44 34t27.5 64.5l2 15
q9 52 -13.5 77.5t-85.5 25.5q-61 0 -89.5 -25t-37.5 -78l-123 -778q-4 -3 -10 -3z" />
    <glyph glyph-name="agrave" unicode="&#xe0;" horiz-adv-x="516" 
d="M440 2l8 51q-8 -6 -23.5 -15.5t-69 -25t-113.5 -15.5q-140 0 -116 143l35 220q22 143 180 143q45 0 78.5 -7t49.5 -16.5t26 -19.5t12 -17l2 -7l9 62q5 3 11 3l9 -3l-78 -496q-5 -3 -11 -3zM181 360l-35 -220q-10 -63 12 -93t87 -30q64 0 115.5 15.5t71.5 31.5l20 16
l45 280q9 62 -27 92.5t-131 30.5q-76 0 -112.5 -30t-45.5 -93zM399 582l-98 116q6 3 14 3l12 -3l98 -116q-6 -3 -14 -3z" />
    <glyph glyph-name="aacute" unicode="&#xe1;" horiz-adv-x="516" 
d="M440 2l8 51q-8 -6 -23.5 -15.5t-69 -25t-113.5 -15.5q-140 0 -116 143l35 220q22 143 180 143q45 0 78.5 -7t49.5 -16.5t26 -19.5t12 -17l2 -7l9 62q5 3 11 3l9 -3l-78 -496q-5 -3 -11 -3zM181 360l-35 -220q-10 -63 12 -93t87 -30q64 0 115.5 15.5t71.5 31.5l20 16
l45 280q9 62 -27 92.5t-131 30.5q-76 0 -112.5 -30t-45.5 -93zM483 698l-134 -116q-8 -3 -14 -3l-12 3l134 116q6 3 14 3z" />
    <glyph glyph-name="acircumflex" unicode="&#xe2;" horiz-adv-x="516" 
d="M440 2l8 51q-8 -6 -23.5 -15.5t-69 -25t-113.5 -15.5q-140 0 -116 143l35 220q22 143 180 143q45 0 78.5 -7t49.5 -16.5t26 -19.5t12 -17l2 -7l9 62q5 3 11 3l9 -3l-78 -496q-5 -3 -11 -3zM181 360l-35 -220q-10 -63 12 -93t87 -30q64 0 115.5 15.5t71.5 31.5l20 16
l45 280q9 62 -27 92.5t-131 30.5q-76 0 -112.5 -30t-45.5 -93zM468 592l-78 93l-108 -93q-7 -3 -13 -3l-13 3l123 106q6 3 14 3l12 -3l89 -106q-5 -3 -13 -3z" />
    <glyph glyph-name="atilde" unicode="&#xe3;" horiz-adv-x="516" 
d="M440 2l8 51q-8 -6 -23.5 -15.5t-69 -25t-113.5 -15.5q-140 0 -116 143l35 220q22 143 180 143q45 0 78.5 -7t49.5 -16.5t26 -19.5t12 -17l2 -7l9 62q5 3 11 3l9 -3l-78 -496q-5 -3 -11 -3zM181 360l-35 -220q-10 -63 12 -93t87 -30q64 0 115.5 15.5t71.5 31.5l20 16
l45 280q9 62 -27 92.5t-131 30.5q-76 0 -112.5 -30t-45.5 -93zM246 627l1 5q11 69 81 69q34 0 64 -28.5t56 -28.5q28 0 41 12t17 37l1 5q5 3 11 3l9 -3l-1 -5q-11 -69 -81 -69q-34 0 -65 28.5t-56 28.5q-27 0 -40 -12t-17 -37l-1 -5q-5 -3 -11 -3z" />
    <glyph glyph-name="adieresis" unicode="&#xe4;" horiz-adv-x="516" 
d="M440 2l8 51q-8 -6 -23.5 -15.5t-69 -25t-113.5 -15.5q-140 0 -116 143l35 220q22 143 180 143q45 0 78.5 -7t49.5 -16.5t26 -19.5t12 -17l2 -7l9 62q5 3 11 3l9 -3l-78 -496q-5 -3 -11 -3zM181 360l-35 -220q-10 -63 12 -93t87 -30q64 0 115.5 15.5t71.5 31.5l20 16
l45 280q9 62 -27 92.5t-131 30.5q-76 0 -112.5 -30t-45.5 -93zM297 698l-14 -91q-6 -3 -11 -3l-9 3l14 91q5 3 11 3zM507 698l-14 -91q-6 -3 -11 -3l-9 3l14 91q5 3 11 3z" />
    <glyph glyph-name="aring" unicode="&#xe5;" horiz-adv-x="516" 
d="M440 2l8 51q-8 -6 -23.5 -15.5t-69 -25t-113.5 -15.5q-140 0 -116 143l35 220q22 143 180 143q45 0 78.5 -7t49.5 -16.5t26 -19.5t12 -17l2 -7l9 62q5 3 11 3l9 -3l-78 -496q-5 -3 -11 -3zM181 360l-35 -220q-10 -63 12 -93t87 -30q64 0 115.5 15.5t71.5 31.5l20 16
l45 280q9 62 -27 92.5t-131 30.5q-76 0 -112.5 -30t-45.5 -93zM305 621l3 18q10 64 85 64q38 0 54 -17t11 -47l-3 -18q-10 -64 -85 -64q-38 0 -54 17t-11 47zM328 639l-3 -18q-4 -22 7.5 -33t40.5 -11q54 0 62 44l3 18q3 22 -8 33t-40 11q-56 0 -62 -44z" />
    <glyph glyph-name="ae" unicode="&#xe6;" horiz-adv-x="846" 
d="M229 -3q-130 0 -109 123l3 20q9 58 54 89t139 41l166 17l12 73q9 63 -21.5 93t-115.5 30q-83 0 -122.5 -30.5t-48.5 -92.5l-3 -15q-4 -3 -10 -3l-10 3l3 15q11 71 56.5 107t137.5 36q137 0 153 -86q41 86 178 86q93 0 128.5 -36.5t24.5 -106.5l-18 -110q-67 -5 -166 -5
h-165l-16 -105q-10 -63 20 -93t115 -30q49 0 92.5 10.5t62.5 20.5l19 10l1 -11l-5 -10q-6 -4 -18.5 -11t-57 -18t-97.5 -11q-141 0 -152 90q-50 -90 -230 -90zM479 267l-166 -17q-85 -9 -123.5 -35t-46.5 -75l-3 -20q-9 -52 12 -77.5t81 -25.5q110 0 163 30.5t63 92.5z
M498 265h310l16 95q9 63 -21 93t-115 30t-125 -30t-49 -93z" />
    <glyph glyph-name="ccedilla" unicode="&#xe7;" horiz-adv-x="505" 
d="M126 140l35 220q22 143 199 143q94 0 130.5 -36.5t25.5 -106.5l-3 -15q-4 -3 -10 -3l-10 3l3 15q9 63 -21.5 93t-117.5 30q-86 0 -126.5 -30t-49.5 -93l-35 -220q-10 -63 20.5 -93t117.5 -30q49 0 93 10.5t63 20.5l20 10l1 -11l-5 -10q-6 -4 -18 -10.5t-55.5 -17.5
t-95.5 -12l-1 -5q-2 -16 8.5 -24.5t24.5 -11t25 -11.5t8 -26l-2 -8q-9 -62 -86 -62q-44 0 -58 15t-9 47l1 4q5 2 10 2l10 -2l-1 -4q-4 -24 6.5 -33t43.5 -9q32 0 45.5 9t17.5 33l2 8q2 11 -9.5 16.5t-25.5 8t-24 14.5t-7 34l1 5q-165 4 -141 143z" />
    <glyph glyph-name="egrave" unicode="&#xe8;" 
d="M114 140l35 220q22 143 207 143q98 0 136 -36.5t27 -106.5l-18 -110q-71 -5 -176 -5h-175l-16 -105q-10 -63 22.5 -93t122.5 -30q52 0 98 10.5t66 20.5l20 10l1 -11l-5 -10q-6 -4 -19 -11t-60.5 -18t-103.5 -11q-98 0 -136 36.5t-26 106.5zM153 265h330l16 95
q9 63 -23.5 93t-122.5 30q-91 0 -133 -30t-51 -93zM394 582l-98 116q6 3 14 3l12 -3l98 -116q-6 -3 -14 -3z" />
    <glyph glyph-name="eacute" unicode="&#xe9;" 
d="M114 140l35 220q22 143 207 143q98 0 136 -36.5t27 -106.5l-18 -110q-71 -5 -176 -5h-175l-16 -105q-10 -63 22.5 -93t122.5 -30q52 0 98 10.5t66 20.5l20 10l1 -11l-5 -10q-6 -4 -19 -11t-60.5 -18t-103.5 -11q-98 0 -136 36.5t-26 106.5zM153 265h330l16 95
q9 63 -23.5 93t-122.5 30q-91 0 -133 -30t-51 -93zM477 698l-134 -116q-8 -3 -14 -3l-12 3l134 116q6 3 14 3z" />
    <glyph glyph-name="ecircumflex" unicode="&#xea;" 
d="M114 140l35 220q22 143 207 143q98 0 136 -36.5t27 -106.5l-18 -110q-71 -5 -176 -5h-175l-16 -105q-10 -63 22.5 -93t122.5 -30q52 0 98 10.5t66 20.5l20 10l1 -11l-5 -10q-6 -4 -19 -11t-60.5 -18t-103.5 -11q-98 0 -136 36.5t-26 106.5zM153 265h330l16 95
q9 63 -23.5 93t-122.5 30q-91 0 -133 -30t-51 -93zM463 592l-78 93l-108 -93q-7 -3 -13 -3l-13 3l123 106q6 3 14 3l12 -3l89 -106q-5 -3 -13 -3z" />
    <glyph glyph-name="edieresis" unicode="&#xeb;" 
d="M114 140l35 220q22 143 207 143q98 0 136 -36.5t27 -106.5l-18 -110q-71 -5 -176 -5h-175l-16 -105q-10 -63 22.5 -93t122.5 -30q52 0 98 10.5t66 20.5l20 10l1 -11l-5 -10q-6 -4 -19 -11t-60.5 -18t-103.5 -11q-98 0 -136 36.5t-26 106.5zM153 265h330l16 95
q9 63 -23.5 93t-122.5 30q-91 0 -133 -30t-51 -93zM292 698l-14 -91q-6 -3 -11 -3l-9 3l14 91q5 3 11 3zM502 698l-14 -91q-6 -3 -11 -3l-9 3l14 91q5 3 11 3z" />
    <glyph glyph-name="igrave" unicode="&#xec;" horiz-adv-x="210" 
d="M170 17q8 0 26 2l1 -10l-4 -9q-14 -3 -26 -3q-75 0 -62 83l66 418q5 3 11 3l9 -3l-66 -418q-5 -32 5 -47.5t40 -15.5zM221 582l-98 116q6 3 14 3l12 -3l98 -116q-6 -3 -14 -3z" />
    <glyph glyph-name="iacute" unicode="&#xed;" horiz-adv-x="210" 
d="M170 17q8 0 26 2l1 -10l-4 -9q-14 -3 -26 -3q-75 0 -62 83l66 418q5 3 11 3l9 -3l-66 -418q-5 -32 5 -47.5t40 -15.5zM304 698l-134 -116q-8 -3 -14 -3l-12 3l134 116q6 3 14 3z" />
    <glyph glyph-name="icircumflex" unicode="&#xee;" horiz-adv-x="210" 
d="M276 592l-78 93l-108 -93q-7 -3 -13 -3l-13 3l123 106q6 3 14 3l12 -3l89 -106q-5 -3 -13 -3zM158 17q8 0 26 2l1 -10l-4 -9q-14 -3 -26 -3q-75 0 -62 83l66 418q5 3 11 3l9 -3l-66 -418q-5 -32 5 -47.5t40 -15.5z" />
    <glyph glyph-name="idieresis" unicode="&#xef;" horiz-adv-x="210" 
d="M170 17q8 0 26 2l1 -10l-4 -9q-14 -3 -26 -3q-75 0 -62 83l66 418q5 3 11 3l9 -3l-66 -418q-5 -32 5 -47.5t40 -15.5zM154 698l-14 -91q-6 -3 -11 -3l-9 3l14 91q5 3 11 3zM293 698l-14 -91q-6 -3 -11 -3l-9 3l14 91q5 3 11 3z" />
    <glyph glyph-name="eth" unicode="&#xf0;" horiz-adv-x="534" 
d="M541 698l-68 -59q85 -55 72 -138l-57 -361q-24 -143 -209 -143q-98 0 -137.5 36.5t-27.5 106.5l35 220q22 143 169 143q62 0 111.5 -14t68.5 -28l18 -14l9 54q11 73 -70 122l-71 -61q-8 -3 -14 -3l-12 3l81 70q-38 20 -88.5 35t-82.5 19l-31 5l-1 10l4 9q127 -11 218 -62
l57 50q6 3 14 3zM468 140l44 278q-2 3 -6 7t-20.5 15.5t-36.5 20t-56.5 15.5t-78.5 7q-70 0 -103.5 -30t-42.5 -93l-35 -220q-10 -62 24 -92.5t124 -30.5t133.5 30.5t53.5 92.5z" />
    <glyph glyph-name="ntilde" unicode="&#xf1;" 
d="M229 627l1 5q11 69 81 69q34 0 64 -28.5t56 -28.5q28 0 41 12t17 37l1 5q5 3 11 3l9 -3l-1 -5q-11 -69 -81 -69q-34 0 -65 28.5t-56 28.5q-27 0 -40 -12t-17 -37l-1 -5q-5 -3 -11 -3zM178 498l-8 -51q8 6 24.5 15.5t72 25t117.5 15.5q77 0 105.5 -36.5t17.5 -106.5
l-57 -358q-5 -3 -11 -3l-9 3l57 358q9 63 -14 93t-92 30q-66 0 -120 -16.5t-75 -32.5l-20 -16l-66 -416q-6 -3 -11 -3l-9 3l78 496q5 3 11 3z" />
    <glyph glyph-name="ograve" unicode="&#xf2;" horiz-adv-x="540" 
d="M126 140l35 220q22 143 212 143q98 0 138.5 -36.5t29.5 -106.5l-35 -220q-24 -143 -213 -143q-191 0 -167 143zM181 360l-9 -55q-8 -55 -17 -110l-9 -55q-10 -62 24.5 -92.5t125.5 -30.5t135.5 30.5t54.5 92.5l35 220q9 62 -25.5 92.5t-125.5 30.5t-135.5 -30.5
t-53.5 -92.5zM411 582l-98 116q6 3 14 3l12 -3l98 -116q-6 -3 -14 -3z" />
    <glyph glyph-name="oacute" unicode="&#xf3;" horiz-adv-x="540" 
d="M126 140l35 220q22 143 212 143q98 0 138.5 -36.5t29.5 -106.5l-35 -220q-24 -143 -213 -143q-191 0 -167 143zM181 360l-9 -55q-8 -55 -17 -110l-9 -55q-10 -62 24.5 -92.5t125.5 -30.5t135.5 30.5t54.5 92.5l35 220q9 62 -25.5 92.5t-125.5 30.5t-135.5 -30.5
t-53.5 -92.5zM494 698l-134 -116q-8 -3 -14 -3l-12 3l134 116q6 3 14 3z" />
    <glyph glyph-name="ocircumflex" unicode="&#xf4;" horiz-adv-x="540" 
d="M126 140l35 220q22 143 212 143q98 0 138.5 -36.5t29.5 -106.5l-35 -220q-24 -143 -213 -143q-191 0 -167 143zM181 360l-9 -55q-8 -55 -17 -110l-9 -55q-10 -62 24.5 -92.5t125.5 -30.5t135.5 30.5t54.5 92.5l35 220q9 62 -25.5 92.5t-125.5 30.5t-135.5 -30.5
t-53.5 -92.5zM480 592l-78 93l-108 -93q-7 -3 -13 -3l-13 3l123 106q6 3 14 3l12 -3l89 -106q-5 -3 -13 -3z" />
    <glyph glyph-name="otilde" unicode="&#xf5;" horiz-adv-x="540" 
d="M258 627l1 5q11 69 81 69q34 0 64 -28.5t56 -28.5q28 0 41 12t17 37l1 5q5 3 11 3l9 -3l-1 -5q-11 -69 -81 -69q-34 0 -65 28.5t-56 28.5q-27 0 -40 -12t-17 -37l-1 -5q-5 -3 -11 -3zM126 140l35 220q22 143 212 143q98 0 138.5 -36.5t29.5 -106.5l-35 -220
q-24 -143 -213 -143q-191 0 -167 143zM181 360l-9 -55q-8 -55 -17 -110l-9 -55q-10 -62 24.5 -92.5t125.5 -30.5t135.5 30.5t54.5 92.5l35 220q9 62 -25.5 92.5t-125.5 30.5t-135.5 -30.5t-53.5 -92.5z" />
    <glyph glyph-name="odieresis" unicode="&#xf6;" horiz-adv-x="540" 
d="M126 140l35 220q22 143 212 143q98 0 138.5 -36.5t29.5 -106.5l-35 -220q-24 -143 -213 -143q-191 0 -167 143zM181 360l-9 -55q-8 -55 -17 -110l-9 -55q-10 -62 24.5 -92.5t125.5 -30.5t135.5 30.5t54.5 92.5l35 220q9 62 -25.5 92.5t-125.5 30.5t-135.5 -30.5
t-53.5 -92.5zM309 698l-14 -91q-6 -3 -11 -3l-9 3l14 91q5 3 11 3zM519 698l-14 -91q-6 -3 -11 -3l-9 3l14 91q5 3 11 3z" />
    <glyph glyph-name="divide" unicode="&#xf7;" horiz-adv-x="422" 
d="M414 290h-316l-1 10l5 10h316l1 -10zM296 478l-12 -76q-5 -3 -10 -3l-10 3l12 76q5 3 11 3zM252 198l-12 -76q-6 -3 -11 -3l-9 3l12 76q4 3 10 3z" />
    <glyph glyph-name="oslash" unicode="&#xf8;" horiz-adv-x="540" 
d="M523 498l-31 -36q34 -36 25 -102l-35 -220q-24 -143 -213 -143q-96 0 -137 35l-25 -30q-8 -3 -13 -3l-11 3l36 43q-27 37 -17 95l35 220q22 143 212 143q86 0 129 -30l21 25q5 3 13 3zM497 360q8 56 -18 85l-333 -397q34 -31 126 -31q91 0 135.5 30.5t54.5 92.5zM157 360
l-9 -55q-8 -55 -17 -110l-9 -55q-8 -51 11 -78l332 395q-38 26 -119 26q-91 0 -135.5 -30.5t-53.5 -92.5z" />
    <glyph glyph-name="ugrave" unicode="&#xf9;" horiz-adv-x="525" 
d="M437 2l8 51q-8 -6 -24 -15.5t-71 -25t-116 -15.5q-76 0 -104 36.5t-16 106.5l56 358q5 3 11 3l9 -3l-56 -358q-10 -63 13 -93t90 -30q65 0 118 16.5t73 32.5l21 16l66 416q6 3 11 3l9 -3l-78 -496q-5 -3 -11 -3zM391 582l-98 116q6 3 14 3l12 -3l98 -116q-6 -3 -14 -3z
" />
    <glyph glyph-name="uacute" unicode="&#xfa;" horiz-adv-x="525" 
d="M437 2l8 51q-8 -6 -24 -15.5t-71 -25t-116 -15.5q-76 0 -104 36.5t-16 106.5l56 358q5 3 11 3l9 -3l-56 -358q-10 -63 13 -93t90 -30q65 0 118 16.5t73 32.5l21 16l66 416q6 3 11 3l9 -3l-78 -496q-5 -3 -11 -3zM475 698l-134 -116q-8 -3 -14 -3l-12 3l134 116q6 3 14 3z
" />
    <glyph glyph-name="ucircumflex" unicode="&#xfb;" horiz-adv-x="525" 
d="M437 2l8 51q-8 -6 -24 -15.5t-71 -25t-116 -15.5q-76 0 -104 36.5t-16 106.5l56 358q5 3 11 3l9 -3l-56 -358q-10 -63 13 -93t90 -30q65 0 118 16.5t73 32.5l21 16l66 416q6 3 11 3l9 -3l-78 -496q-5 -3 -11 -3zM460 592l-78 93l-108 -93q-7 -3 -13 -3l-13 3l123 106
q6 3 14 3l12 -3l89 -106q-5 -3 -13 -3z" />
    <glyph glyph-name="udieresis" unicode="&#xfc;" horiz-adv-x="525" 
d="M437 2l8 51q-8 -6 -24 -15.5t-71 -25t-116 -15.5q-76 0 -104 36.5t-16 106.5l56 358q5 3 11 3l9 -3l-56 -358q-10 -63 13 -93t90 -30q65 0 118 16.5t73 32.5l21 16l66 416q6 3 11 3l9 -3l-78 -496q-5 -3 -11 -3zM289 698l-14 -91q-6 -3 -11 -3l-9 3l14 91q5 3 11 3z
M499 698l-14 -91q-6 -3 -11 -3l-9 3l14 91q5 3 11 3z" />
    <glyph glyph-name="yacute" unicode="&#xfd;" horiz-adv-x="501" 
d="M198 -90l52 90l-5 2l-119 496q6 3 12 3l9 -3l114 -476l263 476q6 3 12 3l10 -3l-327 -588q-32 -57 -65 -85t-79 -28l-37 4l-1 10l4 10q14 -4 38 -4q39 0 65.5 22.5t53.5 70.5zM451 698l-134 -116q-8 -3 -14 -3l-12 3l134 116q6 3 14 3z" />
    <glyph glyph-name="thorn" unicode="&#xfe;" horiz-adv-x="520" 
d="M210 698l-40 -251q8 6 24 15.5t70 25t114 15.5q75 0 102.5 -36.5t16.5 -106.5l-35 -220q-24 -143 -183 -143q-45 0 -79 7t-50.5 16.5t-26 19.5t-11.5 17l-2 7l-42 -262q-4 -3 -10 -3l-10 3l142 896q5 3 11 3zM442 140l35 220q9 63 -13.5 93t-88.5 30q-64 0 -116.5 -16.5
t-72.5 -32.5l-20 -16l-44 -278q-10 -62 26.5 -92.5t132.5 -30.5q77 0 114 30t47 93z" />
    <glyph glyph-name="ydieresis" unicode="&#xff;" horiz-adv-x="501" 
d="M198 -90l52 90l-5 2l-119 496q6 3 12 3l9 -3l114 -476l263 476q6 3 12 3l10 -3l-327 -588q-32 -57 -65 -85t-79 -28l-37 4l-1 10l4 10q14 -4 38 -4q39 0 65.5 22.5t53.5 70.5zM265 698l-14 -91q-6 -3 -11 -3l-9 3l14 91q5 3 11 3zM475 698l-14 -91q-6 -3 -11 -3l-9 3
l14 91q5 3 11 3z" />
    <glyph glyph-name="Amacron" unicode="&#x100;" horiz-adv-x="587" 
d="M34 2l356 696q7 3 15 3l12 -3l136 -696q-6 -3 -11 -3l-10 3l-43 218h-323l-111 -218q-6 -3 -12 -3zM401 678l-224 -438h309zM522 775h-214l-1 10l4 10h214l2 -10z" />
    <glyph glyph-name="amacron" unicode="&#x101;" horiz-adv-x="516" 
d="M440 2l8 51q-8 -6 -23.5 -15.5t-69 -25t-113.5 -15.5q-140 0 -116 143l35 220q22 143 180 143q45 0 78.5 -7t49.5 -16.5t26 -19.5t12 -17l2 -7l9 62q5 3 11 3l9 -3l-78 -496q-5 -3 -11 -3zM181 360l-35 -220q-10 -63 12 -93t87 -30q64 0 115.5 15.5t71.5 31.5l20 16
l45 280q9 62 -27 92.5t-131 30.5q-76 0 -112.5 -30t-45.5 -93zM486 615h-214q-2 4 -2 10l5 10h214l1 -10z" />
    <glyph glyph-name="Abreve" unicode="&#x102;" horiz-adv-x="587" 
d="M34 2l356 696q7 3 15 3l12 -3l136 -696q-6 -3 -11 -3l-10 3l-43 218h-323l-111 -218q-6 -3 -12 -3zM401 678l-224 -438h309zM411 749q-59 0 -81 22t-15 66l2 10q4 3 10 3l10 -3l-2 -10q-5 -35 12.5 -51.5t66.5 -16.5t72.5 16.5t28.5 51.5l2 10q4 3 10 3l10 -3l-2 -10
q-14 -88 -124 -88z" />
    <glyph glyph-name="abreve" unicode="&#x103;" horiz-adv-x="516" 
d="M440 2l8 51q-8 -6 -23.5 -15.5t-69 -25t-113.5 -15.5q-140 0 -116 143l35 220q22 143 180 143q45 0 78.5 -7t49.5 -16.5t26 -19.5t12 -17l2 -7l9 62q5 3 11 3l9 -3l-78 -496q-5 -3 -11 -3zM181 360l-35 -220q-10 -63 12 -93t87 -30q64 0 115.5 15.5t71.5 31.5l20 16
l45 280q9 62 -27 92.5t-131 30.5q-76 0 -112.5 -30t-45.5 -93zM377 600q-59 0 -81 22t-16 66l2 10q5 3 11 3l9 -3l-2 -10q-5 -35 13 -51.5t67 -16.5t72 16.5t28 51.5l2 10q5 3 11 3l9 -3l-2 -10q-6 -44 -35 -66t-88 -22z" />
    <glyph glyph-name="Aogonek" unicode="&#x104;" horiz-adv-x="587" 
d="M470 -81q3 20 18 40t27 30t17 12v1l-43 218h-323l-111 -218q-6 -3 -12 -3l-9 3l356 696q7 3 15 3l12 -3l136 -696l-1 -1q-11 -5 -35 -31.5t-27 -50.5q-8 -50 50 -50q18 0 35.5 5t26.5 10l9 5l1 -11l-4 -10q-25 -19 -71 -19q-78 0 -67 70zM401 678l-224 -438h309z" />
    <glyph glyph-name="aogonek" unicode="&#x105;" horiz-adv-x="516" 
d="M377 -81q3 20 19 41t30 32l14 10l8 51q-8 -6 -23.5 -15.5t-69 -25t-113.5 -15.5q-140 0 -116 143l35 220q22 143 180 143q45 0 78.5 -7t49.5 -16.5t26 -19.5t12 -17l2 -7l9 62q5 3 11 3l9 -3l-78 -496q-1 -1 -2 -1q-7 -5 -18 -15t-26 -30t-17 -37q-8 -50 50 -50
q18 0 35.5 5t26.5 10l9 5l1 -11l-4 -10q-25 -19 -71 -19q-78 0 -67 70zM181 360l-35 -220q-10 -63 12 -93t87 -30q64 0 115.5 15.5t71.5 31.5l20 16l45 280q9 62 -27 92.5t-131 30.5q-76 0 -112.5 -30t-45.5 -93z" />
    <glyph glyph-name="Cacute" unicode="&#x106;" horiz-adv-x="600" 
d="M114 140l66 420q22 143 245 143q117 0 164 -36.5t36 -106.5l-2 -15q-5 -3 -11 -3l-9 3l2 15q10 63 -31 93t-152 30t-161.5 -30t-60.5 -93l-66 -420q-10 -63 30.5 -93t151.5 -30q63 0 118.5 11.5t79.5 23.5l24 11l2 -11l-5 -10q-8 -5 -23.5 -12.5t-73 -20t-125.5 -12.5
q-118 0 -164.5 36.5t-34.5 106.5zM540 868l-134 -116q-8 -3 -14 -3l-12 3l134 116q5 3 13 3z" />
    <glyph glyph-name="cacute" unicode="&#x107;" horiz-adv-x="505" 
d="M114 140l35 220q22 143 199 143q94 0 130.5 -36.5t25.5 -106.5l-3 -15q-4 -3 -10 -3l-10 3l3 15q9 63 -21.5 93t-117.5 30q-86 0 -126.5 -30t-49.5 -93l-35 -220q-10 -63 20.5 -93t117.5 -30q49 0 93 10.5t63 20.5l20 10l1 -11l-5 -10q-6 -4 -18.5 -11t-58 -18t-99.5 -11
q-94 0 -130 36.5t-24 106.5zM462 698l-134 -116q-8 -3 -14 -3l-12 3l134 116q6 3 14 3z" />
    <glyph glyph-name="Ccircumflex" unicode="&#x108;" horiz-adv-x="600" 
d="M114 140l66 420q22 143 245 143q117 0 164 -36.5t36 -106.5l-2 -15q-5 -3 -11 -3l-9 3l2 15q10 63 -31 93t-152 30t-161.5 -30t-60.5 -93l-66 -420q-10 -63 30.5 -93t151.5 -30q63 0 118.5 11.5t79.5 23.5l24 11l2 -11l-5 -10q-8 -5 -23.5 -12.5t-73 -20t-125.5 -12.5
q-118 0 -164.5 36.5t-34.5 106.5zM524 752l-79 93l-107 -93q-8 -3 -14 -3l-12 3l122 106q6 3 14 3l12 -3l90 -106q-6 -3 -14 -3z" />
    <glyph glyph-name="ccircumflex" unicode="&#x109;" horiz-adv-x="505" 
d="M114 140l35 220q22 143 199 143q94 0 130.5 -36.5t25.5 -106.5l-3 -15q-4 -3 -10 -3l-10 3l3 15q9 63 -21.5 93t-117.5 30q-86 0 -126.5 -30t-49.5 -93l-35 -220q-10 -63 20.5 -93t117.5 -30q49 0 93 10.5t63 20.5l20 10l1 -11l-5 -10q-6 -4 -18.5 -11t-58 -18t-99.5 -11
q-94 0 -130 36.5t-24 106.5zM448 592l-78 93l-108 -93q-7 -3 -13 -3l-13 3l123 106q6 3 14 3l12 -3l89 -106q-5 -3 -13 -3z" />
    <glyph glyph-name="Cdotaccent" unicode="&#x10a;" horiz-adv-x="600" 
d="M114 140l66 420q22 143 245 143q117 0 164 -36.5t36 -106.5l-2 -15q-5 -3 -11 -3l-9 3l2 15q10 63 -31 93t-152 30t-161.5 -30t-60.5 -93l-66 -420q-10 -63 30.5 -93t151.5 -30q63 0 118.5 11.5t79.5 23.5l24 11l2 -11l-5 -10q-8 -5 -23.5 -12.5t-73 -20t-125.5 -12.5
q-118 0 -164.5 36.5t-34.5 106.5zM455 843l-14 -91q-6 -3 -11 -3l-9 3l14 91q4 3 10 3z" />
    <glyph glyph-name="cdotaccent" unicode="&#x10b;" horiz-adv-x="505" 
d="M114 140l35 220q22 143 199 143q94 0 130.5 -36.5t25.5 -106.5l-3 -15q-4 -3 -10 -3l-10 3l3 15q9 63 -21.5 93t-117.5 30q-86 0 -126.5 -30t-49.5 -93l-35 -220q-10 -63 20.5 -93t117.5 -30q49 0 93 10.5t63 20.5l20 10l1 -11l-5 -10q-6 -4 -18.5 -11t-58 -18t-99.5 -11
q-94 0 -130 36.5t-24 106.5zM382 698l-14 -91q-6 -3 -11 -3l-9 3l14 91q5 3 11 3z" />
    <glyph glyph-name="Ccaron" unicode="&#x10c;" horiz-adv-x="600" 
d="M114 140l66 420q22 143 245 143q117 0 164 -36.5t36 -106.5l-2 -15q-5 -3 -11 -3l-9 3l2 15q10 63 -31 93t-152 30t-161.5 -30t-60.5 -93l-66 -420q-10 -63 30.5 -93t151.5 -30q63 0 118.5 11.5t79.5 23.5l24 11l2 -11l-5 -10q-8 -5 -23.5 -12.5t-73 -20t-125.5 -12.5
q-118 0 -164.5 36.5t-34.5 106.5zM354 858l79 -93l107 93q8 3 14 3l12 -3l-122 -106q-6 -3 -14 -3l-12 3l-90 106q6 3 14 3z" />
    <glyph glyph-name="ccaron" unicode="&#x10d;" horiz-adv-x="505" 
d="M114 140l35 220q22 143 199 143q94 0 130.5 -36.5t25.5 -106.5l-3 -15q-4 -3 -10 -3l-10 3l3 15q9 63 -21.5 93t-117.5 30q-86 0 -126.5 -30t-49.5 -93l-35 -220q-10 -63 20.5 -93t117.5 -30q49 0 93 10.5t63 20.5l20 10l1 -11l-5 -10q-6 -4 -18.5 -11t-58 -18t-99.5 -11
q-94 0 -130 36.5t-24 106.5zM279 698l78 -93l108 93q8 3 14 3l12 -3l-123 -106q-5 -3 -13 -3l-13 3l-89 106q6 3 14 3z" />
    <glyph glyph-name="Dcaron" unicode="&#x10e;" horiz-adv-x="595" 
d="M190 698q82 5 206 5q119 0 168.5 -36.5t38.5 -106.5l-66 -420q-24 -143 -253 -143l-204 5zM208 683l-106 -666h185q112 0 166 30.5t64 92.5l66 420q10 62 -34 92.5t-156 30.5h-185zM329 858l79 -93l107 93q8 3 14 3l12 -3l-122 -106q-6 -3 -14 -3l-12 3l-90 106q6 3 14 3
z" />
    <glyph glyph-name="dcaron" unicode="&#x10f;" horiz-adv-x="600" 
d="M444 2l8 51q-8 -6 -24 -15.5t-70 -25t-114 -15.5q-142 0 -118 143l35 220q22 143 182 143q45 0 79 -7t50.5 -16.5t26.5 -19.5t12 -17l2 -7l41 262q5 3 11 3l9 -3l-110 -696q-5 -3 -11 -3zM181 360l-35 -220q-10 -63 12 -93t89 -30q64 0 116.5 16.5t72.5 32.5l20 16
l45 278q9 62 -27.5 92.5t-132.5 30.5q-77 0 -114 -30t-46 -93zM734 698q-5 -34 -15 -64t-20 -48t-19.5 -31t-15.5 -18l-6 -5q-6 -3 -11 -3l-9 3q6 5 16 16.5t31 54.5t29 95q5 3 11 3z" />
    <glyph glyph-name="Dcroat" unicode="&#x110;" horiz-adv-x="628" 
d="M223 698q82 5 206 5q119 0 168.5 -36.5t38.5 -106.5l-66 -420q-24 -143 -253 -143l-204 5l55 348h-60l-1 10l4 10h60zM398 350h-210l-53 -333h185q112 0 166 30.5t64 92.5l66 420q10 62 -34 92.5t-156 30.5h-185l-50 -313h210q2 -4 2 -10z" />
    <glyph glyph-name="dcroat" unicode="&#x111;" horiz-adv-x="553" 
d="M619 600h-60l-95 -598q-5 -3 -11 -3l-9 3l8 51q-8 -6 -24 -15.5t-70 -25t-114 -15.5q-142 0 -118 143l35 220q22 143 182 143q43 0 76 -6.5t50 -15t27.5 -19.5t13 -16.5t3.5 -9.5l26 164h-219l-2 10l5 10h219l12 78q5 3 11 3l9 -3l-12 -78h60l1 -10zM181 360l-35 -220
q-10 -63 12 -93t89 -30q64 0 116.5 16.5t72.5 32.5l20 16l45 278q9 62 -27.5 92.5t-132.5 30.5q-77 0 -114 -30t-46 -93z" />
    <glyph glyph-name="Emacron" unicode="&#x112;" 
d="M155 350l-52 -330h377l1 -10l-4 -10h-212l-185 5l110 690q73 5 185 5h207l2 -10l-5 -10h-372l-49 -310h337q2 -4 2 -10l-5 -10h-337zM509 775h-214l-1 10l4 10h214l2 -10z" />
    <glyph glyph-name="emacron" unicode="&#x113;" 
d="M114 140l35 220q22 143 207 143q98 0 136 -36.5t27 -106.5l-18 -110q-71 -5 -176 -5h-175l-16 -105q-10 -63 22.5 -93t122.5 -30q52 0 98 10.5t66 20.5l20 10l1 -11l-5 -10q-6 -4 -19 -11t-60.5 -18t-103.5 -11q-98 0 -136 36.5t-26 106.5zM153 265h330l16 95
q9 63 -23.5 93t-122.5 30q-91 0 -133 -30t-51 -93zM481 615h-214q-2 4 -2 10l5 10h214l1 -10z" />
    <glyph glyph-name="Ebreve" unicode="&#x114;" 
d="M155 350l-52 -330h377l1 -10l-4 -10h-212l-185 5l110 690q73 5 185 5h207l2 -10l-5 -10h-372l-49 -310h337q2 -4 2 -10l-5 -10h-337zM383 749q-59 0 -81 22t-15 66l2 10q4 3 10 3l10 -3l-2 -10q-5 -35 12.5 -51.5t66.5 -16.5t72.5 16.5t28.5 51.5l2 10q4 3 10 3l10 -3
l-2 -10q-14 -88 -124 -88z" />
    <glyph glyph-name="ebreve" unicode="&#x115;" 
d="M114 140l35 220q22 143 207 143q98 0 136 -36.5t27 -106.5l-18 -110q-71 -5 -176 -5h-175l-16 -105q-10 -63 22.5 -93t122.5 -30q52 0 98 10.5t66 20.5l20 10l1 -11l-5 -10q-6 -4 -19 -11t-60.5 -18t-103.5 -11q-98 0 -136 36.5t-26 106.5zM153 265h330l16 95
q9 63 -23.5 93t-122.5 30q-91 0 -133 -30t-51 -93zM372 600q-59 0 -81 22t-16 66l2 10q5 3 11 3l9 -3l-2 -10q-5 -35 13 -51.5t67 -16.5t72 16.5t28 51.5l2 10q5 3 11 3l9 -3l-2 -10q-6 -44 -35 -66t-88 -22z" />
    <glyph glyph-name="Edotaccent" unicode="&#x116;" 
d="M155 350l-52 -330h377l1 -10l-4 -10h-212l-185 5l110 690q73 5 185 5h207l2 -10l-5 -10h-372l-49 -310h337q2 -4 2 -10l-5 -10h-337zM428 843l-14 -91q-6 -3 -11 -3l-9 3l14 91q4 3 10 3z" />
    <glyph glyph-name="edotaccent" unicode="&#x117;" 
d="M114 140l35 220q22 143 207 143q98 0 136 -36.5t27 -106.5l-18 -110q-71 -5 -176 -5h-175l-16 -105q-10 -63 22.5 -93t122.5 -30q52 0 98 10.5t66 20.5l20 10l1 -11l-5 -10q-6 -4 -19 -11t-60.5 -18t-103.5 -11q-98 0 -136 36.5t-26 106.5zM153 265h330l16 95
q9 63 -23.5 93t-122.5 30q-91 0 -133 -30t-51 -93zM397 698l-14 -91q-6 -3 -11 -3l-9 3l14 91q5 3 11 3z" />
    <glyph glyph-name="Eogonek" unicode="&#x118;" 
d="M318 -81q4 26 23.5 48t36.5 33h-113l-185 5l110 690q73 5 185 5h207l2 -10l-5 -10h-372l-49 -310h337q2 -4 2 -10l-5 -10h-337l-52 -330h377l1 -10l-4 -10h-79q-55 -44 -60 -81q-8 -50 50 -50q18 0 35.5 5t26.5 10l9 5l1 -11l-4 -10q-25 -19 -71 -19q-78 0 -67 70z" />
    <glyph glyph-name="eogonek" unicode="&#x119;" 
d="M266 -81q4 25 23 47t35 33q-30 -2 -48 -2q-98 0 -136 36.5t-26 106.5l35 220q22 143 207 143q98 0 136 -36.5t27 -106.5l-18 -110q-71 -5 -176 -5h-175l-16 -105q-10 -63 22.5 -93t122.5 -30q52 0 98 10.5t66 20.5l20 10l1 -11l-5 -10q-37 -25 -111 -36q-11 -5 -35 -31.5
t-27 -50.5q-8 -50 50 -50q18 0 35.5 5t26.5 10l9 5l1 -11l-4 -10q-25 -19 -71 -19q-78 0 -67 70zM153 265h330l16 95q9 63 -23.5 93t-122.5 30q-91 0 -133 -30t-51 -93z" />
    <glyph glyph-name="Ecaron" unicode="&#x11a;" 
d="M155 350l-52 -330h377l1 -10l-4 -10h-212l-185 5l110 690q73 5 185 5h207l2 -10l-5 -10h-372l-49 -310h337q2 -4 2 -10l-5 -10h-337zM322 858l79 -93l107 93q8 3 14 3l12 -3l-122 -106q-6 -3 -14 -3l-12 3l-90 106q6 3 14 3z" />
    <glyph glyph-name="ecaron" unicode="&#x11b;" 
d="M114 140l35 220q22 143 207 143q98 0 136 -36.5t27 -106.5l-18 -110q-71 -5 -176 -5h-175l-16 -105q-10 -63 22.5 -93t122.5 -30q52 0 98 10.5t66 20.5l20 10l1 -11l-5 -10q-6 -4 -19 -11t-60.5 -18t-103.5 -11q-98 0 -136 36.5t-26 106.5zM153 265h330l16 95
q9 63 -23.5 93t-122.5 30q-91 0 -133 -30t-51 -93zM294 698l78 -93l108 93q8 3 14 3l12 -3l-123 -106q-5 -3 -13 -3l-13 3l-89 106q6 3 14 3z" />
    <glyph glyph-name="Gcircumflex" unicode="&#x11c;" horiz-adv-x="605" 
d="M591 345l-49 -308q-94 -40 -229 -40q-115 0 -163 36.5t-36 106.5l66 420q22 143 245 143q117 0 164 -36.5t36 -106.5l-2 -15q-5 -3 -11 -3l-9 3l2 15q10 63 -31 93t-152 30t-161.5 -30t-60.5 -93l-66 -420q-10 -62 32 -92.5t150 -30.5q55 0 107.5 8.5t76.5 17.5l25 9
l44 278h-187l-2 10l5 10h47zM526 752l-79 93l-107 -93q-8 -3 -14 -3l-12 3l122 106q6 3 14 3l12 -3l90 -106q-6 -3 -14 -3z" />
    <glyph glyph-name="gcircumflex" unicode="&#x11d;" horiz-adv-x="520" 
d="M410 -60l19 122q-2 -4 -6 -9.5t-18 -16t-33.5 -18.5t-54.5 -14.5t-78 -6.5q-161 0 -137 143l35 220q22 143 163 143q60 0 107.5 -14t64.5 -28l18 -14l8 51q5 3 11 3l9 -3l-88 -558q-22 -143 -208 -143q-46 0 -85 6.5t-55 12.5l-16 6l-1 10l5 11q57 -26 156 -26
q90 0 132 30t52 93zM157 360l-35 -220q-10 -63 17 -93t104 -30q96 0 142.5 30.5t56.5 92.5l44 278q-2 3 -5.5 7t-19 15.5t-35 20t-54 15.5t-75.5 7q-67 0 -99 -30t-41 -93zM446 592l-78 93l-108 -93q-7 -3 -13 -3l-13 3l123 106q6 3 14 3l12 -3l89 -106q-5 -3 -13 -3z" />
    <glyph glyph-name="Gbreve" unicode="&#x11e;" horiz-adv-x="605" 
d="M591 345l-49 -308q-94 -40 -229 -40q-115 0 -163 36.5t-36 106.5l66 420q22 143 245 143q117 0 164 -36.5t36 -106.5l-2 -15q-5 -3 -11 -3l-9 3l2 15q10 63 -31 93t-152 30t-161.5 -30t-60.5 -93l-66 -420q-10 -62 32 -92.5t150 -30.5q55 0 107.5 8.5t76.5 17.5l25 9
l44 278h-187l-2 10l5 10h47zM432 749q-59 0 -81 22t-15 66l2 10q4 3 10 3l10 -3l-2 -10q-5 -35 12.5 -51.5t66.5 -16.5t72.5 16.5t28.5 51.5l2 10q4 3 10 3l10 -3l-2 -10q-14 -88 -124 -88z" />
    <glyph glyph-name="gbreve" unicode="&#x11f;" horiz-adv-x="520" 
d="M410 -60l19 122q-2 -4 -6 -9.5t-18 -16t-33.5 -18.5t-54.5 -14.5t-78 -6.5q-161 0 -137 143l35 220q22 143 163 143q60 0 107.5 -14t64.5 -28l18 -14l8 51q5 3 11 3l9 -3l-88 -558q-22 -143 -208 -143q-46 0 -85 6.5t-55 12.5l-16 6l-1 10l5 11q57 -26 156 -26
q90 0 132 30t52 93zM157 360l-35 -220q-10 -63 17 -93t104 -30q96 0 142.5 30.5t56.5 92.5l44 278q-2 3 -5.5 7t-19 15.5t-35 20t-54 15.5t-75.5 7q-67 0 -99 -30t-41 -93zM355 600q-59 0 -81 22t-16 66l2 10q5 3 11 3l9 -3l-2 -10q-5 -35 13 -51.5t67 -16.5t72 16.5
t28 51.5l2 10q5 3 11 3l9 -3l-2 -10q-6 -44 -35 -66t-88 -22z" />
    <glyph glyph-name="Gdotaccent" unicode="&#x120;" horiz-adv-x="605" 
d="M591 345l-49 -308q-94 -40 -229 -40q-115 0 -163 36.5t-36 106.5l66 420q22 143 245 143q117 0 164 -36.5t36 -106.5l-2 -15q-5 -3 -11 -3l-9 3l2 15q10 63 -31 93t-152 30t-161.5 -30t-60.5 -93l-66 -420q-10 -62 32 -92.5t150 -30.5q55 0 107.5 8.5t76.5 17.5l25 9
l44 278h-187l-2 10l5 10h47zM457 843l-14 -91q-6 -3 -11 -3l-9 3l14 91q4 3 10 3z" />
    <glyph glyph-name="gdotaccent" unicode="&#x121;" horiz-adv-x="520" 
d="M410 -60l19 122q-2 -4 -6 -9.5t-18 -16t-33.5 -18.5t-54.5 -14.5t-78 -6.5q-161 0 -137 143l35 220q22 143 163 143q60 0 107.5 -14t64.5 -28l18 -14l8 51q5 3 11 3l9 -3l-88 -558q-22 -143 -208 -143q-46 0 -85 6.5t-55 12.5l-16 6l-1 10l5 11q57 -26 156 -26
q90 0 132 30t52 93zM157 360l-35 -220q-10 -63 17 -93t104 -30q96 0 142.5 30.5t56.5 92.5l44 278q-2 3 -5.5 7t-19 15.5t-35 20t-54 15.5t-75.5 7q-67 0 -99 -30t-41 -93zM380 698l-14 -91q-6 -3 -11 -3l-9 3l14 91q5 3 11 3z" />
    <glyph glyph-name="Gcommaaccent" unicode="&#x122;" horiz-adv-x="605" 
d="M591 345l-49 -308q-94 -40 -229 -40q-115 0 -163 36.5t-36 106.5l66 420q22 143 245 143q117 0 164 -36.5t36 -106.5l-2 -15q-5 -3 -11 -3l-9 3l2 15q10 63 -31 93t-152 30t-161.5 -30t-60.5 -93l-66 -420q-10 -62 32 -92.5t150 -30.5q55 0 107.5 8.5t76.5 17.5l25 9
l44 278h-187l-2 10l5 10h47zM313 -52q-7 -45 -26.5 -81.5t-35.5 -50.5l-16 -14q-5 -3 -10 -3l-10 3q7 5 18 16t32 48.5t28 81.5q5 3 11 3z" />
    <glyph glyph-name="gcommaaccent" unicode="&#x123;" horiz-adv-x="520" 
d="M337 582q5 34 15 64t20 48t19.5 31t15.5 18l6 5q5 3 10 3l10 -3q-6 -5 -16.5 -16.5t-31 -54.5t-28.5 -95q-5 -3 -11 -3zM410 -60l19 122q-2 -4 -6 -9.5t-18 -16t-33.5 -18.5t-54.5 -14.5t-78 -6.5q-161 0 -137 143l35 220q22 143 163 143q60 0 107.5 -14t64.5 -28l18 -14
l8 51q5 3 11 3l9 -3l-88 -558q-22 -143 -208 -143q-46 0 -85 6.5t-55 12.5l-16 6l-1 10l5 11q57 -26 156 -26q90 0 132 30t52 93zM157 360l-35 -220q-10 -63 17 -93t104 -30q96 0 142.5 30.5t56.5 92.5l44 278q-2 3 -5.5 7t-19 15.5t-35 20t-54 15.5t-75.5 7q-67 0 -99 -30
t-41 -93z" />
    <glyph glyph-name="Hcircumflex" unicode="&#x124;" horiz-adv-x="610" 
d="M640 698l-110 -696q-6 -3 -11 -3l-9 3l55 348h-410l-55 -348q-6 -3 -11 -3l-9 3l110 696q5 3 11 3l9 -3l-52 -328h410l52 328q5 3 11 3zM517 752l-79 93l-107 -93q-8 -3 -14 -3l-12 3l122 106q6 3 14 3l12 -3l90 -106q-6 -3 -14 -3z" />
    <glyph glyph-name="hcircumflex" unicode="&#x125;" horiz-adv-x="525" 
d="M210 698l-40 -251q8 6 24 15.5t71 25t116 15.5q76 0 104 -36.5t17 -106.5l-57 -358q-5 -3 -11 -3l-9 3l57 358q9 63 -14 93t-90 30q-65 0 -118 -16.5t-74 -32.5l-20 -16l-66 -416q-6 -3 -11 -3l-9 3l110 696q5 3 11 3zM434 752l-79 93l-107 -93q-8 -3 -14 -3l-12 3
l122 106q6 3 14 3l12 -3l90 -106q-6 -3 -14 -3z" />
    <glyph glyph-name="Hbar" unicode="&#x126;" horiz-adv-x="676" 
d="M706 530h-60l-83 -528q-6 -3 -11 -3l-9 3l55 348h-410l-55 -348q-6 -3 -11 -3l-9 3l83 528h-60l-1 10l5 10h60l23 148q5 3 11 3l9 -3l-23 -148h410l23 148q5 3 11 3l9 -3l-23 -148h60l1 -10zM191 370h410l25 160h-410z" />
    <glyph glyph-name="hbar" unicode="&#x127;" horiz-adv-x="558" 
d="M428 605h-200l-25 -158q8 6 24 15.5t71 25t116 15.5q76 0 104 -36.5t17 -106.5l-57 -358q-5 -3 -11 -3l-9 3l57 358q9 63 -14 93t-90 30q-65 0 -118 -16.5t-73 -32.5l-21 -16l-66 -416q-6 -3 -11 -3l-9 3l95 603h-60l-1 10l4 10h60l12 73q5 3 11 3l9 -3l-12 -73h200
l2 -10z" />
    <glyph glyph-name="Itilde" unicode="&#x128;" horiz-adv-x="290" 
d="M51 20h87l104 660h-87l-1 10l4 10h194l2 -10l-5 -10h-87l-104 -660h87l1 -10l-4 -10h-194l-2 10zM129 752v5q11 69 81 69q34 0 64.5 -28.5t56.5 -28.5q28 0 41 12t17 37l1 5q4 3 10 3l10 -3l-1 -5q-11 -69 -81 -69q-34 0 -65 28.5t-56 28.5q-28 0 -41 -12t-17 -37v-5
q-5 -3 -11 -3z" />
    <glyph glyph-name="itilde" unicode="&#x129;" horiz-adv-x="210" 
d="M55 627l1 5q11 69 81 69q34 0 64 -28.5t56 -28.5q28 0 41 12t17 37l1 5q5 3 11 3l9 -3l-1 -5q-11 -69 -81 -69q-34 0 -65 28.5t-56 28.5q-27 0 -40 -12t-17 -37l-1 -5q-5 -3 -11 -3zM158 17q8 0 26 2l1 -10l-4 -9q-14 -3 -26 -3q-75 0 -62 83l66 418q5 3 11 3l9 -3
l-66 -418q-5 -32 5 -47.5t40 -15.5z" />
    <glyph glyph-name="Imacron" unicode="&#x12a;" horiz-adv-x="290" 
d="M51 20h87l104 660h-87l-1 10l4 10h194l2 -10l-5 -10h-87l-104 -660h87l1 -10l-4 -10h-194l-2 10zM374 775h-214l-1 10l4 10h214l2 -10z" />
    <glyph glyph-name="imacron" unicode="&#x12b;" horiz-adv-x="210" 
d="M158 17q8 0 26 2l1 -10l-4 -9q-14 -3 -26 -3q-75 0 -62 83l66 418q5 3 11 3l9 -3l-66 -418q-5 -32 5 -47.5t40 -15.5zM294 615h-214q-2 4 -2 10l5 10h214l1 -10z" />
    <glyph glyph-name="Ibreve" unicode="&#x12c;" horiz-adv-x="290" 
d="M51 20h87l104 660h-87l-1 10l4 10h194l2 -10l-5 -10h-87l-104 -660h87l1 -10l-4 -10h-194l-2 10zM263 749q-59 0 -81 22t-15 66l2 10q4 3 10 3l10 -3l-2 -10q-5 -35 12.5 -51.5t66.5 -16.5t72.5 16.5t28.5 51.5l2 10q4 3 10 3l10 -3l-2 -10q-14 -88 -124 -88z" />
    <glyph glyph-name="ibreve" unicode="&#x12d;" horiz-adv-x="210" 
d="M167 17q8 0 26 2l1 -10l-4 -9q-14 -3 -26 -3q-75 0 -62 83l66 418q5 3 11 3l9 -3l-66 -418q-5 -32 5 -47.5t40 -15.5zM195 600q-59 0 -81 22t-16 66l2 10q5 3 11 3l9 -3l-2 -10q-5 -35 13 -51.5t67 -16.5t72 16.5t28 51.5l2 10q5 3 11 3l9 -3l-2 -10q-6 -44 -35 -66
t-88 -22z" />
    <glyph glyph-name="Iogonek" unicode="&#x12e;" horiz-adv-x="290" 
d="M83 -81q4 26 23.5 48t36.5 33h-95l-2 10l5 10h87l104 660h-87l-1 10l4 10h194l2 -10l-5 -10h-87l-104 -660h87l1 -10l-4 -10h-79q-55 -44 -60 -81q-8 -50 50 -50q18 0 35.5 5t26.5 10l9 5l1 -11l-4 -10q-25 -19 -71 -19q-78 0 -67 70z" />
    <glyph glyph-name="iogonek" unicode="&#x12f;" horiz-adv-x="210" 
d="M72 -81q4 27 26 50.5t36 31.5q-40 15 -31 79l66 418q5 3 11 3l9 -3l-66 -418q-5 -32 5 -47.5t40 -15.5q8 0 26 2l1 -10l-4 -9q-14 -3 -26 -3q-3 0 -8.5 0.5t-7.5 0.5q-52 -44 -57 -79q-8 -50 50 -50q18 0 35.5 5t26.5 10l9 5l1 -11l-4 -10q-25 -19 -71 -19q-78 0 -67 70z
M221 698l-14 -91q-6 -3 -11 -3l-9 3l14 91q5 3 11 3z" />
    <glyph glyph-name="Idotaccent" unicode="&#x130;" horiz-adv-x="290" 
d="M51 20h87l104 660h-87l-1 10l4 10h194l2 -10l-5 -10h-87l-104 -660h87l1 -10l-4 -10h-194l-2 10zM288 843l-14 -91q-6 -3 -11 -3l-9 3l14 91q4 3 10 3z" />
    <glyph glyph-name="dotlessi" unicode="&#x131;" horiz-adv-x="210" 
d="M170 17q8 0 26 2l1 -10l-4 -9q-14 -3 -26 -3q-75 0 -62 83l66 418q5 3 11 3l9 -3l-66 -418q-5 -32 5 -47.5t40 -15.5z" />
    <glyph glyph-name="IJ" unicode="&#x132;" horiz-adv-x="710" 
d="M51 20h87l104 660h-87l-1 10l4 10h194l2 -10l-5 -10h-87l-104 -660h87l1 -10l-4 -10h-194l-2 10zM740 700l-88 -560q-12 -71 -52.5 -107t-119.5 -36q-44 0 -77 7.5t-45 15.5l-11 7l-2 10l5 11q42 -31 133 -31q71 0 105 30t44 93l85 540h-137l-1 10l4 10h157z" />
    <glyph glyph-name="ij" unicode="&#x133;" horiz-adv-x="385" 
d="M223 698l-14 -91q-6 -3 -11 -3l-9 3l14 91q5 3 11 3zM170 17q8 0 26 2l1 -10l-4 -9q-14 -3 -26 -3q-75 0 -62 83l66 418q5 3 11 3l9 -3l-66 -418q-5 -32 5 -47.5t40 -15.5zM283 -90l93 588q5 3 11 3l9 -3l-93 -588q-18 -113 -128 -113q-29 0 -58 8l-2 10l5 11
q25 -9 59 -9q50 0 73.5 23t30.5 70zM428 698l-14 -91q-6 -3 -11 -3l-9 3l14 91q5 3 11 3z" />
    <glyph glyph-name="Jcircumflex" unicode="&#x134;" horiz-adv-x="470" 
d="M500 698l-88 -558q-12 -70 -58.5 -106.5t-138.5 -36.5q-32 0 -60.5 4.5t-45 11t-28.5 13.5t-17 12l-5 4l-1 10l4 11q5 -5 16 -12.5t51.5 -20.5t88.5 -13q85 0 124.5 30t49.5 93l88 558q5 3 11 3zM592 752l-79 93l-107 -93q-8 -3 -14 -3l-12 3l122 106q6 3 14 3l12 -3
l90 -106q-6 -3 -14 -3z" />
    <glyph glyph-name="jcircumflex" unicode="&#x135;" horiz-adv-x="195" 
d="M291 592l-78 93l-108 -93q-7 -3 -13 -3l-13 3l123 106q6 3 14 3l12 -3l89 -106q-5 -3 -13 -3zM80 -90l93 588q5 3 11 3l9 -3l-93 -588q-18 -113 -127 -113q-29 0 -58 8l-2 10l5 11q26 -9 59 -9q49 0 72.5 23t30.5 70z" />
    <glyph glyph-name="Kcommaaccent" unicode="&#x136;" horiz-adv-x="495" 
d="M440 2l-181 353l-108 -30l-51 -323q-6 -3 -11 -3l-9 3l110 696q5 3 11 3l9 -3l-56 -353l108 30l280 323q6 3 14 3l11 -3l-290 -333l188 -363q-6 -3 -14 -3zM256 -52q-7 -45 -26.5 -81.5t-35.5 -50.5l-16 -14q-5 -3 -10 -3l-10 3q7 5 18 16t32 48.5t28 81.5q5 3 11 3z" />
    <glyph glyph-name="kcommaaccent" unicode="&#x137;" horiz-adv-x="415" 
d="M360 2l-137 253l-88 -30l-35 -223q-6 -3 -11 -3l-9 3l110 696q5 3 11 3l9 -3l-72 -453l88 30l204 223q6 3 14 3l11 -3l-214 -233l144 -263q-6 -3 -14 -3zM226 -52q-7 -45 -26.5 -81.5t-35.5 -50.5l-16 -14q-5 -3 -10 -3l-10 3q7 5 18 16t32 48.5t28 81.5q5 3 11 3z" />
    <glyph glyph-name="Lacute" unicode="&#x139;" horiz-adv-x="490" 
d="M210 698l-107 -678h347l1 -10l-4 -10h-182l-185 5l110 693q5 3 11 3zM318 868l-134 -116q-8 -3 -14 -3l-12 3l134 116q5 3 13 3z" />
    <glyph glyph-name="lacute" unicode="&#x13a;" horiz-adv-x="220" 
d="M170 17q8 0 26 2l1 -10l-4 -9q-14 -3 -26 -3q-75 0 -62 83l98 618q5 3 11 3l9 -3l-98 -618q-5 -32 5 -47.5t40 -15.5zM330 868l-134 -116q-8 -3 -14 -3l-12 3l134 116q5 3 13 3z" />
    <glyph glyph-name="Lcommaaccent" unicode="&#x13b;" horiz-adv-x="490" 
d="M210 698l-107 -678h347l1 -10l-4 -10h-182l-185 5l110 693q5 3 11 3zM273 -52q-7 -45 -26.5 -81.5t-35.5 -50.5l-16 -14q-5 -3 -10 -3l-10 3q7 5 18 16t32 48.5t28 81.5q5 3 11 3z" />
    <glyph glyph-name="lcommaaccent" unicode="&#x13c;" horiz-adv-x="220" 
d="M157 17q8 0 26 2l1 -10l-4 -9q-14 -3 -26 -3q-75 0 -62 83l98 618q5 3 11 3l9 -3l-98 -618q-5 -32 5 -47.5t40 -15.5zM129 -52q-7 -45 -26.5 -81.5t-35.5 -50.5l-16 -14q-5 -3 -10 -3l-10 3q7 5 18 16t32 48.5t28 81.5q5 3 11 3z" />
    <glyph glyph-name="Lcaron" unicode="&#x13d;" horiz-adv-x="490" 
d="M210 698l-107 -678h347l1 -10l-4 -10h-182l-185 5l110 693q5 3 11 3zM172 858l79 -93l107 93q8 3 14 3l12 -3l-122 -106q-6 -3 -14 -3l-12 3l-90 106q6 3 14 3z" />
    <glyph glyph-name="lcaron" unicode="&#x13e;" horiz-adv-x="270" 
d="M170 17q8 0 26 2l1 -10l-4 -9q-14 -3 -26 -3q-75 0 -62 83l98 618q5 3 11 3l9 -3l-98 -618q-5 -32 5 -47.5t40 -15.5zM393 698q-5 -34 -15 -64t-20 -48t-19.5 -31t-15.5 -18l-6 -5q-6 -3 -11 -3l-9 3q6 5 16 16.5t31 54.5t29 95q5 3 11 3z" />
    <glyph glyph-name="Ldot" unicode="&#x13f;" horiz-adv-x="490" 
d="M210 698l-107 -678h347l1 -10l-4 -10h-182l-185 5l110 693q5 3 11 3zM408 338l-12 -76q-6 -3 -12 -3l-12 3l12 76q6 3 13 3z" />
    <glyph glyph-name="ldot" unicode="&#x140;" horiz-adv-x="284" 
d="M170 17q8 0 26 2l1 -10l-4 -9q-14 -3 -26 -3q-75 0 -62 83l98 618q5 3 11 3l9 -3l-98 -618q-5 -32 5 -47.5t40 -15.5zM310 338l-12 -76q-6 -3 -12 -3l-12 3l12 76q6 3 13 3z" />
    <glyph glyph-name="Lslash" unicode="&#x141;" horiz-adv-x="510" 
d="M81 262l69 60l60 376q5 3 11 3l9 -3l-57 -361l134 116l1 -13l-5 -13l-134 -116l-46 -291h347l1 -10l-4 -10h-182l-185 5l46 291l-69 -60l-1 13z" />
    <glyph glyph-name="lslash" unicode="&#x142;" horiz-adv-x="246" 
d="M81 262l76 66l59 370q5 3 11 3l9 -3l-56 -355l92 80l1 -13l-5 -13l-92 -80l-38 -237q-5 -32 5 -47.5t40 -15.5q8 0 26 2l1 -10l-4 -9q-13 -3 -26 -3q-75 0 -62 83l35 222l-76 -66l-1 13z" />
    <glyph glyph-name="Nacute" unicode="&#x143;" horiz-adv-x="615" 
d="M80 2l110 696q5 3 11 3l9 -3l311 -660l104 660q5 3 11 3l9 -3l-110 -696q-5 -3 -11 -3l-9 3l-311 660l-104 -660q-5 -3 -11 -3zM535 868l-134 -116q-8 -3 -14 -3l-12 3l134 116q5 3 13 3z" />
    <glyph glyph-name="nacute" unicode="&#x144;" 
d="M178 498l-8 -51q8 6 24.5 15.5t72 25t117.5 15.5q77 0 105.5 -36.5t17.5 -106.5l-57 -358q-5 -3 -11 -3l-9 3l57 358q9 63 -14 93t-92 30q-66 0 -120 -16.5t-75 -32.5l-20 -16l-66 -416q-6 -3 -11 -3l-9 3l78 496q5 3 11 3zM465 698l-134 -116q-8 -3 -14 -3l-12 3
l134 116q6 3 14 3z" />
    <glyph glyph-name="Ncommaaccent" unicode="&#x145;" horiz-adv-x="615" 
d="M80 2l110 696q5 3 11 3l9 -3l311 -660l104 660q5 3 11 3l9 -3l-110 -696q-5 -3 -11 -3l-9 3l-311 660l-104 -660q-5 -3 -11 -3zM306 -52q-7 -45 -26.5 -81.5t-35.5 -50.5l-16 -14q-5 -3 -10 -3l-10 3q7 5 18 16t32 48.5t28 81.5q5 3 11 3z" />
    <glyph glyph-name="ncommaaccent" unicode="&#x146;" 
d="M178 498l-8 -51q8 6 24.5 15.5t72 25t117.5 15.5q77 0 105.5 -36.5t17.5 -106.5l-57 -358q-5 -3 -11 -3l-9 3l57 358q9 63 -14 93t-92 30q-66 0 -120 -16.5t-75 -32.5l-20 -16l-66 -416q-6 -3 -11 -3l-9 3l78 496q5 3 11 3zM268 -52q-7 -45 -26.5 -81.5t-35.5 -50.5
l-16 -14q-5 -3 -10 -3l-10 3q7 5 18 16t32 48.5t28 81.5q5 3 11 3z" />
    <glyph glyph-name="Ncaron" unicode="&#x147;" horiz-adv-x="615" 
d="M80 2l110 696q5 3 11 3l9 -3l311 -660l104 660q5 3 11 3l9 -3l-110 -696q-5 -3 -11 -3l-9 3l-311 660l-104 -660q-5 -3 -11 -3zM349 858l79 -93l107 93q8 3 14 3l12 -3l-122 -106q-6 -3 -14 -3l-12 3l-90 106q6 3 14 3z" />
    <glyph glyph-name="ncaron" unicode="&#x148;" 
d="M178 498l-8 -51q8 6 24.5 15.5t72 25t117.5 15.5q77 0 105.5 -36.5t17.5 -106.5l-57 -358q-5 -3 -11 -3l-9 3l57 358q9 63 -14 93t-92 30q-66 0 -120 -16.5t-75 -32.5l-20 -16l-66 -416q-6 -3 -11 -3l-9 3l78 496q5 3 11 3zM282 698l78 -93l108 93q8 3 14 3l12 -3
l-123 -106q-5 -3 -13 -3l-13 3l-89 106q6 3 14 3z" />
    <glyph glyph-name="Eng" unicode="&#x14a;" horiz-adv-x="615" 
d="M500 -90l15 92l-311 660l-104 -660q-5 -3 -11 -3l-9 3l110 696q5 3 11 3l9 -3l311 -660l104 660q5 3 11 3l9 -3l-125 -788q-18 -113 -128 -113q-29 0 -58 8l-2 10l5 11q25 -9 59 -9q50 0 73.5 23t30.5 70z" />
    <glyph glyph-name="eng" unicode="&#x14b;" 
d="M415 -90l72 450q9 63 -14 93t-92 30q-66 0 -120 -16.5t-75 -32.5l-20 -16l-66 -416q-6 -3 -11 -3l-9 3l78 496q5 3 11 3l9 -3l-8 -51q8 6 24.5 15.5t72 25t117.5 15.5q77 0 105.5 -36.5t17.5 -106.5l-72 -450q-18 -113 -128 -113q-29 0 -58 8l-2 10l5 11q26 -9 59 -9
q50 0 73.5 23t30.5 70z" />
    <glyph glyph-name="Omacron" unicode="&#x14c;" horiz-adv-x="620" 
d="M126 140l66 420q22 143 253 143q119 0 168.5 -36.5t38.5 -106.5l-66 -420q-24 -143 -253 -143q-231 0 -207 143zM212 560l-16 -105l-34 -210l-16 -105q-10 -62 34 -92.5t156 -30.5t166 30.5t64 92.5l66 420q10 62 -34 92.5t-156 30.5t-166 -30.5t-64 -92.5zM563 775h-214
l-1 10l4 10h214l2 -10z" />
    <glyph glyph-name="omacron" unicode="&#x14d;" horiz-adv-x="540" 
d="M126 140l35 220q22 143 212 143q98 0 138.5 -36.5t29.5 -106.5l-35 -220q-24 -143 -213 -143q-191 0 -167 143zM181 360l-9 -55q-8 -55 -17 -110l-9 -55q-10 -62 24.5 -92.5t125.5 -30.5t135.5 30.5t54.5 92.5l35 220q9 62 -25.5 92.5t-125.5 30.5t-135.5 -30.5
t-53.5 -92.5zM498 615h-214q-2 4 -2 10l5 10h214l1 -10z" />
    <glyph glyph-name="Obreve" unicode="&#x14e;" horiz-adv-x="620" 
d="M126 140l66 420q22 143 253 143q119 0 168.5 -36.5t38.5 -106.5l-66 -420q-24 -143 -253 -143q-231 0 -207 143zM212 560l-16 -105l-34 -210l-16 -105q-10 -62 34 -92.5t156 -30.5t166 30.5t64 92.5l66 420q10 62 -34 92.5t-156 30.5t-166 -30.5t-64 -92.5zM452 749
q-59 0 -81 22t-15 66l2 10q4 3 10 3l10 -3l-2 -10q-5 -35 12.5 -51.5t66.5 -16.5t72.5 16.5t28.5 51.5l2 10q4 3 10 3l10 -3l-2 -10q-14 -88 -124 -88z" />
    <glyph glyph-name="obreve" unicode="&#x14f;" horiz-adv-x="540" 
d="M126 140l35 220q22 143 212 143q98 0 138.5 -36.5t29.5 -106.5l-35 -220q-24 -143 -213 -143q-191 0 -167 143zM181 360l-9 -55q-8 -55 -17 -110l-9 -55q-10 -62 24.5 -92.5t125.5 -30.5t135.5 30.5t54.5 92.5l35 220q9 62 -25.5 92.5t-125.5 30.5t-135.5 -30.5
t-53.5 -92.5zM389 600q-59 0 -81 22t-16 66l2 10q5 3 11 3l9 -3l-2 -10q-5 -35 13 -51.5t67 -16.5t72 16.5t28 51.5l2 10q5 3 11 3l9 -3l-2 -10q-6 -44 -35 -66t-88 -22z" />
    <glyph glyph-name="Ohungarumlaut" unicode="&#x150;" horiz-adv-x="620" 
d="M126 140l66 420q22 143 253 143q119 0 168.5 -36.5t38.5 -106.5l-66 -420q-24 -143 -253 -143q-231 0 -207 143zM212 560l-16 -105l-34 -210l-16 -105q-10 -62 34 -92.5t156 -30.5t166 30.5t64 92.5l66 420q10 62 -34 92.5t-156 30.5t-166 -30.5t-64 -92.5zM482 868
l-134 -116q-8 -3 -14 -3l-12 3l134 116q5 3 13 3zM642 868l-134 -116q-8 -3 -14 -3l-12 3l134 116q5 3 13 3z" />
    <glyph glyph-name="ohungarumlaut" unicode="&#x151;" horiz-adv-x="540" 
d="M126 140l35 220q22 143 212 143q98 0 138.5 -36.5t29.5 -106.5l-35 -220q-24 -143 -213 -143q-191 0 -167 143zM181 360l-9 -55q-8 -55 -17 -110l-9 -55q-10 -62 24.5 -92.5t125.5 -30.5t135.5 30.5t54.5 92.5l35 220q9 62 -25.5 92.5t-125.5 30.5t-135.5 -30.5
t-53.5 -92.5zM415 698l-134 -116q-8 -3 -14 -3l-12 3l134 116q6 3 14 3zM575 698l-134 -116q-8 -3 -14 -3l-12 3l134 116q6 3 14 3z" />
    <glyph glyph-name="OE" unicode="&#x152;" horiz-adv-x="858" 
d="M829 0h-172l-173 5q-60 -8 -151 -8q-231 0 -207 143l66 420q22 143 253 143q40 0 77.5 -2t54.5 -4l17 -2q67 5 173 5h167l2 -10l-5 -10h-332l-49 -310h297q2 -4 2 -10l-5 -10h-297l-52 -330h337l1 -10zM476 17l106 666h-140q-112 0 -166 -30.5t-64 -92.5l-66 -420
q-10 -62 34 -92.5t156 -30.5h140z" />
    <glyph glyph-name="oe" unicode="&#x153;" horiz-adv-x="890" 
d="M126 140l35 220q22 143 212 143q149 0 165 -88q44 88 190 88q98 0 136 -36.5t27 -106.5l-18 -110q-71 -5 -176 -5h-175l-16 -105q-10 -63 22.5 -93t122.5 -30q52 0 98 10.5t66 20.5l20 10l1 -11l-5 -10q-6 -4 -19 -11t-60.5 -18t-103.5 -11q-146 0 -162 88
q-44 -88 -193 -88q-191 0 -167 143zM181 360l-35 -220q-10 -62 24.5 -92.5t125.5 -30.5t135.5 30.5t54.5 92.5l35 220q9 62 -25.5 92.5t-125.5 30.5t-135.5 -30.5t-53.5 -92.5zM525 265h330l16 95q9 63 -23.5 93t-122.5 30q-91 0 -133 -30t-51 -93z" />
    <glyph glyph-name="Racute" unicode="&#x154;" horiz-adv-x="560" 
d="M480 2l-138 328h-15l-175 4l-52 -332q-6 -3 -11 -3l-9 3l110 696q78 5 196 5q109 0 153.5 -36.5t33.5 -106.5l-14 -87q-21 -131 -195 -142l140 -329q-5 -3 -13 -3zM208 683l-53 -333h175q101 0 150.5 30.5t58.5 92.5l14 87q10 62 -29.5 92.5t-140.5 30.5h-175zM508 868
l-134 -116q-8 -3 -14 -3l-12 3l134 116q5 3 13 3z" />
    <glyph glyph-name="racute" unicode="&#x155;" horiz-adv-x="355" 
d="M178 498l-11 -72q3 3 9 8.5t27 18.5t44.5 23t60.5 18.5t76 8.5l2 -10l-5 -10q-42 0 -80 -9.5t-62 -22.5t-42.5 -26t-26.5 -23l-8 -9l-62 -391q-6 -3 -11 -3l-9 3l78 496q5 3 11 3zM388 698l-134 -116q-8 -3 -14 -3l-12 3l134 116q6 3 14 3z" />
    <glyph glyph-name="Rcommaaccent" unicode="&#x156;" horiz-adv-x="560" 
d="M480 2l-138 328h-15l-175 4l-52 -332q-6 -3 -11 -3l-9 3l110 696q78 5 196 5q109 0 153.5 -36.5t33.5 -106.5l-14 -87q-21 -131 -195 -142l140 -329q-5 -3 -13 -3zM208 683l-53 -333h175q101 0 150.5 30.5t58.5 92.5l14 87q10 62 -29.5 92.5t-140.5 30.5h-175zM288 -52
q-7 -45 -26.5 -81.5t-35.5 -50.5l-16 -14q-5 -3 -10 -3l-10 3q7 5 18 16t32 48.5t28 81.5q5 3 11 3z" />
    <glyph glyph-name="rcommaaccent" unicode="&#x157;" horiz-adv-x="355" 
d="M178 498l-11 -72q3 3 9 8.5t27 18.5t44.5 23t60.5 18.5t76 8.5l2 -10l-5 -10q-42 0 -80 -9.5t-62 -22.5t-42.5 -26t-26.5 -23l-8 -9l-62 -391q-6 -3 -11 -3l-9 3l78 496q5 3 11 3zM119 -52q-7 -45 -26.5 -81.5t-35.5 -50.5l-16 -14q-5 -3 -10 -3l-10 3q7 5 18 16t32 48.5
t28 81.5q5 3 11 3z" />
    <glyph glyph-name="Rcaron" unicode="&#x158;" horiz-adv-x="560" 
d="M480 2l-138 328h-15l-175 4l-52 -332q-6 -3 -11 -3l-9 3l110 696q78 5 196 5q109 0 153.5 -36.5t33.5 -106.5l-14 -87q-21 -131 -195 -142l140 -329q-5 -3 -13 -3zM208 683l-53 -333h175q101 0 150.5 30.5t58.5 92.5l14 87q10 62 -29.5 92.5t-140.5 30.5h-175zM312 858
l79 -93l107 93q8 3 14 3l12 -3l-122 -106q-6 -3 -14 -3l-12 3l-90 106q6 3 14 3z" />
    <glyph glyph-name="rcaron" unicode="&#x159;" horiz-adv-x="355" 
d="M178 498l-11 -72q3 3 9 8.5t27 18.5t44.5 23t60.5 18.5t76 8.5l2 -10l-5 -10q-42 0 -80 -9.5t-62 -22.5t-42.5 -26t-26.5 -23l-8 -9l-62 -391q-6 -3 -11 -3l-9 3l78 496q5 3 11 3zM209 698l78 -93l108 93q8 3 14 3l12 -3l-123 -106q-5 -3 -13 -3l-13 3l-89 106q6 3 14 3z
" />
    <glyph glyph-name="Sacute" unicode="&#x15a;" horiz-adv-x="556" 
d="M190 560l-9 -60q-6 -36 12 -61.5t50.5 -40t73 -25.5t81 -23.5t72.5 -29t49 -47t10 -73.5l-9 -60q-12 -71 -67 -107t-167 -36t-156 36.5t-32 106.5l2 15q5 3 11 3l9 -3l-2 -15q-10 -62 28.5 -92.5t142.5 -30.5t152.5 30.5t58.5 92.5l9 60q6 39 -11.5 66t-50 42t-73 26.5
t-80.5 23.5t-72.5 28t-49.5 44.5t-11 69.5l9 60q11 70 65 106.5t163 36.5q108 0 148.5 -36t29.5 -107l-2 -15q-5 -3 -11 -3l-9 3l2 15q10 62 -26.5 92.5t-134.5 30.5q-101 0 -148 -30.5t-57 -92.5zM518 868l-134 -116q-8 -3 -14 -3l-12 3l134 116q5 3 13 3z" />
    <glyph glyph-name="sacute" unicode="&#x15b;" horiz-adv-x="486" 
d="M160 370l-3 -20q-3 -20 6 -34.5t32 -24.5t43.5 -15.5t54.5 -12.5q39 -8 64 -15.5t51 -20.5t36.5 -32.5t6.5 -45.5l-3 -20q-10 -66 -56.5 -99.5t-140.5 -33.5t-129.5 36.5t-23.5 106.5v5q5 3 11 3l9 -3v-5q-10 -62 20.5 -92.5t115.5 -30.5t125 28t49 85l3 20
q6 40 -31.5 60.5t-109.5 34.5q-37 7 -61 14t-49 19t-36 30.5t-7 42.5l3 20q10 66 55 99.5t136 33.5q89 0 122 -36t22 -107l-1 -5q-5 -3 -11 -3l-9 3l1 5q9 62 -19.5 92.5t-107.5 30.5q-82 0 -120.5 -28t-47.5 -85zM455 698l-134 -116q-8 -3 -14 -3l-12 3l134 116q6 3 14 3z
" />
    <glyph glyph-name="Scircumflex" unicode="&#x15c;" horiz-adv-x="556" 
d="M190 560l-9 -60q-6 -36 12 -61.5t50.5 -40t73 -25.5t81 -23.5t72.5 -29t49 -47t10 -73.5l-9 -60q-12 -71 -67 -107t-167 -36t-156 36.5t-32 106.5l2 15q5 3 11 3l9 -3l-2 -15q-10 -62 28.5 -92.5t142.5 -30.5t152.5 30.5t58.5 92.5l9 60q6 39 -11.5 66t-50 42t-73 26.5
t-80.5 23.5t-72.5 28t-49.5 44.5t-11 69.5l9 60q11 70 65 106.5t163 36.5q108 0 148.5 -36t29.5 -107l-2 -15q-5 -3 -11 -3l-9 3l2 15q10 62 -26.5 92.5t-134.5 30.5q-101 0 -148 -30.5t-57 -92.5zM502 752l-79 93l-107 -93q-8 -3 -14 -3l-12 3l122 106q6 3 14 3l12 -3
l90 -106q-6 -3 -14 -3z" />
    <glyph glyph-name="scircumflex" unicode="&#x15d;" horiz-adv-x="486" 
d="M160 370l-3 -20q-3 -20 6 -34.5t32 -24.5t43.5 -15.5t54.5 -12.5q39 -8 64 -15.5t51 -20.5t36.5 -32.5t6.5 -45.5l-3 -20q-10 -66 -56.5 -99.5t-140.5 -33.5t-129.5 36.5t-23.5 106.5v5q5 3 11 3l9 -3v-5q-10 -62 20.5 -92.5t115.5 -30.5t125 28t49 85l3 20
q6 40 -31.5 60.5t-109.5 34.5q-37 7 -61 14t-49 19t-36 30.5t-7 42.5l3 20q10 66 55 99.5t136 33.5q89 0 122 -36t22 -107l-1 -5q-5 -3 -11 -3l-9 3l1 5q9 62 -19.5 92.5t-107.5 30.5q-82 0 -120.5 -28t-47.5 -85zM441 592l-78 93l-108 -93q-7 -3 -13 -3l-13 3l123 106
q6 3 14 3l12 -3l89 -106q-5 -3 -13 -3z" />
    <glyph glyph-name="Scedilla" unicode="&#x15e;" horiz-adv-x="556" 
d="M190 560l-9 -60q-6 -36 12 -61.5t50.5 -40t73 -25.5t81 -23.5t72.5 -29t49 -47t10 -73.5l-9 -60q-12 -69 -64 -105t-159 -38l-1 -5q-2 -16 8.5 -24.5t24.5 -11t25 -11.5t8 -26l-2 -8q-9 -62 -86 -62q-44 0 -58 15t-9 47l1 4q5 2 10 2l10 -2l-1 -4q-4 -24 6.5 -33t43.5 -9
q32 0 45.5 9t17.5 33l2 8q2 11 -9.5 16.5t-25.5 8t-24 14.5t-7 34l1 5q-107 1 -149 37.5t-30 105.5l2 15q5 3 11 3l9 -3l-2 -15q-10 -62 28.5 -92.5t142.5 -30.5t152.5 30.5t58.5 92.5l9 60q6 39 -11.5 66t-50 42t-73 26.5t-80.5 23.5t-72.5 28t-49.5 44.5t-11 69.5l9 60
q11 70 65 106.5t163 36.5q108 0 148.5 -36t29.5 -107l-2 -15q-5 -3 -11 -3l-9 3l2 15q10 62 -26.5 92.5t-134.5 30.5q-101 0 -148 -30.5t-57 -92.5z" />
    <glyph glyph-name="scedilla" unicode="&#x15f;" horiz-adv-x="486" 
d="M160 370l-3 -20q-3 -20 6 -34.5t32 -24.5t43.5 -15.5t54.5 -12.5q39 -8 64 -15.5t51 -20.5t36.5 -32.5t6.5 -45.5l-3 -20q-20 -130 -191 -133l-1 -4q-2 -16 8.5 -24.5t24.5 -11t25 -11.5t8 -26l-2 -8q-9 -62 -86 -62q-44 0 -58 15t-9 47l1 4q5 2 10 2l10 -2l-1 -4
q-4 -24 6.5 -33t43.5 -9q32 0 45.5 9t17.5 33l2 8q2 11 -9.5 16.5t-25.5 8t-24 14.5t-7 34l1 4q-86 3 -118.5 39t-20.5 104v5q5 3 11 3l9 -3v-5q-10 -62 20.5 -92.5t115.5 -30.5t125 28t49 85l3 20q6 40 -31.5 60.5t-109.5 34.5q-37 7 -61 14t-49 19t-36 30.5t-7 42.5l3 20
q10 66 55 99.5t136 33.5q89 0 122 -36t22 -107l-1 -5q-5 -3 -11 -3l-9 3l1 5q9 62 -19.5 92.5t-107.5 30.5q-82 0 -120.5 -28t-47.5 -85z" />
    <glyph glyph-name="Scaron" unicode="&#x160;" horiz-adv-x="556" 
d="M190 560l-9 -60q-6 -36 12 -61.5t50.5 -40t73 -25.5t81 -23.5t72.5 -29t49 -47t10 -73.5l-9 -60q-12 -71 -67 -107t-167 -36t-156 36.5t-32 106.5l2 15q5 3 11 3l9 -3l-2 -15q-10 -62 28.5 -92.5t142.5 -30.5t152.5 30.5t58.5 92.5l9 60q6 39 -11.5 66t-50 42t-73 26.5
t-80.5 23.5t-72.5 28t-49.5 44.5t-11 69.5l9 60q11 70 65 106.5t163 36.5q108 0 148.5 -36t29.5 -107l-2 -15q-5 -3 -11 -3l-9 3l2 15q10 62 -26.5 92.5t-134.5 30.5q-101 0 -148 -30.5t-57 -92.5zM332 858l79 -93l107 93q8 3 14 3l12 -3l-122 -106q-6 -3 -14 -3l-12 3
l-90 106q6 3 14 3z" />
    <glyph glyph-name="scaron" unicode="&#x161;" horiz-adv-x="486" 
d="M160 370l-3 -20q-3 -20 6 -34.5t32 -24.5t43.5 -15.5t54.5 -12.5q39 -8 64 -15.5t51 -20.5t36.5 -32.5t6.5 -45.5l-3 -20q-10 -66 -56.5 -99.5t-140.5 -33.5t-129.5 36.5t-23.5 106.5v5q5 3 11 3l9 -3v-5q-10 -62 20.5 -92.5t115.5 -30.5t125 28t49 85l3 20
q6 40 -31.5 60.5t-109.5 34.5q-37 7 -61 14t-49 19t-36 30.5t-7 42.5l3 20q10 66 55 99.5t136 33.5q89 0 122 -36t22 -107l-1 -5q-5 -3 -11 -3l-9 3l1 5q9 62 -19.5 92.5t-107.5 30.5q-82 0 -120.5 -28t-47.5 -85zM272 698l78 -93l108 93q8 3 14 3l12 -3l-123 -106
q-5 -3 -13 -3l-13 3l-89 106q6 3 14 3z" />
    <glyph glyph-name="Tcommaaccent" unicode="&#x162;" horiz-adv-x="551" 
d="M609 680h-217l-107 -678q-6 -3 -11 -3l-9 3l107 678h-222l-1 10l4 10h459l2 -10zM278 -52q-7 -45 -26.5 -81.5t-35.5 -50.5l-16 -14q-5 -3 -10 -3l-10 3q7 5 18 16t32 48.5t28 81.5q5 3 11 3z" />
    <glyph glyph-name="tcommaaccent" unicode="&#x163;" horiz-adv-x="385" 
d="M386 480h-170l-57 -360q-9 -53 11.5 -78t81.5 -25q33 0 62 9l1 -11l-5 -10q-30 -8 -61 -8q-131 0 -110 123l57 360h-60l-2 10l5 10h60l15 98q5 3 11 3l9 -3l-15 -98h170l1 -10zM223 -52q-7 -45 -26.5 -81.5t-35.5 -50.5l-16 -14q-5 -3 -10 -3l-10 3q7 5 18 16t32 48.5
t28 81.5q5 3 11 3z" />
    <glyph glyph-name="Tcaron" unicode="&#x164;" horiz-adv-x="551" 
d="M609 680h-217l-107 -678q-6 -3 -11 -3l-9 3l107 678h-222l-1 10l4 10h459l2 -10zM317 858l79 -93l107 93q8 3 14 3l12 -3l-122 -106q-6 -3 -14 -3l-12 3l-90 106q6 3 14 3z" />
    <glyph glyph-name="tcaron" unicode="&#x165;" horiz-adv-x="425" 
d="M395 480h-170l-57 -360q-9 -53 11.5 -78t81.5 -25q33 0 62 9l1 -11l-5 -10q-30 -8 -61 -8q-131 0 -110 123l57 360h-60l-2 10l5 10h60l15 98q5 3 11 3l9 -3l-15 -98h170l1 -10zM551 698q-5 -34 -15 -64t-20 -48t-19.5 -31t-15.5 -18l-6 -5q-6 -3 -11 -3l-9 3q6 5 16 16.5
t31 54.5t29 95q5 3 11 3z" />
    <glyph glyph-name="Tbar" unicode="&#x166;" horiz-adv-x="551" 
d="M530 365h-188l-57 -363q-6 -3 -11 -3l-9 3l57 363h-187l-1 10l4 10h187l47 295h-222l-1 10l4 10h459l2 -10l-5 -10h-217l-47 -295h188l2 -10z" />
    <glyph glyph-name="tbar" unicode="&#x167;" horiz-adv-x="385" 
d="M356 340h-170l-34 -220q-9 -53 11.5 -78t81.5 -25q33 0 62 9l1 -11l-5 -10q-30 -8 -61 -8q-131 0 -110 123l34 220h-60l-1 10l5 10h60l19 120h-60l-2 10l5 10h60l15 98q5 3 11 3l9 -3l-15 -98h170l1 -10l-4 -10h-170l-19 -120h170l1 -10z" />
    <glyph glyph-name="Utilde" unicode="&#x168;" horiz-adv-x="610" 
d="M652 698l-88 -558q-24 -143 -248 -143q-116 0 -165 36.5t-37 106.5l88 558q5 3 11 3l9 -3l-88 -558q-10 -62 33 -92.5t152 -30.5t162 30.5t63 92.5l88 558q5 3 11 3zM301 752v5q11 69 81 69q34 0 64.5 -28.5t56.5 -28.5q28 0 41 12t17 37l1 5q4 3 10 3l10 -3l-1 -5
q-11 -69 -81 -69q-34 0 -65 28.5t-56 28.5q-28 0 -41 -12t-17 -37v-5q-5 -3 -11 -3z" />
    <glyph glyph-name="utilde" unicode="&#x169;" horiz-adv-x="525" 
d="M238 627l1 5q11 69 81 69q34 0 64 -28.5t56 -28.5q28 0 41 12t17 37l1 5q5 3 11 3l9 -3l-1 -5q-11 -69 -81 -69q-34 0 -65 28.5t-56 28.5q-27 0 -40 -12t-17 -37l-1 -5q-5 -3 -11 -3zM437 2l8 51q-8 -6 -24 -15.5t-71 -25t-116 -15.5q-76 0 -104 36.5t-16 106.5l56 358
q5 3 11 3l9 -3l-56 -358q-10 -63 13 -93t90 -30q65 0 118 16.5t73 32.5l21 16l66 416q6 3 11 3l9 -3l-78 -496q-5 -3 -11 -3z" />
    <glyph glyph-name="Umacron" unicode="&#x16a;" horiz-adv-x="610" 
d="M652 698l-88 -558q-24 -143 -248 -143q-116 0 -165 36.5t-37 106.5l88 558q5 3 11 3l9 -3l-88 -558q-10 -62 33 -92.5t152 -30.5t162 30.5t63 92.5l88 558q5 3 11 3zM546 775h-214l-1 10l4 10h214l2 -10z" />
    <glyph glyph-name="umacron" unicode="&#x16b;" horiz-adv-x="525" 
d="M437 2l8 51q-8 -6 -24 -15.5t-71 -25t-116 -15.5q-76 0 -104 36.5t-16 106.5l56 358q5 3 11 3l9 -3l-56 -358q-10 -63 13 -93t90 -30q65 0 118 16.5t73 32.5l21 16l66 416q6 3 11 3l9 -3l-78 -496q-5 -3 -11 -3zM478 615h-214q-2 4 -2 10l5 10h214l1 -10z" />
    <glyph glyph-name="Ubreve" unicode="&#x16c;" horiz-adv-x="610" 
d="M652 698l-88 -558q-24 -143 -248 -143q-116 0 -165 36.5t-37 106.5l88 558q5 3 11 3l9 -3l-88 -558q-10 -62 33 -92.5t152 -30.5t162 30.5t63 92.5l88 558q5 3 11 3zM435 749q-59 0 -81 22t-15 66l2 10q4 3 10 3l10 -3l-2 -10q-5 -35 12.5 -51.5t66.5 -16.5t72.5 16.5
t28.5 51.5l2 10q4 3 10 3l10 -3l-2 -10q-14 -88 -124 -88z" />
    <glyph glyph-name="ubreve" unicode="&#x16d;" horiz-adv-x="525" 
d="M437 2l8 51q-8 -6 -24 -15.5t-71 -25t-116 -15.5q-76 0 -104 36.5t-16 106.5l56 358q5 3 11 3l9 -3l-56 -358q-10 -63 13 -93t90 -30q65 0 118 16.5t73 32.5l21 16l66 416q6 3 11 3l9 -3l-78 -496q-5 -3 -11 -3zM369 600q-59 0 -81 22t-16 66l2 10q5 3 11 3l9 -3l-2 -10
q-5 -35 13 -51.5t67 -16.5t72 16.5t28 51.5l2 10q5 3 11 3l9 -3l-2 -10q-6 -44 -35 -66t-88 -22z" />
    <glyph glyph-name="Uring" unicode="&#x16e;" horiz-adv-x="610" 
d="M652 698l-88 -558q-24 -143 -248 -143q-116 0 -165 36.5t-37 106.5l88 558q5 3 11 3l9 -3l-88 -558q-10 -62 33 -92.5t152 -30.5t162 30.5t63 92.5l88 558q5 3 11 3zM370 811l3 18q10 64 85 64q38 0 54 -17t11 -47l-3 -18q-10 -64 -85 -64q-38 0 -54 17t-11 47zM393 829
l-3 -18q-4 -22 7.5 -33t40.5 -11q54 0 62 44l3 18q3 22 -8 33t-40 11q-56 0 -62 -44z" />
    <glyph glyph-name="uring" unicode="&#x16f;" horiz-adv-x="525" 
d="M437 2l8 51q-8 -6 -24 -15.5t-71 -25t-116 -15.5q-76 0 -104 36.5t-16 106.5l56 358q5 3 11 3l9 -3l-56 -358q-10 -63 13 -93t90 -30q65 0 118 16.5t73 32.5l21 16l66 416q6 3 11 3l9 -3l-78 -496q-5 -3 -11 -3zM297 621l3 18q10 64 85 64q38 0 54 -17t11 -47l-3 -18
q-10 -64 -85 -64q-38 0 -54 17t-11 47zM320 639l-3 -18q-4 -22 7.5 -33t40.5 -11q54 0 62 44l3 18q3 22 -8 33t-40 11q-56 0 -62 -44z" />
    <glyph glyph-name="Uhungarumlaut" unicode="&#x170;" horiz-adv-x="610" 
d="M652 698l-88 -558q-24 -143 -248 -143q-116 0 -165 36.5t-37 106.5l88 558q5 3 11 3l9 -3l-88 -558q-10 -62 33 -92.5t152 -30.5t162 30.5t63 92.5l88 558q5 3 11 3zM465 868l-134 -116q-8 -3 -14 -3l-12 3l134 116q5 3 13 3zM625 868l-134 -116q-8 -3 -14 -3l-12 3
l134 116q5 3 13 3z" />
    <glyph glyph-name="uhungarumlaut" unicode="&#x171;" horiz-adv-x="525" 
d="M437 2l8 51q-8 -6 -24 -15.5t-71 -25t-116 -15.5q-76 0 -104 36.5t-16 106.5l56 358q5 3 11 3l9 -3l-56 -358q-10 -63 13 -93t90 -30q65 0 118 16.5t73 32.5l21 16l66 416q6 3 11 3l9 -3l-78 -496q-5 -3 -11 -3zM395 698l-134 -116q-8 -3 -14 -3l-12 3l134 116q6 3 14 3z
M555 698l-134 -116q-8 -3 -14 -3l-12 3l134 116q6 3 14 3z" />
    <glyph glyph-name="Uogonek" unicode="&#x172;" horiz-adv-x="610" 
d="M309 -81q4 25 23 47t35 33q-32 -2 -51 -2q-116 0 -165 36.5t-37 106.5l88 558q5 3 11 3l9 -3l-88 -558q-10 -62 33 -92.5t152 -30.5t162 30.5t63 92.5l88 558q5 3 11 3l9 -3l-88 -558q-20 -118 -173 -139q-11 -5 -35 -31.5t-27 -50.5q-8 -50 50 -50q18 0 35.5 5t26.5 10
l9 5l1 -11l-4 -10q-25 -19 -71 -19q-78 0 -67 70z" />
    <glyph glyph-name="uogonek" unicode="&#x173;" horiz-adv-x="525" 
d="M374 -81q3 20 19 41t30 32l14 10l8 51q-8 -6 -24 -15.5t-71 -25t-116 -15.5q-76 0 -104 36.5t-16 106.5l56 358q5 3 11 3l9 -3l-56 -358q-10 -63 13 -93t90 -30q65 0 118 16.5t73 32.5l21 16l66 416q6 3 11 3l9 -3l-78 -496q-1 -1 -2 -1q-7 -5 -18 -15t-26 -30t-17 -37
q-8 -50 50 -50q18 0 35.5 5t26.5 10l9 5l1 -11l-4 -10q-25 -19 -71 -19q-78 0 -67 70z" />
    <glyph glyph-name="Wcircumflex" unicode="&#x174;" horiz-adv-x="925" 
d="M654 2l-85 675l-297 -675q-6 -3 -14 -3l-13 3l-97 696q6 3 12 3l10 -3l92 -676l298 676q5 3 13 3l12 -3l86 -676l305 676q5 3 11 3l10 -3l-316 -696q-7 -3 -15 -3zM674 752l-79 93l-107 -93q-8 -3 -14 -3l-12 3l122 106q6 3 14 3l12 -3l90 -106q-6 -3 -14 -3z" />
    <glyph glyph-name="wcircumflex" unicode="&#x175;" horiz-adv-x="765" 
d="M534 2l-77 475l-225 -475q-6 -3 -14 -3l-13 3l-89 496q6 3 12 3l10 -3l84 -477l226 477q5 3 13 3l12 -3l77 -477l234 477q5 3 11 3l10 -3l-244 -496q-7 -3 -15 -3zM568 592l-78 93l-108 -93q-7 -3 -13 -3l-13 3l123 106q6 3 14 3l12 -3l89 -106q-5 -3 -13 -3z" />
    <glyph glyph-name="Ycircumflex" unicode="&#x176;" horiz-adv-x="536" 
d="M612 698l-284 -376l-50 -320q-6 -3 -11 -3l-9 3l50 320l-164 376q5 3 12 3l12 -3l153 -359l267 359q6 3 14 3zM480 752l-79 93l-107 -93q-8 -3 -14 -3l-12 3l122 106q6 3 14 3l12 -3l90 -106q-6 -3 -14 -3z" />
    <glyph glyph-name="ycircumflex" unicode="&#x177;" horiz-adv-x="501" 
d="M198 -90l52 90l-5 2l-119 496q6 3 12 3l9 -3l114 -476l263 476q6 3 12 3l10 -3l-327 -588q-32 -57 -65 -85t-79 -28l-37 4l-1 10l4 10q14 -4 38 -4q39 0 65.5 22.5t53.5 70.5zM436 592l-78 93l-108 -93q-7 -3 -13 -3l-13 3l123 106q6 3 14 3l12 -3l89 -106q-5 -3 -13 -3z
" />
    <glyph glyph-name="Ydieresis" unicode="&#x178;" horiz-adv-x="536" 
d="M612 698l-284 -376l-50 -320q-6 -3 -11 -3l-9 3l50 320l-164 376q5 3 12 3l12 -3l153 -359l267 359q6 3 14 3zM306 843l-14 -91q-6 -3 -11 -3l-9 3l14 91q4 3 10 3zM516 843l-14 -91q-6 -3 -11 -3l-9 3l14 91q4 3 10 3z" />
    <glyph glyph-name="Zacute" unicode="&#x179;" horiz-adv-x="555" 
d="M604 680l-519 -660h415l1 -10l-4 -10h-439l-2 10l5 10l519 660h-415l-1 10l4 10h439l2 -10zM505 868l-134 -116q-8 -3 -14 -3l-12 3l134 116q5 3 13 3z" />
    <glyph glyph-name="zacute" unicode="&#x17a;" horiz-adv-x="475" 
d="M438 698l-134 -116q-8 -3 -14 -3l-12 3l134 116q6 3 14 3zM493 480l-407 -460h334l1 -10l-4 -10h-359l-2 10l5 10l407 460h-334l-2 10l5 10h359l1 -10z" />
    <glyph glyph-name="Zdotaccent" unicode="&#x17b;" horiz-adv-x="555" 
d="M604 680l-519 -660h415l1 -10l-4 -10h-439l-2 10l5 10l519 660h-415l-1 10l4 10h439l2 -10zM420 843l-14 -91q-6 -3 -11 -3l-9 3l14 91q4 3 10 3z" />
    <glyph glyph-name="zdotaccent" unicode="&#x17c;" horiz-adv-x="475" 
d="M357 698l-14 -91q-6 -3 -11 -3l-9 3l14 91q5 3 11 3zM493 480l-407 -460h334l1 -10l-4 -10h-359l-2 10l5 10l407 460h-334l-2 10l5 10h359l1 -10z" />
    <glyph glyph-name="Zcaron" unicode="&#x17d;" horiz-adv-x="555" 
d="M604 680l-519 -660h415l1 -10l-4 -10h-439l-2 10l5 10l519 660h-415l-1 10l4 10h439l2 -10zM319 858l79 -93l107 93q8 3 14 3l12 -3l-122 -106q-6 -3 -14 -3l-12 3l-90 106q6 3 14 3z" />
    <glyph glyph-name="zcaron" unicode="&#x17e;" horiz-adv-x="475" 
d="M254 698l78 -93l108 93q8 3 14 3l12 -3l-123 -106q-5 -3 -13 -3l-13 3l-89 106q6 3 14 3zM493 480l-407 -460h334l1 -10l-4 -10h-359l-2 10l5 10l407 460h-334l-2 10l5 10h359l1 -10z" />
    <glyph glyph-name="longs" unicode="&#x17f;" horiz-adv-x="330" 
d="M234 580l-123 -778q-4 -3 -10 -3l-10 3l108 681h-60l-1 10l4 10h60l12 77q21 123 150 123q29 0 59 -8l1 -10l-5 -11q-26 9 -58 9q-61 0 -89.5 -25t-37.5 -78z" />
    <glyph glyph-name="uni018F" unicode="&#x18f;" horiz-adv-x="610" 
d="M367 365h212l31 195q10 63 -30.5 93t-151.5 30t-162 -30t-61 -93l-2 -15q-5 -3 -11 -3l-9 3l2 15q22 143 246 143q117 0 163.5 -36.5t35.5 -106.5l-66 -420q-12 -70 -70 -106.5t-175 -36.5q-118 0 -165 36.5t-35 106.5l35 220q85 5 213 5zM171 345l-32 -205
q-10 -63 31 -93t152 -30t161.5 30t60.5 93l32 205h-405z" />
    <glyph glyph-name="florin" unicode="&#x192;" horiz-adv-x="350" 
d="M108 -90l91 573h-60l-1 10l4 10h60l12 77q21 123 150 123q29 0 59 -8l1 -10l-5 -11q-26 9 -58 9q-61 0 -89.5 -25t-37.5 -78l-12 -77h170l2 -10l-5 -10h-170l-91 -573q-18 -113 -128 -113q-28 0 -57 8l-2 10l5 11q25 -9 58 -9q50 0 73.5 23t30.5 70z" />
    <glyph glyph-name="uni01DD" unicode="&#x1dd;" 
d="M519 360l-35 -220q-12 -70 -61 -106.5t-147 -36.5t-136 36.5t-26 106.5l19 120q70 5 175 5h175l16 95q9 63 -23.5 93t-122.5 30q-52 0 -97.5 -10.5t-65.5 -20.5l-20 -10l-2 11l5 10q6 4 19 11t60.5 18t103.5 11q98 0 136 -36.5t27 -106.5zM480 245h-330l-16 -105
q-10 -63 22.5 -93t122.5 -30t132.5 30t52.5 93z" />
    <glyph glyph-name="AEacute" unicode="&#x1fc;" horiz-adv-x="717" 
d="M382 350l-52 -330h337l1 -10l-4 -10h-172l-185 5l34 215h-175l-111 -218q-6 -3 -12 -3l-9 3l356 695q85 3 212 3h167l2 -10l-5 -10h-332l-49 -310h297q2 -4 2 -10l-5 -10h-297zM401 680l-224 -440h168l69 440h-13zM636 868l-134 -116q-8 -3 -14 -3l-12 3l134 116
q5 3 13 3z" />
    <glyph glyph-name="aeacute" unicode="&#x1fd;" horiz-adv-x="846" 
d="M229 -3q-130 0 -109 123l3 20q9 58 54 89t139 41l166 17l12 73q9 63 -21.5 93t-115.5 30q-83 0 -122.5 -30.5t-48.5 -92.5l-3 -15q-4 -3 -10 -3l-10 3l3 15q11 71 56.5 107t137.5 36q137 0 153 -86q41 86 178 86q93 0 128.5 -36.5t24.5 -106.5l-18 -110q-67 -5 -166 -5
h-165l-16 -105q-10 -63 20 -93t115 -30q49 0 92.5 10.5t62.5 20.5l19 10l1 -11l-5 -10q-6 -4 -18.5 -11t-57 -18t-97.5 -11q-141 0 -152 90q-50 -90 -230 -90zM479 267l-166 -17q-85 -9 -123.5 -35t-46.5 -75l-3 -20q-9 -52 12 -77.5t81 -25.5q110 0 163 30.5t63 92.5z
M498 265h310l16 95q9 63 -21 93t-115 30t-125 -30t-49 -93zM648 698l-134 -116q-8 -3 -14 -3l-12 3l134 116q6 3 14 3z" />
    <glyph glyph-name="Oslashacute" unicode="&#x1fe;" horiz-adv-x="620" 
d="M668 698l-51 -62q17 -30 11 -76l-66 -420q-24 -143 -253 -143q-139 0 -185 51l-39 -46q-8 -3 -13 -3l-11 3l51 61q-18 31 -10 77l66 420q22 143 253 143q138 0 184 -51l39 46q5 3 13 3zM608 560q6 34 -5 60l-466 -556q39 -47 175 -47q112 0 166 30.5t64 92.5zM188 560
l-16 -105l-34 -210l-16 -105q-6 -36 5 -60l465 556q-38 47 -174 47q-112 0 -166 -30.5t-64 -92.5zM538 868l-134 -116q-8 -3 -14 -3l-12 3l134 116q5 3 13 3z" />
    <glyph glyph-name="oslashacute" unicode="&#x1ff;" horiz-adv-x="540" 
d="M523 498l-31 -36q34 -36 25 -102l-35 -220q-24 -143 -213 -143q-96 0 -137 35l-25 -30q-8 -3 -13 -3l-11 3l36 43q-27 37 -17 95l35 220q22 143 212 143q86 0 129 -30l21 25q5 3 13 3zM497 360q8 56 -18 85l-333 -397q34 -31 126 -31q91 0 135.5 30.5t54.5 92.5zM157 360
l-9 -55q-8 -55 -17 -110l-9 -55q-8 -51 11 -78l332 395q-38 26 -119 26q-91 0 -135.5 -30.5t-53.5 -92.5zM471 698l-134 -116q-8 -3 -14 -3l-12 3l134 116q6 3 14 3z" />
    <glyph glyph-name="Scommaaccent" unicode="&#x218;" horiz-adv-x="556" 
d="M190 560l-9 -60q-6 -36 12 -61.5t50.5 -40t73 -25.5t81 -23.5t72.5 -29t49 -47t10 -73.5l-9 -60q-12 -71 -67 -107t-167 -36t-156 36.5t-32 106.5l2 15q5 3 11 3l9 -3l-2 -15q-10 -62 28.5 -92.5t142.5 -30.5t152.5 30.5t58.5 92.5l9 60q6 39 -11.5 66t-50 42t-73 26.5
t-80.5 23.5t-72.5 28t-49.5 44.5t-11 69.5l9 60q11 70 65 106.5t163 36.5q108 0 148.5 -36t29.5 -107l-2 -15q-5 -3 -11 -3l-9 3l2 15q10 62 -26.5 92.5t-134.5 30.5q-101 0 -148 -30.5t-57 -92.5zM286 -52q-7 -45 -26.5 -81.5t-35.5 -50.5l-16 -14q-5 -3 -10 -3l-10 3
q7 5 18 16t32 48.5t28 81.5q5 3 11 3z" />
    <glyph glyph-name="scommaaccent" unicode="&#x219;" horiz-adv-x="486" 
d="M160 370l-3 -20q-3 -20 6 -34.5t32 -24.5t43.5 -15.5t54.5 -12.5q39 -8 64 -15.5t51 -20.5t36.5 -32.5t6.5 -45.5l-3 -20q-10 -66 -56.5 -99.5t-140.5 -33.5t-129.5 36.5t-23.5 106.5v5q5 3 11 3l9 -3v-5q-10 -62 20.5 -92.5t115.5 -30.5t125 28t49 85l3 20
q6 40 -31.5 60.5t-109.5 34.5q-37 7 -61 14t-49 19t-36 30.5t-7 42.5l3 20q10 66 55 99.5t136 33.5q89 0 122 -36t22 -107l-1 -5q-5 -3 -11 -3l-9 3l1 5q9 62 -19.5 92.5t-107.5 30.5q-82 0 -120.5 -28t-47.5 -85zM255 -52q-7 -45 -26.5 -81.5t-35.5 -50.5l-16 -14
q-5 -3 -10 -3l-10 3q7 5 18 16t32 48.5t28 81.5q5 3 11 3z" />
    <glyph glyph-name="uni021A" unicode="&#x21a;" horiz-adv-x="551" 
d="M609 680h-217l-107 -678q-6 -3 -11 -3l-9 3l107 678h-222l-1 10l4 10h459l2 -10zM278 -52q-7 -45 -26.5 -81.5t-35.5 -50.5l-16 -14q-5 -3 -10 -3l-10 3q7 5 18 16t32 48.5t28 81.5q5 3 11 3z" />
    <glyph glyph-name="uni021B" unicode="&#x21b;" horiz-adv-x="385" 
d="M386 480h-170l-57 -360q-9 -53 11.5 -78t81.5 -25q33 0 62 9l1 -11l-5 -10q-30 -8 -61 -8q-131 0 -110 123l57 360h-60l-2 10l5 10h60l15 98q5 3 11 3l9 -3l-15 -98h170l1 -10zM223 -52q-7 -45 -26.5 -81.5t-35.5 -50.5l-16 -14q-5 -3 -10 -3l-10 3q7 5 18 16t32 48.5
t28 81.5q5 3 11 3z" />
    <glyph glyph-name="dotlessj" unicode="&#x237;" horiz-adv-x="195" 
d="M80 -90l93 588q5 3 11 3l9 -3l-93 -588q-18 -113 -127 -113q-29 0 -58 8l-2 10l5 11q26 -9 59 -9q49 0 72.5 23t30.5 70z" />
    <glyph glyph-name="circumflex" unicode="&#x2c6;" horiz-adv-x="180" 
d="M276 592l-78 93l-108 -93q-7 -3 -13 -3l-13 3l123 106q6 3 14 3l12 -3l89 -106q-5 -3 -13 -3z" />
    <glyph glyph-name="caron" unicode="&#x2c7;" horiz-adv-x="180" 
d="M107 698l78 -93l108 93q8 3 14 3l12 -3l-123 -106q-5 -3 -13 -3l-13 3l-89 106q6 3 14 3z" />
    <glyph glyph-name="breve" unicode="&#x2d8;" horiz-adv-x="410" 
d="M306 600q-59 0 -81 22t-16 66l2 10q5 3 11 3l9 -3l-2 -10q-5 -35 13 -51.5t67 -16.5t72 16.5t28 51.5l2 10q5 3 11 3l9 -3l-2 -10q-6 -44 -35 -66t-88 -22z" />
    <glyph glyph-name="dotaccent" unicode="&#x2d9;" horiz-adv-x="180" 
d="M210 698l-14 -91q-6 -3 -11 -3l-9 3l14 91q5 3 11 3z" />
    <glyph glyph-name="ring" unicode="&#x2da;" horiz-adv-x="310" 
d="M183 621l3 18q10 64 85 64q38 0 54 -17t11 -47l-3 -18q-10 -64 -85 -64q-38 0 -54 17t-11 47zM206 639l-3 -18q-4 -22 7.5 -33t40.5 -11q54 0 62 44l3 18q3 22 -8 33t-40 11q-56 0 -62 -44z" />
    <glyph glyph-name="ogonek" unicode="&#x2db;" horiz-adv-x="152" 
d="M1 -81q3 20 18.5 41t29.5 32l14 10h20q-57 -43 -63 -83q-8 -50 50 -50q18 0 35.5 5t26.5 10l9 5l1 -11l-4 -10q-25 -19 -71 -19q-77 0 -66 70z" />
    <glyph glyph-name="tilde" unicode="&#x2dc;" horiz-adv-x="390" 
d="M159 627l1 5q11 69 81 69q34 0 64 -28.5t56 -28.5q28 0 41 12t17 37l1 5q5 3 11 3l9 -3l-1 -5q-11 -69 -81 -69q-34 0 -65 28.5t-56 28.5q-27 0 -40 -12t-17 -37l-1 -5q-5 -3 -11 -3z" />
    <glyph glyph-name="hungarumlaut" unicode="&#x2dd;" horiz-adv-x="180" 
d="M192 698l-134 -116q-8 -3 -14 -3l-12 3l134 116q6 3 14 3zM351 698l-134 -116q-8 -3 -14 -3l-12 3l134 116q6 3 14 3z" />
    <glyph glyph-name="uni0400" unicode="&#x400;" 
d="M155 350l-52 -330h377l1 -10l-4 -10h-212l-185 5l110 690q73 5 185 5h207l2 -10l-5 -10h-372l-49 -310h337q2 -4 2 -10l-5 -10h-337zM429 752l-98 116q5 3 13 3l13 -3l98 -116q-6 -3 -14 -3z" />
    <glyph glyph-name="afii10023" unicode="&#x401;" 
d="M155 350l-52 -330h377l1 -10l-4 -10h-212l-185 5l110 690q73 5 185 5h207l2 -10l-5 -10h-372l-49 -310h337q2 -4 2 -10l-5 -10h-337zM324 843l-14 -91q-6 -3 -11 -3l-9 3l14 91q4 3 10 3zM534 843l-14 -91q-6 -3 -11 -3l-9 3l14 91q4 3 10 3z" />
    <glyph glyph-name="afii10051" unicode="&#x402;" horiz-adv-x="710" 
d="M627 110l30 190q10 62 -13.5 92.5t-90.5 30.5q-65 0 -118 -16.5t-73 -32.5l-21 -16l-56 -356q-6 -3 -11 -3l-9 3l107 678h-222l-1 10l4 10h459l2 -10l-5 -10h-217l-46 -293q8 6 24 15.5t71 25t116 15.5q76 0 103.5 -36t16.5 -107l-30 -190q-18 -113 -128 -113
q-29 0 -59 8l-1 10l5 11q26 -9 58 -9q50 0 73.5 23t31.5 70z" />
    <glyph glyph-name="afii10052" unicode="&#x403;" horiz-adv-x="480" 
d="M488 868l-134 -116q-8 -3 -14 -3l-12 3l134 116q5 3 13 3zM207 680l-107 -678q-6 -3 -11 -3l-9 3l110 693q73 5 185 5h172l2 -10l-5 -10h-337z" />
    <glyph glyph-name="afii10053" unicode="&#x404;" horiz-adv-x="600" 
d="M114 140l66 420q22 143 245 143q117 0 164 -36.5t36 -106.5l-2 -15q-5 -3 -11 -3l-9 3l2 15q10 63 -31 93t-152 30t-161.5 -30t-60.5 -93l-30 -190h348q2 -4 2 -10l-5 -10h-348l-33 -210q-10 -63 30.5 -93t151.5 -30q63 0 118.5 11.5t79.5 23.5l24 11l2 -11l-5 -10
q-8 -5 -23.5 -12.5t-73 -20t-125.5 -12.5q-118 0 -164.5 36.5t-34.5 106.5z" />
    <glyph glyph-name="afii10054" unicode="&#x405;" horiz-adv-x="566" 
d="M190 560l-9 -60q-6 -36 12 -61.5t50.5 -40t73 -25.5t81 -23.5t72.5 -29t49 -47t10 -73.5l-9 -60q-12 -71 -67 -107t-167 -36t-156 36.5t-32 106.5l2 15q5 3 11 3l9 -3l-2 -15q-10 -62 28.5 -92.5t142.5 -30.5t152.5 30.5t58.5 92.5l9 60q6 39 -11.5 66t-50 42t-73 26.5
t-80.5 23.5t-72.5 28t-49.5 44.5t-11 69.5l9 60q11 70 65 106.5t163 36.5q108 0 148.5 -36t29.5 -107l-2 -15q-5 -3 -11 -3l-9 3l2 15q10 62 -26.5 92.5t-134.5 30.5q-101 0 -148 -30.5t-57 -92.5z" />
    <glyph glyph-name="afii10055" unicode="&#x406;" horiz-adv-x="290" 
d="M51 20h87l104 660h-87l-1 10l4 10h194l2 -10l-5 -10h-87l-104 -660h87l1 -10l-4 -10h-194l-2 10z" />
    <glyph glyph-name="afii10056" unicode="&#x407;" horiz-adv-x="290" 
d="M203 843l-14 -91q-6 -3 -11 -3l-9 3l14 91q4 3 10 3zM373 843l-14 -91q-6 -3 -11 -3l-9 3l14 91q4 3 10 3zM51 20h87l104 660h-87l-1 10l4 10h194l2 -10l-5 -10h-87l-104 -660h87l1 -10l-4 -10h-194l-2 10z" />
    <glyph glyph-name="afii10057" unicode="&#x408;" horiz-adv-x="490" 
d="M520 698l-88 -558q-12 -70 -58.5 -106.5t-138.5 -36.5q-32 0 -60.5 4.5t-45 11t-28.5 13.5t-17 12l-5 4l-1 10l4 11q5 -5 16 -12.5t51.5 -20.5t88.5 -13q85 0 124.5 30t49.5 93l88 558q5 3 11 3z" />
    <glyph glyph-name="afii10058" unicode="&#x409;" horiz-adv-x="994" 
d="M524 2l107 678h-282l-160 -540q-23 -75 -53.5 -109t-93.5 -34l-1 10l4 10q56 0 80 28t44 95l165 556q63 5 160 5l160 -5l-50 -315q75 4 180 4q106 0 149.5 -39t31.5 -114l-13 -82q-24 -153 -229 -153zM601 365l-55 -348h180q99 0 147 33t59 100l13 82q11 67 -27 100
t-137 33h-180z" />
    <glyph glyph-name="afii10059" unicode="&#x40a;" horiz-adv-x="980" 
d="M510 2l55 348h-410l-55 -348q-6 -3 -11 -3l-9 3l110 696q5 3 11 3l9 -3l-52 -328h410l52 328q5 3 11 3l9 -3l-50 -317q75 4 180 4q106 0 149.5 -39t31.5 -114l-13 -82q-24 -153 -229 -153zM587 365l-55 -348h180q99 0 147 33t59 100l13 82q11 67 -27 100t-137 33h-180z
" />
    <glyph glyph-name="afii10060" unicode="&#x40b;" horiz-adv-x="710" 
d="M609 680h-217l-46 -293q8 6 24 15.5t71 25t116 15.5q76 0 103.5 -36t16.5 -107l-47 -298q-5 -3 -11 -3l-9 3l47 298q10 62 -13.5 92.5t-90.5 30.5q-65 0 -118 -16.5t-73 -32.5l-21 -16l-56 -356q-6 -3 -11 -3l-9 3l107 678h-222l-1 10l4 10h459l2 -10z" />
    <glyph glyph-name="afii10061" unicode="&#x40c;" horiz-adv-x="495" 
d="M440 2l-181 353l-108 -30l-51 -323q-6 -3 -11 -3l-9 3l110 696q5 3 11 3l9 -3l-56 -353l108 30l280 323q6 3 14 3l11 -3l-290 -333l188 -363q-6 -3 -14 -3zM475 868l-134 -116q-8 -3 -14 -3l-12 3l134 116q5 3 13 3z" />
    <glyph glyph-name="uni040D" unicode="&#x40d;" horiz-adv-x="615" 
d="M451 752l-98 116q5 3 13 3l13 -3l98 -116q-6 -3 -14 -3zM645 698l-110 -696q-6 -3 -11 -3l-9 3l104 660l-519 -660q-6 -3 -11 -3l-9 3l110 696q5 3 11 3l9 -3l-104 -660l519 660q5 3 11 3z" />
    <glyph glyph-name="afii10062" unicode="&#x40e;" horiz-adv-x="561" 
d="M408 749q-59 0 -81 22t-15 66l2 10q4 3 10 3l10 -3l-2 -10q-5 -35 12.5 -51.5t66.5 -16.5t72.5 16.5t28.5 51.5l2 10q4 3 10 3l10 -3l-2 -10q-14 -88 -124 -88zM260 110l52 90l-6 2l-148 496q6 3 12 3l9 -3l145 -478l292 478q6 3 12 3l10 -3l-357 -588q-34 -57 -69.5 -85
t-84.5 -28l-42 4l-2 10l5 10q15 -4 42 -4q43 0 73 23.5t57 69.5z" />
    <glyph glyph-name="afii10145" unicode="&#x40f;" horiz-adv-x="610" 
d="M273 -148l23 147l-216 5l110 694q5 3 11 3l9 -3l-107 -678h410l107 678q6 3 11 3l9 -3l-110 -694q-84 -4 -214 -5l-23 -147q-4 -3 -10 -3z" />
    <glyph glyph-name="afii10017" unicode="&#x410;" horiz-adv-x="587" 
d="M34 2l356 696q7 3 15 3l12 -3l136 -696q-6 -3 -11 -3l-10 3l-43 218h-323l-111 -218q-6 -3 -12 -3zM401 678l-224 -438h309z" />
    <glyph glyph-name="afii10018" unicode="&#x411;" horiz-adv-x="560" 
d="M207 680l-46 -294q77 4 185 4q109 0 153.5 -39.5t32.5 -113.5l-14 -87q-24 -153 -234 -153l-204 5l110 693q73 5 185 5h202l2 -10l-5 -10h-367zM158 370l-56 -353h185q101 0 150.5 33t60.5 100l14 87q11 67 -28 100t-141 33h-185z" />
    <glyph glyph-name="afii10019" unicode="&#x412;" horiz-adv-x="565" 
d="M80 2l110 696q86 5 206 5q104 0 145.5 -39.5t29.5 -114.5l-7 -45q-19 -117 -138 -144q126 -25 107 -147l-9 -59q-26 -157 -240 -157zM155 350l-53 -333h185q105 0 155.5 34t61.5 103l9 59q11 70 -29 103.5t-144 33.5h-185zM208 683l-50 -313h185q96 0 143 33t58 101l7 45
q11 68 -25.5 101t-132.5 33h-185z" />
    <glyph glyph-name="afii10020" unicode="&#x413;" horiz-adv-x="480" 
d="M207 680l-107 -678q-6 -3 -11 -3l-9 3l110 693q73 5 185 5h172l2 -10l-5 -10h-337z" />
    <glyph glyph-name="afii10021" unicode="&#x414;" horiz-adv-x="669" 
d="M16 -148l26 165q57 0 82 27.5t45 95.5l165 556q63 5 160 5l160 -5l-107 -676l84 -3l-26 -165q-4 -3 -10 -3l-10 3l24 148h-549l-24 -148q-4 -3 -10 -3zM121 20h406l104 660h-282l-160 -540q-27 -92 -68 -120z" />
    <glyph glyph-name="afii10022" unicode="&#x415;" 
d="M155 350l-52 -330h377l1 -10l-4 -10h-212l-185 5l110 690q73 5 185 5h207l2 -10l-5 -10h-372l-49 -310h337q2 -4 2 -10l-5 -10h-337z" />
    <glyph glyph-name="afii10024" unicode="&#x416;" horiz-adv-x="730" 
d="M313 358l-258 -356q-7 -3 -13 -3l-12 3l268 366l-145 330q6 3 13 3l12 -3l138 -320l94 -30l55 350q5 3 11 3l9 -3l-55 -350l102 30l240 320q6 3 14 3l11 -3l-249 -330l152 -366q-6 -3 -14 -3l-11 3l-146 356l-103 -30l-51 -326q-5 -3 -11 -3l-9 3l51 326z" />
    <glyph glyph-name="afii10025" unicode="&#x417;" horiz-adv-x="553" 
d="M389 703q101 0 141.5 -39.5t28.5 -114.5l-7 -45q-19 -117 -138 -144q126 -25 107 -147l-9 -59q-26 -157 -235 -157q-66 0 -117 11t-68 22l-18 12l-1 10l4 11q7 -5 21.5 -12.5t67 -20.5t114.5 -13q102 0 151.5 34t60.5 103l9 59q11 70 -29 103.5t-144 33.5h-85l-1 10l4 10
h85q96 0 143 33t58 101l7 45q11 68 -24.5 101t-128.5 33q-109 0 -158.5 -30t-59.5 -93l-2 -15q-5 -3 -11 -3l-9 3l2 15q22 143 241 143z" />
    <glyph glyph-name="afii10026" unicode="&#x418;" horiz-adv-x="615" 
d="M645 698l-110 -696q-6 -3 -11 -3l-9 3l104 660l-519 -660q-6 -3 -11 -3l-9 3l110 696q5 3 11 3l9 -3l-104 -660l519 660q5 3 11 3z" />
    <glyph glyph-name="afii10027" unicode="&#x419;" horiz-adv-x="615" 
d="M425 749q-59 0 -81 22t-15 66l2 10q4 3 10 3l10 -3l-2 -10q-5 -35 12.5 -51.5t66.5 -16.5t72.5 16.5t28.5 51.5l2 10q4 3 10 3l10 -3l-2 -10q-14 -88 -124 -88zM645 698l-110 -696q-6 -3 -11 -3l-9 3l104 660l-519 -660q-6 -3 -11 -3l-9 3l110 696q5 3 11 3l9 -3
l-104 -660l519 660q5 3 11 3z" />
    <glyph glyph-name="afii10028" unicode="&#x41a;" horiz-adv-x="495" 
d="M440 2l-181 353l-108 -30l-51 -323q-6 -3 -11 -3l-9 3l110 696q5 3 11 3l9 -3l-56 -353l108 30l280 323q6 3 14 3l11 -3l-290 -333l188 -363q-6 -3 -14 -3z" />
    <glyph glyph-name="afii10029" unicode="&#x41b;" horiz-adv-x="624" 
d="M169 140l165 556q63 5 160 5l160 -5l-110 -694q-5 -3 -11 -3l-9 3l107 678h-282l-160 -540q-23 -75 -53.5 -109t-93.5 -34l-1 10l4 10q56 0 80 28t44 95z" />
    <glyph glyph-name="afii10030" unicode="&#x41c;" horiz-adv-x="747" 
d="M767 698l-110 -696q-6 -3 -11 -3l-9 3l103 649l-341 -525q-5 -3 -13 -3l-14 3l-170 524l-102 -649q-6 -3 -11 -3l-9 3l110 696q4 3 10 3l10 -3l179 -553l358 554q5 3 11 3z" />
    <glyph glyph-name="afii10031" unicode="&#x41d;" horiz-adv-x="610" 
d="M640 698l-110 -696q-6 -3 -11 -3l-9 3l55 348h-410l-55 -348q-6 -3 -11 -3l-9 3l110 696q5 3 11 3l9 -3l-52 -328h410l52 328q5 3 11 3z" />
    <glyph glyph-name="afii10032" unicode="&#x41e;" horiz-adv-x="620" 
d="M126 140l66 420q22 143 253 143q119 0 168.5 -36.5t38.5 -106.5l-66 -420q-24 -143 -253 -143q-231 0 -207 143zM212 560l-16 -105l-34 -210l-16 -105q-10 -62 34 -92.5t156 -30.5t166 30.5t64 92.5l66 420q10 62 -34 92.5t-156 30.5t-166 -30.5t-64 -92.5z" />
    <glyph glyph-name="afii10033" unicode="&#x41f;" horiz-adv-x="610" 
d="M89 -1l-9 3l110 694q89 5 225 5l225 -5l-110 -694q-5 -3 -11 -3l-9 3l107 678h-410l-107 -678q-6 -3 -11 -3z" />
    <glyph glyph-name="afii10034" unicode="&#x420;" horiz-adv-x="560" 
d="M190 698q78 5 196 5q109 0 153.5 -36.5t33.5 -106.5l-14 -87q-22 -143 -232 -143l-175 4l-52 -332q-6 -3 -11 -3l-9 3zM208 683l-53 -333h175q101 0 150.5 30.5t58.5 92.5l14 87q10 62 -29.5 92.5t-140.5 30.5h-175z" />
    <glyph glyph-name="afii10035" unicode="&#x421;" horiz-adv-x="600" 
d="M114 140l66 420q22 143 245 143q117 0 164 -36.5t36 -106.5l-2 -15q-5 -3 -11 -3l-9 3l2 15q10 63 -31 93t-152 30t-161.5 -30t-60.5 -93l-66 -420q-10 -63 30.5 -93t151.5 -30q63 0 118.5 11.5t79.5 23.5l24 11l2 -11l-5 -10q-8 -5 -23.5 -12.5t-73 -20t-125.5 -12.5
q-118 0 -164.5 36.5t-34.5 106.5z" />
    <glyph glyph-name="afii10036" unicode="&#x422;" horiz-adv-x="551" 
d="M609 680h-217l-107 -678q-6 -3 -11 -3l-9 3l107 678h-222l-1 10l4 10h459l2 -10z" />
    <glyph glyph-name="afii10037" unicode="&#x423;" horiz-adv-x="561" 
d="M260 110l52 90l-6 2l-148 496q6 3 12 3l9 -3l145 -478l292 478q6 3 12 3l10 -3l-357 -588q-34 -57 -69.5 -85t-84.5 -28l-42 4l-2 10l5 10q15 -4 42 -4q43 0 73 23.5t57 69.5z" />
    <glyph glyph-name="afii10038" unicode="&#x424;" horiz-adv-x="650" 
d="M321 2l12 75q-129 0 -184 36.5t-44 106.5l42 260q22 143 272 143l12 75q5 3 11 3l9 -3l-12 -75q129 0 184 -36.5t44 -106.5l-42 -260q-22 -143 -272 -143l-12 -75q-6 -3 -11 -3zM605 220l42 260q9 62 -39.5 92.5t-171.5 30.5l-80 -506q123 0 181.5 30.5t67.5 92.5z
M167 480l-42 -260q-9 -62 39.5 -92.5t171.5 -30.5l80 506q-123 0 -181.5 -30.5t-67.5 -92.5z" />
    <glyph glyph-name="afii10039" unicode="&#x425;" horiz-adv-x="536" 
d="M483 2l-162 335l-268 -335q-7 -3 -13 -3l-11 3l282 351l-167 345q5 3 12 3l12 -3l158 -329l262 329q6 3 14 3l10 -3l-277 -345l172 -351q-6 -3 -13 -3z" />
    <glyph glyph-name="afii10040" unicode="&#x426;" horiz-adv-x="655" 
d="M571 -148l24 148h-329l-186 5l110 693q5 3 11 3l9 -3l-107 -678h410l107 678q6 3 11 3l9 -3l-107 -678l84 -3l-26 -165q-4 -3 -10 -3z" />
    <glyph glyph-name="afii10041" unicode="&#x427;" horiz-adv-x="585" 
d="M496 2l53 338q-10 -6 -28.5 -16t-82 -26t-135.5 -16q-89 0 -122.5 36.5t-22.5 106.5l43 273q5 3 11 3l9 -3l-43 -273q-10 -63 18 -93t108 -30q49 0 92.5 6.5t71 16t48 19.5t29.5 16l9 7l52 331q6 3 11 3l9 -3l-110 -696q-5 -3 -11 -3z" />
    <glyph glyph-name="afii10042" unicode="&#x428;" horiz-adv-x="860" 
d="M881 701l9 -3l-110 -693q-72 -5 -184 -5h-330l-186 5l110 693q5 3 11 3l9 -3l-107 -678h320l107 678q5 3 11 3l9 -3l-107 -678h320l107 678q6 3 11 3z" />
    <glyph glyph-name="afii10043" unicode="&#x429;" horiz-adv-x="905" 
d="M821 -148l24 148h-579l-186 5l110 693q5 3 11 3l9 -3l-107 -678h320l107 678q5 3 11 3l9 -3l-107 -678h320l107 678q6 3 11 3l9 -3l-107 -678l84 -3l-26 -165q-4 -3 -10 -3z" />
    <glyph glyph-name="afii10044" unicode="&#x42a;" horiz-adv-x="700" 
d="M220 2l107 678h-187l-1 10l4 10h22l185 -5l-50 -314q77 4 185 4q109 0 153.5 -39.5t32.5 -113.5l-13 -82q-24 -153 -234 -153zM297 365l-55 -348h185q101 0 150.5 33t60.5 100l13 82q11 67 -28 100t-141 33h-185z" />
    <glyph glyph-name="afii10045" unicode="&#x42b;" horiz-adv-x="715" 
d="M80 2l110 696q5 3 11 3l9 -3l-50 -317q77 4 185 4q109 0 153.5 -39.5t32.5 -113.5l-13 -82q-24 -153 -234 -153zM157 365l-55 -348h185q101 0 150.5 33t60.5 100l13 82q11 67 -28 100t-141 33h-185zM745 698l-110 -696q-6 -3 -11 -3l-9 3l110 696q5 3 11 3z" />
    <glyph glyph-name="afii10046" unicode="&#x42c;" horiz-adv-x="560" 
d="M80 2l110 696q5 3 11 3l9 -3l-50 -317q77 4 185 4q109 0 153.5 -39.5t32.5 -113.5l-13 -82q-24 -153 -234 -153zM157 365l-55 -348h185q101 0 150.5 33t60.5 100l13 82q11 67 -28 100t-141 33h-185z" />
    <glyph glyph-name="afii10047" unicode="&#x42d;" horiz-adv-x="600" 
d="M608 560l-66 -420q-12 -70 -70 -106.5t-175 -36.5q-68 0 -120 11t-70 22l-18 12l-1 10l4 11q7 -5 22 -12.5t69 -20.5t117 -13q111 0 161.5 30t60.5 93l33 210h-283l-1 10l4 10h283l30 190q10 63 -30.5 93t-151.5 30t-162 -30t-61 -93l-2 -15q-5 -3 -11 -3l-9 3l2 15
q22 143 246 143q117 0 163.5 -36.5t35.5 -106.5z" />
    <glyph glyph-name="afii10048" unicode="&#x42e;" horiz-adv-x="777" 
d="M299 140l33 210h-177l-55 -348q-6 -3 -11 -3l-9 3l110 696q5 3 11 3l9 -3l-52 -328h177l30 190q22 143 233 143q109 0 153.5 -36.5t33.5 -106.5l-66 -420q-24 -143 -233 -143q-211 0 -187 143zM385 560l-66 -420q-10 -62 29.5 -92.5t140.5 -30.5t150.5 30.5t59.5 92.5
l66 420q10 62 -29.5 92.5t-140.5 30.5t-150.5 -30.5t-59.5 -92.5z" />
    <glyph glyph-name="afii10049" unicode="&#x42f;" horiz-adv-x="560" 
d="M590 698l-110 -696q-5 -3 -11 -3l-9 3l52 327q-78 -4 -186 -4h-5l-245 -323q-7 -3 -13 -3l-11 3l247 323q-93 5 -131.5 44t-27.5 109l12 72q24 153 234 153zM514 345l54 338h-185q-102 0 -151.5 -33t-59.5 -100l-12 -72q-11 -67 28 -100t141 -33h185z" />
    <glyph glyph-name="afii10065" unicode="&#x430;" horiz-adv-x="516" 
d="M440 2l8 51q-8 -6 -23.5 -15.5t-69 -25t-113.5 -15.5q-140 0 -116 143l35 220q22 143 180 143q45 0 78.5 -7t49.5 -16.5t26 -19.5t12 -17l2 -7l9 62q5 3 11 3l9 -3l-78 -496q-5 -3 -11 -3zM181 360l-35 -220q-10 -63 12 -93t87 -30q64 0 115.5 15.5t71.5 31.5l20 16
l45 280q9 62 -27 92.5t-131 30.5q-76 0 -112.5 -30t-45.5 -93z" />
    <glyph glyph-name="afii10066" unicode="&#x431;" horiz-adv-x="534" 
d="M194 447q9 6 25.5 15.5t72.5 25t118 15.5q78 0 107 -36.5t18 -106.5l-35 -220q-24 -143 -211 -143t-163 143l64 407q22 143 201 143q47 0 87.5 5t57.5 10l18 5l1 -10l-4 -11q-63 -19 -162 -19q-87 0 -128 -30t-51 -93zM190 418l-44 -278q-10 -62 23.5 -92.5t123.5 -30.5
t134 30.5t54 92.5l35 220q9 63 -14.5 93t-93.5 30q-67 0 -121.5 -16.5t-75.5 -32.5z" />
    <glyph glyph-name="afii10067" unicode="&#x432;" horiz-adv-x="490" 
d="M80 2l78 496q73 5 176 5q77 0 108.5 -31t22.5 -90l-3 -16q-12 -83 -87 -110q86 -23 72 -117l-3 -16q-21 -126 -190 -126zM293 245h-155l-36 -228h155q150 0 167 106l3 16q8 52 -23 79t-111 27zM141 265h155q69 0 103.5 25t42.5 76l3 16q8 51 -18.5 76t-95.5 25h-155z" />
    <glyph glyph-name="afii10068" unicode="&#x433;" horiz-adv-x="405" 
d="M176 480l-76 -478q-6 -3 -11 -3l-9 3l78 493q74 5 186 5h97l1 -10l-4 -10h-262z" />
    <glyph glyph-name="afii10069" unicode="&#x434;" horiz-adv-x="565" 
d="M19 -128l23 145q54 3 77 30t42 93l99 356q53 5 135 5l135 -5l-75 -476l72 -3l-23 -145q-4 -3 -10 -3l-10 3l21 128h-445l-21 -128q-4 -3 -10 -3zM276 480l-95 -340q-26 -92 -64 -120h318l73 460h-232z" />
    <glyph glyph-name="afii10070" unicode="&#x435;" 
d="M114 140l35 220q22 143 207 143q98 0 136 -36.5t27 -106.5l-18 -110q-71 -5 -176 -5h-175l-16 -105q-10 -63 22.5 -93t122.5 -30q52 0 98 10.5t66 20.5l20 10l1 -11l-5 -10q-6 -4 -19 -11t-60.5 -18t-103.5 -11q-98 0 -136 36.5t-26 106.5zM153 265h330l16 95
q9 63 -23.5 93t-122.5 30q-91 0 -133 -30t-51 -93z" />
    <glyph glyph-name="afii10072" unicode="&#x436;" horiz-adv-x="618" 
d="M30 2l216 263l-127 233q5 3 12 3l12 -3l121 -223l73 -35l40 258q5 3 11 3l9 -3l-40 -258l83 35l191 223q6 3 14 3l10 -3l-201 -233l134 -263q-5 -3 -13 -3l-11 3l-127 253l-84 -35l-34 -218q-6 -3 -11 -3l-9 3l34 218l-72 35l-207 -253q-7 -3 -13 -3z" />
    <glyph glyph-name="afii10073" unicode="&#x437;" horiz-adv-x="480" 
d="M138 372l2 10q19 121 186 121q79 0 111 -31t23 -90l-2 -14q-14 -87 -88 -115q81 -22 67 -112l-3 -18q-21 -126 -188 -126q-52 0 -92.5 10t-54.5 20l-14 10l-1 10l5 11q6 -5 17 -11.5t52.5 -18t90.5 -11.5q148 0 165 106l3 18q8 50 -23 75.5t-109 25.5h-64l-2 10l5 10h64
q71 0 106 26.5t44 79.5l2 14q8 51 -19 76t-98 25q-81 0 -118 -25t-45 -76l-2 -10q-4 -3 -10 -3z" />
    <glyph glyph-name="afii10074" unicode="&#x438;" 
d="M528 498l-78 -496q-6 -3 -11 -3l-9 3l73 462l-403 -462q-6 -3 -11 -3l-9 3l78 496q5 3 11 3l9 -3l-73 -462l403 462q5 3 11 3z" />
    <glyph glyph-name="afii10075" unicode="&#x439;" 
d="M528 498l-78 -496q-6 -3 -11 -3l-9 3l73 462l-403 -462q-6 -3 -11 -3l-9 3l78 496q5 3 11 3l9 -3l-73 -462l403 462q5 3 11 3zM360 600q-59 0 -81 22t-16 66l2 10q5 3 11 3l9 -3l-2 -10q-5 -35 13 -51.5t67 -16.5t72 16.5t28 51.5l2 10q5 3 11 3l9 -3l-2 -10
q-6 -44 -35 -66t-88 -22z" />
    <glyph glyph-name="afii10076" unicode="&#x43a;" horiz-adv-x="430" 
d="M375 2l-146 258l-92 -25l-37 -233q-6 -3 -11 -3l-9 3l78 496q5 3 11 3l9 -3l-38 -243l92 25l210 218q6 3 14 3l11 -3l-220 -228l153 -268q-6 -3 -14 -3z" />
    <glyph glyph-name="afii10077" unicode="&#x43b;" 
d="M159 140l99 356q53 5 135 5l135 -5l-78 -494q-5 -3 -11 -3l-9 3l76 478h-232l-95 -340q-22 -75 -50.5 -109t-86.5 -34l-1 10l4 10q50 0 72 28t42 95z" />
    <glyph glyph-name="afii10078" unicode="&#x43c;" horiz-adv-x="627" 
d="M625 498l-78 -496q-6 -3 -11 -3l-9 3l72 453l-262 -374q-5 -3 -13 -3l-14 3l-138 374l-72 -453q-6 -3 -11 -3l-9 3l78 496q5 3 11 3l9 -3l149 -401l278 401q5 3 11 3z" />
    <glyph glyph-name="afii10079" unicode="&#x43d;" 
d="M528 498l-78 -496q-6 -3 -11 -3l-9 3l39 248h-330l-39 -248q-6 -3 -11 -3l-9 3l78 496q5 3 11 3l9 -3l-36 -228h330l36 228q5 3 11 3z" />
    <glyph glyph-name="afii10080" unicode="&#x43e;" horiz-adv-x="540" 
d="M126 140l35 220q22 143 212 143q98 0 138.5 -36.5t29.5 -106.5l-35 -220q-24 -143 -213 -143q-191 0 -167 143zM181 360l-9 -55q-8 -55 -17 -110l-9 -55q-10 -62 24.5 -92.5t125.5 -30.5t135.5 30.5t54.5 92.5l35 220q9 62 -25.5 92.5t-125.5 30.5t-135.5 -30.5
t-53.5 -92.5z" />
    <glyph glyph-name="afii10081" unicode="&#x43f;" 
d="M89 -1l-9 3l78 494q73 5 185 5l185 -5l-78 -494q-5 -3 -11 -3l-9 3l76 478h-330l-76 -478q-6 -3 -11 -3z" />
    <glyph glyph-name="afii10082" unicode="&#x440;" horiz-adv-x="520" 
d="M178 498l-8 -51q8 6 24 15.5t70 25t114 15.5q75 0 102.5 -36.5t16.5 -106.5l-35 -220q-24 -143 -183 -143q-45 0 -79 7t-50.5 16.5t-26 19.5t-11.5 17l-2 7l-42 -262q-4 -3 -10 -3l-10 3l110 696q5 3 11 3zM442 140l35 220q9 63 -13.5 93t-88.5 30q-64 0 -116.5 -16.5
t-72.5 -32.5l-20 -16l-44 -278q-10 -62 26.5 -92.5t132.5 -30.5q77 0 114 30t47 93z" />
    <glyph glyph-name="afii10083" unicode="&#x441;" horiz-adv-x="505" 
d="M114 140l35 220q22 143 199 143q94 0 130.5 -36.5t25.5 -106.5l-3 -15q-4 -3 -10 -3l-10 3l3 15q9 63 -21.5 93t-117.5 30q-86 0 -126.5 -30t-49.5 -93l-35 -220q-10 -63 20.5 -93t117.5 -30q49 0 93 10.5t63 20.5l20 10l1 -11l-5 -10q-6 -4 -18.5 -11t-58 -18t-99.5 -11
q-94 0 -130 36.5t-24 106.5z" />
    <glyph glyph-name="afii10084" unicode="&#x442;" horiz-adv-x="470" 
d="M498 480h-177l-76 -478q-6 -3 -11 -3l-9 3l76 478h-182l-2 10l5 10h379l1 -10z" />
    <glyph glyph-name="afii10085" unicode="&#x443;" horiz-adv-x="501" 
d="M198 -90l52 90l-5 2l-119 496q6 3 12 3l9 -3l114 -476l263 476q6 3 12 3l10 -3l-327 -588q-32 -57 -65 -85t-79 -28l-37 4l-1 10l4 10q14 -4 38 -4q39 0 65.5 22.5t53.5 70.5z" />
    <glyph glyph-name="afii10086" unicode="&#x444;" horiz-adv-x="640" 
d="M464 698l-31 -195q119 0 169 -36.5t39 -106.5l-35 -220q-24 -143 -253 -143l-31 -195q-5 -3 -10 -3l-10 3l31 195q-231 0 -207 143l35 220q22 143 252 143l31 195q5 3 11 3zM430 483l-74 -466q112 0 166 30.5t64 92.5l35 220q9 62 -35 92.5t-156 30.5zM336 17l74 466
q-112 0 -166 -30.5t-63 -92.5l-35 -220q-10 -62 34 -92.5t156 -30.5z" />
    <glyph glyph-name="afii10087" unicode="&#x445;" horiz-adv-x="456" 
d="M403 2l-138 235l-212 -235q-7 -3 -13 -3l-11 3l227 251l-144 245q5 3 12 3l12 -3l134 -229l206 229q6 3 14 3l10 -3l-220 -245l147 -251q-6 -3 -13 -3z" />
    <glyph glyph-name="afii10088" unicode="&#x446;" horiz-adv-x="565" 
d="M484 -128l21 128h-239l-186 5l78 493q5 3 11 3l9 -3l-75 -478h330l75 478q6 3 11 3l9 -3l-75 -478l74 -3l-23 -145q-4 -3 -10 -3z" />
    <glyph glyph-name="afii10089" unicode="&#x447;" horiz-adv-x="495" 
d="M407 2l40 251q-8 -6 -23 -15.5t-67 -25t-110 -15.5q-72 0 -98.5 34t-15.5 99l26 168q5 3 11 3l9 -3l-26 -168q-9 -57 12.5 -85t84.5 -28q61 0 111 16.5t70 32.5l19 16l34 216q6 3 11 3l9 -3l-78 -496q-5 -3 -10 -3z" />
    <glyph glyph-name="afii10090" unicode="&#x448;" horiz-adv-x="760" 
d="M749 501l9 -3l-78 -493q-72 -5 -184 -5h-230l-186 5l78 493q5 3 11 3l9 -3l-75 -478h270l75 478q5 3 11 3l9 -3l-75 -478h270l75 478q6 3 11 3z" />
    <glyph glyph-name="afii10091" unicode="&#x449;" horiz-adv-x="795" 
d="M714 -128l21 128h-469l-186 5l78 493q5 3 11 3l9 -3l-75 -478h270l75 478q5 3 11 3l9 -3l-75 -478h270l75 478q6 3 11 3l9 -3l-75 -478l74 -3l-23 -145q-4 -3 -10 -3z" />
    <glyph glyph-name="afii10092" unicode="&#x44a;" horiz-adv-x="580" 
d="M283 495l-34 -215q63 5 151 5q80 0 112 -32t23 -93l-6 -38q-21 -125 -175 -125l-169 5l76 478h-142l-2 10l5 10h27zM396 265h-150l-39 -248h150q72 0 107.5 26t44.5 79l6 38q9 53 -19 79t-100 26z" />
    <glyph glyph-name="afii10093" unicode="&#x44b;" horiz-adv-x="625" 
d="M178 498l-34 -218q63 5 151 5q80 0 112 -32t23 -93l-6 -38q-21 -125 -175 -125l-169 5l78 496q5 3 11 3zM291 265h-150l-39 -248h150q72 0 107.5 26t44.5 79l6 38q9 53 -19 79t-100 26zM623 498l-78 -496q-6 -3 -11 -3l-9 3l78 496q5 3 11 3z" />
    <glyph glyph-name="afii10094" unicode="&#x44c;" horiz-adv-x="475" 
d="M178 498l-34 -218q63 5 151 5q80 0 112 -32t23 -93l-6 -38q-21 -125 -175 -125l-169 5l78 496q5 3 11 3zM291 265h-150l-39 -248h150q72 0 107.5 26t44.5 79l6 38q9 53 -19 79t-100 26z" />
    <glyph glyph-name="afii10095" unicode="&#x44d;" horiz-adv-x="510" 
d="M448 243h-228l-1 10l4 10h228l16 97q9 63 -22 93t-119 30t-129 -30t-50 -93l-2 -10q-5 -3 -11 -3l-9 3l2 10q22 143 202 143q95 0 132 -36.5t26 -106.5l-35 -220q-12 -70 -60 -106.5t-143 -36.5q-52 0 -92.5 10t-54.5 20l-14 10l-1 10l5 11q6 -5 17 -11.5t52.5 -18
t90.5 -11.5q88 0 129 30t51 93z" />
    <glyph glyph-name="afii10096" unicode="&#x44e;" horiz-adv-x="660" 
d="M277 140l17 110h-155l-39 -248q-6 -3 -11 -3l-9 3l78 496q5 3 11 3l9 -3l-36 -228h155l15 90q22 143 187 143t143 -143l-35 -220q-24 -143 -188 -143q-166 0 -142 143zM332 360l-35 -220q-10 -62 19 -92.5t106 -30.5t116 30.5t49 92.5l35 220q9 62 -20 92.5t-106 30.5
t-116 -30.5t-48 -92.5z" />
    <glyph glyph-name="afii10097" unicode="&#x44f;" horiz-adv-x="485" 
d="M384 -1l35 218h-148l-191 -215q-7 -3 -13 -3l-12 3l192 215q-74 2 -103.5 33.5t-20.5 89.5l6 37q21 123 175 123l179 -5l-79 -496q-4 -3 -10 -3zM262 237h160l39 243h-160q-72 0 -107.5 -25.5t-44.5 -77.5l-6 -37q-8 -52 19.5 -77.5t99.5 -25.5z" />
    <glyph glyph-name="uni0450" unicode="&#x450;" 
d="M114 140l35 220q22 143 207 143q98 0 136 -36.5t27 -106.5l-18 -110q-71 -5 -176 -5h-175l-16 -105q-10 -63 22.5 -93t122.5 -30q52 0 98 10.5t66 20.5l20 10l1 -11l-5 -10q-6 -4 -19 -11t-60.5 -18t-103.5 -11q-98 0 -136 36.5t-26 106.5zM153 265h330l16 95
q9 63 -23.5 93t-122.5 30q-91 0 -133 -30t-51 -93zM394 582l-98 116q6 3 14 3l12 -3l98 -116q-6 -3 -14 -3z" />
    <glyph glyph-name="afii10071" unicode="&#x451;" 
d="M114 140l35 220q22 143 207 143q98 0 136 -36.5t27 -106.5l-18 -110q-71 -5 -176 -5h-175l-16 -105q-10 -63 22.5 -93t122.5 -30q52 0 98 10.5t66 20.5l20 10l1 -11l-5 -10q-6 -4 -19 -11t-60.5 -18t-103.5 -11q-98 0 -136 36.5t-26 106.5zM153 265h330l16 95
q9 63 -23.5 93t-122.5 30q-91 0 -133 -30t-51 -93zM288 673l-14 -91q-6 -3 -11 -3l-9 3l14 91q5 3 11 3zM498 673l-14 -91q-6 -3 -11 -3l-9 3l14 91q5 3 11 3z" />
    <glyph glyph-name="afii10099" unicode="&#x452;" horiz-adv-x="558" 
d="M443 -90l72 450q9 63 -14 93t-90 30q-65 0 -118 -16.5t-73 -32.5l-21 -16l-66 -416q-6 -3 -11 -3l-9 3l95 603h-60l-1 10l4 10h60l12 73q5 3 11 3l9 -3l-12 -73h200l2 -10l-5 -10h-200l-25 -158q8 6 24 15.5t71 25t116 15.5q76 0 104 -36.5t17 -106.5l-72 -450
q-18 -113 -128 -113q-29 0 -58 8l-2 10l5 11q26 -9 59 -9q50 0 73.5 23t30.5 70z" />
    <glyph glyph-name="afii10100" unicode="&#x453;" horiz-adv-x="405" 
d="M176 480l-76 -478q-6 -3 -11 -3l-9 3l78 493q74 5 186 5h97l1 -10l-4 -10h-262zM433 698l-134 -116q-8 -3 -14 -3l-12 3l134 116q6 3 14 3z" />
    <glyph glyph-name="afii10101" unicode="&#x454;" horiz-adv-x="510" 
d="M398 245h-248l-16 -105q-10 -63 21 -93t119 -30q50 0 95 10.5t65 20.5l19 10l1 -11l-5 -10q-6 -4 -19 -11t-59 -18t-100 -11q-95 0 -132 36.5t-25 106.5l35 220q22 143 202 143q95 0 132 -36.5t26 -106.5l-2 -10q-5 -3 -11 -3l-9 3l2 10q9 63 -22 93t-119 30t-129 -30
t-50 -93l-16 -95h248l2 -10z" />
    <glyph glyph-name="afii10102" unicode="&#x455;" horiz-adv-x="486" 
d="M160 370l-3 -20q-3 -20 6 -34.5t32 -24.5t43.5 -15.5t54.5 -12.5q39 -8 64 -15.5t51 -20.5t36.5 -32.5t6.5 -45.5l-3 -20q-10 -66 -56.5 -99.5t-140.5 -33.5t-129.5 36.5t-23.5 106.5v5q5 3 11 3l9 -3v-5q-10 -62 20.5 -92.5t115.5 -30.5t125 28t49 85l3 20
q6 40 -31.5 60.5t-109.5 34.5q-37 7 -61 14t-49 19t-36 30.5t-7 42.5l3 20q10 66 55 99.5t136 33.5q89 0 122 -36t22 -107l-1 -5q-5 -3 -11 -3l-9 3l1 5q9 62 -19.5 92.5t-107.5 30.5q-82 0 -120.5 -28t-47.5 -85z" />
    <glyph glyph-name="afii10103" unicode="&#x456;" horiz-adv-x="180" 
d="M210 698l-14 -91q-6 -3 -11 -3l-9 3l14 91q5 3 11 3zM178 498l-78 -496q-6 -3 -11 -3l-9 3l78 496q5 3 11 3z" />
    <glyph glyph-name="afii10104" unicode="&#x457;" horiz-adv-x="180" 
d="M178 498l-78 -496q-6 -3 -11 -3l-9 3l78 496q5 3 11 3zM140 698l-14 -91q-6 -3 -11 -3l-9 3l14 91q5 3 11 3zM280 698l-14 -91q-6 -3 -11 -3l-9 3l14 91q5 3 11 3z" />
    <glyph glyph-name="afii10105" unicode="&#x458;" horiz-adv-x="195" 
d="M80 -90l93 588q5 3 11 3l9 -3l-93 -588q-18 -113 -127 -113q-29 0 -58 8l-2 10l5 11q26 -9 59 -9q49 0 72.5 23t30.5 70zM225 698l-14 -91q-6 -3 -11 -3l-9 3l14 91q5 3 11 3z" />
    <glyph glyph-name="afii10106" unicode="&#x459;" horiz-adv-x="825" 
d="M159 140l99 356q53 5 135 5l135 -5l-34 -216q63 5 151 5q80 0 112 -32t23 -93l-6 -38q-21 -125 -175 -125l-169 5l76 478h-232l-95 -340q-22 -75 -50.5 -109t-86.5 -34l-1 10l4 10q50 0 72 28t42 95zM641 265h-150l-39 -248h150q72 0 107.5 26t44.5 79l6 38q9 53 -19 79
t-100 26z" />
    <glyph glyph-name="afii10107" unicode="&#x45a;" horiz-adv-x="825" 
d="M528 498l-34 -218q63 5 151 5q80 0 112 -32t23 -93l-6 -38q-21 -125 -175 -125l-169 5l39 248h-330l-39 -248q-6 -3 -11 -3l-9 3l78 496q5 3 11 3l9 -3l-36 -228h330l36 228q5 3 11 3zM641 265h-150l-39 -248h150q72 0 107.5 26t44.5 79l6 38q9 53 -19 79t-100 26z" />
    <glyph glyph-name="afii10108" unicode="&#x45b;" horiz-adv-x="558" 
d="M428 605h-200l-25 -158q8 6 24 15.5t71 25t116 15.5q76 0 104 -36.5t17 -106.5l-57 -358q-5 -3 -11 -3l-9 3l57 358q9 63 -14 93t-90 30q-65 0 -118 -16.5t-73 -32.5l-21 -16l-66 -416q-6 -3 -11 -3l-9 3l95 603h-60l-1 10l4 10h60l12 73q5 3 11 3l9 -3l-12 -73h200
l2 -10z" />
    <glyph glyph-name="afii10109" unicode="&#x45c;" horiz-adv-x="430" 
d="M375 2l-146 258l-92 -25l-37 -233q-6 -3 -11 -3l-9 3l78 496q5 3 11 3l9 -3l-38 -243l92 25l210 218q6 3 14 3l11 -3l-220 -228l153 -268q-6 -3 -14 -3zM416 698l-134 -116q-8 -3 -14 -3l-12 3l134 116q6 3 14 3z" />
    <glyph glyph-name="uni045D" unicode="&#x45d;" 
d="M528 498l-78 -496q-6 -3 -11 -3l-9 3l73 462l-403 -462q-6 -3 -11 -3l-9 3l78 496q5 3 11 3l9 -3l-73 -462l403 462q5 3 11 3zM382 582l-98 116q6 3 14 3l12 -3l98 -116q-6 -3 -14 -3z" />
    <glyph glyph-name="afii10110" unicode="&#x45e;" horiz-adv-x="501" 
d="M198 -90l52 90l-5 2l-119 496q6 3 12 3l9 -3l114 -476l263 476q6 3 12 3l10 -3l-327 -588q-32 -57 -65 -85t-79 -28l-37 4l-1 10l4 10q14 -4 38 -4q39 0 65.5 22.5t53.5 70.5zM353 600q-59 0 -81 22t-16 66l2 10q5 3 11 3l9 -3l-2 -10q-5 -35 13 -51.5t67 -16.5t72 16.5
t28 51.5l2 10q5 3 11 3l9 -3l-2 -10q-6 -44 -35 -66t-88 -22z" />
    <glyph glyph-name="afii10193" unicode="&#x45f;" 
d="M235 -128l20 127l-175 5l78 494q5 3 11 3l9 -3l-75 -478h330l75 478q6 3 11 3l9 -3l-78 -494q-68 -4 -175 -5l-20 -127q-4 -3 -10 -3z" />
    <glyph glyph-name="afii10050" unicode="&#x490;" horiz-adv-x="455" 
d="M207 680l-107 -678q-6 -3 -11 -3l-9 3l110 693q73 5 185 5h127l21 128q5 3 10 3l10 -3l-24 -148h-312z" />
    <glyph glyph-name="afii10098" unicode="&#x491;" horiz-adv-x="395" 
d="M423 480h-247l-76 -478q-6 -3 -11 -3l-9 3l78 493q74 5 186 5h62l20 128q5 3 10 3l10 -3z" />
    <glyph glyph-name="uni04D8" unicode="&#x4d8;" horiz-adv-x="610" 
d="M367 365h212l31 195q10 63 -30.5 93t-151.5 30t-162 -30t-61 -93l-2 -15q-5 -3 -11 -3l-9 3l2 15q22 143 246 143q117 0 163.5 -36.5t35.5 -106.5l-66 -420q-12 -70 -70 -106.5t-175 -36.5q-118 0 -165 36.5t-35 106.5l35 220q85 5 213 5zM171 345l-32 -205
q-10 -63 31 -93t152 -30t161.5 30t60.5 93l32 205h-405z" />
    <glyph glyph-name="afii10846" unicode="&#x4d9;" 
d="M519 360l-35 -220q-12 -70 -61 -106.5t-147 -36.5t-136 36.5t-26 106.5l19 120q70 5 175 5h175l16 95q9 63 -23.5 93t-122.5 30q-52 0 -97.5 -10.5t-65.5 -20.5l-20 -10l-2 11l5 10q6 4 19 11t60.5 18t103.5 11q98 0 136 -36.5t27 -106.5zM480 245h-330l-16 -105
q-10 -63 22.5 -93t122.5 -30t132.5 30t52.5 93z" />
    <glyph glyph-name="Wgrave" unicode="&#x1e80;" horiz-adv-x="925" 
d="M654 2l-85 675l-297 -675q-6 -3 -14 -3l-13 3l-97 696q6 3 12 3l10 -3l92 -676l298 676q5 3 13 3l12 -3l86 -676l305 676q5 3 11 3l10 -3l-316 -696q-7 -3 -15 -3zM606 752l-98 116q5 3 13 3l13 -3l98 -116q-6 -3 -14 -3z" />
    <glyph glyph-name="wgrave" unicode="&#x1e81;" horiz-adv-x="765" 
d="M534 2l-77 475l-225 -475q-6 -3 -14 -3l-13 3l-89 496q6 3 12 3l10 -3l84 -477l226 477q5 3 13 3l12 -3l77 -477l234 477q5 3 11 3l10 -3l-244 -496q-7 -3 -15 -3zM499 582l-98 116q6 3 14 3l12 -3l98 -116q-6 -3 -14 -3z" />
    <glyph glyph-name="Wacute" unicode="&#x1e82;" horiz-adv-x="925" 
d="M654 2l-85 675l-297 -675q-6 -3 -14 -3l-13 3l-97 696q6 3 12 3l10 -3l92 -676l298 676q5 3 13 3l12 -3l86 -676l305 676q5 3 11 3l10 -3l-316 -696q-7 -3 -15 -3zM690 868l-134 -116q-8 -3 -14 -3l-12 3l134 116q5 3 13 3z" />
    <glyph glyph-name="wacute" unicode="&#x1e83;" horiz-adv-x="765" 
d="M534 2l-77 475l-225 -475q-6 -3 -14 -3l-13 3l-89 496q6 3 12 3l10 -3l84 -477l226 477q5 3 13 3l12 -3l77 -477l234 477q5 3 11 3l10 -3l-244 -496q-7 -3 -15 -3zM583 698l-134 -116q-8 -3 -14 -3l-12 3l134 116q6 3 14 3z" />
    <glyph glyph-name="Wdieresis" unicode="&#x1e84;" horiz-adv-x="925" 
d="M654 2l-85 675l-297 -675q-6 -3 -14 -3l-13 3l-97 696q6 3 12 3l10 -3l92 -676l298 676q5 3 13 3l12 -3l86 -676l305 676q5 3 11 3l10 -3l-316 -696q-7 -3 -15 -3zM500 843l-14 -91q-6 -3 -11 -3l-9 3l14 91q4 3 10 3zM710 843l-14 -91q-6 -3 -11 -3l-9 3l14 91q4 3 10 3
z" />
    <glyph glyph-name="wdieresis" unicode="&#x1e85;" horiz-adv-x="765" 
d="M534 2l-77 475l-225 -475q-6 -3 -14 -3l-13 3l-89 496q6 3 12 3l10 -3l84 -477l226 477q5 3 13 3l12 -3l77 -477l234 477q5 3 11 3l10 -3l-244 -496q-7 -3 -15 -3zM397 698l-14 -91q-6 -3 -11 -3l-9 3l14 91q5 3 11 3zM607 698l-14 -91q-6 -3 -11 -3l-9 3l14 91q5 3 11 3
z" />
    <glyph glyph-name="Ygrave" unicode="&#x1ef2;" horiz-adv-x="536" 
d="M612 698l-284 -376l-50 -320q-6 -3 -11 -3l-9 3l50 320l-164 376q5 3 12 3l12 -3l153 -359l267 359q6 3 14 3zM412 752l-98 116q5 3 13 3l13 -3l98 -116q-6 -3 -14 -3z" />
    <glyph glyph-name="ygrave" unicode="&#x1ef3;" horiz-adv-x="501" 
d="M198 -90l52 90l-5 2l-119 496q6 3 12 3l9 -3l114 -476l263 476q6 3 12 3l10 -3l-327 -588q-32 -57 -65 -85t-79 -28l-37 4l-1 10l4 10q14 -4 38 -4q39 0 65.5 22.5t53.5 70.5zM367 582l-98 116q6 3 14 3l12 -3l98 -116q-6 -3 -14 -3z" />
    <glyph glyph-name="figuredash" unicode="&#x2012;" horiz-adv-x="506" 
d="M505 330h-400l-2 10l5 10h400l1 -10z" />
    <glyph glyph-name="endash" unicode="&#x2013;" horiz-adv-x="506" 
d="M498 281h-400l-2 10l5 10h400l1 -10z" />
    <glyph glyph-name="emdash" unicode="&#x2014;" horiz-adv-x="656" 
d="M647 280h-550l-2 10l5 10h550l1 -10z" />
    <glyph glyph-name="quoteleft" unicode="&#x2018;" horiz-adv-x="180" 
d="M164 532q5 34 15 64t20 48t19.5 31t15.5 18l6 5q6 3 11 3l9 -3q-6 -5 -16.5 -16.5t-31 -54.5t-28.5 -95q-5 -3 -11 -3z" />
    <glyph glyph-name="quoteright" unicode="&#x2019;" horiz-adv-x="180" 
d="M210 698q-5 -34 -15 -64t-20 -48t-19.5 -31t-15.5 -18l-6 -5q-6 -3 -11 -3l-9 3q6 5 16 16.5t31 54.5t29 95q5 3 11 3z" />
    <glyph glyph-name="quotesinglbase" unicode="&#x201a;" horiz-adv-x="180" 
d="M112 78q-9 -55 -28 -96.5t-34 -55.5l-14 -14q-6 -3 -11 -3l-9 3q6 5 16 16.5t31 54.5t29 95q4 3 10 3z" />
    <glyph glyph-name="quotedblleft" unicode="&#x201c;" horiz-adv-x="280" 
d="M164 532q5 34 15 64t20 48t19.5 31t15.5 18l6 5q6 3 11 3l9 -3q-6 -5 -16.5 -16.5t-31 -54.5t-28.5 -95q-5 -3 -11 -3zM264 532q5 34 15 64t20 48t19.5 31t15.5 18l6 5q6 3 11 3l9 -3q-6 -5 -16.5 -16.5t-31 -54.5t-28.5 -95q-5 -3 -11 -3z" />
    <glyph glyph-name="quotedblright" unicode="&#x201d;" horiz-adv-x="280" 
d="M210 698q-5 -34 -15 -64t-20 -48t-19.5 -31t-15.5 -18l-6 -5q-6 -3 -11 -3l-9 3q6 5 16 16.5t31 54.5t29 95q5 3 11 3zM310 698q-5 -34 -15 -64t-20 -48t-19.5 -31t-15.5 -18l-6 -5q-6 -3 -11 -3l-9 3q6 5 16 16.5t31 54.5t29 95q5 3 11 3z" />
    <glyph glyph-name="quotedblbase" unicode="&#x201e;" horiz-adv-x="280" 
d="M112 78q-9 -55 -28 -96.5t-34 -55.5l-14 -14q-6 -3 -11 -3l-9 3q6 5 16 16.5t31 54.5t29 95q4 3 10 3zM212 78q-9 -55 -28 -96.5t-34 -55.5l-14 -14q-6 -3 -11 -3l-9 3q6 5 16 16.5t31 54.5t29 95q4 3 10 3z" />
    <glyph glyph-name="dagger" unicode="&#x2020;" horiz-adv-x="380" 
d="M409 480h-133l-92 -578q-5 -3 -10 -3l-10 3l92 578h-132l-2 10l5 10h132l31 198q5 3 11 3l9 -3l-31 -198h133l1 -10z" />
    <glyph glyph-name="daggerdbl" unicode="&#x2021;" horiz-adv-x="380" 
d="M348 100h-133l-31 -198q-5 -3 -10 -3l-10 3l31 198h-132l-1 10l5 10h132l57 360h-132l-2 10l5 10h132l31 198q5 3 11 3l9 -3l-31 -198h133l1 -10l-4 -10h-133l-57 -360h133l1 -10z" />
    <glyph glyph-name="bullet" unicode="&#x2022;" horiz-adv-x="290" 
d="M288 392q-1 -43 -9 -92l-21 -92q-49 -7 -97 -7q-21 0 -45 1.5t-37 3.5l-13 2q1 42 9 92l21 92q49 7 97 7q21 0 45 -1.5t37 -3.5z" />
    <glyph glyph-name="ellipsis" unicode="&#x2026;" horiz-adv-x="500" 
d="M114 78l-12 -76q-7 -3 -13 -3l-11 3l12 76q5 3 12 3zM274 78l-12 -76q-7 -3 -13 -3l-11 3l12 76q5 3 12 3zM434 78l-12 -76q-7 -3 -13 -3l-11 3l12 76q5 3 12 3z" />
    <glyph glyph-name="perthousand" unicode="&#x2030;" horiz-adv-x="875" 
d="M320 101l5 28q17 104 131 104q116 0 99 -104l-5 -28q-15 -104 -131 -104q-114 0 -99 104zM610 101l5 28q17 104 131 104q116 0 99 -104l-5 -28q-15 -104 -131 -104q-114 0 -99 104zM140 571l4 28q17 104 132 104t98 -104l-4 -28q-17 -104 -132 -104t-98 104zM345 129
l-5 -28q-6 -43 12.5 -63.5t69.5 -20.5t76.5 20.5t31.5 63.5l5 28q7 43 -12 63.5t-70 20.5t-76 -20.5t-32 -63.5zM635 129l-5 -28q-6 -43 12.5 -63.5t69.5 -20.5t76.5 20.5t31.5 63.5l5 28q7 43 -12 63.5t-70 20.5t-76 -20.5t-32 -63.5zM164 599l-4 -28q-7 -43 12 -63.5
t70 -20.5t76 20.5t32 63.5l4 28q7 43 -11.5 63.5t-69.5 20.5q-96 0 -109 -84zM677 698l-583 -696q-8 -3 -13 -3l-11 3l583 696q5 3 13 3z" />
    <glyph glyph-name="guilsinglleft" unicode="&#x2039;" horiz-adv-x="285" 
d="M94 270l196 169q5 -1 8 -5l4 -9l-180 -155l131 -155q-2 -5 -7 -9l-10 -5z" />
    <glyph glyph-name="guilsinglright" unicode="&#x203a;" horiz-adv-x="285" 
d="M277 270l-196 -169q-4 1 -8 5l-3 9l179 155l-130 155q2 5 6 9l10 5z" />
    <glyph glyph-name="fraction" unicode="&#x2044;" horiz-adv-x="595" 
d="M657 698l-583 -696q-8 -3 -13 -3l-11 3l583 696q5 3 13 3z" />
    <glyph glyph-name="Euro" unicode="&#x20ac;" horiz-adv-x="640" 
d="M499 275h-316l-21 -135q-10 -63 30.5 -93t151.5 -30q63 0 118.5 11.5t79.5 23.5l24 11l2 -11l-5 -10q-8 -5 -23.5 -12.5t-73 -20t-125.5 -12.5q-118 0 -164.5 36.5t-34.5 106.5l21 135h-60l-1 10l4 10h60l17 109h-59l-1 10l5 10h59l21 136q22 143 245 143
q117 0 164 -36.5t36 -106.5l-2 -15q-5 -3 -11 -3l-9 3l2 15q10 63 -31 93t-152 30t-161.5 -30t-60.5 -93l-21 -136h317l1 -10l-5 -10h-317l-17 -109h316l2 -10z" />
    <glyph glyph-name="uni20B4" unicode="&#x20b4;" horiz-adv-x="540" 
d="M527 275h-307q-9 -7 -23.5 -18.5t-41 -47t-31.5 -69.5q-10 -63 26 -93t137 -30q57 0 107 11.5t72 23.5l22 11l2 -11l-5 -10q-7 -5 -21.5 -12.5t-66.5 -20t-114 -12.5q-107 0 -149 36.5t-30 106.5q5 33 27 66.5t42 51.5l20 17h-85l-1 10l4 10h419l2 -10zM564 405h-419
l-2 10l5 10h317q3 3 8 7.5t18.5 19t24 29.5t21 37t13.5 42q10 63 -26 93t-137 30q-57 0 -107.5 -11.5t-72.5 -23.5l-22 -11l-1 11l5 10q7 5 21.5 12.5t66.5 20t114 12.5q107 0 148.5 -36.5t30.5 -106.5q-5 -34 -25 -68t-37 -50l-18 -17h77l1 -10z" />
    <glyph glyph-name="afii61352" unicode="&#x2116;" horiz-adv-x="1095" 
d="M716 390l27 170q22 143 203 143q93 0 130.5 -36.5t26.5 -106.5l-27 -170q-22 -143 -202 -143q-93 0 -131 36.5t-27 106.5zM763 560l-7 -42q-6 -43 -13 -86l-7 -42q-9 -62 23 -92.5t118 -30.5t128 30.5t51 92.5l27 170q10 62 -22 92.5t-118 30.5t-128 -30.5t-52 -92.5z
M80 2l110 696q5 3 11 3l9 -3l311 -660l104 660q5 3 11 3l9 -3l-110 -696q-5 -3 -11 -3l-9 3l-311 660l-104 -660q-5 -3 -11 -3zM1010 0h-350l-2 10l5 10h350l1 -10z" />
    <glyph glyph-name="trademark" unicode="&#x2122;" horiz-adv-x="658" 
d="M376 684h-104l-53 -333q-6 -2 -11 -2l-10 2l53 333h-107l-1 8l3 8h232l1 -8zM731 699l-55 -348q-5 -2 -10 -2l-10 2l50 312l-160 -251q-5 -2 -11 -2l-10 2l-79 250l-49 -311q-5 -2 -10 -2l-10 2l55 347q0 2 12 2l13 -2l82 -263l167 264q7 2 13 2z" />
    <glyph glyph-name="arrowleft" unicode="&#x2190;" horiz-adv-x="1156" 
d="M423 -4l-298 354l410 354l12 -15l-382 -329h948l-4 -20h-948l278 -329z" />
    <glyph glyph-name="arrowup" unicode="&#x2191;" horiz-adv-x="848" 
d="M377 -233l150 948l-382 -330l-12 14l410 354l298 -354l-18 -14l-276 330l-150 -948h-20z" />
    <glyph glyph-name="arrowright" unicode="&#x2192;" horiz-adv-x="1156" 
d="M153 340l4 20h948l-278 329l16 15l298 -354l-410 -354l-12 15l382 329h-948z" />
    <glyph glyph-name="arrowdown" unicode="&#x2193;" horiz-adv-x="848" 
d="M386 -236l-298 354l17 14l277 -330l150 948h20l-150 -948l381 330l13 -14z" />
    <glyph glyph-name="uni2196" unicode="&#x2196;" horiz-adv-x="874" 
d="M131 200l79 500h500l-3 -20h-466l564 -670l-16 -14l-564 670l-74 -466h-20z" />
    <glyph glyph-name="uni2197" unicode="&#x2197;" horiz-adv-x="874" 
d="M381 680l3 20h500l-79 -500h-20l74 466l-776 -670l-12 14l776 670h-466z" />
    <glyph glyph-name="uni2198" unicode="&#x2198;" horiz-adv-x="874" 
d="M274 0l3 20h466l-564 670l16 14l564 -670l74 466h20l-79 -500h-500z" />
    <glyph glyph-name="uni2199" unicode="&#x2199;" horiz-adv-x="874" 
d="M100 0l79 500h20l-74 -466l776 670l12 -14l-776 -670h466l-3 -20h-500z" />
    <glyph glyph-name="minus" unicode="&#x2212;" horiz-adv-x="422" 
d="M421 330h-316l-2 10l5 10h316l1 -10z" />
    <glyph glyph-name="commaaccent" unicode="&#xf6c3;" horiz-adv-x="180" 
d="M91 -52q-7 -45 -26.5 -81.5t-35.5 -50.5l-16 -14q-5 -3 -10 -3l-9 3q7 5 17.5 16t31.5 48.5t28 81.5q5 3 11 3z" />
    <glyph glyph-name="dollaroldstyle" unicode="&#xf724;" horiz-adv-x="486" 
d="M159 370l-3 -20q-3 -20 6 -34.5t32 -24.5t43.5 -15.5t54.5 -12.5q39 -8 64 -15.5t51 -20.5t36.5 -32.5t6.5 -45.5l-3 -20q-20 -129 -187 -133l-15 -94q-5 -3 -10 -3l-10 3l15 94q-88 2 -121 38t-22 105v5q5 3 11 3l9 -3v-5q-10 -62 20.5 -92.5t115.5 -30.5t125 28t49 85
l3 20q6 40 -31.5 60.5t-109.5 34.5q-37 7 -61 14t-49 19t-36 30.5t-7 42.5l3 20q21 129 181 133l15 95q5 3 11 3l9 -3l-15 -95q83 -2 113.5 -38.5t20.5 -104.5l-1 -5q-5 -3 -11 -3l-9 3l1 5q9 62 -19.5 92.5t-107.5 30.5q-82 0 -120.5 -28t-47.5 -85z" />
    <glyph glyph-name="zerooldstyle" unicode="&#xf730;" horiz-adv-x="560" 
d="M126 140l35 220q22 143 222 143q104 0 146.5 -36.5t31.5 -106.5l-35 -220q-24 -143 -223 -143q-201 0 -177 143zM181 360l-9 -55q-8 -55 -17 -110l-9 -55q-10 -62 27 -92.5t133 -30.5t143 30.5t57 92.5l35 220q9 62 -28 92.5t-133 30.5t-143 -30.5t-56 -92.5z" />
    <glyph glyph-name="oneoldstyle" unicode="&#xf731;" horiz-adv-x="302" 
d="M261 501l-79 -499q-6 -3 -11 -3l-9 3l75 476l-123 2l-1 9l3 9q59 3 145 3z" />
    <glyph glyph-name="twooldstyle" unicode="&#xf732;" horiz-adv-x="516" 
d="M480 342l3 18q9 63 -25 93t-126 30q-86 0 -131.5 -35.5t-53.5 -87.5l-3 -15q-4 -3 -10 -3l-10 3l3 15q9 58 61 100.5t147 42.5q101 0 140 -35.5t28 -107.5l-3 -18q-7 -46 -48.5 -78.5t-96.5 -52t-109.5 -38.5t-95.5 -50.5t-48 -74.5l-4 -28h350l1 -10l-4 -10h-185l-185 5
l7 43q8 49 49.5 83.5t96.5 54t109.5 38t95 47.5t47.5 71z" />
    <glyph glyph-name="threeoldstyle" unicode="&#xf733;" horiz-adv-x="553" 
d="M154 480l-2 10l5 10h394l1 -10l-4 -10l-274 -288q77 0 126 -12.5t68.5 -33.5t26 -49.5t-1.5 -61.5l-13 -81q-24 -157 -235 -157q-66 0 -117 11t-68 22l-18 12l-1 10l5 11q7 -5 21.5 -12.5t67 -20.5t114.5 -13q102 0 151 33.5t60 103.5l13 81q11 71 -32.5 104t-155.5 33
h-40l-2 10l5 10l274 288h-368z" />
    <glyph glyph-name="fouroldstyle" unicode="&#xf734;" horiz-adv-x="520" 
d="M447 298l-44 -278h82l1 -10l-4 -10h-82l-32 -198q-5 -3 -10 -3l-10 3l32 198h-322l-2 10l286 488q6 3 13 3l11 -3l-281 -478h298l44 278q4 3 10 3z" />
    <glyph glyph-name="fiveoldstyle" unicode="&#xf735;" horiz-adv-x="543" 
d="M211 480l-63 -280h151q118 0 155 -41.5t25 -115.5l-14 -89q-24 -157 -225 -157q-66 0 -117 11t-69 22l-17 12l-1 10l5 11q7 -5 21.5 -12.5t67 -20.5t114.5 -13q96 0 143 33.5t58 103.5l14 89q12 70 -26 103.5t-137 33.5h-170l-1 10l68 305q74 5 186 5h132l1 -10l-4 -10
h-297z" />
    <glyph glyph-name="sixoldstyle" unicode="&#xf736;" horiz-adv-x="570" 
d="M170 372q9 6 27 15.5t80 25t131 15.5q85 0 117.5 -36.5t21.5 -106.5l-23 -145q-24 -143 -228 -143q-106 0 -150 36.5t-32 106.5l62 394q13 83 67.5 125.5t161.5 42.5q53 0 96.5 -6t60.5 -12l17 -7l1 -10l-5 -11q-59 26 -173 26q-100 0 -147 -36t-59 -111zM166 343
l-32 -203q-10 -62 28 -92.5t137 -30.5t147 30.5t58 92.5l23 145q9 63 -17.5 93t-103.5 30q-47 0 -89 -6.5t-68.5 -16t-46 -19.5t-28.5 -16z" />
    <glyph glyph-name="sevenoldstyle" unicode="&#xf737;" horiz-adv-x="520" 
d="M542 490l-392 -688q-5 -3 -12 -3l-12 3l389 678h-381l-2 10l5 10h404z" />
    <glyph glyph-name="eightoldstyle" unicode="&#xf738;" horiz-adv-x="580" 
d="M185 493l10 67q22 143 218 143q101 0 142 -36.5t30 -106.5l-10 -67q-17 -105 -126 -132q115 -26 98 -134l-13 -87q-24 -143 -233 -143q-109 0 -154 36.5t-33 106.5l13 87q17 108 141 134q-100 27 -83 132zM147 227l-13 -87q-10 -62 29 -92.5t141 -30.5t151 30.5t59 92.5
l13 87q10 62 -29 92.5t-141 30.5t-151 -30.5t-59 -92.5zM215 560l-10 -67q-10 -62 25.5 -92.5t129.5 -30.5t139.5 30.5t55.5 92.5l10 67q10 62 -25.5 92.5t-129.5 30.5t-139.5 -30.5t-55.5 -92.5z" />
    <glyph glyph-name="nineoldstyle" unicode="&#xf739;" horiz-adv-x="570" 
d="M464 -36l28 178q-9 -6 -27 -15.5t-80 -25t-131 -15.5q-85 0 -117 36t-21 107l20 130q24 143 228 143q106 0 150 -36.5t32 -106.5l-62 -394q-13 -83 -67 -125.5t-160 -42.5q-52 0 -96 6.5t-62 12.5l-18 6l-1 10l5 11q64 -26 176 -26q99 0 145 36t58 111zM497 171l29 188
q10 62 -28 92.5t-137 30.5t-147 -30.5t-58 -92.5l-20 -130q-10 -63 16.5 -93t103.5 -30q47 0 89 6.5t68.5 16t46.5 19.5t28 16z" />
    <glyph glyph-name="NULL" horiz-adv-x="0" 
 />
    <glyph glyph-name="T_h" horiz-adv-x="1055" 
d="M740 695l-40 -248q8 6 24 15.5t71 25t116 15.5q76 0 104 -36.5t17 -106.5l-57 -358q-5 -3 -11 -3l-9 3l57 358q9 63 -14 93t-90 30q-65 0 -118 -16.5t-74 -32.5l-20 -16l-66 -416q-6 -3 -11 -3l-9 3l107 678h-325l-107 -678q-6 -3 -11 -3l-9 3l107 678h-222l-1 10l4 10
h407z" />
    <glyph glyph-name="T_h.caron" horiz-adv-x="1055" 
d="M740 695l-40 -248q8 6 24 15.5t71 25t116 15.5q76 0 104 -36.5t17 -106.5l-57 -358q-5 -3 -11 -3l-9 3l57 358q9 63 -14 93t-90 30q-65 0 -118 -16.5t-74 -32.5l-20 -16l-66 -416q-6 -3 -11 -3l-9 3l107 678h-325l-107 -678q-6 -3 -11 -3l-9 3l107 678h-222l-1 10l4 10
h407zM317 858l79 -93l107 93q8 3 14 3l12 -3l-122 -106q-6 -3 -14 -3l-12 3l-90 106q6 3 14 3z" />
    <glyph glyph-name="T_h.commaaccent" horiz-adv-x="1055" 
d="M740 695l-40 -248q8 6 24 15.5t71 25t116 15.5q76 0 104 -36.5t17 -106.5l-57 -358q-5 -3 -11 -3l-9 3l57 358q9 63 -14 93t-90 30q-65 0 -118 -16.5t-74 -32.5l-20 -16l-66 -416q-6 -3 -11 -3l-9 3l107 678h-325l-107 -678q-6 -3 -11 -3l-9 3l107 678h-222l-1 10l4 10
h407zM277 -52q-7 -45 -26.5 -81.5t-35.5 -50.5l-16 -14q-5 -3 -10 -3l-10 3q7 5 18 16t32 48.5t28 81.5q5 3 11 3z" />
    <glyph glyph-name="A.smcp" horiz-adv-x="490" 
d="M36 2l277 521q7 3 15 3l12 -3l114 -521q-7 -3 -11 -3l-10 3l-36 160h-255l-85 -160q-6 -3 -12 -3zM324 505l-173 -325h243z" />
    <glyph glyph-name="Aacute.smcp" horiz-adv-x="490" 
d="M36 2l277 521q7 3 15 3l12 -3l114 -521q-7 -3 -11 -3l-10 3l-36 160h-255l-85 -160q-6 -3 -12 -3zM324 505l-173 -325h243zM422 652l-108 -88q-6 -2 -11 -2l-12 2l107 88q4 2 12 2z" />
    <glyph glyph-name="Abreve.smcp" horiz-adv-x="490" 
d="M36 2l277 521q7 3 15 3l12 -3l114 -521q-7 -3 -11 -3l-10 3l-36 160h-255l-85 -160q-6 -3 -12 -3zM324 505l-173 -325h243zM333 562q-48 0 -66 17t-13 50l1 7q5 3 10 3l8 -3l-1 -7q-4 -26 10 -38.5t53 -12.5t57 12.5t22 38.5l1 7q5 3 11 3l8 -3l-1 -7q-11 -67 -100 -67z
" />
    <glyph glyph-name="Acircumflex.smcp" horiz-adv-x="490" 
d="M36 2l277 521q7 3 15 3l12 -3l114 -521q-7 -3 -11 -3l-10 3l-36 160h-255l-85 -160q-6 -3 -12 -3zM324 505l-173 -325h243zM407 564l-63 69l-84 -69q-7 -2 -12 -2l-11 2l97 81q5 2 12 2l12 -2l72 -81q-5 -2 -11 -2z" />
    <glyph glyph-name="Agrave.smcp" horiz-adv-x="490" 
d="M36 2l277 521q7 3 15 3l12 -3l114 -521q-7 -3 -11 -3l-10 3l-36 160h-255l-85 -160q-6 -3 -12 -3zM324 505l-173 -325h243zM353 564l-80 88q5 2 12 2l12 -2l78 -88q-4 -2 -11 -2z" />
    <glyph glyph-name="Adieresis.smcp" horiz-adv-x="490" 
d="M36 2l277 521q7 3 15 3l12 -3l114 -521q-7 -3 -11 -3l-10 3l-36 160h-255l-85 -160q-6 -3 -12 -3zM324 505l-173 -325h243zM270 633l-11 -69q-5 -2 -10 -2l-9 2l11 69q4 2 9 2zM438 633l-11 -69q-5 -2 -10 -2l-9 2l11 69q4 2 9 2z" />
    <glyph glyph-name="Amacron.smcp" horiz-adv-x="490" 
d="M36 2l277 521q7 3 15 3l12 -3l114 -521q-7 -3 -11 -3l-10 3l-36 160h-255l-85 -160q-6 -3 -12 -3zM324 505l-173 -325h243zM423 581h-173l-2 9l4 8h173l2 -8z" />
    <glyph glyph-name="Aogonek.smcp" horiz-adv-x="490" 
d="M386 -61q4 33 48 62l-1 1l-36 160h-255l-85 -160q-6 -3 -12 -3l-9 3l277 521q7 3 15 3l12 -3l114 -521q-2 -1 -3 -2q-44 -31 -48 -61q-3 -18 7 -27.5t33 -9.5q14 0 27.5 4t20.5 8l7 3l2 -9l-4 -8q-20 -14 -57 -14q-61 0 -53 53zM324 505l-173 -325h243z" />
    <glyph glyph-name="Aring.smcp" horiz-adv-x="490" 
d="M36 2l277 521q7 3 15 3l12 -3l114 -521q-7 -3 -11 -3l-10 3l-36 160h-255l-85 -160q-6 -3 -12 -3zM324 505l-173 -325h243zM280 608l2 14q8 48 68 48q61 0 53 -48l-2 -14q-8 -48 -69 -48q-30 0 -43 12.5t-9 35.5zM299 622l-2 -14q-3 -16 6 -24t32 -8q43 0 49 32l2 14
q5 32 -39 32q-43 0 -48 -32z" />
    <glyph glyph-name="Atilde.smcp" horiz-adv-x="490" 
d="M36 2l277 521q7 3 15 3l12 -3l114 -521q-7 -3 -11 -3l-10 3l-36 160h-255l-85 -160q-6 -3 -12 -3zM324 505l-173 -325h243zM224 564v4q9 53 66 53q28 0 52.5 -21.5t44.5 -21.5q40 0 46 37l1 4q3 2 9 2l8 -2l-1 -4q-8 -53 -64 -53q-28 0 -53 21t-45 21q-40 0 -46 -36v-4
q-3 -2 -9 -2z" />
    <glyph glyph-name="AE.smcp" horiz-adv-x="594" 
d="M317 261l-39 -243h267l1 -9l-3 -9h-138l-149 4l25 158h-139l-85 -160q-6 -3 -12 -3l-9 3l277 521q71 2 175 2h134q1 -4 0 -9l-3 -9h-263l-36 -228h235q1 -4 0 -9l-3 -9h-235zM325 507l-174 -327h133l52 327h-11z" />
    <glyph glyph-name="AEacute.smcp" horiz-adv-x="594" 
d="M317 261l-39 -243h267l1 -9l-3 -9h-138l-149 4l25 158h-139l-85 -160q-6 -3 -12 -3l-9 3l277 521q71 2 175 2h134q1 -4 0 -9l-3 -9h-263l-36 -228h235q1 -4 0 -9l-3 -9h-235zM325 507l-174 -327h133l52 327h-11zM515 652l-108 -88q-6 -2 -11 -2l-11 2l106 88q4 2 12 2z
" />
    <glyph glyph-name="B.smcp" horiz-adv-x="473" 
d="M73 2l82 521q70 4 166 4q84 0 118.5 -29.5t25.5 -86.5l-6 -33q-14 -88 -109 -108q101 -20 87 -110l-7 -43q-19 -119 -193 -119zM134 261l-39 -245h145q83 0 121.5 24.5t47.5 76.5l7 43q8 51 -23.5 76t-113.5 25h-145zM173 509l-36 -230h145q76 0 112.5 24.5t44.5 74.5
l6 33q8 50 -21.5 74t-105.5 24h-145z" />
    <glyph glyph-name="C.smcp" horiz-adv-x="499" 
d="M97 107l50 311q17 109 196 109q94 0 132 -27.5t29 -81.5l-2 -11q-4 -2 -9 -2l-10 2l2 11q7 47 -25.5 69t-119.5 22t-126.5 -22t-46.5 -69l-50 -311q-7 -47 25.5 -69t119.5 -22q50 0 94.5 8.5t63.5 17.5l19 8l1 -10l-4 -9q-55 -33 -177 -33q-95 0 -132.5 27.5t-29.5 81.5z
" />
    <glyph glyph-name="Cacute.smcp" horiz-adv-x="499" 
d="M97 107l50 311q17 109 196 109q94 0 132 -27.5t29 -81.5l-2 -11q-4 -2 -9 -2l-10 2l2 11q7 47 -25.5 69t-119.5 22t-126.5 -22t-46.5 -69l-50 -311q-7 -47 25.5 -69t119.5 -22q50 0 94.5 8.5t63.5 17.5l19 8l1 -10l-4 -9q-55 -33 -177 -33q-95 0 -132.5 27.5t-29.5 81.5z
M435 652l-108 -88q-6 -2 -11 -2l-11 2l106 88q5 2 12 2z" />
    <glyph glyph-name="Ccaron.smcp" horiz-adv-x="499" 
d="M97 107l50 311q17 109 196 109q94 0 132 -27.5t29 -81.5l-2 -11q-4 -2 -9 -2l-10 2l2 11q7 47 -25.5 69t-119.5 22t-126.5 -22t-46.5 -69l-50 -311q-7 -47 25.5 -69t119.5 -22q50 0 94.5 8.5t63.5 17.5l19 8l1 -10l-4 -9q-55 -33 -177 -33q-95 0 -132.5 27.5t-29.5 81.5z
M286 645l63 -69l85 69q6 2 11 2l11 -2l-97 -81q-5 -2 -12 -2l-12 2l-72 81q5 2 12 2z" />
    <glyph glyph-name="Ccedilla.smcp" horiz-adv-x="499" 
d="M97 107l50 311q17 109 196 109q94 0 132 -27.5t29 -81.5l-2 -11q-4 -2 -9 -2l-10 2l2 11q7 47 -25.5 69t-119.5 22t-126.5 -22t-46.5 -69l-50 -311q-7 -47 25.5 -69t119.5 -22q50 0 94.5 8.5t63.5 17.5l19 8l1 -10l-4 -9q-53 -32 -171 -33l-1 -5q-2 -12 7 -18t20.5 -8
t20 -9t6.5 -20l-1 -6q-8 -47 -71 -47q-35 0 -46 11.5t-7 35.5v3q5 2 10 2l7 -2v-3q-3 -18 5 -24.5t34 -6.5q25 0 36 7t14 24l1 6q1 8 -8 12.5t-20.5 6.5t-19.5 11t-6 25l1 5q-88 1 -123 29t-27 80z" />
    <glyph glyph-name="Ccircumflex.smcp" horiz-adv-x="499" 
d="M97 107l50 311q17 109 196 109q94 0 132 -27.5t29 -81.5l-2 -11q-4 -2 -9 -2l-10 2l2 11q7 47 -25.5 69t-119.5 22t-126.5 -22t-46.5 -69l-50 -311q-7 -47 25.5 -69t119.5 -22q50 0 94.5 8.5t63.5 17.5l19 8l1 -10l-4 -9q-55 -33 -177 -33q-95 0 -132.5 27.5t-29.5 81.5z
M421 564l-63 69l-85 -69q-6 -2 -11 -2l-12 2l98 81q5 2 12 2l12 -2l71 -81q-4 -2 -11 -2z" />
    <glyph glyph-name="Cdotaccent.smcp" horiz-adv-x="499" 
d="M97 107l50 311q17 109 196 109q94 0 132 -27.5t29 -81.5l-2 -11q-4 -2 -9 -2l-10 2l2 11q7 47 -25.5 69t-119.5 22t-126.5 -22t-46.5 -69l-50 -311q-7 -47 25.5 -69t119.5 -22q50 0 94.5 8.5t63.5 17.5l19 8l1 -10l-4 -9q-55 -33 -177 -33q-95 0 -132.5 27.5t-29.5 81.5z
M368 633l-11 -69q-5 -2 -10 -2l-10 2l11 69q4 3 10 3z" />
    <glyph glyph-name="D.smcp" horiz-adv-x="496" 
d="M155 523q66 4 166 4q96 0 136.5 -28t31.5 -81l-50 -311q-16 -109 -202 -109l-164 4zM173 509l-78 -493h145q89 0 130.5 22.5t48.5 68.5l50 311q7 46 -28 68.5t-123 22.5h-145z" />
    <glyph glyph-name="Dcaron.smcp" horiz-adv-x="496" 
d="M155 523q66 4 166 4q96 0 136.5 -28t31.5 -81l-50 -311q-16 -109 -202 -109l-164 4zM173 509l-78 -493h145q89 0 130.5 22.5t48.5 68.5l50 311q7 46 -28 68.5t-123 22.5h-145zM268 645l63 -69l85 69q6 2 11 2l11 -2l-97 -81q-5 -2 -12 -2l-12 2l-72 81q5 2 12 2z" />
    <glyph glyph-name="Dcroat.smcp" horiz-adv-x="522" 
d="M181 523q66 4 166 4q96 0 136.5 -28t31.5 -81l-50 -311q-16 -109 -202 -109l-164 4l41 259h-47l-2 9l5 9h47zM325 261h-165l-39 -245h145q89 0 130.5 22.5t48.5 68.5l50 311q7 46 -28 68.5t-123 22.5h-145l-36 -230h165q1 -4 0 -9z" />
    <glyph glyph-name="Eth.smcp" horiz-adv-x="522" 
d="M181 523q66 4 166 4q96 0 136.5 -28t31.5 -81l-50 -311q-16 -109 -202 -109l-164 4l41 259h-47l-2 9l5 9h47zM325 261h-165l-39 -245h145q89 0 130.5 22.5t48.5 68.5l50 311q7 46 -28 68.5t-123 22.5h-145l-36 -230h165q1 -4 0 -9z" />
    <glyph glyph-name="Thorn.smcp" horiz-adv-x="422" 
d="M175 523l-17 -110q46 3 116 3q75 0 105.5 -28t21.5 -82l-10 -63q-17 -109 -161 -109l-116 3l-21 -135q-6 -3 -11 -3l-9 3l82 521q5 3 11 3zM156 398l-39 -246h115q67 0 99 22.5t40 68.5l10 63q7 47 -18.5 69.5t-91.5 22.5h-115z" />
    <glyph glyph-name="E.smcp" horiz-adv-x="443" 
d="M134 261l-39 -243h299l1 -9l-3 -9h-170l-149 4l82 517q60 4 150 4h166q1 -4 0 -9l-3 -9h-295l-36 -228h267l1 -9l-4 -9h-267z" />
    <glyph glyph-name="Eacute.smcp" horiz-adv-x="443" 
d="M134 261l-39 -243h299l1 -9l-3 -9h-170l-149 4l82 517q60 4 150 4h166q1 -4 0 -9l-3 -9h-295l-36 -228h267l1 -9l-4 -9h-267zM407 652l-107 -88q-6 -2 -12 -2l-11 2l106 88q5 2 12 2z" />
    <glyph glyph-name="Ebreve.smcp" horiz-adv-x="443" 
d="M134 261l-39 -243h299l1 -9l-3 -9h-170l-149 4l82 517q60 4 150 4h166q1 -4 0 -9l-3 -9h-295l-36 -228h267l1 -9l-4 -9h-267zM311 562q-48 0 -66 17t-13 50l1 7q5 3 10 3l8 -3l-1 -7q-4 -27 10 -39t53 -12t57 12.5t22 38.5l1 7q5 3 10 3l8 -3l-1 -7q-5 -34 -28 -50.5
t-71 -16.5z" />
    <glyph glyph-name="Ecaron.smcp" horiz-adv-x="443" 
d="M134 261l-39 -243h299l1 -9l-3 -9h-170l-149 4l82 517q60 4 150 4h166q1 -4 0 -9l-3 -9h-295l-36 -228h267l1 -9l-4 -9h-267zM262 645l63 -69l85 69q6 2 11 2l11 -2l-97 -81q-5 -2 -12 -2l-12 2l-72 81q5 2 12 2z" />
    <glyph glyph-name="Ecircumflex.smcp" horiz-adv-x="443" 
d="M134 261l-39 -243h299l1 -9l-3 -9h-170l-149 4l82 517q60 4 150 4h166q1 -4 0 -9l-3 -9h-295l-36 -228h267l1 -9l-4 -9h-267zM397 564l-63 69l-85 -69q-6 -2 -11 -2l-12 2l98 81q5 2 12 2l12 -2l71 -81q-4 -2 -11 -2z" />
    <glyph glyph-name="Edieresis.smcp" horiz-adv-x="443" 
d="M134 261l-39 -243h299l1 -9l-3 -9h-170l-149 4l82 517q60 4 150 4h166q1 -4 0 -9l-3 -9h-295l-36 -228h267l1 -9l-4 -9h-267zM259 633l-11 -69q-4 -2 -9 -2l-10 2l11 69q4 2 10 2zM427 633l-11 -69q-4 -2 -9 -2l-10 2l11 69q4 2 10 2z" />
    <glyph glyph-name="Edotaccent.smcp" horiz-adv-x="443" 
d="M134 261l-39 -243h299l1 -9l-3 -9h-170l-149 4l82 517q60 4 150 4h166q1 -4 0 -9l-3 -9h-295l-36 -228h267l1 -9l-4 -9h-267zM348 633l-11 -69q-5 -2 -10 -2l-10 2l11 69q4 3 10 3z" />
    <glyph glyph-name="Egrave.smcp" horiz-adv-x="443" 
d="M134 261l-39 -243h299l1 -9l-3 -9h-170l-149 4l82 517q60 4 150 4h166q1 -4 0 -9l-3 -9h-295l-36 -228h267l1 -9l-4 -9h-267zM346 564l-80 88q5 2 12 2l12 -2l79 -88q-5 -2 -12 -2z" />
    <glyph glyph-name="Emacron.smcp" horiz-adv-x="443" 
d="M134 261l-39 -243h299l1 -9l-3 -9h-170l-149 4l82 517q60 4 150 4h166q1 -4 0 -9l-3 -9h-295l-36 -228h267l1 -9l-4 -9h-267zM412 581h-173l-1 9l3 8h173l2 -8z" />
    <glyph glyph-name="Eogonek.smcp" horiz-adv-x="443" 
d="M265 -61q4 33 46 61h-89l-149 4l82 517q60 4 150 4h166q1 -4 0 -9l-3 -9h-295l-36 -228h267l1 -9l-4 -9h-267l-39 -243h299l1 -9l-3 -9h-62q-43 -33 -47 -61q-3 -18 7 -27.5t33 -9.5q14 0 27.5 4t20.5 8l7 3l1 -9l-3 -8q-21 -14 -57 -14q-31 0 -44.5 14t-9.5 39z" />
    <glyph glyph-name="F.smcp" horiz-adv-x="432" 
d="M134 261l-41 -259q-6 -3 -11 -3l-9 3l82 519q60 4 150 4h158l1 -9l-4 -9h-287l-36 -228h259l1 -9l-4 -9h-259z" />
    <glyph glyph-name="G.smcp" horiz-adv-x="504" 
d="M480 260l-37 -232q-76 -30 -184 -30q-93 0 -131.5 28t-30.5 81l50 311q17 109 196 109q94 0 132.5 -27.5t29.5 -81.5l-2 -11q-4 -2 -10 -2l-10 2l2 11q7 47 -25 69t-120 22q-87 0 -126.5 -22t-46.5 -69l-50 -311q-7 -46 26.5 -68.5t118.5 -22.5q43 0 84 6t60 12l19 7
l32 205h-147q-1 4 0 9l3 9h38z" />
    <glyph glyph-name="Gbreve.smcp" horiz-adv-x="504" 
d="M480 260l-37 -232q-76 -30 -184 -30q-93 0 -131.5 28t-30.5 81l50 311q17 109 196 109q94 0 132.5 -27.5t29.5 -81.5l-2 -11q-4 -2 -10 -2l-10 2l2 11q7 47 -25 69t-120 22q-87 0 -126.5 -22t-46.5 -69l-50 -311q-7 -46 26.5 -68.5t118.5 -22.5q43 0 84 6t60 12l19 7
l32 205h-147q-1 4 0 9l3 9h38zM349 562q-49 0 -67 16.5t-13 50.5l1 7q5 3 10 3l9 -3l-1 -7q-4 -27 10 -39t53 -12q71 0 79 51l1 7q4 3 10 3l8 -3l-1 -7q-5 -34 -28 -50.5t-71 -16.5z" />
    <glyph glyph-name="Gcircumflex.smcp" horiz-adv-x="504" 
d="M480 260l-37 -232q-76 -30 -184 -30q-93 0 -131.5 28t-30.5 81l50 311q17 109 196 109q94 0 132.5 -27.5t29.5 -81.5l-2 -11q-4 -2 -10 -2l-10 2l2 11q7 47 -25 69t-120 22q-87 0 -126.5 -22t-46.5 -69l-50 -311q-7 -46 26.5 -68.5t118.5 -22.5q43 0 84 6t60 12l19 7
l32 205h-147q-1 4 0 9l3 9h38zM422 564l-62 69l-85 -69q-6 -2 -12 -2l-11 2l98 81q4 2 12 2l12 -2l71 -81q-4 -2 -11 -2z" />
    <glyph glyph-name="Gcommaaccent.smcp" horiz-adv-x="504" 
d="M480 260l-37 -232q-76 -30 -184 -30q-93 0 -131.5 28t-30.5 81l50 311q17 109 196 109q94 0 132.5 -27.5t29.5 -81.5l-2 -11q-4 -2 -10 -2l-10 2l2 11q7 47 -25 69t-120 22q-87 0 -126.5 -22t-46.5 -69l-50 -311q-7 -46 26.5 -68.5t118.5 -22.5q43 0 84 6t60 12l19 7
l32 205h-147q-1 4 0 9l3 9h38zM260 -39q-5 -34 -20.5 -61t-27.5 -38l-13 -10q-4 -3 -9 -3l-8 3q5 4 13.5 12t25 36.5t21.5 60.5q5 3 10 3z" />
    <glyph glyph-name="Gdotaccent.smcp" horiz-adv-x="504" 
d="M480 260l-37 -232q-76 -30 -184 -30q-93 0 -131.5 28t-30.5 81l50 311q17 109 196 109q94 0 132.5 -27.5t29.5 -81.5l-2 -11q-4 -2 -10 -2l-10 2l2 11q7 47 -25 69t-120 22q-87 0 -126.5 -22t-46.5 -69l-50 -311q-7 -46 26.5 -68.5t118.5 -22.5q43 0 84 6t60 12l19 7
l32 205h-147q-1 4 0 9l3 9h38zM370 633l-11 -69q-5 -2 -10 -2l-10 2l11 69q4 3 10 3z" />
    <glyph glyph-name="H.smcp" horiz-adv-x="509" 
d="M518 523l-82 -521q-6 -3 -12 -3l-9 3l41 259h-322l-41 -259q-6 -3 -11 -3l-9 3l82 521q5 3 11 3l9 -3l-38 -244h322l38 244q6 3 11 3z" />
    <glyph glyph-name="Hbar.smcp" horiz-adv-x="561" 
d="M571 397h-47l-62 -395q-6 -3 -12 -3l-9 3l41 259h-322l-41 -259q-6 -3 -11 -3l-9 3l62 395h-47l-1 8l4 9h47l17 109q5 3 11 3l9 -3l-17 -109h322l17 109q6 3 11 3l10 -3l-17 -109h47l2 -9zM163 279h322l18 118h-322z" />
    <glyph glyph-name="Hcircumflex.smcp" horiz-adv-x="509" 
d="M518 523l-82 -521q-6 -3 -12 -3l-9 3l41 259h-322l-41 -259q-6 -3 -11 -3l-9 3l82 521q5 3 11 3l9 -3l-38 -244h322l38 244q6 3 11 3zM417 564l-63 69l-85 -69q-6 -2 -11 -2l-11 2l97 81q5 2 12 2l12 -2l72 -81q-5 -2 -12 -2z" />
    <glyph glyph-name="I.smcp" horiz-adv-x="253" 
d="M50 18h68l78 489h-68l-2 9l5 9h157l1 -9l-4 -9h-68l-78 -489h68l2 -9l-4 -9h-157l-2 9z" />
    <glyph glyph-name="Iacute.smcp" horiz-adv-x="253" 
d="M50 18h68l78 489h-68l-2 9l5 9h157l1 -9l-4 -9h-68l-78 -489h68l2 -9l-4 -9h-157l-2 9zM304 652l-108 -88q-6 -2 -11 -2l-11 2l106 88q4 2 12 2z" />
    <glyph glyph-name="Ibreve.smcp" horiz-adv-x="253" 
d="M49 18h69l78 489h-69l-1 9l4 9h158l1 -9l-4 -9h-68l-78 -489h68l2 -9l-4 -9h-158l-1 9zM215 562q-48 0 -66 17t-13 50l1 7q5 3 10 3l8 -3l-1 -7q-4 -26 10 -38.5t53 -12.5t57 12.5t22 38.5l1 7q5 3 11 3l8 -3l-1 -7q-11 -67 -100 -67z" />
    <glyph glyph-name="Icircumflex.smcp" horiz-adv-x="253" 
d="M50 18h68l78 489h-68l-2 9l5 9h157l1 -9l-4 -9h-68l-78 -489h68l2 -9l-4 -9h-157l-2 9zM289 564l-62 69l-85 -69q-6 -2 -12 -2l-11 2l98 81q4 2 11 2l12 -2l72 -81q-4 -2 -11 -2z" />
    <glyph glyph-name="Idieresis.smcp" horiz-adv-x="253" 
d="M168 633l-11 -69q-5 -2 -10 -2l-9 2l11 69q4 2 9 2zM304 633l-11 -69q-4 -2 -9 -2l-10 2l11 69q4 2 10 2zM50 18h68l78 489h-68l-2 9l5 9h157l1 -9l-4 -9h-68l-78 -489h68l2 -9l-4 -9h-157l-2 9z" />
    <glyph glyph-name="Idotaccent.smcp" horiz-adv-x="253" 
d="M50 18h68l78 489h-68l-2 9l5 9h157l1 -9l-4 -9h-68l-78 -489h68l2 -9l-4 -9h-157l-2 9zM236 633l-11 -69q-5 -2 -10 -2l-10 2l11 69q5 3 10 3z" />
    <glyph glyph-name="Igrave.smcp" horiz-adv-x="253" 
d="M50 18h68l78 489h-68l-2 9l5 9h157l1 -9l-4 -9h-68l-78 -489h68l2 -9l-4 -9h-157l-2 9zM235 564l-80 88q5 2 12 2l12 -2l78 -88q-4 -2 -11 -2z" />
    <glyph glyph-name="Imacron.smcp" horiz-adv-x="254" 
d="M50 18h69l78 489h-69l-1 9l4 9h158l1 -9l-4 -9h-69l-78 -489h69l2 -9l-4 -9h-158l-1 9zM306 581h-173l-2 9l4 8h173l1 -8z" />
    <glyph glyph-name="Iogonek.smcp" horiz-adv-x="253" 
d="M79 -61q4 33 46 61h-77l-2 9l4 9h68l78 489h-68l-2 9l5 9h157l1 -9l-4 -9h-68l-78 -489h68l2 -9l-4 -9h-62q-43 -33 -47 -61q-3 -18 7 -27.5t33 -9.5q14 0 27.5 4t20.5 8l7 3l2 -9l-4 -8q-20 -14 -57 -14q-61 0 -53 53z" />
    <glyph glyph-name="Itilde.smcp" horiz-adv-x="254" 
d="M50 18h69l78 489h-69l-1 9l4 9h158q1 -4 0 -9l-3 -9h-69l-78 -489h69l1 -9l-3 -9h-158l-1 9zM107 564v4q9 53 66 53q27 0 51.5 -21.5t45.5 -21.5q39 0 45 37l1 4q4 2 9 2l9 -2l-1 -4q-8 -53 -64 -53q-28 0 -53.5 21t-44.5 21q-40 0 -46 -36v-4q-4 -2 -9 -2z" />
    <glyph glyph-name="IJ.smcp" horiz-adv-x="589" 
d="M50 18h68l78 489h-68l-2 9l5 9h157l1 -9l-4 -9h-68l-78 -489h68l2 -9l-4 -9h-157l-2 9zM599 525l-67 -418q-16 -109 -139 -109q-34 0 -60.5 5.5t-35.5 10.5l-9 6l-1 9l4 10q34 -23 105 -23q57 0 83 22t33 69l64 400h-108l-1 9l4 9h128z" />
    <glyph glyph-name="J.smcp" horiz-adv-x="396" 
d="M405 523l-66 -416q-16 -109 -158 -109q-41 0 -72 8t-42 16l-11 9l-1 9l4 10q4 -4 13 -9.5t41.5 -15t70.5 -9.5q66 0 97 22t38 69l66 416q5 3 11 3z" />
    <glyph glyph-name="Jcircumflex.smcp" horiz-adv-x="395" 
d="M405 523l-66 -416q-16 -109 -158 -109q-41 0 -72 8t-42 16l-11 9l-1 9l4 10q4 -4 13 -9.5t41.5 -15t70.5 -9.5q66 0 97 22t38 69l66 416q5 3 11 3zM475 564l-62 69l-85 -69q-6 -2 -12 -2l-11 2l98 81q4 2 12 2l12 -2l71 -81q-4 -2 -11 -2z" />
    <glyph glyph-name="K.smcp" horiz-adv-x="419" 
d="M361 2l-146 262l-84 -21l-38 -241q-6 -3 -11 -3l-9 3l82 521q5 3 11 3l9 -3l-41 -262l84 22l219 240q6 3 13 3l11 -3l-227 -249l151 -272q-6 -3 -13 -3z" />
    <glyph glyph-name="Kcommaaccent.smcp" horiz-adv-x="419" 
d="M361 2l-146 262l-84 -21l-38 -241q-6 -3 -11 -3l-9 3l82 521q5 3 11 3l9 -3l-41 -262l84 22l219 240q6 3 13 3l11 -3l-227 -249l151 -272q-6 -3 -13 -3zM218 -39q-5 -34 -20.5 -61t-28.5 -38l-13 -10q-4 -3 -8 -3l-9 3q5 4 13.5 12t25 36.5t21.5 60.5q5 3 11 3z" />
    <glyph glyph-name="L.smcp" horiz-adv-x="411" 
d="M175 523l-80 -505h275l1 -9l-3 -9h-146l-149 4l82 519q5 3 11 3z" />
    <glyph glyph-name="Lacute.smcp" horiz-adv-x="411" 
d="M175 523l-80 -505h275l1 -9l-3 -9h-146l-149 4l82 519q5 3 11 3zM261 652l-107 -88q-6 -2 -12 -2l-11 2l106 88q5 2 12 2z" />
    <glyph glyph-name="Lcaron.smcp" horiz-adv-x="411" 
d="M175 523l-80 -505h275l1 -9l-3 -9h-146l-149 4l82 519q5 3 11 3zM144 645l63 -69l84 69q6 2 12 2l11 -2l-98 -81q-4 -2 -11 -2l-12 2l-72 81q4 2 11 2z" />
    <glyph glyph-name="Lcommaaccent.smcp" horiz-adv-x="411" 
d="M175 523l-80 -505h275l1 -9l-3 -9h-146l-149 4l82 519q5 3 11 3zM229 -39q-5 -34 -20.5 -61t-28.5 -38l-12 -10q-4 -3 -9 -3l-8 3q5 4 13.5 12t25 36.5t21.5 60.5q5 3 10 3z" />
    <glyph glyph-name="Ldot.smcp" horiz-adv-x="411" 
d="M175 523l-80 -505h275l1 -9l-3 -9h-146l-149 4l82 519q5 3 11 3zM337 255l-9 -59q-7 -2 -13 -2l-10 2l9 59q5 3 11 3z" />
    <glyph glyph-name="Lslash.smcp" horiz-adv-x="428" 
d="M73 197l54 44l44 282q6 3 11 3l10 -3l-42 -267l105 85l1 -11l-5 -11l-105 -86l-34 -215h274l2 -9l-4 -9h-146l-149 4l34 214l-54 -44l-1 11z" />
    <glyph glyph-name="M.smcp" horiz-adv-x="612" 
d="M621 523l-82 -521q-6 -3 -11 -3l-9 3l76 480l-264 -388q-5 -3 -12 -3l-13 3l-137 387l-76 -480q-6 -3 -11 -3l-9 3l82 522q6 2 12 2l10 -2l146 -409l276 409q5 3 12 3z" />
    <glyph glyph-name="N.smcp" horiz-adv-x="512" 
d="M73 2l82 521q5 3 11 3l9 -3l250 -485l76 485q6 3 11 3l9 -3l-82 -521q-5 -3 -10 -3l-9 3l-250 485l-77 -485q-5 -3 -11 -3z" />
    <glyph glyph-name="Nacute.smcp" horiz-adv-x="512" 
d="M73 2l82 521q5 3 11 3l9 -3l250 -485l76 485q6 3 11 3l9 -3l-82 -521q-5 -3 -10 -3l-9 3l-250 485l-77 -485q-5 -3 -11 -3zM433 652l-107 -88q-7 -2 -12 -2l-11 2l106 88q5 2 12 2z" />
    <glyph glyph-name="Ncaron.smcp" horiz-adv-x="512" 
d="M73 2l82 521q5 3 11 3l9 -3l250 -485l76 485q6 3 11 3l9 -3l-82 -521q-5 -3 -10 -3l-9 3l-250 485l-77 -485q-5 -3 -11 -3zM284 645l63 -69l85 69q6 2 11 2l11 -2l-97 -81q-5 -2 -12 -2l-12 2l-72 81q5 2 12 2z" />
    <glyph glyph-name="Ncommaaccent.smcp" horiz-adv-x="512" 
d="M73 2l82 521q5 3 11 3l9 -3l250 -485l76 485q6 3 11 3l9 -3l-82 -521q-5 -3 -10 -3l-9 3l-250 485l-77 -485q-5 -3 -11 -3zM256 -39q-5 -34 -20.5 -61t-27.5 -38l-13 -10q-4 -3 -8 -3l-9 3q5 4 13.5 12t25 36.5t21.5 60.5q5 3 10 3z" />
    <glyph glyph-name="Ntilde.smcp" horiz-adv-x="512" 
d="M73 2l82 521q5 3 11 3l9 -3l250 -485l76 485q6 3 11 3l9 -3l-82 -521q-5 -3 -10 -3l-9 3l-250 485l-77 -485q-5 -3 -11 -3zM236 564v4q9 53 65 53q28 0 52.5 -21.5t44.5 -21.5q40 0 46 37l1 4q4 2 9 2l9 -2l-1 -4q-8 -53 -65 -53q-27 0 -52.5 21t-45.5 21q-39 0 -45 -36
v-4q-4 -2 -9 -2z" />
    <glyph glyph-name="Eng.smcp" horiz-adv-x="512" 
d="M408 -66l11 69l-249 484l-77 -485q-5 -3 -11 -3l-9 3l82 521q5 3 11 3l9 -3l250 -485l76 485q6 3 11 3l9 -3l-93 -589q-14 -86 -103 -86q-25 0 -48 6l-1 9l4 9q24 -7 46 -7q39 0 57.5 17t24.5 52z" />
    <glyph glyph-name="O.smcp" horiz-adv-x="516" 
d="M97 107l50 311q17 109 202 109q96 0 136 -28t32 -81l-50 -311q-16 -109 -202 -109q-96 0 -136 28t-32 81zM167 418l-13 -78q-12 -77 -24 -155l-13 -78q-7 -46 28 -68.5t123 -22.5q89 0 130.5 22.5t48.5 68.5l50 311q7 46 -28 68.5t-123 22.5q-89 0 -130.5 -22.5
t-48.5 -68.5z" />
    <glyph glyph-name="Oacute.smcp" horiz-adv-x="516" 
d="M97 107l50 311q17 109 202 109q96 0 136 -28t32 -81l-50 -311q-16 -109 -202 -109q-96 0 -136 28t-32 81zM167 418l-13 -78q-12 -77 -24 -155l-13 -78q-7 -46 28 -68.5t123 -22.5q89 0 130.5 22.5t48.5 68.5l50 311q7 46 -28 68.5t-123 22.5q-89 0 -130.5 -22.5
t-48.5 -68.5zM443 652l-107 -88q-6 -2 -12 -2l-11 2l106 88q5 2 12 2z" />
    <glyph glyph-name="Obreve.smcp" horiz-adv-x="516" 
d="M97 107l50 311q17 109 202 109q96 0 136 -28t32 -81l-50 -311q-16 -109 -202 -109q-96 0 -136 28t-32 81zM167 418l-13 -78q-12 -77 -24 -155l-13 -78q-7 -46 28 -68.5t123 -22.5q89 0 130.5 22.5t48.5 68.5l50 311q7 46 -28 68.5t-123 22.5q-89 0 -130.5 -22.5
t-48.5 -68.5zM355 562q-48 0 -66 17t-13 50l1 7q4 3 10 3l8 -3l-1 -7q-4 -27 10 -39t53 -12t57 12.5t22 38.5l1 7q5 3 10 3l8 -3l-1 -7q-5 -34 -28 -50.5t-71 -16.5z" />
    <glyph glyph-name="Ocircumflex.smcp" horiz-adv-x="516" 
d="M97 107l50 311q17 109 202 109q96 0 136 -28t32 -81l-50 -311q-16 -109 -202 -109q-96 0 -136 28t-32 81zM167 418l-13 -78q-12 -77 -24 -155l-13 -78q-7 -46 28 -68.5t123 -22.5q89 0 130.5 22.5t48.5 68.5l50 311q7 46 -28 68.5t-123 22.5q-89 0 -130.5 -22.5
t-48.5 -68.5zM429 564l-63 69l-85 -69q-6 -2 -11 -2l-12 2l98 81q5 2 12 2l12 -2l71 -81q-4 -2 -11 -2z" />
    <glyph glyph-name="Odieresis.smcp" horiz-adv-x="516" 
d="M97 107l50 311q17 109 202 109q96 0 136 -28t32 -81l-50 -311q-16 -109 -202 -109q-96 0 -136 28t-32 81zM167 418l-13 -78q-12 -77 -24 -155l-13 -78q-7 -46 28 -68.5t123 -22.5q89 0 130.5 22.5t48.5 68.5l50 311q7 46 -28 68.5t-123 22.5q-89 0 -130.5 -22.5
t-48.5 -68.5zM291 633l-11 -69q-4 -2 -9 -2l-10 2l11 69q4 2 10 2zM459 633l-11 -69q-4 -2 -9 -2l-10 2l11 69q4 2 10 2z" />
    <glyph glyph-name="Ograve.smcp" horiz-adv-x="516" 
d="M97 107l50 311q17 109 202 109q96 0 136 -28t32 -81l-50 -311q-16 -109 -202 -109q-96 0 -136 28t-32 81zM167 418l-13 -78q-12 -77 -24 -155l-13 -78q-7 -46 28 -68.5t123 -22.5q89 0 130.5 22.5t48.5 68.5l50 311q7 46 -28 68.5t-123 22.5q-89 0 -130.5 -22.5
t-48.5 -68.5zM374 564l-79 88q4 2 12 2l12 -2l78 -88q-5 -2 -12 -2z" />
    <glyph glyph-name="Ohungarumlaut.smcp" horiz-adv-x="516" 
d="M97 107l50 311q17 109 202 109q96 0 136 -28t32 -81l-50 -311q-16 -109 -202 -109q-96 0 -136 28t-32 81zM167 418l-13 -78q-12 -77 -24 -155l-13 -78q-7 -46 28 -68.5t123 -22.5q89 0 130.5 22.5t48.5 68.5l50 311q7 46 -28 68.5t-123 22.5q-89 0 -130.5 -22.5
t-48.5 -68.5zM508 652l-108 -88q-6 -2 -11 -2l-12 2l106 88q5 2 12 2zM379 652l-108 -88q-6 -2 -11 -2l-11 2l106 88q5 2 12 2z" />
    <glyph glyph-name="Omacron.smcp" horiz-adv-x="516" 
d="M97 107l50 311q17 109 202 109q96 0 136 -28t32 -81l-50 -311q-16 -109 -202 -109q-96 0 -136 28t-32 81zM167 418l-13 -78q-12 -77 -24 -155l-13 -78q-7 -46 28 -68.5t123 -22.5q89 0 130.5 22.5t48.5 68.5l50 311q7 46 -28 68.5t-123 22.5q-89 0 -130.5 -22.5
t-48.5 -68.5zM444 581h-173l-1 9l3 8h173l2 -8z" />
    <glyph glyph-name="Oslash.smcp" horiz-adv-x="515" 
d="M539 523l-40 -46q15 -23 10 -59l-50 -311q-16 -109 -202 -109q-109 0 -148 37l-29 -33q-7 -3 -12 -3l-10 3l41 46q-16 24 -10 59l50 311q17 109 202 109q107 0 147 -37l29 33q5 3 12 3zM489 418q3 26 -4 43l-363 -411q31 -34 138 -34q89 0 130.5 22.5t48.5 68.5zM159 418
l-13 -78q-12 -77 -24 -155l-13 -78q-5 -26 4 -43l362 411q-32 34 -137 34q-89 0 -130.5 -22.5t-48.5 -68.5z" />
    <glyph glyph-name="Oslashacute.smcp" horiz-adv-x="515" 
d="M539 523l-40 -46q15 -23 10 -59l-50 -311q-16 -109 -202 -109q-109 0 -148 37l-29 -33q-7 -3 -12 -3l-10 3l41 46q-16 24 -10 59l50 311q17 109 202 109q107 0 147 -37l29 33q5 3 12 3zM489 418q3 26 -4 43l-363 -411q31 -34 138 -34q89 0 130.5 22.5t48.5 68.5zM159 418
l-13 -78q-12 -77 -24 -155l-13 -78q-5 -26 4 -43l362 411q-32 34 -137 34q-89 0 -130.5 -22.5t-48.5 -68.5zM435 652l-107 -88q-6 -2 -12 -2l-11 2l106 88q5 2 12 2z" />
    <glyph glyph-name="Otilde.smcp" horiz-adv-x="516" 
d="M97 107l50 311q17 109 202 109q96 0 136 -28t32 -81l-50 -311q-16 -109 -202 -109q-96 0 -136 28t-32 81zM167 418l-13 -78q-12 -77 -24 -155l-13 -78q-7 -46 28 -68.5t123 -22.5q89 0 130.5 22.5t48.5 68.5l50 311q7 46 -28 68.5t-123 22.5q-89 0 -130.5 -22.5
t-48.5 -68.5zM246 564v4q9 53 65 53q28 0 52.5 -21.5t44.5 -21.5q40 0 46 37l1 4q4 2 9 2l9 -2l-1 -4q-8 -53 -65 -53q-27 0 -52.5 21t-45.5 21q-39 0 -45 -36v-4q-4 -2 -9 -2z" />
    <glyph glyph-name="OE.smcp" horiz-adv-x="705" 
d="M661 0h-137h-33.5t-30 0.5t-25.5 1t-20.5 1t-15 1t-9.5 0.5h-4h-3q-3 -1 -9 -1.5t-13.5 -1t-18 -1t-22 -1t-26 -1t-29.5 -0.5q-96 0 -136 28t-32 81l50 311q17 109 202 109q15 0 29.5 -0.5t25.5 -1t21.5 -1t18 -1t13 -1t8.5 -0.5l3 -1h4q3 0 9.5 0.5t15.5 1t21 1t25.5 1
t30 0.5h33.5h133l1 -9l-4 -9h-263l-36 -228h235l1 -9l-4 -9h-235l-39 -243h267l2 -9zM378 16l78 493h-110q-89 0 -130.5 -22.5t-48.5 -68.5l-50 -311q-7 -46 28 -68.5t123 -22.5h110z" />
    <glyph glyph-name="P.smcp" horiz-adv-x="469" 
d="M155 523q63 4 158 4q88 0 125 -28t28 -81l-10 -63q-18 -110 -188 -110l-136 3l-39 -246q-6 -3 -11 -3l-9 3zM173 509l-39 -246h137q80 0 118.5 22.5t46.5 69.5l10 63q7 46 -24.5 68.5t-111.5 22.5h-137z" />
    <glyph glyph-name="Q.smcp" horiz-adv-x="516" 
d="M363 -130l-59 129q-13 -1 -39 -1q-96 0 -136 28t-32 81l50 311q17 109 202 109q96 0 136 -28t32 -81l-50 -311q-14 -90 -141 -106l60 -131q-4 -2 -12 -2zM167 418l-13 -78q-12 -77 -24 -155l-13 -78q-7 -46 28 -68.5t123 -22.5q89 0 130.5 22.5t48.5 68.5l50 311
q7 46 -28 68.5t-123 22.5q-89 0 -130.5 -22.5t-48.5 -68.5z" />
    <glyph glyph-name="R.smcp" horiz-adv-x="469" 
d="M392 2l-112 243h-12l-136 3l-39 -246q-6 -3 -11 -3l-9 3l82 521q63 4 158 4q88 0 125 -28t28 -81l-10 -63q-16 -99 -153 -109l112 -244q-5 -3 -12 -3zM173 509l-39 -246h137q80 0 118.5 22.5t46.5 69.5l10 63q7 46 -24.5 68.5t-111.5 22.5h-137z" />
    <glyph glyph-name="Racute.smcp" horiz-adv-x="469" 
d="M392 2l-112 243h-12l-136 3l-39 -246q-6 -3 -11 -3l-9 3l82 521q63 4 158 4q88 0 125 -28t28 -81l-10 -63q-16 -99 -153 -109l112 -244q-5 -3 -12 -3zM173 509l-39 -246h137q80 0 118.5 22.5t46.5 69.5l10 63q7 46 -24.5 68.5t-111.5 22.5h-137zM412 652l-108 -88
q-6 -2 -11 -2l-12 2l106 88q5 2 13 2z" />
    <glyph glyph-name="Rcaron.smcp" horiz-adv-x="469" 
d="M392 2l-112 243h-12l-136 3l-39 -246q-6 -3 -11 -3l-9 3l82 521q63 4 158 4q88 0 125 -28t28 -81l-10 -63q-16 -99 -153 -109l112 -244q-5 -3 -12 -3zM173 509l-39 -246h137q80 0 118.5 22.5t46.5 69.5l10 63q7 46 -24.5 68.5t-111.5 22.5h-137zM255 645l63 -69l84 69
q6 2 12 2l11 -2l-97 -81q-5 -2 -12 -2l-12 2l-72 81q5 2 11 2z" />
    <glyph glyph-name="Rcommaaccent.smcp" horiz-adv-x="469" 
d="M392 2l-112 243h-12l-136 3l-39 -246q-6 -3 -11 -3l-9 3l82 521q63 4 158 4q88 0 125 -28t28 -81l-10 -63q-16 -99 -153 -109l112 -244q-5 -3 -12 -3zM173 509l-39 -246h137q80 0 118.5 22.5t46.5 69.5l10 63q7 46 -24.5 68.5t-111.5 22.5h-137zM242 -39
q-5 -34 -20.5 -61t-27.5 -38l-13 -10q-4 -3 -8 -3l-9 3q5 4 13.5 12t25 36.5t21.5 60.5q5 3 10 3z" />
    <glyph glyph-name="S.smcp" horiz-adv-x="465" 
d="M159 418l-7 -44q-6 -36 23 -58t73.5 -33t89 -23t72.5 -38.5t21 -70.5l-7 -44q-9 -55 -52.5 -82t-134.5 -27q-90 0 -125.5 27.5t-27.5 81.5l2 11q5 2 11 2l9 -2l-2 -11q-7 -47 23.5 -69t112.5 -22t119.5 22t44.5 69l7 44q5 33 -14.5 55t-53 31.5t-72.5 21t-72.5 22
t-53 34.5t-13.5 59l7 44q9 54 51.5 81.5t130.5 27.5q87 0 120.5 -27.5t24.5 -81.5l-2 -11q-4 -2 -10 -2l-10 2l2 11q7 47 -22 69t-106 22q-79 0 -115.5 -22t-43.5 -69z" />
    <glyph glyph-name="Sacute.smcp" horiz-adv-x="465" 
d="M159 418l-7 -44q-6 -36 23 -58t73.5 -33t89 -23t72.5 -38.5t21 -70.5l-7 -44q-9 -55 -52.5 -82t-134.5 -27q-90 0 -125.5 27.5t-27.5 81.5l2 11q5 2 11 2l9 -2l-2 -11q-7 -47 23.5 -69t112.5 -22t119.5 22t44.5 69l7 44q5 33 -14.5 55t-53 31.5t-72.5 21t-72.5 22
t-53 34.5t-13.5 59l7 44q9 54 51.5 81.5t130.5 27.5q87 0 120.5 -27.5t24.5 -81.5l-2 -11q-4 -2 -10 -2l-10 2l2 11q7 47 -22 69t-106 22q-79 0 -115.5 -22t-43.5 -69zM418 652l-108 -88q-6 -2 -11 -2l-12 2l106 88q5 2 13 2z" />
    <glyph glyph-name="Scaron.smcp" horiz-adv-x="465" 
d="M159 418l-7 -44q-6 -36 23 -58t73.5 -33t89 -23t72.5 -38.5t21 -70.5l-7 -44q-9 -55 -52.5 -82t-134.5 -27q-90 0 -125.5 27.5t-27.5 81.5l2 11q5 2 11 2l9 -2l-2 -11q-7 -47 23.5 -69t112.5 -22t119.5 22t44.5 69l7 44q5 33 -14.5 55t-53 31.5t-72.5 21t-72.5 22
t-53 34.5t-13.5 59l7 44q9 54 51.5 81.5t130.5 27.5q87 0 120.5 -27.5t24.5 -81.5l-2 -11q-4 -2 -10 -2l-10 2l2 11q7 47 -22 69t-106 22q-79 0 -115.5 -22t-43.5 -69zM268 645l63 -69l85 69q6 2 11 2l12 -2l-98 -81q-5 -2 -12 -2l-12 2l-71 81q4 2 11 2z" />
    <glyph glyph-name="Scedilla.smcp" horiz-adv-x="465" 
d="M159 418l-7 -44q-6 -36 23 -58t73.5 -33t89 -23t72.5 -38.5t21 -70.5l-7 -44q-9 -53 -50.5 -80.5t-127.5 -28.5l-1 -5q-2 -12 7 -18t20.5 -8t20.5 -9t7 -20l-1 -6q-8 -47 -71 -47q-36 0 -47 11.5t-7 35.5v3q6 2 10 2l8 -2v-3q-3 -18 5 -24.5t34 -6.5q25 0 36 7t14 24l1 6
q1 8 -8 12.5t-20.5 6.5t-19.5 11t-6 25l1 5q-86 1 -119.5 28.5t-25.5 80.5l2 11q5 2 11 2l9 -2l-2 -11q-7 -47 23.5 -69t112.5 -22t119.5 22t44.5 69l7 44q5 33 -14.5 55t-53 31.5t-72.5 21t-72.5 22t-53 34.5t-13.5 59l7 44q9 54 51.5 81.5t130.5 27.5q87 0 120.5 -27.5
t24.5 -81.5l-2 -11q-4 -2 -10 -2l-10 2l2 11q7 47 -22 69t-106 22q-79 0 -115.5 -22t-43.5 -69z" />
    <glyph glyph-name="Scircumflex.smcp" horiz-adv-x="465" 
d="M159 418l-7 -44q-6 -36 23 -58t73.5 -33t89 -23t72.5 -38.5t21 -70.5l-7 -44q-9 -55 -52.5 -82t-134.5 -27q-90 0 -125.5 27.5t-27.5 81.5l2 11q5 2 11 2l9 -2l-2 -11q-7 -47 23.5 -69t112.5 -22t119.5 22t44.5 69l7 44q5 33 -14.5 55t-53 31.5t-72.5 21t-72.5 22
t-53 34.5t-13.5 59l7 44q9 54 51.5 81.5t130.5 27.5q87 0 120.5 -27.5t24.5 -81.5l-2 -11q-4 -2 -10 -2l-10 2l2 11q7 47 -22 69t-106 22q-79 0 -115.5 -22t-43.5 -69zM403 564l-63 69l-85 -69q-6 -2 -11 -2l-11 2l97 81q5 2 12 2l12 -2l72 -81q-5 -2 -12 -2z" />
    <glyph glyph-name="Scommaaccent.smcp" horiz-adv-x="465" 
d="M159 418l-7 -44q-6 -36 23 -58t73.5 -33t89 -23t72.5 -38.5t21 -70.5l-7 -44q-9 -55 -52.5 -82t-134.5 -27q-90 0 -125.5 27.5t-27.5 81.5l2 11q5 2 11 2l9 -2l-2 -11q-7 -47 23.5 -69t112.5 -22t119.5 22t44.5 69l7 44q5 33 -14.5 55t-53 31.5t-72.5 21t-72.5 22
t-53 34.5t-13.5 59l7 44q9 54 51.5 81.5t130.5 27.5q87 0 120.5 -27.5t24.5 -81.5l-2 -11q-4 -2 -10 -2l-10 2l2 11q7 47 -22 69t-106 22q-79 0 -115.5 -22t-43.5 -69zM238 -39q-5 -34 -20.5 -61t-27.5 -38l-13 -10q-4 -3 -8 -3l-9 3q5 4 13.5 12t25 36.5t21.5 60.5
q5 3 10 3z" />
    <glyph glyph-name="T.smcp" horiz-adv-x="460" 
d="M492 507h-172l-80 -505q-6 -3 -11 -3l-9 3l80 505h-176l-2 9l5 9h368q1 -4 0 -9z" />
    <glyph glyph-name="Tbar.smcp" horiz-adv-x="460" 
d="M431 272h-148l-43 -270q-6 -3 -11 -3l-9 3l43 270h-148l-2 9l4 9h148l35 217h-176l-2 9l5 9h368q1 -4 0 -9l-3 -9h-172l-35 -217h148l2 -9z" />
    <glyph glyph-name="Tcaron.smcp" horiz-adv-x="460" 
d="M492 507h-172l-80 -505q-6 -3 -11 -3l-9 3l80 505h-176l-2 9l5 9h368q1 -4 0 -9zM258 645l63 -69l85 69q6 2 11 2l11 -2l-97 -81q-5 -2 -12 -2l-12 2l-72 81q5 2 12 2z" />
    <glyph glyph-name="Tcommaaccent.smcp" horiz-adv-x="460" 
d="M492 507h-172l-80 -505q-6 -3 -11 -3l-9 3l80 505h-176l-2 9l5 9h368q1 -4 0 -9zM233 -39q-5 -34 -20.5 -61t-28.5 -38l-12 -10q-4 -3 -8 -3l-9 3q5 4 13.5 12t25 36.5t21.5 60.5q5 3 10 3z" />
    <glyph glyph-name="uni021A.smcp" horiz-adv-x="460" 
d="M492 507h-172l-80 -505q-6 -3 -11 -3l-9 3l80 505h-176l-2 9l5 9h368q1 -4 0 -9zM233 -39q-5 -34 -20.5 -61t-28.5 -38l-12 -10q-4 -3 -8 -3l-9 3q5 4 13.5 12t25 36.5t21.5 60.5q5 3 10 3z" />
    <glyph glyph-name="U.smcp" horiz-adv-x="508" 
d="M525 523l-66 -416q-16 -109 -198 -109q-93 0 -132.5 28t-31.5 81l66 416q5 3 11 3l9 -3l-66 -416q-7 -46 27 -68.5t120 -22.5t127 22.5t48 68.5l66 416q5 3 11 3z" />
    <glyph glyph-name="Uacute.smcp" horiz-adv-x="508" 
d="M525 523l-66 -416q-16 -109 -198 -109q-93 0 -132.5 28t-31.5 81l66 416q5 3 11 3l9 -3l-66 -416q-7 -46 27 -68.5t120 -22.5t127 22.5t48 68.5l66 416q5 3 11 3zM439 652l-107 -88q-6 -2 -12 -2l-11 2l106 88q5 2 12 2z" />
    <glyph glyph-name="Ubreve.smcp" horiz-adv-x="508" 
d="M525 523l-66 -416q-16 -109 -198 -109q-93 0 -132.5 28t-31.5 81l66 416q5 3 11 3l9 -3l-66 -416q-7 -46 27 -68.5t120 -22.5t127 22.5t48 68.5l66 416q5 3 11 3zM351 562q-48 0 -66 17t-13 50l1 7q4 3 10 3l8 -3l-1 -7q-4 -27 10 -39t53 -12t57 12.5t22 38.5l1 7
q5 3 10 3l8 -3l-1 -7q-5 -34 -28 -50.5t-71 -16.5z" />
    <glyph glyph-name="Ucircumflex.smcp" horiz-adv-x="508" 
d="M525 523l-66 -416q-16 -109 -198 -109q-93 0 -132.5 28t-31.5 81l66 416q5 3 11 3l9 -3l-66 -416q-7 -46 27 -68.5t120 -22.5t127 22.5t48 68.5l66 416q5 3 11 3zM425 564l-63 69l-85 -69q-6 -2 -11 -2l-12 2l98 81q5 2 12 2l12 -2l71 -81q-4 -2 -11 -2z" />
    <glyph glyph-name="Udieresis.smcp" horiz-adv-x="508" 
d="M525 523l-66 -416q-16 -109 -198 -109q-93 0 -132.5 28t-31.5 81l66 416q5 3 11 3l9 -3l-66 -416q-7 -46 27 -68.5t120 -22.5t127 22.5t48 68.5l66 416q5 3 11 3zM287 633l-11 -69q-4 -2 -9 -2l-10 2l11 69q4 2 10 2zM455 633l-11 -69q-4 -2 -9 -2l-10 2l11 69q4 2 10 2z
" />
    <glyph glyph-name="Ugrave.smcp" horiz-adv-x="508" 
d="M525 523l-66 -416q-16 -109 -198 -109q-93 0 -132.5 28t-31.5 81l66 416q5 3 11 3l9 -3l-66 -416q-7 -46 27 -68.5t120 -22.5t127 22.5t48 68.5l66 416q5 3 11 3zM370 564l-79 88q5 2 12 2l12 -2l78 -88q-5 -2 -11 -2z" />
    <glyph glyph-name="Uhungarumlaut.smcp" horiz-adv-x="508" 
d="M525 523l-66 -416q-16 -109 -198 -109q-93 0 -132.5 28t-31.5 81l66 416q5 3 11 3l9 -3l-66 -416q-7 -46 27 -68.5t120 -22.5t127 22.5t48 68.5l66 416q5 3 11 3zM375 652l-108 -88q-6 -2 -11 -2l-11 2l106 88q5 2 12 2zM504 652l-108 -88q-6 -2 -11 -2l-12 2l106 88
q5 2 13 2z" />
    <glyph glyph-name="Umacron.smcp" horiz-adv-x="508" 
d="M525 523l-66 -416q-16 -109 -198 -109q-93 0 -132.5 28t-31.5 81l66 416q5 3 11 3l9 -3l-66 -416q-7 -46 27 -68.5t120 -22.5t127 22.5t48 68.5l66 416q5 3 11 3zM441 581h-174l-1 9l3 8h174l1 -8z" />
    <glyph glyph-name="Uogonek.smcp" horiz-adv-x="508" 
d="M256 -61q5 35 46 61q-26 -2 -41 -2q-93 0 -132.5 28t-31.5 81l66 416q5 3 11 3l9 -3l-66 -416q-7 -46 27 -68.5t120 -22.5t127 22.5t48 68.5l66 416q5 3 11 3l9 -3l-66 -416q-14 -89 -137 -106q-8 -4 -26.5 -24t-21.5 -38q-6 -37 39 -37q14 0 28 4t21 8l7 3l1 -9l-3 -8
q-21 -14 -58 -14q-61 0 -53 53z" />
    <glyph glyph-name="Uring.smcp" horiz-adv-x="508" 
d="M525 523l-66 -416q-16 -109 -198 -109q-93 0 -132.5 28t-31.5 81l66 416q5 3 11 3l9 -3l-66 -416q-7 -46 27 -68.5t120 -22.5t127 22.5t48 68.5l66 416q5 3 11 3zM297 608l2 14q8 48 69 48q31 0 43.5 -12.5t8.5 -35.5l-2 -14q-8 -48 -68 -48q-61 0 -53 48zM317 622
l-2 -14q-3 -16 6 -24t32 -8q42 0 48 32l2 14q2 16 -6.5 24t-31.5 8q-43 0 -48 -32z" />
    <glyph glyph-name="Utilde.smcp" horiz-adv-x="508" 
d="M525 523l-66 -416q-16 -109 -198 -109q-93 0 -132.5 28t-31.5 81l66 416q5 3 11 3l9 -3l-66 -416q-7 -46 27 -68.5t120 -22.5t127 22.5t48 68.5l66 416q5 3 11 3zM242 564v4q9 53 65 53q28 0 52.5 -21.5t45.5 -21.5q39 0 45 37l1 4q4 2 9 2l9 -2l-1 -4q-8 -53 -64 -53
q-28 0 -53.5 21t-45.5 21q-39 0 -45 -36v-4q-4 -2 -9 -2z" />
    <glyph glyph-name="V.smcp" horiz-adv-x="490" 
d="M231 2l-113 521q5 3 11 3l10 -3l109 -502l267 502q6 3 12 3l9 -3l-278 -521q-6 -3 -14 -3z" />
    <glyph glyph-name="W.smcp" horiz-adv-x="762" 
d="M531 2l-71 501l-229 -501q-6 -3 -14 -3l-13 3l-82 521q6 3 12 3l10 -3l77 -502l229 502q6 3 14 3l12 -3l72 -502l235 502q5 3 11 3l10 -3l-245 -521q-7 -3 -15 -3z" />
    <glyph glyph-name="Wacute.smcp" horiz-adv-x="762" 
d="M531 2l-71 501l-229 -501q-6 -3 -14 -3l-13 3l-82 521q6 3 12 3l10 -3l77 -502l229 502q6 3 14 3l12 -3l72 -502l235 502q5 3 11 3l10 -3l-245 -521q-7 -3 -15 -3zM558 652l-108 -88q-6 -2 -11 -2l-11 2l106 88q5 2 12 2z" />
    <glyph glyph-name="Wcircumflex.smcp" horiz-adv-x="762" 
d="M531 2l-71 501l-229 -501q-6 -3 -14 -3l-13 3l-82 521q6 3 12 3l10 -3l77 -502l229 502q6 3 14 3l12 -3l72 -502l235 502q5 3 11 3l10 -3l-245 -521q-7 -3 -15 -3zM543 564l-62 69l-85 -69q-6 -2 -12 -2l-11 2l98 81q4 2 12 2l12 -2l71 -81q-4 -2 -11 -2z" />
    <glyph glyph-name="Wdieresis.smcp" horiz-adv-x="762" 
d="M531 2l-71 501l-229 -501q-6 -3 -14 -3l-13 3l-82 521q6 3 12 3l10 -3l77 -502l229 502q6 3 14 3l12 -3l72 -502l235 502q5 3 11 3l10 -3l-245 -521q-7 -3 -15 -3zM406 633l-11 -69q-5 -2 -9 -2l-10 2l11 69q4 2 10 2zM574 633l-11 -69q-5 -2 -9 -2l-10 2l11 69q4 2 10 2
z" />
    <glyph glyph-name="Wgrave.smcp" horiz-adv-x="762" 
d="M531 2l-71 501l-229 -501q-6 -3 -14 -3l-13 3l-82 521q6 3 12 3l10 -3l77 -502l229 502q6 3 14 3l12 -3l72 -502l235 502q5 3 11 3l10 -3l-245 -521q-7 -3 -15 -3zM489 564l-80 88q5 2 12 2l12 -2l78 -88q-4 -2 -11 -2z" />
    <glyph glyph-name="X.smcp" horiz-adv-x="452" 
d="M395 2l-130 248l-208 -248q-7 -3 -13 -3l-11 3l221 263l-135 258q6 3 12 3l12 -3l127 -243l203 243q6 3 14 3l10 -3l-217 -258l139 -263q-6 -3 -13 -3z" />
    <glyph glyph-name="Y.smcp" horiz-adv-x="452" 
d="M497 523l-224 -284l-37 -237q-6 -3 -11 -3l-9 3l37 237l-134 284q6 3 12 3l12 -3l123 -266l207 266q6 3 14 3z" />
    <glyph glyph-name="Yacute.smcp" horiz-adv-x="452" 
d="M497 523l-224 -284l-37 -237q-6 -3 -11 -3l-9 3l37 237l-134 284q6 3 12 3l12 -3l123 -266l207 266q6 3 14 3zM403 652l-107 -88q-6 -2 -12 -2l-11 2l106 88q5 2 12 2z" />
    <glyph glyph-name="Ycircumflex.smcp" horiz-adv-x="452" 
d="M497 523l-224 -284l-37 -237q-6 -3 -11 -3l-9 3l37 237l-134 284q6 3 12 3l12 -3l123 -266l207 266q6 3 14 3zM389 564l-63 69l-85 -69q-6 -2 -11 -2l-12 2l98 81q5 2 12 2l12 -2l71 -81q-4 -2 -11 -2z" />
    <glyph glyph-name="Ydieresis.smcp" horiz-adv-x="452" 
d="M497 523l-224 -284l-37 -237q-6 -3 -11 -3l-9 3l37 237l-134 284q6 3 12 3l12 -3l123 -266l207 266q6 3 14 3zM251 633l-11 -69q-4 -2 -9 -2l-10 2l11 69q4 2 10 2zM419 633l-11 -69q-4 -2 -9 -2l-10 2l11 69q4 2 10 2z" />
    <glyph glyph-name="Ygrave.smcp" horiz-adv-x="452" 
d="M497 523l-224 -284l-37 -237q-6 -3 -11 -3l-9 3l37 237l-134 284q6 3 12 3l12 -3l123 -266l207 266q6 3 14 3zM334 564l-79 88q5 2 12 2l12 -2l78 -88q-5 -2 -11 -2z" />
    <glyph glyph-name="Z.smcp" horiz-adv-x="463" 
d="M487 507l-406 -489h328l2 -9l-4 -9h-351l-2 9l4 9l406 489h-328l-2 9l5 9h351l1 -9z" />
    <glyph glyph-name="Zacute.smcp" horiz-adv-x="463" 
d="M487 507l-406 -489h328l2 -9l-4 -9h-351l-2 9l4 9l406 489h-328l-2 9l5 9h351l1 -9zM408 652l-107 -88q-6 -2 -11 -2l-12 2l106 88q5 2 12 2z" />
    <glyph glyph-name="Zcaron.smcp" horiz-adv-x="463" 
d="M487 507l-406 -489h328l2 -9l-4 -9h-351l-2 9l4 9l406 489h-328l-2 9l5 9h351l1 -9zM259 645l63 -69l85 69q6 2 11 2l12 -2l-98 -81q-5 -2 -12 -2l-12 2l-71 81q4 2 11 2z" />
    <glyph glyph-name="Zdotaccent.smcp" horiz-adv-x="463" 
d="M487 507l-406 -489h328l2 -9l-4 -9h-351l-2 9l4 9l406 489h-328l-2 9l5 9h351l1 -9zM341 633l-11 -69q-5 -2 -10 -2l-10 2l11 69q4 3 10 3z" />
    <glyph glyph-name="uni018F.smcp" horiz-adv-x="508" 
d="M297 275h168l23 143q7 47 -25 69t-119 22q-88 0 -127 -22t-46 -69l-2 -11q-4 -2 -10 -2l-10 2l2 11q17 109 196 109q94 0 132.5 -27.5t29.5 -81.5l-50 -311q-16 -109 -196 -109q-95 0 -132.5 27.5t-29.5 81.5l26 164q68 4 170 4zM145 257l-24 -150q-7 -47 25 -69t120 -22
q87 0 126 22t46 69l24 150h-317z" />
    <glyph glyph-name="germandbls.smcp" horiz-adv-x="511" 
d="M107 2l56 357h-47l-1 9l4 9h47l9 56q14 94 122 94q59 0 81.5 -23.5t14.5 -70.5l-2 -11q-5 -32 -22 -52t-35 -27.5t-34.5 -24.5t-20.5 -44l-2 -11q-4 -27 19 -40.5t69 -23.5q36 -8 56.5 -15.5t37 -26t12.5 -45.5l-2 -15q-16 -100 -135 -100q-63 0 -87 25.5t-16 75.5l1 7
q5 2 10 2l10 -2l-1 -7q-7 -42 12.5 -62.5t73.5 -20.5t79.5 20t32.5 62l2 15q5 29 -19 44t-71 25q-33 8 -53.5 15t-37.5 24.5t-13 42.5l2 11q5 31 22 50t34.5 26t34 25t21.5 47l2 11q6 39 -11.5 57.5t-67.5 18.5q-48 0 -70.5 -18.5t-28.5 -57.5l-68 -431q-5 -3 -11 -3z" />
    <glyph glyph-name="zero.slash" horiz-adv-x="580" 
d="M640 698l-57 -71q11 -30 5 -67l-66 -420q-24 -143 -233 -143q-133 0 -173 57l-42 -52q-8 -3 -13 -3l-11 3l56 69q-11 32 -4 69l66 420q22 143 233 143q133 0 172 -57l43 52q5 3 13 3zM188 560l-16 -105l-34 -210l-16 -105q-5 -31 0 -49l438 538q-31 54 -162 54
q-102 0 -151 -30.5t-59 -92.5zM568 560q4 27 0 49l-438 -538q30 -54 162 -54q102 0 151 30.5t59 92.5z" />
    <glyph glyph-name="zero.fitted" horiz-adv-x="556" 
d="M107 140l66 420q22 143 228 143q106 0 149.5 -36.5t32.5 -106.5l-66 -420q-24 -143 -228 -143q-106 0 -150 36.5t-32 106.5zM193 560l-17 -105l-32 -210l-17 -105q-10 -62 28 -92.5t137 -30.5t147 30.5t58 92.5l66 420q10 62 -28 92.5t-137 30.5t-147 -30.5t-58 -92.5z
" />
    <glyph glyph-name="zero.fitted.slash" horiz-adv-x="556" 
d="M622 698l-56 -70q11 -28 5 -68l-66 -420q-24 -143 -228 -143q-129 0 -168 56l-41 -51q-8 -3 -13 -3l-11 3l55 70q-11 30 -4 68l66 420q22 143 228 143q129 0 168 -57l41 52q5 3 13 3zM181 560l-17 -105l-32 -210l-17 -105q-5 -28 0 -49l428 538q-29 54 -157 54
q-99 0 -147 -30.5t-58 -92.5zM551 560q5 27 0 48l-429 -538q30 -53 158 -53q99 0 147 30.5t58 92.5z" />
    <glyph glyph-name="one.fitted" horiz-adv-x="556" 
d="M125 20h146l104 658l-170 2q-1 4 0 9l3 9q78 3 191 3l-108 -681h146l2 -10l-5 -10h-312l-3 10z" />
    <glyph glyph-name="two.fitted" horiz-adv-x="556" 
d="M542 500l9 60q10 63 -27.5 93t-139.5 30q-99 0 -146 -30.5t-57 -92.5l-2 -15q-5 -3 -11 -3l-9 3l2 15q11 71 64 107t162 36q111 0 153 -36t31 -107l-9 -60q-8 -53 -35.5 -91.5t-65 -61t-81.5 -41t-88 -36t-81.5 -40t-65 -60.5t-35.5 -90l-9 -60h384l1 -10l-4 -10h-217
l-187 5l12 75q9 55 36.5 96t65 64.5t82 42.5t88 36.5t81 38.5t64.5 57t35 85z" />
    <glyph glyph-name="three.fitted" horiz-adv-x="556" 
d="M186 680l-1 10l4 10h395l2 -10l-5 -10l-274 -288q77 0 126.5 -12.5t69 -33.5t26 -49.5t-1.5 -61.5l-13 -81q-26 -157 -235 -157q-67 0 -118 11t-69 22l-17 12l-1 10l4 11q7 -5 21.5 -12.5t67.5 -20.5t115 -13q102 0 151.5 34t60.5 103l13 81q11 71 -33 104t-157 33h-40
l-1 10l5 10l274 288h-369z" />
    <glyph glyph-name="four.fitted" horiz-adv-x="556" 
d="M501 498l-47 -298h86l2 -10l-5 -10h-86l-28 -178q-6 -3 -11 -3l-9 3l28 178h-335l-1 10l298 508q6 3 13 3l11 -3l-295 -498h312l47 298q5 3 11 3z" />
    <glyph glyph-name="five.fitted" horiz-adv-x="556" 
d="M246 680l-62 -280h153q120 0 157.5 -41t25.5 -116l-14 -89q-26 -157 -227 -157q-43 0 -79.5 4.5t-59 11t-38.5 13.5t-22 12l-7 4l-1 10l4 11q7 -5 22 -12.5t68 -20.5t116 -13q98 0 145.5 33.5t58.5 103.5l14 89q11 70 -27 103.5t-139 33.5h-172l-2 10l69 305q74 5 188 5
h134l2 -10l-5 -10h-302z" />
    <glyph glyph-name="six.fitted" horiz-adv-x="556" 
d="M166 372q9 6 27 15.5t78.5 25t128.5 15.5q85 0 116.5 -36.5t20.5 -106.5l-23 -145q-24 -143 -225 -143q-105 0 -148 36.5t-31 106.5l62 394q13 83 66.5 125.5t159.5 42.5q52 0 95 -6t59 -12l17 -7l1 -10l-5 -11q-58 26 -170 26q-99 0 -145 -36t-58 -111zM162 343
l-32 -203q-10 -62 27 -92.5t135 -30.5t145 30.5t57 92.5l23 145q9 63 -17 93t-102 30q-46 0 -87.5 -6.5t-67.5 -16t-45 -19.5t-28 -16z" />
    <glyph glyph-name="seven.fitted" horiz-adv-x="556" 
d="M600 690l-404 -688q-6 -3 -13 -3l-11 3l400 678h-397l-1 10l4 10h420z" />
    </font>
</defs>
</svg>
