<?xml version="1.0" standalone="no"?>
<!DOCTYPE svg PUBLIC "-//W3C//DTD SVG 1.1//EN" "http://www.w3.org/Graphics/SVG/1.1/DTD/svg11.dtd" >
<svg xmlns="http://www.w3.org/2000/svg" xmlns:xlink="http://www.w3.org/1999/xlink" version="1.1">
<metadata>
Created by FontForge 20170731 at Sun Dec 22 19:41:48 2013
 By Aleksey,,,
Copyright (c) 2013 by Andriy Konstantynov. All rights reserved.
</metadata>
<defs>
<font id="PancettaPro-LightItalic" horiz-adv-x="522" >
  <font-face 
    font-family="Pancetta Pro"
    font-weight="300"
    font-style="italic"
    font-stretch="normal"
    units-per-em="1000"
    panose-1="2 11 0 3 3 2 0 8 0 4"
    ascent="775"
    descent="-225"
    x-height="500"
    cap-height="702"
    bbox="-84 -226 1119 895"
    underline-thickness="50"
    underline-position="-150"
    unicode-range="U+0020-FB03"
  />
<missing-glyph horiz-adv-x="197" 
 />
    <glyph glyph-name="ff" unicode="ff" horiz-adv-x="656" 
d="M694 460h-154l-104 -657q-15 -5 -31 -5l-29 5l104 657h-239l-104 -657q-15 -5 -30 -5l-30 5l104 657h-55q-2 8 0 21l7 21h55l10 67q22 135 159 135q40 0 75 -10l1 -20l-8 -21q-22 9 -58 9q-52 0 -76.5 -22.5t-32.5 -70.5l-10 -67h239l10 67q22 135 158 135q41 0 76 -10
q2 -9 0 -20l-7 -21q-23 9 -58 9q-52 0 -76.5 -22.5t-32.5 -70.5l-10 -67h153l1 -21z" />
    <glyph glyph-name="fi" unicode="fi" horiz-adv-x="571" 
d="M395 460h-154l-104 -657q-15 -5 -30 -5l-30 5l104 657h-55q-2 8 0 21l7 21h55l10 67q22 135 159 135q40 0 75 -10l1 -20l-8 -21q-22 9 -58 9q-52 0 -76.5 -22.5t-32.5 -70.5l-10 -67h154l1 -21zM581 697l-16 -100q-16 -4 -31 -4l-29 4l16 100q15 5 31 5zM526 38
q14 0 26 3l1 -20l-7 -19q-24 -6 -44 -6q-92 0 -76 101l63 400q15 5 31 5l29 -5l-63 -400q-5 -30 4 -44.5t36 -14.5z" />
    <glyph glyph-name="ffi" unicode="ffi" horiz-adv-x="870" 
d="M694 460h-154l-104 -657q-15 -5 -31 -5l-29 5l104 657h-239l-104 -657q-15 -5 -30 -5l-30 5l104 657h-55q-2 8 0 21l7 21h55l10 67q22 135 159 135q40 0 75 -10l1 -20l-8 -21q-22 9 -58 9q-52 0 -76.5 -22.5t-32.5 -70.5l-10 -67h239l10 67q22 135 158 135q41 0 76 -10
q2 -9 0 -20l-7 -21q-23 9 -58 9q-52 0 -76.5 -22.5t-32.5 -70.5l-10 -67h153l1 -21zM880 697l-16 -100q-16 -4 -31 -4l-29 4l16 100q15 5 31 5zM825 38q13 0 26 3q2 -9 0 -20l-6 -19q-26 -6 -44 -6q-93 0 -77 101l64 400q15 5 31 5l29 -5l-64 -400q-4 -30 5 -44.5t36 -14.5z
" />
    <glyph glyph-name="f_f_j" unicode="ffj" horiz-adv-x="840" 
d="M694 460h-154l-104 -657q-15 -5 -31 -5l-29 5l104 657h-239l-104 -657q-15 -5 -30 -5l-30 5l104 657h-55q-2 8 0 21l7 21h55l10 67q22 135 159 135q40 0 75 -10l1 -20l-8 -21q-22 9 -58 9q-52 0 -76.5 -22.5t-32.5 -70.5l-10 -67h239l10 67q22 135 158 135q41 0 76 -10
q2 -9 0 -20l-7 -21q-23 9 -58 9q-52 0 -76.5 -22.5t-32.5 -70.5l-10 -67h153l1 -21zM698 -76l91 573q15 5 31 5l29 -5l-91 -573q-10 -64 -43.5 -96t-98.5 -32q-38 0 -71 10l-1 20l7 21q23 -9 55 -9q44 0 65 21t27 65zM881 697l-16 -100q-16 -4 -31 -4l-29 4l16 100
q15 5 31 5z" />
    <glyph glyph-name="f_j" unicode="fj" horiz-adv-x="542" 
d="M395 460h-154l-104 -657q-15 -5 -30 -5l-30 5l104 657h-55q-2 8 0 21l7 21h55l10 67q22 135 159 135q40 0 75 -10l1 -20l-8 -21q-22 9 -58 9q-52 0 -76.5 -22.5t-32.5 -70.5l-10 -67h154l1 -21zM401 -76l91 573q15 5 31 5l29 -5l-91 -573q-10 -64 -43.5 -96t-98.5 -32
q-39 0 -71 10l-1 20l7 21q23 -9 55 -9q44 0 64.5 20.5t27.5 65.5zM584 697l-16 -100q-16 -4 -31 -4l-29 4l16 100q15 5 31 5z" />
    <glyph glyph-name="f_iogonek" unicode="f&#x12f;" horiz-adv-x="571" 
d="M395 460h-154l-104 -657q-15 -5 -30 -5l-30 5l104 657h-55q-2 8 0 21l7 21h55l10 67q22 135 159 135q40 0 75 -10l1 -20l-8 -21q-22 9 -58 9q-52 0 -76.5 -22.5t-32.5 -70.5l-10 -67h154l1 -21zM413 -85q6 40 61 84q-62 12 -48 98l63 400q15 5 31 5l29 -5l-63 -400
q-5 -30 4 -44.5t36 -14.5q14 0 26 3l1 -20l-7 -19q-24 -6 -42 -6q-46 -40 -52 -78q-6 -44 43 -44q15 0 30.5 4t22.5 8l8 5l1 -16l-6 -14q-24 -19 -69 -19q-80 0 -69 73zM581 697l-16 -100q-16 -4 -31 -4l-29 4l16 100q15 5 31 5z" />
    <glyph glyph-name="f_f_iogonek" unicode="ff&#x12f;" horiz-adv-x="870" 
d="M694 460h-154l-104 -657q-15 -5 -31 -5l-29 5l104 657h-239l-104 -657q-15 -5 -30 -5l-30 5l104 657h-55q-2 8 0 21l7 21h55l10 67q22 135 159 135q40 0 75 -10l1 -20l-8 -21q-22 9 -58 9q-52 0 -76.5 -22.5t-32.5 -70.5l-10 -67h239l10 67q22 135 158 135q41 0 76 -10
q2 -9 0 -20l-7 -21q-23 9 -58 9q-52 0 -76.5 -22.5t-32.5 -70.5l-10 -67h153l1 -21zM825 38q13 0 26 3q2 -9 0 -20l-6 -19q-26 -6 -43 -6q-46 -40 -51 -78q-8 -44 42 -44q16 0 31 4t22 8l8 5l1 -16l-5 -14q-25 -19 -69 -19q-80 0 -69 73q6 44 60 84q-62 12 -48 98l64 400
q15 5 31 5l29 -5l-64 -400q-4 -30 5 -44.5t36 -14.5zM880 697l-16 -100q-16 -4 -31 -4l-29 4l16 100q15 5 31 5z" />
    <glyph glyph-name="quoteright_afii10104" unicode="&#x2019;&#x457;" horiz-adv-x="302" 
d="M292 497l-78 -495q-16 -4 -31 -4l-29 4l78 495q15 5 31 5zM231 697q-10 -61 -32.5 -108.5t-40.5 -64.5l-18 -17q-10 -4 -18 -4l-17 4q6 7 16 20t30.5 62t29.5 108q13 5 26 5zM394 697l-15 -96q-13 -4 -26 -4l-24 4l15 96q11 5 26 5z" />
    <glyph glyph-name="afii10103_afii10104" unicode="&#x456;&#x457;" horiz-adv-x="395" 
d="M207 497l-78 -495q-16 -4 -31 -4l-29 4l78 495q15 5 31 5zM234 697l-16 -100q-15 -4 -29 -4l-26 4l16 100q14 5 28 5zM404 497l-78 -495q-16 -4 -31 -4l-29 4l78 495q15 5 31 5zM370 697l-15 -96q-13 -4 -26 -4l-24 4l15 96q12 5 26 5zM506 697l-15 -96q-12 -4 -26 -4
l-24 4l15 96q12 5 26 5z" />
    <glyph glyph-name="afii10104_afii10104" unicode="&#x457;&#x457;" horiz-adv-x="395" 
d="M207 497l-78 -495q-16 -4 -31 -4l-29 4l78 495q15 5 31 5zM159 697l-15 -96q-13 -4 -26 -4l-24 4l15 96q11 5 26 5zM332 697l-15 -96q-12 -4 -26 -4l-24 4l15 96q12 5 26 5zM404 497l-78 -495q-16 -4 -31 -4l-29 4l78 495q15 5 31 5zM506 697l-15 -96q-12 -4 -26 -4
l-24 4l15 96q12 5 26 5z" />
    <glyph glyph-name=".notdef" horiz-adv-x="197" 
 />
    <glyph glyph-name=".null" horiz-adv-x="0" 
 />
    <glyph glyph-name="nonmarkingreturn" horiz-adv-x="333" 
 />
    <glyph glyph-name="space" unicode=" " horiz-adv-x="197" 
 />
    <glyph glyph-name="exclam" unicode="!" horiz-adv-x="197" 
d="M145 95l-15 -93q-17 -4 -32 -4l-31 4l15 93q15 4 32 4zM239 697l-78 -490q-16 -4 -31 -4l-29 4l78 490q15 5 31 5z" />
    <glyph glyph-name="quotedbl" unicode="&#x22;" horiz-adv-x="295" 
d="M224 697l-36 -200q-10 -4 -20 -4l-20 4l28 200q12 5 25 5zM339 697l-36 -200q-10 -4 -20 -4l-20 4l28 200q12 5 25 5z" />
    <glyph glyph-name="numbersign" unicode="#" horiz-adv-x="542" 
d="M506 189h-74l-45 -187q-14 -4 -26 -4l-24 4l45 187h-190l-45 -187q-14 -4 -26 -4l-24 4l45 187h-65q-3 8 0 21l6 21h69l59 238h-66l-1 21l8 21h69l46 186q13 5 26 5l24 -5l-46 -186h190l46 186q13 5 26 5l24 -5l-46 -186h70q2 -8 0 -21l-7 -21h-73l-59 -238h70l1 -21z
M261 469l-59 -238h190l59 238h-190z" />
    <glyph glyph-name="dollar" unicode="$" horiz-adv-x="558" 
d="M219 545l-8 -51q-5 -31 12.5 -53.5t48.5 -35t69.5 -23.5t77 -23.5t69 -30t46.5 -48.5t9 -74l-7 -51q-12 -75 -65.5 -114.5t-158.5 -43.5l-15 -95q-13 -4 -25 -4l-25 4l15 95q-106 4 -145 43.5t-27 114.5l2 14q16 4 32 4l29 -4l-2 -14q-9 -60 23 -87t120 -27t129 27.5
t50 86.5l8 51q5 34 -12 57.5t-48 37t-69.5 24.5t-77 23.5t-69 29t-46.5 46t-10 70.5l8 51q12 74 62.5 113.5t154.5 44.5l15 94q12 5 25 5l25 -5l-15 -94q102 -4 139 -43.5t25 -114.5l-2 -14q-16 -4 -31 -4l-30 4l2 14q9 59 -20.5 86.5t-113.5 27.5q-85 0 -125 -27.5
t-49 -86.5z" />
    <glyph glyph-name="percent" unicode="%" horiz-adv-x="639" 
d="M133 568l4 28q17 107 139 107q121 0 104 -107l-4 -28q-16 -107 -139 -107q-120 0 -104 107zM368 104l5 28q16 107 138 107t104 -107l-5 -28q-15 -107 -137 -107q-121 0 -105 107zM686 697l-567 -695q-16 -4 -29 -4l-26 4l567 695q13 5 29 5zM178 596l-4 -28
q-5 -35 11 -52t59 -17q80 0 90 69l4 28q6 35 -9.5 52t-58.5 17q-80 0 -92 -69zM414 132l-5 -28q-5 -36 11 -52.5t59 -16.5q81 0 90 69l5 28q6 35 -10 52t-59 17t-64 -17t-27 -52z" />
    <glyph glyph-name="ampersand" unicode="&#x26;" horiz-adv-x="709" 
d="M725 457h-151l-51 -326q-9 -48 9 -70.5t70 -22.5q29 0 59 10q2 -9 0 -20l-7 -20q-45 -12 -74 -12q-72 0 -97 37q-1 0 -11 -4.5t-25.5 -9.5t-37 -10.5t-51.5 -9t-63 -3.5q-120 0 -169 43t-35 124l7 52q19 116 148 145q-106 29 -89 140l7 40q27 164 237 164
q115 0 157.5 -39t29.5 -116l-7 -49h151q2 -9 0 -21zM353 380h51l1 -21l-7 -22h-51q-91 0 -135 -29.5t-54 -92.5l-7 -52q-11 -65 23.5 -95t127.5 -30q90 0 165 34q-5 26 1 59l65 418q10 58 -20.5 85.5t-117.5 27.5q-82 0 -122 -30t-49 -92l-7 -40q-9 -62 22 -91t114 -29z" />
    <glyph glyph-name="quotesingle" unicode="'" horiz-adv-x="180" 
d="M224 697l-36 -200q-10 -4 -20 -4l-20 4l28 200q12 5 25 5z" />
    <glyph glyph-name="parenleft" unicode="(" horiz-adv-x="284" 
d="M248 -107q2 -9 0 -21l-7 -22q-173 0 -149 153l95 595q24 153 196 153l1 -21l-7 -21q-63 0 -94.5 -27t-39.5 -84l-94 -595q-9 -57 13.5 -83.5t85.5 -26.5z" />
    <glyph glyph-name="parenright" unicode=")" horiz-adv-x="284" 
d="M155 709l-1 21l7 21q173 0 149 -153l-95 -595q-24 -153 -196 -153l-1 22l8 21q63 0 94 26.5t39 83.5l95 595q9 57 -13.5 84t-85.5 27z" />
    <glyph glyph-name="asterisk" unicode="*" horiz-adv-x="479" 
d="M150 582l151 -55l25 170q12 5 25 5l22 -5l-29 -169l170 54q5 -8 8 -21l-1 -24l-170 -50l80 -136q-9 -10 -19 -17l-24 -11l-76 140l-120 -140q-11 3 -20 10l-13 18l122 135l-153 50q0 12 6 25z" />
    <glyph glyph-name="plus" unicode="+" horiz-adv-x="415" 
d="M302 461l-22 -140h139l1 -21l-8 -21h-140l-21 -140q-9 -4 -22 -4l-22 4l22 140h-139l-1 21l8 21h139l22 140q10 4 23 4z" />
    <glyph glyph-name="comma" unicode="," horiz-adv-x="195" 
d="M141 95q-10 -62 -33.5 -110t-42.5 -65l-19 -18q-11 -4 -21 -4l-19 4q6 7 16 20.5t31 63.5t30 109q14 4 29 4z" />
    <glyph glyph-name="hyphen" unicode="-" horiz-adv-x="297" 
d="M292 265h-204l-1 21l8 21h203l1 -21z" />
    <glyph glyph-name="period" unicode="." horiz-adv-x="195" 
d="M142 95l-14 -93q-17 -4 -32 -4l-29 4l15 93q14 4 30 4z" />
    <glyph glyph-name="slash" unicode="/" horiz-adv-x="391" 
d="M469 747l-385 -845q-15 -4 -30 -4l-29 4l385 845q14 5 30 5z" />
    <glyph glyph-name="zero" unicode="0" horiz-adv-x="573" 
d="M103 149l63 402q24 153 243 153q114 0 160.5 -39t34.5 -114l-64 -402q-25 -153 -243 -153q-114 0 -160 39t-34 114zM226 551l-16 -101l-32 -200l-15 -101q-9 -57 23 -84t118 -27t126.5 27t49.5 84l64 402q8 57 -24 84t-117 27q-86 0 -127 -27t-50 -84z" />
    <glyph glyph-name="one" unicode="1" horiz-adv-x="329" 
d="M331 701l-111 -699q-16 -4 -31 -4l-29 4l103 649l-125 4q-1 9 1 21l6 21q74 4 186 4z" />
    <glyph glyph-name="two" unicode="2" horiz-adv-x="548" 
d="M507 494l8 51q10 60 -21.5 88.5t-117.5 28.5q-85 0 -124.5 -28.5t-48.5 -88.5l-2 -14q-15 -4 -30 -4l-29 4l2 14q13 80 67.5 119.5t171.5 39.5q116 0 160 -40t32 -119l-8 -51q-8 -51 -34.5 -89.5t-62 -61t-77.5 -41t-84 -35.5t-77.5 -37.5t-61 -54.5t-32.5 -80l-8 -53
h361q2 -8 0 -21l-6 -21h-226q-52 0 -100.5 1.5t-70.5 2.5l-23 2l14 89q10 61 43.5 104.5t77.5 65.5t95 44.5t94.5 41.5t76.5 55.5t41 87.5z" />
    <glyph glyph-name="three" unicode="3" horiz-adv-x="548" 
d="M172 656q-2 9 0 22l7 22h404l1 -21l-8 -22l-253 -259q72 0 118 -13t64.5 -35.5t25 -53t-1.5 -64.5l-11 -69q-27 -167 -255 -167q-61 0 -110.5 11t-68.5 21l-18 11l-1 22l8 22q0 -2 20 -12t69 -21.5t107 -11.5q92 0 135.5 30t53.5 95l11 69q11 65 -26 94.5t-134 29.5h-55
l-1 22l8 22l248 256h-337z" />
    <glyph glyph-name="four" unicode="4" horiz-adv-x="531" 
d="M503 497l-44 -282h73l1 -22l-8 -22h-71l-27 -169q-16 -4 -31 -4l-28 4l27 169h-315q-2 9 0 22l275 504q13 4 30 4l31 -4l-265 -482h251l44 282q15 5 30 5z" />
    <glyph glyph-name="five" unicode="5" horiz-adv-x="539" 
d="M261 657l-56 -249h120q125 0 165.5 -43.5t27.5 -124.5l-12 -77q-27 -167 -247 -167q-61 0 -110.5 11t-68.5 21l-18 11l-1 22l8 22q0 -2 20 -12t69 -21.5t107 -11.5q87 0 129 30t52 95l12 77q10 63 -22 93.5t-118 30.5h-174q-3 8 0 22l71 307q77 7 195 7h137l1 -21l-7 -22
h-280z" />
    <glyph glyph-name="six" unicode="6" horiz-adv-x="565" 
d="M200 386q9 6 25.5 14.5t71.5 22.5t115 14q88 0 121 -38.5t21 -114.5l-21 -135q-25 -153 -240 -153q-112 0 -157 39t-33 114l59 379q14 86 73.5 130.5t177.5 44.5q50 0 92.5 -6.5t60.5 -12.5l17 -6q2 -8 0 -21l-8 -22q-62 26 -172 26q-87 0 -128.5 -32.5t-52.5 -99.5z
M193 340l-30 -191q-9 -57 22 -84t115 -27t124 27t49 84l21 135q9 57 -14 83.5t-90 26.5q-61 0 -110 -13.5t-68 -26.5z" />
    <glyph glyph-name="seven" unicode="7" 
d="M581 679l-372 -677q-13 -4 -32 -4l-32 4l364 654h-353q-2 9 0 22l7 22h416z" />
    <glyph glyph-name="eight" unicode="8" horiz-adv-x="572" 
d="M171 491l9 60q24 153 229 153q108 0 150.5 -39t30.5 -114l-9 -60q-18 -102 -116 -130q105 -28 88 -134l-12 -78q-24 -153 -244 -153q-116 0 -162 39t-34 114l12 78q17 106 131 134q-90 29 -73 130zM173 227l-12 -78q-9 -57 23.5 -84t119.5 -27q86 0 127.5 27t49.5 84
l12 78q9 57 -23 84t-119 27t-128 -27t-50 -84zM240 551l-9 -60q-9 -57 19.5 -84t107.5 -27q78 0 116 27t47 84l9 60q9 57 -20 84t-107 27q-79 0 -116.5 -27t-46.5 -84z" />
    <glyph glyph-name="nine" unicode="9" horiz-adv-x="565" 
d="M466 170l25 157q-9 -6 -25.5 -14.5t-72 -22.5t-115.5 -14q-88 0 -120.5 38.5t-20.5 114.5l19 121q24 153 240 153q112 0 157 -39t33 -114l-60 -379q-27 -175 -250 -175q-49 0 -92.5 6t-61.5 12l-19 7q-2 8 0 21l7 22q67 -26 176 -26q87 0 128 32.5t52 99.5zM498 373
l28 177q9 57 -22 84t-115 27t-124 -27t-49 -84l-19 -121q-9 -58 13.5 -84t90.5 -26q61 0 110 13.5t68 27.5z" />
    <glyph glyph-name="colon" unicode=":" horiz-adv-x="195" 
d="M142 95l-14 -93q-17 -4 -32 -4l-29 4l15 93q14 4 30 4zM206 497l-15 -92q-16 -4 -31 -4l-29 4l14 92q15 5 31 5z" />
    <glyph glyph-name="semicolon" unicode=";" horiz-adv-x="195" 
d="M206 497l-15 -92q-16 -4 -31 -4l-29 4l14 92q15 5 31 5zM141 95q-10 -62 -33.5 -110t-42.5 -65l-19 -18q-11 -4 -21 -4l-19 4q6 7 16 20.5t31 63.5t30 109q14 4 29 4z" />
    <glyph glyph-name="less" unicode="&#x3c;" horiz-adv-x="457" 
d="M472 456l-291 -140l247 -140q2 -13 0 -26l-8 -25l-328 191l389 192q2 -14 0 -26z" />
    <glyph glyph-name="equal" unicode="=" horiz-adv-x="435" 
d="M419 200h-342l-1 22l7 21h343l1 -21zM450 390h-342l-1 21l8 21h342q2 -8 0 -21z" />
    <glyph glyph-name="greater" unicode="&#x3e;" horiz-adv-x="457" 
d="M85 177l291 139l-247 140q-2 14 0 26l8 26l328 -192l-388 -191q-2 13 0 26z" />
    <glyph glyph-name="question" unicode="?" horiz-adv-x="518" 
d="M477 494l8 51q10 61 -17.5 89t-106.5 28q-77 0 -113 -28.5t-45 -88.5l-2 -14q-15 -4 -30 -4l-29 4l2 14q13 80 64 119.5t160 39.5q107 0 148 -40t29 -119l-8 -51q-7 -41 -29 -69.5t-50 -43.5t-55.5 -29t-49 -37t-26.5 -58l-9 -50q-15 -4 -30 -4l-30 4l9 50q7 43 29 71.5
t50 44t55.5 29t49 36.5t26.5 56zM302 95l-14 -93q-17 -4 -33 -4l-30 4l14 93q16 4 32 4z" />
    <glyph glyph-name="at" unicode="@" horiz-adv-x="671" 
d="M83 -10l52 332q15 90 91.5 136t232.5 46q127 0 176 -42.5t35 -126.5l-52 -333q-15 -4 -31 -4l-29 4l7 44q-8 -6 -23 -14t-65 -22t-105 -14q-71 0 -97.5 32.5t-16.5 97.5l3 21q10 60 56.5 92t142.5 42l145 16l5 38q11 65 -24.5 96t-132.5 31q-130 0 -188 -33.5t-70 -106.5
l-52 -332q-14 -85 28 -118.5t164 -33.5q69 0 132.5 11.5t92 21.5t28.5 12l2 -22l-9 -22q-10 -5 -29 -12t-85 -19t-139 -12q-149 0 -205 47t-40 147zM598 255l-136 -15q-70 -7 -102.5 -29.5t-38.5 -63.5l-3 -21q-7 -45 10.5 -66.5t69.5 -21.5q53 0 96.5 14t60.5 28l17 13z
" />
    <glyph glyph-name="A" unicode="A" horiz-adv-x="596" 
d="M27 2l339 695q20 5 43 5l41 -5l119 -695q-17 -4 -31 -4l-31 4l-34 197h-288l-96 -197q-17 -4 -33 -4zM400 646l-196 -402h265z" />
    <glyph glyph-name="B" unicode="B" horiz-adv-x="570" 
d="M69 4l109 692q92 7 219 7q112 0 157 -41.5t32 -121.5l-6 -40q-19 -112 -132 -140q119 -28 100 -145l-8 -52q-27 -167 -255 -167q-56 0 -110 2t-80 4zM184 337l-47 -296h155q90 0 133 29.5t53 92.5l8 52q9 63 -24 92.5t-123 29.5h-155zM235 659l-44 -278h155q82 0 122 29
t49 90l6 40q10 61 -20 90t-113 29h-155z" />
    <glyph glyph-name="C" unicode="C" horiz-adv-x="588" 
d="M105 155l61 390q12 79 73.5 119t184.5 40t169 -40t33 -119l-2 -14q-15 -4 -30 -4l-28 4l2 14q10 59 -23.5 86.5t-127.5 27.5t-136.5 -27.5t-51.5 -86.5l-62 -390q-9 -60 25.5 -87t131.5 -27q60 0 114 11t79 22l24 11q0 -1 0.5 -2.5t1.5 -7.5t-1 -13l-8 -23
q-8 -5 -24.5 -12t-73 -19t-119.5 -12q-126 0 -175.5 40t-36.5 119z" />
    <glyph glyph-name="D" unicode="D" horiz-adv-x="594" 
d="M178 696q88 7 220 7q125 0 175.5 -40t38.5 -118l-62 -390q-25 -159 -264 -159q-59 0 -113 2t-79 4l-25 2zM235 659l-98 -618h156q96 0 141 27.5t54 86.5l61 390q10 58 -26.5 86t-131.5 28h-156z" />
    <glyph glyph-name="E" unicode="E" horiz-adv-x="524" 
d="M184 337l-46 -292h347q3 -9 0 -23l-7 -22h-214q-52 0 -101 1.5t-71 2.5l-23 2l109 687q78 7 196 7h209q0 -1 0.5 -3t1.5 -8t-1 -12l-8 -22h-342l-43 -273h309l1 -22l-8 -23h-309z" />
    <glyph glyph-name="F" unicode="F" horiz-adv-x="511" 
d="M184 337l-53 -335q-16 -4 -32 -4l-30 4l109 691q78 7 196 7h201l1 -23l-8 -22h-334l-43 -273h300l1 -22l-8 -23h-300z" />
    <glyph glyph-name="G" unicode="G" horiz-adv-x="599" 
d="M599 356l-51 -317q-11 -5 -31 -12t-81.5 -19t-122.5 -12q-122 0 -171.5 40.5t-36.5 118.5l61 390q12 79 73.5 119t185.5 40q123 0 169.5 -40t34.5 -119l-2 -14q-15 -4 -30 -4l-28 4l2 14q9 59 -24.5 86.5t-128.5 27.5t-137.5 -27.5t-51.5 -86.5l-62 -390
q-9 -59 25.5 -86.5t126.5 -27.5q47 0 90.5 7.5t63.5 15.5l21 7l39 246h-156l-1 23l8 22h46q46 0 88 -1.5t61 -2.5z" />
    <glyph glyph-name="H" unicode="H" horiz-adv-x="613" 
d="M655 697l-110 -695q-17 -4 -33 -4l-30 4l53 334h-351l-53 -334q-16 -4 -32 -4l-30 4l110 695q15 5 32 5l30 -5l-50 -316h351l50 316q16 5 32 5z" />
    <glyph glyph-name="I" unicode="I" horiz-adv-x="305" 
d="M49 45h79l96 610h-79q-2 9 0 22l7 23h221l1 -23l-8 -22h-79l-96 -610h79q2 -9 0 -23l-7 -22h-221l-1 22z" />
    <glyph glyph-name="J" unicode="J" horiz-adv-x="470" 
d="M512 697l-86 -542q-12 -79 -64 -119t-155 -40q-48 0 -86 11t-52 21l-14 11l-1 23l8 23q6 -5 17 -12.5t50 -19.5t84 -12q74 0 108 27t43 87l86 542q15 5 32 5z" />
    <glyph glyph-name="K" unicode="K" horiz-adv-x="523" 
d="M430 2l-162 338l-87 -24l-50 -314q-17 -4 -32 -4l-30 4l110 695q15 5 32 5l30 -5l-53 -334l88 24l255 310q18 5 36 5l32 -5l-273 -334l172 -361q-17 -4 -35 -4z" />
    <glyph glyph-name="L" unicode="L" horiz-adv-x="487" 
d="M241 697l-103 -652h317q3 -9 0 -23l-7 -22h-184q-52 0 -101 1.5t-71 2.5l-23 2l110 691q15 5 32 5z" />
    <glyph glyph-name="M" unicode="M" horiz-adv-x="755" 
d="M797 698l-110 -695q-16 -5 -31 -5l-29 5l94 597l-297 -480q-13 -4 -29 -4l-30 4l-142 479l-94 -597q-16 -5 -31 -5l-29 5l110 695q18 4 39 4l39 -4l149 -502l312 503q19 4 40 4z" />
    <glyph glyph-name="N" unicode="N" horiz-adv-x="616" 
d="M69 2l110 695q14 5 28 5l27 -5l271 -581l92 581q15 5 31 5l29 -5l-110 -695q-14 -4 -28 -4l-27 4l-272 582l-91 -582q-16 -4 -31 -4z" />
    <glyph glyph-name="O" unicode="O" horiz-adv-x="612" 
d="M105 155l61 390q25 159 264 159q125 0 175.5 -40.5t38.5 -118.5l-62 -390q-25 -159 -264 -159q-125 0 -175.5 40.5t-37.5 118.5zM229 545l-16 -97l-30 -196l-16 -97q-9 -59 27 -86.5t131 -27.5t140 27.5t55 86.5l61 390q9 59 -27 86.5t-131 27.5t-140 -27.5t-54 -86.5z
" />
    <glyph glyph-name="P" unicode="P" horiz-adv-x="565" 
d="M178 696q84 7 210 7q117 0 164 -40t35 -118l-12 -74q-25 -158 -248 -158l-147 4l-49 -315q-17 -4 -32 -4l-30 4zM235 659l-48 -302h147q87 0 128.5 28t49.5 86l12 74q10 58 -23 86t-120 28h-146z" />
    <glyph glyph-name="Q" unicode="Q" horiz-adv-x="612" 
d="M419 -173l-65 170q-5 0 -17.5 -0.5t-18.5 -0.5q-125 0 -175.5 40.5t-37.5 118.5l61 390q25 159 264 159q125 0 175.5 -40.5t38.5 -118.5l-62 -390q-20 -126 -172 -152l74 -176q-15 -4 -33 -4zM229 545l-16 -97l-30 -196l-16 -97q-9 -59 27 -86.5t131 -27.5t140 27.5
t55 86.5l61 390q9 59 -27 86.5t-131 27.5t-140 -27.5t-54 -86.5z" />
    <glyph glyph-name="R" unicode="R" horiz-adv-x="569" 
d="M458 2l-123 311h-8l-147 4l-49 -315q-17 -4 -32 -4l-30 4l109 694q84 7 210 7q117 0 164 -40t35 -118l-12 -74q-22 -133 -177 -154l126 -315q-16 -4 -34 -4zM235 659l-48 -302h147q87 0 128.5 28t49.5 86l12 74q10 58 -23 86t-120 28h-146z" />
    <glyph glyph-name="S" unicode="S" horiz-adv-x="558" 
d="M220 545l-8 -51q-5 -31 12.5 -53.5t48.5 -35t69.5 -23.5t77 -23.5t69 -30t46.5 -48.5t9 -74l-7 -51q-13 -80 -71.5 -119.5t-177.5 -39.5q-121 0 -165.5 39.5t-31.5 119.5l2 14q16 4 32 4l29 -4l-2 -14q-9 -60 23 -87t120 -27t129 27.5t50 86.5l8 51q5 34 -12 57.5t-48 37
t-69.5 24.5t-77 23.5t-69 29t-46.5 46t-10 70.5l8 51q12 79 69.5 119t173.5 40q117 0 159 -39.5t29 -119.5l-2 -14q-16 -4 -31 -4l-30 4l2 14q9 59 -20.5 86.5t-113.5 27.5q-85 0 -125 -27.5t-49 -86.5z" />
    <glyph glyph-name="T" unicode="T" horiz-adv-x="553" 
d="M615 655h-203l-103 -653q-16 -4 -32 -4l-30 4l103 653h-207q-2 9 0 22l7 23h472l1 -23z" />
    <glyph glyph-name="U" unicode="U" horiz-adv-x="606" 
d="M661 697l-86 -542q-27 -159 -260 -159q-123 0 -172.5 40.5t-36.5 118.5l86 542q15 5 32 5l30 -5l-86 -542q-9 -59 26 -86.5t128 -27.5t137 27.5t53 86.5l86 542q16 5 32 5z" />
    <glyph glyph-name="V" unicode="V" horiz-adv-x="596" 
d="M256 2l-119 695q16 5 31 5l31 -5l107 -642l311 642q17 5 33 5l29 -5l-339 -695q-20 -4 -43 -4z" />
    <glyph glyph-name="W" unicode="W" horiz-adv-x="935" 
d="M631 2l-64 633l-262 -633q-21 -4 -44 -4l-41 4l-80 695q16 5 32 5l31 -5l70 -637l266 637q17 5 39 5l38 -5l65 -637l272 637q17 5 32 5l30 -5l-299 -695q-21 -4 -44 -4z" />
    <glyph glyph-name="X" unicode="X" horiz-adv-x="562" 
d="M470 2l-139 313l-238 -313q-20 -4 -36 -4l-33 4l271 352l-155 343q18 5 35 5l34 -5l134 -304l230 304q19 5 36 5l33 -5l-264 -343l160 -352q-19 -4 -36 -4z" />
    <glyph glyph-name="Y" unicode="Y" horiz-adv-x="562" 
d="M642 697l-283 -395l-47 -300q-16 -4 -32 -4l-30 4l47 300l-157 395q18 5 35 5l34 -5l129 -336l235 336q19 5 36 5z" />
    <glyph glyph-name="Z" unicode="Z" horiz-adv-x="552" 
d="M603 655l-473 -609h377q3 -9 0 -23l-7 -23h-446q0 1 -0.5 3t-1.5 7.5t1 11.5l8 23l472 608h-376q-2 10 0 24l7 23h446l1 -23z" />
    <glyph glyph-name="bracketleft" unicode="[" horiz-adv-x="306" 
d="M45 -151l142 902l191 -4l1 -20l-7 -20q-54 -4 -136 -4l-128 -806l135 -4q2 -8 0 -20l-6 -19q-76 -5 -192 -5z" />
    <glyph glyph-name="backslash" unicode="\" horiz-adv-x="391" 
d="M276 -98l-117 845q14 5 30 5l29 -5l117 -845q-14 -4 -30 -4z" />
    <glyph glyph-name="bracketright" unicode="]" horiz-adv-x="306" 
d="M356 751l-142 -902l-192 5l-1 19l7 20q54 4 136 4l128 806l-135 4q-2 9 0 20l6 20q77 4 193 4z" />
    <glyph glyph-name="asciicircum" unicode="^" horiz-adv-x="441" 
d="M331 703l150 -178q-5 -9 -15 -18l-20 -12l-125 148l-172 -148q-8 3 -16 12l-9 18z" />
    <glyph glyph-name="underscore" unicode="_" horiz-adv-x="500" 
d="M484 -93h-499l8 43h499z" />
    <glyph glyph-name="grave" unicode="`" horiz-adv-x="197" 
d="M229 575l-105 122q16 5 31 5l29 -5l90 -122q-11 -4 -23 -4z" />
    <glyph glyph-name="a" unicode="a" horiz-adv-x="516" 
d="M399 2l7 44q-8 -6 -22.5 -14t-62.5 -22t-100 -14q-76 0 -103 38.5t-15 114.5l32 202q12 76 56.5 114.5t131.5 38.5q38 0 66.5 -5.5t43 -14t24 -16.5t11.5 -14l2 -5l7 48q15 5 31 5l29 -5l-78 -495q-15 -4 -31 -4zM195 351l-32 -202q-9 -58 9 -84.5t73 -26.5
q32 0 61.5 5.5t48 13t32.5 15.5t20 14l6 5l41 260q9 57 -19.5 84t-106.5 27q-64 0 -94 -27t-39 -84z" />
    <glyph glyph-name="b" unicode="b" horiz-adv-x="519" 
d="M136 46l-7 -44q-16 -4 -31 -4l-29 4l110 695q15 5 31 5l29 -5l-39 -247q1 3 5.5 8t17 13t29.5 15.5t46.5 12.5t64.5 5q89 0 122.5 -38.5t21.5 -114.5l-33 -202q-12 -76 -52 -114.5t-117 -38.5q-52 0 -94.5 12.5t-58.5 25.5zM414 149l33 202q9 58 -13 84.5t-87 26.5
q-79 0 -117 -27t-46 -84l-42 -258q4 -6 13 -15t48.5 -24.5t91.5 -15.5q56 0 83 27t36 84z" />
    <glyph glyph-name="c" unicode="c" horiz-adv-x="500" 
d="M103 149l32 202q12 76 62.5 114.5t150.5 38.5t136.5 -38.5t24.5 -114.5l-3 -14q-13 -4 -28 -4l-27 4l3 14q9 58 -16 84.5t-97 26.5q-71 0 -104 -26.5t-42 -84.5l-32 -202q-9 -58 17.5 -84.5t102.5 -26.5q46 0 88.5 9t62.5 19l19 9l1 -22l-9 -21q-58 -36 -169 -36
q-105 0 -145 38.5t-28 114.5z" />
    <glyph glyph-name="d" unicode="d" horiz-adv-x="519" 
d="M402 2l7 44q-8 -6 -22.5 -14t-63 -22t-100.5 -14q-77 0 -104.5 38.5t-15.5 114.5l32 202q12 76 57 114.5t134 38.5q37 0 65.5 -5.5t43 -13.5t24 -16t11.5 -13l3 -6l39 247q15 5 31 5l29 -5l-110 -695q-15 -4 -31 -4zM195 351l-32 -202q-9 -58 9 -84.5t75 -26.5
q52 0 94 14t59 28l16 13l41 258q9 57 -20 84t-108 27q-65 0 -95 -26.5t-39 -84.5z" />
    <glyph glyph-name="e" unicode="e" 
d="M103 149l32 202q12 76 63.5 114.5t155.5 38.5t142.5 -38.5t25.5 -114.5l-18 -112q-64 -8 -165 -8h-164l-12 -82q-9 -58 18.5 -84.5t107.5 -26.5q48 0 92.5 9t64.5 19l20 9l1 -22l-8 -21q-61 -36 -177 -36q-108 0 -149.5 38.5t-29.5 114.5zM182 274h270l13 77
q9 58 -17 84.5t-101 26.5q-74 0 -108.5 -27t-43.5 -84z" />
    <glyph glyph-name="f" unicode="f" horiz-adv-x="357" 
d="M395 460h-154l-104 -657q-15 -5 -30 -5l-30 5l104 657h-55q-2 8 0 21l7 21h55l10 67q22 135 159 135q40 0 75 -10l1 -20l-8 -21q-22 9 -58 9q-52 0 -76.5 -22.5t-32.5 -70.5l-10 -67h154l1 -21z" />
    <glyph glyph-name="g" unicode="g" horiz-adv-x="519" 
d="M381 -51l16 98q-5 -7 -16.5 -16.5t-52 -22t-94.5 -12.5q-89 0 -122 39t-21 114l32 202q12 76 52 114.5t116 38.5q52 0 94.5 -13t58.5 -25l17 -13l7 44q15 5 31 5l29 -5l-87 -548q-12 -76 -66 -114.5t-162 -38.5q-45 0 -84 6t-55 12l-17 6l-1 21l8 22q59 -25 156 -25
q80 0 116 26.5t45 84.5zM183 351l-32 -202q-9 -58 12.5 -84.5t86.5 -26.5q79 0 116.5 27t46.5 84l41 258q-1 2 -4.5 6t-15.5 13.5t-27.5 16.5t-43.5 13t-61 6q-57 0 -83.5 -26.5t-35.5 -84.5z" />
    <glyph glyph-name="h" unicode="h" 
d="M239 697l-39 -244q8 6 22.5 14.5t63.5 22.5t102 14q78 0 106 -38.5t16 -114.5l-55 -349q-15 -4 -31 -4l-29 4l55 349q9 58 -10 84.5t-76 26.5q-52 0 -95 -14t-59 -28l-17 -13l-64 -405q-16 -4 -31 -4l-29 4l110 695q15 5 31 5z" />
    <glyph glyph-name="i" unicode="i" horiz-adv-x="229" 
d="M200 38q12 0 26 3q2 -9 0 -20l-6 -19q-26 -6 -44 -6q-93 0 -77 101l64 400q15 5 31 5l29 -5l-64 -400q-4 -30 5 -44.5t36 -14.5zM255 697l-16 -100q-16 -4 -31 -4l-29 4l16 100q15 5 31 5z" />
    <glyph glyph-name="j" unicode="j" horiz-adv-x="211" 
d="M70 -76l90 573q16 5 31 5l29 -5l-90 -573q-20 -128 -141 -128q-37 0 -72 10l-1 20l8 21q22 -9 55 -9q43 0 63.5 21t27.5 65zM252 697l-15 -100q-16 -4 -31 -4l-29 4l15 100q16 5 31 5z" />
    <glyph glyph-name="k" unicode="k" horiz-adv-x="443" 
d="M353 2l-122 239l-68 -23l-34 -216q-16 -4 -31 -4l-29 4l110 695q15 5 31 5l29 -5l-70 -435l69 23l184 212q17 5 34 5l31 -5l-202 -234l133 -261q-16 -4 -33 -4z" />
    <glyph glyph-name="l" unicode="l" horiz-adv-x="237" 
d="M200 38q12 0 26 3q2 -9 0 -20l-6 -19q-26 -6 -44 -6q-93 0 -77 101l96 600q15 5 31 5l29 -5l-96 -600q-4 -30 5 -44.5t36 -14.5z" />
    <glyph glyph-name="m" unicode="m" horiz-adv-x="789" 
d="M69 2l78 495q15 5 31 5l29 -5l-7 -44q7 6 20.5 14.5t57.5 22.5t92 14q93 0 110 -58q8 6 23 16t63.5 26t99.5 16q71 0 97.5 -35.5t14.5 -106.5l-57 -360q-15 -4 -31 -4l-29 4l57 360q9 52 -8 76t-68 24q-42 0 -79 -12.5t-51.5 -23t-22.5 -19.5l-64 -405q-15 -4 -31 -4
l-29 4l57 360q8 52 -9 76t-68 24q-46 0 -84 -14t-53 -28l-15 -13l-64 -405q-16 -4 -31 -4z" />
    <glyph glyph-name="n" unicode="n" horiz-adv-x="526" 
d="M207 497l-7 -44q8 6 23 14.5t64.5 22.5t102.5 14q78 0 107 -38.5t17 -114.5l-55 -349q-16 -4 -31 -4l-29 4l55 349q9 58 -10.5 84.5t-77.5 26.5q-53 0 -96 -14t-60 -28l-17 -13l-64 -405q-16 -4 -31 -4l-29 4l78 495q15 5 31 5z" />
    <glyph glyph-name="o" unicode="o" horiz-adv-x="532" 
d="M103 149l32 202q24 153 222 153q104 0 145.5 -39t29.5 -114l-32 -202q-25 -153 -223 -153q-104 0 -145 39t-29 114zM195 351l-8 -51l-16 -100l-8 -51q-9 -57 18.5 -84t102.5 -27t111 27t45 84l32 202q9 57 -18.5 84t-102.5 27t-111.5 -27t-44.5 -84z" />
    <glyph glyph-name="p" unicode="p" horiz-adv-x="519" 
d="M207 497l-7 -44q8 6 22.5 14.5t63 22.5t100.5 14q76 0 104.5 -38.5t16.5 -114.5l-33 -202q-12 -75 -57.5 -114t-134.5 -39q-36 0 -64.5 5.5t-43 13.5t-24 16t-12.5 13l-2 6l-39 -248q-15 -4 -31 -4l-29 4l110 695q15 5 31 5zM414 149l33 202q9 58 -9.5 84.5t-75.5 26.5
q-52 0 -94 -14t-58 -28l-17 -13l-41 -258q-9 -57 20 -84t108 -27q65 0 95 26.5t39 84.5z" />
    <glyph glyph-name="q" unicode="q" horiz-adv-x="519" 
d="M473 453l7 44q15 5 31 5l29 -5l-110 -695q-15 -4 -30 -4l-30 4l40 248q-1 -2 -4.5 -5.5t-16 -13t-29.5 -16.5t-47.5 -13t-66.5 -6q-89 0 -122 39t-21 114l32 202q12 76 52 114.5t116 38.5q52 0 94.5 -13t58.5 -25zM195 351l-32 -202q-9 -58 12.5 -84.5t86.5 -26.5
q79 0 116.5 27t46.5 84l41 258q-1 2 -4.5 6t-15.5 13.5t-27.5 16.5t-43.5 13t-61 6q-57 0 -83.5 -26.5t-35.5 -84.5z" />
    <glyph glyph-name="r" unicode="r" horiz-adv-x="360" 
d="M207 497l-10 -64q3 3 8.5 7.5t25 17t41 22t55.5 17t69 7.5l1 -22l-8 -22q-38 0 -72.5 -9.5t-57 -22.5t-39.5 -26t-25 -22l-8 -10l-58 -368q-16 -4 -31 -4l-29 4l78 495q15 5 31 5z" />
    <glyph glyph-name="s" unicode="s" horiz-adv-x="493" 
d="M192 367l-3 -20q-5 -30 23.5 -45t87.5 -27q39 -8 64 -15t54.5 -21t42 -36t7.5 -51l-3 -20q-20 -137 -210 -137q-102 0 -139 37t-24 111v6q15 4 31 4l28 -4l-1 -6q-9 -54 16 -80t96 -26q70 0 102.5 23t40.5 72l3 20q5 33 -26 50t-90 28q-30 6 -49 10.5t-45 14.5
t-40.5 21.5t-23.5 29.5t-5 41l3 20q11 68 59 102.5t146 34.5q97 0 132 -37t23 -111l-1 -6q-15 -4 -30 -4l-28 4l1 6q8 55 -15.5 80.5t-88.5 25.5q-67 0 -98.5 -23t-39.5 -72z" />
    <glyph glyph-name="t" unicode="t" horiz-adv-x="382" 
d="M392 457h-151l-52 -326q-8 -48 9.5 -70.5t69.5 -22.5q31 0 59 10q2 -9 0 -20l-7 -20q-42 -12 -76 -12q-73 0 -99.5 34t-15.5 101l52 326h-55l-1 22l7 21h58l20 97q13 5 27 5l25 -5l-15 -97h152q2 -9 0 -21z" />
    <glyph glyph-name="u" unicode="u" 
d="M407 2l7 44q-8 -6 -22.5 -14t-63.5 -22t-102 -14q-78 0 -106 38.5t-16 114.5l55 348q15 5 31 5l29 -5l-55 -348q-9 -58 10 -84.5t76 -26.5q52 0 95 14t59 28l17 13l64 404q16 5 31 5l29 -5l-78 -495q-15 -4 -31 -4z" />
    <glyph glyph-name="v" unicode="v" horiz-adv-x="496" 
d="M208 2l-103 495q15 5 30 5l29 -5l92 -446l231 446q17 5 32 5l28 -5l-259 -495q-19 -4 -41 -4z" />
    <glyph glyph-name="w" unicode="w" horiz-adv-x="777" 
d="M516 2l-59 435l-195 -435q-19 -4 -41 -4l-39 4l-74 495q16 5 30 5l30 -5l64 -444l199 444q16 5 36 5l36 -5l59 -444l204 444q16 5 31 5l29 -5l-230 -495q-20 -4 -41 -4z" />
    <glyph glyph-name="x" unicode="x" horiz-adv-x="476" 
d="M388 2l-116 215l-184 -215q-18 -4 -33 -4l-31 4l217 252l-133 243q17 5 32 5l32 -5l111 -206l176 206q18 5 34 5l31 -5l-209 -243l137 -252q-18 -4 -33 -4z" />
    <glyph glyph-name="y" unicode="y" horiz-adv-x="506" 
d="M197 -78l43 77l-18 3l-107 495q16 5 31 5l29 -5l92 -442l231 442q16 5 31 5l29 -5l-306 -573q-34 -66 -72.5 -97t-95.5 -31q-13 0 -24.5 1.5t-16.5 2.5l-5 2l-1 21l7 20q17 -5 46 -5q35 0 59.5 20.5t47.5 63.5z" />
    <glyph glyph-name="z" unicode="z" horiz-adv-x="472" 
d="M492 457l-366 -413h300q2 -9 0 -22l-7 -22h-366l-2 21l8 21l366 414h-300l-1 22l8 22h366l1 -21z" />
    <glyph glyph-name="braceleft" unicode="{" horiz-adv-x="375" 
d="M443 709q-63 0 -94 -27t-39 -84l-26 -165q-17 -102 -95 -133q69 -31 53 -131l-27 -166q-8 -57 14 -83.5t85 -26.5l1 -21l-7 -22q-173 0 -149 153l27 166q9 57 -13.5 84t-85.5 27l-1 21l8 21q63 0 93.5 27t39.5 84l27 165q24 153 196 153l1 -21z" />
    <glyph glyph-name="bar" unicode="|" horiz-adv-x="187" 
d="M237 747l-134 -845q-13 -4 -26 -4l-24 4l134 845q12 5 25 5z" />
    <glyph glyph-name="braceright" unicode="}" horiz-adv-x="375" 
d="M155 709l-1 21l7 21q173 0 149 -153l-26 -165q-9 -56 13.5 -83.5t85.5 -27.5q2 -9 0 -21l-7 -21q-63 0 -94.5 -27.5t-39.5 -83.5l-27 -166q-24 -153 -196 -153l-1 22l8 21q63 0 94 26.5t39 83.5l27 166q16 100 94 131q-69 31 -53 133l27 165q9 57 -13.5 84t-85.5 27z" />
    <glyph glyph-name="asciitilde" unicode="~" horiz-adv-x="433" 
d="M90 256l1 5q7 49 30 73t70 24q28 0 49 -10.5t31.5 -22.5t26 -22.5t34.5 -10.5q29 0 43.5 13.5t19.5 43.5l1 5q10 4 22 4l21 -4l-1 -5q-8 -50 -30 -73.5t-69 -23.5q-28 0 -49.5 10.5t-32 22.5t-26 22.5t-33.5 10.5q-56 0 -63 -57l-1 -5q-11 -4 -23 -4z" />
    <glyph glyph-name="exclamdown" unicode="&#xa1;" horiz-adv-x="197" 
d="M131 405l14 92q17 5 33 5l30 -5l-14 -92q-16 -4 -32 -4zM37 -198l78 490q15 5 30 5l30 -5l-78 -490q-15 -4 -31 -4z" />
    <glyph glyph-name="cent" unicode="&#xa2;" horiz-adv-x="500" 
d="M103 149l32 202q11 71 56 109t132 43l15 94q13 5 26 5l24 -5l-15 -94q84 -5 115 -43t21 -109l-3 -14q-13 -4 -28 -4l-27 4l3 14q9 58 -16 84.5t-97 26.5q-71 0 -104 -26.5t-42 -84.5l-32 -202q-9 -58 17.5 -84.5t102.5 -26.5q46 0 88.5 9t62.5 19l19 9l1 -22l-9 -21
q-51 -32 -152 -36l-15 -94q-13 -4 -25 -4l-25 4l15 96q-86 5 -119 43t-21 108z" />
    <glyph glyph-name="sterling" unicode="&#xa3;" horiz-adv-x="588" 
d="M415 311h-195l-42 -266h344q2 -9 0 -23l-7 -22h-470l-1 22l8 23h64l41 266h-63q-2 8 0 21l7 22h63l30 191q12 79 67.5 119t165.5 40t150.5 -39.5t27.5 -119.5l-2 -14q-14 -4 -29 -4l-28 4l2 14q9 59 -19 86.5t-109 27.5q-80 0 -117 -27.5t-46 -86.5l-30 -191h195l1 -22z
" />
    <glyph glyph-name="currency" unicode="&#xa4;" horiz-adv-x="401" 
d="M124 300l4 28q6 40 27 65l-53 63q5 9 16 18l19 12l56 -67q32 19 76 19q46 0 70 -19l77 67q9 -3 17 -12l9 -18l-74 -63q14 -24 8 -65l-5 -28q-4 -36 -26 -62l52 -61q-5 -9 -14 -18l-20 -12l-53 62q-32 -19 -80 -19t-75 19l-71 -62q-9 3 -16 12l-10 18l71 61q-11 24 -5 62z
M169 328l-4 -28q-6 -37 10.5 -54.5t60.5 -17.5t66 17.5t28 54.5l4 28q6 37 -10.5 54t-60.5 17t-66 -17t-28 -54z" />
    <glyph glyph-name="yen" unicode="&#xa5;" horiz-adv-x="562" 
d="M474 124h-143l-19 -122q-16 -4 -32 -4l-30 4l19 122h-142l-1 22l7 21h143l14 92h-142q-2 8 0 21l7 21h142v1l-157 395q18 5 35 5l34 -5l129 -336l235 336q19 5 36 5l33 -5l-283 -395v-1h144l1 -21l-8 -21h-144l-14 -92h143q2 -9 0 -21z" />
    <glyph glyph-name="brokenbar" unicode="&#xa6;" horiz-adv-x="187" 
d="M237 747l-59 -370q-13 -4 -26 -4l-24 4l59 370q12 5 25 5zM161 272l-58 -370q-13 -4 -26 -4l-24 4l58 370q13 5 26 5z" />
    <glyph glyph-name="section" unicode="&#xa7;" horiz-adv-x="558" 
d="M545 211q-12 -84 -82 -122q56 -41 45 -113l-4 -25q-12 -78 -70.5 -116.5t-177.5 -38.5q-121 0 -165.5 39t-31.5 116l2 14q15 4 30 4l28 -4l-2 -14q-9 -59 23.5 -86t122.5 -27t131 27t50 86l4 25q6 39 -18 65t-64.5 38.5t-87.5 27t-86.5 29.5t-62.5 48t-16 80l4 25
q14 87 85 124q-59 40 -48 111l4 25q12 77 69.5 116t173.5 39t158.5 -38.5t30.5 -116.5l-2 -14q-15 -5 -31 -5l-28 5l2 14q9 58 -21.5 85.5t-115.5 27.5q-86 0 -126.5 -27.5t-49.5 -85.5l-4 -25q-4 -28 9 -48.5t38 -32.5t57.5 -23t66.5 -19.5t66 -22t56 -30.5t36 -45.5
t6 -66.5zM489 236q5 30 -7 52t-40 36t-56.5 22.5t-68 19.5t-62.5 21q-67 -23 -78 -98l-4 -25q-5 -30 8.5 -50.5t42 -33.5t58.5 -21.5t69 -20t64 -23.5q59 25 70 96z" />
    <glyph glyph-name="dieresis" unicode="&#xa8;" horiz-adv-x="405" 
d="M232 697l-15 -96q-12 -4 -26 -4l-24 4l15 96q12 5 26 5zM442 697l-15 -96q-12 -4 -26 -4l-24 4l15 96q12 5 26 5z" />
    <glyph glyph-name="copyright" unicode="&#xa9;" horiz-adv-x="811" 
d="M124 240l34 220q20 120 110.5 182t266.5 62t247 -62t51 -182l-34 -220q-19 -120 -109.5 -182t-266.5 -62t-247 62t-52 182zM216 460l-9 -55l-16 -110l-9 -55q-17 -104 39 -153t208 -49t224 49t89 153l34 220q16 104 -40 153t-208 49q-151 0 -223.5 -49t-88.5 -153z
M348 258l29 187q14 84 133 84q63 0 85.5 -21t15.5 -63l-1 -6q-9 -3 -19 -3l-19 3l1 6q5 29 -10 42.5t-57 13.5q-43 0 -62 -13.5t-24 -42.5l-30 -187q-5 -29 11 -42t61 -13q29 0 55.5 5.5t39.5 11.5l12 5l1 -14l-5 -16q-39 -21 -108 -21q-65 0 -90 21.5t-19 62.5z" />
    <glyph glyph-name="ordfeminine" unicode="&#xaa;" horiz-adv-x="378" 
d="M350 351l5 30q-47 -34 -126 -34q-103 0 -84 108l22 140q9 54 40.5 81t93.5 27q24 0 42.5 -3.5t28.5 -8t17 -10.5t8.5 -9.5t2.5 -5.5l5 32q12 3 24 3l23 -3l-55 -347q-12 -3 -24 -3zM215 595l-23 -140q-6 -39 6.5 -57t49.5 -18q34 0 62 9t39 18l11 9l29 179q5 39 -13.5 57
t-71.5 18q-43 0 -63.5 -18t-25.5 -57z" />
    <glyph glyph-name="guillemotleft" unicode="&#xab;" horiz-adv-x="459" 
d="M85 270l206 178q9 -3 16 -12l10 -18l-172 -148l125 -148q-5 -9 -15 -18l-20 -12zM250 270l206 178q9 -3 16 -12l10 -18l-172 -148l125 -148q-5 -9 -15 -18l-20 -12z" />
    <glyph glyph-name="logicalnot" unicode="&#xac;" horiz-adv-x="403" 
d="M345 230l14 92h-262l-1 22l8 21h120q52 0 100.5 -1.5t71.5 -3.5l22 -2l-21 -128q-13 -4 -27 -4z" />
    <glyph glyph-name="uni00AD" unicode="&#xad;" horiz-adv-x="297" 
d="M292 265h-204l-1 21l8 21h203l1 -21z" />
    <glyph glyph-name="registered" unicode="&#xae;" horiz-adv-x="811" 
d="M124 240l34 220q20 120 110.5 182t266.5 62t247 -62t51 -182l-34 -220q-19 -120 -109.5 -182t-266.5 -62t-247 62t-52 182zM216 460l-9 -55l-16 -110l-9 -55q-17 -104 39 -153t208 -49t224 49t89 153l34 220q16 104 -40 153t-208 49q-151 0 -223.5 -49t-88.5 -153z
M537 176l-58 151h-2l-65 2l-24 -153q-12 -2 -22 -2l-21 2l55 347q44 4 109 4q61 0 84.5 -21t17.5 -63l-5 -33q-11 -67 -86 -80l61 -154q-11 -2 -22 -2zM439 499l-23 -143h66q40 0 58.5 13t23.5 41l5 33q5 29 -10 42.5t-55 13.5h-65z" />
    <glyph glyph-name="macron" unicode="&#xaf;" horiz-adv-x="202" 
d="M314 606h-235l-1 18l7 17h234l1 -17z" />
    <glyph glyph-name="degree" unicode="&#xb0;" horiz-adv-x="310" 
d="M168 589l3 19q15 95 121 95t91 -95l-3 -19q-15 -95 -121 -95t-91 95zM206 608l-3 -19q-5 -32 9 -47t52 -15t57 15t24 47l3 19q5 32 -9 47t-52 15q-72 0 -81 -62z" />
    <glyph glyph-name="plusminus" unicode="&#xb1;" horiz-adv-x="415" 
d="M309 497l-22 -140h140q2 -8 0 -21l-7 -21h-139l-23 -140q-9 -4 -22 -4l-21 4l22 140h-139l-1 21l8 21h139l22 140q9 4 22 4zM384 89h-322q-2 8 0 20l6 21h323l1 -21z" />
    <glyph glyph-name="twosuperior" unicode="&#xb2;" horiz-adv-x="300" 
d="M314 595l4 23q5 30 -9 43.5t-54 13.5q-39 0 -56.5 -13.5t-22.5 -43.5l-1 -6q-11 -3 -21 -3l-18 3l1 6q6 43 34 63.5t89 20.5q59 0 81.5 -21t16.5 -63l-4 -23q-6 -34 -28 -57t-50.5 -35t-56.5 -23t-49.5 -30.5t-25.5 -48.5l-4 -24h176l1 -14l-5 -13h-115l-100 4l8 47
q7 43 39 69.5t67 37t66.5 32t36.5 55.5z" />
    <glyph glyph-name="threesuperior" unicode="&#xb3;" horiz-adv-x="298" 
d="M152 672l-1 14l5 14h204l1 -14l-5 -13l-122 -122q66 0 86.5 -22.5t13.5 -62.5l-5 -33q-14 -86 -132 -86q-29 0 -53.5 5.5t-34.5 10.5l-10 5q-1 6 0 14q1 10 5 14q1 -2 11 -6.5t33.5 -10t51.5 -5.5q43 0 63.5 14t25.5 45l5 33q5 30 -11.5 44t-60.5 14h-32q-2 6 0 14l4 14
l118 120h-160z" />
    <glyph glyph-name="acute" unicode="&#xb4;" horiz-adv-x="197" 
d="M293 697l-144 -122q-12 -4 -23 -4l-21 4l128 122q15 5 31 5z" />
    <glyph glyph-name="mu" unicode="&#xb5;" 
d="M136 46l-23 -144q-15 -4 -31 -4l-29 4l94 595q15 5 31 5l29 -5l-65 -404q2 -2 5 -6t15.5 -13.5t28.5 -16.5t44.5 -13t61.5 -6q57 0 84.5 26.5t36.5 84.5l55 348q15 5 31 5l29 -5l-55 -348q-13 -76 -53 -114.5t-118 -38.5q-53 0 -95.5 12.5t-59.5 25.5z" />
    <glyph glyph-name="paragraph" unicode="&#xb6;" horiz-adv-x="640" 
d="M709 657h-56l-120 -755q-14 -4 -30 -4l-30 4l120 755h-131l-120 -755q-14 -4 -30 -4l-30 4l65 411q-117 0 -164 40t-35 118l12 70q25 159 248 159h307l1 -21z" />
    <glyph glyph-name="periodcentered" unicode="&#xb7;" horiz-adv-x="195" 
d="M180 335l-14 -93q-16 -4 -31 -4l-30 4l15 93q15 4 31 4z" />
    <glyph glyph-name="cedilla" unicode="&#xb8;" horiz-adv-x="493" 
d="M266 0l-3 -12q-2 -15 9.5 -23.5t26.5 -11.5t26 -13.5t8 -29.5l-2 -8q-9 -66 -97 -66q-49 0 -65.5 16.5t-10.5 50.5l1 5q10 2 19 2l18 -2v-5q-4 -22 5 -30t37 -8t39.5 8t14.5 29l2 8q2 11 -10 17.5t-26.5 9.5t-25 16t-7.5 35l2 12h39z" />
    <glyph glyph-name="onesuperior" unicode="&#xb9;" horiz-adv-x="196" 
d="M244 701l-56 -350q-10 -2 -20 -2l-20 2l51 317l-62 3q-2 6 0 13l4 14q41 3 103 3z" />
    <glyph glyph-name="ordmasculine" unicode="&#xba;" horiz-adv-x="389" 
d="M135 455l22 140q17 108 157 108q74 0 103.5 -27.5t20.5 -80.5l-22 -140q-19 -108 -158 -108q-73 0 -102.5 27.5t-20.5 80.5zM205 595l-23 -140q-6 -39 12 -57t69 -18q50 0 74.5 18t30.5 57l23 140q5 39 -13 57t-69 18t-75 -18t-29 -57z" />
    <glyph glyph-name="guillemotright" unicode="&#xbb;" horiz-adv-x="459" 
d="M293 270l-206 -178q-8 3 -16 12l-9 18l171 148l-124 148q5 9 14 18l20 12zM458 270l-206 -178q-8 3 -16 12l-9 18l171 148l-124 148q5 9 14 18l20 12z" />
    <glyph glyph-name="onequarter" unicode="&#xbc;" horiz-adv-x="634" 
d="M669 697l-567 -695q-17 -4 -32 -4l-29 4l567 695q15 5 32 5zM242 701l-56 -350q-10 -2 -20 -2l-20 2l51 317l-62 3q-2 6 0 13l4 14q41 3 103 3zM595 249l-21 -137h34q1 -6 1 -14l-5 -14h-33l-13 -83q-11 -2 -21 -2l-18 2l12 83h-155q-1 5 0 13l134 252q8 2 20 2l20 -2
l-127 -237h113l22 137q9 2 19 2z" />
    <glyph glyph-name="onehalf" unicode="&#xbd;" horiz-adv-x="651" 
d="M669 697l-567 -695q-17 -4 -32 -4l-29 4l567 695q15 5 32 5zM242 701l-56 -350q-10 -2 -20 -2l-20 2l51 317l-62 3q-2 6 0 13l4 14q41 3 103 3zM624 245l3 23q5 30 -8.5 43.5t-53.5 13.5q-39 0 -57 -13.5t-23 -43.5l-1 -6q-10 -3 -20 -3l-19 3l1 6q7 43 35 63.5t88 20.5
t82.5 -21t15.5 -63l-3 -23q-6 -34 -28 -57t-50.5 -35t-56.5 -23t-49.5 -30.5t-26.5 -48.5l-4 -24h177q1 -6 1 -14l-5 -13h-115l-100 4l7 47q7 43 39.5 69.5t67.5 37t66.5 32t36.5 55.5z" />
    <glyph glyph-name="threequarters" unicode="&#xbe;" horiz-adv-x="646" 
d="M711 697l-567 -695q-17 -4 -31 -4l-29 4l567 695q14 5 31 5zM151 672l-1 14l5 14h204l1 -14l-5 -13l-122 -122q66 0 86.5 -22.5t13.5 -62.5l-5 -33q-14 -86 -132 -86q-29 0 -53.5 5.5t-34.5 10.5l-10 5q-1 6 0 14q1 10 5 14q1 -2 11 -6.5t33.5 -10t51.5 -5.5
q43 0 63.5 14t25.5 45l5 33q5 30 -11.5 44t-60.5 14h-32q-2 6 0 14l4 14l118 120h-160zM623 249l-22 -137h35q1 -6 0 -14l-5 -14h-33l-12 -83q-11 -2 -21 -2l-19 2l13 83h-156q-1 5 0 13l135 252q7 2 19 2l20 -2l-126 -237h113l21 137q9 2 20 2z" />
    <glyph glyph-name="questiondown" unicode="&#xbf;" horiz-adv-x="518" 
d="M131 6l-9 -51q-9 -61 18.5 -89t106.5 -28q77 0 112.5 28t45.5 89l2 14q14 4 30 4l28 -4l-2 -14q-13 -80 -64 -120t-159 -40t-148.5 40t-28.5 120l8 51q7 41 29 69t50 43t55.5 29t49.5 37.5t27 57.5l7 50q16 4 31 4l29 -4l-7 -50q-7 -42 -29.5 -71t-50.5 -44t-55.5 -28.5
t-49 -36.5t-26.5 -56zM305 405l15 92q17 4 32 4l31 -4l-15 -92q-15 -5 -32 -5z" />
    <glyph glyph-name="Agrave" unicode="&#xc0;" horiz-adv-x="596" 
d="M27 2l339 695q20 5 43 5l41 -5l119 -695q-17 -4 -31 -4l-31 4l-34 197h-288l-96 -197q-17 -4 -33 -4zM400 646l-196 -402h265zM434 752l-105 123q15 4 30 4l30 -4l90 -123q-11 -4 -24 -4z" />
    <glyph glyph-name="Aacute" unicode="&#xc1;" horiz-adv-x="596" 
d="M27 2l339 695q20 5 43 5l41 -5l119 -695q-17 -4 -31 -4l-31 4l-34 197h-288l-96 -197q-17 -4 -33 -4zM400 646l-196 -402h265zM542 875l-143 -123q-13 -4 -24 -4l-21 4l128 123q14 4 30 4z" />
    <glyph glyph-name="Acircumflex" unicode="&#xc2;" horiz-adv-x="596" 
d="M27 2l339 695q20 5 43 5l41 -5l119 -695q-17 -4 -31 -4l-31 4l-34 197h-288l-96 -197q-17 -4 -33 -4zM400 646l-196 -402h265zM504 752l-74 88l-101 -88q-13 -4 -23 -4l-22 4l121 115q14 5 30 5l28 -5l85 -115q-10 -4 -23 -4z" />
    <glyph glyph-name="Atilde" unicode="&#xc3;" horiz-adv-x="596" 
d="M27 2l339 695q20 5 43 5l41 -5l119 -695q-17 -4 -31 -4l-31 4l-34 197h-288l-96 -197q-17 -4 -33 -4zM400 646l-196 -402h265zM271 753v4q6 42 26.5 62t61.5 20q31 0 51 -14.5t35.5 -28.5t35.5 -14q47 0 54 48l1 5q9 4 20 4l19 -4l-1 -5q-7 -42 -27 -62t-61 -20
q-31 0 -51.5 14t-36 28.5t-34.5 14.5q-47 0 -54 -47v-5q-10 -5 -21 -5z" />
    <glyph glyph-name="Adieresis" unicode="&#xc4;" horiz-adv-x="596" 
d="M27 2l339 695q20 5 43 5l41 -5l119 -695q-17 -4 -31 -4l-31 4l-34 197h-288l-96 -197q-17 -4 -33 -4zM400 646l-196 -402h265zM351 849l-15 -96q-12 -5 -26 -5l-24 5l15 96q11 4 26 4zM561 849l-15 -96q-12 -5 -26 -5l-24 5l15 96q11 4 26 4z" />
    <glyph glyph-name="Aring" unicode="&#xc5;" horiz-adv-x="596" 
d="M27 2l339 695q20 5 43 5l41 -5l119 -695q-17 -4 -31 -4l-31 4l-34 197h-288l-96 -197q-17 -4 -33 -4zM400 646l-196 -402h265zM345 811l3 17q11 67 91 67q41 0 57.5 -17.5t11.5 -49.5l-3 -17q-10 -67 -90 -67q-41 0 -58 18t-12 49zM379 828l-2 -17q-4 -19 6 -29t36 -10
q49 0 55 39l3 17q3 20 -7 29.5t-36 9.5q-49 0 -55 -39z" />
    <glyph glyph-name="AE" unicode="&#xc6;" horiz-adv-x="731" 
d="M427 337l-46 -292h310q2 -9 0 -23l-7 -22h-177q-52 0 -101 1.5t-72 2.5l-22 2l31 193h-158l-96 -197q-17 -4 -33 -4l-29 4l338 693q102 5 252 5h172l1 -23l-8 -22h-305l-43 -273h271l1 -22l-8 -23h-271zM404 655l-200 -411h146l65 411h-11z" />
    <glyph glyph-name="Ccedilla" unicode="&#xc7;" horiz-adv-x="588" 
d="M104 155l61 390q12 79 73.5 119t184.5 40t169 -40t33 -119l-2 -14q-15 -4 -30 -4l-28 4l2 14q10 59 -23.5 86.5t-127.5 27.5t-136.5 -27.5t-51.5 -86.5l-62 -390q-9 -60 25.5 -87t131.5 -27q60 0 114 11t79 22l24 11q0 -1 0.5 -2.5t1.5 -7.5t-1 -13l-8 -23
q-8 -5 -24 -11.5t-70 -18.5t-114 -13l-1 -8q-2 -15 9 -23.5t26 -11.5t26 -13.5t8 -29.5l-1 -8q-11 -66 -98 -66q-49 0 -65 16t-10 51v5q10 2 19 2l19 -2l-1 -5q-4 -22 5 -30t38 -8q28 0 39 8t15 29l2 8q2 11 -10 17.5t-27 9.5t-25.5 16t-7.5 35l2 9q-110 4 -152.5 44
t-30.5 114z" />
    <glyph glyph-name="Egrave" unicode="&#xc8;" horiz-adv-x="524" 
d="M184 337l-46 -292h347q3 -9 0 -23l-7 -22h-214q-52 0 -101 1.5t-71 2.5l-23 2l109 687q78 7 196 7h209q0 -1 0.5 -3t1.5 -8t-1 -12l-8 -22h-342l-43 -273h309l1 -22l-8 -23h-309zM416 752l-105 123q15 4 31 4l29 -4l90 -123q-11 -4 -23 -4z" />
    <glyph glyph-name="Eacute" unicode="&#xc9;" horiz-adv-x="524" 
d="M184 337l-46 -292h347q3 -9 0 -23l-7 -22h-214q-52 0 -101 1.5t-71 2.5l-23 2l109 687q78 7 196 7h209q0 -1 0.5 -3t1.5 -8t-1 -12l-8 -22h-342l-43 -273h309l1 -22l-8 -23h-309zM517 875l-144 -123q-12 -4 -23 -4l-21 4l128 123q14 4 30 4z" />
    <glyph glyph-name="Ecircumflex" unicode="&#xca;" horiz-adv-x="524" 
d="M184 337l-46 -292h347q3 -9 0 -23l-7 -22h-214q-52 0 -101 1.5t-71 2.5l-23 2l109 687q78 7 196 7h209q0 -1 0.5 -3t1.5 -8t-1 -12l-8 -22h-342l-43 -273h309l1 -22l-8 -23h-309zM482 752l-74 88l-101 -88q-12 -4 -23 -4l-21 4l121 115q14 5 29 5l28 -5l86 -115
q-11 -4 -23 -4z" />
    <glyph glyph-name="Edieresis" unicode="&#xcb;" horiz-adv-x="524" 
d="M184 337l-46 -292h347q3 -9 0 -23l-7 -22h-214q-52 0 -101 1.5t-71 2.5l-23 2l109 687q78 7 196 7h209q0 -1 0.5 -3t1.5 -8t-1 -12l-8 -22h-342l-43 -273h309l1 -22l-8 -23h-309zM330 849l-15 -96q-13 -5 -26 -5l-24 5l15 96q11 4 25 4zM540 849l-15 -96q-13 -5 -26 -5
l-24 5l15 96q11 4 25 4z" />
    <glyph glyph-name="Igrave" unicode="&#xcc;" horiz-adv-x="305" 
d="M49 45h79l96 610h-79q-2 9 0 22l7 23h221l1 -23l-8 -22h-79l-96 -610h79q2 -9 0 -23l-7 -22h-221l-1 22zM289 752l-105 123q15 4 30 4l30 -4l90 -123q-11 -4 -24 -4z" />
    <glyph glyph-name="Iacute" unicode="&#xcd;" horiz-adv-x="305" 
d="M49 45h79l96 610h-79q-2 9 0 22l7 23h221l1 -23l-8 -22h-79l-96 -610h79q2 -9 0 -23l-7 -22h-221l-1 22zM397 875l-143 -123q-13 -4 -24 -4l-21 4l128 123q14 4 30 4z" />
    <glyph glyph-name="Icircumflex" unicode="&#xce;" horiz-adv-x="305" 
d="M49 45h79l96 610h-79q-2 9 0 22l7 23h221l1 -23l-8 -22h-79l-96 -610h79q2 -9 0 -23l-7 -22h-221l-1 22zM359 752l-74 88l-101 -88q-13 -4 -23 -4l-22 4l121 115q14 5 30 5l28 -5l85 -115q-10 -4 -23 -4z" />
    <glyph glyph-name="Idieresis" unicode="&#xcf;" horiz-adv-x="305" 
d="M224 849l-15 -97q-13 -4 -26 -4l-24 4l15 97q11 4 25 4zM399 849l-15 -97q-13 -4 -26 -4l-24 4l15 97q11 4 25 4zM49 45h79l96 610h-79q-2 9 0 22l7 23h221l1 -23l-8 -22h-79l-96 -610h79q2 -9 0 -23l-7 -22h-221l-1 22z" />
    <glyph glyph-name="Eth" unicode="&#xd0;" horiz-adv-x="626" 
d="M211 696q88 7 220 7q125 0 175.5 -40t38.5 -118l-62 -390q-25 -159 -264 -159q-59 0 -113 2t-79 4l-25 2l53 335h-55l-1 21l7 21h55zM392 339h-175l-47 -298h156q95 0 140 27.5t55 86.5l61 390q9 59 -27 86.5t-131 27.5h-156l-44 -278h175l1 -21z" />
    <glyph glyph-name="Ntilde" unicode="&#xd1;" horiz-adv-x="616" 
d="M69 2l110 695q14 5 28 5l27 -5l271 -581l92 581q15 5 31 5l29 -5l-110 -695q-14 -4 -28 -4l-27 4l-272 582l-91 -582q-16 -4 -31 -4zM281 753v4q6 42 26.5 62t61.5 20q31 0 51 -14.5t35.5 -28.5t35.5 -14q47 0 54 48l1 5q9 4 20 4l19 -4l-1 -5q-7 -42 -27 -62t-61 -20
q-31 0 -51.5 14t-36 28.5t-34.5 14.5q-47 0 -54 -47v-5q-10 -5 -21 -5z" />
    <glyph glyph-name="Ograve" unicode="&#xd2;" horiz-adv-x="612" 
d="M105 155l61 390q25 159 264 159q125 0 175.5 -40.5t38.5 -118.5l-62 -390q-25 -159 -264 -159q-125 0 -175.5 40.5t-37.5 118.5zM229 545l-16 -97l-30 -196l-16 -97q-9 -59 27 -86.5t131 -27.5t140 27.5t55 86.5l61 390q9 59 -27 86.5t-131 27.5t-140 -27.5t-54 -86.5z
M456 752l-106 123q15 4 31 4l29 -4l90 -123q-10 -4 -23 -4z" />
    <glyph glyph-name="Oacute" unicode="&#xd3;" horiz-adv-x="612" 
d="M105 155l61 390q25 159 264 159q125 0 175.5 -40.5t38.5 -118.5l-62 -390q-25 -159 -264 -159q-125 0 -175.5 40.5t-37.5 118.5zM229 545l-16 -97l-30 -196l-16 -97q-9 -59 27 -86.5t131 -27.5t140 27.5t55 86.5l61 390q9 59 -27 86.5t-131 27.5t-140 -27.5t-54 -86.5z
M564 875l-144 -123q-12 -4 -23 -4l-21 4l128 123q14 4 30 4z" />
    <glyph glyph-name="Ocircumflex" unicode="&#xd4;" horiz-adv-x="612" 
d="M105 155l61 390q25 159 264 159q125 0 175.5 -40.5t38.5 -118.5l-62 -390q-25 -159 -264 -159q-125 0 -175.5 40.5t-37.5 118.5zM229 545l-16 -97l-30 -196l-16 -97q-9 -59 27 -86.5t131 -27.5t140 27.5t55 86.5l61 390q9 59 -27 86.5t-131 27.5t-140 -27.5t-54 -86.5z
M526 752l-75 88l-100 -88q-13 -4 -24 -4l-21 4l121 115q14 5 30 5l27 -5l86 -115q-11 -4 -23 -4z" />
    <glyph glyph-name="Otilde" unicode="&#xd5;" horiz-adv-x="612" 
d="M105 155l61 390q25 159 264 159q125 0 175.5 -40.5t38.5 -118.5l-62 -390q-25 -159 -264 -159q-125 0 -175.5 40.5t-37.5 118.5zM229 545l-16 -97l-30 -196l-16 -97q-9 -59 27 -86.5t131 -27.5t140 27.5t55 86.5l61 390q9 59 -27 86.5t-131 27.5t-140 -27.5t-54 -86.5z
M293 753v4q6 42 26.5 62t61.5 20q31 0 51 -14.5t35.5 -28.5t35.5 -14q26 0 38 11.5t16 36.5l1 5q9 4 20 4l18 -4v-5q-7 -42 -27 -62t-61 -20q-31 0 -51.5 14t-36 28.5t-34.5 14.5q-26 0 -38 -11t-16 -36l-1 -5q-10 -5 -20 -5z" />
    <glyph glyph-name="Odieresis" unicode="&#xd6;" horiz-adv-x="612" 
d="M105 155l61 390q25 159 264 159q125 0 175.5 -40.5t38.5 -118.5l-62 -390q-25 -159 -264 -159q-125 0 -175.5 40.5t-37.5 118.5zM229 545l-16 -97l-30 -196l-16 -97q-9 -59 27 -86.5t131 -27.5t140 27.5t55 86.5l61 390q9 59 -27 86.5t-131 27.5t-140 -27.5t-54 -86.5z
M373 849l-15 -97q-12 -4 -26 -4l-24 4l15 97q11 4 25 4zM583 849l-15 -97q-12 -4 -26 -4l-24 4l15 97q11 4 25 4z" />
    <glyph glyph-name="multiply" unicode="&#xd7;" horiz-adv-x="415" 
d="M146 465l113 -135l156 135q9 -4 16 -13q4 -4 6 -8l3 -6v-3l-156 -135l114 -135q-5 -8 -15 -17l-20 -13l-113 135l-156 -135q-8 4 -16 13q-4 4 -6 8t-2 6l-1 3l155 135l-113 135q5 9 15 17z" />
    <glyph glyph-name="Oslash" unicode="&#xd8;" horiz-adv-x="612" 
d="M672 697l-53 -65q19 -36 12 -87l-62 -390q-25 -159 -264 -159q-123 0 -175 40l-28 -34q-15 -4 -27 -4l-26 4l53 65q-19 35 -10 88l61 390q25 159 264 159q123 0 175 -40l27 33q13 5 28 5zM571 545q2 21 1 31l-407 -497q33 -40 147 -40q96 0 142 28t55 88zM213 545
l-15 -97l-30 -196l-16 -97q-3 -18 -2 -31l406 496q-35 40 -146 40q-96 0 -141.5 -28t-55.5 -87z" />
    <glyph glyph-name="Ugrave" unicode="&#xd9;" horiz-adv-x="606" 
d="M661 697l-86 -542q-27 -159 -260 -159q-123 0 -172.5 40.5t-36.5 118.5l86 542q15 5 32 5l30 -5l-86 -542q-9 -59 26 -86.5t128 -27.5t137 27.5t53 86.5l86 542q16 5 32 5zM453 752l-106 123q15 4 31 4l29 -4l90 -123q-10 -4 -23 -4z" />
    <glyph glyph-name="Uacute" unicode="&#xda;" horiz-adv-x="606" 
d="M661 697l-86 -542q-27 -159 -260 -159q-123 0 -172.5 40.5t-36.5 118.5l86 542q15 5 32 5l30 -5l-86 -542q-9 -59 26 -86.5t128 -27.5t137 27.5t53 86.5l86 542q16 5 32 5zM561 875l-144 -123q-12 -4 -23 -4l-21 4l128 123q14 4 30 4z" />
    <glyph glyph-name="Ucircumflex" unicode="&#xdb;" horiz-adv-x="606" 
d="M661 697l-86 -542q-27 -159 -260 -159q-123 0 -172.5 40.5t-36.5 118.5l86 542q15 5 32 5l30 -5l-86 -542q-9 -59 26 -86.5t128 -27.5t137 27.5t53 86.5l86 542q16 5 32 5zM523 752l-75 88l-100 -88q-13 -4 -24 -4l-21 4l121 115q14 5 30 5l27 -5l86 -115q-11 -4 -23 -4z
" />
    <glyph glyph-name="Udieresis" unicode="&#xdc;" horiz-adv-x="606" 
d="M661 697l-86 -542q-27 -159 -260 -159q-123 0 -172.5 40.5t-36.5 118.5l86 542q15 5 32 5l30 -5l-86 -542q-9 -59 26 -86.5t128 -27.5t137 27.5t53 86.5l86 542q16 5 32 5zM370 849l-15 -97q-12 -4 -26 -4l-24 4l15 97q11 4 25 4zM580 849l-15 -97q-12 -4 -26 -4l-24 4
l15 97q11 4 25 4z" />
    <glyph glyph-name="Yacute" unicode="&#xdd;" horiz-adv-x="562" 
d="M642 697l-283 -395l-47 -300q-16 -4 -32 -4l-30 4l47 300l-157 395q18 5 35 5l34 -5l129 -336l235 336q19 5 36 5zM526 875l-144 -123q-12 -4 -23 -4l-21 4l128 123q14 4 30 4z" />
    <glyph glyph-name="Thorn" unicode="&#xde;" horiz-adv-x="515" 
d="M241 697l-23 -141q50 4 126 4q102 0 142 -40.5t28 -118.5l-11 -73q-13 -78 -66 -118.5t-155 -40.5l-124 4l-27 -171q-17 -4 -32 -4l-30 4l110 695q15 5 32 5zM212 515l-48 -301h123q73 0 108.5 27.5t44.5 86.5l11 73q10 59 -16.5 86.5t-99.5 27.5h-123z" />
    <glyph glyph-name="germandbls" unicode="&#xdf;" horiz-adv-x="645" 
d="M77 -197l104 657h-55q-2 8 0 21l7 21h55l10 65q11 68 53.5 102.5t125.5 34.5q86 0 118 -34.5t20 -102.5l-2 -15q-7 -42 -27 -68t-40.5 -36t-39.5 -30t-24 -51l-2 -15q-5 -31 19 -46t73 -26q27 -7 44 -12t40.5 -15.5t36 -23t20 -32.5t3.5 -45l-3 -20q-11 -68 -55 -102.5
t-131 -34.5q-89 0 -121 35t-21 105l2 10q15 4 30 4l29 -4l-2 -10q-9 -50 11.5 -74t77.5 -24t84.5 23.5t35.5 71.5l3 20q5 33 -20 50t-74 29q-33 8 -53.5 14.5t-46 20.5t-36 35.5t-5.5 50.5l2 15q6 40 26 65t40.5 34.5t39.5 30.5t24 55l2 15q8 47 -11.5 68.5t-74.5 21.5
q-53 0 -78.5 -22t-32.5 -68l-121 -764q-15 -5 -30 -5z" />
    <glyph glyph-name="agrave" unicode="&#xe0;" horiz-adv-x="516" 
d="M399 2l7 44q-8 -6 -22.5 -14t-62.5 -22t-100 -14q-76 0 -103 38.5t-15 114.5l32 202q12 76 56.5 114.5t131.5 38.5q36 0 64 -5.5t42.5 -12t24.5 -16t12 -13.5l4 -8l7 48q15 5 31 5l29 -5l-78 -495q-15 -4 -31 -4zM195 351l-32 -202q-9 -58 9 -84.5t73 -26.5
q32 0 61.5 5.5t48 13t32.5 15.5t20 14l6 5l41 260q9 57 -19.5 84t-106.5 27q-64 0 -94 -27t-39 -84zM378 575l-105 122q15 5 31 5l29 -5l90 -122q-11 -4 -24 -4z" />
    <glyph glyph-name="aacute" unicode="&#xe1;" horiz-adv-x="516" 
d="M399 2l7 44q-8 -6 -22.5 -14t-62.5 -22t-100 -14q-76 0 -103 38.5t-15 114.5l32 202q12 76 56.5 114.5t131.5 38.5q38 0 66.5 -5.5t43 -14t24 -16.5t11.5 -14l2 -5l7 48q15 5 31 5l29 -5l-78 -495q-15 -4 -31 -4zM195 351l-32 -202q-9 -58 9 -84.5t73 -26.5
q32 0 61.5 5.5t48 13t32.5 15.5t20 14l6 5l41 260q9 57 -19.5 84t-106.5 27q-64 0 -94 -27t-39 -84zM486 697l-143 -122q-13 -4 -24 -4l-21 4l128 122q15 5 31 5z" />
    <glyph glyph-name="acircumflex" unicode="&#xe2;" horiz-adv-x="516" 
d="M399 2l7 44q-8 -6 -22.5 -14t-62.5 -22t-100 -14q-76 0 -103 38.5t-15 114.5l32 202q12 76 56.5 114.5t131.5 38.5q38 0 66.5 -5.5t43 -14t24 -16.5t11.5 -14l2 -5l7 48q15 5 31 5l29 -5l-78 -495q-15 -4 -31 -4zM195 351l-32 -202q-9 -58 9 -84.5t73 -26.5
q32 0 61.5 5.5t48 13t32.5 15.5t20 14l6 5l41 260q9 57 -19.5 84t-106.5 27q-64 0 -94 -27t-39 -84zM449 582l-74 88l-101 -88q-12 -4 -23 -4l-22 4l122 115q14 5 29 5l28 -5l85 -115q-10 -4 -22 -4z" />
    <glyph glyph-name="atilde" unicode="&#xe3;" horiz-adv-x="516" 
d="M399 2l7 44q-8 -6 -22.5 -14t-62.5 -22t-100 -14q-76 0 -103 38.5t-15 114.5l32 202q12 76 56.5 114.5t131.5 38.5q123 0 147 -55l7 48q15 5 31 5l29 -5l-78 -495q-15 -4 -31 -4zM195 351l-32 -202q-9 -58 9 -84.5t73 -26.5q32 0 61.5 5.5t48 13t32.5 15.5t20 14l6 5
l41 260q9 57 -19.5 84t-106.5 27q-64 0 -94 -27t-39 -84zM221 615l1 4q6 42 26.5 62t61.5 20q31 0 51 -14.5t35 -28.5t35 -14q26 0 38 11.5t16 36.5l1 5q10 4 21 4l18 -4l-1 -5q-6 -42 -26 -62t-62 -20q-31 0 -51.5 14t-36 28.5t-34.5 14.5q-26 0 -37.5 -11t-15.5 -36l-1 -5
q-10 -5 -21 -5z" />
    <glyph glyph-name="adieresis" unicode="&#xe4;" horiz-adv-x="516" 
d="M399 2l7 44q-8 -6 -22.5 -14t-62.5 -22t-100 -14q-76 0 -103 38.5t-15 114.5l32 202q12 76 56.5 114.5t131.5 38.5q38 0 66.5 -5.5t43 -14t24 -16.5t11.5 -14l2 -5l7 48q15 5 31 5l29 -5l-78 -495q-15 -4 -31 -4zM195 351l-32 -202q-9 -58 9 -84.5t73 -26.5
q32 0 61.5 5.5t48 13t32.5 15.5t20 14l6 5l41 260q9 57 -19.5 84t-106.5 27q-64 0 -94 -27t-39 -84zM300 697l-15 -96q-13 -4 -26 -4l-24 4l15 96q11 5 26 5zM510 697l-15 -96q-13 -4 -26 -4l-24 4l15 96q11 5 26 5z" />
    <glyph glyph-name="aring" unicode="&#xe5;" horiz-adv-x="516" 
d="M399 2l7 44q-8 -6 -22.5 -14t-62.5 -22t-100 -14q-76 0 -103 38.5t-15 114.5l32 202q12 76 56.5 114.5t131.5 38.5q36 0 64 -5.5t42.5 -12t24.5 -16t12 -13.5l4 -8l7 48q15 5 31 5l29 -5l-78 -495q-15 -4 -31 -4zM195 351l-32 -202q-9 -58 9 -84.5t73 -26.5
q32 0 61.5 5.5t48 13t32.5 15.5t20 14l6 5l41 260q9 57 -19.5 84t-106.5 27q-64 0 -94 -27t-39 -84zM287 619l3 17q10 67 91 67q40 0 57 -18t12 -49l-3 -17q-10 -67 -90 -67q-41 0 -58 17.5t-12 49.5zM321 636l-2 -17q-4 -20 6 -29.5t36 -9.5q49 0 55 39l3 17
q2 20 -7.5 29.5t-35.5 9.5q-49 0 -55 -39z" />
    <glyph glyph-name="ae" unicode="&#xe6;" horiz-adv-x="826" 
d="M211 -4q-71 0 -97.5 32.5t-16.5 97.5l3 17q9 60 55.5 92.5t142.5 42.5l145 15l10 62q9 55 -16 81t-96 26q-68 0 -100.5 -26t-40.5 -80l-3 -13q-14 -4 -29 -4l-28 4l2 13q12 74 59 111t147 37q127 0 147 -76q43 76 169 76q100 0 136 -38.5t24 -114.5l-18 -112
q-61 -8 -157 -8h-156l-13 -82q-9 -58 17 -84.5t102 -26.5q46 0 88.5 9t61.5 19l19 9l1 -22l-9 -21q-6 -4 -18.5 -10t-56.5 -16t-93 -10q-138 0 -155 82q-54 -82 -226 -82zM436 251l-136 -14q-70 -8 -102 -30.5t-38 -63.5l-3 -17q-7 -45 10.5 -66.5t69.5 -21.5q89 0 131.5 27
t51.5 84zM499 274h254l13 77q9 57 -15 84t-94 27t-103 -27t-42 -84z" />
    <glyph glyph-name="ccedilla" unicode="&#xe7;" horiz-adv-x="500" 
d="M103 149l32 202q12 76 62.5 114.5t150.5 38.5t136.5 -38.5t24.5 -114.5l-3 -14q-13 -4 -28 -4l-27 4l3 14q9 58 -16 84.5t-97 26.5q-71 0 -104 -26.5t-42 -84.5l-32 -202q-9 -58 17.5 -84.5t102.5 -26.5q46 0 88.5 9t62.5 19l19 9l1 -22l-9 -21q-57 -35 -164 -36l-1 -8
q-2 -15 9 -23.5t26 -11.5t26 -13.5t8 -29.5l-2 -8q-9 -66 -97 -66q-49 0 -65 16t-11 51l1 5q10 2 19 2l19 -2l-1 -5q-4 -22 5 -30t37 -8t39.5 8t15.5 29l1 8q2 11 -9.5 17.5t-26.5 9.5t-25.5 16t-7.5 35l2 9q-87 6 -119.5 44t-20.5 108z" />
    <glyph glyph-name="egrave" unicode="&#xe8;" 
d="M103 149l32 202q12 76 63.5 114.5t155.5 38.5t142.5 -38.5t25.5 -114.5l-18 -112q-64 -8 -165 -8h-164l-12 -82q-9 -58 18.5 -84.5t107.5 -26.5q48 0 92.5 9t64.5 19l20 9l1 -22l-8 -21q-61 -36 -177 -36q-108 0 -149.5 38.5t-29.5 114.5zM182 274h270l13 77
q9 58 -17 84.5t-101 26.5q-74 0 -108.5 -27t-43.5 -84zM382 575l-106 122q16 5 32 5l28 -5l90 -122q-11 -4 -23 -4z" />
    <glyph glyph-name="eacute" unicode="&#xe9;" 
d="M103 149l32 202q12 76 63.5 114.5t155.5 38.5t142.5 -38.5t25.5 -114.5l-18 -112q-64 -8 -165 -8h-164l-12 -82q-9 -58 18.5 -84.5t107.5 -26.5q48 0 92.5 9t64.5 19l20 9l1 -22l-8 -21q-61 -36 -177 -36q-108 0 -149.5 38.5t-29.5 114.5zM182 274h270l13 77
q9 58 -17 84.5t-101 26.5q-74 0 -108.5 -27t-43.5 -84zM489 697l-144 -122q-12 -4 -23 -4l-21 4l128 122q15 5 31 5z" />
    <glyph glyph-name="ecircumflex" unicode="&#xea;" 
d="M103 149l32 202q12 76 63.5 114.5t155.5 38.5t142.5 -38.5t25.5 -114.5l-18 -112q-64 -8 -165 -8h-164l-12 -82q-9 -58 18.5 -84.5t107.5 -26.5q48 0 92.5 9t64.5 19l20 9l1 -22l-8 -21q-61 -36 -177 -36q-108 0 -149.5 38.5t-29.5 114.5zM182 274h270l13 77
q9 58 -17 84.5t-101 26.5q-74 0 -108.5 -27t-43.5 -84zM452 582l-73 88l-102 -88q-12 -4 -22 -4l-22 4l121 115q14 5 30 5l28 -5l85 -115q-10 -4 -23 -4z" />
    <glyph glyph-name="edieresis" unicode="&#xeb;" 
d="M103 149l32 202q12 76 63.5 114.5t155.5 38.5t142.5 -38.5t25.5 -114.5l-18 -112q-64 -8 -165 -8h-164l-12 -82q-9 -58 18.5 -84.5t107.5 -26.5q48 0 92.5 9t64.5 19l20 9l1 -22l-8 -21q-61 -36 -177 -36q-108 0 -149.5 38.5t-29.5 114.5zM182 274h270l13 77
q9 58 -17 84.5t-101 26.5q-74 0 -108.5 -27t-43.5 -84zM303 697l-15 -96q-12 -4 -26 -4l-24 4l15 96q12 5 26 5zM513 697l-15 -96q-12 -4 -26 -4l-24 4l15 96q12 5 26 5z" />
    <glyph glyph-name="igrave" unicode="&#xec;" horiz-adv-x="229" 
d="M223 575l-105 122q15 5 31 5l29 -5l90 -122q-11 -4 -24 -4zM200 38q12 0 26 3q2 -9 0 -20l-6 -19q-26 -6 -44 -6q-93 0 -77 101l64 400q15 5 31 5l29 -5l-64 -400q-4 -30 5 -44.5t36 -14.5z" />
    <glyph glyph-name="iacute" unicode="&#xed;" horiz-adv-x="229" 
d="M331 697l-143 -122q-13 -4 -24 -4l-21 4l128 122q15 5 31 5zM200 38q12 0 26 3q2 -9 0 -20l-6 -19q-26 -6 -44 -6q-93 0 -77 101l64 400q15 5 31 5l29 -5l-64 -400q-4 -30 5 -44.5t36 -14.5z" />
    <glyph glyph-name="icircumflex" unicode="&#xee;" horiz-adv-x="229" 
d="M185 38q12 0 26 3q2 -9 0 -20l-6 -19q-26 -6 -44 -6q-93 0 -77 101l64 400q15 5 31 5l29 -5l-64 -400q-4 -30 5 -44.5t36 -14.5zM278 582l-74 88l-101 -88q-12 -4 -23 -4l-22 4l122 115q14 5 29 5l28 -5l85 -115q-10 -4 -22 -4z" />
    <glyph glyph-name="idieresis" unicode="&#xef;" horiz-adv-x="229" 
d="M175 697l-15 -96q-13 -4 -26 -4l-24 4l15 96q11 5 26 5zM325 697l-15 -96q-13 -4 -26 -4l-24 4l15 96q11 5 26 5zM200 38q12 0 26 3q2 -9 0 -20l-6 -19q-26 -6 -44 -6q-93 0 -77 101l64 400q15 5 31 5l29 -5l-64 -400q-4 -30 5 -44.5t36 -14.5z" />
    <glyph glyph-name="eth" unicode="&#xf0;" horiz-adv-x="528" 
d="M538 697l-63 -55q89 -56 76 -141l-55 -352q-25 -153 -221 -153q-103 0 -143.5 39t-28.5 114l32 202q12 76 53 114.5t120 38.5q54 0 97.5 -13t60.5 -25l17 -13l8 48q9 62 -58 105l-57 -50q-14 -4 -25 -4l-23 4l75 66q-35 16 -80.5 28t-72.5 16l-28 3v22l7 20
q121 -8 215 -53l44 39q12 5 26 5zM436 149l41 258q-2 2 -5 6t-16 13.5t-29.5 16.5t-45.5 13t-63 6q-60 0 -87.5 -26.5t-36.5 -84.5l-32 -202q-9 -57 18 -84t101 -27t110 27t45 84z" />
    <glyph glyph-name="ntilde" unicode="&#xf1;" horiz-adv-x="526" 
d="M207 497l-7 -44q8 6 23 14.5t64.5 22.5t102.5 14q78 0 107 -38.5t17 -114.5l-55 -349q-16 -4 -31 -4l-29 4l55 349q9 58 -10.5 84.5t-77.5 26.5q-53 0 -96 -14t-60 -28l-17 -13l-64 -405q-16 -4 -31 -4l-29 4l78 495q15 5 31 5zM214 615l1 4q7 42 27 62t61 20
q31 0 51 -14.5t35.5 -28.5t35.5 -14q25 0 37 11.5t16 36.5l1 5q11 4 21 4l18 -4l-1 -5q-6 -42 -26 -62t-62 -20q-25 0 -43 9t-27 19.5t-22.5 19.5t-29.5 9q-26 0 -37.5 -11t-15.5 -36l-1 -5q-10 -5 -20 -5z" />
    <glyph glyph-name="ograve" unicode="&#xf2;" horiz-adv-x="532" 
d="M103 149l32 202q24 153 222 153q104 0 145.5 -39t29.5 -114l-32 -202q-25 -153 -223 -153q-104 0 -145 39t-29 114zM195 351l-8 -51l-16 -100l-8 -51q-9 -57 18.5 -84t102.5 -27t111 27t45 84l32 202q9 57 -18.5 84t-102.5 27t-111.5 -27t-44.5 -84zM387 575l-106 122
q16 5 32 5l28 -5l90 -122q-11 -4 -23 -4z" />
    <glyph glyph-name="oacute" unicode="&#xf3;" horiz-adv-x="532" 
d="M103 149l32 202q24 153 222 153q104 0 145.5 -39t29.5 -114l-32 -202q-25 -153 -223 -153q-104 0 -145 39t-29 114zM195 351l-8 -51l-16 -100l-8 -51q-9 -57 18.5 -84t102.5 -27t111 27t45 84l32 202q9 57 -18.5 84t-102.5 27t-111.5 -27t-44.5 -84zM494 697l-144 -122
q-12 -4 -23 -4l-21 4l128 122q15 5 31 5z" />
    <glyph glyph-name="ocircumflex" unicode="&#xf4;" horiz-adv-x="532" 
d="M103 149l32 202q24 153 222 153q104 0 145.5 -39t29.5 -114l-32 -202q-25 -153 -223 -153q-104 0 -145 39t-29 114zM195 351l-8 -51l-16 -100l-8 -51q-9 -57 18.5 -84t102.5 -27t111 27t45 84l32 202q9 57 -18.5 84t-102.5 27t-111.5 -27t-44.5 -84zM457 582l-73 88
l-102 -88q-12 -4 -22 -4l-22 4l121 115q14 5 30 5l28 -5l85 -115q-10 -4 -23 -4z" />
    <glyph glyph-name="otilde" unicode="&#xf5;" horiz-adv-x="532" 
d="M103 149l32 202q24 153 222 153q104 0 145.5 -39t29.5 -114l-32 -202q-25 -153 -223 -153q-104 0 -145 39t-29 114zM195 351l-8 -51l-16 -100l-8 -51q-9 -57 18.5 -84t102.5 -27t111 27t45 84l32 202q9 57 -18.5 84t-102.5 27t-111.5 -27t-44.5 -84zM230 615l1 4
q6 42 26.5 62t61.5 20q31 0 51 -14.5t35 -28.5t35 -14q26 0 38 11.5t16 36.5l1 5q10 4 20 4l18 -4v-5q-7 -42 -27 -62t-61 -20q-25 0 -43.5 9t-27.5 19.5t-22.5 19.5t-29.5 9q-26 0 -37.5 -11t-15.5 -36l-1 -5q-10 -5 -20 -5z" />
    <glyph glyph-name="odieresis" unicode="&#xf6;" horiz-adv-x="532" 
d="M103 149l32 202q24 153 222 153q104 0 145.5 -39t29.5 -114l-32 -202q-25 -153 -223 -153q-104 0 -145 39t-29 114zM195 351l-8 -51l-16 -100l-8 -51q-9 -57 18.5 -84t102.5 -27t111 27t45 84l32 202q9 57 -18.5 84t-102.5 27t-111.5 -27t-44.5 -84zM308 697l-15 -96
q-12 -4 -26 -4l-24 4l15 96q12 5 26 5zM518 697l-15 -96q-12 -4 -26 -4l-24 4l15 96q12 5 26 5z" />
    <glyph glyph-name="divide" unicode="&#xf7;" horiz-adv-x="420" 
d="M419 276h-328q-2 8 0 21l8 22h327q2 -9 0 -22zM312 483l-13 -86q-13 -3 -25 -3l-24 3l13 86q13 4 26 4zM268 197l-14 -85q-13 -4 -25 -4l-24 4l14 85q11 4 24 4z" />
    <glyph glyph-name="oslash" unicode="&#xf8;" horiz-adv-x="532" 
d="M535 497l-35 -42q31 -37 20 -104l-32 -202q-25 -153 -223 -153q-91 0 -134 29l-20 -23q-13 -4 -23 -4l-22 4l40 47q-26 36 -15 100l32 202q24 153 222 153q82 0 128 -27l17 20q11 5 24 5zM465 351q6 36 -3 61l-298 -348q28 -28 107 -28q78 0 115.5 27t46.5 86zM178 351
l-8 -51l-16 -100l-8 -51q-6 -31 0 -54l295 345q-30 24 -102 24q-78 0 -115.5 -27.5t-45.5 -85.5z" />
    <glyph glyph-name="ugrave" unicode="&#xf9;" 
d="M407 2l7 44q-8 -6 -22.5 -14t-63.5 -22t-102 -14q-78 0 -106 38.5t-16 114.5l55 348q15 5 31 5l29 -5l-55 -348q-9 -58 10 -84.5t76 -26.5q52 0 95 14t59 28l17 13l64 404q16 5 31 5l29 -5l-78 -495q-15 -4 -31 -4zM381 575l-105 122q15 5 31 5l29 -5l90 -122
q-11 -4 -24 -4z" />
    <glyph glyph-name="uacute" unicode="&#xfa;" 
d="M407 2l7 44q-8 -6 -22.5 -14t-63.5 -22t-102 -14q-78 0 -106 38.5t-16 114.5l55 348q15 5 31 5l29 -5l-55 -348q-9 -58 10 -84.5t76 -26.5q52 0 95 14t59 28l17 13l64 404q16 5 31 5l29 -5l-78 -495q-15 -4 -31 -4zM489 697l-143 -122q-13 -4 -24 -4l-21 4l128 122
q15 5 31 5z" />
    <glyph glyph-name="ucircumflex" unicode="&#xfb;" 
d="M407 2l7 44q-8 -6 -22.5 -14t-63.5 -22t-102 -14q-78 0 -106 38.5t-16 114.5l55 348q15 5 31 5l29 -5l-55 -348q-9 -58 10 -84.5t76 -26.5q52 0 95 14t59 28l17 13l64 404q16 5 31 5l29 -5l-78 -495q-15 -4 -31 -4zM452 582l-74 88l-101 -88q-12 -4 -23 -4l-22 4l122 115
q14 5 29 5l28 -5l85 -115q-10 -4 -22 -4z" />
    <glyph glyph-name="udieresis" unicode="&#xfc;" 
d="M407 2l7 44q-8 -6 -22.5 -14t-63.5 -22t-102 -14q-78 0 -106 38.5t-16 114.5l55 348q15 5 31 5l29 -5l-55 -348q-9 -58 10 -84.5t76 -26.5q52 0 95 14t59 28l17 13l64 404q16 5 31 5l29 -5l-78 -495q-15 -4 -31 -4zM303 697l-15 -96q-13 -4 -26 -4l-24 4l15 96q11 5 26 5
zM513 697l-15 -96q-13 -4 -26 -4l-24 4l15 96q11 5 26 5z" />
    <glyph glyph-name="yacute" unicode="&#xfd;" horiz-adv-x="506" 
d="M197 -78l43 77l-18 3l-107 495q16 5 31 5l29 -5l92 -442l231 442q16 5 31 5l29 -5l-306 -573q-34 -66 -72.5 -97t-95.5 -31q-13 0 -24.5 1.5t-16.5 2.5l-5 2l-1 21l7 20q17 -5 46 -5q35 0 59.5 20.5t47.5 63.5zM469 697l-143 -122q-13 -4 -24 -4l-21 4l128 122q15 5 31 5
z" />
    <glyph glyph-name="thorn" unicode="&#xfe;" horiz-adv-x="519" 
d="M239 697l-39 -244q8 6 22.5 14.5t63 22.5t100.5 14q76 0 104.5 -38.5t16.5 -114.5l-33 -202q-12 -75 -57.5 -114t-134.5 -39q-36 0 -64.5 5.5t-43 13.5t-24 16t-12.5 13l-2 6l-39 -248q-15 -4 -31 -4l-29 4l142 895q15 5 31 5zM414 149l33 202q9 58 -9.5 84.5t-75.5 26.5
q-52 0 -94 -14t-58 -28l-17 -13l-41 -258q-9 -57 20 -84t108 -27q65 0 95 26.5t39 84.5z" />
    <glyph glyph-name="ydieresis" unicode="&#xff;" horiz-adv-x="506" 
d="M197 -78l43 77l-18 3l-107 495q16 5 31 5l29 -5l92 -442l231 442q16 5 31 5l29 -5l-306 -573q-34 -66 -72.5 -97t-95.5 -31q-13 0 -24.5 1.5t-16.5 2.5l-5 2l-1 21l7 20q17 -5 46 -5q35 0 59.5 20.5t47.5 63.5zM283 697l-15 -96q-13 -4 -26 -4l-24 4l15 96q11 5 26 5z
M493 697l-15 -96q-13 -4 -26 -4l-24 4l15 96q11 5 26 5z" />
    <glyph glyph-name="Amacron" unicode="&#x100;" horiz-adv-x="596" 
d="M27 2l339 695q20 5 43 5l41 -5l119 -695q-17 -4 -31 -4l-31 4l-34 197h-288l-96 -197q-17 -4 -33 -4zM400 646l-196 -402h265zM536 774h-234l-1 17l7 18h234l2 -18z" />
    <glyph glyph-name="amacron" unicode="&#x101;" horiz-adv-x="516" 
d="M399 2l7 44q-8 -6 -22.5 -14t-62.5 -22t-100 -14q-76 0 -103 38.5t-15 114.5l32 202q12 76 56.5 114.5t131.5 38.5q36 0 64 -5.5t42.5 -12t24.5 -16t12 -13.5l4 -8l7 48q15 5 31 5l29 -5l-78 -495q-15 -4 -31 -4zM195 351l-32 -202q-9 -58 9 -84.5t73 -26.5
q32 0 61.5 5.5t48 13t32.5 15.5t20 14l6 5l41 260q9 57 -19.5 84t-106.5 27q-64 0 -94 -27t-39 -84zM482 606h-234l-1 18l7 17h234l1 -17z" />
    <glyph glyph-name="Abreve" unicode="&#x102;" horiz-adv-x="596" 
d="M27 2l339 695q20 5 43 5l41 -5l119 -695q-17 -4 -31 -4l-31 4l-34 197h-288l-96 -197q-17 -4 -33 -4zM400 646l-196 -402h265zM415 748q-68 0 -92 24.5t-16 74.5l2 9q11 5 22 5l22 -5l-2 -10q-5 -34 10 -49t60 -15q44 0 64.5 15t25.5 49l2 10q10 5 22 5l22 -5l-2 -9
q-8 -50 -40 -74.5t-100 -24.5z" />
    <glyph glyph-name="abreve" unicode="&#x103;" horiz-adv-x="516" 
d="M399 2l7 44q-8 -6 -22.5 -14t-62.5 -22t-100 -14q-76 0 -103 38.5t-15 114.5l32 202q12 76 56.5 114.5t131.5 38.5q38 0 66.5 -5.5t43 -14t24 -16.5t11.5 -14l2 -5l7 48q15 5 31 5l29 -5l-78 -495q-15 -4 -31 -4zM195 351l-32 -202q-9 -58 9 -84.5t73 -26.5
q32 0 61.5 5.5t48 13t32.5 15.5t20 14l6 5l41 260q9 57 -19.5 84t-106.5 27q-64 0 -94 -27t-39 -84zM363 589q-68 0 -92 24t-17 74l2 10q11 4 23 4l21 -4l-2 -10q-5 -34 10 -49t60 -15q44 0 64.5 15t25.5 49l2 10q11 4 22 4l21 -4l-2 -10q-7 -50 -38.5 -74t-99.5 -24z" />
    <glyph glyph-name="Aogonek" unicode="&#x104;" horiz-adv-x="596" 
d="M465 -85q5 40 60 84l-18 3l-34 197h-288l-96 -197q-17 -4 -33 -4l-29 4l339 695q20 5 43 5l41 -5l119 -695l-10 -2q-50 -45 -55 -82q-8 -44 42 -44q16 0 31 4t23 8l7 5l1 -16l-5 -14q-25 -19 -69 -19q-80 0 -69 73zM400 646l-196 -402h265z" />
    <glyph glyph-name="aogonek" unicode="&#x105;" horiz-adv-x="516" 
d="M355 -85q5 40 60 84l-16 3l7 44q-8 -6 -22.5 -14t-62.5 -22t-100 -14q-76 0 -103 38.5t-15 114.5l32 202q12 76 56.5 114.5t131.5 38.5q38 0 66.5 -5.5t43 -14t24 -16.5t11.5 -14l2 -5l7 48q15 5 31 5l29 -5l-78 -495l-10 -2q-50 -45 -55 -82q-8 -44 42 -44q15 0 30.5 4
t23.5 8l7 5l1 -16l-6 -14q-24 -19 -68 -19q-40 0 -57.5 19t-11.5 54zM195 351l-32 -202q-9 -58 9 -84.5t73 -26.5q32 0 61.5 5.5t48 13t32.5 15.5t20 14l6 5l41 260q9 57 -19.5 84t-106.5 27q-64 0 -94 -27t-39 -84z" />
    <glyph glyph-name="Cacute" unicode="&#x106;" horiz-adv-x="588" 
d="M105 155l61 390q12 79 73.5 119t184.5 40t169 -40t33 -119l-2 -14q-15 -4 -30 -4l-28 4l2 14q10 59 -23.5 86.5t-127.5 27.5t-136.5 -27.5t-51.5 -86.5l-62 -390q-9 -60 25.5 -87t131.5 -27q60 0 114 11t79 22l24 11q0 -1 0.5 -2.5t1.5 -7.5t-1 -13l-8 -23
q-8 -5 -24.5 -12t-73 -19t-119.5 -12q-126 0 -175.5 40t-36.5 119zM552 875l-144 -123q-12 -4 -23 -4l-21 4l128 123q14 4 30 4z" />
    <glyph glyph-name="cacute" unicode="&#x107;" horiz-adv-x="500" 
d="M103 149l32 202q12 76 62.5 114.5t150.5 38.5t136.5 -38.5t24.5 -114.5l-3 -14q-13 -4 -28 -4l-27 4l3 14q9 58 -16 84.5t-97 26.5q-71 0 -104 -26.5t-42 -84.5l-32 -202q-9 -58 17.5 -84.5t102.5 -26.5q46 0 88.5 9t62.5 19l19 9l1 -22l-9 -21q-58 -36 -169 -36
q-105 0 -145 38.5t-28 114.5zM477 697l-144 -122q-13 -4 -23 -4l-22 4l129 122q14 5 30 5z" />
    <glyph glyph-name="Ccircumflex" unicode="&#x108;" horiz-adv-x="588" 
d="M105 155l61 390q12 79 73.5 119t184.5 40t169 -40t33 -119l-2 -14q-15 -4 -30 -4l-28 4l2 14q10 59 -23.5 86.5t-127.5 27.5t-136.5 -27.5t-51.5 -86.5l-62 -390q-9 -60 25.5 -87t131.5 -27q60 0 114 11t79 22l24 11q0 -1 0.5 -2.5t1.5 -7.5t-1 -13l-8 -23
q-8 -5 -24.5 -12t-73 -19t-119.5 -12q-126 0 -175.5 40t-36.5 119zM514 752l-75 88l-100 -88q-13 -4 -24 -4l-21 4l121 115q14 5 30 5l27 -5l86 -115q-11 -4 -23 -4z" />
    <glyph glyph-name="ccircumflex" unicode="&#x109;" horiz-adv-x="500" 
d="M103 149l32 202q12 76 62.5 114.5t150.5 38.5t136.5 -38.5t24.5 -114.5l-3 -14q-13 -4 -28 -4l-27 4l3 14q9 58 -16 84.5t-97 26.5q-71 0 -104 -26.5t-42 -84.5l-32 -202q-9 -58 17.5 -84.5t102.5 -26.5q46 0 88.5 9t62.5 19l19 9l1 -22l-9 -21q-58 -36 -169 -36
q-105 0 -145 38.5t-28 114.5zM440 582l-74 88l-101 -88q-12 -4 -23 -4l-22 4l122 115q14 5 29 5l28 -5l85 -115q-10 -4 -22 -4z" />
    <glyph glyph-name="Cdotaccent" unicode="&#x10a;" horiz-adv-x="588" 
d="M105 155l61 390q12 79 73.5 119t184.5 40t169 -40t33 -119l-2 -14q-15 -4 -30 -4l-28 4l2 14q10 59 -23.5 86.5t-127.5 27.5t-136.5 -27.5t-51.5 -86.5l-62 -390q-9 -60 25.5 -87t131.5 -27q60 0 114 11t79 22l24 11q0 -1 0.5 -2.5t1.5 -7.5t-1 -13l-8 -23
q-8 -5 -24.5 -12t-73 -19t-119.5 -12q-126 0 -175.5 40t-36.5 119zM472 853l-16 -100q-16 -5 -31 -5l-29 5l16 100q14 4 30 4z" />
    <glyph glyph-name="cdotaccent" unicode="&#x10b;" horiz-adv-x="500" 
d="M103 149l32 202q12 76 62.5 114.5t150.5 38.5t136.5 -38.5t24.5 -114.5l-3 -14q-13 -4 -28 -4l-27 4l3 14q9 58 -16 84.5t-97 26.5q-71 0 -104 -26.5t-42 -84.5l-32 -202q-9 -58 17.5 -84.5t102.5 -26.5q46 0 88.5 9t62.5 19l19 9l1 -22l-9 -21q-58 -36 -169 -36
q-105 0 -145 38.5t-28 114.5zM401 697l-16 -100q-16 -4 -31 -4l-29 4l16 100q15 5 31 5z" />
    <glyph glyph-name="Ccaron" unicode="&#x10c;" horiz-adv-x="588" 
d="M105 155l61 390q12 79 73.5 119t184.5 40t169 -40t33 -119l-2 -14q-15 -4 -30 -4l-28 4l2 14q10 59 -23.5 86.5t-127.5 27.5t-136.5 -27.5t-51.5 -86.5l-62 -390q-9 -60 25.5 -87t131.5 -27q60 0 114 11t79 22l24 11q0 -1 0.5 -2.5t1.5 -7.5t-1 -13l-8 -23
q-8 -5 -24.5 -12t-73 -19t-119.5 -12q-126 0 -175.5 40t-36.5 119zM356 867l74 -87l101 87q13 5 24 5l21 -5l-121 -115q-14 -4 -30 -4l-28 4l-85 115q11 5 23 5z" />
    <glyph glyph-name="ccaron" unicode="&#x10d;" horiz-adv-x="500" 
d="M103 149l32 202q12 76 62.5 114.5t150.5 38.5t136.5 -38.5t24.5 -114.5l-3 -14q-13 -4 -28 -4l-27 4l3 14q9 58 -16 84.5t-97 26.5q-71 0 -104 -26.5t-42 -84.5l-32 -202q-9 -58 17.5 -84.5t102.5 -26.5q46 0 88.5 9t62.5 19l19 9l1 -22l-9 -21q-58 -36 -169 -36
q-105 0 -145 38.5t-28 114.5zM283 697l73 -87l102 87q13 5 23 5l22 -5l-122 -115q-13 -4 -29 -4l-29 4l-84 115q10 5 23 5z" />
    <glyph glyph-name="Dcaron" unicode="&#x10e;" horiz-adv-x="594" 
d="M178 696q88 7 220 7q125 0 175.5 -40t38.5 -118l-62 -390q-25 -159 -264 -159q-59 0 -113 2t-79 4l-25 2zM235 659l-98 -618h156q96 0 141 27.5t54 86.5l61 390q10 58 -26.5 86t-131.5 28h-156zM338 867l74 -87l101 87q13 5 23 5l21 -5l-120 -115q-14 -4 -30 -4l-28 4
l-86 115q11 5 24 5z" />
    <glyph glyph-name="dcaron" unicode="&#x10f;" horiz-adv-x="620" 
d="M402 2l7 44q-8 -6 -22.5 -14t-63 -22t-100.5 -14q-77 0 -104.5 38.5t-15.5 114.5l32 202q12 76 57 114.5t134 38.5q37 0 65.5 -5.5t43 -13.5t24 -16t11.5 -13l3 -6l39 247q15 5 31 5l29 -5l-110 -695q-15 -4 -31 -4zM195 351l-32 -202q-9 -58 9 -84.5t75 -26.5
q52 0 94 14t59 28l16 13l41 258q9 57 -20 84t-108 27q-65 0 -95 -26.5t-39 -84.5zM744 697q-9 -61 -32 -108.5t-41 -64.5l-18 -17q-9 -4 -18 -4l-17 4q6 7 16 20t30.5 62t29.5 108q13 5 26 5z" />
    <glyph glyph-name="Dcroat" unicode="&#x110;" horiz-adv-x="626" 
d="M211 696q88 7 220 7q125 0 175.5 -40t38.5 -118l-62 -390q-25 -159 -264 -159q-59 0 -113 2t-79 4l-25 2l53 335h-55l-1 21l7 21h55zM392 339h-175l-47 -298h156q95 0 140 27.5t55 86.5l61 390q9 59 -27 86.5t-131 27.5h-156l-44 -278h175l1 -21z" />
    <glyph glyph-name="dcroat" unicode="&#x111;" horiz-adv-x="551" 
d="M610 589h-55l-93 -587q-15 -4 -31 -4l-29 4l7 44q-8 -6 -22.5 -14t-63 -22t-100.5 -14q-77 0 -104.5 38.5t-15.5 114.5l32 202q12 76 57 114.5t134 38.5q55 0 91 -13.5t44.5 -23t11.5 -17.5l22 139h-192l-1 20l7 20h192l11 68q15 5 31 5l29 -5l-11 -68h55l1 -20zM195 351
l-32 -202q-9 -58 9 -84.5t75 -26.5q52 0 94 14t59 28l16 13l41 258q9 57 -20 84t-108 27q-65 0 -95 -26.5t-39 -84.5z" />
    <glyph glyph-name="Emacron" unicode="&#x112;" horiz-adv-x="524" 
d="M184 337l-46 -292h347q3 -9 0 -23l-7 -22h-214q-52 0 -101 1.5t-71 2.5l-23 2l109 687q78 7 196 7h209q0 -1 0.5 -3t1.5 -8t-1 -12l-8 -22h-342l-43 -273h309l1 -22l-8 -23h-309zM515 774h-235q-2 6 0 17l6 18h234l2 -18z" />
    <glyph glyph-name="emacron" unicode="&#x113;" 
d="M103 149l32 202q12 76 63.5 114.5t155.5 38.5t142.5 -38.5t25.5 -114.5l-18 -112q-64 -8 -165 -8h-164l-12 -82q-9 -58 18.5 -84.5t107.5 -26.5q48 0 92.5 9t64.5 19l20 9l1 -22l-8 -21q-61 -36 -177 -36q-108 0 -149.5 38.5t-29.5 114.5zM182 274h270l13 77
q9 58 -17 84.5t-101 26.5q-74 0 -108.5 -27t-43.5 -84zM486 606h-235l-1 18l7 17h234l1 -17z" />
    <glyph glyph-name="Ebreve" unicode="&#x114;" horiz-adv-x="524" 
d="M184 337l-46 -292h347q3 -9 0 -23l-7 -22h-214q-52 0 -101 1.5t-71 2.5l-23 2l109 687q78 7 196 7h209q0 -1 0.5 -3t1.5 -8t-1 -12l-8 -22h-342l-43 -273h309l1 -22l-8 -23h-309zM383 748q-68 0 -92.5 24.5t-16.5 74.5l2 9q11 5 22 5l22 -5l-2 -10q-5 -34 10 -49t60 -15
q44 0 64.5 15t25.5 49l2 10q11 5 22 5l22 -5l-2 -9q-8 -50 -39.5 -74.5t-99.5 -24.5z" />
    <glyph glyph-name="ebreve" unicode="&#x115;" 
d="M103 149l32 202q12 76 63.5 114.5t155.5 38.5t142.5 -38.5t25.5 -114.5l-18 -112q-64 -8 -165 -8h-164l-12 -82q-9 -58 18.5 -84.5t107.5 -26.5q48 0 92.5 9t64.5 19l20 9l1 -22l-8 -21q-61 -36 -177 -36q-108 0 -149.5 38.5t-29.5 114.5zM182 274h270l13 77
q9 58 -17 84.5t-101 26.5q-74 0 -108.5 -27t-43.5 -84zM366 589q-68 0 -92 24t-17 74l2 10q12 4 23 4l21 -4l-2 -10q-5 -34 10.5 -49t59.5 -15t64.5 15t25.5 49l2 10q11 4 23 4l21 -4l-2 -10q-7 -49 -39 -73.5t-100 -24.5z" />
    <glyph glyph-name="Edotaccent" unicode="&#x116;" horiz-adv-x="524" 
d="M184 337l-46 -292h347q3 -9 0 -23l-7 -22h-214q-52 0 -101 1.5t-71 2.5l-23 2l109 687q78 7 196 7h209q0 -1 0.5 -3t1.5 -8t-1 -12l-8 -22h-342l-43 -273h309l1 -22l-8 -23h-309zM444 853l-15 -100q-16 -5 -31 -5l-29 5l15 100q15 4 30 4z" />
    <glyph glyph-name="edotaccent" unicode="&#x117;" 
d="M103 149l32 202q12 76 63.5 114.5t155.5 38.5t142.5 -38.5t25.5 -114.5l-18 -112q-64 -8 -165 -8h-164l-12 -82q-9 -58 18.5 -84.5t107.5 -26.5q48 0 92.5 9t64.5 19l20 9l1 -22l-8 -21q-61 -36 -177 -36q-108 0 -149.5 38.5t-29.5 114.5zM182 274h270l13 77
q9 58 -17 84.5t-101 26.5q-74 0 -108.5 -27t-43.5 -84zM413 697l-15 -100q-17 -4 -32 -4l-28 4l15 100q15 5 31 5z" />
    <glyph glyph-name="Eogonek" unicode="&#x118;" horiz-adv-x="524" 
d="M319 -85q6 43 61 85h-116q-52 0 -101 1.5t-71 2.5l-23 2l109 687q78 7 196 7h209q0 -1 0.5 -3t1.5 -8t-1 -12l-8 -22h-342l-43 -273h309l1 -22l-8 -23h-309l-46 -292h347q3 -9 0 -23l-7 -22h-65q-50 -45 -55 -82q-8 -44 42 -44q16 0 31 4t23 8l7 5l1 -16l-5 -14
q-25 -19 -69 -19q-80 0 -69 73z" />
    <glyph glyph-name="eogonek" unicode="&#x119;" 
d="M268 -85q7 44 59 83q-28 -2 -45 -2q-108 0 -149.5 38.5t-29.5 114.5l32 202q12 76 63.5 114.5t155.5 38.5t142.5 -38.5t25.5 -114.5l-18 -112q-64 -8 -165 -8h-164l-12 -82q-9 -58 18.5 -84.5t107.5 -26.5q48 0 92.5 9t64.5 19l20 9l1 -22l-8 -21q-34 -19 -94 -30
q-10 -6 -32.5 -32.5t-25.5 -51.5q-6 -44 43 -44q15 0 30 4t22 8l8 5l1 -16l-5 -14q-24 -19 -69 -19q-80 0 -69 73zM182 274h270l13 77q9 58 -17 84.5t-101 26.5q-74 0 -108.5 -27t-43.5 -84z" />
    <glyph glyph-name="Ecaron" unicode="&#x11a;" horiz-adv-x="524" 
d="M184 337l-46 -292h347q3 -9 0 -23l-7 -22h-214q-52 0 -101 1.5t-71 2.5l-23 2l109 687q78 7 196 7h209q0 -1 0.5 -3t1.5 -8t-1 -12l-8 -22h-342l-43 -273h309l1 -22l-8 -23h-309zM325 867l74 -87l101 87q13 5 23 5l21 -5l-120 -115q-14 -4 -30 -4l-28 4l-86 115
q11 5 24 5z" />
    <glyph glyph-name="ecaron" unicode="&#x11b;" 
d="M103 149l32 202q12 76 63.5 114.5t155.5 38.5t142.5 -38.5t25.5 -114.5l-18 -112q-64 -8 -165 -8h-164l-12 -82q-9 -58 18.5 -84.5t107.5 -26.5q48 0 92.5 9t64.5 19l20 9l1 -22l-8 -21q-61 -36 -177 -36q-108 0 -149.5 38.5t-29.5 114.5zM182 274h270l13 77
q9 58 -17 84.5t-101 26.5q-74 0 -108.5 -27t-43.5 -84zM296 697l73 -87l102 87q12 5 23 5l21 -5l-122 -115q-13 -4 -28 -4l-29 4l-85 115q11 5 23 5z" />
    <glyph glyph-name="Gcircumflex" unicode="&#x11c;" horiz-adv-x="599" 
d="M599 356l-51 -317q-11 -5 -31 -12t-81.5 -19t-122.5 -12q-122 0 -171.5 40.5t-36.5 118.5l61 390q12 79 73.5 119t185.5 40q123 0 169.5 -40t34.5 -119l-2 -14q-15 -4 -30 -4l-28 4l2 14q9 59 -24.5 86.5t-128.5 27.5t-137.5 -27.5t-51.5 -86.5l-62 -390
q-9 -59 25.5 -86.5t126.5 -27.5q47 0 90.5 7.5t63.5 15.5l21 7l39 246h-156l-1 23l8 22h46q46 0 88 -1.5t61 -2.5zM518 752l-74 88l-101 -88q-12 -4 -23 -4l-21 4l121 115q14 5 29 5l28 -5l86 -115q-11 -4 -23 -4z" />
    <glyph glyph-name="gcircumflex" unicode="&#x11d;" horiz-adv-x="519" 
d="M381 -51l16 98q-5 -7 -16.5 -16.5t-52 -22t-94.5 -12.5q-89 0 -122 39t-21 114l32 202q12 76 52 114.5t116 38.5q52 0 94.5 -13t58.5 -25l17 -13l7 44q15 5 31 5l29 -5l-87 -548q-12 -76 -66 -114.5t-162 -38.5q-45 0 -84 6t-55 12l-17 6l-1 21l8 22q59 -25 156 -25
q80 0 116 26.5t45 84.5zM183 351l-32 -202q-9 -58 12.5 -84.5t86.5 -26.5q79 0 116.5 27t46.5 84l41 258q-1 2 -4.5 6t-15.5 13.5t-27.5 16.5t-43.5 13t-61 6q-57 0 -83.5 -26.5t-35.5 -84.5zM438 582l-73 88l-102 -88q-12 -4 -22 -4l-22 4l121 115q14 5 30 5l28 -5l85 -115
q-10 -4 -23 -4z" />
    <glyph glyph-name="Gbreve" unicode="&#x11e;" horiz-adv-x="599" 
d="M599 356l-51 -317q-11 -5 -31 -12t-81.5 -19t-122.5 -12q-122 0 -171.5 40.5t-36.5 118.5l61 390q12 79 73.5 119t185.5 40q123 0 169.5 -40t34.5 -119l-2 -14q-15 -4 -30 -4l-28 4l2 14q9 59 -24.5 86.5t-128.5 27.5t-137.5 -27.5t-51.5 -86.5l-62 -390
q-9 -59 25.5 -86.5t126.5 -27.5q47 0 90.5 7.5t63.5 15.5l21 7l39 246h-156l-1 23l8 22h46q46 0 88 -1.5t61 -2.5zM430 748q-68 0 -92 24.5t-16 74.5l2 9q10 5 22 5l21 -5l-2 -10q-5 -34 10.5 -49t59.5 -15t64.5 15t25.5 49l2 10q11 5 22 5l22 -5l-2 -9q-8 -50 -39.5 -74.5
t-99.5 -24.5z" />
    <glyph glyph-name="gbreve" unicode="&#x11f;" horiz-adv-x="519" 
d="M381 -51l16 98q-5 -7 -16.5 -16.5t-52 -22t-94.5 -12.5q-89 0 -122 39t-21 114l32 202q12 76 52 114.5t116 38.5q52 0 94.5 -13t58.5 -25l17 -13l7 44q15 5 31 5l29 -5l-87 -548q-12 -76 -66 -114.5t-162 -38.5q-45 0 -84 6t-55 12l-17 6l-1 21l8 22q59 -25 156 -25
q80 0 116 26.5t45 84.5zM183 351l-32 -202q-9 -58 12.5 -84.5t86.5 -26.5q79 0 116.5 27t46.5 84l41 258q-1 2 -4.5 6t-15.5 13.5t-27.5 16.5t-43.5 13t-61 6q-57 0 -83.5 -26.5t-35.5 -84.5zM352 589q-68 0 -92 24t-17 74l2 10q12 4 23 4l21 -4l-2 -10q-5 -34 10.5 -49
t59.5 -15t64.5 15t25.5 49l2 10q11 4 23 4l21 -4l-2 -10q-7 -49 -39 -73.5t-100 -24.5z" />
    <glyph glyph-name="Gdotaccent" unicode="&#x120;" horiz-adv-x="599" 
d="M599 356l-51 -317q-11 -5 -31 -12t-81.5 -19t-122.5 -12q-122 0 -171.5 40.5t-36.5 118.5l61 390q12 79 73.5 119t185.5 40q123 0 169.5 -40t34.5 -119l-2 -14q-15 -4 -30 -4l-28 4l2 14q9 59 -24.5 86.5t-128.5 27.5t-137.5 -27.5t-51.5 -86.5l-62 -390
q-9 -59 25.5 -86.5t126.5 -27.5q47 0 90.5 7.5t63.5 15.5l21 7l39 246h-156l-1 23l8 22h46q46 0 88 -1.5t61 -2.5zM476 853l-15 -100q-16 -5 -31 -5l-29 5l15 100q15 4 31 4z" />
    <glyph glyph-name="gdotaccent" unicode="&#x121;" horiz-adv-x="519" 
d="M381 -51l16 98q-5 -7 -16.5 -16.5t-52 -22t-94.5 -12.5q-89 0 -122 39t-21 114l32 202q12 76 52 114.5t116 38.5q52 0 94.5 -13t58.5 -25l17 -13l7 44q15 5 31 5l29 -5l-87 -548q-12 -76 -66 -114.5t-162 -38.5q-45 0 -84 6t-55 12l-17 6l-1 21l8 22q59 -25 156 -25
q80 0 116 26.5t45 84.5zM183 351l-32 -202q-9 -58 12.5 -84.5t86.5 -26.5q79 0 116.5 27t46.5 84l41 258q-1 2 -4.5 6t-15.5 13.5t-27.5 16.5t-43.5 13t-61 6q-57 0 -83.5 -26.5t-35.5 -84.5zM399 697l-15 -100q-17 -4 -32 -4l-28 4l15 100q15 5 31 5z" />
    <glyph glyph-name="Gcommaaccent" unicode="&#x122;" horiz-adv-x="599" 
d="M599 356l-51 -317q-11 -5 -31 -12t-81.5 -19t-122.5 -12q-122 0 -171.5 40.5t-36.5 118.5l61 390q12 79 73.5 119t185.5 40q123 0 169.5 -40t34.5 -119l-2 -14q-15 -4 -30 -4l-28 4l2 14q9 59 -24.5 86.5t-128.5 27.5t-137.5 -27.5t-51.5 -86.5l-62 -390
q-9 -59 25.5 -86.5t126.5 -27.5q47 0 90.5 7.5t63.5 15.5l21 7l39 246h-156l-1 23l8 22h46q46 0 88 -1.5t61 -2.5zM324 -49q-8 -46 -28 -83t-37 -52l-16 -14q-9 -4 -17 -4l-16 4q6 6 16 17t29 49.5t26 82.5q11 4 22 4z" />
    <glyph glyph-name="gcommaaccent" unicode="&#x123;" horiz-adv-x="519" 
d="M381 -51l16 98q-5 -7 -16.5 -16.5t-52 -22t-94.5 -12.5q-89 0 -122 39t-21 114l32 202q12 76 52 114.5t116 38.5q52 0 94.5 -13t58.5 -25l17 -13l7 44q15 5 31 5l29 -5l-87 -548q-12 -76 -66 -114.5t-162 -38.5q-45 0 -84 6t-55 12l-17 6l-1 21l8 22q59 -25 156 -25
q80 0 116 26.5t45 84.5zM183 351l-32 -202q-9 -58 12.5 -84.5t86.5 -26.5q79 0 116.5 27t46.5 84l41 258q-1 2 -4.5 6t-15.5 13.5t-27.5 16.5t-43.5 13t-61 6q-57 0 -83.5 -26.5t-35.5 -84.5zM327 584q8 53 27.5 93.5t35.5 54.5l16 15q9 4 17 4l16 -4q-6 -6 -15 -17
t-28 -53.5t-27 -92.5q-10 -5 -22 -5z" />
    <glyph glyph-name="Hcircumflex" unicode="&#x124;" horiz-adv-x="613" 
d="M655 697l-110 -695q-17 -4 -33 -4l-30 4l53 334h-351l-53 -334q-16 -4 -32 -4l-30 4l110 695q15 5 32 5l30 -5l-50 -316h351l50 316q16 5 32 5zM513 752l-74 88l-101 -88q-13 -4 -23 -4l-21 4l120 115q15 5 30 5l28 -5l86 -115q-11 -4 -24 -4z" />
    <glyph glyph-name="hcircumflex" unicode="&#x125;" 
d="M239 697l-39 -244q8 6 22.5 14.5t63.5 22.5t102 14q78 0 106 -38.5t16 -114.5l-55 -349q-15 -4 -31 -4l-29 4l55 349q9 58 -10 84.5t-76 26.5q-52 0 -95 -14t-59 -28l-17 -13l-64 -405q-16 -4 -31 -4l-29 4l110 695q15 5 31 5zM435 752l-75 88l-100 -88q-13 -4 -24 -4
l-21 4l121 115q14 5 30 5l27 -5l86 -115q-11 -4 -23 -4z" />
    <glyph glyph-name="Hbar" unicode="&#x126;" horiz-adv-x="678" 
d="M714 522h-55l-82 -520q-17 -4 -32 -4l-31 4l53 334h-351l-53 -334q-16 -4 -32 -4l-30 4l82 520h-55l-1 22l8 21h55l21 132q16 5 32 5l30 -5l-20 -132h351l20 132q16 5 33 5l30 -5l-21 -132h55q3 -9 0 -21zM223 381h351l22 141h-351z" />
    <glyph glyph-name="hbar" unicode="&#x127;" horiz-adv-x="555" 
d="M438 590h-184l-22 -137q8 6 23 14.5t64 22.5t102 14q78 0 106 -38.5t16 -114.5l-55 -349q-16 -4 -31 -4l-29 4l55 349q9 58 -10 84.5t-76 26.5q-52 0 -95 -14t-60 -28l-16 -13l-65 -405q-16 -4 -31 -4l-29 4l93 588h-55q-2 8 0 20l6 20h58l16 67q13 5 27 5l25 -5l-11 -67
h184l1 -20z" />
    <glyph glyph-name="Itilde" unicode="&#x128;" horiz-adv-x="305" 
d="M49 45h79l96 610h-79q-2 9 0 22l7 23h221l1 -23l-8 -22h-79l-96 -610h79q2 -9 0 -23l-7 -22h-221l-1 22zM126 753v4q6 42 26.5 62t61.5 20q31 0 51 -14.5t35.5 -28.5t35.5 -14q26 0 38 11.5t16 36.5l1 5q9 4 20 4l19 -4l-1 -5q-7 -42 -27 -62t-61 -20q-31 0 -51.5 14
t-36 28.5t-34.5 14.5q-47 0 -54 -47v-5q-10 -5 -21 -5z" />
    <glyph glyph-name="itilde" unicode="&#x129;" horiz-adv-x="229" 
d="M50 615l1 4q6 42 26.5 62t61.5 20q39 0 69 -28.5t52 -28.5q26 0 38 11.5t16 36.5l1 5q10 4 21 4l18 -4l-1 -5q-6 -42 -26 -62t-62 -20q-31 0 -51.5 14t-36 28.5t-34.5 14.5q-26 0 -37.5 -11t-15.5 -36l-1 -5q-10 -5 -21 -5zM184 38q12 0 26 3q2 -9 0 -20l-6 -19
q-26 -6 -44 -6q-93 0 -77 101l64 400q15 5 31 5l29 -5l-64 -400q-4 -30 5 -44.5t36 -14.5z" />
    <glyph glyph-name="Imacron" unicode="&#x12a;" horiz-adv-x="305" 
d="M49 45h79l96 610h-79q-2 9 0 22l7 23h221l1 -23l-8 -22h-79l-96 -610h79q2 -9 0 -23l-7 -22h-221l-1 22zM391 774h-234l-1 17l6 18h235l1 -18z" />
    <glyph glyph-name="imacron" unicode="&#x12b;" horiz-adv-x="229" 
d="M320 606h-234l-1 18l7 17h234l1 -17zM193 38q12 0 26 3q2 -9 0 -20l-6 -19q-26 -6 -44 -6q-93 0 -77 101l64 400q15 5 31 5l29 -5l-64 -400q-4 -30 5 -44.5t36 -14.5z" />
    <glyph glyph-name="Ibreve" unicode="&#x12c;" horiz-adv-x="305" 
d="M49 45h79l96 610h-79q-2 9 0 22l7 23h221l1 -23l-8 -22h-79l-96 -610h79q2 -9 0 -23l-7 -22h-221l-1 22zM270 748q-68 0 -92 24.5t-16 74.5l2 9q11 5 22 5l22 -5l-2 -10q-5 -34 10 -49t60 -15q44 0 64.5 15t25.5 49l2 10q10 5 22 5l22 -5l-2 -9q-8 -50 -40 -74.5
t-100 -24.5z" />
    <glyph glyph-name="ibreve" unicode="&#x12d;" horiz-adv-x="229" 
d="M208 589q-68 0 -92 24t-17 74l2 10q11 4 23 4l21 -4l-2 -10q-5 -34 10 -49t60 -15q44 0 64.5 15t25.5 49l2 10q11 4 22 4l21 -4l-2 -10q-7 -50 -38.5 -74t-99.5 -24zM200 38q12 0 26 3q2 -9 0 -20l-6 -19q-26 -6 -44 -6q-93 0 -77 101l64 400q15 5 31 5l29 -5l-64 -400
q-4 -30 5 -44.5t36 -14.5z" />
    <glyph glyph-name="Iogonek" unicode="&#x12e;" horiz-adv-x="305" 
d="M103 -85q7 45 62 85h-123l-1 22l8 23h79l96 610h-79q-2 9 0 22l7 23h221l1 -23l-8 -22h-79l-96 -610h79q2 -9 0 -23l-7 -22h-66q-50 -45 -55 -82q-6 -44 43 -44q15 0 30 4t23 8l7 5l1 -16l-5 -14q-24 -19 -69 -19q-80 0 -69 73z" />
    <glyph glyph-name="iogonek" unicode="&#x12f;" horiz-adv-x="229" 
d="M83 -85q6 41 60 84q-63 12 -49 98l64 400q15 5 31 5l29 -5l-64 -400q-4 -30 5 -44.5t36 -14.5q12 0 26 3q2 -9 0 -20l-6 -19q-26 -6 -42 -6q-46 -40 -51 -78q-6 -44 43 -44q15 0 30 4t22 8l8 5l1 -16l-5 -14q-24 -19 -69 -19q-80 0 -69 73zM250 697l-16 -100
q-16 -4 -31 -4l-29 4l16 100q15 5 31 5z" />
    <glyph glyph-name="Idotaccent" unicode="&#x130;" horiz-adv-x="305" 
d="M49 45h79l96 610h-79q-2 9 0 22l7 23h221l1 -23l-8 -22h-79l-96 -610h79q2 -9 0 -23l-7 -22h-221l-1 22zM317 853l-16 -100q-16 -5 -31 -5l-29 5l16 100q14 4 30 4z" />
    <glyph glyph-name="dotlessi" unicode="&#x131;" horiz-adv-x="229" 
d="M200 38q12 0 26 3q2 -9 0 -20l-6 -19q-26 -6 -44 -6q-93 0 -77 101l64 400q15 5 31 5l29 -5l-64 -400q-4 -30 5 -44.5t36 -14.5z" />
    <glyph glyph-name="IJ" unicode="&#x132;" horiz-adv-x="725" 
d="M49 45h79l96 610h-79q-2 9 0 22l7 23h221l1 -23l-8 -22h-79l-96 -610h79q2 -9 0 -23l-7 -22h-221l-1 22zM766 700l-86 -545q-12 -78 -59.5 -118t-140.5 -40q-39 0 -69.5 6.5t-42.5 12.5l-11 7l-2 22q1 7 3 12.5t4 8.5l2 2q41 -27 122 -27q63 0 93 27.5t39 86.5l79 500
h-122q-2 9 0 22l7 23h184z" />
    <glyph glyph-name="ij" unicode="&#x133;" horiz-adv-x="419" 
d="M255 697l-16 -100q-16 -4 -31 -4l-29 4l16 100q15 5 31 5zM200 38q12 0 26 3q2 -9 0 -20l-6 -19q-26 -6 -44 -6q-93 0 -77 101l64 400q15 5 31 5l29 -5l-64 -400q-4 -30 5 -44.5t36 -14.5zM293 -76l91 573q15 5 31 5l29 -5l-91 -573q-10 -64 -43.5 -96t-98.5 -32
q-39 0 -71 10l-1 20l7 21q23 -9 55 -9q44 0 65 21t27 65zM476 697l-16 -100q-16 -4 -31 -4l-29 4l16 100q15 5 31 5z" />
    <glyph glyph-name="Jcircumflex" unicode="&#x134;" horiz-adv-x="470" 
d="M511 697l-86 -542q-12 -79 -64 -119t-155 -40q-48 0 -86 11t-52 21l-14 11l-1 23l8 23q6 -5 17 -12.5t50 -19.5t84 -12q74 0 108 27t43 87l86 542q15 5 32 5zM576 752l-74 88l-101 -88q-12 -4 -23 -4l-21 4l121 115q14 5 29 5l28 -5l86 -115q-11 -4 -23 -4z" />
    <glyph glyph-name="jcircumflex" unicode="&#x135;" horiz-adv-x="211" 
d="M70 -76l90 573q16 5 31 5l29 -5l-90 -573q-20 -128 -141 -128q-37 0 -72 10l-1 20l8 21q22 -9 55 -9q43 0 63.5 21t27.5 65zM290 582l-73 88l-102 -88q-12 -4 -22 -4l-22 4l121 115q14 5 30 5l28 -5l85 -115q-10 -4 -23 -4z" />
    <glyph glyph-name="Kcommaaccent" unicode="&#x136;" horiz-adv-x="523" 
d="M430 2l-162 338l-87 -24l-50 -314q-17 -4 -32 -4l-30 4l110 695q15 5 32 5l30 -5l-53 -334l88 24l255 310q18 5 36 5l32 -5l-273 -334l172 -361q-17 -4 -35 -4zM282 -49q-8 -46 -28 -83t-36 -52l-17 -14q-9 -4 -17 -4l-16 4q6 6 16 17t29 49.5t26 82.5q11 4 22 4z" />
    <glyph glyph-name="kcommaaccent" unicode="&#x137;" horiz-adv-x="443" 
d="M353 2l-122 239l-68 -23l-34 -216q-16 -4 -31 -4l-29 4l110 695q15 5 31 5l29 -5l-70 -435l69 23l184 212q17 5 34 5l31 -5l-202 -234l133 -261q-16 -4 -33 -4zM249 -49q-7 -46 -27 -83t-36 -52l-17 -14q-9 -4 -17 -4l-16 4q6 6 16 17t29 49.5t26 82.5q11 4 22 4z" />
    <glyph glyph-name="Lacute" unicode="&#x139;" horiz-adv-x="487" 
d="M241 697l-103 -652h317q3 -9 0 -23l-7 -22h-184q-52 0 -101 1.5t-71 2.5l-23 2l110 691q15 5 32 5zM352 875l-144 -123q-12 -4 -23 -4l-21 4l128 123q14 4 30 4z" />
    <glyph glyph-name="lacute" unicode="&#x13a;" horiz-adv-x="237" 
d="M200 38q12 0 26 3q2 -9 0 -20l-6 -19q-26 -6 -44 -6q-93 0 -77 101l96 600q15 5 31 5l29 -5l-96 -600q-4 -30 5 -44.5t36 -14.5zM359 875l-144 -123q-13 -4 -23 -4l-21 4l128 123q14 4 30 4z" />
    <glyph glyph-name="Lcommaaccent" unicode="&#x13b;" horiz-adv-x="487" 
d="M241 697l-103 -652h317q3 -9 0 -23l-7 -22h-184q-52 0 -101 1.5t-71 2.5l-23 2l110 691q15 5 32 5zM279 -49q-7 -46 -27 -83t-36 -52l-17 -14q-9 -4 -17 -4l-16 4q6 6 16 17t29 49.5t26 82.5q11 4 22 4z" />
    <glyph glyph-name="lcommaaccent" unicode="&#x13c;" horiz-adv-x="237" 
d="M184 38q12 0 26 3q2 -9 0 -20l-6 -19q-26 -6 -44 -6q-93 0 -77 101l96 600q15 5 31 5l29 -5l-96 -600q-4 -30 5 -44.5t36 -14.5zM148 -49q-7 -46 -27 -83t-37 -52l-16 -14q-9 -4 -17 -4l-16 4q6 6 16 17t29 49.5t26 82.5q11 4 22 4z" />
    <glyph glyph-name="Lcaron" unicode="&#x13d;" horiz-adv-x="487" 
d="M241 697l-103 -652h317q3 -9 0 -23l-7 -22h-184q-52 0 -101 1.5t-71 2.5l-23 2l110 691q15 5 32 5zM195 867l74 -87l101 87q13 5 24 5l21 -5l-121 -115q-14 -4 -30 -4l-28 4l-85 115q11 5 23 5z" />
    <glyph glyph-name="lcaron" unicode="&#x13e;" horiz-adv-x="311" 
d="M200 38q12 0 26 3q2 -9 0 -20l-6 -19q-26 -6 -44 -6q-93 0 -77 101l96 600q15 5 31 5l29 -5l-96 -600q-4 -30 5 -44.5t36 -14.5zM440 697q-10 -61 -32.5 -108.5t-40.5 -64.5l-18 -17q-10 -4 -19 -4l-16 4q6 7 15.5 20t30 62t30.5 108q12 5 26 5z" />
    <glyph glyph-name="Ldot" unicode="&#x13f;" horiz-adv-x="487" 
d="M241 697l-103 -652h317q3 -9 0 -23l-7 -22h-184q-52 0 -101 1.5t-71 2.5l-23 2l110 691q15 5 32 5zM435 352l-15 -92q-16 -4 -31 -4l-29 4l14 92q15 5 31 5z" />
    <glyph glyph-name="ldot" unicode="&#x140;" horiz-adv-x="333" 
d="M200 38q12 0 26 3q2 -9 0 -20l-6 -19q-26 -6 -44 -6q-93 0 -77 101l96 600q15 5 31 5l29 -5l-96 -600q-4 -30 5 -44.5t36 -14.5zM367 352l-15 -92q-16 -4 -31 -4l-29 4l14 92q15 5 31 5z" />
    <glyph glyph-name="Lslash" unicode="&#x141;" horiz-adv-x="513" 
d="M80 263l66 57l60 377q16 5 33 5l30 -5l-53 -336l120 105l1 -26l-9 -26l-120 -105l-42 -264h317q2 -9 0 -23l-7 -22h-185q-52 0 -100.5 1.5t-70.5 2.5l-23 2l41 262l-66 -58q-2 13 0 27z" />
    <glyph glyph-name="lslash" unicode="&#x142;" horiz-adv-x="271" 
d="M81 270l72 62l58 365q15 5 31 5l29 -5l-52 -328l86 74q3 -11 0 -26l-8 -26l-86 -74l-35 -220q-5 -30 4 -44.5t36 -14.5q14 0 26 3l1 -20l-7 -19q-24 -6 -44 -6q-92 0 -76 101l28 182l-71 -61q-2 12 0 26z" />
    <glyph glyph-name="Nacute" unicode="&#x143;" horiz-adv-x="616" 
d="M69 2l110 695q14 5 28 5l27 -5l271 -581l92 581q15 5 31 5l29 -5l-110 -695q-14 -4 -28 -4l-27 4l-272 582l-91 -582q-16 -4 -31 -4zM552 875l-143 -123q-13 -4 -24 -4l-21 4l128 123q14 4 30 4z" />
    <glyph glyph-name="nacute" unicode="&#x144;" horiz-adv-x="526" 
d="M207 497l-7 -44q8 6 23 14.5t64.5 22.5t102.5 14q78 0 107 -38.5t17 -114.5l-55 -349q-16 -4 -31 -4l-29 4l55 349q9 58 -10.5 84.5t-77.5 26.5q-53 0 -96 -14t-60 -28l-17 -13l-64 -405q-16 -4 -31 -4l-29 4l78 495q15 5 31 5zM479 697l-144 -122q-13 -4 -23 -4l-21 4
l128 122q14 5 31 5z" />
    <glyph glyph-name="Ncommaaccent" unicode="&#x145;" horiz-adv-x="616" 
d="M69 2l110 695q14 5 28 5l27 -5l271 -581l92 581q15 5 31 5l29 -5l-110 -695q-14 -4 -28 -4l-27 4l-272 582l-91 -582q-16 -4 -31 -4zM319 -49q-7 -46 -27.5 -83t-37.5 -52l-16 -14q-8 -4 -16 -4l-16 4q6 6 15.5 17t29 49.5t26.5 82.5q10 4 22 4z" />
    <glyph glyph-name="ncommaaccent" unicode="&#x146;" horiz-adv-x="526" 
d="M207 497l-7 -44q8 6 23 14.5t64.5 22.5t102.5 14q78 0 107 -38.5t17 -114.5l-55 -349q-16 -4 -31 -4l-29 4l55 349q9 58 -10.5 84.5t-77.5 26.5q-53 0 -96 -14t-60 -28l-17 -13l-64 -405q-16 -4 -31 -4l-29 4l78 495q15 5 31 5zM278 -49q-7 -46 -27.5 -83t-36.5 -52
l-17 -14q-8 -4 -16 -4l-16 4q6 6 15.5 17t29 49.5t26.5 82.5q10 4 22 4z" />
    <glyph glyph-name="Ncaron" unicode="&#x147;" horiz-adv-x="616" 
d="M69 2l110 695q14 5 28 5l27 -5l271 -581l92 581q15 5 31 5l29 -5l-110 -695q-14 -4 -28 -4l-27 4l-272 582l-91 -582q-16 -4 -31 -4zM356 867l75 -87l100 87q13 5 24 5l21 -5l-121 -115q-14 -4 -29 -4l-28 4l-86 115q11 5 23 5z" />
    <glyph glyph-name="ncaron" unicode="&#x148;" horiz-adv-x="526" 
d="M207 497l-7 -44q8 6 23 14.5t64.5 22.5t102.5 14q78 0 107 -38.5t17 -114.5l-55 -349q-16 -4 -31 -4l-29 4l55 349q9 58 -10.5 84.5t-77.5 26.5q-53 0 -96 -14t-60 -28l-17 -13l-64 -405q-16 -4 -31 -4l-29 4l78 495q15 5 31 5zM285 697l74 -87l101 87q13 5 24 5l21 -5
l-122 -115q-13 -4 -29 -4l-28 4l-85 115q11 5 23 5z" />
    <glyph glyph-name="Eng" unicode="&#x14a;" horiz-adv-x="616" 
d="M474 -76l14 87l-268 573l-91 -582q-16 -4 -31 -4l-29 4l110 695q14 5 28 5l27 -5l271 -581l92 581q15 5 31 5l29 -5l-123 -773q-19 -128 -141 -128q-37 0 -72 10l-1 20l7 21q23 -9 56 -9q44 0 64.5 21t26.5 65z" />
    <glyph glyph-name="eng" unicode="&#x14b;" horiz-adv-x="526" 
d="M386 -76l68 427q9 58 -10.5 84.5t-77.5 26.5q-53 0 -96 -14t-60 -28l-17 -13l-64 -405q-16 -4 -31 -4l-29 4l78 495q15 5 31 5l29 -5l-7 -44q8 6 23 14.5t64.5 22.5t102.5 14q78 0 107 -38.5t17 -114.5l-68 -427q-10 -64 -43.5 -96t-98.5 -32q-38 0 -71 10l-1 20l7 21
q23 -9 55 -9q44 0 64.5 20.5t27.5 65.5z" />
    <glyph glyph-name="Omacron" unicode="&#x14c;" horiz-adv-x="612" 
d="M105 155l61 390q25 159 264 159q125 0 175.5 -40.5t38.5 -118.5l-62 -390q-25 -159 -264 -159q-125 0 -175.5 40.5t-37.5 118.5zM229 545l-16 -97l-30 -196l-16 -97q-9 -59 27 -86.5t131 -27.5t140 27.5t55 86.5l61 390q9 59 -27 86.5t-131 27.5t-140 -27.5t-54 -86.5z
M558 774h-234l-1 17l6 18h234l2 -18z" />
    <glyph glyph-name="omacron" unicode="&#x14d;" horiz-adv-x="532" 
d="M103 149l32 202q24 153 222 153q104 0 145.5 -39t29.5 -114l-32 -202q-25 -153 -223 -153q-104 0 -145 39t-29 114zM195 351l-8 -51l-16 -100l-8 -51q-9 -57 18.5 -84t102.5 -27t111 27t45 84l32 202q9 57 -18.5 84t-102.5 27t-111.5 -27t-44.5 -84zM491 606h-235l-1 18
l7 17h234l1 -17z" />
    <glyph glyph-name="Obreve" unicode="&#x14e;" horiz-adv-x="612" 
d="M105 155l61 390q25 159 264 159q125 0 175.5 -40.5t38.5 -118.5l-62 -390q-25 -159 -264 -159q-125 0 -175.5 40.5t-37.5 118.5zM229 545l-16 -97l-30 -196l-16 -97q-9 -59 27 -86.5t131 -27.5t140 27.5t55 86.5l61 390q9 59 -27 86.5t-131 27.5t-140 -27.5t-54 -86.5z
M437 748q-68 0 -92 24.5t-16 74.5l2 9q10 5 22 5l22 -5l-2 -10q-5 -34 10 -49t59 -15t65 15t26 49l2 10q10 5 22 5l21 -5l-2 -9q-8 -50 -39.5 -74.5t-99.5 -24.5z" />
    <glyph glyph-name="obreve" unicode="&#x14f;" horiz-adv-x="532" 
d="M103 149l32 202q24 153 222 153q104 0 145.5 -39t29.5 -114l-32 -202q-25 -153 -223 -153q-104 0 -145 39t-29 114zM195 351l-8 -51l-16 -100l-8 -51q-9 -57 18.5 -84t102.5 -27t111 27t45 84l32 202q9 57 -18.5 84t-102.5 27t-111.5 -27t-44.5 -84zM371 589
q-68 0 -92 24t-17 74l2 10q12 4 23 4l21 -4l-2 -10q-5 -34 10.5 -49t59.5 -15t64.5 15t25.5 49l2 10q11 4 23 4l21 -4l-2 -10q-7 -49 -39 -73.5t-100 -24.5z" />
    <glyph glyph-name="Ohungarumlaut" unicode="&#x150;" horiz-adv-x="612" 
d="M105 155l61 390q25 159 264 159q125 0 175.5 -40.5t38.5 -118.5l-62 -390q-25 -159 -264 -159q-125 0 -175.5 40.5t-37.5 118.5zM229 545l-16 -97l-30 -196l-16 -97q-9 -59 27 -86.5t131 -27.5t140 27.5t55 86.5l61 390q9 59 -27 86.5t-131 27.5t-140 -27.5t-54 -86.5z
M481 875l-143 -123q-13 -4 -23 -4l-22 4l128 123q14 4 31 4zM647 875l-144 -123q-12 -4 -23 -4l-21 4l128 123q14 4 30 4z" />
    <glyph glyph-name="ohungarumlaut" unicode="&#x151;" horiz-adv-x="532" 
d="M103 149l32 202q24 153 222 153q104 0 145.5 -39t29.5 -114l-32 -202q-25 -153 -223 -153q-104 0 -145 39t-29 114zM195 351l-8 -51l-16 -100l-8 -51q-9 -57 18.5 -84t102.5 -27t111 27t45 84l32 202q9 57 -18.5 84t-102.5 27t-111.5 -27t-44.5 -84zM412 697l-143 -122
q-13 -4 -24 -4l-21 4l128 122q15 5 31 5zM578 697l-144 -122q-13 -4 -23 -4l-21 4l128 122q14 5 31 5z" />
    <glyph glyph-name="OE" unicode="&#x152;" horiz-adv-x="841" 
d="M807 0h-167q-136 0 -166 6q-50 -10 -156 -10q-125 0 -175.5 40.5t-37.5 118.5l61 390q25 158 264 158q73 0 154 -9q66 6 166 6h162q0 -1 0.5 -3t1.5 -8t-1 -12l-8 -22h-304l-43 -273h271l1 -22l-8 -23h-271l-46 -292h309q3 -9 0 -23zM442 41l99 618h-118
q-95 0 -140 -27.5t-54 -86.5l-62 -390q-9 -59 27 -86.5t131 -27.5h117z" />
    <glyph glyph-name="oe" unicode="&#x153;" horiz-adv-x="860" 
d="M103 149l32 202q24 153 222 153q136 0 156 -77q46 77 178 77q105 0 143 -38.5t26 -114.5l-18 -112q-64 -8 -165 -8h-164l-13 -82q-9 -58 19 -84.5t107 -26.5q48 0 92.5 9t65.5 19l20 9l1 -22l-9 -21q-7 -4 -20 -10t-59 -16t-98 -10q-138 0 -161 78q-45 -78 -181 -78
q-104 0 -145 39t-29 114zM195 351l-32 -202q-9 -57 18.5 -84t102.5 -27t111 27t45 84l32 202q9 57 -18.5 84t-102.5 27t-111.5 -27t-44.5 -84zM519 274h270l13 77q9 57 -17 84t-100 27q-75 0 -109.5 -26.5t-43.5 -84.5z" />
    <glyph glyph-name="Racute" unicode="&#x154;" horiz-adv-x="569" 
d="M458 2l-123 311h-8l-147 4l-49 -315q-17 -4 -32 -4l-30 4l109 694q84 7 210 7q117 0 164 -40t35 -118l-12 -74q-22 -133 -177 -154l126 -315q-16 -4 -34 -4zM235 659l-48 -302h147q87 0 128.5 28t49.5 86l12 74q10 58 -23 86t-120 28h-146zM526 875l-143 -123
q-13 -4 -23 -4l-22 4l128 123q14 4 31 4z" />
    <glyph glyph-name="racute" unicode="&#x155;" horiz-adv-x="360" 
d="M207 497l-10 -64q3 3 8.5 7.5t25 17t41 22t55.5 17t69 7.5l1 -22l-8 -22q-38 0 -72.5 -9.5t-57 -22.5t-39.5 -26t-25 -22l-8 -10l-58 -368q-16 -4 -31 -4l-29 4l78 495q15 5 31 5zM403 697l-144 -122q-12 -4 -23 -4l-21 4l128 122q15 5 31 5z" />
    <glyph glyph-name="Rcommaaccent" unicode="&#x156;" horiz-adv-x="569" 
d="M458 2l-123 311h-8l-147 4l-49 -315q-17 -4 -32 -4l-30 4l109 694q84 7 210 7q117 0 164 -40t35 -118l-12 -74q-22 -133 -177 -154l126 -315q-16 -4 -34 -4zM235 659l-48 -302h147q87 0 128.5 28t49.5 86l12 74q10 58 -23 86t-120 28h-146zM305 -49q-8 -46 -28 -83
t-37 -52l-16 -14q-9 -4 -17 -4l-16 4q6 6 16 17t29 49.5t26 82.5q11 4 22 4z" />
    <glyph glyph-name="rcommaaccent" unicode="&#x157;" horiz-adv-x="360" 
d="M207 497l-10 -64q3 3 8.5 7.5t25 17t41 22t55.5 17t69 7.5l1 -22l-8 -22q-38 0 -72.5 -9.5t-57 -22.5t-39.5 -26t-25 -22l-8 -10l-58 -368q-16 -4 -31 -4l-29 4l78 495q15 5 31 5zM141 -49q-7 -46 -27.5 -83t-37.5 -52l-16 -14q-8 -4 -16 -4l-16 4q6 6 15.5 17t29 49.5
t26.5 82.5q10 4 22 4z" />
    <glyph glyph-name="Rcaron" unicode="&#x158;" horiz-adv-x="569" 
d="M458 2l-123 311h-8l-147 4l-49 -315q-17 -4 -32 -4l-30 4l109 694q84 7 210 7q117 0 164 -40t35 -118l-12 -74q-22 -133 -177 -154l126 -315q-16 -4 -34 -4zM235 659l-48 -302h147q87 0 128.5 28t49.5 86l12 74q10 58 -23 86t-120 28h-146zM323 867l74 -87l101 87
q13 5 24 5l21 -5l-121 -115q-14 -4 -30 -4l-28 4l-85 115q11 5 23 5z" />
    <glyph glyph-name="rcaron" unicode="&#x159;" horiz-adv-x="360" 
d="M207 497l-10 -64q3 3 8.5 7.5t25 17t41 22t55.5 17t69 7.5l1 -22l-8 -22q-38 0 -72.5 -9.5t-57 -22.5t-39.5 -26t-25 -22l-8 -10l-58 -368q-16 -4 -31 -4l-29 4l78 495q15 5 31 5zM213 697l73 -87l102 87q12 5 23 5l21 -5l-122 -115q-13 -4 -28 -4l-29 4l-85 115
q11 5 23 5z" />
    <glyph glyph-name="Sacute" unicode="&#x15a;" horiz-adv-x="558" 
d="M220 545l-8 -51q-5 -31 12.5 -53.5t48.5 -35t69.5 -23.5t77 -23.5t69 -30t46.5 -48.5t9 -74l-7 -51q-13 -80 -71.5 -119.5t-177.5 -39.5q-121 0 -165.5 39.5t-31.5 119.5l2 14q16 4 32 4l29 -4l-2 -14q-9 -60 23 -87t120 -27t129 27.5t50 86.5l8 51q5 34 -12 57.5t-48 37
t-69.5 24.5t-77 23.5t-69 29t-46.5 46t-10 70.5l8 51q12 79 69.5 119t173.5 40q117 0 159 -39.5t29 -119.5l-2 -14q-16 -4 -31 -4l-30 4l2 14q9 59 -20.5 86.5t-113.5 27.5q-85 0 -125 -27.5t-49 -86.5zM537 875l-144 -123q-13 -4 -23 -4l-21 4l128 123q14 4 30 4z" />
    <glyph glyph-name="sacute" unicode="&#x15b;" horiz-adv-x="493" 
d="M192 367l-3 -20q-5 -30 23.5 -45t87.5 -27q39 -8 64 -15t54.5 -21t42 -36t7.5 -51l-3 -20q-20 -137 -210 -137q-102 0 -139 37t-24 111v6q15 4 31 4l28 -4l-1 -6q-9 -54 16 -80t96 -26q70 0 102.5 23t40.5 72l3 20q5 33 -26 50t-90 28q-30 6 -49 10.5t-45 14.5
t-40.5 21.5t-23.5 29.5t-5 41l3 20q11 68 59 102.5t146 34.5q97 0 132 -37t23 -111l-1 -6q-15 -4 -30 -4l-28 4l1 6q8 55 -15.5 80.5t-88.5 25.5q-67 0 -98.5 -23t-39.5 -72zM475 697l-143 -122q-13 -4 -24 -4l-21 4l128 122q15 5 31 5z" />
    <glyph glyph-name="Scircumflex" unicode="&#x15c;" horiz-adv-x="558" 
d="M220 545l-8 -51q-5 -31 12.5 -53.5t48.5 -35t69.5 -23.5t77 -23.5t69 -30t46.5 -48.5t9 -74l-7 -51q-13 -80 -71.5 -119.5t-177.5 -39.5q-121 0 -165.5 39.5t-31.5 119.5l2 14q16 4 32 4l29 -4l-2 -14q-9 -60 23 -87t120 -27t129 27.5t50 86.5l8 51q5 34 -12 57.5t-48 37
t-69.5 24.5t-77 23.5t-69 29t-46.5 46t-10 70.5l8 51q12 79 69.5 119t173.5 40q117 0 159 -39.5t29 -119.5l-2 -14q-16 -4 -31 -4l-30 4l2 14q9 59 -20.5 86.5t-113.5 27.5q-85 0 -125 -27.5t-49 -86.5zM498 752l-74 88l-101 -88q-12 -4 -23 -4l-21 4l121 115q14 5 29 5
l28 -5l86 -115q-11 -4 -23 -4z" />
    <glyph glyph-name="scircumflex" unicode="&#x15d;" horiz-adv-x="493" 
d="M192 367l-3 -20q-5 -30 23.5 -45t87.5 -27q39 -8 64 -15t54.5 -21t42 -36t7.5 -51l-3 -20q-20 -137 -210 -137q-102 0 -139 37t-24 111v6q15 4 31 4l28 -4l-1 -6q-9 -54 16 -80t96 -26q70 0 102.5 23t40.5 72l3 20q5 33 -26 50t-90 28q-30 6 -49 10.5t-45 14.5
t-40.5 21.5t-23.5 29.5t-5 41l3 20q11 68 59 102.5t146 34.5q97 0 132 -37t23 -111l-1 -6q-15 -4 -30 -4l-28 4l1 6q8 55 -15.5 80.5t-88.5 25.5q-67 0 -98.5 -23t-39.5 -72zM438 582l-73 88l-102 -88q-12 -4 -22 -4l-22 4l122 115q14 5 29 5l28 -5l85 -115q-10 -4 -23 -4z
" />
    <glyph glyph-name="Scedilla" unicode="&#x15e;" horiz-adv-x="558" 
d="M220 545l-8 -51q-5 -31 12.5 -53.5t48.5 -35t69.5 -23.5t77 -23.5t69 -30t46.5 -48.5t9 -74l-7 -51q-13 -76 -67 -115.5t-163 -42.5l-2 -9q-2 -15 9.5 -23.5t26 -11.5t26 -13.5t8.5 -29.5l-2 -8q-11 -66 -98 -66q-49 0 -65 16.5t-10 50.5l1 5q10 2 19 2l18 -2l-1 -5
q-3 -22 5.5 -30t37.5 -8q28 0 39.5 8t14.5 29l2 8q2 11 -10 17.5t-27 9.5t-25.5 16t-6.5 35l1 9q-110 3 -150 42.5t-27 115.5l2 14q16 4 32 4l29 -4l-2 -14q-9 -60 23 -87t120 -27t129 27.5t50 86.5l8 51q5 34 -12 57.5t-48 37t-69.5 24.5t-77 23.5t-69 29t-46.5 46
t-10 70.5l8 51q12 79 69.5 119t173.5 40q117 0 159 -39.5t29 -119.5l-2 -14q-16 -4 -31 -4l-30 4l2 14q9 59 -20.5 86.5t-113.5 27.5q-85 0 -125 -27.5t-49 -86.5z" />
    <glyph glyph-name="scedilla" unicode="&#x15f;" horiz-adv-x="493" 
d="M191 367l-3 -20q-5 -30 23.5 -45t87.5 -27q39 -8 64 -15t54.5 -21t42 -36t7.5 -51l-3 -20q-10 -65 -56.5 -99.5t-138.5 -37.5l-2 -7q-2 -15 9.5 -23.5t26 -11.5t26 -13.5t8.5 -29.5l-2 -8q-11 -66 -98 -66q-49 0 -65 16.5t-10 50.5l1 5q10 2 19 2l18 -2l-1 -5
q-3 -22 5.5 -30t37.5 -8q28 0 39.5 8t14.5 29l2 8q2 11 -10 17.5t-27 9.5t-25.5 16t-6.5 35l1 8q-88 4 -119.5 40.5t-19.5 106.5v6q15 4 31 4l28 -4l-1 -6q-9 -54 16 -80t96 -26q70 0 102.5 23t40.5 72l3 20q5 33 -26 50t-90 28q-30 6 -49 10.5t-45 14.5t-40.5 21.5
t-23.5 29.5t-5 41l3 20q11 68 59 102.5t146 34.5q97 0 132 -37t23 -111l-1 -6q-15 -4 -30 -4l-28 4l1 6q8 55 -15.5 80.5t-88.5 25.5q-67 0 -98.5 -23t-39.5 -72z" />
    <glyph glyph-name="Scaron" unicode="&#x160;" horiz-adv-x="558" 
d="M220 545l-8 -51q-5 -31 12.5 -53.5t48.5 -35t69.5 -23.5t77 -23.5t69 -30t46.5 -48.5t9 -74l-7 -51q-13 -80 -71.5 -119.5t-177.5 -39.5q-121 0 -165.5 39.5t-31.5 119.5l2 14q16 4 32 4l29 -4l-2 -14q-9 -60 23 -87t120 -27t129 27.5t50 86.5l8 51q5 34 -12 57.5t-48 37
t-69.5 24.5t-77 23.5t-69 29t-46.5 46t-10 70.5l8 51q12 79 69.5 119t173.5 40q117 0 159 -39.5t29 -119.5l-2 -14q-16 -4 -31 -4l-30 4l2 14q9 59 -20.5 86.5t-113.5 27.5q-85 0 -125 -27.5t-49 -86.5zM341 867l74 -87l101 87q13 5 23 5l21 -5l-120 -115q-14 -4 -30 -4
l-28 4l-86 115q11 5 24 5z" />
    <glyph glyph-name="scaron" unicode="&#x161;" horiz-adv-x="493" 
d="M192 367l-3 -20q-5 -30 23.5 -45t87.5 -27q39 -8 64 -15t54.5 -21t42 -36t7.5 -51l-3 -20q-20 -137 -210 -137q-102 0 -139 37t-24 111v6q15 4 31 4l28 -4l-1 -6q-9 -54 16 -80t96 -26q70 0 102.5 23t40.5 72l3 20q5 33 -26 50t-90 28q-30 6 -49 10.5t-45 14.5
t-40.5 21.5t-23.5 29.5t-5 41l3 20q11 68 59 102.5t146 34.5q97 0 132 -37t23 -111l-1 -6q-15 -4 -30 -4l-28 4l1 6q8 55 -15.5 80.5t-88.5 25.5q-67 0 -98.5 -23t-39.5 -72zM282 697l73 -87l102 87q13 5 23 5l21 -5l-121 -115q-14 -4 -29 -4l-29 4l-85 115q11 5 24 5z" />
    <glyph glyph-name="Tcommaaccent" unicode="&#x162;" horiz-adv-x="553" 
d="M615 655h-203l-103 -653q-16 -4 -32 -4l-30 4l103 653h-207q-2 9 0 22l7 23h472l1 -23zM292 -49q-7 -46 -27 -83t-37 -52l-16 -14q-9 -4 -17 -4l-16 4q6 6 16 17t29 49.5t26 82.5q11 4 22 4z" />
    <glyph glyph-name="tcommaaccent" unicode="&#x163;" horiz-adv-x="382" 
d="M385 457h-151l-52 -326q-8 -48 9.5 -70.5t69.5 -22.5q31 0 59 10q2 -9 0 -20l-7 -20q-42 -12 -76 -12q-73 0 -99.5 34t-15.5 101l52 326h-55l-1 22l7 21h58l20 97q13 5 27 5l25 -5l-15 -97h152q2 -9 0 -21zM224 -49q-7 -46 -27 -83t-37 -52l-16 -14q-9 -4 -17 -4l-16 4
q6 6 16 17t29 49.5t26 82.5q11 4 22 4z" />
    <glyph glyph-name="Tcaron" unicode="&#x164;" horiz-adv-x="553" 
d="M615 655h-203l-103 -653q-16 -4 -32 -4l-30 4l103 653h-207q-2 9 0 22l7 23h472l1 -23zM327 867l74 -87l101 87q13 5 23 5l21 -5l-120 -115q-14 -4 -30 -4l-28 4l-86 115q11 5 24 5z" />
    <glyph glyph-name="tcaron" unicode="&#x165;" horiz-adv-x="454" 
d="M392 457h-151l-52 -326q-8 -48 9.5 -70.5t69.5 -22.5q31 0 59 10q2 -9 0 -20l-7 -20q-42 -12 -76 -12q-73 0 -99.5 34t-15.5 101l52 326h-55l-1 22l7 21h58l20 97q13 5 27 5l25 -5l-15 -97h152q2 -9 0 -21zM573 697q-10 -61 -32.5 -108.5t-40.5 -64.5l-18 -17
q-10 -4 -18 -4l-17 4q6 7 16 20t30.5 62t29.5 108q13 5 26 5z" />
    <glyph glyph-name="Tbar" unicode="&#x166;" horiz-adv-x="553" 
d="M534 349h-169l-55 -347q-16 -4 -32 -4l-30 4l54 347h-168q-3 8 0 21l6 21h169l42 264h-207q-2 9 0 22l7 23h472l1 -23l-8 -22h-203l-42 -264h169l2 -21z" />
    <glyph glyph-name="tbar" unicode="&#x167;" horiz-adv-x="382" 
d="M362 317h-151l-29 -186q-8 -48 9.5 -70.5t69.5 -22.5q31 0 59 10q2 -9 0 -20l-7 -20q-42 -12 -76 -12q-73 0 -99.5 34t-15.5 101l29 186h-55l-1 20l8 20h55l16 103h-55l-1 20l7 20h58l20 97q13 5 27 5l25 -5l-15 -97h152q2 -8 0 -20l-7 -20h-151l-16 -103h151l1 -20z" />
    <glyph glyph-name="Utilde" unicode="&#x168;" horiz-adv-x="606" 
d="M661 697l-86 -542q-27 -159 -260 -159q-123 0 -172.5 40.5t-36.5 118.5l86 542q15 5 32 5l30 -5l-86 -542q-9 -59 26 -86.5t128 -27.5t137 27.5t53 86.5l86 542q16 5 32 5zM290 753v4q6 42 26.5 62t61.5 20q31 0 51 -14.5t35.5 -28.5t35.5 -14q47 0 54 48l1 5q9 4 20 4
l18 -4v-5q-7 -42 -27 -62t-61 -20q-31 0 -51.5 14t-36 28.5t-34.5 14.5q-26 0 -38 -11t-16 -36l-1 -5q-10 -5 -20 -5z" />
    <glyph glyph-name="utilde" unicode="&#x169;" 
d="M407 2l7 44q-8 -6 -22.5 -14t-63.5 -22t-102 -14q-78 0 -106 38.5t-16 114.5l55 348q15 5 31 5l29 -5l-55 -348q-9 -58 10 -84.5t76 -26.5q52 0 95 14t59 28l17 13l64 404q16 5 31 5l29 -5l-78 -495q-15 -4 -31 -4zM224 615l1 4q6 42 26.5 62t61.5 20q39 0 69 -28.5
t52 -28.5q26 0 38 11.5t16 36.5l1 5q10 4 21 4l18 -4l-1 -5q-6 -42 -26 -62t-62 -20q-31 0 -51.5 14t-36 28.5t-34.5 14.5q-26 0 -37.5 -11t-15.5 -36l-1 -5q-10 -5 -21 -5z" />
    <glyph glyph-name="Umacron" unicode="&#x16a;" horiz-adv-x="606" 
d="M661 697l-86 -542q-27 -159 -260 -159q-123 0 -172.5 40.5t-36.5 118.5l86 542q15 5 32 5l30 -5l-86 -542q-9 -59 26 -86.5t128 -27.5t137 27.5t53 86.5l86 542q16 5 32 5zM555 774h-234l-1 17l6 18h234l2 -18z" />
    <glyph glyph-name="umacron" unicode="&#x16b;" 
d="M407 2l7 44q-8 -6 -22.5 -14t-63.5 -22t-102 -14q-78 0 -106 38.5t-16 114.5l55 348q15 5 31 5l29 -5l-55 -348q-9 -58 10 -84.5t76 -26.5q52 0 95 14t59 28l17 13l64 404q16 5 31 5l29 -5l-78 -495q-15 -4 -31 -4zM485 606h-234l-1 18l7 17h234l1 -17z" />
    <glyph glyph-name="Ubreve" unicode="&#x16c;" horiz-adv-x="606" 
d="M661 697l-86 -542q-27 -159 -260 -159q-123 0 -172.5 40.5t-36.5 118.5l86 542q15 5 32 5l30 -5l-86 -542q-9 -59 26 -86.5t128 -27.5t137 27.5t53 86.5l86 542q16 5 32 5zM434 748q-68 0 -92 24.5t-16 74.5l2 9q10 5 22 5l22 -5l-2 -10q-5 -34 10 -49t59 -15t65 15
t26 49l2 10q10 5 22 5l21 -5l-2 -9q-8 -50 -39.5 -74.5t-99.5 -24.5z" />
    <glyph glyph-name="ubreve" unicode="&#x16d;" 
d="M407 2l7 44q-8 -6 -22.5 -14t-63.5 -22t-102 -14q-78 0 -106 38.5t-16 114.5l55 348q15 5 31 5l29 -5l-55 -348q-9 -58 10 -84.5t76 -26.5q52 0 95 14t59 28l17 13l64 404q16 5 31 5l29 -5l-78 -495q-15 -4 -31 -4zM366 589q-68 0 -92 24t-17 74l2 10q11 4 23 4l21 -4
l-2 -10q-5 -34 10 -49t60 -15q44 0 64.5 15t25.5 49l2 10q11 4 22 4l21 -4l-2 -10q-7 -50 -38.5 -74t-99.5 -24z" />
    <glyph glyph-name="Uring" unicode="&#x16e;" horiz-adv-x="606" 
d="M661 697l-86 -542q-27 -159 -260 -159q-123 0 -172.5 40.5t-36.5 118.5l86 542q15 5 32 5l30 -5l-86 -542q-9 -59 26 -86.5t128 -27.5t137 27.5t53 86.5l86 542q16 5 32 5zM364 811l3 17q10 67 91 67q41 0 57.5 -17.5t11.5 -49.5l-3 -17q-10 -67 -90 -67q-41 0 -58 18
t-12 49zM398 828l-3 -17q-3 -19 7 -29t36 -10q49 0 55 39l3 17q2 20 -7.5 29.5t-35.5 9.5q-49 0 -55 -39z" />
    <glyph glyph-name="uring" unicode="&#x16f;" 
d="M407 2l7 44q-8 -6 -22.5 -14t-63.5 -22t-102 -14q-78 0 -106 38.5t-16 114.5l55 348q15 5 31 5l29 -5l-55 -348q-9 -58 10 -84.5t76 -26.5q52 0 95 14t59 28l17 13l64 404q16 5 31 5l29 -5l-78 -495q-15 -4 -31 -4zM290 619l3 17q10 67 91 67q40 0 57 -18t12 -49l-3 -17
q-10 -67 -90 -67q-41 0 -58 17.5t-12 49.5zM324 636l-2 -17q-4 -20 6 -29.5t36 -9.5q49 0 55 39l3 17q2 20 -7.5 29.5t-35.5 9.5q-49 0 -55 -39z" />
    <glyph glyph-name="Uhungarumlaut" unicode="&#x170;" horiz-adv-x="606" 
d="M661 697l-86 -542q-27 -159 -260 -159q-123 0 -172.5 40.5t-36.5 118.5l86 542q15 5 32 5l30 -5l-86 -542q-9 -59 26 -86.5t128 -27.5t137 27.5t53 86.5l86 542q16 5 32 5zM478 875l-143 -123q-13 -4 -23 -4l-22 4l128 123q14 4 31 4zM644 875l-144 -123q-12 -4 -23 -4
l-21 4l128 123q14 4 30 4z" />
    <glyph glyph-name="uhungarumlaut" unicode="&#x171;" 
d="M407 2l7 44q-8 -6 -22.5 -14t-63.5 -22t-102 -14q-78 0 -106 38.5t-16 114.5l55 348q15 5 31 5l29 -5l-55 -348q-9 -58 10 -84.5t76 -26.5q52 0 95 14t59 28l17 13l64 404q16 5 31 5l29 -5l-78 -495q-15 -4 -31 -4zM407 697l-144 -122q-13 -4 -23 -4l-21 4l128 122
q14 5 31 5zM572 697l-143 -122q-13 -4 -24 -4l-21 4l128 122q15 5 31 5z" />
    <glyph glyph-name="Uogonek" unicode="&#x172;" horiz-adv-x="606" 
d="M306 -85q5 40 58 83q-30 -2 -49 -2q-123 0 -172.5 40.5t-36.5 118.5l86 542q15 5 32 5l30 -5l-86 -542q-9 -59 26 -86.5t128 -27.5t137 27.5t53 86.5l86 542q16 5 32 5l31 -5l-86 -542q-22 -128 -172 -153q-10 -6 -32.5 -32.5t-25.5 -51.5q-8 -44 42 -44q16 0 31 4t23 8
l7 5l1 -16l-5 -14q-25 -19 -69 -19q-80 0 -69 73z" />
    <glyph glyph-name="uogonek" unicode="&#x173;" 
d="M363 -85q5 40 60 84l-16 3l7 44q-8 -6 -22.5 -14t-63.5 -22t-102 -14q-78 0 -106 38.5t-16 114.5l55 348q15 5 31 5l29 -5l-55 -348q-9 -58 10 -84.5t76 -26.5q52 0 95 14t59 28l17 13l64 404q16 5 31 5l29 -5l-78 -495l-10 -2q-50 -45 -55 -82q-8 -44 42 -44
q15 0 30.5 4t23.5 8l7 5l1 -16l-6 -14q-24 -19 -68 -19q-40 0 -57.5 19t-11.5 54z" />
    <glyph glyph-name="Wcircumflex" unicode="&#x174;" horiz-adv-x="935" 
d="M631 2l-64 633l-262 -633q-21 -4 -44 -4l-41 4l-80 695q16 5 32 5l31 -5l70 -637l266 637q17 5 39 5l38 -5l65 -637l272 637q17 5 32 5l30 -5l-299 -695q-21 -4 -44 -4zM673 752l-74 88l-101 -88q-12 -4 -23 -4l-21 4l121 115q14 5 29 5l28 -5l86 -115q-11 -4 -23 -4z
" />
    <glyph glyph-name="wcircumflex" unicode="&#x175;" horiz-adv-x="777" 
d="M516 2l-59 435l-195 -435q-19 -4 -41 -4l-39 4l-74 495q16 5 30 5l30 -5l64 -444l199 444q16 5 36 5l36 -5l59 -444l204 444q16 5 31 5l29 -5l-230 -495q-20 -4 -41 -4zM567 582l-73 88l-102 -88q-12 -4 -22 -4l-22 4l121 115q14 5 30 5l28 -5l85 -115q-10 -4 -23 -4z
" />
    <glyph glyph-name="Ycircumflex" unicode="&#x176;" horiz-adv-x="562" 
d="M642 697l-283 -395l-47 -300q-16 -4 -32 -4l-30 4l47 300l-157 395q18 5 35 5l34 -5l129 -336l235 336q19 5 36 5zM488 752l-75 88l-100 -88q-13 -4 -24 -4l-21 4l121 115q14 5 30 5l27 -5l86 -115q-11 -4 -23 -4z" />
    <glyph glyph-name="ycircumflex" unicode="&#x177;" horiz-adv-x="506" 
d="M197 -78l43 77l-18 3l-107 495q16 5 31 5l29 -5l92 -442l231 442q16 5 31 5l29 -5l-306 -573q-34 -66 -72.5 -97t-95.5 -31q-13 0 -24.5 1.5t-16.5 2.5l-5 2l-1 21l7 20q17 -5 46 -5q35 0 59.5 20.5t47.5 63.5zM432 582l-74 88l-101 -88q-12 -4 -23 -4l-22 4l122 115
q14 5 29 5l28 -5l85 -115q-10 -4 -22 -4z" />
    <glyph glyph-name="Ydieresis" unicode="&#x178;" horiz-adv-x="562" 
d="M642 697l-283 -395l-47 -300q-16 -4 -32 -4l-30 4l47 300l-157 395q18 5 35 5l34 -5l129 -336l235 336q19 5 36 5zM335 849l-15 -97q-12 -4 -26 -4l-24 4l15 97q11 4 25 4zM545 849l-15 -97q-12 -4 -26 -4l-24 4l15 97q11 4 25 4z" />
    <glyph glyph-name="Zacute" unicode="&#x179;" horiz-adv-x="552" 
d="M603 655l-473 -609h377q3 -9 0 -23l-7 -23h-446q0 1 -0.5 3t-1.5 7.5t1 11.5l8 23l472 608h-376q-2 10 0 24l7 23h446l1 -23zM521 875l-143 -123q-13 -4 -23 -4l-22 4l128 123q14 4 31 4z" />
    <glyph glyph-name="zacute" unicode="&#x17a;" horiz-adv-x="472" 
d="M492 457l-366 -413h300q2 -9 0 -22l-7 -22h-366l-2 21l8 21l366 414h-300l-1 22l8 22h366l1 -21zM452 697l-143 -122q-13 -4 -24 -4l-21 4l128 122q15 5 31 5z" />
    <glyph glyph-name="Zdotaccent" unicode="&#x17b;" horiz-adv-x="552" 
d="M603 655l-473 -609h377q3 -9 0 -23l-7 -23h-446q0 1 -0.5 3t-1.5 7.5t1 11.5l8 23l472 608h-376q-2 10 0 24l7 23h446l1 -23zM441 853l-15 -100q-16 -5 -31 -5l-29 5l15 100q15 4 30 4z" />
    <glyph glyph-name="zdotaccent" unicode="&#x17c;" horiz-adv-x="472" 
d="M492 457l-366 -413h300q2 -9 0 -22l-7 -22h-366l-2 21l8 21l366 414h-300l-1 22l8 22h366l1 -21zM376 697l-16 -100q-16 -4 -31 -4l-29 4l16 100q15 5 31 5z" />
    <glyph glyph-name="Zcaron" unicode="&#x17d;" horiz-adv-x="552" 
d="M603 655l-473 -609h377q3 -9 0 -23l-7 -23h-446q0 1 -0.5 3t-1.5 7.5t1 11.5l8 23l472 608h-376q-2 10 0 24l7 23h446l1 -23zM326 867l74 -87l101 87q13 5 23 5l21 -5l-121 -115q-14 -4 -29 -4l-28 4l-86 115q11 5 24 5z" />
    <glyph glyph-name="zcaron" unicode="&#x17e;" horiz-adv-x="472" 
d="M492 457l-366 -413h300q2 -9 0 -22l-7 -22h-366l-2 21l8 21l366 414h-300l-1 22l8 22h366l1 -21zM258 697l73 -87l102 87q13 5 23 5l22 -5l-122 -115q-13 -4 -29 -4l-29 4l-84 115q10 5 23 5z" />
    <glyph glyph-name="longs" unicode="&#x17f;" horiz-adv-x="337" 
d="M258 569l-121 -766q-15 -5 -30 -5l-30 5l104 657h-55q-2 8 0 21l7 21h55l10 67q22 135 159 135q40 0 75 -10l1 -20l-8 -21q-22 9 -58 9q-52 0 -76.5 -22.5t-32.5 -70.5z" />
    <glyph glyph-name="uni018F" unicode="&#x18f;" horiz-adv-x="600" 
d="M337 374h204l27 171q10 59 -23.5 86.5t-127.5 27.5t-136.5 -27.5t-52.5 -86.5l-2 -14q-14 -4 -29 -4l-28 4l2 14q13 79 71.5 119t181.5 40t171 -40t36 -119l-62 -390q-12 -79 -73 -119t-184 -40q-124 0 -170.5 40t-33.5 119l34 211q75 8 195 8zM196 331l-28 -176
q-9 -60 24 -87t127 -27t136.5 27t51.5 87l27 176h-338z" />
    <glyph glyph-name="florin" unicode="&#x192;" horiz-adv-x="357" 
d="M96 -76l85 536h-55q-2 8 0 21l7 21h55l10 67q22 135 159 135q40 0 75 -10l1 -20l-8 -21q-22 9 -58 9q-52 0 -76.5 -22.5t-32.5 -70.5l-10 -67h154l1 -21l-8 -21h-154l-85 -536q-10 -64 -43.5 -96t-98.5 -32q-38 0 -70 10l-1 20l7 21q23 -9 54 -9q44 0 65 21t27 65z" />
    <glyph glyph-name="uni01DD" unicode="&#x1dd;" 
d="M523 351l-32 -202q-12 -76 -64 -114.5t-155 -38.5q-105 0 -143 38.5t-25 114.5l19 120q63 7 164 7h164l12 75q9 58 -19 84.5t-107 26.5q-49 0 -93 -9.5t-64 -18t-20 -10.5l-1 2q0 1 -0.5 2.5t-1 4t-0.5 6t1 7.5l8 22q61 36 177 36q108 0 150 -38.5t30 -114.5zM444 234
h-270l-13 -85q-9 -57 17 -84t100 -27q75 0 109.5 26.5t43.5 84.5z" />
    <glyph glyph-name="AEacute" unicode="&#x1fc;" horiz-adv-x="731" 
d="M427 337l-46 -292h310q2 -9 0 -23l-7 -22h-177q-52 0 -101 1.5t-72 2.5l-22 2l31 193h-158l-96 -197q-17 -4 -33 -4l-29 4l338 693q102 5 252 5h172l1 -23l-8 -22h-305l-43 -273h271l1 -22l-8 -23h-271zM404 655l-200 -411h146l65 411h-11zM668 875l-144 -123
q-13 -4 -23 -4l-21 4l128 123q14 4 30 4z" />
    <glyph glyph-name="aeacute" unicode="&#x1fd;" horiz-adv-x="826" 
d="M211 -4q-71 0 -97.5 32.5t-16.5 97.5l3 17q9 60 55.5 92.5t142.5 42.5l145 15l10 62q9 55 -16 81t-96 26q-68 0 -100.5 -26t-40.5 -80l-3 -13q-14 -4 -29 -4l-28 4l2 13q12 74 59 111t147 37q127 0 147 -76q43 76 169 76q100 0 136 -38.5t24 -114.5l-18 -112
q-61 -8 -157 -8h-156l-13 -82q-9 -58 17 -84.5t102 -26.5q46 0 88.5 9t61.5 19l19 9l1 -22l-9 -21q-6 -4 -18.5 -10t-56.5 -16t-93 -10q-138 0 -155 82q-54 -82 -226 -82zM436 251l-136 -14q-70 -8 -102 -30.5t-38 -63.5l-3 -17q-7 -45 10.5 -66.5t69.5 -21.5q89 0 131.5 27
t51.5 84zM499 274h254l13 77q9 57 -15 84t-94 27t-103 -27t-42 -84zM644 697l-144 -122q-12 -4 -23 -4l-21 4l128 122q15 5 31 5z" />
    <glyph glyph-name="Oslashacute" unicode="&#x1fe;" horiz-adv-x="612" 
d="M672 697l-53 -65q19 -36 12 -87l-62 -390q-25 -159 -264 -159q-123 0 -175 40l-28 -34q-15 -4 -27 -4l-26 4l53 65q-19 35 -10 88l61 390q25 159 264 159q123 0 175 -40l27 33q13 5 28 5zM571 545q2 21 1 31l-407 -497q33 -40 147 -40q96 0 142 28t55 88zM213 545
l-15 -97l-30 -196l-16 -97q-3 -18 -2 -31l406 496q-35 40 -146 40q-96 0 -141.5 -28t-55.5 -87zM551 875l-143 -123q-13 -4 -24 -4l-21 4l128 123q14 4 30 4z" />
    <glyph glyph-name="oslashacute" unicode="&#x1ff;" horiz-adv-x="532" 
d="M535 497l-35 -42q31 -37 20 -104l-32 -202q-25 -153 -223 -153q-91 0 -134 29l-20 -23q-13 -4 -23 -4l-22 4l40 47q-26 36 -15 100l32 202q24 153 222 153q82 0 128 -27l17 20q11 5 24 5zM465 351q6 36 -3 61l-298 -348q28 -28 107 -28q78 0 115.5 27t46.5 86zM178 351
l-8 -51l-16 -100l-8 -51q-6 -31 0 -54l295 345q-30 24 -102 24q-78 0 -115.5 -27.5t-45.5 -85.5zM483 697l-144 -122q-12 -4 -23 -4l-21 4l128 122q15 5 31 5z" />
    <glyph glyph-name="Scommaaccent" unicode="&#x218;" horiz-adv-x="558" 
d="M220 545l-8 -51q-5 -31 12.5 -53.5t48.5 -35t69.5 -23.5t77 -23.5t69 -30t46.5 -48.5t9 -74l-7 -51q-13 -80 -71.5 -119.5t-177.5 -39.5q-121 0 -165.5 39.5t-31.5 119.5l2 14q16 4 32 4l29 -4l-2 -14q-9 -60 23 -87t120 -27t129 27.5t50 86.5l8 51q5 34 -12 57.5t-48 37
t-69.5 24.5t-77 23.5t-69 29t-46.5 46t-10 70.5l8 51q12 79 69.5 119t173.5 40q117 0 159 -39.5t29 -119.5l-2 -14q-16 -4 -31 -4l-30 4l2 14q9 59 -20.5 86.5t-113.5 27.5q-85 0 -125 -27.5t-49 -86.5zM300 -49q-7 -46 -27.5 -83t-37.5 -52l-16 -14q-8 -4 -16 -4l-16 4
q6 6 15.5 17t28.5 49.5t26 82.5q11 4 23 4z" />
    <glyph glyph-name="scommaaccent" unicode="&#x219;" horiz-adv-x="493" 
d="M192 367l-3 -20q-5 -30 23.5 -45t87.5 -27q39 -8 64 -15t54.5 -21t42 -36t7.5 -51l-3 -20q-20 -137 -210 -137q-102 0 -139 37t-24 111v6q15 4 31 4l28 -4l-1 -6q-9 -54 16 -80t96 -26q70 0 102.5 23t40.5 72l3 20q5 33 -26 50t-90 28q-30 6 -49 10.5t-45 14.5
t-40.5 21.5t-23.5 29.5t-5 41l3 20q11 68 59 102.5t146 34.5q97 0 132 -37t23 -111l-1 -6q-15 -4 -30 -4l-28 4l1 6q8 55 -15.5 80.5t-88.5 25.5q-67 0 -98.5 -23t-39.5 -72zM272 -49q-7 -46 -27.5 -83t-37.5 -52l-16 -14q-8 -4 -16 -4l-16 4q6 6 15.5 17t29 49.5t26.5 82.5
q10 4 22 4z" />
    <glyph glyph-name="uni021A" unicode="&#x21a;" horiz-adv-x="553" 
d="M615 655h-203l-103 -653q-16 -4 -32 -4l-30 4l103 653h-207q-2 9 0 22l7 23h472l1 -23zM292 -49q-7 -46 -27 -83t-37 -52l-16 -14q-9 -4 -17 -4l-16 4q6 6 16 17t29 49.5t26 82.5q11 4 22 4z" />
    <glyph glyph-name="uni021B" unicode="&#x21b;" horiz-adv-x="382" 
d="M385 457h-151l-52 -326q-8 -48 9.5 -70.5t69.5 -22.5q31 0 59 10q2 -9 0 -20l-7 -20q-42 -12 -76 -12q-73 0 -99.5 34t-15.5 101l52 326h-55l-1 22l7 21h58l20 97q13 5 27 5l25 -5l-15 -97h152q2 -9 0 -21zM224 -49q-7 -46 -27 -83t-37 -52l-16 -14q-9 -4 -17 -4l-16 4
q6 6 16 17t29 49.5t26 82.5q11 4 22 4z" />
    <glyph glyph-name="dotlessj" unicode="&#x237;" horiz-adv-x="211" 
d="M70 -76l90 573q16 5 31 5l29 -5l-90 -573q-20 -128 -141 -128q-37 0 -72 10l-1 20l8 21q22 -9 55 -9q43 0 63.5 21t27.5 65z" />
    <glyph glyph-name="circumflex" unicode="&#x2c6;" horiz-adv-x="197" 
d="M278 582l-74 88l-101 -88q-12 -4 -23 -4l-22 4l122 115q14 5 29 5l28 -5l85 -115q-10 -4 -22 -4z" />
    <glyph glyph-name="caron" unicode="&#x2c7;" horiz-adv-x="197" 
d="M121 697l73 -87l102 87q13 5 23 5l22 -5l-122 -115q-13 -4 -29 -4l-29 4l-84 115q10 5 23 5z" />
    <glyph glyph-name="breve" unicode="&#x2d8;" horiz-adv-x="411" 
d="M305 589q-68 0 -92 24t-17 74l2 10q11 4 23 4l21 -4l-2 -10q-5 -34 10 -49t60 -15q44 0 64.5 15t25.5 49l2 10q11 4 23 4l21 -4l-2 -10q-8 -50 -39.5 -74t-99.5 -24z" />
    <glyph glyph-name="dotaccent" unicode="&#x2d9;" horiz-adv-x="197" 
d="M239 697l-16 -100q-16 -4 -31 -4l-29 4l16 100q15 5 31 5z" />
    <glyph glyph-name="ring" unicode="&#x2da;" horiz-adv-x="310" 
d="M178 619l2 17q12 67 91 67q41 0 57.5 -18t11.5 -49l-2 -17q-11 -67 -91 -67q-41 0 -57.5 17.5t-11.5 49.5zM212 636l-3 -17q-4 -20 6 -29.5t36 -9.5q49 0 55 39l3 17q3 20 -7 29.5t-36 9.5q-49 0 -54 -39z" />
    <glyph glyph-name="ogonek" unicode="&#x2db;" horiz-adv-x="152" 
d="M2 -85q3 21 19.5 43t31.5 34l14 11h32q-53 -44 -59 -85q-8 -44 42 -44q15 0 30.5 4t22.5 8l8 5l1 -16l-6 -14q-24 -19 -68 -19q-81 0 -68 73z" />
    <glyph glyph-name="tilde" unicode="&#x2dc;" horiz-adv-x="396" 
d="M149 615l1 4q7 42 27.5 62t60.5 20q31 0 51 -14.5t35.5 -28.5t35.5 -14q46 0 53 48l1 5q11 4 21 4l18 -4l-1 -5q-6 -42 -26 -62t-62 -20q-25 0 -43 9t-27 19.5t-22.5 19.5t-29.5 9q-26 0 -37.5 -11t-15.5 -36l-1 -5q-10 -5 -20 -5z" />
    <glyph glyph-name="hungarumlaut" unicode="&#x2dd;" horiz-adv-x="197" 
d="M211 697l-144 -122q-13 -4 -23 -4l-21 4l128 122q14 5 30 5zM376 697l-144 -122q-12 -4 -23 -4l-21 4l128 122q15 5 31 5z" />
    <glyph glyph-name="uni0400" unicode="&#x400;" horiz-adv-x="524" 
d="M184 337l-46 -292h347q3 -9 0 -23l-7 -22h-214q-52 0 -101 1.5t-71 2.5l-23 2l109 687q78 7 196 7h209q0 -1 0.5 -3t1.5 -8t-1 -12l-8 -22h-342l-43 -273h309l1 -22l-8 -23h-309zM416 752l-105 123q15 4 31 4l29 -4l90 -123q-11 -4 -23 -4z" />
    <glyph glyph-name="afii10023" unicode="&#x401;" horiz-adv-x="524" 
d="M184 337l-46 -292h347q3 -9 0 -23l-7 -22h-214q-52 0 -101 1.5t-71 2.5l-23 2l109 687q78 7 196 7h209q0 -1 0.5 -3t1.5 -8t-1 -12l-8 -22h-342l-43 -273h309l1 -22l-8 -23h-309zM334 849l-15 -96q-12 -5 -26 -5l-24 5l15 96q11 4 26 4zM544 849l-15 -96q-12 -5 -26 -5
l-24 5l15 96q11 4 26 4z" />
    <glyph glyph-name="afii10051" unicode="&#x402;" horiz-adv-x="716" 
d="M607 124l26 163q9 58 -11.5 84.5t-81.5 26.5q-54 0 -98 -14t-61.5 -26t-17.5 -15l-54 -341q-16 -4 -32 -4l-30 4l103 653h-207q-2 9 0 22l7 23h472l1 -23l-8 -22h-203l-41 -263q8 6 23.5 14.5t66 22.5t104.5 14q83 0 112.5 -39.5t17.5 -116.5l-25 -163
q-20 -128 -144 -128q-38 0 -73 10q-2 9 0 20l7 21q23 -9 55 -9q43 0 64 20.5t28 65.5z" />
    <glyph glyph-name="afii10052" unicode="&#x403;" horiz-adv-x="477" 
d="M501 875l-144 -123q-13 -4 -23 -4l-21 4l128 123q14 4 30 4zM234 655l-103 -653q-16 -4 -32 -4l-30 4l109 691q78 7 196 7h174q0 -1 0.5 -3t1.5 -8t-1 -12l-8 -22h-307z" />
    <glyph glyph-name="afii10053" unicode="&#x404;" horiz-adv-x="588" 
d="M105 155l61 390q12 79 73.5 119t184.5 40t169 -40t33 -119l-2 -14q-15 -4 -30 -4l-28 4l2 14q10 59 -23.5 86.5t-127.5 27.5t-136.5 -27.5t-51.5 -86.5l-27 -165h317l1 -23l-8 -22h-317l-28 -180q-9 -60 25.5 -87t131.5 -27q60 0 114 11t79 22l24 11q0 -1 0.5 -2.5
t1.5 -7.5t-1 -13l-8 -23q-8 -5 -24.5 -12t-73 -19t-119.5 -12q-126 0 -175.5 40t-36.5 119z" />
    <glyph glyph-name="afii10054" unicode="&#x405;" horiz-adv-x="566" 
d="M220 545l-8 -51q-5 -31 12.5 -53.5t48.5 -35t69.5 -23.5t77 -23.5t69 -30t46.5 -48.5t9 -74l-7 -51q-13 -80 -71.5 -119.5t-177.5 -39.5q-121 0 -165.5 39.5t-31.5 119.5l2 14q16 4 32 4l29 -4l-2 -14q-9 -60 23 -87t120 -27t129 27.5t50 86.5l8 51q5 34 -12 57.5t-48 37
t-69.5 24.5t-77 23.5t-69 29t-46.5 46t-10 70.5l8 51q12 79 69.5 119t173.5 40q117 0 159 -39.5t29 -119.5l-2 -14q-16 -4 -31 -4l-30 4l2 14q9 59 -20.5 86.5t-113.5 27.5q-85 0 -125 -27.5t-49 -86.5z" />
    <glyph glyph-name="afii10055" unicode="&#x406;" horiz-adv-x="305" 
d="M49 45h79l96 610h-79q-2 9 0 22l7 23h221l1 -23l-8 -22h-79l-96 -610h79q2 -9 0 -23l-7 -22h-221l-1 22z" />
    <glyph glyph-name="afii10056" unicode="&#x407;" horiz-adv-x="305" 
d="M224 849l-15 -97q-13 -4 -26 -4l-24 4l15 97q11 4 25 4zM399 849l-15 -97q-13 -4 -26 -4l-24 4l15 97q11 4 25 4zM49 45h79l96 610h-79q-2 9 0 22l7 23h221l1 -23l-8 -22h-79l-96 -610h79q2 -9 0 -23l-7 -22h-221l-1 22z" />
    <glyph glyph-name="afii10057" unicode="&#x408;" horiz-adv-x="485" 
d="M526 697l-86 -542q-12 -79 -64 -119t-155 -40q-48 0 -86 11t-52 21l-14 11l-1 23l8 23q6 -5 17 -12.5t50 -19.5t84 -12q74 0 108 27t43 87l86 542q15 5 32 5z" />
    <glyph glyph-name="afii10058" unicode="&#x409;" horiz-adv-x="984" 
d="M500 4l102 651h-236l-147 -503q-25 -81 -63 -118.5t-118 -37.5q-2 9 0 22l7 23q50 0 72.5 24.5t41.5 86.5l159 542q71 8 177 8q48 0 92 -2t65 -4l20 -2l-48 -298q62 3 149 3q115 0 160.5 -42t33.5 -124l-11 -71q-27 -166 -246 -166q-55 0 -107.5 2t-77.5 4zM617 355
l-49 -314h148q85 0 126 29.5t51 91.5l11 71q11 63 -21 92.5t-117 29.5h-149z" />
    <glyph glyph-name="afii10059" unicode="&#x40a;" horiz-adv-x="968" 
d="M482 4l53 332h-351l-53 -334q-16 -4 -32 -4l-30 4l110 695q15 5 32 5l30 -5l-50 -316h351l50 316q16 5 32 5l31 -5l-48 -301q62 3 149 3q115 0 160.5 -42t33.5 -124l-12 -71q-25 -166 -246 -166q-55 0 -107.5 2t-77.5 4zM600 355l-50 -314h149q85 0 126 29.5t51 91.5
l11 71q10 63 -21.5 92.5t-116.5 29.5h-149z" />
    <glyph glyph-name="afii10060" unicode="&#x40b;" horiz-adv-x="716" 
d="M615 655h-203l-41 -263q8 6 23.5 14.5t66 22.5t104.5 14q83 0 112.5 -39.5t17.5 -116.5l-45 -285q-16 -4 -32 -4l-30 4l45 285q9 58 -11.5 84.5t-81.5 26.5q-54 0 -98 -14t-61.5 -26t-17.5 -15l-54 -341q-16 -4 -32 -4l-30 4l103 653h-207q-2 9 0 22l7 23h472l1 -23z" />
    <glyph glyph-name="afii10061" unicode="&#x40c;" horiz-adv-x="523" 
d="M430 2l-162 338l-87 -24l-50 -314q-17 -4 -32 -4l-30 4l110 695q15 5 32 5l30 -5l-53 -334l88 24l255 310q18 5 36 5l32 -5l-273 -334l172 -361q-17 -4 -35 -4zM506 875l-144 -123q-12 -4 -23 -4l-21 4l128 123q14 4 30 4z" />
    <glyph glyph-name="uni040D" unicode="&#x40d;" horiz-adv-x="620" 
d="M446 752l-105 123q15 4 30 4l30 -4l90 -123q-11 -4 -24 -4zM660 697l-110 -695q-17 -4 -33 -4l-30 4l92 584l-455 -584q-15 -4 -29 -4l-26 4l110 695q15 5 32 5l30 -5l-92 -583l456 583q14 5 28 5z" />
    <glyph glyph-name="afii10062" unicode="&#x40e;" horiz-adv-x="569" 
d="M409 748q-68 0 -92 24.5t-16 74.5l2 9q11 5 22 5l22 -5l-2 -10q-5 -34 10 -49t60 -15q44 0 64.5 15t25.5 49l2 10q10 5 22 5l22 -5l-2 -9q-8 -50 -40 -74.5t-100 -24.5zM260 123l43 78l-21 3l-135 493q17 5 32 5l30 -5l122 -442l259 442q17 5 33 5l30 -5l-335 -573
q-37 -66 -79 -97t-104 -31q-14 0 -27 1.5t-18 2.5l-6 2l-2 22l8 22q19 -5 53 -5q74 0 117 82z" />
    <glyph glyph-name="afii10145" unicode="&#x40f;" horiz-adv-x="611" 
d="M258 -143l22 141q-57 0 -109.5 2t-76.5 4l-25 2l110 691q15 5 32 5l30 -5l-103 -652h349l103 652q17 5 32 5l31 -5l-110 -691q-83 -6 -211 -8l-22 -141q-13 -4 -26 -4z" />
    <glyph glyph-name="afii10017" unicode="&#x410;" horiz-adv-x="596" 
d="M27 2l339 695q20 5 43 5l41 -5l119 -695q-17 -4 -31 -4l-31 4l-34 197h-288l-96 -197q-17 -4 -33 -4zM400 646l-196 -402h265z" />
    <glyph glyph-name="afii10018" unicode="&#x411;" horiz-adv-x="565" 
d="M234 655l-40 -256q65 4 155 4q117 0 163.5 -42t34.5 -124l-12 -75q-27 -165 -250 -165q-56 0 -110 1.5t-80 3.5l-26 2l109 689q78 7 196 7h212l1 -23l-8 -22h-345zM187 359l-50 -318h155q87 0 128.5 29.5t51.5 91.5l12 75q11 63 -22 92.5t-120 29.5h-155z" />
    <glyph glyph-name="afii10019" unicode="&#x412;" horiz-adv-x="570" 
d="M69 4l109 692q92 7 219 7q112 0 157 -41.5t32 -121.5l-6 -40q-19 -112 -132 -140q119 -28 100 -145l-8 -52q-27 -167 -255 -167q-56 0 -110 2t-80 4zM184 337l-47 -296h155q90 0 133 29.5t53 92.5l8 52q9 63 -24 92.5t-123 29.5h-155zM235 659l-44 -278h155q82 0 122 29
t49 90l6 40q10 61 -20 90t-113 29h-155z" />
    <glyph glyph-name="afii10020" unicode="&#x413;" horiz-adv-x="477" 
d="M234 655l-103 -653q-16 -4 -32 -4l-30 4l109 691q78 7 196 7h174q0 -1 0.5 -3t1.5 -8t-1 -12l-8 -22h-307z" />
    <glyph glyph-name="afii10021" unicode="&#x414;" horiz-adv-x="681" 
d="M12 -143l29 184q53 0 77 25t42 86l159 542q71 8 178 8q47 0 91 -2t64 -4l21 -2l-102 -649l81 -4l-29 -184q-13 -4 -27 -4l-25 4l23 143h-507l-23 -143q-13 -4 -26 -4zM160 45h348l96 610h-238l-147 -503q-23 -79 -59 -107z" />
    <glyph glyph-name="afii10022" unicode="&#x415;" horiz-adv-x="524" 
d="M184 337l-46 -292h347q3 -9 0 -23l-7 -22h-214q-52 0 -101 1.5t-71 2.5l-23 2l109 687q78 7 196 7h209q0 -1 0.5 -3t1.5 -8t-1 -12l-8 -22h-342l-43 -273h309l1 -22l-8 -23h-309z" />
    <glyph glyph-name="afii10024" unicode="&#x416;" horiz-adv-x="774" 
d="M330 342l-237 -340q-19 -4 -35 -4l-33 4l254 364l-131 331q17 5 34 5l34 -5l121 -308l77 -24l52 332q16 5 32 5l30 -5l-52 -332l83 24l220 308q17 5 35 5l32 -5l-236 -331l139 -364q-17 -4 -35 -4l-33 4l-130 340l-83 -24l-50 -316q-15 -4 -32 -4l-30 4l49 316z" />
    <glyph glyph-name="afii10025" unicode="&#x417;" horiz-adv-x="552" 
d="M384 704q110 0 153.5 -42t30.5 -122l-7 -40q-17 -112 -131 -140q119 -28 100 -145l-8 -52q-27 -167 -255 -167q-62 0 -111 11t-68 21l-18 11l-1 23l8 23q7 -5 22 -12.5t65.5 -19.5t108.5 -12q90 0 133.5 29.5t53.5 92.5l7 52q10 62 -23.5 91.5t-122.5 29.5h-87q-2 9 0 23
l7 22h87q82 0 121.5 29t49.5 90l6 40q10 61 -19 90t-109 29q-91 0 -132 -26.5t-50 -83.5l-2 -14q-15 -5 -30 -5l-28 5l2 14q13 77 70.5 116t176.5 39z" />
    <glyph glyph-name="afii10026" unicode="&#x418;" horiz-adv-x="618" 
d="M660 697l-110 -695q-17 -4 -33 -4l-30 4l92 584l-455 -584q-15 -4 -29 -4l-26 4l110 695q15 5 32 5l30 -5l-92 -583l456 583q14 5 28 5z" />
    <glyph glyph-name="afii10027" unicode="&#x419;" horiz-adv-x="618" 
d="M427 748q-68 0 -92 24.5t-16 74.5l2 9q10 5 22 5l21 -5l-2 -10q-5 -34 10.5 -49t59.5 -15t64.5 15t25.5 49l2 10q11 5 22 5l22 -5l-2 -9q-8 -50 -39.5 -74.5t-99.5 -24.5zM660 697l-110 -695q-17 -4 -33 -4l-30 4l92 584l-455 -584q-15 -4 -29 -4l-26 4l110 695
q15 5 32 5l30 -5l-92 -583l456 583q14 5 28 5z" />
    <glyph glyph-name="afii10028" unicode="&#x41a;" horiz-adv-x="523" 
d="M430 2l-162 338l-87 -24l-50 -314q-17 -4 -32 -4l-30 4l110 695q15 5 32 5l30 -5l-53 -334l88 24l255 310q18 5 36 5l32 -5l-273 -334l172 -361q-17 -4 -35 -4z" />
    <glyph glyph-name="afii10029" unicode="&#x41b;" horiz-adv-x="629" 
d="M159 152l159 542q71 8 177 8q48 0 92 -2t65 -4l20 -2l-110 -692q-16 -4 -32 -4l-31 4l103 653h-236l-147 -503q-25 -81 -63 -118.5t-118 -37.5q-2 9 0 22l7 23q50 0 72.5 24.5t41.5 86.5z" />
    <glyph glyph-name="afii10030" unicode="&#x41c;" horiz-adv-x="763" 
d="M797 698l-110 -695q-16 -5 -31 -5l-29 5l94 597l-297 -480q-13 -4 -29 -4l-30 4l-142 479l-94 -597q-16 -5 -31 -5l-29 5l110 695q18 4 39 4l39 -4l149 -502l312 503q19 4 40 4z" />
    <glyph glyph-name="afii10031" unicode="&#x41d;" horiz-adv-x="613" 
d="M655 697l-110 -695q-17 -4 -33 -4l-30 4l53 334h-351l-53 -334q-16 -4 -32 -4l-30 4l110 695q15 5 32 5l30 -5l-50 -316h351l50 316q16 5 32 5z" />
    <glyph glyph-name="afii10032" unicode="&#x41e;" horiz-adv-x="612" 
d="M105 155l61 390q25 159 264 159q125 0 175.5 -40.5t38.5 -118.5l-62 -390q-25 -159 -264 -159q-125 0 -175.5 40.5t-37.5 118.5zM229 545l-16 -97l-30 -196l-16 -97q-9 -59 27 -86.5t131 -27.5t140 27.5t55 86.5l61 390q9 59 -27 86.5t-131 27.5t-140 -27.5t-54 -86.5z
" />
    <glyph glyph-name="afii10033" unicode="&#x41f;" horiz-adv-x="611" 
d="M99 -2l-30 4l109 692q95 8 238 8q63 0 122 -2t86 -4l28 -2l-109 -692q-16 -4 -33 -4l-30 4l103 653h-349l-103 -653q-16 -4 -32 -4z" />
    <glyph glyph-name="afii10034" unicode="&#x420;" horiz-adv-x="565" 
d="M178 696q84 7 210 7q117 0 164 -40t35 -118l-12 -74q-25 -158 -248 -158l-147 4l-49 -315q-17 -4 -32 -4l-30 4zM235 659l-48 -302h147q87 0 128.5 28t49.5 86l12 74q10 58 -23 86t-120 28h-146z" />
    <glyph glyph-name="afii10035" unicode="&#x421;" horiz-adv-x="588" 
d="M105 155l61 390q12 79 73.5 119t184.5 40t169 -40t33 -119l-2 -14q-15 -4 -30 -4l-28 4l2 14q10 59 -23.5 86.5t-127.5 27.5t-136.5 -27.5t-51.5 -86.5l-62 -390q-9 -60 25.5 -87t131.5 -27q60 0 114 11t79 22l24 11q0 -1 0.5 -2.5t1.5 -7.5t-1 -13l-8 -23
q-8 -5 -24.5 -12t-73 -19t-119.5 -12q-126 0 -175.5 40t-36.5 119z" />
    <glyph glyph-name="afii10036" unicode="&#x422;" horiz-adv-x="553" 
d="M615 655h-203l-103 -653q-16 -4 -32 -4l-30 4l103 653h-207q-2 9 0 22l7 23h472l1 -23z" />
    <glyph glyph-name="afii10037" unicode="&#x423;" horiz-adv-x="569" 
d="M260 123l43 78l-21 3l-135 493q17 5 32 5l30 -5l122 -442l259 442q17 5 33 5l30 -5l-335 -573q-37 -66 -79 -97t-104 -31q-14 0 -27 1.5t-18 2.5l-6 2l-2 22l8 22q19 -5 53 -5q74 0 117 82z" />
    <glyph glyph-name="afii10038" unicode="&#x424;" horiz-adv-x="692" 
d="M323 2l11 71q-135 0 -190.5 40.5t-43.5 118.5l38 235q25 160 284 160l11 70q16 5 32 5l31 -5l-12 -70q135 0 190.5 -41t43.5 -119l-38 -235q-25 -159 -283 -159l-11 -71q-17 -4 -33 -4zM618 232l38 235q8 59 -32.5 87t-146.5 28l-73 -464q105 0 155 27.5t59 86.5z
M201 467l-38 -235q-9 -59 31.5 -86.5t146.5 -27.5l74 464q-106 0 -156 -28t-58 -87z" />
    <glyph glyph-name="afii10039" unicode="&#x425;" horiz-adv-x="562" 
d="M470 2l-139 313l-238 -313q-20 -4 -36 -4l-33 4l271 352l-155 343q18 5 35 5l34 -5l134 -304l230 304q19 5 36 5l33 -5l-264 -343l160 -352q-19 -4 -36 -4z" />
    <glyph glyph-name="afii10040" unicode="&#x426;" horiz-adv-x="660" 
d="M550 -143l23 143h-308q-52 0 -101 1.5t-72 2.5l-23 2l110 691q15 5 32 5l30 -5l-103 -652h349l103 652q17 5 32 5l31 -5l-103 -652l81 -4l-29 -184q-13 -4 -27 -4z" />
    <glyph glyph-name="afii10041" unicode="&#x427;" horiz-adv-x="587" 
d="M468 2l51 325q-9 -6 -26.5 -14.5t-75 -23t-119.5 -14.5q-94 0 -128.5 39t-22.5 116l42 266q16 5 32 5l30 -5l-42 -266q-9 -57 15.5 -83.5t95.5 -26.5q63 0 115.5 14.5t69.5 24.5t22 15l51 322q16 5 32 5l30 -5l-110 -694q-15 -4 -32 -4z" />
    <glyph glyph-name="afii10042" unicode="&#x428;" horiz-adv-x="870" 
d="M881 702l31 -5l-110 -691q-78 -6 -195 -6h-342q-52 0 -101 1.5t-72 2.5l-23 2l110 691q15 5 32 5l30 -5l-103 -652h273l103 652q16 5 32 5l30 -5l-103 -652h273l103 652q17 5 32 5z" />
    <glyph glyph-name="afii10043" unicode="&#x429;" horiz-adv-x="919" 
d="M809 -143l23 143h-567q-52 0 -101 2t-72 4l-23 1l110 690q15 5 32 5l30 -5l-103 -652h273l103 652q16 5 32 5l30 -5l-103 -652h273l103 652q17 5 32 5l31 -5l-103 -652l81 -4l-29 -184q-13 -4 -27 -4z" />
    <glyph glyph-name="afii10044" unicode="&#x42a;" horiz-adv-x="707" 
d="M213 4l103 651h-180q-2 9 0 22l7 23h48q52 0 100.5 -2t70.5 -4l23 -1l-47 -297q65 3 155 3q117 0 163.5 -42t34.5 -124l-12 -71q-25 -166 -249 -166q-57 0 -111 2t-80 4zM331 355l-50 -314h155q87 0 129 29.5t52 91.5l11 71q10 63 -22.5 92.5t-119.5 29.5h-155z" />
    <glyph glyph-name="afii10045" unicode="&#x42b;" horiz-adv-x="742" 
d="M69 4l110 693q15 5 32 5l30 -5l-48 -301q65 3 156 3q117 0 163.5 -42t33.5 -124l-11 -71q-27 -166 -250 -166q-56 0 -110 2t-80 4zM187 355l-50 -314h155q87 0 128.5 29.5t51.5 91.5l12 71q10 63 -22.5 92.5t-119.5 29.5h-155zM784 697l-110 -695q-17 -4 -33 -4l-30 4
l110 695q16 5 32 5z" />
    <glyph glyph-name="afii10046" unicode="&#x42c;" horiz-adv-x="565" 
d="M69 4l110 693q15 5 32 5l30 -5l-48 -301q65 3 156 3q117 0 163.5 -42t33.5 -124l-11 -71q-27 -166 -250 -166q-56 0 -110 2t-80 4zM187 355l-50 -314h155q87 0 128.5 29.5t51.5 91.5l12 71q10 63 -22.5 92.5t-119.5 29.5h-155z" />
    <glyph glyph-name="afii10047" unicode="&#x42d;" horiz-adv-x="588" 
d="M607 545l-62 -390q-12 -79 -74.5 -119t-188.5 -40q-64 0 -114.5 11t-69.5 21l-19 11l-1 23l8 23q8 -5 23 -12.5t67.5 -19.5t112.5 -12q97 0 140.5 27t53.5 87l28 180h-255q-3 9 0 22l7 23h255l26 165q9 59 -24 86.5t-127 27.5q-95 0 -137.5 -27.5t-51.5 -86.5l-2 -14
q-14 -4 -30 -4l-27 4l2 14q13 79 71.5 119t181.5 40t171 -40t36 -119z" />
    <glyph glyph-name="afii10048" unicode="&#x42e;" horiz-adv-x="795" 
d="M308 155l29 181h-153l-53 -334q-16 -4 -32 -4l-30 4l110 695q15 5 32 5l30 -5l-50 -316h153l26 164q24 159 246 159q116 0 162 -40.5t34 -118.5l-61 -390q-27 -159 -247 -159q-116 0 -162 40.5t-34 118.5zM432 545l-61 -390q-10 -59 22 -86.5t118 -27.5t127 27.5t50 86.5
l62 390q9 59 -23 86.5t-118 27.5q-85 0 -126.5 -28t-50.5 -86z" />
    <glyph glyph-name="afii10049" unicode="&#x42f;" horiz-adv-x="567" 
d="M608 696l-109 -694q-16 -4 -33 -4l-30 4l50 312q-66 -4 -157 -4l-221 -308q-19 -4 -35 -4l-32 4l228 311q-163 20 -139 163l10 61q25 166 250 166q57 0 111.5 -1.5t80.5 -3.5zM492 355l48 304h-157q-87 0 -129 -29.5t-52 -92.5l-10 -61q-10 -62 22.5 -91.5t119.5 -29.5
h158z" />
    <glyph glyph-name="afii10065" unicode="&#x430;" horiz-adv-x="516" 
d="M399 2l7 44q-8 -6 -22.5 -14t-62.5 -22t-100 -14q-76 0 -103 38.5t-15 114.5l32 202q12 76 56.5 114.5t131.5 38.5q38 0 66.5 -5.5t43 -14t24 -16.5t11.5 -14l2 -5l7 48q15 5 31 5l29 -5l-78 -495q-15 -4 -31 -4zM195 351l-32 -202q-9 -58 9 -84.5t73 -26.5
q32 0 61.5 5.5t48 13t32.5 15.5t20 14l6 5l41 260q9 57 -19.5 84t-106.5 27q-64 0 -94 -27t-39 -84z" />
    <glyph glyph-name="afii10066" unicode="&#x431;" horiz-adv-x="528" 
d="M210 453q8 6 23 14.5t65 22.5t104 14q79 0 108.5 -38.5t17.5 -114.5l-32 -202q-25 -153 -222 -153q-102 0 -142.5 39t-28.5 114l61 389q12 76 64 114.5t157 38.5q45 0 85.5 5t59.5 10l18 5q2 -8 0 -21l-7 -22q-65 -20 -161 -20q-76 0 -111.5 -26.5t-44.5 -83.5zM204 407
l-41 -258q-9 -57 17.5 -84t100.5 -27q75 0 111 27t44 84l33 202q9 58 -11 84.5t-79 26.5q-54 0 -97.5 -14t-60.5 -28z" />
    <glyph glyph-name="afii10067" unicode="&#x432;" horiz-adv-x="495" 
d="M69 4l77 492q77 8 186 8q89 0 124 -32.5t26 -95.5l-3 -15q-12 -78 -85 -105q84 -23 70 -113l-3 -14q-21 -133 -209 -133q-45 0 -91 2t-69 4zM289 234h-124l-31 -195h124q69 0 102.5 22.5t40.5 67.5l3 14q7 45 -19.5 68t-95.5 23zM172 276h124q59 0 87.5 21t35.5 64l3 15
q6 43 -16 64t-81 21h-124z" />
    <glyph glyph-name="afii10068" unicode="&#x433;" horiz-adv-x="403" 
d="M201 457l-72 -455q-16 -4 -31 -4l-29 4l77 491q79 7 197 7h101q2 -9 0 -21l-7 -22h-236z" />
    <glyph glyph-name="afii10069" unicode="&#x434;" horiz-adv-x="580" 
d="M16 -123l25 161q50 4 73 29.5t41 86.5l96 340q60 8 151 8q40 0 77.5 -2t54.5 -4l18 -2l-71 -452l70 -3l-26 -162q-13 -4 -27 -4l-25 4l20 123h-405l-20 -123q-13 -4 -26 -4zM296 457l-86 -304q-23 -81 -57 -111h268l65 415h-190z" />
    <glyph glyph-name="afii10070" unicode="&#x435;" 
d="M103 149l32 202q12 76 63.5 114.5t155.5 38.5t142.5 -38.5t25.5 -114.5l-18 -112q-64 -8 -165 -8h-164l-12 -82q-9 -58 18.5 -84.5t107.5 -26.5q48 0 92.5 9t64.5 19l20 9l1 -22l-8 -21q-61 -36 -177 -36q-108 0 -149.5 38.5t-29.5 114.5zM182 274h270l13 77
q9 58 -17 84.5t-101 26.5q-74 0 -108.5 -27t-43.5 -84z" />
    <glyph glyph-name="afii10072" unicode="&#x436;" horiz-adv-x="656" 
d="M25 2l201 261l-111 234q14 5 31 5l32 -5l101 -212l60 -27l37 239q15 5 31 5l29 -5l-37 -239l68 27l167 212q17 5 34 5l29 -5l-184 -234l118 -261q-15 -4 -32 -4l-32 4l-107 239l-69 -28l-33 -211q-16 -4 -31 -4l-29 4l33 211l-59 28l-183 -239q-18 -4 -34 -4z" />
    <glyph glyph-name="afii10073" unicode="&#x437;" horiz-adv-x="485" 
d="M127 367l2 9q10 64 55.5 96t139.5 32q89 0 124.5 -32.5t25.5 -95.5l-2 -13q-13 -82 -86 -110q80 -23 67 -108l-3 -17q-22 -132 -213 -132q-49 0 -88 9t-54 18l-15 9l-1 21l8 22q6 -4 17.5 -10t52 -16.5t86.5 -10.5q72 0 106 22.5t41 67.5l3 17q6 43 -20 64.5t-94 21.5
h-64l-1 21l7 21h65q60 0 89.5 22t36.5 68l2 13q7 43 -15.5 64.5t-81.5 21.5q-66 0 -96.5 -21t-37.5 -65l-2 -9q-13 -5 -27 -5z" />
    <glyph glyph-name="afii10074" unicode="&#x438;" horiz-adv-x="531" 
d="M540 497l-78 -495q-16 -4 -31 -4l-29 4l64 403l-342 -403q-15 -4 -29 -4l-26 4l78 495q15 5 31 5l29 -5l-64 -402l342 402q14 5 29 5z" />
    <glyph glyph-name="afii10075" unicode="&#x439;" horiz-adv-x="531" 
d="M359 589q-68 0 -92.5 24.5t-16.5 73.5l2 10q11 4 22 4l21 -4l-2 -10q-5 -34 10.5 -49t60.5 -15q44 0 64 15t25 49l2 10q12 4 23 4l21 -4l-2 -10q-7 -50 -38.5 -74t-99.5 -24zM540 497l-78 -495q-16 -4 -31 -4l-29 4l64 403l-342 -403q-15 -4 -29 -4l-26 4l78 495
q15 5 31 5l29 -5l-64 -402l342 402q14 5 29 5z" />
    <glyph glyph-name="afii10076" unicode="&#x43a;" horiz-adv-x="458" 
d="M368 2l-130 242l-74 -19l-35 -223q-16 -4 -31 -4l-29 4l78 495q15 5 31 5l29 -5l-36 -228l74 20l190 208q17 5 34 5l30 -5l-207 -230l141 -265q-16 -4 -33 -4z" />
    <glyph glyph-name="afii10077" unicode="&#x43b;" horiz-adv-x="534" 
d="M149 152l94 342q61 8 152 8q40 0 77.5 -2t55.5 -4l17 -2l-78 -492q-15 -4 -31 -4l-29 4l72 455h-190l-84 -305q-23 -81 -58.5 -118.5t-108.5 -37.5q-2 8 0 21l7 21q45 0 65.5 25.5t38.5 88.5z" />
    <glyph glyph-name="afii10078" unicode="&#x43c;" horiz-adv-x="643" 
d="M652 497l-78 -495q-15 -4 -28 -4l-27 4l66 413l-224 -341q-13 -4 -30 -4l-30 4l-112 341l-65 -413q-15 -4 -29 -4l-26 4l78 495q0 5 37 5l36 -5l120 -367l238 367q18 5 38 5z" />
    <glyph glyph-name="afii10079" unicode="&#x43d;" horiz-adv-x="528" 
d="M538 497l-78 -495q-16 -4 -31 -4l-29 4l37 235h-271l-37 -235q-16 -4 -31 -4l-29 4l78 495q15 5 31 5l29 -5l-35 -217h271l35 217q15 5 31 5z" />
    <glyph glyph-name="afii10080" unicode="&#x43e;" horiz-adv-x="532" 
d="M103 149l32 202q24 153 222 153q104 0 145.5 -39t29.5 -114l-32 -202q-25 -153 -223 -153q-104 0 -145 39t-29 114zM195 351l-8 -51l-16 -100l-8 -51q-9 -57 18.5 -84t102.5 -27t111 27t45 84l32 202q9 57 -18.5 84t-102.5 27t-111.5 -27t-44.5 -84z" />
    <glyph glyph-name="afii10081" unicode="&#x43f;" horiz-adv-x="529" 
d="M98 -2l-29 4l77 492q79 8 197 8q52 0 101 -2t72 -4l22 -2l-78 -492q-15 -4 -31 -4l-29 4l72 455h-271l-72 -455q-16 -4 -31 -4z" />
    <glyph glyph-name="afii10082" unicode="&#x440;" horiz-adv-x="519" 
d="M207 497l-7 -44q8 6 22.5 14.5t63 22.5t100.5 14q76 0 104.5 -38.5t16.5 -114.5l-33 -202q-12 -75 -57.5 -114t-134.5 -39q-36 0 -64.5 5.5t-43 13.5t-24 16t-12.5 13l-2 6l-39 -248q-15 -4 -31 -4l-29 4l110 695q15 5 31 5zM414 149l33 202q9 58 -9.5 84.5t-75.5 26.5
q-52 0 -94 -14t-58 -28l-17 -13l-41 -258q-9 -57 20 -84t108 -27q65 0 95 26.5t39 84.5z" />
    <glyph glyph-name="afii10083" unicode="&#x441;" horiz-adv-x="500" 
d="M103 149l32 202q12 76 62.5 114.5t150.5 38.5t136.5 -38.5t24.5 -114.5l-3 -14q-13 -4 -28 -4l-27 4l3 14q9 58 -16 84.5t-97 26.5q-71 0 -104 -26.5t-42 -84.5l-32 -202q-9 -58 17.5 -84.5t102.5 -26.5q46 0 88.5 9t62.5 19l19 9l1 -22l-9 -21q-58 -36 -169 -36
q-105 0 -145 38.5t-28 114.5z" />
    <glyph glyph-name="afii10084" unicode="&#x442;" horiz-adv-x="472" 
d="M502 457h-164l-72 -455q-16 -4 -31 -4l-29 4l72 455h-168l-1 22l8 21h392q2 -9 0 -21z" />
    <glyph glyph-name="afii10085" unicode="&#x443;" horiz-adv-x="506" 
d="M197 -78l43 77l-18 3l-107 495q16 5 31 5l29 -5l92 -442l231 442q16 5 31 5l29 -5l-306 -573q-34 -66 -72.5 -97t-95.5 -31q-13 0 -24.5 1.5t-16.5 2.5l-5 2l-1 21l7 20q17 -5 46 -5q35 0 59.5 20.5t47.5 63.5z" />
    <glyph glyph-name="afii10086" unicode="&#x444;" horiz-adv-x="667" 
d="M486 697l-31 -193q123 0 173.5 -39t38.5 -114l-32 -202q-25 -153 -261 -153l-30 -194q-16 -4 -31 -4l-29 4l30 194q-123 0 -173 39t-38 114l32 202q24 153 260 153l31 193q15 5 31 5zM448 462l-67 -424q95 0 140 27t54 84l32 202q9 57 -27.5 84t-131.5 27zM321 38l67 424
q-95 0 -140 -27t-53 -84l-32 -202q-9 -57 27 -84t131 -27z" />
    <glyph glyph-name="afii10087" unicode="&#x445;" horiz-adv-x="476" 
d="M388 2l-116 215l-184 -215q-18 -4 -33 -4l-31 4l217 252l-133 243q17 5 32 5l32 -5l111 -206l176 206q18 5 34 5l31 -5l-209 -243l137 -252q-18 -4 -33 -4z" />
    <glyph glyph-name="afii10088" unicode="&#x446;" horiz-adv-x="568" 
d="M460 -123l20 123h-215q-52 0 -101 1.5t-72 2.5l-23 2l78 491q15 5 31 5l29 -5l-72 -455h272l71 455q16 5 31 5l29 -5l-71 -455l71 -3l-25 -162q-13 -4 -27 -4z" />
    <glyph glyph-name="afii10089" unicode="&#x447;" horiz-adv-x="499" 
d="M384 2l38 237q-8 -6 -22 -14.5t-61 -22.5t-97 -14q-75 0 -102.5 36t-15.5 107l26 166q15 5 31 5l29 -5l-26 -166q-9 -51 9.5 -75.5t72.5 -24.5q49 0 89.5 13.5t56.5 27.5l16 13l33 212q16 5 31 5l29 -5l-78 -495q-15 -4 -30 -4z" />
    <glyph glyph-name="afii10090" unicode="&#x448;" horiz-adv-x="760" 
d="M741 502l29 -5l-78 -491q-78 -6 -195 -6h-232q-52 0 -101 1.5t-72 2.5l-23 2l78 491q15 5 31 5l29 -5l-72 -455h222l71 455q15 5 31 5l29 -5l-71 -455h221l72 455q16 5 31 5z" />
    <glyph glyph-name="afii10091" unicode="&#x449;" horiz-adv-x="799" 
d="M692 -123l20 123h-447q-52 0 -101 1.5t-72 2.5l-23 2l78 491q15 5 31 5l29 -5l-72 -455h222l71 455q15 5 31 5l29 -5l-71 -455h221l72 455q16 5 31 5l29 -5l-72 -455l72 -3l-26 -162q-13 -4 -27 -4z" />
    <glyph glyph-name="afii10092" unicode="&#x44a;" horiz-adv-x="591" 
d="M315 493l-32 -201q52 5 124 5q89 0 124 -34t25 -101l-5 -31q-22 -135 -194 -135q-48 0 -93 2t-66 4l-21 2l72 453h-140l-1 22l8 21h42q43 0 82 -2t57 -4zM398 254h-122l-34 -215h122q61 0 90 22.5t37 69.5l5 31q8 47 -14.5 69.5t-83.5 22.5z" />
    <glyph glyph-name="afii10093" unicode="&#x44b;" horiz-adv-x="651" 
d="M207 497l-32 -205q51 5 124 5q89 0 124 -34t25 -101l-5 -31q-22 -135 -194 -135q-49 0 -94 2t-65 4l-21 2l78 493q15 5 31 5zM289 254h-121l-34 -215h121q61 0 90.5 22.5t37.5 69.5l5 31q8 47 -15 69.5t-84 22.5zM660 497l-78 -495q-16 -4 -31 -4l-29 4l78 495q16 5 31 5
z" />
    <glyph glyph-name="afii10094" unicode="&#x44c;" horiz-adv-x="482" 
d="M207 497l-32 -205q51 5 124 5q89 0 124 -34t25 -101l-5 -31q-22 -135 -194 -135q-49 0 -94 2t-65 4l-21 2l78 493q15 5 31 5zM289 254h-121l-34 -215h121q61 0 90.5 22.5t37.5 69.5l5 31q8 47 -15 69.5t-84 22.5z" />
    <glyph glyph-name="afii10095" unicode="&#x44d;" horiz-adv-x="504" 
d="M412 230h-206l-1 21l7 21h207l13 79q9 58 -16.5 84.5t-97.5 26.5t-105.5 -25.5t-42.5 -79.5l-2 -9q-13 -4 -28 -4l-25 4l1 9q12 73 60 110t148 37q102 0 141 -38.5t27 -114.5l-33 -202q-12 -76 -65 -114.5t-158 -38.5q-48 0 -87 9t-54 18l-15 9l-1 21q1 6 3 11.5t4 7.5
l2 3q6 -4 17.5 -10t51.5 -16.5t85 -10.5q77 0 112.5 27t44.5 84z" />
    <glyph glyph-name="afii10096" unicode="&#x44e;" horiz-adv-x="679" 
d="M281 149l13 88h-128l-37 -235q-16 -4 -31 -4l-29 4l78 495q15 5 31 5l29 -5l-35 -217h129l12 71q24 153 202 153q93 0 129.5 -39t24.5 -114l-32 -202q-25 -153 -203 -153t-153 153zM373 351l-32 -202q-9 -57 13.5 -84t86.5 -27t95.5 27t40.5 84l32 202q9 57 -14 84
t-87 27q-63 0 -95 -27t-40 -84z" />
    <glyph glyph-name="afii10097" unicode="&#x44f;" horiz-adv-x="491" 
d="M362 1l32 204h-120l-166 -203q-18 -4 -33 -4l-31 4l174 205q-124 14 -105 131l5 30q20 133 193 133q49 0 96 -2t70 -4l23 -2l-78 -492q-15 -4 -31 -4zM271 248h130l34 210h-130q-61 0 -90.5 -22t-36.5 -68l-5 -30q-7 -46 15 -68t83 -22z" />
    <glyph glyph-name="uni0450" unicode="&#x450;" 
d="M103 149l32 202q12 76 63.5 114.5t155.5 38.5t142.5 -38.5t25.5 -114.5l-18 -112q-64 -8 -165 -8h-164l-12 -82q-9 -58 18.5 -84.5t107.5 -26.5q48 0 92.5 9t64.5 19l20 9l1 -22l-8 -21q-61 -36 -177 -36q-108 0 -149.5 38.5t-29.5 114.5zM182 274h270l13 77
q9 58 -17 84.5t-101 26.5q-74 0 -108.5 -27t-43.5 -84zM382 575l-106 122q16 5 32 5l28 -5l90 -122q-11 -4 -23 -4z" />
    <glyph glyph-name="afii10071" unicode="&#x451;" 
d="M103 149l32 202q12 76 63.5 114.5t155.5 38.5t142.5 -38.5t25.5 -114.5l-18 -112q-64 -8 -165 -8h-164l-12 -82q-9 -58 18.5 -84.5t107.5 -26.5q48 0 92.5 9t64.5 19l20 9l1 -22l-8 -21q-61 -36 -177 -36q-108 0 -149.5 38.5t-29.5 114.5zM182 274h270l13 77
q9 58 -17 84.5t-101 26.5q-74 0 -108.5 -27t-43.5 -84zM299 674l-15 -97q-12 -4 -26 -4l-24 4l15 97q12 4 26 4zM509 674l-15 -97q-12 -4 -26 -4l-24 4l15 97q12 4 26 4z" />
    <glyph glyph-name="afii10099" unicode="&#x452;" horiz-adv-x="555" 
d="M415 -76l68 427q9 58 -10 84.5t-76 26.5q-52 0 -95 -14t-60 -28l-16 -13l-65 -405q-16 -4 -31 -4l-29 4l93 588h-55q-2 8 0 20l6 20h58l16 67q13 5 27 5l25 -5l-11 -67h184l1 -20l-7 -20h-184l-22 -137q8 6 23 14.5t64 22.5t102 14q78 0 106 -38.5t16 -114.5l-68 -427
q-10 -64 -43.5 -96t-98.5 -32q-39 0 -71 10l-1 20l7 21q23 -9 55 -9q44 0 64.5 20.5t27.5 65.5z" />
    <glyph glyph-name="afii10100" unicode="&#x453;" horiz-adv-x="403" 
d="M439 697l-143 -122q-13 -4 -24 -4l-21 4l128 122q15 5 31 5zM201 457l-72 -455q-16 -4 -31 -4l-29 4l77 491q79 7 197 7h101q2 -9 0 -21l-7 -22h-236z" />
    <glyph glyph-name="afii10101" unicode="&#x454;" horiz-adv-x="505" 
d="M401 231h-226l-12 -82q-9 -58 18 -84.5t104 -26.5q47 0 89.5 9t61.5 19l20 9l1 -22l-8 -21q-59 -36 -171 -36q-106 0 -146.5 38.5t-28.5 114.5l32 202q12 76 62.5 114.5t152.5 38.5q100 0 137.5 -37t25.5 -110l-1 -9q-14 -4 -29 -4l-26 4l1 9q9 54 -16.5 79.5t-98.5 25.5
q-72 0 -105.5 -27t-42.5 -84l-13 -77h225l1 -22z" />
    <glyph glyph-name="afii10102" unicode="&#x455;" horiz-adv-x="493" 
d="M192 367l-3 -20q-5 -30 23.5 -45t87.5 -27q39 -8 64 -15t54.5 -21t42 -36t7.5 -51l-3 -20q-20 -137 -210 -137q-102 0 -139 37t-24 111v6q15 4 31 4l28 -4l-1 -6q-9 -54 16 -80t96 -26q70 0 102.5 23t40.5 72l3 20q5 33 -26 50t-90 28q-30 6 -49 10.5t-45 14.5
t-40.5 21.5t-23.5 29.5t-5 41l3 20q11 68 59 102.5t146 34.5q97 0 132 -37t23 -111l-1 -6q-15 -4 -30 -4l-28 4l1 6q8 55 -15.5 80.5t-88.5 25.5q-67 0 -98.5 -23t-39.5 -72z" />
    <glyph glyph-name="afii10103" unicode="&#x456;" horiz-adv-x="197" 
d="M239 697l-16 -100q-16 -4 -31 -4l-29 4l16 100q15 5 31 5zM207 497l-78 -495q-16 -4 -31 -4l-29 4l78 495q15 5 31 5z" />
    <glyph glyph-name="afii10104" unicode="&#x457;" horiz-adv-x="197" 
d="M207 497l-78 -495q-16 -4 -31 -4l-29 4l78 495q15 5 31 5zM159 697l-15 -96q-13 -4 -26 -4l-24 4l15 96q11 5 26 5zM309 697l-15 -96q-13 -4 -26 -4l-24 4l15 96q11 5 26 5z" />
    <glyph glyph-name="afii10105" unicode="&#x458;" horiz-adv-x="211" 
d="M70 -76l90 573q16 5 31 5l29 -5l-90 -573q-20 -128 -141 -128q-37 0 -72 10l-1 20l8 21q22 -9 55 -9q43 0 63.5 21t27.5 65zM252 697l-15 -100q-16 -4 -31 -4l-29 4l15 100q16 5 31 5z" />
    <glyph glyph-name="afii10106" unicode="&#x459;" horiz-adv-x="819" 
d="M149 152l94 342q61 8 152 8q40 0 77.5 -2t55.5 -4l17 -2l-32 -202q52 5 125 5q89 0 123.5 -34t24.5 -101l-5 -31q-22 -135 -194 -135q-48 0 -93 2t-66 4l-21 2l72 453h-190l-84 -305q-23 -81 -58.5 -118.5t-108.5 -37.5q-2 8 0 21l7 21q45 0 65.5 25.5t38.5 88.5z
M628 254h-121l-34 -215h121q61 0 90 22.5t37 69.5l5 31q8 47 -14.5 69.5t-83.5 22.5z" />
    <glyph glyph-name="afii10107" unicode="&#x45a;" horiz-adv-x="813" 
d="M538 497l-32 -205q51 5 124 5q89 0 124 -34t25 -101l-5 -31q-22 -135 -194 -135q-49 0 -94 2t-66 4l-20 2l37 233h-271l-37 -235q-16 -4 -31 -4l-29 4l78 495q15 5 31 5l29 -5l-35 -217h271l35 217q15 5 31 5zM620 254h-121l-34 -215h121q61 0 90.5 22.5t37.5 69.5l5 31
q8 47 -15 69.5t-84 22.5z" />
    <glyph glyph-name="afii10108" unicode="&#x45b;" horiz-adv-x="555" 
d="M438 590h-184l-22 -137q8 6 23 14.5t64 22.5t102 14q78 0 106 -38.5t16 -114.5l-55 -349q-16 -4 -31 -4l-29 4l55 349q9 58 -10 84.5t-76 26.5q-52 0 -95 -14t-60 -28l-16 -13l-65 -405q-16 -4 -31 -4l-29 4l93 588h-55q-2 8 0 20l6 20h58l16 67q13 5 27 5l25 -5l-11 -67
h184l1 -20z" />
    <glyph glyph-name="afii10109" unicode="&#x45c;" horiz-adv-x="458" 
d="M445 697l-143 -122q-13 -4 -24 -4l-21 4l128 122q15 5 31 5zM368 2l-130 242l-74 -19l-35 -223q-16 -4 -31 -4l-29 4l78 495q15 5 31 5l29 -5l-36 -228l74 20l190 208q17 5 34 5l30 -5l-207 -230l141 -265q-16 -4 -33 -4z" />
    <glyph glyph-name="uni045D" unicode="&#x45d;" horiz-adv-x="527" 
d="M372 575l-105 122q15 5 31 5l29 -5l90 -122q-11 -4 -24 -4zM540 497l-78 -495q-16 -4 -31 -4l-29 4l64 403l-342 -403q-15 -4 -29 -4l-26 4l78 495q15 5 31 5l29 -5l-64 -402l342 402q14 5 29 5z" />
    <glyph glyph-name="afii10110" unicode="&#x45e;" horiz-adv-x="506" 
d="M197 -78l43 77l-18 3l-107 495q16 5 31 5l29 -5l92 -442l231 442q16 5 31 5l29 -5l-306 -573q-34 -66 -72.5 -97t-95.5 -31q-13 0 -24.5 1.5t-16.5 2.5l-5 2l-1 21l7 20q17 -5 46 -5q35 0 59.5 20.5t47.5 63.5zM352 589q-68 0 -92 24t-17 74l2 10q11 4 23 4l21 -4l-2 -10
q-5 -34 10 -49t60 -15q44 0 64.5 15t25.5 49l2 10q11 4 22 4l21 -4l-2 -10q-7 -50 -38.5 -74t-99.5 -24z" />
    <glyph glyph-name="afii10193" unicode="&#x45f;" horiz-adv-x="529" 
d="M219 -123l19 122l-169 7l78 491q15 5 31 5l29 -5l-72 -455h272l71 455q16 5 31 5l29 -5l-78 -491q-66 -6 -170 -7l-19 -122q-13 -4 -26 -4z" />
    <glyph glyph-name="afii10050" unicode="&#x490;" horiz-adv-x="456" 
d="M234 655l-103 -653q-16 -4 -32 -4l-30 4l109 691q78 7 196 7h101l20 125q13 4 27 4l26 -4l-28 -170h-286z" />
    <glyph glyph-name="afii10098" unicode="&#x491;" horiz-adv-x="396" 
d="M426 457h-225l-72 -455q-16 -4 -31 -4l-29 4l77 491q75 7 185 7h49l19 122q13 5 27 5l25 -5z" />
    <glyph glyph-name="uni04D8" unicode="&#x4d8;" horiz-adv-x="600" 
d="M337 374h204l27 171q10 59 -23.5 86.5t-127.5 27.5t-136.5 -27.5t-52.5 -86.5l-2 -14q-14 -4 -29 -4l-28 4l2 14q13 79 71.5 119t181.5 40t171 -40t36 -119l-62 -390q-12 -79 -73 -119t-184 -40q-124 0 -170.5 40t-33.5 119l34 211q75 8 195 8zM196 331l-28 -176
q-9 -60 24 -87t127 -27t136.5 27t51.5 87l27 176h-338z" />
    <glyph glyph-name="afii10846" unicode="&#x4d9;" 
d="M523 351l-32 -202q-12 -76 -64 -114.5t-155 -38.5q-105 0 -143 38.5t-25 114.5l19 120q63 7 164 7h164l12 75q9 58 -19 84.5t-107 26.5q-49 0 -93 -9.5t-64 -18t-20 -10.5l-1 2q0 1 -0.5 2.5t-1 4t-0.5 6t1 7.5l8 22q61 36 177 36q108 0 150 -38.5t30 -114.5zM444 234
h-270l-13 -85q-9 -57 17 -84t100 -27q75 0 109.5 26.5t43.5 84.5z" />
    <glyph glyph-name="Wgrave" unicode="&#x1e80;" horiz-adv-x="935" 
d="M631 2l-64 633l-262 -633q-21 -4 -44 -4l-41 4l-80 695q16 5 32 5l31 -5l70 -637l266 637q17 5 39 5l38 -5l65 -637l272 637q17 5 32 5l30 -5l-299 -695q-21 -4 -44 -4zM604 752l-106 123q15 4 31 4l29 -4l90 -123q-11 -4 -23 -4z" />
    <glyph glyph-name="wgrave" unicode="&#x1e81;" horiz-adv-x="777" 
d="M516 2l-59 435l-195 -435q-19 -4 -41 -4l-39 4l-74 495q16 5 30 5l30 -5l64 -444l199 444q16 5 36 5l36 -5l59 -444l204 444q16 5 31 5l29 -5l-230 -495q-20 -4 -41 -4zM497 575l-106 122q16 5 32 5l28 -5l90 -122q-11 -4 -23 -4z" />
    <glyph glyph-name="Wacute" unicode="&#x1e82;" horiz-adv-x="935" 
d="M631 2l-64 633l-262 -633q-21 -4 -44 -4l-41 4l-80 695q16 5 32 5l31 -5l70 -637l266 637q17 5 39 5l38 -5l65 -637l272 637q17 5 32 5l30 -5l-299 -695q-21 -4 -44 -4zM712 875l-144 -123q-13 -4 -23 -4l-21 4l128 123q14 4 30 4z" />
    <glyph glyph-name="wacute" unicode="&#x1e83;" horiz-adv-x="777" 
d="M516 2l-59 435l-195 -435q-19 -4 -41 -4l-39 4l-74 495q16 5 30 5l30 -5l64 -444l199 444q16 5 36 5l36 -5l59 -444l204 444q16 5 31 5l29 -5l-230 -495q-20 -4 -41 -4zM605 697l-144 -122q-13 -4 -23 -4l-21 4l128 122q14 5 31 5z" />
    <glyph glyph-name="Wdieresis" unicode="&#x1e84;" horiz-adv-x="935" 
d="M631 2l-64 633l-262 -633q-21 -4 -44 -4l-41 4l-80 695q16 5 32 5l31 -5l70 -637l266 637q17 5 39 5l38 -5l65 -637l272 637q17 5 32 5l30 -5l-299 -695q-21 -4 -44 -4zM521 849l-15 -97q-13 -4 -26 -4l-24 4l15 97q11 4 25 4zM731 849l-15 -97q-13 -4 -26 -4l-24 4
l15 97q11 4 25 4z" />
    <glyph glyph-name="wdieresis" unicode="&#x1e85;" horiz-adv-x="777" 
d="M516 2l-59 435l-195 -435q-19 -4 -41 -4l-39 4l-74 495q16 5 30 5l30 -5l64 -444l199 444q16 5 36 5l36 -5l59 -444l204 444q16 5 31 5l29 -5l-230 -495q-20 -4 -41 -4zM418 697l-15 -96q-12 -4 -26 -4l-24 4l15 96q12 5 26 5zM628 697l-15 -96q-12 -4 -26 -4l-24 4
l15 96q12 5 26 5z" />
    <glyph glyph-name="Ygrave" unicode="&#x1ef2;" horiz-adv-x="562" 
d="M642 697l-283 -395l-47 -300q-16 -4 -32 -4l-30 4l47 300l-157 395q18 5 35 5l34 -5l129 -336l235 336q19 5 36 5zM418 752l-106 123q15 4 31 4l29 -4l90 -123q-10 -4 -23 -4z" />
    <glyph glyph-name="ygrave" unicode="&#x1ef3;" horiz-adv-x="506" 
d="M197 -78l43 77l-18 3l-107 495q16 5 31 5l29 -5l92 -442l231 442q16 5 31 5l29 -5l-306 -573q-34 -66 -72.5 -97t-95.5 -31q-13 0 -24.5 1.5t-16.5 2.5l-5 2l-1 21l7 20q17 -5 46 -5q35 0 59.5 20.5t47.5 63.5zM361 575l-105 122q15 5 31 5l29 -5l90 -122q-11 -4 -24 -4z
" />
    <glyph glyph-name="figuredash" unicode="&#x2012;" horiz-adv-x="497" 
d="M500 315h-404l-1 21l8 21h403l1 -21z" />
    <glyph glyph-name="endash" unicode="&#x2013;" horiz-adv-x="497" 
d="M493 266h-404l-1 21l8 21h403l1 -21z" />
    <glyph glyph-name="emdash" unicode="&#x2014;" horiz-adv-x="647" 
d="M642 265h-554l-1 21l8 21h553l1 -21z" />
    <glyph glyph-name="quoteleft" unicode="&#x2018;" horiz-adv-x="187" 
d="M146 507q6 39 17.5 73t24 54.5t24 35.5t18.5 21l7 6q10 5 19 5l16 -5q-6 -6 -16 -19.5t-30.5 -62.5t-29.5 -108q-12 -4 -26 -4z" />
    <glyph glyph-name="quoteright" unicode="&#x2019;" horiz-adv-x="187" 
d="M231 697q-10 -61 -32.5 -108.5t-40.5 -64.5l-18 -17q-10 -4 -18 -4l-17 4q6 7 16 20t30.5 62t29.5 108q13 5 26 5z" />
    <glyph glyph-name="quotesinglbase" unicode="&#x201a;" horiz-adv-x="187" 
d="M135 92q-10 -61 -32.5 -108.5t-40.5 -64.5l-17 -17q-10 -4 -19 -4l-16 4q6 7 15.5 20t30 62t29.5 108q12 5 26 5z" />
    <glyph glyph-name="quotedblleft" unicode="&#x201c;" horiz-adv-x="302" 
d="M146 507q6 39 17.5 73t24 54.5t24 35.5t18.5 21l7 6q10 5 19 5l16 -5q-6 -6 -16 -19.5t-30.5 -62.5t-29.5 -108q-12 -4 -26 -4zM261 507q6 39 17.5 73t24 54.5t24 35.5t18.5 21l7 6q10 5 19 5l16 -5q-6 -6 -16 -19.5t-30.5 -62.5t-29.5 -108q-12 -4 -26 -4z" />
    <glyph glyph-name="quotedblright" unicode="&#x201d;" horiz-adv-x="302" 
d="M231 697q-10 -61 -32.5 -108.5t-40.5 -64.5l-18 -17q-10 -4 -18 -4l-17 4q6 7 16 20t30.5 62t29.5 108q13 5 26 5zM346 697q-10 -61 -32.5 -108.5t-40.5 -64.5l-18 -17q-10 -4 -18 -4l-17 4q6 7 16 20t30.5 62t29.5 108q13 5 26 5z" />
    <glyph glyph-name="quotedblbase" unicode="&#x201e;" horiz-adv-x="302" 
d="M135 92q-10 -61 -32.5 -108.5t-40.5 -64.5l-17 -17q-10 -4 -19 -4l-16 4q6 7 15.5 20t30 62t29.5 108q12 5 26 5zM250 92q-10 -61 -32.5 -108.5t-40.5 -64.5l-18 -17q-10 -4 -19 -4l-15 4q6 7 15.5 20t30 62t29.5 108q12 5 26 5z" />
    <glyph glyph-name="dagger" unicode="&#x2020;" horiz-adv-x="393" 
d="M424 457h-130l-88 -555q-13 -4 -26 -4l-24 4l88 555h-129l-1 22l8 21h129l31 197q12 5 26 5l24 -5l-31 -197h129l1 -21z" />
    <glyph glyph-name="daggerdbl" unicode="&#x2021;" horiz-adv-x="393" 
d="M366 100h-129l-31 -198q-13 -4 -26 -4l-24 4l31 198h-129l-1 21l8 21h129l50 315h-129l-1 22l8 21h129l31 197q12 5 26 5l24 -5l-31 -197h129l1 -21l-7 -22h-130l-50 -315h130q2 -8 0 -21z" />
    <glyph glyph-name="bullet" unicode="&#x2022;" horiz-adv-x="290" 
d="M296 395q-1 -44 -10 -95l-21 -96q-51 -7 -101 -7q-22 0 -46.5 1.5t-37.5 3.5l-14 2q1 44 9 96q4 23 9.5 46.5t9.5 35.5l3 13q50 8 100 8q22 0 47 -2t38 -4z" />
    <glyph glyph-name="ellipsis" unicode="&#x2026;" horiz-adv-x="550" 
d="M142 95l-14 -93q-17 -4 -32 -4l-29 4l15 93q14 4 30 4zM320 95l-15 -93q-16 -4 -31 -4l-29 4l14 93q15 4 31 4zM497 95l-14 -93q-17 -4 -32 -4l-29 4l15 93q14 4 30 4z" />
    <glyph glyph-name="perthousand" unicode="&#x2030;" horiz-adv-x="889" 
d="M325 104l5 28q18 107 138 107q121 0 105 -107l-5 -28q-16 -107 -138 -107q-120 0 -105 107zM133 568l4 28q17 107 139 107q121 0 104 -107l-4 -28q-16 -107 -139 -107q-120 0 -104 107zM618 104l5 28q16 107 138 107t104 -107l-5 -28q-15 -107 -137 -107q-121 0 -105 107
zM686 697l-567 -695q-16 -4 -29 -4l-26 4l567 695q13 5 29 5zM372 132l-5 -28q-5 -35 10.5 -52t58.5 -17t64.5 17t26.5 52l5 28q5 35 -11 52t-59 17q-80 0 -90 -69zM178 596l-4 -28q-5 -35 11 -52t59 -17q80 0 90 69l4 28q6 35 -9.5 52t-58.5 17q-80 0 -92 -69zM664 132
l-5 -28q-5 -36 11 -52.5t59 -16.5q81 0 90 69l5 28q6 35 -10 52t-59 17t-64 -17t-27 -52z" />
    <glyph glyph-name="guilsinglleft" unicode="&#x2039;" horiz-adv-x="294" 
d="M85 270l206 178q9 -3 16 -12l10 -18l-172 -148l125 -148q-5 -9 -15 -18l-20 -12z" />
    <glyph glyph-name="guilsinglright" unicode="&#x203a;" horiz-adv-x="294" 
d="M293 270l-206 -178q-8 3 -16 12l-9 18l171 148l-124 148q5 9 14 18l20 12z" />
    <glyph glyph-name="fraction" unicode="&#x2044;" horiz-adv-x="599" 
d="M669 697l-567 -695q-17 -4 -32 -4l-29 4l567 695q15 5 32 5z" />
    <glyph glyph-name="Euro" unicode="&#x20ac;" horiz-adv-x="628" 
d="M484 260h-272l-17 -105q-9 -60 25.5 -87t131.5 -27q60 0 114 11t78 22l25 11l2 -23l-9 -23q-8 -5 -24.5 -12t-72.5 -19t-120 -12q-126 0 -175.5 40t-36.5 119l16 105h-55q-2 8 0 21l7 21h55l14 90h-54l-1 21l8 21h54l17 111q12 79 73.5 119t184.5 40t169 -40t33 -119
l-2 -14q-15 -4 -30 -4l-27 4l2 14q9 59 -24.5 86.5t-127.5 27.5t-136.5 -27.5t-51.5 -86.5l-17 -111h273q2 -8 0 -21l-7 -21h-274l-14 -90h273l1 -21z" />
    <glyph glyph-name="uni20B4" unicode="&#x20b4;" horiz-adv-x="543" 
d="M532 260h-296q-7 -5 -18.5 -15t-32.5 -38.5t-25 -56.5q-9 -57 22 -83t119 -26q53 0 102 10.5t71 21.5l22 11l1 -23q-1 -6 -3 -12t-4 -9l-2 -2q-7 -5 -21.5 -12t-65.5 -18.5t-108 -11.5q-116 0 -161 39t-33 115q4 27 21 54.5t33 41.5l15 14h-70q-2 8 0 21l7 21h434l1 -21z
M571 397h-434l-1 22l8 21h305l16 16t28.5 39t22.5 55q9 57 -22.5 83t-118.5 26q-53 0 -102 -10.5t-72 -21.5l-22 -11l-1 23l9 23q8 5 22.5 12t65.5 18.5t108 11.5q115 0 160.5 -39t33.5 -115q-4 -28 -20 -55.5t-30 -40.5l-13 -14h64q2 -9 0 -21z" />
    <glyph glyph-name="afii61352" unicode="&#x2116;" horiz-adv-x="1095" 
d="M712 399l24 152q24 153 214 153q98 0 137 -39t27 -114l-24 -152q-25 -153 -213 -153q-98 0 -137.5 39t-27.5 114zM69 2l110 695q14 5 28 5l27 -5l271 -581l92 581q15 5 31 5l29 -5l-110 -695q-14 -4 -28 -4l-27 4l-272 582l-91 -582q-16 -4 -31 -4zM794 551l-6 -38
l-12 -76l-6 -38q-9 -57 16.5 -84t97.5 -27q71 0 105.5 27t42.5 84l24 152q9 57 -16.5 84t-96.5 27t-105.5 -27t-43.5 -84zM1020 0h-363l-1 22l8 23h363q2 -9 0 -23z" />
    <glyph glyph-name="trademark" unicode="&#x2122;" horiz-adv-x="670" 
d="M375 671h-97l-51 -320q-11 -2 -21 -2l-21 2l51 320h-99l-1 15l5 14h238l1 -14zM746 699l-55 -348q-10 -2 -20 -2l-20 2l46 286l-138 -228q-9 -3 -20 -3l-18 3l-65 227l-45 -285q-10 -2 -20 -2l-20 2l55 347q0 2 27 2l28 -2l67 -238l144 239q14 2 27 2z" />
    <glyph glyph-name="arrowleft" unicode="&#x2190;" horiz-adv-x="1124" 
d="M413 -4l-298 354l410 354l27 -32l-347 -299h890l-7 -45h-891l253 -300z" />
    <glyph glyph-name="arrowup" unicode="&#x2191;" horiz-adv-x="829" 
d="M356 -222l141 890l-347 -300l-27 32l410 354l298 -354l-38 -32l-251 300l-141 -890h-45z" />
    <glyph glyph-name="arrowright" unicode="&#x2192;" horiz-adv-x="1124" 
d="M139 328l8 45h890l-252 299l36 32l298 -354l-410 -354l-27 32l347 300h-890z" />
    <glyph glyph-name="arrowdown" unicode="&#x2193;" horiz-adv-x="829" 
d="M378 -226l-298 354l37 32l252 -300l141 890h45l-141 -890l346 299l28 -31z" />
    <glyph glyph-name="uni2196" unicode="&#x2196;" horiz-adv-x="854" 
d="M119 200l79 500h500l-7 -45h-424l530 -629l-36 -32l-530 629l-67 -423h-45z" />
    <glyph glyph-name="uni2197" unicode="&#x2197;" horiz-adv-x="854" 
d="M369 655l7 45h500l-79 -500h-45l67 423l-728 -629l-27 32l729 629h-424z" />
    <glyph glyph-name="uni2198" unicode="&#x2198;" horiz-adv-x="854" 
d="M266 0l7 45h424l-530 629l36 32l530 -630l67 424h45l-79 -500h-500z" />
    <glyph glyph-name="uni2199" unicode="&#x2199;" horiz-adv-x="854" 
d="M88 0l79 500h45l-67 -424l728 630l27 -32l-729 -629h424l-7 -45h-500z" />
    <glyph glyph-name="minus" unicode="&#x2212;" horiz-adv-x="415" 
d="M418 315h-322l-1 21l8 21h322q2 -8 0 -21z" />
    <glyph glyph-name="commaaccent" unicode="&#xf6c3;" horiz-adv-x="187" 
d="M106 -49q-7 -46 -27 -83t-37 -52l-16 -14q-9 -4 -17 -4l-15 4q6 6 15.5 17t28.5 49.5t26 82.5q11 4 22 4z" />
    <glyph glyph-name="dollaroldstyle" unicode="&#xf724;" horiz-adv-x="493" 
d="M190 367l-3 -20q-5 -30 23.5 -45t87.5 -27q39 -8 64 -15t54.5 -21t42 -36t7.5 -51l-3 -20q-20 -129 -185 -136l-15 -94q-12 -4 -25 -4l-25 4l15 94q-87 4 -118 40.5t-20 106.5v6q15 4 31 4l28 -4l-1 -6q-9 -54 16 -80t96 -26q70 0 102.5 23t40.5 72l3 20q5 33 -26 50
t-90 28q-30 6 -49 10.5t-45 14.5t-40.5 21.5t-23.5 29.5t-5 41l3 20q10 63 52.5 97.5t125.5 38.5l15 94q13 5 26 5l24 -5l-15 -94q83 -4 112.5 -40.5t19.5 -106.5l-1 -6q-15 -4 -30 -4l-28 4l1 6q8 55 -15.5 80.5t-88.5 25.5q-67 0 -98.5 -23t-39.5 -72z" />
    <glyph glyph-name="zerooldstyle" unicode="&#xf730;" horiz-adv-x="552" 
d="M103 149l32 202q24 153 232 153q109 0 153 -39t32 -114l-32 -202q-25 -153 -233 -153q-109 0 -152.5 39t-31.5 114zM195 351l-8 -51l-16 -100l-8 -51q-9 -57 21 -84t110 -27q81 0 119.5 27t46.5 84l33 202q8 57 -22 84t-110 27q-81 0 -119.5 -27t-46.5 -84z" />
    <glyph glyph-name="oneoldstyle" unicode="&#xf731;" horiz-adv-x="329" 
d="M300 501l-79 -499q-16 -4 -31 -4l-29 4l71 449l-124 4q-2 9 0 21l6 21q74 4 186 4z" />
    <glyph glyph-name="twooldstyle" unicode="&#xf732;" horiz-adv-x="516" 
d="M450 336l3 16q9 57 -19.5 83.5t-105.5 26.5q-72 0 -110 -30.5t-45 -79.5l-3 -14q-14 -4 -29 -4l-29 4l2 14q10 66 63.5 109t157.5 43q107 0 148 -38t29 -114l-3 -16q-7 -45 -46.5 -77t-91.5 -50.5t-103.5 -36t-90 -44t-44.5 -62.5l-3 -24h329q2 -8 0 -21l-7 -21h-193
q-52 0 -100.5 1.5t-70.5 2.5l-23 2l9 60q7 46 47 79.5t92 52t103.5 35.5t90 42.5t43.5 60.5z" />
    <glyph glyph-name="threeoldstyle" unicode="&#xf733;" horiz-adv-x="548" 
d="M141 456l-1 22l8 22h404q2 -9 0 -21l-7 -22l-254 -259q72 0 118 -13t65 -35.5t25 -53t-2 -64.5l-11 -69q-25 -167 -255 -167q-61 0 -110.5 11t-68.5 21l-18 11l-1 22l8 22q0 -2 20.5 -12t69.5 -21.5t107 -11.5q92 0 135 30t53 95l11 69q11 65 -26 94.5t-134 29.5h-55
l-1 22l8 22l248 256h-336z" />
    <glyph glyph-name="fouroldstyle" unicode="&#xf734;" horiz-adv-x="531" 
d="M470 297l-40 -253h73l1 -22l-7 -22h-72l-32 -198q-15 -4 -30 -4l-29 4l32 198h-315l-1 21l270 476q12 4 30 4l31 -4l-258 -453h250l40 253q14 5 29 5z" />
    <glyph glyph-name="fiveoldstyle" unicode="&#xf735;" horiz-adv-x="539" 
d="M229 457l-56 -249h120q125 0 165.5 -43.5t27.5 -124.5l-12 -77q-25 -167 -246 -167q-62 0 -111.5 11t-68.5 21l-18 11l-1 22q1 6 3 11.5t4 7.5l2 3q0 -2 20 -12t69 -21.5t107 -11.5q87 0 128.5 30t51.5 95l12 77q11 63 -21.5 93.5t-118.5 30.5h-173l-1 22l71 307
q78 7 196 7h137q2 -9 0 -21l-7 -22h-280z" />
    <glyph glyph-name="sixoldstyle" unicode="&#xf736;" horiz-adv-x="565" 
d="M200 386q9 6 25.5 14.5t71.5 22.5t115 14q88 0 121 -38.5t21 -114.5l-21 -135q-25 -153 -240 -153q-112 0 -157 39t-33 114l59 379q14 86 73.5 130.5t177.5 44.5q50 0 92.5 -6.5t60.5 -12.5l17 -6q2 -8 0 -21l-8 -22q-62 26 -172 26q-87 0 -128.5 -32.5t-52.5 -99.5z
M193 340l-30 -191q-9 -57 22 -84t115 -27t124 27t49 84l21 135q9 57 -14 83.5t-90 26.5q-61 0 -110 -13.5t-68 -26.5z" />
    <glyph glyph-name="sevenoldstyle" unicode="&#xf737;" 
d="M549 479l-372 -677q-13 -4 -31 -4l-33 4l365 654h-353l-1 22l8 22h416z" />
    <glyph glyph-name="eightoldstyle" unicode="&#xf738;" horiz-adv-x="572" 
d="M171 491l9 60q24 153 229 153q108 0 150.5 -39t30.5 -114l-9 -60q-18 -102 -116 -130q105 -28 88 -134l-12 -78q-24 -153 -244 -153q-116 0 -162 39t-34 114l12 78q17 106 131 134q-90 29 -73 130zM173 227l-12 -78q-9 -57 23.5 -84t119.5 -27q86 0 127.5 27t49.5 84
l12 78q9 57 -23 84t-119 27t-128 -27t-50 -84zM240 551l-9 -60q-9 -57 19.5 -84t107.5 -27q78 0 116 27t47 84l9 60q9 57 -20 84t-107 27q-79 0 -116.5 -27t-46.5 -84z" />
    <glyph glyph-name="nineoldstyle" unicode="&#xf739;" horiz-adv-x="565" 
d="M432 -30l25 157q-9 -6 -25.5 -14.5t-72 -22.5t-115.5 -14q-88 0 -120.5 38.5t-20.5 114.5l19 121q25 153 240 153q112 0 157 -39t33 -114l-60 -379q-27 -175 -250 -175q-49 0 -92 6t-62 12l-18 7l-1 21l8 22q66 -26 176 -26q87 0 128 32.5t51 99.5zM465 173l27 177
q9 57 -22 84t-115 27t-124 -27t-49 -84l-19 -121q-9 -58 13.5 -84t90.5 -26q61 0 110.5 13.5t68.5 27.5z" />
    <glyph glyph-name="NULL" horiz-adv-x="0" 
 />
    <glyph glyph-name="T_h" horiz-adv-x="1044" 
d="M762 693l-38 -240q8 6 22.5 14.5t63.5 22.5t102 14q78 0 106 -38.5t16 -114.5l-55 -349q-15 -4 -31 -4l-29 4l55 349q9 58 -10 84.5t-76 26.5q-52 0 -95 -14t-59 -28l-17 -13l-64 -405q-16 -4 -31 -4l-29 4l103 653h-284l-103 -653q-16 -4 -32 -4l-30 4l103 653h-207
q-2 9 0 22l7 23h425q52 0 98.5 -2t67.5 -4z" />
    <glyph glyph-name="T_h.caron" horiz-adv-x="1044" 
d="M762 693l-38 -240q8 6 22.5 14.5t63.5 22.5t102 14q78 0 106 -38.5t16 -114.5l-55 -349q-15 -4 -31 -4l-29 4l55 349q9 58 -10 84.5t-76 26.5q-52 0 -95 -14t-59 -28l-17 -13l-64 -405q-16 -4 -31 -4l-29 4l103 653h-284l-103 -653q-16 -4 -32 -4l-30 4l103 653h-207
q-2 9 0 22l7 23h425q52 0 98.5 -2t67.5 -4zM327 868l74 -88l101 88q13 4 23 4l22 -4l-121 -115q-14 -5 -30 -5l-28 5l-85 115q10 4 23 4z" />
    <glyph glyph-name="T_h.commaaccent" horiz-adv-x="1044" 
d="M762 693l-38 -240q8 6 22.5 14.5t63.5 22.5t102 14q78 0 106 -38.5t16 -114.5l-55 -349q-15 -4 -31 -4l-29 4l55 349q9 58 -10 84.5t-76 26.5q-52 0 -95 -14t-59 -28l-17 -13l-64 -405q-16 -4 -31 -4l-29 4l103 653h-284l-103 -653q-16 -4 -32 -4l-30 4l103 653h-207
q-2 9 0 22l7 23h425q52 0 98.5 -2t67.5 -4zM292 -49q-7 -46 -27.5 -83t-36.5 -52l-17 -14q-8 -4 -16 -4l-16 4q6 6 15.5 17t28.5 49.5t26 82.5q11 4 23 4z" />
    <glyph glyph-name="A.smcp" horiz-adv-x="495" 
d="M28 2l263 521q18 3 39 3l38 -3l99 -521q-16 -4 -29 -4l-28 4l-29 141h-224l-72 -141q-15 -4 -30 -4zM322 477l-148 -294h204z" />
    <glyph glyph-name="Aacute.smcp" horiz-adv-x="495" 
d="M28 2l263 521q18 3 39 3l38 -3l99 -521q-16 -4 -29 -4l-28 4l-29 141h-224l-72 -141q-15 -4 -30 -4zM322 477l-148 -294h204zM439 658l-116 -94q-10 -3 -19 -3l-20 3l102 94q11 3 27 3z" />
    <glyph glyph-name="Abreve.smcp" horiz-adv-x="495" 
d="M28 2l263 521q18 3 39 3l38 -3l99 -521q-16 -4 -29 -4l-28 4l-29 141h-224l-72 -141q-15 -4 -30 -4zM322 477l-148 -294h204zM336 561q-56 0 -76 18.5t-14 57.5l1 7q11 4 20 4l19 -4l-1 -7q-4 -25 8.5 -36.5t46.5 -11.5t50 11.5t19 36.5l2 7q10 4 21 4l18 -4l-1 -7
q-6 -39 -31.5 -57.5t-81.5 -18.5z" />
    <glyph glyph-name="Acircumflex.smcp" horiz-adv-x="495" 
d="M28 2l263 521q18 3 39 3l38 -3l99 -521q-16 -4 -29 -4l-28 4l-29 141h-224l-72 -141q-15 -4 -30 -4zM322 477l-148 -294h204zM405 564l-59 65l-79 -65q-11 -3 -20 -3l-19 3l96 89q12 3 26 3l26 -3l68 -89q-9 -3 -19 -3z" />
    <glyph glyph-name="Agrave.smcp" horiz-adv-x="495" 
d="M28 2l263 521q18 3 39 3l38 -3l99 -521q-16 -4 -29 -4l-28 4l-29 141h-224l-72 -141q-15 -4 -30 -4zM322 477l-148 -294h204zM349 564l-86 94q13 3 27 3l27 -3l71 -94q-9 -3 -20 -3z" />
    <glyph glyph-name="Adieresis.smcp" horiz-adv-x="495" 
d="M28 2l263 521q18 3 39 3l38 -3l99 -521q-16 -4 -29 -4l-28 4l-29 141h-224l-72 -141q-15 -4 -30 -4zM322 477l-148 -294h204zM287 638l-12 -73q-11 -4 -23 -4l-22 4l11 73q10 3 23 3zM455 638l-12 -73q-11 -4 -23 -4l-22 4l11 73q10 3 23 3z" />
    <glyph glyph-name="Amacron.smcp" horiz-adv-x="495" 
d="M28 2l263 521q18 3 39 3l38 -3l99 -521q-16 -4 -29 -4l-28 4l-29 141h-224l-72 -141q-15 -4 -30 -4zM322 477l-148 -294h204zM434 580h-190l-2 15l6 15h191l1 -15z" />
    <glyph glyph-name="Aogonek.smcp" horiz-adv-x="495" 
d="M380 -64q4 31 46 63l-16 3l-29 141h-224l-72 -141q-15 -4 -30 -4l-27 4l263 521q18 3 39 3l38 -3l99 -521q-6 -2 -12 -2q-37 -33 -41 -62q-2 -15 6 -23.5t27 -8.5q12 0 23.5 3t17.5 7l6 3l1 -13l-5 -12q-19 -14 -55 -14q-63 0 -55 56zM322 477l-148 -294h204z" />
    <glyph glyph-name="Aring.smcp" horiz-adv-x="495" 
d="M28 2l263 521q18 3 39 3l38 -3l99 -521q-16 -4 -29 -4l-28 4l-29 141h-224l-72 -141q-15 -4 -30 -4zM322 477l-148 -294h204zM278 608l2 13q8 51 73 51t57 -51l-2 -13q-8 -50 -73 -50t-57 50zM307 621l-2 -13q-2 -14 5.5 -20.5t28.5 -6.5q37 0 42 27l2 13q2 15 -5.5 21.5
t-28.5 6.5q-38 0 -42 -28z" />
    <glyph glyph-name="Atilde.smcp" horiz-adv-x="495" 
d="M28 2l263 521q18 3 39 3l38 -3l99 -521q-16 -4 -29 -4l-28 4l-29 141h-224l-72 -141q-15 -4 -30 -4zM322 477l-148 -294h204zM218 565v3q5 33 21.5 48.5t50.5 15.5q33 0 57.5 -21t40.5 -21q36 0 42 35l1 4q8 3 17 3l16 -3v-4q-6 -33 -21.5 -48.5t-49.5 -15.5
q-33 0 -57.5 21t-40.5 21q-21 0 -30.5 -8t-12.5 -27v-3q-8 -4 -18 -4z" />
    <glyph glyph-name="AE.smcp" horiz-adv-x="604" 
d="M356 250l-34 -210h243q2 -8 0 -20l-6 -20h-142l-158 5l22 138h-124l-72 -141q-15 -4 -30 -4l-27 4l262 519q85 4 210 4h138q2 -8 0 -20l-6 -20h-239l-31 -195h212q2 -8 0 -20l-6 -20h-212zM326 485l-152 -302h114l48 302h-10z" />
    <glyph glyph-name="AEacute.smcp" horiz-adv-x="604" 
d="M356 250l-34 -210h243q2 -8 0 -20l-6 -20h-142l-158 5l22 138h-124l-72 -141q-15 -4 -30 -4l-27 4l262 519q85 4 210 4h138q2 -8 0 -20l-6 -20h-239l-31 -195h212q2 -8 0 -20l-6 -20h-212zM326 485l-152 -302h114l48 302h-10zM542 658l-117 -94q-10 -3 -19 -3l-19 3
l101 94q12 3 27 3z" />
    <glyph glyph-name="B.smcp" horiz-adv-x="475" 
d="M62 4l82 517q74 6 177 6q91 0 128 -31.5t28 -92.5l-6 -28q-13 -83 -103 -105q95 -23 81 -109l-6 -36q-20 -128 -206 -128q-46 0 -89.5 1.5t-64.5 3.5zM158 250l-34 -213h119q70 0 102 21t40 67l6 36q7 46 -19 67.5t-95 21.5h-119zM196 488l-31 -199h118q64 0 94 20.5
t37 65.5l5 28q7 44 -17 64.5t-87 20.5h-119z" />
    <glyph glyph-name="C.smcp" horiz-adv-x="486" 
d="M88 120l45 285q10 61 59 92t149 31q99 0 135.5 -31t26.5 -92l-1 -10q-13 -4 -26 -4l-26 4l1 10q7 44 -19 63.5t-98 19.5q-73 0 -105 -19.5t-38 -63.5l-46 -285q-7 -44 20.5 -63.5t102.5 -19.5q47 0 90 8.5t62.5 16t19.5 8.5l1 -1v-3t0.5 -4.5t0.5 -5.5t-1 -7l-7 -21
q-60 -31 -173 -31q-102 0 -142 30.5t-31 92.5z" />
    <glyph glyph-name="Cacute.smcp" horiz-adv-x="486" 
d="M88 120l45 285q10 61 59 92t149 31q99 0 135.5 -31t26.5 -92l-1 -10q-13 -4 -26 -4l-26 4l1 10q7 44 -19 63.5t-98 19.5q-73 0 -105 -19.5t-38 -63.5l-46 -285q-7 -44 20.5 -63.5t102.5 -19.5q47 0 90 8.5t62.5 16t19.5 8.5l1 -1v-3t0.5 -4.5t0.5 -5.5t-1 -7l-7 -21
q-60 -31 -173 -31q-102 0 -142 30.5t-31 92.5zM444 658l-116 -94q-10 -3 -19 -3l-19 3l101 94q12 3 26 3z" />
    <glyph glyph-name="Ccaron.smcp" horiz-adv-x="486" 
d="M88 120l45 285q10 61 59 92t149 31q99 0 135.5 -31t26.5 -92l-1 -10q-13 -4 -26 -4l-26 4l1 10q7 44 -19 63.5t-98 19.5q-73 0 -105 -19.5t-38 -63.5l-46 -285q-7 -44 20.5 -63.5t102.5 -19.5q47 0 90 8.5t62.5 16t19.5 8.5l1 -1v-3t0.5 -4.5t0.5 -5.5t-1 -7l-7 -21
q-60 -31 -173 -31q-102 0 -142 30.5t-31 92.5zM287 653l58 -64l80 64q10 3 19 3l19 -3l-96 -89q-12 -3 -26 -3l-25 3l-69 89q10 3 21 3z" />
    <glyph glyph-name="Ccedilla.smcp" horiz-adv-x="486" 
d="M88 120l45 285q10 61 59 92t149 31q99 0 135.5 -31t26.5 -92l-1 -10q-13 -4 -26 -4l-26 4l1 10q7 44 -19 63.5t-98 19.5q-73 0 -105 -19.5t-38 -63.5l-46 -285q-7 -44 20.5 -63.5t102.5 -19.5q47 0 90 8.5t62.5 16t19.5 8.5l1 -1v-3t0.5 -4.5t0.5 -5.5t-1 -7l-7 -21
q-57 -29 -165 -31l-1 -8q-2 -11 7.5 -17t21.5 -8.5t21 -11t7 -22.5l-1 -6q-8 -50 -81 -50q-39 0 -52 12.5t-8 38.5v4q9 2 17 2l15 -2v-4q-2 -15 4.5 -21t28.5 -6q21 0 30 5.5t12 20.5l1 6q1 8 -8.5 13t-21.5 7.5t-21 12t-6 26.5l1 9q-87 3 -121.5 33.5t-25.5 88.5z" />
    <glyph glyph-name="Ccircumflex.smcp" horiz-adv-x="486" 
d="M88 120l45 285q10 61 59 92t149 31q99 0 135.5 -31t26.5 -92l-1 -10q-13 -4 -26 -4l-26 4l1 10q7 44 -19 63.5t-98 19.5q-73 0 -105 -19.5t-38 -63.5l-46 -285q-7 -44 20.5 -63.5t102.5 -19.5q47 0 90 8.5t62.5 16t19.5 8.5l1 -1v-3t0.5 -4.5t0.5 -5.5t-1 -7l-7 -21
q-60 -31 -173 -31q-102 0 -142 30.5t-31 92.5zM411 564l-59 65l-80 -65q-10 -3 -19 -3l-20 3l97 89q12 3 26 3l25 -3l68 -89q-9 -3 -19 -3z" />
    <glyph glyph-name="Cdotaccent.smcp" horiz-adv-x="486" 
d="M88 120l45 285q10 61 59 92t149 31q99 0 135.5 -31t26.5 -92l-1 -10q-13 -4 -26 -4l-26 4l1 10q7 44 -19 63.5t-98 19.5q-73 0 -105 -19.5t-38 -63.5l-46 -285q-7 -44 20.5 -63.5t102.5 -19.5q47 0 90 8.5t62.5 16t19.5 8.5l1 -1v-3t0.5 -4.5t0.5 -5.5t-1 -7l-7 -21
q-60 -31 -173 -31q-102 0 -142 30.5t-31 92.5zM381 642l-12 -77q-14 -4 -28 -4l-27 4l12 77q13 3 28 3z" />
    <glyph glyph-name="D.smcp" horiz-adv-x="492" 
d="M144 521q71 6 178 6q101 0 142 -31t31 -91l-45 -285q-9 -61 -59.5 -92t-152.5 -31q-48 0 -92 1.5t-64 3.5l-20 2zM196 488l-72 -451h120q74 0 108 19.5t41 63.5l45 285q7 44 -20.5 63.5t-101.5 19.5h-120z" />
    <glyph glyph-name="Dcaron.smcp" horiz-adv-x="492" 
d="M144 521q71 6 178 6q101 0 142 -31t31 -91l-45 -285q-9 -61 -59.5 -92t-152.5 -31q-48 0 -92 1.5t-64 3.5l-20 2zM196 488l-72 -451h120q74 0 108 19.5t41 63.5l45 285q7 44 -20.5 63.5t-101.5 19.5h-120zM275 653l58 -64l80 64q10 3 19 3l19 -3l-96 -89q-12 -3 -26 -3
l-25 3l-69 89q10 3 21 3z" />
    <glyph glyph-name="Dcroat.smcp" horiz-adv-x="518" 
d="M169 521q72 6 179 6q101 0 142 -31t31 -91l-45 -285q-19 -123 -212 -123q-48 0 -92 1.5t-64 3.5l-20 2l39 247h-43l-1 19l7 19h43zM319 251h-135l-34 -214h120q74 0 108 19.5t40 63.5l46 285q7 44 -21 63.5t-101 19.5h-120l-32 -199h135q1 -8 -1 -19z" />
    <glyph glyph-name="Eth.smcp" horiz-adv-x="518" 
d="M169 521q72 6 179 6q101 0 142 -31t31 -91l-45 -285q-19 -123 -212 -123q-48 0 -92 1.5t-64 3.5l-20 2l39 247h-43l-1 19l7 19h43zM319 251h-135l-34 -214h120q74 0 108 19.5t40 63.5l46 285q7 44 -21 63.5t-101 19.5h-120l-32 -199h135q1 -8 -1 -19z" />
    <glyph glyph-name="Thorn.smcp" horiz-adv-x="433" 
d="M201 523l-16 -104q38 3 96 3q84 0 117 -31.5t23 -92.5l-8 -51q-9 -61 -51.5 -92t-126.5 -31l-96 3l-20 -125q-15 -4 -29 -4l-28 4l82 521q14 3 30 3zM180 382l-35 -218h94q57 0 83.5 19.5t33.5 63.5l8 51q7 44 -13.5 64t-76.5 20h-94z" />
    <glyph glyph-name="E.smcp" horiz-adv-x="436" 
d="M158 250l-33 -210h273q2 -8 0 -20l-6 -20h-172l-158 5l82 515q64 5 159 5h168q1 -8 -1 -20l-5 -20h-269l-31 -195h242q2 -8 0 -20l-7 -20h-242z" />
    <glyph glyph-name="Eacute.smcp" horiz-adv-x="436" 
d="M158 250l-33 -210h273q2 -8 0 -20l-6 -20h-172l-158 5l82 515q64 5 159 5h168q1 -8 -1 -20l-5 -20h-269l-31 -195h242q2 -8 0 -20l-7 -20h-242zM418 658l-115 -94q-11 -3 -21 -3l-19 3l101 94q13 3 27 3z" />
    <glyph glyph-name="Ebreve.smcp" horiz-adv-x="436" 
d="M158 250l-33 -210h273q2 -8 0 -20l-6 -20h-172l-158 5l82 515q64 5 159 5h168q1 -8 -1 -20l-5 -20h-269l-31 -195h242q2 -8 0 -20l-7 -20h-242zM309 561q-56 0 -75.5 18.5t-13.5 57.5l1 7q10 4 20 4l19 -4l-1 -7q-4 -26 8 -37t46 -11q35 0 50.5 11.5t19.5 36.5l1 7
q11 4 21 4l18 -4l-1 -7q-6 -39 -31.5 -57.5t-81.5 -18.5z" />
    <glyph glyph-name="Ecaron.smcp" horiz-adv-x="436" 
d="M158 250l-33 -210h273q2 -8 0 -20l-6 -20h-172l-158 5l82 515q64 5 159 5h168q1 -8 -1 -20l-5 -20h-269l-31 -195h242q2 -8 0 -20l-7 -20h-242zM263 653l59 -64l80 64q10 3 19 3l19 -3l-96 -89q-12 -3 -26 -3l-26 3l-68 89q9 3 20 3z" />
    <glyph glyph-name="Ecircumflex.smcp" horiz-adv-x="436" 
d="M158 250l-33 -210h273q2 -8 0 -20l-6 -20h-172l-158 5l82 515q64 5 159 5h168q1 -8 -1 -20l-5 -20h-269l-31 -195h242q2 -8 0 -20l-7 -20h-242zM387 564l-59 65l-79 -65q-10 -3 -19 -3l-20 3l97 89q12 3 25 3l26 -3l68 -89q-9 -3 -20 -3z" />
    <glyph glyph-name="Edieresis.smcp" horiz-adv-x="436" 
d="M158 250l-33 -210h273q2 -8 0 -20l-6 -20h-172l-158 5l82 515q64 5 159 5h168q1 -8 -1 -20l-5 -20h-269l-31 -195h242q2 -8 0 -20l-7 -20h-242zM268 638l-12 -73q-10 -4 -22 -4l-23 4l12 73q10 3 23 3zM436 638l-12 -73q-10 -4 -22 -4l-23 4l12 73q10 3 23 3z" />
    <glyph glyph-name="Edotaccent.smcp" horiz-adv-x="436" 
d="M158 250l-33 -210h273q2 -8 0 -20l-6 -20h-172l-158 5l82 515q64 5 159 5h168q1 -8 -1 -20l-5 -20h-269l-31 -195h242q2 -8 0 -20l-7 -20h-242zM361 642l-12 -77q-14 -4 -28 -4l-27 4l12 77q13 3 28 3z" />
    <glyph glyph-name="Egrave.smcp" horiz-adv-x="436" 
d="M158 250l-33 -210h273q2 -8 0 -20l-6 -20h-172l-158 5l82 515q64 5 159 5h168q1 -8 -1 -20l-5 -20h-269l-31 -195h242q2 -8 0 -20l-7 -20h-242zM334 564l-87 94q14 3 28 3l26 -3l72 -94q-9 -3 -20 -3z" />
    <glyph glyph-name="Emacron.smcp" horiz-adv-x="436" 
d="M158 250l-33 -210h273q2 -8 0 -20l-6 -20h-172l-158 5l82 515q64 5 159 5h168q1 -8 -1 -20l-5 -20h-269l-31 -195h242q2 -8 0 -20l-7 -20h-242zM416 580h-191l-1 15l5 15h191l2 -15z" />
    <glyph glyph-name="Eogonek.smcp" horiz-adv-x="436" 
d="M265 -64q4 33 47 64h-92l-158 5l82 515q64 5 159 5h168q1 -8 -1 -20l-5 -20h-269l-31 -195h242q2 -8 0 -20l-7 -20h-242l-33 -210h273q2 -8 0 -20l-6 -20h-50q-38 -31 -43 -62q-2 -15 6.5 -23.5t27.5 -8.5q12 0 23.5 3t17.5 7l5 3l1 -13l-5 -12q-20 -14 -54 -14
q-66 0 -56 56z" />
    <glyph glyph-name="F.smcp" horiz-adv-x="426" 
d="M158 250l-39 -248q-15 -4 -29 -4l-28 4l82 518q64 5 159 5h161q2 -8 0 -20l-6 -20h-262l-31 -195h235q2 -8 0 -20l-6 -20h-236z" />
    <glyph glyph-name="G.smcp" horiz-adv-x="496" 
d="M485 269l-38 -240q-79 -32 -190 -32q-99 0 -138.5 31t-30.5 92l45 285q10 61 59 92t150 31q100 0 137 -31t28 -92l-2 -10q-13 -4 -27 -4l-26 4l2 10q7 44 -19 63.5t-100 19.5q-73 0 -105.5 -19.5t-38.5 -63.5l-46 -285q-7 -44 20 -63.5t99 -19.5q36 0 69 5t48 10l15 5
l28 178h-120q-1 8 1 20l6 20h37q37 0 71 -1.5t50 -3.5z" />
    <glyph glyph-name="Gbreve.smcp" horiz-adv-x="496" 
d="M485 269l-38 -240q-79 -32 -190 -32q-99 0 -138.5 31t-30.5 92l45 285q10 61 59 92t150 31q100 0 137 -31t28 -92l-2 -10q-13 -4 -27 -4l-26 4l2 10q7 44 -19 63.5t-100 19.5q-73 0 -105.5 -19.5t-38.5 -63.5l-46 -285q-7 -44 20 -63.5t99 -19.5q36 0 69 5t48 10l15 5
l28 178h-120q-1 8 1 20l6 20h37q37 0 71 -1.5t50 -3.5zM346 561q-57 0 -77 18.5t-14 57.5l1 7q11 4 21 4l19 -4l-1 -7q-4 -26 8 -37t47 -11q34 0 50 11.5t19 36.5l2 7q9 4 20 4l18 -4l-1 -7q-6 -39 -31.5 -57.5t-80.5 -18.5z" />
    <glyph glyph-name="Gcircumflex.smcp" horiz-adv-x="496" 
d="M485 269l-38 -240q-79 -32 -190 -32q-99 0 -138.5 31t-30.5 92l45 285q10 61 59 92t150 31q100 0 137 -31t28 -92l-2 -10q-13 -4 -27 -4l-26 4l2 10q7 44 -19 63.5t-100 19.5q-73 0 -105.5 -19.5t-38.5 -63.5l-46 -285q-7 -44 20 -63.5t99 -19.5q36 0 69 5t48 10l15 5
l28 178h-120q-1 8 1 20l6 20h37q37 0 71 -1.5t50 -3.5zM414 564l-58 65l-79 -65q-11 -3 -20 -3l-19 3l96 89q12 3 26 3l26 -3l67 -89q-8 -3 -19 -3z" />
    <glyph glyph-name="Gcommaaccent.smcp" horiz-adv-x="496" 
d="M485 269l-38 -240q-79 -32 -190 -32q-99 0 -138.5 31t-30.5 92l45 285q10 61 59 92t150 31q100 0 137 -31t28 -92l-2 -10q-13 -4 -27 -4l-26 4l2 10q7 44 -19 63.5t-100 19.5q-73 0 -105.5 -19.5t-38.5 -63.5l-46 -285q-7 -44 20 -63.5t99 -19.5q36 0 69 5t48 10l15 5
l28 178h-120q-1 8 1 20l6 20h37q37 0 71 -1.5t50 -3.5zM268 -36q-5 -35 -21 -63t-29 -39l-13 -10q-7 -4 -15 -4l-13 4q5 4 12 12.5t21.5 37.5t19.5 62q10 4 20 4z" />
    <glyph glyph-name="Gdotaccent.smcp" horiz-adv-x="496" 
d="M485 269l-38 -240q-79 -32 -190 -32q-99 0 -138.5 31t-30.5 92l45 285q10 61 59 92t150 31q100 0 137 -31t28 -92l-2 -10q-13 -4 -27 -4l-26 4l2 10q7 44 -19 63.5t-100 19.5q-73 0 -105.5 -19.5t-38.5 -63.5l-46 -285q-7 -44 20 -63.5t99 -19.5q36 0 69 5t48 10l15 5
l28 178h-120q-1 8 1 20l6 20h37q37 0 71 -1.5t50 -3.5zM386 642l-13 -77q-14 -4 -27 -4l-28 4l13 77q13 3 27 3z" />
    <glyph glyph-name="H.smcp" horiz-adv-x="510" 
d="M530 523l-82 -521q-16 -4 -31 -4l-27 4l39 247h-271l-39 -247q-15 -4 -29 -4l-28 4l82 521q14 3 30 3l27 -3l-36 -234h270l37 234q15 3 29 3z" />
    <glyph glyph-name="Hbar.smcp" horiz-adv-x="560" 
d="M577 390h-43l-61 -388q-15 -4 -31 -4l-27 4l39 247h-271l-39 -247q-15 -4 -29 -4l-28 4l61 388h-43q-2 7 0 18l6 19h43l15 96q15 3 30 3l27 -3l-15 -96h271l15 96q15 3 29 3l29 -3l-15 -96h43l1 -19zM190 289h270l16 101h-271z" />
    <glyph glyph-name="Hcircumflex.smcp" horiz-adv-x="510" 
d="M530 523l-82 -521q-16 -4 -31 -4l-27 4l39 247h-271l-39 -247q-15 -4 -29 -4l-28 4l82 521q14 3 30 3l27 -3l-36 -234h270l37 234q15 3 29 3zM412 564l-58 65l-80 -65q-10 -3 -19 -3l-19 3l96 89q12 3 26 3l25 -3l69 -89q-10 -3 -21 -3z" />
    <glyph glyph-name="I.smcp" horiz-adv-x="264" 
d="M47 40h61l71 445h-61l-1 20l8 20h180q2 -8 0 -20l-6 -20h-62l-71 -445h62l1 -20l-7 -20h-180l-1 20z" />
    <glyph glyph-name="Iacute.smcp" horiz-adv-x="264" 
d="M47 40h61l71 445h-61l-1 20l8 20h180q2 -8 0 -20l-6 -20h-62l-71 -445h62l1 -20l-7 -20h-180l-1 20zM324 658l-116 -94q-11 -3 -20 -3l-19 3l101 94q12 3 27 3z" />
    <glyph glyph-name="Ibreve.smcp" horiz-adv-x="264" 
d="M48 40h62l71 445h-62q-2 7 0 20l7 20h181q2 -8 0 -20l-6 -20h-62l-71 -445h62l1 -20l-7 -20h-181q-2 8 0 20zM222 561q-56 0 -75.5 18.5t-13.5 57.5l1 7q10 4 20 4l19 -4l-1 -7q-4 -26 8 -37t46 -11q35 0 50.5 11.5t19.5 36.5l1 7q11 4 21 4l19 -4l-1 -7
q-6 -39 -32 -57.5t-82 -18.5z" />
    <glyph glyph-name="Icircumflex.smcp" horiz-adv-x="264" 
d="M47 40h61l71 445h-61l-1 20l8 20h180q2 -8 0 -20l-7 -20h-61l-71 -445h61l1 -20l-6 -20h-180l-1 20zM290 564l-59 65l-79 -65q-10 -3 -20 -3l-19 3l97 89q11 3 25 3l25 -3l69 -89q-9 -3 -20 -3z" />
    <glyph glyph-name="Idieresis.smcp" horiz-adv-x="264" 
d="M185 638l-12 -74q-11 -3 -23 -3l-22 3l12 74q10 3 22 3zM325 638l-11 -74q-10 -3 -23 -3l-23 3l12 74q10 3 23 3zM47 40h61l71 445h-61l-1 20l8 20h180q2 -8 0 -20l-7 -20h-61l-71 -445h61l1 -20l-6 -20h-180l-1 20z" />
    <glyph glyph-name="Idotaccent.smcp" horiz-adv-x="264" 
d="M47 40h61l71 445h-61l-1 20l8 20h180q2 -8 0 -20l-6 -20h-62l-71 -445h62l1 -20l-7 -20h-180l-1 20zM260 642l-12 -77q-14 -4 -28 -4l-27 4l12 77q14 3 28 3z" />
    <glyph glyph-name="Igrave.smcp" horiz-adv-x="264" 
d="M47 40h61l71 445h-61l-1 20l8 20h180q2 -8 0 -20l-6 -20h-62l-71 -445h62l1 -20l-7 -20h-180l-1 20zM234 564l-86 94q13 3 27 3l26 -3l71 -94q-8 -3 -19 -3z" />
    <glyph glyph-name="Imacron.smcp" horiz-adv-x="265" 
d="M47 40h62l71 445h-62q-2 7 0 20l7 20h181q2 -8 0 -20l-7 -20h-62l-71 -445h62l1 -20l-6 -20h-181l-1 20zM320 580h-191l-2 15l6 15h191l1 -15z" />
    <glyph glyph-name="Iogonek.smcp" horiz-adv-x="264" 
d="M96 -64q4 33 47 64h-101l-1 20l6 20h61l71 445h-61l-1 20l8 20h180q2 -8 0 -20l-6 -20h-62l-71 -445h62l1 -20l-7 -20h-50q-38 -31 -43 -62q-2 -15 6.5 -23.5t27.5 -8.5q12 0 23.5 3t17.5 7l5 3l2 -13l-6 -12q-19 -14 -54 -14q-65 0 -55 56z" />
    <glyph glyph-name="Itilde.smcp" horiz-adv-x="264" 
d="M47 40h62l71 445h-62q-2 7 0 20l7 20h181q1 -8 -1 -20l-6 -20h-62l-71 -445h62q2 -8 0 -20l-5 -20h-181l-1 20zM103 565v3q5 33 21.5 48.5t50.5 15.5q32 0 56.5 -21t41.5 -21q37 0 41 35l1 4q9 3 18 3l17 -3l-1 -4q-9 -64 -70 -64q-33 0 -58.5 21t-40.5 21q-21 0 -30 -8
t-12 -27l-1 -3q-8 -4 -17 -4z" />
    <glyph glyph-name="IJ.smcp" horiz-adv-x="600" 
d="M47 40h61l71 445h-61l-1 20l8 20h180q2 -8 0 -20l-6 -20h-62l-71 -445h62l1 -20l-7 -20h-180l-1 20zM621 525l-65 -405q-17 -122 -164 -122q-30 0 -54.5 4.5t-33.5 9.5l-9 4q-2 8 0 20l7 20q33 -19 96 -19q49 0 71.5 19.5t29.5 63.5l58 365h-94l-1 20l7 20h152z" />
    <glyph glyph-name="J.smcp" horiz-adv-x="394" 
d="M414 523l-64 -403q-9 -61 -51.5 -92t-126.5 -31q-38 0 -68 7.5t-42 15.5l-11 8l-1 21q1 6 2.5 11t3.5 8l1 2q0 -2 12.5 -9t42.5 -15.5t66 -8.5q56 0 82 19.5t33 63.5l63 403q15 3 30 3z" />
    <glyph glyph-name="Jcircumflex.smcp" horiz-adv-x="393" 
d="M414 523l-64 -403q-9 -61 -51.5 -92t-126.5 -31q-38 0 -68 7.5t-42 15.5l-11 8l-1 21q1 6 2.5 11t3.5 8l1 2q0 -2 12.5 -9t42.5 -15.5t66 -8.5q56 0 82 19.5t33 63.5l63 403q15 3 30 3zM460 564l-58 65l-79 -65q-11 -3 -20 -3l-19 3l96 89q12 3 26 3l26 -3l68 -89
q-9 -3 -20 -3z" />
    <glyph glyph-name="K.smcp" horiz-adv-x="441" 
d="M351 2l-129 249l-66 -16l-37 -233q-15 -4 -29 -4l-28 4l82 521q14 3 30 3l27 -3l-38 -246l66 16l197 230q17 3 32 3l29 -3l-211 -251l137 -270q-16 -4 -31 -4z" />
    <glyph glyph-name="Kcommaaccent.smcp" horiz-adv-x="441" 
d="M351 2l-129 249l-66 -16l-37 -233q-15 -4 -29 -4l-28 4l82 521q14 3 30 3l27 -3l-38 -246l66 16l197 230q17 3 32 3l29 -3l-211 -251l137 -270q-16 -4 -31 -4zM239 -36q-5 -35 -21 -63t-30 -39l-13 -10q-7 -4 -14 -4l-14 4q42 38 54 112q10 4 20 4z" />
    <glyph glyph-name="L.smcp" horiz-adv-x="406" 
d="M201 523l-76 -483h249q2 -8 0 -20l-6 -20h-148l-158 5l82 518q14 3 30 3z" />
    <glyph glyph-name="Lacute.smcp" horiz-adv-x="406" 
d="M201 523l-76 -483h249q2 -8 0 -20l-6 -20h-148l-158 5l82 518q14 3 30 3zM290 658l-116 -94q-10 -3 -20 -3l-19 3l101 94q13 3 27 3z" />
    <glyph glyph-name="Lcaron.smcp" horiz-adv-x="406" 
d="M201 523l-76 -483h249q2 -8 0 -20l-6 -20h-148l-158 5l82 518q14 3 30 3zM163 653l59 -64l79 64q10 3 20 3l19 -3l-97 -89q-12 -3 -25 -3l-26 3l-68 89q8 3 19 3z" />
    <glyph glyph-name="Lcommaaccent.smcp" horiz-adv-x="406" 
d="M201 523l-76 -483h249q2 -8 0 -20l-6 -20h-148l-158 5l82 518q14 3 30 3zM234 -36q-6 -35 -22 -63t-29 -39l-13 -10q-7 -4 -15 -4l-13 4q5 4 12.5 12.5t22 37.5t19.5 62q10 4 20 4z" />
    <glyph glyph-name="Ldot.smcp" horiz-adv-x="406" 
d="M201 523l-76 -483h249q2 -8 0 -20l-6 -20h-148l-158 5l82 518q14 3 30 3zM359 268l-11 -74q-15 -3 -29 -3l-26 3l11 74q13 4 27 4z" />
    <glyph glyph-name="Lslash.smcp" horiz-adv-x="428" 
d="M71 197l52 42l44 284q15 3 29 3l29 -3l-39 -246l94 75q2 -9 0 -22l-8 -23l-93 -76l-31 -191h248l1 -20l-6 -20h-148l-158 5l30 188l-52 -42q-2 11 0 23z" />
    <glyph glyph-name="M.smcp" horiz-adv-x="626" 
d="M646 523l-82 -521q-15 -4 -29 -4l-26 4l68 435l-225 -348q-12 -4 -27 -4l-27 4l-112 347l-69 -435q-15 -3 -29 -3l-26 3l82 522q18 3 37 3l36 -3l120 -365l235 365q18 4 38 4z" />
    <glyph glyph-name="N.smcp" horiz-adv-x="511" 
d="M62 2l82 521q13 3 26 3l24 -3l216 -417l66 417q14 3 28 3l27 -3l-82 -521q-13 -4 -26 -4l-24 4l-216 416l-66 -416q-14 -4 -29 -4z" />
    <glyph glyph-name="Nacute.smcp" horiz-adv-x="511" 
d="M62 2l82 521q13 3 26 3l24 -3l216 -417l66 417q14 3 28 3l27 -3l-82 -521q-13 -4 -26 -4l-24 4l-216 416l-66 -416q-14 -4 -29 -4zM447 658l-116 -94q-11 -3 -20 -3l-19 3l101 94q13 3 27 3z" />
    <glyph glyph-name="Ncaron.smcp" horiz-adv-x="511" 
d="M62 2l82 521q13 3 26 3l24 -3l216 -417l66 417q14 3 28 3l27 -3l-82 -521q-13 -4 -26 -4l-24 4l-216 416l-66 -416q-14 -4 -29 -4zM289 653l59 -64l80 64q10 3 19 3l19 -3l-96 -89q-12 -3 -26 -3l-26 3l-68 89q9 3 20 3z" />
    <glyph glyph-name="Ncommaaccent.smcp" horiz-adv-x="511" 
d="M62 2l82 521q13 3 26 3l24 -3l216 -417l66 417q14 3 28 3l27 -3l-82 -521q-13 -4 -26 -4l-24 4l-216 416l-66 -416q-14 -4 -29 -4zM266 -36q-5 -35 -21 -63t-29 -39l-13 -10q-7 -4 -14 -4l-14 4q42 38 54 112q10 4 20 4z" />
    <glyph glyph-name="Ntilde.smcp" horiz-adv-x="511" 
d="M62 2l82 521q13 3 26 3l24 -3l216 -417l66 417q14 3 28 3l27 -3l-82 -521q-13 -4 -26 -4l-24 4l-216 416l-66 -416q-14 -4 -29 -4zM226 565v3q5 33 21.5 48.5t49.5 15.5t57.5 -21t40.5 -21q38 0 42 35l1 4q9 3 18 3l17 -3l-1 -4q-9 -64 -71 -64q-32 0 -57.5 21t-41.5 21
q-20 0 -29 -8t-12 -27l-1 -3q-8 -4 -17 -4z" />
    <glyph glyph-name="Eng.smcp" horiz-adv-x="511" 
d="M385 -54l10 64l-212 408l-66 -416q-14 -4 -29 -4l-26 4l82 521q13 3 26 3l24 -3l216 -417l66 417q14 3 28 3l27 -3l-91 -577q-17 -99 -116 -99q-30 0 -59 8q-2 7 0 18l6 17q20 -6 42 -6q35 0 50.5 15t21.5 47z" />
    <glyph glyph-name="O.smcp" horiz-adv-x="507" 
d="M88 120l45 285q20 123 213 123q100 0 141 -31.5t32 -91.5l-46 -285q-19 -123 -212 -123q-101 0 -141.5 31t-31.5 92zM191 405l-12 -71l-22 -142l-12 -72q-7 -44 21 -63.5t102 -19.5q73 0 107 19.5t41 63.5l45 285q7 44 -20.5 63.5t-101.5 19.5t-108 -19.5t-40 -63.5z" />
    <glyph glyph-name="Oacute.smcp" horiz-adv-x="507" 
d="M88 120l45 285q20 123 213 123q100 0 141 -31.5t32 -91.5l-46 -285q-19 -123 -212 -123q-101 0 -141.5 31t-31.5 92zM191 405l-12 -71l-22 -142l-12 -72q-7 -44 21 -63.5t102 -19.5q73 0 107 19.5t41 63.5l45 285q7 44 -20.5 63.5t-101.5 19.5t-108 -19.5t-40 -63.5z
M454 658l-115 -94q-11 -3 -21 -3l-19 3l101 94q13 3 27 3z" />
    <glyph glyph-name="Obreve.smcp" horiz-adv-x="507" 
d="M88 120l45 285q20 123 213 123q100 0 141 -31.5t32 -91.5l-46 -285q-19 -123 -212 -123q-101 0 -141.5 31t-31.5 92zM191 405l-12 -71l-22 -142l-12 -72q-7 -44 21 -63.5t102 -19.5q73 0 107 19.5t41 63.5l45 285q7 44 -20.5 63.5t-101.5 19.5t-108 -19.5t-40 -63.5z
M351 561q-56 0 -75.5 18.5t-13.5 57.5l1 7q9 4 20 4l19 -4l-2 -7q-3 -26 8.5 -37t46.5 -11t50.5 11.5t19.5 36.5l1 7q10 4 20 4l19 -4l-1 -7q-6 -39 -31.5 -57.5t-81.5 -18.5z" />
    <glyph glyph-name="Ocircumflex.smcp" horiz-adv-x="507" 
d="M88 120l45 285q20 123 213 123q100 0 141 -31.5t32 -91.5l-46 -285q-19 -123 -212 -123q-101 0 -141.5 31t-31.5 92zM191 405l-12 -71l-22 -142l-12 -72q-7 -44 21 -63.5t102 -19.5q73 0 107 19.5t41 63.5l45 285q7 44 -20.5 63.5t-101.5 19.5t-108 -19.5t-40 -63.5z
M420 564l-58 65l-80 -65q-10 -3 -19 -3l-20 3l97 89q12 3 26 3l25 -3l68 -89q-9 -3 -20 -3z" />
    <glyph glyph-name="Odieresis.smcp" horiz-adv-x="507" 
d="M88 120l45 285q20 123 213 123q100 0 141 -31.5t32 -91.5l-46 -285q-19 -123 -212 -123q-101 0 -141.5 31t-31.5 92zM191 405l-12 -71l-22 -142l-12 -72q-7 -44 21 -63.5t102 -19.5q73 0 107 19.5t41 63.5l45 285q7 44 -20.5 63.5t-101.5 19.5t-108 -19.5t-40 -63.5z
M301 638l-11 -74q-11 -3 -23 -3l-23 3l12 74q10 3 23 3zM469 638l-11 -74q-11 -3 -23 -3l-23 3l12 74q10 3 23 3z" />
    <glyph glyph-name="Ograve.smcp" horiz-adv-x="507" 
d="M88 120l45 285q20 123 213 123q100 0 141 -31.5t32 -91.5l-46 -285q-19 -123 -212 -123q-101 0 -141.5 31t-31.5 92zM191 405l-12 -71l-22 -142l-12 -72q-7 -44 21 -63.5t102 -19.5q73 0 107 19.5t41 63.5l45 285q7 44 -20.5 63.5t-101.5 19.5t-108 -19.5t-40 -63.5z
M364 564l-86 94q13 3 28 3l26 -3l71 -94q-9 -3 -20 -3z" />
    <glyph glyph-name="Ohungarumlaut.smcp" horiz-adv-x="507" 
d="M88 120l45 285q20 123 213 123q100 0 141 -31.5t32 -91.5l-46 -285q-19 -123 -212 -123q-101 0 -141.5 31t-31.5 92zM191 405l-12 -71l-22 -142l-12 -72q-7 -44 21 -63.5t102 -19.5q73 0 107 19.5t41 63.5l45 285q7 44 -20.5 63.5t-101.5 19.5t-108 -19.5t-40 -63.5z
M522 658l-117 -94q-10 -3 -19 -3l-20 3l101 94q13 3 27 3zM388 658l-116 -94q-11 -3 -20 -3l-19 3l101 94q13 3 27 3z" />
    <glyph glyph-name="Omacron.smcp" horiz-adv-x="507" 
d="M88 120l45 285q20 123 213 123q100 0 141 -31.5t32 -91.5l-46 -285q-19 -123 -212 -123q-101 0 -141.5 31t-31.5 92zM191 405l-12 -71l-22 -142l-12 -72q-7 -44 21 -63.5t102 -19.5q73 0 107 19.5t41 63.5l45 285q7 44 -20.5 63.5t-101.5 19.5t-108 -19.5t-40 -63.5z
M449 580h-191l-1 15l5 15h191l2 -15z" />
    <glyph glyph-name="Oslash.smcp" horiz-adv-x="506" 
d="M541 523l-42 -49q17 -26 11 -69l-46 -285q-19 -123 -212 -123q-94 0 -138 28l-20 -23q-13 -4 -25 -4l-23 4l42 49q-15 26 -9 69l45 285q20 123 212 123q95 0 138 -29l20 24q12 3 25 3zM455 405q1 7 1 19l-310 -361q27 -28 112 -28q75 0 109.5 20.5t41.5 64.5zM179 405
l-11 -71l-22 -142l-12 -72q-2 -12 -2 -18l309 359q-27 28 -111 28q-74 0 -109 -20t-42 -64z" />
    <glyph glyph-name="Oslashacute.smcp" horiz-adv-x="506" 
d="M541 523l-42 -49q17 -26 11 -69l-46 -285q-19 -123 -212 -123q-94 0 -138 28l-20 -23q-13 -4 -25 -4l-23 4l42 49q-15 26 -9 69l45 285q20 123 212 123q95 0 138 -29l20 24q12 3 25 3zM455 405q1 7 1 19l-310 -361q27 -28 112 -28q75 0 109.5 20.5t41.5 64.5zM179 405
l-11 -71l-22 -142l-12 -72q-2 -12 -2 -18l309 359q-27 28 -111 28q-74 0 -109 -20t-42 -64zM445 658l-115 -94q-11 -3 -21 -3l-18 3l100 94q13 3 27 3z" />
    <glyph glyph-name="Otilde.smcp" horiz-adv-x="507" 
d="M88 120l45 285q20 123 213 123q100 0 141 -31.5t32 -91.5l-46 -285q-19 -123 -212 -123q-101 0 -141.5 31t-31.5 92zM191 405l-12 -71l-22 -142l-12 -72q-7 -44 21 -63.5t102 -19.5q73 0 107 19.5t41 63.5l45 285q7 44 -20.5 63.5t-101.5 19.5t-108 -19.5t-40 -63.5z
M233 565v3q5 33 21.5 48.5t49.5 15.5t57.5 -21t40.5 -21q21 0 30.5 8t12.5 27l1 4q8 3 17 3l17 -3l-1 -4q-5 -33 -21 -48.5t-50 -15.5q-32 0 -57.5 21t-41.5 21q-20 0 -29 -8t-12 -27l-1 -3q-8 -4 -17 -4z" />
    <glyph glyph-name="OE.smcp" horiz-adv-x="687" 
d="M651 0h-132q-89 0 -133 4q-63 -7 -125 -7q-101 0 -141.5 31t-31.5 92l45 285q20 122 212 122q54 0 124 -7q50 5 133 5h128q2 -8 0 -20l-6 -20h-239l-31 -195h212q2 -8 0 -20l-6 -20h-212l-34 -210h243l1 -20zM358 37l71 451h-90q-74 0 -108 -19.5t-40 -63.5l-46 -285
q-7 -44 21 -63.5t102 -19.5h90z" />
    <glyph glyph-name="P.smcp" horiz-adv-x="471" 
d="M144 521q68 6 170 6q96 0 134 -31t29 -91l-8 -52q-21 -123 -202 -123l-111 3l-37 -231q-15 -4 -29 -4l-28 4zM196 488l-35 -218h112q68 0 99.5 20t38.5 63l8 52q7 44 -18 63.5t-93 19.5h-112z" />
    <glyph glyph-name="Q.smcp" horiz-adv-x="507" 
d="M340 -130l-52 128q-9 -1 -27 -1q-101 0 -141.5 31t-31.5 92l45 285q20 123 213 123q100 0 141 -31.5t32 -91.5l-46 -285q-16 -97 -134 -117l59 -133q-13 -3 -29 -3zM191 405l-12 -71l-22 -142l-12 -72q-7 -44 21 -63.5t102 -19.5q73 0 107 19.5t41 63.5l45 285
q7 44 -20.5 63.5t-101.5 19.5t-108 -19.5t-40 -63.5z" />
    <glyph glyph-name="R.smcp" horiz-adv-x="474" 
d="M371 2l-98 228h-6l-111 3l-37 -231q-15 -4 -29 -4l-28 4l82 519q68 6 170 6q96 0 134 -31t29 -91l-8 -52q-17 -101 -138 -119l101 -232q-15 -4 -31 -4zM196 488l-35 -218h112q68 0 99.5 20t38.5 63l8 52q7 44 -18 63.5t-93 19.5h-112z" />
    <glyph glyph-name="Racute.smcp" horiz-adv-x="474" 
d="M371 2l-98 228h-6l-111 3l-37 -231q-15 -4 -29 -4l-28 4l82 519q68 6 170 6q96 0 134 -31t29 -91l-8 -52q-17 -101 -138 -119l101 -232q-15 -4 -31 -4zM196 488l-35 -218h112q68 0 99.5 20t38.5 63l8 52q7 44 -18 63.5t-93 19.5h-112zM427 658l-116 -94q-11 -3 -20 -3
l-19 3l100 94q13 3 28 3z" />
    <glyph glyph-name="Rcaron.smcp" horiz-adv-x="474" 
d="M371 2l-98 228h-6l-111 3l-37 -231q-15 -4 -29 -4l-28 4l82 519q68 6 170 6q96 0 134 -31t29 -91l-8 -52q-17 -101 -138 -119l101 -232q-15 -4 -31 -4zM196 488l-35 -218h112q68 0 99.5 20t38.5 63l8 52q7 44 -18 63.5t-93 19.5h-112zM263 653l59 -64l79 64q10 3 20 3
l19 -3l-96 -89q-12 -3 -26 -3l-25 3l-69 89q10 3 20 3z" />
    <glyph glyph-name="Rcommaaccent.smcp" horiz-adv-x="474" 
d="M371 2l-98 228h-6l-111 3l-37 -231q-15 -4 -29 -4l-28 4l82 519q68 6 170 6q96 0 134 -31t29 -91l-8 -52q-17 -101 -138 -119l101 -232q-15 -4 -31 -4zM196 488l-35 -218h112q68 0 99.5 20t38.5 63l8 52q7 44 -18 63.5t-93 19.5h-112zM256 -36q-6 -35 -22 -63t-29 -39
l-13 -10q-7 -4 -14 -4l-14 4q5 4 12.5 12.5t22 37.5t19.5 62q10 4 20 4z" />
    <glyph glyph-name="S.smcp" horiz-adv-x="464" 
d="M184 405l-6 -37q-5 -30 23 -48t70 -28.5t84 -23t68.5 -40.5t19.5 -72l-5 -36q-10 -62 -57 -92.5t-144 -30.5q-98 0 -133.5 30.5t-26.5 92.5l2 10q14 3 29 3l27 -3l-2 -10q-7 -44 18 -63.5t93 -19.5t99 19.5t37 63.5l6 36q5 32 -22.5 52t-69.5 30.5t-84 23t-69 38.5
t-20 68l6 37q10 62 56 92.5t140 30.5q95 0 129 -30.5t24 -92.5l-2 -10q-13 -4 -28 -4l-28 4l2 10q7 43 -16.5 63t-87.5 20q-65 0 -95.5 -20t-36.5 -63z" />
    <glyph glyph-name="Sacute.smcp" horiz-adv-x="464" 
d="M184 405l-6 -37q-5 -30 23 -48t70 -28.5t84 -23t68.5 -40.5t19.5 -72l-5 -36q-10 -62 -57 -92.5t-144 -30.5q-98 0 -133.5 30.5t-26.5 92.5l2 10q14 3 29 3l27 -3l-2 -10q-7 -44 18 -63.5t93 -19.5t99 19.5t37 63.5l6 36q5 32 -22.5 52t-69.5 30.5t-84 23t-69 38.5
t-20 68l6 37q10 62 56 92.5t140 30.5q95 0 129 -30.5t24 -92.5l-2 -10q-13 -4 -28 -4l-28 4l2 10q7 43 -16.5 63t-87.5 20q-65 0 -95.5 -20t-36.5 -63zM433 658l-116 -94q-11 -3 -20 -3l-19 3l101 94q12 3 27 3z" />
    <glyph glyph-name="Scaron.smcp" horiz-adv-x="464" 
d="M184 405l-6 -37q-5 -30 23 -48t70 -28.5t84 -23t68.5 -40.5t19.5 -72l-5 -36q-10 -62 -57 -92.5t-144 -30.5q-98 0 -133.5 30.5t-26.5 92.5l2 10q14 3 29 3l27 -3l-2 -10q-7 -44 18 -63.5t93 -19.5t99 19.5t37 63.5l6 36q5 32 -22.5 52t-69.5 30.5t-84 23t-69 38.5
t-20 68l6 37q10 62 56 92.5t140 30.5q95 0 129 -30.5t24 -92.5l-2 -10q-13 -4 -28 -4l-28 4l2 10q7 43 -16.5 63t-87.5 20q-65 0 -95.5 -20t-36.5 -63zM275 653l59 -64l79 64q10 3 19 3l20 -3l-97 -89q-12 -3 -25 -3l-26 3l-68 89q9 3 20 3z" />
    <glyph glyph-name="Scedilla.smcp" horiz-adv-x="464" 
d="M184 405l-6 -37q-5 -30 23 -48t70 -28.5t84 -23t68.5 -40.5t19.5 -72l-5 -36q-10 -60 -53.5 -90.5t-131.5 -32.5l-1 -8q-2 -11 8 -17t22 -8.5t21 -11t7 -22.5l-1 -6q-8 -50 -81 -50q-40 0 -53 12.5t-8 38.5v4q10 2 17 2l16 -2v-4q-3 -15 4 -21t29 -6q21 0 30 5.5t11 20.5
l1 6q1 8 -8.5 13t-21 7.5t-20.5 12t-6 26.5l1 9q-88 2 -120 32.5t-23 89.5l2 10q14 3 29 3l27 -3l-2 -10q-7 -44 18 -63.5t93 -19.5t99 19.5t37 63.5l6 36q5 32 -22.5 52t-69.5 30.5t-84 23t-69 38.5t-20 68l6 37q10 62 56 92.5t140 30.5q95 0 129 -30.5t24 -92.5l-2 -10
q-13 -4 -28 -4l-28 4l2 10q7 43 -16.5 63t-87.5 20q-65 0 -95.5 -20t-36.5 -63z" />
    <glyph glyph-name="Scircumflex.smcp" horiz-adv-x="464" 
d="M184 405l-6 -37q-5 -30 23 -48t70 -28.5t84 -23t68.5 -40.5t19.5 -72l-5 -36q-10 -62 -57 -92.5t-144 -30.5q-98 0 -133.5 30.5t-26.5 92.5l2 10q14 3 29 3l27 -3l-2 -10q-7 -44 18 -63.5t93 -19.5t99 19.5t37 63.5l6 36q5 32 -22.5 52t-69.5 30.5t-84 23t-69 38.5
t-20 68l6 37q10 62 56 92.5t140 30.5q95 0 129 -30.5t24 -92.5l-2 -10q-13 -4 -28 -4l-28 4l2 10q7 43 -16.5 63t-87.5 20q-65 0 -95.5 -20t-36.5 -63zM399 564l-59 65l-80 -65q-10 -3 -19 -3l-19 3l96 89q12 3 26 3l26 -3l68 -89q-9 -3 -20 -3z" />
    <glyph glyph-name="Scommaaccent.smcp" horiz-adv-x="464" 
d="M184 405l-6 -37q-5 -30 23 -48t70 -28.5t84 -23t68.5 -40.5t19.5 -72l-5 -36q-10 -62 -57 -92.5t-144 -30.5q-98 0 -133.5 30.5t-26.5 92.5l2 10q14 3 29 3l27 -3l-2 -10q-7 -44 18 -63.5t93 -19.5t99 19.5t37 63.5l6 36q5 32 -22.5 52t-69.5 30.5t-84 23t-69 38.5
t-20 68l6 37q10 62 56 92.5t140 30.5q95 0 129 -30.5t24 -92.5l-2 -10q-13 -4 -28 -4l-28 4l2 10q7 43 -16.5 63t-87.5 20q-65 0 -95.5 -20t-36.5 -63zM249 -36q-5 -35 -21 -63t-29 -39l-13 -10q-8 -4 -14 -4l-14 4q5 4 12 12.5t21.5 37.5t19.5 62q10 4 20 4z" />
    <glyph glyph-name="T.smcp" horiz-adv-x="459" 
d="M494 485h-159l-77 -483q-15 -4 -30 -4l-27 4l76 483h-162l-1 20l7 20h380q1 -8 -1 -20z" />
    <glyph glyph-name="Tbar.smcp" horiz-adv-x="459" 
d="M431 258h-132l-41 -256q-15 -4 -30 -4l-27 4l41 256h-132l-1 18l6 19h132l30 190h-162l-1 20l7 20h380q1 -8 -1 -20l-6 -20h-159l-31 -190h132l1 -19z" />
    <glyph glyph-name="Tcaron.smcp" horiz-adv-x="459" 
d="M494 485h-159l-77 -483q-15 -4 -30 -4l-27 4l76 483h-162l-1 20l7 20h380q1 -8 -1 -20zM264 653l58 -64l80 64q10 3 19 3l19 -3l-96 -89q-12 -3 -26 -3l-25 3l-69 89q10 3 21 3z" />
    <glyph glyph-name="Tcommaaccent.smcp" horiz-adv-x="459" 
d="M494 485h-159l-77 -483q-15 -4 -30 -4l-27 4l76 483h-162l-1 20l7 20h380q1 -8 -1 -20zM243 -36q-5 -35 -21 -63t-30 -39l-13 -10q-7 -4 -14 -4l-14 4q5 4 12.5 12.5t22 37.5t19.5 62q10 4 20 4z" />
    <glyph glyph-name="uni021A.smcp" horiz-adv-x="459" 
d="M494 485h-159l-77 -483q-15 -4 -30 -4l-27 4l76 483h-162l-1 20l7 20h380q1 -8 -1 -20zM243 -36q-5 -35 -21 -63t-30 -39l-13 -10q-7 -4 -14 -4l-14 4q5 4 12.5 12.5t22 37.5t19.5 62q10 4 20 4z" />
    <glyph glyph-name="U.smcp" horiz-adv-x="502" 
d="M531 523l-63 -403q-19 -123 -209 -123q-99 0 -139 31t-31 92l64 403q14 3 30 3l27 -3l-64 -403q-6 -44 21 -63.5t98 -19.5q72 0 105.5 19.5t39.5 63.5l64 403q15 3 30 3z" />
    <glyph glyph-name="Uacute.smcp" horiz-adv-x="502" 
d="M531 523l-63 -403q-19 -123 -209 -123q-99 0 -139 31t-31 92l64 403q14 3 30 3l27 -3l-64 -403q-6 -44 21 -63.5t98 -19.5q72 0 105.5 19.5t39.5 63.5l64 403q15 3 30 3zM452 658l-116 -94q-10 -3 -20 -3l-19 3l101 94q13 3 27 3z" />
    <glyph glyph-name="Ubreve.smcp" horiz-adv-x="502" 
d="M531 523l-63 -403q-19 -123 -209 -123q-99 0 -139 31t-31 92l64 403q14 3 30 3l27 -3l-64 -403q-6 -44 21 -63.5t98 -19.5q72 0 105.5 19.5t39.5 63.5l64 403q15 3 30 3zM349 561q-56 0 -75.5 18.5t-13.5 57.5l1 7q9 4 20 4l18 -4l-1 -7q-4 -26 8 -37t47 -11t50.5 11.5
t19.5 36.5l1 7q10 4 20 4l19 -4l-1 -7q-6 -39 -31.5 -57.5t-81.5 -18.5z" />
    <glyph glyph-name="Ucircumflex.smcp" horiz-adv-x="502" 
d="M531 523l-63 -403q-19 -123 -209 -123q-99 0 -139 31t-31 92l64 403q14 3 30 3l27 -3l-64 -403q-6 -44 21 -63.5t98 -19.5q72 0 105.5 19.5t39.5 63.5l64 403q15 3 30 3zM418 564l-59 65l-79 -65q-10 -3 -19 -3l-20 3l97 89q12 3 25 3l26 -3l68 -89q-9 -3 -20 -3z" />
    <glyph glyph-name="Udieresis.smcp" horiz-adv-x="502" 
d="M531 523l-63 -403q-19 -123 -209 -123q-99 0 -139 31t-31 92l64 403q14 3 30 3l27 -3l-64 -403q-6 -44 21 -63.5t98 -19.5q72 0 105.5 19.5t39.5 63.5l64 403q15 3 30 3zM299 638l-12 -74q-10 -3 -22 -3l-23 3l12 74q10 3 23 3zM467 638l-12 -74q-10 -3 -22 -3l-23 3
l12 74q10 3 23 3z" />
    <glyph glyph-name="Ugrave.smcp" horiz-adv-x="502" 
d="M531 523l-63 -403q-19 -123 -209 -123q-99 0 -139 31t-31 92l64 403q14 3 30 3l27 -3l-64 -403q-6 -44 21 -63.5t98 -19.5q72 0 105.5 19.5t39.5 63.5l64 403q15 3 30 3zM362 564l-86 94q14 3 28 3l26 -3l71 -94q-9 -3 -19 -3z" />
    <glyph glyph-name="Uhungarumlaut.smcp" horiz-adv-x="502" 
d="M531 523l-63 -403q-19 -123 -209 -123q-99 0 -139 31t-31 92l64 403q14 3 30 3l27 -3l-64 -403q-6 -44 21 -63.5t98 -19.5q72 0 105.5 19.5t39.5 63.5l64 403q15 3 30 3zM386 658l-117 -94q-10 -3 -19 -3l-19 3l101 94q13 3 27 3zM520 658l-117 -94q-10 -3 -19 -3l-20 3
l101 94q13 3 28 3z" />
    <glyph glyph-name="Umacron.smcp" horiz-adv-x="502" 
d="M531 523l-63 -403q-19 -123 -209 -123q-99 0 -139 31t-31 92l64 403q14 3 30 3l27 -3l-64 -403q-6 -44 21 -63.5t98 -19.5q72 0 105.5 19.5t39.5 63.5l64 403q15 3 30 3zM448 580h-192l-1 15l5 15h192l1 -15z" />
    <glyph glyph-name="Uogonek.smcp" horiz-adv-x="502" 
d="M252 -64q4 31 46 63q-26 -2 -39 -2q-99 0 -139 31t-31 92l64 403q14 3 30 3l27 -3l-64 -403q-6 -44 21 -63.5t98 -19.5q72 0 105.5 19.5t39.5 63.5l64 403q15 3 30 3l27 -3l-63 -403q-16 -99 -138 -118q-38 -31 -43 -64q-6 -32 32 -32q12 0 24 3t18 7l5 3l1 -13l-4 -12
q-20 -14 -56 -14q-63 0 -55 56z" />
    <glyph glyph-name="Uring.smcp" horiz-adv-x="502" 
d="M531 523l-63 -403q-19 -123 -209 -123q-99 0 -139 31t-31 92l64 403q14 3 30 3l27 -3l-64 -403q-6 -44 21 -63.5t98 -19.5q72 0 105.5 19.5t39.5 63.5l64 403q15 3 30 3zM291 608l2 13q8 51 73 51t57 -51l-2 -13q-8 -50 -73 -50t-57 50zM321 621l-2 -13q-3 -14 4.5 -20.5
t28.5 -6.5q37 0 42 27l2 13q2 15 -6 21.5t-28 6.5q-38 0 -41 -28z" />
    <glyph glyph-name="Utilde.smcp" horiz-adv-x="502" 
d="M531 523l-63 -403q-19 -123 -209 -123q-99 0 -139 31t-31 92l64 403q14 3 30 3l27 -3l-64 -403q-6 -44 21 -63.5t98 -19.5q72 0 105.5 19.5t39.5 63.5l64 403q15 3 30 3zM231 565v3q5 33 21.5 48.5t49.5 15.5t57.5 -21t41.5 -21q20 0 29.5 8t12.5 27l1 4q8 3 17 3l17 -3
l-1 -4q-9 -64 -70 -64q-33 0 -58.5 21t-41.5 21q-20 0 -29 -8t-12 -27l-1 -3q-8 -4 -17 -4z" />
    <glyph glyph-name="V.smcp" horiz-adv-x="495" 
d="M209 2l-99 521q15 3 29 3l28 -3l88 -473l237 473q16 3 30 3l27 -3l-263 -521q-18 -4 -39 -4z" />
    <glyph glyph-name="W.smcp" horiz-adv-x="768" 
d="M510 2l-53 464l-199 -464q-18 -4 -39 -4l-39 4l-67 521q16 3 30 3l28 -3l58 -469l202 469q16 3 36 3l35 -3l54 -469l205 469q16 3 30 3l28 -3l-231 -521q-19 -4 -40 -4z" />
    <glyph glyph-name="Wacute.smcp" horiz-adv-x="768" 
d="M510 2l-53 464l-199 -464q-18 -4 -39 -4l-39 4l-67 521q16 3 30 3l28 -3l58 -469l202 469q16 3 36 3l35 -3l54 -469l205 469q16 3 30 3l28 -3l-231 -521q-19 -4 -40 -4zM576 658l-117 -94q-10 -3 -19 -3l-19 3l101 94q13 3 27 3z" />
    <glyph glyph-name="Wcircumflex.smcp" horiz-adv-x="768" 
d="M510 2l-53 464l-199 -464q-18 -4 -39 -4l-39 4l-67 521q16 3 30 3l28 -3l58 -469l202 469q16 3 36 3l35 -3l54 -469l205 469q16 3 30 3l28 -3l-231 -521q-19 -4 -40 -4zM541 564l-58 65l-79 -65q-11 -3 -20 -3l-19 3l96 89q12 3 26 3l26 -3l67 -89q-8 -3 -19 -3z" />
    </font>
</defs>
</svg>
