<?xml version="1.0" standalone="no"?>
<!DOCTYPE svg PUBLIC "-//W3C//DTD SVG 1.1//EN" "http://www.w3.org/Graphics/SVG/1.1/DTD/svg11.dtd" >
<svg xmlns="http://www.w3.org/2000/svg" xmlns:xlink="http://www.w3.org/1999/xlink" version="1.1">
<metadata>
Created by FontForge 20170731 at Sun Dec 22 19:41:49 2013
 By Aleksey,,,
Copyright (c) 2013 by Andriy Konstantynov. All rights reserved.
</metadata>
<defs>
<font id="PancettaPro-SemiBoldItalic" horiz-adv-x="515" >
  <font-face 
    font-family="Pancetta Pro"
    font-weight="600"
    font-style="italic"
    font-stretch="normal"
    units-per-em="1000"
    panose-1="2 11 0 3 3 2 0 8 0 4"
    ascent="773"
    descent="-227"
    x-height="500"
    cap-height="703"
    bbox="-76.8 -208 1137.13 900"
    underline-thickness="50"
    underline-position="-150"
    unicode-range="U+0020-FB03"
  />
<missing-glyph horiz-adv-x="211" 
 />
    <glyph glyph-name="ff" unicode="ff" horiz-adv-x="685" 
d="M720 418h-124l-97 -614q-34 -6 -67 -6l-65 6l97 614h-183l-97 -614q-34 -6 -67 -6l-65 6l97 614h-46q-2 16 1 41q2 11 5 21.5t5 15.5l3 5h46l7 47q12 79 53.5 118.5t120.5 39.5q34 0 106 -12q2 -19 -2 -40l-11 -38q-18 7 -59 7q-36 0 -52.5 -17t-23.5 -58l-7 -47h182
l7 47q13 79 54 118.5t120 39.5q34 0 106 -12q2 -19 -1 -40l-11 -38q-18 7 -59 7q-37 0 -53.5 -17t-23.5 -58l-7 -47h125q3 -17 -1 -42q-2 -11 -5 -21.5t-6 -15.5z" />
    <glyph glyph-name="fi" unicode="fi" horiz-adv-x="621" 
d="M406 418h-125l-97 -614q-34 -6 -67 -6l-65 6l97 614h-46q-2 16 1 41q2 11 5 21.5t5 15.5l3 5h46l7 47q12 79 53.5 118.5t120.5 39.5q34 0 106 -12q2 -19 -2 -40l-11 -38q-18 7 -59 7q-36 0 -52.5 -17t-23.5 -58l-7 -47h124q3 -17 -1 -42q-1 -11 -4 -21.5t-6 -15.5z
M649 697l-18 -117q-35 -6 -68 -6l-64 6l18 117q34 6 67 6zM592 76q11 0 25 4q3 -17 0 -37l-11 -36q-38 -14 -76 -14q-125 0 -103 136l58 368q34 6 67 6l65 -6l-58 -368q-4 -29 3 -41t30 -12z" />
    <glyph glyph-name="ffi" unicode="ffi" horiz-adv-x="936" 
d="M720 418h-124l-97 -614q-34 -6 -67 -6l-65 6l97 614h-183l-97 -614q-34 -6 -67 -6l-65 6l97 614h-46q-2 16 1 41q2 11 5 21.5t5 15.5l3 5h46l7 47q12 79 53.5 118.5t120.5 39.5q34 0 106 -12q2 -19 -2 -40l-11 -38q-18 7 -59 7q-36 0 -52.5 -17t-23.5 -58l-7 -47h182
l7 47q13 79 54 118.5t120 39.5q34 0 106 -12q2 -19 -1 -40l-11 -38q-18 7 -59 7q-37 0 -53.5 -17t-23.5 -58l-7 -47h125q3 -17 -1 -42q-2 -11 -5 -21.5t-6 -15.5zM964 697l-18 -117q-35 -6 -68 -6l-64 6l18 117q34 6 67 6zM907 76q9 0 25 4q3 -17 0 -37l-11 -36
q-38 -14 -76 -14q-66 0 -90 34t-13 102l58 368q34 6 67 6l65 -6l-58 -368q-5 -29 2.5 -41t30.5 -12z" />
    <glyph glyph-name="f_f_j" unicode="ffj" horiz-adv-x="906" 
d="M720 418h-124l-97 -614q-34 -6 -67 -6l-65 6l97 614h-183l-97 -614q-34 -6 -67 -6l-65 6l97 614h-46q-2 16 1 41q2 11 5 21.5t5 15.5l3 5h46l7 47q12 79 53.5 118.5t120.5 39.5q34 0 106 -12q2 -19 -2 -40l-11 -38q-18 7 -59 7q-36 0 -52.5 -17t-23.5 -58l-7 -47h182
l7 47q13 79 54 118.5t120 39.5q34 0 106 -12q2 -19 -1 -40l-11 -38q-18 7 -59 7q-37 0 -53.5 -17t-23.5 -58l-7 -47h125q3 -17 -1 -42q-2 -11 -5 -21.5t-6 -15.5zM717 -52l86 549q34 6 67 6l65 -6l-86 -549q-12 -77 -51.5 -116t-115.5 -39q-18 0 -36 2t-29 5t-20.5 5.5
t-10.5 2.5q-2 18 1 38l11 38q24 -8 49 -8q33 0 48.5 16.5t21.5 55.5zM967 697l-18 -117q-35 -6 -68 -6l-64 6l18 117q34 6 67 6z" />
    <glyph glyph-name="f_j" unicode="fj" horiz-adv-x="592" 
d="M406 418h-125l-97 -614q-34 -6 -67 -6l-65 6l97 614h-46q-2 16 1 41q2 11 5 21.5t5 15.5l3 5h46l7 47q12 79 53.5 118.5t120.5 39.5q34 0 106 -12q2 -19 -2 -40l-11 -38q-18 7 -59 7q-36 0 -52.5 -17t-23.5 -58l-7 -47h124q3 -17 -1 -42q-1 -11 -4 -21.5t-6 -15.5z
M403 -52l86 549q34 6 67 6l65 -6l-86 -549q-12 -77 -51.5 -116t-115.5 -39q-18 0 -36 2t-29 5t-20.5 5.5t-10.5 2.5q-2 18 1 38l12 38q20 -8 48 -8q33 0 48.5 16.5t21.5 55.5zM653 697l-18 -117q-34 -6 -67 -6l-65 6l18 117q34 6 67 6z" />
    <glyph glyph-name="f_iogonek" unicode="f&#x12f;" horiz-adv-x="621" 
d="M406 418h-125l-97 -614q-34 -6 -67 -6l-65 6l97 614h-46q-2 16 1 41q2 11 5 21.5t5 15.5l3 5h46l7 47q12 79 53.5 118.5t120.5 39.5q34 0 106 -12q2 -19 -2 -40l-11 -38q-18 7 -59 7q-36 0 -52.5 -17t-23.5 -58l-7 -47h124q3 -17 -1 -42q-1 -11 -4 -21.5t-6 -15.5z
M450 -92q7 43 58 86q-101 10 -81 135l58 368q34 6 67 6l65 -6l-58 -368q-4 -29 3 -41t30 -12q11 0 25 4q3 -17 0 -37l-11 -36q-21 -8 -38 -10q-40 -46 -44 -79q-6 -35 29 -35q10 0 20.5 3t16.5 6l5 3l1 -24l-8 -23q-23 -18 -65 -18q-84 0 -73 78zM649 697l-18 -117
q-35 -6 -68 -6l-64 6l18 117q34 6 67 6z" />
    <glyph glyph-name="f_f_iogonek" unicode="ff&#x12f;" horiz-adv-x="936" 
d="M720 418h-124l-97 -614q-34 -6 -67 -6l-65 6l97 614h-183l-97 -614q-34 -6 -67 -6l-65 6l97 614h-46q-2 16 1 41q2 11 5 21.5t5 15.5l3 5h46l7 47q12 79 53.5 118.5t120.5 39.5q34 0 106 -12q2 -19 -2 -40l-11 -38q-18 7 -59 7q-36 0 -52.5 -17t-23.5 -58l-7 -47h182
l7 47q13 79 54 118.5t120 39.5q34 0 106 -12q2 -19 -1 -40l-11 -38q-18 7 -59 7q-37 0 -53.5 -17t-23.5 -58l-7 -47h125q3 -17 -1 -42q-2 -11 -5 -21.5t-6 -15.5zM907 76q9 0 25 4q3 -17 0 -37l-11 -36q-21 -8 -37 -10q-40 -46 -45 -79q-4 -35 29 -35q11 0 21.5 3t15.5 6
l5 3l1 -24l-8 -23q-23 -18 -64 -18q-42 0 -60.5 20.5t-12.5 57.5q6 44 58 86q-102 10 -82 135l58 368q34 6 67 6l65 -6l-58 -368q-5 -29 2.5 -41t30.5 -12zM964 697l-18 -117q-35 -6 -68 -6l-64 6l18 117q34 6 67 6z" />
    <glyph glyph-name="quoteright_afii10104" unicode="&#x2019;&#x457;" horiz-adv-x="397" 
d="M370 497l-78 -494q-34 -6 -67 -6l-65 6l78 494q34 6 67 6zM269 697q-7 -47 -22 -88.5t-31 -67t-31 -44t-25 -26.5l-9 -8q-16 -6 -32 -6l-30 6q6 8 15 25t29.5 77.5t31.5 131.5q27 6 53 6zM472 697l-16 -106q-25 -7 -53 -7q-13 0 -25.5 2t-19.5 4l-6 1l16 106q24 6 53 6
q13 0 26 -1.5t19 -3.5z" />
    <glyph glyph-name="afii10103_afii10104" unicode="&#x456;&#x457;" horiz-adv-x="458" 
d="M258 497l-78 -494q-34 -6 -67 -6l-65 6l78 494q34 6 67 6zM276 697l-18 -117q-31 -6 -60 -6l-58 6l18 117q31 6 60 6zM487 497l-78 -494q-34 -6 -67 -6l-65 6l78 494q34 6 67 6zM433 697l-17 -106q-24 -7 -53 -7q-13 0 -25.5 2t-19.5 4l-6 1l17 106q24 6 53 6
q13 0 25.5 -1.5t18.5 -3.5zM589 697l-16 -106q-25 -7 -53 -7q-13 0 -25.5 2t-18.5 4l-7 1l16 106q24 6 53 6q13 0 26 -1.5t19 -3.5z" />
    <glyph glyph-name="afii10104_afii10104" unicode="&#x457;&#x457;" horiz-adv-x="458" 
d="M258 497l-78 -494q-34 -6 -67 -6l-65 6l78 494q34 6 67 6zM192 697l-16 -106q-25 -7 -53 -7q-13 0 -25.5 2t-19.5 4l-6 1l16 106q24 6 53 6q13 0 26 -1.5t19 -3.5zM391 697l-17 -106q-24 -7 -53 -7q-13 0 -25.5 2t-19.5 4l-6 1l17 106q24 6 53 6q13 0 25.5 -1.5
t18.5 -3.5zM487 497l-78 -494q-34 -6 -67 -6l-65 6l78 494q34 6 67 6zM589 697l-16 -106q-25 -7 -53 -7q-13 0 -25.5 2t-18.5 4l-7 1l16 106q24 6 53 6q13 0 26 -1.5t19 -3.5z" />
    <glyph glyph-name=".notdef" horiz-adv-x="211" 
 />
    <glyph glyph-name=".null" horiz-adv-x="0" 
 />
    <glyph glyph-name="nonmarkingreturn" horiz-adv-x="333" 
 />
    <glyph glyph-name="space" unicode=" " horiz-adv-x="211" 
 />
    <glyph glyph-name="exclam" unicode="!" horiz-adv-x="229" 
d="M201 126l-20 -123q-34 -6 -68 -6l-65 6l20 123q33 6 67 6zM290 697l-76 -480q-33 -6 -66 -6l-66 6l76 480q34 6 67 6z" />
    <glyph glyph-name="quotedbl" unicode="&#x22;" horiz-adv-x="322" 
d="M248 697l-43 -208q-20 -6 -39 -6l-37 6l22 208q25 6 50 6zM390 697l-43 -208q-20 -6 -39 -6l-37 6l22 208q25 6 50 6z" />
    <glyph glyph-name="numbersign" unicode="#" horiz-adv-x="535" 
d="M508 168h-55l-40 -165q-27 -6 -53 -6l-51 6l40 165h-136l-40 -165q-27 -6 -53 -6l-51 6l40 165h-45q-4 16 1 42q1 11 4 21.5t5 14.5l2 5h54l47 197h-46q-3 16 1 42q2 11 5 21.5t5 14.5l3 5h53l41 166q27 6 53 6l51 -6l-41 -166h136l41 166q27 6 53 6l51 -6l-41 -166h47
q3 -16 -1 -41l-12 -42h-55l-47 -197h47q4 -16 0 -41q-2 -11 -5 -21.5t-6 -15.5zM281 448l-47 -197h136l47 197h-136z" />
    <glyph glyph-name="dollar" unicode="$" horiz-adv-x="562" 
d="M273 518l-5 -36q-5 -29 27.5 -48.5t81.5 -32.5t97 -31t77.5 -56.5t20.5 -96.5l-6 -35q-13 -84 -66 -130.5t-157 -55.5l-15 -93q-26 -6 -52 -6l-52 6l15 93q-104 8 -139.5 54t-21.5 132l2 12q35 7 69 7q15 0 31.5 -1.5t25.5 -3.5l9 -2l-2 -12q-8 -54 11.5 -76.5
t79.5 -22.5q61 0 87.5 22t35.5 77l6 35q4 24 -12.5 41.5t-45.5 28.5t-64 21t-69.5 23t-62 31t-41.5 48.5t-8 71.5l6 36q12 84 63 130t152 55l15 94q27 6 53 6l51 -6l-15 -93q103 -9 137 -54t20 -132l-2 -12q-35 -7 -68 -7q-16 0 -32.5 1.5t-25.5 3.5l-9 2l2 12
q8 53 -10 75.5t-75 22.5t-84 -22.5t-35 -75.5z" />
    <glyph glyph-name="percent" unicode="%" horiz-adv-x="645" 
d="M704 697l-539 -694q-30 -6 -57 -6l-56 6l539 694q28 6 57 6zM121 562l4 29q18 112 151 112q68 0 95.5 -29.5t19.5 -82.5l-4 -29q-19 -113 -151 -113q-68 0 -96 30t-19 83zM364 109l5 29q18 112 150 112q69 0 96.5 -29.5t18.5 -82.5l-5 -29q-17 -112 -150 -112
q-68 0 -95.5 29.5t-19.5 82.5zM449 138l-5 -29q-3 -22 7.5 -32t39.5 -10q53 0 59 42l5 29q4 21 -7 31t-39 10q-53 0 -60 -41zM205 591l-4 -29q-4 -22 6.5 -32t39.5 -10q53 0 60 42l4 29q3 21 -7.5 31t-38.5 10q-54 0 -60 -41z" />
    <glyph glyph-name="ampersand" unicode="&#x26;" horiz-adv-x="680" 
d="M714 417h-118l-41 -266q-7 -41 4.5 -58t49.5 -17q23 0 53 12q2 -17 -1 -37l-11 -38l-15 -5q-15 -6 -37 -10.5t-43 -4.5q-58 0 -86 25q-1 0 -29 -8t-57.5 -12.5t-63.5 -4.5q-142 0 -198.5 47t-40.5 139l5 39q18 109 135 142q-96 33 -79 134l4 31q15 90 79 135.5t191 45.5
q128 0 170.5 -43.5t28.5 -134.5l-4 -28h117q3 -17 -1 -42q-1 -11 -4 -21t-6 -15zM367 398h43q4 -17 0 -42q-2 -11 -5 -21t-5 -15l-3 -5h-43q-67 0 -98 -22.5t-39 -74.5l-5 -39q-9 -55 17 -79t103 -24q53 0 103 20q-3 24 3 55l59 377q8 52 -12.5 73.5t-82.5 21.5
q-60 0 -88.5 -23t-36.5 -75l-4 -31q-8 -51 12.5 -73.5t81.5 -22.5z" />
    <glyph glyph-name="quotesingle" unicode="'" horiz-adv-x="180" 
d="M248 697l-43 -208q-20 -6 -39 -6l-37 6l22 208q25 6 50 6z" />
    <glyph glyph-name="parenleft" unicode="(" horiz-adv-x="282" 
d="M254 -66q4 -16 0 -41l-13 -42q-108 0 -149 43t-28 128l89 559q13 85 68 128t163 43q3 -18 -1 -42q-1 -11 -4 -21.5t-6 -14.5l-2 -5q-47 0 -68 -20t-28 -68l-89 -559q-8 -48 7 -68t61 -20z" />
    <glyph glyph-name="parenright" unicode=")" horiz-adv-x="282" 
d="M137 669q-2 16 2 41q1 12 4 22.5t6 15.5l2 4q108 0 149 -43t28 -128l-89 -559q-13 -85 -67.5 -128t-162.5 -43q-3 18 1 42q1 11 4 21.5t5 15.5l2 4q47 0 68 20t29 68l89 559q7 48 -8.5 68t-61.5 20z" />
    <glyph glyph-name="asterisk" unicode="*" horiz-adv-x="468" 
d="M155 604l124 -50l16 143q25 6 50 6l47 -6l-29 -143l141 51q10 -20 14 -44q2 -10 2 -22.5v-19.5l-1 -7l-143 -37l72 -111q-19 -19 -41 -34l-47 -23l-59 119l-98 -119q-21 9 -39 23q-8 7 -15 15.5t-11 13.5l-3 5l105 111l-130 37q4 25 16 48q5 11 12 22t12 16z" />
    <glyph glyph-name="plus" unicode="+" horiz-adv-x="404" 
d="M320 467l-19 -126h124q3 -16 -1 -41q-2 -11 -5 -21.5t-6 -15.5l-2 -5h-124l-19 -124q-18 -6 -44 -6q-12 0 -22.5 1.5t-14.5 2.5l-5 2l19 124h-123q-3 16 1 42q2 11 5 21.5t5 14.5l3 5h123l20 126q18 6 44 6q11 0 21.5 -1.5t14.5 -3.5z" />
    <glyph glyph-name="comma" unicode="," horiz-adv-x="222" 
d="M191 126q-12 -75 -44 -135t-57 -83l-26 -23q-21 -6 -40 -6l-35 6q6 9 16 27t32 80.5t33 133.5q31 6 61 6z" />
    <glyph glyph-name="hyphen" unicode="-" horiz-adv-x="281" 
d="M285 238h-210q-3 16 1 41q1 11 4 21.5t5 15.5l3 5h211q2 -17 -1 -42q-2 -11 -5 -21t-6 -15z" />
    <glyph glyph-name="period" unicode="." horiz-adv-x="222" 
d="M194 126l-20 -123q-33 -6 -64 -6l-62 6l20 123q31 6 63 6z" />
    <glyph glyph-name="slash" unicode="/" horiz-adv-x="387" 
d="M480 747l-345 -844q-33 -6 -63 -6l-62 6l345 844q31 6 63 6z" />
    <glyph glyph-name="zero" unicode="0" horiz-adv-x="560" 
d="M83 164l59 371q13 85 75 128t187 43q124 0 172 -42.5t35 -128.5l-59 -371q-13 -85 -75 -128t-186 -43t-172.5 43t-35.5 128zM274 535l-15 -93q-14 -92 -29 -185l-15 -93q-7 -47 12.5 -67.5t76.5 -20.5t83 20.5t33 67.5l59 371q8 48 -11.5 68t-76.5 20q-58 0 -83.5 -20
t-33.5 -68z" />
    <glyph glyph-name="one" unicode="1" horiz-adv-x="378" 
d="M399 702l-111 -699q-34 -6 -67 -6l-65 6l95 599q-34 0 -65 2t-46 4l-14 2q-2 18 1 43l12 42q101 7 260 7z" />
    <glyph glyph-name="two" unicode="2" horiz-adv-x="553" 
d="M458 482l5 36q9 56 -11.5 80.5t-80.5 24.5t-87 -24t-36 -81l-2 -12q-32 -7 -65 -7q-14 0 -30 1.5t-25 3.5l-8 2l2 12q15 96 73.5 142t191.5 46q127 0 175.5 -46.5t33.5 -141.5l-5 -36q-11 -66 -53 -111.5t-95.5 -69.5t-106.5 -45t-93 -53.5t-48 -80.5l-6 -39h328
q3 -17 -1 -41l-12 -42h-243q-57 0 -110.5 2t-78.5 4l-24 3l19 113q8 55 39.5 96.5t72 63.5t88 44t87.5 39t69.5 47t36.5 70z" />
    <glyph glyph-name="three" unicode="3" horiz-adv-x="539" 
d="M149 613q-2 18 1 43q2 11 5 22t5 16l3 6h422q3 -17 0 -42l-13 -41l-217 -207q118 0 157 -48.5t26 -133.5l-8 -49q-15 -92 -84 -139t-208 -47q-53 0 -99.5 10.5t-66.5 20.5l-20 10q-1 2 -1.5 5.5t-1 15t1.5 22.5q1 7 3 14t4 12t3.5 8.5t2.5 5.5l1 2q0 -2 20.5 -11.5
t67 -20.5t97.5 -11q73 0 106 24t42 79l8 49q8 54 -16.5 77.5t-93.5 23.5h-82q-4 17 1 43l12 44l202 197h-280z" />
    <glyph glyph-name="four" unicode="4" horiz-adv-x="552" 
d="M547 497l-40 -254h57q3 -18 -1 -43q-1 -11 -4 -22t-6 -16l-2 -6h-54l-24 -153q-33 -6 -66 -6l-63 6l24 153h-301q-3 17 1 42l250 499q25 5 62 5l66 -5l-227 -454h164l40 254q32 6 63 6z" />
    <glyph glyph-name="five" unicode="5" horiz-adv-x="532" 
d="M294 617l-43 -195h62q71 0 118.5 -13t70 -37t30 -59t-0.5 -79l-9 -55q-15 -92 -82.5 -139t-202.5 -47q-53 0 -100 10.5t-67 20.5l-20 10q-1 2 -1.5 5.5t-1 15t1.5 22.5t6 21.5t7 15.5l2 5q0 -2 20.5 -11.5t66.5 -20.5t97 -11q70 0 101.5 24t40.5 79l9 55q8 53 -14 76.5
t-86 23.5h-179q-3 18 2 44l74 313q86 9 214 9h147q3 -17 0 -42l-13 -41h-250z" />
    <glyph glyph-name="six" unicode="6" horiz-adv-x="556" 
d="M254 411q69 41 168 41q92 0 126 -43t20 -128l-19 -117q-13 -85 -74.5 -128t-185.5 -43t-171.5 43t-34.5 128l56 353q31 189 289 189q44 0 85 -6t60 -12l18 -7q3 -16 -1 -41q-1 -7 -3 -14t-3.5 -12t-3 -8.5t-2.5 -5.5l-1 -2q0 1 -19.5 7t-62 12t-88.5 6q-66 0 -96.5 -26
t-39.5 -80zM243 334l-28 -170q-7 -48 12 -68t76 -20q56 0 81.5 20.5t32.5 67.5l19 117q8 48 -8 68t-66 20q-36 0 -66 -8.5t-41 -17.5z" />
    <glyph glyph-name="seven" unicode="7" horiz-adv-x="527" 
d="M593 658l-335 -655q-27 -6 -66 -6q-18 0 -35.5 1.5t-25.5 3.5l-8 1l319 610h-302q-3 18 1 43l12 44h440q4 -17 0 -42z" />
    <glyph glyph-name="eight" unicode="8" horiz-adv-x="559" 
d="M146 487l8 48q13 85 72.5 128t177.5 43t163.5 -43t32.5 -128l-8 -48q-16 -94 -97 -127q87 -33 71 -132l-10 -64q-13 -85 -76 -128t-189 -43t-175 43t-36 128l10 64q16 100 113 132q-73 35 -57 127zM222 228l-10 -64q-8 -47 12.5 -67.5t79.5 -20.5q60 0 86 20t34 68l10 64
q8 48 -12.5 68t-79.5 20q-60 0 -86 -20t-34 -68zM286 535l-8 -48q-7 -47 10 -67.5t67 -20.5q51 0 74.5 20.5t30.5 67.5l8 48q7 48 -10 68t-67 20q-51 0 -74.5 -20t-30.5 -68z" />
    <glyph glyph-name="nine" unicode="9" horiz-adv-x="556" 
d="M410 182l19 118q-68 -41 -167 -41q-92 0 -126 43t-20 128l16 105q13 85 75 128t186 43q123 0 170.5 -43t34.5 -128l-55 -353q-32 -189 -292 -189q-45 0 -87 6.5t-61 12.5l-19 6q-3 17 1 42q2 11 5 21t5 15l2 6q0 -1 20.5 -7t64.5 -12.5t91 -6.5q67 0 98 26.5t39 79.5z
M441 377l25 158q8 48 -11 68t-76 20q-56 0 -81.5 -20t-33.5 -68l-16 -105q-8 -48 8 -68t65 -20q36 0 66 9t42 17z" />
    <glyph glyph-name="colon" unicode=":" horiz-adv-x="222" 
d="M194 126l-20 -123q-33 -6 -64 -6l-62 6l20 123q31 6 63 6zM252 497l-19 -123q-33 -6 -64 -6l-62 6l19 123q32 6 64 6z" />
    <glyph glyph-name="semicolon" unicode=";" horiz-adv-x="222" 
d="M252 497l-19 -123q-33 -6 -64 -6l-62 6l19 123q32 6 64 6zM191 126q-12 -75 -44 -135t-57 -83l-26 -23q-21 -6 -40 -6l-35 6q6 9 16 27t32 80.5t33 133.5q31 6 61 6z" />
    <glyph glyph-name="less" unicode="&#x3c;" horiz-adv-x="459" 
d="M482 418l-230 -112l195 -112q2 -28 -2 -52l-14 -49l-354 213l421 214q2 -28 -2 -51z" />
    <glyph glyph-name="equal" unicode="=" horiz-adv-x="424" 
d="M417 167h-354q-3 16 1 42q2 11 5 21.5t6 15.5l2 4h353q3 -16 -1 -41zM448 363h-353q-4 16 1 41q1 11 4 21.5t5 15.5l3 5h354q2 -17 -1 -42q-2 -11 -5 -21t-5 -15z" />
    <glyph glyph-name="greater" unicode="&#x3e;" horiz-adv-x="459" 
d="M74 194l230 113l-194 112q-2 28 2 51q1 10 4.5 22.5t6.5 19.5l3 8l353 -213l-421 -214q-2 28 2 51q1 10 4.5 22.5t6.5 19.5z" />
    <glyph glyph-name="question" unicode="?" horiz-adv-x="541" 
d="M446 482l5 36q9 56 -10 80.5t-76 24.5q-56 0 -82 -24t-35 -81l-2 -12q-32 -7 -65 -7q-14 0 -30 1.5t-25 3.5l-8 2l2 12q15 96 72.5 142t186.5 46q125 0 171.5 -46.5t31.5 -141.5l-5 -36q-7 -42 -29 -71.5t-49 -45.5t-54 -30t-47.5 -34t-24.5 -48l-6 -36q-33 -6 -66 -6
l-66 6l6 36q7 43 29 72.5t49.5 45.5t54.5 30t47.5 33.5t24.5 47.5zM354 126l-20 -123q-34 -6 -68 -6l-65 6l20 123q33 6 67 6z" />
    <glyph glyph-name="at" unicode="@" horiz-adv-x="712" 
d="M71 26l42 265q17 107 104 161t267 54q149 0 207 -45t43 -135l-51 -323q-34 -6 -67 -6l-65 6l5 32q-7 -5 -20 -12t-52.5 -18.5t-79.5 -11.5q-76 0 -104.5 36t-17.5 108l2 14q10 62 58.5 96t149.5 46l107 12l3 21q8 52 -20.5 74.5t-110.5 22.5q-116 0 -165.5 -30
t-60.5 -102l-42 -265q-13 -87 25.5 -118.5t158.5 -31.5q70 0 138 11t101 20.5t33 11.5v-2q1 -2 1.5 -5.5t1 -8.5t0.5 -12t-1 -14q-2 -12 -6 -22.5t-6 -15.5l-3 -5q-111 -41 -272 -41q-182 0 -252 57t-51 176zM586 225l-82 -11q-79 -9 -88 -63l-2 -14q-5 -32 7 -46.5
t48 -14.5q30 0 54.5 9t34.5 18l10 9z" />
    <glyph glyph-name="A" unicode="A" horiz-adv-x="612" 
d="M14 3l308 694q45 6 95 6l93 -6l88 -694q-36 -6 -67 -6l-69 6l-19 157h-225l-68 -157q-37 -6 -70 -6zM400 588l-147 -338h185z" />
    <glyph glyph-name="B" unicode="B" horiz-adv-x="579" 
d="M49 8l109 684q100 12 241 12q129 0 179 -44.5t35 -134.5l-5 -31q-17 -102 -121 -135q107 -33 89 -141l-6 -39q-15 -92 -81.5 -137.5t-201.5 -45.5q-63 0 -122.5 3t-87.5 6zM237 315l-37 -231h101q63 0 92.5 22t37.5 73l6 39q8 51 -14 74t-85 23h-101zM284 615l-34 -214
h101q57 0 83.5 22t34.5 71l5 31q8 48 -12 69t-77 21h-101z" />
    <glyph glyph-name="C" unicode="C" horiz-adv-x="568" 
d="M88 182l54 336q15 94 81 141t199 47t177 -46t29 -142l-2 -12q-32 -7 -64 -7q-14 0 -29 1.5t-24 3.5l-8 2l2 12q8 54 -12.5 76t-83.5 22t-90.5 -22t-35.5 -76l-54 -336q-8 -54 16.5 -76.5t95.5 -22.5q53 0 105.5 11t76.5 20.5t26 11.5v-2q1 -3 1.5 -6.5t0.5 -8.5
t-0.5 -12.5t-1.5 -15.5q-2 -13 -5.5 -24.5t-6.5 -16.5l-3 -6q-84 -41 -208 -41q-142 0 -196.5 47.5t-39.5 141.5z" />
    <glyph glyph-name="D" unicode="D" horiz-adv-x="591" 
d="M158 692q99 12 245 12q135 0 187.5 -46t37.5 -140l-53 -336q-15 -94 -82 -140t-202 -46q-65 0 -125.5 3t-88.5 6l-28 3zM284 616l-84 -532h104q65 0 94.5 22.5t37.5 75.5l53 336q8 53 -14 75.5t-86 22.5h-105z" />
    <glyph glyph-name="E" unicode="E" 
d="M237 315l-35 -225h293q3 -18 -1 -45l-13 -45h-220q-57 0 -110 2t-77 4l-25 3l109 682q85 9 213 9h215q4 -18 -1 -45q-2 -12 -5 -23.5t-6 -16.5l-2 -5h-289l-32 -205h257q3 -18 -1 -45q-2 -12 -5 -23.5t-6 -16.5l-2 -5h-257z" />
    <glyph glyph-name="F" unicode="F" horiz-adv-x="503" 
d="M237 315l-50 -312q-35 -6 -70 -6l-69 6l110 688q85 9 213 9h209q3 -18 -1 -45q-2 -12 -5.5 -23.5t-5.5 -16.5l-3 -5h-282l-32 -205h251q2 -18 -1 -45l-13 -45h-251z" />
    <glyph glyph-name="G" unicode="G" horiz-adv-x="587" 
d="M613 375l-53 -333q-12 -5 -33 -12.5t-86 -20.5t-129 -13q-134 0 -186.5 46t-37.5 140l54 336q15 94 81.5 141t201.5 47t180.5 -46t30.5 -142l-2 -12q-33 -7 -64 -7q-14 0 -29.5 1.5t-23.5 3.5l-8 2l2 12q8 53 -13.5 75.5t-86.5 22.5q-64 0 -93 -22.5t-37 -75.5l-54 -336
q-8 -53 14 -75.5t85 -22.5q31 0 59 5t40 10l13 5l30 190h-100q-4 18 1 46q2 12 5 23t5 16l3 5h45q50 0 96.5 -2t67.5 -4z" />
    <glyph glyph-name="H" unicode="H" horiz-adv-x="620" 
d="M681 697l-110 -694q-35 -6 -70 -6l-69 6l49 308h-245l-49 -308q-35 -6 -70 -6l-69 6l110 694q36 6 71 6l68 -6l-47 -296h245l47 296q35 6 71 6z" />
    <glyph glyph-name="I" unicode="I" horiz-adv-x="332" 
d="M50 90h65l81 520h-64q-3 17 1 45l13 45h268q4 -18 -1 -45q-2 -12 -5 -23.5t-6 -16.5l-2 -5h-65l-81 -520h64q3 -17 -2 -45l-12 -45h-268q-4 18 1 45q2 12 5 23t6 16z" />
    <glyph glyph-name="J" unicode="J" horiz-adv-x="470" 
d="M536 697l-81 -515q-15 -94 -76.5 -141.5t-183.5 -47.5q-41 0 -77.5 10.5t-52.5 20.5l-15 10q-5 18 0 47q1 8 3 15.5t4 12.5t4 9l3 6l1 2q-1 -1 15.5 -11t52 -21t75.5 -11q52 0 76 23t32 76l81 515q36 6 71 6z" />
    <glyph glyph-name="K" unicode="K" horiz-adv-x="575" 
d="M413 3l-127 310l-52 -13l-47 -297q-36 -6 -70 -6l-69 6l110 694q36 6 71 6l68 -6l-47 -302l50 14l213 288q38 6 74 6l69 -6l-241 -336l144 -358q-38 -6 -73 -6z" />
    <glyph glyph-name="L" unicode="L" horiz-adv-x="482" 
d="M297 697l-95 -607h263q3 -18 -1 -45l-13 -45h-190q-57 0 -110 2t-77 4l-25 3l109 688q36 6 71 6z" />
    <glyph glyph-name="M" unicode="M" horiz-adv-x="789" 
d="M850 697l-110 -693q-34 -6 -67 -6l-65 6l80 503l-218 -396q-28 -7 -60 -7q-14 0 -28.5 2t-21.5 4l-8 1l-92 395l-80 -503q-34 -6 -67 -6l-65 6l110 693q0 1 12.5 2.5t35.5 3t45 1.5t45 -1.5t35 -3.5l12 -2l95 -410l228 411q45 7 93 7q21 0 44 -2t35 -4z" />
    <glyph glyph-name="N" unicode="N" horiz-adv-x="618" 
d="M48 3l110 694q31 6 60 6l58 -6l202 -440l69 440q34 6 67 6l65 -6l-110 -694q-30 -6 -60 -6l-58 6l-201 440l-70 -440q-33 -6 -67 -6z" />
    <glyph glyph-name="O" unicode="O" horiz-adv-x="599" 
d="M88 182l54 336q15 94 82 141t202 47t187.5 -47t37.5 -141l-54 -336q-15 -94 -82.5 -141.5t-201.5 -47.5q-135 0 -187.5 47.5t-37.5 141.5zM281 518l-14 -84l-26 -168l-14 -84q-8 -53 14 -76t86 -23t93.5 23t37.5 76l54 336q8 53 -14 75.5t-86 22.5t-93.5 -22.5
t-37.5 -75.5z" />
    <glyph glyph-name="P" unicode="P" horiz-adv-x="574" 
d="M158 692q95 12 235 12q132 0 183 -46.5t36 -139.5l-8 -49q-15 -94 -80.5 -140.5t-197.5 -46.5l-94 4l-45 -283q-36 -6 -70 -6l-69 6zM284 616l-38 -245h94q61 0 89 22.5t36 75.5l8 49q8 53 -12.5 75.5t-81.5 22.5h-95z" />
    <glyph glyph-name="Q" unicode="Q" horiz-adv-x="599" 
d="M374 -172l-54 165h-7q-135 0 -187.5 47.5t-37.5 141.5l54 336q15 94 82 141t202 47t187.5 -47t37.5 -141l-54 -336q-22 -140 -159 -175l74 -179q-34 -6 -68 -6zM281 518l-14 -84l-26 -168l-14 -84q-8 -53 14 -76t86 -23t93.5 23t37.5 76l54 336q8 53 -14 75.5t-86 22.5
t-93.5 -22.5t-37.5 -75.5z" />
    <glyph glyph-name="R" unicode="R" horiz-adv-x="584" 
d="M418 3l-95 279l-91 4l-45 -283q-36 -6 -70 -6l-69 6l110 689q95 12 235 12q132 0 183 -46.5t36 -139.5l-8 -49q-22 -136 -149 -172l106 -294q-36 -6 -71 -6zM284 616l-38 -245h94q61 0 89 22.5t36 75.5l8 49q8 53 -12.5 75.5t-81.5 22.5h-95z" />
    <glyph glyph-name="S" unicode="S" horiz-adv-x="562" 
d="M274 518l-5 -36q-5 -29 27.5 -48.5t81.5 -32.5t97 -31t77.5 -56.5t20.5 -96.5l-6 -35q-15 -95 -79.5 -142t-195.5 -47q-137 0 -182.5 46.5t-30.5 142.5l2 12q35 7 69 7q15 0 31.5 -1.5t25.5 -3.5l9 -2l-2 -12q-8 -54 11.5 -76.5t79.5 -22.5q61 0 87.5 22t35.5 77l6 35
q4 24 -12.5 41.5t-45.5 28.5t-64 21t-69.5 23t-62 31t-41.5 48.5t-8 71.5l6 36q14 94 77.5 141t192.5 47q133 0 177 -46t29 -142l-2 -12q-35 -7 -68 -7q-16 0 -32.5 1.5t-25.5 3.5l-9 2l2 12q8 53 -10 75.5t-75 22.5t-84 -22.5t-35 -75.5z" />
    <glyph glyph-name="T" unicode="T" horiz-adv-x="556" 
d="M622 610h-177l-96 -607q-35 -6 -70 -6l-69 6l96 607h-179q-2 17 2 45l13 45h494q4 -18 0 -45q-2 -12 -5.5 -23.5t-6.5 -16.5z" />
    <glyph glyph-name="U" unicode="U" horiz-adv-x="600" 
d="M677 697l-82 -515q-15 -94 -82 -141.5t-200 -47.5t-184.5 47.5t-36.5 141.5l81 515q36 6 71 6l68 -6l-81 -515q-8 -53 13 -76t84 -23q62 0 91 23t37 76l82 515q35 6 70 6z" />
    <glyph glyph-name="V" unicode="V" horiz-adv-x="612" 
d="M212 3l-88 694q35 6 67 6l69 -6l64 -582l248 582q37 6 70 6l66 -6l-308 -694q-44 -6 -94 -6z" />
    <glyph glyph-name="W" unicode="W" horiz-adv-x="953" 
d="M590 3l-25 556l-201 -556q-47 -6 -96 -6l-94 6l-49 694q36 6 68 6l69 -6l31 -568l209 568q38 6 86 6l84 -6l28 -568l212 568q37 6 70 6l66 -6l-269 -694q-46 -6 -95 -6z" />
    <glyph glyph-name="X" unicode="X" horiz-adv-x="610" 
d="M446 3l-98 272l-184 -272q-41 -6 -75 -6l-73 6l250 353l-133 341q43 6 76 6l74 -6l91 -260l173 260q41 6 76 6l74 -6l-240 -341l138 -353q-44 -6 -78 -6z" />
    <glyph glyph-name="Y" unicode="Y" horiz-adv-x="610" 
d="M697 697l-281 -431l-41 -263q-36 -6 -71 -6l-68 6l41 262l-144 432q43 6 76 6l74 -6l85 -297l179 297q41 6 76 6z" />
    <glyph glyph-name="Z" unicode="Z" horiz-adv-x="548" 
d="M601 610l-388 -516h308q3 -20 -2 -47q-1 -12 -4 -24t-6 -17l-2 -6h-461q-3 17 1 45l13 45l389 516h-306q-2 19 2 47q2 12 5 23.5t5 17.5l3 6h458q3 -18 -1 -45q-2 -12 -5.5 -23.5t-6.5 -16.5z" />
    <glyph glyph-name="bracketleft" unicode="[" horiz-adv-x="343" 
d="M25 -150l142 902q71 0 136 -2t94 -4l29 -1q3 -15 0 -39l-12 -39q-57 -8 -140 -8l-114 -716q37 0 71.5 -2t50.5 -4l16 -2q3 -17 -1 -39l-11 -39q-102 -7 -261 -7z" />
    <glyph glyph-name="backslash" unicode="\" horiz-adv-x="387" 
d="M221 -97l-78 844q32 6 64 6l62 -6l77 -844q-32 -6 -63 -6z" />
    <glyph glyph-name="bracketright" unicode="]" horiz-adv-x="343" 
d="M417 752l-143 -902q-71 0 -136 2t-95 4l-29 1q-3 15 1 39q1 10 4 19.5t6 14.5l2 5q56 8 140 8l113 716q-37 0 -71 2t-50 4l-16 2q-3 17 0 39q2 11 5 20.5t5 13.5l2 5q102 7 262 7z" />
    <glyph glyph-name="asciicircum" unicode="^" horiz-adv-x="442" 
d="M332 704l164 -195q-10 -15 -30 -33q-9 -8 -18.5 -14t-14.5 -8l-5 -3l-115 136l-158 -137q-15 8 -30 25q-6 8 -11 16.5t-7 12.5l-2 5z" />
    <glyph glyph-name="underscore" unicode="_" horiz-adv-x="500" 
d="M478 -133h-499l14 83h499z" />
    <glyph glyph-name="grave" unicode="`" horiz-adv-x="229" 
d="M234 562l-118 135q32 6 62 6l59 -6l75 -135q-20 -6 -40 -6z" />
    <glyph glyph-name="a" unicode="a" 
d="M348 3l5 32q-7 -5 -19 -12t-50.5 -18.5t-76.5 -11.5q-80 0 -108.5 43t-15.5 128l28 171q13 85 61.5 128t142.5 43q39 0 66 -8.5t34 -17.5l7 -8l4 25q33 6 67 6l65 -6l-78 -494q-34 -6 -67 -6zM243 335l-28 -171q-7 -48 4.5 -68t49.5 -20q29 0 53 9t33 17l10 9l36 224
q7 48 -8.5 68t-62.5 20q-41 0 -60 -20t-27 -68z" />
    <glyph glyph-name="b" unicode="b" horiz-adv-x="516" 
d="M186 35l-6 -32q-33 -6 -67 -6l-65 6l110 694q34 6 67 6l65 -6l-35 -222q40 31 115 31q96 0 132 -43t22 -128l-27 -171q-13 -85 -55.5 -128t-123.5 -43q-38 0 -71 10.5t-47 20.5zM365 164l27 171q8 48 -5 68t-54 20q-48 0 -70 -20t-30 -68l-36 -223q2 -4 7.5 -10t27.5 -16
t51 -10q39 0 56.5 20t25.5 68z" />
    <glyph glyph-name="c" unicode="c" horiz-adv-x="491" 
d="M83 164l28 171q13 85 69 128t168 43q111 0 147.5 -42t22.5 -129l-2 -12q-30 -6 -60 -6l-58 6l2 12q8 48 -6 68t-59 20q-44 0 -64 -20t-28 -68l-28 -171q-7 -48 12.5 -68t77.5 -20q41 0 80 7.5t58 15t19 8.5l1 -2q0 -2 0.5 -6t1 -8.5t0 -11.5t-1.5 -14q-2 -11 -5.5 -21.5
t-6.5 -15.5l-3 -4q-63 -31 -157 -31q-125 0 -173 43t-35 128z" />
    <glyph glyph-name="d" unicode="d" horiz-adv-x="516" 
d="M349 3l5 32q-7 -5 -19 -12t-50.5 -18.5t-76.5 -11.5q-81 0 -109.5 43t-15.5 128l28 171q13 85 62.5 128t145.5 43q33 0 59.5 -8t36.5 -16l9 -7l35 222q34 6 67 6l65 -6l-110 -694q-34 -6 -67 -6zM243 335l-28 -171q-7 -48 4.5 -68t50.5 -20q29 0 53 9t34 18l9 9l36 223
q8 48 -8 68t-63 20q-42 0 -61 -20t-27 -68z" />
    <glyph glyph-name="e" unicode="e" horiz-adv-x="509" 
d="M83 164l28 171q13 85 69.5 128t170.5 43q115 0 154 -42t25 -129l-19 -117q-51 -12 -145 -12h-144l-7 -42q-7 -48 13 -68t79 -20q43 0 85 7.5t62 15t20 8.5l1 -2q0 -2 0.5 -6t1 -8.5t0 -11.5t-1.5 -14q-2 -11 -5.5 -21.5t-6.5 -15.5l-3 -4q-67 -31 -166 -31
q-126 0 -175 43t-36 128zM235 289h162l8 46q8 48 -6.5 68t-60.5 20t-66.5 -20t-28.5 -68z" />
    <glyph glyph-name="f" unicode="f" horiz-adv-x="371" 
d="M406 418h-125l-97 -614q-34 -6 -67 -6l-65 6l97 614h-46q-2 16 1 41q2 11 5 21.5t5 15.5l3 5h46l7 47q12 79 53.5 118.5t120.5 39.5q34 0 106 -12q2 -19 -2 -40l-11 -38q-18 7 -59 7q-36 0 -52.5 -17t-23.5 -58l-7 -47h124q3 -17 -1 -42q-1 -11 -4 -21.5t-6 -15.5z" />
    <glyph glyph-name="g" unicode="g" horiz-adv-x="516" 
d="M331 -36l9 60q-1 -2 -13 -9t-40.5 -14.5t-61.5 -7.5q-96 0 -131.5 43t-22.5 128l28 171q13 86 55 128.5t123 42.5q38 0 71.5 -10t47.5 -20l14 -11l5 32q32 6 67 6l65 -6l-84 -533q-13 -85 -75.5 -128t-189.5 -43q-42 0 -81 5.5t-57 11.5l-18 6q-1 2 -1.5 5t-1.5 14t2 22
q1 7 3 14t4 11.5t3.5 8.5t2.5 6l1 2q0 -1 18.5 -6.5t57.5 -11t81 -5.5q59 0 85 20t34 68zM231 335l-28 -171q-7 -48 6 -68t55 -20q47 0 69 20.5t29 67.5l36 224q-1 1 -2.5 3.5t-8.5 8.5t-16 10.5t-24.5 8.5t-33.5 4q-38 0 -56 -20t-26 -68z" />
    <glyph glyph-name="h" unicode="h" horiz-adv-x="518" 
d="M290 697l-37 -232q61 41 148 41q81 0 109.5 -42.5t15.5 -128.5l-53 -332q-34 -6 -67 -6l-65 6l53 332q8 48 -4 68t-51 20q-29 0 -53 -8.5t-34 -17.5l-10 -9l-62 -385q-34 -6 -67 -6l-65 6l110 694q34 6 67 6z" />
    <glyph glyph-name="i" unicode="i" horiz-adv-x="262" 
d="M243 76q10 0 26 4q2 -17 -1 -37l-11 -36q-38 -14 -76 -14q-65 0 -89 34t-14 102l58 368q34 6 67 6l65 -6l-58 -368q-4 -29 3 -41t30 -12zM300 697l-18 -117q-34 -6 -67 -6l-65 6l18 117q34 6 67 6z" />
    <glyph glyph-name="j" unicode="j" horiz-adv-x="240" 
d="M53 -52l87 549q34 6 67 6l65 -6l-87 -549q-12 -77 -51.5 -116t-114.5 -39q-14 0 -28.5 1.5t-25.5 3.5t-19.5 4t-14.5 4t-7 2q-2 18 1 38l11 38q20 -8 49 -8q32 0 47.5 17t20.5 55zM304 697l-18 -117q-35 -6 -68 -6l-64 6l18 117q34 6 67 6z" />
    <glyph glyph-name="k" unicode="k" horiz-adv-x="495" 
d="M340 3l-93 212l-34 -10l-33 -202q-34 -6 -67 -6l-65 6l110 694q34 6 67 6l65 -6l-64 -404l35 11l147 193q36 6 70 6l66 -6l-178 -236l113 -258q-36 -6 -70 -6z" />
    <glyph glyph-name="l" unicode="l" horiz-adv-x="269" 
d="M243 76q10 0 26 4q2 -17 -1 -37l-11 -36q-38 -14 -76 -14q-65 0 -89 34t-14 102l90 568q34 6 67 6l65 -6l-90 -568q-4 -29 3 -41t30 -12z" />
    <glyph glyph-name="m" unicode="m" horiz-adv-x="786" 
d="M48 3l78 494q34 6 67 6l65 -6l-5 -32q59 41 140 41q88 0 110 -47q8 5 22.5 13t59.5 21t89 13q79 0 106.5 -41.5t14.5 -124.5l-54 -337q-33 -6 -67 -6l-65 6l54 337q7 46 -3.5 64.5t-47.5 18.5q-55 0 -90 -35l-61 -385q-34 -6 -67 -6l-65 6l53 337q8 45 -3 64t-47 19
q-27 0 -49.5 -8.5t-31.5 -17.5l-9 -9l-62 -385q-34 -6 -67 -6z" />
    <glyph glyph-name="n" unicode="n" horiz-adv-x="519" 
d="M258 497l-5 -32q61 41 148 41q82 0 111 -43t15 -128l-53 -332q-33 -6 -67 -6l-65 6l53 332q8 48 -4 68t-51 20q-29 0 -53.5 -8.5t-34.5 -17.5l-10 -9l-62 -385q-34 -6 -67 -6l-65 6l78 494q34 6 67 6z" />
    <glyph glyph-name="o" unicode="o" horiz-adv-x="519" 
d="M83 164l28 171q13 85 70 128t171 43t157.5 -43t30.5 -128l-28 -171q-13 -85 -70.5 -128t-170.5 -43t-157 43t-31 128zM243 335l-7 -43q-7 -42 -14 -85l-7 -43q-7 -47 8 -67.5t61 -20.5t67.5 20.5t28.5 67.5l28 171q8 48 -7.5 68t-61.5 20t-67 -20t-29 -68z" />
    <glyph glyph-name="p" unicode="p" horiz-adv-x="516" 
d="M258 497l-5 -32q61 41 147 41q80 0 109 -43t15 -128l-27 -171q-13 -85 -62.5 -128t-145.5 -43q-34 0 -60 8t-35 16l-10 8l-36 -222q-33 -6 -66 -6l-66 6l110 694q34 6 67 6zM365 164l27 171q8 48 -3.5 68t-49.5 20q-29 0 -53.5 -8.5t-33.5 -17.5l-10 -9l-36 -224
q-8 -47 8 -67.5t63 -20.5q42 0 61 20t27 68z" />
    <glyph glyph-name="q" unicode="q" horiz-adv-x="516" 
d="M422 465l5 32q32 6 67 6l65 -6l-110 -694q-33 -6 -67 -6l-65 6l36 222q-40 -32 -116 -32q-96 0 -131.5 43t-22.5 128l28 171q13 86 55 128.5t123 42.5q38 0 71.5 -10t47.5 -20zM243 335l-28 -171q-7 -48 6 -68t55 -20q47 0 69 20.5t29 67.5l36 224q-1 1 -2.5 3.5
t-8.5 8.5t-16 10.5t-24.5 8.5t-33.5 4q-38 0 -56 -20t-26 -68z" />
    <glyph glyph-name="r" unicode="r" horiz-adv-x="369" 
d="M258 497l-7 -51q3 2 8 6.5t21.5 14.5t34.5 18t46 14.5t56 6.5q3 -18 -1 -43q-2 -11 -5 -22t-5 -17l-3 -5q-30 0 -58.5 -9.5t-48 -22.5t-34.5 -26.5t-22 -22.5l-8 -10l-52 -325q-34 -6 -67 -6l-65 6l78 494q34 6 67 6z" />
    <glyph glyph-name="s" unicode="s" horiz-adv-x="506" 
d="M248 363l-4 -20q-3 -19 14 -28.5t52 -16.5q29 -6 42.5 -9t42.5 -11t44.5 -17.5t33 -24t23.5 -34.5t2 -45l-3 -20q-12 -72 -66.5 -108t-166.5 -36q-117 0 -156.5 38.5t-26.5 118.5l1 7q34 7 66 7q14 0 29.5 -2t23.5 -4l9 -1l-1 -7q-6 -40 8.5 -57t59.5 -17q44 0 63.5 14
t24.5 47l3 20q3 21 -15 31t-56 17q-28 6 -41.5 9t-41.5 11t-43 17.5t-31.5 23.5t-22.5 33.5t-2 43.5l4 20q12 72 65 107.5t163 35.5q114 0 152 -38.5t24 -118.5l-1 -7q-33 -6 -64 -6l-63 6l1 7q5 40 -8 57t-54 17t-60 -14.5t-24 -45.5z" />
    <glyph glyph-name="t" unicode="t" horiz-adv-x="378" 
d="M404 417h-118l-41 -266q-7 -41 4.5 -58t48.5 -17q18 0 54 12q2 -17 -1 -37l-11 -38q-1 0 -11.5 -3.5t-22.5 -7t-31.5 -6.5t-37.5 -3q-79 0 -108 40t-16 118l41 266h-46q-3 16 1 41q2 11 5 21.5t6 15.5l2 5h53l29 97q28 6 56 6l55 -6l-15 -97h117q3 -17 -1 -42z" />
    <glyph glyph-name="u" unicode="u" horiz-adv-x="518" 
d="M354 3l5 32q-61 -42 -147 -42q-81 0 -109.5 43t-15.5 128l52 333q34 6 67 6l65 -6l-52 -333q-8 -48 4 -68t51 -20q29 0 53 9t34 18l10 9l61 385q34 6 67 6l65 -6l-78 -494q-34 -6 -67 -6z" />
    <glyph glyph-name="v" unicode="v" horiz-adv-x="512" 
d="M169 3l-77 494q33 6 64 6l65 -6l51 -392l175 392q35 6 67 6l62 -6l-233 -494q-41 -6 -87 -6z" />
    <glyph glyph-name="w" unicode="w" horiz-adv-x="800" 
d="M484 3l-26 363l-141 -363q-43 -6 -89 -6l-87 6l-48 494q34 6 64 6l66 -6l27 -386l150 386q35 6 79 6l77 -6l28 -386l150 386q35 6 67 6l62 -6l-204 -494q-42 -6 -88 -6z" />
    <glyph glyph-name="x" unicode="x" horiz-adv-x="512" 
d="M360 3l-75 179l-133 -179q-39 -6 -70 -6l-66 6l198 253l-113 241q38 6 69 6l68 -6l70 -167l121 167q39 6 71 6l66 -6l-187 -241l118 -253q-39 -6 -70 -6z" />
    <glyph glyph-name="y" unicode="y" horiz-adv-x="516" 
d="M196 -56l26 55l-41 4l-85 494q34 6 64 6l65 -6l53 -383l173 383q36 6 67 6l63 -6l-268 -549q-39 -82 -87.5 -118.5t-126.5 -36.5q-17 0 -32 3t-22 6l-7 3q-1 2 -1.5 5t-1 13.5t1.5 20.5t5 20t6 14l2 5q21 -7 60 -7q55 0 86 68z" />
    <glyph glyph-name="z" unicode="z" horiz-adv-x="468" 
d="M492 417l-290 -330h238q3 -19 -1 -43l-12 -44h-381q-3 16 0 42q2 11 5 21t6 15l2 5l291 330h-239q-3 18 2 43q1 11 4 22t6 16l2 6h381q3 -17 -1 -42q-2 -11 -5 -21t-5 -15z" />
    <glyph glyph-name="braceleft" unicode="{" horiz-adv-x="345" 
d="M424 669q-47 0 -68 -20t-28 -68l-24 -150q-14 -92 -75 -130q49 -39 34 -129l-24 -150q-8 -48 7 -68t62 -20q3 -16 -1 -41l-12 -42q-109 0 -150 43t-27 128l23 150q8 48 -7 68t-61 20q-3 16 0 41q2 11 5 21.5t5 15.5l3 5q46 0 67.5 20.5t29.5 67.5l24 150q12 85 67 128
t163 43q3 -16 0 -42q-2 -11 -5 -21.5t-5 -14.5z" />
    <glyph glyph-name="bar" unicode="|" horiz-adv-x="201" 
d="M270 747l-134 -844q-26 -6 -52 -6l-52 6l134 844q27 6 53 6z" />
    <glyph glyph-name="braceright" unicode="}" horiz-adv-x="345" 
d="M137 669q-2 16 2 41q1 12 4 22.5t6 15.5l2 4q108 0 149 -43t28 -128l-24 -150q-8 -47 7.5 -67.5t61.5 -20.5q2 -18 -1 -42l-12 -41q-46 0 -67.5 -20.5t-29.5 -67.5l-24 -150q-13 -85 -67.5 -128t-162.5 -43q-3 18 1 42q1 11 4 21.5t5 15.5l2 4q47 0 68 20t29 68l23 150
q16 92 75 129q-49 39 -33 130l24 150q7 48 -8.5 68t-61.5 20z" />
    <glyph glyph-name="asciitilde" unicode="~" horiz-adv-x="440" 
d="M70 246l1 4q9 63 35 92.5t79 29.5q34 0 57.5 -9t33.5 -19.5t23 -19.5t27 -9q25 0 36 10t16 35l1 5q23 7 44 7q9 0 20 -2t17 -4l6 -1l-1 -4q-11 -65 -35 -93.5t-79 -28.5q-43 0 -69 14.5t-41 28.5t-31 14q-25 0 -36.5 -10t-15.5 -35l-1 -5q-23 -7 -45 -7z" />
    <glyph glyph-name="exclamdown" unicode="&#xa1;" horiz-adv-x="229" 
d="M107 374l19 123q34 6 67 6l66 -6l-19 -123q-34 -6 -68 -6zM16 -197l77 480q33 6 66 6l66 -6l-77 -480q-33 -6 -66 -6z" />
    <glyph glyph-name="cent" unicode="&#xa2;" horiz-adv-x="491" 
d="M81 164l28 171q12 75 55.5 117t128.5 51l15 94q27 6 53 6l51 -6l-15 -94q78 -9 104.5 -50.5t14.5 -117.5l-2 -12q-30 -6 -60 -6l-58 6l2 12q8 48 -6 68t-59 20q-44 0 -64 -20t-28 -68l-28 -171q-7 -48 12.5 -68t77.5 -20q41 0 80 7.5t58 15t19 8.5l1 -2q0 -2 0.5 -6
t1 -8.5t0 -11.5t-1.5 -14q-2 -11 -5.5 -21.5t-6.5 -15.5l-3 -4q-50 -25 -129 -29l-15 -92q-27 -6 -53 -6l-51 6l16 96q-82 12 -113 53t-20 112z" />
    <glyph glyph-name="sterling" unicode="&#xa3;" horiz-adv-x="568" 
d="M402 286h-145l-30 -196h311q3 -17 -2 -45l-12 -45h-490q-3 18 1 45l13 45h40l30 196h-39q-3 16 1 42l12 41h40l23 149q15 94 77.5 141t188.5 47q125 0 166 -46t26 -142l-2 -12q-32 -7 -64 -7q-14 0 -29 1.5t-23 3.5l-9 2l2 12q8 54 -9.5 76t-72.5 22t-79.5 -22t-32.5 -76
l-23 -149h145q3 -16 -1 -41q-2 -11 -5 -21.5t-5 -15.5z" />
    <glyph glyph-name="currency" unicode="&#xa4;" horiz-adv-x="422" 
d="M118 300l5 29q5 36 23 60l-53 63q10 16 30 33q9 8 18 14.5t14 8.5l5 3l61 -73q27 10 60 10q31 0 56 -10l84 73q15 -8 30 -26q6 -8 11 -16t7 -13l2 -4l-74 -63q11 -27 5 -60l-4 -29q-4 -26 -19 -51l49 -57q-9 -15 -30 -33q-9 -8 -18.5 -14.5t-14.5 -8.5l-5 -3l-50 60
q-28 -12 -71 -12q-46 0 -69 12l-69 -60q-14 8 -29 26q-7 8 -12 16t-7 13l-2 4l68 58q-6 21 -1 50zM202 329l-5 -29q-4 -25 8.5 -37t44.5 -12q60 0 67 49l5 29q4 25 -8 36.5t-44 11.5q-61 0 -68 -48z" />
    <glyph glyph-name="yen" unicode="&#xa5;" horiz-adv-x="610" 
d="M504 95h-114l-14 -92q-36 -6 -71 -6l-68 6l14 92h-115q-3 16 1 41q2 11 5 21.5t5 15.5l3 5h114l10 60h-115q-3 16 1 42q2 11 5 21.5t6 14.5l2 5h86l-125 376q43 6 76 6l74 -6l85 -297l179 297q41 6 76 6l74 -6l-245 -376h88q3 -16 -1 -41l-12 -42h-116l-9 -60h115
q3 -17 -1 -42q-2 -11 -5 -21.5t-5 -14.5z" />
    <glyph glyph-name="brokenbar" unicode="&#xa6;" horiz-adv-x="201" 
d="M270 747l-58 -369q-27 -6 -53 -6l-51 6l58 369q27 6 53 6zM195 272l-59 -369q-26 -6 -52 -6l-52 6l59 369q27 6 53 6z" />
    <glyph glyph-name="section" unicode="&#xa7;" horiz-adv-x="562" 
d="M574 231q-14 -88 -76 -131q48 -45 38 -112l-3 -17q-15 -89 -79 -133.5t-195 -44.5q-136 0 -182 44t-32 134l2 13q33 6 65 6l63 -6l-2 -13q-8 -52 13.5 -73.5t85.5 -21.5t92.5 21.5t36.5 73.5l3 17q4 28 -19 47t-60.5 29t-81 25t-80 31.5t-57.5 50.5t-13 81l3 16
q14 90 78 133q-51 41 -40 111l3 16q14 90 77 134t192 44q133 0 177.5 -43.5t30.5 -134.5l-2 -12q-33 -6 -65 -6l-63 6l2 12q8 51 -12 73t-81 22t-89 -22.5t-36 -72.5l-3 -16q-5 -29 28.5 -48.5t83.5 -32.5t99 -31t79.5 -56.5t21.5 -96.5zM445 247q2 16 -4 28.5t-16.5 21
t-29 16.5t-34.5 13t-41 12.5t-40 12.5q-44 -21 -53 -83l-3 -16q-3 -18 5.5 -31t28 -22t39.5 -15.5t50 -15t49 -16.5q37 20 46 79z" />
    <glyph glyph-name="dieresis" unicode="&#xa8;" horiz-adv-x="414" 
d="M264 697l-17 -106q-24 -7 -53 -7q-13 0 -25.5 2t-18.5 4l-7 1l17 106q24 6 53 6q13 0 25.5 -1.5t19.5 -3.5zM474 697l-17 -106q-24 -7 -53 -7q-13 0 -25.5 2t-18.5 4l-7 1l17 106q24 6 53 6q13 0 25.5 -1.5t19.5 -3.5z" />
    <glyph glyph-name="copyright" unicode="&#xa9;" horiz-adv-x="810" 
d="M103 240l34 220q20 123 115 184.5t285 61.5t265 -62t55 -184l-34 -220q-20 -123 -115 -185t-285 -62t-265 62t-55 185zM262 460l-8 -55l-18 -110l-8 -55q-15 -89 31 -126.5t178 -37.5q131 0 188.5 37.5t72.5 126.5l34 220q15 89 -31 126t-178 37q-131 0 -188.5 -37
t-72.5 -126zM345 272l25 160q9 49 43 73.5t102 24.5q67 0 89 -24t13 -74v-6q-19 -3 -36 -3l-36 3v6q5 26 -3.5 36.5t-35.5 10.5t-38.5 -10.5t-16.5 -36.5l-25 -160q-4 -26 6.5 -36.5t42.5 -10.5q12 0 24 1t21.5 3l19 4t16 4t11.5 4t8 3l3 1q2 -10 -1 -25l-7 -27
q-44 -19 -103 -19q-73 0 -101 24.5t-21 73.5z" />
    <glyph glyph-name="ordfeminine" unicode="&#xaa;" horiz-adv-x="373" 
d="M302 352l4 21q-41 -28 -99 -28q-56 0 -76.5 30.5t-10.5 90.5l19 118q9 60 43 90.5t100 30.5q26 0 44.5 -6t23.5 -12l5 -6l2 17q26 4 50 4l47 -4l-55 -346q-24 -4 -49 -4zM236 584l-19 -118q-5 -33 3 -46.5t33 -13.5q19 0 34.5 6t21.5 12l6 6l25 154q5 33 -5 46.5
t-41 13.5q-28 0 -40.5 -13.5t-17.5 -46.5z" />
    <glyph glyph-name="guillemotleft" unicode="&#xab;" horiz-adv-x="501" 
d="M68 271l226 195q14 -8 30 -26q6 -8 11 -16t7 -12l2 -5l-158 -136l115 -137q-10 -16 -31 -34q-9 -8 -18 -14t-14 -8l-5 -3zM260 271l226 195q14 -8 30 -26q6 -8 11 -16t7 -12l2 -5l-158 -136l115 -137q-10 -16 -31 -34q-9 -8 -18 -14t-14 -8l-5 -3z" />
    <glyph glyph-name="logicalnot" unicode="&#xac;" horiz-adv-x="400" 
d="M299 217l11 74h-227q-3 17 1 41q2 11 5 21.5t6 15.5l2 5h125q57 0 109.5 -2t77.5 -4l24 -3l-23 -148q-30 -6 -57 -6z" />
    <glyph glyph-name="uni00AD" unicode="&#xad;" horiz-adv-x="281" 
d="M285 238h-210q-3 16 1 41q1 11 4 21.5t5 15.5l3 5h211q2 -17 -1 -42q-2 -11 -5 -21t-6 -15z" />
    <glyph glyph-name="registered" unicode="&#xae;" horiz-adv-x="810" 
d="M103 240l34 220q20 123 115 184.5t285 61.5t265 -62t55 -184l-34 -220q-20 -123 -115 -185t-285 -62t-265 62t-55 185zM262 460l-8 -55l-18 -110l-8 -55q-15 -89 31 -126.5t178 -37.5q131 0 188.5 37.5t72.5 126.5l34 220q15 89 -31 126t-178 37q-131 0 -188.5 -37
t-72.5 -126zM515 177l-44 135l-36 1l-22 -136q-21 -4 -41 -4l-39 4l54 344q49 7 121 7q68 0 94 -24.5t18 -73.5l-3 -21q-11 -67 -71 -87l51 -145q-21 -4 -41 -4zM461 477l-18 -115h39q27 0 39 10.5t17 36.5l3 21q4 26 -5 36.5t-36 10.5h-39z" />
    <glyph glyph-name="macron" unicode="&#xaf;" horiz-adv-x="243" 
d="M350 590h-270q0 1 -0.5 3.5t-1.5 11t1 16.5q1 8 3.5 16t4.5 11l3 4h270q0 -1 0.5 -3.5t1.5 -11t-1 -16.5q-1 -8 -4 -15.5t-5 -11.5z" />
    <glyph glyph-name="degree" unicode="&#xb0;" horiz-adv-x="310" 
d="M158 585l4 23q15 95 123 95q109 0 94 -95l-4 -23q-15 -95 -123 -95q-109 0 -94 95zM224 608l-4 -23q-3 -20 6 -29.5t34 -9.5q47 0 53 39l4 23q3 19 -6.5 28.5t-34.5 9.5q-46 0 -52 -38z" />
    <glyph glyph-name="plusminus" unicode="&#xb1;" horiz-adv-x="404" 
d="M325 497l-19 -126h124q2 -17 -1 -42q-2 -11 -5 -21t-5 -15l-3 -5h-124l-20 -125q-17 -6 -43 -6q-12 0 -22.5 1.5t-15.5 3.5l-5 1l20 125h-123q-3 16 1 41q1 11 4 21.5t5 15.5l3 5h124l19 126q19 5 44 5zM378 50h-333q-3 16 1 40l12 39h333q4 -16 0 -39q-2 -11 -5 -21
t-5 -15z" />
    <glyph glyph-name="twosuperior" unicode="&#xb2;" horiz-adv-x="293" 
d="M285 590l3 15q4 28 -5 40t-35 12t-37.5 -11.5t-16.5 -40.5l-1 -6q-19 -3 -38 -3l-36 3l1 6q8 50 37.5 74t98.5 24q66 0 90.5 -24t16.5 -74l-3 -15q-5 -33 -25.5 -56t-47 -35t-52.5 -22t-45.5 -25t-22.5 -37l-3 -18h161q2 -9 -1 -24l-7 -23h-125l-108 5l10 60
q6 38 35.5 64t62 36.5t61 29.5t32.5 45z" />
    <glyph glyph-name="threesuperior" unicode="&#xb3;" horiz-adv-x="285" 
d="M135 650q-2 10 0 25l7 25h214q1 -9 0 -23l-7 -25l-105 -95q104 0 90 -94l-4 -21q-8 -47 -43.5 -71t-107.5 -24q-25 0 -48 4.5t-33 9.5l-11 5l-1 25q1 6 3.5 12t4.5 9l1 3q0 -2 10.5 -7t32.5 -10t47 -5q35 0 49.5 11t19.5 38l4 21q4 26 -7 36.5t-42 10.5h-45q-1 10 2 25
l6 25l95 90h-132z" />
    <glyph glyph-name="acute" unicode="&#xb4;" horiz-adv-x="229" 
d="M333 697l-161 -135q-21 -6 -40 -6l-38 6l118 135q30 6 61 6z" />
    <glyph glyph-name="mu" unicode="&#xb5;" horiz-adv-x="518" 
d="M186 35l-22 -132q-33 -6 -66 -6l-66 6l94 594q34 6 67 6l65 -6l-61 -385q2 -4 7.5 -10t28 -16t51.5 -10q39 0 57 20t25 68l53 333q34 6 67 6l65 -6l-53 -333q-13 -85 -55.5 -128t-123.5 -43q-38 0 -71.5 10.5t-47.5 20.5z" />
    <glyph glyph-name="paragraph" unicode="&#xb6;" horiz-adv-x="722" 
d="M799 617h-46l-113 -714q-33 -6 -67 -6l-65 6l113 714h-88l-114 -714q-33 -6 -66 -6l-66 6l61 379q-132 0 -183.5 46.5t-36.5 140.5l8 45q15 93 80.5 139.5t196.5 46.5h399q4 -17 0 -42q-2 -11 -5 -21t-6 -15z" />
    <glyph glyph-name="periodcentered" unicode="&#xb7;" horiz-adv-x="222" 
d="M226 330l-19 -123q-34 -6 -65 -6l-62 6l19 123q32 6 65 6z" />
    <glyph glyph-name="cedilla" unicode="&#xb8;" horiz-adv-x="506" 
d="M289 0l-3 -19q-2 -13 10.5 -21.5t29 -12.5t28 -17t8.5 -35l-2 -10q-11 -72 -118 -72q-59 0 -78 19t-13 58l1 5q19 3 35 3l34 -3l-1 -5q-3 -18 3.5 -25t25.5 -7q20 0 28 6t11 21l1 10q2 11 -10.5 18.5t-28.5 11.5t-28 18.5t-8 37.5l4 19h71z" />
    <glyph glyph-name="onesuperior" unicode="&#xb9;" horiz-adv-x="212" 
d="M272 702l-56 -350q-19 -4 -38 -4l-38 4l46 292l-62 5q-1 10 1 24l7 25q54 4 140 4z" />
    <glyph glyph-name="ordmasculine" unicode="&#xba;" horiz-adv-x="376" 
d="M120 466l19 118q19 121 169 121q81 0 112 -30.5t21 -90.5l-19 -118q-9 -60 -49.5 -90.5t-120.5 -30.5t-111 30.5t-21 90.5zM236 584l-19 -118q-5 -33 4.5 -46.5t39.5 -13.5q31 0 45 13.5t19 46.5l19 118q5 33 -5 46.5t-40 13.5t-44 -14t-19 -46z" />
    <glyph glyph-name="guillemotright" unicode="&#xbb;" horiz-adv-x="501" 
d="M322 270l-225 -195q-14 7 -30 25q-6 8 -11 16.5t-6 13.5l-2 4l157 136l-115 137q11 16 31 33q8 8 17.5 14.5t14.5 9.5l5 2zM514 270l-225 -195q-14 7 -30 25q-6 8 -11 16.5t-6 13.5l-2 4l157 136l-115 137q11 16 31 33q8 8 17.5 14.5t14.5 9.5l5 2z" />
    <glyph glyph-name="onequarter" unicode="&#xbc;" horiz-adv-x="640" 
d="M691 697l-539 -694q-34 -6 -64 -6l-63 6l539 694q32 6 64 6zM271 702l-56 -350q-19 -4 -38 -4l-38 4l46 292l-62 5q-1 10 1 24l7 25q54 4 140 4zM623 248l-19 -122h27q1 -10 -1 -25l-7 -25h-24l-12 -74q-20 -4 -38 -4l-36 4l11 74h-148q-2 9 0 23l122 249q14 4 36 4
l37 -4l-108 -222h70l20 122q17 4 35 4z" />
    <glyph glyph-name="onehalf" unicode="&#xbd;" horiz-adv-x="662" 
d="M691 697l-539 -694q-34 -6 -64 -6l-63 6l539 694q32 6 64 6zM271 702l-56 -350q-19 -4 -38 -4l-38 4l46 292l-62 5q-1 10 1 24l7 25q54 4 140 4zM604 240l2 15q5 27 -4 39.5t-35 12.5t-38 -12t-17 -40v-6q-19 -3 -38 -3l-36 3v6q9 50 38.5 74t98.5 24q66 0 90.5 -24
t15.5 -74l-2 -15q-5 -33 -25.5 -56t-47 -35t-52.5 -22t-45.5 -25t-23.5 -37l-2 -18h160q2 -10 -1 -24l-6 -23h-125l-109 5l10 60q6 38 36 64t62.5 36.5t61 29.5t32.5 45z" />
    <glyph glyph-name="threequarters" unicode="&#xbe;" horiz-adv-x="675" 
d="M738 697l-539 -694q-34 -6 -64 -6l-63 6l539 694q32 6 64 6zM135 650q-2 10 0 25l7 25h214q1 -9 0 -23l-7 -25l-105 -95q104 0 90 -94l-4 -21q-8 -47 -43.5 -71t-107.5 -24q-25 0 -48 4.5t-33 9.5l-11 5l-1 25q1 6 3.5 12t4.5 9l1 3q0 -2 10.5 -7t32.5 -10t47 -5
q35 0 49.5 11t19.5 38l4 21q4 26 -7 36.5t-42 10.5h-45q-1 10 2 25l6 25l95 90h-132zM664 248l-19 -122h27q1 -10 -1 -25l-7 -25h-24l-12 -74q-20 -4 -38 -4l-36 4l11 74h-148q-2 9 0 23l122 249q14 4 36 4l37 -4l-108 -222h70l20 122q17 4 35 4z" />
    <glyph glyph-name="questiondown" unicode="&#xbf;" horiz-adv-x="541" 
d="M186 17l-6 -36q-8 -56 11 -80.5t76 -24.5q56 0 82 24t35 81l2 13q32 6 65 6l63 -6l-2 -13q-15 -96 -72.5 -142t-186.5 -46q-124 0 -171 46.5t-32 141.5l6 36q7 42 28.5 71.5t49 45.5t54 30t47 34t24.5 48l6 36q33 6 66 6l66 -6l-6 -36q-7 -42 -29 -72t-49.5 -46
t-54.5 -29.5t-47.5 -33.5t-24.5 -48zM278 374l20 122q34 6 67 6l66 -6l-20 -122q-33 -7 -67 -7q-15 0 -31.5 1.5t-25.5 3.5z" />
    <glyph glyph-name="Agrave" unicode="&#xc0;" horiz-adv-x="612" 
d="M14 3l308 694q45 6 95 6l93 -6l88 -694q-36 -6 -67 -6l-69 6l-19 157h-225l-68 -157q-37 -6 -70 -6zM400 588l-147 -338h185zM429 753l-119 135q33 6 63 6l58 -6l76 -135q-19 -6 -40 -6z" />
    <glyph glyph-name="Aacute" unicode="&#xc1;" horiz-adv-x="612" 
d="M14 3l308 694q45 6 95 6l93 -6l88 -694q-36 -6 -67 -6l-69 6l-19 157h-225l-68 -157q-37 -6 -70 -6zM400 588l-147 -338h185zM580 888l-160 -135q-21 -6 -40 -6l-38 6l117 135q30 6 62 6z" />
    <glyph glyph-name="Acircumflex" unicode="&#xc2;" horiz-adv-x="612" 
d="M14 3l308 694q45 6 95 6l93 -6l88 -694q-36 -6 -67 -6l-69 6l-19 157h-225l-68 -157q-37 -6 -70 -6zM400 588l-147 -338h185zM502 753l-66 78l-89 -78q-21 -6 -40 -6l-38 6l119 132q29 6 58 6l56 -6l78 -132q-19 -6 -40 -6z" />
    <glyph glyph-name="Atilde" unicode="&#xc3;" horiz-adv-x="612" 
d="M14 3l308 694q45 6 95 6l93 -6l88 -694q-36 -6 -67 -6l-69 6l-19 157h-225l-68 -157q-37 -6 -70 -6zM400 588l-147 -338h185zM260 754l1 4q8 54 30.5 79t69.5 25q38 0 60.5 -14t35.5 -27.5t28 -13.5q23 0 32.5 9.5t14.5 34.5v5q20 6 38 6l35 -6v-4q-10 -55 -31.5 -79.5
t-69.5 -24.5q-30 0 -51 8.5t-29.5 19t-20 19t-23.5 8.5q-23 0 -33 -9.5t-14 -34.5v-5q-19 -6 -38 -6z" />
    <glyph glyph-name="Adieresis" unicode="&#xc4;" horiz-adv-x="612" 
d="M14 3l308 694q45 6 95 6l93 -6l88 -694q-36 -6 -67 -6l-69 6l-19 157h-225l-68 -157q-37 -6 -70 -6zM400 588l-147 -338h185zM388 860l-16 -106q-25 -6 -53 -6q-13 0 -26 1.5t-19 2.5l-6 2l16 106q24 6 53 6q13 0 25.5 -1.5t19.5 -2.5zM598 860l-16 -106q-25 -6 -53 -6
q-13 0 -26 1.5t-19 2.5l-6 2l16 106q24 6 53 6q13 0 25.5 -1.5t19.5 -2.5z" />
    <glyph glyph-name="Aring" unicode="&#xc5;" horiz-adv-x="612" 
d="M14 3l308 694q45 6 95 6l93 -6l88 -694q-36 -6 -67 -6l-69 6l-19 157h-225l-68 -157q-37 -6 -70 -6zM400 588l-147 -338h185zM345 812l2 16q12 72 101 72q45 0 64 -19t13 -53l-2 -16q-12 -72 -101 -72q-45 0 -64 19t-13 53zM398 828l-2 -16q-2 -15 5.5 -22.5t27.5 -7.5
q37 0 42 30l2 16q3 15 -4.5 22t-27.5 7q-37 0 -43 -29z" />
    <glyph glyph-name="AE" unicode="&#xc6;" horiz-adv-x="755" 
d="M509 315l-35 -225h261q3 -18 -2 -45l-12 -45h-187q-57 0 -110 2t-78 4l-24 3l24 151h-128l-68 -157q-37 -6 -70 -6l-66 6l306 688q132 9 324 9h182q3 -18 -1 -45q-2 -12 -5.5 -23.5t-5.5 -16.5l-3 -5h-255l-32 -205h224q2 -18 -1 -45l-13 -45h-225zM409 610l-156 -360
h107l57 360h-8z" />
    <glyph glyph-name="Ccedilla" unicode="&#xc7;" horiz-adv-x="568" 
d="M86 182l54 336q15 94 81 141t199 47t177 -46t29 -142l-2 -12q-32 -7 -64 -7q-14 0 -29 1.5t-24 3.5l-8 2l2 12q8 54 -12.5 76t-83.5 22t-90.5 -22t-35.5 -76l-54 -336q-8 -54 16.5 -76.5t95.5 -22.5q53 0 105.5 11t76.5 20.5t26 11.5v-2q1 -3 1.5 -6.5t0.5 -8.5
t-0.5 -12.5t-1.5 -15.5q-2 -13 -5.5 -24.5t-6.5 -16.5l-3 -6q-78 -38 -194 -41l-2 -12q-2 -13 10.5 -21.5t29 -12.5t28 -17t8.5 -35l-2 -10q-11 -72 -118 -72q-59 0 -78 19t-13 58l1 5q19 3 35 3l34 -3l-1 -5q-3 -18 3.5 -25t25.5 -7q20 0 28 6t11 21l1 10q2 11 -10.5 18.5
t-28.5 11.5t-28 18.5t-8 37.5l3 14q-109 9 -150.5 55.5t-28.5 131.5z" />
    <glyph glyph-name="Egrave" unicode="&#xc8;" 
d="M237 315l-35 -225h293q3 -18 -1 -45l-13 -45h-220q-57 0 -110 2t-77 4l-25 3l109 682q85 9 213 9h215q4 -18 -1 -45q-2 -12 -5 -23.5t-6 -16.5l-2 -5h-289l-32 -205h257q3 -18 -1 -45q-2 -12 -5 -23.5t-6 -16.5l-2 -5h-257zM394 753l-119 135q33 6 63 6l58 -6l76 -135
q-20 -6 -40 -6z" />
    <glyph glyph-name="Eacute" unicode="&#xc9;" 
d="M237 315l-35 -225h293q3 -18 -1 -45l-13 -45h-220q-57 0 -110 2t-77 4l-25 3l109 682q85 9 213 9h215q4 -18 -1 -45q-2 -12 -5 -23.5t-6 -16.5l-2 -5h-289l-32 -205h257q3 -18 -1 -45q-2 -12 -5 -23.5t-6 -16.5l-2 -5h-257zM542 888l-160 -135q-22 -6 -40 -6l-38 6
l117 135q30 6 61 6z" />
    <glyph glyph-name="Ecircumflex" unicode="&#xca;" 
d="M237 315l-35 -225h293q3 -18 -1 -45l-13 -45h-220q-57 0 -110 2t-77 4l-25 3l109 682q85 9 213 9h215q4 -18 -1 -45q-2 -12 -5 -23.5t-6 -16.5l-2 -5h-289l-32 -205h257q3 -18 -1 -45q-2 -12 -5 -23.5t-6 -16.5l-2 -5h-257zM465 753l-65 78l-90 -78q-21 -6 -40 -6l-38 6
l119 132q29 6 58 6l56 -6l78 -132q-19 -6 -40 -6z" />
    <glyph glyph-name="Edieresis" unicode="&#xcb;" 
d="M237 315l-35 -225h293q3 -18 -1 -45l-13 -45h-220q-57 0 -110 2t-77 4l-25 3l109 682q85 9 213 9h215q4 -18 -1 -45q-2 -12 -5 -23.5t-6 -16.5l-2 -5h-289l-32 -205h257q3 -18 -1 -45q-2 -12 -5 -23.5t-6 -16.5l-2 -5h-257zM352 860l-17 -106q-24 -6 -53 -6
q-13 0 -25.5 1.5t-18.5 2.5l-7 2l17 106q23 6 52 6zM562 860l-17 -106q-24 -6 -53 -6q-13 0 -25.5 1.5t-18.5 2.5l-7 2l17 106q23 6 52 6z" />
    <glyph glyph-name="Igrave" unicode="&#xcc;" horiz-adv-x="332" 
d="M50 90h65l81 520h-64q-3 17 1 45l13 45h268q4 -18 -1 -45q-2 -12 -5 -23.5t-6 -16.5l-2 -5h-65l-81 -520h64q3 -17 -2 -45l-12 -45h-268q-4 18 1 45q2 12 5 23t6 16zM294 753l-119 135q33 6 62 6l59 -6l75 -135q-19 -6 -39 -6z" />
    <glyph glyph-name="Iacute" unicode="&#xcd;" horiz-adv-x="332" 
d="M50 90h65l81 520h-64q-3 17 1 45l13 45h268q4 -18 -1 -45q-2 -12 -5 -23.5t-6 -16.5l-2 -5h-65l-81 -520h64q3 -17 -2 -45l-12 -45h-268q-4 18 1 45q2 12 5 23t6 16zM445 888l-161 -135q-21 -6 -40 -6l-38 6l118 135q30 6 61 6z" />
    <glyph glyph-name="Icircumflex" unicode="&#xce;" horiz-adv-x="332" 
d="M50 90h65l81 520h-64q-3 17 1 45l13 45h268q4 -18 -1 -45q-2 -12 -5 -23.5t-6 -16.5l-2 -5h-65l-81 -520h64q3 -17 -2 -45l-12 -45h-268q-4 18 1 45q2 12 5 23t6 16zM367 753l-66 78l-90 -78q-21 -6 -40 -6l-37 6l118 132q29 6 58 6l56 -6l78 -132q-19 -6 -40 -6z" />
    <glyph glyph-name="Idieresis" unicode="&#xcf;" horiz-adv-x="332" 
d="M266 859l-17 -106q-24 -6 -53 -6q-13 0 -25.5 1.5t-18.5 3.5l-7 1l17 106q23 7 52 7q13 0 26 -2t20 -4zM450 859l-17 -106q-24 -6 -53 -6q-13 0 -25.5 1.5t-18.5 3.5l-7 1l17 106q23 7 52 7q13 0 26 -2t20 -4zM50 90h65l81 520h-64q-3 17 1 45l13 45h268q4 -18 -1 -45
q-2 -12 -5 -23.5t-6 -16.5l-2 -5h-65l-81 -520h64q3 -17 -2 -45l-12 -45h-268q-4 18 1 45q2 12 5 23t6 16z" />
    <glyph glyph-name="Eth" unicode="&#xd0;" horiz-adv-x="624" 
d="M190 692q99 12 245 12q135 0 187.5 -46t37.5 -140l-53 -336q-15 -94 -82 -140t-202 -46q-65 0 -125.5 3t-88.5 6l-28 3l50 310h-46q-4 16 1 42q1 11 4 21.5t6 14.5l2 5h46zM382 318h-112l-38 -234h105q64 0 93.5 22.5t37.5 75.5l53 336q8 53 -14 75.5t-86 22.5h-104
l-34 -215h112q3 -16 0 -41z" />
    <glyph glyph-name="Ntilde" unicode="&#xd1;" horiz-adv-x="618" 
d="M48 3l110 694q31 6 60 6l58 -6l202 -440l69 440q34 6 67 6l65 -6l-110 -694q-30 -6 -60 -6l-58 6l-201 440l-70 -440q-33 -6 -67 -6zM263 754l1 4q8 54 30.5 79t69.5 25q38 0 60.5 -14t35.5 -27.5t28 -13.5q22 0 32 10t15 34v5q20 6 38 6l35 -6l-1 -4q-9 -55 -30.5 -79.5
t-69.5 -24.5q-30 0 -51 8.5t-30 19t-20 19t-23 8.5q-23 0 -33 -9.5t-14 -34.5l-1 -5q-19 -6 -37 -6z" />
    <glyph glyph-name="Ograve" unicode="&#xd2;" horiz-adv-x="599" 
d="M88 182l54 336q15 94 82 141t202 47t187.5 -47t37.5 -141l-54 -336q-15 -94 -82.5 -141.5t-201.5 -47.5q-135 0 -187.5 47.5t-37.5 141.5zM281 518l-14 -84l-26 -168l-14 -84q-8 -53 14 -76t86 -23t93.5 23t37.5 76l54 336q8 53 -14 75.5t-86 22.5t-93.5 -22.5
t-37.5 -75.5zM438 753l-119 135q33 6 63 6l58 -6l76 -135q-19 -6 -40 -6z" />
    <glyph glyph-name="Oacute" unicode="&#xd3;" horiz-adv-x="599" 
d="M88 182l54 336q15 94 82 141t202 47t187.5 -47t37.5 -141l-54 -336q-15 -94 -82.5 -141.5t-201.5 -47.5q-135 0 -187.5 47.5t-37.5 141.5zM281 518l-14 -84l-26 -168l-14 -84q-8 -53 14 -76t86 -23t93.5 23t37.5 76l54 336q8 53 -14 75.5t-86 22.5t-93.5 -22.5
t-37.5 -75.5zM589 888l-160 -135q-22 -6 -40 -6l-38 6l117 135q30 6 61 6z" />
    <glyph glyph-name="Ocircumflex" unicode="&#xd4;" horiz-adv-x="599" 
d="M88 182l54 336q15 94 82 141t202 47t187.5 -47t37.5 -141l-54 -336q-15 -94 -82.5 -141.5t-201.5 -47.5q-135 0 -187.5 47.5t-37.5 141.5zM281 518l-14 -84l-26 -168l-14 -84q-8 -53 14 -76t86 -23t93.5 23t37.5 76l54 336q8 53 -14 75.5t-86 22.5t-93.5 -22.5
t-37.5 -75.5zM511 753l-66 78l-89 -78q-21 -6 -40 -6l-38 6l119 132q29 6 58 6l56 -6l78 -132q-19 -6 -40 -6z" />
    <glyph glyph-name="Otilde" unicode="&#xd5;" horiz-adv-x="599" 
d="M88 182l54 336q15 94 82 141t202 47t187.5 -47t37.5 -141l-54 -336q-15 -94 -82.5 -141.5t-201.5 -47.5q-135 0 -187.5 47.5t-37.5 141.5zM281 518l-14 -84l-26 -168l-14 -84q-8 -53 14 -76t86 -23t93.5 23t37.5 76l54 336q8 53 -14 75.5t-86 22.5t-93.5 -22.5
t-37.5 -75.5zM269 754l1 4q8 54 30.5 79t69.5 25q38 0 60.5 -14t35.5 -27.5t28 -13.5q22 0 32 10t15 34v5q20 6 38 6l35 -6l-1 -4q-9 -55 -30.5 -79.5t-69.5 -24.5q-30 0 -51 8.5t-30 19t-20 19t-23 8.5q-23 0 -33 -9.5t-14 -34.5v-5q-19 -6 -38 -6z" />
    <glyph glyph-name="Odieresis" unicode="&#xd6;" horiz-adv-x="599" 
d="M88 182l54 336q15 94 82 141t202 47t187.5 -47t37.5 -141l-54 -336q-15 -94 -82.5 -141.5t-201.5 -47.5q-135 0 -187.5 47.5t-37.5 141.5zM281 518l-14 -84l-26 -168l-14 -84q-8 -53 14 -76t86 -23t93.5 23t37.5 76l54 336q8 53 -14 75.5t-86 22.5t-93.5 -22.5
t-37.5 -75.5zM397 859l-17 -106q-24 -6 -53 -6q-13 0 -25.5 1.5t-18.5 3.5l-7 1l17 106q24 7 53 7q13 0 25.5 -2t19.5 -4zM607 859l-17 -106q-24 -6 -53 -6q-13 0 -25.5 1.5t-18.5 3.5l-7 1l17 106q24 7 53 7q13 0 25.5 -2t19.5 -4z" />
    <glyph glyph-name="multiply" unicode="&#xd7;" horiz-adv-x="404" 
d="M160 475l97 -116l135 116q15 -8 29 -25q7 -8 12 -16.5t7 -13.5l1 -4l-134 -116l97 -116q-9 -15 -30 -33q-9 -8 -18.5 -14t-14.5 -9l-5 -2l-97 115l-134 -115q-14 7 -29 25q-7 8 -12 16t-6 13l-2 4l133 116l-98 116q11 16 31 34q9 8 18.5 14t14.5 8z" />
    <glyph glyph-name="Oslash" unicode="&#xd8;" horiz-adv-x="599" 
d="M680 697l-56 -71q22 -44 12 -108l-54 -336q-15 -94 -82.5 -141.5t-201.5 -47.5q-96 0 -152 25l-12 -15q-28 -6 -54 -6l-51 6l55 70q-22 42 -11 109l54 336q15 94 82 141t202 47q95 0 151 -25l13 16q26 6 53 6zM259 518l-45 -280l278 354q-24 28 -95 28q-68 0 -99 -23.5
t-39 -78.5zM311 80q68 0 99.5 23.5t39.5 78.5l45 280l-279 -355q21 -27 95 -27z" />
    <glyph glyph-name="Ugrave" unicode="&#xd9;" horiz-adv-x="600" 
d="M677 697l-82 -515q-15 -94 -82 -141.5t-200 -47.5t-184.5 47.5t-36.5 141.5l81 515q36 6 71 6l68 -6l-81 -515q-8 -53 13 -76t84 -23q62 0 91 23t37 76l82 515q35 6 70 6zM439 753l-119 135q33 6 62 6l59 -6l76 -135q-20 -6 -40 -6z" />
    <glyph glyph-name="Uacute" unicode="&#xda;" horiz-adv-x="600" 
d="M677 697l-82 -515q-15 -94 -82 -141.5t-200 -47.5t-184.5 47.5t-36.5 141.5l81 515q36 6 71 6l68 -6l-81 -515q-8 -53 13 -76t84 -23q62 0 91 23t37 76l82 515q35 6 70 6zM590 888l-161 -135q-21 -6 -40 -6l-37 6l117 135q30 6 61 6z" />
    <glyph glyph-name="Ucircumflex" unicode="&#xdb;" horiz-adv-x="600" 
d="M677 697l-82 -515q-15 -94 -82 -141.5t-200 -47.5t-184.5 47.5t-36.5 141.5l81 515q36 6 71 6l68 -6l-81 -515q-8 -53 13 -76t84 -23q62 0 91 23t37 76l82 515q35 6 70 6zM512 753l-66 78l-90 -78q-21 -6 -39 -6l-38 6l118 132q29 6 58 6l56 -6l78 -132q-19 -6 -39 -6z
" />
    <glyph glyph-name="Udieresis" unicode="&#xdc;" horiz-adv-x="600" 
d="M677 697l-82 -515q-15 -94 -82 -141.5t-200 -47.5t-184.5 47.5t-36.5 141.5l81 515q36 6 71 6l68 -6l-81 -515q-8 -53 13 -76t84 -23q62 0 91 23t37 76l82 515q35 6 70 6zM398 859l-17 -106q-24 -6 -53 -6q-13 0 -25.5 1.5t-19.5 3.5l-6 1l17 106q23 7 53 7q13 0 25.5 -2
t18.5 -4zM608 859l-17 -106q-24 -6 -53 -6q-13 0 -25.5 1.5t-19.5 3.5l-6 1l17 106q23 7 53 7q13 0 25.5 -2t18.5 -4z" />
    <glyph glyph-name="Yacute" unicode="&#xdd;" horiz-adv-x="610" 
d="M697 697l-281 -431l-41 -263q-36 -6 -71 -6l-68 6l41 262l-144 432q43 6 76 6l74 -6l85 -297l179 297q41 6 76 6zM580 888l-161 -135q-21 -6 -40 -6l-37 6l117 135q30 6 61 6z" />
    <glyph glyph-name="Thorn" unicode="&#xde;" horiz-adv-x="542" 
d="M297 697l-20 -128q34 3 84 3q120 0 166.5 -46.5t31.5 -140.5l-7 -49q-15 -94 -76 -140t-182 -46l-82 3l-25 -150q-36 -6 -70 -6l-69 6l110 694q36 6 71 6zM264 483l-39 -245h79q52 0 76 22.5t33 75.5l7 49q8 54 -8.5 76t-68.5 22h-79z" />
    <glyph glyph-name="germandbls" unicode="&#xdf;" horiz-adv-x="710" 
d="M52 -196l97 614h-46q-2 16 1 41q2 11 5 21.5t5 15.5l3 5h46l6 44q13 81 67.5 121t163.5 40t150.5 -40t28.5 -121l-2 -17q-5 -31 -17.5 -52.5t-26 -33t-27.5 -20.5t-24 -21t-13 -29l-2 -15q-3 -20 11.5 -30t44.5 -17q30 -6 47.5 -11t47.5 -17t45.5 -27t26 -40.5t5.5 -57.5
l-3 -20q-12 -72 -63.5 -108t-157.5 -36q-110 0 -146.5 37.5t-23.5 116.5l1 9q33 6 65 6l63 -6l-1 -9q-6 -38 6 -54.5t49 -16.5t54 14t22 47l3 20q3 21 -12.5 32.5t-47.5 18.5q-30 6 -47 10.5t-46 17t-44 26.5t-25 39t-5 56l2 15q6 37 22.5 61t33.5 33t32 24.5t19 37.5l2 17
q5 35 -8.5 49.5t-55.5 14.5q-40 0 -58 -16t-24 -48l-117 -741q-34 -6 -67 -6z" />
    <glyph glyph-name="agrave" unicode="&#xe0;" 
d="M348 3l5 32q-7 -5 -19 -12t-50.5 -18.5t-76.5 -11.5q-80 0 -108.5 43t-15.5 128l28 171q13 85 61.5 128t142.5 43q39 0 66 -8.5t34 -17.5l7 -8l4 25q33 6 67 6l65 -6l-78 -494q-34 -6 -67 -6zM243 335l-28 -171q-7 -48 4.5 -68t49.5 -20q29 0 53 9t33 17l10 9l36 224
q7 48 -8.5 68t-62.5 20q-41 0 -60 -20t-27 -68zM363 562l-118 135q33 6 62 6l59 -6l75 -135q-19 -6 -40 -6z" />
    <glyph glyph-name="aacute" unicode="&#xe1;" 
d="M348 3l5 32q-7 -5 -19 -12t-50.5 -18.5t-76.5 -11.5q-80 0 -108.5 43t-15.5 128l28 171q13 85 61.5 128t142.5 43q39 0 66 -8.5t34 -17.5l7 -8l4 25q33 6 67 6l65 -6l-78 -494q-34 -6 -67 -6zM243 335l-28 -171q-7 -48 4.5 -68t49.5 -20q29 0 53 9t33 17l10 9l36 224
q7 48 -8.5 68t-62.5 20q-41 0 -60 -20t-27 -68zM515 697l-161 -135q-21 -6 -40 -6l-38 6l118 135q30 6 61 6z" />
    <glyph glyph-name="acircumflex" unicode="&#xe2;" 
d="M348 3l5 32q-7 -5 -19 -12t-50.5 -18.5t-76.5 -11.5q-80 0 -108.5 43t-15.5 128l28 171q13 85 61.5 128t142.5 43q39 0 66 -8.5t34 -17.5l7 -8l4 25q33 6 67 6l65 -6l-78 -494q-34 -6 -67 -6zM243 335l-28 -171q-7 -48 4.5 -68t49.5 -20q29 0 53 9t33 17l10 9l36 224
q7 48 -8.5 68t-62.5 20q-41 0 -60 -20t-27 -68zM437 565l-66 78l-90 -78q-21 -6 -39 -6l-38 6l119 132q29 6 58 6l56 -6l77 -132q-19 -6 -39 -6z" />
    <glyph glyph-name="atilde" unicode="&#xe3;" 
d="M348 3l5 32q-7 -5 -19 -12t-50.5 -18.5t-76.5 -11.5q-80 0 -108.5 43t-15.5 128l28 171q13 85 61.5 128t142.5 43q39 0 66 -8.5t34 -17.5l7 -8l4 25q33 6 67 6l65 -6l-78 -494q-34 -6 -67 -6zM243 335l-28 -171q-7 -48 4.5 -68t49.5 -20q29 0 53 9t33 17l10 9l36 224
q7 48 -8.5 68t-62.5 20q-41 0 -60 -20t-27 -68zM199 593l1 4q9 54 31.5 79t69.5 25q30 0 50.5 -8.5t29 -19.5t19.5 -19.5t24 -8.5q23 0 32.5 9.5t13.5 34.5l1 5q20 7 39 7q8 0 16.5 -1.5t12.5 -3.5l5 -2v-4q-10 -54 -31.5 -79t-69.5 -25q-30 0 -51 9t-30 19t-20 19t-23 9
q-23 0 -32.5 -9.5t-13.5 -34.5l-1 -5q-19 -7 -38 -7q-8 0 -16.5 2t-13.5 4z" />
    <glyph glyph-name="adieresis" unicode="&#xe4;" 
d="M348 3l5 32q-7 -5 -19 -12t-50.5 -18.5t-76.5 -11.5q-80 0 -108.5 43t-15.5 128l28 171q13 85 61.5 128t142.5 43q39 0 66 -8.5t34 -17.5l7 -8l4 25q33 6 67 6l65 -6l-78 -494q-34 -6 -67 -6zM243 335l-28 -171q-7 -48 4.5 -68t49.5 -20q29 0 53 9t33 17l10 9l36 224
q7 48 -8.5 68t-62.5 20q-41 0 -60 -20t-27 -68zM327 697l-17 -106q-24 -7 -53 -7q-13 0 -25.5 2t-18.5 4l-7 1l17 106q24 6 53 6q13 0 25.5 -1.5t19.5 -3.5zM537 697l-17 -106q-24 -7 -53 -7q-13 0 -25.5 2t-18.5 4l-7 1l17 106q24 6 53 6q13 0 25.5 -1.5t19.5 -3.5z" />
    <glyph glyph-name="aring" unicode="&#xe5;" 
d="M348 3l5 32q-7 -5 -19 -12t-50.5 -18.5t-76.5 -11.5q-80 0 -108.5 43t-15.5 128l28 171q13 85 61.5 128t142.5 43q39 0 66 -8.5t34 -17.5l7 -8l4 25q33 6 67 6l65 -6l-78 -494q-34 -6 -67 -6zM243 335l-28 -171q-7 -48 4.5 -68t49.5 -20q29 0 53 9t33 17l10 9l36 224
q7 48 -8.5 68t-62.5 20q-41 0 -60 -20t-27 -68zM279 615l2 16q12 72 100 72q46 0 64.5 -19t13.5 -53l-2 -16q-13 -72 -101 -72q-46 0 -64.5 19t-12.5 53zM332 631l-2 -16q-3 -15 4.5 -22.5t28.5 -7.5q36 0 42 30l2 16q2 15 -5.5 22t-27.5 7q-37 0 -42 -29z" />
    <glyph glyph-name="ae" unicode="&#xe6;" horiz-adv-x="790" 
d="M199 -7q-77 0 -105 36t-17 108l2 13q10 62 58 96t149 46l108 12l6 42q6 42 -8 59.5t-58 17.5q-43 0 -63 -17t-26 -57l-1 -10q-32 -6 -64 -6l-61 6l1 10q13 80 63 118.5t164 38.5q108 0 137 -57q47 57 151 57q113 0 150.5 -41.5t23.5 -129.5l-19 -117q-49 -12 -141 -12
h-139l-7 -42q-7 -48 12.5 -68t76.5 -20q41 0 81.5 7.5t60 15t19.5 8.5v-2q1 -2 1.5 -6t1 -8.5t0 -11.5t-1.5 -14q-2 -11 -5.5 -21.5t-6.5 -15.5l-3 -4q-65 -31 -160 -31q-130 0 -162 68q-62 -68 -218 -68zM381 224l-82 -11q-80 -11 -88 -63l-2 -13q-5 -32 7 -46.5t48 -14.5
q52 0 76 20.5t31 67.5zM523 289h153l8 46q8 48 -6 68t-57 20t-63 -20t-27 -68z" />
    <glyph glyph-name="ccedilla" unicode="&#xe7;" horiz-adv-x="491" 
d="M94 164l28 171q13 85 69 128t168 43q111 0 147.5 -42t22.5 -129l-2 -12q-30 -6 -60 -6l-58 6l2 12q8 48 -6 68t-59 20q-44 0 -64 -20t-28 -68l-28 -171q-7 -48 12.5 -68t77.5 -20q41 0 80 7.5t58 15t19 8.5l1 -2q0 -2 0.5 -6t1 -8.5t0 -11.5t-1.5 -14q-2 -11 -5.5 -21.5
t-6.5 -15.5l-3 -4q-62 -30 -155 -31l-2 -12q-2 -13 10.5 -21.5t29 -12.5t28 -17t8.5 -35l-1 -10q-12 -72 -119 -72q-59 0 -78 19t-12 58v5q19 3 35 3l34 -3v-5q-4 -18 2.5 -25t26.5 -7q19 0 27 6t11 21l1 10q2 11 -10.5 18.5t-28.5 11.5t-27.5 18.5t-8.5 37.5l3 16
q-163 21 -139 167z" />
    <glyph glyph-name="egrave" unicode="&#xe8;" horiz-adv-x="509" 
d="M83 164l28 171q13 85 69.5 128t170.5 43q115 0 154 -42t25 -129l-19 -117q-51 -12 -145 -12h-144l-7 -42q-7 -48 13 -68t79 -20q43 0 85 7.5t62 15t20 8.5l1 -2q0 -2 0.5 -6t1 -8.5t0 -11.5t-1.5 -14q-2 -11 -5.5 -21.5t-6.5 -15.5l-3 -4q-67 -31 -166 -31
q-126 0 -175 43t-36 128zM235 289h162l8 46q8 48 -6.5 68t-60.5 20t-66.5 -20t-28.5 -68zM361 562l-119 135q33 6 63 6l59 -6l74 -135q-19 -6 -39 -6z" />
    <glyph glyph-name="eacute" unicode="&#xe9;" horiz-adv-x="509" 
d="M83 164l28 171q13 85 69.5 128t170.5 43q115 0 154 -42t25 -129l-19 -117q-51 -12 -145 -12h-144l-7 -42q-7 -48 13 -68t79 -20q43 0 85 7.5t62 15t20 8.5l1 -2q0 -2 0.5 -6t1 -8.5t0 -11.5t-1.5 -14q-2 -11 -5.5 -21.5t-6.5 -15.5l-3 -4q-67 -31 -166 -31
q-126 0 -175 43t-36 128zM235 289h162l8 46q8 48 -6.5 68t-60.5 20t-66.5 -20t-28.5 -68zM512 697l-161 -135q-21 -6 -40 -6l-38 6l118 135q30 6 61 6z" />
    <glyph glyph-name="ecircumflex" unicode="&#xea;" horiz-adv-x="509" 
d="M83 164l28 171q13 85 69.5 128t170.5 43q115 0 154 -42t25 -129l-19 -117q-51 -12 -145 -12h-144l-7 -42q-7 -48 13 -68t79 -20q43 0 85 7.5t62 15t20 8.5l1 -2q0 -2 0.5 -6t1 -8.5t0 -11.5t-1.5 -14q-2 -11 -5.5 -21.5t-6.5 -15.5l-3 -4q-67 -31 -166 -31
q-126 0 -175 43t-36 128zM235 289h162l8 46q8 48 -6.5 68t-60.5 20t-66.5 -20t-28.5 -68zM434 565l-66 78l-89 -78q-21 -6 -40 -6l-38 6l119 132q29 6 58 6l57 -6l77 -132q-19 -6 -40 -6z" />
    <glyph glyph-name="edieresis" unicode="&#xeb;" horiz-adv-x="509" 
d="M83 164l28 171q13 85 69.5 128t170.5 43q115 0 154 -42t25 -129l-19 -117q-51 -12 -145 -12h-144l-7 -42q-7 -48 13 -68t79 -20q43 0 85 7.5t62 15t20 8.5l1 -2q0 -2 0.5 -6t1 -8.5t0 -11.5t-1.5 -14q-2 -11 -5.5 -21.5t-6.5 -15.5l-3 -4q-67 -31 -166 -31
q-126 0 -175 43t-36 128zM235 289h162l8 46q8 48 -6.5 68t-60.5 20t-66.5 -20t-28.5 -68zM324 697l-16 -106q-25 -7 -53 -7q-13 0 -25.5 2t-18.5 4l-7 1l16 106q24 6 53 6q13 0 26 -1.5t19 -3.5zM534 697l-16 -106q-25 -7 -53 -7q-13 0 -25.5 2t-18.5 4l-7 1l16 106
q24 6 53 6q13 0 26 -1.5t19 -3.5z" />
    <glyph glyph-name="igrave" unicode="&#xec;" horiz-adv-x="262" 
d="M218 562l-119 135q33 6 63 6l59 -6l74 -135q-19 -6 -39 -6zM243 76q10 0 26 4q2 -17 -1 -37l-11 -36q-38 -14 -76 -14q-65 0 -89 34t-14 102l58 368q34 6 67 6l65 -6l-58 -368q-4 -29 3 -41t30 -12z" />
    <glyph glyph-name="iacute" unicode="&#xed;" horiz-adv-x="262" 
d="M370 697l-162 -135q-21 -6 -40 -6l-38 6l118 135q30 6 61 6zM243 76q10 0 26 4q2 -17 -1 -37l-11 -36q-38 -14 -76 -14q-65 0 -89 34t-14 102l58 368q34 6 67 6l65 -6l-58 -368q-4 -29 3 -41t30 -12z" />
    <glyph glyph-name="icircumflex" unicode="&#xee;" horiz-adv-x="262" 
d="M234 76q10 0 26 4q2 -17 -1 -37l-11 -36q-38 -14 -76 -14q-65 0 -89 34t-14 102l58 368q34 6 67 6l65 -6l-58 -368q-4 -29 3 -41t30 -12zM281 565l-66 78l-89 -78q-21 -6 -40 -6l-38 6l119 132q29 6 58 6l57 -6l77 -132q-19 -6 -40 -6z" />
    <glyph glyph-name="idieresis" unicode="&#xef;" horiz-adv-x="262" 
d="M202 697l-16 -106q-25 -7 -53 -7q-13 0 -25.5 2t-19.5 4l-6 1l16 106q24 6 53 6q13 0 26 -1.5t19 -3.5zM370 697l-16 -106q-25 -7 -53 -7q-13 0 -25.5 2t-19.5 4l-6 1l16 106q24 6 53 6q13 0 26 -1.5t19 -3.5zM243 76q10 0 26 4q2 -17 -1 -37l-11 -36q-38 -14 -76 -14
q-65 0 -89 34t-14 102l58 368q34 6 67 6l65 -6l-58 -368q-4 -29 3 -41t30 -12z" />
    <glyph glyph-name="eth" unicode="&#xf0;" horiz-adv-x="517" 
d="M534 697l-56 -50q101 -56 86 -147l-53 -336q-13 -85 -70.5 -128t-170.5 -43t-156.5 43t-30.5 128l28 171q13 85 55.5 128t124.5 43q39 0 72.5 -10t47.5 -20l15 -11l6 35q7 42 -38 73l-31 -27q-24 -7 -45 -7q-10 0 -20.5 1.5t-16.5 3.5l-5 2l60 55q-29 11 -64 18.5
t-55 9.5l-21 2q-3 16 1 41l12 41q109 -4 207 -38l25 22q23 6 47 6zM379 164l35 224q-2 4 -7.5 10t-28 15.5t-52.5 9.5q-39 0 -57.5 -20t-26.5 -68l-27 -171q-7 -47 8 -67.5t60 -20.5q46 0 67 20.5t29 67.5z" />
    <glyph glyph-name="ntilde" unicode="&#xf1;" horiz-adv-x="519" 
d="M188 593l1 4q9 54 31.5 79t69.5 25q30 0 50.5 -8.5t29.5 -19.5t20 -19.5t23 -8.5q23 0 33 10t14 34l1 5q19 7 38 7q8 0 16.5 -1.5t12.5 -3.5l5 -2v-4q-9 -54 -30.5 -79t-70.5 -25q-30 0 -51 9t-30 19t-20 19t-23 9q-23 0 -32.5 -9.5t-13.5 -34.5l-1 -5q-19 -7 -38 -7
q-8 0 -16.5 2t-13.5 4zM258 497l-5 -32q61 41 148 41q82 0 111 -43t15 -128l-53 -332q-33 -6 -67 -6l-65 6l53 332q8 48 -4 68t-51 20q-29 0 -53.5 -8.5t-34.5 -17.5l-10 -9l-62 -385q-34 -6 -67 -6l-65 6l78 494q34 6 67 6z" />
    <glyph glyph-name="ograve" unicode="&#xf2;" horiz-adv-x="519" 
d="M83 164l28 171q13 85 70 128t171 43t157.5 -43t30.5 -128l-28 -171q-13 -85 -70.5 -128t-170.5 -43t-157 43t-31 128zM243 335l-7 -43q-7 -42 -14 -85l-7 -43q-7 -47 8 -67.5t61 -20.5t67.5 20.5t28.5 67.5l28 171q8 48 -7.5 68t-61.5 20t-67 -20t-29 -68zM366 562
l-119 135q33 6 63 6l59 -6l74 -135q-19 -6 -39 -6z" />
    <glyph glyph-name="oacute" unicode="&#xf3;" horiz-adv-x="519" 
d="M83 164l28 171q13 85 70 128t171 43t157.5 -43t30.5 -128l-28 -171q-13 -85 -70.5 -128t-170.5 -43t-157 43t-31 128zM243 335l-7 -43q-7 -42 -14 -85l-7 -43q-7 -47 8 -67.5t61 -20.5t67.5 20.5t28.5 67.5l28 171q8 48 -7.5 68t-61.5 20t-67 -20t-29 -68zM517 697
l-161 -135q-21 -6 -40 -6l-38 6l118 135q30 6 61 6z" />
    <glyph glyph-name="ocircumflex" unicode="&#xf4;" horiz-adv-x="519" 
d="M83 164l28 171q13 85 70 128t171 43t157.5 -43t30.5 -128l-28 -171q-13 -85 -70.5 -128t-170.5 -43t-157 43t-31 128zM243 335l-7 -43q-7 -42 -14 -85l-7 -43q-7 -47 8 -67.5t61 -20.5t67.5 20.5t28.5 67.5l28 171q8 48 -7.5 68t-61.5 20t-67 -20t-29 -68zM439 565
l-66 78l-89 -78q-21 -6 -40 -6l-38 6l119 132q29 6 58 6l57 -6l77 -132q-19 -6 -40 -6z" />
    <glyph glyph-name="otilde" unicode="&#xf5;" horiz-adv-x="519" 
d="M83 164l28 171q13 85 70 128t171 43t157.5 -43t30.5 -128l-28 -171q-13 -85 -70.5 -128t-170.5 -43t-157 43t-31 128zM243 335l-7 -43q-7 -42 -14 -85l-7 -43q-7 -47 8 -67.5t61 -20.5t67.5 20.5t28.5 67.5l28 171q8 48 -7.5 68t-61.5 20t-67 -20t-29 -68zM201 593l1 4
q9 54 31.5 79t69.5 25q30 0 50.5 -8.5t29.5 -19.5t20.5 -19.5t23.5 -8.5q22 0 32 10t14 34l1 5q19 7 38 7q8 0 16.5 -1.5t12.5 -3.5l5 -2v-4q-9 -54 -30.5 -79t-70.5 -25q-30 0 -51 9t-30 19t-20 19t-23 9q-23 0 -32.5 -9.5t-13.5 -34.5l-1 -5q-19 -7 -38 -7q-8 0 -16.5 2
t-13.5 4z" />
    <glyph glyph-name="odieresis" unicode="&#xf6;" horiz-adv-x="519" 
d="M83 164l28 171q13 85 70 128t171 43t157.5 -43t30.5 -128l-28 -171q-13 -85 -70.5 -128t-170.5 -43t-157 43t-31 128zM243 335l-7 -43q-7 -42 -14 -85l-7 -43q-7 -47 8 -67.5t61 -20.5t67.5 20.5t28.5 67.5l28 171q8 48 -7.5 68t-61.5 20t-67 -20t-29 -68zM329 697
l-16 -106q-25 -7 -53 -7q-13 0 -25.5 2t-19.5 4l-6 1l16 106q24 6 53 6q13 0 26 -1.5t19 -3.5zM539 697l-16 -106q-25 -7 -53 -7q-13 0 -25.5 2t-19.5 4l-6 1l16 106q24 6 53 6q13 0 26 -1.5t19 -3.5z" />
    <glyph glyph-name="divide" unicode="&#xf7;" horiz-adv-x="418" 
d="M425 251h-348q-3 16 1 42l12 41h348q3 -16 -1 -41zM340 492l-17 -103q-26 -5 -51 -5l-50 5l16 103q26 5 52 5zM293 197l-16 -103q-27 -5 -51 -5l-51 5l17 103q25 5 51 5z" />
    <glyph glyph-name="oslash" unicode="&#xf8;" horiz-adv-x="519" 
d="M558 497l-46 -52q26 -40 15 -110l-28 -171q-13 -85 -70.5 -128t-170.5 -43q-83 0 -127 22l-11 -12q-23 -6 -44 -6l-41 6l48 54q-24 41 -13 107l28 171q13 85 70 128t171 43q79 0 124 -21l11 12q21 6 43 6zM270 69q54 0 78.5 21.5t32.5 73.5l27 163l-210 -236
q16 -22 72 -22zM216 335q0 1 -5 -30t-11.5 -70.5t-9.5 -57.5l207 233q-19 20 -70 20q-54 0 -78.5 -21.5t-32.5 -73.5z" />
    <glyph glyph-name="ugrave" unicode="&#xf9;" horiz-adv-x="518" 
d="M354 3l5 32q-61 -42 -147 -42q-81 0 -109.5 43t-15.5 128l52 333q34 6 67 6l65 -6l-52 -333q-8 -48 4 -68t51 -20q29 0 53 9t34 18l10 9l61 385q34 6 67 6l65 -6l-78 -494q-34 -6 -67 -6zM365 562l-119 135q33 6 63 6l59 -6l74 -135q-19 -6 -39 -6z" />
    <glyph glyph-name="uacute" unicode="&#xfa;" horiz-adv-x="518" 
d="M354 3l5 32q-61 -42 -147 -42q-81 0 -109.5 43t-15.5 128l52 333q34 6 67 6l65 -6l-52 -333q-8 -48 4 -68t51 -20q29 0 53 9t34 18l10 9l61 385q34 6 67 6l65 -6l-78 -494q-34 -6 -67 -6zM517 697l-162 -135q-21 -6 -40 -6l-38 6l118 135q30 6 61 6z" />
    <glyph glyph-name="ucircumflex" unicode="&#xfb;" horiz-adv-x="518" 
d="M354 3l5 32q-61 -42 -147 -42q-81 0 -109.5 43t-15.5 128l52 333q34 6 67 6l65 -6l-52 -333q-8 -48 4 -68t51 -20q29 0 53 9t34 18l10 9l61 385q34 6 67 6l65 -6l-78 -494q-34 -6 -67 -6zM438 565l-66 78l-89 -78q-21 -6 -40 -6l-38 6l119 132q29 6 58 6l57 -6l77 -132
q-19 -6 -40 -6z" />
    <glyph glyph-name="udieresis" unicode="&#xfc;" horiz-adv-x="518" 
d="M354 3l5 32q-61 -42 -147 -42q-81 0 -109.5 43t-15.5 128l52 333q34 6 67 6l65 -6l-52 -333q-8 -48 4 -68t51 -20q29 0 53 9t34 18l10 9l61 385q34 6 67 6l65 -6l-78 -494q-34 -6 -67 -6zM328 697l-16 -106q-25 -7 -53 -7q-13 0 -25.5 2t-18.5 4l-7 1l16 106q24 6 53 6
q13 0 26 -1.5t19 -3.5zM538 697l-16 -106q-25 -7 -53 -7q-13 0 -25.5 2t-18.5 4l-7 1l16 106q24 6 53 6q13 0 26 -1.5t19 -3.5z" />
    <glyph glyph-name="yacute" unicode="&#xfd;" horiz-adv-x="516" 
d="M196 -56l26 55l-41 4l-85 494q34 6 64 6l65 -6l53 -383l173 383q36 6 67 6l63 -6l-268 -549q-39 -82 -87.5 -118.5t-126.5 -36.5q-17 0 -32 3t-22 6l-7 3q-1 2 -1.5 5t-1 13.5t1.5 20.5t5 20t6 14l2 5q21 -7 60 -7q55 0 86 68zM503 697l-162 -135q-21 -6 -39 -6l-38 6
l118 135q29 6 60 6z" />
    <glyph glyph-name="thorn" unicode="&#xfe;" horiz-adv-x="516" 
d="M290 697l-37 -232q61 41 147 41q80 0 109 -43t15 -128l-27 -171q-13 -85 -62.5 -128t-145.5 -43q-34 0 -60 8t-35 16l-10 8l-36 -222q-33 -6 -66 -6l-66 6l142 894q34 6 67 6zM365 164l27 171q8 48 -3.5 68t-49.5 20q-29 0 -53.5 -8.5t-33.5 -17.5l-10 -9l-36 -224
q-8 -47 8 -67.5t63 -20.5q42 0 61 20t27 68z" />
    <glyph glyph-name="ydieresis" unicode="&#xff;" horiz-adv-x="516" 
d="M196 -56l26 55l-41 4l-85 494q34 6 64 6l65 -6l53 -383l173 383q36 6 67 6l63 -6l-268 -549q-39 -82 -87.5 -118.5t-126.5 -36.5q-17 0 -32 3t-22 6l-7 3q-1 2 -1.5 5t-1 13.5t1.5 20.5t5 20t6 14l2 5q21 -7 60 -7q55 0 86 68zM315 697l-17 -106q-24 -7 -53 -7
q-13 0 -25.5 2t-19.5 4l-6 1l17 106q24 6 53 6q13 0 25.5 -1.5t18.5 -3.5zM525 697l-17 -106q-24 -7 -53 -7q-13 0 -25.5 2t-19.5 4l-6 1l17 106q24 6 53 6q13 0 25.5 -1.5t18.5 -3.5z" />
    <glyph glyph-name="Amacron" unicode="&#x100;" horiz-adv-x="612" 
d="M14 3l308 694q45 6 95 6l93 -6l88 -694q-36 -6 -67 -6l-69 6l-19 157h-225l-68 -157q-37 -6 -70 -6zM400 588l-147 -338h185zM563 771h-271q-4 12 0 31l10 31h271q0 -1 0.5 -3.5t1.5 -11t-1 -16.5q-1 -8 -4 -16t-5 -12z" />
    <glyph glyph-name="amacron" unicode="&#x101;" 
d="M348 3l5 32q-7 -5 -19 -12t-50.5 -18.5t-76.5 -11.5q-80 0 -108.5 43t-15.5 128l28 171q13 85 61.5 128t142.5 43q39 0 66 -8.5t34 -17.5l7 -8l4 25q33 6 67 6l65 -6l-78 -494q-34 -6 -67 -6zM243 335l-28 -171q-7 -48 4.5 -68t49.5 -20q29 0 53 9t33 17l10 9l36 224
q7 48 -8.5 68t-62.5 20q-41 0 -60 -20t-27 -68zM499 590h-271l-1 31q1 8 4 16t5 11l2 4h271l1 -31q-1 -8 -4 -15.5t-5 -11.5z" />
    <glyph glyph-name="Abreve" unicode="&#x102;" horiz-adv-x="612" 
d="M14 3l308 694q45 6 95 6l93 -6l88 -694q-36 -6 -67 -6l-69 6l-19 157h-225l-68 -157q-37 -6 -70 -6zM400 588l-147 -338h185zM424 747q-84 0 -112.5 28.5t-18.5 88.5l2 10q22 6 44 6l43 -6l-2 -11q-5 -32 6.5 -45t46.5 -13t50.5 13t20.5 45l2 11q22 6 43 6l43 -6l-2 -10
q-10 -60 -46 -88.5t-120 -28.5z" />
    <glyph glyph-name="abreve" unicode="&#x103;" 
d="M348 3l5 32q-7 -5 -19 -12t-50.5 -18.5t-76.5 -11.5q-80 0 -108.5 43t-15.5 128l28 171q13 85 61.5 128t142.5 43q39 0 66 -8.5t34 -17.5l7 -8l4 25q33 6 67 6l65 -6l-78 -494q-34 -6 -67 -6zM243 335l-28 -171q-7 -48 4.5 -68t49.5 -20q29 0 53 9t33 17l10 9l36 224
q7 48 -8.5 68t-62.5 20q-41 0 -60 -20t-27 -68zM360 569q-84 0 -112 29t-18 89l2 9q22 6 44 6l42 -6l-2 -11q-5 -31 6.5 -44t46.5 -13t50.5 13t20.5 44l2 11q23 6 44 6l43 -6l-2 -9q-10 -61 -46.5 -89.5t-120.5 -28.5z" />
    <glyph glyph-name="Aogonek" unicode="&#x104;" horiz-adv-x="612" 
d="M456 -92q7 46 62 89l-56 6l-19 157h-225l-68 -157q-37 -6 -70 -6l-66 6l308 694q45 6 95 6l93 -6l88 -694q-9 -2 -21 -3q-42 -42 -48 -82q-4 -35 29 -35q11 0 21.5 3t15.5 6l5 3l1 -24l-8 -23q-23 -18 -64 -18q-42 0 -60.5 20.5t-12.5 57.5zM400 588l-147 -338h185z" />
    <glyph glyph-name="aogonek" unicode="&#x105;" 
d="M337 -92q8 44 62 89l-51 6l5 32q-7 -5 -19 -12t-50.5 -18.5t-76.5 -11.5q-80 0 -108.5 43t-15.5 128l28 171q13 85 61.5 128t142.5 43q39 0 66 -8.5t34 -17.5l7 -8l4 25q33 6 67 6l65 -6l-78 -494q-10 -2 -22 -3q-42 -42 -48 -82q-4 -35 29 -35q11 0 21.5 3t16.5 6l5 3
l1 -24l-8 -23q-23 -18 -65 -18q-84 0 -73 78zM243 335l-28 -171q-7 -48 4.5 -68t49.5 -20q29 0 53 9t33 17l10 9l36 224q7 48 -8.5 68t-62.5 20q-41 0 -60 -20t-27 -68z" />
    <glyph glyph-name="Cacute" unicode="&#x106;" horiz-adv-x="568" 
d="M88 182l54 336q15 94 81 141t199 47t177 -46t29 -142l-2 -12q-32 -7 -64 -7q-14 0 -29 1.5t-24 3.5l-8 2l2 12q8 54 -12.5 76t-83.5 22t-90.5 -22t-35.5 -76l-54 -336q-8 -54 16.5 -76.5t95.5 -22.5q53 0 105.5 11t76.5 20.5t26 11.5v-2q1 -3 1.5 -6.5t0.5 -8.5
t-0.5 -12.5t-1.5 -15.5q-2 -13 -5.5 -24.5t-6.5 -16.5l-3 -6q-84 -41 -208 -41q-142 0 -196.5 47.5t-39.5 141.5zM574 888l-161 -135q-21 -6 -40 -6l-38 6l118 135q30 6 61 6z" />
    <glyph glyph-name="cacute" unicode="&#x107;" horiz-adv-x="491" 
d="M83 164l28 171q13 85 69 128t168 43q111 0 147.5 -42t22.5 -129l-2 -12q-30 -6 -60 -6l-58 6l2 12q8 48 -6 68t-59 20q-44 0 -64 -20t-28 -68l-28 -171q-7 -48 12.5 -68t77.5 -20q41 0 80 7.5t58 15t19 8.5l1 -2q0 -2 0.5 -6t1 -8.5t0 -11.5t-1.5 -14q-2 -11 -5.5 -21.5
t-6.5 -15.5l-3 -4q-63 -31 -157 -31q-125 0 -173 43t-35 128zM504 697l-161 -135q-21 -6 -40 -6l-38 6l118 135q30 6 61 6z" />
    <glyph glyph-name="Ccircumflex" unicode="&#x108;" horiz-adv-x="568" 
d="M88 182l54 336q15 94 81 141t199 47t177 -46t29 -142l-2 -12q-32 -7 -64 -7q-14 0 -29 1.5t-24 3.5l-8 2l2 12q8 54 -12.5 76t-83.5 22t-90.5 -22t-35.5 -76l-54 -336q-8 -54 16.5 -76.5t95.5 -22.5q53 0 105.5 11t76.5 20.5t26 11.5v-2q1 -3 1.5 -6.5t0.5 -8.5
t-0.5 -12.5t-1.5 -15.5q-2 -13 -5.5 -24.5t-6.5 -16.5l-3 -6q-84 -41 -208 -41q-142 0 -196.5 47.5t-39.5 141.5zM495 753l-65 78l-90 -78q-21 -6 -40 -6l-38 6l119 132q29 6 58 6l56 -6l78 -132q-19 -6 -40 -6z" />
    <glyph glyph-name="ccircumflex" unicode="&#x109;" horiz-adv-x="491" 
d="M83 164l28 171q13 85 69 128t168 43q111 0 147.5 -42t22.5 -129l-2 -12q-30 -6 -60 -6l-58 6l2 12q8 48 -6 68t-59 20q-44 0 -64 -20t-28 -68l-28 -171q-7 -48 12.5 -68t77.5 -20q41 0 80 7.5t58 15t19 8.5l1 -2q0 -2 0.5 -6t1 -8.5t0 -11.5t-1.5 -14q-2 -11 -5.5 -21.5
t-6.5 -15.5l-3 -4q-63 -31 -157 -31q-125 0 -173 43t-35 128zM426 565l-66 78l-89 -78q-21 -6 -40 -6l-38 6l119 132q29 6 58 6l57 -6l77 -132q-19 -6 -40 -6z" />
    <glyph glyph-name="Cdotaccent" unicode="&#x10a;" horiz-adv-x="568" 
d="M88 182l54 336q15 94 81 141t199 47t177 -46t29 -142l-2 -12q-32 -7 -64 -7q-14 0 -29 1.5t-24 3.5l-8 2l2 12q8 54 -12.5 76t-83.5 22t-90.5 -22t-35.5 -76l-54 -336q-8 -54 16.5 -76.5t95.5 -22.5q53 0 105.5 11t76.5 20.5t26 11.5v-2q1 -3 1.5 -6.5t0.5 -8.5
t-0.5 -12.5t-1.5 -15.5q-2 -13 -5.5 -24.5t-6.5 -16.5l-3 -6q-84 -41 -208 -41q-142 0 -196.5 47.5t-39.5 141.5zM502 870l-18 -116q-34 -6 -67 -6l-65 6l18 116q33 7 67 7q15 0 31 -1.5t25 -3.5z" />
    <glyph glyph-name="cdotaccent" unicode="&#x10b;" horiz-adv-x="491" 
d="M83 164l28 171q13 85 69 128t168 43q111 0 147.5 -42t22.5 -129l-2 -12q-30 -6 -60 -6l-58 6l2 12q8 48 -6 68t-59 20q-44 0 -64 -20t-28 -68l-28 -171q-7 -48 12.5 -68t77.5 -20q41 0 80 7.5t58 15t19 8.5l1 -2q0 -2 0.5 -6t1 -8.5t0 -11.5t-1.5 -14q-2 -11 -5.5 -21.5
t-6.5 -15.5l-3 -4q-63 -31 -157 -31q-125 0 -173 43t-35 128zM435 697l-18 -117q-34 -6 -67 -6l-65 6l18 117q34 6 67 6z" />
    <glyph glyph-name="Ccaron" unicode="&#x10c;" horiz-adv-x="568" 
d="M88 182l54 336q15 94 81 141t199 47t177 -46t29 -142l-2 -12q-32 -7 -64 -7q-14 0 -29 1.5t-24 3.5l-8 2l2 12q8 54 -12.5 76t-83.5 22t-90.5 -22t-35.5 -76l-54 -336q-8 -54 16.5 -76.5t95.5 -22.5q53 0 105.5 11t76.5 20.5t26 11.5v-2q1 -3 1.5 -6.5t0.5 -8.5
t-0.5 -12.5t-1.5 -15.5q-2 -13 -5.5 -24.5t-6.5 -16.5l-3 -6q-84 -41 -208 -41q-142 0 -196.5 47.5t-39.5 141.5zM360 885l66 -78l90 78q22 6 40 6q9 0 18.5 -1.5t14.5 -3.5l4 -1l-118 -132q-28 -6 -57 -6l-57 6l-78 132q20 6 40 6z" />
    <glyph glyph-name="ccaron" unicode="&#x10d;" horiz-adv-x="491" 
d="M83 164l28 171q13 85 69 128t168 43q111 0 147.5 -42t22.5 -129l-2 -12q-30 -6 -60 -6l-58 6l2 12q8 48 -6 68t-59 20q-44 0 -64 -20t-28 -68l-28 -171q-7 -48 12.5 -68t77.5 -20q41 0 80 7.5t58 15t19 8.5l1 -2q0 -2 0.5 -6t1 -8.5t0 -11.5t-1.5 -14q-2 -11 -5.5 -21.5
t-6.5 -15.5l-3 -4q-63 -31 -157 -31q-125 0 -173 43t-35 128zM292 697l65 -78l90 78q21 6 40 6l38 -6l-120 -132q-28 -6 -57 -6l-57 6l-77 132q19 6 40 6z" />
    <glyph glyph-name="Dcaron" unicode="&#x10e;" horiz-adv-x="591" 
d="M158 692q99 12 245 12q135 0 187.5 -46t37.5 -140l-53 -336q-15 -94 -82 -140t-202 -46q-65 0 -125.5 3t-88.5 6l-28 3zM284 616l-84 -532h104q65 0 94.5 22.5t37.5 75.5l53 336q8 53 -14 75.5t-86 22.5h-105zM354 885l66 -78l89 78q22 6 41 6q9 0 18.5 -1.5t13.5 -3.5
l5 -1l-118 -132q-29 -6 -58 -6l-57 6l-78 132q20 6 41 6z" />
    <glyph glyph-name="dcaron" unicode="&#x10f;" horiz-adv-x="656" 
d="M349 3l5 32q-7 -5 -19 -12t-50.5 -18.5t-76.5 -11.5q-81 0 -109.5 43t-15.5 128l28 171q13 85 62.5 128t145.5 43q33 0 59.5 -8t36.5 -16l9 -7l35 222q34 6 67 6l65 -6l-110 -694q-34 -6 -67 -6zM243 335l-28 -171q-7 -48 4.5 -68t50.5 -20q29 0 53 9t34 18l9 9l36 223
q8 48 -8 68t-63 20q-42 0 -61 -20t-27 -68zM786 697q-8 -47 -22.5 -88.5t-30.5 -67t-31 -44t-25 -26.5l-9 -8q-17 -6 -32 -6l-30 6q6 8 15 25t29.5 77.5t31.5 131.5q27 6 53 6z" />
    <glyph glyph-name="Dcroat" unicode="&#x110;" horiz-adv-x="624" 
d="M190 692q99 12 245 12q135 0 187.5 -46t37.5 -140l-53 -336q-15 -94 -82 -140t-202 -46q-65 0 -125.5 3t-88.5 6l-28 3l50 310h-46q-4 16 1 42q1 11 4 21.5t6 14.5l2 5h46zM382 318h-112l-38 -234h105q64 0 93.5 22.5t37.5 75.5l53 336q8 53 -14 75.5t-86 22.5h-104
l-34 -215h112q3 -16 0 -41z" />
    <glyph glyph-name="dcroat" unicode="&#x111;" horiz-adv-x="549" 
d="M616 568h-46l-89 -565q-34 -6 -67 -6l-65 6l5 32q-7 -5 -19 -12t-50.5 -18.5t-76.5 -11.5q-81 0 -109.5 43t-15.5 128l28 171q13 85 62.5 128t145.5 43q33 0 59 -8t35.5 -14t10.5 -9l14 93h-142q-4 15 0 38l12 38h142l9 53q34 6 67 6l65 -6l-9 -53h46q4 -15 0 -38
q-1 -10 -4 -19.5t-5 -14.5zM243 335l-28 -171q-7 -48 4.5 -68t50.5 -20q29 0 53 9t34 18l9 9l36 223q8 48 -8 68t-63 20q-42 0 -61 -20t-27 -68z" />
    <glyph glyph-name="Emacron" unicode="&#x112;" 
d="M237 315l-35 -225h293q3 -18 -1 -45l-13 -45h-220q-57 0 -110 2t-77 4l-25 3l109 682q85 9 213 9h215q4 -18 -1 -45q-2 -12 -5 -23.5t-6 -16.5l-2 -5h-289l-32 -205h257q3 -18 -1 -45q-2 -12 -5 -23.5t-6 -16.5l-2 -5h-257zM525 771h-271q-3 12 0 31l10 31h271
q0 -1 0.5 -3.5t1.5 -11t-1 -16.5q-1 -8 -4 -16t-5 -12z" />
    <glyph glyph-name="emacron" unicode="&#x113;" horiz-adv-x="509" 
d="M83 164l28 171q13 85 69.5 128t170.5 43q115 0 154 -42t25 -129l-19 -117q-51 -12 -145 -12h-144l-7 -42q-7 -48 13 -68t79 -20q43 0 85 7.5t62 15t20 8.5l1 -2q0 -2 0.5 -6t1 -8.5t0 -11.5t-1.5 -14q-2 -11 -5.5 -21.5t-6.5 -15.5l-3 -4q-67 -31 -166 -31
q-126 0 -175 43t-36 128zM235 289h162l8 46q8 48 -6.5 68t-60.5 20t-66.5 -20t-28.5 -68zM495 590h-270q0 1 -0.5 3.5t-1.5 11t1 16.5q1 8 3.5 16t5.5 11l2 4h270q0 -1 0.5 -3.5t1.5 -11t-1 -16.5q-1 -8 -4 -15.5t-5 -11.5z" />
    <glyph glyph-name="Ebreve" unicode="&#x114;" 
d="M237 315l-35 -225h293q3 -18 -1 -45l-13 -45h-220q-57 0 -110 2t-77 4l-25 3l109 682q85 9 213 9h215q4 -18 -1 -45q-2 -12 -5 -23.5t-6 -16.5l-2 -5h-289l-32 -205h257q3 -18 -1 -45q-2 -12 -5 -23.5t-6 -16.5l-2 -5h-257zM382 747q-84 0 -112 28.5t-18 88.5l2 10
q22 6 44 6l42 -6l-2 -11q-5 -32 7 -45t47 -13t50 13t20 45l2 11q23 6 44 6l43 -6l-2 -10q-10 -60 -46.5 -88.5t-120.5 -28.5z" />
    <glyph glyph-name="ebreve" unicode="&#x115;" horiz-adv-x="509" 
d="M83 164l28 171q13 85 69.5 128t170.5 43q115 0 154 -42t25 -129l-19 -117q-51 -12 -145 -12h-144l-7 -42q-7 -48 13 -68t79 -20q43 0 85 7.5t62 15t20 8.5l1 -2q0 -2 0.5 -6t1 -8.5t0 -11.5t-1.5 -14q-2 -11 -5.5 -21.5t-6.5 -15.5l-3 -4q-67 -31 -166 -31
q-126 0 -175 43t-36 128zM235 289h162l8 46q8 48 -6.5 68t-60.5 20t-66.5 -20t-28.5 -68zM358 569q-85 0 -113 28.5t-18 89.5l2 9q22 6 44 6l42 -6l-2 -11q-5 -31 6.5 -44t46.5 -13t50.5 12.5t20.5 44.5l2 11q23 6 44 6l43 -6l-2 -9q-10 -61 -46 -89.5t-120 -28.5z" />
    <glyph glyph-name="Edotaccent" unicode="&#x116;" 
d="M237 315l-35 -225h293q3 -18 -1 -45l-13 -45h-220q-57 0 -110 2t-77 4l-25 3l109 682q85 9 213 9h215q4 -18 -1 -45q-2 -12 -5 -23.5t-6 -16.5l-2 -5h-289l-32 -205h257q3 -18 -1 -45q-2 -12 -5 -23.5t-6 -16.5l-2 -5h-257zM473 870l-18 -116q-34 -6 -67 -6l-65 6l18 116
q34 7 67 7q15 0 31 -1.5t25 -3.5z" />
    <glyph glyph-name="edotaccent" unicode="&#x117;" horiz-adv-x="509" 
d="M83 164l28 171q13 85 69.5 128t170.5 43q115 0 154 -42t25 -129l-19 -117q-51 -12 -145 -12h-144l-7 -42q-7 -48 13 -68t79 -20q43 0 85 7.5t62 15t20 8.5l1 -2q0 -2 0.5 -6t1 -8.5t0 -11.5t-1.5 -14q-2 -11 -5.5 -21.5t-6.5 -15.5l-3 -4q-67 -31 -166 -31
q-126 0 -175 43t-36 128zM235 289h162l8 46q8 48 -6.5 68t-60.5 20t-66.5 -20t-28.5 -68zM443 697l-18 -117q-34 -6 -67 -6l-65 6l18 117q34 6 67 6z" />
    <glyph glyph-name="Eogonek" unicode="&#x118;" 
d="M321 -92q7 48 65 92h-125q-57 0 -110 2t-77 4l-25 3l109 682q85 9 213 9h215q4 -18 -1 -45q-2 -12 -5 -23.5t-6 -16.5l-2 -5h-289l-32 -205h257q3 -18 -1 -45q-2 -12 -5 -23.5t-6 -16.5l-2 -5h-257l-35 -225h293q3 -18 -1 -45l-13 -45h-40q-41 -49 -47 -82q-6 -35 29 -35
q11 0 21.5 3t15.5 6l5 3l1 -24l-8 -23q-23 -18 -65 -18t-60 20.5t-12 57.5z" />
    <glyph glyph-name="eogonek" unicode="&#x119;" horiz-adv-x="509" 
d="M273 -92q7 43 59 87q-26 -2 -38 -2q-126 0 -175 43t-36 128l28 171q13 85 69.5 128t170.5 43q115 0 154 -42t25 -129l-19 -117q-51 -12 -145 -12h-144l-7 -42q-7 -48 13 -68t79 -20q43 0 85 7.5t62 15t20 8.5l1 -2q0 -2 0.5 -6t1 -8.5t0 -11.5t-1.5 -14
q-2 -11 -5.5 -21.5t-6.5 -15.5l-3 -4q-25 -11 -62 -20q-45 -45 -52 -86q-4 -35 29 -35q11 0 21.5 3t16.5 6l5 3l1 -24l-8 -23q-23 -18 -65 -18q-84 0 -73 78zM235 289h162l8 46q8 48 -6.5 68t-60.5 20t-66.5 -20t-28.5 -68z" />
    <glyph glyph-name="Ecaron" unicode="&#x11a;" 
d="M237 315l-35 -225h293q3 -18 -1 -45l-13 -45h-220q-57 0 -110 2t-77 4l-25 3l109 682q85 9 213 9h215q4 -18 -1 -45q-2 -12 -5 -23.5t-6 -16.5l-2 -5h-289l-32 -205h257q3 -18 -1 -45q-2 -12 -5 -23.5t-6 -16.5l-2 -5h-257zM330 885l66 -78l90 78q22 6 40 6
q9 0 18.5 -1.5t13.5 -3.5l5 -1l-118 -132q-29 -6 -58 -6l-56 6l-78 132q20 6 40 6z" />
    <glyph glyph-name="ecaron" unicode="&#x11b;" horiz-adv-x="509" 
d="M83 164l28 171q13 85 69.5 128t170.5 43q115 0 154 -42t25 -129l-19 -117q-51 -12 -145 -12h-144l-7 -42q-7 -48 13 -68t79 -20q43 0 85 7.5t62 15t20 8.5l1 -2q0 -2 0.5 -6t1 -8.5t0 -11.5t-1.5 -14q-2 -11 -5.5 -21.5t-6.5 -15.5l-3 -4q-67 -31 -166 -31
q-126 0 -175 43t-36 128zM235 289h162l8 46q8 48 -6.5 68t-60.5 20t-66.5 -20t-28.5 -68zM300 697l65 -78l90 78q21 6 40 6l38 -6l-120 -132q-28 -6 -57 -6l-57 6l-77 132q19 6 40 6z" />
    <glyph glyph-name="Gcircumflex" unicode="&#x11c;" horiz-adv-x="587" 
d="M613 375l-53 -333q-12 -5 -33 -12.5t-86 -20.5t-129 -13q-134 0 -186.5 46t-37.5 140l54 336q15 94 81.5 141t201.5 47t180.5 -46t30.5 -142l-2 -12q-33 -7 -64 -7q-14 0 -29.5 1.5t-23.5 3.5l-8 2l2 12q8 53 -13.5 75.5t-86.5 22.5q-64 0 -93 -22.5t-37 -75.5l-54 -336
q-8 -53 14 -75.5t85 -22.5q31 0 59 5t40 10l13 5l30 190h-100q-4 18 1 46q2 12 5 23t5 16l3 5h45q50 0 96.5 -2t67.5 -4zM505 753l-66 78l-89 -78q-21 -6 -40 -6l-38 6l119 132q29 6 58 6l56 -6l78 -132q-19 -6 -40 -6z" />
    <glyph glyph-name="gcircumflex" unicode="&#x11d;" horiz-adv-x="516" 
d="M331 -36l9 60q-1 -2 -13 -9t-40.5 -14.5t-61.5 -7.5q-96 0 -131.5 43t-22.5 128l28 171q13 86 55 128.5t123 42.5q38 0 71.5 -10t47.5 -20l14 -11l5 32q32 6 67 6l65 -6l-84 -533q-13 -85 -75.5 -128t-189.5 -43q-42 0 -81 5.5t-57 11.5l-18 6q-1 2 -1.5 5t-1.5 14t2 22
q1 7 3 14t4 11.5t3.5 8.5t2.5 6l1 2q0 -1 18.5 -6.5t57.5 -11t81 -5.5q59 0 85 20t34 68zM231 335l-28 -171q-7 -48 6 -68t55 -20q47 0 69 20.5t29 67.5l36 224q-1 1 -2.5 3.5t-8.5 8.5t-16 10.5t-24.5 8.5t-33.5 4q-38 0 -56 -20t-26 -68zM425 565l-65 78l-90 -78
q-21 -6 -40 -6l-38 6l120 132q28 6 57 6l57 -6l77 -132q-19 -6 -40 -6z" />
    <glyph glyph-name="Gbreve" unicode="&#x11e;" horiz-adv-x="587" 
d="M613 375l-53 -333q-12 -5 -33 -12.5t-86 -20.5t-129 -13q-134 0 -186.5 46t-37.5 140l54 336q15 94 81.5 141t201.5 47t180.5 -46t30.5 -142l-2 -12q-33 -7 -64 -7q-14 0 -29.5 1.5t-23.5 3.5l-8 2l2 12q8 53 -13.5 75.5t-86.5 22.5q-64 0 -93 -22.5t-37 -75.5l-54 -336
q-8 -53 14 -75.5t85 -22.5q31 0 59 5t40 10l13 5l30 190h-100q-4 18 1 46q2 12 5 23t5 16l3 5h45q50 0 96.5 -2t67.5 -4zM427 747q-84 0 -112.5 28.5t-18.5 88.5l2 10q22 6 44 6l43 -6l-2 -11q-5 -32 6.5 -45t46.5 -13t50.5 13t20.5 45l2 11q22 6 43 6l43 -6l-2 -10
q-10 -60 -46 -88.5t-120 -28.5z" />
    <glyph glyph-name="gbreve" unicode="&#x11f;" horiz-adv-x="516" 
d="M331 -36l9 60q-1 -2 -13 -9t-40.5 -14.5t-61.5 -7.5q-96 0 -131.5 43t-22.5 128l28 171q13 86 55 128.5t123 42.5q38 0 71.5 -10t47.5 -20l14 -11l5 32q32 6 67 6l65 -6l-84 -533q-13 -85 -75.5 -128t-189.5 -43q-42 0 -81 5.5t-57 11.5l-18 6q-1 2 -1.5 5t-1.5 14t2 22
q1 7 3 14t4 11.5t3.5 8.5t2.5 6l1 2q0 -1 18.5 -6.5t57.5 -11t81 -5.5q59 0 85 20t34 68zM231 335l-28 -171q-7 -48 6 -68t55 -20q47 0 69 20.5t29 67.5l36 224q-1 1 -2.5 3.5t-8.5 8.5t-16 10.5t-24.5 8.5t-33.5 4q-38 0 -56 -20t-26 -68zM349 569q-84 0 -112 28.5
t-19 89.5l2 9q23 6 44 6l43 -6l-2 -11q-5 -31 6.5 -44t46.5 -13t50.5 13t20.5 44l2 11q22 6 44 6l42 -6l-2 -9q-9 -60 -45.5 -89t-120.5 -29z" />
    <glyph glyph-name="Gdotaccent" unicode="&#x120;" horiz-adv-x="587" 
d="M613 375l-53 -333q-12 -5 -33 -12.5t-86 -20.5t-129 -13q-134 0 -186.5 46t-37.5 140l54 336q15 94 81.5 141t201.5 47t180.5 -46t30.5 -142l-2 -12q-33 -7 -64 -7q-14 0 -29.5 1.5t-23.5 3.5l-8 2l2 12q8 53 -13.5 75.5t-86.5 22.5q-64 0 -93 -22.5t-37 -75.5l-54 -336
q-8 -53 14 -75.5t85 -22.5q31 0 59 5t40 10l13 5l30 190h-100q-4 18 1 46q2 12 5 23t5 16l3 5h45q50 0 96.5 -2t67.5 -4zM512 870l-18 -116q-34 -6 -67 -6l-65 6l18 116q33 7 66 7q15 0 31.5 -1.5t25.5 -3.5z" />
    <glyph glyph-name="gdotaccent" unicode="&#x121;" horiz-adv-x="516" 
d="M331 -36l9 60q-1 -2 -13 -9t-40.5 -14.5t-61.5 -7.5q-96 0 -131.5 43t-22.5 128l28 171q13 86 55 128.5t123 42.5q38 0 71.5 -10t47.5 -20l14 -11l5 32q32 6 67 6l65 -6l-84 -533q-13 -85 -75.5 -128t-189.5 -43q-42 0 -81 5.5t-57 11.5l-18 6q-1 2 -1.5 5t-1.5 14t2 22
q1 7 3 14t4 11.5t3.5 8.5t2.5 6l1 2q0 -1 18.5 -6.5t57.5 -11t81 -5.5q59 0 85 20t34 68zM231 335l-28 -171q-7 -48 6 -68t55 -20q47 0 69 20.5t29 67.5l36 224q-1 1 -2.5 3.5t-8.5 8.5t-16 10.5t-24.5 8.5t-33.5 4q-38 0 -56 -20t-26 -68zM435 697l-18 -117q-35 -6 -68 -6
l-64 6l18 117q34 6 67 6z" />
    <glyph glyph-name="Gcommaaccent" unicode="&#x122;" horiz-adv-x="587" 
d="M613 375l-53 -333q-12 -5 -33 -12.5t-86 -20.5t-129 -13q-134 0 -186.5 46t-37.5 140l54 336q15 94 81.5 141t201.5 47t180.5 -46t30.5 -142l-2 -12q-33 -7 -64 -7q-14 0 -29.5 1.5t-23.5 3.5l-8 2l2 12q8 53 -13.5 75.5t-86.5 22.5q-64 0 -93 -22.5t-37 -75.5l-54 -336
q-8 -53 14 -75.5t85 -22.5q31 0 59 5t40 10l13 5l30 190h-100q-4 18 1 46q2 12 5 23t5 16l3 5h45q50 0 96.5 -2t67.5 -4zM343 -44q-7 -47 -28.5 -85t-39.5 -53l-17 -15q-15 -5 -29 -5l-26 5q42 53 57 153q21 7 43 7q9 0 19 -1.5t15 -3.5z" />
    <glyph glyph-name="gcommaaccent" unicode="&#x123;" horiz-adv-x="516" 
d="M310 587q8 50 29.5 90t38.5 55l17 15q15 5 28 5l27 -5q-40 -54 -57 -160q-21 -7 -43 -7q-9 0 -19 2t-16 4zM331 -36l9 60q-1 -2 -13 -9t-40.5 -14.5t-61.5 -7.5q-96 0 -131.5 43t-22.5 128l28 171q13 86 55 128.5t123 42.5q38 0 71.5 -10t47.5 -20l14 -11l5 32q32 6 67 6
l65 -6l-84 -533q-13 -85 -75.5 -128t-189.5 -43q-42 0 -81 5.5t-57 11.5l-18 6q-1 2 -1.5 5t-1.5 14t2 22q1 7 3 14t4 11.5t3.5 8.5t2.5 6l1 2q0 -1 18.5 -6.5t57.5 -11t81 -5.5q59 0 85 20t34 68zM231 335l-28 -171q-7 -48 6 -68t55 -20q47 0 69 20.5t29 67.5l36 224
q-1 1 -2.5 3.5t-8.5 8.5t-16 10.5t-24.5 8.5t-33.5 4q-38 0 -56 -20t-26 -68z" />
    <glyph glyph-name="Hcircumflex" unicode="&#x124;" horiz-adv-x="620" 
d="M681 697l-110 -694q-35 -6 -70 -6l-69 6l49 308h-245l-49 -308q-35 -6 -70 -6l-69 6l110 694q36 6 71 6l68 -6l-47 -296h245l47 296q35 6 71 6zM506 753l-65 78l-90 -78q-21 -6 -40 -6l-38 6l119 132q29 6 58 6l56 -6l78 -132q-19 -6 -40 -6z" />
    <glyph glyph-name="hcircumflex" unicode="&#x125;" horiz-adv-x="518" 
d="M290 697l-37 -232q61 41 148 41q81 0 109.5 -42.5t15.5 -128.5l-53 -332q-34 -6 -67 -6l-65 6l53 332q8 48 -4 68t-51 20q-29 0 -53 -8.5t-34 -17.5l-10 -9l-62 -385q-34 -6 -67 -6l-65 6l110 694q34 6 67 6zM436 753l-66 78l-89 -78q-21 -6 -40 -6l-38 6l119 132
q29 6 58 6l56 -6l78 -132q-19 -6 -40 -6z" />
    <glyph glyph-name="Hbar" unicode="&#x126;" horiz-adv-x="682" 
d="M728 509h-46l-80 -506q-35 -6 -70 -6l-69 6l49 308h-245l-49 -308q-35 -6 -70 -6l-69 6l81 506h-46q-4 16 0 41q2 11 5 21.5t5 15.5l3 5h46l16 105q35 6 71 6l68 -6l-16 -105h244l17 105q35 6 71 6l68 -6l-17 -105h46q4 -17 -1 -42q-1 -11 -4 -21t-6 -15zM281 401h245
l17 108h-244z" />
    <glyph glyph-name="hbar" unicode="&#x127;" horiz-adv-x="550" 
d="M456 563h-155l-15 -98q60 41 147 41q81 0 110 -43t15 -128l-53 -332q-33 -6 -67 -6l-65 6l53 332q8 48 -4 68t-50 20q-29 0 -53.5 -8.5t-34.5 -17.5l-10 -9l-61 -385q-34 -6 -67 -6l-65 6l88 560h-46q-3 14 1 38q1 10 4 19.5t6 13.5l2 5h53l23 58q28 6 56 6l55 -6l-9 -58
h154q3 -15 0 -38z" />
    <glyph glyph-name="Itilde" unicode="&#x128;" horiz-adv-x="332" 
d="M50 90h65l81 520h-64q-3 17 1 45l13 45h268q4 -18 -1 -45q-2 -12 -5 -23.5t-6 -16.5l-2 -5h-65l-81 -520h64q3 -17 -2 -45l-12 -45h-268q-4 18 1 45q2 12 5 23t6 16zM125 754v4q9 54 31.5 79t69.5 25q30 0 50.5 -8.5t29.5 -19t20 -19t24 -8.5q22 0 32 10t14 34l1 5
q19 6 38 6l34 -6v-4q-9 -55 -30.5 -79.5t-70.5 -24.5q-38 0 -60.5 14t-35.5 27.5t-27 13.5q-23 0 -33 -9.5t-14 -34.5l-1 -5q-19 -6 -38 -6z" />
    <glyph glyph-name="itilde" unicode="&#x129;" horiz-adv-x="262" 
d="M43 593l1 4q9 54 31.5 79t69.5 25q29 0 50 -8.5t30 -19.5t20 -19.5t24 -8.5q22 0 32 10t14 34l1 5q19 7 38 7q8 0 16.5 -1.5t13.5 -3.5l4 -2v-4q-9 -54 -30.5 -79t-70.5 -25q-30 0 -51 9t-30 19t-20 19t-23 9q-23 0 -32.5 -9.5t-13.5 -34.5l-1 -5q-19 -7 -38 -7
q-8 0 -16.5 2t-13.5 4zM233 76q10 0 26 4q2 -17 -1 -37l-11 -36q-38 -14 -76 -14q-65 0 -89 34t-14 102l58 368q34 6 67 6l65 -6l-58 -368q-4 -29 3 -41t30 -12z" />
    <glyph glyph-name="Imacron" unicode="&#x12a;" horiz-adv-x="332" 
d="M50 90h65l81 520h-64q-3 17 1 45l13 45h268q4 -18 -1 -45q-2 -12 -5 -23.5t-6 -16.5l-2 -5h-65l-81 -520h64q3 -17 -2 -45l-12 -45h-268q-4 18 1 45q2 12 5 23t6 16zM426 771h-270q0 1 -0.5 3.5t-1.5 11t1 16.5q1 8 4 16t5 12l2 3h270q1 -1 1.5 -3.5t1.5 -11t-1 -16.5z
" />
    <glyph glyph-name="imacron" unicode="&#x12b;" horiz-adv-x="262" 
d="M353 590h-271q-3 12 0 31q1 8 3.5 16t4.5 11l2 4h271l1 -31q-1 -8 -4 -15.5t-5 -11.5zM243 76q10 0 26 4q2 -17 -1 -37l-11 -36q-38 -14 -76 -14q-65 0 -89 34t-14 102l58 368q34 6 67 6l65 -6l-58 -368q-4 -29 3 -41t30 -12z" />
    <glyph glyph-name="Ibreve" unicode="&#x12c;" horiz-adv-x="332" 
d="M50 90h65l81 520h-64q-3 17 1 45l13 45h268q4 -18 -1 -45q-2 -12 -5 -23.5t-6 -16.5l-2 -5h-65l-81 -520h64q3 -17 -2 -45l-12 -45h-268q-4 18 1 45q2 12 5 23t6 16zM288 747q-84 0 -112 28.5t-18 88.5l2 10q22 6 43 6l43 -6l-2 -11q-5 -32 6.5 -45t46.5 -13t50.5 13
t20.5 45l2 11q22 6 44 6l43 -6l-2 -10q-10 -60 -46.5 -88.5t-120.5 -28.5z" />
    <glyph glyph-name="ibreve" unicode="&#x12d;" horiz-adv-x="262" 
d="M215 569q-85 0 -113 28.5t-18 89.5l2 9q22 6 44 6l42 -6l-2 -11q-5 -31 6.5 -44t46.5 -13t50.5 12.5t20.5 44.5l2 11q23 6 44 6l43 -6l-2 -9q-10 -61 -46 -89.5t-120 -28.5zM243 76q10 0 26 4q2 -17 -1 -37l-11 -36q-38 -14 -76 -14q-65 0 -89 34t-14 102l58 368
q34 6 67 6l65 -6l-58 -368q-4 -29 3 -41t30 -12z" />
    <glyph glyph-name="Iogonek" unicode="&#x12e;" horiz-adv-x="332" 
d="M144 -92q7 48 65 92h-173q-4 18 1 45q2 12 5 23t6 16l2 6h65l81 520h-64q-3 17 1 45l13 45h268q4 -18 -1 -45q-2 -12 -5 -23.5t-6 -16.5l-2 -5h-65l-81 -520h64q3 -17 -2 -45l-12 -45h-40q-41 -49 -47 -82q-6 -35 29 -35q11 0 21.5 3t15.5 6l5 3l1 -24l-8 -23
q-23 -18 -65 -18t-60 20.5t-12 57.5z" />
    <glyph glyph-name="iogonek" unicode="&#x12f;" horiz-adv-x="262" 
d="M111 -92q7 45 59 86q-102 10 -83 135l58 368q34 6 67 6l65 -6l-58 -368q-4 -29 3 -41t30 -12q10 0 26 4q2 -17 -1 -37l-11 -36q-21 -8 -37 -10q-40 -46 -44 -79q-6 -35 29 -35q11 0 21.5 3t15.5 6l5 3l1 -24l-8 -23q-23 -18 -65 -18q-84 0 -73 78zM309 697l-18 -117
q-34 -6 -67 -6l-65 6l18 117q34 6 67 6z" />
    <glyph glyph-name="Idotaccent" unicode="&#x130;" horiz-adv-x="332" 
d="M50 90h65l81 520h-64q-3 17 1 45l13 45h268q4 -18 -1 -45q-2 -12 -5 -23.5t-6 -16.5l-2 -5h-65l-81 -520h64q3 -17 -2 -45l-12 -45h-268q-4 18 1 45q2 12 5 23t6 16zM373 870l-18 -116q-34 -6 -67 -6l-65 6l18 116q34 7 67 7q15 0 31 -1.5t25 -3.5z" />
    <glyph glyph-name="dotlessi" unicode="&#x131;" horiz-adv-x="262" 
d="M243 76q10 0 26 4q2 -17 -1 -37l-11 -36q-38 -14 -76 -14q-65 0 -89 34t-14 102l58 368q34 6 67 6l65 -6l-58 -368q-4 -29 3 -41t30 -12z" />
    <glyph glyph-name="IJ" unicode="&#x132;" horiz-adv-x="752" 
d="M50 90h65l81 520h-64q-3 17 1 45l13 45h268q4 -18 -1 -45q-2 -12 -5 -23.5t-6 -16.5l-2 -5h-65l-81 -520h64q3 -17 -2 -45l-12 -45h-268q-4 18 1 45q2 12 5 23t6 16zM817 700l-81 -517q-15 -92 -74.5 -139t-177.5 -47q-30 0 -56.5 4.5t-37.5 8.5l-12 5q-5 18 0 46
q1 8 2.5 15t3.5 12t4 9l3 6l1 2q0 -1 12 -5.5t38 -9t55 -4.5q48 0 70 22.5t30 74.5l67 427h-93q-3 17 1 45l13 45h232z" />
    <glyph glyph-name="ij" unicode="&#x133;" horiz-adv-x="479" 
d="M300 697l-18 -117q-34 -6 -67 -6l-65 6l18 117q34 6 67 6zM243 76q10 0 26 4q2 -17 -1 -37l-11 -36q-38 -14 -76 -14q-65 0 -89 34t-14 102l58 368q34 6 67 6l65 -6l-58 -368q-4 -29 3 -41t30 -12zM300 -52l87 549q34 6 67 6l65 -6l-87 -549q-12 -77 -51.5 -116
t-114.5 -39q-15 0 -29.5 1.5t-25.5 3.5t-19.5 4t-14.5 4t-7 2q-2 18 1 38l11 38q20 -8 49 -8q33 0 48.5 16.5t20.5 55.5zM551 697l-18 -117q-35 -6 -68 -6l-64 6l18 117q34 6 67 6z" />
    <glyph glyph-name="Jcircumflex" unicode="&#x134;" horiz-adv-x="470" 
d="M536 697l-81 -515q-15 -94 -76.5 -141.5t-183.5 -47.5q-41 0 -77.5 10.5t-52.5 20.5l-15 10q-5 18 0 47q1 8 3 15.5t4 12.5t4 9l3 6l1 2q-1 -1 15.5 -11t52 -21t75.5 -11q52 0 76 23t32 76l81 515q36 6 71 6zM554 753l-66 78l-90 -78q-21 -6 -40 -6l-37 6l118 132
q29 6 58 6l56 -6l78 -132q-19 -6 -40 -6z" />
    <glyph glyph-name="jcircumflex" unicode="&#x135;" horiz-adv-x="240" 
d="M53 -52l87 549q34 6 67 6l65 -6l-87 -549q-12 -77 -51.5 -116t-114.5 -39q-14 0 -28.5 1.5t-25.5 3.5t-19.5 4t-14.5 4t-7 2q-2 18 1 38l11 38q20 -8 49 -8q32 0 47.5 17t20.5 55zM291 565l-66 78l-89 -78q-21 -6 -40 -6l-38 6l119 132q29 6 58 6l57 -6l77 -132
q-19 -6 -40 -6z" />
    <glyph glyph-name="Kcommaaccent" unicode="&#x136;" horiz-adv-x="575" 
d="M413 3l-127 310l-52 -13l-47 -297q-36 -6 -70 -6l-69 6l110 694q36 6 71 6l68 -6l-47 -302l50 14l213 288q38 6 74 6l69 -6l-241 -336l144 -358q-38 -6 -73 -6zM328 -44q-8 -47 -29.5 -85t-38.5 -53l-18 -15q-14 -5 -28 -5l-27 5q42 53 58 153q21 7 43 7q9 0 19 -1.5
t15 -3.5z" />
    <glyph glyph-name="kcommaaccent" unicode="&#x137;" horiz-adv-x="495" 
d="M340 3l-93 212l-34 -10l-33 -202q-34 -6 -67 -6l-65 6l110 694q34 6 67 6l65 -6l-64 -404l35 11l147 193q36 6 70 6l66 -6l-178 -236l113 -258q-36 -6 -70 -6zM292 -44q-8 -47 -29.5 -85t-38.5 -53l-18 -15q-15 -5 -28 -5l-27 5q42 53 58 153q21 7 42 7q9 0 19.5 -1.5
t15.5 -3.5z" />
    <glyph glyph-name="Lacute" unicode="&#x139;" horiz-adv-x="482" 
d="M297 697l-95 -607h263q3 -18 -1 -45l-13 -45h-190q-57 0 -110 2t-77 4l-25 3l109 688q36 6 71 6zM413 888l-160 -135q-22 -6 -40 -6l-38 6l117 135q30 6 61 6z" />
    <glyph glyph-name="lacute" unicode="&#x13a;" horiz-adv-x="269" 
d="M243 76q10 0 26 4q2 -17 -1 -37l-11 -36q-38 -14 -76 -14q-65 0 -89 34t-14 102l90 568q34 6 67 6l65 -6l-90 -568q-4 -29 3 -41t30 -12zM399 888l-161 -135q-21 -6 -39 -6l-38 6l117 135q30 6 61 6z" />
    <glyph glyph-name="Lcommaaccent" unicode="&#x13b;" horiz-adv-x="482" 
d="M297 697l-95 -607h263q3 -18 -1 -45l-13 -45h-190q-57 0 -110 2t-77 4l-25 3l109 688q36 6 71 6zM291 -44q-8 -47 -29.5 -85t-39.5 -53l-17 -15q-14 -5 -28 -5l-27 5q42 53 58 153q21 7 43 7q9 0 19 -1.5t16 -3.5z" />
    <glyph glyph-name="lcommaaccent" unicode="&#x13c;" horiz-adv-x="269" 
d="M233 76q10 0 26 4q2 -17 -1 -37l-11 -36q-38 -14 -76 -14q-65 0 -89 34t-14 102l90 568q34 6 67 6l65 -6l-90 -568q-4 -29 3 -41t30 -12zM184 -44q-8 -47 -29.5 -85t-38.5 -53l-18 -15q-15 -5 -28 -5l-27 5q42 53 58 153q21 7 42 7q9 0 19.5 -1.5t15.5 -3.5z" />
    <glyph glyph-name="Lcaron" unicode="&#x13d;" horiz-adv-x="482" 
d="M297 697l-95 -607h263q3 -18 -1 -45l-13 -45h-190q-57 0 -110 2t-77 4l-25 3l109 688q36 6 71 6zM237 885l66 -78l89 78q22 6 41 6l37 -6l-118 -132q-29 -6 -58 -6l-57 6l-78 132q20 6 41 6z" />
    <glyph glyph-name="lcaron" unicode="&#x13e;" horiz-adv-x="385" 
d="M243 76q10 0 26 4q2 -17 -1 -37l-11 -36q-38 -14 -76 -14q-65 0 -89 34t-14 102l90 568q34 6 67 6l65 -6l-90 -568q-4 -29 3 -41t30 -12zM512 697q-7 -47 -22 -88.5t-31 -67t-31 -44t-24 -26.5l-10 -8q-16 -6 -32 -6l-30 6q6 8 15 25t29.5 77.5t31.5 131.5q27 6 53 6z
" />
    <glyph glyph-name="Ldot" unicode="&#x13f;" horiz-adv-x="482" 
d="M297 697l-95 -607h263q3 -18 -1 -45l-13 -45h-190q-57 0 -110 2t-77 4l-25 3l109 688q36 6 71 6zM483 379l-19 -123q-33 -6 -65 -6l-61 6l19 123q32 6 64 6z" />
    <glyph glyph-name="ldot" unicode="&#x140;" horiz-adv-x="421" 
d="M243 76q10 0 26 4q2 -17 -1 -37l-11 -36q-38 -14 -76 -14q-65 0 -89 34t-14 102l90 568q34 6 67 6l65 -6l-90 -568q-4 -29 3 -41t30 -12zM457 379l-19 -123q-33 -6 -64 -6l-62 6l19 123q32 6 64 6z" />
    <glyph glyph-name="Lslash" unicode="&#x141;" horiz-adv-x="518" 
d="M75 264l61 53l61 380q35 6 70 6l69 -6l-47 -291l97 83q3 -23 -1 -49l-14 -49l-97 -85l-34 -216h263q3 -18 -1 -45l-13 -45h-189q-57 0 -110.5 2t-77.5 4l-25 3l33 208l-61 -53q-2 26 1 51q2 11 5.5 23.5t6.5 19.5z" />
    <glyph glyph-name="lslash" unicode="&#x142;" horiz-adv-x="316" 
d="M78 285l63 53l57 359q34 6 67 6l65 -6l-44 -281l75 64q4 -23 -1 -49q-1 -11 -4.5 -23t-6.5 -19l-3 -7l-76 -66l-30 -187q-4 -29 3 -41t30 -12q11 0 25 4q3 -17 0 -37l-11 -36q-38 -14 -76 -14q-125 0 -103 136l18 109l-64 -53q-2 26 2 51z" />
    <glyph glyph-name="Nacute" unicode="&#x143;" horiz-adv-x="618" 
d="M48 3l110 694q31 6 60 6l58 -6l202 -440l69 440q34 6 67 6l65 -6l-110 -694q-30 -6 -60 -6l-58 6l-201 440l-70 -440q-33 -6 -67 -6zM583 888l-160 -135q-22 -6 -40 -6l-38 6l117 135q30 6 61 6z" />
    <glyph glyph-name="nacute" unicode="&#x144;" horiz-adv-x="519" 
d="M258 497l-5 -32q61 41 148 41q82 0 111 -43t15 -128l-53 -332q-33 -6 -67 -6l-65 6l53 332q8 48 -4 68t-51 20q-29 0 -53.5 -8.5t-34.5 -17.5l-10 -9l-62 -385q-34 -6 -67 -6l-65 6l78 494q34 6 67 6zM504 697l-161 -135q-21 -6 -40 -6l-38 6l118 135q30 6 61 6z" />
    <glyph glyph-name="Ncommaaccent" unicode="&#x145;" horiz-adv-x="618" 
d="M48 3l110 694q31 6 60 6l58 -6l202 -440l69 440q34 6 67 6l65 -6l-110 -694q-30 -6 -60 -6l-58 6l-201 440l-70 -440q-33 -6 -67 -6zM343 -44q-8 -47 -29.5 -85t-39.5 -53l-17 -15q-14 -5 -28 -5l-27 5q42 53 58 153q21 7 43 7q9 0 19 -1.5t16 -3.5z" />
    <glyph glyph-name="ncommaaccent" unicode="&#x146;" horiz-adv-x="519" 
d="M258 497l-5 -32q61 41 148 41q82 0 111 -43t15 -128l-53 -332q-33 -6 -67 -6l-65 6l53 332q8 48 -4 68t-51 20q-29 0 -53.5 -8.5t-34.5 -17.5l-10 -9l-62 -385q-34 -6 -67 -6l-65 6l78 494q34 6 67 6zM297 -44q-8 -47 -29.5 -85t-39.5 -53l-17 -15q-15 -5 -28 -5l-27 5
q42 53 58 153q21 7 42 7q9 0 19.5 -1.5t16.5 -3.5z" />
    <glyph glyph-name="Ncaron" unicode="&#x147;" horiz-adv-x="618" 
d="M48 3l110 694q31 6 60 6l58 -6l202 -440l69 440q34 6 67 6l65 -6l-110 -694q-30 -6 -60 -6l-58 6l-201 440l-70 -440q-33 -6 -67 -6zM370 885l66 -78l89 78q22 6 41 6l37 -6l-119 -132q-28 -6 -57 -6l-57 6l-78 132q20 6 41 6z" />
    <glyph glyph-name="ncaron" unicode="&#x148;" horiz-adv-x="519" 
d="M258 497l-5 -32q61 41 148 41q82 0 111 -43t15 -128l-53 -332q-33 -6 -67 -6l-65 6l53 332q8 48 -4 68t-51 20q-29 0 -53.5 -8.5t-34.5 -17.5l-10 -9l-62 -385q-34 -6 -67 -6l-65 6l78 494q34 6 67 6zM292 697l64 -78l91 78q21 6 40 6l38 -6l-120 -132q-28 -6 -57 -6
l-57 6l-77 132q19 6 40 6z" />
    <glyph glyph-name="Eng" unicode="&#x14a;" horiz-adv-x="618" 
d="M429 -52l12 79l-191 416l-70 -440q-33 -6 -67 -6l-65 6l110 694q31 6 60 6l58 -6l202 -440l69 440q34 6 67 6l65 -6l-118 -749q-12 -77 -51.5 -116t-115.5 -39q-18 0 -36 2t-29 5t-20.5 5.5t-10.5 2.5q-2 18 1 38l11 38q20 -8 49 -8q33 0 48.5 16.5t21.5 55.5z" />
    <glyph glyph-name="eng" unicode="&#x14b;" horiz-adv-x="519" 
d="M334 -52l61 387q8 48 -4 68t-51 20q-29 0 -53.5 -8.5t-34.5 -17.5l-10 -9l-62 -385q-34 -6 -67 -6l-65 6l78 494q34 6 67 6l65 -6l-5 -32q61 41 148 41q82 0 111 -43t15 -128l-61 -387q-12 -77 -51.5 -116t-115.5 -39q-18 0 -36 2t-29 5t-20.5 5.5t-10.5 2.5q-2 18 1 38
l12 38q20 -8 48 -8q33 0 48.5 16.5t21.5 55.5z" />
    <glyph glyph-name="Omacron" unicode="&#x14c;" horiz-adv-x="599" 
d="M88 182l54 336q15 94 82 141t202 47t187.5 -47t37.5 -141l-54 -336q-15 -94 -82.5 -141.5t-201.5 -47.5q-135 0 -187.5 47.5t-37.5 141.5zM281 518l-14 -84l-26 -168l-14 -84q-8 -53 14 -76t86 -23t93.5 23t37.5 76l54 336q8 53 -14 75.5t-86 22.5t-93.5 -22.5
t-37.5 -75.5zM571 771h-271q-3 12 0 31l10 31h271q0 -1 0.5 -3.5t1.5 -11t-1 -16.5q-1 -8 -4 -16t-5 -12z" />
    <glyph glyph-name="omacron" unicode="&#x14d;" horiz-adv-x="519" 
d="M83 164l28 171q13 85 70 128t171 43t157.5 -43t30.5 -128l-28 -171q-13 -85 -70.5 -128t-170.5 -43t-157 43t-31 128zM243 335l-7 -43q-7 -42 -14 -85l-7 -43q-7 -47 8 -67.5t61 -20.5t67.5 20.5t28.5 67.5l28 171q8 48 -7.5 68t-61.5 20t-67 -20t-29 -68zM500 590h-270
q0 1 -0.5 3.5t-1.5 11t1 16.5q1 8 3.5 16t4.5 11l3 4h270q0 -1 0.5 -3.5t1.5 -11t-1 -16.5q-1 -8 -4 -15.5t-5 -11.5z" />
    <glyph glyph-name="Obreve" unicode="&#x14e;" horiz-adv-x="599" 
d="M88 182l54 336q15 94 82 141t202 47t187.5 -47t37.5 -141l-54 -336q-15 -94 -82.5 -141.5t-201.5 -47.5q-135 0 -187.5 47.5t-37.5 141.5zM281 518l-14 -84l-26 -168l-14 -84q-8 -53 14 -76t86 -23t93.5 23t37.5 76l54 336q8 53 -14 75.5t-86 22.5t-93.5 -22.5
t-37.5 -75.5zM432 747q-84 0 -112 28.5t-18 88.5l2 10q22 6 44 6l43 -6l-2 -11q-5 -32 6.5 -45t46.5 -13t50.5 13t20.5 45l2 11q22 6 43 6l43 -6l-2 -10q-10 -60 -46.5 -88.5t-120.5 -28.5z" />
    <glyph glyph-name="obreve" unicode="&#x14f;" horiz-adv-x="519" 
d="M83 164l28 171q13 85 70 128t171 43t157.5 -43t30.5 -128l-28 -171q-13 -85 -70.5 -128t-170.5 -43t-157 43t-31 128zM243 335l-7 -43q-7 -42 -14 -85l-7 -43q-7 -47 8 -67.5t61 -20.5t67.5 20.5t28.5 67.5l28 171q8 48 -7.5 68t-61.5 20t-67 -20t-29 -68zM363 569
q-85 0 -113 28.5t-18 89.5l2 9q22 6 44 6l42 -6l-2 -11q-5 -31 6.5 -44t46.5 -13t50.5 12.5t20.5 44.5l2 11q23 6 44 6l43 -6l-2 -9q-10 -61 -46 -89.5t-120 -28.5z" />
    <glyph glyph-name="Ohungarumlaut" unicode="&#x150;" horiz-adv-x="599" 
d="M88 182l54 336q15 94 82 141t202 47t187.5 -47t37.5 -141l-54 -336q-15 -94 -82.5 -141.5t-201.5 -47.5q-135 0 -187.5 47.5t-37.5 141.5zM281 518l-14 -84l-26 -168l-14 -84q-8 -53 14 -76t86 -23t93.5 23t37.5 76l54 336q8 53 -14 75.5t-86 22.5t-93.5 -22.5
t-37.5 -75.5zM502 888l-160 -135q-22 -6 -40 -6l-38 6l117 135q30 6 61 6zM678 888l-161 -135q-21 -6 -40 -6l-38 6l118 135q30 6 61 6z" />
    <glyph glyph-name="ohungarumlaut" unicode="&#x151;" horiz-adv-x="519" 
d="M83 164l28 171q13 85 70 128t171 43t157.5 -43t30.5 -128l-28 -171q-13 -85 -70.5 -128t-170.5 -43t-157 43t-31 128zM243 335l-7 -43q-7 -42 -14 -85l-7 -43q-7 -47 8 -67.5t61 -20.5t67.5 20.5t28.5 67.5l28 171q8 48 -7.5 68t-61.5 20t-67 -20t-29 -68zM431 697
l-162 -135q-21 -6 -40 -6l-38 6l118 135q30 6 61 6zM606 697l-161 -135q-22 -6 -40 -6l-38 6l118 135q30 6 61 6z" />
    <glyph glyph-name="OE" unicode="&#x152;" horiz-adv-x="810" 
d="M791 0h-159q-86 0 -154 7q-62 -11 -165 -11q-135 0 -187.5 46.5t-37.5 139.5l54 336q15 93 82 139.5t201 46.5q87 0 162 -12q64 8 155 8h154q3 -18 -1 -45q-2 -12 -5.5 -23.5t-6.5 -16.5l-2 -5h-255l-33 -205h225q2 -18 -1 -45q-2 -12 -5.5 -23.5t-6.5 -16.5l-2 -5h-224
l-35 -225h261q2 -18 -2 -45zM404 84l84 532h-77q-64 0 -93 -22.5t-37 -75.5l-54 -336q-8 -53 14 -75.5t86 -22.5h77z" />
    <glyph glyph-name="oe" unicode="&#x153;" horiz-adv-x="806" 
d="M83 164l28 171q13 85 70 128t171 43q108 0 139 -58q46 58 157 58q115 0 154 -42t25 -129l-19 -117q-51 -12 -145 -12h-144l-7 -42q-7 -48 13 -68t79 -20q43 0 85 7.5t62 15t20 8.5v-2q1 -2 1.5 -6t1 -8.5t0 -11.5t-1.5 -14q-2 -11 -5.5 -21.5t-6.5 -15.5l-3 -4
q-67 -31 -166 -31q-126 0 -160 62q-48 -62 -160 -62q-113 0 -157 43t-31 128zM243 335l-28 -171q-7 -47 8 -67.5t61 -20.5t67.5 20.5t28.5 67.5l28 171q8 48 -7.5 68t-61.5 20t-67 -20t-29 -68zM532 289h162l8 46q8 48 -6.5 68t-60.5 20t-66.5 -20t-28.5 -68z" />
    <glyph glyph-name="Racute" unicode="&#x154;" horiz-adv-x="584" 
d="M418 3l-95 279l-91 4l-45 -283q-36 -6 -70 -6l-69 6l110 689q95 12 235 12q132 0 183 -46.5t36 -139.5l-8 -49q-22 -136 -149 -172l106 -294q-36 -6 -71 -6zM284 616l-38 -245h94q61 0 89 22.5t36 75.5l8 49q8 53 -12.5 75.5t-81.5 22.5h-95zM560 888l-161 -135
q-21 -6 -40 -6l-38 6l118 135q30 6 61 6z" />
    <glyph glyph-name="racute" unicode="&#x155;" horiz-adv-x="369" 
d="M258 497l-7 -51q3 2 8 6.5t21.5 14.5t34.5 18t46 14.5t56 6.5q3 -18 -1 -43q-2 -11 -5 -22t-5 -17l-3 -5q-30 0 -58.5 -9.5t-48 -22.5t-34.5 -26.5t-22 -22.5l-8 -10l-52 -325q-34 -6 -67 -6l-65 6l78 494q34 6 67 6zM431 697l-162 -135q-21 -6 -40 -6l-37 6l117 135
q30 6 61 6z" />
    <glyph glyph-name="Rcommaaccent" unicode="&#x156;" horiz-adv-x="584" 
d="M418 3l-95 279l-91 4l-45 -283q-36 -6 -70 -6l-69 6l110 689q95 12 235 12q132 0 183 -46.5t36 -139.5l-8 -49q-22 -136 -149 -172l106 -294q-36 -6 -71 -6zM284 616l-38 -245h94q61 0 89 22.5t36 75.5l8 49q8 53 -12.5 75.5t-81.5 22.5h-95zM335 -44q-8 -47 -29.5 -85
t-39.5 -53l-17 -15q-15 -5 -28 -5l-27 5q42 53 58 153q21 7 42 7q9 0 19.5 -1.5t16.5 -3.5z" />
    <glyph glyph-name="rcommaaccent" unicode="&#x157;" horiz-adv-x="369" 
d="M258 497l-7 -51q3 2 8 6.5t21.5 14.5t34.5 18t46 14.5t56 6.5q3 -18 -1 -43q-2 -11 -5 -22t-5 -17l-3 -5q-30 0 -58.5 -9.5t-48 -22.5t-34.5 -26.5t-22 -22.5l-8 -10l-52 -325q-34 -6 -67 -6l-65 6l78 494q34 6 67 6zM181 -44q-7 -47 -28.5 -85t-38.5 -53l-18 -15
q-15 -5 -29 -5l-26 5q42 53 57 153q21 7 43 7q9 0 19 -1.5t16 -3.5z" />
    <glyph glyph-name="Rcaron" unicode="&#x158;" horiz-adv-x="584" 
d="M418 3l-95 279l-91 4l-45 -283q-36 -6 -70 -6l-69 6l110 689q95 12 235 12q132 0 183 -46.5t36 -139.5l-8 -49q-22 -136 -149 -172l106 -294q-36 -6 -71 -6zM284 616l-38 -245h94q61 0 89 22.5t36 75.5l8 49q8 53 -12.5 75.5t-81.5 22.5h-95zM343 885l66 -78l90 78
q22 6 40 6q9 0 18.5 -1.5t14.5 -3.5l4 -1l-118 -132q-28 -6 -57 -6l-57 6l-78 132q20 6 40 6z" />
    <glyph glyph-name="rcaron" unicode="&#x159;" horiz-adv-x="369" 
d="M258 497l-7 -51q3 2 8 6.5t21.5 14.5t34.5 18t46 14.5t56 6.5q3 -18 -1 -43q-2 -11 -5 -22t-5 -17l-3 -5q-30 0 -58.5 -9.5t-48 -22.5t-34.5 -26.5t-22 -22.5l-8 -10l-52 -325q-34 -6 -67 -6l-65 6l78 494q34 6 67 6zM219 697l65 -78l91 78q21 6 40 6l37 -6l-119 -132
q-28 -6 -57 -6l-57 6l-77 132q19 6 40 6z" />
    <glyph glyph-name="Sacute" unicode="&#x15a;" horiz-adv-x="562" 
d="M274 518l-5 -36q-5 -29 27.5 -48.5t81.5 -32.5t97 -31t77.5 -56.5t20.5 -96.5l-6 -35q-15 -95 -79.5 -142t-195.5 -47q-137 0 -182.5 46.5t-30.5 142.5l2 12q35 7 69 7q15 0 31.5 -1.5t25.5 -3.5l9 -2l-2 -12q-8 -54 11.5 -76.5t79.5 -22.5q61 0 87.5 22t35.5 77l6 35
q4 24 -12.5 41.5t-45.5 28.5t-64 21t-69.5 23t-62 31t-41.5 48.5t-8 71.5l6 36q14 94 77.5 141t192.5 47q133 0 177 -46t29 -142l-2 -12q-35 -7 -68 -7q-16 0 -32.5 1.5t-25.5 3.5l-9 2l2 12q8 53 -10 75.5t-75 22.5t-84 -22.5t-35 -75.5zM571 888l-161 -135q-21 -6 -40 -6
l-38 6l117 135q31 6 62 6z" />
    <glyph glyph-name="sacute" unicode="&#x15b;" horiz-adv-x="506" 
d="M248 363l-4 -20q-3 -19 14 -28.5t52 -16.5q29 -6 42.5 -9t42.5 -11t44.5 -17.5t33 -24t23.5 -34.5t2 -45l-3 -20q-12 -72 -66.5 -108t-166.5 -36q-117 0 -156.5 38.5t-26.5 118.5l1 7q34 7 66 7q14 0 29.5 -2t23.5 -4l9 -1l-1 -7q-6 -40 8.5 -57t59.5 -17q44 0 63.5 14
t24.5 47l3 20q3 21 -15 31t-56 17q-28 6 -41.5 9t-41.5 11t-43 17.5t-31.5 23.5t-22.5 33.5t-2 43.5l4 20q12 72 65 107.5t163 35.5q114 0 152 -38.5t24 -118.5l-1 -7q-33 -6 -64 -6l-63 6l1 7q5 40 -8 57t-54 17t-60 -14.5t-24 -45.5zM511 697l-162 -135q-21 -6 -40 -6
l-38 6l118 135q30 6 61 6z" />
    <glyph glyph-name="Scircumflex" unicode="&#x15c;" horiz-adv-x="562" 
d="M274 518l-5 -36q-5 -29 27.5 -48.5t81.5 -32.5t97 -31t77.5 -56.5t20.5 -96.5l-6 -35q-15 -95 -79.5 -142t-195.5 -47q-137 0 -182.5 46.5t-30.5 142.5l2 12q35 7 69 7q15 0 31.5 -1.5t25.5 -3.5l9 -2l-2 -12q-8 -54 11.5 -76.5t79.5 -22.5q61 0 87.5 22t35.5 77l6 35
q4 24 -12.5 41.5t-45.5 28.5t-64 21t-69.5 23t-62 31t-41.5 48.5t-8 71.5l6 36q14 94 77.5 141t192.5 47q133 0 177 -46t29 -142l-2 -12q-35 -7 -68 -7q-16 0 -32.5 1.5t-25.5 3.5l-9 2l2 12q8 53 -10 75.5t-75 22.5t-84 -22.5t-35 -75.5zM492 753l-65 78l-90 -78
q-21 -6 -40 -6l-38 6l119 132q29 6 58 6l56 -6l78 -132q-19 -6 -40 -6z" />
    <glyph glyph-name="scircumflex" unicode="&#x15d;" horiz-adv-x="506" 
d="M248 363l-4 -20q-3 -19 14 -28.5t52 -16.5q29 -6 42.5 -9t42.5 -11t44.5 -17.5t33 -24t23.5 -34.5t2 -45l-3 -20q-12 -72 -66.5 -108t-166.5 -36q-117 0 -156.5 38.5t-26.5 118.5l1 7q34 7 66 7q14 0 29.5 -2t23.5 -4l9 -1l-1 -7q-6 -40 8.5 -57t59.5 -17q44 0 63.5 14
t24.5 47l3 20q3 21 -15 31t-56 17q-28 6 -41.5 9t-41.5 11t-43 17.5t-31.5 23.5t-22.5 33.5t-2 43.5l4 20q12 72 65 107.5t163 35.5q114 0 152 -38.5t24 -118.5l-1 -7q-33 -6 -64 -6l-63 6l1 7q5 40 -8 57t-54 17t-60 -14.5t-24 -45.5zM432 565l-65 78l-90 -78
q-21 -6 -40 -6l-38 6l120 132q28 6 57 6l57 -6l77 -132q-19 -6 -40 -6z" />
    <glyph glyph-name="Scedilla" unicode="&#x15e;" horiz-adv-x="562" 
d="M273 518l-5 -36q-5 -29 27.5 -48.5t81.5 -32.5t97 -31t77.5 -56.5t20.5 -96.5l-6 -35q-14 -90 -71.5 -136.5t-171.5 -51.5l-2 -13q-2 -13 10.5 -21.5t29 -12.5t28 -17t8.5 -35l-1 -10q-12 -72 -119 -72q-59 0 -78 19t-12 58v5q19 3 35 3l34 -3v-5q-4 -18 2.5 -25t26.5 -7
q19 0 27 6t11 21l1 10q2 11 -10.5 18.5t-28.5 11.5t-27.5 18.5t-8.5 37.5l2 13q-112 6 -149.5 52.5t-23.5 135.5l2 12q35 7 69 7q15 0 31.5 -1.5t25.5 -3.5l9 -2l-2 -12q-8 -54 11.5 -76.5t79.5 -22.5q61 0 87.5 22t35.5 77l6 35q4 24 -12.5 41.5t-45.5 28.5t-64 21
t-69.5 23t-62 31t-41.5 48.5t-8 71.5l6 36q14 94 77.5 141t192.5 47q133 0 177 -46t29 -142l-2 -12q-35 -7 -68 -7q-16 0 -32.5 1.5t-25.5 3.5l-9 2l2 12q8 53 -10 75.5t-75 22.5t-84 -22.5t-35 -75.5z" />
    <glyph glyph-name="scedilla" unicode="&#x15f;" horiz-adv-x="506" 
d="M247 363l-4 -20q-3 -19 14 -28.5t52 -16.5q29 -6 42.5 -9t42.5 -11t44.5 -17.5t33 -24t23.5 -34.5t2 -45l-3 -20q-11 -68 -59 -103.5t-146 -39.5l-2 -13q-2 -13 10.5 -21.5t29 -12.5t28 -17t8.5 -35l-1 -10q-11 -72 -118 -72q-59 0 -78 19t-13 58v5q19 3 35 3l34 -3v-5
q-3 -18 3 -25t26 -7q19 0 27.5 6t10.5 21l2 10q2 11 -11 18.5t-29 11.5t-27.5 18.5t-7.5 37.5l2 14q-91 6 -121.5 44.5t-18.5 110.5l1 7q34 7 66 7q14 0 29.5 -2t23.5 -4l9 -1l-1 -7q-6 -40 8.5 -57t59.5 -17q44 0 63.5 14t24.5 47l3 20q3 21 -15 31t-56 17q-28 6 -41.5 9
t-41.5 11t-43 17.5t-31.5 23.5t-22.5 33.5t-2 43.5l4 20q12 72 65 107.5t163 35.5q114 0 152 -38.5t24 -118.5l-1 -7q-33 -6 -64 -6l-63 6l1 7q5 40 -8 57t-54 17t-60 -14.5t-24 -45.5z" />
    <glyph glyph-name="Scaron" unicode="&#x160;" horiz-adv-x="562" 
d="M274 518l-5 -36q-5 -29 27.5 -48.5t81.5 -32.5t97 -31t77.5 -56.5t20.5 -96.5l-6 -35q-15 -95 -79.5 -142t-195.5 -47q-137 0 -182.5 46.5t-30.5 142.5l2 12q35 7 69 7q15 0 31.5 -1.5t25.5 -3.5l9 -2l-2 -12q-8 -54 11.5 -76.5t79.5 -22.5q61 0 87.5 22t35.5 77l6 35
q4 24 -12.5 41.5t-45.5 28.5t-64 21t-69.5 23t-62 31t-41.5 48.5t-8 71.5l6 36q14 94 77.5 141t192.5 47q133 0 177 -46t29 -142l-2 -12q-35 -7 -68 -7q-16 0 -32.5 1.5t-25.5 3.5l-9 2l2 12q8 53 -10 75.5t-75 22.5t-84 -22.5t-35 -75.5zM357 885l66 -78l90 78q22 6 40 6
q9 0 18.5 -1.5t13.5 -3.5l5 -1l-118 -132q-29 -6 -58 -6l-56 6l-78 132q20 6 40 6z" />
    <glyph glyph-name="scaron" unicode="&#x161;" horiz-adv-x="506" 
d="M248 363l-4 -20q-3 -19 14 -28.5t52 -16.5q29 -6 42.5 -9t42.5 -11t44.5 -17.5t33 -24t23.5 -34.5t2 -45l-3 -20q-12 -72 -66.5 -108t-166.5 -36q-117 0 -156.5 38.5t-26.5 118.5l1 7q34 7 66 7q14 0 29.5 -2t23.5 -4l9 -1l-1 -7q-6 -40 8.5 -57t59.5 -17q44 0 63.5 14
t24.5 47l3 20q3 21 -15 31t-56 17q-28 6 -41.5 9t-41.5 11t-43 17.5t-31.5 23.5t-22.5 33.5t-2 43.5l4 20q12 72 65 107.5t163 35.5q114 0 152 -38.5t24 -118.5l-1 -7q-33 -6 -64 -6l-63 6l1 7q5 40 -8 57t-54 17t-60 -14.5t-24 -45.5zM298 697l65 -78l90 78q22 6 40 6
l38 -6l-119 -132q-28 -6 -57 -6l-58 6l-77 132q20 6 40 6z" />
    <glyph glyph-name="Tcommaaccent" unicode="&#x162;" horiz-adv-x="556" 
d="M622 610h-177l-96 -607q-35 -6 -70 -6l-69 6l96 607h-179q-2 17 2 45l13 45h494q4 -18 0 -45q-2 -12 -5.5 -23.5t-6.5 -16.5zM315 -44q-8 -47 -29.5 -85t-39.5 -53l-17 -15q-15 -5 -28 -5l-27 5q42 53 58 153q21 7 42 7q9 0 19.5 -1.5t16.5 -3.5z" />
    <glyph glyph-name="tcommaaccent" unicode="&#x163;" horiz-adv-x="378" 
d="M403 417h-118l-41 -266q-7 -41 4.5 -58t48.5 -17q18 0 54 12q2 -17 -1 -37l-11 -38q-1 0 -11.5 -3.5t-22.5 -7t-31.5 -6.5t-37.5 -3q-79 0 -108 40t-16 118l41 266h-46q-3 16 1 41q2 11 5 21.5t6 15.5l2 5h53l29 97q28 6 56 6l55 -6l-15 -97h117q3 -17 -1 -42zM247 -44
q-8 -47 -29.5 -85t-38.5 -53l-18 -15q-15 -5 -28 -5l-27 5q42 53 58 153q21 7 42 7q9 0 19.5 -1.5t15.5 -3.5z" />
    <glyph glyph-name="Tcaron" unicode="&#x164;" horiz-adv-x="556" 
d="M622 610h-177l-96 -607q-35 -6 -70 -6l-69 6l96 607h-179q-2 17 2 45l13 45h494q4 -18 0 -45q-2 -12 -5.5 -23.5t-6.5 -16.5zM341 885l66 -78l90 78q22 6 40 6q9 0 18.5 -1.5t14.5 -3.5l4 -1l-118 -132q-29 -6 -58 -6l-56 6l-78 132q20 6 40 6z" />
    <glyph glyph-name="tcaron" unicode="&#x165;" horiz-adv-x="505" 
d="M404 417h-118l-41 -266q-7 -41 4.5 -58t48.5 -17q18 0 54 12q2 -17 -1 -37l-11 -38q-1 0 -11.5 -3.5t-22.5 -7t-31.5 -6.5t-37.5 -3q-79 0 -108 40t-16 118l41 266h-46q-3 16 1 41q2 11 5 21.5t6 15.5l2 5h53l29 97q28 6 56 6l55 -6l-15 -97h117q3 -17 -1 -42zM630 697
q-7 -47 -22 -88.5t-31 -67t-31 -44t-24 -26.5l-10 -8q-16 -6 -32 -6l-30 6q6 8 15 25t29.5 77.5t31.5 131.5q27 6 53 6z" />
    <glyph glyph-name="Tbar" unicode="&#x166;" horiz-adv-x="556" 
d="M537 319h-136l-50 -316q-35 -6 -70 -6l-69 6l50 316h-134q-4 16 1 42l12 41h134l33 208h-179q-2 17 2 45l13 45h494q4 -18 0 -45q-2 -12 -5.5 -23.5t-6.5 -16.5l-2 -5h-177l-33 -208h136q3 -16 -1 -41z" />
    <glyph glyph-name="tbar" unicode="&#x167;" horiz-adv-x="378" 
d="M376 277h-117l-19 -126q-7 -41 4.5 -58t48.5 -17q18 0 54 12q2 -17 -1 -37l-11 -38q-1 0 -11.5 -3.5t-22.5 -7t-31.5 -6.5t-37.5 -3q-79 0 -108 40t-16 118l19 126h-46q-3 14 0 38l12 38h46l12 71h-46q-4 14 0 38l12 38h53l29 97q28 6 56 6l55 -6l-15 -97h117
q4 -15 0 -38l-12 -38h-117l-12 -71h118q3 -15 -1 -38q-1 -10 -4 -19.5t-5 -13.5z" />
    <glyph glyph-name="Utilde" unicode="&#x168;" horiz-adv-x="600" 
d="M677 697l-82 -515q-15 -94 -82 -141.5t-200 -47.5t-184.5 47.5t-36.5 141.5l81 515q36 6 71 6l68 -6l-81 -515q-8 -53 13 -76t84 -23q62 0 91 23t37 76l82 515q35 6 70 6zM270 754v4q9 54 31.5 79t69.5 25q30 0 50.5 -8.5t29.5 -19t20 -19t24 -8.5q22 0 32 10t15 34v5
q19 6 38 6l34 -6v-4q-9 -55 -30.5 -79.5t-70.5 -24.5q-38 0 -60.5 14t-35.5 27.5t-27 13.5q-23 0 -33 -9.5t-14 -34.5l-1 -5q-19 -6 -37 -6z" />
    <glyph glyph-name="utilde" unicode="&#x169;" horiz-adv-x="518" 
d="M354 3l5 32q-61 -42 -147 -42q-81 0 -109.5 43t-15.5 128l52 333q34 6 67 6l65 -6l-52 -333q-8 -48 4 -68t51 -20q29 0 53 9t34 18l10 9l61 385q34 6 67 6l65 -6l-78 -494q-34 -6 -67 -6zM200 593l1 4q9 54 31.5 79t69.5 25q30 0 50.5 -8.5t29.5 -19.5t20 -19.5t24 -8.5
q22 0 32 10t14 34l1 5q19 7 38 7q8 0 16.5 -1.5t13.5 -3.5l4 -2v-4q-9 -54 -30.5 -79t-70.5 -25q-30 0 -51 9t-30 19t-20 19t-23 9q-23 0 -32.5 -9.5t-13.5 -34.5l-1 -5q-19 -7 -38 -7q-8 0 -16.5 2t-13.5 4z" />
    <glyph glyph-name="Umacron" unicode="&#x16a;" horiz-adv-x="600" 
d="M677 697l-82 -515q-15 -94 -82 -141.5t-200 -47.5t-184.5 47.5t-36.5 141.5l81 515q36 6 71 6l68 -6l-81 -515q-8 -53 13 -76t84 -23q62 0 91 23t37 76l82 515q35 6 70 6zM571 771h-270q0 1 -0.5 3.5t-1.5 11t1 16.5q1 8 4 16t5 12l2 3h270q1 -1 1.5 -3.5t1.5 -11
t-1 -16.5q-1 -8 -4 -16t-6 -12z" />
    <glyph glyph-name="umacron" unicode="&#x16b;" horiz-adv-x="518" 
d="M354 3l5 32q-61 -42 -147 -42q-81 0 -109.5 43t-15.5 128l52 333q34 6 67 6l65 -6l-52 -333q-8 -48 4 -68t51 -20q29 0 53 9t34 18l10 9l61 385q34 6 67 6l65 -6l-78 -494q-34 -6 -67 -6zM500 590h-271q-3 12 0 31q1 8 3.5 16t4.5 11l2 4h271l1 -31q-1 -8 -4 -15.5
t-5 -11.5z" />
    <glyph glyph-name="Ubreve" unicode="&#x16c;" horiz-adv-x="600" 
d="M677 697l-82 -515q-15 -94 -82 -141.5t-200 -47.5t-184.5 47.5t-36.5 141.5l81 515q36 6 71 6l68 -6l-81 -515q-8 -53 13 -76t84 -23q62 0 91 23t37 76l82 515q35 6 70 6zM433 747q-84 0 -112 28.5t-18 88.5l2 10q22 6 43 6l43 -6l-2 -11q-5 -32 6.5 -45t46.5 -13
t50.5 13t20.5 45l2 11q22 6 44 6l43 -6l-2 -10q-10 -60 -46.5 -88.5t-120.5 -28.5z" />
    <glyph glyph-name="ubreve" unicode="&#x16d;" horiz-adv-x="518" 
d="M354 3l5 32q-61 -42 -147 -42q-81 0 -109.5 43t-15.5 128l52 333q34 6 67 6l65 -6l-52 -333q-8 -48 4 -68t51 -20q29 0 53 9t34 18l10 9l61 385q34 6 67 6l65 -6l-78 -494q-34 -6 -67 -6zM362 569q-85 0 -113 28.5t-18 89.5l2 9q22 6 44 6l42 -6l-2 -11q-5 -31 6.5 -44
t46.5 -13t50.5 12.5t20.5 44.5l2 11q23 6 44 6l43 -6l-2 -9q-10 -61 -46 -89.5t-120 -28.5z" />
    <glyph glyph-name="Uring" unicode="&#x16e;" horiz-adv-x="600" 
d="M677 697l-82 -515q-15 -94 -82 -141.5t-200 -47.5t-184.5 47.5t-36.5 141.5l81 515q36 6 71 6l68 -6l-81 -515q-8 -53 13 -76t84 -23q62 0 91 23t37 76l82 515q35 6 70 6zM354 812l2 16q13 72 101 72q46 0 64.5 -19t12.5 -53l-2 -16q-12 -72 -100 -72q-46 0 -64.5 19
t-13.5 53zM408 828l-2 -16q-5 -30 32 -30q39 0 43 30l2 16q2 15 -5.5 22t-27.5 7q-37 0 -42 -29z" />
    <glyph glyph-name="uring" unicode="&#x16f;" horiz-adv-x="518" 
d="M354 3l5 32q-61 -42 -147 -42q-81 0 -109.5 43t-15.5 128l52 333q34 6 67 6l65 -6l-52 -333q-8 -48 4 -68t51 -20q29 0 53 9t34 18l10 9l61 385q34 6 67 6l65 -6l-78 -494q-34 -6 -67 -6zM280 615l2 16q12 72 100 72q46 0 64.5 -19t13.5 -53l-2 -16q-13 -72 -101 -72
q-45 0 -64 19.5t-13 52.5zM334 631l-3 -16q-2 -15 5.5 -22.5t27.5 -7.5q37 0 42 30l3 16q2 15 -6 22t-28 7q-38 0 -41 -29z" />
    <glyph glyph-name="Uhungarumlaut" unicode="&#x170;" horiz-adv-x="600" 
d="M677 697l-82 -515q-15 -94 -82 -141.5t-200 -47.5t-184.5 47.5t-36.5 141.5l81 515q36 6 71 6l68 -6l-81 -515q-8 -53 13 -76t84 -23q62 0 91 23t37 76l82 515q35 6 70 6zM503 888l-161 -135q-21 -6 -40 -6l-37 6l117 135q30 6 61 6zM678 888l-160 -135q-22 -6 -40 -6
l-38 6l117 135q30 6 61 6z" />
    <glyph glyph-name="uhungarumlaut" unicode="&#x171;" horiz-adv-x="518" 
d="M354 3l5 32q-61 -42 -147 -42q-81 0 -109.5 43t-15.5 128l52 333q34 6 67 6l65 -6l-52 -333q-8 -48 4 -68t51 -20q29 0 53 9t34 18l10 9l61 385q34 6 67 6l65 -6l-78 -494q-34 -6 -67 -6zM430 697l-162 -135q-21 -6 -40 -6l-38 6l118 135q30 6 61 6zM605 697l-161 -135
q-22 -6 -40 -6l-38 6l118 135q30 6 61 6z" />
    <glyph glyph-name="Uogonek" unicode="&#x172;" horiz-adv-x="600" 
d="M301 -92q5 40 58 87q-28 -2 -46 -2q-133 0 -184.5 47.5t-36.5 141.5l81 515q36 6 71 6l68 -6l-81 -515q-8 -53 13 -76t84 -23q62 0 91 23t37 76l82 515q35 6 70 6l69 -6l-82 -515q-24 -146 -170 -178q-44 -44 -51 -86q-6 -35 29 -35q11 0 21.5 3t15.5 6l5 3l1 -24l-8 -23
q-23 -18 -65 -18t-60 20.5t-12 57.5z" />
    <glyph glyph-name="uogonek" unicode="&#x173;" horiz-adv-x="518" 
d="M343 -92q8 46 63 89l-52 6l5 32q-61 -42 -147 -42q-81 0 -109.5 43t-15.5 128l52 333q34 6 67 6l65 -6l-52 -333q-8 -48 4 -68t51 -20q29 0 53 9t34 18l10 9l61 385q34 6 67 6l65 -6l-78 -494q-10 -2 -22 -3q-41 -41 -47 -82q-6 -35 29 -35q11 0 21.5 3t15.5 6l5 3l1 -24
l-8 -23q-23 -18 -65 -18q-84 0 -73 78z" />
    <glyph glyph-name="Wcircumflex" unicode="&#x174;" horiz-adv-x="953" 
d="M590 3l-25 556l-201 -556q-47 -6 -96 -6l-94 6l-49 694q36 6 68 6l69 -6l31 -568l209 568q38 6 86 6l84 -6l28 -568l212 568q37 6 70 6l66 -6l-269 -694q-46 -6 -95 -6zM673 753l-66 78l-90 -78q-21 -6 -40 -6l-37 6l118 132q29 6 58 6l56 -6l78 -132q-19 -6 -40 -6z" />
    <glyph glyph-name="wcircumflex" unicode="&#x175;" horiz-adv-x="800" 
d="M484 3l-26 363l-141 -363q-43 -6 -89 -6l-87 6l-48 494q34 6 64 6l66 -6l27 -386l150 386q35 6 79 6l77 -6l28 -386l150 386q35 6 67 6l62 -6l-204 -494q-42 -6 -88 -6zM566 565l-66 78l-89 -78q-21 -6 -40 -6l-38 6l119 132q29 6 58 6l57 -6l77 -132q-19 -6 -40 -6z" />
    <glyph glyph-name="Ycircumflex" unicode="&#x176;" horiz-adv-x="610" 
d="M697 697l-281 -431l-41 -263q-36 -6 -71 -6l-68 6l41 262l-144 432q43 6 76 6l74 -6l85 -297l179 297q41 6 76 6zM502 753l-66 78l-90 -78q-21 -6 -39 -6l-38 6l118 132q29 6 58 6l56 -6l78 -132q-19 -6 -39 -6z" />
    <glyph glyph-name="ycircumflex" unicode="&#x177;" horiz-adv-x="516" 
d="M196 -56l26 55l-41 4l-85 494q34 6 64 6l65 -6l53 -383l173 383q36 6 67 6l63 -6l-268 -549q-39 -82 -87.5 -118.5t-126.5 -36.5q-17 0 -32 3t-22 6l-7 3q-1 2 -1.5 5t-1 13.5t1.5 20.5t5 20t6 14l2 5q21 -7 60 -7q55 0 86 68zM424 565l-65 78l-90 -78q-21 -6 -40 -6
l-38 6l120 132q28 6 57 6l57 -6l77 -132q-19 -6 -40 -6z" />
    <glyph glyph-name="Ydieresis" unicode="&#x178;" horiz-adv-x="610" 
d="M697 697l-281 -431l-41 -263q-36 -6 -71 -6l-68 6l41 262l-144 432q43 6 76 6l74 -6l85 -297l179 297q41 6 76 6zM388 859l-17 -106q-24 -6 -53 -6q-13 0 -25.5 1.5t-18.5 3.5l-7 1l17 106q23 7 53 7q13 0 25.5 -2t19.5 -4zM598 859l-17 -106q-24 -6 -53 -6
q-13 0 -25.5 1.5t-18.5 3.5l-7 1l17 106q23 7 53 7q13 0 25.5 -2t19.5 -4z" />
    <glyph glyph-name="Zacute" unicode="&#x179;" horiz-adv-x="548" 
d="M601 610l-388 -516h308q3 -20 -2 -47q-1 -12 -4 -24t-6 -17l-2 -6h-461q-3 17 1 45l13 45l389 516h-306q-2 19 2 47q2 12 5 23.5t5 17.5l3 6h458q3 -18 -1 -45q-2 -12 -5.5 -23.5t-6.5 -16.5zM551 888l-160 -135q-22 -6 -40 -6l-38 6l117 135q30 6 61 6z" />
    <glyph glyph-name="zacute" unicode="&#x17a;" horiz-adv-x="468" 
d="M492 417l-290 -330h238q3 -19 -1 -43l-12 -44h-381q-3 16 0 42q2 11 5 21t6 15l2 5l291 330h-239q-3 18 2 43q1 11 4 22t6 16l2 6h381q3 -17 -1 -42q-2 -11 -5 -21t-5 -15zM482 697l-162 -135q-21 -6 -40 -6l-38 6l118 135q30 6 61 6z" />
    <glyph glyph-name="Zdotaccent" unicode="&#x17b;" horiz-adv-x="548" 
d="M601 610l-388 -516h308q3 -20 -2 -47q-1 -12 -4 -24t-6 -17l-2 -6h-461q-3 17 1 45l13 45l389 516h-306q-2 19 2 47q2 12 5 23.5t5 17.5l3 6h458q3 -18 -1 -45q-2 -12 -5.5 -23.5t-6.5 -16.5zM480 870l-19 -116q-34 -6 -67 -6l-65 6l19 116q33 7 66 7q15 0 31.5 -1.5
t25.5 -3.5z" />
    <glyph glyph-name="zdotaccent" unicode="&#x17c;" horiz-adv-x="468" 
d="M492 417l-290 -330h238q3 -19 -1 -43l-12 -44h-381q-3 16 0 42q2 11 5 21t6 15l2 5l291 330h-239q-3 18 2 43q1 11 4 22t6 16l2 6h381q3 -17 -1 -42q-2 -11 -5 -21t-5 -15zM412 697l-18 -117q-34 -6 -67 -6l-65 6l18 117q34 6 67 6z" />
    <glyph glyph-name="Zcaron" unicode="&#x17d;" horiz-adv-x="548" 
d="M601 610l-388 -516h308q3 -20 -2 -47q-1 -12 -4 -24t-6 -17l-2 -6h-461q-3 17 1 45l13 45l389 516h-306q-2 19 2 47q2 12 5 23.5t5 17.5l3 6h458q3 -18 -1 -45q-2 -12 -5.5 -23.5t-6.5 -16.5zM338 885l66 -78l89 78q22 6 41 6l37 -6l-118 -132q-29 -6 -58 -6l-57 6
l-78 132q20 6 41 6z" />
    <glyph glyph-name="zcaron" unicode="&#x17e;" horiz-adv-x="468" 
d="M492 417l-290 -330h238q3 -19 -1 -43l-12 -44h-381q-3 16 0 42q2 11 5 21t6 15l2 5l291 330h-239q-3 18 2 43q1 11 4 22t6 16l2 6h381q3 -17 -1 -42q-2 -11 -5 -21t-5 -15zM269 697l65 -78l90 78q21 6 40 6l38 -6l-120 -132q-28 -6 -57 -6l-57 6l-77 132q19 6 40 6z" />
    <glyph glyph-name="longs" unicode="&#x17f;" horiz-adv-x="351" 
d="M302 548l-118 -744q-34 -6 -67 -6l-65 6l97 614h-46q-2 16 1 41q2 11 5 21.5t5 15.5l3 5h46l7 47q12 79 53.5 118.5t120.5 39.5q34 0 106 -12q2 -19 -2 -40l-11 -38q-18 7 -59 7q-36 0 -52.5 -17t-23.5 -58z" />
    <glyph glyph-name="uni018F" unicode="&#x18f;" horiz-adv-x="581" 
d="M284 389h189l21 129q8 54 -12.5 76t-83.5 22t-91 -22.5t-36 -75.5l-2 -12q-32 -7 -64 -7q-13 0 -28 1.5t-24 3.5l-8 2l2 12q15 96 74 142t192 46t184 -47t36 -141l-53 -336q-16 -94 -81.5 -141.5t-199.5 -47.5q-135 0 -180 46.5t-30 142.5l31 195q58 12 164 12zM240 306
l-19 -124q-8 -54 11.5 -76.5t80.5 -22.5q63 0 91.5 22.5t36.5 76.5l19 124h-220z" />
    <glyph glyph-name="florin" unicode="&#x192;" horiz-adv-x="371" 
d="M78 -52l74 470h-46q-2 16 1 41q2 11 5 21.5t5 15.5l3 5h46l7 47q12 79 53.5 118.5t120.5 39.5q34 0 106 -12q2 -19 -2 -40l-11 -38q-18 7 -59 7q-36 0 -52.5 -17t-23.5 -58l-7 -47h124q3 -17 -1 -42q-1 -11 -4 -21.5t-6 -15.5l-2 -4h-125l-74 -470q-12 -77 -51.5 -116
t-114.5 -39q-15 0 -29.5 1.5t-25.5 3.5t-19 4t-14 4t-7 2q-3 18 1 38l11 38q20 -8 47 -8q33 0 48.5 16.5t21.5 55.5z" />
    <glyph glyph-name="uni01DD" unicode="&#x1dd;" horiz-adv-x="509" 
d="M531 335l-28 -171q-13 -85 -70 -128t-170 -43q-115 0 -154 42t-25 129l19 120q52 12 146 12h144l6 39q8 48 -12 68t-80 20q-43 0 -84.5 -7.5t-61 -14t-21.5 -8.5l-1 5q-1 6 -1.5 15t1.5 22q2 11 5.5 21.5t6.5 15.5l3 4q67 30 166 30q127 0 175.5 -42.5t35.5 -128.5z
M379 213h-162l-8 -49q-7 -48 7.5 -68t60.5 -20t66.5 20t27.5 68z" />
    <glyph glyph-name="AEacute" unicode="&#x1fc;" horiz-adv-x="755" 
d="M509 315l-35 -225h261q3 -18 -2 -45l-12 -45h-187q-57 0 -110 2t-78 4l-24 3l24 151h-128l-68 -157q-37 -6 -70 -6l-66 6l306 688q132 9 324 9h182q3 -18 -1 -45q-2 -12 -5.5 -23.5t-5.5 -16.5l-3 -5h-255l-32 -205h224q2 -18 -1 -45l-13 -45h-225zM409 610l-156 -360
h107l57 360h-8zM725 888l-161 -135q-21 -6 -40 -6l-38 6l118 135q30 6 61 6z" />
    <glyph glyph-name="aeacute" unicode="&#x1fd;" horiz-adv-x="790" 
d="M199 -7q-77 0 -105 36t-17 108l2 13q10 62 58 96t149 46l108 12l6 42q6 42 -8 59.5t-58 17.5q-43 0 -63 -17t-26 -57l-1 -10q-32 -6 -64 -6l-61 6l1 10q13 80 63 118.5t164 38.5q108 0 137 -57q47 57 151 57q113 0 150.5 -41.5t23.5 -129.5l-19 -117q-49 -12 -141 -12
h-139l-7 -42q-7 -48 12.5 -68t76.5 -20q41 0 81.5 7.5t60 15t19.5 8.5v-2q1 -2 1.5 -6t1 -8.5t0 -11.5t-1.5 -14q-2 -11 -5.5 -21.5t-6.5 -15.5l-3 -4q-65 -31 -160 -31q-130 0 -162 68q-62 -68 -218 -68zM381 224l-82 -11q-80 -11 -88 -63l-2 -13q-5 -32 7 -46.5t48 -14.5
q52 0 76 20.5t31 67.5zM523 289h153l8 46q8 48 -6 68t-57 20t-63 -20t-27 -68zM658 697l-161 -135q-21 -6 -40 -6l-38 6l118 135q30 6 61 6z" />
    <glyph glyph-name="Oslashacute" unicode="&#x1fe;" horiz-adv-x="599" 
d="M680 697l-56 -71q22 -44 12 -108l-54 -336q-15 -94 -82.5 -141.5t-201.5 -47.5q-96 0 -152 25l-12 -15q-28 -6 -54 -6l-51 6l55 70q-22 42 -11 109l54 336q15 94 82 141t202 47q95 0 151 -25l13 16q26 6 53 6zM259 518l-45 -280l278 354q-24 28 -95 28q-68 0 -99 -23.5
t-39 -78.5zM311 80q68 0 99.5 23.5t39.5 78.5l45 280l-279 -355q21 -27 95 -27zM575 888l-161 -135q-21 -6 -39 -6l-38 6l117 135q30 6 61 6z" />
    <glyph glyph-name="oslashacute" unicode="&#x1ff;" horiz-adv-x="519" 
d="M558 497l-46 -52q26 -40 15 -110l-28 -171q-13 -85 -70.5 -128t-170.5 -43q-83 0 -127 22l-11 -12q-23 -6 -44 -6l-41 6l48 54q-24 41 -13 107l28 171q13 85 70 128t171 43q79 0 124 -21l11 12q21 6 43 6zM270 69q54 0 78.5 21.5t32.5 73.5l27 163l-210 -236
q16 -22 72 -22zM216 335q0 1 -5 -30t-11.5 -70.5t-9.5 -57.5l207 233q-19 20 -70 20q-54 0 -78.5 -21.5t-32.5 -73.5zM505 697l-161 -135q-21 -6 -40 -6l-38 6l118 135q30 6 61 6z" />
    <glyph glyph-name="Scommaaccent" unicode="&#x218;" horiz-adv-x="562" 
d="M274 518l-5 -36q-5 -29 27.5 -48.5t81.5 -32.5t97 -31t77.5 -56.5t20.5 -96.5l-6 -35q-15 -95 -79.5 -142t-195.5 -47q-137 0 -182.5 46.5t-30.5 142.5l2 12q35 7 69 7q15 0 31.5 -1.5t25.5 -3.5l9 -2l-2 -12q-8 -54 11.5 -76.5t79.5 -22.5q61 0 87.5 22t35.5 77l6 35
q4 24 -12.5 41.5t-45.5 28.5t-64 21t-69.5 23t-62 31t-41.5 48.5t-8 71.5l6 36q14 94 77.5 141t192.5 47q133 0 177 -46t29 -142l-2 -12q-35 -7 -68 -7q-16 0 -32.5 1.5t-25.5 3.5l-9 2l2 12q8 53 -10 75.5t-75 22.5t-84 -22.5t-35 -75.5zM325 -44q-7 -47 -28.5 -85
t-39.5 -53l-17 -15q-15 -5 -29 -5l-26 5q42 53 57 153q21 7 43 7q9 0 19 -1.5t15 -3.5z" />
    <glyph glyph-name="scommaaccent" unicode="&#x219;" horiz-adv-x="506" 
d="M248 363l-4 -20q-3 -19 14 -28.5t52 -16.5q29 -6 42.5 -9t42.5 -11t44.5 -17.5t33 -24t23.5 -34.5t2 -45l-3 -20q-12 -72 -66.5 -108t-166.5 -36q-117 0 -156.5 38.5t-26.5 118.5l1 7q34 7 66 7q14 0 29.5 -2t23.5 -4l9 -1l-1 -7q-6 -40 8.5 -57t59.5 -17q44 0 63.5 14
t24.5 47l3 20q3 21 -15 31t-56 17q-28 6 -41.5 9t-41.5 11t-43 17.5t-31.5 23.5t-22.5 33.5t-2 43.5l4 20q12 72 65 107.5t163 35.5q114 0 152 -38.5t24 -118.5l-1 -7q-33 -6 -64 -6l-63 6l1 7q5 40 -8 57t-54 17t-60 -14.5t-24 -45.5zM301 -44q-7 -47 -28.5 -85t-39.5 -53
l-17 -15q-15 -5 -28 -5l-27 5q42 53 57 153q22 7 43 7q9 0 19 -1.5t15 -3.5z" />
    <glyph glyph-name="uni021A" unicode="&#x21a;" horiz-adv-x="556" 
d="M622 610h-177l-96 -607q-35 -6 -70 -6l-69 6l96 607h-179q-2 17 2 45l13 45h494q4 -18 0 -45q-2 -12 -5.5 -23.5t-6.5 -16.5zM315 -44q-8 -47 -29.5 -85t-39.5 -53l-17 -15q-15 -5 -28 -5l-27 5q42 53 58 153q21 7 42 7q9 0 19.5 -1.5t16.5 -3.5z" />
    <glyph glyph-name="uni021B" unicode="&#x21b;" horiz-adv-x="378" 
d="M403 417h-118l-41 -266q-7 -41 4.5 -58t48.5 -17q18 0 54 12q2 -17 -1 -37l-11 -38q-1 0 -11.5 -3.5t-22.5 -7t-31.5 -6.5t-37.5 -3q-79 0 -108 40t-16 118l41 266h-46q-3 16 1 41q2 11 5 21.5t6 15.5l2 5h53l29 97q28 6 56 6l55 -6l-15 -97h117q3 -17 -1 -42zM247 -44
q-8 -47 -29.5 -85t-38.5 -53l-18 -15q-15 -5 -28 -5l-27 5q42 53 58 153q21 7 42 7q9 0 19.5 -1.5t15.5 -3.5z" />
    <glyph glyph-name="dotlessj" unicode="&#x237;" horiz-adv-x="240" 
d="M53 -52l87 549q34 6 67 6l65 -6l-87 -549q-12 -77 -51.5 -116t-114.5 -39q-14 0 -28.5 1.5t-25.5 3.5t-19.5 4t-14.5 4t-7 2q-2 18 1 38l11 38q20 -8 49 -8q32 0 47.5 17t20.5 55z" />
    <glyph glyph-name="circumflex" unicode="&#x2c6;" horiz-adv-x="229" 
d="M281 565l-66 78l-89 -78q-21 -6 -40 -6l-38 6l119 132q29 6 58 6l57 -6l77 -132q-19 -6 -40 -6z" />
    <glyph glyph-name="caron" unicode="&#x2c7;" horiz-adv-x="229" 
d="M147 697l65 -78l90 78q21 6 40 6l38 -6l-120 -132q-28 -6 -57 -6l-57 6l-77 132q19 6 40 6z" />
    <glyph glyph-name="breve" unicode="&#x2d8;" horiz-adv-x="413" 
d="M304 569q-84 0 -112 28.5t-19 89.5l2 9q23 6 44 6l43 -6l-2 -11q-5 -31 6.5 -44t46.5 -13t50.5 13t20.5 44l2 11q22 6 44 6l42 -6l-2 -9q-9 -60 -45.5 -89t-120.5 -29z" />
    <glyph glyph-name="dotaccent" unicode="&#x2d9;" horiz-adv-x="229" 
d="M290 697l-18 -117q-34 -6 -67 -6l-65 6l18 117q34 6 67 6z" />
    <glyph glyph-name="ring" unicode="&#x2da;" horiz-adv-x="310" 
d="M168 615l3 16q10 72 100 72q45 0 64 -19t14 -53l-3 -16q-12 -72 -100 -72q-46 0 -64.5 19t-13.5 53zM222 631l-2 -16q-3 -15 4.5 -22.5t27.5 -7.5q37 0 43 30l2 16q2 15 -5.5 22t-27.5 7q-37 0 -42 -29z" />
    <glyph glyph-name="ogonek" unicode="&#x2db;" horiz-adv-x="152" 
d="M-3 -92q4 23 22 47.5t34 36.5l16 13h53q-46 -47 -52 -87q-6 -35 29 -35q11 0 21.5 3t15.5 6l5 3l1 -24l-8 -23q-23 -18 -65 -18q-83 0 -72 78z" />
    <glyph glyph-name="tilde" unicode="&#x2dc;" horiz-adv-x="407" 
d="M132 593l1 4q9 54 31.5 79t69.5 25q30 0 50.5 -8.5t29.5 -19.5t20 -19.5t23 -8.5q23 0 33 10t14 34l1 5q19 7 38 7q8 0 16.5 -1.5t12.5 -3.5l5 -2v-4q-9 -54 -30.5 -79t-70.5 -25q-30 0 -51 9t-30 19t-20 19t-23 9q-23 0 -32.5 -9.5t-13.5 -34.5l-1 -5q-19 -7 -38 -7
q-8 0 -16.5 2t-13.5 4z" />
    <glyph glyph-name="hungarumlaut" unicode="&#x2dd;" horiz-adv-x="229" 
d="M246 697l-161 -135q-21 -6 -40 -6q-9 0 -18.5 1.5t-14.5 2.5l-4 2l117 135q30 6 61 6zM422 697l-162 -135q-21 -6 -40 -6l-37 6l117 135q30 6 61 6z" />
    <glyph glyph-name="uni0400" unicode="&#x400;" 
d="M237 315l-35 -225h293q3 -18 -1 -45l-13 -45h-220q-57 0 -110 2t-77 4l-25 3l109 682q85 9 213 9h215q4 -18 -1 -45q-2 -12 -5 -23.5t-6 -16.5l-2 -5h-289l-32 -205h257q3 -18 -1 -45q-2 -12 -5 -23.5t-6 -16.5l-2 -5h-257zM394 753l-119 135q33 6 63 6l58 -6l76 -135
q-20 -6 -40 -6z" />
    <glyph glyph-name="afii10023" unicode="&#x401;" 
d="M237 315l-35 -225h293q3 -18 -1 -45l-13 -45h-220q-57 0 -110 2t-77 4l-25 3l109 682q85 9 213 9h215q4 -18 -1 -45q-2 -12 -5 -23.5t-6 -16.5l-2 -5h-289l-32 -205h257q3 -18 -1 -45q-2 -12 -5 -23.5t-6 -16.5l-2 -5h-257zM353 860l-16 -106q-25 -6 -53 -6
q-13 0 -26 1.5t-19 2.5l-6 2l16 106q24 6 53 6q13 0 25.5 -1.5t18.5 -2.5zM563 860l-16 -106q-25 -6 -53 -6q-13 0 -26 1.5t-19 2.5l-6 2l16 106q24 6 53 6q13 0 25.5 -1.5t18.5 -2.5z" />
    <glyph glyph-name="afii10051" unicode="&#x402;" horiz-adv-x="727" 
d="M568 148l18 117q8 48 -7.5 68t-64.5 20q-33 0 -62 -9t-40.5 -16.5t-12.5 -10.5l-50 -314q-35 -6 -70 -6l-69 6l96 607h-179q-2 17 2 45l13 45h494q4 -18 0 -45q-2 -12 -5.5 -23.5t-6.5 -16.5l-2 -5h-177l-33 -208q69 41 164 41q94 0 128.5 -44.5t20.5 -133.5l-18 -117
q-12 -77 -53 -116t-118 -39q-19 0 -37.5 2t-30 5t-21 5.5t-10.5 2.5q-2 18 2 39l11 37q20 -8 48 -8q33 0 48 16.5t22 55.5z" />
    <glyph glyph-name="afii10052" unicode="&#x403;" horiz-adv-x="472" 
d="M524 888l-161 -135q-21 -6 -40 -6l-38 6l117 135q31 6 62 6zM283 610l-96 -607q-35 -6 -70 -6l-69 6l110 688q85 9 213 9h180q4 -18 -1 -45q-2 -12 -5 -23.5t-5 -16.5l-3 -5h-254z" />
    <glyph glyph-name="afii10053" unicode="&#x404;" horiz-adv-x="568" 
d="M88 182l54 336q15 94 81 141t199 47t177 -46t29 -142l-2 -12q-32 -7 -64 -7q-14 0 -29 1.5t-24 3.5l-8 2l2 12q8 54 -12.5 76t-83.5 22t-90.5 -22t-35.5 -76l-20 -120h260q3 -18 -1 -45q-2 -12 -5 -23t-6 -16l-2 -6h-260l-20 -126q-8 -54 16.5 -76.5t95.5 -22.5
q53 0 105.5 11t76.5 20.5t26 11.5v-2q1 -3 1.5 -6.5t0.5 -8.5t-0.5 -12.5t-1.5 -15.5q-2 -13 -5.5 -24.5t-6.5 -16.5l-3 -6q-84 -41 -208 -41q-142 0 -196.5 47.5t-39.5 141.5z" />
    <glyph glyph-name="afii10054" unicode="&#x405;" horiz-adv-x="565" 
d="M274 518l-5 -36q-5 -29 27.5 -48.5t81.5 -32.5t97 -31t77.5 -56.5t20.5 -96.5l-6 -35q-15 -95 -79.5 -142t-195.5 -47q-137 0 -182.5 46.5t-30.5 142.5l2 12q35 7 69 7q15 0 31.5 -1.5t25.5 -3.5l9 -2l-2 -12q-8 -54 11.5 -76.5t79.5 -22.5q61 0 87.5 22t35.5 77l6 35
q4 24 -12.5 41.5t-45.5 28.5t-64 21t-69.5 23t-62 31t-41.5 48.5t-8 71.5l6 36q14 94 77.5 141t192.5 47q133 0 177 -46t29 -142l-2 -12q-35 -7 -68 -7q-16 0 -32.5 1.5t-25.5 3.5l-9 2l2 12q8 53 -10 75.5t-75 22.5t-84 -22.5t-35 -75.5z" />
    <glyph glyph-name="afii10055" unicode="&#x406;" horiz-adv-x="332" 
d="M50 90h65l81 520h-64q-3 17 1 45l13 45h268q4 -18 -1 -45q-2 -12 -5 -23.5t-6 -16.5l-2 -5h-65l-81 -520h64q3 -17 -2 -45l-12 -45h-268q-4 18 1 45q2 12 5 23t6 16z" />
    <glyph glyph-name="afii10056" unicode="&#x407;" horiz-adv-x="332" 
d="M266 859l-17 -106q-24 -6 -53 -6q-13 0 -25.5 1.5t-18.5 3.5l-7 1l17 106q23 7 52 7q13 0 26 -2t20 -4zM450 859l-17 -106q-24 -6 -53 -6q-13 0 -25.5 1.5t-18.5 3.5l-7 1l17 106q23 7 52 7q13 0 26 -2t20 -4zM50 90h65l81 520h-64q-3 17 1 45l13 45h268q4 -18 -1 -45
q-2 -12 -5 -23.5t-6 -16.5l-2 -5h-65l-81 -520h64q3 -17 -2 -45l-12 -45h-268q-4 18 1 45q2 12 5 23t6 16z" />
    <glyph glyph-name="afii10057" unicode="&#x408;" horiz-adv-x="476" 
d="M542 697l-81 -515q-15 -94 -76.5 -141.5t-183.5 -47.5q-41 0 -77.5 10.5t-52.5 20.5l-15 10q-5 18 0 47q1 8 3 15.5t4 12.5t4 9l3 6l1 2q-1 -1 15.5 -11t52 -21t75.5 -11q52 0 76 23t32 76l81 515q36 6 71 6z" />
    <glyph glyph-name="afii10058" unicode="&#x409;" horiz-adv-x="965" 
d="M453 8l96 602h-156l-123 -435q-27 -95 -79.5 -138.5t-162.5 -43.5q-3 19 2 46l12 44q41 0 61 20.5t35 71.5l148 516q85 12 209 12q55 0 106.5 -3t75.5 -6l24 -3l-43 -269q39 4 93 4q131 0 181.5 -47.5t35.5 -142.5l-8 -51q-15 -95 -80 -142t-197 -47q-60 0 -117.5 3
t-84.5 6zM645 337l-41 -253h93q60 0 88 23t36 78l8 51q9 55 -11.5 78t-80.5 23h-92z" />
    <glyph glyph-name="afii10059" unicode="&#x40a;" horiz-adv-x="948" 
d="M433 8l48 303h-245l-49 -308q-35 -6 -70 -6l-69 6l110 694q36 6 71 6l68 -6l-47 -296h245l47 296q35 6 71 6l68 -6l-43 -275q39 4 93 4q131 0 181 -47.5t35 -142.5l-8 -51q-15 -95 -80 -142t-196 -47q-60 0 -117.5 3t-85.5 6zM624 337l-40 -253h92q60 0 88 23t36 78l8 51
q9 55 -11 78t-80 23h-93z" />
    <glyph glyph-name="afii10060" unicode="&#x40b;" horiz-adv-x="727" 
d="M622 610h-177l-33 -208q69 41 164 41q94 0 128.5 -44.5t20.5 -133.5l-41 -262q-36 -6 -71 -6l-68 6l41 262q8 48 -7.5 68t-64.5 20q-33 0 -62 -9t-40.5 -16.5t-12.5 -10.5l-50 -314q-35 -6 -70 -6l-69 6l96 607h-179q-2 17 2 45l13 45h494q4 -18 0 -45q-2 -12 -5.5 -23.5
t-6.5 -16.5z" />
    <glyph glyph-name="afii10061" unicode="&#x40c;" horiz-adv-x="575" 
d="M413 3l-127 310l-52 -13l-47 -297q-36 -6 -70 -6l-69 6l110 694q36 6 71 6l68 -6l-47 -302l50 14l213 288q38 6 74 6l69 -6l-241 -336l144 -358q-38 -6 -73 -6zM562 888l-161 -135q-21 -6 -40 -6l-38 6l118 135q30 6 61 6z" />
    <glyph glyph-name="uni040D" unicode="&#x40d;" horiz-adv-x="628" 
d="M438 753l-119 135q33 6 62 6l59 -6l75 -135q-19 -6 -39 -6zM686 697l-110 -694q-35 -6 -70 -6l-69 6l71 447l-342 -447q-30 -6 -60 -6l-58 6l110 694q36 6 71 6l68 -6l-70 -447l341 447q30 6 60 6z" />
    <glyph glyph-name="afii10062" unicode="&#x40e;" horiz-adv-x="583" 
d="M412 747q-84 0 -112 28.5t-18 88.5l2 10q22 6 43 6l43 -6l-2 -11q-5 -32 6.5 -45t46.5 -13t50.5 13t20.5 45l2 11q23 6 44 6l43 -6l-2 -10q-10 -60 -46.5 -88.5t-120.5 -28.5zM261 147l27 55l-49 5l-111 490q36 6 68 6l68 -6l80 -379l199 379q38 6 70 6l67 -6l-295 -549
q-43 -82 -96 -118.5t-138 -36.5q-19 0 -36.5 3t-25.5 6l-8 3q-1 2 -1.5 5.5t-1 14.5t1.5 22t6 22t6 16l3 5q25 -7 71 -7q65 0 95 64z" />
    <glyph glyph-name="afii10145" unicode="&#x40f;" horiz-adv-x="614" 
d="M231 -133l20 131q-54 1 -104.5 3.5t-74.5 4.5l-23 3l109 688q36 6 71 6l68 -6l-95 -607h239l96 607q35 6 70 6l69 -6l-110 -688q-81 -9 -204 -11l-20 -131q-29 -6 -57 -6z" />
    <glyph glyph-name="afii10017" unicode="&#x410;" horiz-adv-x="612" 
d="M14 3l308 694q45 6 95 6l93 -6l88 -694q-36 -6 -67 -6l-69 6l-19 157h-225l-68 -157q-37 -6 -70 -6zM400 588l-147 -338h185z" />
    <glyph glyph-name="afii10018" unicode="&#x411;" horiz-adv-x="574" 
d="M283 610l-29 -186q43 3 102 3q131 0 182 -47t36 -142l-8 -53q-15 -95 -81 -141.5t-198 -46.5q-63 0 -122.5 3t-87.5 6l-28 2l109 683q85 9 213 9h231q4 -18 -1 -45q-2 -12 -5 -23.5t-6 -16.5l-2 -5h-305zM241 338l-41 -254h101q61 0 89 23t37 78l8 53q9 55 -11.5 77.5
t-81.5 22.5h-101z" />
    <glyph glyph-name="afii10019" unicode="&#x412;" horiz-adv-x="579" 
d="M49 8l109 684q100 12 241 12q129 0 179 -44.5t35 -134.5l-5 -31q-17 -102 -121 -135q107 -33 89 -141l-6 -39q-15 -92 -81.5 -137.5t-201.5 -45.5q-63 0 -122.5 3t-87.5 6zM237 315l-37 -231h101q63 0 92.5 22t37.5 73l6 39q8 51 -14 74t-85 23h-101zM284 615l-34 -214
h101q57 0 83.5 22t34.5 71l5 31q8 48 -12 69t-77 21h-101z" />
    <glyph glyph-name="afii10020" unicode="&#x413;" horiz-adv-x="472" 
d="M283 610l-96 -607q-35 -6 -70 -6l-69 6l110 688q85 9 213 9h180q4 -18 -1 -45q-2 -12 -5 -23.5t-5 -16.5l-3 -5h-254z" />
    <glyph glyph-name="afii10021" unicode="&#x414;" horiz-adv-x="703" 
d="M5 -133l33 216q47 0 69.5 20.5t37.5 71.5l148 516q86 12 209 12q55 0 107 -3t76 -6l24 -3l-96 -601l77 -4l-34 -219q-29 -6 -57 -6l-54 6l21 133h-429l-21 -133q-29 -6 -57 -6zM229 90h245l82 520h-159l-123 -435q-16 -53 -45 -85z" />
    <glyph glyph-name="afii10022" unicode="&#x415;" 
d="M237 315l-35 -225h293q3 -18 -1 -45l-13 -45h-220q-57 0 -110 2t-77 4l-25 3l109 682q85 9 213 9h215q4 -18 -1 -45q-2 -12 -5 -23.5t-6 -16.5l-2 -5h-289l-32 -205h257q3 -18 -1 -45q-2 -12 -5 -23.5t-6 -16.5l-2 -5h-257z" />
    <glyph glyph-name="afii10024" unicode="&#x416;" horiz-adv-x="855" 
d="M361 314l-200 -311q-40 -6 -74 -6l-71 6l230 359l-106 335q36 6 71 6l73 -6l91 -288l45 -13l48 301q36 6 70 6l69 -6l-48 -301l48 13l184 288q38 6 74 6l69 -6l-212 -335l117 -359q-38 -6 -73 -6l-73 6l-101 311l-48 -13l-47 -298q-35 -6 -71 -6l-68 6l47 298z" />
    <glyph glyph-name="afii10025" unicode="&#x417;" horiz-adv-x="549" 
d="M381 706q125 0 173.5 -45.5t33.5 -135.5l-4 -31q-17 -101 -121 -134q106 -32 88 -142l-5 -39q-16 -92 -84.5 -139t-207.5 -47q-53 0 -100 10.5t-67 20.5l-20 10q-5 18 0 47q1 8 3 15.5t4 12.5t4 9l3 6l1 2q-1 -1 20 -11t67 -21t97 -11q70 0 101 22t40 74l5 39
q8 49 -14 71t-85 22h-89q-3 18 2 45q1 12 4 23t5 17l3 5h89q56 0 83 22t35 71l4 31q8 48 -10.5 69.5t-72.5 21.5q-58 0 -84 -20t-34 -68l-2 -12q-32 -6 -64 -6l-60 6l2 12q14 91 71.5 134.5t185.5 43.5z" />
    <glyph glyph-name="afii10026" unicode="&#x418;" horiz-adv-x="625" 
d="M686 697l-110 -694q-35 -6 -70 -6l-69 6l71 447l-342 -447q-30 -6 -60 -6l-58 6l110 694q36 6 71 6l68 -6l-70 -447l341 447q30 6 60 6z" />
    <glyph glyph-name="afii10027" unicode="&#x419;" horiz-adv-x="625" 
d="M431 747q-84 0 -112.5 28.5t-18.5 88.5l2 10q22 6 44 6l43 -6l-2 -11q-5 -32 6.5 -45t46.5 -13t50.5 13t20.5 45l2 11q22 6 43 6l43 -6l-2 -10q-10 -60 -46 -88.5t-120 -28.5zM686 697l-110 -694q-35 -6 -70 -6l-69 6l71 447l-342 -447q-30 -6 -60 -6l-58 6l110 694
q36 6 71 6l68 -6l-70 -447l341 447q30 6 60 6z" />
    <glyph glyph-name="afii10028" unicode="&#x41a;" horiz-adv-x="575" 
d="M413 3l-127 310l-52 -13l-47 -297q-36 -6 -70 -6l-69 6l110 694q36 6 71 6l68 -6l-47 -302l50 14l213 288q38 6 74 6l69 -6l-241 -336l144 -358q-38 -6 -73 -6z" />
    <glyph glyph-name="afii10029" unicode="&#x41b;" horiz-adv-x="637" 
d="M138 175l148 516q85 12 209 12q55 0 106.5 -3t75.5 -6l24 -3l-109 -688q-36 -6 -71 -6l-68 6l96 607h-156l-123 -435q-27 -95 -79.5 -138.5t-162.5 -43.5q-3 19 2 46l12 44q41 0 61 20.5t35 71.5z" />
    <glyph glyph-name="afii10030" unicode="&#x41c;" horiz-adv-x="792" 
d="M850 697l-110 -693q-34 -6 -67 -6l-65 6l80 503l-218 -396q-28 -7 -60 -7q-14 0 -28.5 2t-21.5 4l-8 1l-92 395l-80 -503q-34 -6 -67 -6l-65 6l110 693q0 1 12.5 2.5t35.5 3t45 1.5t45 -1.5t35 -3.5l12 -2l95 -410l228 411q45 7 93 7q21 0 44 -2t35 -4z" />
    <glyph glyph-name="afii10031" unicode="&#x41d;" horiz-adv-x="620" 
d="M681 697l-110 -694q-35 -6 -70 -6l-69 6l49 308h-245l-49 -308q-35 -6 -70 -6l-69 6l110 694q36 6 71 6l68 -6l-47 -296h245l47 296q35 6 71 6z" />
    <glyph glyph-name="afii10032" unicode="&#x41e;" horiz-adv-x="599" 
d="M88 182l54 336q15 94 82 141t202 47t187.5 -47t37.5 -141l-54 -336q-15 -94 -82.5 -141.5t-201.5 -47.5q-135 0 -187.5 47.5t-37.5 141.5zM281 518l-14 -84l-26 -168l-14 -84q-8 -53 14 -76t86 -23t93.5 23t37.5 76l54 336q8 53 -14 75.5t-86 22.5t-93.5 -22.5
t-37.5 -75.5z" />
    <glyph glyph-name="afii10033" unicode="&#x41f;" horiz-adv-x="614" 
d="M117 -3l-69 6l110 688q106 12 260 12q68 0 132.5 -3t94.5 -6l30 -3l-109 -688q-35 -6 -71 -6l-68 6l95 607h-239l-96 -607q-35 -6 -70 -6z" />
    <glyph glyph-name="afii10034" unicode="&#x420;" horiz-adv-x="574" 
d="M158 692q95 12 235 12q132 0 183 -46.5t36 -139.5l-8 -49q-15 -94 -80.5 -140.5t-197.5 -46.5l-94 4l-45 -283q-36 -6 -70 -6l-69 6zM284 616l-38 -245h94q61 0 89 22.5t36 75.5l8 49q8 53 -12.5 75.5t-81.5 22.5h-95z" />
    <glyph glyph-name="afii10035" unicode="&#x421;" horiz-adv-x="568" 
d="M88 182l54 336q15 94 81 141t199 47t177 -46t29 -142l-2 -12q-32 -7 -64 -7q-14 0 -29 1.5t-24 3.5l-8 2l2 12q8 54 -12.5 76t-83.5 22t-90.5 -22t-35.5 -76l-54 -336q-8 -54 16.5 -76.5t95.5 -22.5q53 0 105.5 11t76.5 20.5t26 11.5v-2q1 -3 1.5 -6.5t0.5 -8.5
t-0.5 -12.5t-1.5 -15.5q-2 -13 -5.5 -24.5t-6.5 -16.5l-3 -6q-84 -41 -208 -41q-142 0 -196.5 47.5t-39.5 141.5z" />
    <glyph glyph-name="afii10036" unicode="&#x422;" horiz-adv-x="556" 
d="M622 610h-177l-96 -607q-35 -6 -70 -6l-69 6l96 607h-179q-2 17 2 45l13 45h494q4 -18 0 -45q-2 -12 -5.5 -23.5t-6.5 -16.5z" />
    <glyph glyph-name="afii10037" unicode="&#x423;" horiz-adv-x="583" 
d="M261 147l27 55l-49 5l-111 490q36 6 68 6l68 -6l80 -379l199 379q38 6 70 6l67 -6l-295 -549q-43 -82 -96 -118.5t-138 -36.5q-19 0 -36.5 3t-25.5 6l-8 3q-1 2 -1.5 5.5t-1 14.5t1.5 22t6 22t6 16l3 5q25 -7 71 -7q65 0 95 64z" />
    <glyph glyph-name="afii10038" unicode="&#x424;" horiz-adv-x="768" 
d="M328 3l10 63q-145 0 -202 47.5t-42 141.5l30 190q15 94 87 141t218 47l9 64q36 6 71 6l68 -6l-9 -64q144 0 201.5 -47t42.5 -141l-31 -190q-15 -94 -87 -141.5t-217 -47.5l-10 -63q-35 -6 -70 -6zM643 255l30 190q8 53 -18.5 75.5t-101.5 22.5l-61 -387q75 0 109 23
t42 76zM263 445l-30 -190q-8 -53 18.5 -76t101.5 -23l61 387q-75 0 -109 -22.5t-42 -75.5z" />
    <glyph glyph-name="afii10039" unicode="&#x425;" horiz-adv-x="610" 
d="M446 3l-98 272l-184 -272q-41 -6 -75 -6l-73 6l250 353l-133 341q43 6 76 6l74 -6l91 -260l173 260q41 6 76 6l74 -6l-240 -341l138 -353q-44 -6 -78 -6z" />
    <glyph glyph-name="afii10040" unicode="&#x426;" horiz-adv-x="670" 
d="M511 -133l22 133h-269q-57 0 -110.5 2t-79.5 4l-25 3l109 688q35 6 70 6l69 -6l-96 -607h240l96 607q35 6 70 6l69 -6l-96 -607l77 -4l-35 -219q-29 -6 -56 -6z" />
    <glyph glyph-name="afii10041" unicode="&#x427;" horiz-adv-x="591" 
d="M418 3l47 301q-8 -5 -23 -12t-61.5 -18.5t-92.5 -11.5q-100 0 -137.5 44.5t-23.5 133.5l41 254q35 6 70 6l69 -6l-41 -254q-8 -48 10 -68t73 -20q38 0 70.5 9t44 15.5t15.5 10.5l48 307q35 6 71 6l68 -6l-109 -691q-35 -6 -71 -6z" />
    <glyph glyph-name="afii10042" unicode="&#x428;" horiz-adv-x="889" 
d="M882 703l69 -6l-109 -688q-88 -9 -216 -9h-362q-57 0 -110.5 2t-79.5 4l-25 3l109 688q36 6 71 6l68 -6l-95 -607h187l96 607q35 6 71 6l68 -6l-96 -607h188l96 607q35 6 70 6z" />
    <glyph glyph-name="afii10043" unicode="&#x429;" horiz-adv-x="945" 
d="M787 -133l21 133h-544q-57 0 -110.5 3t-78.5 5l-25 3l108 686q36 6 71 6l68 -6l-95 -607h187l96 607q35 6 71 6l68 -6l-96 -607h188l96 607q35 6 70 6l69 -6l-96 -607l77 -4l-34 -219q-30 -6 -57 -6z" />
    <glyph glyph-name="afii10044" unicode="&#x42a;" horiz-adv-x="721" 
d="M199 8l95 602h-166q-3 18 1 45l13 45h92q57 0 110.5 -2t78.5 -4l24 -3l-43 -269q42 4 101 4q132 0 183 -47.5t36 -142.5l-8 -51q-15 -95 -81 -142t-198 -47q-63 0 -122.5 3t-87.5 6zM390 337l-40 -253h101q61 0 89 23t37 78l8 51q9 55 -12 78t-82 23h-101z" />
    <glyph glyph-name="afii10045" unicode="&#x42b;" horiz-adv-x="792" 
d="M49 8l109 689q36 6 71 6l68 -6l-43 -275q42 4 101 4q132 0 183 -47.5t36 -142.5l-8 -51q-15 -95 -81 -142t-198 -47q-63 0 -122.5 3t-87.5 6zM240 337l-40 -253h101q61 0 89 23t37 78l8 51q9 55 -12 78t-82 23h-101zM853 697l-110 -694q-35 -6 -70 -6l-69 6l110 694
q36 6 71 6z" />
    <glyph glyph-name="afii10046" unicode="&#x42c;" horiz-adv-x="574" 
d="M49 8l109 689q36 6 71 6l68 -6l-43 -275q42 4 101 4q132 0 183 -47.5t36 -142.5l-8 -51q-15 -95 -81 -142t-198 -47q-63 0 -122.5 3t-87.5 6zM240 337l-40 -253h101q61 0 89 23t37 78l8 51q9 55 -12 78t-82 23h-101z" />
    <glyph glyph-name="afii10047" unicode="&#x42d;" horiz-adv-x="568" 
d="M609 518l-53 -336q-15 -94 -84.5 -141.5t-211.5 -47.5q-55 0 -104 10.5t-70 20.5l-21 10q-5 18 0 47q1 8 3 15.5t4 12.5t4 9l3 6l1 2q-1 -1 21.5 -11t70.5 -21t101 -11q72 0 104 22.5t40 76.5l20 126h-206q-2 18 2 45q2 12 5 23.5t5 16.5l3 5h205l19 120q8 54 -12 76
t-83 22t-91.5 -22.5t-36.5 -75.5l-2 -12q-31 -7 -63 -7q-14 0 -29 1.5t-24 3.5l-8 2l2 12q15 96 74 142t192 46t184 -47t36 -141z" />
    <glyph glyph-name="afii10048" unicode="&#x42e;" horiz-adv-x="828" 
d="M325 182l20 129h-109l-49 -308q-35 -6 -70 -6l-69 6l110 694q36 6 71 6l68 -6l-47 -296h109l19 117q15 94 79.5 141t192.5 47t177 -47t34 -141l-53 -336q-15 -94 -79.5 -141.5t-192.5 -47.5q-127 0 -176.5 47.5t-34.5 141.5zM517 518l-53 -336q-8 -53 11 -76t76 -23
q56 0 83 23t35 76l53 336q8 53 -11 75.5t-75 22.5q-57 0 -84 -22.5t-35 -75.5z" />
    <glyph glyph-name="afii10049" unicode="&#x42f;" horiz-adv-x="581" 
d="M642 692l-110 -689q-35 -6 -70 -6l-69 6l45 285q-38 -4 -93 -4l-180 -281q-39 -6 -73 -6l-69 6l197 292q-132 34 -109 179l7 41q15 95 81 142t197 47q65 0 126.5 -3t90.5 -6zM452 373l38 243h-108q-61 0 -89 -23t-36 -78l-7 -41q-8 -56 12.5 -78.5t81.5 -22.5h108z" />
    <glyph glyph-name="afii10065" unicode="&#x430;" 
d="M348 3l5 32q-7 -5 -19 -12t-50.5 -18.5t-76.5 -11.5q-80 0 -108.5 43t-15.5 128l28 171q13 85 61.5 128t142.5 43q39 0 66 -8.5t34 -17.5l7 -8l4 25q33 6 67 6l65 -6l-78 -494q-34 -6 -67 -6zM243 335l-28 -171q-7 -48 4.5 -68t49.5 -20q29 0 53 9t33 17l10 9l36 224
q7 48 -8.5 68t-62.5 20q-41 0 -60 -20t-27 -68z" />
    <glyph glyph-name="afii10066" unicode="&#x431;" horiz-adv-x="517" 
d="M263 465q61 41 149 41q81 0 110 -43t16 -128l-27 -171q-13 -85 -70.5 -128t-170.5 -43t-156.5 43t-30.5 128l57 357q13 86 73.5 128.5t184.5 42.5q42 0 82 5t59 11l20 5q3 -16 -1 -41q-2 -11 -5 -21t-5 -15l-2 -6l-19 -5q-20 -5 -59.5 -10.5t-79.5 -5.5q-58 0 -83 -20
t-33 -68zM251 388l-36 -224q-7 -47 8 -67.5t60 -20.5q46 0 67 20.5t29 67.5l27 171q8 48 -4 68t-51 20q-30 0 -55 -8.5t-35 -17.5z" />
    <glyph glyph-name="afii10067" unicode="&#x432;" horiz-adv-x="504" 
d="M49 7l77 486q83 12 202 12q109 0 152 -35.5t32 -104.5l-2 -12q-11 -69 -83 -96q80 -26 68 -105l-2 -12q-12 -72 -69.5 -108.5t-175.5 -36.5q-52 0 -101.5 3t-73.5 6zM282 213h-68l-22 -135h68q50 0 73 15t28 47l2 12q5 32 -13 46.5t-68 14.5zM227 296h68q41 0 59.5 13.5
t23.5 43.5l2 12q5 30 -9.5 43.5t-55.5 13.5h-68z" />
    <glyph glyph-name="afii10068" unicode="&#x433;" horiz-adv-x="400" 
d="M246 417l-66 -414q-34 -6 -67 -6l-65 6l78 488q86 9 214 9h109q2 -17 -1 -42q-2 -11 -5 -21t-5 -15l-3 -5h-189z" />
    <glyph glyph-name="afii10069" unicode="&#x434;" horiz-adv-x="608" 
d="M11 -113l30 189q43 4 64.5 27.5t37.5 75.5l93 312q73 12 179 12q48 0 92 -3t65 -6l20 -3l-65 -408l66 -4l-30 -192q-29 -6 -56 -6l-55 6l19 113h-331l-18 -113q-30 -6 -57 -6zM333 417l-69 -239q-20 -66 -47 -95h178l53 334h-115z" />
    <glyph glyph-name="afii10070" unicode="&#x435;" horiz-adv-x="509" 
d="M83 164l28 171q13 85 69.5 128t170.5 43q115 0 154 -42t25 -129l-19 -117q-51 -12 -145 -12h-144l-7 -42q-7 -48 13 -68t79 -20q43 0 85 7.5t62 15t20 8.5l1 -2q0 -2 0.5 -6t1 -8.5t0 -11.5t-1.5 -14q-2 -11 -5.5 -21.5t-6.5 -15.5l-3 -4q-67 -31 -166 -31
q-126 0 -175 43t-36 128zM235 289h162l8 46q8 48 -6.5 68t-60.5 20t-66.5 -20t-28.5 -68z" />
    <glyph glyph-name="afii10072" unicode="&#x436;" horiz-adv-x="726" 
d="M16 3l173 258l-81 236q31 6 65 6l69 -6l65 -193l36 -14l32 207q34 6 67 6l65 -6l-32 -207l40 14l125 193q37 6 71 6l63 -6l-156 -236l92 -258q-33 -6 -67 -6l-69 6l-73 212l-41 -13l-31 -199q-34 -6 -67 -6l-65 6l31 199l-36 13l-140 -212q-38 -6 -71 -6z" />
    <glyph glyph-name="afii10073" unicode="&#x437;" horiz-adv-x="494" 
d="M109 357l2 10q11 71 57.5 105t152.5 34q107 0 149 -35t31 -104l-2 -13q-12 -73 -84 -101q79 -24 66 -101l-2 -14q-12 -72 -73 -108.5t-186 -36.5q-42 0 -79 7.5t-53 15.5l-17 8q-1 2 -1.5 5t-1 14t1.5 22q1 7 3 14t4 11.5t4 8.5l3 6l1 2q0 -1 17 -8t53.5 -15t76.5 -8
q59 0 84.5 15t30.5 47l2 14q5 31 -13 46t-67 15h-65q-3 15 0 39l13 40h65q41 0 60.5 15t24.5 47l2 13q4 30 -10 43t-53 13q-40 0 -58 -13t-23 -43l-2 -10q-29 -6 -58 -6z" />
    <glyph glyph-name="afii10074" unicode="&#x438;" horiz-adv-x="533" 
d="M562 497l-78 -494q-34 -6 -67 -6l-65 6l47 296l-233 -296q-30 -6 -60 -6l-58 6l78 494q34 6 67 6l65 -6l-47 -297l233 297q30 6 60 6z" />
    <glyph glyph-name="afii10075" unicode="&#x439;" horiz-adv-x="533" 
d="M356 569q-84 0 -112 29t-18 89l2 9q22 6 44 6l42 -6l-2 -11q-5 -31 6.5 -44t46.5 -13t50.5 13t20.5 44l2 11q23 6 44 6l43 -6l-2 -9q-10 -61 -46.5 -89.5t-120.5 -28.5zM562 497l-78 -494q-34 -6 -67 -6l-65 6l47 296l-233 -296q-30 -6 -60 -6l-58 6l78 494q34 6 67 6
l65 -6l-47 -297l233 297q30 6 60 6z" />
    <glyph glyph-name="afii10076" unicode="&#x43a;" horiz-adv-x="508" 
d="M355 3l-99 214l-43 -11l-33 -203q-34 -6 -67 -6l-65 6l78 494q34 6 67 6l65 -6l-31 -202l43 10l152 192q36 6 70 6l64 -6l-182 -235l118 -259q-34 -6 -68 -6z" />
    <glyph glyph-name="afii10077" unicode="&#x43b;" horiz-adv-x="541" 
d="M128 175l87 316q74 12 180 12q48 0 92.5 -3t65.5 -6l20 -3l-77 -488q-34 -6 -67 -6l-65 6l65 414h-116l-64 -242q-25 -94 -73 -138t-148 -44q-3 17 1 42q2 11 5 21.5t5 15.5l3 4q35 0 52 21.5t34 77.5z" />
    <glyph glyph-name="afii10078" unicode="&#x43c;" horiz-adv-x="672" 
d="M701 497l-78 -494q-30 -6 -60 -6l-58 6l54 339l-156 -280q-27 -6 -59 -6l-59 6l-65 280l-54 -339q-30 -6 -60 -6l-58 6l78 494q42 6 86 6l85 -6l68 -307l166 307q41 6 86 6z" />
    <glyph glyph-name="afii10079" unicode="&#x43d;" horiz-adv-x="526" 
d="M555 497l-78 -494q-34 -6 -67 -6l-65 6l34 212h-165l-34 -212q-34 -6 -67 -6l-65 6l78 494q34 6 67 6l65 -6l-31 -199h165l31 199q34 6 67 6z" />
    <glyph glyph-name="afii10080" unicode="&#x43e;" horiz-adv-x="519" 
d="M83 164l28 171q13 85 70 128t171 43t157.5 -43t30.5 -128l-28 -171q-13 -85 -70.5 -128t-170.5 -43t-157 43t-31 128zM243 335l-7 -43q-7 -42 -14 -85l-7 -43q-7 -47 8 -67.5t61 -20.5t67.5 20.5t28.5 67.5l28 171q8 48 -7.5 68t-61.5 20t-67 -20t-29 -68z" />
    <glyph glyph-name="afii10081" unicode="&#x43f;" horiz-adv-x="527" 
d="M113 -3l-65 6l78 488q88 12 216 12q57 0 110.5 -3t78.5 -6l25 -3l-77 -488q-34 -6 -67 -6l-65 6l65 414h-166l-66 -414q-34 -6 -67 -6z" />
    <glyph glyph-name="afii10082" unicode="&#x440;" horiz-adv-x="516" 
d="M258 497l-5 -32q61 41 147 41q80 0 109 -43t15 -128l-27 -171q-13 -85 -62.5 -128t-145.5 -43q-34 0 -60 8t-35 16l-10 8l-36 -222q-33 -6 -66 -6l-66 6l110 694q34 6 67 6zM365 164l27 171q8 48 -3.5 68t-49.5 20q-29 0 -53.5 -8.5t-33.5 -17.5l-10 -9l-36 -224
q-8 -47 8 -67.5t63 -20.5q42 0 61 20t27 68z" />
    <glyph glyph-name="afii10083" unicode="&#x441;" horiz-adv-x="491" 
d="M83 164l28 171q13 85 69 128t168 43q111 0 147.5 -42t22.5 -129l-2 -12q-30 -6 -60 -6l-58 6l2 12q8 48 -6 68t-59 20q-44 0 -64 -20t-28 -68l-28 -171q-7 -48 12.5 -68t77.5 -20q41 0 80 7.5t58 15t19 8.5l1 -2q0 -2 0.5 -6t1 -8.5t0 -11.5t-1.5 -14q-2 -11 -5.5 -21.5
t-6.5 -15.5l-3 -4q-63 -31 -157 -31q-125 0 -173 43t-35 128z" />
    <glyph glyph-name="afii10084" unicode="&#x442;" horiz-adv-x="476" 
d="M513 417h-141l-65 -414q-34 -6 -67 -6l-65 6l65 414h-142q-3 16 1 41q2 11 5 21.5t5 15.5l3 5h414q3 -17 -1 -42z" />
    <glyph glyph-name="afii10085" unicode="&#x443;" horiz-adv-x="516" 
d="M196 -56l26 55l-41 4l-85 494q34 6 64 6l65 -6l53 -383l173 383q36 6 67 6l63 -6l-268 -549q-39 -82 -87.5 -118.5t-126.5 -36.5q-17 0 -32 3t-22 6l-7 3q-1 2 -1.5 5t-1 13.5t1.5 20.5t5 20t6 14l2 5q21 -7 60 -7q55 0 86 68z" />
    <glyph glyph-name="afii10086" unicode="&#x444;" horiz-adv-x="717" 
d="M547 697l-30 -191q131 0 182.5 -43t38.5 -128l-28 -171q-13 -85 -78 -128t-196 -43l-31 -190q-33 -6 -66 -6l-66 6l31 190q-131 0 -182.5 43t-38.5 128l28 171q13 85 78 128t196 43l30 191q34 6 67 6zM504 423l-55 -347q64 0 93 20.5t36 67.5l28 171q8 48 -15 68t-87 20z
M317 76l55 347q-64 0 -92.5 -20t-36.5 -68l-28 -171q-7 -47 15.5 -67.5t86.5 -20.5z" />
    <glyph glyph-name="afii10087" unicode="&#x445;" horiz-adv-x="512" 
d="M360 3l-75 179l-133 -179q-39 -6 -70 -6l-66 6l198 253l-113 241q38 6 69 6l68 -6l70 -167l121 167q39 6 71 6l66 -6l-187 -241l118 -253q-39 -6 -70 -6z" />
    <glyph glyph-name="afii10088" unicode="&#x446;" horiz-adv-x="573" 
d="M417 -113l19 113h-172q-57 0 -110.5 2t-79.5 4l-25 3l77 488q34 6 67 6l65 -6l-65 -414h166l66 414q34 6 67 6l65 -6l-66 -414l67 -4l-30 -192q-29 -6 -56 -6z" />
    <glyph glyph-name="afii10089" unicode="&#x447;" horiz-adv-x="505" 
d="M342 3l33 211q-7 -5 -19 -12t-49.5 -18.5t-75.5 -11.5q-79 0 -107.5 40.5t-15.5 120.5l25 164q34 6 67 6l65 -6l-25 -164q-8 -41 4 -59.5t49 -18.5q28 0 51.5 9t32.5 18l10 9l32 206q34 6 67 6l65 -6l-78 -494q-33 -6 -66 -6z" />
    <glyph glyph-name="afii10090" unicode="&#x448;" horiz-adv-x="761" 
d="M726 503l65 -6l-77 -488q-88 -9 -216 -9h-234q-57 0 -110.5 2t-79.5 4l-25 3l77 488q34 6 67 6l65 -6l-65 -414h134l66 414q33 6 67 6l65 -6l-66 -414h135l65 414q34 6 67 6z" />
    <glyph glyph-name="afii10091" unicode="&#x449;" horiz-adv-x="807" 
d="M652 -113l18 113h-406q-57 0 -110.5 2t-79.5 4l-25 3l77 488q34 6 67 6l65 -6l-65 -414h134l66 414q33 6 67 6l65 -6l-66 -414h135l65 414q34 6 67 6l65 -6l-65 -414l67 -4l-30 -192q-30 -6 -57 -6z" />
    <glyph glyph-name="afii10092" unicode="&#x44a;" horiz-adv-x="610" 
d="M375 490l-28 -175q32 4 77 4q105 0 145 -38t28 -114l-3 -21q-12 -75 -66 -113t-162 -38q-54 0 -104 3t-73 6l-23 3l65 410h-136q-3 17 1 41q2 11 5 21.5t6 15.5l2 5h70q53 0 102 -2.5t72 -5.5zM404 236h-70l-25 -158h70q40 0 58.5 15.5t24.5 52.5l3 21q6 37 -7.5 53
t-53.5 16z" />
    <glyph glyph-name="afii10093" unicode="&#x44b;" horiz-adv-x="698" 
d="M258 497l-28 -182q32 4 77 4q104 0 144.5 -38.5t28.5 -113.5l-4 -21q-12 -75 -65.5 -113t-161.5 -38q-54 0 -104 3t-73 6l-23 3l77 490q34 6 67 6zM287 236h-70l-25 -158h70q40 0 58.5 15.5t23.5 52.5l4 21q6 37 -7.5 53t-53.5 16zM728 497l-78 -494q-34 -6 -67 -6l-65 6
l78 494q34 6 67 6z" />
    <glyph glyph-name="afii10094" unicode="&#x44c;" horiz-adv-x="496" 
d="M258 497l-28 -182q32 4 77 4q104 0 144.5 -38.5t28.5 -113.5l-4 -21q-12 -75 -65.5 -113t-161.5 -38q-54 0 -104 3t-73 6l-23 3l77 490q34 6 67 6zM287 236h-70l-25 -158h70q40 0 58.5 15.5t23.5 52.5l4 21q6 37 -7.5 53t-53.5 16z" />
    <glyph glyph-name="afii10095" unicode="&#x44d;" horiz-adv-x="492" 
d="M348 206h-168q-3 16 0 41l13 42h168l7 46q8 48 -6 68t-59 20t-65 -16t-26 -54l-1 -7q-30 -7 -59 -7q-12 0 -26 1.5t-22 3.5l-8 2l2 7q12 78 60.5 115.5t157.5 37.5q112 0 155 -43t29 -128l-27 -171q-13 -85 -75 -128t-186 -43q-41 0 -77.5 7.5t-52.5 15.5l-16 8
q-1 2 -1.5 5t-1 14t1.5 22q1 7 3 14t4 11.5t4 8.5l3 6l1 2q0 -1 16.5 -8t52.5 -15t76 -8q57 0 82.5 20t33.5 68z" />
    <glyph glyph-name="afii10096" unicode="&#x44e;" horiz-adv-x="713" 
d="M287 164l8 51h-81l-34 -212q-34 -6 -67 -6l-65 6l78 494q34 6 67 6l65 -6l-31 -199h82l6 37q13 85 67.5 128t161.5 43t147.5 -43t27.5 -128l-27 -171q-13 -85 -68 -128t-162 -43t-147.5 43t-27.5 128zM447 335l-28 -171q-7 -47 6 -67.5t51 -20.5t57 20.5t27 67.5l27 171
q8 48 -4.5 68t-51.5 20t-57.5 -20t-26.5 -68z" />
    <glyph glyph-name="afii10097" unicode="&#x44f;" horiz-adv-x="502" 
d="M322 5l28 179h-68l-122 -181q-38 -6 -71 -6l-65 6l150 192q-97 28 -80 139l3 19q12 75 66 112.5t162 37.5q54 0 105.5 -3t75.5 -6l25 -3l-77 -486q-34 -7 -67 -7q-15 0 -31 2t-25 4zM288 267h76l24 153h-76q-40 0 -58.5 -15.5t-24.5 -51.5l-3 -19q-5 -36 8.5 -51.5
t53.5 -15.5z" />
    <glyph glyph-name="uni0450" unicode="&#x450;" horiz-adv-x="509" 
d="M83 164l28 171q13 85 69.5 128t170.5 43q115 0 154 -42t25 -129l-19 -117q-51 -12 -145 -12h-144l-7 -42q-7 -48 13 -68t79 -20q43 0 85 7.5t62 15t20 8.5l1 -2q0 -2 0.5 -6t1 -8.5t0 -11.5t-1.5 -14q-2 -11 -5.5 -21.5t-6.5 -15.5l-3 -4q-67 -31 -166 -31
q-126 0 -175 43t-36 128zM235 289h162l8 46q8 48 -6.5 68t-60.5 20t-66.5 -20t-28.5 -68zM361 562l-119 135q33 6 63 6l59 -6l74 -135q-19 -6 -39 -6z" />
    <glyph glyph-name="afii10071" unicode="&#x451;" horiz-adv-x="509" 
d="M83 164l28 171q13 85 69.5 128t170.5 43q115 0 154 -42t25 -129l-19 -117q-51 -12 -145 -12h-144l-7 -42q-7 -48 13 -68t79 -20q43 0 85 7.5t62 15t20 8.5l1 -2q0 -2 0.5 -6t1 -8.5t0 -11.5t-1.5 -14q-2 -11 -5.5 -21.5t-6.5 -15.5l-3 -4q-67 -31 -166 -31
q-126 0 -175 43t-36 128zM235 289h162l8 46q8 48 -6.5 68t-60.5 20t-66.5 -20t-28.5 -68zM321 675l-17 -106q-24 -6 -53 -6q-13 0 -25.5 1.5t-18.5 3.5l-7 1l17 106q24 7 53 7q13 0 25.5 -2t19.5 -4zM531 675l-17 -106q-24 -6 -53 -6q-13 0 -25.5 1.5t-18.5 3.5l-7 1l17 106
q24 7 53 7q13 0 25.5 -2t19.5 -4z" />
    <glyph glyph-name="afii10099" unicode="&#x452;" horiz-adv-x="550" 
d="M365 -52l61 387q8 48 -4 68t-50 20q-29 0 -53.5 -8.5t-34.5 -17.5l-10 -9l-61 -385q-34 -6 -67 -6l-65 6l88 560h-46q-3 14 1 38q1 10 4 19.5t6 13.5l2 5h53l23 58q28 6 56 6l55 -6l-9 -58h154q3 -15 0 -38l-12 -38h-155l-15 -98q60 41 147 41q81 0 110 -43t15 -128
l-61 -387q-12 -77 -51.5 -116t-115.5 -39q-18 0 -36 2t-29 5t-20.5 5.5t-10.5 2.5q-2 18 1 38l11 38q20 -8 49 -8q33 0 48.5 16.5t21.5 55.5z" />
    <glyph glyph-name="afii10100" unicode="&#x453;" horiz-adv-x="400" 
d="M246 417l-66 -414q-34 -6 -67 -6l-65 6l78 488q86 9 214 9h109q2 -17 -1 -42q-2 -11 -5 -21t-5 -15l-3 -5h-189zM451 697l-161 -135q-21 -6 -40 -6l-38 6l118 135q30 6 61 6z" />
    <glyph glyph-name="afii10101" unicode="&#x454;" horiz-adv-x="496" 
d="M407 206h-185l-7 -42q-7 -48 12.5 -68t78.5 -20q41 0 80 7.5t58.5 15t19.5 8.5l1 -2q0 -2 0.5 -6t1 -8.5t0 -11.5t-1.5 -14q-2 -11 -5.5 -21.5t-6.5 -15.5l-3 -4q-64 -31 -158 -31q-126 0 -174 43t-35 128l28 171q13 86 69 128.5t169 42.5q111 0 148.5 -37.5t25.5 -115.5
l-2 -7q-30 -7 -60 -7q-13 0 -27.5 1.5t-22.5 3.5l-8 2l2 7q5 38 -9.5 54t-59.5 16q-44 0 -64.5 -20t-28.5 -68l-8 -46h184q4 -16 0 -41z" />
    <glyph glyph-name="afii10102" unicode="&#x455;" horiz-adv-x="506" 
d="M248 363l-4 -20q-3 -19 14 -28.5t52 -16.5q29 -6 42.5 -9t42.5 -11t44.5 -17.5t33 -24t23.5 -34.5t2 -45l-3 -20q-12 -72 -66.5 -108t-166.5 -36q-117 0 -156.5 38.5t-26.5 118.5l1 7q34 7 66 7q14 0 29.5 -2t23.5 -4l9 -1l-1 -7q-6 -40 8.5 -57t59.5 -17q44 0 63.5 14
t24.5 47l3 20q3 21 -15 31t-56 17q-28 6 -41.5 9t-41.5 11t-43 17.5t-31.5 23.5t-22.5 33.5t-2 43.5l4 20q12 72 65 107.5t163 35.5q114 0 152 -38.5t24 -118.5l-1 -7q-33 -6 -64 -6l-63 6l1 7q5 40 -8 57t-54 17t-60 -14.5t-24 -45.5z" />
    <glyph glyph-name="afii10103" unicode="&#x456;" horiz-adv-x="229" 
d="M290 697l-18 -117q-34 -6 -67 -6l-65 6l18 117q34 6 67 6zM258 497l-78 -494q-34 -6 -67 -6l-65 6l78 494q34 6 67 6z" />
    <glyph glyph-name="afii10104" unicode="&#x457;" horiz-adv-x="229" 
d="M258 497l-78 -494q-34 -6 -67 -6l-65 6l78 494q34 6 67 6zM192 697l-16 -106q-25 -7 -53 -7q-13 0 -25.5 2t-19.5 4l-6 1l16 106q24 6 53 6q13 0 26 -1.5t19 -3.5zM360 697l-16 -106q-25 -7 -53 -7q-13 0 -25.5 2t-19.5 4l-6 1l16 106q24 6 53 6q13 0 26 -1.5t19 -3.5z
" />
    <glyph glyph-name="afii10105" unicode="&#x458;" horiz-adv-x="240" 
d="M53 -52l87 549q34 6 67 6l65 -6l-87 -549q-12 -77 -51.5 -116t-114.5 -39q-14 0 -28.5 1.5t-25.5 3.5t-19.5 4t-14.5 4t-7 2q-2 18 1 38l11 38q20 -8 49 -8q32 0 47.5 17t20.5 55zM304 697l-18 -117q-35 -6 -68 -6l-64 6l18 117q34 6 67 6z" />
    <glyph glyph-name="afii10106" unicode="&#x459;" horiz-adv-x="808" 
d="M128 175l87 316q74 12 180 12q48 0 92.5 -3t65.5 -6l20 -3l-28 -176q32 4 77 4q105 0 145 -38t28 -114l-3 -21q-12 -75 -65.5 -113t-162.5 -38q-54 0 -104 3t-73 6l-23 3l65 410h-116l-64 -242q-25 -94 -73 -138t-148 -44q-3 17 1 42q2 11 5 21.5t5 15.5l3 4
q35 0 52 21.5t34 77.5zM602 236h-70l-25 -158h70q40 0 58.5 15.5t24.5 52.5l3 21q6 37 -7.5 53t-53.5 16z" />
    <glyph glyph-name="afii10107" unicode="&#x45a;" horiz-adv-x="793" 
d="M555 497l-28 -182q31 4 77 4q104 0 144 -38.5t28 -113.5l-3 -21q-12 -75 -65.5 -113t-161.5 -38q-54 0 -104 3t-73 6l-23 3l33 208h-165l-34 -212q-34 -6 -67 -6l-65 6l78 494q34 6 67 6l65 -6l-31 -199h165l31 199q34 6 67 6zM584 236h-70l-25 -158h70q40 0 58.5 15.5
t23.5 52.5l3 21q7 37 -6.5 53t-53.5 16z" />
    <glyph glyph-name="afii10108" unicode="&#x45b;" horiz-adv-x="550" 
d="M456 563h-155l-15 -98q60 41 147 41q81 0 110 -43t15 -128l-53 -332q-33 -6 -67 -6l-65 6l53 332q8 48 -4 68t-50 20q-29 0 -53.5 -8.5t-34.5 -17.5l-10 -9l-61 -385q-34 -6 -67 -6l-65 6l88 560h-46q-3 14 1 38q1 10 4 19.5t6 13.5l2 5h53l23 58q28 6 56 6l55 -6l-9 -58
h154q3 -15 0 -38z" />
    <glyph glyph-name="afii10109" unicode="&#x45c;" horiz-adv-x="508" 
d="M499 697l-162 -135q-21 -6 -40 -6l-38 6l118 135q30 6 61 6zM355 3l-99 214l-43 -11l-33 -203q-34 -6 -67 -6l-65 6l78 494q34 6 67 6l65 -6l-31 -202l43 10l152 192q36 6 70 6l64 -6l-182 -235l118 -259q-34 -6 -68 -6z" />
    <glyph glyph-name="uni045D" unicode="&#x45d;" horiz-adv-x="523" 
d="M355 562l-119 135q33 6 63 6l59 -6l74 -135q-19 -6 -39 -6zM562 497l-78 -494q-34 -6 -67 -6l-65 6l47 296l-233 -296q-30 -6 -60 -6l-58 6l78 494q34 6 67 6l65 -6l-47 -297l233 297q30 6 60 6z" />
    <glyph glyph-name="afii10110" unicode="&#x45e;" horiz-adv-x="516" 
d="M196 -56l26 55l-41 4l-85 494q34 6 64 6l65 -6l53 -383l173 383q36 6 67 6l63 -6l-268 -549q-39 -82 -87.5 -118.5t-126.5 -36.5q-17 0 -32 3t-22 6l-7 3q-1 2 -1.5 5t-1 13.5t1.5 20.5t5 20t6 14l2 5q21 -7 60 -7q55 0 86 68zM350 569q-84 0 -112 29t-18 89l2 9
q22 6 43 6l43 -6l-2 -11q-5 -31 6.5 -44t46.5 -13t50.5 13t20.5 44l2 11q23 6 44 6l43 -6l-2 -9q-10 -61 -46.5 -89.5t-120.5 -28.5z" />
    <glyph glyph-name="afii10193" unicode="&#x45f;" horiz-adv-x="527" 
d="M190 -113l17 112q-43 1 -82.5 3.5t-57.5 4.5l-18 2l77 488q34 6 67 6l65 -6l-65 -414h166l66 414q34 6 67 6l65 -6l-78 -488q-63 -8 -161 -10l-17 -112q-29 -6 -57 -6z" />
    <glyph glyph-name="afii10050" unicode="&#x490;" horiz-adv-x="457" 
d="M283 610l-96 -607q-35 -6 -70 -6l-69 6l110 688q85 9 213 9h55l19 120q28 6 56 6l55 -6l-34 -210h-239z" />
    <glyph glyph-name="afii10098" unicode="&#x491;" horiz-adv-x="397" 
d="M431 417h-185l-66 -414q-34 -6 -67 -6l-65 6l78 488q74 9 183 9h24l17 113q29 6 57 6l54 -6z" />
    <glyph glyph-name="uni04D8" unicode="&#x4d8;" horiz-adv-x="581" 
d="M284 389h189l21 129q8 54 -12.5 76t-83.5 22t-91 -22.5t-36 -75.5l-2 -12q-32 -7 -64 -7q-13 0 -28 1.5t-24 3.5l-8 2l2 12q15 96 74 142t192 46t184 -47t36 -141l-53 -336q-16 -94 -81.5 -141.5t-199.5 -47.5q-135 0 -180 46.5t-30 142.5l31 195q58 12 164 12zM240 306
l-19 -124q-8 -54 11.5 -76.5t80.5 -22.5q63 0 91.5 22.5t36.5 76.5l19 124h-220z" />
    <glyph glyph-name="afii10846" unicode="&#x4d9;" horiz-adv-x="509" 
d="M531 335l-28 -171q-13 -85 -70 -128t-170 -43q-115 0 -154 42t-25 129l19 120q52 12 146 12h144l6 39q8 48 -12 68t-80 20q-43 0 -84.5 -7.5t-61 -14t-21.5 -8.5l-1 5q-1 6 -1.5 15t1.5 22q2 11 5.5 21.5t6.5 15.5l3 4q67 30 166 30q127 0 175.5 -42.5t35.5 -128.5z
M379 213h-162l-8 -49q-7 -48 7.5 -68t60.5 -20t66.5 20t27.5 68z" />
    <glyph glyph-name="Wgrave" unicode="&#x1e80;" horiz-adv-x="953" 
d="M590 3l-25 556l-201 -556q-47 -6 -96 -6l-94 6l-49 694q36 6 68 6l69 -6l31 -568l209 568q38 6 86 6l84 -6l28 -568l212 568q37 6 70 6l66 -6l-269 -694q-46 -6 -95 -6zM600 753l-119 135q33 6 62 6l59 -6l75 -135q-19 -6 -39 -6z" />
    <glyph glyph-name="wgrave" unicode="&#x1e81;" horiz-adv-x="800" 
d="M484 3l-26 363l-141 -363q-43 -6 -89 -6l-87 6l-48 494q34 6 64 6l66 -6l27 -386l150 386q35 6 79 6l77 -6l28 -386l150 386q35 6 67 6l62 -6l-204 -494q-42 -6 -88 -6zM493 562l-119 135q33 6 63 6l59 -6l74 -135q-19 -6 -39 -6z" />
    <glyph glyph-name="Wacute" unicode="&#x1e82;" horiz-adv-x="953" 
d="M590 3l-25 556l-201 -556q-47 -6 -96 -6l-94 6l-49 694q36 6 68 6l69 -6l31 -568l209 568q38 6 86 6l84 -6l28 -568l212 568q37 6 70 6l66 -6l-269 -694q-46 -6 -95 -6zM751 888l-161 -135q-21 -6 -40 -6l-38 6l118 135q30 6 61 6z" />
    <glyph glyph-name="wacute" unicode="&#x1e83;" horiz-adv-x="800" 
d="M484 3l-26 363l-141 -363q-43 -6 -89 -6l-87 6l-48 494q34 6 64 6l66 -6l27 -386l150 386q35 6 79 6l77 -6l28 -386l150 386q35 6 67 6l62 -6l-204 -494q-42 -6 -88 -6zM645 697l-162 -135q-21 -6 -40 -6l-38 6l118 135q30 6 61 6z" />
    <glyph glyph-name="Wdieresis" unicode="&#x1e84;" horiz-adv-x="953" 
d="M590 3l-25 556l-201 -556q-47 -6 -96 -6l-94 6l-49 694q36 6 68 6l69 -6l31 -568l209 568q38 6 86 6l84 -6l28 -568l212 568q37 6 70 6l66 -6l-269 -694q-46 -6 -95 -6zM559 859l-17 -106q-24 -6 -53 -6q-13 0 -25.5 1.5t-19.5 3.5l-6 1l17 106q23 7 52 7q13 0 26 -2
t19 -4zM769 859l-17 -106q-24 -6 -53 -6q-13 0 -25.5 1.5t-19.5 3.5l-6 1l17 106q23 7 52 7q13 0 26 -2t19 -4z" />
    <glyph glyph-name="wdieresis" unicode="&#x1e85;" horiz-adv-x="800" 
d="M484 3l-26 363l-141 -363q-43 -6 -89 -6l-87 6l-48 494q34 6 64 6l66 -6l27 -386l150 386q35 6 79 6l77 -6l28 -386l150 386q35 6 67 6l62 -6l-204 -494q-42 -6 -88 -6zM456 697l-16 -106q-25 -7 -53 -7q-13 0 -25.5 2t-19.5 4l-6 1l16 106q24 6 53 6q13 0 26 -1.5
t19 -3.5zM666 697l-16 -106q-25 -7 -53 -7q-13 0 -25.5 2t-19.5 4l-6 1l16 106q24 6 53 6q13 0 26 -1.5t19 -3.5z" />
    <glyph glyph-name="Ygrave" unicode="&#x1ef2;" horiz-adv-x="610" 
d="M697 697l-281 -431l-41 -263q-36 -6 -71 -6l-68 6l41 262l-144 432q43 6 76 6l74 -6l85 -297l179 297q41 6 76 6zM429 753l-119 135q33 6 62 6l59 -6l76 -135q-20 -6 -40 -6z" />
    <glyph glyph-name="ygrave" unicode="&#x1ef3;" horiz-adv-x="516" 
d="M196 -56l26 55l-41 4l-85 494q34 6 64 6l65 -6l53 -383l173 383q36 6 67 6l63 -6l-268 -549q-39 -82 -87.5 -118.5t-126.5 -36.5q-17 0 -32 3t-22 6l-7 3q-1 2 -1.5 5t-1 13.5t1.5 20.5t5 20t6 14l2 5q21 -7 60 -7q55 0 86 68zM351 562l-118 135q32 6 62 6l59 -6l75 -135
q-20 -6 -40 -6z" />
    <glyph glyph-name="figuredash" unicode="&#x2012;" horiz-adv-x="481" 
d="M493 288h-410q-3 16 1 41q1 11 4 21.5t5 15.5l3 5h411q2 -17 -1 -42q-2 -11 -5 -21t-6 -15z" />
    <glyph glyph-name="endash" unicode="&#x2013;" horiz-adv-x="481" 
d="M486 239h-410q-3 16 1 41q1 11 4 21.5t5 15.5l3 5h411q2 -17 -1 -42q-2 -11 -5 -21t-6 -15z" />
    <glyph glyph-name="emdash" unicode="&#x2014;" horiz-adv-x="631" 
d="M635 238h-560q-3 16 1 41q1 11 4 21.5t5 15.5l3 5h561q2 -17 -1 -42q-2 -11 -5 -21t-6 -15z" />
    <glyph glyph-name="quoteleft" unicode="&#x2018;" horiz-adv-x="201" 
d="M115 463q8 47 22.5 88t30.5 66.5t31 44.5t25 27l9 8q16 6 32 6l30 -6q-6 -8 -15 -25t-29.5 -77.5t-31.5 -131.5q-27 -6 -53 -6z" />
    <glyph glyph-name="quoteright" unicode="&#x2019;" horiz-adv-x="201" 
d="M269 697q-7 -47 -22 -88.5t-31 -67t-31 -44t-25 -26.5l-9 -8q-16 -6 -32 -6l-30 6q6 8 15 25t29.5 77.5t31.5 131.5q27 6 53 6z" />
    <glyph glyph-name="quotesinglbase" unicode="&#x201a;" horiz-adv-x="201" 
d="M178 119q-8 -47 -22.5 -88.5t-30.5 -67t-31 -44t-24 -26.5l-10 -8q-17 -6 -32 -6l-29 6q5 8 14 25t29 77.5t32 131.5q26 6 52 6z" />
    <glyph glyph-name="quotedblleft" unicode="&#x201c;" horiz-adv-x="343" 
d="M115 463q8 47 22.5 88t30.5 66.5t31 44.5t25 27l9 8q16 6 32 6l30 -6q-6 -8 -15 -25t-29.5 -77.5t-31.5 -131.5q-27 -6 -53 -6zM257 463q8 47 22.5 88t30.5 66.5t31 44.5t25 27l9 8q16 6 32 6l30 -6q-6 -8 -15 -25t-29.5 -77.5t-31.5 -131.5q-27 -6 -53 -6z" />
    <glyph glyph-name="quotedblright" unicode="&#x201d;" horiz-adv-x="343" 
d="M269 697q-7 -47 -22 -88.5t-31 -67t-31 -44t-25 -26.5l-9 -8q-16 -6 -32 -6l-30 6q6 8 15 25t29.5 77.5t31.5 131.5q27 6 53 6zM411 697q-7 -47 -22 -88.5t-31 -67t-31 -44t-25 -26.5l-9 -8q-16 -6 -32 -6l-30 6q6 8 15 25t29.5 77.5t31.5 131.5q27 6 53 6z" />
    <glyph glyph-name="quotedblbase" unicode="&#x201e;" horiz-adv-x="343" 
d="M178 119q-8 -47 -22.5 -88.5t-30.5 -67t-31 -44t-24 -26.5l-10 -8q-17 -6 -32 -6l-29 6q5 8 14 25t29 77.5t32 131.5q26 6 52 6zM320 119q-8 -47 -23 -88.5t-31 -67t-31.5 -44t-24.5 -26.5l-10 -8q-17 -6 -32 -6l-28 6q6 8 15 25t29 77.5t32 131.5q26 6 52 6z" />
    <glyph glyph-name="dagger" unicode="&#x2020;" horiz-adv-x="418" 
d="M453 417h-124l-81 -514q-27 -6 -53 -6l-51 6l81 514h-123q-3 16 1 41q1 11 4 21.5t6 15.5l2 5h124l31 197q27 6 53 6l51 -6l-31 -197h124q2 -17 -1 -42q-2 -11 -5 -21t-6 -15z" />
    <glyph glyph-name="daggerdbl" unicode="&#x2021;" horiz-adv-x="418" 
d="M402 100h-124l-31 -197q-27 -6 -53 -6l-51 6l31 197h-124q-2 16 1 41q2 11 5 21.5t6 15.5l2 5h124l36 234h-123q-3 16 1 41q1 11 4 21.5t6 15.5l2 5h124l31 197q27 6 53 6l51 -6l-31 -197h124q2 -17 -1 -42q-2 -11 -5 -21t-6 -15l-2 -5h-124l-36 -234h124q2 -17 -2 -42
q-1 -11 -4 -21t-6 -15z" />
    <glyph glyph-name="bullet" unicode="&#x2022;" horiz-adv-x="290" 
d="M310 402q-1 -47 -10 -102l-23 -102q-54 -8 -107 -8q-24 0 -50 2t-40 4l-15 2q1 47 10 102l23 102q54 7 107 7q24 0 50 -1.5t41 -3.5z" />
    <glyph glyph-name="ellipsis" unicode="&#x2026;" horiz-adv-x="640" 
d="M194 126l-20 -123q-33 -6 -64 -6l-62 6l20 123q31 6 63 6zM403 126l-20 -123q-33 -6 -64 -6l-62 6l20 123q31 6 63 6zM612 126l-20 -123q-33 -6 -64 -6l-62 6l20 123q31 6 63 6z" />
    <glyph glyph-name="perthousand" unicode="&#x2030;" horiz-adv-x="914" 
d="M704 697l-539 -694q-30 -6 -57 -6l-56 6l539 694q28 6 57 6zM121 562l4 29q18 112 151 112q68 0 95.5 -29.5t19.5 -82.5l-4 -29q-19 -113 -151 -113q-68 0 -96 30t-19 83zM335 109l5 29q18 112 150 112q69 0 96.5 -29.5t18.5 -82.5l-5 -29q-17 -112 -150 -112
q-68 0 -95.5 29.5t-19.5 82.5zM632 109l5 29q18 112 150 112q69 0 96.5 -29.5t18.5 -82.5l-5 -29q-17 -112 -150 -112q-68 0 -95.5 29.5t-19.5 82.5zM717 138l-5 -29q-3 -22 7.5 -32t39.5 -10q53 0 59 42l5 29q4 21 -7 31t-39 10q-53 0 -60 -41zM420 138l-5 -29
q-3 -22 7.5 -32t39.5 -10q53 0 59 42l5 29q4 21 -7 31t-39 10q-53 0 -60 -41zM205 591l-4 -29q-4 -22 6.5 -32t39.5 -10q53 0 60 42l4 29q3 21 -7.5 31t-38.5 10q-54 0 -60 -41z" />
    <glyph glyph-name="guilsinglleft" unicode="&#x2039;" horiz-adv-x="309" 
d="M68 271l226 195q14 -8 30 -26q6 -8 11 -16t7 -12l2 -5l-158 -136l115 -137q-10 -16 -31 -34q-9 -8 -18 -14t-14 -8l-5 -3z" />
    <glyph glyph-name="guilsinglright" unicode="&#x203a;" horiz-adv-x="309" 
d="M322 270l-225 -195q-14 7 -30 25q-6 8 -11 16.5t-6 13.5l-2 4l157 136l-115 137q11 16 31 33q8 8 17.5 14.5t14.5 9.5l5 2z" />
    <glyph glyph-name="fraction" unicode="&#x2044;" horiz-adv-x="605" 
d="M691 697l-539 -694q-34 -6 -64 -6l-63 6l539 694q32 6 64 6z" />
    <glyph glyph-name="Euro" unicode="&#x20ac;" horiz-adv-x="606" 
d="M457 233h-194l-9 -51q-8 -54 16 -76.5t96 -22.5q53 0 105 11t77 20.5t25 11.5l1 -2q0 -3 0.5 -6.5t1 -8.5t0 -12.5t-1.5 -15.5q-2 -13 -5.5 -24.5t-6.5 -16.5l-3 -6q-84 -41 -208 -41q-142 0 -196.5 47.5t-39.5 141.5l9 51h-46q-4 16 0 41l12 42h46l9 54h-46q-3 16 1 41
l12 42h46l11 65q14 94 80.5 141t199.5 47t177 -46t29 -142l-2 -12q-32 -7 -64 -7q-14 0 -29.5 1.5t-23.5 3.5l-8 2l2 12q8 54 -12.5 76t-83.5 22t-90.5 -22.5t-35.5 -75.5l-11 -65h195q3 -17 -2 -42q-1 -11 -4 -21.5t-6 -15.5l-2 -4h-194l-9 -54h195q3 -17 -1 -42z" />
    <glyph glyph-name="uni20B4" unicode="&#x20b4;" horiz-adv-x="550" 
d="M538 233h-278q-33 -28 -39 -65q-7 -46 15 -65.5t87 -19.5q47 0 92.5 10t67.5 19t22 11v-2q1 -2 2 -6t1.5 -9t0 -12.5t-1.5 -15.5q-2 -13 -6 -25t-7 -17l-3 -6q-74 -37 -184 -37q-132 0 -183.5 44t-37.5 131q2 16 10.5 32t16.5 24l7 9h-43q-3 16 1 41q1 11 4 21.5t5 15.5
l3 5h461q3 -17 -1 -42zM581 384h-461q-4 16 1 41q1 11 4 21.5t6 15.5l2 5h282q29 30 35 65q7 46 -15 65t-87 19q-47 0 -92.5 -9.5t-68 -18.5t-22.5 -11v3q-1 2 -1.5 6t-0.5 9v12.5t1 15.5q2 12 6 24t7 17l3 6q74 36 184 36q132 0 183.5 -43.5t37.5 -130.5q-2 -16 -10 -32
t-14 -24l-7 -9h40q3 -17 -1 -42z" />
    <glyph glyph-name="afii61352" unicode="&#x2116;" horiz-adv-x="1094" 
d="M48 3l110 694q31 6 60 6l58 -6l202 -440l69 440q34 6 67 6l65 -6l-110 -694q-30 -6 -60 -6l-58 6l-201 440l-70 -440q-33 -6 -67 -6zM705 414l20 121q13 85 67.5 128t163.5 43t150 -43t28 -128l-20 -121q-13 -85 -68 -128t-163 -43t-149.5 43t-28.5 128zM850 535l-5 -30
q-5 -30 -10 -61l-5 -30q-7 -48 7.5 -68t58.5 -20t65 20.5t28 67.5l20 121q7 48 -7.5 68t-58.5 20q-45 0 -65.5 -20t-27.5 -68zM1037 0h-385q-3 17 1 45l13 45h385q3 -18 -1 -45z" />
    <glyph glyph-name="trademark" unicode="&#x2122;" horiz-adv-x="692" 
d="M377 649h-85l-47 -297q-21 -4 -41 -4l-40 4l48 297h-86q-2 9 1 25l7 26h250q2 -10 0 -26zM775 698l-55 -346q-19 -4 -38 -4l-38 4l38 239l-98 -187q-17 -4 -34 -4l-34 4l-39 187l-37 -239q-19 -4 -38 -4l-38 4l55 346q0 3 54 3l52 -3l40 -192l103 192q27 4 54 4z" />
    <glyph glyph-name="arrowleft" unicode="&#x2190;" horiz-adv-x="1068" 
d="M396 -3l-298 354l410 353l54 -63l-284 -245h786l-15 -90h-786l207 -246z" />
    <glyph glyph-name="arrowup" unicode="&#x2191;" horiz-adv-x="794" 
d="M320 -203l124 786l-284 -246l-54 64l410 354l298 -354l-74 -63l-206 245l-124 -786h-90z" />
    <glyph glyph-name="arrowright" unicode="&#x2192;" horiz-adv-x="1068" 
d="M114 306l15 90h786l-206 245l72 63l298 -353l-410 -354l-54 63l286 246h-787z" />
    <glyph glyph-name="arrowdown" unicode="&#x2193;" horiz-adv-x="794" 
d="M364 -208l-298 354l73 64l207 -246l124 786h90l-124 -786l284 245l54 -63z" />
    <glyph glyph-name="uni2196" unicode="&#x2196;" horiz-adv-x="819" 
d="M97 200l79 500h500l-14 -90h-347l468 -555l-73 -64l-468 556l-55 -347h-90z" />
    <glyph glyph-name="uni2197" unicode="&#x2197;" horiz-adv-x="819" 
d="M348 610l14 90h500l-79 -500h-90l55 347l-643 -556l-54 64l644 555h-347z" />
    <glyph glyph-name="uni2198" unicode="&#x2198;" horiz-adv-x="819" 
d="M252 0l14 90h347l-468 555l74 64l467 -556l55 347h90l-79 -500h-500z" />
    <glyph glyph-name="uni2199" unicode="&#x2199;" horiz-adv-x="819" 
d="M66 0l79 500h90l-55 -347l643 556l54 -64l-643 -555h347l-15 -90h-500z" />
    <glyph glyph-name="minus" unicode="&#x2212;" horiz-adv-x="404" 
d="M416 288h-333q-3 16 1 41q1 11 4 21.5t5 15.5l3 5h334q2 -17 -1 -42q-2 -11 -5 -21t-5 -15z" />
    <glyph glyph-name="commaaccent" unicode="&#xf6c3;" horiz-adv-x="201" 
d="M134 -44q-7 -47 -28.5 -85t-39.5 -53l-17 -15q-15 -5 -29 -5l-25 5q41 53 56 153q21 7 43 7q9 0 19 -1.5t15 -3.5z" />
    <glyph glyph-name="dollaroldstyle" unicode="&#xf724;" horiz-adv-x="506" 
d="M246 363l-4 -20q-3 -19 14 -28.5t52 -16.5q29 -6 42.5 -9t42.5 -11t44.5 -17.5t33 -24t23.5 -34.5t2 -45l-3 -20q-10 -64 -53 -99t-128 -42l-15 -93q-27 -6 -53 -6l-51 6l15 93q-85 8 -113.5 45.5t-17.5 108.5l1 7q34 7 66 7q14 0 29.5 -2t23.5 -4l9 -1l-1 -7
q-6 -40 8.5 -57t59.5 -17q44 0 63.5 14t24.5 47l3 20q3 21 -15 31t-56 17q-28 6 -41.5 9t-41.5 11t-43 17.5t-31.5 23.5t-22.5 33.5t-2 43.5l4 20q9 62 50 97t123 43l15 94q26 6 53 6l51 -6l-15 -93q83 -8 110.5 -45.5t16.5 -109.5l-1 -7q-33 -6 -64 -6l-63 6l1 7
q5 40 -8 57t-54 17t-60 -14.5t-24 -45.5z" />
    <glyph glyph-name="zerooldstyle" unicode="&#xf730;" horiz-adv-x="539" 
d="M83 164l28 171q13 85 72.5 128t178.5 43t165 -43t33 -128l-28 -171q-13 -85 -72.5 -128t-178.5 -43t-165 43t-33 128zM243 335l-7 -43q-7 -42 -14 -85l-7 -43q-7 -47 10.5 -67.5t68.5 -20.5q52 0 76 20.5t31 67.5l27 171q8 48 -9.5 68t-69.5 20q-51 0 -74.5 -20
t-31.5 -68z" />
    <glyph glyph-name="oneoldstyle" unicode="&#xf731;" horiz-adv-x="378" 
d="M368 502l-79 -499q-34 -6 -67 -6l-65 6l63 399q-34 0 -65 2t-45 4l-14 2q-3 18 1 43q2 12 5 22.5t5 14.5l2 5q100 7 259 7z" />
    <glyph glyph-name="twooldstyle" unicode="&#xf732;" horiz-adv-x="516" 
d="M396 325l2 14q7 45 -10.5 64.5t-66.5 19.5q-48 0 -71.5 -21t-29.5 -63l-3 -12q-32 -7 -64 -7q-14 0 -30 2t-25 4l-8 1l2 12q13 82 67.5 124.5t174.5 42.5q118 0 163 -41.5t32 -125.5l-2 -14q-7 -43 -43 -74.5t-83 -48.5t-93.5 -30.5t-80.5 -31t-38 -40.5l-2 -17h291
q3 -17 -1 -41l-12 -42h-206q-57 0 -110.5 2t-78.5 4l-24 3l15 91q6 41 41.5 71.5t82.5 48t93.5 32t80 33t37.5 40.5z" />
    <glyph glyph-name="threeoldstyle" unicode="&#xf733;" horiz-adv-x="539" 
d="M118 413q-3 18 1 43q2 11 5 22t6 16l2 6h422q2 -17 -1 -42q-2 -11 -5 -21t-6 -15l-2 -5l-217 -207q118 0 157 -48.5t26 -133.5l-8 -49q-14 -92 -83 -139t-208 -47q-53 0 -99.5 10.5t-67.5 20.5l-20 10q-1 2 -1.5 5.5t-1 15t1.5 22.5q1 7 3 14t4 12t3.5 8.5t2.5 5.5l1 2
q0 -2 21 -11.5t67 -20.5t97 -11q74 0 107 24t41 79l8 49q8 54 -16.5 77.5t-93.5 23.5h-82q-3 17 1 43l12 44l202 197h-279z" />
    <glyph glyph-name="fouroldstyle" unicode="&#xf734;" horiz-adv-x="552" 
d="M516 297l-33 -210h58q2 -18 -1 -43l-13 -44h-53l-32 -197q-33 -6 -65 -6l-64 6l32 197h-301q-4 17 0 42l240 455q25 5 62 5l65 -5l-215 -410h164l32 210q32 6 64 6z" />
    <glyph glyph-name="fiveoldstyle" unicode="&#xf735;" horiz-adv-x="532" 
d="M264 417l-44 -195h62q71 0 118.5 -13t70 -37t30 -59t-0.5 -79l-9 -55q-14 -92 -81.5 -139t-202.5 -47q-53 0 -100 10.5t-67 20.5l-20 10q-1 2 -1.5 5.5t-1.5 15t2 22.5q1 7 3 14t4 12t3.5 8.5t2.5 5.5l1 2q0 -2 20.5 -11.5t67 -20.5t97.5 -11q70 0 101.5 24t39.5 79l9 55
q8 53 -13.5 76.5t-85.5 23.5h-179q-4 18 1 44l74 313q87 9 215 9h147q2 -17 -1 -42q-2 -11 -5 -21t-6 -15l-2 -5h-249z" />
    <glyph glyph-name="sixoldstyle" unicode="&#xf736;" horiz-adv-x="556" 
d="M254 411q69 41 168 41q92 0 126 -43t20 -128l-19 -117q-13 -85 -74.5 -128t-185.5 -43t-171.5 43t-34.5 128l56 353q31 189 289 189q44 0 85 -6t60 -12l18 -7q3 -16 -1 -41q-1 -7 -3 -14t-3.5 -12t-3 -8.5t-2.5 -5.5l-1 -2q0 1 -19.5 7t-62 12t-88.5 6q-66 0 -96.5 -26
t-39.5 -80zM243 334l-28 -170q-7 -48 12 -68t76 -20q56 0 81.5 20.5t32.5 67.5l19 117q8 48 -8 68t-66 20q-36 0 -66 -8.5t-41 -17.5z" />
    <glyph glyph-name="sevenoldstyle" unicode="&#xf737;" horiz-adv-x="527" 
d="M561 458l-335 -655q-26 -6 -66 -6q-18 0 -35.5 1.5t-25.5 3.5l-8 1l320 610h-303q-3 18 2 43q1 11 4 22t6 16l2 6h440q3 -17 -1 -42z" />
    <glyph glyph-name="eightoldstyle" unicode="&#xf738;" horiz-adv-x="559" 
d="M146 487l8 48q13 85 72.5 128t177.5 43t163.5 -43t32.5 -128l-8 -48q-16 -94 -97 -127q87 -33 71 -132l-10 -64q-13 -85 -76 -128t-189 -43t-175 43t-36 128l10 64q16 100 113 132q-73 35 -57 127zM222 228l-10 -64q-8 -47 12.5 -67.5t79.5 -20.5q60 0 86 20t34 68l10 64
q8 48 -12.5 68t-79.5 20q-60 0 -86 -20t-34 -68zM286 535l-8 -48q-7 -47 10 -67.5t67 -20.5q51 0 74.5 20.5t30.5 67.5l8 48q7 48 -10 68t-67 20q-51 0 -74.5 -20t-30.5 -68z" />
    <glyph glyph-name="nineoldstyle" unicode="&#xf739;" horiz-adv-x="556" 
d="M379 -18l18 118q-68 -41 -167 -41q-92 0 -126 43t-20 128l16 105q14 85 75.5 128t185.5 43q123 0 171 -43t34 -128l-55 -353q-32 -189 -292 -189q-45 0 -86.5 6.5t-61.5 12.5l-19 6q-3 17 1 42q2 11 5 21t5 15l3 6q0 -1 20.5 -7t64.5 -12.5t91 -6.5q66 0 97 26.5t40 79.5
zM410 177l24 158q8 48 -11 68t-75 20q-57 0 -82.5 -20t-33.5 -68l-16 -105q-8 -48 8 -68t65 -20q36 0 66.5 9t42.5 17z" />
    <glyph glyph-name="NULL" horiz-adv-x="0" 
 />
    <glyph glyph-name="T_h" horiz-adv-x="1026" 
d="M799 691l-36 -226q61 41 147 41q81 0 110 -43t15 -128l-52 -332q-34 -6 -67 -6l-65 6l52 332q8 48 -4 68t-50 20q-29 0 -53.5 -8.5t-34.5 -17.5l-10 -9l-61 -385q-34 -6 -67 -6l-65 6l96 607h-209l-96 -607q-35 -6 -70 -6l-69 6l96 607h-179q-2 17 2 45l13 45h457
q57 0 107 -2t72 -4z" />
    <glyph glyph-name="T_h.caron" horiz-adv-x="1026" 
d="M799 691l-36 -226q61 41 147 41q81 0 110 -43t15 -128l-52 -332q-34 -6 -67 -6l-65 6l52 332q8 48 -4 68t-50 20q-29 0 -53.5 -8.5t-34.5 -17.5l-10 -9l-61 -385q-34 -6 -67 -6l-65 6l96 607h-209l-96 -607q-35 -6 -70 -6l-69 6l96 607h-179q-2 17 2 45l13 45h457
q57 0 107 -2t72 -4zM342 885l65 -77l90 77q22 7 40 7q9 0 18.5 -2t14.5 -4l5 -1l-119 -131q-29 -6 -58 -6l-56 6l-78 131q20 7 40 7q8 0 17.5 -2t14.5 -4z" />
    <glyph glyph-name="T_h.commaaccent" horiz-adv-x="1026" 
d="M799 691l-36 -226q61 41 147 41q81 0 110 -43t15 -128l-52 -332q-34 -6 -67 -6l-65 6l52 332q8 48 -4 68t-50 20q-29 0 -53.5 -8.5t-34.5 -17.5l-10 -9l-61 -385q-34 -6 -67 -6l-65 6l96 607h-209l-96 -607q-35 -6 -70 -6l-69 6l96 607h-179q-2 17 2 45l13 45h457
q57 0 107 -2t72 -4zM315 -44q-7 -47 -28.5 -85t-38.5 -53l-18 -15q-15 -5 -29 -5l-26 5q42 53 57 153q21 7 43 7q9 0 19 -1.5t16 -3.5z" />
    <glyph glyph-name="A.smcp" horiz-adv-x="505" 
d="M15 3l236 519q40 5 84 5l83 -5l72 -519q-33 -5 -60 -5l-61 5l-15 107h-169l-48 -107q-34 -5 -63 -5zM320 427l-105 -237h133z" />
    <glyph glyph-name="Aacute.smcp" horiz-adv-x="505" 
d="M15 3l236 519q40 5 84 5l83 -5l72 -519q-33 -5 -60 -5l-61 5l-15 107h-169l-48 -107q-34 -5 -63 -5zM320 427l-105 -237h133zM471 669l-131 -104q-19 -5 -35 -5l-34 5l93 104q25 5 54 5z" />
    <glyph glyph-name="Abreve.smcp" horiz-adv-x="505" 
d="M15 3l236 519q40 5 84 5l83 -5l72 -519q-33 -5 -60 -5l-61 5l-15 107h-169l-48 -107q-34 -5 -63 -5zM320 427l-105 -237h133zM341 560q-71 0 -94 22.5t-15 70.5l1 7q21 5 39 5l38 -5l-2 -9q-3 -23 5.5 -32t34.5 -9q27 0 38.5 9t14.5 32l2 9q20 5 39 5l37 -5l-1 -7
q-7 -48 -37.5 -70.5t-99.5 -22.5z" />
    <glyph glyph-name="Acircumflex.smcp" horiz-adv-x="505" 
d="M15 3l236 519q40 5 84 5l83 -5l72 -519q-33 -5 -60 -5l-61 5l-15 107h-169l-48 -107q-34 -5 -63 -5zM320 427l-105 -237h133zM401 565l-51 56l-69 -56q-19 -5 -35 -5l-33 5l94 103q25 6 51 6l50 -6l62 -103q-18 -5 -35 -5z" />
    <glyph glyph-name="Agrave.smcp" horiz-adv-x="505" 
d="M15 3l236 519q40 5 84 5l83 -5l72 -519q-33 -5 -60 -5l-61 5l-15 107h-169l-48 -107q-34 -5 -63 -5zM320 427l-105 -237h133zM342 565l-97 104q29 5 55 5l52 -5l59 -104q-17 -5 -35 -5z" />
    <glyph glyph-name="Adieresis.smcp" horiz-adv-x="505" 
d="M15 3l236 519q40 5 84 5l83 -5l72 -519q-33 -5 -60 -5l-61 5l-15 107h-169l-48 -107q-34 -5 -63 -5zM320 427l-105 -237h133zM317 648l-13 -82q-22 -5 -47 -5l-46 5l13 82q21 5 47 5zM485 648l-13 -82q-22 -5 -47 -5l-46 5l13 82q21 5 47 5z" />
    <glyph glyph-name="Amacron.smcp" horiz-adv-x="505" 
d="M15 3l236 519q40 5 84 5l83 -5l72 -519q-33 -5 -60 -5l-61 5l-15 107h-169l-48 -107q-34 -5 -63 -5zM320 427l-105 -237h133zM455 578h-223l-1 27l10 27h222q0 -1 0.5 -3.5t1.5 -9.5t-1 -14z" />
    <glyph glyph-name="Aogonek.smcp" horiz-adv-x="505" 
d="M371 -70q3 32 48 68l-50 5l-15 107h-169l-48 -107q-34 -5 -63 -5l-59 5l236 519q40 5 84 5l83 -5l72 -519q-10 -2 -21 -3q-30 -34 -34 -62q-4 -23 21 -23q8 0 15.5 1.5t10.5 3.5l4 2l1 -20l-6 -20q-18 -13 -52 -13q-33 0 -48 16t-10 45zM320 427l-105 -237h133z" />
    <glyph glyph-name="Aring.smcp" horiz-adv-x="505" 
d="M15 3l236 519q40 5 84 5l83 -5l72 -519q-33 -5 -60 -5l-61 5l-15 107h-169l-48 -107q-34 -5 -63 -5zM320 427l-105 -237h133zM276 609l2 12q8 55 81 55q37 0 52.5 -14.5t11.5 -40.5l-2 -12q-8 -55 -81 -55q-37 0 -52.5 14.5t-11.5 40.5zM322 621l-2 -12q-2 -10 4 -15
t21 -5q28 0 31 20l2 12q2 10 -4 14.5t-21 4.5q-28 0 -31 -19z" />
    <glyph glyph-name="Atilde.smcp" horiz-adv-x="505" 
d="M15 3l236 519q40 5 84 5l83 -5l72 -519q-33 -5 -60 -5l-61 5l-15 107h-169l-48 -107q-34 -5 -63 -5zM320 427l-105 -237h133zM206 566l1 3q7 44 25 64t57 20q32 0 50.5 -10.5t28.5 -20.5t21 -10q18 0 25.5 7t10.5 25l1 4q16 5 32 5l31 -5l-1 -4q-7 -44 -24.5 -63.5
t-57.5 -19.5q-31 0 -49.5 10.5t-29 20.5t-20.5 10q-18 0 -25.5 -7t-10.5 -26l-1 -3q-16 -5 -33 -5z" />
    <glyph glyph-name="AE.smcp" horiz-adv-x="621" 
d="M425 230l-24 -150h200q3 -16 -1 -40l-11 -40h-150q-47 0 -90 2t-63 4l-20 1l16 103h-97l-48 -107q-34 -5 -63 -5l-59 5l234 515q111 7 273 7h146q2 -16 -2 -40l-11 -40h-195l-22 -135h172q1 -16 -3 -40l-10 -40h-172zM329 445l-114 -255h79l41 255h-6z" />
    <glyph glyph-name="AEacute.smcp" horiz-adv-x="621" 
d="M425 230l-24 -150h200q3 -16 -1 -40l-11 -40h-150q-47 0 -90 2t-63 4l-20 1l16 103h-97l-48 -107q-34 -5 -63 -5l-59 5l234 515q111 7 273 7h146q2 -16 -2 -40l-11 -40h-195l-22 -135h172q1 -16 -3 -40l-10 -40h-172zM329 445l-114 -255h79l41 255h-6zM590 669l-132 -104
q-18 -5 -34 -5l-33 5l92 104q25 5 53 5z" />
    <glyph glyph-name="B.smcp" horiz-adv-x="479" 
d="M43 7l80 511q83 10 198 10q105 0 146.5 -34.5t30.5 -103.5l-4 -21q-13 -74 -94 -100q84 -26 71 -105l-4 -25q-12 -72 -66 -107t-164 -35q-51 0 -99.5 2.5t-71.5 4.5zM203 230l-25 -155h71q47 0 67.5 14t25.5 50l5 25q5 35 -11 50.5t-62 15.5h-71zM237 449l-22 -143h71
q41 0 60 15t24 48l4 21q5 32 -9.5 45.5t-55.5 13.5h-72z" />
    <glyph glyph-name="C.smcp" horiz-adv-x="464" 
d="M73 143l37 239q12 74 66 111t162 37q107 0 142.5 -36t23.5 -112l-2 -9q-28 -6 -55 -6l-56 6l1 9q7 38 -7.5 53.5t-59.5 15.5q-44 0 -64 -15.5t-26 -53.5l-38 -239q-6 -39 12 -54t71 -15q41 0 82 7.5t61.5 15t20.5 8.5q0 -2 0.5 -5t1.5 -13.5t-1 -21.5l-14 -41
q-68 -30 -165 -30q-115 0 -160 37.5t-33 111.5z" />
    <glyph glyph-name="Cacute.smcp" horiz-adv-x="464" 
d="M73 143l37 239q12 74 66 111t162 37q107 0 142.5 -36t23.5 -112l-2 -9q-28 -6 -55 -6l-56 6l1 9q7 38 -7.5 53.5t-59.5 15.5q-44 0 -64 -15.5t-26 -53.5l-38 -239q-6 -39 12 -54t71 -15q41 0 82 7.5t61.5 15t20.5 8.5q0 -2 0.5 -5t1.5 -13.5t-1 -21.5l-14 -41
q-68 -30 -165 -30q-115 0 -160 37.5t-33 111.5zM463 669l-132 -104q-18 -5 -34 -5l-34 5l92 104q26 5 54 5z" />
    <glyph glyph-name="Ccaron.smcp" horiz-adv-x="464" 
d="M73 143l37 239q12 74 66 111t162 37q107 0 142.5 -36t23.5 -112l-2 -9q-28 -6 -55 -6l-56 6l1 9q7 38 -7.5 53.5t-59.5 15.5q-44 0 -64 -15.5t-26 -53.5l-38 -239q-6 -39 12 -54t71 -15q41 0 82 7.5t61.5 15t20.5 8.5q0 -2 0.5 -5t1.5 -13.5t-1 -21.5l-14 -41
q-68 -30 -165 -30q-115 0 -160 37.5t-33 111.5zM289 668l51 -56l70 56q19 6 35 6l32 -6l-94 -103q-24 -5 -50 -5l-51 5l-61 103q17 6 35 6z" />
    <glyph glyph-name="Ccedilla.smcp" horiz-adv-x="464" 
d="M72 143l37 239q12 74 66 111t162 37q107 0 142.5 -36t23.5 -112l-2 -9q-28 -6 -55 -6l-56 6l1 9q7 38 -7.5 53.5t-59.5 15.5q-44 0 -64 -15.5t-26 -53.5l-38 -239q-6 -39 12 -54t71 -15q41 0 82 7.5t61.5 15t20.5 8.5q0 -2 0.5 -5t1.5 -13.5t-1 -21.5l-14 -41
q-63 -27 -153 -30l-2 -11q-1 -9 9.5 -15t24 -9.5t23 -14t6.5 -27.5l-1 -7q-8 -57 -98 -57q-48 0 -64 15t-11 46v3q17 3 31 3l30 -3v-3q-2 -12 2.5 -17t18.5 -5t19.5 3.5t7.5 14.5l1 7q1 8 -9.5 14t-23.5 9.5t-22.5 14.5t-6.5 28l2 13q-87 8 -120 45t-22 102z" />
    <glyph glyph-name="Ccircumflex.smcp" horiz-adv-x="464" 
d="M73 143l37 239q12 74 66 111t162 37q107 0 142.5 -36t23.5 -112l-2 -9q-28 -6 -55 -6l-56 6l1 9q7 38 -7.5 53.5t-59.5 15.5q-44 0 -64 -15.5t-26 -53.5l-38 -239q-6 -39 12 -54t71 -15q41 0 82 7.5t61.5 15t20.5 8.5q0 -2 0.5 -5t1.5 -13.5t-1 -21.5l-14 -41
q-68 -30 -165 -30q-115 0 -160 37.5t-33 111.5zM393 565l-51 56l-69 -56q-19 -5 -35 -5l-34 5l95 103q25 6 50 6l51 -6l61 -103q-17 -5 -34 -5z" />
    <glyph glyph-name="Cdotaccent.smcp" horiz-adv-x="464" 
d="M73 143l37 239q12 74 66 111t162 37q107 0 142.5 -36t23.5 -112l-2 -9q-28 -6 -55 -6l-56 6l1 9q7 38 -7.5 53.5t-59.5 15.5q-44 0 -64 -15.5t-26 -53.5l-38 -239q-6 -39 12 -54t71 -15q41 0 82 7.5t61.5 15t20.5 8.5q0 -2 0.5 -5t1.5 -13.5t-1 -21.5l-14 -41
q-68 -30 -165 -30q-115 0 -160 37.5t-33 111.5zM406 657l-14 -91q-30 -5 -60 -5l-58 5l14 91q30 6 60 6z" />
    <glyph glyph-name="D.smcp" horiz-adv-x="486" 
d="M123 518q82 10 201 10q110 0 152.5 -36t30.5 -110l-37 -239q-12 -74 -66 -110t-164 -36q-53 0 -102 2.5t-72 4.5l-23 3zM237 450l-59 -375h75q46 0 66 15t26 53l38 239q6 38 -9.5 53t-61.5 15h-75z" />
    <glyph glyph-name="Dcaron.smcp" horiz-adv-x="486" 
d="M123 518q82 10 201 10q110 0 152.5 -36t30.5 -110l-37 -239q-12 -74 -66 -110t-164 -36q-53 0 -102 2.5t-72 4.5l-23 3zM237 450l-59 -375h75q46 0 66 15t26 53l38 239q6 38 -9.5 53t-61.5 15h-75zM287 668l51 -56l70 56q18 6 34 6l33 -6l-94 -103q-25 -5 -51 -5l-50 5
l-62 103q17 6 35 6z" />
    <glyph glyph-name="Dcroat.smcp" horiz-adv-x="511" 
d="M151 518q81 10 201 10q110 0 152 -36.5t30 -109.5l-37 -239q-12 -73 -65.5 -109.5t-163.5 -36.5q-53 0 -102.5 2.5t-72.5 4.5l-23 3l36 227h-35q-3 13 0 36l12 36h35zM309 234h-78l-26 -159h75q46 0 66 15t27 53l37 239q6 38 -9.5 53t-60.5 15h-75l-23 -144h79
q2 -14 -2 -36z" />
    <glyph glyph-name="Eth.smcp" horiz-adv-x="511" 
d="M151 518q81 10 201 10q110 0 152 -36.5t30 -109.5l-37 -239q-12 -73 -65.5 -109.5t-163.5 -36.5q-53 0 -102.5 2.5t-72.5 4.5l-23 3l36 227h-35q-3 13 0 36l12 36h35zM309 234h-78l-26 -159h75q46 0 66 15t27 53l37 239q6 38 -9.5 53t-60.5 15h-75l-23 -144h79
q2 -14 -2 -36z" />
    <glyph glyph-name="Thorn.smcp" horiz-adv-x="452" 
d="M248 522l-14 -92q25 2 60 2q100 0 138 -36.5t26 -110.5l-4 -31q-12 -74 -61.5 -110.5t-149.5 -36.5l-60 3l-17 -107q-32 -5 -62 -5l-62 5l82 519q32 5 64 5zM222 354l-27 -168h57q38 0 54.5 14.5t23.5 53.5l4 31q6 39 -5.5 54t-49.5 15h-57z" />
    <glyph glyph-name="E.smcp" horiz-adv-x="423" 
d="M203 230l-25 -150h226q3 -16 -1 -40l-10 -40h-177q-46 0 -89.5 2t-63.5 4l-20 1l80 510q72 8 176 8h173q1 -16 -2 -40l-11 -40h-222l-22 -135h197q2 -16 -1 -40l-11 -40h-197z" />
    <glyph glyph-name="Eacute.smcp" horiz-adv-x="423" 
d="M203 230l-25 -150h226q3 -16 -1 -40l-10 -40h-177q-46 0 -89.5 2t-63.5 4l-20 1l80 510q72 8 176 8h173q1 -16 -2 -40l-11 -40h-222l-22 -135h197q2 -16 -1 -40l-11 -40h-197zM438 669l-130 -104q-19 -5 -35 -5l-34 5l92 104q27 5 54 5z" />
    <glyph glyph-name="Ebreve.smcp" horiz-adv-x="423" 
d="M203 230l-25 -150h226q3 -16 -1 -40l-10 -40h-177q-46 0 -89.5 2t-63.5 4l-20 1l80 510q72 8 176 8h173q1 -16 -2 -40l-11 -40h-222l-22 -135h197q2 -16 -1 -40l-11 -40h-197zM307 560q-70 0 -93 22.5t-16 70.5l1 7q21 5 39 5l38 -5l-2 -9q-3 -23 5.5 -32t34.5 -9
q27 0 38.5 9t14.5 32l2 9q20 5 39 5l37 -5l-1 -7q-8 -48 -38 -70.5t-99 -22.5z" />
    <glyph glyph-name="Ecaron.smcp" horiz-adv-x="423" 
d="M203 230l-25 -150h226q3 -16 -1 -40l-10 -40h-177q-46 0 -89.5 2t-63.5 4l-20 1l80 510q72 8 176 8h173q1 -16 -2 -40l-11 -40h-222l-22 -135h197q2 -16 -1 -40l-11 -40h-197zM266 668l51 -56l70 56q18 6 34 6l33 -6l-94 -103q-25 -5 -50 -5l-51 5l-61 103q17 6 35 6z
" />
    <glyph glyph-name="Ecircumflex.smcp" horiz-adv-x="423" 
d="M203 230l-25 -150h226q3 -16 -1 -40l-10 -40h-177q-46 0 -89.5 2t-63.5 4l-20 1l80 510q72 8 176 8h173q1 -16 -2 -40l-11 -40h-222l-22 -135h197q2 -16 -1 -40l-11 -40h-197zM370 565l-51 56l-69 -56q-19 -5 -35 -5l-34 5l95 103q25 6 50 6l51 -6l61 -103q-17 -5 -35 -5
z" />
    <glyph glyph-name="Edieresis.smcp" horiz-adv-x="423" 
d="M203 230l-25 -150h226q3 -16 -1 -40l-10 -40h-177q-46 0 -89.5 2t-63.5 4l-20 1l80 510q72 8 176 8h173q1 -16 -2 -40l-11 -40h-222l-22 -135h197q2 -16 -1 -40l-11 -40h-197zM285 648l-13 -82q-21 -5 -47 -5l-46 5l13 82q22 5 47 5zM453 648l-13 -82q-21 -5 -47 -5
l-46 5l13 82q22 5 47 5z" />
    <glyph glyph-name="Edotaccent.smcp" horiz-adv-x="423" 
d="M203 230l-25 -150h226q3 -16 -1 -40l-10 -40h-177q-46 0 -89.5 2t-63.5 4l-20 1l80 510q72 8 176 8h173q1 -16 -2 -40l-11 -40h-222l-22 -135h197q2 -16 -1 -40l-11 -40h-197zM384 657l-14 -91q-30 -5 -60 -5l-58 5l14 91q30 6 60 6z" />
    <glyph glyph-name="Egrave.smcp" horiz-adv-x="423" 
d="M203 230l-25 -150h226q3 -16 -1 -40l-10 -40h-177q-46 0 -89.5 2t-63.5 4l-20 1l80 510q72 8 176 8h173q1 -16 -2 -40l-11 -40h-222l-22 -135h197q2 -16 -1 -40l-11 -40h-197zM312 565l-98 104q29 5 56 5l51 -5l59 -104q-17 -5 -35 -5z" />
    <glyph glyph-name="Emacron.smcp" horiz-adv-x="423" 
d="M203 230l-25 -150h226q3 -16 -1 -40l-10 -40h-177q-46 0 -89.5 2t-63.5 4l-20 1l80 510q72 8 176 8h173q1 -16 -2 -40l-11 -40h-222l-22 -135h197q2 -16 -1 -40l-11 -40h-197zM423 578h-223l-1 27l10 27h222q0 -1 0.5 -3.5t1.5 -9.5t-1 -14z" />
    <glyph glyph-name="Eogonek.smcp" horiz-adv-x="423" 
d="M265 -70q5 34 50 70h-99q-46 0 -89.5 2t-63.5 4l-20 1l80 510q72 8 176 8h173q1 -16 -2 -40l-11 -40h-222l-22 -135h197q2 -16 -1 -40l-11 -40h-197l-25 -150h226q3 -16 -1 -40l-10 -40h-29q-31 -31 -35 -62q-4 -23 21 -23q8 0 15.5 1.5t10.5 3.5l4 2l2 -20l-7 -20
q-19 -13 -51 -13q-69 0 -59 61z" />
    <glyph glyph-name="F.smcp" horiz-adv-x="414" 
d="M203 230l-37 -227q-31 -5 -62 -5l-62 5l81 514q72 8 176 8h167q2 -16 -1 -40l-11 -40h-217l-22 -135h193q2 -16 -2 -40l-11 -40h-192z" />
    <glyph glyph-name="G.smcp" horiz-adv-x="482" 
d="M497 287l-41 -255q-84 -35 -200 -35q-110 0 -152.5 36t-30.5 110l37 239q12 74 66.5 111t164.5 37q109 0 145.5 -36t24.5 -112l-1 -9q-29 -6 -56 -6l-56 6l1 9q7 38 -8.5 53.5t-62.5 15.5t-67 -15.5t-26 -53.5l-38 -239q-6 -38 9.5 -53t61.5 -15q22 0 41.5 3t28.5 6l8 3
l20 127h-70q-2 16 2 41l11 39h35q41 0 79 -2t56 -4z" />
    <glyph glyph-name="Gbreve.smcp" horiz-adv-x="482" 
d="M497 287l-41 -255q-84 -35 -200 -35q-110 0 -152.5 36t-30.5 110l37 239q12 74 66.5 111t164.5 37q109 0 145.5 -36t24.5 -112l-1 -9q-29 -6 -56 -6l-56 6l1 9q7 38 -8.5 53.5t-62.5 15.5t-67 -15.5t-26 -53.5l-38 -239q-6 -38 9.5 -53t61.5 -15q22 0 41.5 3t28.5 6l8 3
l20 127h-70q-2 16 2 41l11 39h35q41 0 79 -2t56 -4zM341 560q-70 0 -93 22.5t-16 70.5l1 7q21 5 40 5l37 -5l-1 -9q-4 -23 4.5 -32t35.5 -9q26 0 37.5 9t15.5 32l1 9q21 5 39 5l38 -5l-1 -7q-8 -48 -38 -70.5t-100 -22.5z" />
    <glyph glyph-name="Gcircumflex.smcp" horiz-adv-x="482" 
d="M497 287l-41 -255q-84 -35 -200 -35q-110 0 -152.5 36t-30.5 110l37 239q12 74 66.5 111t164.5 37q109 0 145.5 -36t24.5 -112l-1 -9q-29 -6 -56 -6l-56 6l1 9q7 38 -8.5 53.5t-62.5 15.5t-67 -15.5t-26 -53.5l-38 -239q-6 -38 9.5 -53t61.5 -15q22 0 41.5 3t28.5 6l8 3
l20 127h-70q-2 16 2 41l11 39h35q41 0 79 -2t56 -4zM401 565l-50 56l-70 -56q-18 -5 -34 -5l-34 5l95 103q25 6 50 6l51 -6l61 -103q-17 -5 -35 -5z" />
    <glyph glyph-name="Gcommaaccent.smcp" horiz-adv-x="482" 
d="M497 287l-41 -255q-84 -35 -200 -35q-110 0 -152.5 36t-30.5 110l37 239q12 74 66.5 111t164.5 37q109 0 145.5 -36t24.5 -112l-1 -9q-29 -6 -56 -6l-56 6l1 9q7 38 -8.5 53.5t-62.5 15.5t-67 -15.5t-26 -53.5l-38 -239q-6 -38 9.5 -53t61.5 -15q22 0 41.5 3t28.5 6l8 3
l20 127h-70q-2 16 2 41l11 39h35q41 0 79 -2t56 -4zM284 -31q-5 -36 -22 -65t-32 -40l-14 -12q-12 -4 -24 -4l-24 4q31 42 43 117q19 5 38 5z" />
    <glyph glyph-name="Gdotaccent.smcp" horiz-adv-x="482" 
d="M497 287l-41 -255q-84 -35 -200 -35q-110 0 -152.5 36t-30.5 110l37 239q12 74 66.5 111t164.5 37q109 0 145.5 -36t24.5 -112l-1 -9q-29 -6 -56 -6l-56 6l1 9q7 38 -8.5 53.5t-62.5 15.5t-67 -15.5t-26 -53.5l-38 -239q-6 -38 9.5 -53t61.5 -15q22 0 41.5 3t28.5 6l8 3
l20 127h-70q-2 16 2 41l11 39h35q41 0 79 -2t56 -4zM415 657l-14 -91q-30 -5 -60 -5l-58 5l14 91q30 6 60 6z" />
    <glyph glyph-name="H.smcp" horiz-adv-x="511" 
d="M551 522l-82 -519q-32 -5 -64 -5l-61 5l36 224h-178l-36 -224q-31 -5 -62 -5l-62 5l82 519q32 5 64 5l60 -5l-33 -216h177l34 216q32 5 63 5z" />
    <glyph glyph-name="Hbar.smcp" horiz-adv-x="559" 
d="M587 378h-35l-59 -375q-32 -5 -64 -5l-61 5l36 224h-178l-36 -224q-32 -5 -62 -5l-62 5l59 375h-35q-3 14 1 37q1 10 4 19t5 13l2 4h35l11 71q32 5 64 5l60 -5l-11 -71h178l11 71q32 5 63 5l62 -5l-12 -71h35q3 -14 0 -36q-1 -10 -4 -19t-5 -14zM239 306h177l11 72h-177z
" />
    <glyph glyph-name="Hcircumflex.smcp" horiz-adv-x="511" 
d="M551 522l-82 -519q-32 -5 -64 -5l-61 5l36 224h-178l-36 -224q-31 -5 -62 -5l-62 5l82 519q32 5 64 5l60 -5l-33 -216h177l34 216q32 5 63 5zM404 565l-51 56l-69 -56q-18 -5 -34 -5l-34 5l94 103q26 6 51 6l50 -6l62 -103q-17 -5 -35 -5z" />
    <glyph glyph-name="I.smcp" horiz-adv-x="284" 
d="M45 80h49l59 365h-49q-3 16 0 40l12 40h223q2 -16 -2 -40l-11 -40h-49l-58 -365h49q3 -16 -1 -40l-11 -40h-223q-3 16 1 40z" />
    <glyph glyph-name="Iacute.smcp" horiz-adv-x="284" 
d="M45 80h49l59 365h-49q-3 16 0 40l12 40h223q2 -16 -2 -40l-11 -40h-49l-58 -365h49q3 -16 -1 -40l-11 -40h-223q-3 16 1 40zM364 669l-132 -104q-18 -5 -34 -5l-34 5l92 104q26 5 54 5z" />
    <glyph glyph-name="Ibreve.smcp" horiz-adv-x="284" 
d="M45 80h49l59 365h-50q-2 16 1 40l12 40h223q2 -16 -2 -40l-11 -40h-49l-58 -365h49q3 -16 -1 -40l-11 -40h-223q-3 16 1 40zM233 560q-70 0 -93 22.5t-15 70.5l1 7q20 5 39 5l38 -5l-2 -9q-3 -23 5.5 -32t34.5 -9t38 9t15 32l2 9q19 5 39 5l37 -5l-1 -7q-8 -48 -38 -70.5
t-100 -22.5z" />
    <glyph glyph-name="Icircumflex.smcp" horiz-adv-x="283" 
d="M45 80h49l59 365h-49q-3 16 0 40l12 40h223q2 -16 -2 -40l-11 -40h-49l-58 -365h48q3 -16 0 -40l-11 -40h-223q-3 16 1 40zM294 565l-51 56l-70 -56q-18 -5 -34 -5l-34 5l95 103q25 6 50 6l50 -6l62 -103q-17 -5 -35 -5z" />
    <glyph glyph-name="Idieresis.smcp" horiz-adv-x="283" 
d="M219 647l-14 -82q-21 -5 -47 -5l-45 5l13 82q22 5 47 5zM367 647l-13 -82q-21 -5 -47 -5l-45 5l13 82q21 5 47 5zM45 80h49l59 365h-49q-3 16 0 40l12 40h223q2 -16 -2 -40l-11 -40h-49l-58 -365h48q3 -16 0 -40l-11 -40h-223q-3 16 1 40z" />
    <glyph glyph-name="Idotaccent.smcp" horiz-adv-x="284" 
d="M45 80h49l59 365h-49q-3 16 0 40l12 40h223q2 -16 -2 -40l-11 -40h-49l-58 -365h49q3 -16 -1 -40l-11 -40h-223q-3 16 1 40zM307 657l-15 -91q-30 -5 -59 -5l-59 5l15 91q30 6 60 6z" />
    <glyph glyph-name="Igrave.smcp" horiz-adv-x="284" 
d="M45 80h49l59 365h-49q-3 16 0 40l12 40h223q2 -16 -2 -40l-11 -40h-49l-58 -365h49q3 -16 -1 -40l-11 -40h-223q-3 16 1 40zM235 565l-97 104q28 5 54 5l53 -5l58 -104q-16 -5 -34 -5z" />
    <glyph glyph-name="Imacron.smcp" horiz-adv-x="284" 
d="M44 80h50l58 365h-49q-3 16 1 40l11 40h224q2 -16 -2 -40l-11 -40h-50l-58 -365h49q3 -16 0 -40l-11 -40h-224q-2 16 2 40zM346 578h-222l-2 27l10 27h223q3 -11 0 -27z" />
    <glyph glyph-name="Iogonek.smcp" horiz-adv-x="284" 
d="M129 -70q5 34 50 70h-146q-3 16 1 40l11 40h49l59 365h-49q-3 16 0 40l12 40h223q2 -16 -2 -40l-11 -40h-49l-58 -365h49q3 -16 -1 -40l-11 -40h-29q-30 -34 -34 -62q-6 -23 21 -23q8 0 15.5 1.5t11.5 3.5l3 2l2 -20l-8 -20q-17 -13 -51 -13q-69 0 -58 61z" />
    <glyph glyph-name="Itilde.smcp" horiz-adv-x="283" 
d="M44 80h49l58 365h-48q-3 16 1 40l11 40h223q2 -16 -2 -40l-11 -40h-49l-59 -365h50q2 -16 -1 -40l-11 -40h-223q-2 16 2 40zM98 566v3q7 44 25.5 64t57.5 20q31 0 49.5 -10.5t29 -20.5t21.5 -10q17 0 24.5 7t10.5 25l1 4q16 5 32 5l32 -5l-1 -4q-7 -44 -24.5 -63.5
t-57.5 -19.5q-31 0 -50 10.5t-29 20.5t-21 10q-17 0 -24.5 -7t-10.5 -26l-1 -3q-17 -5 -34 -5z" />
    <glyph glyph-name="IJ.smcp" horiz-adv-x="620" 
d="M45 80h49l59 365h-49q-3 16 0 40l12 40h223q2 -16 -2 -40l-11 -40h-49l-58 -365h49q3 -16 -1 -40l-11 -40h-223q-3 16 1 40zM664 525l-61 -381q-11 -72 -60.5 -109t-149.5 -37q-23 0 -43 3t-29 5l-9 3q-4 16 0 41q1 10 4.5 19.5t6.5 14.5l2 4q31 -12 80 -12
q35 0 51.5 15.5t22.5 52.5l47 301h-70q-2 16 1 40l12 40h195z" />
    <glyph glyph-name="J.smcp" horiz-adv-x="390" 
d="M434 522l-59 -379q-12 -74 -62.5 -111.5t-151.5 -37.5q-32 0 -61 7.5t-41 14.5l-13 8q-5 17 0 41q2 11 5 21t6 14l2 5q0 -1 12.5 -8t41 -15t59.5 -8q38 0 55 15t23 54l60 379q32 5 64 5z" />
    <glyph glyph-name="Jcircumflex.smcp" horiz-adv-x="389" 
d="M434 522l-59 -379q-12 -74 -62.5 -111.5t-151.5 -37.5q-32 0 -61 7.5t-41 14.5l-13 8q-5 17 0 41q2 11 5 21t6 14l2 5q0 -1 12.5 -8t41 -15t59.5 -8q38 0 55 15t23 54l60 379q32 5 64 5zM439 565l-50 56l-70 -56q-19 -5 -35 -5l-33 5l94 103q25 6 51 6l51 -6l61 -103
q-17 -5 -35 -5z" />
    <glyph glyph-name="K.smcp" horiz-adv-x="482" 
d="M334 3l-99 225l-34 -7l-35 -218q-32 -5 -62 -5l-62 5l82 519q32 5 64 5l60 -5l-34 -217l35 7l159 210q34 5 66 5l61 -5l-183 -252l112 -267q-33 -5 -65 -5z" />
    <glyph glyph-name="Kcommaaccent.smcp" horiz-adv-x="482" 
d="M334 3l-99 225l-34 -7l-35 -218q-32 -5 -62 -5l-62 5l82 519q32 5 64 5l60 -5l-34 -217l35 7l159 210q34 5 66 5l61 -5l-183 -252l112 -267q-33 -5 -65 -5zM277 -31q-5 -36 -22 -65t-31 -40l-15 -12q-12 -4 -24 -4l-24 4q31 42 43 117q19 5 38 5z" />
    <glyph glyph-name="L.smcp" horiz-adv-x="398" 
d="M248 522l-70 -442h202q3 -16 -1 -40l-10 -40h-153q-46 0 -89.5 2t-63.5 4l-20 1l81 515q32 5 64 5z" />
    <glyph glyph-name="Lacute.smcp" horiz-adv-x="398" 
d="M248 522l-70 -442h202q3 -16 -1 -40l-10 -40h-153q-46 0 -89.5 2t-63.5 4l-20 1l81 515q32 5 64 5zM341 669l-130 -104q-19 -5 -35 -5l-34 5l92 104q27 5 54 5z" />
    <glyph glyph-name="Lcaron.smcp" horiz-adv-x="398" 
d="M248 522l-70 -442h202q3 -16 -1 -40l-10 -40h-153q-46 0 -89.5 2t-63.5 4l-20 1l81 515q32 5 64 5zM197 668l52 -56l69 56q18 6 35 6l33 -6l-94 -103q-25 -5 -51 -5l-50 5l-62 103q17 6 35 6z" />
    <glyph glyph-name="Lcommaaccent.smcp" horiz-adv-x="398" 
d="M248 522l-70 -442h202q3 -16 -1 -40l-10 -40h-153q-46 0 -89.5 2t-63.5 4l-20 1l81 515q32 5 64 5zM242 -31q-5 -36 -22 -65t-32 -40l-14 -12q-13 -4 -25 -4l-23 4q31 42 43 117q19 5 37 5z" />
    <glyph glyph-name="Ldot.smcp" horiz-adv-x="398" 
d="M248 522l-70 -442h202q3 -16 -1 -40l-10 -40h-153q-46 0 -89.5 2t-63.5 4l-20 1l81 515q32 5 64 5zM399 291l-16 -100q-29 -5 -58 -5l-54 5l16 100q28 5 56 5z" />
    <glyph glyph-name="Lslash.smcp" horiz-adv-x="427" 
d="M64 198l47 39l45 285q32 5 63 5l62 -5l-32 -206l72 57q2 -20 -1 -43l-13 -43l-73 -58l-23 -149h201q3 -16 -1 -40l-11 -40h-152q-46 0 -89.5 2t-63.5 4l-20 1l23 142l-48 -38q-2 23 1 44z" />
    <glyph glyph-name="M.smcp" horiz-adv-x="650" 
d="M690 523l-82 -520q-30 -5 -60 -5l-58 5l56 353l-157 -275q-25 -6 -53 -6l-51 6l-69 275l-56 -354q-30 -5 -60 -5l-58 5l82 520q0 1 11.5 2t32 2.5t40.5 1.5l82 -6l72 -283l163 284q40 5 83 5z" />
    <glyph glyph-name="N.smcp" horiz-adv-x="508" 
d="M42 3l82 519q28 5 54 5l52 -5l154 -292l46 292q31 5 60 5l58 -5l-82 -519q-27 -5 -53 -5l-52 5l-155 292l-46 -292q-30 -5 -60 -5z" />
    <glyph glyph-name="Nacute.smcp" horiz-adv-x="508" 
d="M42 3l82 519q28 5 54 5l52 -5l154 -292l46 292q31 5 60 5l58 -5l-82 -519q-27 -5 -53 -5l-52 5l-155 292l-46 -292q-30 -5 -60 -5zM472 669l-131 -104q-19 -5 -35 -5l-32 5l91 104q27 5 54 5z" />
    <glyph glyph-name="Ncaron.smcp" horiz-adv-x="508" 
d="M42 3l82 519q28 5 54 5l52 -5l154 -292l46 292q31 5 60 5l58 -5l-82 -519q-27 -5 -53 -5l-52 5l-155 292l-46 -292q-30 -5 -60 -5zM299 668l51 -56l70 56q18 6 34 6l34 -6l-95 -103q-25 -5 -50 -5l-51 5l-61 103q17 6 35 6z" />
    <glyph glyph-name="Ncommaaccent.smcp" horiz-adv-x="508" 
d="M42 3l82 519q28 5 54 5l52 -5l154 -292l46 292q31 5 60 5l58 -5l-82 -519q-27 -5 -53 -5l-52 5l-155 292l-46 -292q-30 -5 -60 -5zM285 -31q-5 -36 -22 -65t-31 -40l-15 -12q-12 -4 -24 -4l-23 4q30 42 42 117q19 5 38 5z" />
    <glyph glyph-name="Ntilde.smcp" horiz-adv-x="508" 
d="M42 3l82 519q28 5 54 5l52 -5l154 -292l46 292q31 5 60 5l58 -5l-82 -519q-27 -5 -53 -5l-52 5l-155 292l-46 -292q-30 -5 -60 -5zM208 566l1 3q6 43 24.5 63.5t56.5 20.5q32 0 50.5 -10.5t29 -20.5t21.5 -10q17 0 24.5 7t10.5 25l1 4q16 5 33 5l31 -5v-4
q-8 -44 -26 -63.5t-57 -19.5q-31 0 -50 10.5t-29 20.5t-21 10q-17 0 -24.5 -7t-10.5 -26l-1 -3q-17 -5 -33 -5z" />
    <glyph glyph-name="Eng.smcp" horiz-adv-x="508" 
d="M343 -32l9 56l-146 271l-46 -292q-30 -5 -60 -5l-58 5l82 519q28 5 54 5l52 -5l154 -292l46 292q31 5 60 5l58 -5l-87 -554q-10 -62 -42 -93t-95 -31q-42 0 -81 13q-2 15 1 33l10 33q1 0 5.5 -1.5t13 -3t18.5 -1.5q25 0 36 11.5t16 39.5z" />
    <glyph glyph-name="O.smcp" horiz-adv-x="490" 
d="M73 143l37 239q12 74 66.5 111t164.5 37q109 0 151.5 -37t30.5 -111l-37 -239q-12 -74 -66.5 -111.5t-163.5 -37.5q-110 0 -152.5 37.5t-30.5 111.5zM235 382l-38 -239q-6 -39 9.5 -54t61.5 -15t66.5 15.5t26.5 53.5l38 239q6 38 -9.5 53.5t-61.5 15.5t-66.5 -15.5
t-26.5 -53.5z" />
    <glyph glyph-name="Oacute.smcp" horiz-adv-x="490" 
d="M73 143l37 239q12 74 66.5 111t164.5 37q109 0 151.5 -37t30.5 -111l-37 -239q-12 -74 -66.5 -111.5t-163.5 -37.5q-110 0 -152.5 37.5t-30.5 111.5zM235 382l-38 -239q-6 -39 9.5 -54t61.5 -15t66.5 15.5t26.5 53.5l38 239q6 38 -9.5 53.5t-61.5 15.5t-66.5 -15.5
t-26.5 -53.5zM476 669l-131 -104q-19 -5 -35 -5l-34 5l92 104q26 5 54 5z" />
    <glyph glyph-name="Obreve.smcp" horiz-adv-x="490" 
d="M73 143l37 239q12 74 66.5 111t164.5 37q109 0 151.5 -37t30.5 -111l-37 -239q-12 -74 -66.5 -111.5t-163.5 -37.5q-110 0 -152.5 37.5t-30.5 111.5zM235 382l-38 -239q-6 -39 9.5 -54t61.5 -15t66.5 15.5t26.5 53.5l38 239q6 38 -9.5 53.5t-61.5 15.5t-66.5 -15.5
t-26.5 -53.5zM346 560q-71 0 -94 22.5t-15 70.5l1 7q20 5 39 5l38 -5l-2 -9q-3 -23 5.5 -32t34.5 -9q27 0 38.5 9t14.5 32l2 9q20 5 39 5l37 -5l-1 -7q-8 -48 -38 -70.5t-99 -22.5z" />
    </font>
</defs>
</svg>
