<?xml version="1.0" standalone="no"?>
<!DOCTYPE svg PUBLIC "-//W3C//DTD SVG 1.1//EN" "http://www.w3.org/Graphics/SVG/1.1/DTD/svg11.dtd" >
<svg xmlns="http://www.w3.org/2000/svg" xmlns:xlink="http://www.w3.org/1999/xlink" version="1.1">
<metadata>
Created by FontForge 20170731 at Sun Dec 22 19:41:49 2013
 By Aleksey,,,
Copyright (c) 2013 by Andriy Konstantynov. All rights reserved.
</metadata>
<defs>
<font id="PancettaPro-SemiBold" horiz-adv-x="515" >
  <font-face 
    font-family="Pancetta Pro"
    font-weight="600"
    font-stretch="normal"
    units-per-em="1000"
    panose-1="2 11 0 3 3 2 0 8 0 4"
    ascent="773"
    descent="-227"
    x-height="500"
    cap-height="703"
    bbox="-81 -208 1049 900"
    underline-thickness="50"
    underline-position="-150"
    unicode-range="U+0020-FB03"
  />
<missing-glyph horiz-adv-x="211" 
 />
    <glyph glyph-name="ff" unicode="ff" horiz-adv-x="685" 
d="M655 418h-125v-414q-32 -6 -66 -6l-66 6v414h-182v-414q-33 -6 -66 -6l-66 6v414h-46q-6 16 -6 41q0 11 1.5 21.5t2.5 15.5l2 5h46v47q0 79 34.5 118.5t113.5 39.5q48 0 108 -12q5 -19 5 -40l-5 -38q-18 7 -60 7q-36 0 -50 -17t-14 -58v-47h182v47q0 79 34.5 118.5
t113.5 39.5q37 0 109 -12q5 -19 5 -40l-5 -38q-21 7 -60 7q-37 0 -51 -17t-14 -58v-47h125q6 -17 6 -42q0 -11 -1.5 -21.5t-3.5 -15.5z" />
    <glyph glyph-name="fi" unicode="fi" horiz-adv-x="588" 
d="M340 418h-124v-414q-33 -6 -66 -6l-66 6v414h-46q-6 16 -6 41q0 11 1.5 21.5t2.5 15.5l2 5h46v47q0 79 34.5 118.5t113.5 39.5q48 0 108 -12q5 -19 5 -40l-5 -38q-18 7 -60 7q-36 0 -50 -17t-14 -58v-47h124q6 -17 6 -42q0 -11 -1.5 -21.5t-2.5 -15.5zM539 497v-494
q-33 -6 -66 -6l-66 6v494q33 6 66 6zM539 697v-117q-33 -6 -66 -6l-66 6v117q33 6 66 6z" />
    <glyph glyph-name="ffi" unicode="ffi" horiz-adv-x="902" 
d="M655 418h-125v-414q-32 -6 -66 -6l-66 6v414h-182v-414q-33 -6 -66 -6l-66 6v414h-46q-6 16 -6 41q0 11 1.5 21.5t2.5 15.5l2 5h46v47q0 79 34.5 118.5t113.5 39.5q48 0 108 -12q5 -19 5 -40l-5 -38q-18 7 -60 7q-36 0 -50 -17t-14 -58v-47h182v47q0 79 34.5 118.5
t113.5 39.5q37 0 109 -12q5 -19 5 -40l-5 -38q-21 7 -60 7q-37 0 -51 -17t-14 -58v-47h125q6 -17 6 -42q0 -11 -1.5 -21.5t-3.5 -15.5zM854 497v-494q-33 -6 -66 -6l-66 6v494q33 6 66 6zM854 697v-117q-33 -6 -66 -6l-66 6v117q33 6 66 6z" />
    <glyph glyph-name="f_f_j" unicode="ffj" horiz-adv-x="906" 
d="M655 418h-125v-414q-32 -6 -66 -6l-66 6v414h-182v-414q-33 -6 -66 -6l-66 6v414h-46q-6 16 -6 41q0 11 1.5 21.5t2.5 15.5l2 5h46v47q0 79 34.5 118.5t113.5 39.5q48 0 108 -12q5 -19 5 -40l-5 -38q-18 7 -60 7q-36 0 -50 -17t-14 -58v-47h182v47q0 79 34.5 118.5
t113.5 39.5q37 0 109 -12q5 -19 5 -40l-5 -38q-21 7 -60 7q-37 0 -51 -17t-14 -58v-47h125q6 -17 6 -42q0 -11 -1.5 -21.5t-3.5 -15.5zM725 -52v549q33 6 66 6l66 -6v-549q0 -77 -33 -116t-109 -39q-18 0 -36.5 2t-30 5t-21 5.5t-10.5 2.5q-5 18 -5 38l5 38q24 -8 50 -8
q33 0 45.5 16.5t12.5 55.5zM857 697v-117q-33 -6 -66 -6l-66 6v117q33 6 66 6z" />
    <glyph glyph-name="f_j" unicode="fj" horiz-adv-x="592" 
d="M340 418h-124v-414q-33 -6 -66 -6l-66 6v414h-46q-6 16 -6 41q0 11 1.5 21.5t2.5 15.5l2 5h46v47q0 79 34.5 118.5t113.5 39.5q48 0 108 -12q5 -19 5 -40l-5 -38q-18 7 -60 7q-36 0 -50 -17t-14 -58v-47h124q6 -17 6 -42q0 -11 -1.5 -21.5t-2.5 -15.5zM411 -52v549
q33 6 66 6l66 -6v-549q0 -77 -33 -116t-109 -39q-18 0 -36.5 2t-30 5t-21 5.5t-10.5 2.5q-5 18 -5 38l5 38q24 -8 50 -8q33 0 45.5 16.5t12.5 55.5zM543 697v-117q-33 -6 -66 -6l-66 6v117q33 6 66 6z" />
    <glyph glyph-name="f_iogonek" unicode="f&#x12f;" horiz-adv-x="588" 
d="M340 418h-124v-414q-33 -6 -66 -6l-66 6v414h-46q-6 16 -6 41q0 11 1.5 21.5t2.5 15.5l2 5h46v47q0 79 34.5 118.5t113.5 39.5q48 0 108 -12q5 -19 5 -40l-5 -38q-18 7 -60 7q-36 0 -50 -17t-14 -58v-47h124q6 -17 6 -42q0 -11 -1.5 -21.5t-2.5 -15.5zM412 -92
q0 45 47 89l-52 6v494q33 6 66 6l66 -6v-494q-10 -2 -21 -3q-34 -45 -34 -82q0 -35 34 -35q11 0 21 3t15 6l5 3q4 -11 4 -24l-4 -23q-20 -18 -62 -18t-63.5 20.5t-21.5 57.5zM539 697v-117q-33 -6 -66 -6l-66 6v117q33 6 66 6z" />
    <glyph glyph-name="f_f_iogonek" unicode="ff&#x12f;" horiz-adv-x="902" 
d="M655 418h-125v-414q-32 -6 -66 -6l-66 6v414h-182v-414q-33 -6 -66 -6l-66 6v414h-46q-6 16 -6 41q0 11 1.5 21.5t2.5 15.5l2 5h46v47q0 79 34.5 118.5t113.5 39.5q48 0 108 -12q5 -19 5 -40l-5 -38q-18 7 -60 7q-36 0 -50 -17t-14 -58v-47h182v47q0 79 34.5 118.5
t113.5 39.5q37 0 109 -12q5 -19 5 -40l-5 -38q-21 7 -60 7q-37 0 -51 -17t-14 -58v-47h125q6 -17 6 -42q0 -11 -1.5 -21.5t-3.5 -15.5zM726 -92q0 44 48 89l-52 6v494q33 6 66 6l66 -6v-494q-10 -2 -22 -3q-34 -44 -34 -82q0 -35 34 -35q11 0 21 3t15 6l5 3q5 -11 5 -24
l-5 -23q-20 -18 -62 -18q-41 0 -63 20.5t-22 57.5zM854 697v-117q-33 -6 -66 -6l-66 6v117q33 6 66 6z" />
    <glyph glyph-name="quoteright_afii10104" unicode="&#x2019;&#x457;" horiz-adv-x="397" 
d="M292 497v-494q-33 -6 -66 -6l-66 6v494q33 6 66 6zM159 697q0 -47 -8 -88.5t-20 -67t-24 -44t-20 -26.5l-8 -8q-16 -6 -31 -6l-31 6q4 8 10.5 25t17 77.5t10.5 131.5q26 6 52 6zM362 697v-106q-23 -7 -52 -7q-13 0 -26 2t-20 4l-6 1v106q23 6 52 6q13 0 26 -1.5t20 -3.5z
" />
    <glyph glyph-name="afii10103_afii10104" unicode="&#x456;&#x457;" horiz-adv-x="458" 
d="M180 497v-494q-33 -6 -66 -6l-66 6v494q33 6 66 6zM166 697v-117q-29 -6 -59 -6l-59 6v117q30 6 59 6zM409 497v-494q-33 -6 -66 -6l-66 6v494q33 6 66 6zM323 697v-106q-23 -7 -52 -7q-13 0 -26 2t-19 4l-7 1v106q23 6 52 6zM479 697v-106q-23 -7 -52 -7q-13 0 -26 2
t-19 4l-7 1v106q23 6 52 6q13 0 26 -1.5t19 -3.5z" />
    <glyph glyph-name="afii10104_afii10104" unicode="&#x457;&#x457;" horiz-adv-x="458" 
d="M180 497v-494q-33 -6 -66 -6l-66 6v494q33 6 66 6zM82 697v-106q-23 -7 -52 -7q-13 0 -26 2t-20 4l-6 1v106q23 6 52 6q13 0 26 -1.5t20 -3.5zM281 697v-106q-23 -7 -52 -7q-13 0 -26 2t-19 4l-7 1v106q23 6 52 6zM409 497v-494q-33 -6 -66 -6l-66 6v494q33 6 66 6z
M479 697v-106q-23 -7 -52 -7q-13 0 -26 2t-19 4l-7 1v106q23 6 52 6q13 0 26 -1.5t19 -3.5z" />
    <glyph glyph-name=".notdef" horiz-adv-x="211" 
 />
    <glyph glyph-name=".null" horiz-adv-x="0" 
 />
    <glyph glyph-name="nonmarkingreturn" horiz-adv-x="333" 
 />
    <glyph glyph-name="space" unicode=" " horiz-adv-x="211" 
 />
    <glyph glyph-name="exclam" unicode="!" horiz-adv-x="229" 
d="M181 126v-123q-33 -6 -67 -6l-66 6v123q33 6 66 6zM180 697v-480q-33 -6 -66 -6l-66 6v480q33 6 66 6z" />
    <glyph glyph-name="quotedbl" unicode="&#x22;" horiz-adv-x="322" 
d="M138 697l-10 -208q-19 -6 -38 -6l-38 6l-11 208q24 6 49 6zM280 697l-10 -208q-19 -6 -38 -6l-38 6l-11 208q24 6 49 6z" />
    <glyph glyph-name="numbersign" unicode="#" horiz-adv-x="535" 
d="M478 168h-55l-14 -165q-26 -6 -52 -6l-52 6l14 165h-136l-14 -165q-26 -6 -52 -6l-52 6l14 165h-46q-5 16 -5 42l5 41h54l16 197h-46q-6 16 -6 42q0 11 1.5 21.5t3.5 14.5l1 5h53l15 166q26 6 52 6l52 -6l-15 -166h136l15 166q26 6 52 6l52 -6l-15 -166h47q6 -16 6 -41
q0 -11 -1.5 -21.5t-3.5 -15.5l-1 -5h-54l-16 -197h47q6 -16 6 -41q0 -11 -1.5 -21.5t-2.5 -15.5zM207 448l-16 -197h136l16 197h-136z" />
    <glyph glyph-name="dollar" unicode="$" horiz-adv-x="562" 
d="M177 518v-36q0 -29 35.5 -48.5t86.5 -32.5t102.5 -31t87 -56.5t35.5 -96.5v-35q0 -84 -46 -130.5t-148 -55.5v-93q-26 -6 -52 -6l-52 6v93q-106 8 -148 54t-42 132v12q34 7 67 7q16 0 33 -1.5t26 -3.5l9 -2v-12q0 -54 23.5 -76.5t83.5 -22.5t83.5 22t23.5 77v35
q0 28 -25.5 47.5t-64 29.5t-83 25t-83 31.5t-64 50.5t-25.5 81v36q0 84 43.5 130t142.5 55v94q26 6 52 6l52 -6v-93q104 -9 145.5 -54.5t41.5 -131.5v-12q-35 -7 -68 -7q-16 0 -32.5 1.5t-25.5 3.5l-9 2v12q0 53 -22 75.5t-79 22.5t-80.5 -23t-23.5 -75z" />
    <glyph glyph-name="percent" unicode="%" horiz-adv-x="645" 
d="M594 697l-429 -694q-29 -6 -56 -6l-57 6l429 694q27 6 56 6zM32 562v29q0 112 133 112t133 -112v-29q0 -53 -32.5 -83t-100.5 -30t-100.5 30t-32.5 83zM348 109v29q0 112 132 112q133 0 133 -112v-29q0 -112 -133 -112q-132 0 -132 112zM112 591v-29q0 -42 53 -42t53 42
v29q0 21 -12 31t-41 10t-41 -10t-12 -31zM427 138v-29q0 -42 53 -42t53 42v29q0 21 -12 31t-41 10q-53 0 -53 -41z" />
    <glyph glyph-name="ampersand" unicode="&#x26;" horiz-adv-x="680" 
d="M632 417h-117v-266q0 -41 14.5 -58t51.5 -17q21 0 51 12q6 -17 6 -37l-6 -38q-1 0 -10 -3.5t-19.5 -7t-28 -6.5t-34.5 -3q-58 0 -89 25q-2 0 -28 -8t-55.5 -12.5t-63.5 -4.5q-141 0 -205 47t-64 139v39q0 109 112 142q-100 33 -100 134v31q0 90 56.5 135.5t183.5 45.5
q128 0 178 -43.5t50 -134.5v-28h117q6 -17 6 -42q0 -11 -1.5 -21t-2.5 -15zM289 398h43q6 -17 6 -42q0 -11 -1.5 -21t-2.5 -15l-2 -5h-43q-68 0 -95 -23t-27 -74v-39q0 -55 30.5 -79t106.5 -24q51 0 101 20q-7 20 -7 55v377q0 53 -24 74t-87 21q-59 0 -83.5 -23t-24.5 -75
v-31q0 -51 24.5 -73.5t85.5 -22.5z" />
    <glyph glyph-name="quotesingle" unicode="'" horiz-adv-x="180" 
d="M138 697l-10 -208q-19 -6 -38 -6l-38 6l-11 208q24 6 49 6z" />
    <glyph glyph-name="parenleft" unicode="(" horiz-adv-x="282" 
d="M252 -66q6 -16 6 -41q0 -12 -1.5 -22.5t-2.5 -14.5l-2 -5q-108 0 -156 43t-48 128v559q0 85 48 128t156 43q6 -18 6 -42q0 -11 -1.5 -21.5t-2.5 -14.5l-2 -5q-46 0 -64 -20t-18 -68v-559q0 -48 18 -68t64 -20z" />
    <glyph glyph-name="parenright" unicode=")" horiz-adv-x="282" 
d="M29 669q-6 16 -6 41q0 12 1.5 22.5t3.5 15.5l1 4q108 0 156 -43t48 -128v-559q0 -85 -48 -128t-156 -43q-6 18 -6 42q0 11 1.5 21.5t3.5 15.5l1 4q47 0 65 20t18 68v559q0 48 -18 68t-65 20z" />
    <glyph glyph-name="asterisk" unicode="*" horiz-adv-x="468" 
d="M59 604l133 -50l-7 143q24 6 49 6l48 -6l-7 -143l134 51q13 -20 21 -44q4 -10 6 -22.5t2 -19.5v-7l-136 -37l89 -111q-16 -19 -35 -34q-9 -6 -20 -12t-18 -8l-6 -3l-78 119l-78 -119q-23 9 -43 23q-9 7 -18 15.5t-13 13.5l-5 5l89 111l-137 37q1 25 9 48q3 11 8.5 22
t9.5 16z" />
    <glyph glyph-name="plus" unicode="+" horiz-adv-x="404" 
d="M244 467v-126h124q6 -16 6 -41q0 -11 -1.5 -21.5t-2.5 -15.5l-2 -5h-124v-124q-17 -6 -43 -6q-11 0 -22 1.5t-16 2.5l-5 2v124h-123q-6 16 -6 42q0 11 1.5 21.5t3.5 14.5l1 5h123v126q18 6 43 6q12 0 22.5 -1.5t15.5 -3.5z" />
    <glyph glyph-name="comma" unicode="," horiz-adv-x="222" 
d="M171 126q0 -75 -22.5 -135t-44.5 -83l-22 -23q-19 -6 -38 -6l-38 6q5 9 12.5 27t20 80.5t12.5 133.5q29 6 60 6z" />
    <glyph glyph-name="hyphen" unicode="-" horiz-adv-x="281" 
d="M245 238h-210q-6 16 -6 41q0 11 1.5 21.5t3.5 15.5l1 5h210q6 -17 6 -42q0 -11 -1.5 -21t-3.5 -15z" />
    <glyph glyph-name="period" unicode="." horiz-adv-x="222" 
d="M174 126v-123q-32 -6 -63 -6l-63 6v123q31 6 63 6z" />
    <glyph glyph-name="slash" unicode="/" horiz-adv-x="387" 
d="M362 747l-211 -844q-32 -6 -63 -6l-63 6l212 844q30 6 63 6z" />
    <glyph glyph-name="zero" unicode="0" horiz-adv-x="560" 
d="M45 164v371q0 85 55 128t179 43q125 0 180 -43t55 -128v-371q0 -85 -55.5 -128t-179.5 -43t-179 43t-55 128zM177 535v-371q0 -47 22.5 -67.5t79.5 -20.5t80 20.5t23 67.5v371q0 48 -22.5 68t-80.5 20q-57 0 -79.5 -20t-22.5 -68z" />
    <glyph glyph-name="one" unicode="1" horiz-adv-x="378" 
d="M286 702v-699q-33 -6 -66 -6l-66 6v599q-34 0 -65.5 2t-46.5 4l-14 2q-5 18 -5 43l5 42q99 7 258 7z" />
    <glyph glyph-name="two" unicode="2" horiz-adv-x="553" 
d="M382 482v36q0 56 -24.5 80.5t-84.5 24.5t-83.5 -24t-23.5 -81v-12q-31 -7 -64 -7q-14 0 -30 1.5t-25 3.5l-9 2v12q0 96 51 142t184 46q128 0 183.5 -46.5t55.5 -141.5v-36q0 -66 -35 -111.5t-84.5 -69.5t-99 -45t-84.5 -53.5t-35 -80.5v-39h328q6 -17 6 -41
q0 -11 -1.5 -21.5t-2.5 -15.5l-2 -5h-243q-57 0 -110.5 2t-78.5 4l-24 3v113q0 48 18.5 85t48 60t65.5 41.5t72 34.5t65.5 33.5t48 44.5t18.5 61z" />
    <glyph glyph-name="three" unicode="3" horiz-adv-x="539" 
d="M53 613q-6 18 -6 43q0 11 1.5 22t3.5 16l1 6h422q6 -17 6 -42q0 -11 -1.5 -21t-3.5 -15l-1 -5l-185 -207q118 0 165 -48.5t47 -133.5v-49q0 -92 -61.5 -139t-200.5 -47q-53 0 -101 10.5t-70 20.5l-22 10q-8 17 -8 43q0 7 1 14t2 12t2 8.5t2 5.5l1 2q0 -2 22.5 -11.5
t70 -20.5t98.5 -11q74 0 103 24t29 79v49q0 54 -28.5 77.5t-97.5 23.5h-82q-6 17 -6 43q0 12 1.5 23t2.5 16l2 5l171 197h-280z" />
    <glyph glyph-name="four" unicode="4" horiz-adv-x="552" 
d="M466 497v-254h57q6 -18 6 -43q0 -11 -1.5 -22t-3.5 -16l-1 -6h-53v-153q-32 -6 -65 -6l-64 6v153h-301q-6 17 -6 42l171 499q24 5 61 5l67 -5l-155 -454h164v254q31 6 62 6z" />
    <glyph glyph-name="five" unicode="5" horiz-adv-x="532" 
d="M197 617l-13 -195h63q138 0 192.5 -47t54.5 -141v-55q0 -92 -60 -139t-195 -47q-53 0 -101.5 10.5t-70.5 20.5l-22 10q-7 17 -7 43q0 7 0.5 14t2 12t2.5 8.5t1 5.5l1 2q0 -2 22.5 -11.5t70.5 -20.5t99 -11q70 0 97.5 24t27.5 79v55q0 53 -25.5 76.5t-89.5 23.5h-179
q-6 18 -6 44l25 313q85 9 213 9h147q5 -17 5 -42l-5 -41h-250z" />
    <glyph glyph-name="six" unicode="6" horiz-adv-x="556" 
d="M177 411q7 5 20 11.5t54.5 18t85.5 11.5q92 0 133 -43t41 -128v-117q0 -85 -54.5 -128t-178.5 -43t-178.5 43t-54.5 128v353q0 189 258 189q45 0 86.5 -6t60.5 -12l20 -7q6 -16 6 -41q0 -7 -0.5 -14t-1.5 -12t-2 -8.5t-2 -5.5v-2q0 1 -20.5 7t-64 12t-89.5 6
q-66 0 -92.5 -26t-26.5 -80v-106zM177 334v-170q0 -48 22 -68t79 -20q56 0 78.5 20.5t22.5 67.5v117q0 48 -19 68t-69 20q-36 0 -64.5 -8.5t-38.5 -17.5z" />
    <glyph glyph-name="seven" unicode="7" horiz-adv-x="527" 
d="M489 658l-231 -655q-26 -6 -65 -6q-18 0 -35.5 1.5t-25.5 3.5l-9 1l223 610h-303q-6 18 -6 43q0 11 1.5 22t3.5 16l1 6h440q6 -17 6 -42z" />
    <glyph glyph-name="eight" unicode="8" horiz-adv-x="559" 
d="M56 487v48q0 85 52.5 128t170.5 43q119 0 171 -43t52 -128v-48q0 -93 -77 -127q92 -32 92 -132v-64q0 -85 -56 -128t-182 -43t-182 43t-56 128v64q0 99 92 132q-77 34 -77 127zM173 228v-64q0 -47 23.5 -67.5t82.5 -20.5q60 0 83 20t23 68v64q0 48 -23 68t-83 20
q-59 0 -82.5 -20t-23.5 -68zM188 535v-48q0 -47 20.5 -67.5t70.5 -20.5q51 0 71 20.5t20 67.5v48q0 48 -20 68t-71 20q-50 0 -70.5 -20t-20.5 -68z" />
    <glyph glyph-name="nine" unicode="9" horiz-adv-x="556" 
d="M379 182v118q-7 -5 -20 -11.5t-54.5 -18t-85.5 -11.5q-93 0 -133.5 42.5t-40.5 128.5v105q0 85 54.5 128t178.5 43t178.5 -43t54.5 -128v-353q0 -189 -262 -189q-45 0 -87.5 6.5t-63.5 12.5l-20 6q-5 17 -5 42q0 7 0.5 14t1.5 11.5t1.5 8.5t1.5 6v2q0 -1 21.5 -7
t66.5 -12.5t92 -6.5q67 0 94 26.5t27 79.5zM379 377v158q0 48 -22.5 68t-78.5 20q-57 0 -79 -20t-22 -68v-105q0 -48 19 -68t68 -20q36 0 65 9t39 17z" />
    <glyph glyph-name="colon" unicode=":" horiz-adv-x="222" 
d="M174 126v-123q-32 -6 -63 -6l-63 6v123q31 6 63 6zM174 497v-123q-32 -6 -63 -6l-63 6v123q31 6 63 6z" />
    <glyph glyph-name="semicolon" unicode=";" horiz-adv-x="222" 
d="M171 126q0 -75 -22.5 -135t-44.5 -83l-22 -23q-19 -6 -38 -6l-38 6q5 9 12.5 27t20 80.5t12.5 133.5q29 6 60 6zM174 497v-123q-32 -6 -63 -6l-63 6v123q31 6 63 6z" />
    <glyph glyph-name="less" unicode="&#x3c;" horiz-adv-x="459" 
d="M416 418l-212 -112l212 -112q7 -28 7 -52l-7 -49l-387 213l387 214q7 -28 7 -51z" />
    <glyph glyph-name="equal" unicode="=" horiz-adv-x="424" 
d="M388 167h-354q-5 16 -5 42l5 41h354q6 -16 6 -41q0 -11 -1.5 -21.5t-2.5 -15.5zM388 363h-353q-6 16 -6 41q0 11 1.5 21.5t3.5 15.5l1 5h353q6 -17 6 -42q0 -11 -1.5 -21t-2.5 -15z" />
    <glyph glyph-name="greater" unicode="&#x3e;" horiz-adv-x="459" 
d="M42 194l212 113l-212 112q-7 28 -7 51l7 50l387 -213l-387 -214q-7 28 -7 51z" />
    <glyph glyph-name="question" unicode="?" horiz-adv-x="541" 
d="M370 482v36q0 56 -23 80.5t-80 24.5t-79 -24t-22 -81v-12q-31 -7 -64 -7q-14 0 -30 1.5t-25 3.5l-9 2v12q0 96 50 142t179 46q125 0 179 -46.5t54 -141.5v-36q0 -35 -12.5 -62t-31 -41.5t-40 -29t-40 -25t-31 -29t-12.5 -42.5v-36q-33 -6 -66 -6l-66 6v36q0 43 17.5 72.5
t42.5 45.5t49.5 30t42 33.5t17.5 47.5zM334 126v-123q-33 -6 -67 -6l-66 6v123q33 6 66 6z" />
    <glyph glyph-name="at" unicode="@" horiz-adv-x="712" 
d="M48 26v265q0 107 79 161t259 54q148 0 213 -45t65 -135v-323q-33 -6 -66 -6l-66 6v32q-6 -5 -18 -12t-50 -18.5t-78 -11.5q-76 0 -110 36t-34 108v14q0 62 43 96t142 46l105 12v21q0 52 -32 74.5t-114 22.5q-116 0 -161 -30t-45 -102v-265q0 -87 44 -118.5t163 -31.5
q70 0 137 11t98.5 20.5t31.5 11.5v-2q1 -2 2.5 -5.5t2.5 -8.5t1.5 -12t0.5 -14q0 -12 -1.5 -22.5t-3.5 -15.5l-2 -5q-12 -5 -34 -11.5t-91 -18t-141 -11.5q-182 0 -261 57t-79 176zM532 225l-81 -11q-77 -9 -77 -63v-14q0 -33 14 -47t51 -14q29 0 52.5 9t32.5 18l8 9v113z
" />
    <glyph glyph-name="A" unicode="A" horiz-adv-x="612" 
d="M14 3l198 694q44 6 94 6l94 -6l198 -694q-35 -6 -66 -6l-70 6l-43 157h-225l-44 -157q-36 -6 -69 -6zM307 588l-93 -338h184z" />
    <glyph glyph-name="B" unicode="B" horiz-adv-x="579" 
d="M48 8v684q99 12 240 12q128 0 185 -44.5t57 -134.5v-31q0 -102 -99 -135q111 -33 111 -141v-39q0 -92 -59.5 -137.5t-194.5 -45.5q-63 0 -123 3t-89 6zM187 315v-231h101q64 0 89.5 22t25.5 73v39q0 51 -25.5 74t-89.5 23h-101zM187 615v-214h101q57 0 80 22t23 71v31
q0 48 -23 69t-80 21h-101z" />
    <glyph glyph-name="C" unicode="C" horiz-adv-x="568" 
d="M45 182v336q0 94 58.5 141t191.5 47t184.5 -46t51.5 -142v-12q-31 -7 -62 -7q-14 0 -30 1.5t-25 3.5l-8 2v12q0 54 -24 76t-87 22t-87 -22t-24 -76v-336q0 -54 28 -76.5t100 -22.5q53 0 103 11t73.5 20.5t23.5 11.5l1 -2q1 -2 2 -6t2 -9t2 -12.5t1 -15.5q0 -13 -2 -24.5
t-4 -16.5l-2 -6q-9 -5 -25 -11.5t-68.5 -18t-107.5 -11.5q-142 0 -204 47.5t-62 141.5z" />
    <glyph glyph-name="D" unicode="D" horiz-adv-x="591" 
d="M48 692q98 12 244 12q135 0 194.5 -46t59.5 -140v-336q0 -94 -59.5 -140t-194.5 -46q-65 0 -126 3t-90 6l-28 3v684zM187 616v-532h105q64 0 89.5 22.5t25.5 75.5v336q0 53 -25.5 75.5t-89.5 22.5h-105z" />
    <glyph glyph-name="E" unicode="E" 
d="M187 315v-225h294q6 -18 6 -45q0 -12 -1.5 -23t-3.5 -16l-1 -6h-220q-57 0 -110 2t-78 4l-25 3v682q85 9 213 9h215q6 -18 6 -45q0 -12 -1.5 -23.5t-2.5 -16.5l-2 -5h-289v-205h258q5 -18 5 -45l-5 -45h-258z" />
    <glyph glyph-name="F" unicode="F" horiz-adv-x="503" 
d="M187 315v-312q-34 -6 -69 -6l-70 6v688q85 9 213 9h209q5 -18 5 -45l-5 -45h-283v-205h251q6 -18 6 -45q0 -12 -1.5 -23t-2.5 -17l-2 -5h-251z" />
    <glyph glyph-name="G" unicode="G" horiz-adv-x="587" 
d="M539 375v-333q-11 -5 -31 -12.5t-83 -20.5t-127 -13q-134 0 -193.5 46t-59.5 140v336q0 94 59 141t194 47t188 -46t53 -142v-12q-31 -7 -63 -7q-14 0 -29.5 1.5t-24.5 3.5l-8 2v12q0 54 -25 76t-91 22q-64 0 -89 -22.5t-25 -75.5v-336q0 -53 25.5 -75.5t88.5 -22.5
q31 0 58.5 5t39.5 10l11 5v190h-100q-6 18 -6 46q0 12 1.5 23t3.5 16l1 5h44q50 0 97 -2t69 -4z" />
    <glyph glyph-name="H" unicode="H" horiz-adv-x="620" 
d="M571 697v-694q-34 -6 -69 -6l-70 6v308h-245v-308q-34 -6 -69 -6l-70 6v694q35 6 70 6l69 -6v-296h245v296q34 6 70 6z" />
    <glyph glyph-name="I" unicode="I" horiz-adv-x="332" 
d="M32 90h64v520h-64q-6 17 -6 45q0 12 1.5 23.5t2.5 16.5l2 5h268q6 -18 6 -45q0 -12 -1.5 -23.5t-2.5 -16.5l-2 -5h-65v-520h65q6 -17 6 -45q0 -12 -1.5 -23t-2.5 -16l-2 -6h-268q-6 18 -6 45q0 12 1.5 23.5t2.5 16.5z" />
    <glyph glyph-name="J" unicode="J" horiz-adv-x="470" 
d="M422 697v-515q0 -94 -53.5 -141.5t-176.5 -47.5q-41 0 -78.5 10.5t-54.5 20.5l-18 10q-8 18 -8 47q0 8 1 15.5t2 12.5t2 9t2 6l1 2q0 -2 17.5 -11.5t55 -20.5t77.5 -11q52 0 72 22.5t20 76.5v515q35 6 70 6z" />
    <glyph glyph-name="K" unicode="K" horiz-adv-x="575" 
d="M413 3l-176 310l-50 -13v-297q-35 -6 -69 -6l-70 6v694q35 6 70 6l69 -6v-302l50 14l166 288q37 6 73 6l70 -6l-187 -336l200 -358q-37 -6 -72 -6z" />
    <glyph glyph-name="L" unicode="L" horiz-adv-x="482" 
d="M187 697v-607h264q6 -18 6 -45q0 -12 -1.5 -23t-3.5 -16l-1 -6h-190q-57 0 -110 2t-78 4l-25 3v688q35 6 70 6z" />
    <glyph glyph-name="M" unicode="M" horiz-adv-x="789" 
d="M740 697v-693q-33 -6 -66 -6l-66 6v503l-155 -396q-27 -7 -59 -7q-14 0 -28.5 2t-22.5 4l-8 1l-155 395v-503q-33 -6 -66 -6l-66 6v693q0 1 12.5 2.5t35 3t44.5 1.5t45 -1.5t35 -3.5l13 -2l161 -410l162 411q44 7 92 7q21 0 44 -2t36 -4z" />
    <glyph glyph-name="N" unicode="N" horiz-adv-x="618" 
d="M48 3v694q30 6 59 6l59 -6l271 -440v440q33 6 66 6l66 -6v-694q-29 -6 -59 -6l-59 6l-271 440v-440q-32 -6 -66 -6z" />
    <glyph glyph-name="O" unicode="O" horiz-adv-x="599" 
d="M45 182v336q0 94 60 141t194 47q135 0 195 -47t60 -141v-336q0 -94 -60 -141.5t-195 -47.5q-134 0 -194 47.5t-60 141.5zM184 518v-336q0 -53 25.5 -76t89.5 -23t90 23t26 76v336q0 53 -26 75.5t-90 22.5t-89.5 -22.5t-25.5 -75.5z" />
    <glyph glyph-name="P" unicode="P" horiz-adv-x="574" 
d="M48 692q94 12 234 12q132 0 190 -46.5t58 -139.5v-49q0 -94 -58.5 -140.5t-189.5 -46.5l-95 4v-283q-35 -6 -69 -6l-70 6v689zM187 616v-245h95q61 0 85 22.5t24 75.5v49q0 53 -24 75.5t-85 22.5h-95z" />
    <glyph glyph-name="Q" unicode="Q" horiz-adv-x="599" 
d="M387 -172l-80 165h-8q-134 0 -194 47.5t-60 141.5v336q0 94 60 141t194 47q135 0 195 -47t60 -141v-336q0 -138 -131 -175l102 -179q-33 -6 -68 -6zM184 518v-336q0 -53 25.5 -76t89.5 -23t90 23t26 76v336q0 53 -26 75.5t-90 22.5t-89.5 -22.5t-25.5 -75.5z" />
    <glyph glyph-name="R" unicode="R" horiz-adv-x="584" 
d="M418 3l-140 279l-91 4v-283q-35 -6 -69 -6l-70 6v689q94 12 234 12q132 0 190 -46.5t58 -139.5v-49q0 -135 -121 -172l152 -294q-35 -6 -70 -6zM187 616v-245h95q61 0 85 22.5t24 75.5v49q0 53 -24 75.5t-85 22.5h-95z" />
    <glyph glyph-name="S" unicode="S" horiz-adv-x="562" 
d="M177 518v-36q0 -29 35.5 -48.5t86.5 -32.5t102.5 -31t87 -56.5t35.5 -96.5v-35q0 -95 -57.5 -142t-188.5 -47q-136 0 -189 46.5t-53 142.5v12q34 7 67 7q16 0 33 -1.5t26 -3.5l9 -2v-12q0 -54 23.5 -76.5t83.5 -22.5t83.5 22t23.5 77v35q0 28 -25.5 47.5t-64 29.5t-83 25
t-83 31.5t-64 50.5t-25.5 81v36q0 95 56 141.5t185 46.5q133 0 184.5 -46t51.5 -142v-12q-35 -7 -68 -7q-16 0 -32.5 1.5t-25.5 3.5l-9 2v12q0 53 -22 75.5t-79 22.5t-80.5 -23t-23.5 -75z" />
    <glyph glyph-name="T" unicode="T" horiz-adv-x="556" 
d="M524 610h-177v-607q-34 -6 -69 -6l-70 6v607h-178q-6 17 -6 45q0 12 1.5 23.5t2.5 16.5l2 5h494q6 -18 6 -45q0 -12 -1.5 -23.5t-2.5 -16.5z" />
    <glyph glyph-name="U" unicode="U" horiz-adv-x="600" 
d="M552 697v-515q0 -94 -59.5 -141.5t-192.5 -47.5t-192.5 47.5t-59.5 141.5v515q35 6 70 6l69 -6v-515q0 -53 25.5 -76t87.5 -23t87.5 23t25.5 76v515q34 6 69 6z" />
    <glyph glyph-name="V" unicode="V" horiz-adv-x="612" 
d="M212 3l-198 694q34 6 66 6l70 -6l156 -582l156 582q36 6 69 6l67 -6l-198 -694q-43 -6 -93 -6z" />
    <glyph glyph-name="W" unicode="W" horiz-adv-x="953" 
d="M590 3l-113 556l-113 -556q-46 -6 -95 -6l-95 6l-159 694q35 6 67 6l70 -6l121 -568l119 568q37 6 85 6l85 -6l119 -568l121 568q36 6 69 6l67 -6l-159 -694q-45 -6 -94 -6z" />
    <glyph glyph-name="X" unicode="X" horiz-adv-x="610" 
d="M446 3l-141 272l-141 -272q-40 -6 -74 -6l-74 6l194 353l-187 341q42 6 75 6l75 -6l132 -260l132 260q40 6 75 6l75 -6l-186 -341l194 -353q-43 -6 -77 -6z" />
    <glyph glyph-name="Y" unicode="Y" horiz-adv-x="610" 
d="M587 697l-212 -431v-263q-35 -6 -70 -6l-69 6v262l-213 432q42 6 75 6l75 -6l132 -297l132 297q40 6 75 6z" />
    <glyph glyph-name="Z" unicode="Z" horiz-adv-x="548" 
d="M503 610l-308 -516h309q6 -20 6 -47q0 -12 -1.5 -23.5t-2.5 -17.5l-2 -6h-461q-6 17 -6 45q0 12 1.5 23.5t3.5 16.5l1 5l307 516h-305q-6 19 -6 47q0 12 1.5 23.5t3.5 17.5l1 6h458q5 -18 5 -45z" />
    <glyph glyph-name="bracketleft" unicode="[" horiz-adv-x="343" 
d="M48 -150v902q71 0 136.5 -2t95.5 -4l29 -1q5 -15 5 -39l-5 -39q-56 -8 -139 -8v-716q37 0 71.5 -2t50.5 -4l17 -2q5 -17 5 -39l-5 -39q-101 -7 -261 -7z" />
    <glyph glyph-name="backslash" unicode="\" horiz-adv-x="387" 
d="M237 -97l-212 844q31 6 63 6l63 -6l211 -844q-31 -6 -62 -6z" />
    <glyph glyph-name="bracketright" unicode="]" horiz-adv-x="343" 
d="M295 752v-902q-71 0 -136.5 2t-94.5 4l-30 1q-5 15 -5 39l5 39q56 8 139 8v716q-37 0 -71.5 2t-51.5 4l-16 2q-5 17 -5 39l5 39q101 7 261 7z" />
    <glyph glyph-name="asciicircum" unicode="^" horiz-adv-x="442" 
d="M221 704l195 -195q-7 -15 -25 -33q-8 -8 -16.5 -14t-12.5 -8l-5 -3l-136 136l-137 -137q-16 8 -33 25q-8 8 -14.5 16.5t-8.5 12.5l-3 5z" />
    <glyph glyph-name="underscore" unicode="_" horiz-adv-x="500" 
d="M500 -133h-500v83h500v-83z" />
    <glyph glyph-name="grave" unicode="`" horiz-adv-x="229" 
d="M145 562l-139 135q31 6 61 6l60 -6l96 -135q-18 -6 -39 -6z" />
    <glyph glyph-name="a" unicode="a" 
d="M335 3v32q-6 -5 -18 -12t-50 -18.5t-78 -11.5q-76 0 -110 36t-34 108v13q0 62 43 96t142 46l105 12v42q0 41 -17.5 59t-61.5 18q-43 0 -60 -17t-17 -57v-10q-30 -6 -62 -6l-63 6v10q0 80 44 118.5t158 38.5q113 0 162 -40t49 -120v-343q-33 -6 -66 -6zM335 224l-81 -11
q-77 -11 -77 -63v-13q0 -32 14 -46.5t50 -14.5q30 0 53.5 9t31.5 18l9 9v112z" />
    <glyph glyph-name="b" unicode="b" horiz-adv-x="516" 
d="M180 35v-32q-32 -6 -66 -6l-66 6v694q33 6 66 6l66 -6v-222q35 31 110 31q97 0 139 -42.5t42 -128.5v-171q0 -85 -35 -128t-116 -43q-38 0 -73 10.5t-51 20.5zM339 164v171q0 48 -16 68t-57 20q-48 0 -67 -20t-19 -68v-223q3 -4 9 -10t30 -16t53 -10q38 0 52.5 20
t14.5 68z" />
    <glyph glyph-name="c" unicode="c" horiz-adv-x="491" 
d="M45 164v171q0 86 49 128.5t162 42.5q110 0 153 -41.5t43 -129.5v-12q-29 -6 -59 -6l-59 6v12q0 48 -17 68t-61 20q-45 0 -62 -20t-17 -68v-171q0 -48 22.5 -68t80.5 -20q41 0 79 8t56 15t18 8l1 -2q0 -2 1 -6t2.5 -8.5t2 -11.5t0.5 -14q0 -11 -2 -21.5t-4 -15.5l-1 -4
q-59 -31 -153 -31q-125 0 -180 43t-55 128z" />
    <glyph glyph-name="d" unicode="d" horiz-adv-x="516" 
d="M336 3v32q-6 -5 -17.5 -12t-48 -18.5t-74.5 -11.5q-80 0 -115.5 43t-35.5 128v171q0 85 42.5 128t138.5 43q34 0 61.5 -8t38.5 -16l10 -7v222q33 6 66 6l66 -6v-694q-33 -6 -66 -6zM177 335v-171q0 -48 15 -68t53 -20q29 0 51.5 9t31.5 18l8 9v223q0 48 -19 68t-66 20
q-42 0 -58 -20t-16 -68z" />
    <glyph glyph-name="e" unicode="e" horiz-adv-x="509" 
d="M45 164v171q0 86 49.5 128.5t163.5 42.5q116 0 161 -41.5t45 -129.5v-117q-49 -12 -144 -12h-143v-42q0 -48 23 -68t82 -20q43 0 83.5 8t59.5 15t19 8l1 -2q1 -2 2 -6t2 -8.5t2 -11.5t1 -14q0 -11 -2 -21.5t-4 -15.5l-2 -4q-62 -31 -162 -31q-126 0 -181.5 43t-55.5 128z
M177 289h162v46q0 48 -17.5 68t-63.5 20t-63.5 -20t-17.5 -68v-46z" />
    <glyph glyph-name="f" unicode="f" horiz-adv-x="371" 
d="M340 418h-124v-414q-33 -6 -66 -6l-66 6v414h-46q-6 16 -6 41q0 11 1.5 21.5t2.5 15.5l2 5h46v47q0 79 34.5 118.5t113.5 39.5q48 0 108 -12q5 -19 5 -40l-5 -38q-18 7 -60 7q-36 0 -50 -17t-14 -58v-47h124q6 -17 6 -42q0 -11 -1.5 -21.5t-2.5 -15.5z" />
    <glyph glyph-name="g" unicode="g" horiz-adv-x="516" 
d="M336 -36v60q-1 -2 -12 -9t-38 -14.5t-60 -7.5q-96 0 -138.5 43t-42.5 128v171q0 85 35.5 128t115.5 43q38 0 73 -10t51 -20l16 -11v32q31 6 66 6l66 -6v-533q0 -85 -55.5 -128t-182.5 -43q-42 0 -82 5.5t-59 11.5l-19 6q-7 16 -7 41q0 7 0.5 14t1.5 11.5t2.5 8.5t2.5 6v2
q0 -1 19.5 -6.5t59 -11t81.5 -5.5q60 0 83 20t23 68zM177 335v-171q0 -48 16 -68t58 -20q47 0 66 20.5t19 67.5v224q-3 4 -9 10t-29.5 15.5t-52.5 9.5q-38 0 -53 -20t-15 -68z" />
    <glyph glyph-name="h" unicode="h" horiz-adv-x="518" 
d="M180 697v-232q6 5 17.5 11.5t48 18t75.5 11.5q81 0 116.5 -43t35.5 -128v-332q-33 -6 -66 -6l-66 6v332q0 48 -15 68t-53 20q-29 0 -52.5 -8.5t-32.5 -17.5l-8 -9v-385q-33 -6 -66 -6l-66 6v694q33 6 66 6z" />
    <glyph glyph-name="i" unicode="i" horiz-adv-x="229" 
d="M180 497v-494q-33 -6 -66 -6l-66 6v494q33 6 66 6zM180 697v-117q-33 -6 -66 -6l-66 6v117q33 6 66 6z" />
    <glyph glyph-name="j" unicode="j" horiz-adv-x="240" 
d="M60 -52v549q33 6 66 6l66 -6v-549q0 -77 -33 -116t-109 -39q-18 0 -36.5 2t-30 5t-21 5.5t-10.5 2.5q-5 18 -5 38l5 38q20 -8 50 -8q33 0 45.5 16.5t12.5 55.5zM192 697v-117q-33 -6 -66 -6l-66 6v117q33 6 66 6z" />
    <glyph glyph-name="k" unicode="k" horiz-adv-x="495" 
d="M340 3l-127 212l-33 -10v-202q-33 -6 -66 -6l-66 6v694q33 6 66 6l66 -6v-404l33 11l117 193q35 6 69 6l67 -6l-141 -236l154 -258q-35 -6 -69 -6z" />
    <glyph glyph-name="l" unicode="l" horiz-adv-x="269" 
d="M221 76q11 0 25 4q6 -17 6 -37l-6 -36q-34 -14 -73 -14q-66 0 -95.5 34t-29.5 102v568q33 6 66 6l66 -6v-568q0 -28 9 -40.5t32 -12.5z" />
    <glyph glyph-name="m" unicode="m" horiz-adv-x="786" 
d="M48 3v494q33 6 66 6l66 -6v-32q6 5 17 11.5t46 18t71 11.5q87 0 118 -47q7 5 20.5 13t55.5 21t86 13q79 0 113 -41.5t34 -124.5v-337q-32 -6 -66 -6l-66 6v337q0 45 -13.5 64t-49.5 19q-59 0 -85 -35v-385q-33 -6 -66 -6l-66 6v337q0 45 -14 64t-50 19q-27 0 -48 -8.5
t-29 -17.5l-8 -9v-385q-33 -6 -66 -6z" />
    <glyph glyph-name="n" unicode="n" horiz-adv-x="519" 
d="M180 497v-32q6 5 17.5 11.5t48.5 18t76 11.5q81 0 116.5 -43t35.5 -128v-332q-32 -6 -66 -6l-66 6v332q0 48 -15 68t-54 20q-29 0 -52.5 -8.5t-32.5 -17.5l-8 -9v-385q-33 -6 -66 -6l-66 6v494q33 6 66 6z" />
    <glyph glyph-name="o" unicode="o" horiz-adv-x="519" 
d="M45 164v171q0 85 50 128t164 43t164.5 -43t50.5 -128v-171q0 -85 -50.5 -128t-164.5 -43q-113 0 -163.5 43t-50.5 128zM177 335v-171q0 -47 18 -67.5t64 -20.5t64.5 20.5t18.5 67.5v171q0 48 -18.5 68t-64.5 20t-64 -20t-18 -68z" />
    <glyph glyph-name="p" unicode="p" horiz-adv-x="516" 
d="M180 497v-32q6 5 17.5 11.5t48 18t74.5 11.5q81 0 116 -42.5t35 -128.5v-171q0 -85 -42 -128t-139 -43q-33 0 -60.5 8t-38.5 16l-11 8v-222q-32 -6 -66 -6l-66 6v694q33 6 66 6zM339 164v171q0 48 -14.5 68t-52.5 20q-29 0 -52 -8.5t-32 -17.5l-8 -9v-224
q0 -47 19.5 -67.5t66.5 -20.5q41 0 57 20t16 68z" />
    <glyph glyph-name="q" unicode="q" horiz-adv-x="516" 
d="M336 465v32q31 6 66 6l66 -6v-694q-33 -6 -66 -6l-66 6v222q-34 -32 -110 -32q-96 0 -138.5 43t-42.5 128v171q0 85 35.5 128t115.5 43q38 0 73 -10t51 -20zM177 335v-171q0 -48 16 -68t58 -20q47 0 66 20.5t19 67.5v224q-3 4 -9 10t-29.5 15.5t-52.5 9.5q-38 0 -53 -20
t-15 -68z" />
    <glyph glyph-name="r" unicode="r" horiz-adv-x="369" 
d="M180 497v-51l6.5 6.5t19.5 14.5t32 18t44 14.5t55 6.5q6 -18 6 -43q0 -11 -1.5 -22t-3.5 -17l-1 -5q-30 0 -57 -9.5t-44.5 -22.5t-30.5 -26.5t-19 -22.5l-6 -10v-325q-33 -6 -66 -6l-66 6v494q33 6 66 6z" />
    <glyph glyph-name="s" unicode="s" horiz-adv-x="506" 
d="M177 363v-20q0 -19 18.5 -28.5t54.5 -16.5q31 -6 44 -9t44 -11t47.5 -17.5t37 -24t29.5 -34.5t9 -45v-20q0 -72 -49 -108t-162 -36q-117 0 -162 38.5t-45 118.5v7q32 7 64 7q14 0 30 -2t25 -4l9 -1v-7q0 -40 17 -57t62 -17q44 0 61.5 14t17.5 47v20q0 21 -20 31t-59 17
q-34 7 -52 11t-51.5 15.5t-51.5 24.5t-33 35.5t-15 51.5v20q0 72 48 107.5t158 35.5q113 0 157 -38.5t44 -118.5v-7q-32 -6 -64 -6l-64 6v7q0 40 -16 57t-57 17q-42 0 -59 -14t-17 -46z" />
    <glyph glyph-name="t" unicode="t" horiz-adv-x="378" 
d="M330 417h-117v-266q0 -41 14.5 -58t51.5 -17q21 0 51 12q5 -17 5 -37l-5 -38l-10 -3q-10 -4 -21.5 -7.5t-30.5 -6.5t-37 -3q-80 0 -115 39.5t-35 118.5v266h-46q-6 16 -6 41q0 11 1.5 21.5t3.5 15.5l1 5h53l14 97q27 6 55 6l56 -6v-97h117q6 -17 6 -42q0 -11 -1.5 -21
t-2.5 -15z" />
    <glyph glyph-name="u" unicode="u" horiz-adv-x="518" 
d="M341 3v32q-6 -5 -17.5 -12t-48 -18.5t-74.5 -11.5q-81 0 -117 43t-36 128v333q33 6 66 6l66 -6v-333q0 -48 15 -68t54 -20q29 0 52 9t31 18l9 9v385q33 6 66 6l66 -6v-494q-33 -6 -66 -6z" />
    <glyph glyph-name="v" unicode="v" horiz-adv-x="512" 
d="M169 3l-155 494q32 6 63 6l66 -6l113 -392l113 392q34 6 66 6l63 -6l-155 -494q-40 -6 -86 -6z" />
    <glyph glyph-name="w" unicode="w" horiz-adv-x="800" 
d="M484 3l-84 363l-83 -363q-42 -6 -88 -6l-88 6l-126 494q33 6 63 6l67 -6l88 -386l89 386q34 6 78 6l78 -6l89 -386l89 386q34 6 66 6l63 -6l-126 -494q-41 -6 -87 -6z" />
    <glyph glyph-name="x" unicode="x" horiz-adv-x="512" 
d="M360 3l-104 179l-104 -179q-38 -6 -69 -6l-67 6l158 253l-151 241q37 6 68 6l69 -6l96 -167l95 167q38 6 70 6l67 -6l-149 -241l158 -253q-38 -6 -69 -6z" />
    <glyph glyph-name="y" unicode="y" horiz-adv-x="516" 
d="M205 -56l18 55l-42 4l-163 494q33 6 63 6l66 -6l113 -383l113 383q35 6 66 6l64 -6l-182 -549q-25 -82 -68 -118.5t-121 -36.5q-17 0 -32.5 3t-23.5 6l-7 3q-7 15 -7 39q0 10 2 20t4 14l1 5q22 -7 61 -7q55 0 75 68z" />
    <glyph glyph-name="z" unicode="z" horiz-adv-x="468" 
d="M424 417l-239 -330h239q6 -19 6 -43q0 -11 -1.5 -22t-2.5 -16l-2 -6h-381q-6 16 -6 42q0 11 1.5 21t3.5 15l1 5l239 330h-239q-6 18 -6 43q0 11 1.5 22t3.5 16l1 6h381q6 -17 6 -42q0 -11 -1.5 -21t-2.5 -15z" />
    <glyph glyph-name="braceleft" unicode="{" horiz-adv-x="345" 
d="M316 669q-47 0 -65 -20t-18 -68v-150q0 -92 -54 -130q54 -38 54 -129v-150q0 -48 18 -68t65 -20q6 -16 6 -41q0 -11 -1.5 -21.5t-2.5 -15.5l-2 -5q-108 0 -156 43t-48 128v150q0 47 -18.5 67.5t-64.5 20.5q-6 16 -6 41q0 11 1.5 21.5t3.5 15.5l1 5q46 0 64.5 20.5
t18.5 67.5v150q0 85 48 128t156 43q6 -16 6 -42q0 -11 -1.5 -21.5t-2.5 -14.5z" />
    <glyph glyph-name="bar" unicode="|" horiz-adv-x="201" 
d="M152 747v-844q-26 -6 -52 -6l-52 6v844q26 6 52 6z" />
    <glyph glyph-name="braceright" unicode="}" horiz-adv-x="345" 
d="M29 669q-6 16 -6 41q0 12 1.5 22.5t3.5 15.5l1 4q108 0 156 -43t48 -128v-150q0 -47 18.5 -67.5t64.5 -20.5q6 -18 6 -42q0 -11 -1.5 -21.5t-2.5 -15.5l-2 -4q-46 0 -64.5 -20.5t-18.5 -67.5v-150q0 -85 -48 -128t-156 -43q-6 18 -6 42q0 11 1.5 21.5t3.5 15.5l1 4
q47 0 65 20t18 68v150q0 91 54 129q-54 38 -54 130v150q0 48 -18 68t-65 20z" />
    <glyph glyph-name="asciitilde" unicode="~" horiz-adv-x="440" 
d="M32 246v4q0 63 21 92.5t74 29.5q33 0 58.5 -9t37 -19.5t25.5 -19.5t28 -9q25 0 35 10.5t10 34.5v5q22 7 44 7q9 0 20 -2t17 -4l6 -1v-4q0 -64 -20 -93t-75 -29q-42 0 -70.5 14.5t-45.5 28.5t-33 14q-25 0 -35.5 -10t-10.5 -35v-5q-22 -7 -43 -7q-9 0 -20 1.5t-17 3.5z
" />
    <glyph glyph-name="exclamdown" unicode="&#xa1;" horiz-adv-x="229" 
d="M48 374v123q33 6 66 6l67 -6v-123q-33 -6 -67 -6zM48 -197v480q33 6 66 6l66 -6v-480q-32 -6 -66 -6z" />
    <glyph glyph-name="cent" unicode="&#xa2;" horiz-adv-x="491" 
d="M45 164v171q0 75 37 117t121 51v94q26 6 52 6l52 -6v-94q80 -9 112.5 -50.5t32.5 -117.5v-12q-29 -6 -59 -6l-59 6v12q0 48 -17 68t-61 20q-45 0 -62 -20t-17 -68v-171q0 -48 22.5 -68t80.5 -20q41 0 79 8t56 15t18 8l1 -2q0 -2 1 -6t2.5 -8.5t2 -11.5t0.5 -14
q0 -11 -2 -21.5t-4 -15.5l-1 -4q-47 -25 -126 -29v-92q-26 -6 -52 -6l-52 6v96q-84 12 -121 53t-37 112z" />
    <glyph glyph-name="sterling" unicode="&#xa3;" horiz-adv-x="568" 
d="M355 286h-146v-196h312q6 -17 6 -45q0 -12 -1.5 -23t-3.5 -16l-1 -6h-490q-6 18 -6 45q0 12 1.5 23.5t3.5 16.5l1 5h39v196h-39q-6 16 -6 42q0 11 1.5 21.5t3.5 14.5l1 5h39v149q0 94 55.5 141t180.5 47t173.5 -46t48.5 -142v-12q-31 -7 -62 -7q-14 0 -30 1.5t-24 3.5
l-9 2v12q0 54 -21 76t-76 22t-76 -22.5t-21 -75.5v-149h146q6 -16 6 -41q0 -11 -1.5 -21.5t-3.5 -15.5z" />
    <glyph glyph-name="currency" unicode="&#xa4;" horiz-adv-x="422" 
d="M71 300v29q0 35 13 60l-63 63q8 16 26 33q8 8 16 14.5t13 8.5l4 3l72 -73q27 10 58 10t58 -10l73 73q16 -8 33 -26q8 -8 14 -16t8 -13l3 -4l-63 -63q15 -25 15 -60v-29q0 -27 -11 -51l59 -57q-8 -15 -26 -33q-8 -8 -16 -14.5t-13 -8.5l-4 -3l-60 60q-28 -12 -70 -12
q-45 0 -70 12l-59 -60q-16 8 -34 26q-8 8 -14 16t-9 13l-2 4l58 58q-9 22 -9 50zM150 329v-29q0 -49 60 -49q32 0 46 12t14 37v29q0 25 -14 36.5t-46 11.5t-46 -11.5t-14 -36.5z" />
    <glyph glyph-name="yen" unicode="&#xa5;" horiz-adv-x="610" 
d="M489 95h-114v-92q-35 -6 -70 -6l-69 6v92h-115q-6 16 -6 41q0 11 1.5 21.5t3.5 15.5l1 5h115v60h-115q-6 16 -6 42q0 11 1.5 21.5t3.5 14.5l1 5h87l-185 376q42 6 75 6l75 -6l132 -297l132 297q40 6 75 6l75 -6l-185 -376h87q6 -16 6 -41q0 -11 -1.5 -21.5t-3.5 -15.5
l-1 -5h-114v-60h114q6 -17 6 -42q0 -11 -1.5 -21.5t-3.5 -14.5z" />
    <glyph glyph-name="brokenbar" unicode="&#xa6;" horiz-adv-x="201" 
d="M152 747v-369q-26 -6 -52 -6l-52 6v369q26 6 52 6zM152 272v-369q-26 -6 -52 -6l-52 6v369q26 6 52 6z" />
    <glyph glyph-name="section" unicode="&#xa7;" horiz-adv-x="562" 
d="M524 231q0 -88 -56 -131q56 -44 56 -112v-17q0 -89 -57.5 -133.5t-188.5 -44.5q-136 0 -189 44t-53 134v13q32 6 64 6l64 -6v-13q0 -52 25 -73.5t89 -21.5t89 21.5t25 73.5v17q0 32 -36.5 53t-88 34t-103 30t-88 54t-36.5 93v16q0 91 57 133q-57 41 -57 111v16
q0 90 56 134t185 44q133 0 184.5 -43.5t51.5 -134.5v-12q-32 -6 -64 -6l-64 6v12q0 51 -23.5 73t-84.5 22t-86 -22.5t-25 -72.5v-16q0 -29 36.5 -48.5t88.5 -32.5t104 -31t88.5 -56.5t36.5 -96.5v-16zM392 247q0 16 -8 28.5t-19.5 21t-32 16.5t-37 13t-42.5 12.5t-42 12.5
q-41 -21 -41 -83v-16q0 -22 19 -37.5t41.5 -23t63.5 -19t64 -20.5q34 20 34 79v16z" />
    <glyph glyph-name="dieresis" unicode="&#xa8;" horiz-adv-x="414" 
d="M154 697v-106q-23 -7 -52 -7q-13 0 -26 2t-20 4l-6 1v106q23 6 52 6zM364 697v-106q-23 -7 -52 -7q-13 0 -26 2t-20 4l-6 1v106q23 6 52 6z" />
    <glyph glyph-name="copyright" unicode="&#xa9;" horiz-adv-x="810" 
d="M45 240v220q0 122 85 184t275 62t275 -62t85 -184v-220q0 -123 -85 -185t-275 -62t-275 62t-85 185zM170 460v-220q0 -89 51.5 -126.5t183.5 -37.5q131 0 183 37.5t52 126.5v220q0 89 -52 126t-183 37q-132 0 -183.5 -37t-51.5 -126zM283 272v160q0 49 30 73.5t98 24.5
q67 0 93 -24t26 -74v-6q-18 -3 -36 -3l-36 3v6q0 26 -10 36.5t-37 10.5t-37.5 -10.5t-10.5 -36.5v-160q0 -26 12.5 -36.5t44.5 -10.5q26 0 50.5 5t36.5 10l12 5q4 -10 4 -25l-4 -27q-40 -19 -99 -19q-73 0 -105 24.5t-32 73.5z" />
    <glyph glyph-name="ordfeminine" unicode="&#xaa;" horiz-adv-x="373" 
d="M237 352v21q-38 -28 -99 -28q-54 0 -77.5 25.5t-23.5 76.5v8q0 44 30 68t99 32l71 9v28q0 28 -11 40t-40 12t-40 -11.5t-11 -38.5v-7q-23 -4 -46 -4l-46 4v7q0 57 31 84t112 27q79 0 113.5 -28.5t34.5 -84.5v-240q-23 -4 -48 -4zM237 505l-52 -7q-51 -7 -51 -43v-8
q0 -22 9.5 -31.5t33.5 -9.5q19 0 34 6t21 12l5 6v75z" />
    <glyph glyph-name="guillemotleft" unicode="&#xab;" horiz-adv-x="501" 
d="M26 271l195 195q15 -8 33 -26q8 -8 14.5 -16t9.5 -12l2 -5l-136 -136l136 -137q-8 -16 -25 -34q-8 -8 -16 -14t-13 -8l-4 -3zM218 271l195 195q15 -8 33 -26q8 -8 14.5 -16t9.5 -12l2 -5l-136 -136l136 -137q-8 -16 -25 -34q-8 -8 -16 -14t-13 -8l-4 -3z" />
    <glyph glyph-name="logicalnot" unicode="&#xac;" horiz-adv-x="400" 
d="M261 217v74h-226q-6 17 -6 41q0 11 1.5 21.5t3.5 15.5l1 5h124q57 0 110.5 -2t78.5 -4l24 -3v-148q-27 -6 -55 -6z" />
    <glyph glyph-name="uni00AD" unicode="&#xad;" horiz-adv-x="281" 
d="M245 238h-210q-6 16 -6 41q0 11 1.5 21.5t3.5 15.5l1 5h210q6 -17 6 -42q0 -11 -1.5 -21t-3.5 -15z" />
    <glyph glyph-name="registered" unicode="&#xae;" horiz-adv-x="810" 
d="M45 240v220q0 122 85 184t275 62t275 -62t85 -184v-220q0 -123 -85 -185t-275 -62t-275 62t-85 185zM170 460v-220q0 -89 51.5 -126.5t183.5 -37.5q131 0 183 37.5t52 126.5v220q0 89 -52 126t-183 37q-132 0 -183.5 -37t-51.5 -126zM468 177l-66 135l-36 1v-136
q-21 -4 -41 -4l-40 4v344q48 7 120 7q68 0 98 -24.5t30 -73.5v-21q0 -67 -57 -87l73 -145q-20 -4 -40 -4zM366 477v-115h39q27 0 37.5 10.5t10.5 36.5v21q0 26 -10.5 36.5t-37.5 10.5h-39z" />
    <glyph glyph-name="macron" unicode="&#xaf;" horiz-adv-x="243" 
d="M256 590h-270q-6 12 -6 31q0 8 1.5 16t2.5 11l2 4h270q6 -12 6 -31q0 -8 -1.5 -15.5t-2.5 -11.5z" />
    <glyph glyph-name="degree" unicode="&#xb0;" horiz-adv-x="310" 
d="M51 585v23q0 95 108 95q109 0 109 -95v-23q0 -95 -109 -95q-108 0 -108 95zM113 608v-23q0 -39 46 -39q47 0 47 39v23q0 38 -47 38q-46 0 -46 -38z" />
    <glyph glyph-name="plusminus" unicode="&#xb1;" horiz-adv-x="404" 
d="M244 497v-126h124q6 -17 6 -42q0 -11 -1.5 -21t-2.5 -15l-2 -5h-124v-125q-17 -6 -43 -6q-11 0 -22 1.5t-16 3.5l-5 1v125h-123q-6 16 -6 41q0 11 1.5 21.5t3.5 15.5l1 5h123v126q18 5 43 5zM368 50h-333q-6 16 -6 40q0 10 1.5 20t3.5 14l1 5h333q6 -16 6 -39
q0 -11 -1.5 -21t-2.5 -15z" />
    <glyph glyph-name="twosuperior" unicode="&#xb2;" horiz-adv-x="293" 
d="M193 590v15q0 27 -11 39.5t-37 12.5q-27 0 -37 -12t-10 -40v-6q-18 -3 -37 -3l-36 3v6q0 50 25.5 74t94.5 24q66 0 94.5 -24t28.5 -74v-15q0 -33 -17 -56t-41.5 -35t-49 -22t-41.5 -25t-17 -37v-18h160q3 -9 3 -24l-3 -23h-125l-109 5v60q0 38 26 64t56.5 36.5t56.5 29.5
t26 45z" />
    <glyph glyph-name="threesuperior" unicode="&#xb3;" horiz-adv-x="285" 
d="M32 650q-3 10 -3 25l3 25h214q3 -9 3 -23l-3 -25l-89 -95q104 0 104 -94v-21q0 -47 -32 -71t-104 -24q-25 0 -49 4.5t-36 9.5l-11 5q-4 10 -4 25q0 6 1 12t2 9l1 3q0 -2 11.5 -7t34.5 -10t48 -5q35 0 48.5 11t13.5 38v21q0 26 -12.5 36.5t-43.5 10.5h-45q-3 10 -3 25
l3 25l80 90h-132z" />
    <glyph glyph-name="acute" unicode="&#xb4;" horiz-adv-x="229" 
d="M223 697l-140 -135q-20 -6 -38 -6l-39 6l96 135q29 6 60 6z" />
    <glyph glyph-name="mu" unicode="&#xb5;" horiz-adv-x="518" 
d="M180 35v-132q-32 -6 -66 -6l-66 6v594q33 6 66 6l66 -6v-385q3 -4 9.5 -10t30.5 -16t53 -10q38 0 53 20t15 68v333q33 6 66 6l66 -6v-333q0 -85 -35.5 -128t-116.5 -43q-39 0 -74 10.5t-51 20.5z" />
    <glyph glyph-name="paragraph" unicode="&#xb6;" horiz-adv-x="722" 
d="M687 617h-46v-714q-33 -6 -66 -6l-66 6v714h-89v-714q-32 -6 -66 -6l-66 6v379q-131 0 -189.5 46.5t-58.5 140.5v45q0 93 58.5 139.5t189.5 46.5h399q6 -17 6 -42q0 -11 -1.5 -21t-3.5 -15z" />
    <glyph glyph-name="periodcentered" unicode="&#xb7;" horiz-adv-x="222" 
d="M174 330v-123q-32 -6 -63 -6l-63 6v123q31 6 63 6z" />
    <glyph glyph-name="cedilla" unicode="&#xb8;" horiz-adv-x="506" 
d="M283 0v-19q0 -13 14 -21.5t31 -12.5t31 -17t14 -35v-10q0 -36 -25 -54t-81 -18q-59 0 -81.5 19t-22.5 58v5q19 3 35 3l34 -3v-5q0 -18 7.5 -25t27.5 -7q19 0 26 6t7 21v10q0 14 -22 21t-44 21t-22 44v19h71z" />
    <glyph glyph-name="onesuperior" unicode="&#xb9;" horiz-adv-x="212" 
d="M160 702v-350q-19 -4 -38 -4l-38 4v292l-63 5q-3 10 -3 24l3 25q53 4 139 4z" />
    <glyph glyph-name="ordmasculine" unicode="&#xba;" horiz-adv-x="376" 
d="M37 466v118q0 60 35.5 90.5t114.5 30.5q81 0 116.5 -30.5t35.5 -90.5v-118q0 -61 -35.5 -91t-116.5 -30q-79 0 -114.5 30.5t-35.5 90.5zM134 584v-118q0 -33 11.5 -46.5t41.5 -13.5q31 0 43 13.5t12 46.5v118q0 33 -12 46.5t-43 13.5q-30 0 -41.5 -13.5t-11.5 -46.5z" />
    <glyph glyph-name="guillemotright" unicode="&#xbb;" horiz-adv-x="501" 
d="M280 270l-194 -195q-16 7 -34 25q-8 8 -14 16.5t-8 13.5l-3 4l136 136l-137 137q8 16 25 33q8 8 16.5 14.5t12.5 9.5l5 2zM472 270l-194 -195q-16 7 -34 25q-8 8 -14 16.5t-8 13.5l-3 4l136 136l-137 137q8 16 25 33q8 8 16.5 14.5t12.5 9.5l5 2z" />
    <glyph glyph-name="onequarter" unicode="&#xbc;" horiz-adv-x="640" 
d="M581 697l-429 -694q-33 -6 -63 -6l-64 6l429 694q31 6 63 6zM160 702v-350q-19 -4 -38 -4l-38 4v292l-63 5q-3 10 -3 24l3 25q53 4 139 4zM584 248v-122h27q3 -10 3 -25l-3 -25h-24v-74q-19 -4 -37 -4l-37 4v74h-149q-3 9 -3 23l82 249q14 4 36 4l37 -4l-72 -222h70v122
q17 4 35 4z" />
    <glyph glyph-name="onehalf" unicode="&#xbd;" horiz-adv-x="662" 
d="M567 240v15q0 27 -11 39.5t-37 12.5q-27 0 -37 -12t-10 -40v-6q-18 -3 -37 -3l-36 3v6q0 50 25.5 74t94.5 24q66 0 94.5 -24t28.5 -74v-15q0 -33 -17 -56t-41.5 -35t-49 -22t-41.5 -25t-17 -37v-18h160q3 -10 3 -24l-3 -23h-125l-109 5v60q0 38 26 64t56.5 36.5
t56.5 29.5t26 45zM581 697l-429 -694q-33 -6 -63 -6l-64 6l429 694q31 6 63 6zM160 702v-350q-19 -4 -38 -4l-38 4v292l-63 5q-3 10 -3 24l3 25q53 4 139 4z" />
    <glyph glyph-name="threequarters" unicode="&#xbe;" horiz-adv-x="675" 
d="M628 697l-429 -694q-33 -6 -63 -6l-64 6l429 694q31 6 63 6zM32 650q-3 10 -3 25l3 25h214q3 -9 3 -23l-3 -25l-89 -95q104 0 104 -94v-21q0 -47 -32 -71t-104 -24q-25 0 -49 4.5t-36 9.5l-11 5q-4 10 -4 25q0 6 1 12t2 9l1 3q0 -2 11.5 -7t34.5 -10t48 -5q35 0 48.5 11
t13.5 38v21q0 26 -12.5 36.5t-43.5 10.5h-45q-3 10 -3 25l3 25l80 90h-132zM625 248v-122h27q3 -10 3 -25l-3 -25h-24v-74q-19 -4 -37 -4l-37 4v74h-149q-3 9 -3 23l82 249q14 4 36 4l37 -4l-72 -222h70v122q17 4 35 4z" />
    <glyph glyph-name="questiondown" unicode="&#xbf;" horiz-adv-x="541" 
d="M169 17v-36q0 -56 23 -80.5t80 -24.5t79 24t22 81v13q31 6 63 6l64 -6v-13q0 -96 -49.5 -142t-178.5 -46q-125 0 -179.5 46.5t-54.5 141.5v36q0 35 12.5 62t31 41.5t40 29t40 25t31 29t12.5 42.5v36q33 6 66 6l66 -6v-36q0 -42 -17.5 -72t-42 -46t-49 -29.5t-42 -33.5
t-17.5 -48zM205 374v122q33 6 66 6l67 -6v-122q-33 -7 -67 -7q-15 0 -31.5 1.5t-25.5 3.5z" />
    <glyph glyph-name="Agrave" unicode="&#xc0;" horiz-adv-x="612" 
d="M14 3l198 694q44 6 94 6l94 -6l198 -694q-35 -6 -66 -6l-70 6l-43 157h-225l-44 -157q-36 -6 -69 -6zM307 588l-93 -338h184zM310 753l-140 135q32 6 62 6l60 -6l96 -135q-18 -6 -39 -6z" />
    <glyph glyph-name="Aacute" unicode="&#xc1;" horiz-adv-x="612" 
d="M14 3l198 694q44 6 94 6l94 -6l198 -694q-35 -6 -66 -6l-70 6l-43 157h-225l-44 -157q-36 -6 -69 -6zM307 588l-93 -338h184zM441 888l-140 -135q-20 -6 -39 -6l-39 6l96 135q29 6 60 6z" />
    <glyph glyph-name="Acircumflex" unicode="&#xc2;" horiz-adv-x="612" 
d="M14 3l198 694q44 6 94 6l94 -6l198 -694q-35 -6 -66 -6l-70 6l-43 157h-225l-44 -157q-36 -6 -69 -6zM307 588l-93 -338h184zM383 753l-77 78l-78 -78q-20 -6 -39 -6l-39 6l98 132q28 6 57 6l58 -6l98 -132q-18 -6 -39 -6z" />
    <glyph glyph-name="Atilde" unicode="&#xc3;" horiz-adv-x="612" 
d="M14 3l198 694q44 6 94 6l94 -6l198 -694q-35 -6 -66 -6l-70 6l-43 157h-225l-44 -157q-36 -6 -69 -6zM307 588l-93 -338h184zM141 754v4q0 54 18.5 79t65.5 25q38 0 63 -14t40 -27.5t30 -13.5q22 0 30.5 10t8.5 34v5q18 6 37 6l36 -6v-4q0 -55 -18 -79.5t-66 -24.5
q-30 0 -52 8.5t-33 19t-23.5 19t-24.5 8.5q-22 0 -30.5 -9.5t-8.5 -34.5v-5q-18 -6 -37 -6z" />
    <glyph glyph-name="Adieresis" unicode="&#xc4;" horiz-adv-x="612" 
d="M14 3l198 694q44 6 94 6l94 -6l198 -694q-35 -6 -66 -6l-70 6l-43 157h-225l-44 -157q-36 -6 -69 -6zM307 588l-93 -338h184zM253 860v-106q-24 -6 -52 -6q-13 0 -26 1.5t-19 2.5l-7 2v106q22 6 52 6zM463 860v-106q-24 -6 -52 -6q-13 0 -26 1.5t-19 2.5l-7 2v106
q22 6 52 6z" />
    <glyph glyph-name="Aring" unicode="&#xc5;" horiz-adv-x="612" 
d="M14 3l198 694q44 6 94 6l94 -6l198 -694q-35 -6 -66 -6l-70 6l-43 157h-225l-44 -157q-36 -6 -69 -6zM307 588l-93 -338h184zM217 812v16q0 72 89 72t89 -72v-16q0 -72 -89 -72t-89 72zM268 828v-16q0 -30 38 -30q37 0 37 30v16q0 29 -37 29q-38 0 -38 -29z" />
    <glyph glyph-name="AE" unicode="&#xc6;" horiz-adv-x="755" 
d="M460 315v-225h261q5 -18 5 -45l-5 -45h-187q-57 0 -110 2t-78 4l-25 3v151h-127l-44 -157q-36 -6 -69 -6l-67 6l197 688q131 9 323 9h182q5 -18 5 -45l-5 -45h-256v-205h224q6 -18 6 -45q0 -12 -1.5 -23t-2.5 -17l-2 -5h-224zM314 610l-101 -360h108v360h-7z" />
    <glyph glyph-name="Ccedilla" unicode="&#xc7;" horiz-adv-x="568" 
d="M45 182v336q0 94 58.5 141t191.5 47t184.5 -46t51.5 -142v-12q-31 -7 -62 -7q-14 0 -30 1.5t-25 3.5l-8 2v12q0 54 -24 76t-87 22t-87 -22t-24 -76v-336q0 -54 28 -76.5t100 -22.5q53 0 103 11t73.5 20.5t23.5 11.5l1 -2q1 -2 2 -6t2 -9t2 -12.5t1 -15.5q0 -13 -2 -24.5
t-4 -16.5l-2 -6q-72 -38 -188 -41v-12q0 -13 14 -21.5t31 -12.5t31 -17t14 -35v-10q0 -36 -25 -54t-81 -18q-59 0 -81.5 19t-22.5 58v5q19 3 35 3l34 -3v-5q0 -18 7.5 -25t27.5 -7q19 0 26 6t7 21v10q0 14 -22 21t-44 21t-22 44v14q-110 9 -159 56t-49 131z" />
    <glyph glyph-name="Egrave" unicode="&#xc8;" 
d="M187 315v-225h294q6 -18 6 -45q0 -12 -1.5 -23t-3.5 -16l-1 -6h-220q-57 0 -110 2t-78 4l-25 3v682q85 9 213 9h215q6 -18 6 -45q0 -12 -1.5 -23.5t-2.5 -16.5l-2 -5h-289v-205h258q5 -18 5 -45l-5 -45h-258zM275 753l-140 135q32 6 61 6l60 -6l97 -135q-19 -6 -39 -6z
" />
    <glyph glyph-name="Eacute" unicode="&#xc9;" 
d="M187 315v-225h294q6 -18 6 -45q0 -12 -1.5 -23t-3.5 -16l-1 -6h-220q-57 0 -110 2t-78 4l-25 3v682q85 9 213 9h215q6 -18 6 -45q0 -12 -1.5 -23.5t-2.5 -16.5l-2 -5h-289v-205h258q5 -18 5 -45l-5 -45h-258zM402 888l-139 -135q-21 -6 -39 -6l-39 6l96 135q29 6 60 6z
" />
    <glyph glyph-name="Ecircumflex" unicode="&#xca;" 
d="M187 315v-225h294q6 -18 6 -45q0 -12 -1.5 -23t-3.5 -16l-1 -6h-220q-57 0 -110 2t-78 4l-25 3v682q85 9 213 9h215q6 -18 6 -45q0 -12 -1.5 -23.5t-2.5 -16.5l-2 -5h-289v-205h258q5 -18 5 -45l-5 -45h-258zM346 753l-77 78l-78 -78q-20 -6 -39 -6l-39 6l99 132
q27 6 56 6l58 -6l98 -132q-18 -6 -39 -6z" />
    <glyph glyph-name="Edieresis" unicode="&#xcb;" 
d="M187 315v-225h294q6 -18 6 -45q0 -12 -1.5 -23t-3.5 -16l-1 -6h-220q-57 0 -110 2t-78 4l-25 3v682q85 9 213 9h215q6 -18 6 -45q0 -12 -1.5 -23.5t-2.5 -16.5l-2 -5h-289v-205h258q5 -18 5 -45l-5 -45h-258zM216 860v-106q-23 -6 -52 -6l-52 6v106q23 6 52 6zM426 860
v-106q-23 -6 -52 -6l-52 6v106q23 6 52 6z" />
    <glyph glyph-name="Igrave" unicode="&#xcc;" horiz-adv-x="332" 
d="M32 90h64v520h-64q-6 17 -6 45q0 12 1.5 23.5t2.5 16.5l2 5h268q6 -18 6 -45q0 -12 -1.5 -23.5t-2.5 -16.5l-2 -5h-65v-520h65q6 -17 6 -45q0 -12 -1.5 -23t-2.5 -16l-2 -6h-268q-6 18 -6 45q0 12 1.5 23.5t2.5 16.5zM171 753l-140 135q31 6 61 6l60 -6l96 -135
q-18 -6 -38 -6z" />
    <glyph glyph-name="Iacute" unicode="&#xcd;" horiz-adv-x="332" 
d="M32 90h64v520h-64q-6 17 -6 45q0 12 1.5 23.5t2.5 16.5l2 5h268q6 -18 6 -45q0 -12 -1.5 -23.5t-2.5 -16.5l-2 -5h-65v-520h65q6 -17 6 -45q0 -12 -1.5 -23t-2.5 -16l-2 -6h-268q-6 18 -6 45q0 12 1.5 23.5t2.5 16.5zM301 888l-140 -135q-20 -6 -39 -6l-39 6l97 135
q29 6 60 6z" />
    <glyph glyph-name="Icircumflex" unicode="&#xce;" horiz-adv-x="332" 
d="M32 90h64v520h-64q-6 17 -6 45q0 12 1.5 23.5t2.5 16.5l2 5h268q6 -18 6 -45q0 -12 -1.5 -23.5t-2.5 -16.5l-2 -5h-65v-520h65q6 -17 6 -45q0 -12 -1.5 -23t-2.5 -16l-2 -6h-268q-6 18 -6 45q0 12 1.5 23.5t2.5 16.5zM244 753l-78 78l-78 -78q-20 -6 -39 -6l-38 6l98 132
q27 6 56 6l58 -6l98 -132q-18 -6 -39 -6z" />
    <glyph glyph-name="Idieresis" unicode="&#xcf;" horiz-adv-x="332" 
d="M126 859v-106q-23 -6 -52 -6l-52 6v106q23 7 52 7q13 0 26 -2t20 -4zM310 859v-106q-23 -6 -52 -6l-52 6v106q23 7 52 7q13 0 26 -2t20 -4zM32 90h64v520h-64q-6 17 -6 45q0 12 1.5 23.5t2.5 16.5l2 5h268q6 -18 6 -45q0 -12 -1.5 -23.5t-2.5 -16.5l-2 -5h-65v-520h65
q6 -17 6 -45q0 -12 -1.5 -23t-2.5 -16l-2 -6h-268q-6 18 -6 45q0 12 1.5 23.5t2.5 16.5z" />
    <glyph glyph-name="Eth" unicode="&#xd0;" horiz-adv-x="624" 
d="M81 692q97 12 243 12q135 0 195 -46.5t60 -139.5v-336q0 -93 -60 -139.5t-195 -46.5q-65 0 -125.5 3t-88.5 6l-29 3v310h-46q-6 16 -6 42q0 11 1.5 21.5t3.5 14.5l1 5h46v291zM332 318h-112v-234h104q64 0 90 22.5t26 75.5v336q0 53 -26 75.5t-90 22.5h-104v-215h112
q6 -16 6 -41q0 -11 -1.5 -21.5t-2.5 -15.5z" />
    <glyph glyph-name="Ntilde" unicode="&#xd1;" horiz-adv-x="618" 
d="M48 3v694q30 6 59 6l59 -6l271 -440v440q33 6 66 6l66 -6v-694q-29 -6 -59 -6l-59 6l-271 440v-440q-32 -6 -66 -6zM144 754v4q0 54 18.5 79t65.5 25q38 0 62.5 -14t40 -27.5t30.5 -13.5q22 0 30.5 10t8.5 34v5q18 6 37 6l36 -6v-4q0 -55 -18 -79.5t-66 -24.5
q-38 0 -63 14t-40.5 27.5t-29.5 13.5q-22 0 -31 -9.5t-9 -34.5v-5q-18 -6 -36 -6z" />
    <glyph glyph-name="Ograve" unicode="&#xd2;" horiz-adv-x="599" 
d="M45 182v336q0 94 60 141t194 47q135 0 195 -47t60 -141v-336q0 -94 -60 -141.5t-195 -47.5q-134 0 -194 47.5t-60 141.5zM184 518v-336q0 -53 25.5 -76t89.5 -23t90 23t26 76v336q0 53 -26 75.5t-90 22.5t-89.5 -22.5t-25.5 -75.5zM304 753l-140 135q32 6 62 6l60 -6
l96 -135q-18 -6 -39 -6z" />
    <glyph glyph-name="Oacute" unicode="&#xd3;" horiz-adv-x="599" 
d="M45 182v336q0 94 60 141t194 47q135 0 195 -47t60 -141v-336q0 -94 -60 -141.5t-195 -47.5q-134 0 -194 47.5t-60 141.5zM184 518v-336q0 -53 25.5 -76t89.5 -23t90 23t26 76v336q0 53 -26 75.5t-90 22.5t-89.5 -22.5t-25.5 -75.5zM435 888l-140 -135q-21 -6 -39 -6
l-39 6l96 135q29 6 60 6z" />
    <glyph glyph-name="Ocircumflex" unicode="&#xd4;" horiz-adv-x="599" 
d="M45 182v336q0 94 60 141t194 47q135 0 195 -47t60 -141v-336q0 -94 -60 -141.5t-195 -47.5q-134 0 -194 47.5t-60 141.5zM184 518v-336q0 -53 25.5 -76t89.5 -23t90 23t26 76v336q0 53 -26 75.5t-90 22.5t-89.5 -22.5t-25.5 -75.5zM377 753l-78 78l-77 -78q-20 -6 -39 -6
l-39 6l98 132q28 6 57 6l58 -6l98 -132q-18 -6 -39 -6z" />
    <glyph glyph-name="Otilde" unicode="&#xd5;" horiz-adv-x="599" 
d="M45 182v336q0 94 60 141t194 47q135 0 195 -47t60 -141v-336q0 -94 -60 -141.5t-195 -47.5q-134 0 -194 47.5t-60 141.5zM184 518v-336q0 -53 25.5 -76t89.5 -23t90 23t26 76v336q0 53 -26 75.5t-90 22.5t-89.5 -22.5t-25.5 -75.5zM135 754v4q0 54 18.5 79t65.5 25
q38 0 62.5 -14t40 -27.5t30.5 -13.5q22 0 30.5 10t8.5 34v5q18 6 37 6l36 -6v-4q0 -55 -18 -79.5t-66 -24.5q-38 0 -63 14t-40.5 27.5t-29.5 13.5q-22 0 -30.5 -9.5t-8.5 -34.5v-5q-18 -6 -37 -6z" />
    <glyph glyph-name="Odieresis" unicode="&#xd6;" horiz-adv-x="599" 
d="M45 182v336q0 94 60 141t194 47q135 0 195 -47t60 -141v-336q0 -94 -60 -141.5t-195 -47.5q-134 0 -194 47.5t-60 141.5zM184 518v-336q0 -53 25.5 -76t89.5 -23t90 23t26 76v336q0 53 -26 75.5t-90 22.5t-89.5 -22.5t-25.5 -75.5zM246 859v-106q-23 -6 -52 -6l-52 6v106
q23 7 52 7q13 0 26 -2t20 -4zM456 859v-106q-23 -6 -52 -6l-52 6v106q23 7 52 7q13 0 26 -2t20 -4z" />
    <glyph glyph-name="multiply" unicode="&#xd7;" horiz-adv-x="404" 
d="M85 475l116 -116l116 116q17 -8 34 -25q8 -8 14 -16.5t9 -13.5l2 -4l-116 -116l116 -116q-8 -15 -26 -33q-8 -8 -16 -14l-12 -9l-5 -2l-116 115l-115 -115q-16 7 -34 25q-8 8 -14 16t-8 13l-3 4l115 116l-116 116q8 16 25 34q8 8 16.5 14t12.5 8z" />
    <glyph glyph-name="Oslash" unicode="&#xd8;" horiz-adv-x="599" 
d="M570 697l-45 -71q29 -42 29 -108v-336q0 -94 -60 -141.5t-195 -47.5q-95 0 -156 25l-9 -15q-27 -6 -53 -6l-52 6l44 70q-28 43 -28 109v336q0 94 60 141t194 47q95 0 156 -25l10 16q25 6 52 6zM299 80q68 0 95.5 23.5t27.5 78.5v279l-223 -354q27 -27 100 -27zM177 518
v-280l222 354q-28 28 -100 28q-67 0 -94.5 -23.5t-27.5 -78.5z" />
    <glyph glyph-name="Ugrave" unicode="&#xd9;" horiz-adv-x="600" 
d="M552 697v-515q0 -94 -59.5 -141.5t-192.5 -47.5t-192.5 47.5t-59.5 141.5v515q35 6 70 6l69 -6v-515q0 -53 25.5 -76t87.5 -23t87.5 23t25.5 76v515q34 6 69 6zM305 753l-140 135q32 6 61 6l60 -6l97 -135q-19 -6 -39 -6z" />
    <glyph glyph-name="Uacute" unicode="&#xda;" horiz-adv-x="600" 
d="M552 697v-515q0 -94 -59.5 -141.5t-192.5 -47.5t-192.5 47.5t-59.5 141.5v515q35 6 70 6l69 -6v-515q0 -53 25.5 -76t87.5 -23t87.5 23t25.5 76v515q34 6 69 6zM435 888l-140 -135q-20 -6 -39 -6l-38 6l96 135q29 6 60 6z" />
    <glyph glyph-name="Ucircumflex" unicode="&#xdb;" horiz-adv-x="600" 
d="M552 697v-515q0 -94 -59.5 -141.5t-192.5 -47.5t-192.5 47.5t-59.5 141.5v515q35 6 70 6l69 -6v-515q0 -53 25.5 -76t87.5 -23t87.5 23t25.5 76v515q34 6 69 6zM378 753l-78 78l-78 -78q-20 -6 -38 -6l-39 6l98 132q27 6 56 6l58 -6l98 -132q-18 -6 -38 -6z" />
    <glyph glyph-name="Udieresis" unicode="&#xdc;" horiz-adv-x="600" 
d="M552 697v-515q0 -94 -59.5 -141.5t-192.5 -47.5t-192.5 47.5t-59.5 141.5v515q35 6 70 6l69 -6v-515q0 -53 25.5 -76t87.5 -23t87.5 23t25.5 76v515q34 6 69 6zM247 859v-106q-23 -6 -52 -6l-52 6v106q23 7 52 7q13 0 26 -2t19 -4zM457 859v-106q-23 -6 -52 -6l-52 6v106
q23 7 52 7q13 0 26 -2t19 -4z" />
    <glyph glyph-name="Yacute" unicode="&#xdd;" horiz-adv-x="610" 
d="M587 697l-212 -431v-263q-35 -6 -70 -6l-69 6v262l-213 432q42 6 75 6l75 -6l132 -297l132 297q40 6 75 6zM440 888l-140 -135q-20 -6 -39 -6l-38 6l96 135q29 6 60 6z" />
    <glyph glyph-name="Thorn" unicode="&#xde;" horiz-adv-x="542" 
d="M187 697v-128q34 3 84 3q120 0 173.5 -46.5t53.5 -140.5v-49q0 -94 -53 -140t-174 -46l-84 3v-150q-35 -6 -69 -6l-70 6v694q35 6 70 6zM187 483v-245h80q52 0 72 22.5t20 75.5v49q0 54 -20 76t-72 22h-80z" />
    <glyph glyph-name="germandbls" unicode="&#xdf;" horiz-adv-x="710" 
d="M84 4v414h-46q-6 16 -6 41q0 11 1.5 21.5t2.5 15.5l2 5h46v44q0 81 47.5 121t156.5 40t157 -40t48 -121v-17q0 -38 -13 -62.5t-28 -34t-28 -24.5t-13 -35v-15q0 -20 16 -30t48 -17q31 -6 49 -11t50 -17t50 -27t32.5 -40.5t14.5 -57.5v-20q0 -72 -46 -108t-152 -36
q-110 0 -152.5 37.5t-42.5 116.5v9q32 6 64 6l64 -6v-9q0 -38 14.5 -54.5t51.5 -16.5q38 0 52.5 14t14.5 47v20q0 37 -69 51q-30 6 -48 10.5t-48.5 17t-48 26.5t-31.5 39t-14 56v15q0 30 8.5 51.5t20 32t23.5 19.5t20.5 22t8.5 31v17q0 35 -16 49.5t-58 14.5
q-39 0 -55 -15.5t-16 -48.5v-541q-33 -6 -66 -6z" />
    <glyph glyph-name="agrave" unicode="&#xe0;" 
d="M335 3v32q-6 -5 -18 -12t-50 -18.5t-78 -11.5q-76 0 -110 36t-34 108v13q0 62 43 96t142 46l105 12v42q0 41 -17.5 59t-61.5 18q-43 0 -60 -17t-17 -57v-10q-30 -6 -62 -6l-63 6v10q0 80 44 118.5t158 38.5q113 0 162 -40t49 -120v-343q-33 -6 -66 -6zM335 224l-81 -11
q-77 -11 -77 -63v-13q0 -32 14 -46.5t50 -14.5q30 0 53.5 9t31.5 18l9 9v112zM262 562l-140 135q32 6 61 6l60 -6l97 -135q-19 -6 -39 -6z" />
    <glyph glyph-name="aacute" unicode="&#xe1;" 
d="M335 3v32q-6 -5 -18 -12t-50 -18.5t-78 -11.5q-76 0 -110 36t-34 108v13q0 62 43 96t142 46l105 12v42q0 41 -17.5 59t-61.5 18q-43 0 -60 -17t-17 -57v-10q-30 -6 -62 -6l-63 6v10q0 80 44 118.5t158 38.5q113 0 162 -40t49 -120v-343q-33 -6 -66 -6zM335 224l-81 -11
q-77 -11 -77 -63v-13q0 -32 14 -46.5t50 -14.5q30 0 53.5 9t31.5 18l9 9v112zM392 697l-139 -135q-21 -6 -39 -6l-39 6l96 135q29 6 60 6z" />
    <glyph glyph-name="acircumflex" unicode="&#xe2;" 
d="M335 3v32q-6 -5 -18 -12t-50 -18.5t-78 -11.5q-76 0 -110 36t-34 108v13q0 62 43 96t142 46l105 12v42q0 41 -17.5 59t-61.5 18q-43 0 -60 -17t-17 -57v-10q-30 -6 -62 -6l-63 6v10q0 80 44 118.5t158 38.5q113 0 162 -40t49 -120v-343q-33 -6 -66 -6zM335 224l-81 -11
q-77 -11 -77 -63v-13q0 -32 14 -46.5t50 -14.5q30 0 53.5 9t31.5 18l9 9v112zM335 565l-78 78l-77 -78q-21 -6 -39 -6l-39 6l98 132q28 6 57 6l57 -6l99 -132q-19 -6 -39 -6z" />
    <glyph glyph-name="atilde" unicode="&#xe3;" 
d="M335 3v32q-6 -5 -18 -12t-50 -18.5t-78 -11.5q-76 0 -110 36t-34 108v13q0 62 43 96t142 46l105 12v42q0 41 -17.5 59t-61.5 18q-43 0 -60 -17t-17 -57v-10q-30 -6 -62 -6l-63 6v10q0 80 44 118.5t158 38.5q113 0 162 -40t49 -120v-343q-33 -6 -66 -6zM335 224l-81 -11
q-77 -11 -77 -63v-13q0 -32 14 -46.5t50 -14.5q30 0 53.5 9t31.5 18l9 9v112zM93 593v4q0 54 18.5 79t65.5 25q38 0 62.5 -14t40 -28t30.5 -14q22 0 30.5 10t8.5 34v5q18 7 37 7q8 0 17 -1.5t14 -3.5l5 -2v-4q0 -54 -18 -79t-66 -25q-38 0 -63 14t-40.5 28t-29.5 14
q-22 0 -31 -10t-9 -34v-5q-18 -7 -36 -7q-8 0 -17 2t-14 4z" />
    <glyph glyph-name="adieresis" unicode="&#xe4;" 
d="M335 3v32q-6 -5 -18 -12t-50 -18.5t-78 -11.5q-76 0 -110 36t-34 108v13q0 62 43 96t142 46l105 12v42q0 41 -17.5 59t-61.5 18q-43 0 -60 -17t-17 -57v-10q-30 -6 -62 -6l-63 6v10q0 80 44 118.5t158 38.5q113 0 162 -40t49 -120v-343q-33 -6 -66 -6zM335 224l-81 -11
q-77 -11 -77 -63v-13q0 -32 14 -46.5t50 -14.5q30 0 53.5 9t31.5 18l9 9v112zM204 697v-106q-23 -7 -52 -7q-13 0 -26 2t-20 4l-6 1v106q23 6 52 6zM414 697v-106q-23 -7 -52 -7q-13 0 -26 2t-20 4l-6 1v106q23 6 52 6z" />
    <glyph glyph-name="aring" unicode="&#xe5;" 
d="M335 3v32q-6 -5 -18 -12t-50 -18.5t-78 -11.5q-76 0 -110 36t-34 108v13q0 62 43 96t142 46l105 12v42q0 41 -17.5 59t-61.5 18q-43 0 -60 -17t-17 -57v-10q-30 -6 -62 -6l-63 6v10q0 80 44 118.5t158 38.5q113 0 162 -40t49 -120v-343q-33 -6 -66 -6zM168 615v16
q0 72 89 72t89 -72v-16q0 -72 -89 -72t-89 72zM335 224l-81 -11q-77 -11 -77 -63v-13q0 -32 14 -46.5t50 -14.5q30 0 53.5 9t31.5 18l9 9v112zM220 631v-16q0 -30 37 -30q38 0 38 30v16q0 29 -38 29q-37 0 -37 -29z" />
    <glyph glyph-name="ae" unicode="&#xe6;" horiz-adv-x="790" 
d="M189 -7q-76 0 -110 36t-34 108v13q0 62 43 96t142 46l105 12v42q0 41 -17.5 59t-61.5 18q-43 0 -60 -17t-17 -57v-10q-30 -6 -62 -6l-63 6v10q0 80 44 118.5t158 38.5q108 0 146 -57q37 57 143 57q113 0 156.5 -42t43.5 -129v-117q-47 -12 -139 -12h-139v-42
q0 -48 22.5 -68t79.5 -20q41 0 80 8t57.5 15t18.5 8l1 -2q1 -2 2 -6t2 -8.5t2 -11.5t1 -14q0 -11 -2 -21.5t-4 -15.5l-2 -4q-60 -31 -156 -31q-129 0 -171 68q-53 -68 -209 -68zM335 224l-81 -11q-77 -11 -77 -63v-13q0 -32 14 -46.5t50 -14.5q52 0 73 20.5t21 67.5v60z
M467 289h153v46q0 48 -17 68t-60 20t-59.5 -20t-16.5 -68v-46z" />
    <glyph glyph-name="ccedilla" unicode="&#xe7;" horiz-adv-x="491" 
d="M45 164v171q0 86 49 128.5t162 42.5q110 0 153 -41.5t43 -129.5v-12q-29 -6 -59 -6l-59 6v12q0 48 -17 68t-61 20q-45 0 -62 -20t-17 -68v-171q0 -48 22.5 -68t80.5 -20q41 0 79 8t56 15t18 8l1 -2q0 -2 1 -6t2.5 -8.5t2 -11.5t0.5 -14q0 -11 -2 -21.5t-4 -15.5l-1 -4
q-59 -31 -152 -31v-12q0 -13 14 -21.5t31 -12.5t31 -17t14 -35v-10q0 -36 -25 -54t-81 -18q-59 0 -81.5 19t-22.5 58v5q19 3 35 3l34 -3v-5q0 -18 7.5 -25t27.5 -7q19 0 26.5 6t7.5 21v10q0 11 -14 18.5t-30.5 11.5t-30.5 18.5t-14 37.5v16q-87 11 -126 53t-39 114z" />
    <glyph glyph-name="egrave" unicode="&#xe8;" horiz-adv-x="509" 
d="M45 164v171q0 86 49.5 128.5t163.5 42.5q116 0 161 -41.5t45 -129.5v-117q-49 -12 -144 -12h-143v-42q0 -48 23 -68t82 -20q43 0 83.5 8t59.5 15t19 8l1 -2q1 -2 2 -6t2 -8.5t2 -11.5t1 -14q0 -11 -2 -21.5t-4 -15.5l-2 -4q-62 -31 -162 -31q-126 0 -181.5 43t-55.5 128z
M177 289h162v46q0 48 -17.5 68t-63.5 20t-63.5 -20t-17.5 -68v-46zM259 562l-140 135q32 6 62 6l60 -6l96 -135q-18 -6 -39 -6z" />
    <glyph glyph-name="eacute" unicode="&#xe9;" horiz-adv-x="509" 
d="M45 164v171q0 86 49.5 128.5t163.5 42.5q116 0 161 -41.5t45 -129.5v-117q-49 -12 -144 -12h-143v-42q0 -48 23 -68t82 -20q43 0 83.5 8t59.5 15t19 8l1 -2q1 -2 2 -6t2 -8.5t2 -11.5t1 -14q0 -11 -2 -21.5t-4 -15.5l-2 -4q-62 -31 -162 -31q-126 0 -181.5 43t-55.5 128z
M177 289h162v46q0 48 -17.5 68t-63.5 20t-63.5 -20t-17.5 -68v-46zM389 697l-140 -135q-20 -6 -38 -6l-39 6l96 135q29 6 60 6z" />
    <glyph glyph-name="ecircumflex" unicode="&#xea;" horiz-adv-x="509" 
d="M45 164v171q0 86 49.5 128.5t163.5 42.5q116 0 161 -41.5t45 -129.5v-117q-49 -12 -144 -12h-143v-42q0 -48 23 -68t82 -20q43 0 83.5 8t59.5 15t19 8l1 -2q1 -2 2 -6t2 -8.5t2 -11.5t1 -14q0 -11 -2 -21.5t-4 -15.5l-2 -4q-62 -31 -162 -31q-126 0 -181.5 43t-55.5 128z
M177 289h162v46q0 48 -17.5 68t-63.5 20t-63.5 -20t-17.5 -68v-46zM332 565l-78 78l-77 -78q-20 -6 -39 -6l-39 6l98 132q28 6 57 6l58 -6l98 -132q-18 -6 -39 -6z" />
    <glyph glyph-name="edieresis" unicode="&#xeb;" horiz-adv-x="509" 
d="M45 164v171q0 86 49.5 128.5t163.5 42.5q116 0 161 -41.5t45 -129.5v-117q-49 -12 -144 -12h-143v-42q0 -48 23 -68t82 -20q43 0 83.5 8t59.5 15t19 8l1 -2q1 -2 2 -6t2 -8.5t2 -11.5t1 -14q0 -11 -2 -21.5t-4 -15.5l-2 -4q-62 -31 -162 -31q-126 0 -181.5 43t-55.5 128z
M177 289h162v46q0 48 -17.5 68t-63.5 20t-63.5 -20t-17.5 -68v-46zM201 697v-106q-23 -7 -52 -7q-13 0 -26 2t-19 4l-7 1v106q23 6 52 6q13 0 26 -1.5t19 -3.5zM411 697v-106q-23 -7 -52 -7q-13 0 -26 2t-19 4l-7 1v106q23 6 52 6q13 0 26 -1.5t19 -3.5z" />
    <glyph glyph-name="igrave" unicode="&#xec;" horiz-adv-x="229" 
d="M119 562l-140 135q32 6 62 6l60 -6l96 -135q-18 -6 -39 -6zM180 497v-494q-33 -6 -66 -6l-66 6v494q33 6 66 6z" />
    <glyph glyph-name="iacute" unicode="&#xed;" horiz-adv-x="229" 
d="M250 697l-140 -135q-21 -6 -39 -6l-39 6l96 135q29 6 60 6zM180 497v-494q-33 -6 -66 -6l-66 6v494q33 6 66 6z" />
    <glyph glyph-name="icircumflex" unicode="&#xee;" horiz-adv-x="229" 
d="M192 565l-78 78l-77 -78q-20 -6 -39 -6l-39 6l98 132q28 6 57 6l58 -6l98 -132q-18 -6 -39 -6zM180 497v-494q-33 -6 -66 -6l-66 6v494q33 6 66 6z" />
    <glyph glyph-name="idieresis" unicode="&#xef;" horiz-adv-x="229" 
d="M180 497v-494q-33 -6 -66 -6l-66 6v494q33 6 66 6zM82 697v-106q-23 -7 -52 -7q-13 0 -26 2t-20 4l-6 1v106q23 6 52 6q13 0 26 -1.5t20 -3.5zM250 697v-106q-23 -7 -52 -7q-13 0 -26 2t-20 4l-6 1v106q23 6 52 6q13 0 26 -1.5t20 -3.5z" />
    <glyph glyph-name="eth" unicode="&#xf0;" horiz-adv-x="517" 
d="M411 697l-48 -49q109 -57 109 -148v-336q0 -85 -50 -128t-163 -43t-163.5 43t-50.5 128v171q0 85 36 128t117 43q39 0 74.5 -10t51.5 -20l16 -11v35q0 41 -50 74l-27 -28q-22 -7 -43 -7q-10 0 -20.5 1.5t-16.5 3.5l-6 2l52 55q-31 11 -67 18.5t-57 9.5l-21 2q-6 16 -6 41
q0 11 1.5 21.5t2.5 14.5l2 5q110 -4 213 -38l21 22q22 6 46 6zM340 164v224q-3 4 -9.5 10t-30.5 15.5t-54 9.5q-39 0 -54 -20t-15 -68v-171q0 -47 18 -67.5t64 -20.5q45 0 63 20.5t18 67.5z" />
    <glyph glyph-name="ntilde" unicode="&#xf1;" horiz-adv-x="519" 
d="M95 593v4q0 54 18.5 79t65.5 25q38 0 62.5 -14t40 -28t30.5 -14q22 0 30.5 10t8.5 34v5q18 7 37 7q8 0 17 -1.5t14 -3.5l5 -2v-4q0 -54 -18 -79t-66 -25q-30 0 -52.5 9t-33 19t-23 19t-24.5 9q-22 0 -31 -10t-9 -34v-5q-18 -7 -36 -7q-8 0 -17 2t-14 4zM180 497v-32
q6 5 17.5 11.5t48.5 18t76 11.5q81 0 116.5 -43t35.5 -128v-332q-32 -6 -66 -6l-66 6v332q0 48 -15 68t-54 20q-29 0 -52.5 -8.5t-32.5 -17.5l-8 -9v-385q-33 -6 -66 -6l-66 6v494q33 6 66 6z" />
    <glyph glyph-name="ograve" unicode="&#xf2;" horiz-adv-x="519" 
d="M45 164v171q0 85 50 128t164 43t164.5 -43t50.5 -128v-171q0 -85 -50.5 -128t-164.5 -43q-113 0 -163.5 43t-50.5 128zM177 335v-171q0 -47 18 -67.5t64 -20.5t64.5 20.5t18.5 67.5v171q0 48 -18.5 68t-64.5 20t-64 -20t-18 -68zM264 562l-140 135q32 6 62 6l60 -6
l96 -135q-18 -6 -39 -6z" />
    <glyph glyph-name="oacute" unicode="&#xf3;" horiz-adv-x="519" 
d="M45 164v171q0 85 50 128t164 43t164.5 -43t50.5 -128v-171q0 -85 -50.5 -128t-164.5 -43q-113 0 -163.5 43t-50.5 128zM177 335v-171q0 -47 18 -67.5t64 -20.5t64.5 20.5t18.5 67.5v171q0 48 -18.5 68t-64.5 20t-64 -20t-18 -68zM394 697l-140 -135q-20 -6 -38 -6l-39 6
l96 135q29 6 60 6z" />
    <glyph glyph-name="ocircumflex" unicode="&#xf4;" horiz-adv-x="519" 
d="M45 164v171q0 85 50 128t164 43t164.5 -43t50.5 -128v-171q0 -85 -50.5 -128t-164.5 -43q-113 0 -163.5 43t-50.5 128zM177 335v-171q0 -47 18 -67.5t64 -20.5t64.5 20.5t18.5 67.5v171q0 48 -18.5 68t-64.5 20t-64 -20t-18 -68zM337 565l-78 78l-77 -78q-20 -6 -39 -6
l-39 6l98 132q28 6 57 6l58 -6l98 -132q-18 -6 -39 -6z" />
    <glyph glyph-name="otilde" unicode="&#xf5;" horiz-adv-x="519" 
d="M45 164v171q0 85 50 128t164 43t164.5 -43t50.5 -128v-171q0 -85 -50.5 -128t-164.5 -43q-113 0 -163.5 43t-50.5 128zM177 335v-171q0 -47 18 -67.5t64 -20.5t64.5 20.5t18.5 67.5v171q0 48 -18.5 68t-64.5 20t-64 -20t-18 -68zM95 593v4q0 54 18.5 79t65.5 25
q38 0 62.5 -14t40 -28t30.5 -14q22 0 30.5 10t8.5 34v5q18 7 37 7q8 0 17 -1.5t14 -3.5l5 -2v-4q0 -54 -18 -79t-66 -25q-30 0 -52.5 9t-33 19t-23 19t-24.5 9q-22 0 -30.5 -10t-8.5 -34v-5q-18 -7 -37 -7q-8 0 -17 2t-14 4z" />
    <glyph glyph-name="odieresis" unicode="&#xf6;" horiz-adv-x="519" 
d="M45 164v171q0 85 50 128t164 43t164.5 -43t50.5 -128v-171q0 -85 -50.5 -128t-164.5 -43q-113 0 -163.5 43t-50.5 128zM177 335v-171q0 -47 18 -67.5t64 -20.5t64.5 20.5t18.5 67.5v171q0 48 -18.5 68t-64.5 20t-64 -20t-18 -68zM206 697v-106q-23 -7 -52 -7q-13 0 -26 2
t-20 4l-6 1v106q23 6 52 6q13 0 26 -1.5t20 -3.5zM416 697v-106q-23 -7 -52 -7q-13 0 -26 2t-20 4l-6 1v106q23 6 52 6q13 0 26 -1.5t20 -3.5z" />
    <glyph glyph-name="divide" unicode="&#xf7;" horiz-adv-x="418" 
d="M382 251h-347q-6 16 -6 42q0 11 1.5 21.5t3.5 15.5l1 4h347q6 -16 6 -41q0 -11 -1.5 -21.5t-2.5 -15.5zM259 492v-103q-26 -5 -50 -5l-51 5v103q25 5 51 5zM259 197v-103q-26 -5 -50 -5l-51 5v103q25 5 51 5z" />
    <glyph glyph-name="oslash" unicode="&#xf8;" horiz-adv-x="519" 
d="M480 497l-39 -53q33 -40 33 -109v-171q0 -85 -50.5 -128t-164.5 -43q-80 0 -130 22l-9 -12q-22 -6 -43 -6l-42 6l40 54q-30 40 -30 107v171q0 85 50 128t164 43q80 0 128 -21l9 12q20 6 42 6zM259 69q55 0 76 21.5t21 73.5v162l-172 -236q21 -21 75 -21zM163 335v-157
l170 232q-21 20 -74 20q-54 0 -75 -21.5t-21 -73.5z" />
    <glyph glyph-name="ugrave" unicode="&#xf9;" horiz-adv-x="518" 
d="M341 3v32q-6 -5 -17.5 -12t-48 -18.5t-74.5 -11.5q-81 0 -117 43t-36 128v333q33 6 66 6l66 -6v-333q0 -48 15 -68t54 -20q29 0 52 9t31 18l9 9v385q33 6 66 6l66 -6v-494q-33 -6 -66 -6zM263 562l-140 135q32 6 62 6l60 -6l96 -135q-18 -6 -39 -6z" />
    <glyph glyph-name="uacute" unicode="&#xfa;" horiz-adv-x="518" 
d="M341 3v32q-6 -5 -17.5 -12t-48 -18.5t-74.5 -11.5q-81 0 -117 43t-36 128v333q33 6 66 6l66 -6v-333q0 -48 15 -68t54 -20q29 0 52 9t31 18l9 9v385q33 6 66 6l66 -6v-494q-33 -6 -66 -6zM394 697l-140 -135q-21 -6 -39 -6l-39 6l96 135q29 6 60 6z" />
    <glyph glyph-name="ucircumflex" unicode="&#xfb;" horiz-adv-x="518" 
d="M341 3v32q-6 -5 -17.5 -12t-48 -18.5t-74.5 -11.5q-81 0 -117 43t-36 128v333q33 6 66 6l66 -6v-333q0 -48 15 -68t54 -20q29 0 52 9t31 18l9 9v385q33 6 66 6l66 -6v-494q-33 -6 -66 -6zM336 565l-78 78l-77 -78q-20 -6 -39 -6l-39 6l98 132q28 6 57 6l58 -6l98 -132
q-18 -6 -39 -6z" />
    <glyph glyph-name="udieresis" unicode="&#xfc;" horiz-adv-x="518" 
d="M341 3v32q-6 -5 -17.5 -12t-48 -18.5t-74.5 -11.5q-81 0 -117 43t-36 128v333q33 6 66 6l66 -6v-333q0 -48 15 -68t54 -20q29 0 52 9t31 18l9 9v385q33 6 66 6l66 -6v-494q-33 -6 -66 -6zM205 697v-106q-23 -7 -52 -7q-13 0 -26 2t-19 4l-7 1v106q23 6 52 6q13 0 26 -1.5
t19 -3.5zM415 697v-106q-23 -7 -52 -7q-13 0 -26 2t-19 4l-7 1v106q23 6 52 6q13 0 26 -1.5t19 -3.5z" />
    <glyph glyph-name="yacute" unicode="&#xfd;" horiz-adv-x="516" 
d="M205 -56l18 55l-42 4l-163 494q33 6 63 6l66 -6l113 -383l113 383q35 6 66 6l64 -6l-182 -549q-25 -82 -68 -118.5t-121 -36.5q-17 0 -32.5 3t-23.5 6l-7 3q-7 15 -7 39q0 10 2 20t4 14l1 5q22 -7 61 -7q55 0 75 68zM393 697l-140 -135q-20 -6 -39 -6l-39 6l97 135
q28 6 59 6z" />
    <glyph glyph-name="thorn" unicode="&#xfe;" horiz-adv-x="516" 
d="M180 697v-232q6 5 17.5 11.5t48 18t74.5 11.5q81 0 116 -42.5t35 -128.5v-171q0 -85 -42 -128t-139 -43q-33 0 -60.5 8t-38.5 16l-11 8v-222q-32 -6 -66 -6l-66 6v894q33 6 66 6zM339 164v171q0 48 -14.5 68t-52.5 20q-29 0 -52 -8.5t-32 -17.5l-8 -9v-224
q0 -47 19.5 -67.5t66.5 -20.5q41 0 57 20t16 68z" />
    <glyph glyph-name="ydieresis" unicode="&#xff;" horiz-adv-x="516" 
d="M205 -56l18 55l-42 4l-163 494q33 6 63 6l66 -6l113 -383l113 383q35 6 66 6l64 -6l-182 -549q-25 -82 -68 -118.5t-121 -36.5q-17 0 -32.5 3t-23.5 6l-7 3q-7 15 -7 39q0 10 2 20t4 14l1 5q22 -7 61 -7q55 0 75 68zM205 697v-106q-24 -7 -52 -7q-13 0 -26 2t-19 4l-7 1
v106q23 6 52 6zM415 697v-106q-24 -7 -52 -7q-13 0 -26 2t-19 4l-7 1v106q23 6 52 6z" />
    <glyph glyph-name="Amacron" unicode="&#x100;" horiz-adv-x="612" 
d="M14 3l198 694q44 6 94 6l94 -6l198 -694q-35 -6 -66 -6l-70 6l-43 157h-225l-44 -157q-36 -6 -69 -6zM307 588l-93 -338h184zM441 771h-270q-6 12 -6 31q0 8 1.5 16t3.5 12l1 3h270q6 -12 6 -31q0 -8 -1.5 -16t-3.5 -12z" />
    <glyph glyph-name="amacron" unicode="&#x101;" 
d="M335 3v32q-6 -5 -18 -12t-50 -18.5t-78 -11.5q-76 0 -110 36t-34 108v13q0 62 43 96t142 46l105 12v42q0 41 -17.5 59t-61.5 18q-43 0 -60 -17t-17 -57v-10q-30 -6 -62 -6l-63 6v10q0 80 44 118.5t158 38.5q113 0 162 -40t49 -120v-343q-33 -6 -66 -6zM335 224l-81 -11
q-77 -11 -77 -63v-13q0 -32 14 -46.5t50 -14.5q30 0 53.5 9t31.5 18l9 9v112zM393 590h-271q-6 12 -6 31q0 8 1.5 16t2.5 11l2 4h271q6 -12 6 -31q0 -8 -1.5 -15.5t-3.5 -11.5z" />
    <glyph glyph-name="Abreve" unicode="&#x102;" horiz-adv-x="612" 
d="M14 3l198 694q44 6 94 6l94 -6l198 -694q-35 -6 -66 -6l-70 6l-43 157h-225l-44 -157q-36 -6 -69 -6zM307 588l-93 -338h184zM306 747q-84 0 -116.5 28.5t-32.5 88.5v10q22 6 43 6l44 -6v-11q0 -32 13.5 -45t48.5 -13t48.5 13t13.5 45v11q21 6 42 6l44 -6v-10
q0 -60 -32 -88.5t-116 -28.5z" />
    <glyph glyph-name="abreve" unicode="&#x103;" 
d="M335 3v32q-6 -5 -18 -12t-50 -18.5t-78 -11.5q-76 0 -110 36t-34 108v13q0 62 43 96t142 46l105 12v42q0 41 -17.5 59t-61.5 18q-43 0 -60 -17t-17 -57v-10q-30 -6 -62 -6l-63 6v10q0 80 44 118.5t158 38.5q113 0 162 -40t49 -120v-343q-33 -6 -66 -6zM335 224l-81 -11
q-77 -11 -77 -63v-13q0 -32 14 -46.5t50 -14.5q30 0 53.5 9t31.5 18l9 9v112zM257 569q-84 0 -116 28.5t-32 89.5v9q21 6 43 6l43 -6v-11q0 -31 13.5 -44t48.5 -13t48.5 13t13.5 44v11q22 6 43 6l44 -6v-9q0 -61 -32.5 -89.5t-116.5 -28.5z" />
    <glyph glyph-name="Aogonek" unicode="&#x104;" horiz-adv-x="612" 
d="M471 -92q0 45 47 89l-56 6l-43 157h-225l-44 -157q-36 -6 -69 -6l-67 6l198 694q44 6 94 6l94 -6l198 -694q-9 -2 -21 -3q-34 -45 -34 -82q0 -35 34 -35q11 0 21 3t15 6l5 3q4 -11 4 -24l-4 -23q-20 -18 -62 -18t-63.5 20.5t-21.5 57.5zM307 588l-93 -338h184z" />
    <glyph glyph-name="aogonek" unicode="&#x105;" 
d="M339 -92q0 44 48 89l-52 6v32q-6 -5 -18 -12t-50 -18.5t-78 -11.5q-76 0 -110 36t-34 108v13q0 62 43 96t142 46l105 12v42q0 41 -17.5 59t-61.5 18q-43 0 -60 -17t-17 -57v-10q-30 -6 -62 -6l-63 6v10q0 80 44 118.5t158 38.5q113 0 162 -40t49 -120v-343q-10 -2 -22 -3
q-34 -44 -34 -82q0 -35 34 -35q11 0 21 3t15 6l5 3q4 -11 4 -24l-4 -23q-20 -18 -62 -18t-63.5 20.5t-21.5 57.5zM335 224l-81 -11q-77 -11 -77 -63v-13q0 -32 14 -46.5t50 -14.5q30 0 53.5 9t31.5 18l9 9v112z" />
    <glyph glyph-name="Cacute" unicode="&#x106;" horiz-adv-x="568" 
d="M45 182v336q0 94 58.5 141t191.5 47t184.5 -46t51.5 -142v-12q-31 -7 -62 -7q-14 0 -30 1.5t-25 3.5l-8 2v12q0 54 -24 76t-87 22t-87 -22t-24 -76v-336q0 -54 28 -76.5t100 -22.5q53 0 103 11t73.5 20.5t23.5 11.5l1 -2q1 -2 2 -6t2 -9t2 -12.5t1 -15.5q0 -13 -2 -24.5
t-4 -16.5l-2 -6q-9 -5 -25 -11.5t-68.5 -18t-107.5 -11.5q-142 0 -204 47.5t-62 141.5zM419 888l-140 -135q-20 -6 -39 -6l-39 6l97 135q29 6 60 6z" />
    <glyph glyph-name="cacute" unicode="&#x107;" horiz-adv-x="491" 
d="M45 164v171q0 86 49 128.5t162 42.5q110 0 153 -41.5t43 -129.5v-12q-29 -6 -59 -6l-59 6v12q0 48 -17 68t-61 20q-45 0 -62 -20t-17 -68v-171q0 -48 22.5 -68t80.5 -20q41 0 79 8t56 15t18 8l1 -2q0 -2 1 -6t2.5 -8.5t2 -11.5t0.5 -14q0 -11 -2 -21.5t-4 -15.5l-1 -4
q-59 -31 -153 -31q-125 0 -180 43t-55 128zM381 697l-140 -135q-20 -6 -38 -6l-39 6l96 135q29 6 60 6z" />
    <glyph glyph-name="Ccircumflex" unicode="&#x108;" horiz-adv-x="568" 
d="M45 182v336q0 94 58.5 141t191.5 47t184.5 -46t51.5 -142v-12q-31 -7 -62 -7q-14 0 -30 1.5t-25 3.5l-8 2v12q0 54 -24 76t-87 22t-87 -22t-24 -76v-336q0 -54 28 -76.5t100 -22.5q53 0 103 11t73.5 20.5t23.5 11.5l1 -2q1 -2 2 -6t2 -9t2 -12.5t1 -15.5q0 -13 -2 -24.5
t-4 -16.5l-2 -6q-9 -5 -25 -11.5t-68.5 -18t-107.5 -11.5q-142 0 -204 47.5t-62 141.5zM361 753l-77 78l-78 -78q-20 -6 -39 -6l-39 6l99 132q27 6 56 6l58 -6l98 -132q-18 -6 -39 -6z" />
    <glyph glyph-name="ccircumflex" unicode="&#x109;" horiz-adv-x="491" 
d="M45 164v171q0 86 49 128.5t162 42.5q110 0 153 -41.5t43 -129.5v-12q-29 -6 -59 -6l-59 6v12q0 48 -17 68t-61 20q-45 0 -62 -20t-17 -68v-171q0 -48 22.5 -68t80.5 -20q41 0 79 8t56 15t18 8l1 -2q0 -2 1 -6t2.5 -8.5t2 -11.5t0.5 -14q0 -11 -2 -21.5t-4 -15.5l-1 -4
q-59 -31 -153 -31q-125 0 -180 43t-55 128zM324 565l-78 78l-77 -78q-20 -6 -39 -6l-39 6l98 132q28 6 57 6l58 -6l98 -132q-18 -6 -39 -6z" />
    <glyph glyph-name="Cdotaccent" unicode="&#x10a;" horiz-adv-x="568" 
d="M45 182v336q0 94 58.5 141t191.5 47t184.5 -46t51.5 -142v-12q-31 -7 -62 -7q-14 0 -30 1.5t-25 3.5l-8 2v12q0 54 -24 76t-87 22t-87 -22t-24 -76v-336q0 -54 28 -76.5t100 -22.5q53 0 103 11t73.5 20.5t23.5 11.5l1 -2q1 -2 2 -6t2 -9t2 -12.5t1 -15.5q0 -13 -2 -24.5
t-4 -16.5l-2 -6q-9 -5 -25 -11.5t-68.5 -18t-107.5 -11.5q-142 0 -204 47.5t-62 141.5zM350 870v-116q-33 -6 -66 -6l-66 6v116q33 7 66 7q15 0 31.5 -1.5t25.5 -3.5z" />
    <glyph glyph-name="cdotaccent" unicode="&#x10b;" horiz-adv-x="491" 
d="M45 164v171q0 86 49 128.5t162 42.5q110 0 153 -41.5t43 -129.5v-12q-29 -6 -59 -6l-59 6v12q0 48 -17 68t-61 20q-45 0 -62 -20t-17 -68v-171q0 -48 22.5 -68t80.5 -20q41 0 79 8t56 15t18 8l1 -2q0 -2 1 -6t2.5 -8.5t2 -11.5t0.5 -14q0 -11 -2 -21.5t-4 -15.5l-1 -4
q-59 -31 -153 -31q-125 0 -180 43t-55 128zM312 697v-117q-33 -6 -66 -6l-66 6v117q33 6 66 6z" />
    <glyph glyph-name="Ccaron" unicode="&#x10c;" horiz-adv-x="568" 
d="M45 182v336q0 94 58.5 141t191.5 47t184.5 -46t51.5 -142v-12q-31 -7 -62 -7q-14 0 -30 1.5t-25 3.5l-8 2v12q0 54 -24 76t-87 22t-87 -22t-24 -76v-336q0 -54 28 -76.5t100 -22.5q53 0 103 11t73.5 20.5t23.5 11.5l1 -2q1 -2 2 -6t2 -9t2 -12.5t1 -15.5q0 -13 -2 -24.5
t-4 -16.5l-2 -6q-9 -5 -25 -11.5t-68.5 -18t-107.5 -11.5q-142 0 -204 47.5t-62 141.5zM206 885l78 -78l77 78q21 6 39 6l39 -6l-98 -132q-27 -6 -56 -6l-58 6l-99 132q19 6 39 6z" />
    <glyph glyph-name="ccaron" unicode="&#x10d;" horiz-adv-x="491" 
d="M45 164v171q0 86 49 128.5t162 42.5q110 0 153 -41.5t43 -129.5v-12q-29 -6 -59 -6l-59 6v12q0 48 -17 68t-61 20q-45 0 -62 -20t-17 -68v-171q0 -48 22.5 -68t80.5 -20q41 0 79 8t56 15t18 8l1 -2q0 -2 1 -6t2.5 -8.5t2 -11.5t0.5 -14q0 -11 -2 -21.5t-4 -15.5l-1 -4
q-59 -31 -153 -31q-125 0 -180 43t-55 128zM169 697l77 -78l78 78q20 6 39 6l39 -6l-98 -132q-28 -6 -57 -6l-58 6l-98 132q18 6 39 6z" />
    <glyph glyph-name="Dcaron" unicode="&#x10e;" horiz-adv-x="591" 
d="M48 692q98 12 244 12q135 0 194.5 -46t59.5 -140v-336q0 -94 -59.5 -140t-194.5 -46q-65 0 -126 3t-90 6l-28 3v684zM187 616v-532h105q64 0 89.5 22.5t25.5 75.5v336q0 53 -25.5 75.5t-89.5 22.5h-105zM215 885l78 -78l77 78q20 6 39 6l39 -6l-98 -132q-28 -6 -57 -6
l-58 6l-98 132q18 6 39 6z" />
    <glyph glyph-name="dcaron" unicode="&#x10f;" horiz-adv-x="656" 
d="M336 3v32q-6 -5 -17.5 -12t-48 -18.5t-74.5 -11.5q-80 0 -115.5 43t-35.5 128v171q0 85 42.5 128t138.5 43q34 0 61.5 -8t38.5 -16l10 -7v222q33 6 66 6l66 -6v-694q-33 -6 -66 -6zM177 335v-171q0 -48 15 -68t53 -20q29 0 51.5 9t31.5 18l8 9v223q0 48 -19 68t-66 20
q-42 0 -58 -20t-16 -68zM663 697q0 -47 -8.5 -88.5t-20.5 -67t-23.5 -44t-20.5 -26.5l-8 -8q-15 -6 -31 -6l-31 6q4 8 10.5 25t17.5 77.5t11 131.5q26 6 52 6z" />
    <glyph glyph-name="Dcroat" unicode="&#x110;" horiz-adv-x="624" 
d="M81 692q97 12 243 12q135 0 195 -46.5t60 -139.5v-336q0 -93 -60 -139.5t-195 -46.5q-65 0 -125.5 3t-88.5 6l-29 3v310h-46q-6 16 -6 42q0 11 1.5 21.5t3.5 14.5l1 5h46v291zM332 318h-112v-234h104q64 0 90 22.5t26 75.5v336q0 53 -26 75.5t-90 22.5h-104v-215h112
q6 -16 6 -41q0 -11 -1.5 -21.5t-2.5 -15.5z" />
    <glyph glyph-name="dcroat" unicode="&#x111;" horiz-adv-x="549" 
d="M514 568h-46v-565q-33 -6 -66 -6l-66 6v32q-6 -5 -17.5 -12t-48 -18.5t-74.5 -11.5q-80 0 -115.5 43t-35.5 128v171q0 85 42.5 128t138.5 43q33 0 60 -7.5t38 -14.5t12 -9v93h-143q-6 15 -6 38q0 10 1.5 19.5t3.5 14.5l1 4h143v53q33 6 66 6l66 -6v-53h46q6 -15 6 -38
q0 -10 -1.5 -19.5t-2.5 -14.5zM177 335v-171q0 -48 15 -68t53 -20q29 0 51.5 9t31.5 18l8 9v223q0 48 -19 68t-66 20q-42 0 -58 -20t-16 -68z" />
    <glyph glyph-name="Emacron" unicode="&#x112;" 
d="M187 315v-225h294q6 -18 6 -45q0 -12 -1.5 -23t-3.5 -16l-1 -6h-220q-57 0 -110 2t-78 4l-25 3v682q85 9 213 9h215q6 -18 6 -45q0 -12 -1.5 -23.5t-2.5 -16.5l-2 -5h-289v-205h258q5 -18 5 -45l-5 -45h-258zM404 771h-271q-6 12 -6 31q0 8 1.5 16t3.5 12l1 3h271
q6 -12 6 -31q0 -8 -1.5 -16t-2.5 -12z" />
    <glyph glyph-name="emacron" unicode="&#x113;" horiz-adv-x="509" 
d="M45 164v171q0 86 49.5 128.5t163.5 42.5q116 0 161 -41.5t45 -129.5v-117q-49 -12 -144 -12h-143v-42q0 -48 23 -68t82 -20q43 0 83.5 8t59.5 15t19 8l1 -2q1 -2 2 -6t2 -8.5t2 -11.5t1 -14q0 -11 -2 -21.5t-4 -15.5l-2 -4q-62 -31 -162 -31q-126 0 -181.5 43t-55.5 128z
M177 289h162v46q0 48 -17.5 68t-63.5 20t-63.5 -20t-17.5 -68v-46zM389 590h-270q-6 12 -6 31q0 8 1.5 16t3.5 11l1 4h270q6 -12 6 -31q0 -8 -1.5 -15.5t-3.5 -11.5z" />
    <glyph glyph-name="Ebreve" unicode="&#x114;" 
d="M187 315v-225h294q6 -18 6 -45q0 -12 -1.5 -23t-3.5 -16l-1 -6h-220q-57 0 -110 2t-78 4l-25 3v682q85 9 213 9h215q6 -18 6 -45q0 -12 -1.5 -23.5t-2.5 -16.5l-2 -5h-289v-205h258q5 -18 5 -45l-5 -45h-258zM264 747q-84 0 -116 28.5t-32 88.5v10q21 6 43 6l43 -6v-11
q0 -32 13.5 -45t48.5 -13t48.5 13t13.5 45v11q22 6 43 6l44 -6v-10q0 -60 -32.5 -88.5t-116.5 -28.5z" />
    <glyph glyph-name="ebreve" unicode="&#x115;" horiz-adv-x="509" 
d="M45 164v171q0 86 49.5 128.5t163.5 42.5q116 0 161 -41.5t45 -129.5v-117q-49 -12 -144 -12h-143v-42q0 -48 23 -68t82 -20q43 0 83.5 8t59.5 15t19 8l1 -2q1 -2 2 -6t2 -8.5t2 -11.5t1 -14q0 -11 -2 -21.5t-4 -15.5l-2 -4q-62 -31 -162 -31q-126 0 -181.5 43t-55.5 128z
M177 289h162v46q0 48 -17.5 68t-63.5 20t-63.5 -20t-17.5 -68v-46zM254 569q-84 0 -116 28.5t-32 89.5v9q21 6 43 6l43 -6v-11q0 -31 13.5 -44t48.5 -13t48.5 13t13.5 44v11q22 6 43 6l44 -6v-9q0 -61 -32.5 -89.5t-116.5 -28.5z" />
    <glyph glyph-name="Edotaccent" unicode="&#x116;" 
d="M187 315v-225h294q6 -18 6 -45q0 -12 -1.5 -23t-3.5 -16l-1 -6h-220q-57 0 -110 2t-78 4l-25 3v682q85 9 213 9h215q6 -18 6 -45q0 -12 -1.5 -23.5t-2.5 -16.5l-2 -5h-289v-205h258q5 -18 5 -45l-5 -45h-258zM336 870v-116q-33 -6 -66 -6l-66 6v116q33 7 66 7
q15 0 31.5 -1.5t25.5 -3.5z" />
    <glyph glyph-name="edotaccent" unicode="&#x117;" horiz-adv-x="509" 
d="M45 164v171q0 86 49.5 128.5t163.5 42.5q116 0 161 -41.5t45 -129.5v-117q-49 -12 -144 -12h-143v-42q0 -48 23 -68t82 -20q43 0 83.5 8t59.5 15t19 8l1 -2q1 -2 2 -6t2 -8.5t2 -11.5t1 -14q0 -11 -2 -21.5t-4 -15.5l-2 -4q-62 -31 -162 -31q-126 0 -181.5 43t-55.5 128z
M177 289h162v46q0 48 -17.5 68t-63.5 20t-63.5 -20t-17.5 -68v-46zM320 697v-117q-33 -6 -66 -6l-66 6v117q33 6 66 6z" />
    <glyph glyph-name="Eogonek" unicode="&#x118;" 
d="M336 -92q0 49 50 92h-125q-57 0 -110 2t-78 4l-25 3v682q85 9 213 9h215q6 -18 6 -45q0 -12 -1.5 -23.5t-2.5 -16.5l-2 -5h-289v-205h258q5 -18 5 -45l-5 -45h-258v-225h294q6 -18 6 -45q0 -12 -1.5 -23t-3.5 -16l-1 -6h-39q-34 -45 -34 -82q0 -35 34 -35q11 0 21 3t15 6
l5 3q4 -11 4 -24l-4 -23q-20 -18 -62 -18t-63.5 20.5t-21.5 57.5z" />
    <glyph glyph-name="eogonek" unicode="&#x119;" horiz-adv-x="509" 
d="M275 -92q0 42 45 87q-24 -2 -38 -2q-126 0 -181.5 43t-55.5 128v171q0 86 49.5 128.5t163.5 42.5q116 0 161 -41.5t45 -129.5v-117q-49 -12 -144 -12h-143v-42q0 -48 23 -68t82 -20q43 0 83.5 8t59.5 15t19 8l1 -2q1 -2 2 -6t2 -8.5t2 -11.5t1 -14q0 -11 -2 -21.5
t-4 -15.5l-2 -4q-23 -11 -60 -20q-3 -3 -10.5 -14.5t-17 -33t-9.5 -38.5q0 -35 34 -35q11 0 21 3t15 6l5 3q4 -11 4 -24l-4 -23q-20 -18 -62 -18t-63.5 20.5t-21.5 57.5zM177 289h162v46q0 48 -17.5 68t-63.5 20t-63.5 -20t-17.5 -68v-46z" />
    <glyph glyph-name="Ecaron" unicode="&#x11a;" 
d="M187 315v-225h294q6 -18 6 -45q0 -12 -1.5 -23t-3.5 -16l-1 -6h-220q-57 0 -110 2t-78 4l-25 3v682q85 9 213 9h215q6 -18 6 -45q0 -12 -1.5 -23.5t-2.5 -16.5l-2 -5h-289v-205h258q5 -18 5 -45l-5 -45h-258zM191 885l78 -78l77 78q21 6 39 6l39 -6l-98 -132
q-28 -6 -57 -6l-57 6l-99 132q19 6 39 6z" />
    <glyph glyph-name="ecaron" unicode="&#x11b;" horiz-adv-x="509" 
d="M45 164v171q0 86 49.5 128.5t163.5 42.5q116 0 161 -41.5t45 -129.5v-117q-49 -12 -144 -12h-143v-42q0 -48 23 -68t82 -20q43 0 83.5 8t59.5 15t19 8l1 -2q1 -2 2 -6t2 -8.5t2 -11.5t1 -14q0 -11 -2 -21.5t-4 -15.5l-2 -4q-62 -31 -162 -31q-126 0 -181.5 43t-55.5 128z
M177 289h162v46q0 48 -17.5 68t-63.5 20t-63.5 -20t-17.5 -68v-46zM177 697l77 -78l78 78q20 6 39 6l39 -6l-98 -132q-28 -6 -57 -6l-58 6l-98 132q18 6 39 6z" />
    <glyph glyph-name="Gcircumflex" unicode="&#x11c;" horiz-adv-x="587" 
d="M539 375v-333q-11 -5 -31 -12.5t-83 -20.5t-127 -13q-134 0 -193.5 46t-59.5 140v336q0 94 59 141t194 47t188 -46t53 -142v-12q-31 -7 -63 -7q-14 0 -29.5 1.5t-24.5 3.5l-8 2v12q0 54 -25 76t-91 22q-64 0 -89 -22.5t-25 -75.5v-336q0 -53 25.5 -75.5t88.5 -22.5
q31 0 58.5 5t39.5 10l11 5v190h-100q-6 18 -6 46q0 12 1.5 23t3.5 16l1 5h44q50 0 97 -2t69 -4zM371 753l-77 78l-78 -78q-20 -6 -39 -6l-39 6l98 132q28 6 57 6l58 -6l98 -132q-18 -6 -39 -6z" />
    <glyph glyph-name="gcircumflex" unicode="&#x11d;" horiz-adv-x="516" 
d="M336 -36v60q-1 -2 -12 -9t-38 -14.5t-60 -7.5q-96 0 -138.5 43t-42.5 128v171q0 85 35.5 128t115.5 43q38 0 73 -10t51 -20l16 -11v32q31 6 66 6l66 -6v-533q0 -85 -55.5 -128t-182.5 -43q-42 0 -82 5.5t-59 11.5l-19 6q-7 16 -7 41q0 7 0.5 14t1.5 11.5t2.5 8.5t2.5 6v2
q0 -1 19.5 -6.5t59 -11t81.5 -5.5q60 0 83 20t23 68zM177 335v-171q0 -48 16 -68t58 -20q47 0 66 20.5t19 67.5v224q-3 4 -9 10t-29.5 15.5t-52.5 9.5q-38 0 -53 -20t-15 -68zM335 565l-77 78l-78 -78q-20 -6 -39 -6l-39 6l99 132q27 6 56 6l58 -6l98 -132q-18 -6 -39 -6z
" />
    <glyph glyph-name="Gbreve" unicode="&#x11e;" horiz-adv-x="587" 
d="M539 375v-333q-11 -5 -31 -12.5t-83 -20.5t-127 -13q-134 0 -193.5 46t-59.5 140v336q0 94 59 141t194 47t188 -46t53 -142v-12q-31 -7 -63 -7q-14 0 -29.5 1.5t-24.5 3.5l-8 2v12q0 54 -25 76t-91 22q-64 0 -89 -22.5t-25 -75.5v-336q0 -53 25.5 -75.5t88.5 -22.5
q31 0 58.5 5t39.5 10l11 5v190h-100q-6 18 -6 46q0 12 1.5 23t3.5 16l1 5h44q50 0 97 -2t69 -4zM294 747q-84 0 -116.5 28.5t-32.5 88.5v10q22 6 43 6l44 -6v-11q0 -32 13.5 -45t48.5 -13t48.5 13t13.5 45v11q21 6 42 6l44 -6v-10q0 -60 -32 -88.5t-116 -28.5z" />
    <glyph glyph-name="gbreve" unicode="&#x11f;" horiz-adv-x="516" 
d="M336 -36v60q-1 -2 -12 -9t-38 -14.5t-60 -7.5q-96 0 -138.5 43t-42.5 128v171q0 85 35.5 128t115.5 43q38 0 73 -10t51 -20l16 -11v32q31 6 66 6l66 -6v-533q0 -85 -55.5 -128t-182.5 -43q-42 0 -82 5.5t-59 11.5l-19 6q-7 16 -7 41q0 7 0.5 14t1.5 11.5t2.5 8.5t2.5 6v2
q0 -1 19.5 -6.5t59 -11t81.5 -5.5q60 0 83 20t23 68zM177 335v-171q0 -48 16 -68t58 -20q47 0 66 20.5t19 67.5v224q-3 4 -9 10t-29.5 15.5t-52.5 9.5q-38 0 -53 -20t-15 -68zM258 569q-84 0 -116.5 28.5t-32.5 89.5v9q22 6 43 6l44 -6v-11q0 -31 13.5 -44t48.5 -13t48.5 13
t13.5 44v11q21 6 43 6l43 -6v-9q0 -61 -32 -89.5t-116 -28.5z" />
    <glyph glyph-name="Gdotaccent" unicode="&#x120;" horiz-adv-x="587" 
d="M539 375v-333q-11 -5 -31 -12.5t-83 -20.5t-127 -13q-134 0 -193.5 46t-59.5 140v336q0 94 59 141t194 47t188 -46t53 -142v-12q-31 -7 -63 -7q-14 0 -29.5 1.5t-24.5 3.5l-8 2v12q0 54 -25 76t-91 22q-64 0 -89 -22.5t-25 -75.5v-336q0 -53 25.5 -75.5t88.5 -22.5
q31 0 58.5 5t39.5 10l11 5v190h-100q-6 18 -6 46q0 12 1.5 23t3.5 16l1 5h44q50 0 97 -2t69 -4zM360 870v-116q-33 -6 -66 -6l-66 6v116q32 7 66 7q15 0 31.5 -1.5t25.5 -3.5z" />
    <glyph glyph-name="gdotaccent" unicode="&#x121;" horiz-adv-x="516" 
d="M336 -36v60q-1 -2 -12 -9t-38 -14.5t-60 -7.5q-96 0 -138.5 43t-42.5 128v171q0 85 35.5 128t115.5 43q38 0 73 -10t51 -20l16 -11v32q31 6 66 6l66 -6v-533q0 -85 -55.5 -128t-182.5 -43q-42 0 -82 5.5t-59 11.5l-19 6q-7 16 -7 41q0 7 0.5 14t1.5 11.5t2.5 8.5t2.5 6v2
q0 -1 19.5 -6.5t59 -11t81.5 -5.5q60 0 83 20t23 68zM177 335v-171q0 -48 16 -68t58 -20q47 0 66 20.5t19 67.5v224q-3 4 -9 10t-29.5 15.5t-52.5 9.5q-38 0 -53 -20t-15 -68zM324 697v-117q-33 -6 -66 -6l-66 6v117q33 6 66 6z" />
    <glyph glyph-name="Gcommaaccent" unicode="&#x122;" horiz-adv-x="587" 
d="M539 375v-333q-11 -5 -31 -12.5t-83 -20.5t-127 -13q-134 0 -193.5 46t-59.5 140v336q0 94 59 141t194 47t188 -46t53 -142v-12q-31 -7 -63 -7q-14 0 -29.5 1.5t-24.5 3.5l-8 2v12q0 54 -25 76t-91 22q-64 0 -89 -22.5t-25 -75.5v-336q0 -53 25.5 -75.5t88.5 -22.5
q31 0 58.5 5t39.5 10l11 5v190h-100q-6 18 -6 46q0 12 1.5 23t3.5 16l1 5h44q50 0 97 -2t69 -4zM336 -44q0 -29 -6.5 -56t-15 -43.5t-17.5 -29.5t-15 -19l-7 -5q-15 -5 -28 -5l-27 5q33 53 33 153q20 7 41 7q9 0 19.5 -1.5t16.5 -3.5z" />
    <glyph glyph-name="gcommaaccent" unicode="&#x123;" horiz-adv-x="516" 
d="M216 587q0 50 15 90t30 55l15 15q14 5 28 5l27 -5q-32 -54 -32 -160q-20 -7 -41 -7q-9 0 -19.5 2t-16.5 4zM336 -36v60q-1 -2 -12 -9t-38 -14.5t-60 -7.5q-96 0 -138.5 43t-42.5 128v171q0 85 35.5 128t115.5 43q38 0 73 -10t51 -20l16 -11v32q31 6 66 6l66 -6v-533
q0 -85 -55.5 -128t-182.5 -43q-42 0 -82 5.5t-59 11.5l-19 6q-7 16 -7 41q0 7 0.5 14t1.5 11.5t2.5 8.5t2.5 6v2q0 -1 19.5 -6.5t59 -11t81.5 -5.5q60 0 83 20t23 68zM177 335v-171q0 -48 16 -68t58 -20q47 0 66 20.5t19 67.5v224q-3 4 -9 10t-29.5 15.5t-52.5 9.5
q-38 0 -53 -20t-15 -68z" />
    <glyph glyph-name="Hcircumflex" unicode="&#x124;" horiz-adv-x="620" 
d="M571 697v-694q-34 -6 -69 -6l-70 6v308h-245v-308q-34 -6 -69 -6l-70 6v694q35 6 70 6l69 -6v-296h245v296q34 6 70 6zM387 753l-77 78l-78 -78q-20 -6 -39 -6l-39 6l99 132q27 6 56 6l58 -6l98 -132q-18 -6 -39 -6z" />
    <glyph glyph-name="hcircumflex" unicode="&#x125;" horiz-adv-x="518" 
d="M180 697v-232q6 5 17.5 11.5t48 18t75.5 11.5q81 0 116.5 -43t35.5 -128v-332q-33 -6 -66 -6l-66 6v332q0 48 -15 68t-53 20q-29 0 -52.5 -8.5t-32.5 -17.5l-8 -9v-385q-33 -6 -66 -6l-66 6v694q33 6 66 6zM317 753l-78 78l-77 -78q-20 -6 -39 -6l-39 6l98 132q28 6 57 6
l58 -6l98 -132q-18 -6 -39 -6z" />
    <glyph glyph-name="Hbar" unicode="&#x126;" horiz-adv-x="682" 
d="M648 509h-46v-506q-34 -6 -69 -6l-70 6v308h-245v-308q-34 -6 -69 -6l-70 6v506h-46q-5 16 -5 41l5 42h46v105q34 6 70 6l69 -6v-105h245v105q34 6 70 6l69 -6v-105h46q6 -17 6 -42q0 -11 -1.5 -21t-2.5 -15zM218 401h245v108h-245v-108z" />
    <glyph glyph-name="hbar" unicode="&#x127;" horiz-adv-x="550" 
d="M367 563h-154v-98q6 5 17.5 11.5t48 18t74.5 11.5q81 0 116.5 -43t35.5 -128v-332q-32 -6 -66 -6l-66 6v332q0 48 -15 68t-53 20q-29 0 -52 -8.5t-31 -17.5l-9 -9v-385q-33 -6 -66 -6l-66 6v560h-46q-6 14 -6 38q0 10 1.5 19.5t3.5 13.5l1 5h53l14 58q27 6 55 6l56 -6
v-58h154q6 -15 6 -38q0 -10 -1.5 -19.5t-3.5 -13.5z" />
    <glyph glyph-name="Itilde" unicode="&#x128;" horiz-adv-x="332" 
d="M32 90h64v520h-64q-6 17 -6 45q0 12 1.5 23.5t2.5 16.5l2 5h268q6 -18 6 -45q0 -12 -1.5 -23.5t-2.5 -16.5l-2 -5h-65v-520h65q6 -17 6 -45q0 -12 -1.5 -23t-2.5 -16l-2 -6h-268q-6 18 -6 45q0 12 1.5 23.5t2.5 16.5zM2 754v4q0 54 18 79t66 25q38 0 62.5 -14t39.5 -27.5
t30 -13.5q23 0 31.5 10t8.5 34v5q18 6 36 6l36 -6v-4q0 -55 -17.5 -79.5t-66.5 -24.5q-38 0 -63 14t-40 27.5t-29 13.5q-23 0 -31.5 -9.5t-8.5 -34.5v-5q-18 -6 -37 -6z" />
    <glyph glyph-name="itilde" unicode="&#x129;" horiz-adv-x="229" 
d="M-50 593v4q0 54 18.5 79t65.5 25q38 0 62.5 -14t40 -28t30.5 -14q22 0 30.5 10t8.5 34v5q18 7 37 7q8 0 17 -1.5t14 -3.5l5 -2v-4q0 -54 -18 -79t-66 -25q-30 0 -52.5 9t-33 19t-23 19t-24.5 9q-22 0 -30.5 -10t-8.5 -34v-5q-18 -7 -37 -7q-8 0 -17 2t-14 4zM180 497
v-494q-33 -6 -66 -6l-66 6v494q33 6 66 6z" />
    <glyph glyph-name="Imacron" unicode="&#x12a;" horiz-adv-x="332" 
d="M32 90h64v520h-64q-6 17 -6 45q0 12 1.5 23.5t2.5 16.5l2 5h268q6 -18 6 -45q0 -12 -1.5 -23.5t-2.5 -16.5l-2 -5h-65v-520h65q6 -17 6 -45q0 -12 -1.5 -23t-2.5 -16l-2 -6h-268q-6 18 -6 45q0 12 1.5 23.5t2.5 16.5zM301 771h-271q-6 12 -6 31q0 8 1.5 16t2.5 12l2 3
h271q6 -12 6 -31q0 -8 -1.5 -16t-3.5 -12z" />
    <glyph glyph-name="imacron" unicode="&#x12b;" horiz-adv-x="229" 
d="M250 590h-271q-5 12 -5 31l5 31h271q6 -12 6 -31q0 -8 -1.5 -15.5t-2.5 -11.5zM180 497v-494q-33 -6 -66 -6l-66 6v494q33 6 66 6z" />
    <glyph glyph-name="Ibreve" unicode="&#x12c;" horiz-adv-x="332" 
d="M32 90h64v520h-64q-6 17 -6 45q0 12 1.5 23.5t2.5 16.5l2 5h268q6 -18 6 -45q0 -12 -1.5 -23.5t-2.5 -16.5l-2 -5h-65v-520h65q6 -17 6 -45q0 -12 -1.5 -23t-2.5 -16l-2 -6h-268q-6 18 -6 45q0 12 1.5 23.5t2.5 16.5zM166 747q-84 0 -116.5 28.5t-32.5 88.5v10q22 6 43 6
l44 -6v-11q0 -32 13.5 -45t48.5 -13t48.5 13t13.5 45v11q21 6 43 6l43 -6v-10q0 -60 -32 -88.5t-116 -28.5z" />
    <glyph glyph-name="ibreve" unicode="&#x12d;" horiz-adv-x="229" 
d="M114 569q-84 0 -116 28.5t-32 89.5v9q21 6 43 6l43 -6v-11q0 -31 13.5 -44t48.5 -13t48.5 13t13.5 44v11q22 6 43 6l44 -6v-9q0 -61 -32.5 -89.5t-116.5 -28.5zM180 497v-494q-33 -6 -66 -6l-66 6v494q33 6 66 6z" />
    <glyph glyph-name="Iogonek" unicode="&#x12e;" horiz-adv-x="332" 
d="M155 -92q0 49 50 92h-173q-6 18 -6 45q0 12 1.5 23.5t2.5 16.5l2 5h64v520h-64q-6 17 -6 45q0 12 1.5 23.5t2.5 16.5l2 5h268q6 -18 6 -45q0 -12 -1.5 -23.5t-2.5 -16.5l-2 -5h-65v-520h65q6 -17 6 -45q0 -12 -1.5 -23t-2.5 -16l-2 -6h-39q-34 -45 -34 -82q0 -35 34 -35
q11 0 21 3t14 6l5 3q5 -11 5 -24l-5 -23q-19 -18 -61 -18t-63.5 20.5t-21.5 57.5z" />
    <glyph glyph-name="iogonek" unicode="&#x12f;" horiz-adv-x="229" 
d="M53 -92q0 45 47 89l-52 6v494q33 6 66 6l66 -6v-494q-10 -2 -21 -3q-34 -45 -34 -82q0 -35 34 -35q11 0 21 3t15 6l5 3q4 -11 4 -24l-4 -23q-20 -18 -62 -18t-63.5 20.5t-21.5 57.5zM180 697v-117q-33 -6 -66 -6l-66 6v117q33 6 66 6z" />
    <glyph glyph-name="Idotaccent" unicode="&#x130;" horiz-adv-x="332" 
d="M32 90h64v520h-64q-6 17 -6 45q0 12 1.5 23.5t2.5 16.5l2 5h268q6 -18 6 -45q0 -12 -1.5 -23.5t-2.5 -16.5l-2 -5h-65v-520h65q6 -17 6 -45q0 -12 -1.5 -23t-2.5 -16l-2 -6h-268q-6 18 -6 45q0 12 1.5 23.5t2.5 16.5zM232 870v-116q-33 -6 -66 -6l-66 6v116q33 7 66 7
q15 0 31.5 -1.5t25.5 -3.5z" />
    <glyph glyph-name="dotlessi" unicode="&#x131;" horiz-adv-x="229" 
d="M180 497v-494q-33 -6 -66 -6l-66 6v494q33 6 66 6z" />
    <glyph glyph-name="IJ" unicode="&#x132;" horiz-adv-x="752" 
d="M32 90h64v520h-64q-6 17 -6 45q0 12 1.5 23.5t2.5 16.5l2 5h268q6 -18 6 -45q0 -12 -1.5 -23.5t-2.5 -16.5l-2 -5h-65v-520h65q6 -17 6 -45q0 -12 -1.5 -23t-2.5 -16l-2 -6h-268q-6 18 -6 45q0 12 1.5 23.5t2.5 16.5zM703 700v-517q0 -92 -52 -139t-170 -47
q-30 0 -57.5 4.5t-39.5 8.5l-12 5q-8 18 -8 46q0 8 1 15t2 12t2 9t2 6l1 2q0 -1 12.5 -5.5t39.5 -9t56 -4.5q48 0 66 22.5t18 74.5v427h-93q-6 17 -6 45q0 12 1.5 23.5t3.5 16.5l1 5h232z" />
    <glyph glyph-name="ij" unicode="&#x133;" horiz-adv-x="459" 
d="M180 497v-494q-33 -6 -66 -6l-66 6v494q33 6 66 6zM180 697v-117q-33 -6 -66 -6l-66 6v117q33 6 66 6zM279 -52v549q33 6 66 6l66 -6v-549q0 -77 -33 -116t-109 -39q-18 0 -36.5 2t-30 5t-21 5.5t-10.5 2.5q-5 18 -5 38l5 38q20 -8 49 -8q34 0 46.5 16.5t12.5 55.5z
M411 697v-117q-33 -6 -66 -6l-66 6v117q33 6 66 6z" />
    <glyph glyph-name="Jcircumflex" unicode="&#x134;" horiz-adv-x="470" 
d="M421 697v-515q0 -94 -53.5 -141.5t-176.5 -47.5q-41 0 -78.5 10.5t-54.5 20.5l-18 10q-8 18 -8 47q0 8 1 15.5t2 12.5t2 9t2 6l1 2q0 -2 17.5 -11.5t55 -20.5t77.5 -11q52 0 72 22.5t20 76.5v515q35 6 70 6zM430 753l-78 78l-78 -78q-20 -6 -39 -6l-38 6l98 132
q27 6 56 6l58 -6l98 -132q-18 -6 -39 -6z" />
    <glyph glyph-name="jcircumflex" unicode="&#x135;" horiz-adv-x="240" 
d="M60 -52v549q33 6 66 6l66 -6v-549q0 -77 -33 -116t-109 -39q-18 0 -36.5 2t-30 5t-21 5.5t-10.5 2.5q-5 18 -5 38l5 38q20 -8 50 -8q33 0 45.5 16.5t12.5 55.5zM200 565l-78 78l-77 -78q-20 -6 -39 -6l-39 6l98 132q28 6 57 6l58 -6l98 -132q-18 -6 -39 -6z" />
    <glyph glyph-name="Kcommaaccent" unicode="&#x136;" horiz-adv-x="575" 
d="M413 3l-176 310l-50 -13v-297q-35 -6 -69 -6l-70 6v694q35 6 70 6l69 -6v-302l50 14l166 288q37 6 73 6l70 -6l-187 -336l200 -358q-37 -6 -72 -6zM336 -44q0 -47 -15.5 -85t-30.5 -53l-16 -15q-14 -5 -27 -5l-28 5q34 53 34 153q20 7 41 7q9 0 19.5 -1.5t16.5 -3.5z" />
    <glyph glyph-name="kcommaaccent" unicode="&#x137;" horiz-adv-x="495" 
d="M340 3l-127 212l-33 -10v-202q-33 -6 -66 -6l-66 6v694q33 6 66 6l66 -6v-404l33 11l117 193q35 6 69 6l67 -6l-141 -236l154 -258q-35 -6 -69 -6zM299 -44q0 -47 -15.5 -85t-30.5 -53l-15 -15q-14 -5 -27 -5l-28 5q33 53 33 153q20 7 42 7q9 0 19.5 -1.5t16.5 -3.5z" />
    <glyph glyph-name="Lacute" unicode="&#x139;" horiz-adv-x="482" 
d="M187 697v-607h264q6 -18 6 -45q0 -12 -1.5 -23t-3.5 -16l-1 -6h-190q-57 0 -110 2t-78 4l-25 3v688q35 6 70 6zM273 888l-139 -135q-21 -6 -39 -6l-39 6l96 135q29 6 60 6z" />
    <glyph glyph-name="lacute" unicode="&#x13a;" horiz-adv-x="269" 
d="M221 76q11 0 25 4q6 -17 6 -37l-6 -36q-34 -14 -73 -14q-66 0 -95.5 34t-29.5 102v568q33 6 66 6l66 -6v-568q0 -28 9 -40.5t32 -12.5zM249 888l-140 -135q-20 -6 -38 -6l-39 6l96 135q29 6 60 6z" />
    <glyph glyph-name="Lcommaaccent" unicode="&#x13b;" horiz-adv-x="482" 
d="M187 697v-607h264q6 -18 6 -45q0 -12 -1.5 -23t-3.5 -16l-1 -6h-190q-57 0 -110 2t-78 4l-25 3v688q35 6 70 6zM299 -44q0 -47 -15.5 -85t-31.5 -53l-15 -15q-14 -5 -27 -5l-28 5q34 53 34 153q20 7 41 7q9 0 19.5 -1.5t16.5 -3.5z" />
    <glyph glyph-name="lcommaaccent" unicode="&#x13c;" horiz-adv-x="269" 
d="M221 76q11 0 25 4q6 -17 6 -37l-6 -36q-34 -14 -73 -14q-66 0 -95.5 34t-29.5 102v568q33 6 66 6l66 -6v-568q0 -28 9 -40.5t32 -12.5zM191 -44q0 -29 -6.5 -56t-15.5 -43.5t-17.5 -29.5t-15.5 -19l-6 -5q-14 -5 -28 -5l-27 5q33 53 33 153q20 7 42 7q9 0 19 -1.5
t16 -3.5z" />
    <glyph glyph-name="Lcaron" unicode="&#x13d;" horiz-adv-x="482" 
d="M187 697v-607h264q6 -18 6 -45q0 -12 -1.5 -23t-3.5 -16l-1 -6h-190q-57 0 -110 2t-78 4l-25 3v688q35 6 70 6zM98 885l77 -78l78 78q20 6 39 6l39 -6l-98 -132q-28 -6 -57 -6l-58 6l-98 132q18 6 39 6z" />
    <glyph glyph-name="lcaron" unicode="&#x13e;" horiz-adv-x="385" 
d="M221 76q11 0 25 4q6 -17 6 -37l-6 -36q-34 -14 -73 -14q-66 0 -95.5 34t-29.5 102v568q33 6 66 6l66 -6v-568q0 -28 9 -40.5t32 -12.5zM392 697q0 -47 -8 -88.5t-20 -67t-24 -44t-20 -26.5l-8 -8q-16 -6 -31 -6l-31 6q4 8 10.5 25t17 77.5t10.5 131.5q26 6 52 6z" />
    <glyph glyph-name="Ldot" unicode="&#x13f;" horiz-adv-x="482" 
d="M187 697v-607h264q6 -18 6 -45q0 -12 -1.5 -23t-3.5 -16l-1 -6h-190q-57 0 -110 2t-78 4l-25 3v688q35 6 70 6zM424 379v-123q-32 -6 -64 -6l-63 6v123q31 6 63 6z" />
    <glyph glyph-name="ldot" unicode="&#x140;" horiz-adv-x="421" 
d="M221 76q11 0 25 4q6 -17 6 -37l-6 -36q-34 -14 -73 -14q-66 0 -95.5 34t-29.5 102v568q33 6 66 6l66 -6v-568q0 -28 9 -40.5t32 -12.5zM388 379v-123q-32 -6 -63 -6l-63 6v123q31 6 63 6z" />
    <glyph glyph-name="Lslash" unicode="&#x141;" horiz-adv-x="518" 
d="M32 264l53 53v380q34 6 69 6l70 -6v-291l83 83q7 -23 7 -49q0 -11 -2 -23t-4 -19l-1 -7l-83 -85v-216h263q6 -18 6 -45q0 -12 -1.5 -23t-3.5 -16l-1 -6h-189q-57 0 -110.5 2t-77.5 4l-25 3v208l-53 -53q-7 26 -7 51q0 11 1.5 23.5t3.5 19.5z" />
    <glyph glyph-name="lslash" unicode="&#x142;" horiz-adv-x="316" 
d="M32 285l54 53v359q33 6 66 6l66 -6v-281l66 64q7 -23 7 -49q0 -11 -1.5 -23t-3.5 -19l-2 -7l-66 -66v-187q0 -28 9 -40.5t32 -12.5q11 0 25 4q5 -17 5 -37l-5 -36q-34 -14 -73 -14q-66 0 -95.5 34t-29.5 102v109l-54 -53q-7 26 -7 51q0 11 1.5 23.5t3.5 18.5z" />
    <glyph glyph-name="Nacute" unicode="&#x143;" horiz-adv-x="618" 
d="M48 3v694q30 6 59 6l59 -6l271 -440v440q33 6 66 6l66 -6v-694q-29 -6 -59 -6l-59 6l-271 440v-440q-32 -6 -66 -6zM443 888l-139 -135q-21 -6 -39 -6l-39 6l96 135q29 6 60 6z" />
    <glyph glyph-name="nacute" unicode="&#x144;" horiz-adv-x="519" 
d="M180 497v-32q6 5 17.5 11.5t48.5 18t76 11.5q81 0 116.5 -43t35.5 -128v-332q-32 -6 -66 -6l-66 6v332q0 48 -15 68t-54 20q-29 0 -52.5 -8.5t-32.5 -17.5l-8 -9v-385q-33 -6 -66 -6l-66 6v494q33 6 66 6zM394 697l-140 -135q-20 -6 -39 -6l-38 6l96 135q29 6 60 6z" />
    <glyph glyph-name="Ncommaaccent" unicode="&#x145;" horiz-adv-x="618" 
d="M48 3v694q30 6 59 6l59 -6l271 -440v440q33 6 66 6l66 -6v-694q-29 -6 -59 -6l-59 6l-271 440v-440q-32 -6 -66 -6zM351 -44q0 -47 -15.5 -85t-31.5 -53l-15 -15q-14 -5 -27 -5l-28 5q34 53 34 153q20 7 41 7q9 0 19.5 -1.5t16.5 -3.5z" />
    <glyph glyph-name="ncommaaccent" unicode="&#x146;" horiz-adv-x="519" 
d="M180 497v-32q6 5 17.5 11.5t48.5 18t76 11.5q81 0 116.5 -43t35.5 -128v-332q-32 -6 -66 -6l-66 6v332q0 48 -15 68t-54 20q-29 0 -52.5 -8.5t-32.5 -17.5l-8 -9v-385q-33 -6 -66 -6l-66 6v494q33 6 66 6zM304 -44q0 -29 -6.5 -56t-15 -43.5t-17.5 -29.5t-15 -19l-7 -5
q-14 -5 -28 -5l-27 5q33 53 33 153q20 7 42 7q9 0 19 -1.5t16 -3.5z" />
    <glyph glyph-name="Ncaron" unicode="&#x147;" horiz-adv-x="618" 
d="M48 3v694q30 6 59 6l59 -6l271 -440v440q33 6 66 6l66 -6v-694q-29 -6 -59 -6l-59 6l-271 440v-440q-32 -6 -66 -6zM231 885l77 -78l78 78q20 6 39 6l39 -6l-99 -132q-27 -6 -56 -6l-58 6l-98 132q18 6 39 6z" />
    <glyph glyph-name="ncaron" unicode="&#x148;" horiz-adv-x="519" 
d="M180 497v-32q6 5 17.5 11.5t48.5 18t76 11.5q81 0 116.5 -43t35.5 -128v-332q-32 -6 -66 -6l-66 6v332q0 48 -15 68t-54 20q-29 0 -52.5 -8.5t-32.5 -17.5l-8 -9v-385q-33 -6 -66 -6l-66 6v494q33 6 66 6zM182 697l77 -78l78 78q20 6 39 6l39 -6l-99 -132q-27 -6 -56 -6
l-58 6l-98 132q18 6 39 6z" />
    <glyph glyph-name="Eng" unicode="&#x14a;" horiz-adv-x="618" 
d="M437 -52v79l-257 416v-440q-32 -6 -66 -6l-66 6v694q30 6 59 6l59 -6l271 -440v440q33 6 66 6l66 -6v-749q0 -77 -33 -116t-109 -39q-18 0 -36.5 2t-30 5t-21 5.5t-10.5 2.5q-5 18 -5 38l5 38q24 -8 50 -8q33 0 45.5 16.5t12.5 55.5z" />
    <glyph glyph-name="eng" unicode="&#x14b;" horiz-adv-x="519" 
d="M342 -52v387q0 48 -15 68t-54 20q-29 0 -52.5 -8.5t-32.5 -17.5l-8 -9v-385q-33 -6 -66 -6l-66 6v494q33 6 66 6l66 -6v-32q6 5 17.5 11.5t48.5 18t76 11.5q81 0 116.5 -43t35.5 -128v-387q0 -77 -33 -116t-109 -39q-18 0 -36.5 2t-30 5t-21 5.5t-10.5 2.5q-5 18 -5 38
l5 38q24 -8 50 -8q33 0 45.5 16.5t12.5 55.5z" />
    <glyph glyph-name="Omacron" unicode="&#x14c;" horiz-adv-x="599" 
d="M45 182v336q0 94 60 141t194 47q135 0 195 -47t60 -141v-336q0 -94 -60 -141.5t-195 -47.5q-134 0 -194 47.5t-60 141.5zM184 518v-336q0 -53 25.5 -76t89.5 -23t90 23t26 76v336q0 53 -26 75.5t-90 22.5t-89.5 -22.5t-25.5 -75.5zM434 771h-270q-6 12 -6 31q0 8 1.5 16
t2.5 12l2 3h270q6 -12 6 -31q0 -8 -1.5 -16t-2.5 -12z" />
    <glyph glyph-name="omacron" unicode="&#x14d;" horiz-adv-x="519" 
d="M45 164v171q0 85 50 128t164 43t164.5 -43t50.5 -128v-171q0 -85 -50.5 -128t-164.5 -43q-113 0 -163.5 43t-50.5 128zM177 335v-171q0 -47 18 -67.5t64 -20.5t64.5 20.5t18.5 67.5v171q0 48 -18.5 68t-64.5 20t-64 -20t-18 -68zM394 590h-270q-6 12 -6 31q0 8 1.5 16
t2.5 11l2 4h270q6 -12 6 -31q0 -8 -1.5 -15.5t-2.5 -11.5z" />
    <glyph glyph-name="Obreve" unicode="&#x14e;" horiz-adv-x="599" 
d="M45 182v336q0 94 60 141t194 47q135 0 195 -47t60 -141v-336q0 -94 -60 -141.5t-195 -47.5q-134 0 -194 47.5t-60 141.5zM184 518v-336q0 -53 25.5 -76t89.5 -23t90 23t26 76v336q0 53 -26 75.5t-90 22.5t-89.5 -22.5t-25.5 -75.5zM299 747q-84 0 -116 28.5t-32 88.5v10
q21 6 43 6l43 -6v-11q0 -32 13.5 -45t48.5 -13t48.5 13t13.5 45v11q22 6 43 6l44 -6v-10q0 -60 -32.5 -88.5t-116.5 -28.5z" />
    <glyph glyph-name="obreve" unicode="&#x14f;" horiz-adv-x="519" 
d="M45 164v171q0 85 50 128t164 43t164.5 -43t50.5 -128v-171q0 -85 -50.5 -128t-164.5 -43q-113 0 -163.5 43t-50.5 128zM177 335v-171q0 -47 18 -67.5t64 -20.5t64.5 20.5t18.5 67.5v171q0 48 -18.5 68t-64.5 20t-64 -20t-18 -68zM259 569q-84 0 -116 28.5t-32 89.5v9
q21 6 43 6l43 -6v-11q0 -31 13.5 -44t48.5 -13t48.5 13t13.5 44v11q22 6 43 6l44 -6v-9q0 -61 -32.5 -89.5t-116.5 -28.5z" />
    <glyph glyph-name="Ohungarumlaut" unicode="&#x150;" horiz-adv-x="599" 
d="M45 182v336q0 94 60 141t194 47q135 0 195 -47t60 -141v-336q0 -94 -60 -141.5t-195 -47.5q-134 0 -194 47.5t-60 141.5zM184 518v-336q0 -53 25.5 -76t89.5 -23t90 23t26 76v336q0 53 -26 75.5t-90 22.5t-89.5 -22.5t-25.5 -75.5zM348 888l-140 -135q-21 -6 -39 -6
l-39 6l96 135q29 6 60 6zM523 888l-140 -135q-20 -6 -39 -6l-39 6l97 135q29 6 60 6z" />
    <glyph glyph-name="ohungarumlaut" unicode="&#x151;" horiz-adv-x="519" 
d="M45 164v171q0 85 50 128t164 43t164.5 -43t50.5 -128v-171q0 -85 -50.5 -128t-164.5 -43q-113 0 -163.5 43t-50.5 128zM177 335v-171q0 -47 18 -67.5t64 -20.5t64.5 20.5t18.5 67.5v171q0 48 -18.5 68t-64.5 20t-64 -20t-18 -68zM308 697l-140 -135q-21 -6 -39 -6l-39 6
l96 135q29 6 60 6zM483 697l-140 -135q-20 -6 -39 -6l-39 6l97 135q29 6 60 6z" />
    <glyph glyph-name="OE" unicode="&#x152;" horiz-adv-x="810" 
d="M776 0h-159q-85 0 -155 7q-59 -11 -163 -11q-135 0 -194.5 46.5t-59.5 139.5v336q0 93 59.5 139.5t194.5 46.5q86 0 164 -12q62 8 154 8h154q5 -18 5 -45l-5 -45h-256v-205h224q6 -18 6 -45q0 -12 -1.5 -23t-3.5 -17l-1 -5h-224v-225h261q5 -18 5 -45zM376 84v532h-77
q-64 0 -89.5 -22.5t-25.5 -75.5v-336q0 -53 25.5 -75.5t89.5 -22.5h77z" />
    <glyph glyph-name="oe" unicode="&#x153;" horiz-adv-x="806" 
d="M45 164v171q0 85 50 128t164 43q109 0 149 -58q37 58 147 58q116 0 161 -41.5t45 -129.5v-117q-49 -12 -144 -12h-143v-42q0 -48 23 -68t82 -20q43 0 83.5 8t59.5 15t19 8l1 -2q1 -2 2 -6t2 -8.5t2 -11.5t1 -14q0 -11 -2 -21.5t-4 -15.5l-2 -4q-62 -31 -162 -31
q-124 0 -169 62q-39 -62 -151 -62q-113 0 -163.5 43t-50.5 128zM177 335v-171q0 -47 18 -67.5t64 -20.5t64.5 20.5t18.5 67.5v171q0 48 -18.5 68t-64.5 20t-64 -20t-18 -68zM474 289h162v46q0 48 -17.5 68t-63.5 20t-63.5 -20t-17.5 -68v-46z" />
    <glyph glyph-name="Racute" unicode="&#x154;" horiz-adv-x="584" 
d="M418 3l-140 279l-91 4v-283q-35 -6 -69 -6l-70 6v689q94 12 234 12q132 0 190 -46.5t58 -139.5v-49q0 -135 -121 -172l152 -294q-35 -6 -70 -6zM187 616v-245h95q61 0 85 22.5t24 75.5v49q0 53 -24 75.5t-85 22.5h-95zM420 888l-140 -135q-20 -6 -39 -6l-39 6l97 135
q29 6 60 6z" />
    <glyph glyph-name="racute" unicode="&#x155;" horiz-adv-x="369" 
d="M180 497v-51l6.5 6.5t19.5 14.5t32 18t44 14.5t55 6.5q6 -18 6 -43q0 -11 -1.5 -22t-3.5 -17l-1 -5q-30 0 -57 -9.5t-44.5 -22.5t-30.5 -26.5t-19 -22.5l-6 -10v-325q-33 -6 -66 -6l-66 6v494q33 6 66 6zM321 697l-140 -135q-20 -6 -39 -6l-39 6l96 135q29 6 60 6z" />
    <glyph glyph-name="Rcommaaccent" unicode="&#x156;" horiz-adv-x="584" 
d="M418 3l-140 279l-91 4v-283q-35 -6 -69 -6l-70 6v689q94 12 234 12q132 0 190 -46.5t58 -139.5v-49q0 -135 -121 -172l152 -294q-35 -6 -70 -6zM187 616v-245h95q61 0 85 22.5t24 75.5v49q0 53 -24 75.5t-85 22.5h-95zM342 -44q0 -29 -6.5 -56t-15 -43.5t-17.5 -29.5
t-15 -19l-7 -5q-14 -5 -27 -5l-28 5q33 53 33 153q21 7 42 7q9 0 19.5 -1.5t15.5 -3.5z" />
    <glyph glyph-name="rcommaaccent" unicode="&#x157;" horiz-adv-x="369" 
d="M180 497v-51l6.5 6.5t19.5 14.5t32 18t44 14.5t55 6.5q6 -18 6 -43q0 -11 -1.5 -22t-3.5 -17l-1 -5q-30 0 -57 -9.5t-44.5 -22.5t-30.5 -26.5t-19 -22.5l-6 -10v-325q-33 -6 -66 -6l-66 6v494q33 6 66 6zM189 -44q0 -29 -6.5 -56t-15.5 -43.5t-17.5 -29.5t-15.5 -19
l-6 -5q-15 -5 -28 -5l-27 5q33 53 33 153q20 7 41 7q9 0 19.5 -1.5t16.5 -3.5z" />
    <glyph glyph-name="Rcaron" unicode="&#x158;" horiz-adv-x="584" 
d="M418 3l-140 279l-91 4v-283q-35 -6 -69 -6l-70 6v689q94 12 234 12q132 0 190 -46.5t58 -139.5v-49q0 -135 -121 -172l152 -294q-35 -6 -70 -6zM187 616v-245h95q61 0 85 22.5t24 75.5v49q0 53 -24 75.5t-85 22.5h-95zM204 885l78 -78l77 78q21 6 39 6l39 -6l-98 -132
q-27 -6 -56 -6l-58 6l-99 132q19 6 39 6z" />
    <glyph glyph-name="rcaron" unicode="&#x159;" horiz-adv-x="369" 
d="M180 497v-51l6.5 6.5t19.5 14.5t32 18t44 14.5t55 6.5q6 -18 6 -43q0 -11 -1.5 -22t-3.5 -17l-1 -5q-30 0 -57 -9.5t-44.5 -22.5t-30.5 -26.5t-19 -22.5l-6 -10v-325q-33 -6 -66 -6l-66 6v494q33 6 66 6zM109 697l78 -78l78 78q20 6 39 6l38 -6l-98 -132q-27 -6 -56 -6
l-58 6l-98 132q18 6 39 6z" />
    <glyph glyph-name="Sacute" unicode="&#x15a;" horiz-adv-x="562" 
d="M177 518v-36q0 -29 35.5 -48.5t86.5 -32.5t102.5 -31t87 -56.5t35.5 -96.5v-35q0 -95 -57.5 -142t-188.5 -47q-136 0 -189 46.5t-53 142.5v12q34 7 67 7q16 0 33 -1.5t26 -3.5l9 -2v-12q0 -54 23.5 -76.5t83.5 -22.5t83.5 22t23.5 77v35q0 28 -25.5 47.5t-64 29.5t-83 25
t-83 31.5t-64 50.5t-25.5 81v36q0 95 56 141.5t185 46.5q133 0 184.5 -46t51.5 -142v-12q-35 -7 -68 -7q-16 0 -32.5 1.5t-25.5 3.5l-9 2v12q0 53 -22 75.5t-79 22.5t-80.5 -23t-23.5 -75zM416 888l-140 -135q-20 -6 -39 -6l-39 6l97 135q28 6 60 6z" />
    <glyph glyph-name="sacute" unicode="&#x15b;" horiz-adv-x="506" 
d="M177 363v-20q0 -19 18.5 -28.5t54.5 -16.5q31 -6 44 -9t44 -11t47.5 -17.5t37 -24t29.5 -34.5t9 -45v-20q0 -72 -49 -108t-162 -36q-117 0 -162 38.5t-45 118.5v7q32 7 64 7q14 0 30 -2t25 -4l9 -1v-7q0 -40 17 -57t62 -17q44 0 61.5 14t17.5 47v20q0 21 -20 31t-59 17
q-34 7 -52 11t-51.5 15.5t-51.5 24.5t-33 35.5t-15 51.5v20q0 72 48 107.5t158 35.5q113 0 157 -38.5t44 -118.5v-7q-32 -6 -64 -6l-64 6v7q0 40 -16 57t-57 17q-42 0 -59 -14t-17 -46zM388 697l-140 -135q-21 -6 -39 -6l-39 6l96 135q29 6 60 6z" />
    <glyph glyph-name="Scircumflex" unicode="&#x15c;" horiz-adv-x="562" 
d="M177 518v-36q0 -29 35.5 -48.5t86.5 -32.5t102.5 -31t87 -56.5t35.5 -96.5v-35q0 -95 -57.5 -142t-188.5 -47q-136 0 -189 46.5t-53 142.5v12q34 7 67 7q16 0 33 -1.5t26 -3.5l9 -2v-12q0 -54 23.5 -76.5t83.5 -22.5t83.5 22t23.5 77v35q0 28 -25.5 47.5t-64 29.5t-83 25
t-83 31.5t-64 50.5t-25.5 81v36q0 95 56 141.5t185 46.5q133 0 184.5 -46t51.5 -142v-12q-35 -7 -68 -7q-16 0 -32.5 1.5t-25.5 3.5l-9 2v12q0 53 -22 75.5t-79 22.5t-80.5 -23t-23.5 -75zM358 753l-77 78l-78 -78q-20 -6 -39 -6l-39 6l99 132q27 6 56 6l58 -6l98 -132
q-18 -6 -39 -6z" />
    <glyph glyph-name="scircumflex" unicode="&#x15d;" horiz-adv-x="506" 
d="M177 363v-20q0 -19 18.5 -28.5t54.5 -16.5q31 -6 44 -9t44 -11t47.5 -17.5t37 -24t29.5 -34.5t9 -45v-20q0 -72 -49 -108t-162 -36q-117 0 -162 38.5t-45 118.5v7q32 7 64 7q14 0 30 -2t25 -4l9 -1v-7q0 -40 17 -57t62 -17q44 0 61.5 14t17.5 47v20q0 21 -20 31t-59 17
q-34 7 -52 11t-51.5 15.5t-51.5 24.5t-33 35.5t-15 51.5v20q0 72 48 107.5t158 35.5q113 0 157 -38.5t44 -118.5v-7q-32 -6 -64 -6l-64 6v7q0 40 -16 57t-57 17q-42 0 -59 -14t-17 -46zM330 565l-77 78l-78 -78q-20 -6 -39 -6l-39 6l99 132q27 6 56 6l58 -6l98 -132
q-18 -6 -39 -6z" />
    <glyph glyph-name="Scedilla" unicode="&#x15e;" horiz-adv-x="562" 
d="M177 518v-36q0 -29 35.5 -48.5t86.5 -32.5t102.5 -31t87 -56.5t35.5 -96.5v-35q0 -90 -50 -136.5t-164 -51.5v-13q0 -13 14 -21.5t31 -12.5t31 -17t14 -35v-10q0 -36 -25 -54t-81 -18q-59 0 -81.5 19t-22.5 58v5q19 3 35 3l34 -3v-5q0 -18 7.5 -25t27.5 -7q19 0 26.5 6
t7.5 21v10q0 14 -22 21t-44.5 21t-22.5 44v13q-113 6 -158 52.5t-45 135.5v12q34 7 67 7q16 0 33 -1.5t26 -3.5l9 -2v-12q0 -54 23.5 -76.5t83.5 -22.5t83.5 22t23.5 77v35q0 28 -25.5 47.5t-64 29.5t-83 25t-83 31.5t-64 50.5t-25.5 81v36q0 95 56 141.5t185 46.5
q133 0 184.5 -46t51.5 -142v-12q-35 -7 -68 -7q-16 0 -32.5 1.5t-25.5 3.5l-9 2v12q0 53 -22 75.5t-79 22.5t-80.5 -23t-23.5 -75z" />
    <glyph glyph-name="scedilla" unicode="&#x15f;" horiz-adv-x="506" 
d="M177 363v-20q0 -19 18.5 -28.5t54.5 -16.5q31 -6 44 -9t44 -11t47.5 -17.5t37 -24t29.5 -34.5t9 -45v-20q0 -68 -42.5 -103.5t-139.5 -39.5v-13q0 -13 14 -21.5t30.5 -12.5t30.5 -17t14 -35v-10q0 -36 -24.5 -54t-81.5 -18q-59 0 -81 19t-22 58v5q18 3 34 3l35 -3v-5
q0 -18 7 -25t27 -7q19 0 26.5 6t7.5 21v10q0 14 -22 21t-44.5 21t-22.5 44v14q-92 6 -128 44t-36 111v7q32 7 64 7q14 0 30 -2t25 -4l9 -1v-7q0 -40 17 -57t62 -17q44 0 61.5 14t17.5 47v20q0 21 -20 31t-59 17q-34 7 -52 11t-51.5 15.5t-51.5 24.5t-33 35.5t-15 51.5v20
q0 72 48 107.5t158 35.5q113 0 157 -38.5t44 -118.5v-7q-32 -6 -64 -6l-64 6v7q0 40 -16 57t-57 17q-42 0 -59 -14t-17 -46z" />
    <glyph glyph-name="Scaron" unicode="&#x160;" horiz-adv-x="562" 
d="M177 518v-36q0 -29 35.5 -48.5t86.5 -32.5t102.5 -31t87 -56.5t35.5 -96.5v-35q0 -95 -57.5 -142t-188.5 -47q-136 0 -189 46.5t-53 142.5v12q34 7 67 7q16 0 33 -1.5t26 -3.5l9 -2v-12q0 -54 23.5 -76.5t83.5 -22.5t83.5 22t23.5 77v35q0 28 -25.5 47.5t-64 29.5t-83 25
t-83 31.5t-64 50.5t-25.5 81v36q0 95 56 141.5t185 46.5q133 0 184.5 -46t51.5 -142v-12q-35 -7 -68 -7q-16 0 -32.5 1.5t-25.5 3.5l-9 2v12q0 53 -22 75.5t-79 22.5t-80.5 -23t-23.5 -75zM203 885l78 -78l77 78q21 6 39 6l39 -6l-98 -132q-28 -6 -57 -6l-57 6l-99 132
q19 6 39 6z" />
    <glyph glyph-name="scaron" unicode="&#x161;" horiz-adv-x="506" 
d="M177 363v-20q0 -19 18.5 -28.5t54.5 -16.5q31 -6 44 -9t44 -11t47.5 -17.5t37 -24t29.5 -34.5t9 -45v-20q0 -72 -49 -108t-162 -36q-117 0 -162 38.5t-45 118.5v7q32 7 64 7q14 0 30 -2t25 -4l9 -1v-7q0 -40 17 -57t62 -17q44 0 61.5 14t17.5 47v20q0 21 -20 31t-59 17
q-34 7 -52 11t-51.5 15.5t-51.5 24.5t-33 35.5t-15 51.5v20q0 72 48 107.5t158 35.5q113 0 157 -38.5t44 -118.5v-7q-32 -6 -64 -6l-64 6v7q0 40 -16 57t-57 17q-42 0 -59 -14t-17 -46zM175 697l78 -78l77 78q21 6 39 6l39 -6l-98 -132q-28 -6 -57 -6l-57 6l-99 132
q19 6 39 6z" />
    <glyph glyph-name="Tcommaaccent" unicode="&#x162;" horiz-adv-x="556" 
d="M524 610h-177v-607q-34 -6 -69 -6l-70 6v607h-178q-6 17 -6 45q0 12 1.5 23.5t2.5 16.5l2 5h494q6 -18 6 -45q0 -12 -1.5 -23.5t-2.5 -16.5zM321 -44q0 -47 -15.5 -85t-31.5 -53l-15 -15q-14 -5 -27 -5l-28 5q34 53 34 153q20 7 41 7q9 0 19.5 -1.5t16.5 -3.5z" />
    <glyph glyph-name="tcommaaccent" unicode="&#x163;" horiz-adv-x="378" 
d="M330 417h-117v-266q0 -41 14.5 -58t51.5 -17q21 0 51 12q5 -17 5 -37l-5 -38l-10 -3q-10 -4 -21.5 -7.5t-30.5 -6.5t-37 -3q-80 0 -115 39.5t-35 118.5v266h-46q-6 16 -6 41q0 11 1.5 21.5t3.5 15.5l1 5h53l14 97q27 6 55 6l56 -6v-97h117q6 -17 6 -42q0 -11 -1.5 -21
t-2.5 -15zM247 -44q0 -29 -6.5 -56t-15.5 -43.5t-17.5 -29.5t-15.5 -19l-6 -5q-14 -5 -27 -5l-28 5q33 53 33 153q20 7 42 7q9 0 19.5 -1.5t16.5 -3.5z" />
    <glyph glyph-name="Tcaron" unicode="&#x164;" horiz-adv-x="556" 
d="M524 610h-177v-607q-34 -6 -69 -6l-70 6v607h-178q-6 17 -6 45q0 12 1.5 23.5t2.5 16.5l2 5h494q6 -18 6 -45q0 -12 -1.5 -23.5t-2.5 -16.5zM200 885l78 -78l77 78q21 6 39 6l39 -6l-98 -132q-28 -6 -57 -6l-57 6l-99 132q19 6 39 6z" />
    <glyph glyph-name="tcaron" unicode="&#x165;" horiz-adv-x="505" 
d="M330 417h-117v-266q0 -41 14.5 -58t51.5 -17q21 0 51 12q5 -17 5 -37l-5 -38l-10 -3q-10 -4 -21.5 -7.5t-30.5 -6.5t-37 -3q-80 0 -115 39.5t-35 118.5v266h-46q-6 16 -6 41q0 11 1.5 21.5t3.5 15.5l1 5h53l14 97q27 6 55 6l56 -6v-97h117q6 -17 6 -42q0 -11 -1.5 -21
t-2.5 -15zM512 697q0 -47 -8 -88.5t-20 -67t-24 -44t-20 -26.5l-8 -8q-16 -6 -31 -6l-31 6q4 8 10.5 25t17 77.5t10.5 131.5q26 6 52 6z" />
    <glyph glyph-name="Tbar" unicode="&#x166;" horiz-adv-x="556" 
d="M483 319h-136v-316q-34 -6 -69 -6l-70 6v316h-134q-6 16 -6 42q0 11 1.5 21.5t2.5 15.5l2 4h134v208h-178q-6 17 -6 45q0 12 1.5 23.5t2.5 16.5l2 5h494q6 -18 6 -45q0 -12 -1.5 -23.5t-2.5 -16.5l-2 -5h-177v-208h136q6 -16 6 -41q0 -11 -1.5 -21.5t-3.5 -15.5z" />
    <glyph glyph-name="tbar" unicode="&#x167;" horiz-adv-x="378" 
d="M330 277h-117v-126q0 -41 14.5 -58t51.5 -17q21 0 51 12q5 -17 5 -37l-5 -38l-10 -3q-10 -4 -21.5 -7.5t-30.5 -6.5t-37 -3q-80 0 -115 39.5t-35 118.5v126h-46q-6 14 -6 38q0 10 1.5 19.5t3.5 13.5l1 5h46v71h-46q-6 14 -6 38q0 10 1.5 19.5t3.5 14.5l1 4h53l14 97
q27 6 55 6l56 -6v-97h117q6 -15 6 -38q0 -10 -1.5 -19.5t-2.5 -14.5l-2 -4h-117v-71h117q6 -15 6 -38q0 -10 -1.5 -19.5t-2.5 -13.5z" />
    <glyph glyph-name="Utilde" unicode="&#x168;" horiz-adv-x="600" 
d="M552 697v-515q0 -94 -59.5 -141.5t-192.5 -47.5t-192.5 47.5t-59.5 141.5v515q35 6 70 6l69 -6v-515q0 -53 25.5 -76t87.5 -23t87.5 23t25.5 76v515q34 6 69 6zM136 754v4q0 54 18 79t66 25q38 0 62.5 -14t40 -27.5t29.5 -13.5q23 0 31.5 10t8.5 34v5q18 6 37 6l35 -6v-4
q0 -55 -17.5 -79.5t-66.5 -24.5q-38 0 -63 14t-40 27.5t-29 13.5q-23 0 -31.5 -9.5t-8.5 -34.5v-5q-18 -6 -36 -6z" />
    <glyph glyph-name="utilde" unicode="&#x169;" horiz-adv-x="518" 
d="M341 3v32q-6 -5 -17.5 -12t-48 -18.5t-74.5 -11.5q-81 0 -117 43t-36 128v333q33 6 66 6l66 -6v-333q0 -48 15 -68t54 -20q29 0 52 9t31 18l9 9v385q33 6 66 6l66 -6v-494q-33 -6 -66 -6zM94 593v4q0 54 18.5 79t65.5 25q38 0 62.5 -14t40 -28t30.5 -14q22 0 30.5 10
t8.5 34v5q18 7 37 7q8 0 17 -1.5t14 -3.5l5 -2v-4q0 -54 -18 -79t-66 -25q-30 0 -52.5 9t-33 19t-23 19t-24.5 9q-22 0 -30.5 -10t-8.5 -34v-5q-18 -7 -37 -7q-8 0 -17 2t-14 4z" />
    <glyph glyph-name="Umacron" unicode="&#x16a;" horiz-adv-x="600" 
d="M552 697v-515q0 -94 -59.5 -141.5t-192.5 -47.5t-192.5 47.5t-59.5 141.5v515q35 6 70 6l69 -6v-515q0 -53 25.5 -76t87.5 -23t87.5 23t25.5 76v515q34 6 69 6zM435 771h-271q-5 12 -5 31l5 31h271q6 -12 6 -31q0 -8 -1.5 -16t-3.5 -12z" />
    <glyph glyph-name="umacron" unicode="&#x16b;" horiz-adv-x="518" 
d="M341 3v32q-6 -5 -17.5 -12t-48 -18.5t-74.5 -11.5q-81 0 -117 43t-36 128v333q33 6 66 6l66 -6v-333q0 -48 15 -68t54 -20q29 0 52 9t31 18l9 9v385q33 6 66 6l66 -6v-494q-33 -6 -66 -6zM394 590h-271q-5 12 -5 31l5 31h271q6 -12 6 -31q0 -8 -1.5 -15.5t-2.5 -11.5z
" />
    <glyph glyph-name="Ubreve" unicode="&#x16c;" horiz-adv-x="600" 
d="M552 697v-515q0 -94 -59.5 -141.5t-192.5 -47.5t-192.5 47.5t-59.5 141.5v515q35 6 70 6l69 -6v-515q0 -53 25.5 -76t87.5 -23t87.5 23t25.5 76v515q34 6 69 6zM300 747q-84 0 -116 28.5t-32 88.5v10q21 6 42 6l44 -6v-11q0 -32 13.5 -45t48.5 -13t48.5 13t13.5 45v11
q22 6 43 6l44 -6v-10q0 -60 -32.5 -88.5t-116.5 -28.5z" />
    <glyph glyph-name="ubreve" unicode="&#x16d;" horiz-adv-x="518" 
d="M341 3v32q-6 -5 -17.5 -12t-48 -18.5t-74.5 -11.5q-81 0 -117 43t-36 128v333q33 6 66 6l66 -6v-333q0 -48 15 -68t54 -20q29 0 52 9t31 18l9 9v385q33 6 66 6l66 -6v-494q-33 -6 -66 -6zM258 569q-84 0 -116 28.5t-32 89.5v9q21 6 43 6l43 -6v-11q0 -31 13.5 -44
t48.5 -13t48.5 13t13.5 44v11q22 6 43 6l44 -6v-9q0 -61 -32.5 -89.5t-116.5 -28.5z" />
    <glyph glyph-name="Uring" unicode="&#x16e;" horiz-adv-x="600" 
d="M552 697v-515q0 -94 -59.5 -141.5t-192.5 -47.5t-192.5 47.5t-59.5 141.5v515q35 6 70 6l69 -6v-515q0 -53 25.5 -76t87.5 -23t87.5 23t25.5 76v515q34 6 69 6zM211 812v16q0 72 89 72t89 -72v-16q0 -72 -89 -72t-89 72zM263 828v-16q0 -30 37 -30q38 0 38 30v16
q0 29 -38 29q-37 0 -37 -29z" />
    <glyph glyph-name="uring" unicode="&#x16f;" horiz-adv-x="518" 
d="M341 3v32q-6 -5 -17.5 -12t-48 -18.5t-74.5 -11.5q-81 0 -117 43t-36 128v333q33 6 66 6l66 -6v-333q0 -48 15 -68t54 -20q29 0 52 9t31 18l9 9v385q33 6 66 6l66 -6v-494q-33 -6 -66 -6zM169 615v16q0 72 89 72t89 -72v-16q0 -72 -89 -72t-89 72zM221 631v-16
q0 -30 37 -30q38 0 38 30v16q0 29 -38 29q-37 0 -37 -29z" />
    <glyph glyph-name="Uhungarumlaut" unicode="&#x170;" horiz-adv-x="600" 
d="M552 697v-515q0 -94 -59.5 -141.5t-192.5 -47.5t-192.5 47.5t-59.5 141.5v515q35 6 70 6l69 -6v-515q0 -53 25.5 -76t87.5 -23t87.5 23t25.5 76v515q34 6 69 6zM348 888l-140 -135q-20 -6 -39 -6l-38 6l96 135q29 6 60 6zM524 888l-140 -135q-21 -6 -39 -6l-39 6l96 135
q29 6 60 6z" />
    <glyph glyph-name="uhungarumlaut" unicode="&#x171;" horiz-adv-x="518" 
d="M341 3v32q-6 -5 -17.5 -12t-48 -18.5t-74.5 -11.5q-81 0 -117 43t-36 128v333q33 6 66 6l66 -6v-333q0 -48 15 -68t54 -20q29 0 52 9t31 18l9 9v385q33 6 66 6l66 -6v-494q-33 -6 -66 -6zM307 697l-140 -135q-21 -6 -39 -6l-39 6l96 135q29 6 60 6zM482 697l-140 -135
q-20 -6 -39 -6l-39 6l97 135q29 6 60 6z" />
    <glyph glyph-name="Uogonek" unicode="&#x172;" horiz-adv-x="600" 
d="M301 -92q0 43 44 87q-28 -2 -45 -2q-133 0 -192.5 47.5t-59.5 141.5v515q35 6 70 6l69 -6v-515q0 -53 25.5 -76t87.5 -23t87.5 23t25.5 76v515q34 6 69 6l70 -6v-515q0 -146 -142 -178q-4 -4 -11.5 -15.5t-16.5 -32.5t-9 -38q0 -35 34 -35q11 0 21 3t15 6l5 3
q4 -11 4 -24l-4 -23q-20 -18 -62 -18t-63.5 20.5t-21.5 57.5z" />
    <glyph glyph-name="uogonek" unicode="&#x173;" horiz-adv-x="518" 
d="M346 -92q0 45 47 89l-52 6v32q-6 -5 -17.5 -12t-48 -18.5t-74.5 -11.5q-81 0 -117 43t-36 128v333q33 6 66 6l66 -6v-333q0 -48 15 -68t54 -20q29 0 52 9t31 18l9 9v385q33 6 66 6l66 -6v-494q-10 -2 -22 -3q-34 -44 -34 -82q0 -35 35 -35q10 0 20 3t15 6l5 3
q5 -11 5 -24l-5 -23q-20 -18 -61 -18q-42 0 -63.5 20.5t-21.5 57.5z" />
    <glyph glyph-name="Wcircumflex" unicode="&#x174;" horiz-adv-x="953" 
d="M590 3l-113 556l-113 -556q-46 -6 -95 -6l-95 6l-159 694q35 6 67 6l70 -6l121 -568l119 568q37 6 85 6l85 -6l119 -568l121 568q36 6 69 6l67 -6l-159 -694q-45 -6 -94 -6zM554 753l-78 78l-78 -78q-20 -6 -39 -6l-38 6l98 132q27 6 56 6l58 -6l98 -132q-18 -6 -39 -6z
" />
    <glyph glyph-name="wcircumflex" unicode="&#x175;" horiz-adv-x="800" 
d="M484 3l-84 363l-83 -363q-42 -6 -88 -6l-88 6l-126 494q33 6 63 6l67 -6l88 -386l89 386q34 6 78 6l78 -6l89 -386l89 386q34 6 66 6l63 -6l-126 -494q-41 -6 -87 -6zM477 565l-78 78l-77 -78q-20 -6 -39 -6l-39 6l98 132q28 6 57 6l58 -6l98 -132q-18 -6 -39 -6z" />
    <glyph glyph-name="Ycircumflex" unicode="&#x176;" horiz-adv-x="610" 
d="M587 697l-212 -431v-263q-35 -6 -70 -6l-69 6v262l-213 432q42 6 75 6l75 -6l132 -297l132 297q40 6 75 6zM383 753l-78 78l-78 -78q-20 -6 -38 -6l-39 6l98 132q27 6 56 6l58 -6l98 -132q-18 -6 -38 -6z" />
    <glyph glyph-name="ycircumflex" unicode="&#x177;" horiz-adv-x="516" 
d="M205 -56l18 55l-42 4l-163 494q33 6 63 6l66 -6l113 -383l113 383q35 6 66 6l64 -6l-182 -549q-25 -82 -68 -118.5t-121 -36.5q-17 0 -32.5 3t-23.5 6l-7 3q-7 15 -7 39q0 10 2 20t4 14l1 5q22 -7 61 -7q55 0 75 68zM335 565l-77 78l-78 -78q-20 -6 -39 -6l-39 6l99 132
q27 6 56 6l58 -6l98 -132q-18 -6 -39 -6z" />
    <glyph glyph-name="Ydieresis" unicode="&#x178;" horiz-adv-x="610" 
d="M587 697l-212 -431v-263q-35 -6 -70 -6l-69 6v262l-213 432q42 6 75 6l75 -6l132 -297l132 297q40 6 75 6zM252 859v-106q-23 -6 -52 -6l-52 6v106q23 7 52 7q13 0 26 -2t20 -4zM462 859v-106q-23 -6 -52 -6l-52 6v106q23 7 52 7q13 0 26 -2t20 -4z" />
    <glyph glyph-name="Zacute" unicode="&#x179;" horiz-adv-x="548" 
d="M503 610l-308 -516h309q6 -20 6 -47q0 -12 -1.5 -23.5t-2.5 -17.5l-2 -6h-461q-6 17 -6 45q0 12 1.5 23.5t3.5 16.5l1 5l307 516h-305q-6 19 -6 47q0 12 1.5 23.5t3.5 17.5l1 6h458q5 -18 5 -45zM409 888l-140 -135q-21 -6 -39 -6l-39 6l96 135q29 6 60 6z" />
    <glyph glyph-name="zacute" unicode="&#x17a;" horiz-adv-x="468" 
d="M424 417l-239 -330h239q6 -19 6 -43q0 -11 -1.5 -22t-2.5 -16l-2 -6h-381q-6 16 -6 42q0 11 1.5 21t3.5 15l1 5l239 330h-239q-6 18 -6 43q0 11 1.5 22t3.5 16l1 6h381q6 -17 6 -42q0 -11 -1.5 -21t-2.5 -15zM369 697l-140 -135q-21 -6 -39 -6l-39 6l96 135q29 6 60 6z
" />
    <glyph glyph-name="Zdotaccent" unicode="&#x17b;" horiz-adv-x="548" 
d="M503 610l-308 -516h309q6 -20 6 -47q0 -12 -1.5 -23.5t-2.5 -17.5l-2 -6h-461q-6 17 -6 45q0 12 1.5 23.5t3.5 16.5l1 5l307 516h-305q-6 19 -6 47q0 12 1.5 23.5t3.5 17.5l1 6h458q5 -18 5 -45zM339 870v-116q-33 -6 -66 -6l-66 6v116q33 7 66 7q15 0 31.5 -1.5
t25.5 -3.5z" />
    <glyph glyph-name="zdotaccent" unicode="&#x17c;" horiz-adv-x="468" 
d="M424 417l-239 -330h239q6 -19 6 -43q0 -11 -1.5 -22t-2.5 -16l-2 -6h-381q-6 16 -6 42q0 11 1.5 21t3.5 15l1 5l239 330h-239q-6 18 -6 43q0 11 1.5 22t3.5 16l1 6h381q6 -17 6 -42q0 -11 -1.5 -21t-2.5 -15zM299 697v-117q-33 -6 -66 -6l-66 6v117q33 6 66 6z" />
    <glyph glyph-name="Zcaron" unicode="&#x17d;" horiz-adv-x="548" 
d="M503 610l-308 -516h309q6 -20 6 -47q0 -12 -1.5 -23.5t-2.5 -17.5l-2 -6h-461q-6 17 -6 45q0 12 1.5 23.5t3.5 16.5l1 5l307 516h-305q-6 19 -6 47q0 12 1.5 23.5t3.5 17.5l1 6h458q5 -18 5 -45zM196 885l77 -78l78 78q20 6 39 6l39 -6l-98 -132q-28 -6 -57 -6l-58 6
l-98 132q18 6 39 6z" />
    <glyph glyph-name="zcaron" unicode="&#x17e;" horiz-adv-x="468" 
d="M424 417l-239 -330h239q6 -19 6 -43q0 -11 -1.5 -22t-2.5 -16l-2 -6h-381q-6 16 -6 42q0 11 1.5 21t3.5 15l1 5l239 330h-239q-6 18 -6 43q0 11 1.5 22t3.5 16l1 6h381q6 -17 6 -42q0 -11 -1.5 -21t-2.5 -15zM156 697l77 -78l78 78q20 6 39 6l39 -6l-98 -132
q-28 -6 -57 -6l-58 6l-98 132q18 6 39 6z" />
    <glyph glyph-name="longs" unicode="&#x17f;" horiz-adv-x="351" 
d="M216 548v-544q-33 -6 -66 -6l-66 6v414h-46q-6 16 -6 41q0 11 1.5 21.5t2.5 15.5l2 5h46v47q0 79 34.5 118.5t113.5 39.5q48 0 108 -12q5 -19 5 -40l-5 -38q-18 7 -60 7q-36 0 -50 -17t-14 -58z" />
    <glyph glyph-name="uni018F" unicode="&#x18f;" horiz-adv-x="581" 
d="M208 389h189v129q0 54 -24 76t-87 22t-87.5 -22t-24.5 -76v-12q-30 -7 -62 -7q-14 0 -29.5 1.5t-24.5 3.5l-8 2v12q0 96 51.5 142t184.5 46t191.5 -47t58.5 -141v-336q0 -94 -58.5 -141.5t-191.5 -47.5q-135 0 -187.5 46.5t-52.5 142.5v195q55 12 162 12zM178 306v-124
q0 -54 23.5 -76.5t84.5 -22.5q62 0 86.5 22.5t24.5 76.5v124h-219z" />
    <glyph glyph-name="florin" unicode="&#x192;" horiz-adv-x="371" 
d="M84 -52v470h-46q-6 16 -6 41q0 11 1.5 21.5t2.5 15.5l2 5h46v47q0 79 34.5 118.5t113.5 39.5q48 0 108 -12q5 -19 5 -40l-5 -38q-18 7 -60 7q-36 0 -50 -17t-14 -58v-47h124q6 -17 6 -42q0 -11 -1.5 -21.5t-2.5 -15.5l-2 -4h-124v-470q0 -77 -33.5 -116t-108.5 -39
q-15 0 -30 1.5t-26.5 3.5t-20 4t-15.5 4l-6 2q-5 18 -5 38l5 38q20 -8 49 -8q33 0 46 17t13 55z" />
    <glyph glyph-name="uni01DD" unicode="&#x1dd;" horiz-adv-x="509" 
d="M464 335v-171q0 -85 -50 -128t-163 -43q-116 0 -161 42t-45 129v120q49 12 143 12h144v39q0 48 -23 68t-83 20q-43 0 -83 -7.5t-59 -14.5t-19 -8l-1 2q-1 2 -2 6t-2 8.5t-2 11.5t-1 14q0 11 2 21.5t4 15.5l2 4q62 30 161 30q127 0 182.5 -42.5t55.5 -128.5zM332 213h-162
v-49q0 -48 17.5 -68t63.5 -20t63.5 20t17.5 68v49z" />
    <glyph glyph-name="AEacute" unicode="&#x1fc;" horiz-adv-x="755" 
d="M460 315v-225h261q5 -18 5 -45l-5 -45h-187q-57 0 -110 2t-78 4l-25 3v151h-127l-44 -157q-36 -6 -69 -6l-67 6l197 688q131 9 323 9h182q5 -18 5 -45l-5 -45h-256v-205h224q6 -18 6 -45q0 -12 -1.5 -23t-2.5 -17l-2 -5h-224zM314 610l-101 -360h108v360h-7zM585 888
l-140 -135q-20 -6 -39 -6l-39 6l97 135q29 6 60 6z" />
    <glyph glyph-name="aeacute" unicode="&#x1fd;" horiz-adv-x="790" 
d="M189 -7q-76 0 -110 36t-34 108v13q0 62 43 96t142 46l105 12v42q0 41 -17.5 59t-61.5 18q-43 0 -60 -17t-17 -57v-10q-30 -6 -62 -6l-63 6v10q0 80 44 118.5t158 38.5q108 0 146 -57q37 57 143 57q113 0 156.5 -42t43.5 -129v-117q-47 -12 -139 -12h-139v-42
q0 -48 22.5 -68t79.5 -20q41 0 80 8t57.5 15t18.5 8l1 -2q1 -2 2 -6t2 -8.5t2 -11.5t1 -14q0 -11 -2 -21.5t-4 -15.5l-2 -4q-60 -31 -156 -31q-129 0 -171 68q-53 -68 -209 -68zM335 224l-81 -11q-77 -11 -77 -63v-13q0 -32 14 -46.5t50 -14.5q52 0 73 20.5t21 67.5v60z
M467 289h153v46q0 48 -17 68t-60 20t-59.5 -20t-16.5 -68v-46zM537 697l-140 -135q-20 -6 -38 -6l-39 6l96 135q29 6 60 6z" />
    <glyph glyph-name="Oslashacute" unicode="&#x1fe;" horiz-adv-x="599" 
d="M570 697l-45 -71q29 -42 29 -108v-336q0 -94 -60 -141.5t-195 -47.5q-95 0 -156 25l-9 -15q-27 -6 -53 -6l-52 6l44 70q-28 43 -28 109v336q0 94 60 141t194 47q95 0 156 -25l10 16q25 6 52 6zM299 80q68 0 95.5 23.5t27.5 78.5v279l-223 -354q27 -27 100 -27zM177 518
v-280l222 354q-28 28 -100 28q-67 0 -94.5 -23.5t-27.5 -78.5zM435 888l-140 -135q-20 -6 -38 -6l-39 6l96 135q29 6 60 6z" />
    <glyph glyph-name="oslashacute" unicode="&#x1ff;" horiz-adv-x="519" 
d="M480 497l-39 -53q33 -40 33 -109v-171q0 -85 -50.5 -128t-164.5 -43q-80 0 -130 22l-9 -12q-22 -6 -43 -6l-42 6l40 54q-30 40 -30 107v171q0 85 50 128t164 43q80 0 128 -21l9 12q20 6 42 6zM259 69q55 0 76 21.5t21 73.5v162l-172 -236q21 -21 75 -21zM163 335v-157
l170 232q-21 20 -74 20q-54 0 -75 -21.5t-21 -73.5zM395 697l-140 -135q-20 -6 -38 -6l-39 6l96 135q29 6 60 6z" />
    <glyph glyph-name="Scommaaccent" unicode="&#x218;" horiz-adv-x="562" 
d="M177 518v-36q0 -29 35.5 -48.5t86.5 -32.5t102.5 -31t87 -56.5t35.5 -96.5v-35q0 -95 -57.5 -142t-188.5 -47q-136 0 -189 46.5t-53 142.5v12q34 7 67 7q16 0 33 -1.5t26 -3.5l9 -2v-12q0 -54 23.5 -76.5t83.5 -22.5t83.5 22t23.5 77v35q0 28 -25.5 47.5t-64 29.5t-83 25
t-83 31.5t-64 50.5t-25.5 81v36q0 95 56 141.5t185 46.5q133 0 184.5 -46t51.5 -142v-12q-35 -7 -68 -7q-16 0 -32.5 1.5t-25.5 3.5l-9 2v12q0 53 -22 75.5t-79 22.5t-80.5 -23t-23.5 -75zM318 -44q0 -29 -6.5 -56t-15 -43.5t-17.5 -29.5t-15 -19l-7 -5q-14 -5 -28 -5l-27 5
q33 53 33 153q20 7 41 7q9 0 19.5 -1.5t16.5 -3.5z" />
    <glyph glyph-name="scommaaccent" unicode="&#x219;" horiz-adv-x="506" 
d="M177 363v-20q0 -19 18.5 -28.5t54.5 -16.5q31 -6 44 -9t44 -11t47.5 -17.5t37 -24t29.5 -34.5t9 -45v-20q0 -72 -49 -108t-162 -36q-117 0 -162 38.5t-45 118.5v7q32 7 64 7q14 0 30 -2t25 -4l9 -1v-7q0 -40 17 -57t62 -17q44 0 61.5 14t17.5 47v20q0 21 -20 31t-59 17
q-34 7 -52 11t-51.5 15.5t-51.5 24.5t-33 35.5t-15 51.5v20q0 72 48 107.5t158 35.5q113 0 157 -38.5t44 -118.5v-7q-32 -6 -64 -6l-64 6v7q0 40 -16 57t-57 17q-42 0 -59 -14t-17 -46zM296 -44q0 -29 -6.5 -56t-15 -43.5t-17.5 -29.5t-15 -19l-7 -5q-14 -5 -28 -5l-27 5
q33 53 33 153q20 7 42 7q9 0 19 -1.5t16 -3.5z" />
    <glyph glyph-name="uni021A" unicode="&#x21a;" horiz-adv-x="556" 
d="M524 610h-177v-607q-34 -6 -69 -6l-70 6v607h-178q-6 17 -6 45q0 12 1.5 23.5t2.5 16.5l2 5h494q6 -18 6 -45q0 -12 -1.5 -23.5t-2.5 -16.5zM321 -44q0 -47 -15.5 -85t-31.5 -53l-15 -15q-14 -5 -27 -5l-28 5q34 53 34 153q20 7 41 7q9 0 19.5 -1.5t16.5 -3.5z" />
    <glyph glyph-name="uni021B" unicode="&#x21b;" horiz-adv-x="378" 
d="M330 417h-117v-266q0 -41 14.5 -58t51.5 -17q21 0 51 12q5 -17 5 -37l-5 -38l-10 -3q-10 -4 -21.5 -7.5t-30.5 -6.5t-37 -3q-80 0 -115 39.5t-35 118.5v266h-46q-6 16 -6 41q0 11 1.5 21.5t3.5 15.5l1 5h53l14 97q27 6 55 6l56 -6v-97h117q6 -17 6 -42q0 -11 -1.5 -21
t-2.5 -15zM247 -44q0 -29 -6.5 -56t-15.5 -43.5t-17.5 -29.5t-15.5 -19l-6 -5q-14 -5 -27 -5l-28 5q33 53 33 153q20 7 42 7q9 0 19.5 -1.5t16.5 -3.5z" />
    <glyph glyph-name="dotlessj" unicode="&#x237;" horiz-adv-x="240" 
d="M60 -52v549q33 6 66 6l66 -6v-549q0 -77 -33 -116t-109 -39q-18 0 -36.5 2t-30 5t-21 5.5t-10.5 2.5q-5 18 -5 38l5 38q20 -8 50 -8q33 0 45.5 16.5t12.5 55.5z" />
    <glyph glyph-name="circumflex" unicode="&#x2c6;" horiz-adv-x="229" 
d="M192 565l-78 78l-77 -78q-20 -6 -39 -6l-39 6l98 132q28 6 57 6l58 -6l98 -132q-18 -6 -39 -6z" />
    <glyph glyph-name="caron" unicode="&#x2c7;" horiz-adv-x="229" 
d="M37 697l77 -78l78 78q20 6 39 6l39 -6l-98 -132q-28 -6 -57 -6l-58 6l-98 132q18 6 39 6z" />
    <glyph glyph-name="breve" unicode="&#x2d8;" horiz-adv-x="413" 
d="M205 569q-84 0 -116.5 29t-32.5 89v9q22 6 43 6l44 -6v-11q0 -31 13.5 -44t48.5 -13t48.5 13t13.5 44v11q21 6 43 6l43 -6v-9q0 -61 -32 -89.5t-116 -28.5z" />
    <glyph glyph-name="dotaccent" unicode="&#x2d9;" horiz-adv-x="229" 
d="M180 697v-117q-33 -6 -66 -6l-66 6v117q33 6 66 6z" />
    <glyph glyph-name="ring" unicode="&#x2da;" horiz-adv-x="310" 
d="M66 615v16q0 72 89 72t89 -72v-16q0 -72 -89 -72t-89 72zM117 631v-16q0 -30 38 -30q37 0 37 30v16q0 29 -37 29q-38 0 -38 -29z" />
    <glyph glyph-name="ogonek" unicode="&#x2db;" horiz-adv-x="152" 
d="M1 -92q0 23 14 47.5t28 36.5l14 13h53q-38 -47 -38 -87q0 -35 35 -35q10 0 20 3t15 6l5 3q5 -11 5 -24l-5 -23q-20 -18 -61 -18q-42 0 -63.5 20.5t-21.5 57.5z" />
    <glyph glyph-name="tilde" unicode="&#x2dc;" horiz-adv-x="407" 
d="M39 593v4q0 54 18.5 79t65.5 25q38 0 62.5 -14t40 -28t30.5 -14q22 0 30.5 10t8.5 34v5q18 7 37 7q8 0 17 -1.5t14 -3.5l5 -2v-4q0 -54 -18 -79t-66 -25q-30 0 -52.5 9t-33 19t-23 19t-24.5 9q-22 0 -31 -10t-9 -34v-5q-18 -7 -36 -7q-8 0 -17 2t-14 4z" />
    <glyph glyph-name="hungarumlaut" unicode="&#x2dd;" horiz-adv-x="229" 
d="M136 697l-140 -135q-20 -6 -38 -6l-39 6l96 135q29 6 60 6zM312 697l-140 -135q-20 -6 -39 -6l-39 6l96 135q29 6 60 6z" />
    <glyph glyph-name="uni0400" unicode="&#x400;" 
d="M187 315v-225h294q6 -18 6 -45q0 -12 -1.5 -23t-3.5 -16l-1 -6h-220q-57 0 -110 2t-78 4l-25 3v682q85 9 213 9h215q6 -18 6 -45q0 -12 -1.5 -23.5t-2.5 -16.5l-2 -5h-289v-205h258q5 -18 5 -45l-5 -45h-258zM275 753l-140 135q32 6 61 6l60 -6l97 -135q-19 -6 -39 -6z
" />
    <glyph glyph-name="afii10023" unicode="&#x401;" 
d="M187 315v-225h294q6 -18 6 -45q0 -12 -1.5 -23t-3.5 -16l-1 -6h-220q-57 0 -110 2t-78 4l-25 3v682q85 9 213 9h215q6 -18 6 -45q0 -12 -1.5 -23.5t-2.5 -16.5l-2 -5h-289v-205h258q5 -18 5 -45l-5 -45h-258zM218 860v-106q-24 -6 -52 -6q-13 0 -26 1.5t-20 2.5l-6 2v106
q22 6 52 6zM428 860v-106q-24 -6 -52 -6q-13 0 -26 1.5t-20 2.5l-6 2v106q22 6 52 6z" />
    <glyph glyph-name="afii10051" unicode="&#x402;" horiz-adv-x="727" 
d="M543 148v117q0 48 -19 68t-67 20q-74 0 -110 -36v-314q-34 -6 -69 -6l-70 6v607h-178q-6 17 -6 45q0 12 1.5 23.5t2.5 16.5l2 5h494q6 -18 6 -45q0 -12 -1.5 -23.5t-2.5 -16.5l-2 -5h-177v-208q7 5 20 11.5t54 18t83 11.5q95 0 136.5 -44.5t41.5 -133.5v-117
q0 -77 -34.5 -116t-112.5 -39q-15 0 -30 1.5t-27 3.5t-21 4t-15 4l-7 2q-5 18 -5 39l5 37q20 -8 49 -8q33 0 46 17t13 55z" />
    <glyph glyph-name="afii10052" unicode="&#x403;" horiz-adv-x="472" 
d="M384 888l-140 -135q-20 -6 -39 -6l-39 6l97 135q28 6 60 6zM187 610v-607q-34 -6 -69 -6l-70 6v688q85 9 213 9h180q6 -18 6 -45q0 -12 -1.5 -23.5t-3.5 -16.5l-1 -5h-254z" />
    <glyph glyph-name="afii10053" unicode="&#x404;" horiz-adv-x="568" 
d="M45 182v336q0 94 58.5 141t191.5 47t184.5 -46t51.5 -142v-12q-31 -7 -62 -7q-14 0 -30 1.5t-25 3.5l-8 2v12q0 54 -24 76t-87 22t-87 -22t-24 -76v-120h260q6 -18 6 -45q0 -12 -1.5 -23t-2.5 -16l-2 -6h-260v-126q0 -54 28 -76.5t100 -22.5q53 0 103 11t73.5 20.5
t23.5 11.5l1 -2q1 -2 2 -6t2 -9t2 -12.5t1 -15.5q0 -13 -2 -24.5t-4 -16.5l-2 -6q-9 -5 -25 -11.5t-68.5 -18t-107.5 -11.5q-142 0 -204 47.5t-62 141.5z" />
    <glyph glyph-name="afii10054" unicode="&#x405;" horiz-adv-x="565" 
d="M177 518v-36q0 -29 35.5 -48.5t86.5 -32.5t102.5 -31t87 -56.5t35.5 -96.5v-35q0 -95 -57.5 -142t-188.5 -47q-136 0 -189 46.5t-53 142.5v12q34 7 67 7q16 0 33 -1.5t26 -3.5l9 -2v-12q0 -54 23.5 -76.5t83.5 -22.5t83.5 22t23.5 77v35q0 28 -25.5 47.5t-64 29.5t-83 25
t-83 31.5t-64 50.5t-25.5 81v36q0 95 56 141.5t185 46.5q133 0 184.5 -46t51.5 -142v-12q-35 -7 -68 -7q-16 0 -32.5 1.5t-25.5 3.5l-9 2v12q0 53 -22 75.5t-79 22.5t-80.5 -23t-23.5 -75z" />
    <glyph glyph-name="afii10055" unicode="&#x406;" horiz-adv-x="332" 
d="M32 90h64v520h-64q-6 17 -6 45q0 12 1.5 23.5t2.5 16.5l2 5h268q6 -18 6 -45q0 -12 -1.5 -23.5t-2.5 -16.5l-2 -5h-65v-520h65q6 -17 6 -45q0 -12 -1.5 -23t-2.5 -16l-2 -6h-268q-6 18 -6 45q0 12 1.5 23.5t2.5 16.5z" />
    <glyph glyph-name="afii10056" unicode="&#x407;" horiz-adv-x="332" 
d="M126 859v-106q-23 -6 -52 -6l-52 6v106q23 7 52 7q13 0 26 -2t20 -4zM310 859v-106q-23 -6 -52 -6l-52 6v106q23 7 52 7q13 0 26 -2t20 -4zM32 90h64v520h-64q-6 17 -6 45q0 12 1.5 23.5t2.5 16.5l2 5h268q6 -18 6 -45q0 -12 -1.5 -23.5t-2.5 -16.5l-2 -5h-65v-520h65
q6 -17 6 -45q0 -12 -1.5 -23t-2.5 -16l-2 -6h-268q-6 18 -6 45q0 12 1.5 23.5t2.5 16.5z" />
    <glyph glyph-name="afii10057" unicode="&#x408;" horiz-adv-x="476" 
d="M427 697v-515q0 -94 -53.5 -141.5t-176.5 -47.5q-41 0 -78.5 10.5t-54.5 20.5l-18 10q-8 18 -8 47q0 8 1 15.5t2 12.5t2 9t2 6l1 2q0 -2 17.5 -11.5t55 -20.5t77.5 -11q52 0 72 22.5t20 76.5v515q35 6 70 6z" />
    <glyph glyph-name="afii10058" unicode="&#x409;" horiz-adv-x="965" 
d="M450 8v602h-156l-55 -435q-11 -94 -56.5 -138t-155.5 -44q-6 19 -6 46q0 12 1.5 23t3.5 16l1 5q41 0 57.5 20.5t22.5 71.5l67 516q83 12 207 12q55 0 107 -3t76 -6l25 -3v-269q38 4 92 4q131 0 189 -47.5t58 -142.5v-51q0 -95 -58 -142t-189 -47q-60 0 -118 3t-85 6z
M589 337v-253h92q60 0 84 23t24 78v51q0 55 -24 78t-84 23h-92z" />
    <glyph glyph-name="afii10059" unicode="&#x40a;" horiz-adv-x="948" 
d="M432 8v303h-245v-308q-34 -6 -69 -6l-70 6v694q35 6 70 6l69 -6v-296h245v296q34 6 70 6l69 -6v-275q39 4 93 4q131 0 189 -47.5t58 -142.5v-51q0 -95 -58 -142t-189 -47q-60 0 -118 3t-86 6zM571 337v-253h93q60 0 84 23t24 78v51q0 55 -24 78t-84 23h-93z" />
    <glyph glyph-name="afii10060" unicode="&#x40b;" horiz-adv-x="727" 
d="M524 610h-177v-208q7 5 20 11.5t54 18t83 11.5q95 0 136.5 -44.5t41.5 -133.5v-262q-35 -6 -70 -6l-69 6v262q0 48 -19 68t-67 20q-74 0 -110 -36v-314q-34 -6 -69 -6l-70 6v607h-178q-6 17 -6 45q0 12 1.5 23.5t2.5 16.5l2 5h494q6 -18 6 -45q0 -12 -1.5 -23.5
t-2.5 -16.5z" />
    <glyph glyph-name="afii10061" unicode="&#x40c;" horiz-adv-x="575" 
d="M413 3l-176 310l-50 -13v-297q-35 -6 -69 -6l-70 6v694q35 6 70 6l69 -6v-302l50 14l166 288q37 6 73 6l70 -6l-187 -336l200 -358q-37 -6 -72 -6zM422 888l-140 -135q-20 -6 -39 -6l-39 6l97 135q29 6 60 6z" />
    <glyph glyph-name="uni040D" unicode="&#x40d;" horiz-adv-x="628" 
d="M319 753l-140 135q31 6 61 6l60 -6l96 -135q-18 -6 -38 -6zM576 697v-694q-34 -6 -69 -6l-70 6v447l-271 -447q-29 -6 -59 -6l-59 6v694q35 6 70 6l69 -6v-447l271 447q29 6 59 6z" />
    <glyph glyph-name="afii10062" unicode="&#x40e;" horiz-adv-x="583" 
d="M294 747q-84 0 -116 28.5t-32 88.5v10q21 6 43 6l43 -6v-11q0 -32 13.5 -45t48.5 -13t48.5 13t13.5 45v11q22 6 43 6l44 -6v-10q0 -60 -32.5 -88.5t-116.5 -28.5zM239 147l17 55l-49 5l-189 490q35 6 67 6l69 -6l140 -379l139 379q37 6 69 6l68 -6l-208 -549
q-30 -82 -77 -118.5t-133 -36.5q-19 0 -37 3t-26 6l-8 3q-7 17 -7 42q0 11 2 22t4 16l1 5q26 -7 72 -7q66 0 86 64z" />
    <glyph glyph-name="afii10145" unicode="&#x40f;" horiz-adv-x="614" 
d="M252 -133v131q-55 1 -106 3.5t-74 4.5l-24 3v688q35 6 70 6l69 -6v-607h240v607q34 6 69 6l70 -6v-688q-81 -9 -203 -11v-131q-28 -6 -55 -6z" />
    <glyph glyph-name="afii10017" unicode="&#x410;" horiz-adv-x="612" 
d="M14 3l198 694q44 6 94 6l94 -6l198 -694q-35 -6 -66 -6l-70 6l-43 157h-225l-44 -157q-36 -6 -69 -6zM307 588l-93 -338h184z" />
    <glyph glyph-name="afii10018" unicode="&#x411;" horiz-adv-x="574" 
d="M187 610v-186q42 3 101 3q132 0 190.5 -47t58.5 -142v-53q0 -95 -58.5 -141.5t-190.5 -46.5q-63 0 -123 3t-89 6l-28 2v683q85 9 213 9h231q6 -18 6 -45q0 -12 -1.5 -23.5t-2.5 -16.5l-2 -5h-305zM187 338v-254h101q61 0 85.5 23t24.5 78v53q0 55 -24 77.5t-86 22.5h-101
z" />
    <glyph glyph-name="afii10019" unicode="&#x412;" horiz-adv-x="579" 
d="M48 8v684q99 12 240 12q128 0 185 -44.5t57 -134.5v-31q0 -102 -99 -135q111 -33 111 -141v-39q0 -92 -59.5 -137.5t-194.5 -45.5q-63 0 -123 3t-89 6zM187 315v-231h101q64 0 89.5 22t25.5 73v39q0 51 -25.5 74t-89.5 23h-101zM187 615v-214h101q57 0 80 22t23 71v31
q0 48 -23 69t-80 21h-101z" />
    <glyph glyph-name="afii10020" unicode="&#x413;" horiz-adv-x="472" 
d="M187 610v-607q-34 -6 -69 -6l-70 6v688q85 9 213 9h180q6 -18 6 -45q0 -12 -1.5 -23.5t-3.5 -16.5l-1 -5h-254z" />
    <glyph glyph-name="afii10021" unicode="&#x414;" horiz-adv-x="703" 
d="M26 -133v216q47 0 66 20.5t26 71.5l66 516q84 12 207 12q55 0 107 -3t76 -6l25 -3v-601l78 -4v-219q-28 -6 -55 -6l-56 6v133h-429v-133q-28 -6 -56 -6zM215 90h245v520h-159l-55 -435q-7 -54 -31 -85z" />
    <glyph glyph-name="afii10022" unicode="&#x415;" 
d="M187 315v-225h294q6 -18 6 -45q0 -12 -1.5 -23t-3.5 -16l-1 -6h-220q-57 0 -110 2t-78 4l-25 3v682q85 9 213 9h215q6 -18 6 -45q0 -12 -1.5 -23.5t-2.5 -16.5l-2 -5h-289v-205h258q5 -18 5 -45l-5 -45h-258z" />
    <glyph glyph-name="afii10024" unicode="&#x416;" horiz-adv-x="855" 
d="M312 314l-151 -311q-39 -6 -73 -6l-72 6l174 359l-160 335q35 6 70 6l74 -6l138 -288l46 -13v301q35 6 69 6l70 -6v-301l46 13l138 288q37 6 73 6l70 -6l-159 -335l174 -359q-37 -6 -72 -6l-74 6l-150 311l-46 -13v-298q-34 -6 -70 -6l-69 6v298z" />
    <glyph glyph-name="afii10025" unicode="&#x417;" horiz-adv-x="549" 
d="M264 706q125 0 181 -45.5t56 -135.5v-31q0 -101 -100 -134q111 -32 111 -142v-39q0 -92 -61 -139t-200 -47q-53 0 -101.5 10.5t-70.5 20.5l-22 10q-7 18 -7 47q0 8 0.5 15.5t2 12.5t2.5 9t1 6l1 2q0 -2 22.5 -11.5t70.5 -20.5t99 -11q69 0 96.5 22.5t27.5 73.5v39
q0 49 -25.5 71t-88.5 22h-89q-5 18 -5 45l5 45h89q56 0 79.5 22t23.5 71v31q0 48 -22 69.5t-76 21.5q-58 0 -81 -20t-23 -68v-12q-31 -6 -63 -6l-62 6v12q0 91 50.5 134.5t178.5 43.5z" />
    <glyph glyph-name="afii10026" unicode="&#x418;" horiz-adv-x="625" 
d="M576 697v-694q-34 -6 -69 -6l-70 6v447l-271 -447q-29 -6 -59 -6l-59 6v694q35 6 70 6l69 -6v-447l271 447q29 6 59 6z" />
    <glyph glyph-name="afii10027" unicode="&#x419;" horiz-adv-x="625" 
d="M313 747q-84 0 -116.5 28.5t-32.5 88.5v10q22 6 43 6l44 -6v-11q0 -32 13.5 -45t48.5 -13t48.5 13t13.5 45v11q21 6 42 6l44 -6v-10q0 -60 -32 -88.5t-116 -28.5zM576 697v-694q-34 -6 -69 -6l-70 6v447l-271 -447q-29 -6 -59 -6l-59 6v694q35 6 70 6l69 -6v-447l271 447
q29 6 59 6z" />
    <glyph glyph-name="afii10028" unicode="&#x41a;" horiz-adv-x="575" 
d="M413 3l-176 310l-50 -13v-297q-35 -6 -69 -6l-70 6v694q35 6 70 6l69 -6v-302l50 14l166 288q37 6 73 6l70 -6l-187 -336l200 -358q-37 -6 -72 -6z" />
    <glyph glyph-name="afii10029" unicode="&#x41b;" horiz-adv-x="637" 
d="M107 175l67 516q83 12 207 12q55 0 107 -3t76 -6l25 -3v-688q-35 -6 -70 -6l-69 6v607h-156l-55 -435q-11 -94 -56.5 -138t-155.5 -44q-6 19 -6 46q0 12 1.5 23t3.5 16l1 5q41 0 57.5 20.5t22.5 71.5z" />
    <glyph glyph-name="afii10030" unicode="&#x41c;" horiz-adv-x="792" 
d="M740 697v-693q-33 -6 -66 -6l-66 6v503l-155 -396q-27 -7 -59 -7q-14 0 -28.5 2t-22.5 4l-8 1l-155 395v-503q-33 -6 -66 -6l-66 6v693q0 1 12.5 2.5t35 3t44.5 1.5t45 -1.5t35 -3.5l13 -2l161 -410l162 411q44 7 92 7q21 0 44 -2t36 -4z" />
    <glyph glyph-name="afii10031" unicode="&#x41d;" horiz-adv-x="620" 
d="M571 697v-694q-34 -6 -69 -6l-70 6v308h-245v-308q-34 -6 -69 -6l-70 6v694q35 6 70 6l69 -6v-296h245v296q34 6 70 6z" />
    <glyph glyph-name="afii10032" unicode="&#x41e;" horiz-adv-x="599" 
d="M45 182v336q0 94 60 141t194 47q135 0 195 -47t60 -141v-336q0 -94 -60 -141.5t-195 -47.5q-134 0 -194 47.5t-60 141.5zM184 518v-336q0 -53 25.5 -76t89.5 -23t90 23t26 76v336q0 53 -26 75.5t-90 22.5t-89.5 -22.5t-25.5 -75.5z" />
    <glyph glyph-name="afii10033" unicode="&#x41f;" horiz-adv-x="614" 
d="M118 -3l-70 6v688q105 12 259 12q68 0 133 -3t96 -6l30 -3v-688q-34 -6 -70 -6l-69 6v607h-240v-607q-34 -6 -69 -6z" />
    <glyph glyph-name="afii10034" unicode="&#x420;" horiz-adv-x="574" 
d="M48 692q94 12 234 12q132 0 190 -46.5t58 -139.5v-49q0 -94 -58.5 -140.5t-189.5 -46.5l-95 4v-283q-35 -6 -69 -6l-70 6v689zM187 616v-245h95q61 0 85 22.5t24 75.5v49q0 53 -24 75.5t-85 22.5h-95z" />
    <glyph glyph-name="afii10035" unicode="&#x421;" horiz-adv-x="568" 
d="M45 182v336q0 94 58.5 141t191.5 47t184.5 -46t51.5 -142v-12q-31 -7 -62 -7q-14 0 -30 1.5t-25 3.5l-8 2v12q0 54 -24 76t-87 22t-87 -22t-24 -76v-336q0 -54 28 -76.5t100 -22.5q53 0 103 11t73.5 20.5t23.5 11.5l1 -2q1 -2 2 -6t2 -9t2 -12.5t1 -15.5q0 -13 -2 -24.5
t-4 -16.5l-2 -6q-9 -5 -25 -11.5t-68.5 -18t-107.5 -11.5q-142 0 -204 47.5t-62 141.5z" />
    <glyph glyph-name="afii10036" unicode="&#x422;" horiz-adv-x="556" 
d="M524 610h-177v-607q-34 -6 -69 -6l-70 6v607h-178q-6 17 -6 45q0 12 1.5 23.5t2.5 16.5l2 5h494q6 -18 6 -45q0 -12 -1.5 -23.5t-2.5 -16.5z" />
    <glyph glyph-name="afii10037" unicode="&#x423;" horiz-adv-x="583" 
d="M239 147l17 55l-49 5l-189 490q35 6 67 6l69 -6l140 -379l139 379q37 6 69 6l68 -6l-208 -549q-30 -82 -77 -118.5t-133 -36.5q-19 0 -37 3t-26 6l-8 3q-7 17 -7 42q0 11 2 22t4 16l1 5q26 -7 72 -7q66 0 86 64z" />
    <glyph glyph-name="afii10038" unicode="&#x424;" horiz-adv-x="768" 
d="M313 3v63q-145 0 -209.5 47.5t-64.5 141.5v190q0 94 64.5 141t209.5 47v64q35 6 70 6l69 -6v-64q145 0 209.5 -47t64.5 -141v-190q0 -94 -64.5 -141.5t-209.5 -47.5v-63q-34 -6 -69 -6zM588 255v190q0 53 -30 75.5t-106 22.5v-387q75 0 105.5 23t30.5 76zM178 445v-190
q0 -53 30 -76t105 -23v387q-75 0 -105 -22.5t-30 -75.5z" />
    <glyph glyph-name="afii10039" unicode="&#x425;" horiz-adv-x="610" 
d="M446 3l-141 272l-141 -272q-40 -6 -74 -6l-74 6l194 353l-187 341q42 6 75 6l75 -6l132 -260l132 260q40 6 75 6l75 -6l-186 -341l194 -353q-43 -6 -77 -6z" />
    <glyph glyph-name="afii10040" unicode="&#x426;" horiz-adv-x="670" 
d="M533 -133v133h-269q-57 0 -111 2t-79 4l-26 3v688q34 6 69 6l70 -6v-607h240v607q34 6 69 6l70 -6v-607l78 -4v-219q-28 -6 -56 -6z" />
    <glyph glyph-name="afii10041" unicode="&#x427;" horiz-adv-x="591" 
d="M404 3v301q-8 -5 -22 -12t-58.5 -18.5t-90.5 -11.5q-100 0 -144.5 44.5t-44.5 133.5v254q35 6 70 6l69 -6v-254q0 -48 21 -68t76 -20q38 0 69 9t41 15.5t14 10.5v307q34 6 69 6l70 -6v-691q-34 -6 -70 -6z" />
    <glyph glyph-name="afii10042" unicode="&#x428;" horiz-adv-x="889" 
d="M771 703l70 -6v-688q-87 -9 -215 -9h-362q-57 0 -111 2t-79 4l-26 3v688q35 6 70 6l69 -6v-607h188v607q34 6 70 6l69 -6v-607h188v607q34 6 69 6z" />
    <glyph glyph-name="afii10043" unicode="&#x429;" horiz-adv-x="945" 
d="M808 -133v133h-544q-57 0 -111 3t-79 5l-26 3v686q35 6 70 6l69 -6v-607h188v607q34 6 70 6l69 -6v-607h188v607q34 6 69 6l70 -6v-607l78 -4v-219q-28 -6 -56 -6z" />
    <glyph glyph-name="afii10044" unicode="&#x42a;" horiz-adv-x="721" 
d="M195 8v602h-166q-6 18 -6 45q0 12 1.5 23.5t3.5 16.5l1 5h92q57 0 110.5 -2t78.5 -4l24 -3v-269q42 4 101 4q132 0 190.5 -47.5t58.5 -142.5v-51q0 -95 -58.5 -142t-190.5 -47q-63 0 -123 3t-88 6zM334 337v-253h101q61 0 85.5 23t24.5 78v51q0 55 -24.5 78t-85.5 23
h-101z" />
    <glyph glyph-name="afii10045" unicode="&#x42b;" horiz-adv-x="792" 
d="M48 8v689q35 6 70 6l69 -6v-275q42 4 101 4q132 0 190.5 -47.5t58.5 -142.5v-51q0 -95 -58.5 -142t-190.5 -47q-63 0 -123 3t-89 6zM187 337v-253h101q61 0 85.5 23t24.5 78v51q0 55 -24.5 78t-85.5 23h-101zM743 697v-694q-34 -6 -69 -6l-70 6v694q35 6 70 6z" />
    <glyph glyph-name="afii10046" unicode="&#x42c;" horiz-adv-x="574" 
d="M48 8v689q35 6 70 6l69 -6v-275q42 4 101 4q132 0 190.5 -47.5t58.5 -142.5v-51q0 -95 -58.5 -142t-190.5 -47q-63 0 -123 3t-89 6zM187 337v-253h101q61 0 85.5 23t24.5 78v51q0 55 -24.5 78t-85.5 23h-101z" />
    <glyph glyph-name="afii10047" unicode="&#x42d;" horiz-adv-x="568" 
d="M523 518v-336q0 -94 -62 -141.5t-204 -47.5q-55 0 -105.5 10.5t-73.5 20.5l-22 10q-8 18 -8 47q0 8 1 15.5t2 12.5t2 9t2 6l1 2q0 -2 23.5 -11.5t73.5 -20.5t103 -11q72 0 100 22.5t28 76.5v126h-206q-5 18 -5 45l5 45h206v120q0 54 -24.5 76t-87.5 22t-87 -22t-24 -76
v-12q-31 -7 -63 -7q-13 0 -28.5 1.5t-24.5 3.5l-9 2v12q0 96 52 142t185 46t191.5 -47t58.5 -141z" />
    <glyph glyph-name="afii10048" unicode="&#x42e;" horiz-adv-x="828" 
d="M297 182v129h-110v-308q-34 -6 -69 -6l-70 6v694q35 6 70 6l69 -6v-296h110v117q0 94 56.5 141t184.5 47t185 -47t57 -141v-336q0 -94 -57 -141.5t-185 -47.5t-184.5 47.5t-56.5 141.5zM436 518v-336q0 -53 22.5 -76t79.5 -23t80 23t23 76v336q0 53 -23 75.5t-80 22.5
t-79.5 -22.5t-22.5 -75.5z" />
    <glyph glyph-name="afii10049" unicode="&#x42f;" horiz-adv-x="581" 
d="M532 692v-689q-34 -6 -69 -6l-70 6v285q-37 -4 -92 -4l-136 -281q-38 -6 -72 -6l-70 6l150 292q-136 34 -136 179v41q0 95 58 142t190 47q65 0 126.5 -3t90.5 -6zM393 373v243h-108q-61 0 -85 -23t-24 -78v-41q0 -55 24 -78t85 -23h108z" />
    <glyph glyph-name="afii10065" unicode="&#x430;" 
d="M335 3v32q-6 -5 -18 -12t-50 -18.5t-78 -11.5q-76 0 -110 36t-34 108v13q0 62 43 96t142 46l105 12v42q0 41 -17.5 59t-61.5 18q-43 0 -60 -17t-17 -57v-10q-30 -6 -62 -6l-63 6v10q0 80 44 118.5t158 38.5q113 0 162 -40t49 -120v-343q-33 -6 -66 -6zM335 224l-81 -11
q-77 -11 -77 -63v-13q0 -32 14 -46.5t50 -14.5q30 0 53.5 9t31.5 18l9 9v112z" />
    <glyph glyph-name="afii10066" unicode="&#x431;" horiz-adv-x="517" 
d="M177 465q6 5 17.5 11.5t48.5 18t76 11.5q81 0 117 -43t36 -128v-171q0 -85 -50.5 -128t-163.5 -43t-163 43t-50 128v357q0 86 53.5 128.5t177.5 42.5q42 0 81 5t57 11l19 5q6 -16 6 -41q0 -7 -0.5 -14t-1.5 -11.5t-2 -8.5t-1 -6l-1 -2l-19 -5q-18 -5 -56.5 -10.5
t-78.5 -5.5q-58 0 -80 -20t-22 -68v-56zM177 388v-224q0 -47 18 -67.5t64 -20.5q45 0 63 20.5t18 67.5v171q0 48 -15 68t-54 20q-30 0 -53.5 -8.5t-31.5 -17.5z" />
    <glyph glyph-name="afii10067" unicode="&#x432;" horiz-adv-x="504" 
d="M48 7v486q82 12 201 12q109 0 157.5 -35.5t48.5 -104.5v-12q0 -69 -68 -96q84 -26 84 -105v-12q0 -72 -52 -108.5t-170 -36.5q-52 0 -102.5 3t-74.5 6zM249 213h-69v-135h69q49 0 69.5 15t20.5 47v12q0 32 -20 46.5t-70 14.5zM180 296h69q40 0 57 14t17 43v12
q0 29 -17 43t-57 14h-69v-126z" />
    <glyph glyph-name="afii10068" unicode="&#x433;" horiz-adv-x="400" 
d="M180 417v-414q-33 -6 -66 -6l-66 6v488q85 9 213 9h109q5 -17 5 -42l-5 -41h-190z" />
    <glyph glyph-name="afii10069" unicode="&#x434;" horiz-adv-x="608" 
d="M29 -113v189q43 4 61 27.5t25 75.5l44 312q71 12 177 12q48 0 92.5 -3t65.5 -6l20 -3v-408l68 -4v-192q-28 -6 -56 -6l-55 6v113h-331v-113q-28 -6 -56 -6zM267 417l-31 -239q-8 -63 -32 -95h178v334h-115z" />
    <glyph glyph-name="afii10070" unicode="&#x435;" horiz-adv-x="509" 
d="M45 164v171q0 86 49.5 128.5t163.5 42.5q116 0 161 -41.5t45 -129.5v-117q-49 -12 -144 -12h-143v-42q0 -48 23 -68t82 -20q43 0 83.5 8t59.5 15t19 8l1 -2q1 -2 2 -6t2 -8.5t2 -11.5t1 -14q0 -11 -2 -21.5t-4 -15.5l-2 -4q-62 -31 -162 -31q-126 0 -181.5 43t-55.5 128z
M177 289h162v46q0 48 -17.5 68t-63.5 20t-63.5 -20t-17.5 -68v-46z" />
    <glyph glyph-name="afii10072" unicode="&#x436;" horiz-adv-x="726" 
d="M16 3l132 258l-118 236q30 6 64 6l70 -6l95 -193l38 -14v207q33 6 66 6l66 -6v-207l38 14l95 193q36 6 70 6l64 -6l-119 -236l133 -258q-32 -6 -66 -6l-70 6l-107 212l-38 -13v-199q-33 -6 -66 -6l-66 6v199l-38 13l-107 -212q-37 -6 -70 -6z" />
    <glyph glyph-name="afii10073" unicode="&#x437;" horiz-adv-x="494" 
d="M53 357v10q0 71 41 105t147 34q107 0 154.5 -35t47.5 -104v-13q0 -73 -68 -101q83 -24 83 -101v-14q0 -72 -55.5 -108.5t-180.5 -36.5q-42 0 -80.5 7.5t-55.5 15.5l-18 8q-8 16 -8 41q0 7 1 14t2 11.5t2 8.5t2 6l1 2q0 -1 18 -8t56 -15t78 -8q59 0 82.5 15t23.5 47v14
q0 31 -20.5 46t-69.5 15h-65q-6 15 -6 39q0 11 1.5 21t3.5 15l1 4h65q41 0 58 15t17 47v13q0 29 -16 42.5t-56 13.5t-56 -13t-16 -43v-10q-28 -6 -57 -6z" />
    <glyph glyph-name="afii10074" unicode="&#x438;" horiz-adv-x="533" 
d="M484 497v-494q-33 -6 -66 -6l-66 6v296l-186 -296q-29 -6 -59 -6l-59 6v494q33 6 66 6l66 -6v-297l186 297q29 6 59 6z" />
    <glyph glyph-name="afii10075" unicode="&#x439;" horiz-adv-x="533" 
d="M266 569q-84 0 -116 28.5t-32 89.5v9q21 6 43 6l43 -6v-11q0 -31 13.5 -44t48.5 -13t48.5 13t13.5 44v11q22 6 43 6l44 -6v-9q0 -61 -32.5 -89.5t-116.5 -28.5zM484 497v-494q-33 -6 -66 -6l-66 6v296l-186 -296q-29 -6 -59 -6l-59 6v494q33 6 66 6l66 -6v-297l186 297
q29 6 59 6z" />
    <glyph glyph-name="afii10076" unicode="&#x43a;" horiz-adv-x="508" 
d="M355 3l-133 214l-42 -11v-203q-33 -6 -66 -6l-66 6v494q33 6 66 6l66 -6v-202l42 10l122 192q35 6 69 6l65 -6l-146 -235l160 -259q-33 -6 -67 -6z" />
    <glyph glyph-name="afii10077" unicode="&#x43b;" horiz-adv-x="541" 
d="M97 175l37 316q73 12 179 12q48 0 93 -3t66 -6l21 -3v-488q-33 -6 -66 -6l-66 6v414h-116l-26 -242q-10 -94 -51 -138t-141 -44q-6 17 -6 42q0 11 1.5 21.5t3.5 15.5l1 4q35 0 49 21.5t21 77.5z" />
    <glyph glyph-name="afii10078" unicode="&#x43c;" horiz-adv-x="672" 
d="M623 497v-494q-29 -6 -59 -6l-59 6v339l-111 -280q-26 -6 -58 -6l-60 6l-110 280v-339q-29 -6 -59 -6l-59 6v494q41 6 85 6l86 -6l116 -307l118 307q40 6 85 6z" />
    <glyph glyph-name="afii10079" unicode="&#x43d;" horiz-adv-x="526" 
d="M477 497v-494q-33 -6 -66 -6l-66 6v212h-165v-212q-33 -6 -66 -6l-66 6v494q33 6 66 6l66 -6v-199h165v199q33 6 66 6z" />
    <glyph glyph-name="afii10080" unicode="&#x43e;" horiz-adv-x="519" 
d="M45 164v171q0 85 50 128t164 43t164.5 -43t50.5 -128v-171q0 -85 -50.5 -128t-164.5 -43q-113 0 -163.5 43t-50.5 128zM177 335v-171q0 -47 18 -67.5t64 -20.5t64.5 20.5t18.5 67.5v171q0 48 -18.5 68t-64.5 20t-64 -20t-18 -68z" />
    <glyph glyph-name="afii10081" unicode="&#x43f;" horiz-adv-x="527" 
d="M114 -3l-66 6v488q87 12 215 12q57 0 111 -3t80 -6l25 -3v-488q-33 -6 -66 -6l-66 6v414h-167v-414q-33 -6 -66 -6z" />
    <glyph glyph-name="afii10082" unicode="&#x440;" horiz-adv-x="516" 
d="M180 497v-32q6 5 17.5 11.5t48 18t74.5 11.5q81 0 116 -42.5t35 -128.5v-171q0 -85 -42 -128t-139 -43q-33 0 -60.5 8t-38.5 16l-11 8v-222q-32 -6 -66 -6l-66 6v694q33 6 66 6zM339 164v171q0 48 -14.5 68t-52.5 20q-29 0 -52 -8.5t-32 -17.5l-8 -9v-224
q0 -47 19.5 -67.5t66.5 -20.5q41 0 57 20t16 68z" />
    <glyph glyph-name="afii10083" unicode="&#x441;" horiz-adv-x="491" 
d="M45 164v171q0 86 49 128.5t162 42.5q110 0 153 -41.5t43 -129.5v-12q-29 -6 -59 -6l-59 6v12q0 48 -17 68t-61 20q-45 0 -62 -20t-17 -68v-171q0 -48 22.5 -68t80.5 -20q41 0 79 8t56 15t18 8l1 -2q0 -2 1 -6t2.5 -8.5t2 -11.5t0.5 -14q0 -11 -2 -21.5t-4 -15.5l-1 -4
q-59 -31 -153 -31q-125 0 -180 43t-55 128z" />
    <glyph glyph-name="afii10084" unicode="&#x442;" horiz-adv-x="476" 
d="M444 417h-140v-414q-33 -6 -66 -6l-66 6v414h-142q-6 16 -6 41q0 11 1.5 21.5t2.5 15.5l2 5h414q6 -17 6 -42q0 -11 -1.5 -21t-2.5 -15z" />
    <glyph glyph-name="afii10085" unicode="&#x443;" horiz-adv-x="516" 
d="M205 -56l18 55l-42 4l-163 494q33 6 63 6l66 -6l113 -383l113 383q35 6 66 6l64 -6l-182 -549q-25 -82 -68 -118.5t-121 -36.5q-17 0 -32.5 3t-23.5 6l-7 3q-7 15 -7 39q0 10 2 20t4 14l1 5q22 -7 61 -7q55 0 75 68z" />
    <glyph glyph-name="afii10086" unicode="&#x444;" horiz-adv-x="717" 
d="M424 697v-191q131 0 189.5 -43t58.5 -128v-171q0 -85 -58.5 -128t-189.5 -43v-190q-33 -6 -66 -6l-66 6v190q-130 0 -188.5 43t-58.5 128v171q0 85 58 128t189 43v191q33 6 66 6zM424 423v-347q64 0 90 20.5t26 67.5v171q0 48 -26 68t-90 20zM292 76v347q-64 0 -89.5 -20
t-25.5 -68v-171q0 -47 25.5 -67.5t89.5 -20.5z" />
    <glyph glyph-name="afii10087" unicode="&#x445;" horiz-adv-x="512" 
d="M360 3l-104 179l-104 -179q-38 -6 -69 -6l-67 6l158 253l-151 241q37 6 68 6l69 -6l96 -167l95 167q38 6 70 6l67 -6l-149 -241l158 -253q-38 -6 -69 -6z" />
    <glyph glyph-name="afii10088" unicode="&#x446;" horiz-adv-x="573" 
d="M436 -113v113h-172q-57 0 -111 2t-79 4l-26 3v488q33 6 66 6l66 -6v-414h167v414q33 6 66 6l66 -6v-414l68 -4v-192q-28 -6 -56 -6z" />
    <glyph glyph-name="afii10089" unicode="&#x447;" horiz-adv-x="505" 
d="M329 3v211q-6 -5 -17 -12t-47 -18.5t-73 -11.5q-80 0 -115 40.5t-35 120.5v164q33 6 66 6l66 -6v-164q0 -42 14.5 -60t51.5 -18q28 0 50 9t30 18l8 9v206q33 6 66 6l66 -6v-494q-32 -6 -65 -6z" />
    <glyph glyph-name="afii10090" unicode="&#x448;" horiz-adv-x="761" 
d="M647 503l66 -6v-488q-87 -9 -215 -9h-234q-57 0 -111 2t-79 4l-26 3v488q33 6 66 6l66 -6v-414h135v414q32 6 66 6l66 -6v-414h134v414q33 6 66 6z" />
    <glyph glyph-name="afii10091" unicode="&#x449;" horiz-adv-x="807" 
d="M670 -113v113h-406q-57 0 -111 2t-79 4l-26 3v488q33 6 66 6l66 -6v-414h135v414q32 6 66 6l66 -6v-414h134v414q33 6 66 6l66 -6v-414l68 -4v-192q-28 -6 -56 -6z" />
    <glyph glyph-name="afii10092" unicode="&#x44a;" horiz-adv-x="610" 
d="M295 490v-175q31 4 76 4q105 0 151 -38t46 -114v-21q0 -75 -48 -113t-156 -38q-54 0 -104 3t-74 6l-23 3v410h-136q-6 17 -6 41q0 11 1.5 21.5t3.5 15.5l1 5h70q53 0 102.5 -2.5t72.5 -5.5zM364 236h-69v-158h69q40 0 56 15.5t16 52.5v21q0 37 -16 53t-56 16z" />
    <glyph glyph-name="afii10093" unicode="&#x44b;" horiz-adv-x="698" 
d="M180 497v-182q32 4 77 4q105 0 151 -38t46 -114v-21q0 -75 -48 -113t-156 -38q-54 0 -104.5 3t-73.5 6l-24 3v490q33 6 66 6zM250 236h-70v-158h70q40 0 56 15.5t16 52.5v21q0 37 -16 53t-56 16zM650 497v-494q-33 -6 -66 -6l-66 6v494q33 6 66 6z" />
    <glyph glyph-name="afii10094" unicode="&#x44c;" horiz-adv-x="496" 
d="M180 497v-182q32 4 77 4q105 0 151 -38t46 -114v-21q0 -75 -48 -113t-156 -38q-54 0 -104.5 3t-73.5 6l-24 3v490q33 6 66 6zM250 236h-70v-158h70q40 0 56 15.5t16 52.5v21q0 37 -16 53t-56 16z" />
    <glyph glyph-name="afii10095" unicode="&#x44d;" horiz-adv-x="492" 
d="M315 206h-167q-6 16 -6 41q0 11 1.5 21.5t2.5 15.5l2 5h167v46q0 48 -17 68t-62 20t-62.5 -16t-17.5 -54v-7q-28 -7 -57 -7q-13 0 -27 1.5t-22 3.5l-8 2v7q0 78 42.5 115.5t151.5 37.5q113 0 162 -42.5t49 -128.5v-171q0 -85 -54.5 -128t-178.5 -43q-41 0 -79 7.5
t-55 15.5l-17 8q-8 16 -8 41q0 7 1 14t2 11.5t2 8.5t2 6l1 2q0 -1 18 -8t55 -15t77 -8q57 0 79.5 20t22.5 68v42z" />
    <glyph glyph-name="afii10096" unicode="&#x44e;" horiz-adv-x="713" 
d="M262 164v51h-82v-212q-33 -6 -66 -6l-66 6v494q33 6 66 6l66 -6v-199h82v37q0 85 47.5 128t154.5 43t154.5 -43t47.5 -128v-171q0 -85 -47.5 -128t-154.5 -43t-154.5 43t-47.5 128zM394 335v-171q0 -47 16 -67.5t54 -20.5t54 20.5t16 67.5v171q0 48 -15.5 68t-54.5 20
t-54.5 -20t-15.5 -68z" />
    <glyph glyph-name="afii10097" unicode="&#x44f;" horiz-adv-x="502" 
d="M322 5v179h-70l-92 -181q-37 -6 -70 -6l-66 6l119 192q-101 28 -101 139v19q0 75 48 112.5t156 37.5q54 0 106 -3t77 -6l25 -3v-486q-33 -7 -66 -7q-15 0 -31.5 2t-25.5 4zM246 267h76v153h-76q-40 0 -56 -15.5t-16 -51.5v-19q0 -36 16 -51.5t56 -15.5z" />
    <glyph glyph-name="uni0450" unicode="&#x450;" horiz-adv-x="509" 
d="M45 164v171q0 86 49.5 128.5t163.5 42.5q116 0 161 -41.5t45 -129.5v-117q-49 -12 -144 -12h-143v-42q0 -48 23 -68t82 -20q43 0 83.5 8t59.5 15t19 8l1 -2q1 -2 2 -6t2 -8.5t2 -11.5t1 -14q0 -11 -2 -21.5t-4 -15.5l-2 -4q-62 -31 -162 -31q-126 0 -181.5 43t-55.5 128z
M177 289h162v46q0 48 -17.5 68t-63.5 20t-63.5 -20t-17.5 -68v-46zM259 562l-140 135q32 6 62 6l60 -6l96 -135q-18 -6 -39 -6z" />
    <glyph glyph-name="afii10071" unicode="&#x451;" horiz-adv-x="509" 
d="M45 164v171q0 86 49.5 128.5t163.5 42.5q116 0 161 -41.5t45 -129.5v-117q-49 -12 -144 -12h-143v-42q0 -48 23 -68t82 -20q43 0 83.5 8t59.5 15t19 8l1 -2q1 -2 2 -6t2 -8.5t2 -11.5t1 -14q0 -11 -2 -21.5t-4 -15.5l-2 -4q-62 -31 -162 -31q-126 0 -181.5 43t-55.5 128z
M177 289h162v46q0 48 -17.5 68t-63.5 20t-63.5 -20t-17.5 -68v-46zM201 675v-106q-23 -6 -52 -6l-52 6v106q23 7 52 7q13 0 26 -2t19 -4zM411 675v-106q-23 -6 -52 -6l-52 6v106q23 7 52 7q13 0 26 -2t19 -4z" />
    <glyph glyph-name="afii10099" unicode="&#x452;" horiz-adv-x="550" 
d="M373 -52v387q0 48 -15 68t-53 20q-29 0 -52 -8.5t-31 -17.5l-9 -9v-385q-33 -6 -66 -6l-66 6v560h-46q-6 14 -6 38q0 10 1.5 19.5t3.5 13.5l1 5h53l14 58q27 6 55 6l56 -6v-58h154q6 -15 6 -38q0 -10 -1.5 -19.5t-3.5 -13.5l-1 -5h-154v-98q6 5 17.5 11.5t48 18
t74.5 11.5q81 0 116.5 -43t35.5 -128v-387q0 -77 -33 -116t-109 -39q-18 0 -36.5 2t-30 5t-21 5.5t-10.5 2.5q-5 18 -5 38l5 38q24 -8 50 -8q33 0 45.5 16.5t12.5 55.5z" />
    <glyph glyph-name="afii10100" unicode="&#x453;" horiz-adv-x="400" 
d="M341 697l-140 -135q-20 -6 -39 -6l-38 6l96 135q29 6 60 6zM180 417v-414q-33 -6 -66 -6l-66 6v488q85 9 213 9h109q5 -17 5 -42l-5 -41h-190z" />
    <glyph glyph-name="afii10101" unicode="&#x454;" horiz-adv-x="496" 
d="M361 206h-184v-42q0 -48 22.5 -68t81.5 -20q41 0 79 8t56 15t18 8l1 -2q1 -2 2 -6t2 -8.5t2 -11.5t1 -14q0 -11 -2 -21.5t-4 -15.5l-2 -4q-59 -31 -153 -31q-126 0 -181 43t-55 128v171q0 85 49.5 128t161.5 43q111 0 154.5 -37.5t43.5 -115.5v-7q-29 -7 -59 -7
q-13 0 -28 1.5t-23 3.5l-8 2v7q0 38 -17.5 54t-62.5 16q-44 0 -61.5 -20t-17.5 -68v-46h184q6 -16 6 -41q0 -11 -1.5 -21.5t-3.5 -15.5z" />
    <glyph glyph-name="afii10102" unicode="&#x455;" horiz-adv-x="506" 
d="M177 363v-20q0 -19 18.5 -28.5t54.5 -16.5q31 -6 44 -9t44 -11t47.5 -17.5t37 -24t29.5 -34.5t9 -45v-20q0 -72 -49 -108t-162 -36q-117 0 -162 38.5t-45 118.5v7q32 7 64 7q14 0 30 -2t25 -4l9 -1v-7q0 -40 17 -57t62 -17q44 0 61.5 14t17.5 47v20q0 21 -20 31t-59 17
q-34 7 -52 11t-51.5 15.5t-51.5 24.5t-33 35.5t-15 51.5v20q0 72 48 107.5t158 35.5q113 0 157 -38.5t44 -118.5v-7q-32 -6 -64 -6l-64 6v7q0 40 -16 57t-57 17q-42 0 -59 -14t-17 -46z" />
    <glyph glyph-name="afii10103" unicode="&#x456;" horiz-adv-x="229" 
d="M180 497v-494q-33 -6 -66 -6l-66 6v494q33 6 66 6zM180 697v-117q-33 -6 -66 -6l-66 6v117q33 6 66 6z" />
    <glyph glyph-name="afii10104" unicode="&#x457;" horiz-adv-x="229" 
d="M180 497v-494q-33 -6 -66 -6l-66 6v494q33 6 66 6zM82 697v-106q-23 -7 -52 -7q-13 0 -26 2t-20 4l-6 1v106q23 6 52 6q13 0 26 -1.5t20 -3.5zM250 697v-106q-23 -7 -52 -7q-13 0 -26 2t-20 4l-6 1v106q23 6 52 6q13 0 26 -1.5t20 -3.5z" />
    <glyph glyph-name="afii10105" unicode="&#x458;" horiz-adv-x="240" 
d="M60 -52v549q33 6 66 6l66 -6v-549q0 -77 -33 -116t-109 -39q-18 0 -36.5 2t-30 5t-21 5.5t-10.5 2.5q-5 18 -5 38l5 38q20 -8 50 -8q33 0 45.5 16.5t12.5 55.5zM192 697v-117q-33 -6 -66 -6l-66 6v117q33 6 66 6z" />
    <glyph glyph-name="afii10106" unicode="&#x459;" horiz-adv-x="808" 
d="M97 175l37 316q73 12 179 12q48 0 93 -3t66 -6l21 -3v-176q31 4 76 4q105 0 151 -38t46 -114v-21q0 -75 -48 -113t-156 -38q-54 0 -104 3t-74 6l-23 3v410h-116l-26 -242q-10 -94 -51 -138t-141 -44q-6 17 -6 42q0 11 1.5 21.5t3.5 15.5l1 4q35 0 49 21.5t21 77.5z
M562 236h-69v-158h69q40 0 56 15.5t16 52.5v21q0 37 -16 53t-56 16z" />
    <glyph glyph-name="afii10107" unicode="&#x45a;" horiz-adv-x="793" 
d="M477 497v-182q31 4 77 4q104 0 150.5 -38.5t46.5 -113.5v-21q0 -75 -48 -113t-156 -38q-54 0 -104.5 3t-74.5 6l-23 3v208h-165v-212q-33 -6 -66 -6l-66 6v494q33 6 66 6l66 -6v-199h165v199q33 6 66 6zM547 236h-70v-158h70q40 0 56 15.5t16 52.5v21q0 37 -16 53t-56 16
z" />
    <glyph glyph-name="afii10108" unicode="&#x45b;" horiz-adv-x="550" 
d="M367 563h-154v-98q6 5 17.5 11.5t48 18t74.5 11.5q81 0 116.5 -43t35.5 -128v-332q-32 -6 -66 -6l-66 6v332q0 48 -15 68t-53 20q-29 0 -52 -8.5t-31 -17.5l-9 -9v-385q-33 -6 -66 -6l-66 6v560h-46q-6 14 -6 38q0 10 1.5 19.5t3.5 13.5l1 5h53l14 58q27 6 55 6l56 -6
v-58h154q6 -15 6 -38q0 -10 -1.5 -19.5t-3.5 -13.5z" />
    <glyph glyph-name="afii10109" unicode="&#x45c;" horiz-adv-x="508" 
d="M389 697l-140 -135q-21 -6 -39 -6l-39 6l96 135q29 6 60 6zM355 3l-133 214l-42 -11v-203q-33 -6 -66 -6l-66 6v494q33 6 66 6l66 -6v-202l42 10l122 192q35 6 69 6l65 -6l-146 -235l160 -259q-33 -6 -67 -6z" />
    <glyph glyph-name="uni045D" unicode="&#x45d;" horiz-adv-x="533" 
d="M271 562l-140 135q32 6 62 6l59 -6l97 -135q-18 -6 -39 -6zM484 497v-494q-33 -6 -66 -6l-66 6v296l-186 -296q-29 -6 -59 -6l-59 6v494q33 6 66 6l66 -6v-297l186 297q29 6 59 6z" />
    <glyph glyph-name="afii10110" unicode="&#x45e;" horiz-adv-x="516" 
d="M205 -56l18 55l-42 4l-163 494q33 6 63 6l66 -6l113 -383l113 383q35 6 66 6l64 -6l-182 -549q-25 -82 -68 -118.5t-121 -36.5q-17 0 -32.5 3t-23.5 6l-7 3q-7 15 -7 39q0 10 2 20t4 14l1 5q22 -7 61 -7q55 0 75 68zM260 569q-84 0 -116 28.5t-32 89.5v9q21 6 42 6l44 -6
v-11q0 -31 13.5 -44t48.5 -13t48.5 13t13.5 44v11q22 6 43 6l44 -6v-9q0 -60 -32.5 -89t-116.5 -29z" />
    <glyph glyph-name="afii10193" unicode="&#x45f;" horiz-adv-x="527" 
d="M208 -113v112q-43 1 -83 3.5t-59 4.5l-18 2v488q33 6 66 6l66 -6v-414h167v414q33 6 66 6l66 -6v-488q-63 -8 -160 -10v-112q-27 -6 -55 -6z" />
    <glyph glyph-name="afii10050" unicode="&#x490;" horiz-adv-x="457" 
d="M187 610v-607q-34 -6 -69 -6l-70 6v688q85 9 213 9h55v120q27 6 55 6l56 -6v-210h-240z" />
    <glyph glyph-name="afii10098" unicode="&#x491;" horiz-adv-x="397" 
d="M365 417h-185v-414q-33 -6 -66 -6l-66 6v488q73 9 182 9h24v113q28 6 56 6l55 -6v-196z" />
    <glyph glyph-name="uni04D8" unicode="&#x4d8;" horiz-adv-x="581" 
d="M208 389h189v129q0 54 -24 76t-87 22t-87.5 -22t-24.5 -76v-12q-30 -7 -62 -7q-14 0 -29.5 1.5t-24.5 3.5l-8 2v12q0 96 51.5 142t184.5 46t191.5 -47t58.5 -141v-336q0 -94 -58.5 -141.5t-191.5 -47.5q-135 0 -187.5 46.5t-52.5 142.5v195q55 12 162 12zM178 306v-124
q0 -54 23.5 -76.5t84.5 -22.5q62 0 86.5 22.5t24.5 76.5v124h-219z" />
    <glyph glyph-name="afii10846" unicode="&#x4d9;" horiz-adv-x="509" 
d="M464 335v-171q0 -85 -50 -128t-163 -43q-116 0 -161 42t-45 129v120q49 12 143 12h144v39q0 48 -23 68t-83 20q-43 0 -83 -7.5t-59 -14.5t-19 -8l-1 2q-1 2 -2 6t-2 8.5t-2 11.5t-1 14q0 11 2 21.5t4 15.5l2 4q62 30 161 30q127 0 182.5 -42.5t55.5 -128.5zM332 213h-162
v-49q0 -48 17.5 -68t63.5 -20t63.5 20t17.5 68v49z" />
    <glyph glyph-name="Wgrave" unicode="&#x1e80;" horiz-adv-x="953" 
d="M590 3l-113 556l-113 -556q-46 -6 -95 -6l-95 6l-159 694q35 6 67 6l70 -6l121 -568l119 568q37 6 85 6l85 -6l119 -568l121 568q36 6 69 6l67 -6l-159 -694q-45 -6 -94 -6zM481 753l-140 135q31 6 61 6l60 -6l96 -135q-18 -6 -38 -6z" />
    <glyph glyph-name="wgrave" unicode="&#x1e81;" horiz-adv-x="800" 
d="M484 3l-84 363l-83 -363q-42 -6 -88 -6l-88 6l-126 494q33 6 63 6l67 -6l88 -386l89 386q34 6 78 6l78 -6l89 -386l89 386q34 6 66 6l63 -6l-126 -494q-41 -6 -87 -6zM404 562l-140 135q32 6 62 6l60 -6l96 -135q-18 -6 -39 -6z" />
    <glyph glyph-name="Wacute" unicode="&#x1e82;" horiz-adv-x="953" 
d="M590 3l-113 556l-113 -556q-46 -6 -95 -6l-95 6l-159 694q35 6 67 6l70 -6l121 -568l119 568q37 6 85 6l85 -6l119 -568l121 568q36 6 69 6l67 -6l-159 -694q-45 -6 -94 -6zM611 888l-140 -135q-20 -6 -39 -6l-39 6l97 135q29 6 60 6z" />
    <glyph glyph-name="wacute" unicode="&#x1e83;" horiz-adv-x="800" 
d="M484 3l-84 363l-83 -363q-42 -6 -88 -6l-88 6l-126 494q33 6 63 6l67 -6l88 -386l89 386q34 6 78 6l78 -6l89 -386l89 386q34 6 66 6l63 -6l-126 -494q-41 -6 -87 -6zM535 697l-140 -135q-21 -6 -39 -6l-39 6l96 135q29 6 60 6z" />
    <glyph glyph-name="Wdieresis" unicode="&#x1e84;" horiz-adv-x="953" 
d="M590 3l-113 556l-113 -556q-46 -6 -95 -6l-95 6l-159 694q35 6 67 6l70 -6l121 -568l119 568q37 6 85 6l85 -6l119 -568l121 568q36 6 69 6l67 -6l-159 -694q-45 -6 -94 -6zM423 859v-106q-23 -6 -52 -6l-52 6v106q23 7 52 7q13 0 26 -2t19 -4zM633 859v-106
q-23 -6 -52 -6l-52 6v106q23 7 52 7q13 0 26 -2t19 -4z" />
    <glyph glyph-name="wdieresis" unicode="&#x1e85;" horiz-adv-x="800" 
d="M484 3l-84 363l-83 -363q-42 -6 -88 -6l-88 6l-126 494q33 6 63 6l67 -6l88 -386l89 386q34 6 78 6l78 -6l89 -386l89 386q34 6 66 6l63 -6l-126 -494q-41 -6 -87 -6zM346 697v-106q-23 -7 -52 -7q-13 0 -26 2t-20 4l-6 1v106q23 6 52 6q13 0 26 -1.5t20 -3.5zM556 697
v-106q-23 -7 -52 -7q-13 0 -26 2t-20 4l-6 1v106q23 6 52 6q13 0 26 -1.5t20 -3.5z" />
    <glyph glyph-name="Ygrave" unicode="&#x1ef2;" horiz-adv-x="610" 
d="M587 697l-212 -431v-263q-35 -6 -70 -6l-69 6v262l-213 432q42 6 75 6l75 -6l132 -297l132 297q40 6 75 6zM310 753l-140 135q32 6 61 6l60 -6l97 -135q-19 -6 -39 -6z" />
    <glyph glyph-name="ygrave" unicode="&#x1ef3;" horiz-adv-x="516" 
d="M205 -56l18 55l-42 4l-163 494q33 6 63 6l66 -6l113 -383l113 383q35 6 66 6l64 -6l-182 -549q-25 -82 -68 -118.5t-121 -36.5q-17 0 -32.5 3t-23.5 6l-7 3q-7 15 -7 39q0 10 2 20t4 14l1 5q22 -7 61 -7q55 0 75 68zM262 562l-139 135q31 6 61 6l60 -6l96 -135
q-18 -6 -39 -6z" />
    <glyph glyph-name="figuredash" unicode="&#x2012;" horiz-adv-x="481" 
d="M445 288h-410q-6 16 -6 41q0 11 1.5 21.5t3.5 15.5l1 5h410q6 -17 6 -42q0 -11 -1.5 -21t-3.5 -15z" />
    <glyph glyph-name="endash" unicode="&#x2013;" horiz-adv-x="481" 
d="M445 239h-410q-6 16 -6 41q0 11 1.5 21.5t3.5 15.5l1 5h410q6 -17 6 -42q0 -11 -1.5 -21t-3.5 -15z" />
    <glyph glyph-name="emdash" unicode="&#x2014;" horiz-adv-x="631" 
d="M595 238h-560q-6 16 -6 41q0 11 1.5 21.5t3.5 15.5l1 5h560q6 -17 6 -42q0 -11 -1.5 -21t-3.5 -15z" />
    <glyph glyph-name="quoteleft" unicode="&#x2018;" horiz-adv-x="201" 
d="M42 463q0 47 8.5 88t20 66.5t23.5 44.5t20 27l9 8q15 6 31 6l31 -6q-4 -8 -10.5 -25t-17.5 -77.5t-11 -131.5q-26 -6 -52 -6z" />
    <glyph glyph-name="quoteright" unicode="&#x2019;" horiz-adv-x="201" 
d="M159 697q0 -47 -8 -88.5t-20 -67t-24 -44t-20 -26.5l-8 -8q-16 -6 -31 -6l-31 6q4 8 10.5 25t17 77.5t10.5 131.5q26 6 52 6z" />
    <glyph glyph-name="quotesinglbase" unicode="&#x201a;" horiz-adv-x="201" 
d="M159 120q0 -47 -8 -88.5t-20 -67t-24 -44t-20 -26.5l-8 -8q-16 -6 -31 -6l-31 6q4 8 10.5 25t17 77.5t10.5 131.5q26 6 52 6z" />
    <glyph glyph-name="quotedblleft" unicode="&#x201c;" horiz-adv-x="343" 
d="M42 463q0 47 8.5 88t20 66.5t23.5 44.5t20 27l9 8q15 6 31 6l31 -6q-4 -8 -10.5 -25t-17.5 -77.5t-11 -131.5q-26 -6 -52 -6zM184 463q0 47 8.5 88t20 66.5t23.5 44.5t20 27l9 8q15 6 31 6l31 -6q-4 -8 -10.5 -25t-17.5 -77.5t-11 -131.5q-26 -6 -52 -6z" />
    <glyph glyph-name="quotedblright" unicode="&#x201d;" horiz-adv-x="343" 
d="M159 697q0 -47 -8 -88.5t-20 -67t-24 -44t-20 -26.5l-8 -8q-16 -6 -31 -6l-31 6q4 8 10.5 25t17 77.5t10.5 131.5q26 6 52 6zM301 697q0 -47 -8 -88.5t-20 -67t-24 -44t-20 -26.5l-8 -8q-16 -6 -31 -6l-31 6q4 8 10.5 25t17 77.5t10.5 131.5q26 6 52 6z" />
    <glyph glyph-name="quotedblbase" unicode="&#x201e;" horiz-adv-x="343" 
d="M159 119q0 -47 -8 -88.5t-20 -67t-24 -44t-20 -26.5l-8 -8q-16 -6 -31 -6l-31 6q4 8 10.5 25t17 77.5t10.5 131.5q26 6 52 6zM301 119q0 -47 -8.5 -88.5t-20.5 -67t-24.5 -44t-21.5 -26.5l-8 -8q-15 -6 -30 -6l-29 6q4 8 10.5 25t17 77.5t10.5 131.5q26 6 52 6z" />
    <glyph glyph-name="dagger" unicode="&#x2020;" horiz-adv-x="418" 
d="M385 417h-124v-514q-26 -6 -52 -6l-52 6v514h-124q-6 16 -6 41q0 11 1.5 21.5t3.5 15.5l1 5h124v197q26 6 52 6l52 -6v-197h124q6 -17 6 -42q0 -11 -1.5 -21t-3.5 -15z" />
    <glyph glyph-name="daggerdbl" unicode="&#x2021;" horiz-adv-x="418" 
d="M385 100h-124v-197q-26 -6 -52 -6l-52 6v197h-124q-6 16 -6 41q0 11 1.5 21.5t3.5 15.5l1 5h124v234h-124q-6 16 -6 41q0 11 1.5 21.5t3.5 15.5l1 5h124v197q26 6 52 6l52 -6v-197h124q6 -17 6 -42q0 -11 -1.5 -21t-3.5 -15l-1 -5h-124v-234h124q6 -17 6 -42
q0 -11 -1.5 -21t-3.5 -15z" />
    <glyph glyph-name="bullet" unicode="&#x2022;" horiz-adv-x="290" 
d="M246 402q7 -47 7 -102q0 -24 -1.5 -49.5t-3.5 -38.5l-2 -14q-53 -8 -106 -8q-23 0 -49.5 2t-40.5 4l-15 2q-7 47 -7 102q0 24 2 49.5t4 38.5l1 14q53 7 105 7q24 0 50.5 -1.5t41.5 -3.5z" />
    <glyph glyph-name="ellipsis" unicode="&#x2026;" horiz-adv-x="640" 
d="M174 126v-123q-32 -6 -63 -6l-63 6v123q31 6 63 6zM383 126v-123q-32 -6 -63 -6l-63 6v123q31 6 63 6zM592 126v-123q-32 -6 -63 -6l-63 6v123q31 6 63 6z" />
    <glyph glyph-name="perthousand" unicode="&#x2030;" horiz-adv-x="914" 
d="M594 697l-429 -694q-29 -6 -56 -6l-57 6l429 694q27 6 56 6zM32 562v29q0 112 133 112t133 -112v-29q0 -53 -32.5 -83t-100.5 -30t-100.5 30t-32.5 83zM319 109v29q0 112 132 112q133 0 133 -112v-29q0 -112 -133 -112q-132 0 -132 112zM616 109v29q0 112 132 112
q133 0 133 -112v-29q0 -112 -133 -112q-132 0 -132 112zM112 591v-29q0 -42 53 -42t53 42v29q0 21 -12 31t-41 10t-41 -10t-12 -31zM398 138v-29q0 -42 53 -42t53 42v29q0 21 -12 31t-41 10q-53 0 -53 -41zM695 138v-29q0 -42 53 -42t53 42v29q0 21 -12 31t-41 10
q-53 0 -53 -41z" />
    <glyph glyph-name="guilsinglleft" unicode="&#x2039;" horiz-adv-x="309" 
d="M26 271l195 195q15 -8 33 -26q8 -8 14.5 -16t9.5 -12l2 -5l-136 -136l136 -137q-8 -16 -25 -34q-8 -8 -16 -14t-13 -8l-4 -3z" />
    <glyph glyph-name="guilsinglright" unicode="&#x203a;" horiz-adv-x="309" 
d="M280 270l-194 -195q-16 7 -34 25q-8 8 -14 16.5t-8 13.5l-3 4l136 136l-137 137q8 16 25 33q8 8 16.5 14.5t12.5 9.5l5 2z" />
    <glyph glyph-name="fraction" unicode="&#x2044;" horiz-adv-x="605" 
d="M581 697l-429 -694q-33 -6 -63 -6l-64 6l429 694q31 6 63 6z" />
    <glyph glyph-name="Euro" unicode="&#x20ac;" horiz-adv-x="606" 
d="M416 233h-194v-51q0 -54 28 -76.5t100 -22.5q53 0 103 11t73.5 20.5t23.5 11.5l1 -2q1 -2 2 -6t2 -9t2 -12.5t1 -15.5q0 -13 -2 -24.5t-4 -16.5l-2 -6q-9 -5 -25 -11.5t-68.5 -18t-107.5 -11.5q-142 0 -204 47.5t-62 141.5v51h-46q-6 16 -6 41q0 11 1.5 21.5t3.5 15.5
l1 5h46v54h-46q-6 16 -6 41q0 11 1.5 21.5t3.5 15.5l1 5h46v65q0 94 58.5 141t191.5 47t184.5 -46t51.5 -142v-12q-31 -7 -62 -7q-14 0 -30 1.5t-25 3.5l-8 2v12q0 54 -24 76t-87 22t-87 -22t-24 -76v-65h194q6 -17 6 -42q0 -11 -1.5 -21.5t-2.5 -15.5l-2 -4h-194v-54h194
q6 -17 6 -42q0 -11 -1.5 -21t-2.5 -15z" />
    <glyph glyph-name="uni20B4" unicode="&#x20b4;" horiz-adv-x="550" 
d="M496 233h-278q-28 -28 -28 -65q0 -46 25 -65.5t90 -19.5q47 0 91.5 10t65 19t20.5 11l1 -2q1 -2 2 -6t2 -9t2 -12.5t1 -15.5q0 -13 -2 -25t-4 -17l-2 -6q-68 -37 -178 -37q-133 0 -191 44t-58 131q0 16 5.5 32t11.5 24l6 9h-43q-5 16 -5 41l5 42h461q6 -17 6 -42
q0 -11 -1.5 -21t-2.5 -15zM515 384h-461q-6 16 -6 41q0 11 1.5 21.5t2.5 15.5l2 5h283q24 30 24 65q0 46 -25 65t-90 19q-47 0 -91 -9.5t-65 -18.5t-21 -11l-1 3q0 2 -1 6t-2.5 9t-2 12.5t-0.5 15.5q0 12 2 24t4 17l1 6q68 36 178 36q133 0 191.5 -43.5t58.5 -130.5
q0 -16 -5.5 -32t-11.5 -24l-5 -9h40q6 -17 6 -42q0 -11 -1.5 -21t-3.5 -15z" />
    <glyph glyph-name="afii61352" unicode="&#x2116;" horiz-adv-x="1094" 
d="M48 3v694q30 6 59 6l59 -6l271 -440v440q33 6 66 6l66 -6v-694q-29 -6 -59 -6l-59 6l-271 440v-440q-32 -6 -66 -6zM640 414v121q0 85 48 128t157 43q108 0 156 -43t48 -128v-121q0 -85 -48 -128t-156 -43t-156.5 43t-48.5 128zM765 535v-121q0 -47 18 -67.5t62 -20.5
t61.5 20.5t17.5 67.5v121q0 48 -17.5 68t-61.5 20t-62 -20t-18 -68zM1037 0h-385q-6 17 -6 45q0 12 1.5 23t2.5 16l2 6h385q6 -18 6 -45q0 -12 -1.5 -23.5t-3.5 -16.5z" />
    <glyph glyph-name="trademark" unicode="&#x2122;" horiz-adv-x="692" 
d="M272 649h-84v-297q-21 -4 -41 -4l-40 4v297h-85q-3 9 -3 25l3 26h250q4 -10 4 -26zM663 698v-346q-19 -4 -38 -4l-38 4v239l-69 -187q-15 -4 -33 -4l-34 4l-68 187v-239q-19 -4 -38 -4l-38 4v346q0 3 53 3l53 -3l71 -192l72 192q26 4 53 4z" />
    <glyph glyph-name="arrowleft" unicode="&#x2190;" horiz-adv-x="1068" 
d="M397 -3l-354 354l354 353l63 -63l-245 -245h786v-90h-786l246 -246z" />
    <glyph glyph-name="arrowup" unicode="&#x2191;" horiz-adv-x="794" 
d="M352 -203v786l-245 -246l-64 64l354 354l354 -354l-64 -63l-245 245v-786h-90z" />
    <glyph glyph-name="arrowright" unicode="&#x2192;" horiz-adv-x="1068" 
d="M66 306v90h787l-246 245l63 63l354 -353l-354 -354l-63 63l246 246h-787z" />
    <glyph glyph-name="arrowdown" unicode="&#x2193;" horiz-adv-x="794" 
d="M397 -208l-354 354l64 64l245 -246v786h90v-786l245 245l64 -63z" />
    <glyph glyph-name="uni2196" unicode="&#x2196;" horiz-adv-x="819" 
d="M66 200v500h500v-90h-347l556 -555l-63 -64l-556 556v-347h-90z" />
    <glyph glyph-name="uni2197" unicode="&#x2197;" horiz-adv-x="819" 
d="M252 610v90h500v-500h-90v347l-555 -556l-64 64l556 555h-347z" />
    <glyph glyph-name="uni2198" unicode="&#x2198;" horiz-adv-x="819" 
d="M252 0v90h347l-556 555l64 64l555 -556v347h90v-500h-500z" />
    <glyph glyph-name="uni2199" unicode="&#x2199;" horiz-adv-x="819" 
d="M66 0v500h90v-347l556 556l63 -64l-556 -555h347v-90h-500z" />
    <glyph glyph-name="minus" unicode="&#x2212;" horiz-adv-x="404" 
d="M368 288h-333q-6 16 -6 41q0 11 1.5 21.5t3.5 15.5l1 5h333q6 -17 6 -42q0 -11 -1.5 -21t-2.5 -15z" />
    <glyph glyph-name="commaaccent" unicode="&#xf6c3;" horiz-adv-x="201" 
d="M142 -44q0 -29 -6.5 -56t-15 -43.5t-17.5 -29.5t-15 -19l-7 -5q-14 -5 -28 -5l-27 5q33 53 33 153q20 7 41 7q9 0 19.5 -1.5t16.5 -3.5z" />
    <glyph glyph-name="dollaroldstyle" unicode="&#xf724;" horiz-adv-x="506" 
d="M177 363v-20q0 -19 18.5 -28.5t54.5 -16.5q31 -6 44 -9t44 -11t47.5 -17.5t37 -24t29.5 -34.5t9 -45v-20q0 -63 -37.5 -98.5t-121.5 -42.5v-93q-26 -6 -52 -6l-52 6v93q-86 8 -120.5 45.5t-34.5 108.5v7q32 7 64 7q14 0 30 -2t25 -4l9 -1v-7q0 -40 17 -57t62 -17
q44 0 61.5 14t17.5 47v20q0 21 -20 31t-59 17q-34 7 -52 11t-51.5 15.5t-51.5 24.5t-33 35.5t-15 51.5v20q0 62 35.5 97t115.5 43v94q25 6 52 6l52 -6v-93q85 -8 118.5 -46t33.5 -109v-7q-32 -6 -64 -6l-64 6v7q0 40 -16 57t-57 17q-42 0 -59 -14t-17 -46z" />
    <glyph glyph-name="zerooldstyle" unicode="&#xf730;" horiz-adv-x="539" 
d="M45 164v171q0 85 52.5 128t171.5 43t172 -43t53 -128v-171q0 -85 -53 -128t-172 -43t-171.5 43t-52.5 128zM177 335v-171q0 -47 20.5 -67.5t71.5 -20.5q52 0 73 20.5t21 67.5v171q0 48 -20.5 68t-73.5 20q-51 0 -71.5 -20t-20.5 -68z" />
    <glyph glyph-name="oneoldstyle" unicode="&#xf731;" horiz-adv-x="378" 
d="M286 502v-499q-33 -6 -66 -6l-66 6v399q-34 0 -65.5 2t-46.5 4l-14 2q-5 18 -5 43l5 42q99 7 258 7z" />
    <glyph glyph-name="twooldstyle" unicode="&#xf732;" horiz-adv-x="516" 
d="M345 325v14q0 45 -20.5 64.5t-69.5 19.5q-48 0 -68.5 -21t-20.5 -63v-12q-31 -7 -64 -7q-14 0 -30 2t-25 4l-9 1v12q0 82 48 124.5t169 42.5q118 0 169 -41.5t51 -125.5v-14q0 -43 -31 -74.5t-75.5 -48.5t-88.5 -30.5t-75 -31t-31 -40.5v-17h291q6 -17 6 -41
q0 -11 -1.5 -21.5t-3.5 -15.5l-1 -5h-206q-57 0 -110.5 2t-78.5 4l-24 3v91q0 41 31 71.5t75 48t87.5 32t74.5 32.5t31 41z" />
    <glyph glyph-name="threeoldstyle" unicode="&#xf733;" horiz-adv-x="539" 
d="M53 414q-6 18 -6 43q0 11 1.5 22t3.5 16l1 6h422q6 -17 6 -42q0 -11 -1.5 -21t-3.5 -15l-1 -5l-185 -207q118 0 165 -48.5t47 -133.5v-49q0 -92 -61.5 -139t-200.5 -47q-53 0 -101 10.5t-70 20.5l-22 10q-8 17 -8 43q0 7 1 14t2 12t2 8.5t2 5.5l1 2q0 -2 22.5 -11.5
t70 -20.5t98.5 -11q74 0 103 24t29 79v49q0 54 -28.5 77.5t-97.5 23.5h-82q-6 17 -6 43q0 12 1.5 23t2.5 16l2 5l171 197h-280z" />
    <glyph glyph-name="fouroldstyle" unicode="&#xf734;" horiz-adv-x="552" 
d="M466 297v-210h57q6 -18 6 -43q0 -11 -1.5 -22t-3.5 -16l-1 -6h-53v-197q-32 -6 -65 -6l-64 6v197h-301q-6 17 -6 42l168 455q24 5 61 5l66 -5l-150 -410h163v210q31 6 62 6z" />
    <glyph glyph-name="fiveoldstyle" unicode="&#xf735;" horiz-adv-x="532" 
d="M197 418l-13 -195h63q138 0 192.5 -47t54.5 -141v-55q0 -92 -60 -139t-195 -47q-53 0 -101.5 10.5t-70.5 20.5l-22 10q-7 17 -7 43q0 7 0.5 14t2 12t2.5 8.5t1 5.5l1 2q0 -2 22.5 -11.5t70.5 -20.5t99 -11q70 0 97.5 24t27.5 79v55q0 53 -25.5 76.5t-89.5 23.5h-179
q-6 18 -6 44l25 313q85 9 213 9h147q5 -17 5 -42l-5 -41h-250z" />
    <glyph glyph-name="sixoldstyle" unicode="&#xf736;" horiz-adv-x="556" 
d="M177 411q7 5 20 11.5t54.5 18t85.5 11.5q92 0 133 -43t41 -128v-117q0 -85 -54.5 -128t-178.5 -43t-178.5 43t-54.5 128v353q0 189 258 189q45 0 86.5 -6t60.5 -12l20 -7q6 -16 6 -41q0 -7 -0.5 -14t-1.5 -12t-2 -8.5t-2 -5.5v-2q0 1 -20.5 7t-64 12t-89.5 6
q-66 0 -92.5 -26t-26.5 -80v-106zM177 334v-170q0 -48 22 -68t79 -20q56 0 78.5 20.5t22.5 67.5v117q0 48 -19 68t-69 20q-36 0 -64.5 -8.5t-38.5 -17.5z" />
    <glyph glyph-name="sevenoldstyle" unicode="&#xf737;" horiz-adv-x="527" 
d="M489 458l-231 -655q-26 -6 -65 -6q-18 0 -35.5 1.5t-25.5 3.5l-9 1l223 610h-303q-6 18 -6 43q0 11 1.5 22t3.5 16l1 6h440q6 -17 6 -42z" />
    <glyph glyph-name="eightoldstyle" unicode="&#xf738;" horiz-adv-x="559" 
d="M56 487v48q0 85 52.5 128t170.5 43q119 0 171 -43t52 -128v-48q0 -93 -77 -127q92 -32 92 -132v-64q0 -85 -56 -128t-182 -43t-182 43t-56 128v64q0 99 92 132q-77 34 -77 127zM173 228v-64q0 -47 23.5 -67.5t82.5 -20.5q60 0 83 20t23 68v64q0 48 -23 68t-83 20
q-59 0 -82.5 -20t-23.5 -68zM188 535v-48q0 -47 20.5 -67.5t70.5 -20.5q51 0 71 20.5t20 67.5v48q0 48 -20 68t-71 20q-50 0 -70.5 -20t-20.5 -68z" />
    <glyph glyph-name="nineoldstyle" unicode="&#xf739;" horiz-adv-x="556" 
d="M379 -17v118q-7 -5 -20 -11.5t-54.5 -18t-85.5 -11.5q-93 0 -133.5 42.5t-40.5 128.5v105q0 85 54.5 128t178.5 43t178.5 -43t54.5 -128v-353q0 -189 -262 -189q-45 0 -87.5 6.5t-63.5 12.5l-20 6q-5 17 -5 42q0 7 0.5 14t1.5 11.5t1.5 8.5t1.5 6v2q0 -1 21.5 -7
t66.5 -12.5t92 -6.5q67 0 94 26.5t27 79.5zM379 178v158q0 48 -22.5 68t-78.5 20q-57 0 -79 -20t-22 -68v-105q0 -48 19 -68t68 -20q36 0 65 9t39 17z" />
    <glyph glyph-name="NULL" horiz-adv-x="0" 
 />
    <glyph glyph-name="T_h" horiz-adv-x="1026" 
d="M688 691v-226q6 5 17.5 11.5t48 18t74.5 11.5q81 0 117 -43t36 -128v-332q-33 -6 -66 -6l-66 6v332q0 48 -15 68t-54 20q-29 0 -52 -8.5t-32 -17.5l-8 -9v-385q-33 -6 -66 -6l-66 6v607h-209v-607q-34 -6 -69 -6l-70 6v607h-178q-6 17 -6 45q0 12 1.5 23.5t2.5 16.5l2 5
h457q57 0 107.5 -2t71.5 -4z" />
    <glyph glyph-name="T_h.caron" horiz-adv-x="1026" 
d="M688 691v-226q6 5 17.5 11.5t48 18t74.5 11.5q81 0 117 -43t36 -128v-332q-33 -6 -66 -6l-66 6v332q0 48 -15 68t-54 20q-29 0 -52 -8.5t-32 -17.5l-8 -9v-385q-33 -6 -66 -6l-66 6v607h-209v-607q-34 -6 -69 -6l-70 6v607h-178q-6 17 -6 45q0 12 1.5 23.5t2.5 16.5l2 5
h457q57 0 107.5 -2t71.5 -4zM200 885l78 -77l77 77q21 7 39 7q9 0 19 -2t15 -4l5 -1l-98 -131q-28 -6 -57 -6l-57 6l-99 131q19 7 39 7q8 0 18 -2t15 -4z" />
    <glyph glyph-name="T_h.commaaccent" horiz-adv-x="1026" 
d="M688 691v-226q6 5 17.5 11.5t48 18t74.5 11.5q81 0 117 -43t36 -128v-332q-33 -6 -66 -6l-66 6v332q0 48 -15 68t-54 20q-29 0 -52 -8.5t-32 -17.5l-8 -9v-385q-33 -6 -66 -6l-66 6v607h-209v-607q-34 -6 -69 -6l-70 6v607h-178q-6 17 -6 45q0 12 1.5 23.5t2.5 16.5l2 5
h457q57 0 107.5 -2t71.5 -4zM321 -44q0 -47 -15.5 -85t-30.5 -53l-15 -15q-14 -5 -28 -5l-27 5q33 53 33 153q20 7 41 7q9 0 19.5 -1.5t16.5 -3.5z" />
    <glyph glyph-name="A.smcp" horiz-adv-x="505" 
d="M15 3l154 519q39 5 83 5l84 -5l154 -519q-32 -5 -59 -5l-62 5l-32 107h-169l-31 -107q-33 -5 -62 -5zM253 427l-68 -237h134z" />
    <glyph glyph-name="Aacute.smcp" horiz-adv-x="505" 
d="M15 3l154 519q39 5 83 5l84 -5l154 -519q-32 -5 -59 -5l-62 5l-32 107h-169l-31 -107q-33 -5 -62 -5zM253 427l-68 -237h134zM365 669l-114 -104q-18 -5 -34 -5l-35 5l76 104q25 5 53 5z" />
    <glyph glyph-name="Abreve.smcp" horiz-adv-x="505" 
d="M15 3l154 519q39 5 83 5l84 -5l154 -519q-32 -5 -59 -5l-62 5l-32 107h-169l-31 -107q-33 -5 -62 -5zM253 427l-68 -237h134zM252 560q-70 0 -96.5 22.5t-26.5 70.5v7q19 5 38 5l39 -5v-9q0 -23 9.5 -32t36.5 -9t37 9t10 32v9q19 5 38 5l38 -5v-7q0 -48 -26.5 -70.5
t-96.5 -22.5z" />
    <glyph glyph-name="Acircumflex.smcp" horiz-adv-x="505" 
d="M15 3l154 519q39 5 83 5l84 -5l154 -519q-32 -5 -59 -5l-62 5l-32 107h-169l-31 -107q-33 -5 -62 -5zM253 427l-68 -237h134zM312 565l-60 56l-60 -56q-18 -5 -34 -5l-34 5l77 103q25 6 51 6l51 -6l78 -103q-17 -5 -34 -5z" />
    <glyph glyph-name="Agrave.smcp" horiz-adv-x="505" 
d="M15 3l154 519q39 5 83 5l84 -5l154 -519q-32 -5 -59 -5l-62 5l-32 107h-169l-31 -107q-33 -5 -62 -5zM253 427l-68 -237h134zM253 565l-114 104q28 5 55 5l52 -5l76 -104q-16 -5 -34 -5z" />
    <glyph glyph-name="Adieresis.smcp" horiz-adv-x="505" 
d="M15 3l154 519q39 5 83 5l84 -5l154 -519q-32 -5 -59 -5l-62 5l-32 107h-169l-31 -107q-33 -5 -62 -5zM253 427l-68 -237h134zM215 648v-82q-21 -5 -47 -5l-46 5v82q20 5 46 5zM383 648v-82q-21 -5 -47 -5l-46 5v82q20 5 46 5z" />
    <glyph glyph-name="Amacron.smcp" horiz-adv-x="505" 
d="M15 3l154 519q39 5 83 5l84 -5l154 -519q-32 -5 -59 -5l-62 5l-32 107h-169l-31 -107q-33 -5 -62 -5zM253 427l-68 -237h134zM364 578h-223q-5 10 -5 27l5 27h223q5 -11 5 -27z" />
    <glyph glyph-name="Aogonek.smcp" horiz-adv-x="505" 
d="M382 -70q0 33 38 68l-51 5l-32 107h-169l-31 -107q-33 -5 -62 -5l-60 5l154 519q39 5 83 5l84 -5l154 -519q-9 -2 -20 -3q-25 -32 -25 -62q0 -23 24 -23q8 0 15.5 1.5t11.5 3.5l3 2q4 -9 4 -20l-4 -20q-15 -13 -49 -13q-68 0 -68 61zM253 427l-68 -237h134z" />
    <glyph glyph-name="Aring.smcp" horiz-adv-x="505" 
d="M15 3l154 519q39 5 83 5l84 -5l154 -519q-32 -5 -59 -5l-62 5l-32 107h-169l-31 -107q-33 -5 -62 -5zM253 427l-68 -237h134zM180 609v12q0 55 72 55q73 0 73 -55v-12q0 -55 -73 -55q-72 0 -72 55zM224 621v-12q0 -20 28 -20t28 20v12q0 19 -28 19t-28 -19z" />
    <glyph glyph-name="Atilde.smcp" horiz-adv-x="505" 
d="M15 3l154 519q39 5 83 5l84 -5l154 -519q-32 -5 -59 -5l-62 5l-32 107h-169l-31 -107q-33 -5 -62 -5zM253 427l-68 -237h134zM117 566v3q0 43 15 63.5t54 20.5q32 0 52 -10.5t31.5 -20.5t22.5 -10q18 0 24.5 7t6.5 25v4q16 5 32 5l32 -5v-4q0 -44 -14.5 -63.5
t-54.5 -19.5q-31 0 -51.5 10.5t-32.5 20.5t-22 10q-18 0 -24.5 -7t-6.5 -26v-3q-16 -5 -32 -5z" />
    <glyph glyph-name="AE.smcp" horiz-adv-x="621" 
d="M389 230v-150h200q5 -16 5 -40l-5 -40h-150q-47 0 -90.5 2t-63.5 4l-20 1v103h-97l-31 -107q-33 -5 -62 -5l-60 5l152 515q110 7 272 7h146q5 -16 5 -40l-5 -40h-196v-135h172q4 -16 4 -40l-4 -40h-172zM259 445l-74 -255h80v255h-6z" />
    <glyph glyph-name="AEacute.smcp" horiz-adv-x="621" 
d="M389 230v-150h200q5 -16 5 -40l-5 -40h-150q-47 0 -90.5 2t-63.5 4l-20 1v103h-97l-31 -107q-33 -5 -62 -5l-60 5l152 515q110 7 272 7h146q5 -16 5 -40l-5 -40h-196v-135h172q4 -16 4 -40l-4 -40h-172zM259 445l-74 -255h80v255h-6zM484 669l-115 -104q-17 -5 -33 -5
l-34 5l75 104q25 5 52 5z" />
    <glyph glyph-name="B.smcp" horiz-adv-x="479" 
d="M42 7v511q81 10 196 10q105 0 151.5 -34t46.5 -104v-21q0 -74 -78 -100q88 -26 88 -105v-25q0 -72 -48.5 -107t-159.5 -35q-51 0 -100 2.5t-72 4.5zM166 230v-155h72q47 0 65 14t18 50v25q0 35 -18.5 50.5t-64.5 15.5h-72zM166 449v-143h72q41 0 57.5 15t16.5 48v21
q0 32 -16.5 45.5t-57.5 13.5h-72z" />
    <glyph glyph-name="C.smcp" horiz-adv-x="464" 
d="M39 143v239q0 74 47.5 111t155.5 37q107 0 148.5 -36t41.5 -112v-9q-28 -6 -55 -6l-56 6v9q0 38 -17 53.5t-62 15.5q-44 0 -61.5 -15.5t-17.5 -53.5v-239q0 -39 20.5 -54t73.5 -15q41 0 81 8t59 15t19 8q6 -15 6 -40q0 -11 -1.5 -21t-2.5 -15l-2 -5q-64 -30 -160 -30
q-116 0 -166.5 37.5t-50.5 111.5z" />
    <glyph glyph-name="Cacute.smcp" horiz-adv-x="464" 
d="M39 143v239q0 74 47.5 111t155.5 37q107 0 148.5 -36t41.5 -112v-9q-28 -6 -55 -6l-56 6v9q0 38 -17 53.5t-62 15.5q-44 0 -61.5 -15.5t-17.5 -53.5v-239q0 -39 20.5 -54t73.5 -15q41 0 81 8t59 15t19 8q6 -15 6 -40q0 -11 -1.5 -21t-2.5 -15l-2 -5q-64 -30 -160 -30
q-116 0 -166.5 37.5t-50.5 111.5zM345 669l-115 -104q-17 -5 -33 -5l-35 5l76 104q25 5 52 5z" />
    <glyph glyph-name="Ccaron.smcp" horiz-adv-x="464" 
d="M39 143v239q0 74 47.5 111t155.5 37q107 0 148.5 -36t41.5 -112v-9q-28 -6 -55 -6l-56 6v9q0 38 -17 53.5t-62 15.5q-44 0 -61.5 -15.5t-17.5 -53.5v-239q0 -39 20.5 -54t73.5 -15q41 0 81 8t59 15t19 8q6 -15 6 -40q0 -11 -1.5 -21t-2.5 -15l-2 -5q-64 -30 -160 -30
q-116 0 -166.5 37.5t-50.5 111.5zM172 668l60 -56l60 56q18 6 35 6l33 -6l-78 -103q-24 -5 -50 -5l-51 5l-78 103q16 6 35 6z" />
    <glyph glyph-name="Ccedilla.smcp" horiz-adv-x="464" 
d="M39 143v239q0 74 47.5 111t155.5 37q107 0 148.5 -36t41.5 -112v-9q-28 -6 -55 -6l-56 6v9q0 38 -17 53.5t-62 15.5q-44 0 -61.5 -15.5t-17.5 -53.5v-239q0 -39 20.5 -54t73.5 -15q41 0 81 8t59 15t19 8q6 -15 6 -40q0 -11 -1.5 -21t-2.5 -15l-2 -5q-59 -27 -148 -30v-11
q0 -9 11.5 -15t25 -9.5t25 -14t11.5 -27.5v-7q0 -57 -89 -57q-48 0 -66.5 15t-18.5 46v3q16 3 30 3l31 -3v-3q0 -12 5 -17t19 -5t19.5 4t5.5 14v7q0 10 -18.5 16t-36.5 17t-18 33v13q-88 8 -126.5 44.5t-38.5 102.5z" />
    <glyph glyph-name="Ccircumflex.smcp" horiz-adv-x="464" 
d="M39 143v239q0 74 47.5 111t155.5 37q107 0 148.5 -36t41.5 -112v-9q-28 -6 -55 -6l-56 6v9q0 38 -17 53.5t-62 15.5q-44 0 -61.5 -15.5t-17.5 -53.5v-239q0 -39 20.5 -54t73.5 -15q41 0 81 8t59 15t19 8q6 -15 6 -40q0 -11 -1.5 -21t-2.5 -15l-2 -5q-64 -30 -160 -30
q-116 0 -166.5 37.5t-50.5 111.5zM292 565l-60 56l-60 -56q-18 -5 -34 -5l-35 5l78 103q25 6 50 6l51 -6l78 -103q-16 -5 -33 -5z" />
    <glyph glyph-name="Cdotaccent.smcp" horiz-adv-x="464" 
d="M39 143v239q0 74 47.5 111t155.5 37q107 0 148.5 -36t41.5 -112v-9q-28 -6 -55 -6l-56 6v9q0 38 -17 53.5t-62 15.5q-44 0 -61.5 -15.5t-17.5 -53.5v-239q0 -39 20.5 -54t73.5 -15q41 0 81 8t59 15t19 8q6 -15 6 -40q0 -11 -1.5 -21t-2.5 -15l-2 -5q-64 -30 -160 -30
q-116 0 -166.5 37.5t-50.5 111.5zM291 657v-91q-30 -5 -59 -5l-59 5v91q29 6 59 6z" />
    <glyph glyph-name="D.smcp" horiz-adv-x="486" 
d="M42 518q80 10 199 10q110 0 158 -36t48 -110v-239q0 -74 -48 -110t-158 -36q-53 0 -102.5 2.5t-72.5 4.5l-24 3v511zM166 450v-375h75q46 0 64 15t18 53v239q0 38 -18 53t-64 15h-75z" />
    <glyph glyph-name="Dcaron.smcp" horiz-adv-x="486" 
d="M42 518q80 10 199 10q110 0 158 -36t48 -110v-239q0 -74 -48 -110t-158 -36q-53 0 -102.5 2.5t-72.5 4.5l-24 3v511zM166 450v-375h75q46 0 64 15t18 53v239q0 38 -18 53t-64 15h-75zM181 668l60 -56l61 56q18 6 34 6l34 -6l-78 -103q-24 -5 -50 -5l-51 5l-78 103
q16 6 34 6z" />
    <glyph glyph-name="Dcroat.smcp" horiz-adv-x="511" 
d="M67 518q80 10 200 10q110 0 158 -36.5t48 -109.5v-239q0 -73 -48 -109.5t-158 -36.5q-53 0 -103 2.5t-74 4.5l-23 3v227h-35q-5 13 -5 36l5 36h35v212zM271 234h-79v-159h75q46 0 63.5 15t17.5 53v239q0 38 -18 53t-63 15h-75v-144h79q4 -14 4 -36z" />
    <glyph glyph-name="Eth.smcp" horiz-adv-x="511" 
d="M67 518q80 10 200 10q110 0 158 -36.5t48 -109.5v-239q0 -73 -48 -109.5t-158 -36.5q-53 0 -103 2.5t-74 4.5l-23 3v227h-35q-5 13 -5 36l5 36h35v212zM271 234h-79v-159h75q46 0 63.5 15t17.5 53v239q0 38 -18 53t-63 15h-75v-144h79q4 -14 4 -36z" />
    <glyph glyph-name="Thorn.smcp" horiz-adv-x="452" 
d="M166 522v-92q25 2 60 2q100 0 144 -36.5t44 -110.5v-31q0 -74 -44 -110.5t-144 -36.5l-60 3v-107q-31 -5 -61 -5l-63 5v519q31 5 63 5zM166 354v-168h57q38 0 52.5 15t14.5 53v31q0 39 -14.5 54t-52.5 15h-57z" />
    <glyph glyph-name="E.smcp" horiz-adv-x="423" 
d="M166 230v-150h227q4 -16 4 -40l-4 -40h-177q-46 0 -89.5 2t-64.5 4l-20 1v510q70 8 174 8h173q4 -16 4 -40l-4 -40h-223v-135h197q6 -16 6 -40q0 -11 -1.5 -21t-3.5 -15l-1 -4h-197z" />
    <glyph glyph-name="Eacute.smcp" horiz-adv-x="423" 
d="M166 230v-150h227q4 -16 4 -40l-4 -40h-177q-46 0 -89.5 2t-64.5 4l-20 1v510q70 8 174 8h173q4 -16 4 -40l-4 -40h-223v-135h197q6 -16 6 -40q0 -11 -1.5 -21t-3.5 -15l-1 -4h-197zM333 669l-114 -104q-18 -5 -35 -5l-34 5l75 104q26 5 54 5z" />
    <glyph glyph-name="Ebreve.smcp" horiz-adv-x="423" 
d="M166 230v-150h227q4 -16 4 -40l-4 -40h-177q-46 0 -89.5 2t-64.5 4l-20 1v510q70 8 174 8h173q4 -16 4 -40l-4 -40h-223v-135h197q6 -16 6 -40q0 -11 -1.5 -21t-3.5 -15l-1 -4h-197zM218 560q-70 0 -96.5 22.5t-26.5 70.5v7q20 5 38 5l39 -5v-9q0 -23 9.5 -32t36.5 -9
t37 9t10 32v9q19 5 38 5l38 -5v-7q0 -48 -26.5 -70.5t-96.5 -22.5z" />
    <glyph glyph-name="Ecaron.smcp" horiz-adv-x="423" 
d="M166 230v-150h227q4 -16 4 -40l-4 -40h-177q-46 0 -89.5 2t-64.5 4l-20 1v510q70 8 174 8h173q4 -16 4 -40l-4 -40h-223v-135h197q6 -16 6 -40q0 -11 -1.5 -21t-3.5 -15l-1 -4h-197zM161 668l60 -56l60 56q18 6 34 6l34 -6l-78 -103q-24 -5 -50 -5l-51 5l-78 103
q16 6 35 6z" />
    <glyph glyph-name="Ecircumflex.smcp" horiz-adv-x="423" 
d="M166 230v-150h227q4 -16 4 -40l-4 -40h-177q-46 0 -89.5 2t-64.5 4l-20 1v510q70 8 174 8h173q4 -16 4 -40l-4 -40h-223v-135h197q6 -16 6 -40q0 -11 -1.5 -21t-3.5 -15l-1 -4h-197zM281 565l-60 56l-60 -56q-18 -5 -34 -5l-35 5l78 103q25 6 50 6l51 -6l78 -103
q-16 -5 -34 -5z" />
    <glyph glyph-name="Edieresis.smcp" horiz-adv-x="423" 
d="M166 230v-150h227q4 -16 4 -40l-4 -40h-177q-46 0 -89.5 2t-64.5 4l-20 1v510q70 8 174 8h173q4 -16 4 -40l-4 -40h-223v-135h197q6 -16 6 -40q0 -11 -1.5 -21t-3.5 -15l-1 -4h-197zM183 648v-82q-20 -5 -46 -5l-47 5v82q21 5 47 5zM351 648v-82q-20 -5 -46 -5l-47 5v82
q21 5 47 5z" />
    <glyph glyph-name="Edotaccent.smcp" horiz-adv-x="423" 
d="M166 230v-150h227q4 -16 4 -40l-4 -40h-177q-46 0 -89.5 2t-64.5 4l-20 1v510q70 8 174 8h173q4 -16 4 -40l-4 -40h-223v-135h197q6 -16 6 -40q0 -11 -1.5 -21t-3.5 -15l-1 -4h-197zM281 657v-91q-30 -5 -59 -5l-59 5v91q29 6 59 6z" />
    <glyph glyph-name="Egrave.smcp" horiz-adv-x="423" 
d="M166 230v-150h227q4 -16 4 -40l-4 -40h-177q-46 0 -89.5 2t-64.5 4l-20 1v510q70 8 174 8h173q4 -16 4 -40l-4 -40h-223v-135h197q6 -16 6 -40q0 -11 -1.5 -21t-3.5 -15l-1 -4h-197zM223 565l-115 104q28 5 55 5l53 -5l75 -104q-16 -5 -34 -5z" />
    <glyph glyph-name="Emacron.smcp" horiz-adv-x="423" 
d="M166 230v-150h227q4 -16 4 -40l-4 -40h-177q-46 0 -89.5 2t-64.5 4l-20 1v510q70 8 174 8h173q4 -16 4 -40l-4 -40h-223v-135h197q6 -16 6 -40q0 -11 -1.5 -21t-3.5 -15l-1 -4h-197zM332 578h-223q-5 10 -5 27l5 27h223q5 -11 5 -27z" />
    <glyph glyph-name="Eogonek.smcp" horiz-adv-x="423" 
d="M276 -70q0 33 40 70h-100q-46 0 -89.5 2t-64.5 4l-20 1v510q70 8 174 8h173q4 -16 4 -40l-4 -40h-223v-135h197q6 -16 6 -40q0 -11 -1.5 -21t-3.5 -15l-1 -4h-197v-150h227q4 -16 4 -40l-4 -40h-28q-26 -32 -26 -62q0 -23 25 -23q8 0 15 1.5t11 3.5l3 2q4 -9 4 -20
l-4 -20q-16 -13 -48 -13q-69 0 -69 61z" />
    <glyph glyph-name="F.smcp" horiz-adv-x="414" 
d="M166 230v-227q-30 -5 -61 -5l-63 5v514q70 8 174 8h167q6 -16 6 -40q0 -10 -1.5 -20t-3.5 -15l-1 -5h-217v-135h193q5 -16 5 -40l-5 -40h-193z" />
    <glyph glyph-name="G.smcp" horiz-adv-x="482" 
d="M439 287v-255q-78 -35 -194 -35q-110 0 -158 36t-48 110v239q0 74 48 111t158 37t152 -36t42 -112v-9q-27 -6 -55 -6l-56 6v9q0 38 -18 53.5t-65 15.5t-64.5 -15.5t-17.5 -53.5v-239q0 -38 18 -53t64 -15q22 0 41 3t27 6l8 3v127h-70q-5 16 -5 41l5 39h35q41 0 79 -2
t56 -4z" />
    <glyph glyph-name="Gbreve.smcp" horiz-adv-x="482" 
d="M439 287v-255q-78 -35 -194 -35q-110 0 -158 36t-48 110v239q0 74 48 111t158 37t152 -36t42 -112v-9q-27 -6 -55 -6l-56 6v9q0 38 -18 53.5t-65 15.5t-64.5 -15.5t-17.5 -53.5v-239q0 -38 18 -53t64 -15q22 0 41 3t27 6l8 3v127h-70q-5 16 -5 41l5 39h35q41 0 79 -2
t56 -4zM241 560q-71 0 -97.5 22.5t-26.5 70.5v7q20 5 39 5l38 -5v-9q0 -23 10 -32t37 -9q26 0 36 9t10 32v9q19 5 38 5l38 -5v-7q0 -48 -26.5 -70.5t-95.5 -22.5z" />
    <glyph glyph-name="Gcircumflex.smcp" horiz-adv-x="482" 
d="M439 287v-255q-78 -35 -194 -35q-110 0 -158 36t-48 110v239q0 74 48 111t158 37t152 -36t42 -112v-9q-27 -6 -55 -6l-56 6v9q0 38 -18 53.5t-65 15.5t-64.5 -15.5t-17.5 -53.5v-239q0 -38 18 -53t64 -15q22 0 41 3t27 6l8 3v127h-70q-5 16 -5 41l5 39h35q41 0 79 -2
t56 -4zM300 565l-59 56l-61 -56q-17 -5 -34 -5l-34 5l78 103q25 6 50 6l51 -6l78 -103q-16 -5 -34 -5z" />
    <glyph glyph-name="Gcommaaccent.smcp" horiz-adv-x="482" 
d="M439 287v-255q-78 -35 -194 -35q-110 0 -158 36t-48 110v239q0 74 48 111t158 37t152 -36t42 -112v-9q-27 -6 -55 -6l-56 6v9q0 38 -18 53.5t-65 15.5t-64.5 -15.5t-17.5 -53.5v-239q0 -38 18 -53t64 -15q22 0 41 3t27 6l8 3v127h-70q-5 16 -5 41l5 39h35q41 0 79 -2
t56 -4zM278 -31q0 -36 -12.5 -65t-25.5 -40l-12 -12q-11 -4 -23 -4l-25 4q25 42 25 117q18 5 37 5z" />
    <glyph glyph-name="Gdotaccent.smcp" horiz-adv-x="482" 
d="M439 287v-255q-78 -35 -194 -35q-110 0 -158 36t-48 110v239q0 74 48 111t158 37t152 -36t42 -112v-9q-27 -6 -55 -6l-56 6v9q0 38 -18 53.5t-65 15.5t-64.5 -15.5t-17.5 -53.5v-239q0 -38 18 -53t64 -15q22 0 41 3t27 6l8 3v127h-70q-5 16 -5 41l5 39h35q41 0 79 -2
t56 -4zM300 657v-91q-30 -5 -59 -5l-59 5v91q29 6 59 6z" />
    <glyph glyph-name="H.smcp" horiz-adv-x="511" 
d="M469 522v-519q-31 -5 -63 -5l-62 5v224h-178v-224q-30 -5 -61 -5l-63 5v519q31 5 63 5l61 -5v-216h178v216q31 5 62 5z" />
    <glyph glyph-name="Hbar.smcp" horiz-adv-x="559" 
d="M528 378h-35v-375q-31 -5 -63 -5l-62 5v224h-178v-224q-31 -5 -61 -5l-63 5v375h-35q-5 14 -5 37l5 36h35v71q31 5 63 5l61 -5v-71h178v71q31 5 62 5l63 -5v-71h35q5 -14 5 -36zM190 306h178v72h-178v-72z" />
    <glyph glyph-name="Hcircumflex.smcp" horiz-adv-x="511" 
d="M469 522v-519q-31 -5 -63 -5l-62 5v224h-178v-224q-30 -5 -61 -5l-63 5v519q31 5 63 5l61 -5v-216h178v216q31 5 62 5zM315 565l-60 56l-60 -56q-18 -5 -34 -5l-34 5l78 103q24 6 50 6l51 -6l78 -103q-16 -5 -35 -5z" />
    <glyph glyph-name="I.smcp" horiz-adv-x="284" 
d="M30 80h50v365h-50q-5 16 -5 40l5 40h223q5 -16 5 -40l-5 -40h-49v-365h49q5 -16 5 -40l-5 -40h-223q-5 16 -5 40z" />
    <glyph glyph-name="Iacute.smcp" horiz-adv-x="284" 
d="M30 80h50v365h-50q-5 16 -5 40l5 40h223q5 -16 5 -40l-5 -40h-49v-365h49q5 -16 5 -40l-5 -40h-223q-5 16 -5 40zM255 669l-115 -104q-17 -5 -34 -5l-34 5l76 104q25 5 52 5z" />
    <glyph glyph-name="Ibreve.smcp" horiz-adv-x="284" 
d="M30 80h50v365h-50q-5 16 -5 40l5 40h223q5 -16 5 -40l-5 -40h-49v-365h49q5 -16 5 -40l-5 -40h-223q-5 16 -5 40zM142 560q-70 0 -96.5 22.5t-26.5 70.5v7q19 5 37 5l40 -5v-9q0 -23 9.5 -32t36.5 -9t37 9t10 32v9q18 5 38 5l38 -5v-7q0 -48 -26.5 -70.5t-96.5 -22.5z
" />
    <glyph glyph-name="Icircumflex.smcp" horiz-adv-x="283" 
d="M30 80h50v365h-50q-5 16 -5 40l5 40h223q5 -16 5 -40l-5 -40h-49v-365h49q5 -16 5 -40l-5 -40h-223q-5 16 -5 40zM202 565l-60 56l-61 -56q-17 -5 -34 -5l-34 5l78 103q24 6 50 6l51 -6l78 -103q-16 -5 -34 -5z" />
    <glyph glyph-name="Idieresis.smcp" horiz-adv-x="283" 
d="M113 647v-82q-20 -5 -46 -5l-46 5v82q21 5 46 5zM262 647v-82q-20 -5 -46 -5l-46 5v82q20 5 46 5zM30 80h50v365h-50q-5 16 -5 40l5 40h223q5 -16 5 -40l-5 -40h-49v-365h49q5 -16 5 -40l-5 -40h-223q-5 16 -5 40z" />
    <glyph glyph-name="Idotaccent.smcp" horiz-adv-x="284" 
d="M30 80h50v365h-50q-5 16 -5 40l5 40h223q5 -16 5 -40l-5 -40h-49v-365h49q5 -16 5 -40l-5 -40h-223q-5 16 -5 40zM200 657v-91q-29 -5 -59 -5l-59 5v91q30 6 59 6z" />
    <glyph glyph-name="Igrave.smcp" horiz-adv-x="284" 
d="M30 80h50v365h-50q-5 16 -5 40l5 40h223q5 -16 5 -40l-5 -40h-49v-365h49q5 -16 5 -40l-5 -40h-223q-5 16 -5 40zM143 565l-114 104q28 5 54 5l53 -5l75 -104q-16 -5 -34 -5z" />
    <glyph glyph-name="Imacron.smcp" horiz-adv-x="284" 
d="M30 80h50v365h-50q-4 16 -4 40l4 40h224q5 -16 5 -40l-5 -40h-50v-365h50q5 -16 5 -40l-5 -40h-224q-4 16 -4 40zM253 578h-223q-5 10 -5 27l5 27h223q5 -11 5 -27z" />
    <glyph glyph-name="Iogonek.smcp" horiz-adv-x="284" 
d="M137 -70q0 33 40 70h-147q-5 16 -5 40l5 40h50v365h-50q-5 16 -5 40l5 40h223q5 -16 5 -40l-5 -40h-49v-365h49q5 -16 5 -40l-5 -40h-28q-25 -31 -25 -62q0 -23 25 -23q8 0 15 1.5t10 3.5l4 2q4 -9 4 -20l-4 -20q-15 -13 -48 -13q-69 0 -69 61z" />
    <glyph glyph-name="Itilde.smcp" horiz-adv-x="283" 
d="M30 80h49v365h-49q-4 16 -4 40l4 40h223q5 -16 5 -40l-5 -40h-50v-365h50q5 -16 5 -40l-5 -40h-223q-4 16 -4 40zM7 566v3q0 44 15 64t54 20q31 0 51 -10.5t32 -20.5t23 -10q17 0 23.5 7t6.5 25v4q16 5 32 5l33 -5v-4q0 -44 -14.5 -63.5t-54.5 -19.5q-32 0 -52 10.5
t-32 20.5t-23 10q-17 0 -23.5 -7t-6.5 -26v-3q-17 -5 -33 -5z" />
    <glyph glyph-name="IJ.smcp" horiz-adv-x="620" 
d="M30 80h50v365h-50q-5 16 -5 40l5 40h223q5 -16 5 -40l-5 -40h-49v-365h49q5 -16 5 -40l-5 -40h-223q-5 16 -5 40zM578 525v-381q0 -73 -44 -109.5t-143 -36.5q-23 0 -43.5 3t-29.5 5l-10 3q-7 16 -7 41q0 10 1.5 19.5t3.5 14.5l2 4q33 -12 82 -12q35 0 49 15.5t14 52.5
v301h-70q-5 16 -5 40l5 40h195z" />
    <glyph glyph-name="J.smcp" horiz-adv-x="390" 
d="M347 522v-379q0 -74 -44 -111.5t-146 -37.5q-32 0 -61.5 7.5t-43.5 14.5l-14 8q-7 17 -7 41q0 11 1.5 21t3.5 14l2 5q0 -1 14 -8t43.5 -15t60.5 -8q38 0 52.5 15t14.5 54v379q31 5 63 5z" />
    <glyph glyph-name="Jcircumflex.smcp" horiz-adv-x="389" 
d="M347 522v-379q0 -74 -44 -111.5t-146 -37.5q-32 0 -61.5 7.5t-43.5 14.5l-14 8q-7 17 -7 41q0 11 1.5 21t3.5 14l2 5q0 -1 14 -8t43.5 -15t60.5 -8q38 0 52.5 15t14.5 54v379q31 5 63 5zM345 565l-59 56l-61 -56q-18 -5 -34 -5l-34 5l77 103q25 6 51 6l51 -6l78 -103
q-17 -5 -34 -5z" />
    <glyph glyph-name="K.smcp" horiz-adv-x="482" 
d="M334 3l-134 225l-34 -7v-218q-31 -5 -61 -5l-63 5v519q31 5 63 5l61 -5v-217l34 7l126 210q33 5 65 5l62 -5l-144 -252l155 -267q-32 -5 -64 -5z" />
    <glyph glyph-name="Kcommaaccent.smcp" horiz-adv-x="482" 
d="M334 3l-134 225l-34 -7v-218q-31 -5 -61 -5l-63 5v519q31 5 63 5l61 -5v-217l34 7l126 210q33 5 65 5l62 -5l-144 -252l155 -267q-32 -5 -64 -5zM283 -31q0 -36 -12.5 -65t-24.5 -40l-13 -12q-12 -4 -23 -4l-25 4q24 42 24 117q18 5 38 5z" />
    <glyph glyph-name="L.smcp" horiz-adv-x="398" 
d="M166 522v-442h203q4 -16 4 -40l-4 -40h-153q-46 0 -89.5 2t-64.5 4l-20 1v515q31 5 63 5z" />
    <glyph glyph-name="Lacute.smcp" horiz-adv-x="398" 
d="M166 522v-442h203q4 -16 4 -40l-4 -40h-153q-46 0 -89.5 2t-64.5 4l-20 1v515q31 5 63 5zM236 669l-114 -104q-18 -5 -35 -5l-34 5l75 104q26 5 54 5z" />
    <glyph glyph-name="Lcaron.smcp" horiz-adv-x="398" 
d="M166 522v-442h203q4 -16 4 -40l-4 -40h-153q-46 0 -89.5 2t-64.5 4l-20 1v515q31 5 63 5zM92 668l60 -56l61 56q17 6 33 6l35 -6l-78 -103q-25 -5 -50 -5l-51 5l-78 103q16 6 34 6z" />
    <glyph glyph-name="Lcommaaccent.smcp" horiz-adv-x="398" 
d="M166 522v-442h203q4 -16 4 -40l-4 -40h-153q-46 0 -89.5 2t-64.5 4l-20 1v515q31 5 63 5zM248 -31q0 -36 -12.5 -65t-25.5 -40l-12 -12q-12 -4 -24 -4l-24 4q25 42 25 117q18 5 36 5z" />
    <glyph glyph-name="Ldot.smcp" horiz-adv-x="398" 
d="M166 522v-442h203q4 -16 4 -40l-4 -40h-153q-46 0 -89.5 2t-64.5 4l-20 1v515q31 5 63 5zM354 291v-100q-29 -5 -57 -5l-56 5v100q27 5 56 5z" />
    <glyph glyph-name="Lslash.smcp" horiz-adv-x="427" 
d="M31 198l41 39v285q31 5 62 5l63 -5v-206l63 57q6 -20 6 -43l-6 -43l-63 -58v-149h201q5 -16 5 -40l-5 -40h-152q-46 0 -89.5 2t-64.5 4l-20 1v142l-41 -38q-6 23 -6 44z" />
    <glyph glyph-name="M.smcp" horiz-adv-x="650" 
d="M608 523v-520q-29 -5 -59 -5l-59 5v353l-113 -275q-24 -6 -52 -6l-52 6l-113 275v-354q-29 -5 -59 -5l-59 5v520q0 1 11.5 2t31.5 2.5t40 1.5l83 -6l117 -283l118 284q39 5 82 5z" />
    <glyph glyph-name="N.smcp" horiz-adv-x="508" 
d="M42 3v519q27 5 53 5l53 -5l200 -292v292q30 5 59 5l59 -5v-519q-26 -5 -52 -5l-53 5l-201 292v-292q-29 -5 -59 -5z" />
    <glyph glyph-name="Nacute.smcp" horiz-adv-x="508" 
d="M42 3v519q27 5 53 5l53 -5l200 -292v292q30 5 59 5l59 -5v-519q-26 -5 -52 -5l-53 5l-201 292v-292q-29 -5 -59 -5zM366 669l-114 -104q-18 -5 -34 -5l-33 5l74 104q26 5 53 5z" />
    <glyph glyph-name="Ncaron.smcp" horiz-adv-x="508" 
d="M42 3v519q27 5 53 5l53 -5l200 -292v292q30 5 59 5l59 -5v-519q-26 -5 -52 -5l-53 5l-201 292v-292q-29 -5 -59 -5zM193 668l61 -56l61 56q17 6 33 6l34 -6l-78 -103q-24 -5 -49 -5l-52 5l-78 103q17 6 35 6z" />
    <glyph glyph-name="Ncommaaccent.smcp" horiz-adv-x="508" 
d="M42 3v519q27 5 53 5l53 -5l200 -292v292q30 5 59 5l59 -5v-519q-26 -5 -52 -5l-53 5l-201 292v-292q-29 -5 -59 -5zM291 -31q0 -36 -12.5 -65t-24.5 -40l-13 -12q-11 -4 -23 -4l-24 4q24 42 24 117q18 5 37 5z" />
    <glyph glyph-name="Ntilde.smcp" horiz-adv-x="508" 
d="M42 3v519q27 5 53 5l53 -5l200 -292v292q30 5 59 5l59 -5v-519q-26 -5 -52 -5l-53 5l-201 292v-292q-29 -5 -59 -5zM119 566v3q0 43 15 63.5t54 20.5q31 0 51.5 -10.5t32 -20.5t22.5 -10q17 0 24 7t7 25v4q15 5 32 5l32 -5v-4q0 -44 -14.5 -63.5t-54.5 -19.5
q-31 0 -51.5 10.5t-32.5 20.5t-23 10q-17 0 -23.5 -7t-6.5 -26v-3q-16 -5 -33 -5z" />
    <glyph glyph-name="Eng.smcp" horiz-adv-x="508" 
d="M348 -32v56l-188 271v-292q-29 -5 -59 -5l-59 5v519q27 5 53 5l53 -5l200 -292v292q30 5 59 5l59 -5v-554q0 -62 -27 -93t-90 -31q-43 0 -82 13q-5 15 -5 33l5 33l5 -1q5 -2 13.5 -3.5t19.5 -1.5q25 0 34 11.5t9 39.5z" />
    <glyph glyph-name="O.smcp" horiz-adv-x="490" 
d="M39 143v239q0 74 48.5 111t157.5 37t157.5 -37t48.5 -111v-239q0 -74 -48.5 -111.5t-157.5 -37.5t-157.5 37.5t-48.5 111.5zM163 382v-239q0 -38 18 -53.5t64 -15.5t64 15.5t18 53.5v239q0 38 -18 53.5t-64 15.5t-64 -15.5t-18 -53.5z" />
    <glyph glyph-name="Oacute.smcp" horiz-adv-x="490" 
d="M39 143v239q0 74 48.5 111t157.5 37t157.5 -37t48.5 -111v-239q0 -74 -48.5 -111.5t-157.5 -37.5t-157.5 37.5t-48.5 111.5zM163 382v-239q0 -38 18 -53.5t64 -15.5t64 15.5t18 53.5v239q0 38 -18 53.5t-64 15.5t-64 -15.5t-18 -53.5zM358 669l-114 -104q-18 -5 -35 -5
l-34 5l76 104q25 5 53 5z" />
    <glyph glyph-name="Obreve.smcp" horiz-adv-x="490" 
d="M39 143v239q0 74 48.5 111t157.5 37t157.5 -37t48.5 -111v-239q0 -74 -48.5 -111.5t-157.5 -37.5t-157.5 37.5t-48.5 111.5zM163 382v-239q0 -38 18 -53.5t64 -15.5t64 15.5t18 53.5v239q0 38 -18 53.5t-64 15.5t-64 -15.5t-18 -53.5zM245 560q-70 0 -96.5 22.5
t-26.5 70.5v7q19 5 38 5l39 -5v-9q0 -23 9.5 -32t36.5 -9t37 9t10 32v9q19 5 38 5l38 -5v-7q0 -48 -26.5 -70.5t-96.5 -22.5z" />
    <glyph glyph-name="Ocircumflex.smcp" horiz-adv-x="490" 
d="M39 143v239q0 74 48.5 111t157.5 37t157.5 -37t48.5 -111v-239q0 -74 -48.5 -111.5t-157.5 -37.5t-157.5 37.5t-48.5 111.5zM163 382v-239q0 -38 18 -53.5t64 -15.5t64 15.5t18 53.5v239q0 38 -18 53.5t-64 15.5t-64 -15.5t-18 -53.5zM305 565l-60 56l-60 -56
q-18 -5 -34 -5l-34 5l77 103q25 6 51 6l51 -6l78 -103q-17 -5 -35 -5z" />
    <glyph glyph-name="Odieresis.smcp" horiz-adv-x="490" 
d="M39 143v239q0 74 48.5 111t157.5 37t157.5 -37t48.5 -111v-239q0 -74 -48.5 -111.5t-157.5 -37.5t-157.5 37.5t-48.5 111.5zM163 382v-239q0 -38 18 -53.5t64 -15.5t64 15.5t18 53.5v239q0 38 -18 53.5t-64 15.5t-64 -15.5t-18 -53.5zM207 647v-82q-20 -5 -46 -5l-46 5
v82q20 5 46 5zM375 647v-82q-20 -5 -46 -5l-46 5v82q20 5 46 5z" />
    <glyph glyph-name="Ograve.smcp" horiz-adv-x="490" 
d="M39 143v239q0 74 48.5 111t157.5 37t157.5 -37t48.5 -111v-239q0 -74 -48.5 -111.5t-157.5 -37.5t-157.5 37.5t-48.5 111.5zM163 382v-239q0 -38 18 -53.5t64 -15.5t64 15.5t18 53.5v239q0 38 -18 53.5t-64 15.5t-64 -15.5t-18 -53.5zM246 565l-114 104q28 5 55 5l52 -5
l76 -104q-17 -5 -35 -5z" />
    <glyph glyph-name="Ohungarumlaut.smcp" horiz-adv-x="490" 
d="M39 143v239q0 74 48.5 111t157.5 37t157.5 -37t48.5 -111v-239q0 -74 -48.5 -111.5t-157.5 -37.5t-157.5 37.5t-48.5 111.5zM163 382v-239q0 -38 18 -53.5t64 -15.5t64 15.5t18 53.5v239q0 38 -18 53.5t-64 15.5t-64 -15.5t-18 -53.5zM430 669l-115 -104q-17 -5 -34 -5
l-34 5l75 104q26 5 53 5zM288 669l-115 -104q-18 -5 -34 -5l-34 5l75 104q26 5 54 5z" />
    <glyph glyph-name="Omacron.smcp" horiz-adv-x="490" 
d="M39 143v239q0 74 48.5 111t157.5 37t157.5 -37t48.5 -111v-239q0 -74 -48.5 -111.5t-157.5 -37.5t-157.5 37.5t-48.5 111.5zM163 382v-239q0 -38 18 -53.5t64 -15.5t64 15.5t18 53.5v239q0 38 -18 53.5t-64 15.5t-64 -15.5t-18 -53.5zM356 578h-223q-5 10 -5 27l5 27h223
q5 -11 5 -27z" />
    <glyph glyph-name="Oslash.smcp" horiz-adv-x="489" 
d="M463 522l-36 -54q24 -32 24 -86v-239q0 -74 -48.5 -111.5t-157.5 -37.5q-73 0 -121 17l-5 -8q-23 -5 -47 -5l-46 5l36 54q-23 33 -23 86v239q0 74 48.5 111t157.5 37q72 0 120 -17l6 9q22 5 46 5zM245 71q49 0 68.5 16t19.5 56v183l-158 -238q18 -17 70 -17zM157 382
v-182l157 237q-18 17 -69 17q-50 0 -69 -16t-19 -56z" />
    <glyph glyph-name="Oslashacute.smcp" horiz-adv-x="489" 
d="M463 522l-36 -54q24 -32 24 -86v-239q0 -74 -48.5 -111.5t-157.5 -37.5q-73 0 -121 17l-5 -8q-23 -5 -47 -5l-46 5l36 54q-23 33 -23 86v239q0 74 48.5 111t157.5 37q72 0 120 -17l6 9q22 5 46 5zM245 71q49 0 68.5 16t19.5 56v183l-158 -238q18 -17 70 -17zM157 382
v-182l157 237q-18 17 -69 17q-50 0 -69 -16t-19 -56zM359 669l-115 -104q-18 -5 -35 -5l-33 5l75 104q26 5 53 5z" />
    <glyph glyph-name="Otilde.smcp" horiz-adv-x="490" 
d="M39 143v239q0 74 48.5 111t157.5 37t157.5 -37t48.5 -111v-239q0 -74 -48.5 -111.5t-157.5 -37.5t-157.5 37.5t-48.5 111.5zM163 382v-239q0 -38 18 -53.5t64 -15.5t64 15.5t18 53.5v239q0 38 -18 53.5t-64 15.5t-64 -15.5t-18 -53.5zM110 566v3q0 43 15 63.5t54 20.5
q32 0 52 -10.5t31.5 -20.5t22.5 -10q18 0 24.5 7t6.5 25v4q16 5 32 5l32 -5v-4q0 -44 -14.5 -63.5t-54.5 -19.5q-41 0 -69 20.5t-37 20.5q-18 0 -24.5 -7t-6.5 -26v-3q-16 -5 -32 -5z" />
    <glyph glyph-name="OE.smcp" horiz-adv-x="656" 
d="M624 0h-126q-56 0 -121 5q-50 -8 -132 -8q-110 0 -158 36.5t-48 109.5v239q0 73 48 109.5t158 36.5q60 0 132 -9q58 6 121 6h122q5 -16 5 -40l-5 -40h-196v-135h171q5 -16 5 -40l-5 -40h-171v-150h200q5 -16 5 -40zM300 75v375h-55q-46 0 -64 -15t-18 -53v-239
q0 -38 18 -53t64 -15h55z" />
    <glyph glyph-name="P.smcp" horiz-adv-x="475" 
d="M42 518q76 10 191 10q108 0 155.5 -36t47.5 -110v-31q0 -74 -47.5 -110.5t-155.5 -36.5l-67 2v-203q-31 -5 -61 -5l-63 5v515zM166 450v-168h67q45 0 62 15t17 54v31q0 38 -17 53t-62 15h-67z" />
    <glyph glyph-name="Q.smcp" horiz-adv-x="490" 
d="M308 -129l-61 123h-2q-109 0 -157.5 37.5t-48.5 111.5v239q0 74 48.5 111t157.5 37t157.5 -37t48.5 -111v-239q0 -107 -100 -137l80 -135q-30 -5 -60 -5zM163 382v-239q0 -38 18 -53.5t64 -15.5t64 15.5t18 53.5v239q0 38 -18 53.5t-64 15.5t-64 -15.5t-18 -53.5z" />
    <glyph glyph-name="R.smcp" horiz-adv-x="484" 
d="M335 3l-106 201l-63 2v-203q-31 -5 -61 -5l-63 5v515q76 10 191 10q108 0 155.5 -36t47.5 -110v-31q0 -102 -91 -133l117 -215q-31 -5 -63 -5zM166 450v-168h67q45 0 62 15t17 54v31q0 38 -17 53t-62 15h-67z" />
    <glyph glyph-name="Racute.smcp" horiz-adv-x="484" 
d="M335 3l-106 201l-63 2v-203q-31 -5 -61 -5l-63 5v515q76 10 191 10q108 0 155.5 -36t47.5 -110v-31q0 -102 -91 -133l117 -215q-31 -5 -63 -5zM166 450v-168h67q45 0 62 15t17 54v31q0 38 -17 53t-62 15h-67zM348 669l-114 -104q-18 -5 -34 -5l-34 5l75 104q26 5 53 5z
" />
    <glyph glyph-name="Rcaron.smcp" horiz-adv-x="484" 
d="M335 3l-106 201l-63 2v-203q-31 -5 -61 -5l-63 5v515q76 10 191 10q108 0 155.5 -36t47.5 -110v-31q0 -102 -91 -133l117 -215q-31 -5 -63 -5zM166 450v-168h67q45 0 62 15t17 54v31q0 38 -17 53t-62 15h-67zM173 668l61 -56l60 56q18 6 34 6l34 -6l-78 -103
q-24 -5 -49 -5l-52 5l-78 103q17 6 35 6z" />
    <glyph glyph-name="Rcommaaccent.smcp" horiz-adv-x="484" 
d="M335 3l-106 201l-63 2v-203q-31 -5 -61 -5l-63 5v515q76 10 191 10q108 0 155.5 -36t47.5 -110v-31q0 -102 -91 -133l117 -215q-31 -5 -63 -5zM166 450v-168h67q45 0 62 15t17 54v31q0 38 -17 53t-62 15h-67zM286 -31q0 -36 -12.5 -65t-25.5 -40l-12 -12q-12 -4 -24 -4
l-23 4q24 42 24 117q18 5 36 5z" />
    <glyph glyph-name="S.smcp" horiz-adv-x="464" 
d="M158 382v-23q0 -19 28 -31.5t68 -22.5t79.5 -23.5t67.5 -43t28 -72.5v-23q0 -75 -46.5 -112t-153.5 -37q-111 0 -154 36.5t-43 112.5v9q31 6 60 6l61 -6v-9q0 -39 16 -54t60 -15q43 0 59.5 15t16.5 54v23q0 21 -28 34.5t-67.5 23.5t-79 23t-67.5 41.5t-28 70.5v23
q0 75 45.5 111.5t150.5 36.5q110 0 151.5 -36t41.5 -112v-9q-30 -6 -60 -6l-61 6v9q0 38 -15.5 53.5t-56.5 15.5q-40 0 -56.5 -16t-16.5 -53z" />
    <glyph glyph-name="Sacute.smcp" horiz-adv-x="464" 
d="M158 382v-23q0 -19 28 -31.5t68 -22.5t79.5 -23.5t67.5 -43t28 -72.5v-23q0 -75 -46.5 -112t-153.5 -37q-111 0 -154 36.5t-43 112.5v9q31 6 60 6l61 -6v-9q0 -39 16 -54t60 -15q43 0 59.5 15t16.5 54v23q0 21 -28 34.5t-67.5 23.5t-79 23t-67.5 41.5t-28 70.5v23
q0 75 45.5 111.5t150.5 36.5q110 0 151.5 -36t41.5 -112v-9q-30 -6 -60 -6l-61 6v9q0 38 -15.5 53.5t-56.5 15.5q-40 0 -56.5 -16t-16.5 -53zM344 669l-114 -104q-18 -5 -34 -5l-34 5l74 104q26 5 54 5z" />
    <glyph glyph-name="Scaron.smcp" horiz-adv-x="464" 
d="M158 382v-23q0 -19 28 -31.5t68 -22.5t79.5 -23.5t67.5 -43t28 -72.5v-23q0 -75 -46.5 -112t-153.5 -37q-111 0 -154 36.5t-43 112.5v9q31 6 60 6l61 -6v-9q0 -39 16 -54t60 -15q43 0 59.5 15t16.5 54v23q0 21 -28 34.5t-67.5 23.5t-79 23t-67.5 41.5t-28 70.5v23
q0 75 45.5 111.5t150.5 36.5q110 0 151.5 -36t41.5 -112v-9q-30 -6 -60 -6l-61 6v9q0 38 -15.5 53.5t-56.5 15.5q-40 0 -56.5 -16t-16.5 -53zM171 668l60 -56l60 56q18 6 34 6l35 -6l-78 -103q-25 -5 -50 -5l-51 5l-78 103q16 6 34 6z" />
    <glyph glyph-name="Scedilla.smcp" horiz-adv-x="464" 
d="M158 382v-23q0 -19 28 -31.5t68 -22.5t79.5 -23.5t67.5 -43t28 -72.5v-23q0 -71 -40 -107.5t-132 -40.5v-12q0 -9 11.5 -15t25.5 -9.5t25.5 -14t11.5 -27.5v-7q0 -57 -89 -57q-48 0 -66.5 15t-18.5 46v3q16 3 30 3l30 -3v-3q0 -12 5.5 -17t19.5 -5t19 3.5t5 14.5v7
q0 10 -18 16t-35.5 17t-17.5 33v12q-91 5 -127 41.5t-36 106.5v9q31 6 60 6l61 -6v-9q0 -39 16 -54t60 -15q43 0 59.5 15t16.5 54v23q0 21 -28 34.5t-67.5 23.5t-79 23t-67.5 41.5t-28 70.5v23q0 75 45.5 111.5t150.5 36.5q110 0 151.5 -36t41.5 -112v-9q-30 -6 -60 -6
l-61 6v9q0 38 -15.5 53.5t-56.5 15.5q-40 0 -56.5 -16t-16.5 -53z" />
    <glyph glyph-name="Scircumflex.smcp" horiz-adv-x="464" 
d="M158 382v-23q0 -19 28 -31.5t68 -22.5t79.5 -23.5t67.5 -43t28 -72.5v-23q0 -75 -46.5 -112t-153.5 -37q-111 0 -154 36.5t-43 112.5v9q31 6 60 6l61 -6v-9q0 -39 16 -54t60 -15q43 0 59.5 15t16.5 54v23q0 21 -28 34.5t-67.5 23.5t-79 23t-67.5 41.5t-28 70.5v23
q0 75 45.5 111.5t150.5 36.5q110 0 151.5 -36t41.5 -112v-9q-30 -6 -60 -6l-61 6v9q0 38 -15.5 53.5t-56.5 15.5q-40 0 -56.5 -16t-16.5 -53zM291 565l-60 56l-60 -56q-18 -5 -34 -5l-34 5l78 103q24 6 50 6l51 -6l78 -103q-16 -5 -35 -5z" />
    <glyph glyph-name="Scommaaccent.smcp" horiz-adv-x="464" 
d="M158 382v-23q0 -19 28 -31.5t68 -22.5t79.5 -23.5t67.5 -43t28 -72.5v-23q0 -75 -46.5 -112t-153.5 -37q-111 0 -154 36.5t-43 112.5v9q31 6 60 6l61 -6v-9q0 -39 16 -54t60 -15q43 0 59.5 15t16.5 54v23q0 21 -28 34.5t-67.5 23.5t-79 23t-67.5 41.5t-28 70.5v23
q0 75 45.5 111.5t150.5 36.5q110 0 151.5 -36t41.5 -112v-9q-30 -6 -60 -6l-61 6v9q0 38 -15.5 53.5t-56.5 15.5q-40 0 -56.5 -16t-16.5 -53zM264 -31q0 -36 -12 -65t-24 -40l-13 -12q-13 -4 -24 -4l-24 4q24 42 24 117q18 5 37 5z" />
    <glyph glyph-name="T.smcp" horiz-adv-x="458" 
d="M428 445h-137v-442q-31 -5 -62 -5l-62 5v442h-138q-6 16 -6 40q0 11 1.5 21t3.5 14l1 5h399q5 -16 5 -40z" />
    <glyph glyph-name="Tbar.smcp" horiz-adv-x="458" 
d="M394 232h-103v-229q-31 -5 -62 -5l-62 5v229h-102q-5 14 -5 36l5 37h102v140h-138q-6 16 -6 40q0 11 1.5 21t3.5 14l1 5h399q5 -16 5 -40l-5 -40h-137v-140h103q5 -15 5 -37z" />
    <glyph glyph-name="Tcaron.smcp" horiz-adv-x="458" 
d="M428 445h-137v-442q-31 -5 -62 -5l-62 5v442h-138q-6 16 -6 40q0 11 1.5 21t3.5 14l1 5h399q5 -16 5 -40zM169 668l60 -56l60 56q18 6 34 6l34 -6l-78 -103q-24 -5 -50 -5l-51 5l-78 103q16 6 34 6z" />
    </font>
</defs>
</svg>
