<?xml version="1.0" standalone="no"?>
<!DOCTYPE svg PUBLIC "-//W3C//DTD SVG 1.1//EN" "http://www.w3.org/Graphics/SVG/1.1/DTD/svg11.dtd" >
<svg xmlns="http://www.w3.org/2000/svg" xmlns:xlink="http://www.w3.org/1999/xlink" version="1.1">
<metadata>
Created by FontForge 20170731 at Sun Dec 22 19:41:48 2013
 By Aleksey,,,
Copyright (c) 2013 by Andriy Konstantynov. All rights reserved.
</metadata>
<defs>
<font id="PancettaPro-Light" horiz-adv-x="522" >
  <font-face 
    font-family="Pancetta Pro"
    font-weight="300"
    font-stretch="normal"
    units-per-em="1000"
    panose-1="2 11 0 3 3 2 0 8 0 4"
    ascent="775"
    descent="-225"
    x-height="500"
    cap-height="702"
    bbox="-68 -226 1064 895"
    underline-thickness="50"
    underline-position="-150"
    unicode-range="U+0020-FB03"
  />
<missing-glyph horiz-adv-x="197" 
 />
    <glyph glyph-name="ff" unicode="ff" horiz-adv-x="656" 
d="M621 460h-153v-457q-15 -5 -30 -5l-30 5v457h-239v-457q-14 -5 -30 -5l-30 5v457h-55q-4 8 -4 21l4 21h55v67q0 66 32 100.5t104 34.5q41 0 78 -10q3 -9 3 -20l-3 -21q-25 9 -60 9q-52 0 -73 -22.5t-21 -70.5v-67h239v67q0 67 32 101t104 34q42 0 77 -10q4 -9 4 -20
l-4 -21q-23 9 -60 9q-52 0 -72.5 -22.5t-20.5 -70.5v-67h153q4 -8 4 -21z" />
    <glyph glyph-name="fi" unicode="fi" horiz-adv-x="540" 
d="M323 460h-154v-457q-14 -5 -30 -5l-30 5v457h-55q-4 8 -4 21l4 21h55v67q0 66 32 100.5t104 34.5q41 0 78 -10q3 -9 3 -20l-3 -21q-25 9 -60 9q-52 0 -73 -22.5t-21 -70.5v-67h154q4 -8 4 -21zM471 497v-495q-15 -4 -30 -4l-30 4v495q14 5 30 5zM471 697v-100
q-15 -4 -30 -4l-30 4v100q14 5 30 5z" />
    <glyph glyph-name="ffi" unicode="ffi" horiz-adv-x="838" 
d="M621 460h-153v-457q-15 -5 -30 -5l-30 5v457h-239v-457q-14 -5 -30 -5l-30 5v457h-55q-4 8 -4 21l4 21h55v67q0 66 32 100.5t104 34.5q41 0 78 -10q3 -9 3 -20l-3 -21q-25 9 -60 9q-52 0 -73 -22.5t-21 -70.5v-67h239v67q0 67 32 101t104 34q42 0 77 -10q4 -9 4 -20
l-4 -21q-23 9 -60 9q-52 0 -72.5 -22.5t-20.5 -70.5v-67h153q4 -8 4 -21zM770 497v-495q-15 -4 -30 -4l-30 4v495q14 5 30 5zM770 697v-100q-15 -4 -30 -4l-30 4v100q14 5 30 5z" />
    <glyph glyph-name="f_f_j" unicode="ffj" horiz-adv-x="840" 
d="M621 460h-153v-457q-15 -5 -30 -5l-30 5v457h-239v-457q-14 -5 -30 -5l-30 5v457h-55q-4 8 -4 21l4 21h55v67q0 66 32 100.5t104 34.5q41 0 78 -10q3 -9 3 -20l-3 -21q-25 9 -60 9q-52 0 -73 -22.5t-21 -70.5v-67h239v67q0 67 32 101t104 34q42 0 77 -10q4 -9 4 -20
l-4 -21q-23 9 -60 9q-52 0 -72.5 -22.5t-20.5 -70.5v-67h153q4 -8 4 -21zM711 -76v573q14 5 30 5l30 -5v-573q0 -64 -28.5 -96t-93.5 -32q-38 0 -73 10q-4 9 -4 20l4 21q23 -9 56 -9q44 0 61.5 20.5t17.5 65.5zM771 697v-100q-15 -4 -30 -4l-30 4v100q14 5 30 5z" />
    <glyph glyph-name="f_j" unicode="fj" horiz-adv-x="542" 
d="M323 460h-154v-457q-14 -5 -30 -5l-30 5v457h-55q-4 8 -4 21l4 21h55v67q0 66 32 100.5t104 34.5q41 0 78 -10q3 -9 3 -20l-3 -21q-25 9 -60 9q-52 0 -73 -22.5t-21 -70.5v-67h154q4 -8 4 -21zM414 -76v573q14 5 30 5l30 -5v-573q0 -64 -28.5 -96t-93.5 -32q-38 0 -73 10
q-4 9 -4 20l4 21q23 -9 56 -9q44 0 61.5 21t17.5 65zM474 697v-100q-15 -4 -30 -4l-30 4v100q14 5 30 5z" />
    <glyph glyph-name="f_iogonek" unicode="f&#x12f;" horiz-adv-x="540" 
d="M323 460h-154v-457q-14 -5 -30 -5l-30 5v457h-55q-4 8 -4 21l4 21h55v67q0 66 32 100.5t104 34.5q41 0 78 -10q3 -9 3 -20l-3 -21q-25 9 -60 9q-52 0 -73 -22.5t-21 -70.5v-67h154q4 -8 4 -21zM380 -85q0 41 47 84l-16 3v495q14 5 30 5l30 -5v-495q-5 -1 -9 -2
q-43 -43 -43 -82q0 -44 49 -44q16 0 30.5 4t21.5 8l7 5q3 -6 3 -16l-3 -14q-22 -19 -66 -19q-81 0 -81 73zM471 697v-100q-15 -4 -30 -4l-30 4v100q14 5 30 5z" />
    <glyph glyph-name="f_f_iogonek" unicode="ff&#x12f;" horiz-adv-x="838" 
d="M621 460h-153v-457q-15 -5 -30 -5l-30 5v457h-239v-457q-14 -5 -30 -5l-30 5v457h-55q-4 8 -4 21l4 21h55v67q0 66 32 100.5t104 34.5q41 0 78 -10q3 -9 3 -20l-3 -21q-25 9 -60 9q-52 0 -73 -22.5t-21 -70.5v-67h239v67q0 67 32 101t104 34q42 0 77 -10q4 -9 4 -20
l-4 -21q-23 9 -60 9q-52 0 -72.5 -22.5t-20.5 -70.5v-67h153q4 -8 4 -21zM679 -85q0 44 47 84l-16 3v495q14 5 30 5l30 -5v-495q-5 -2 -11 -2q-41 -46 -41 -82q0 -44 49 -44q15 0 29.5 4t21.5 8l7 5q4 -6 4 -16l-4 -14q-21 -19 -65 -19q-81 0 -81 73zM770 697v-100
q-15 -4 -30 -4l-30 4v100q14 5 30 5z" />
    <glyph glyph-name="quoteright_afii10104" unicode="&#x2019;&#x457;" horiz-adv-x="302" 
d="M214 497v-495q-15 -4 -30 -4l-30 4v495q14 5 30 5zM121 697q0 -39 -6.5 -72.5t-15.5 -54t-17.5 -36t-15.5 -21.5l-6 -6q-9 -4 -17 -4l-18 4q5 7 12.5 20t20.5 62t13 108q12 5 25 5zM284 697v-96q-12 -4 -25 -4l-25 4v96q10 5 25 5z" />
    <glyph glyph-name="afii10103_afii10104" unicode="&#x456;&#x457;" horiz-adv-x="395" 
d="M129 497v-495q-15 -4 -30 -4l-30 4v495q14 5 30 5zM124 697v-100q-14 -4 -28 -4l-27 4v100q13 5 27 5zM326 497v-495q-15 -4 -30 -4l-30 4v495q14 5 30 5zM260 697v-96q-12 -4 -25 -4l-25 4v96q11 5 25 5zM396 697v-96q-11 -4 -25 -4l-25 4v96q11 5 25 5z" />
    <glyph glyph-name="afii10104_afii10104" unicode="&#x457;&#x457;" horiz-adv-x="395" 
d="M129 497v-495q-15 -4 -30 -4l-30 4v495q14 5 30 5zM49 697v-96q-12 -4 -25 -4l-25 4v96q10 5 25 5zM222 697v-96q-11 -4 -25 -4l-25 4v96q11 5 25 5zM326 497v-495q-15 -4 -30 -4l-30 4v495q14 5 30 5zM396 697v-96q-11 -4 -25 -4l-25 4v96q11 5 25 5z" />
    <glyph glyph-name=".notdef" horiz-adv-x="197" 
 />
    <glyph glyph-name=".null" horiz-adv-x="0" 
 />
    <glyph glyph-name="nonmarkingreturn" horiz-adv-x="333" 
 />
    <glyph glyph-name="space" unicode=" " horiz-adv-x="197" 
 />
    <glyph glyph-name="exclam" unicode="!" horiz-adv-x="197" 
d="M130 95v-93q-16 -4 -31 -4l-32 4v93q15 4 32 4zM129 697v-490q-15 -4 -30 -4l-30 4v490q14 5 30 5z" />
    <glyph glyph-name="quotedbl" unicode="&#x22;" horiz-adv-x="295" 
d="M114 697l-4 -200q-10 -4 -20 -4l-20 4l-4 200q11 5 24 5zM229 697l-4 -200q-10 -4 -20 -4l-20 4l-4 200q11 5 24 5z" />
    <glyph glyph-name="numbersign" unicode="#" horiz-adv-x="542" 
d="M473 189h-73l-16 -187q-13 -4 -25 -4l-25 4l16 187h-190l-16 -187q-13 -4 -25 -4l-25 4l16 187h-65q-4 8 -4 21l4 21h68l21 238h-66q-4 8 -4 21l4 21h69l17 186q12 5 25 5l25 -5l-16 -186h189l17 186q12 5 25 5l25 -5l-16 -186h69q4 -8 4 -21l-4 -21h-73l-21 -238h70
q4 -8 4 -21zM184 469l-21 -238h190l21 238h-190z" />
    <glyph glyph-name="dollar" unicode="$" horiz-adv-x="558" 
d="M121 545v-51q0 -36 28 -60.5t70 -36t91 -26.5t91 -31t70 -50.5t28 -83.5v-51q0 -75 -46.5 -114.5t-151.5 -43.5v-95q-12 -4 -25 -4l-25 4v95q-107 4 -152 43.5t-45 114.5v14q15 4 30 4l31 -4v-14q0 -59 36.5 -86.5t124.5 -27.5t124.5 27.5t36.5 86.5v51q0 39 -28 65
t-70 38.5t-91 27t-91 29.5t-70 48t-28 80v51q0 74 45 113.5t147 44.5v94q12 5 25 5l25 -5v-94q102 -4 145.5 -43.5t43.5 -114.5v-14q-14 -4 -30 -4l-31 4v14q0 59 -34.5 86.5t-117.5 27.5q-85 0 -120.5 -27.5t-35.5 -86.5z" />
    <glyph glyph-name="percent" unicode="%" horiz-adv-x="639" 
d="M352 104v28q0 107 122 107q121 0 121 -107v-28q0 -107 -121 -107q-122 0 -122 107zM44 568v28q0 107 121 107t121 -107v-28q0 -107 -121 -107t-121 107zM576 697l-457 -695q-15 -4 -28 -4l-27 4l457 695q12 5 28 5zM394 132v-28q0 -35 18.5 -52t61.5 -17t61.5 17t18.5 52
v28q0 35 -18.5 52t-61.5 17t-61.5 -17t-18.5 -52zM85 596v-28q0 -35 18.5 -52t61.5 -17t61.5 17t18.5 52v28q0 35 -18.5 52t-61.5 17t-61.5 -17t-18.5 -52z" />
    <glyph glyph-name="ampersand" unicode="&#x26;" horiz-adv-x="709" 
d="M639 457h-151v-326q0 -48 21 -70.5t73 -22.5q31 0 57 10q4 -9 4 -20l-4 -20q-42 -12 -71 -12q-73 0 -104 37q-1 0 -10.5 -4.5t-24 -9.5t-35 -10.5t-50 -9t-62.5 -3.5q-231 0 -231 167v52q0 116 124 145q-110 29 -110 140v40q0 164 211 164q114 0 163 -39t49 -116v-49h151
q4 -9 4 -21zM280 380h51q4 -9 4 -21l-4 -22h-51q-91 0 -130 -29.5t-39 -92.5v-52q0 -65 39 -95t132 -30q92 0 160 34q-9 26 -9 59v418q0 59 -35 86t-122 27q-81 0 -116 -30t-35 -92v-40q0 -62 35.5 -91t119.5 -29z" />
    <glyph glyph-name="quotesingle" unicode="'" horiz-adv-x="180" 
d="M114 697l-4 -200q-10 -4 -20 -4l-20 4l-4 200q11 5 24 5z" />
    <glyph glyph-name="parenleft" unicode="(" horiz-adv-x="284" 
d="M241 -107q4 -9 4 -21l-4 -22q-90 0 -131 39t-41 114v595q0 75 41 114t131 39q4 -9 4 -21l-4 -21q-63 0 -89.5 -27t-26.5 -84v-595q0 -57 26.5 -83.5t89.5 -26.5z" />
    <glyph glyph-name="parenright" unicode=")" horiz-adv-x="284" 
d="M43 709q-4 8 -4 21l4 21q173 0 173 -153v-595q0 -153 -173 -153q-4 9 -4 22l4 21q63 0 89.5 26.5t26.5 83.5v595q0 57 -26.5 84t-89.5 27z" />
    <glyph glyph-name="asterisk" unicode="*" horiz-adv-x="479" 
d="M59 582l160 -55l-2 170q11 5 24 5l23 -5l-2 -169l161 54q7 -8 11 -21l3 -24l-162 -50l102 -136q-7 -10 -16 -17l-22 -11l-98 140l-98 -140q-12 3 -22 10l-17 18l101 135l-161 50q-1 12 3 25z" />
    <glyph glyph-name="plus" unicode="+" horiz-adv-x="415" 
d="M229 461v-140h140q4 -8 4 -21l-4 -21h-140v-140q-8 -4 -22 -4l-21 4v140h-140q-4 8 -4 21l4 21h140v140q8 4 21 4z" />
    <glyph glyph-name="comma" unicode="," horiz-adv-x="195" 
d="M127 95q0 -62 -16.5 -110t-32.5 -65l-17 -18q-10 -4 -20 -4l-20 4q5 7 13 20.5t21 63.5t13 109q14 4 29 4z" />
    <glyph glyph-name="hyphen" unicode="-" horiz-adv-x="297" 
d="M250 265h-204q-4 8 -4 21l4 21h204q4 -8 4 -21z" />
    <glyph glyph-name="period" unicode="." horiz-adv-x="195" 
d="M128 95v-93q-16 -4 -31 -4l-30 4v93q14 4 30 4z" />
    <glyph glyph-name="slash" unicode="/" horiz-adv-x="391" 
d="M351 747l-251 -845q-15 -4 -29 -4l-30 4l251 845q14 5 30 5z" />
    <glyph glyph-name="zero" unicode="0" horiz-adv-x="573" 
d="M67 149v402q0 153 219 153t219 -153v-402q0 -153 -219 -153t-219 153zM127 551v-402q0 -57 36.5 -84t122.5 -27t122.5 27t36.5 84v402q0 57 -36.5 84t-122.5 27t-122.5 -27t-36.5 -84z" />
    <glyph glyph-name="one" unicode="1" horiz-adv-x="329" 
d="M219 701v-699q-15 -4 -30 -4l-30 4v649l-125 4q-3 9 -3 21l3 21q73 4 185 4z" />
    <glyph glyph-name="two" unicode="2" horiz-adv-x="548" 
d="M429 494v51q0 60 -35.5 88.5t-121.5 28.5q-85 0 -120 -28.5t-35 -88.5v-14q-14 -4 -29 -4l-29 4v14q0 80 48 119.5t165 39.5q115 0 166 -40t51 -119v-51q0 -51 -20 -89.5t-52.5 -61t-71.5 -41t-78 -35.5t-71.5 -37.5t-52.5 -54.5t-20 -80v-53h362q4 -8 4 -21l-4 -21h-226
q-52 0 -100.5 1.5t-71.5 2.5l-23 2v89q0 52 20 91.5t52.5 63t71 42t77.5 35.5t71.5 37.5t52.5 53t20 76.5z" />
    <glyph glyph-name="three" unicode="3" horiz-adv-x="548" 
d="M69 656q-4 9 -4 22l4 22h404q4 -9 4 -21l-4 -22l-213 -259q72 0 119.5 -12.5t71.5 -36.5t33 -51.5t9 -65.5v-69q0 -167 -229 -167q-61 0 -112 11t-72 21l-20 11q-4 9 -4 22l4 22q0 -2 22 -12t73 -21.5t109 -11.5q92 0 130.5 30t38.5 95v69q0 65 -41.5 94.5t-138.5 29.5
h-55q-4 9 -4 22l4 22l207 256h-336z" />
    <glyph glyph-name="four" unicode="4" horiz-adv-x="531" 
d="M423 497v-282h74q4 -9 4 -22l-4 -22h-72v-169q-15 -4 -30 -4l-29 4v169h-315q-4 9 -4 22l196 504q12 4 29 4l32 -4l-188 -482h250v282q14 5 29 5z" />
    <glyph glyph-name="five" unicode="5" horiz-adv-x="539" 
d="M157 657l-16 -249h119q125 0 172.5 -43.5t47.5 -124.5v-77q0 -167 -219 -167q-62 0 -113 11t-71 21l-20 11q-5 9 -5 22l5 22q0 -2 22 -12t72.5 -21.5t108.5 -11.5q87 0 123.5 30t36.5 95v77q0 64 -36.5 94t-123.5 30h-173q-4 8 -4 22l22 307q77 7 195 7h137q4 -9 4 -21
l-4 -22h-280z" />
    <glyph glyph-name="six" unicode="6" horiz-adv-x="565" 
d="M127 386q8 6 23.5 14.5t68.5 22.5t113 14q88 0 126.5 -38.5t38.5 -114.5v-135q0 -75 -51 -114t-164 -39q-215 0 -215 153v379q0 86 52 130.5t170 44.5q50 0 94 -6.5t63 -12.5l18 -6q4 -8 4 -21l-4 -22q-67 26 -177 26q-88 0 -124 -32.5t-36 -99.5v-143zM127 340v-191
q0 -57 35.5 -84t119.5 -27t119.5 27t35.5 84v135q0 57 -27 83.5t-94 26.5q-61 0 -108 -13.5t-64 -26.5z" />
    <glyph glyph-name="seven" unicode="7" 
d="M473 679l-264 -677q-12 -4 -31 -4l-33 4l261 654h-353q-4 9 -4 22l4 22h416q4 -9 4 -21z" />
    <glyph glyph-name="eight" unicode="8" horiz-adv-x="572" 
d="M81 491v60q0 153 205 153t205 -153v-60q0 -102 -95 -130q110 -29 110 -134v-78q0 -75 -52 -114t-168 -39q-220 0 -220 153v78q0 106 109 134q-94 28 -94 130zM126 227v-78q0 -57 36.5 -84t123.5 -27t123.5 27t36.5 84v78q0 57 -36.5 84t-123.5 27t-123.5 -27t-36.5 -84z
M141 551v-60q0 -57 33.5 -84t111.5 -27q79 0 112 27t33 84v60q0 57 -33 84t-112 27q-78 0 -111.5 -27t-33.5 -84z" />
    <glyph glyph-name="nine" unicode="9" horiz-adv-x="565" 
d="M437 170v157q-8 -6 -23 -14.5t-68 -22.5t-113 -14q-88 0 -127 38.5t-39 114.5v121q0 153 215 153q113 0 164 -39t51 -114v-379q0 -86 -52 -130.5t-170 -44.5q-49 0 -93 6t-64 12l-19 7q-4 8 -4 21l4 22q70 -26 180 -26q87 0 122.5 32.5t35.5 99.5zM437 373v177
q0 57 -35.5 84t-119.5 27t-119.5 -27t-35.5 -84v-121q0 -57 27 -83.5t95 -26.5q61 0 108 13.5t63 27.5z" />
    <glyph glyph-name="colon" unicode=":" horiz-adv-x="195" 
d="M128 95v-93q-16 -4 -31 -4l-30 4v93q14 4 30 4zM128 497v-92q-16 -4 -31 -4l-30 4v92q14 5 30 5z" />
    <glyph glyph-name="semicolon" unicode=";" horiz-adv-x="195" 
d="M128 497v-92q-16 -4 -31 -4l-30 4v92q14 5 30 5zM127 95q0 -62 -16.5 -110t-32.5 -65l-17 -18q-10 -4 -20 -4l-20 4q5 7 13 20.5t21 63.5t13 109q14 4 29 4z" />
    <glyph glyph-name="less" unicode="&#x3c;" horiz-adv-x="457" 
d="M401 456l-270 -140l270 -140q4 -13 4 -26l-4 -25l-359 191l359 192q4 -14 4 -26z" />
    <glyph glyph-name="equal" unicode="=" horiz-adv-x="435" 
d="M388 200h-342q-4 9 -4 22l4 21h342q4 -9 4 -21zM389 390h-343q-4 8 -4 21l4 21h343q4 -8 4 -21z" />
    <glyph glyph-name="greater" unicode="&#x3e;" horiz-adv-x="457" 
d="M55 177l270 139l-270 140q-4 14 -4 26l4 26l359 -192l-359 -191q-4 13 -4 26z" />
    <glyph glyph-name="question" unicode="?" horiz-adv-x="518" 
d="M399 494v51q0 61 -32 89t-110 28q-77 0 -108.5 -28t-31.5 -89v-14q-14 -4 -29 -4l-29 4v14q0 80 44.5 119.5t153.5 39.5q107 0 154.5 -40t47.5 -119v-51q0 -41 -18 -69.5t-43 -43.5t-50.5 -29t-43.5 -37t-18 -58v-50q-15 -4 -30 -4l-30 4v50q0 43 18 71.5t43 44t50.5 29
t43.5 36.5t18 56zM288 95v-93q-16 -4 -32 -4l-31 4v93q15 4 31 4z" />
    <glyph glyph-name="at" unicode="@" horiz-adv-x="671" 
d="M69 -10v332q0 90 69 136t226 46q126 0 182 -42.5t56 -126.5v-333q-14 -4 -30 -4l-30 4v44q-7 -6 -20.5 -14t-61.5 -22t-103 -14q-71 0 -102.5 32.5t-31.5 97.5v21q0 60 41 92t136 42l142 16v38q0 65 -40.5 96t-137.5 31q-130 0 -182.5 -33.5t-52.5 -106.5v-332
q0 -85 47 -118.5t169 -33.5q69 0 130.5 11.5t88.5 21.5t27 12q5 -8 5 -22l-5 -22q-9 -5 -27 -12t-82 -19t-137 -12q-149 0 -212.5 47t-63.5 147zM542 255l-133 -15q-69 -7 -97.5 -29.5t-28.5 -63.5v-21q0 -45 21 -66.5t72 -21.5q54 0 95.5 14t56.5 28l14 13v162z" />
    <glyph glyph-name="A" unicode="A" horiz-adv-x="596" 
d="M27 2l229 695q19 5 42 5l42 -5l229 -695q-16 -4 -30 -4l-32 4l-65 197h-288l-65 -197q-16 -4 -32 -4zM298 646l-132 -402h264z" />
    <glyph glyph-name="B" unicode="B" horiz-adv-x="570" 
d="M69 4v692q90 7 217 7q112 0 163.5 -41.5t51.5 -121.5v-40q0 -111 -110 -140q124 -29 124 -145v-52q0 -167 -229 -167q-56 0 -110.5 2t-80.5 4zM131 337v-296h155q90 0 128 29.5t38 92.5v52q0 63 -38 92.5t-128 29.5h-155zM131 659v-278h155q83 0 118 29t35 90v40
q0 61 -35 90t-118 29h-155z" />
    <glyph glyph-name="C" unicode="C" horiz-adv-x="588" 
d="M67 155v390q0 79 54.5 119t177.5 40t175.5 -40t52.5 -119v-14q-14 -4 -29 -4l-28 4v14q0 59 -38 86.5t-133 27.5q-93 0 -131 -27.5t-38 -86.5v-390q0 -60 39 -87t136 -27q60 0 112.5 11t74.5 22l23 11q5 -8 5 -23l-5 -23q-8 -5 -23 -12t-69 -19t-118 -12q-126 0 -182 40
t-56 119z" />
    <glyph glyph-name="D" unicode="D" horiz-adv-x="594" 
d="M69 696q86 7 218 7q125 0 182 -40t57 -118v-390q0 -159 -239 -159q-59 0 -113.5 2t-79.5 4l-25 2v692zM131 659v-618h156q96 0 136.5 27.5t40.5 86.5v390q0 59 -41 86.5t-136 27.5h-156z" />
    <glyph glyph-name="E" unicode="E" horiz-adv-x="524" 
d="M131 337v-292h347q4 -9 4 -23l-4 -22h-214q-52 0 -101 1.5t-71 2.5l-23 2v687q77 7 195 7h209q4 -9 4 -23l-4 -22h-342v-273h309q4 -9 4 -22l-4 -23h-309z" />
    <glyph glyph-name="F" unicode="F" horiz-adv-x="511" 
d="M131 337v-335q-15 -4 -31 -4l-31 4v691q77 7 195 7h201q4 -9 4 -23l-4 -22h-334v-273h300q4 -9 4 -22l-4 -23h-300z" />
    <glyph glyph-name="G" unicode="G" horiz-adv-x="599" 
d="M530 356v-317q-10 -5 -29 -12t-79 -19t-121 -12q-234 0 -234 159v390q0 79 55 119t179 40t176.5 -40t52.5 -119v-14q-14 -4 -29 -4l-29 4v14q0 59 -38 86.5t-133 27.5t-133 -27.5t-38 -86.5v-390q0 -59 39 -86.5t132 -27.5q46 0 88.5 7.5t61.5 15.5l19 7v246h-156
q-4 9 -4 23l4 22h46q46 0 88.5 -1.5t61.5 -2.5z" />
    <glyph glyph-name="H" unicode="H" horiz-adv-x="613" 
d="M545 697v-695q-16 -4 -32 -4l-31 4v334h-351v-334q-15 -4 -31 -4l-31 4v695q14 5 31 5l31 -5v-316h351v316q15 5 31 5z" />
    <glyph glyph-name="I" unicode="I" horiz-adv-x="305" 
d="M42 45h79v610h-79q-4 9 -4 22l4 23h221q4 -9 4 -23l-4 -22h-79v-610h79q4 -9 4 -23l-4 -22h-221q-4 9 -4 22z" />
    <glyph glyph-name="J" unicode="J" horiz-adv-x="470" 
d="M401 697v-542q0 -79 -45.5 -119t-148.5 -40q-48 0 -87.5 11t-55.5 21l-16 11q-4 9 -4 23l4 23q6 -5 18.5 -12.5t54 -19.5t86.5 -12q73 0 102.5 27t29.5 87v542q14 5 31 5z" />
    <glyph glyph-name="K" unicode="K" horiz-adv-x="523" 
d="M430 2l-215 338l-84 -24v-314q-16 -4 -31 -4l-31 4v695q14 5 31 5l31 -5v-334l84 24l206 310q17 5 35 5l33 -5l-220 -334l229 -361q-16 -4 -34 -4z" />
    <glyph glyph-name="L" unicode="L" horiz-adv-x="487" 
d="M131 697v-652h317q4 -9 4 -23l-4 -22h-184q-52 0 -101 1.5t-71 2.5l-23 2v691q14 5 31 5z" />
    <glyph glyph-name="M" unicode="M" horiz-adv-x="755" 
d="M687 698v-695q-15 -5 -30 -5l-30 5v597l-221 -480q-13 -4 -29 -4l-31 4l-217 479v-597q-15 -5 -30 -5l-30 5v695q18 4 39 4l39 -4l229 -502l232 503q18 4 39 4z" />
    <glyph glyph-name="N" unicode="N" horiz-adv-x="616" 
d="M69 2v695q13 5 27 5l28 -5l363 -581v581q14 5 30 5l30 -5v-695q-13 -4 -27 -4l-28 4l-363 582v-582q-15 -4 -30 -4z" />
    <glyph glyph-name="O" unicode="O" horiz-adv-x="612" 
d="M67 155v390q0 159 239 159t239 -159v-390q0 -159 -239 -159t-239 159zM130 545v-390q0 -59 40.5 -86.5t135.5 -27.5t135.5 27.5t40.5 86.5v390q0 59 -40.5 86.5t-135.5 27.5t-135.5 -27.5t-40.5 -86.5z" />
    <glyph glyph-name="P" unicode="P" horiz-adv-x="565" 
d="M69 696q82 7 208 7q117 0 170.5 -40t53.5 -118v-74q0 -78 -53.5 -118t-170.5 -40l-146 4v-315q-16 -4 -31 -4l-31 4v694zM131 659v-302h146q87 0 124.5 27.5t37.5 86.5v74q0 59 -37.5 86.5t-124.5 27.5h-146z" />
    <glyph glyph-name="Q" unicode="Q" horiz-adv-x="612" 
d="M434 -173l-92 170q-6 0 -18 -0.5t-18 -0.5q-239 0 -239 159v390q0 159 239 159t239 -159v-390q0 -126 -148 -152l102 -176q-15 -4 -32 -4zM130 545v-390q0 -59 40.5 -86.5t135.5 -27.5t135.5 27.5t40.5 86.5v390q0 59 -40.5 86.5t-135.5 27.5t-135.5 -27.5t-40.5 -86.5z
" />
    <glyph glyph-name="R" unicode="R" horiz-adv-x="569" 
d="M458 2l-172 311h-9l-146 4v-315q-16 -4 -31 -4l-31 4v694q82 7 208 7q117 0 170.5 -40t53.5 -118v-74q0 -131 -153 -154l176 -315q-15 -4 -33 -4zM131 659v-302h146q87 0 124.5 27.5t37.5 86.5v74q0 59 -37.5 86.5t-124.5 27.5h-146z" />
    <glyph glyph-name="S" unicode="S" horiz-adv-x="558" 
d="M121 545v-51q0 -36 28 -60.5t70 -36t91 -26.5t91 -31t70 -50.5t28 -83.5v-51q0 -79 -52 -119t-171 -40q-121 0 -171.5 39.5t-50.5 119.5v14q15 4 30 4l31 -4v-14q0 -59 36.5 -86.5t124.5 -27.5t124.5 27.5t36.5 86.5v51q0 39 -28 65t-70 38.5t-91 27t-91 29.5t-70 48
t-28 80v51q0 79 51 119t167 40q117 0 165 -39.5t48 -119.5v-14q-14 -4 -30 -4l-31 4v14q0 59 -34.5 86.5t-117.5 27.5q-85 0 -120.5 -27.5t-35.5 -86.5z" />
    <glyph glyph-name="T" unicode="T" horiz-adv-x="553" 
d="M510 655h-203v-653q-15 -4 -31 -4l-31 4v653h-207q-4 9 -4 22l4 23h472q4 -9 4 -23z" />
    <glyph glyph-name="U" unicode="U" horiz-adv-x="606" 
d="M538 697v-542q0 -159 -235 -159q-234 0 -234 159v542q14 5 31 5l31 -5v-542q0 -59 39.5 -86.5t132.5 -27.5t132.5 27.5t39.5 86.5v542q15 5 31 5z" />
    <glyph glyph-name="V" unicode="V" horiz-adv-x="596" 
d="M256 2l-229 695q15 5 30 5l32 -5l209 -642l209 642q16 5 32 5l30 -5l-229 -695q-19 -4 -42 -4z" />
    <glyph glyph-name="W" unicode="W" horiz-adv-x="935" 
d="M631 2l-164 633l-162 -633q-20 -4 -43 -4l-42 4l-190 695q15 5 31 5l32 -5l171 -637l165 637q16 5 38 5l39 -5l166 -637l171 637q16 5 31 5l31 -5l-189 -695q-20 -4 -43 -4z" />
    <glyph glyph-name="X" unicode="X" horiz-adv-x="562" 
d="M470 2l-189 313l-188 -313q-19 -4 -35 -4l-34 4l216 352l-210 343q17 5 34 5l35 -5l182 -304l182 304q18 5 35 5l34 -5l-209 -343l215 -352q-18 -4 -35 -4z" />
    <glyph glyph-name="Y" unicode="Y" horiz-adv-x="562" 
d="M532 697l-220 -395v-300q-15 -4 -31 -4l-31 4v300l-220 395q17 5 34 5l35 -5l182 -336l182 336q18 5 35 5z" />
    <glyph glyph-name="Z" unicode="Z" horiz-adv-x="552" 
d="M499 655l-377 -609h377q4 -9 4 -23l-4 -23h-446q-4 9 -4 22l4 23l376 608h-376q-4 10 -4 24l4 23h446q4 -9 4 -23z" />
    <glyph glyph-name="bracketleft" unicode="[" horiz-adv-x="306" 
d="M69 -151v902l192 -4q3 -8 3 -20l-3 -20q-54 -4 -136 -4v-806l136 -4q3 -8 3 -20l-3 -19q-76 -5 -192 -5z" />
    <glyph glyph-name="backslash" unicode="\" horiz-adv-x="391" 
d="M292 -98l-251 845q14 5 30 5l29 -5l251 -845q-14 -4 -29 -4z" />
    <glyph glyph-name="bracketright" unicode="]" horiz-adv-x="306" 
d="M238 751v-902l-192 5q-4 8 -4 19l4 20q53 4 135 4v806l-135 4q-4 9 -4 20l4 20q75 4 192 4z" />
    <glyph glyph-name="asciicircum" unicode="^" horiz-adv-x="441" 
d="M220 703l178 -178q-3 -9 -12 -18l-18 -12l-148 148l-149 -148q-9 3 -18 12l-12 18z" />
    <glyph glyph-name="underscore" unicode="_" horiz-adv-x="500" 
d="M500 -93h-500v43h500v-43z" />
    <glyph glyph-name="grave" unicode="`" horiz-adv-x="197" 
d="M139 575l-125 122q15 5 30 5l30 -5l109 -122q-10 -4 -22 -4z" />
    <glyph glyph-name="a" unicode="a" horiz-adv-x="516" 
d="M387 2v44q-7 -6 -20.5 -14t-61.5 -22t-103 -14q-71 0 -103 33t-32 97v17q0 60 41.5 92.5t136.5 42.5l142 15v62q0 55 -29 81t-99 26q-69 0 -97.5 -26t-28.5 -80v-13q-13 -4 -28 -4l-29 4v13q0 74 41.5 111t141.5 37t144 -37.5t44 -111.5v-353q-14 -4 -30 -4zM387 251
l-134 -14q-69 -8 -97.5 -30.5t-28.5 -63.5v-17q0 -45 21 -66.5t73 -21.5q53 0 94.5 14t56.5 28l15 13v158z" />
    <glyph glyph-name="b" unicode="b" horiz-adv-x="519" 
d="M129 46v-44q-15 -4 -30 -4l-30 4v695q14 5 30 5l30 -5v-247q1 3 4.5 7.5t15 13.5t27.5 15.5t44.5 12t63.5 5.5q88 0 127.5 -39t39.5 -114v-202q0 -76 -34 -114.5t-111 -38.5q-52 0 -96 12.5t-62 25.5zM391 149v202q0 58 -26 84.5t-91 26.5q-79 0 -112 -27t-33 -84v-258
q5 -6 15.5 -15t51.5 -24.5t93 -15.5q57 0 79.5 26.5t22.5 84.5z" />
    <glyph glyph-name="c" unicode="c" horiz-adv-x="500" 
d="M67 149v202q0 76 44.5 114.5t144.5 38.5t142.5 -38.5t42.5 -114.5v-14q-13 -4 -27 -4l-28 4v14q0 58 -29 84.5t-101 26.5q-71 0 -100 -26.5t-29 -84.5v-202q0 -58 31 -84.5t108 -26.5q46 0 87 9t59 19l17 9q5 -8 5 -22l-5 -21q-6 -4 -18 -10t-54.5 -16t-91.5 -10
q-105 0 -151.5 38.5t-46.5 114.5z" />
    <glyph glyph-name="d" unicode="d" horiz-adv-x="519" 
d="M390 2v44q-7 -6 -20 -14t-59.5 -22t-98.5 -14q-77 0 -111 38.5t-34 114.5v202q0 76 39.5 114.5t128.5 38.5q36 0 65.5 -5.5t45.5 -13.5t26.5 -16t13.5 -13l4 -6v247q14 5 30 5l30 -5v-695q-14 -4 -30 -4zM127 351v-202q0 -57 23 -84t79 -27q52 0 92.5 14t54.5 28l14 13
v258q0 57 -33.5 84t-112.5 27q-65 0 -91 -26.5t-26 -84.5z" />
    <glyph glyph-name="e" unicode="e" 
d="M67 149v202q0 76 46 114.5t149 38.5q105 0 149 -38.5t44 -114.5v-112q-63 -8 -164 -8h-164v-82q0 -58 32.5 -84.5t111.5 -26.5q48 0 91 9t62 19l19 9q4 -8 4 -22l-4 -21q-6 -4 -18.5 -10t-57 -16t-96.5 -10q-108 0 -156 38.5t-48 114.5zM127 274h270v77q0 58 -30 84.5
t-105 26.5q-74 0 -104.5 -27t-30.5 -84v-77z" />
    <glyph glyph-name="f" unicode="f" horiz-adv-x="357" 
d="M323 460h-154v-457q-14 -5 -30 -5l-30 5v457h-55q-4 8 -4 21l4 21h55v67q0 66 32 100.5t104 34.5q41 0 78 -10q3 -9 3 -20l-3 -21q-25 9 -60 9q-52 0 -73 -22.5t-21 -70.5v-67h154q4 -8 4 -21z" />
    <glyph glyph-name="g" unicode="g" horiz-adv-x="519" 
d="M390 -51v98q-34 -51 -155 -51q-89 0 -128.5 38.5t-39.5 114.5v202q0 76 34 114.5t111 38.5q52 0 96.5 -13t63.5 -25l18 -13v44q14 5 30 5l30 -5v-548q0 -76 -48 -114.5t-156 -38.5q-45 0 -85 6t-57 12l-18 6q-5 8 -5 21l5 22q63 -25 160 -25q79 0 111.5 26.5t32.5 84.5z
M127 351v-202q0 -58 26 -84.5t91 -26.5q79 0 112.5 27t33.5 84v258q-5 6 -15.5 15t-52 24.5t-93.5 15.5q-56 0 -79 -27t-23 -84z" />
    <glyph glyph-name="h" unicode="h" 
d="M129 697v-244q7 6 20.5 14.5t60 22.5t99.5 14q78 0 112 -38.5t34 -114.5v-349q-14 -4 -30 -4l-30 4v349q0 58 -23.5 84.5t-80.5 26.5q-52 0 -92.5 -14t-54.5 -28l-15 -13v-405q-15 -4 -30 -4l-30 4v695q14 5 30 5z" />
    <glyph glyph-name="i" unicode="i" horiz-adv-x="197" 
d="M129 497v-495q-15 -4 -30 -4l-30 4v495q14 5 30 5zM129 697v-100q-15 -4 -30 -4l-30 4v100q14 5 30 5z" />
    <glyph glyph-name="j" unicode="j" horiz-adv-x="211" 
d="M82 -76v573q15 5 30 5l30 -5v-573q0 -64 -28.5 -96t-92.5 -32q-36 0 -74 10q-3 9 -3 20l3 21q25 -9 57 -9q43 0 60.5 20.5t17.5 65.5zM142 697v-100q-15 -4 -30 -4l-30 4v100q15 5 30 5z" />
    <glyph glyph-name="k" unicode="k" horiz-adv-x="443" 
d="M353 2l-159 239l-65 -23v-216q-15 -4 -30 -4l-30 4v695q14 5 30 5l30 -5v-435l65 23l150 212q16 5 33 5l32 -5l-165 -234l174 -261q-15 -4 -32 -4z" />
    <glyph glyph-name="l" unicode="l" horiz-adv-x="237" 
d="M179 38q13 0 25 3q3 -9 3 -20l-3 -19q-24 -6 -43 -6q-92 0 -92 101v600q14 5 30 5l30 -5v-600q0 -30 11 -44.5t39 -14.5z" />
    <glyph glyph-name="m" unicode="m" horiz-adv-x="789" 
d="M69 2v495q14 5 30 5l30 -5v-44q2 2 6.5 5.5t19.5 12.5t32.5 15.5t45.5 12t58 5.5q93 0 119 -58q7 6 20.5 16t59 26t97.5 16q71 0 102.5 -35.5t31.5 -106.5v-360q-14 -4 -30 -4l-30 4v360q0 52 -20.5 76t-71.5 24q-42 0 -76.5 -12.5t-47.5 -23t-20 -19.5v-405
q-14 -4 -30 -4l-30 4v360q0 52 -20.5 76t-71.5 24q-47 0 -83 -14t-48 -28l-13 -13v-405q-15 -4 -30 -4z" />
    <glyph glyph-name="n" unicode="n" horiz-adv-x="526" 
d="M129 497v-44q7 6 20.5 14.5t60.5 22.5t101 14q78 0 113 -38.5t35 -114.5v-349q-15 -4 -30 -4l-30 4v349q0 58 -23.5 84.5t-81.5 26.5q-53 0 -94.5 -14t-55.5 -28l-15 -13v-405q-15 -4 -30 -4l-30 4v495q14 5 30 5z" />
    <glyph glyph-name="o" unicode="o" horiz-adv-x="532" 
d="M67 149v202q0 153 199 153t199 -153v-202q0 -153 -199 -153t-199 153zM127 351v-202q0 -57 32 -84t107 -27t107 27t32 84v202q0 57 -32 84t-107 27t-107 -27t-32 -84z" />
    <glyph glyph-name="p" unicode="p" horiz-adv-x="519" 
d="M129 497v-44q7 6 20 14.5t59 22.5t98 14q77 0 111 -38.5t34 -114.5v-202q0 -75 -39.5 -114t-127.5 -39q-55 0 -93 12.5t-48.5 22.5t-13.5 17v-246q-15 -4 -30 -4l-30 4v695q14 5 30 5zM391 149v202q0 58 -22.5 84.5t-79.5 26.5q-52 0 -92 -14t-54 -28l-14 -13v-258
q0 -57 33 -84t112 -27q65 0 91 26.5t26 84.5z" />
    <glyph glyph-name="q" unicode="q" horiz-adv-x="519" 
d="M390 453v44q14 5 30 5l30 -5v-695q-14 -4 -30 -4l-30 4v247l-1 -1q-38 -51 -154 -52q-89 0 -128.5 38.5t-39.5 114.5v202q0 76 34 114.5t111 38.5q52 0 96.5 -13t63.5 -25zM127 351v-202q0 -58 26 -84.5t91 -26.5q79 0 112.5 27t33.5 84v258q-5 6 -15.5 15t-52 24.5
t-93.5 15.5q-56 0 -79 -27t-23 -84z" />
    <glyph glyph-name="r" unicode="r" horiz-adv-x="360" 
d="M129 497v-64l7.5 7.5t22 17t37.5 22t52.5 17t67.5 7.5q4 -9 4 -22l-4 -22q-37 0 -70 -9.5t-53.5 -22.5t-35.5 -26t-21 -22l-7 -10v-368q-15 -4 -30 -4l-30 4v495q14 5 30 5z" />
    <glyph glyph-name="s" unicode="s" horiz-adv-x="493" 
d="M121 367v-20q0 -30 31 -45t92 -27q40 -8 66.5 -15t58 -21t47.5 -35.5t16 -51.5v-20q0 -68 -44 -102.5t-144 -34.5q-102 0 -145 37t-43 111v6q14 4 30 4l29 -4v-6q0 -54 29 -80t99 -26t99.5 23.5t29.5 71.5v20q0 33 -34 50t-94 28q-31 6 -51 10.5t-47.5 14.5t-43.5 21.5
t-28 29.5t-12 41v20q0 68 42.5 102.5t139.5 34.5q98 0 138.5 -37t40.5 -111v-6q-14 -4 -29 -4l-30 4v6q0 54 -27.5 80t-92.5 26q-67 0 -95 -23.5t-28 -71.5z" />
    <glyph glyph-name="t" unicode="t" horiz-adv-x="382" 
d="M313 457h-152v-326q0 -48 21.5 -70.5t73.5 -22.5q29 0 57 10q3 -9 3 -20l-3 -20q-45 -12 -74 -12q-73 0 -105.5 34t-32.5 101v326h-55q-4 9 -4 22l4 21h58l5 97q12 5 26 5l26 -5v-97h152q4 -9 4 -21z" />
    <glyph glyph-name="u" unicode="u" 
d="M395 2v44q-7 -6 -20.5 -14t-60 -22t-99.5 -14q-78 0 -112 38.5t-34 114.5v348q14 5 30 5l30 -5v-348q0 -58 23 -84.5t80 -26.5q52 0 93 14t55 28l15 13v404q15 5 30 5l30 -5v-495q-14 -4 -30 -4z" />
    <glyph glyph-name="v" unicode="v" horiz-adv-x="496" 
d="M208 2l-181 495q14 5 29 5l30 -5l162 -446l161 446q16 5 31 5l29 -5l-181 -495q-18 -4 -40 -4z" />
    <glyph glyph-name="w" unicode="w" horiz-adv-x="777" 
d="M516 2l-128 435l-126 -435q-18 -4 -40 -4l-40 4l-152 495q15 5 29 5l31 -5l134 -444l129 444q15 5 35 5l37 -5l129 -444l134 444q15 5 30 5l30 -5l-152 -495q-19 -4 -40 -4z" />
    <glyph glyph-name="x" unicode="x" horiz-adv-x="476" 
d="M388 2l-150 215l-150 -215q-17 -4 -32 -4l-32 4l177 252l-171 243q16 5 31 5l33 -5l144 -206l143 206q17 5 33 5l32 -5l-171 -243l177 -252q-17 -4 -32 -4z" />
    <glyph glyph-name="y" unicode="y" horiz-adv-x="506" 
d="M210 -78l30 77l-18 3l-185 495q15 5 30 5l30 -5l162 -442l161 442q15 5 30 5l30 -5l-215 -573q-24 -66 -57.5 -97t-90.5 -31q-13 0 -24.5 1.5t-16.5 2.5l-6 2q-5 8 -5 21l5 20q16 -5 46 -5q35 0 56.5 20.5t37.5 63.5z" />
    <glyph glyph-name="z" unicode="z" horiz-adv-x="472" 
d="M419 457l-300 -413h300q4 -9 4 -22l-4 -22h-366q-4 8 -4 21l4 21l300 414h-300q-4 9 -4 22l4 22h366q4 -9 4 -21z" />
    <glyph glyph-name="braceleft" unicode="{" horiz-adv-x="375" 
d="M332 709q-63 0 -89.5 -27t-26.5 -84v-165q0 -102 -74 -133q74 -31 74 -131v-166q0 -57 26.5 -83.5t89.5 -26.5q4 -9 4 -21l-4 -22q-173 0 -173 153v166q0 57 -26.5 84t-89.5 27q-4 8 -4 21l4 21q63 0 89.5 27t26.5 84v165q0 153 173 153q4 -8 4 -21z" />
    <glyph glyph-name="bar" unicode="|" horiz-adv-x="187" 
d="M119 747v-845q-13 -4 -25 -4l-25 4v845q11 5 25 5z" />
    <glyph glyph-name="braceright" unicode="}" horiz-adv-x="375" 
d="M43 709q-4 8 -4 21l4 21q173 0 173 -153v-165q0 -57 26.5 -84t89.5 -27q4 -9 4 -21l-4 -21q-63 0 -89.5 -27t-26.5 -84v-166q0 -153 -173 -153q-4 9 -4 22l4 21q63 0 89.5 26.5t26.5 83.5v166q0 100 74 131q-74 31 -74 133v165q0 57 -26.5 84t-89.5 27z" />
    <glyph glyph-name="asciitilde" unicode="~" horiz-adv-x="433" 
d="M50 256v5q0 50 19 73.5t66 23.5q36 0 61.5 -16.5t46 -33t43.5 -16.5q29 0 41.5 14t12.5 43v5q10 4 22 4l21 -4v-5q0 -50 -18.5 -73.5t-65.5 -23.5q-36 0 -62 16.5t-46.5 33t-42.5 16.5q-29 0 -41.5 -13.5t-12.5 -43.5v-5q-11 -4 -22 -4z" />
    <glyph glyph-name="exclamdown" unicode="&#xa1;" horiz-adv-x="197" 
d="M67 405v92q16 5 32 5l31 -5v-92q-15 -4 -31 -4zM69 -198v490q15 5 30 5l30 -5v-490q-15 -4 -30 -4z" />
    <glyph glyph-name="cent" unicode="&#xa2;" horiz-adv-x="500" 
d="M67 149v202q0 71 39 109t126 43v94q12 5 25 5l25 -5v-94q85 -5 122 -43.5t37 -108.5v-14q-13 -4 -27 -4l-28 4v14q0 58 -29 84.5t-101 26.5q-71 0 -100 -26.5t-29 -84.5v-202q0 -58 31 -84.5t108 -26.5q46 0 87 9t59 19l17 9q5 -8 5 -22l-5 -21q-46 -32 -147 -36v-94
q-13 -4 -25 -4l-25 4v96q-87 5 -126 43t-39 108z" />
    <glyph glyph-name="sterling" unicode="&#xa3;" horiz-adv-x="588" 
d="M366 311h-195v-266h344q4 -9 4 -23l-4 -22h-470q-4 9 -4 22l4 23h64v266h-64q-4 8 -4 21l4 22h64v191q0 79 48.5 119t158.5 40t157 -40t47 -119v-14q-14 -4 -29 -4l-29 4v14q0 59 -32.5 86.5t-113.5 27.5q-80 0 -112.5 -27.5t-32.5 -86.5v-191h195q4 -9 4 -22z" />
    <glyph glyph-name="currency" unicode="&#xa4;" horiz-adv-x="401" 
d="M77 300v28q0 41 17 65l-63 63q3 9 12 18l18 12l66 -67q28 19 73 19q46 0 73 -19l67 67q9 -3 18 -12l12 -18l-64 -63q18 -24 18 -65v-28q0 -37 -16 -62l62 -61q-3 -9 -12 -18l-18 -12l-63 62q-29 -19 -77 -19t-77 19l-62 -62q-9 3 -18 12l-12 18l61 61q-15 26 -15 62z
M118 328v-28q0 -37 19 -54.5t63 -17.5t63.5 17.5t19.5 54.5v28q0 37 -19.5 54t-63.5 17t-63 -17t-19 -54z" />
    <glyph glyph-name="yen" unicode="&#xa5;" horiz-adv-x="562" 
d="M455 124h-143v-122q-15 -4 -31 -4l-31 4v122h-143q-4 9 -4 22l4 21h143v92h-142q-4 8 -4 21l4 21h142v1l-220 395q17 5 34 5l35 -5l182 -336l182 336q18 5 35 5l34 -5l-220 -395v-1h144q4 -8 4 -21l-4 -21h-144v-92h143q4 -9 4 -21z" />
    <glyph glyph-name="brokenbar" unicode="&#xa6;" horiz-adv-x="187" 
d="M119 747v-370q-13 -4 -25 -4l-25 4v370q11 5 25 5zM119 272v-370q-13 -4 -25 -4l-25 4v370q11 5 25 5z" />
    <glyph glyph-name="section" unicode="&#xa7;" horiz-adv-x="558" 
d="M499 211q0 -85 -63 -122q63 -41 63 -113v-25q0 -78 -52 -116.5t-171 -38.5q-121 0 -171.5 39t-50.5 116v14q14 4 29 4l29 -4v-14q0 -59 37 -86t127 -27t126.5 27t36.5 86v25q0 34 -21 57.5t-54.5 37t-74 24.5t-81 23.5t-74 29t-54.5 46t-21 70.5v25q0 87 65 124
q-65 40 -65 111v25q0 77 51 116t167 39q117 0 165 -38.5t48 -116.5v-14q-14 -5 -29 -5l-29 5v14q0 58 -35 85.5t-120 27.5q-87 0 -122.5 -27.5t-35.5 -85.5v-25q0 -31 21 -53.5t54.5 -35t74 -23.5t81 -23.5t74 -30t54.5 -48.5t21 -74v-25zM439 236q0 30 -16 52t-45.5 36
t-59 22.5t-71 19.5t-66.5 21q-62 -23 -62 -98v-25q0 -36 28 -60.5t63.5 -34.5t89.5 -25t84 -29q55 25 55 96v25z" />
    <glyph glyph-name="dieresis" unicode="&#xa8;" horiz-adv-x="405" 
d="M122 697v-96q-11 -4 -25 -4l-25 4v96q11 5 25 5zM332 697v-96q-11 -4 -25 -4l-25 4v96q11 5 25 5z" />
    <glyph glyph-name="copyright" unicode="&#xa9;" horiz-adv-x="811" 
d="M67 240v220q0 120 81 182t257 62t256.5 -62t80.5 -182v-220q0 -120 -80.5 -182t-256.5 -62t-257 62t-81 182zM125 460v-220q0 -104 64 -153t216 -49t216 49t64 153v220q0 104 -64 153t-216 49t-216 -49t-64 -153zM289 258v187q0 42 28 63t91 21t88.5 -20.5t25.5 -63.5v-6
q-9 -3 -18 -3l-20 3v6q0 29 -17 42.5t-59 13.5q-43 0 -60 -13.5t-17 -42.5v-187q0 -29 18 -42t63 -13q29 0 54.5 5.5t37.5 11.5l11 5q3 -5 3 -14l-3 -16q-35 -21 -104 -21q-122 0 -122 84z" />
    <glyph glyph-name="ordfeminine" unicode="&#xaa;" horiz-adv-x="378" 
d="M276 351v30q-44 -34 -127 -34q-50 0 -72.5 23t-22.5 69v12q0 42 29.5 64.5t95.5 29.5l97 11v42q0 37 -19.5 54.5t-66.5 17.5t-66 -17.5t-19 -54.5v-8q-10 -3 -23 -3l-22 3v8q0 53 29.5 79t100.5 26t102 -26.5t31 -78.5v-247q-12 -3 -24 -3zM276 524l-90 -10
q-46 -5 -65 -20.5t-19 -42.5v-12q0 -31 14 -45t49 -14q36 0 63.5 9t37.5 18l10 9v108z" />
    <glyph glyph-name="guillemotleft" unicode="&#xab;" horiz-adv-x="459" 
d="M43 270l178 178q9 -3 18 -12l12 -18l-148 -148l148 -148q-3 -9 -12 -18l-18 -12zM208 270l178 178q9 -3 18 -12l12 -18l-148 -148l148 -148q-3 -9 -12 -18l-18 -12z" />
    <glyph glyph-name="logicalnot" unicode="&#xac;" horiz-adv-x="403" 
d="M309 230v92h-263q-4 9 -4 22l4 21h120q52 0 101 -1.5t71 -3.5l23 -2v-128q-12 -4 -26 -4z" />
    <glyph glyph-name="uni00AD" unicode="&#xad;" horiz-adv-x="297" 
d="M250 265h-204q-4 8 -4 21l4 21h204q4 -8 4 -21z" />
    <glyph glyph-name="registered" unicode="&#xae;" horiz-adv-x="811" 
d="M67 240v220q0 120 81 182t257 62t256.5 -62t80.5 -182v-220q0 -120 -80.5 -182t-256.5 -62t-257 62t-81 182zM125 460v-220q0 -104 64 -153t216 -49t216 49t64 153v220q0 104 -64 153t-216 49t-216 -49t-64 -153zM491 176l-82 151h-2l-66 2v-153q-11 -2 -21 -2l-21 2v347
q43 4 108 4q115 0 115 -84v-33q0 -67 -72 -80l85 -154q-11 -2 -22 -2zM341 499v-143h66q40 0 57 13t17 41v33q0 29 -17 42.5t-57 13.5h-66z" />
    <glyph glyph-name="macron" unicode="&#xaf;" horiz-adv-x="202" 
d="M218 606h-234q-4 7 -4 18l4 17h234q4 -7 4 -17z" />
    <glyph glyph-name="degree" unicode="&#xb0;" horiz-adv-x="310" 
d="M60 589v19q0 95 106 95t106 -95v-19q0 -95 -106 -95t-106 95zM95 608v-19q0 -32 16.5 -47t54.5 -15t54.5 15t16.5 47v19q0 32 -16.5 47t-54.5 15t-54.5 -15t-16.5 -47z" />
    <glyph glyph-name="plusminus" unicode="&#xb1;" horiz-adv-x="415" 
d="M229 497v-140h140q4 -8 4 -21l-4 -21h-140v-140q-8 -4 -22 -4l-21 4v140h-140q-4 8 -4 21l4 21h140v140q8 4 21 4zM369 89h-323q-4 8 -4 20l4 21h323q4 -9 4 -21z" />
    <glyph glyph-name="twosuperior" unicode="&#xb2;" horiz-adv-x="300" 
d="M220 595v23q0 30 -16 43.5t-55 13.5t-55 -13.5t-16 -43.5v-6q-10 -3 -20 -3l-19 3v6q0 43 24.5 63.5t85.5 20.5q59 0 85 -21t26 -63v-23q0 -34 -18.5 -57t-45 -35t-52.5 -23t-44.5 -30.5t-18.5 -48.5v-24h176q3 -5 3 -14l-3 -13h-115l-100 4v47q0 43 28 69.5t61 37t61 32
t28 55.5z" />
    <glyph glyph-name="threesuperior" unicode="&#xb3;" horiz-adv-x="298" 
d="M45 672q-3 5 -3 14l3 14h204q2 -5 2 -14l-2 -13l-102 -122q66 0 89.5 -22t23.5 -63v-33q0 -86 -119 -86q-29 0 -54 5.5t-35 10.5l-11 5q-3 6 -3 14q0 4 1 7.5t1 5.5l1 2q0 -1 11 -6.5t35.5 -11t52.5 -5.5q44 0 62 14t18 45v33q0 30 -19 44t-63 14h-32q-2 6 -2 14l2 14
l99 120h-160z" />
    <glyph glyph-name="acute" unicode="&#xb4;" horiz-adv-x="197" 
d="M183 697l-124 -122q-12 -4 -23 -4l-22 4l109 122q14 5 30 5z" />
    <glyph glyph-name="mu" unicode="&#xb5;" 
d="M129 46v-144q-15 -4 -30 -4l-30 4v595q14 5 30 5l30 -5v-404q2 -2 5.5 -6t17.5 -13.5t31 -16.5t46 -13t62 -6q57 0 80.5 26.5t23.5 84.5v348q14 5 30 5l30 -5v-348q0 -76 -34 -114.5t-112 -38.5q-53 0 -98 12.5t-63 25.5z" />
    <glyph glyph-name="paragraph" unicode="&#xb6;" horiz-adv-x="640" 
d="M593 657h-56v-755q-14 -4 -30 -4l-30 4v755h-131v-755q-14 -4 -30 -4l-30 4v411q-117 0 -170.5 40t-53.5 118v70q0 159 224 159h307q4 -9 4 -21z" />
    <glyph glyph-name="periodcentered" unicode="&#xb7;" horiz-adv-x="195" 
d="M128 335v-93q-16 -4 -31 -4l-30 4v93q14 4 30 4z" />
    <glyph glyph-name="cedilla" unicode="&#xb8;" horiz-adv-x="493" 
d="M260 0v-12q0 -15 12.5 -23.5t28 -11.5t28 -13.5t12.5 -29.5v-8q0 -33 -20 -49.5t-67 -16.5q-49 0 -67.5 16.5t-18.5 50.5v5q10 2 19 2l19 -2v-5q0 -22 9.5 -30t38.5 -8q28 0 38.5 8t10.5 29v8q0 11 -13 17.5t-28 9.5t-28 16t-13 35v12h39z" />
    <glyph glyph-name="onesuperior" unicode="&#xb9;" horiz-adv-x="196" 
d="M131 701v-350q-10 -2 -20 -2l-20 2v317l-62 3q-2 6 -2 13l2 14q40 3 102 3z" />
    <glyph glyph-name="ordmasculine" unicode="&#xba;" horiz-adv-x="389" 
d="M54 455v140q0 108 140 108q141 0 141 -108v-140q0 -108 -141 -108q-140 0 -140 108zM102 595v-140q0 -39 21 -57t71 -18q51 0 72.5 18t21.5 57v140q0 39 -21.5 57t-72.5 18q-50 0 -71 -18t-21 -57z" />
    <glyph glyph-name="guillemotright" unicode="&#xbb;" horiz-adv-x="459" 
d="M251 270l-178 -178q-9 3 -18 12l-12 18l148 148l-148 148q3 9 12 18l18 12zM416 270l-178 -178q-9 3 -18 12l-12 18l148 148l-148 148q3 9 12 18l18 12z" />
    <glyph glyph-name="onequarter" unicode="&#xbc;" horiz-adv-x="634" 
d="M559 697l-457 -695q-16 -4 -31 -4l-30 4l457 695q14 5 31 5zM131 701v-350q-10 -2 -20 -2l-20 2v317l-62 3q-2 6 -2 13l2 14q40 3 102 3zM556 249v-137h35q2 -6 2 -14l-2 -14h-33v-83q-10 -2 -20 -2l-19 2v83h-156q-2 5 -2 13l94 252q8 2 20 2l20 -2l-89 -237h113v137
q9 2 19 2z" />
    <glyph glyph-name="onehalf" unicode="&#xbd;" horiz-adv-x="651" 
d="M559 697l-457 -695q-16 -4 -31 -4l-30 4l457 695q14 5 31 5zM131 701v-350q-10 -2 -20 -2l-20 2v317l-62 3q-2 6 -2 13l2 14q40 3 102 3zM585 245v23q0 30 -16 43.5t-55 13.5t-55 -13.5t-16 -43.5v-6q-10 -3 -20 -3l-19 3v6q0 43 24.5 63.5t85.5 20.5q59 0 85 -21t26 -63
v-23q0 -34 -18.5 -57t-44.5 -35t-52.5 -23t-45 -30.5t-18.5 -48.5v-24h176q3 -6 3 -14l-3 -13h-115l-100 4v47q0 43 28 69.5t61 37t61 32t28 55.5z" />
    <glyph glyph-name="threequarters" unicode="&#xbe;" horiz-adv-x="646" 
d="M601 697l-457 -695q-16 -4 -30 -4l-30 4l457 695q13 5 30 5zM45 672q-3 5 -3 14l3 14h204q2 -5 2 -14l-2 -13l-102 -122q66 0 89.5 -22t23.5 -63v-33q0 -86 -119 -86q-29 0 -54 5.5t-35 10.5l-11 5q-3 6 -3 14q0 4 1 7.5t1 5.5l1 2q0 -1 11 -6.5t35.5 -11t52.5 -5.5
q44 0 62 14t18 45v33q0 30 -19 44t-63 14h-32q-2 6 -2 14l2 14l99 120h-160zM584 249v-137h35q2 -6 2 -14l-2 -14h-33v-83q-10 -2 -20 -2l-20 2v83h-155q-3 5 -3 13l95 252q7 2 19 2l20 -2l-89 -237h113v137q9 2 20 2z" />
    <glyph glyph-name="questiondown" unicode="&#xbf;" horiz-adv-x="518" 
d="M118 6v-51q0 -61 32 -89t111 -28q76 0 107.5 28t31.5 89v14q14 4 30 4l29 -4v-14q0 -80 -45 -120t-153 -40t-155 40t-47 120v51q0 41 17.5 69t43 43t51 29t43 37.5t17.5 57.5v50q15 4 30 4l30 -4v-50q0 -42 -18 -71t-43 -44t-50.5 -28.5t-43.5 -36.5t-18 -56zM230 405v92
q16 4 31 4l32 -4v-92q-15 -5 -32 -5z" />
    <glyph glyph-name="Agrave" unicode="&#xc0;" horiz-adv-x="596" 
d="M27 2l229 695q19 5 42 5l42 -5l229 -695q-16 -4 -30 -4l-32 4l-65 197h-288l-65 -197q-16 -4 -32 -4zM298 646l-132 -402h264zM315 752l-124 123q14 4 30 4l30 -4l109 -123q-10 -4 -23 -4z" />
    <glyph glyph-name="Aacute" unicode="&#xc1;" horiz-adv-x="596" 
d="M27 2l229 695q19 5 42 5l42 -5l229 -695q-16 -4 -30 -4l-32 4l-65 197h-288l-65 -197q-16 -4 -32 -4zM298 646l-132 -402h264zM404 875l-124 -123q-12 -4 -23 -4l-22 4l109 123q14 4 30 4z" />
    <glyph glyph-name="Acircumflex" unicode="&#xc2;" horiz-adv-x="596" 
d="M27 2l229 695q19 5 42 5l42 -5l229 -695q-16 -4 -30 -4l-32 4l-65 197h-288l-65 -197q-16 -4 -32 -4zM298 646l-132 -402h264zM385 752l-88 88l-87 -88q-12 -4 -22 -4l-23 4l104 115q13 5 28 5l29 -5l103 -115q-9 -4 -22 -4z" />
    <glyph glyph-name="Atilde" unicode="&#xc3;" horiz-adv-x="596" 
d="M27 2l229 695q19 5 42 5l42 -5l229 -695q-16 -4 -30 -4l-32 4l-65 197h-288l-65 -197q-16 -4 -32 -4zM298 646l-132 -402h264zM152 753v4q0 42 17 62t58 20q39 0 74 -28.5t57 -28.5q25 0 35.5 11.5t10.5 36.5v5q9 4 20 4l19 -4v-5q0 -42 -17 -62t-58 -20q-25 0 -45 9
t-30.5 19.5t-25.5 19.5t-30 9q-26 0 -36 -11t-10 -36v-5q-9 -5 -20 -5z" />
    <glyph glyph-name="Adieresis" unicode="&#xc4;" horiz-adv-x="596" 
d="M27 2l229 695q19 5 42 5l42 -5l229 -695q-16 -4 -30 -4l-32 4l-65 197h-288l-65 -197q-16 -4 -32 -4zM298 646l-132 -402h264zM217 849v-96q-11 -5 -25 -5l-25 5v96q11 4 25 4zM427 849v-96q-11 -5 -25 -5l-25 5v96q11 4 25 4z" />
    <glyph glyph-name="Aring" unicode="&#xc5;" horiz-adv-x="596" 
d="M27 2l229 695q19 5 42 5l42 -5l229 -695q-16 -4 -30 -4l-32 4l-65 197h-288l-65 -197q-16 -4 -32 -4zM298 646l-132 -402h264zM217 811v17q0 67 80 67t80 -67v-17q0 -67 -80 -67t-80 67zM249 828v-17q0 -39 48 -39q49 0 49 39v17q0 39 -49 39q-48 0 -48 -39z" />
    <glyph glyph-name="AE" unicode="&#xc6;" horiz-adv-x="731" 
d="M374 337v-292h310q4 -9 4 -23l-4 -22h-177q-52 0 -101 1.5t-72 2.5l-22 2v193h-158l-65 -197q-16 -4 -32 -4l-30 4l228 693q102 5 252 5h172q4 -9 4 -23l-4 -22h-305v-273h271q4 -9 4 -22l-4 -23h-271zM301 655l-136 -411h147v411h-11z" />
    <glyph glyph-name="Ccedilla" unicode="&#xc7;" horiz-adv-x="588" 
d="M67 155v390q0 79 54.5 119t177.5 40t175.5 -40t52.5 -119v-14q-14 -4 -29 -4l-28 4v14q0 59 -38 86.5t-133 27.5q-93 0 -131 -27.5t-38 -86.5v-390q0 -60 39 -87t136 -27q60 0 112.5 11t74.5 22l23 11q5 -8 5 -23l-5 -23q-7 -5 -21.5 -11.5t-67 -18.5t-112.5 -13v-8
q0 -15 13 -23.5t28 -11.5t28 -13.5t13 -29.5v-8q0 -66 -88 -66q-49 0 -67 16.5t-18 50.5v5q9 2 18 2l19 -2v-5q0 -22 10 -30t38 -8t38.5 8t10.5 29v8q0 11 -12.5 17.5t-28 9.5t-28 16t-12.5 35v9q-111 4 -160 44t-49 114z" />
    <glyph glyph-name="Egrave" unicode="&#xc8;" horiz-adv-x="524" 
d="M131 337v-292h347q4 -9 4 -23l-4 -22h-214q-52 0 -101 1.5t-71 2.5l-23 2v687q77 7 195 7h209q4 -9 4 -23l-4 -22h-342v-273h309q4 -9 4 -22l-4 -23h-309zM297 752l-124 123q14 4 30 4l30 -4l109 -123q-10 -4 -22 -4z" />
    <glyph glyph-name="Eacute" unicode="&#xc9;" horiz-adv-x="524" 
d="M131 337v-292h347q4 -9 4 -23l-4 -22h-214q-52 0 -101 1.5t-71 2.5l-23 2v687q77 7 195 7h209q4 -9 4 -23l-4 -22h-342v-273h309q4 -9 4 -22l-4 -23h-309zM379 875l-125 -123q-11 -4 -22 -4l-22 4l109 123q13 4 30 4z" />
    <glyph glyph-name="Ecircumflex" unicode="&#xca;" horiz-adv-x="524" 
d="M131 337v-292h347q4 -9 4 -23l-4 -22h-214q-52 0 -101 1.5t-71 2.5l-23 2v687q77 7 195 7h209q4 -9 4 -23l-4 -22h-342v-273h309q4 -9 4 -22l-4 -23h-309zM363 752l-87 88l-88 -88q-11 -4 -22 -4l-22 4l103 115q13 5 29 5l29 -5l103 -115q-10 -4 -22 -4z" />
    <glyph glyph-name="Edieresis" unicode="&#xcb;" horiz-adv-x="524" 
d="M131 337v-292h347q4 -9 4 -23l-4 -22h-214q-52 0 -101 1.5t-71 2.5l-23 2v687q77 7 195 7h209q4 -9 4 -23l-4 -22h-342v-273h309q4 -9 4 -22l-4 -23h-309zM196 849v-96q-12 -5 -25 -5l-25 5v96q11 4 25 4zM406 849v-96q-12 -5 -25 -5l-25 5v96q11 4 25 4z" />
    <glyph glyph-name="Igrave" unicode="&#xcc;" horiz-adv-x="305" 
d="M42 45h79v610h-79q-4 9 -4 22l4 23h221q4 -9 4 -23l-4 -22h-79v-610h79q4 -9 4 -23l-4 -22h-221q-4 9 -4 22zM170 752l-124 123q14 4 30 4l30 -4l109 -123q-10 -4 -23 -4z" />
    <glyph glyph-name="Iacute" unicode="&#xcd;" horiz-adv-x="305" 
d="M42 45h79v610h-79q-4 9 -4 22l4 23h221q4 -9 4 -23l-4 -22h-79v-610h79q4 -9 4 -23l-4 -22h-221q-4 9 -4 22zM259 875l-124 -123q-12 -4 -23 -4l-22 4l109 123q14 4 30 4z" />
    <glyph glyph-name="Icircumflex" unicode="&#xce;" horiz-adv-x="305" 
d="M42 45h79v610h-79q-4 9 -4 22l4 23h221q4 -9 4 -23l-4 -22h-79v-610h79q4 -9 4 -23l-4 -22h-221q-4 9 -4 22zM240 752l-88 88l-87 -88q-12 -4 -22 -4l-23 4l104 115q13 5 28 5l29 -5l103 -115q-9 -4 -22 -4z" />
    <glyph glyph-name="Idieresis" unicode="&#xcf;" horiz-adv-x="305" 
d="M90 849v-97q-12 -4 -25 -4l-25 4v97q11 4 25 4zM265 849v-97q-12 -4 -25 -4l-25 4v97q11 4 25 4zM42 45h79v610h-79q-4 9 -4 22l4 23h221q4 -9 4 -23l-4 -22h-79v-610h79q4 -9 4 -23l-4 -22h-221q-4 9 -4 22z" />
    <glyph glyph-name="Eth" unicode="&#xd0;" horiz-adv-x="626" 
d="M101 696q87 7 219 7q125 0 182 -40t57 -118v-390q0 -159 -239 -159q-59 0 -113.5 2t-80.5 4l-25 2v335h-55q-4 8 -4 21l4 21h55v315zM339 339h-175v-298h156q95 0 135.5 27.5t40.5 86.5v390q0 59 -40.5 86.5t-135.5 27.5h-156v-278h175q4 -8 4 -21z" />
    <glyph glyph-name="Ntilde" unicode="&#xd1;" horiz-adv-x="616" 
d="M69 2v695q13 5 27 5l28 -5l363 -581v581q14 5 30 5l30 -5v-695q-13 -4 -27 -4l-28 4l-363 582v-582q-15 -4 -30 -4zM162 753v4q0 42 17 62t58 20q39 0 74 -28.5t57 -28.5q25 0 35.5 11.5t10.5 36.5v5q9 4 20 4l19 -4v-5q0 -42 -17 -62t-58 -20q-25 0 -45 9t-30.5 19.5
t-25.5 19.5t-30 9q-26 0 -36 -11t-10 -36v-5q-9 -5 -20 -5z" />
    <glyph glyph-name="Ograve" unicode="&#xd2;" horiz-adv-x="612" 
d="M67 155v390q0 159 239 159t239 -159v-390q0 -159 -239 -159t-239 159zM130 545v-390q0 -59 40.5 -86.5t135.5 -27.5t135.5 27.5t40.5 86.5v390q0 59 -40.5 86.5t-135.5 27.5t-135.5 -27.5t-40.5 -86.5zM324 752l-125 123q15 4 31 4l29 -4l109 -123q-9 -4 -22 -4z" />
    <glyph glyph-name="Oacute" unicode="&#xd3;" horiz-adv-x="612" 
d="M67 155v390q0 159 239 159t239 -159v-390q0 -159 -239 -159t-239 159zM130 545v-390q0 -59 40.5 -86.5t135.5 -27.5t135.5 27.5t40.5 86.5v390q0 59 -40.5 86.5t-135.5 27.5t-135.5 -27.5t-40.5 -86.5zM413 875l-125 -123q-11 -4 -22 -4l-22 4l109 123q13 4 30 4z" />
    <glyph glyph-name="Ocircumflex" unicode="&#xd4;" horiz-adv-x="612" 
d="M67 155v390q0 159 239 159t239 -159v-390q0 -159 -239 -159t-239 159zM130 545v-390q0 -59 40.5 -86.5t135.5 -27.5t135.5 27.5t40.5 86.5v390q0 59 -40.5 86.5t-135.5 27.5t-135.5 -27.5t-40.5 -86.5zM394 752l-88 88l-87 -88q-12 -4 -23 -4l-22 4l103 115q13 5 29 5
l29 -5l103 -115q-10 -4 -22 -4z" />
    <glyph glyph-name="Otilde" unicode="&#xd5;" horiz-adv-x="612" 
d="M67 155v390q0 159 239 159t239 -159v-390q0 -159 -239 -159t-239 159zM130 545v-390q0 -59 40.5 -86.5t135.5 -27.5t135.5 27.5t40.5 86.5v390q0 59 -40.5 86.5t-135.5 27.5t-135.5 -27.5t-40.5 -86.5zM161 753v4q0 42 17 62t58 20q31 0 53 -14.5t40 -28.5t38 -14
q25 0 35.5 11.5t10.5 36.5v5q9 4 19 4l20 -4v-5q0 -42 -17 -62t-58 -20q-25 0 -45 9t-30.5 19.5t-25.5 19.5t-30 9q-26 0 -36.5 -11t-10.5 -36v-5q-9 -5 -19 -5z" />
    <glyph glyph-name="Odieresis" unicode="&#xd6;" horiz-adv-x="612" 
d="M67 155v390q0 159 239 159t239 -159v-390q0 -159 -239 -159t-239 159zM130 545v-390q0 -59 40.5 -86.5t135.5 -27.5t135.5 27.5t40.5 86.5v390q0 59 -40.5 86.5t-135.5 27.5t-135.5 -27.5t-40.5 -86.5zM226 849v-97q-11 -4 -25 -4l-25 4v97q11 4 25 4zM436 849v-97
q-11 -4 -25 -4l-25 4v97q11 4 25 4z" />
    <glyph glyph-name="multiply" unicode="&#xd7;" horiz-adv-x="415" 
d="M73 465l134 -135l135 135q9 -4 18 -13l12 -17l-135 -135l135 -135q-3 -8 -12 -17l-18 -13l-135 135l-134 -135q-9 4 -18 13l-12 17l134 135l-134 135q3 9 12 17z" />
    <glyph glyph-name="Oslash" unicode="&#xd8;" horiz-adv-x="612" 
d="M562 697l-43 -64q26 -35 26 -88v-390q0 -159 -239 -159q-122 0 -182 40l-22 -34q-14 -4 -26 -4l-27 4l43 65q-25 33 -25 88v390q0 159 239 159q121 0 181 -40l22 33q12 5 27 5zM485 545q0 11 -4 31l-328 -497q39 -40 153 -40q97 0 138 28t41 88v390zM127 545v-390
q0 -16 3 -31l328 496q-40 40 -152 40q-97 0 -138 -28t-41 -87z" />
    <glyph glyph-name="Ugrave" unicode="&#xd9;" horiz-adv-x="606" 
d="M538 697v-542q0 -159 -235 -159q-234 0 -234 159v542q14 5 31 5l31 -5v-542q0 -59 39.5 -86.5t132.5 -27.5t132.5 27.5t39.5 86.5v542q15 5 31 5zM321 752l-125 123q15 4 31 4l29 -4l109 -123q-9 -4 -22 -4z" />
    <glyph glyph-name="Uacute" unicode="&#xda;" horiz-adv-x="606" 
d="M538 697v-542q0 -159 -235 -159q-234 0 -234 159v542q14 5 31 5l31 -5v-542q0 -59 39.5 -86.5t132.5 -27.5t132.5 27.5t39.5 86.5v542q15 5 31 5zM410 875l-125 -123q-11 -4 -22 -4l-22 4l109 123q13 4 30 4z" />
    <glyph glyph-name="Ucircumflex" unicode="&#xdb;" horiz-adv-x="606" 
d="M538 697v-542q0 -159 -235 -159q-234 0 -234 159v542q14 5 31 5l31 -5v-542q0 -59 39.5 -86.5t132.5 -27.5t132.5 27.5t39.5 86.5v542q15 5 31 5zM391 752l-88 88l-87 -88q-12 -4 -23 -4l-22 4l103 115q13 5 29 5l29 -5l103 -115q-10 -4 -22 -4z" />
    <glyph glyph-name="Udieresis" unicode="&#xdc;" horiz-adv-x="606" 
d="M538 697v-542q0 -159 -235 -159q-234 0 -234 159v542q14 5 31 5l31 -5v-542q0 -59 39.5 -86.5t132.5 -27.5t132.5 27.5t39.5 86.5v542q15 5 31 5zM223 849v-97q-11 -4 -25 -4l-25 4v97q11 4 25 4zM433 849v-97q-11 -4 -25 -4l-25 4v97q11 4 25 4z" />
    <glyph glyph-name="Yacute" unicode="&#xdd;" horiz-adv-x="562" 
d="M532 697l-220 -395v-300q-15 -4 -31 -4l-31 4v300l-220 395q17 5 34 5l35 -5l182 -336l182 336q18 5 35 5zM388 875l-125 -123q-11 -4 -22 -4l-22 4l109 123q13 4 30 4z" />
    <glyph glyph-name="Thorn" unicode="&#xde;" horiz-adv-x="515" 
d="M131 697v-141q49 4 125 4q102 0 148.5 -40.5t46.5 -118.5v-73q0 -78 -46.5 -118.5t-148.5 -40.5l-125 4v-171q-16 -4 -31 -4l-31 4v695q14 5 31 5zM131 515v-301h122q73 0 104.5 27.5t31.5 86.5v73q0 59 -31.5 86.5t-104.5 27.5h-122z" />
    <glyph glyph-name="germandbls" unicode="&#xdf;" horiz-adv-x="645" 
d="M109 3v457h-55q-4 8 -4 21l4 21h55v65q0 68 36.5 102.5t119.5 34.5q86 0 123.5 -34.5t37.5 -102.5v-15q0 -34 -10.5 -57t-25 -35t-29.5 -22.5t-25.5 -27.5t-10.5 -43v-15q0 -31 26.5 -46t76.5 -26q28 -7 46 -12t43 -15.5t39 -23t25 -32.5t11 -45v-20q0 -68 -38.5 -102.5
t-125.5 -34.5q-89 0 -126.5 35t-37.5 105v10q14 4 30 4l29 -4v-10q0 -50 23.5 -74t81.5 -24q57 0 80.5 23.5t23.5 71.5v20q0 33 -27.5 50t-78.5 29q-35 8 -56.5 15t-49 20.5t-41.5 35t-14 50.5v15q0 40 16 65t34.5 34.5t34.5 30.5t16 55v15q0 47 -23 68.5t-78 21.5
q-53 0 -74.5 -22t-21.5 -68v-564q-14 -5 -30 -5z" />
    <glyph glyph-name="agrave" unicode="&#xe0;" horiz-adv-x="516" 
d="M387 2v44q-7 -6 -20.5 -14t-61.5 -22t-103 -14q-71 0 -103 33t-32 97v17q0 60 41.5 92.5t136.5 42.5l142 15v62q0 55 -29 81t-99 26q-69 0 -97.5 -26t-28.5 -80v-13q-13 -4 -28 -4l-29 4v13q0 74 41.5 111t141.5 37t144 -37.5t44 -111.5v-353q-14 -4 -30 -4zM387 251
l-134 -14q-69 -8 -97.5 -30.5t-28.5 -63.5v-17q0 -45 21 -66.5t73 -21.5q53 0 94.5 14t56.5 28l15 13v158zM275 575l-124 122q14 5 30 5l30 -5l109 -122q-10 -4 -22 -4z" />
    <glyph glyph-name="aacute" unicode="&#xe1;" horiz-adv-x="516" 
d="M387 2v44q-7 -6 -20.5 -14t-61.5 -22t-103 -14q-71 0 -103 33t-32 97v17q0 60 41.5 92.5t136.5 42.5l142 15v62q0 55 -29 81t-99 26q-69 0 -97.5 -26t-28.5 -80v-13q-13 -4 -28 -4l-29 4v13q0 74 41.5 111t141.5 37t144 -37.5t44 -111.5v-353q-14 -4 -30 -4zM387 251
l-134 -14q-69 -8 -97.5 -30.5t-28.5 -63.5v-17q0 -45 21 -66.5t73 -21.5q53 0 94.5 14t56.5 28l15 13v158zM364 697l-124 -122q-12 -4 -22 -4l-23 4l109 122q14 5 30 5z" />
    <glyph glyph-name="acircumflex" unicode="&#xe2;" horiz-adv-x="516" 
d="M387 2v44q-7 -6 -20.5 -14t-61.5 -22t-103 -14q-71 0 -103 33t-32 97v17q0 60 41.5 92.5t136.5 42.5l142 15v62q0 55 -29 81t-99 26q-69 0 -97.5 -26t-28.5 -80v-13q-13 -4 -28 -4l-29 4v13q0 74 41.5 111t141.5 37t144 -37.5t44 -111.5v-353q-14 -4 -30 -4zM387 251
l-134 -14q-69 -8 -97.5 -30.5t-28.5 -63.5v-17q0 -45 21 -66.5t73 -21.5q53 0 94.5 14t56.5 28l15 13v158zM345 582l-87 88l-88 -88q-12 -4 -22 -4l-22 4l103 115q13 5 28 5l29 -5l104 -115q-10 -4 -23 -4z" />
    <glyph glyph-name="atilde" unicode="&#xe3;" horiz-adv-x="516" 
d="M387 2v44q-7 -6 -20.5 -14t-61.5 -22t-103 -14q-71 0 -103 33t-32 97v17q0 60 41.5 92.5t136.5 42.5l142 15v62q0 55 -29 81t-99 26q-69 0 -97.5 -26t-28.5 -80v-13q-13 -4 -28 -4l-29 4v13q0 74 41.5 111t141.5 37t144 -37.5t44 -111.5v-353q-14 -4 -30 -4zM387 251
l-134 -14q-69 -8 -97.5 -30.5t-28.5 -63.5v-17q0 -45 21 -66.5t73 -21.5q53 0 94.5 14t56.5 28l15 13v158zM112 615v4q0 42 17 62t58 20q39 0 74 -28.5t57 -28.5q25 0 35.5 11.5t10.5 36.5v5q9 4 20 4l19 -4v-5q0 -42 -16.5 -62t-58.5 -20q-31 0 -53.5 14t-40.5 28.5
t-37 14.5q-26 0 -36 -11t-10 -36v-5q-9 -5 -20 -5z" />
    <glyph glyph-name="adieresis" unicode="&#xe4;" horiz-adv-x="516" 
d="M387 2v44q-7 -6 -20.5 -14t-61.5 -22t-103 -14q-71 0 -103 33t-32 97v17q0 60 41.5 92.5t136.5 42.5l142 15v62q0 55 -29 81t-99 26q-69 0 -97.5 -26t-28.5 -80v-13q-13 -4 -28 -4l-29 4v13q0 74 41.5 111t141.5 37t144 -37.5t44 -111.5v-353q-14 -4 -30 -4zM387 251
l-134 -14q-69 -8 -97.5 -30.5t-28.5 -63.5v-17q0 -45 21 -66.5t73 -21.5q53 0 94.5 14t56.5 28l15 13v158zM178 697v-96q-12 -4 -25 -4l-25 4v96q10 5 25 5zM388 697v-96q-12 -4 -25 -4l-25 4v96q10 5 25 5z" />
    <glyph glyph-name="aring" unicode="&#xe5;" horiz-adv-x="516" 
d="M387 2v44q-7 -6 -20.5 -14t-61.5 -22t-103 -14q-71 0 -103 33t-32 97v17q0 60 41.5 92.5t136.5 42.5l142 15v62q0 55 -29 81t-99 26q-69 0 -97.5 -26t-28.5 -80v-13q-13 -4 -28 -4l-29 4v13q0 74 41.5 111t141.5 37t144 -37.5t44 -111.5v-353q-14 -4 -30 -4zM387 251
l-134 -14q-69 -8 -97.5 -30.5t-28.5 -63.5v-17q0 -45 21 -66.5t73 -21.5q53 0 94.5 14t56.5 28l15 13v158zM178 619v17q0 67 80 67t80 -67v-17q0 -67 -80 -67t-80 67zM209 636v-17q0 -39 49 -39q48 0 48 39v17q0 39 -48 39q-49 0 -49 -39z" />
    <glyph glyph-name="ae" unicode="&#xe6;" horiz-adv-x="826" 
d="M202 -4q-71 0 -103 33t-32 97v17q0 60 41.5 92.5t136.5 42.5l142 15v62q0 55 -29 81t-99 26q-69 0 -97.5 -26t-28.5 -80v-13q-13 -4 -28 -4l-29 4v13q0 74 41.5 111t141.5 37q127 0 158 -76q33 76 157 76q100 0 142 -38.5t42 -114.5v-112q-59 -8 -155 -8h-156v-82
q0 -58 30.5 -84.5t105.5 -26.5q46 0 87 9t58 19l18 9q5 -8 5 -22l-5 -21q-6 -4 -17.5 -10t-54 -16t-91.5 -10q-137 0 -168 82q-42 -82 -213 -82zM387 251l-134 -14q-69 -8 -97.5 -30.5t-28.5 -63.5v-17q0 -45 21 -66.5t73 -21.5q89 0 127.5 27t38.5 84v102zM447 274h254v77
q0 57 -28.5 84t-98.5 27t-98.5 -27t-28.5 -84v-77z" />
    <glyph glyph-name="ccedilla" unicode="&#xe7;" horiz-adv-x="500" 
d="M67 149v202q0 76 44.5 114.5t144.5 38.5t142.5 -38.5t42.5 -114.5v-14q-13 -4 -27 -4l-28 4v14q0 58 -29 84.5t-101 26.5q-71 0 -100 -26.5t-29 -84.5v-202q0 -58 31 -84.5t108 -26.5q46 0 87 9t59 19l17 9q5 -8 5 -22l-5 -21q-52 -35 -159 -36v-8q0 -15 13 -23.5
t28 -11.5t28 -13.5t13 -29.5v-8q0 -66 -88 -66q-49 0 -67.5 16.5t-18.5 50.5v5q10 2 19 2l19 -2v-5q0 -22 10 -30t38 -8t38.5 8t10.5 29v8q0 11 -12.5 17.5t-28 9.5t-28 16t-12.5 35v9q-87 6 -126 44.5t-39 107.5z" />
    <glyph glyph-name="egrave" unicode="&#xe8;" 
d="M67 149v202q0 76 46 114.5t149 38.5q105 0 149 -38.5t44 -114.5v-112q-63 -8 -164 -8h-164v-82q0 -58 32.5 -84.5t111.5 -26.5q48 0 91 9t62 19l19 9q4 -8 4 -22l-4 -21q-6 -4 -18.5 -10t-57 -16t-96.5 -10q-108 0 -156 38.5t-48 114.5zM127 274h270v77q0 58 -30 84.5
t-105 26.5q-74 0 -104.5 -27t-30.5 -84v-77zM279 575l-125 122q15 5 31 5l29 -5l109 -122q-9 -4 -22 -4z" />
    <glyph glyph-name="eacute" unicode="&#xe9;" 
d="M67 149v202q0 76 46 114.5t149 38.5q105 0 149 -38.5t44 -114.5v-112q-63 -8 -164 -8h-164v-82q0 -58 32.5 -84.5t111.5 -26.5q48 0 91 9t62 19l19 9q4 -8 4 -22l-4 -21q-6 -4 -18.5 -10t-57 -16t-96.5 -10q-108 0 -156 38.5t-48 114.5zM127 274h270v77q0 58 -30 84.5
t-105 26.5q-74 0 -104.5 -27t-30.5 -84v-77zM367 697l-124 -122q-12 -4 -23 -4l-22 4l109 122q14 5 30 5z" />
    <glyph glyph-name="ecircumflex" unicode="&#xea;" 
d="M67 149v202q0 76 46 114.5t149 38.5q105 0 149 -38.5t44 -114.5v-112q-63 -8 -164 -8h-164v-82q0 -58 32.5 -84.5t111.5 -26.5q48 0 91 9t62 19l19 9q4 -8 4 -22l-4 -21q-6 -4 -18.5 -10t-57 -16t-96.5 -10q-108 0 -156 38.5t-48 114.5zM127 274h270v77q0 58 -30 84.5
t-105 26.5q-74 0 -104.5 -27t-30.5 -84v-77zM349 582l-88 88l-87 -88q-12 -4 -23 -4l-22 4l103 115q13 5 29 5l29 -5l103 -115q-10 -4 -22 -4z" />
    <glyph glyph-name="edieresis" unicode="&#xeb;" 
d="M67 149v202q0 76 46 114.5t149 38.5q105 0 149 -38.5t44 -114.5v-112q-63 -8 -164 -8h-164v-82q0 -58 32.5 -84.5t111.5 -26.5q48 0 91 9t62 19l19 9q4 -8 4 -22l-4 -21q-6 -4 -18.5 -10t-57 -16t-96.5 -10q-108 0 -156 38.5t-48 114.5zM127 274h270v77q0 58 -30 84.5
t-105 26.5q-74 0 -104.5 -27t-30.5 -84v-77zM181 697v-96q-11 -4 -25 -4l-25 4v96q11 5 25 5zM391 697v-96q-11 -4 -25 -4l-25 4v96q11 5 25 5z" />
    <glyph glyph-name="igrave" unicode="&#xec;" horiz-adv-x="197" 
d="M116 575l-124 122q14 5 30 5l30 -5l109 -122q-10 -4 -22 -4zM129 497v-495q-15 -4 -30 -4l-30 4v495q14 5 30 5z" />
    <glyph glyph-name="iacute" unicode="&#xed;" horiz-adv-x="197" 
d="M205 697l-124 -122q-12 -4 -22 -4l-23 4l109 122q14 5 30 5zM129 497v-495q-15 -4 -30 -4l-30 4v495q14 5 30 5z" />
    <glyph glyph-name="icircumflex" unicode="&#xee;" horiz-adv-x="197" 
d="M186 582l-87 88l-88 -88q-12 -4 -22 -4l-22 4l103 115q13 5 28 5l29 -5l104 -115q-10 -4 -23 -4zM129 497v-495q-15 -4 -30 -4l-30 4v495q14 5 30 5z" />
    <glyph glyph-name="idieresis" unicode="&#xef;" horiz-adv-x="197" 
d="M129 497v-495q-15 -4 -30 -4l-30 4v495q14 5 30 5zM49 697v-96q-12 -4 -25 -4l-25 4v96q10 5 25 5zM199 697v-96q-12 -4 -25 -4l-25 4v96q10 5 25 5z" />
    <glyph glyph-name="eth" unicode="&#xf0;" horiz-adv-x="528" 
d="M416 697l-55 -55q99 -57 99 -141v-352q0 -153 -195 -153q-198 0 -198 153v202q0 76 35.5 114.5t114.5 38.5q54 0 99.5 -13t64.5 -25l19 -13v48q0 60 -75 104l-49 -49q-13 -4 -24 -4l-24 4l64 66q-37 16 -84 28t-76 16l-28 3v1q-1 1 -1.5 3t-1 4.5t-1 6t-0.5 7.5l4 20
q122 -8 224 -53l38 39q11 5 25 5zM400 149v258q-5 6 -16 15t-54 24.5t-97 15.5q-59 0 -82.5 -26.5t-23.5 -84.5v-202q0 -57 31.5 -84t105.5 -27t105 27t31 84z" />
    <glyph glyph-name="ntilde" unicode="&#xf1;" horiz-adv-x="526" 
d="M129 497v-44q7 6 20.5 14.5t60.5 22.5t101 14q78 0 113 -38.5t35 -114.5v-349q-15 -4 -30 -4l-30 4v349q0 58 -23.5 84.5t-81.5 26.5q-53 0 -94.5 -14t-55.5 -28l-15 -13v-405q-15 -4 -30 -4l-30 4v495q14 5 30 5zM117 615v4q0 41 17 61.5t58 20.5q31 0 53.5 -14.5
t40 -28.5t37.5 -14q26 0 36.5 11.5t10.5 36.5v5q9 4 19 4l19 -4v-5q0 -42 -16.5 -62t-58.5 -20q-31 0 -53.5 14t-40.5 28.5t-37 14.5q-26 0 -36 -11t-10 -36v-5q-9 -5 -19 -5z" />
    <glyph glyph-name="ograve" unicode="&#xf2;" horiz-adv-x="532" 
d="M67 149v202q0 153 199 153t199 -153v-202q0 -153 -199 -153t-199 153zM127 351v-202q0 -57 32 -84t107 -27t107 27t32 84v202q0 57 -32 84t-107 27t-107 -27t-32 -84zM284 575l-125 122q15 5 31 5l29 -5l109 -122q-9 -4 -22 -4z" />
    <glyph glyph-name="oacute" unicode="&#xf3;" horiz-adv-x="532" 
d="M372 697l-124 -122q-12 -4 -23 -4l-22 4l109 122q14 5 30 5zM67 149v202q0 153 199 153t199 -153v-202q0 -153 -199 -153t-199 153zM127 351v-202q0 -57 32 -84t107 -27t107 27t32 84v202q0 57 -32 84t-107 27t-107 -27t-32 -84z" />
    <glyph glyph-name="ocircumflex" unicode="&#xf4;" horiz-adv-x="532" 
d="M67 149v202q0 153 199 153t199 -153v-202q0 -153 -199 -153t-199 153zM127 351v-202q0 -57 32 -84t107 -27t107 27t32 84v202q0 57 -32 84t-107 27t-107 -27t-32 -84zM354 582l-88 88l-87 -88q-12 -4 -23 -4l-22 4l103 115q13 5 29 5l29 -5l103 -115q-10 -4 -22 -4z" />
    <glyph glyph-name="otilde" unicode="&#xf5;" horiz-adv-x="532" 
d="M67 149v202q0 153 199 153t199 -153v-202q0 -153 -199 -153t-199 153zM127 351v-202q0 -57 32 -84t107 -27t107 27t32 84v202q0 57 -32 84t-107 27t-107 -27t-32 -84zM121 615v4q0 42 17 62t58 20q31 0 53 -14.5t40 -28.5t38 -14q25 0 35.5 11.5t10.5 36.5v5q9 4 19 4
l20 -4v-5q0 -42 -17 -62t-58 -20q-25 0 -45 9t-30.5 19.5t-25.5 19.5t-30 9q-26 0 -36.5 -11t-10.5 -36v-5q-9 -5 -19 -5z" />
    <glyph glyph-name="odieresis" unicode="&#xf6;" horiz-adv-x="532" 
d="M67 149v202q0 153 199 153t199 -153v-202q0 -153 -199 -153t-199 153zM127 351v-202q0 -57 32 -84t107 -27t107 27t32 84v202q0 57 -32 84t-107 27t-107 -27t-32 -84zM186 697v-96q-11 -4 -25 -4l-25 4v96q11 5 25 5zM396 697v-96q-11 -4 -25 -4l-25 4v96q11 5 25 5z" />
    <glyph glyph-name="divide" unicode="&#xf7;" horiz-adv-x="420" 
d="M374 276h-328q-4 8 -4 21l4 22h328q4 -9 4 -22zM235 483v-86q-13 -3 -25 -3l-24 3v86q11 4 24 4zM235 197v-85q-13 -4 -25 -4l-24 4v85q11 4 24 4z" />
    <glyph glyph-name="oslash" unicode="&#xf8;" horiz-adv-x="532" 
d="M457 497l-29 -41q37 -38 37 -105v-202q0 -153 -199 -153q-91 0 -139 30l-16 -24q-12 -4 -22 -4l-23 4l33 47q-32 36 -32 100v202q0 153 199 153q83 0 132 -27l14 20q10 5 23 5zM410 351q0 36 -13 61l-243 -348q32 -28 112 -28q78 0 111 27t33 86v202zM122 351v-202
q0 -35 9 -54l241 345q-34 24 -106 24q-78 0 -111 -27.5t-33 -85.5z" />
    <glyph glyph-name="ugrave" unicode="&#xf9;" 
d="M395 2v44q-7 -6 -20.5 -14t-60 -22t-99.5 -14q-78 0 -112 38.5t-34 114.5v348q14 5 30 5l30 -5v-348q0 -58 23 -84.5t80 -26.5q52 0 93 14t55 28l15 13v404q15 5 30 5l30 -5v-495q-14 -4 -30 -4zM278 575l-124 122q14 5 30 5l30 -5l109 -122q-10 -4 -22 -4z" />
    <glyph glyph-name="uacute" unicode="&#xfa;" 
d="M395 2v44q-7 -6 -20.5 -14t-60 -22t-99.5 -14q-78 0 -112 38.5t-34 114.5v348q14 5 30 5l30 -5v-348q0 -58 23 -84.5t80 -26.5q52 0 93 14t55 28l15 13v404q15 5 30 5l30 -5v-495q-14 -4 -30 -4zM367 697l-124 -122q-12 -4 -22 -4l-23 4l109 122q14 5 30 5z" />
    <glyph glyph-name="ucircumflex" unicode="&#xfb;" 
d="M395 2v44q-7 -6 -20.5 -14t-60 -22t-99.5 -14q-78 0 -112 38.5t-34 114.5v348q14 5 30 5l30 -5v-348q0 -58 23 -84.5t80 -26.5q52 0 93 14t55 28l15 13v404q15 5 30 5l30 -5v-495q-14 -4 -30 -4zM348 582l-87 88l-88 -88q-12 -4 -22 -4l-22 4l103 115q13 5 28 5l29 -5
l104 -115q-10 -4 -23 -4z" />
    <glyph glyph-name="udieresis" unicode="&#xfc;" 
d="M395 2v44q-7 -6 -20.5 -14t-60 -22t-99.5 -14q-78 0 -112 38.5t-34 114.5v348q14 5 30 5l30 -5v-348q0 -58 23 -84.5t80 -26.5q52 0 93 14t55 28l15 13v404q15 5 30 5l30 -5v-495q-14 -4 -30 -4zM181 697v-96q-12 -4 -25 -4l-25 4v96q10 5 25 5zM391 697v-96
q-12 -4 -25 -4l-25 4v96q10 5 25 5z" />
    <glyph glyph-name="yacute" unicode="&#xfd;" horiz-adv-x="506" 
d="M210 -78l30 77l-18 3l-185 495q15 5 30 5l30 -5l162 -442l161 442q15 5 30 5l30 -5l-215 -573q-24 -66 -57.5 -97t-90.5 -31q-13 0 -24.5 1.5t-16.5 2.5l-6 2q-5 8 -5 21l5 20q16 -5 46 -5q35 0 56.5 20.5t37.5 63.5zM359 697l-124 -122q-12 -4 -22 -4l-23 4l109 122
q14 5 30 5z" />
    <glyph glyph-name="thorn" unicode="&#xfe;" horiz-adv-x="519" 
d="M129 697v-244q7 6 20 14.5t59 22.5t98 14q77 0 111 -38.5t34 -114.5v-202q0 -75 -39.5 -114t-127.5 -39q-55 0 -93 12.5t-48.5 22.5t-13.5 17v-246q-15 -4 -30 -4l-30 4v895q14 5 30 5zM391 149v202q0 58 -22.5 84.5t-79.5 26.5q-52 0 -92 -14t-54 -28l-14 -13v-258
q0 -57 33 -84t112 -27q65 0 91 26.5t26 84.5z" />
    <glyph glyph-name="ydieresis" unicode="&#xff;" horiz-adv-x="506" 
d="M210 -78l30 77l-18 3l-185 495q15 5 30 5l30 -5l162 -442l161 442q15 5 30 5l30 -5l-215 -573q-24 -66 -57.5 -97t-90.5 -31q-13 0 -24.5 1.5t-16.5 2.5l-6 2q-5 8 -5 21l5 20q16 -5 46 -5q35 0 56.5 20.5t37.5 63.5zM173 697v-96q-12 -4 -25 -4l-25 4v96q10 5 25 5z
M383 697v-96q-12 -4 -25 -4l-25 4v96q10 5 25 5z" />
    <glyph glyph-name="Amacron" unicode="&#x100;" horiz-adv-x="596" 
d="M27 2l229 695q19 5 42 5l42 -5l229 -695q-16 -4 -30 -4l-32 4l-65 197h-288l-65 -197q-16 -4 -32 -4zM298 646l-132 -402h264zM415 774h-235q-4 6 -4 17l4 18h235q4 -7 4 -18z" />
    <glyph glyph-name="amacron" unicode="&#x101;" horiz-adv-x="516" 
d="M387 2v44q-7 -6 -20.5 -14t-61.5 -22t-103 -14q-71 0 -103 33t-32 97v17q0 60 41.5 92.5t136.5 42.5l142 15v62q0 55 -29 81t-99 26q-69 0 -97.5 -26t-28.5 -80v-13q-13 -4 -28 -4l-29 4v13q0 74 41.5 111t141.5 37t144 -37.5t44 -111.5v-353q-14 -4 -30 -4zM387 251
l-134 -14q-69 -8 -97.5 -30.5t-28.5 -63.5v-17q0 -45 21 -66.5t73 -21.5q53 0 94.5 14t56.5 28l15 13v158zM375 606h-234q-4 7 -4 18l4 17h234q4 -7 4 -17z" />
    <glyph glyph-name="Abreve" unicode="&#x102;" horiz-adv-x="596" 
d="M27 2l229 695q19 5 42 5l42 -5l229 -695q-16 -4 -30 -4l-32 4l-65 197h-288l-65 -197q-16 -4 -32 -4zM298 646l-132 -402h264zM297 748q-68 0 -95.5 24.5t-27.5 74.5v9q10 5 21 5l22 -5v-10q0 -34 18 -49t62 -15t62 15t18 49v10q11 5 22 5l22 -5v-9q0 -50 -28 -74.5
t-96 -24.5z" />
    <glyph glyph-name="abreve" unicode="&#x103;" horiz-adv-x="516" 
d="M387 2v44q-7 -6 -20.5 -14t-61.5 -22t-103 -14q-71 0 -103 33t-32 97v17q0 60 41.5 92.5t136.5 42.5l142 15v62q0 55 -29 81t-99 26q-69 0 -97.5 -26t-28.5 -80v-13q-13 -4 -28 -4l-29 4v13q0 74 41.5 111t141.5 37t144 -37.5t44 -111.5v-353q-14 -4 -30 -4zM387 251
l-134 -14q-69 -8 -97.5 -30.5t-28.5 -63.5v-17q0 -45 21 -66.5t73 -21.5q53 0 94.5 14t56.5 28l15 13v158zM258 589q-68 0 -96 24t-28 74v10q10 4 22 4l22 -4v-10q0 -34 17.5 -49t62.5 -15q44 0 62 15t18 49v10q10 4 21 4l22 -4v-10q0 -50 -27.5 -74t-95.5 -24z" />
    <glyph glyph-name="Aogonek" unicode="&#x104;" horiz-adv-x="596" 
d="M479 -85q0 42 46 84l-18 3l-65 197h-288l-65 -197q-16 -4 -32 -4l-30 4l229 695q19 5 42 5l42 -5l229 -695q-4 -1 -9 -2q-43 -43 -43 -82q0 -44 50 -44q15 0 29.5 4t21.5 8l7 5q3 -6 3 -16l-3 -14q-21 -19 -66 -19q-80 0 -80 73zM298 646l-132 -402h264z" />
    <glyph glyph-name="aogonek" unicode="&#x105;" horiz-adv-x="516" 
d="M356 -85q0 41 47 84l-16 3v44q-7 -6 -20.5 -14t-61.5 -22t-103 -14q-71 0 -103 33t-32 97v17q0 60 41.5 92.5t136.5 42.5l142 15v62q0 55 -29 81t-99 26q-69 0 -97.5 -26t-28.5 -80v-13q-13 -4 -28 -4l-29 4v13q0 74 41.5 111t141.5 37t144 -37.5t44 -111.5v-353
q-4 -1 -9 -2q-43 -43 -43 -82q0 -44 49 -44q16 0 30.5 4t21.5 8l7 5q3 -6 3 -16l-3 -14q-22 -19 -66 -19q-81 0 -81 73zM387 251l-134 -14q-69 -8 -97.5 -30.5t-28.5 -63.5v-17q0 -45 21 -66.5t73 -21.5q53 0 94.5 14t56.5 28l15 13v158z" />
    <glyph glyph-name="Cacute" unicode="&#x106;" horiz-adv-x="588" 
d="M67 155v390q0 79 54.5 119t177.5 40t175.5 -40t52.5 -119v-14q-14 -4 -29 -4l-28 4v14q0 59 -38 86.5t-133 27.5q-93 0 -131 -27.5t-38 -86.5v-390q0 -60 39 -87t136 -27q60 0 112.5 11t74.5 22l23 11q5 -8 5 -23l-5 -23q-8 -5 -23 -12t-69 -19t-118 -12q-126 0 -182 40
t-56 119zM401 875l-125 -123q-11 -4 -22 -4l-22 4l109 123q13 4 30 4z" />
    <glyph glyph-name="cacute" unicode="&#x107;" horiz-adv-x="500" 
d="M67 149v202q0 76 44.5 114.5t144.5 38.5t142.5 -38.5t42.5 -114.5v-14q-13 -4 -27 -4l-28 4v14q0 58 -29 84.5t-101 26.5q-71 0 -100 -26.5t-29 -84.5v-202q0 -58 31 -84.5t108 -26.5q46 0 87 9t59 19l17 9q5 -8 5 -22l-5 -21q-6 -4 -18 -10t-54.5 -16t-91.5 -10
q-105 0 -151.5 38.5t-46.5 114.5zM355 697l-125 -122q-12 -4 -22 -4l-22 4l109 122q13 5 29 5z" />
    <glyph glyph-name="Ccircumflex" unicode="&#x108;" horiz-adv-x="588" 
d="M67 155v390q0 79 54.5 119t177.5 40t175.5 -40t52.5 -119v-14q-14 -4 -29 -4l-28 4v14q0 59 -38 86.5t-133 27.5q-93 0 -131 -27.5t-38 -86.5v-390q0 -60 39 -87t136 -27q60 0 112.5 11t74.5 22l23 11q5 -8 5 -23l-5 -23q-8 -5 -23 -12t-69 -19t-118 -12q-126 0 -182 40
t-56 119zM382 752l-88 88l-87 -88q-12 -4 -23 -4l-22 4l103 115q13 5 29 5l29 -5l103 -115q-10 -4 -22 -4z" />
    <glyph glyph-name="ccircumflex" unicode="&#x109;" horiz-adv-x="500" 
d="M67 149v202q0 76 44.5 114.5t144.5 38.5t142.5 -38.5t42.5 -114.5v-14q-13 -4 -27 -4l-28 4v14q0 58 -29 84.5t-101 26.5q-71 0 -100 -26.5t-29 -84.5v-202q0 -58 31 -84.5t108 -26.5q46 0 87 9t59 19l17 9q5 -8 5 -22l-5 -21q-6 -4 -18 -10t-54.5 -16t-91.5 -10
q-105 0 -151.5 38.5t-46.5 114.5zM336 582l-87 88l-88 -88q-12 -4 -22 -4l-22 4l103 115q13 5 28 5l29 -5l104 -115q-10 -4 -23 -4z" />
    <glyph glyph-name="Cdotaccent" unicode="&#x10a;" horiz-adv-x="588" 
d="M67 155v390q0 79 54.5 119t177.5 40t175.5 -40t52.5 -119v-14q-14 -4 -29 -4l-28 4v14q0 59 -38 86.5t-133 27.5q-93 0 -131 -27.5t-38 -86.5v-390q0 -60 39 -87t136 -27q60 0 112.5 11t74.5 22l23 11q5 -8 5 -23l-5 -23q-8 -5 -23 -12t-69 -19t-118 -12q-126 0 -182 40
t-56 119zM324 853v-100q-15 -5 -30 -5l-30 5v100q14 4 30 4z" />
    <glyph glyph-name="cdotaccent" unicode="&#x10b;" horiz-adv-x="500" 
d="M67 149v202q0 76 44.5 114.5t144.5 38.5t142.5 -38.5t42.5 -114.5v-14q-13 -4 -27 -4l-28 4v14q0 58 -29 84.5t-101 26.5q-71 0 -100 -26.5t-29 -84.5v-202q0 -58 31 -84.5t108 -26.5q46 0 87 9t59 19l17 9q5 -8 5 -22l-5 -21q-6 -4 -18 -10t-54.5 -16t-91.5 -10
q-105 0 -151.5 38.5t-46.5 114.5zM279 697v-100q-15 -4 -30 -4l-30 4v100q14 5 30 5z" />
    <glyph glyph-name="Ccaron" unicode="&#x10c;" horiz-adv-x="588" 
d="M67 155v390q0 79 54.5 119t177.5 40t175.5 -40t52.5 -119v-14q-14 -4 -29 -4l-28 4v14q0 59 -38 86.5t-133 27.5q-93 0 -131 -27.5t-38 -86.5v-390q0 -60 39 -87t136 -27q60 0 112.5 11t74.5 22l23 11q5 -8 5 -23l-5 -23q-8 -5 -23 -12t-69 -19t-118 -12q-126 0 -182 40
t-56 119zM207 867l87 -87l88 87q11 5 22 5l22 -5l-103 -115q-13 -4 -29 -4l-29 4l-103 115q10 5 22 5z" />
    <glyph glyph-name="ccaron" unicode="&#x10d;" horiz-adv-x="500" 
d="M67 149v202q0 76 44.5 114.5t144.5 38.5t142.5 -38.5t42.5 -114.5v-14q-13 -4 -27 -4l-28 4v14q0 58 -29 84.5t-101 26.5q-71 0 -100 -26.5t-29 -84.5v-202q0 -58 31 -84.5t108 -26.5q46 0 87 9t59 19l17 9q5 -8 5 -22l-5 -21q-6 -4 -18 -10t-54.5 -16t-91.5 -10
q-105 0 -151.5 38.5t-46.5 114.5zM161 697l88 -87l87 87q12 5 22 5l23 -5l-104 -115q-13 -4 -28 -4l-29 4l-103 115q9 5 22 5z" />
    <glyph glyph-name="Dcaron" unicode="&#x10e;" horiz-adv-x="594" 
d="M69 696q86 7 218 7q125 0 182 -40t57 -118v-390q0 -159 -239 -159q-59 0 -113.5 2t-79.5 4l-25 2v692zM131 659v-618h156q96 0 136.5 27.5t40.5 86.5v390q0 59 -41 86.5t-136 27.5h-156zM201 867l88 -87l87 87q12 5 23 5l22 -5l-103 -115q-13 -4 -29 -4l-29 4l-103 115
q10 5 22 5z" />
    <glyph glyph-name="dcaron" unicode="&#x10f;" horiz-adv-x="620" 
d="M390 2v44q-7 -6 -20 -14t-59.5 -22t-98.5 -14q-77 0 -111 38.5t-34 114.5v202q0 76 39.5 114.5t128.5 38.5q36 0 65.5 -5.5t45.5 -13.5t26.5 -16t13.5 -13l4 -6v247q14 5 30 5l30 -5v-695q-14 -4 -30 -4zM127 351v-202q0 -57 23 -84t79 -27q52 0 92.5 14t54.5 28l14 13
v258q0 57 -33.5 84t-112.5 27q-65 0 -91 -26.5t-26 -84.5zM622 697q0 -39 -6.5 -72.5t-15 -54t-17.5 -36t-15 -21.5l-7 -6q-8 -4 -17 -4l-18 4q5 7 12.5 20t20.5 62t13 108q12 5 25 5z" />
    <glyph glyph-name="Dcroat" unicode="&#x110;" horiz-adv-x="626" 
d="M101 696q87 7 219 7q125 0 182 -40t57 -118v-390q0 -159 -239 -159q-59 0 -113.5 2t-80.5 4l-25 2v335h-55q-4 8 -4 21l4 21h55v315zM339 339h-175v-298h156q95 0 135.5 27.5t40.5 86.5v390q0 59 -40.5 86.5t-135.5 27.5h-156v-278h175q4 -8 4 -21z" />
    <glyph glyph-name="dcroat" unicode="&#x111;" horiz-adv-x="551" 
d="M505 589h-55v-587q-14 -4 -30 -4l-30 4v44q-7 -6 -20 -14t-59.5 -22t-98.5 -14q-77 0 -111 38.5t-34 114.5v202q0 76 39.5 114.5t128.5 38.5q55 0 94 -14t48 -23.5t13 -16.5v139h-192q-4 7 -4 20l4 20h192v68q14 5 30 5l30 -5v-68h55q4 -8 4 -20zM127 351v-202
q0 -57 23 -84t79 -27q52 0 92.5 14t54.5 28l14 13v258q0 57 -33.5 84t-112.5 27q-65 0 -91 -26.5t-26 -84.5z" />
    <glyph glyph-name="Emacron" unicode="&#x112;" horiz-adv-x="524" 
d="M131 337v-292h347q4 -9 4 -23l-4 -22h-214q-52 0 -101 1.5t-71 2.5l-23 2v687q77 7 195 7h209q4 -9 4 -23l-4 -22h-342v-273h309q4 -9 4 -22l-4 -23h-309zM393 774h-234q-4 6 -4 17l4 18h234q4 -7 4 -18z" />
    <glyph glyph-name="emacron" unicode="&#x113;" 
d="M67 149v202q0 76 46 114.5t149 38.5q105 0 149 -38.5t44 -114.5v-112q-63 -8 -164 -8h-164v-82q0 -58 32.5 -84.5t111.5 -26.5q48 0 91 9t62 19l19 9q4 -8 4 -22l-4 -21q-6 -4 -18.5 -10t-57 -16t-96.5 -10q-108 0 -156 38.5t-48 114.5zM127 274h270v77q0 58 -30 84.5
t-105 26.5q-74 0 -104.5 -27t-30.5 -84v-77zM378 606h-234q-4 7 -4 18l4 17h234q4 -7 4 -17z" />
    <glyph glyph-name="Ebreve" unicode="&#x114;" horiz-adv-x="524" 
d="M131 337v-292h347q4 -9 4 -23l-4 -22h-214q-52 0 -101 1.5t-71 2.5l-23 2v687q77 7 195 7h209q4 -9 4 -23l-4 -22h-342v-273h309q4 -9 4 -22l-4 -23h-309zM265 748q-68 0 -96 24.5t-28 74.5v9q10 5 22 5l22 -5v-10q0 -34 17.5 -49t62.5 -15q44 0 62 15t18 49v10
q10 5 21 5l22 -5v-9q0 -50 -27.5 -74.5t-95.5 -24.5z" />
    <glyph glyph-name="ebreve" unicode="&#x115;" 
d="M67 149v202q0 76 46 114.5t149 38.5q105 0 149 -38.5t44 -114.5v-112q-63 -8 -164 -8h-164v-82q0 -58 32.5 -84.5t111.5 -26.5q48 0 91 9t62 19l19 9q4 -8 4 -22l-4 -21q-6 -4 -18.5 -10t-57 -16t-96.5 -10q-108 0 -156 38.5t-48 114.5zM127 274h270v77q0 58 -30 84.5
t-105 26.5q-74 0 -104.5 -27t-30.5 -84v-77zM261 589q-68 0 -96 24t-28 74v10q11 4 22 4l22 -4v-10q0 -34 17.5 -49t62.5 -15q44 0 62 15t18 49v10q10 4 22 4l22 -4v-10q0 -50 -28 -74t-96 -24z" />
    <glyph glyph-name="Edotaccent" unicode="&#x116;" horiz-adv-x="524" 
d="M131 337v-292h347q4 -9 4 -23l-4 -22h-214q-52 0 -101 1.5t-71 2.5l-23 2v687q77 7 195 7h209q4 -9 4 -23l-4 -22h-342v-273h309q4 -9 4 -22l-4 -23h-309zM310 853v-100q-15 -5 -30 -5l-30 5v100q14 4 30 4z" />
    <glyph glyph-name="edotaccent" unicode="&#x117;" 
d="M67 149v202q0 76 46 114.5t149 38.5q105 0 149 -38.5t44 -114.5v-112q-63 -8 -164 -8h-164v-82q0 -58 32.5 -84.5t111.5 -26.5q48 0 91 9t62 19l19 9q4 -8 4 -22l-4 -21q-6 -4 -18.5 -10t-57 -16t-96.5 -10q-108 0 -156 38.5t-48 114.5zM127 274h270v77q0 58 -30 84.5
t-105 26.5q-74 0 -104.5 -27t-30.5 -84v-77zM291 697v-100q-15 -4 -30 -4l-30 4v100q14 5 30 5z" />
    <glyph glyph-name="Eogonek" unicode="&#x118;" horiz-adv-x="524" 
d="M333 -85q0 45 48 85h-117q-52 0 -101 1.5t-71 2.5l-23 2v687q77 7 195 7h209q4 -9 4 -23l-4 -22h-342v-273h309q4 -9 4 -22l-4 -23h-309v-292h347q4 -9 4 -23l-4 -22h-64q-43 -43 -43 -82q0 -44 50 -44q15 0 29.5 4t21.5 8l7 5q3 -6 3 -16l-3 -14q-21 -19 -66 -19
q-80 0 -80 73z" />
    <glyph glyph-name="eogonek" unicode="&#x119;" 
d="M270 -85q0 41 45 83q-28 -2 -44 -2q-108 0 -156 38.5t-48 114.5v202q0 76 46 114.5t149 38.5q105 0 149 -38.5t44 -114.5v-112q-63 -8 -164 -8h-164v-82q0 -58 32.5 -84.5t111.5 -26.5q48 0 91 9t62 19l19 9q4 -8 4 -22l-4 -21q-30 -19 -90 -30q-45 -45 -45 -84
q0 -44 50 -44q15 0 29.5 4t21.5 8l7 5q4 -6 4 -16l-4 -14q-21 -19 -66 -19q-80 0 -80 73zM127 274h270v77q0 58 -30 84.5t-105 26.5q-74 0 -104.5 -27t-30.5 -84v-77z" />
    <glyph glyph-name="Ecaron" unicode="&#x11a;" horiz-adv-x="524" 
d="M131 337v-292h347q4 -9 4 -23l-4 -22h-214q-52 0 -101 1.5t-71 2.5l-23 2v687q77 7 195 7h209q4 -9 4 -23l-4 -22h-342v-273h309q4 -9 4 -22l-4 -23h-309zM188 867l88 -87l87 87q12 5 23 5l22 -5l-103 -115q-13 -4 -29 -4l-29 4l-103 115q10 5 22 5z" />
    <glyph glyph-name="ecaron" unicode="&#x11b;" 
d="M67 149v202q0 76 46 114.5t149 38.5q105 0 149 -38.5t44 -114.5v-112q-63 -8 -164 -8h-164v-82q0 -58 32.5 -84.5t111.5 -26.5q48 0 91 9t62 19l19 9q4 -8 4 -22l-4 -21q-6 -4 -18.5 -10t-57 -16t-96.5 -10q-108 0 -156 38.5t-48 114.5zM127 274h270v77q0 58 -30 84.5
t-105 26.5q-74 0 -104.5 -27t-30.5 -84v-77zM174 697l87 -87l88 87q11 5 22 5l22 -5l-103 -115q-13 -4 -29 -4l-29 4l-103 115q10 5 22 5z" />
    <glyph glyph-name="Gcircumflex" unicode="&#x11c;" horiz-adv-x="599" 
d="M530 356v-317q-10 -5 -29 -12t-79 -19t-121 -12q-234 0 -234 159v390q0 79 55 119t179 40t176.5 -40t52.5 -119v-14q-14 -4 -29 -4l-29 4v14q0 59 -38 86.5t-133 27.5t-133 -27.5t-38 -86.5v-390q0 -59 39 -86.5t132 -27.5q46 0 88.5 7.5t61.5 15.5l19 7v246h-156
q-4 9 -4 23l4 22h46q46 0 88.5 -1.5t61.5 -2.5zM386 752l-87 88l-88 -88q-11 -4 -22 -4l-22 4l103 115q13 5 29 5l29 -5l103 -115q-10 -4 -22 -4z" />
    <glyph glyph-name="gcircumflex" unicode="&#x11d;" horiz-adv-x="519" 
d="M390 -51v98q-34 -51 -155 -51q-89 0 -128.5 38.5t-39.5 114.5v202q0 76 34 114.5t111 38.5q52 0 96.5 -13t63.5 -25l18 -13v44q14 5 30 5l30 -5v-548q0 -76 -48 -114.5t-156 -38.5q-45 0 -85 6t-57 12l-18 6q-5 8 -5 21l5 22q63 -25 160 -25q79 0 111.5 26.5t32.5 84.5z
M127 351v-202q0 -58 26 -84.5t91 -26.5q79 0 112.5 27t33.5 84v258q-5 6 -15.5 15t-52 24.5t-93.5 15.5q-56 0 -79 -27t-23 -84zM347 582l-88 88l-87 -88q-12 -4 -23 -4l-22 4l103 115q13 5 29 5l29 -5l103 -115q-10 -4 -22 -4z" />
    <glyph glyph-name="Gbreve" unicode="&#x11e;" horiz-adv-x="599" 
d="M530 356v-317q-10 -5 -29 -12t-79 -19t-121 -12q-234 0 -234 159v390q0 79 55 119t179 40t176.5 -40t52.5 -119v-14q-14 -4 -29 -4l-29 4v14q0 59 -38 86.5t-133 27.5t-133 -27.5t-38 -86.5v-390q0 -59 39 -86.5t132 -27.5q46 0 88.5 7.5t61.5 15.5l19 7v246h-156
q-4 9 -4 23l4 22h46q46 0 88.5 -1.5t61.5 -2.5zM299 748q-68 0 -96 24.5t-28 74.5v9q10 5 22 5l22 -5v-10q0 -34 17.5 -49t62.5 -15q44 0 62 15t18 49v10q10 5 22 5l22 -5v-9q0 -50 -28 -74.5t-96 -24.5z" />
    <glyph glyph-name="gbreve" unicode="&#x11f;" horiz-adv-x="519" 
d="M390 -51v98q-34 -51 -155 -51q-89 0 -128.5 38.5t-39.5 114.5v202q0 76 34 114.5t111 38.5q52 0 96.5 -13t63.5 -25l18 -13v44q14 5 30 5l30 -5v-548q0 -76 -48 -114.5t-156 -38.5q-45 0 -85 6t-57 12l-18 6q-5 8 -5 21l5 22q63 -25 160 -25q79 0 111.5 26.5t32.5 84.5z
M127 351v-202q0 -58 26 -84.5t91 -26.5q79 0 112.5 27t33.5 84v258q-5 6 -15.5 15t-52 24.5t-93.5 15.5q-56 0 -79 -27t-23 -84zM259 589q-68 0 -96 24t-28 74v10q11 4 22 4l22 -4v-10q0 -34 17.5 -49t62.5 -15q44 0 62 15t18 49v10q10 4 22 4l22 -4v-10q0 -50 -28 -74
t-96 -24z" />
    <glyph glyph-name="Gdotaccent" unicode="&#x120;" horiz-adv-x="599" 
d="M530 356v-317q-10 -5 -29 -12t-79 -19t-121 -12q-234 0 -234 159v390q0 79 55 119t179 40t176.5 -40t52.5 -119v-14q-14 -4 -29 -4l-29 4v14q0 59 -38 86.5t-133 27.5t-133 -27.5t-38 -86.5v-390q0 -59 39 -86.5t132 -27.5q46 0 88.5 7.5t61.5 15.5l19 7v246h-156
q-4 9 -4 23l4 22h46q46 0 88.5 -1.5t61.5 -2.5zM329 853v-100q-15 -5 -30 -5l-30 5v100q14 4 30 4z" />
    <glyph glyph-name="gdotaccent" unicode="&#x121;" horiz-adv-x="519" 
d="M390 -51v98q-34 -51 -155 -51q-89 0 -128.5 38.5t-39.5 114.5v202q0 76 34 114.5t111 38.5q52 0 96.5 -13t63.5 -25l18 -13v44q14 5 30 5l30 -5v-548q0 -76 -48 -114.5t-156 -38.5q-45 0 -85 6t-57 12l-18 6q-5 8 -5 21l5 22q63 -25 160 -25q79 0 111.5 26.5t32.5 84.5z
M127 351v-202q0 -58 26 -84.5t91 -26.5q79 0 112.5 27t33.5 84v258q-5 6 -15.5 15t-52 24.5t-93.5 15.5q-56 0 -79 -27t-23 -84zM289 697v-100q-15 -4 -30 -4l-30 4v100q14 5 30 5z" />
    <glyph glyph-name="Gcommaaccent" unicode="&#x122;" horiz-adv-x="599" 
d="M530 356v-317q-10 -5 -29 -12t-79 -19t-121 -12q-234 0 -234 159v390q0 79 55 119t179 40t176.5 -40t52.5 -119v-14q-14 -4 -29 -4l-29 4v14q0 59 -38 86.5t-133 27.5t-133 -27.5t-38 -86.5v-390q0 -59 39 -86.5t132 -27.5q46 0 88.5 7.5t61.5 15.5l19 7v246h-156
q-4 9 -4 23l4 22h46q46 0 88.5 -1.5t61.5 -2.5zM319 -49q0 -46 -14.5 -83t-28.5 -52l-14 -14q-8 -4 -16 -4l-17 4q5 6 13 17t21.5 49.5t13.5 82.5q9 4 21 4z" />
    <glyph glyph-name="gcommaaccent" unicode="&#x123;" horiz-adv-x="519" 
d="M390 -51v98q-34 -51 -155 -51q-89 0 -128.5 38.5t-39.5 114.5v202q0 76 34 114.5t111 38.5q52 0 96.5 -13t63.5 -25l18 -13v44q14 5 30 5l30 -5v-548q0 -76 -48 -114.5t-156 -38.5q-45 0 -85 6t-57 12l-18 6q-5 8 -5 21l5 22q63 -25 160 -25q79 0 111.5 26.5t32.5 84.5z
M127 351v-202q0 -58 26 -84.5t91 -26.5q79 0 112.5 27t33.5 84v258q-5 6 -15.5 15t-52 24.5t-93.5 15.5q-56 0 -79 -27t-23 -84zM235 584q0 53 13.5 93.5t26.5 54.5l13 15q8 4 16 4l17 -4q-5 -6 -12.5 -17t-19.5 -53.5t-12 -92.5q-10 -5 -21 -5z" />
    <glyph glyph-name="Hcircumflex" unicode="&#x124;" horiz-adv-x="613" 
d="M545 697v-695q-16 -4 -32 -4l-31 4v334h-351v-334q-15 -4 -31 -4l-31 4v695q14 5 31 5l31 -5v-316h351v316q15 5 31 5zM394 752l-87 88l-88 -88q-12 -4 -22 -4l-22 4l103 115q13 5 28 5l29 -5l104 -115q-10 -4 -23 -4z" />
    <glyph glyph-name="hcircumflex" unicode="&#x125;" 
d="M129 697v-244q7 6 20.5 14.5t60 22.5t99.5 14q78 0 112 -38.5t34 -114.5v-349q-14 -4 -30 -4l-30 4v349q0 58 -23.5 84.5t-80.5 26.5q-52 0 -92.5 -14t-54.5 -28l-15 -13v-405q-15 -4 -30 -4l-30 4v695q14 5 30 5zM316 752l-88 88l-87 -88q-12 -4 -23 -4l-22 4l103 115
q13 5 29 5l29 -5l103 -115q-10 -4 -22 -4z" />
    <glyph glyph-name="Hbar" unicode="&#x126;" horiz-adv-x="678" 
d="M632 522h-55v-520q-16 -4 -31 -4l-32 4v334h-351v-334q-15 -4 -31 -4l-31 4v520h-55q-4 9 -4 22l4 21h55v132q15 5 31 5l31 -5v-132h351v132q15 5 32 5l31 -5v-132h55q4 -9 4 -21zM163 381h351v141h-351v-141z" />
    <glyph glyph-name="hbar" unicode="&#x127;" horiz-adv-x="555" 
d="M345 590h-184v-137q7 6 20.5 14.5t60 22.5t99.5 14q78 0 112.5 -38.5t34.5 -114.5v-349q-15 -4 -30 -4l-30 4v349q0 58 -23.5 84.5t-80.5 26.5q-52 0 -93 -14t-55 -28l-15 -13v-405q-15 -4 -30 -4l-30 4v588h-55q-4 8 -4 20l4 20h58l5 67q12 5 26 5l26 -5v-67h184
q4 -8 4 -20z" />
    <glyph glyph-name="Itilde" unicode="&#x128;" horiz-adv-x="305" 
d="M42 45h79v610h-79q-4 9 -4 22l4 23h221q4 -9 4 -23l-4 -22h-79v-610h79q4 -9 4 -23l-4 -22h-221q-4 9 -4 22zM7 753v4q0 42 17 62t58 20q31 0 53.5 -14.5t40 -28.5t37.5 -14q25 0 35.5 11.5t10.5 36.5v5q9 4 20 4l19 -4v-5q0 -42 -17 -62t-58 -20q-25 0 -45 9t-30.5 19.5
t-25.5 19.5t-30 9q-26 0 -36 -11t-10 -36v-5q-9 -5 -20 -5z" />
    <glyph glyph-name="itilde" unicode="&#x129;" horiz-adv-x="197" 
d="M-47 615v4q0 42 17 62t58 20q31 0 53.5 -14.5t40 -28.5t37.5 -14q25 0 35.5 11.5t10.5 36.5v5q9 4 20 4l19 -4v-5q0 -42 -16.5 -62t-58.5 -20q-31 0 -53.5 14t-40.5 28.5t-37 14.5q-26 0 -36 -11t-10 -36v-5q-9 -5 -20 -5zM129 497v-495q-15 -4 -30 -4l-30 4v495
q14 5 30 5z" />
    <glyph glyph-name="Imacron" unicode="&#x12a;" horiz-adv-x="305" 
d="M42 45h79v610h-79q-4 9 -4 22l4 23h221q4 -9 4 -23l-4 -22h-79v-610h79q4 -9 4 -23l-4 -22h-221q-4 9 -4 22zM269 774h-234q-4 6 -4 17l4 18h234q4 -7 4 -18z" />
    <glyph glyph-name="imacron" unicode="&#x12b;" horiz-adv-x="197" 
d="M129 497v-495q-15 -4 -30 -4l-30 4v495q14 5 30 5zM217 606h-234q-4 7 -4 18l4 17h234q4 -7 4 -17z" />
    <glyph glyph-name="Ibreve" unicode="&#x12c;" horiz-adv-x="305" 
d="M42 45h79v610h-79q-4 9 -4 22l4 23h221q4 -9 4 -23l-4 -22h-79v-610h79q4 -9 4 -23l-4 -22h-221q-4 9 -4 22zM152 748q-68 0 -95.5 24.5t-27.5 74.5v9q10 5 21 5l22 -5v-10q0 -34 18 -49t62 -15t62 15t18 49v10q11 5 22 5l22 -5v-9q0 -50 -28 -74.5t-96 -24.5z" />
    <glyph glyph-name="ibreve" unicode="&#x12d;" horiz-adv-x="197" 
d="M99 589q-68 0 -96 24t-28 74v10q10 4 22 4l22 -4v-10q0 -34 17.5 -49t62.5 -15q44 0 62 15t18 49v10q10 4 21 4l22 -4v-10q0 -50 -27.5 -74t-95.5 -24zM129 497v-495q-15 -4 -30 -4l-30 4v495q14 5 30 5z" />
    <glyph glyph-name="Iogonek" unicode="&#x12e;" horiz-adv-x="305" 
d="M117 -85q0 45 48 85h-123q-4 9 -4 22l4 23h79v610h-79q-4 9 -4 22l4 23h221q4 -9 4 -23l-4 -22h-79v-610h79q4 -9 4 -23l-4 -22h-65q-43 -43 -43 -82q0 -44 50 -44q15 0 29.5 4t21.5 8l7 5q4 -6 4 -16l-4 -14q-21 -19 -66 -19q-80 0 -80 73z" />
    <glyph glyph-name="iogonek" unicode="&#x12f;" horiz-adv-x="197" 
d="M38 -85q0 44 47 84l-16 3v495q14 5 30 5l30 -5v-495q-5 -2 -11 -2q-41 -46 -41 -82q0 -44 49 -44q15 0 29.5 4t21.5 8l7 5q4 -6 4 -16l-4 -14q-21 -19 -65 -19q-81 0 -81 73zM129 697v-100q-15 -4 -30 -4l-30 4v100q14 5 30 5z" />
    <glyph glyph-name="Idotaccent" unicode="&#x130;" horiz-adv-x="305" 
d="M42 45h79v610h-79q-4 9 -4 22l4 23h221q4 -9 4 -23l-4 -22h-79v-610h79q4 -9 4 -23l-4 -22h-221q-4 9 -4 22zM182 853v-100q-15 -5 -30 -5l-30 5v100q15 4 30 4z" />
    <glyph glyph-name="dotlessi" unicode="&#x131;" horiz-adv-x="197" 
d="M129 497v-495q-15 -4 -30 -4l-30 4v495q14 5 30 5z" />
    <glyph glyph-name="IJ" unicode="&#x132;" horiz-adv-x="725" 
d="M42 45h79v610h-79q-4 9 -4 22l4 23h221q4 -9 4 -23l-4 -22h-79v-610h79q4 -9 4 -23l-4 -22h-221q-4 9 -4 22zM656 700v-545q0 -78 -41 -118t-134 -40q-39 0 -71 6.5t-44 12.5l-13 7q-4 9 -4 22l4 23q46 -27 127 -27q63 0 88.5 27.5t25.5 86.5v500h-122q-4 9 -4 22l4 23
h184z" />
    <glyph glyph-name="ij" unicode="&#x133;" horiz-adv-x="399" 
d="M129 497v-495q-15 -4 -30 -4l-30 4v495q14 5 30 5zM129 697v-100q-15 -4 -30 -4l-30 4v100q14 5 30 5zM270 -76v573q14 5 30 5l30 -5v-573q0 -64 -28.5 -96t-93.5 -32q-38 0 -73 10q-4 9 -4 20l4 21q23 -9 56 -9q44 0 61.5 20.5t17.5 65.5zM330 697v-100q-15 -4 -30 -4
l-30 4v100q14 5 30 5z" />
    <glyph glyph-name="Jcircumflex" unicode="&#x134;" horiz-adv-x="470" 
d="M401 697v-542q0 -79 -45.5 -119t-148.5 -40q-48 0 -87.5 11t-55.5 21l-16 11q-4 9 -4 23l4 23q6 -5 18.5 -12.5t54 -19.5t86.5 -12q73 0 102.5 27t29.5 87v542q14 5 31 5zM457 752l-87 88l-88 -88q-11 -4 -22 -4l-22 4l103 115q13 5 29 5l29 -5l103 -115q-10 -4 -22 -4z
" />
    <glyph glyph-name="jcircumflex" unicode="&#x135;" horiz-adv-x="211" 
d="M82 -76v573q15 5 30 5l30 -5v-573q0 -64 -28.5 -96t-92.5 -32q-36 0 -74 10q-3 9 -3 20l3 21q25 -9 57 -9q43 0 60.5 20.5t17.5 65.5zM199 582l-88 88l-87 -88q-12 -4 -23 -4l-22 4l103 115q13 5 29 5l29 -5l103 -115q-10 -4 -22 -4z" />
    <glyph glyph-name="Kcommaaccent" unicode="&#x136;" horiz-adv-x="523" 
d="M430 2l-215 338l-84 -24v-314q-16 -4 -31 -4l-31 4v695q14 5 31 5l31 -5v-334l84 24l206 310q17 5 35 5l33 -5l-220 -334l229 -361q-16 -4 -34 -4zM290 -49q0 -46 -14 -83t-28 -52l-15 -14q-8 -4 -16 -4l-17 4q5 6 13 17t21.5 49.5t13.5 82.5q9 4 21 4z" />
    <glyph glyph-name="kcommaaccent" unicode="&#x137;" horiz-adv-x="443" 
d="M353 2l-159 239l-65 -23v-216q-15 -4 -30 -4l-30 4v695q14 5 30 5l30 -5v-435l65 23l150 212q16 5 33 5l32 -5l-165 -234l174 -261q-15 -4 -32 -4zM258 -49q0 -46 -14 -83t-28 -52l-15 -14q-9 -4 -17 -4l-16 4q5 6 13 17t21 49.5t13 82.5q10 4 22 4z" />
    <glyph glyph-name="Lacute" unicode="&#x139;" horiz-adv-x="487" 
d="M131 697v-652h317q4 -9 4 -23l-4 -22h-184q-52 0 -101 1.5t-71 2.5l-23 2v691q14 5 31 5zM214 875l-125 -123q-11 -4 -22 -4l-22 4l109 123q13 4 30 4z" />
    <glyph glyph-name="lacute" unicode="&#x13a;" horiz-adv-x="237" 
d="M179 38q13 0 25 3q3 -9 3 -20l-3 -19q-24 -6 -43 -6q-92 0 -92 101v600q14 5 30 5l30 -5v-600q0 -30 11 -44.5t39 -14.5zM205 875l-125 -123q-12 -4 -22 -4l-22 4l109 123q13 4 29 4z" />
    <glyph glyph-name="Lcommaaccent" unicode="&#x13b;" horiz-adv-x="487" 
d="M131 697v-652h317q4 -9 4 -23l-4 -22h-184q-52 0 -101 1.5t-71 2.5l-23 2v691q14 5 31 5zM288 -49q0 -46 -14 -83t-28 -52l-15 -14q-9 -4 -17 -4l-16 4q5 6 13 17t21 49.5t13 82.5q10 4 22 4z" />
    <glyph glyph-name="lcommaaccent" unicode="&#x13c;" horiz-adv-x="237" 
d="M179 38q13 0 25 3q3 -9 3 -20l-3 -19q-24 -6 -43 -6q-92 0 -92 101v600q14 5 30 5l30 -5v-600q0 -30 11 -44.5t39 -14.5zM157 -49q0 -46 -14.5 -83t-28.5 -52l-14 -14q-9 -4 -17 -4l-16 4q5 6 13 17t21 49.5t13 82.5q10 4 22 4z" />
    <glyph glyph-name="Lcaron" unicode="&#x13d;" horiz-adv-x="487" 
d="M131 697v-652h317q4 -9 4 -23l-4 -22h-184q-52 0 -101 1.5t-71 2.5l-23 2v691q14 5 31 5zM59 867l87 -87l88 87q11 5 22 5l22 -5l-103 -115q-13 -4 -29 -4l-29 4l-103 115q10 5 22 5z" />
    <glyph glyph-name="lcaron" unicode="&#x13e;" horiz-adv-x="311" 
d="M179 38q13 0 25 3q3 -9 3 -20l-3 -19q-24 -6 -43 -6q-92 0 -92 101v600q14 5 30 5l30 -5v-600q0 -30 11 -44.5t39 -14.5zM314 697q0 -39 -6.5 -72.5t-15 -54t-17.5 -36t-15 -21.5l-7 -6q-9 -4 -18 -4l-17 4q5 7 12.5 20t20.5 62t13 108q11 5 25 5z" />
    <glyph glyph-name="Ldot" unicode="&#x13f;" horiz-adv-x="487" 
d="M131 697v-652h317q4 -9 4 -23l-4 -22h-184q-52 0 -101 1.5t-71 2.5l-23 2v691q14 5 31 5zM379 352v-92q-15 -4 -30 -4l-30 4v92q14 5 30 5z" />
    <glyph glyph-name="ldot" unicode="&#x140;" horiz-adv-x="333" 
d="M179 38q13 0 25 3q3 -9 3 -20l-3 -19q-24 -6 -43 -6q-92 0 -92 101v600q14 5 30 5l30 -5v-600q0 -30 11 -44.5t39 -14.5zM295 352v-92q-15 -4 -30 -4l-30 4v92q14 5 30 5z" />
    <glyph glyph-name="Lslash" unicode="&#x141;" horiz-adv-x="513" 
d="M37 263l57 57v377q15 5 32 5l31 -5v-336l104 105q5 -12 5 -26l-5 -26l-104 -105v-264h317q4 -9 4 -23l-4 -22h-185q-52 0 -100.5 1.5t-71.5 2.5l-23 2v262l-57 -58q-4 13 -4 27z" />
    <glyph glyph-name="lslash" unicode="&#x142;" horiz-adv-x="271" 
d="M37 270l62 62v365q14 5 30 5l30 -5v-328l75 74q4 -11 4 -26l-4 -26l-75 -74v-220q0 -30 11 -44.5t39 -14.5q13 0 25 3q4 -9 4 -20l-4 -19q-24 -6 -42 -6q-93 0 -93 101v182l-62 -61q-4 12 -4 26z" />
    <glyph glyph-name="Nacute" unicode="&#x143;" horiz-adv-x="616" 
d="M69 2v695q13 5 27 5l28 -5l363 -581v581q14 5 30 5l30 -5v-695q-13 -4 -27 -4l-28 4l-363 582v-582q-15 -4 -30 -4zM414 875l-124 -123q-12 -4 -23 -4l-22 4l109 123q14 4 30 4z" />
    <glyph glyph-name="nacute" unicode="&#x144;" horiz-adv-x="526" 
d="M129 497v-44q7 6 20.5 14.5t60.5 22.5t101 14q78 0 113 -38.5t35 -114.5v-349q-15 -4 -30 -4l-30 4v349q0 58 -23.5 84.5t-81.5 26.5q-53 0 -94.5 -14t-55.5 -28l-15 -13v-405q-15 -4 -30 -4l-30 4v495q14 5 30 5zM369 697l-125 -122q-11 -4 -22 -4l-22 4l109 122
q13 5 30 5z" />
    <glyph glyph-name="Ncommaaccent" unicode="&#x145;" horiz-adv-x="616" 
d="M69 2v695q13 5 27 5l28 -5l363 -581v581q14 5 30 5l30 -5v-695q-13 -4 -27 -4l-28 4l-363 582v-582q-15 -4 -30 -4zM328 -49q0 -46 -14.5 -83t-29.5 -52l-14 -14q-8 -4 -16 -4l-16 4q5 6 13 17t21 49.5t13 82.5q10 4 21 4z" />
    <glyph glyph-name="ncommaaccent" unicode="&#x146;" horiz-adv-x="526" 
d="M129 497v-44q7 6 20.5 14.5t60.5 22.5t101 14q78 0 113 -38.5t35 -114.5v-349q-15 -4 -30 -4l-30 4v349q0 58 -23.5 84.5t-81.5 26.5q-53 0 -94.5 -14t-55.5 -28l-15 -13v-405q-15 -4 -30 -4l-30 4v495q14 5 30 5zM287 -49q0 -46 -14.5 -83t-28.5 -52l-15 -14
q-8 -4 -16 -4l-16 4q5 6 13 17t21 49.5t13 82.5q10 4 21 4z" />
    <glyph glyph-name="Ncaron" unicode="&#x147;" horiz-adv-x="616" 
d="M69 2v695q13 5 27 5l28 -5l363 -581v581q14 5 30 5l30 -5v-695q-13 -4 -27 -4l-28 4l-363 582v-582q-15 -4 -30 -4zM220 867l87 -87l88 87q12 5 22 5l22 -5l-103 -115q-13 -4 -28 -4l-29 4l-104 115q10 5 23 5z" />
    <glyph glyph-name="ncaron" unicode="&#x148;" horiz-adv-x="526" 
d="M129 497v-44q7 6 20.5 14.5t60.5 22.5t101 14q78 0 113 -38.5t35 -114.5v-349q-15 -4 -30 -4l-30 4v349q0 58 -23.5 84.5t-81.5 26.5q-53 0 -94.5 -14t-55.5 -28l-15 -13v-405q-15 -4 -30 -4l-30 4v495q14 5 30 5zM175 697l88 -87l87 87q12 5 23 5l22 -5l-103 -115
q-13 -4 -29 -4l-29 4l-103 115q10 5 22 5z" />
    <glyph glyph-name="Eng" unicode="&#x14a;" horiz-adv-x="616" 
d="M487 -76v87l-358 573v-582q-15 -4 -30 -4l-30 4v695q13 5 27 5l28 -5l363 -581v581q14 5 30 5l30 -5v-773q0 -64 -28.5 -96t-92.5 -32q-39 0 -74 10q-4 9 -4 20l4 21q25 -9 56 -9q44 0 61.5 20.5t17.5 65.5z" />
    <glyph glyph-name="eng" unicode="&#x14b;" horiz-adv-x="526" 
d="M399 -76v427q0 58 -23.5 84.5t-81.5 26.5q-53 0 -94.5 -14t-55.5 -28l-15 -13v-405q-15 -4 -30 -4l-30 4v495q14 5 30 5l30 -5v-44q7 6 20.5 14.5t60.5 22.5t101 14q78 0 113 -38.5t35 -114.5v-427q0 -64 -28.5 -96t-93.5 -32q-38 0 -73 10q-4 9 -4 20l4 21q23 -9 56 -9
q44 0 61.5 21t17.5 65z" />
    <glyph glyph-name="Omacron" unicode="&#x14c;" horiz-adv-x="612" 
d="M67 155v390q0 159 239 159t239 -159v-390q0 -159 -239 -159t-239 159zM130 545v-390q0 -59 40.5 -86.5t135.5 -27.5t135.5 27.5t40.5 86.5v390q0 59 -40.5 86.5t-135.5 27.5t-135.5 -27.5t-40.5 -86.5zM423 774h-234q-4 6 -4 17l4 18h234q4 -7 4 -18z" />
    <glyph glyph-name="omacron" unicode="&#x14d;" horiz-adv-x="532" 
d="M67 149v202q0 153 199 153t199 -153v-202q0 -153 -199 -153t-199 153zM127 351v-202q0 -57 32 -84t107 -27t107 27t32 84v202q0 57 -32 84t-107 27t-107 -27t-32 -84zM383 606h-234q-4 7 -4 18l4 17h234q4 -7 4 -17z" />
    <glyph glyph-name="Obreve" unicode="&#x14e;" horiz-adv-x="612" 
d="M67 155v390q0 159 239 159t239 -159v-390q0 -159 -239 -159t-239 159zM130 545v-390q0 -59 40.5 -86.5t135.5 -27.5t135.5 27.5t40.5 86.5v390q0 59 -40.5 86.5t-135.5 27.5t-135.5 -27.5t-40.5 -86.5zM306 748q-68 0 -96 24.5t-28 74.5v9q11 5 22 5l22 -5v-10
q0 -34 17.5 -49t62.5 -15q44 0 62 15t18 49v10q10 5 22 5l22 -5v-9q0 -50 -28 -74.5t-96 -24.5z" />
    <glyph glyph-name="obreve" unicode="&#x14f;" horiz-adv-x="532" 
d="M67 149v202q0 153 199 153t199 -153v-202q0 -153 -199 -153t-199 153zM127 351v-202q0 -57 32 -84t107 -27t107 27t32 84v202q0 57 -32 84t-107 27t-107 -27t-32 -84zM266 589q-68 0 -96 24t-28 74v10q11 4 22 4l22 -4v-10q0 -34 17.5 -49t62.5 -15q44 0 62 15t18 49v10
q10 4 22 4l22 -4v-10q0 -50 -28 -74t-96 -24z" />
    <glyph glyph-name="Ohungarumlaut" unicode="&#x150;" horiz-adv-x="612" 
d="M67 155v390q0 159 239 159t239 -159v-390q0 -159 -239 -159t-239 159zM130 545v-390q0 -59 40.5 -86.5t135.5 -27.5t135.5 27.5t40.5 86.5v390q0 59 -40.5 86.5t-135.5 27.5t-135.5 -27.5t-40.5 -86.5zM330 875l-124 -123q-12 -4 -22 -4l-23 4l109 123q14 4 30 4z
M496 875l-125 -123q-11 -4 -22 -4l-22 4l109 123q13 4 30 4z" />
    <glyph glyph-name="ohungarumlaut" unicode="&#x151;" horiz-adv-x="532" 
d="M67 149v202q0 153 199 153t199 -153v-202q0 -153 -199 -153t-199 153zM127 351v-202q0 -57 32 -84t107 -27t107 27t32 84v202q0 57 -32 84t-107 27t-107 -27t-32 -84zM290 697l-124 -122q-12 -4 -22 -4l-23 4l109 122q14 5 30 5zM456 697l-125 -122q-11 -4 -22 -4l-22 4
l109 122q13 5 30 5z" />
    <glyph glyph-name="OE" unicode="&#x152;" horiz-adv-x="841" 
d="M794 0h-167q-136 0 -166 6q-50 -10 -155 -10q-239 0 -239 159v390q0 78 57 118t182 40q74 0 155 -9q66 6 166 6h162q4 -9 4 -23l-4 -22h-304v-273h271q4 -9 4 -22l-4 -23h-271v-292h309q4 -9 4 -23zM424 41v618h-118q-95 0 -135.5 -27.5t-40.5 -86.5v-390
q0 -59 40.5 -86.5t135.5 -27.5h118z" />
    <glyph glyph-name="oe" unicode="&#x153;" horiz-adv-x="860" 
d="M67 149v202q0 153 199 153q135 0 168 -77q33 77 166 77q104 0 148 -38.5t44 -114.5v-112q-62 -8 -163 -8h-164v-82q0 -58 32 -84.5t112 -26.5q48 0 91 9t62 19l18 9q5 -8 5 -22l-5 -21q-6 -4 -18.5 -10t-56.5 -16t-96 -10q-140 0 -174 78q-33 -78 -169 -78
q-199 0 -199 153zM127 351v-202q0 -57 32 -84t107 -27t107 27t32 84v202q0 57 -32 84t-107 27t-107 -27t-32 -84zM465 274h270v77q0 57 -30.5 84t-104.5 27q-75 0 -105 -26.5t-30 -84.5v-77z" />
    <glyph glyph-name="Racute" unicode="&#x154;" horiz-adv-x="569" 
d="M458 2l-172 311h-9l-146 4v-315q-16 -4 -31 -4l-31 4v694q82 7 208 7q117 0 170.5 -40t53.5 -118v-74q0 -131 -153 -154l176 -315q-15 -4 -33 -4zM131 659v-302h146q87 0 124.5 27.5t37.5 86.5v74q0 59 -37.5 86.5t-124.5 27.5h-146zM388 875l-124 -123q-12 -4 -22 -4
l-23 4l109 123q14 4 30 4z" />
    <glyph glyph-name="racute" unicode="&#x155;" horiz-adv-x="360" 
d="M129 497v-64l7.5 7.5t22 17t37.5 22t52.5 17t67.5 7.5q4 -9 4 -22l-4 -22q-37 0 -70 -9.5t-53.5 -22.5t-35.5 -26t-21 -22l-7 -10v-368q-15 -4 -30 -4l-30 4v495q14 5 30 5zM293 697l-124 -122q-12 -4 -23 -4l-22 4l109 122q14 5 30 5z" />
    <glyph glyph-name="Rcommaaccent" unicode="&#x156;" horiz-adv-x="569" 
d="M458 2l-172 311h-9l-146 4v-315q-16 -4 -31 -4l-31 4v694q82 7 208 7q117 0 170.5 -40t53.5 -118v-74q0 -131 -153 -154l176 -315q-15 -4 -33 -4zM131 659v-302h146q87 0 124.5 27.5t37.5 86.5v74q0 59 -37.5 86.5t-124.5 27.5h-146zM313 -49q0 -46 -14.5 -83t-28.5 -52
l-14 -14q-8 -4 -16 -4l-17 4q5 6 13 17t21.5 49.5t13.5 82.5q9 4 21 4z" />
    <glyph glyph-name="rcommaaccent" unicode="&#x157;" horiz-adv-x="360" 
d="M129 497v-64l7.5 7.5t22 17t37.5 22t52.5 17t67.5 7.5q4 -9 4 -22l-4 -22q-37 0 -70 -9.5t-53.5 -22.5t-35.5 -26t-21 -22l-7 -10v-368q-15 -4 -30 -4l-30 4v495q14 5 30 5zM150 -49q0 -46 -14.5 -83t-29.5 -52l-14 -14q-8 -4 -16 -4l-16 4q5 6 13 17t21 49.5t13 82.5
q10 4 21 4z" />
    <glyph glyph-name="Rcaron" unicode="&#x158;" horiz-adv-x="569" 
d="M458 2l-172 311h-9l-146 4v-315q-16 -4 -31 -4l-31 4v694q82 7 208 7q117 0 170.5 -40t53.5 -118v-74q0 -131 -153 -154l176 -315q-15 -4 -33 -4zM131 659v-302h146q87 0 124.5 27.5t37.5 86.5v74q0 59 -37.5 86.5t-124.5 27.5h-146zM187 867l87 -87l88 87q11 5 22 5
l22 -5l-103 -115q-13 -4 -29 -4l-29 4l-103 115q10 5 22 5z" />
    <glyph glyph-name="rcaron" unicode="&#x159;" horiz-adv-x="360" 
d="M129 497v-64l7.5 7.5t22 17t37.5 22t52.5 17t67.5 7.5q4 -9 4 -22l-4 -22q-37 0 -70 -9.5t-53.5 -22.5t-35.5 -26t-21 -22l-7 -10v-368q-15 -4 -30 -4l-30 4v495q14 5 30 5zM103 697l87 -87l88 87q11 5 22 5l22 -5l-103 -115q-13 -4 -29 -4l-29 4l-103 115q10 5 22 5z
" />
    <glyph glyph-name="Sacute" unicode="&#x15a;" horiz-adv-x="558" 
d="M121 545v-51q0 -36 28 -60.5t70 -36t91 -26.5t91 -31t70 -50.5t28 -83.5v-51q0 -79 -52 -119t-171 -40q-121 0 -171.5 39.5t-50.5 119.5v14q15 4 30 4l31 -4v-14q0 -59 36.5 -86.5t124.5 -27.5t124.5 27.5t36.5 86.5v51q0 39 -28 65t-70 38.5t-91 27t-91 29.5t-70 48
t-28 80v51q0 79 51 119t167 40q117 0 165 -39.5t48 -119.5v-14q-14 -4 -30 -4l-31 4v14q0 59 -34.5 86.5t-117.5 27.5q-85 0 -120.5 -27.5t-35.5 -86.5zM386 875l-125 -123q-12 -4 -22 -4l-22 4l109 123q13 4 29 4z" />
    <glyph glyph-name="sacute" unicode="&#x15b;" horiz-adv-x="493" 
d="M121 367v-20q0 -30 31 -45t92 -27q40 -8 66.5 -15t58 -21t47.5 -35.5t16 -51.5v-20q0 -68 -44 -102.5t-144 -34.5q-102 0 -145 37t-43 111v6q14 4 30 4l29 -4v-6q0 -54 29 -80t99 -26t99.5 23.5t29.5 71.5v20q0 33 -34 50t-94 28q-31 6 -51 10.5t-47.5 14.5t-43.5 21.5
t-28 29.5t-12 41v20q0 68 42.5 102.5t139.5 34.5q98 0 138.5 -37t40.5 -111v-6q-14 -4 -29 -4l-30 4v6q0 54 -27.5 80t-92.5 26q-67 0 -95 -23.5t-28 -71.5zM352 697l-124 -122q-12 -4 -22 -4l-23 4l109 122q14 5 30 5z" />
    <glyph glyph-name="Scircumflex" unicode="&#x15c;" horiz-adv-x="558" 
d="M121 545v-51q0 -36 28 -60.5t70 -36t91 -26.5t91 -31t70 -50.5t28 -83.5v-51q0 -79 -52 -119t-171 -40q-121 0 -171.5 39.5t-50.5 119.5v14q15 4 30 4l31 -4v-14q0 -59 36.5 -86.5t124.5 -27.5t124.5 27.5t36.5 86.5v51q0 39 -28 65t-70 38.5t-91 27t-91 29.5t-70 48
t-28 80v51q0 79 51 119t167 40q117 0 165 -39.5t48 -119.5v-14q-14 -4 -30 -4l-31 4v14q0 59 -34.5 86.5t-117.5 27.5q-85 0 -120.5 -27.5t-35.5 -86.5zM366 752l-87 88l-88 -88q-11 -4 -22 -4l-22 4l103 115q13 5 29 5l29 -5l103 -115q-10 -4 -22 -4z" />
    <glyph glyph-name="scircumflex" unicode="&#x15d;" horiz-adv-x="493" 
d="M121 367v-20q0 -30 31 -45t92 -27q40 -8 66.5 -15t58 -21t47.5 -35.5t16 -51.5v-20q0 -68 -44 -102.5t-144 -34.5q-102 0 -145 37t-43 111v6q14 4 30 4l29 -4v-6q0 -54 29 -80t99 -26t99.5 23.5t29.5 71.5v20q0 33 -34 50t-94 28q-31 6 -51 10.5t-47.5 14.5t-43.5 21.5
t-28 29.5t-12 41v20q0 68 42.5 102.5t139.5 34.5q98 0 138.5 -37t40.5 -111v-6q-14 -4 -29 -4l-30 4v6q0 54 -27.5 80t-92.5 26q-67 0 -95 -23.5t-28 -71.5zM334 582l-88 88l-87 -88q-12 -4 -22 -4l-23 4l104 115q13 5 28 5l29 -5l103 -115q-9 -4 -22 -4z" />
    <glyph glyph-name="Scedilla" unicode="&#x15e;" horiz-adv-x="558" 
d="M121 545v-51q0 -36 28 -60.5t70 -36t91 -26.5t91 -31t70 -50.5t28 -83.5v-51q0 -76 -48 -115.5t-156 -42.5v-9q0 -15 12.5 -23.5t28 -11.5t28 -13.5t12.5 -29.5v-8q0 -66 -87 -66q-49 0 -67.5 16.5t-18.5 50.5v5q10 2 19 2l18 -2v-5q0 -22 10 -30t39 -8q28 0 38 8t10 29
v8q0 11 -12.5 17.5t-28 9.5t-28 16t-12.5 35v9q-110 3 -156 42t-46 116v14q15 4 30 4l31 -4v-14q0 -59 36.5 -86.5t124.5 -27.5t124.5 27.5t36.5 86.5v51q0 39 -28 65t-70 38.5t-91 27t-91 29.5t-70 48t-28 80v51q0 79 51 119t167 40q117 0 165 -39.5t48 -119.5v-14
q-14 -4 -30 -4l-31 4v14q0 59 -34.5 86.5t-117.5 27.5q-85 0 -120.5 -27.5t-35.5 -86.5z" />
    <glyph glyph-name="scedilla" unicode="&#x15f;" horiz-adv-x="493" 
d="M121 367v-20q0 -30 31 -45t92 -27q40 -8 66.5 -15t58 -21t47.5 -35.5t16 -51.5v-20q0 -65 -41 -99.5t-133 -37.5v-7q0 -15 12.5 -23.5t28 -11.5t28 -13.5t12.5 -29.5v-8q0 -66 -87 -66q-49 0 -67.5 16.5t-18.5 50.5v5q10 2 19 2l18 -2v-5q0 -22 10 -30t39 -8q28 0 38 8
t10 29v8q0 11 -12.5 17.5t-28 9.5t-28 16t-12.5 35v8q-88 4 -125.5 40.5t-37.5 106.5v6q14 4 30 4l29 -4v-6q0 -54 29 -80t99 -26t99.5 23.5t29.5 71.5v20q0 33 -34 50t-94 28q-31 6 -51 10.5t-47.5 14.5t-43.5 21.5t-28 29.5t-12 41v20q0 68 42.5 102.5t139.5 34.5
q98 0 138.5 -37t40.5 -111v-6q-14 -4 -29 -4l-30 4v6q0 54 -27.5 80t-92.5 26q-67 0 -95 -23.5t-28 -71.5z" />
    <glyph glyph-name="Scaron" unicode="&#x160;" horiz-adv-x="558" 
d="M121 545v-51q0 -36 28 -60.5t70 -36t91 -26.5t91 -31t70 -50.5t28 -83.5v-51q0 -79 -52 -119t-171 -40q-121 0 -171.5 39.5t-50.5 119.5v14q15 4 30 4l31 -4v-14q0 -59 36.5 -86.5t124.5 -27.5t124.5 27.5t36.5 86.5v51q0 39 -28 65t-70 38.5t-91 27t-91 29.5t-70 48
t-28 80v51q0 79 51 119t167 40q117 0 165 -39.5t48 -119.5v-14q-14 -4 -30 -4l-31 4v14q0 59 -34.5 86.5t-117.5 27.5q-85 0 -120.5 -27.5t-35.5 -86.5zM191 867l88 -87l87 87q12 5 23 5l22 -5l-103 -115q-13 -4 -29 -4l-29 4l-103 115q10 5 22 5z" />
    <glyph glyph-name="scaron" unicode="&#x161;" horiz-adv-x="493" 
d="M121 367v-20q0 -30 31 -45t92 -27q40 -8 66.5 -15t58 -21t47.5 -35.5t16 -51.5v-20q0 -68 -44 -102.5t-144 -34.5q-102 0 -145 37t-43 111v6q14 4 30 4l29 -4v-6q0 -54 29 -80t99 -26t99.5 23.5t29.5 71.5v20q0 33 -34 50t-94 28q-31 6 -51 10.5t-47.5 14.5t-43.5 21.5
t-28 29.5t-12 41v20q0 68 42.5 102.5t139.5 34.5q98 0 138.5 -37t40.5 -111v-6q-14 -4 -29 -4l-30 4v6q0 54 -27.5 80t-92.5 26q-67 0 -95 -23.5t-28 -71.5zM159 697l87 -87l88 87q12 5 22 5l22 -5l-103 -115q-13 -4 -28 -4l-29 4l-104 115q10 5 23 5z" />
    <glyph glyph-name="Tcommaaccent" unicode="&#x162;" horiz-adv-x="553" 
d="M510 655h-203v-653q-15 -4 -31 -4l-31 4v653h-207q-4 9 -4 22l4 23h472q4 -9 4 -23zM299 -49q0 -46 -14.5 -83t-28.5 -52l-14 -14q-9 -4 -17 -4l-16 4q5 6 13 17t21 49.5t13 82.5q10 4 22 4z" />
    <glyph glyph-name="tcommaaccent" unicode="&#x163;" horiz-adv-x="382" 
d="M313 457h-152v-326q0 -48 21.5 -70.5t73.5 -22.5q29 0 57 10q3 -9 3 -20l-3 -20q-45 -12 -74 -12q-73 0 -105.5 34t-32.5 101v326h-55q-4 9 -4 22l4 21h58l5 97q12 5 26 5l26 -5v-97h152q4 -9 4 -21zM233 -49q0 -46 -14.5 -83t-28.5 -52l-14 -14q-9 -4 -17 -4l-16 4
q5 6 13 17t21 49.5t13 82.5q10 4 22 4z" />
    <glyph glyph-name="Tcaron" unicode="&#x164;" horiz-adv-x="553" 
d="M510 655h-203v-653q-15 -4 -31 -4l-31 4v653h-207q-4 9 -4 22l4 23h472q4 -9 4 -23zM188 867l88 -87l87 87q12 5 23 5l22 -5l-103 -115q-13 -4 -29 -4l-29 4l-103 115q10 5 22 5z" />
    <glyph glyph-name="tcaron" unicode="&#x165;" horiz-adv-x="454" 
d="M313 457h-152v-326q0 -48 21.5 -70.5t73.5 -22.5q29 0 57 10q3 -9 3 -20l-3 -20q-45 -12 -74 -12q-73 0 -105.5 34t-32.5 101v326h-55q-4 9 -4 22l4 21h58l5 97q12 5 26 5l26 -5v-97h152q4 -9 4 -21zM456 697q0 -39 -6.5 -72.5t-15 -54t-17.5 -36t-15 -21.5l-7 -6
q-9 -4 -17 -4l-18 4q5 7 12.5 20t20.5 62t13 108q12 5 25 5z" />
    <glyph glyph-name="Tbar" unicode="&#x166;" horiz-adv-x="553" 
d="M476 349h-169v-347q-15 -4 -31 -4l-31 4v347h-169q-4 8 -4 21l4 21h169v264h-207q-4 9 -4 22l4 23h472q4 -9 4 -23l-4 -22h-203v-264h169q4 -8 4 -21z" />
    <glyph glyph-name="tbar" unicode="&#x167;" horiz-adv-x="382" 
d="M313 317h-152v-186q0 -48 21.5 -70.5t73.5 -22.5q29 0 57 10q3 -9 3 -20l-3 -20q-45 -12 -74 -12q-73 0 -105.5 34t-32.5 101v186h-55q-4 8 -4 20l4 20h55v103h-55q-4 8 -4 20l4 20h58l5 97q12 5 26 5l26 -5v-97h152q4 -8 4 -20l-4 -20h-152v-103h152q4 -8 4 -20z" />
    <glyph glyph-name="Utilde" unicode="&#x168;" horiz-adv-x="606" 
d="M538 697v-542q0 -159 -235 -159q-234 0 -234 159v542q14 5 31 5l31 -5v-542q0 -59 39.5 -86.5t132.5 -27.5t132.5 27.5t39.5 86.5v542q15 5 31 5zM158 753v4q0 42 17 62t58 20q31 0 53 -14.5t40 -28.5t38 -14q25 0 35.5 11.5t10.5 36.5v5q9 4 19 4l20 -4v-5
q0 -42 -17 -62t-58 -20q-25 0 -45 9t-30.5 19.5t-25.5 19.5t-30 9q-26 0 -36.5 -11t-10.5 -36v-5q-9 -5 -19 -5z" />
    <glyph glyph-name="utilde" unicode="&#x169;" 
d="M395 2v44q-7 -6 -20.5 -14t-60 -22t-99.5 -14q-78 0 -112 38.5t-34 114.5v348q14 5 30 5l30 -5v-348q0 -58 23 -84.5t80 -26.5q52 0 93 14t55 28l15 13v404q15 5 30 5l30 -5v-495q-14 -4 -30 -4zM115 615v4q0 42 17 62t58 20q31 0 53.5 -14.5t40 -28.5t37.5 -14
q25 0 35.5 11.5t10.5 36.5v5q9 4 20 4l19 -4v-5q0 -42 -16.5 -62t-58.5 -20q-31 0 -53.5 14t-40.5 28.5t-37 14.5q-26 0 -36 -11t-10 -36v-5q-9 -5 -20 -5z" />
    <glyph glyph-name="Umacron" unicode="&#x16a;" horiz-adv-x="606" 
d="M538 697v-542q0 -159 -235 -159q-234 0 -234 159v542q14 5 31 5l31 -5v-542q0 -59 39.5 -86.5t132.5 -27.5t132.5 27.5t39.5 86.5v542q15 5 31 5zM420 774h-234q-4 6 -4 17l4 18h234q4 -7 4 -18z" />
    <glyph glyph-name="umacron" unicode="&#x16b;" 
d="M395 2v44q-7 -6 -20.5 -14t-60 -22t-99.5 -14q-78 0 -112 38.5t-34 114.5v348q14 5 30 5l30 -5v-348q0 -58 23 -84.5t80 -26.5q52 0 93 14t55 28l15 13v404q15 5 30 5l30 -5v-495q-14 -4 -30 -4zM378 606h-234q-4 7 -4 18l4 17h234q4 -7 4 -17z" />
    <glyph glyph-name="Ubreve" unicode="&#x16c;" horiz-adv-x="606" 
d="M538 697v-542q0 -159 -235 -159q-234 0 -234 159v542q14 5 31 5l31 -5v-542q0 -59 39.5 -86.5t132.5 -27.5t132.5 27.5t39.5 86.5v542q15 5 31 5zM303 748q-68 0 -96 24.5t-28 74.5v9q11 5 22 5l22 -5v-10q0 -34 17.5 -49t62.5 -15q44 0 62 15t18 49v10q10 5 22 5l22 -5
v-9q0 -50 -28 -74.5t-96 -24.5z" />
    <glyph glyph-name="ubreve" unicode="&#x16d;" 
d="M395 2v44q-7 -6 -20.5 -14t-60 -22t-99.5 -14q-78 0 -112 38.5t-34 114.5v348q14 5 30 5l30 -5v-348q0 -58 23 -84.5t80 -26.5q52 0 93 14t55 28l15 13v404q15 5 30 5l30 -5v-495q-14 -4 -30 -4zM261 589q-68 0 -96 24t-28 74v10q10 4 22 4l22 -4v-10q0 -34 17.5 -49
t62.5 -15q44 0 62 15t18 49v10q10 4 21 4l22 -4v-10q0 -50 -27.5 -74t-95.5 -24z" />
    <glyph glyph-name="Uring" unicode="&#x16e;" horiz-adv-x="606" 
d="M538 697v-542q0 -159 -235 -159q-234 0 -234 159v542q14 5 31 5l31 -5v-542q0 -59 39.5 -86.5t132.5 -27.5t132.5 27.5t39.5 86.5v542q15 5 31 5zM223 811v17q0 67 80 67t80 -67v-17q0 -67 -80 -67t-80 67zM254 828v-17q0 -39 49 -39t49 39v17q0 39 -49 39t-49 -39z" />
    <glyph glyph-name="uring" unicode="&#x16f;" 
d="M395 2v44q-7 -6 -20.5 -14t-60 -22t-99.5 -14q-78 0 -112 38.5t-34 114.5v348q14 5 30 5l30 -5v-348q0 -58 23 -84.5t80 -26.5q52 0 93 14t55 28l15 13v404q15 5 30 5l30 -5v-495q-14 -4 -30 -4zM181 619v17q0 67 80 67t80 -67v-17q0 -67 -80 -67t-80 67zM212 636v-17
q0 -39 49 -39q48 0 48 39v17q0 39 -48 39q-49 0 -49 -39z" />
    <glyph glyph-name="Uhungarumlaut" unicode="&#x170;" horiz-adv-x="606" 
d="M538 697v-542q0 -159 -235 -159q-234 0 -234 159v542q14 5 31 5l31 -5v-542q0 -59 39.5 -86.5t132.5 -27.5t132.5 27.5t39.5 86.5v542q15 5 31 5zM327 875l-124 -123q-12 -4 -22 -4l-23 4l109 123q14 4 30 4zM493 875l-125 -123q-11 -4 -22 -4l-22 4l109 123q13 4 30 4z
" />
    <glyph glyph-name="uhungarumlaut" unicode="&#x171;" 
d="M395 2v44q-7 -6 -20.5 -14t-60 -22t-99.5 -14q-78 0 -112 38.5t-34 114.5v348q14 5 30 5l30 -5v-348q0 -58 23 -84.5t80 -26.5q52 0 93 14t55 28l15 13v404q15 5 30 5l30 -5v-495q-14 -4 -30 -4zM285 697l-125 -122q-11 -4 -22 -4l-22 4l109 122q13 5 30 5zM450 697
l-124 -122q-12 -4 -22 -4l-23 4l109 122q14 5 30 5z" />
    <glyph glyph-name="Uogonek" unicode="&#x172;" horiz-adv-x="606" 
d="M307 -85q0 41 45 83q-30 -2 -49 -2q-234 0 -234 159v542q14 5 31 5l31 -5v-542q0 -59 39.5 -86.5t132.5 -27.5t132.5 27.5t39.5 86.5v542q15 5 31 5l32 -5v-542q0 -127 -148 -153q-45 -45 -45 -84q0 -44 50 -44q15 0 29.5 4t21.5 8l7 5q3 -6 3 -16l-3 -14
q-21 -19 -66 -19q-80 0 -80 73z" />
    <glyph glyph-name="uogonek" unicode="&#x173;" 
d="M364 -85q0 41 47 84l-16 3v44q-7 -6 -20.5 -14t-60 -22t-99.5 -14q-78 0 -112 38.5t-34 114.5v348q14 5 30 5l30 -5v-348q0 -58 23 -84.5t80 -26.5q52 0 93 14t55 28l15 13v404q15 5 30 5l30 -5v-495q-4 -1 -9 -2q-43 -43 -43 -82q0 -44 49 -44q16 0 30.5 4t21.5 8l7 5
q3 -6 3 -16l-3 -14q-22 -19 -66 -19q-81 0 -81 73z" />
    <glyph glyph-name="Wcircumflex" unicode="&#x174;" horiz-adv-x="935" 
d="M631 2l-164 633l-162 -633q-20 -4 -43 -4l-42 4l-190 695q15 5 31 5l32 -5l171 -637l165 637q16 5 38 5l39 -5l166 -637l171 637q16 5 31 5l31 -5l-189 -695q-20 -4 -43 -4zM554 752l-87 88l-88 -88q-11 -4 -22 -4l-22 4l103 115q13 5 29 5l29 -5l103 -115q-10 -4 -22 -4
z" />
    <glyph glyph-name="wcircumflex" unicode="&#x175;" horiz-adv-x="777" 
d="M516 2l-128 435l-126 -435q-18 -4 -40 -4l-40 4l-152 495q15 5 29 5l31 -5l134 -444l129 444q15 5 35 5l37 -5l129 -444l134 444q15 5 30 5l30 -5l-152 -495q-19 -4 -40 -4zM476 582l-88 88l-87 -88q-12 -4 -23 -4l-22 4l103 115q13 5 29 5l29 -5l103 -115q-10 -4 -22 -4
z" />
    <glyph glyph-name="Ycircumflex" unicode="&#x176;" horiz-adv-x="562" 
d="M532 697l-220 -395v-300q-15 -4 -31 -4l-31 4v300l-220 395q17 5 34 5l35 -5l182 -336l182 336q18 5 35 5zM369 752l-88 88l-87 -88q-12 -4 -23 -4l-22 4l103 115q13 5 29 5l29 -5l103 -115q-10 -4 -22 -4z" />
    <glyph glyph-name="ycircumflex" unicode="&#x177;" horiz-adv-x="506" 
d="M210 -78l30 77l-18 3l-185 495q15 5 30 5l30 -5l162 -442l161 442q15 5 30 5l30 -5l-215 -573q-24 -66 -57.5 -97t-90.5 -31q-13 0 -24.5 1.5t-16.5 2.5l-6 2q-5 8 -5 21l5 20q16 -5 46 -5q35 0 56.5 20.5t37.5 63.5zM340 582l-87 88l-88 -88q-12 -4 -22 -4l-22 4
l103 115q13 5 28 5l29 -5l104 -115q-10 -4 -23 -4z" />
    <glyph glyph-name="Ydieresis" unicode="&#x178;" horiz-adv-x="562" 
d="M532 697l-220 -395v-300q-15 -4 -31 -4l-31 4v300l-220 395q17 5 34 5l35 -5l182 -336l182 336q18 5 35 5zM201 849v-97q-11 -4 -25 -4l-25 4v97q11 4 25 4zM411 849v-97q-11 -4 -25 -4l-25 4v97q11 4 25 4z" />
    <glyph glyph-name="Zacute" unicode="&#x179;" horiz-adv-x="552" 
d="M499 655l-377 -609h377q4 -9 4 -23l-4 -23h-446q-4 9 -4 22l4 23l376 608h-376q-4 10 -4 24l4 23h446q4 -9 4 -23zM382 875l-124 -123q-12 -4 -22 -4l-23 4l109 123q14 4 30 4z" />
    <glyph glyph-name="zacute" unicode="&#x17a;" horiz-adv-x="472" 
d="M419 457l-300 -413h300q4 -9 4 -22l-4 -22h-366q-4 8 -4 21l4 21l300 414h-300q-4 9 -4 22l4 22h366q4 -9 4 -21zM342 697l-124 -122q-12 -4 -22 -4l-23 4l109 122q14 5 30 5z" />
    <glyph glyph-name="Zdotaccent" unicode="&#x17b;" horiz-adv-x="552" 
d="M499 655l-377 -609h377q4 -9 4 -23l-4 -23h-446q-4 9 -4 22l4 23l376 608h-376q-4 10 -4 24l4 23h446q4 -9 4 -23zM306 853v-100q-15 -5 -30 -5l-30 5v100q14 4 30 4z" />
    <glyph glyph-name="zdotaccent" unicode="&#x17c;" horiz-adv-x="472" 
d="M419 457l-300 -413h300q4 -9 4 -22l-4 -22h-366q-4 8 -4 21l4 21l300 414h-300q-4 9 -4 22l4 22h366q4 -9 4 -21zM266 697v-100q-15 -4 -30 -4l-30 4v100q14 5 30 5z" />
    <glyph glyph-name="Zcaron" unicode="&#x17d;" horiz-adv-x="552" 
d="M499 655l-377 -609h377q4 -9 4 -23l-4 -23h-446q-4 9 -4 22l4 23l376 608h-376q-4 10 -4 24l4 23h446q4 -9 4 -23zM188 867l88 -87l87 87q12 5 22 5l23 -5l-104 -115q-13 -4 -28 -4l-29 4l-103 115q9 5 22 5z" />
    <glyph glyph-name="zcaron" unicode="&#x17e;" horiz-adv-x="472" 
d="M419 457l-300 -413h300q4 -9 4 -22l-4 -22h-366q-4 8 -4 21l4 21l300 414h-300q-4 9 -4 22l4 22h366q4 -9 4 -21zM148 697l88 -87l87 87q12 5 22 5l23 -5l-104 -115q-13 -4 -28 -4l-29 4l-103 115q9 5 22 5z" />
    <glyph glyph-name="longs" unicode="&#x17f;" horiz-adv-x="337" 
d="M169 569v-566q-14 -5 -30 -5l-30 5v457h-55q-4 8 -4 21l4 21h55v67q0 66 32 100.5t104 34.5q41 0 78 -10q3 -9 3 -20l-3 -21q-25 9 -60 9q-52 0 -73 -22.5t-21 -70.5z" />
    <glyph glyph-name="uni018F" unicode="&#x18f;" horiz-adv-x="600" 
d="M266 374h204v171q0 59 -38 86.5t-132 27.5t-132 -27.5t-38 -86.5v-14q-14 -4 -29 -4l-29 4v14q0 79 52.5 119t175.5 40t177.5 -40t54.5 -119v-390q0 -79 -54.5 -119t-177.5 -40q-124 0 -176.5 40t-52.5 119v211q74 8 195 8zM131 331v-176q0 -60 37.5 -87t131.5 -27
t132 27t38 87v176h-339z" />
    <glyph glyph-name="florin" unicode="&#x192;" horiz-adv-x="357" 
d="M109 -76v536h-55q-4 8 -4 21l4 21h55v67q0 66 32 100.5t104 34.5q41 0 78 -10q3 -9 3 -20l-3 -21q-25 9 -60 9q-52 0 -73 -22.5t-21 -70.5v-67h154q4 -8 4 -21l-4 -21h-154v-536q0 -64 -28.5 -96t-93.5 -32q-38 0 -73 10q-4 9 -4 20l4 21q23 -9 56 -9q44 0 61.5 20.5
t17.5 65.5z" />
    <glyph glyph-name="uni01DD" unicode="&#x1dd;" 
d="M455 351v-202q0 -76 -46 -114.5t-149 -38.5q-105 0 -149 38.5t-44 114.5v120q63 7 164 7h164v75q0 58 -32.5 84.5t-111.5 26.5q-49 0 -91.5 -9.5t-61 -18t-18.5 -10.5l-1 3q-1 3 -2.5 8t-1.5 11l5 22q6 4 18.5 10t56.5 16t96 10q108 0 156 -38.5t48 -114.5zM395 234h-270
v-85q0 -58 30 -84.5t105 -26.5q74 0 104.5 27t30.5 84v85z" />
    <glyph glyph-name="AEacute" unicode="&#x1fc;" horiz-adv-x="731" 
d="M374 337v-292h310q4 -9 4 -23l-4 -22h-177q-52 0 -101 1.5t-72 2.5l-22 2v193h-158l-65 -197q-16 -4 -32 -4l-30 4l228 693q102 5 252 5h172q4 -9 4 -23l-4 -22h-305v-273h271q4 -9 4 -22l-4 -23h-271zM301 655l-136 -411h147v411h-11zM530 875l-125 -123q-12 -4 -22 -4
l-22 4l109 123q13 4 29 4z" />
    <glyph glyph-name="aeacute" unicode="&#x1fd;" horiz-adv-x="826" 
d="M202 -4q-71 0 -103 33t-32 97v17q0 60 41.5 92.5t136.5 42.5l142 15v62q0 55 -29 81t-99 26q-69 0 -97.5 -26t-28.5 -80v-13q-13 -4 -28 -4l-29 4v13q0 74 41.5 111t141.5 37q127 0 158 -76q33 76 157 76q100 0 142 -38.5t42 -114.5v-112q-59 -8 -155 -8h-156v-82
q0 -58 30.5 -84.5t105.5 -26.5q46 0 87 9t58 19l18 9q5 -8 5 -22l-5 -21q-6 -4 -17.5 -10t-54 -16t-91.5 -10q-137 0 -168 82q-42 -82 -213 -82zM387 251l-134 -14q-69 -8 -97.5 -30.5t-28.5 -63.5v-17q0 -45 21 -66.5t73 -21.5q89 0 127.5 27t38.5 84v102zM447 274h254v77
q0 57 -28.5 84t-98.5 27t-98.5 -27t-28.5 -84v-77zM524 697l-124 -122q-12 -4 -23 -4l-22 4l109 122q14 5 30 5z" />
    <glyph glyph-name="Oslashacute" unicode="&#x1fe;" horiz-adv-x="612" 
d="M562 697l-43 -64q26 -35 26 -88v-390q0 -159 -239 -159q-122 0 -182 40l-22 -34q-14 -4 -26 -4l-27 4l43 65q-25 33 -25 88v390q0 159 239 159q121 0 181 -40l22 33q12 5 27 5zM485 545q0 11 -4 31l-328 -497q39 -40 153 -40q97 0 138 28t41 88v390zM127 545v-390
q0 -16 3 -31l328 496q-40 40 -152 40q-97 0 -138 -28t-41 -87zM413 875l-124 -123q-12 -4 -23 -4l-22 4l109 123q14 4 30 4z" />
    <glyph glyph-name="oslashacute" unicode="&#x1ff;" horiz-adv-x="532" 
d="M457 497l-29 -41q37 -38 37 -105v-202q0 -153 -199 -153q-91 0 -139 30l-16 -24q-12 -4 -22 -4l-23 4l33 47q-32 36 -32 100v202q0 153 199 153q83 0 132 -27l14 20q10 5 23 5zM410 351q0 36 -13 61l-243 -348q32 -28 112 -28q78 0 111 27t33 86v202zM122 351v-202
q0 -35 9 -54l241 345q-34 24 -106 24q-78 0 -111 -27.5t-33 -85.5zM373 697l-124 -122q-12 -4 -23 -4l-22 4l109 122q14 5 30 5z" />
    <glyph glyph-name="Scommaaccent" unicode="&#x218;" horiz-adv-x="558" 
d="M121 545v-51q0 -36 28 -60.5t70 -36t91 -26.5t91 -31t70 -50.5t28 -83.5v-51q0 -79 -52 -119t-171 -40q-121 0 -171.5 39.5t-50.5 119.5v14q15 4 30 4l31 -4v-14q0 -59 36.5 -86.5t124.5 -27.5t124.5 27.5t36.5 86.5v51q0 39 -28 65t-70 38.5t-91 27t-91 29.5t-70 48
t-28 80v51q0 79 51 119t167 40q117 0 165 -39.5t48 -119.5v-14q-14 -4 -30 -4l-31 4v14q0 59 -34.5 86.5t-117.5 27.5q-85 0 -120.5 -27.5t-35.5 -86.5zM295 -49q0 -46 -14.5 -83t-28.5 -52l-14 -14q-8 -4 -16 -4l-16 4q5 6 13 17t21 49.5t13 82.5q10 4 21 4z" />
    <glyph glyph-name="scommaaccent" unicode="&#x219;" horiz-adv-x="493" 
d="M121 367v-20q0 -30 31 -45t92 -27q40 -8 66.5 -15t58 -21t47.5 -35.5t16 -51.5v-20q0 -68 -44 -102.5t-144 -34.5q-102 0 -145 37t-43 111v6q14 4 30 4l29 -4v-6q0 -54 29 -80t99 -26t99.5 23.5t29.5 71.5v20q0 33 -34 50t-94 28q-31 6 -51 10.5t-47.5 14.5t-43.5 21.5
t-28 29.5t-12 41v20q0 68 42.5 102.5t139.5 34.5q98 0 138.5 -37t40.5 -111v-6q-14 -4 -29 -4l-30 4v6q0 54 -27.5 80t-92.5 26q-67 0 -95 -23.5t-28 -71.5zM268 -49q0 -46 -14.5 -83t-29.5 -52l-14 -14q-8 -4 -16 -4l-16 4q5 6 13 17t21 49.5t13 82.5q10 4 21 4z" />
    <glyph glyph-name="uni021A" unicode="&#x21a;" horiz-adv-x="553" 
d="M510 655h-203v-653q-15 -4 -31 -4l-31 4v653h-207q-4 9 -4 22l4 23h472q4 -9 4 -23zM299 -49q0 -46 -14.5 -83t-28.5 -52l-14 -14q-9 -4 -17 -4l-16 4q5 6 13 17t21 49.5t13 82.5q10 4 22 4z" />
    <glyph glyph-name="uni021B" unicode="&#x21b;" horiz-adv-x="382" 
d="M313 457h-152v-326q0 -48 21.5 -70.5t73.5 -22.5q29 0 57 10q3 -9 3 -20l-3 -20q-45 -12 -74 -12q-73 0 -105.5 34t-32.5 101v326h-55q-4 9 -4 22l4 21h58l5 97q12 5 26 5l26 -5v-97h152q4 -9 4 -21zM233 -49q0 -46 -14.5 -83t-28.5 -52l-14 -14q-9 -4 -17 -4l-16 4
q5 6 13 17t21 49.5t13 82.5q10 4 22 4z" />
    <glyph glyph-name="dotlessj" unicode="&#x237;" horiz-adv-x="211" 
d="M82 -76v573q15 5 30 5l30 -5v-573q0 -64 -28.5 -96t-92.5 -32q-36 0 -74 10q-3 9 -3 20l3 21q25 -9 57 -9q43 0 60.5 20.5t17.5 65.5z" />
    <glyph glyph-name="circumflex" unicode="&#x2c6;" horiz-adv-x="197" 
d="M186 582l-87 88l-88 -88q-12 -4 -22 -4l-22 4l103 115q13 5 28 5l29 -5l104 -115q-10 -4 -23 -4z" />
    <glyph glyph-name="caron" unicode="&#x2c7;" horiz-adv-x="197" 
d="M11 697l88 -87l87 87q12 5 22 5l23 -5l-104 -115q-13 -4 -28 -4l-29 4l-103 115q9 5 22 5z" />
    <glyph glyph-name="breve" unicode="&#x2d8;" horiz-adv-x="411" 
d="M205 589q-68 0 -96 24t-28 74v10q10 4 22 4l22 -4v-10q0 -34 17.5 -49t62.5 -15q44 0 62 15t18 49v10q10 4 22 4l22 -4v-10q0 -50 -28 -74t-96 -24z" />
    <glyph glyph-name="dotaccent" unicode="&#x2d9;" horiz-adv-x="197" 
d="M129 697v-100q-15 -4 -30 -4l-30 4v100q14 5 30 5z" />
    <glyph glyph-name="ring" unicode="&#x2da;" horiz-adv-x="310" 
d="M75 619v17q0 67 80 67t80 -67v-17q0 -67 -80 -67t-80 67zM106 636v-17q0 -39 49 -39t49 39v17q0 39 -49 39t-49 -39z" />
    <glyph glyph-name="ogonek" unicode="&#x2db;" horiz-adv-x="152" 
d="M1 -85q0 21 13.5 43t26.5 34l13 11h32q-46 -44 -46 -85q0 -44 49 -44q16 0 30.5 4t21.5 8l7 5q3 -6 3 -16l-3 -14q-22 -19 -66 -19q-81 0 -81 73z" />
    <glyph glyph-name="tilde" unicode="&#x2dc;" horiz-adv-x="396" 
d="M52 615v4q0 41 17 61.5t58 20.5q39 0 74 -28.5t57 -28.5q26 0 36.5 11.5t10.5 36.5v5q9 4 19 4l19 -4v-5q0 -42 -16.5 -62t-58.5 -20q-31 0 -53.5 14t-40.5 28.5t-37 14.5q-26 0 -36 -11t-10 -36v-5q-9 -5 -19 -5z" />
    <glyph glyph-name="hungarumlaut" unicode="&#x2dd;" horiz-adv-x="197" 
d="M101 697l-125 -122q-12 -4 -22 -4l-22 4l109 122q13 5 29 5zM266 697l-124 -122q-12 -4 -23 -4l-22 4l109 122q14 5 30 5z" />
    <glyph glyph-name="uni0400" unicode="&#x400;" horiz-adv-x="524" 
d="M131 337v-292h347q4 -9 4 -23l-4 -22h-214q-52 0 -101 1.5t-71 2.5l-23 2v687q77 7 195 7h209q4 -9 4 -23l-4 -22h-342v-273h309q4 -9 4 -22l-4 -23h-309zM297 752l-124 123q14 4 30 4l30 -4l109 -123q-10 -4 -22 -4z" />
    <glyph glyph-name="afii10023" unicode="&#x401;" horiz-adv-x="524" 
d="M131 337v-292h347q4 -9 4 -23l-4 -22h-214q-52 0 -101 1.5t-71 2.5l-23 2v687q77 7 195 7h209q4 -9 4 -23l-4 -22h-342v-273h309q4 -9 4 -22l-4 -23h-309zM200 849v-96q-11 -5 -25 -5l-25 5v96q11 4 25 4zM410 849v-96q-11 -5 -25 -5l-25 5v96q11 4 25 4z" />
    <glyph glyph-name="afii10051" unicode="&#x402;" horiz-adv-x="716" 
d="M586 124v163q0 58 -24.5 84.5t-85.5 26.5q-114 0 -169 -55v-341q-15 -4 -31 -4l-31 4v653h-207q-4 9 -4 22l4 23h472q4 -9 4 -23l-4 -22h-203v-263q7 6 21 14.5t62.5 22.5t102.5 14q83 0 119 -39.5t36 -116.5v-163q0 -64 -29 -96t-94 -32q-39 0 -74 10q-4 9 -4 20l4 21
q23 -9 56 -9q44 0 61.5 20.5t17.5 65.5z" />
    <glyph glyph-name="afii10052" unicode="&#x403;" horiz-adv-x="477" 
d="M363 875l-125 -123q-12 -4 -22 -4l-22 4l109 123q13 4 29 4zM131 655v-653q-15 -4 -31 -4l-31 4v691q77 7 195 7h174q4 -9 4 -23l-4 -22h-307z" />
    <glyph glyph-name="afii10053" unicode="&#x404;" horiz-adv-x="588" 
d="M67 155v390q0 79 54.5 119t177.5 40t175.5 -40t52.5 -119v-14q-14 -4 -29 -4l-28 4v14q0 59 -38 86.5t-133 27.5q-93 0 -131 -27.5t-38 -86.5v-165h316q4 -9 4 -23l-4 -22h-316v-180q0 -60 39 -87t136 -27q60 0 112.5 11t74.5 22l23 11q5 -8 5 -23l-5 -23q-8 -5 -23 -12
t-69 -19t-118 -12q-126 0 -182 40t-56 119z" />
    <glyph glyph-name="afii10054" unicode="&#x405;" horiz-adv-x="566" 
d="M121 545v-51q0 -36 28 -60.5t70 -36t91 -26.5t91 -31t70 -50.5t28 -83.5v-51q0 -79 -52 -119t-171 -40q-121 0 -171.5 39.5t-50.5 119.5v14q15 4 30 4l31 -4v-14q0 -59 36.5 -86.5t124.5 -27.5t124.5 27.5t36.5 86.5v51q0 39 -28 65t-70 38.5t-91 27t-91 29.5t-70 48
t-28 80v51q0 79 51 119t167 40q117 0 165 -39.5t48 -119.5v-14q-14 -4 -30 -4l-31 4v14q0 59 -34.5 86.5t-117.5 27.5q-85 0 -120.5 -27.5t-35.5 -86.5z" />
    <glyph glyph-name="afii10055" unicode="&#x406;" horiz-adv-x="305" 
d="M42 45h79v610h-79q-4 9 -4 22l4 23h221q4 -9 4 -23l-4 -22h-79v-610h79q4 -9 4 -23l-4 -22h-221q-4 9 -4 22z" />
    <glyph glyph-name="afii10056" unicode="&#x407;" horiz-adv-x="305" 
d="M90 849v-97q-12 -4 -25 -4l-25 4v97q11 4 25 4zM265 849v-97q-12 -4 -25 -4l-25 4v97q11 4 25 4zM42 45h79v610h-79q-4 9 -4 22l4 23h221q4 -9 4 -23l-4 -22h-79v-610h79q4 -9 4 -23l-4 -22h-221q-4 9 -4 22z" />
    <glyph glyph-name="afii10057" unicode="&#x408;" horiz-adv-x="485" 
d="M416 697v-542q0 -79 -45.5 -119t-148.5 -40q-48 0 -88 11t-56 21l-15 11q-4 9 -4 23l4 23q6 -5 18.5 -12.5t54 -19.5t86.5 -12q73 0 102.5 27t29.5 87v542q14 5 31 5z" />
    <glyph glyph-name="afii10058" unicode="&#x409;" horiz-adv-x="984" 
d="M497 4v651h-236l-68 -503q-11 -81 -43.5 -118.5t-112.5 -37.5q-4 9 -4 22l4 23q51 0 69.5 25t26.5 86l73 542q70 8 176 8q48 0 92.5 -2t65.5 -4l20 -2v-298q62 3 149 3q115 0 167.5 -42t52.5 -124v-71q0 -166 -220 -166q-55 0 -108 2t-79 4zM560 355v-314h149
q84 0 120.5 29.5t36.5 91.5v71q0 63 -36.5 92.5t-120.5 29.5h-149z" />
    <glyph glyph-name="afii10059" unicode="&#x40a;" horiz-adv-x="968" 
d="M482 4v332h-351v-334q-15 -4 -31 -4l-31 4v695q14 5 31 5l31 -5v-316h351v316q15 5 31 5l32 -5v-301q62 3 148 3q115 0 167.5 -42t52.5 -124v-71q0 -166 -220 -166q-55 0 -107.5 2t-77.5 4zM545 355v-314h148q85 0 121.5 29.5t36.5 91.5v71q0 63 -36.5 92.5t-121.5 29.5
h-148z" />
    <glyph glyph-name="afii10060" unicode="&#x40b;" horiz-adv-x="716" 
d="M510 655h-203v-263q7 6 21 14.5t62.5 22.5t102.5 14q83 0 119 -39.5t36 -116.5v-285q-15 -4 -31 -4l-31 4v285q0 58 -24.5 84.5t-85.5 26.5q-114 0 -169 -55v-341q-15 -4 -31 -4l-31 4v653h-207q-4 9 -4 22l4 23h472q4 -9 4 -23z" />
    <glyph glyph-name="afii10061" unicode="&#x40c;" horiz-adv-x="523" 
d="M430 2l-215 338l-84 -24v-314q-16 -4 -31 -4l-31 4v695q14 5 31 5l31 -5v-334l84 24l206 310q17 5 35 5l33 -5l-220 -334l229 -361q-16 -4 -34 -4zM368 875l-125 -123q-11 -4 -22 -4l-22 4l109 123q13 4 30 4z" />
    <glyph glyph-name="uni040D" unicode="&#x40d;" horiz-adv-x="620" 
d="M327 752l-124 123q14 4 30 4l30 -4l109 -123q-10 -4 -23 -4zM550 697v-695q-16 -4 -32 -4l-31 4v584l-363 -584q-14 -4 -28 -4l-27 4v695q14 5 31 5l31 -5v-583l364 583q13 5 27 5z" />
    <glyph glyph-name="afii10062" unicode="&#x40e;" horiz-adv-x="569" 
d="M291 748q-68 0 -95.5 24.5t-27.5 74.5v9q10 5 21 5l22 -5v-10q0 -34 18 -49t62 -15t62 15t18 49v10q11 5 22 5l22 -5v-9q0 -50 -28 -74.5t-96 -24.5zM241 123l31 78l-21 3l-214 493q16 5 31 5l31 -5l192 -442l189 442q16 5 32 5l31 -5l-244 -573q-27 -66 -63.5 -97
t-98.5 -31q-15 0 -28.5 1.5t-19.5 2.5l-6 2q-4 9 -4 22l4 22q20 -5 54 -5q73 0 104 82z" />
    <glyph glyph-name="afii10145" unicode="&#x40f;" horiz-adv-x="611" 
d="M281 -143v141q-57 0 -110 2t-77 4l-25 2v691q14 5 31 5l31 -5v-652h349v652q16 5 31 5l32 -5v-691q-83 -6 -210 -8v-141q-12 -4 -26 -4z" />
    <glyph glyph-name="afii10017" unicode="&#x410;" horiz-adv-x="596" 
d="M27 2l229 695q19 5 42 5l42 -5l229 -695q-16 -4 -30 -4l-32 4l-65 197h-288l-65 -197q-16 -4 -32 -4zM298 646l-132 -402h264z" />
    <glyph glyph-name="afii10018" unicode="&#x411;" horiz-adv-x="565" 
d="M131 655v-256q65 4 155 4q117 0 170.5 -42t53.5 -124v-75q0 -165 -224 -165q-56 0 -110.5 1.5t-80.5 3.5l-26 2v689q77 7 195 7h212q4 -9 4 -23l-4 -22h-345zM131 359v-318h155q87 0 124 29.5t37 91.5v75q0 63 -37 92.5t-124 29.5h-155z" />
    <glyph glyph-name="afii10019" unicode="&#x412;" horiz-adv-x="570" 
d="M69 4v692q90 7 217 7q112 0 163.5 -41.5t51.5 -121.5v-40q0 -111 -110 -140q124 -29 124 -145v-52q0 -167 -229 -167q-56 0 -110.5 2t-80.5 4zM131 337v-296h155q90 0 128 29.5t38 92.5v52q0 63 -38 92.5t-128 29.5h-155zM131 659v-278h155q83 0 118 29t35 90v40
q0 61 -35 90t-118 29h-155z" />
    <glyph glyph-name="afii10020" unicode="&#x413;" horiz-adv-x="477" 
d="M131 655v-653q-15 -4 -31 -4l-31 4v691q77 7 195 7h174q4 -9 4 -23l-4 -22h-307z" />
    <glyph glyph-name="afii10021" unicode="&#x414;" horiz-adv-x="681" 
d="M35 -143v184q54 0 73.5 25t27.5 86l74 542q69 8 176 8q47 0 91.5 -2t65.5 -4l21 -2v-649l82 -4v-184q-12 -4 -26 -4l-26 4v143h-507v-143q-12 -4 -26 -4zM153 45h348v610h-238l-68 -503q-12 -80 -42 -107z" />
    <glyph glyph-name="afii10022" unicode="&#x415;" horiz-adv-x="524" 
d="M131 337v-292h347q4 -9 4 -23l-4 -22h-214q-52 0 -101 1.5t-71 2.5l-23 2v687q77 7 195 7h209q4 -9 4 -23l-4 -22h-342v-273h309q4 -9 4 -22l-4 -23h-309z" />
    <glyph glyph-name="afii10024" unicode="&#x416;" horiz-adv-x="774" 
d="M276 342l-183 -340q-18 -4 -34 -4l-34 4l197 364l-184 331q16 5 33 5l35 -5l170 -308l80 -24v332q15 5 31 5l31 -5v-332l80 24l171 308q16 5 34 5l33 -5l-184 -331l197 -364q-16 -4 -34 -4l-34 4l-183 340l-80 -24v-316q-14 -4 -31 -4l-31 4v316z" />
    <glyph glyph-name="afii10025" unicode="&#x417;" horiz-adv-x="552" 
d="M273 704q210 0 210 -164v-40q0 -111 -110 -140q124 -29 124 -145v-52q0 -167 -229 -167q-61 0 -112 11t-72 21l-20 11q-5 9 -5 23l5 23q8 -5 24 -12.5t68.5 -19.5t110.5 -12q91 0 129 29.5t38 92.5v52q0 62 -38 91.5t-128 29.5h-86q-4 9 -4 23l4 22h86q82 0 117 29t35 90
v40q0 61 -34 90t-113 29q-91 0 -128 -26.5t-37 -83.5v-14q-13 -5 -28 -5l-29 5v14q0 77 51 116t171 39z" />
    <glyph glyph-name="afii10026" unicode="&#x418;" horiz-adv-x="618" 
d="M550 697v-695q-16 -4 -32 -4l-31 4v584l-363 -584q-14 -4 -28 -4l-27 4v695q14 5 31 5l31 -5v-583l364 583q13 5 27 5z" />
    <glyph glyph-name="afii10027" unicode="&#x419;" horiz-adv-x="618" 
d="M309 748q-68 0 -96 24.5t-28 74.5v9q10 5 22 5l22 -5v-10q0 -34 17.5 -49t62.5 -15q44 0 62 15t18 49v10q10 5 22 5l22 -5v-9q0 -50 -28 -74.5t-96 -24.5zM550 697v-695q-16 -4 -32 -4l-31 4v584l-363 -584q-14 -4 -28 -4l-27 4v695q14 5 31 5l31 -5v-583l364 583
q13 5 27 5z" />
    <glyph glyph-name="afii10028" unicode="&#x41a;" horiz-adv-x="523" 
d="M430 2l-215 338l-84 -24v-314q-16 -4 -31 -4l-31 4v695q14 5 31 5l31 -5v-334l84 24l206 310q17 5 35 5l33 -5l-220 -334l229 -361q-16 -4 -34 -4z" />
    <glyph glyph-name="afii10029" unicode="&#x41b;" horiz-adv-x="629" 
d="M133 152l73 542q70 8 176 8q48 0 92.5 -2t65.5 -4l20 -2v-692q-15 -4 -31 -4l-32 4v653h-236l-68 -503q-11 -81 -43.5 -118.5t-112.5 -37.5q-4 9 -4 22l4 23q51 0 69.5 25t26.5 86z" />
    <glyph glyph-name="afii10030" unicode="&#x41c;" horiz-adv-x="763" 
d="M687 698v-695q-15 -5 -30 -5l-30 5v597l-221 -480q-13 -4 -29 -4l-31 4l-217 479v-597q-15 -5 -30 -5l-30 5v695q18 4 39 4l39 -4l229 -502l232 503q18 4 39 4z" />
    <glyph glyph-name="afii10031" unicode="&#x41d;" horiz-adv-x="613" 
d="M545 697v-695q-16 -4 -32 -4l-31 4v334h-351v-334q-15 -4 -31 -4l-31 4v695q14 5 31 5l31 -5v-316h351v316q15 5 31 5z" />
    <glyph glyph-name="afii10032" unicode="&#x41e;" horiz-adv-x="612" 
d="M67 155v390q0 159 239 159t239 -159v-390q0 -159 -239 -159t-239 159zM130 545v-390q0 -59 40.5 -86.5t135.5 -27.5t135.5 27.5t40.5 86.5v390q0 59 -40.5 86.5t-135.5 27.5t-135.5 -27.5t-40.5 -86.5z" />
    <glyph glyph-name="afii10033" unicode="&#x41f;" horiz-adv-x="611" 
d="M100 -2l-31 4v692q93 8 236 8q63 0 122.5 -2t87.5 -4l28 -2v-692q-15 -4 -32 -4l-31 4v653h-349v-653q-15 -4 -31 -4z" />
    <glyph glyph-name="afii10034" unicode="&#x420;" horiz-adv-x="565" 
d="M69 696q82 7 208 7q117 0 170.5 -40t53.5 -118v-74q0 -78 -53.5 -118t-170.5 -40l-146 4v-315q-16 -4 -31 -4l-31 4v694zM131 659v-302h146q87 0 124.5 27.5t37.5 86.5v74q0 59 -37.5 86.5t-124.5 27.5h-146z" />
    <glyph glyph-name="afii10035" unicode="&#x421;" horiz-adv-x="588" 
d="M67 155v390q0 79 54.5 119t177.5 40t175.5 -40t52.5 -119v-14q-14 -4 -29 -4l-28 4v14q0 59 -38 86.5t-133 27.5q-93 0 -131 -27.5t-38 -86.5v-390q0 -60 39 -87t136 -27q60 0 112.5 11t74.5 22l23 11q5 -8 5 -23l-5 -23q-8 -5 -23 -12t-69 -19t-118 -12q-126 0 -182 40
t-56 119z" />
    <glyph glyph-name="afii10036" unicode="&#x422;" horiz-adv-x="553" 
d="M510 655h-203v-653q-15 -4 -31 -4l-31 4v653h-207q-4 9 -4 22l4 23h472q4 -9 4 -23z" />
    <glyph glyph-name="afii10037" unicode="&#x423;" horiz-adv-x="569" 
d="M241 123l31 78l-21 3l-214 493q16 5 31 5l31 -5l192 -442l189 442q16 5 32 5l31 -5l-244 -573q-27 -66 -63.5 -97t-98.5 -31q-15 0 -28.5 1.5t-19.5 2.5l-6 2q-4 9 -4 22l4 22q20 -5 54 -5q73 0 104 82z" />
    <glyph glyph-name="afii10038" unicode="&#x424;" horiz-adv-x="692" 
d="M311 2v71q-259 0 -259 159v235q0 160 259 160v70q15 5 31 5l32 -5v-70q258 0 258 -160v-235q0 -159 -258 -159v-71q-16 -4 -32 -4zM570 232v235q0 59 -45 87t-151 28v-464q106 0 151 27.5t45 86.5zM115 467v-235q0 -59 45.5 -86.5t150.5 -27.5v464q-106 0 -151 -28
t-45 -87z" />
    <glyph glyph-name="afii10039" unicode="&#x425;" horiz-adv-x="562" 
d="M470 2l-189 313l-188 -313q-19 -4 -35 -4l-34 4l216 352l-210 343q17 5 34 5l35 -5l182 -304l182 304q18 5 35 5l34 -5l-209 -343l215 -352q-18 -4 -35 -4z" />
    <glyph glyph-name="afii10040" unicode="&#x426;" horiz-adv-x="660" 
d="M573 -143v143h-308q-52 0 -101 1.5t-72 2.5l-23 2v691q14 5 31 5l31 -5v-652h349v652q16 5 31 5l32 -5v-652l82 -4v-184q-12 -4 -26 -4z" />
    <glyph glyph-name="afii10041" unicode="&#x427;" horiz-adv-x="587" 
d="M456 2v325q-8 -6 -24 -14.5t-71.5 -23t-117.5 -14.5q-94 0 -135 39t-41 116v266q15 5 31 5l32 -5v-266q0 -57 28.5 -83.5t99.5 -26.5q63 0 113.5 14.5t64.5 24t20 15.5v322q15 5 31 5l31 -5v-694q-14 -4 -31 -4z" />
    <glyph glyph-name="afii10042" unicode="&#x428;" horiz-adv-x="870" 
d="M770 702l32 -5v-691q-78 -6 -195 -6h-342q-52 0 -101 1.5t-72 2.5l-23 2v691q14 5 31 5l31 -5v-652h273v652q15 5 31 5l31 -5v-652h273v652q16 5 31 5z" />
    <glyph glyph-name="afii10043" unicode="&#x429;" horiz-adv-x="919" 
d="M832 -143v143h-567q-52 0 -101 2t-72 4l-23 1v690q14 5 31 5l31 -5v-652h273v652q15 5 31 5l31 -5v-652h273v652q16 5 31 5l32 -5v-652l82 -4v-184q-12 -4 -26 -4z" />
    <glyph glyph-name="afii10044" unicode="&#x42a;" horiz-adv-x="707" 
d="M211 4v651h-180q-4 9 -4 22l4 23h48q52 0 100.5 -2t71.5 -4l23 -1v-297q64 3 155 3q117 0 170 -42t53 -124v-71q0 -166 -223 -166q-57 0 -111.5 2t-80.5 4zM274 355v-314h155q87 0 124 29.5t37 91.5v71q0 63 -37 92.5t-124 29.5h-155z" />
    <glyph glyph-name="afii10045" unicode="&#x42b;" horiz-adv-x="742" 
d="M69 4v693q14 5 31 5l31 -5v-301q65 3 155 3q117 0 170.5 -42t53.5 -124v-71q0 -166 -224 -166q-56 0 -110.5 2t-80.5 4zM131 355v-314h155q87 0 124 29.5t37 91.5v71q0 63 -37 92.5t-124 29.5h-155zM674 697v-695q-16 -4 -32 -4l-31 4v695q15 5 31 5z" />
    <glyph glyph-name="afii10046" unicode="&#x42c;" horiz-adv-x="565" 
d="M69 4v693q14 5 31 5l31 -5v-301q65 3 155 3q117 0 170.5 -42t53.5 -124v-71q0 -166 -224 -166q-56 0 -110.5 2t-80.5 4zM131 355v-314h155q87 0 124 29.5t37 91.5v71q0 63 -37 92.5t-124 29.5h-155z" />
    <glyph glyph-name="afii10047" unicode="&#x42d;" horiz-adv-x="588" 
d="M521 545v-390q0 -79 -56 -119t-182 -40q-63 0 -115.5 11t-73.5 21l-21 11q-5 9 -5 23l5 23q9 -5 25 -12.5t70.5 -19.5t114.5 -12q97 0 136 27t39 87v180h-255q-4 9 -4 22l4 23h255v165q0 59 -37.5 86.5t-131.5 27.5q-95 0 -133 -27.5t-38 -86.5v-14q-13 -4 -28 -4l-29 4
v14q0 79 52.5 119t175.5 40t177.5 -40t54.5 -119z" />
    <glyph glyph-name="afii10048" unicode="&#x42e;" horiz-adv-x="795" 
d="M284 155v181h-153v-334q-15 -4 -31 -4l-31 4v695q14 5 31 5l31 -5v-316h153v164q0 159 221 159q116 0 168.5 -40.5t52.5 -118.5v-390q0 -78 -52.5 -118.5t-168.5 -40.5q-221 0 -221 159zM346 545v-390q0 -59 36.5 -86.5t122.5 -27.5t122.5 27.5t36.5 86.5v390
q0 59 -36.5 86.5t-122.5 27.5t-122.5 -27.5t-36.5 -86.5z" />
    <glyph glyph-name="afii10049" unicode="&#x42f;" horiz-adv-x="567" 
d="M499 696v-694q-15 -4 -32 -4l-31 4v312q-64 -4 -155 -4l-173 -308q-18 -4 -34 -4l-33 4l178 311q-164 20 -164 163v61q0 82 53.5 124t170.5 42q57 0 112 -1.5t81 -3.5zM436 355v304h-157q-87 0 -124.5 -29.5t-37.5 -92.5v-61q0 -62 37.5 -91.5t124.5 -29.5h157z" />
    <glyph glyph-name="afii10065" unicode="&#x430;" horiz-adv-x="516" 
d="M387 2v44q-7 -6 -20.5 -14t-61.5 -22t-103 -14q-71 0 -103 33t-32 97v17q0 60 41.5 92.5t136.5 42.5l142 15v62q0 55 -29 81t-99 26q-69 0 -97.5 -26t-28.5 -80v-13q-13 -4 -28 -4l-29 4v13q0 74 41.5 111t141.5 37t144 -37.5t44 -111.5v-353q-14 -4 -30 -4zM387 251
l-134 -14q-69 -8 -97.5 -30.5t-28.5 -63.5v-17q0 -45 21 -66.5t73 -21.5q53 0 94.5 14t56.5 28l15 13v158z" />
    <glyph glyph-name="afii10066" unicode="&#x431;" horiz-adv-x="528" 
d="M127 453q7 6 21 14.5t61.5 22.5t101.5 14q79 0 114 -38.5t35 -114.5v-202q0 -75 -47 -114t-150 -39q-196 0 -196 153v389q0 76 46 114.5t151 38.5q45 0 84.5 5t57.5 10l17 5q4 -8 4 -21l-4 -22q-61 -20 -157 -20q-76 0 -107.5 -26.5t-31.5 -83.5v-85zM127 407v-258
q0 -57 31.5 -84t105.5 -27t105.5 27t31.5 84v202q0 58 -23.5 84.5t-82.5 26.5q-54 0 -96 -14t-57 -28z" />
    <glyph glyph-name="afii10067" unicode="&#x432;" horiz-adv-x="495" 
d="M69 4v492q75 8 184 8q170 0 170 -128v-15q0 -78 -69 -105q87 -23 87 -113v-14q0 -133 -188 -133q-45 0 -91 2t-70 4zM253 234h-124v-195h124q69 0 98.5 22.5t29.5 67.5v14q0 45 -29.5 68t-98.5 23zM129 276h124q59 0 84.5 21t25.5 64v15q0 43 -25.5 64t-84.5 21h-124
v-185z" />
    <glyph glyph-name="afii10068" unicode="&#x433;" horiz-adv-x="403" 
d="M129 457v-455q-15 -4 -30 -4l-30 4v491q77 7 195 7h101q4 -9 4 -21l-4 -22h-236z" />
    <glyph glyph-name="afii10069" unicode="&#x434;" horiz-adv-x="580" 
d="M36 -123v161q50 4 68.5 29.5t25.5 86.5l44 340q58 8 149 8q40 0 78 -2t55 -4l18 -2v-452l71 -3v-162q-12 -4 -26 -4l-26 4v123h-405v-123q-12 -4 -26 -4zM224 457l-38 -304q-10 -82 -40 -111h268v415h-190z" />
    <glyph glyph-name="afii10070" unicode="&#x435;" 
d="M67 149v202q0 76 46 114.5t149 38.5q105 0 149 -38.5t44 -114.5v-112q-63 -8 -164 -8h-164v-82q0 -58 32.5 -84.5t111.5 -26.5q48 0 91 9t62 19l19 9q4 -8 4 -22l-4 -21q-6 -4 -18.5 -10t-57 -16t-96.5 -10q-108 0 -156 38.5t-48 114.5zM127 274h270v77q0 58 -30 84.5
t-105 26.5q-74 0 -104.5 -27t-30.5 -84v-77z" />
    <glyph glyph-name="afii10072" unicode="&#x436;" horiz-adv-x="656" 
d="M25 2l160 261l-148 234q13 5 30 5l33 -5l134 -212l64 -27v239q14 5 30 5l30 -5v-239l64 27l134 212q16 5 33 5l30 -5l-147 -234l159 -261q-14 -4 -31 -4l-33 4l-145 239l-64 -28v-211q-15 -4 -30 -4l-30 4v211l-64 28l-145 -239q-17 -4 -33 -4z" />
    <glyph glyph-name="afii10073" unicode="&#x437;" horiz-adv-x="485" 
d="M70 367v9q0 64 40 96t135 32q170 0 170 -128v-13q0 -82 -69 -110q84 -23 84 -108v-17q0 -132 -192 -132q-49 0 -89.5 9t-56.5 18l-16 9q-5 9 -5 21l5 22q58 -37 161 -37q72 0 102.5 22.5t30.5 67.5v17q0 43 -29.5 64.5t-97.5 21.5h-64q-4 9 -4 21l4 21h64q60 0 86 22
t26 68v13q0 43 -25.5 64.5t-85.5 21.5q-66 0 -93 -21t-27 -65v-9q-13 -5 -27 -5z" />
    <glyph glyph-name="afii10074" unicode="&#x438;" horiz-adv-x="531" 
d="M462 497v-495q-15 -4 -30 -4l-30 4v403l-278 -403q-14 -4 -28 -4l-27 4v495q14 5 30 5l30 -5v-402l278 402q13 5 28 5z" />
    <glyph glyph-name="afii10075" unicode="&#x439;" horiz-adv-x="531" 
d="M265 589q-68 0 -95.5 24t-27.5 74v10q10 4 21 4l22 -4v-10q0 -34 18 -49t62 -15t62 15t18 49v10q11 4 22 4l22 -4v-10q0 -50 -28 -74t-96 -24zM462 497v-495q-15 -4 -30 -4l-30 4v403l-278 -403q-14 -4 -28 -4l-27 4v495q14 5 30 5l30 -5v-402l278 402q13 5 28 5z" />
    <glyph glyph-name="afii10076" unicode="&#x43a;" horiz-adv-x="458" 
d="M368 2l-168 242l-71 -19v-223q-15 -4 -30 -4l-30 4v495q14 5 30 5l30 -5v-228l71 20l157 208q16 5 33 5l31 -5l-171 -230l183 -265q-15 -4 -32 -4z" />
    <glyph glyph-name="afii10077" unicode="&#x43b;" horiz-adv-x="534" 
d="M123 152l41 342q59 8 150 8q40 0 78 -2t56 -4l17 -2v-492q-14 -4 -30 -4l-30 4v455h-190l-36 -305q-10 -81 -39.5 -118.5t-102.5 -37.5q-4 8 -4 21l4 21q45 0 61.5 25.5t24.5 88.5z" />
    <glyph glyph-name="afii10078" unicode="&#x43c;" horiz-adv-x="643" 
d="M574 497v-495q-14 -4 -27 -4l-28 4v413l-169 -341q-13 -4 -30 -4l-30 4l-166 341v-413q-14 -4 -28 -4l-27 4v495q0 5 36 5l37 -5l178 -367l180 367q17 5 37 5z" />
    <glyph glyph-name="afii10079" unicode="&#x43d;" horiz-adv-x="528" 
d="M460 497v-495q-15 -4 -30 -4l-30 4v235h-271v-235q-15 -4 -30 -4l-30 4v495q14 5 30 5l30 -5v-217h271v217q14 5 30 5z" />
    <glyph glyph-name="afii10080" unicode="&#x43e;" horiz-adv-x="532" 
d="M67 149v202q0 153 199 153t199 -153v-202q0 -153 -199 -153t-199 153zM127 351v-202q0 -57 32 -84t107 -27t107 27t32 84v202q0 57 -32 84t-107 27t-107 -27t-32 -84z" />
    <glyph glyph-name="afii10081" unicode="&#x43f;" horiz-adv-x="529" 
d="M99 -2l-30 4v492q77 8 195 8q52 0 101 -2t72 -4l23 -2v-492q-14 -4 -30 -4l-30 4v455h-271v-455q-15 -4 -30 -4z" />
    <glyph glyph-name="afii10082" unicode="&#x440;" horiz-adv-x="519" 
d="M129 497v-44q7 6 20 14.5t59 22.5t98 14q77 0 111 -38.5t34 -114.5v-202q0 -75 -39.5 -114t-127.5 -39q-55 0 -93 12.5t-48.5 22.5t-13.5 17v-246q-15 -4 -30 -4l-30 4v695q14 5 30 5zM391 149v202q0 58 -22.5 84.5t-79.5 26.5q-52 0 -92 -14t-54 -28l-14 -13v-258
q0 -57 33 -84t112 -27q65 0 91 26.5t26 84.5z" />
    <glyph glyph-name="afii10083" unicode="&#x441;" horiz-adv-x="500" 
d="M67 149v202q0 76 44.5 114.5t144.5 38.5t142.5 -38.5t42.5 -114.5v-14q-13 -4 -27 -4l-28 4v14q0 58 -29 84.5t-101 26.5q-71 0 -100 -26.5t-29 -84.5v-202q0 -58 31 -84.5t108 -26.5q46 0 87 9t59 19l17 9q5 -8 5 -22l-5 -21q-6 -4 -18 -10t-54.5 -16t-91.5 -10
q-105 0 -151.5 38.5t-46.5 114.5z" />
    <glyph glyph-name="afii10084" unicode="&#x442;" horiz-adv-x="472" 
d="M430 457h-164v-455q-15 -4 -30 -4l-30 4v455h-168q-4 9 -4 22l4 21h392q4 -9 4 -21z" />
    <glyph glyph-name="afii10085" unicode="&#x443;" horiz-adv-x="506" 
d="M210 -78l30 77l-18 3l-185 495q15 5 30 5l30 -5l162 -442l161 442q15 5 30 5l30 -5l-215 -573q-24 -66 -57.5 -97t-90.5 -31q-13 0 -24.5 1.5t-16.5 2.5l-6 2q-5 8 -5 21l5 20q16 -5 46 -5q35 0 56.5 20.5t37.5 63.5z" />
    <glyph glyph-name="afii10086" unicode="&#x444;" horiz-adv-x="667" 
d="M364 697v-193q236 0 236 -153v-202q0 -153 -236 -153v-194q-15 -4 -30 -4l-30 4v194q-237 0 -237 153v202q0 153 237 153v193q14 5 30 5zM364 462v-424q95 0 135.5 27t40.5 84v202q0 57 -40.5 84t-135.5 27zM304 38v424q-95 0 -136 -27t-41 -84v-202q0 -57 41 -84
t136 -27z" />
    <glyph glyph-name="afii10087" unicode="&#x445;" horiz-adv-x="476" 
d="M388 2l-150 215l-150 -215q-17 -4 -32 -4l-32 4l177 252l-171 243q16 5 31 5l33 -5l144 -206l143 206q17 5 33 5l32 -5l-171 -243l177 -252q-17 -4 -32 -4z" />
    <glyph glyph-name="afii10088" unicode="&#x446;" horiz-adv-x="568" 
d="M480 -123v123h-215q-52 0 -101 1.5t-72 2.5l-23 2v491q14 5 30 5l30 -5v-455h271v455q15 5 30 5l30 -5v-455l73 -3v-162q-13 -4 -27 -4z" />
    <glyph glyph-name="afii10089" unicode="&#x447;" horiz-adv-x="499" 
d="M372 2v237q-7 -6 -19.5 -14.5t-57 -22.5t-95.5 -14q-75 0 -107.5 36t-32.5 107v166q14 5 30 5l30 -5v-166q0 -52 21.5 -76t75.5 -24q50 0 88.5 13.5t52.5 27.5l13 13v212q15 5 30 5l30 -5v-495q-14 -4 -29 -4z" />
    <glyph glyph-name="afii10090" unicode="&#x448;" horiz-adv-x="760" 
d="M662 502l30 -5v-491q-78 -6 -195 -6h-232q-52 0 -101 1.5t-72 2.5l-23 2v491q14 5 30 5l30 -5v-455h221v455q14 5 30 5l30 -5v-455h222v455q15 5 30 5z" />
    <glyph glyph-name="afii10091" unicode="&#x449;" horiz-adv-x="799" 
d="M712 -123v123h-447q-52 0 -101 1.5t-72 2.5l-23 2v491q14 5 30 5l30 -5v-455h221v455q14 5 30 5l30 -5v-455h222v455q15 5 30 5l30 -5v-455l72 -3v-162q-12 -4 -26 -4z" />
    <glyph glyph-name="afii10092" unicode="&#x44a;" horiz-adv-x="591" 
d="M237 493v-201q51 5 124 5q170 0 170 -135v-31q0 -135 -173 -135q-48 0 -93.5 2t-66.5 4l-21 2v453h-140q-4 9 -4 22l4 21h42q43 0 82.5 -2t57.5 -4zM358 254h-121v-215h121q61 0 87 22.5t26 69.5v31q0 47 -26 69.5t-87 22.5z" />
    <glyph glyph-name="afii10093" unicode="&#x44b;" horiz-adv-x="651" 
d="M129 497v-205q51 5 123 5q170 0 170 -135v-31q0 -67 -41 -101t-131 -34q-49 0 -94 2t-66 4l-21 2v493q14 5 30 5zM250 254h-121v-215h121q61 0 86.5 22.5t25.5 69.5v31q0 47 -25.5 69.5t-86.5 22.5zM582 497v-495q-15 -4 -30 -4l-30 4v495q15 5 30 5z" />
    <glyph glyph-name="afii10094" unicode="&#x44c;" horiz-adv-x="482" 
d="M129 497v-205q51 5 123 5q170 0 170 -135v-31q0 -67 -41 -101t-131 -34q-49 0 -94 2t-66 4l-21 2v493q14 5 30 5zM250 254h-121v-215h121q61 0 86.5 22.5t25.5 69.5v31q0 47 -25.5 69.5t-86.5 22.5z" />
    <glyph glyph-name="afii10095" unicode="&#x44d;" horiz-adv-x="504" 
d="M376 230h-206q-4 8 -4 21l4 21h206v79q0 57 -29.5 84t-101.5 27t-101.5 -25.5t-29.5 -79.5v-9q-13 -4 -27 -4l-27 4v9q0 73 42.5 110t142.5 37q101 0 146 -38.5t45 -114.5v-202q0 -76 -47 -114.5t-152 -38.5q-48 0 -88.5 9t-56.5 18l-16 9q-5 9 -5 21l5 22
q58 -37 161 -37q76 0 107.5 27t31.5 84v81z" />
    <glyph glyph-name="afii10096" unicode="&#x44e;" horiz-adv-x="679" 
d="M257 149v88h-128v-235q-15 -4 -30 -4l-30 4v495q14 5 30 5l30 -5v-217h128v71q0 153 179 153q178 0 178 -153v-202q0 -153 -178 -153q-179 0 -179 153zM317 351v-202q0 -57 27.5 -84t91.5 -27q63 0 90.5 27t27.5 84v202q0 57 -27.5 84t-90.5 27q-64 0 -91.5 -27
t-27.5 -84z" />
    <glyph glyph-name="afii10097" unicode="&#x44f;" horiz-adv-x="491" 
d="M362 1v204h-120l-134 -203q-17 -4 -32 -4l-32 4l142 205q-126 14 -126 131v30q0 133 172 133q49 0 96.5 -2t70.5 -4l23 -2v-492q-14 -4 -30 -4zM232 248h130v210h-130q-61 0 -86.5 -22t-25.5 -68v-30q0 -46 25.5 -68t86.5 -22z" />
    <glyph glyph-name="uni0450" unicode="&#x450;" 
d="M67 149v202q0 76 46 114.5t149 38.5q105 0 149 -38.5t44 -114.5v-112q-63 -8 -164 -8h-164v-82q0 -58 32.5 -84.5t111.5 -26.5q48 0 91 9t62 19l19 9q4 -8 4 -22l-4 -21q-6 -4 -18.5 -10t-57 -16t-96.5 -10q-108 0 -156 38.5t-48 114.5zM127 274h270v77q0 58 -30 84.5
t-105 26.5q-74 0 -104.5 -27t-30.5 -84v-77zM279 575l-125 122q15 5 31 5l29 -5l109 -122q-9 -4 -22 -4z" />
    <glyph glyph-name="afii10071" unicode="&#x451;" 
d="M67 149v202q0 76 46 114.5t149 38.5q105 0 149 -38.5t44 -114.5v-112q-63 -8 -164 -8h-164v-82q0 -58 32.5 -84.5t111.5 -26.5q48 0 91 9t62 19l19 9q4 -8 4 -22l-4 -21q-6 -4 -18.5 -10t-57 -16t-96.5 -10q-108 0 -156 38.5t-48 114.5zM127 274h270v77q0 58 -30 84.5
t-105 26.5q-74 0 -104.5 -27t-30.5 -84v-77zM181 674v-97q-11 -4 -25 -4l-25 4v97q11 4 25 4zM391 674v-97q-11 -4 -25 -4l-25 4v97q11 4 25 4z" />
    <glyph glyph-name="afii10099" unicode="&#x452;" horiz-adv-x="555" 
d="M428 -76v427q0 58 -23.5 84.5t-80.5 26.5q-52 0 -93 -14t-55 -28l-15 -13v-405q-15 -4 -30 -4l-30 4v588h-55q-4 8 -4 20l4 20h58l5 67q12 5 26 5l26 -5v-67h184q4 -8 4 -20l-4 -20h-184v-137q7 6 20.5 14.5t60 22.5t99.5 14q78 0 112.5 -38.5t34.5 -114.5v-427
q0 -64 -28.5 -96t-93.5 -32q-38 0 -73 10q-4 9 -4 20l4 21q23 -9 56 -9q44 0 61.5 21t17.5 65z" />
    <glyph glyph-name="afii10100" unicode="&#x453;" horiz-adv-x="403" 
d="M329 697l-124 -122q-12 -4 -22 -4l-23 4l109 122q14 5 30 5zM129 457v-455q-15 -4 -30 -4l-30 4v491q77 7 195 7h101q4 -9 4 -21l-4 -22h-236z" />
    <glyph glyph-name="afii10101" unicode="&#x454;" horiz-adv-x="505" 
d="M353 231h-226v-82q0 -58 31.5 -84.5t108.5 -26.5q47 0 88.5 9t59.5 19l18 9q4 -8 4 -22l-4 -21q-6 -4 -18 -10t-55 -16t-93 -10q-106 0 -153 38.5t-47 114.5v202q0 76 45 114.5t147 38.5q100 0 143 -37t43 -110v-9q-13 -4 -28 -4l-27 4v9q0 54 -29.5 79.5t-101.5 25.5
q-73 0 -102.5 -26.5t-29.5 -84.5v-77h226q4 -9 4 -22z" />
    <glyph glyph-name="afii10102" unicode="&#x455;" horiz-adv-x="493" 
d="M121 367v-20q0 -30 31 -45t92 -27q40 -8 66.5 -15t58 -21t47.5 -35.5t16 -51.5v-20q0 -68 -44 -102.5t-144 -34.5q-102 0 -145 37t-43 111v6q14 4 30 4l29 -4v-6q0 -54 29 -80t99 -26t99.5 23.5t29.5 71.5v20q0 33 -34 50t-94 28q-31 6 -51 10.5t-47.5 14.5t-43.5 21.5
t-28 29.5t-12 41v20q0 68 42.5 102.5t139.5 34.5q98 0 138.5 -37t40.5 -111v-6q-14 -4 -29 -4l-30 4v6q0 54 -27.5 80t-92.5 26q-67 0 -95 -23.5t-28 -71.5z" />
    <glyph glyph-name="afii10103" unicode="&#x456;" horiz-adv-x="197" 
d="M129 497v-495q-15 -4 -30 -4l-30 4v495q14 5 30 5zM129 697v-100q-15 -4 -30 -4l-30 4v100q14 5 30 5z" />
    <glyph glyph-name="afii10104" unicode="&#x457;" horiz-adv-x="197" 
d="M129 497v-495q-15 -4 -30 -4l-30 4v495q14 5 30 5zM49 697v-96q-12 -4 -25 -4l-25 4v96q10 5 25 5zM199 697v-96q-12 -4 -25 -4l-25 4v96q10 5 25 5z" />
    <glyph glyph-name="afii10105" unicode="&#x458;" horiz-adv-x="211" 
d="M82 -76v573q15 5 30 5l30 -5v-573q0 -64 -28.5 -96t-92.5 -32q-36 0 -74 10q-3 9 -3 20l3 21q25 -9 57 -9q43 0 60.5 20.5t17.5 65.5zM142 697v-100q-15 -4 -30 -4l-30 4v100q15 5 30 5z" />
    <glyph glyph-name="afii10106" unicode="&#x459;" horiz-adv-x="819" 
d="M123 152l41 342q59 8 150 8q40 0 78 -2t56 -4l17 -2v-202q51 5 124 5q170 0 170 -135v-31q0 -135 -173 -135q-48 0 -93.5 2t-66.5 4l-21 2v453h-190l-36 -305q-10 -81 -39.5 -118.5t-102.5 -37.5q-4 8 -4 21l4 21q45 0 61.5 25.5t24.5 88.5zM586 254h-121v-215h121
q61 0 87 22.5t26 69.5v31q0 47 -26 69.5t-87 22.5z" />
    <glyph glyph-name="afii10107" unicode="&#x45a;" horiz-adv-x="813" 
d="M460 497v-205q51 5 123 5q170 0 170 -135v-31q0 -67 -41 -101t-131 -34q-49 0 -94 2t-66 4l-21 2v233h-271v-235q-15 -4 -30 -4l-30 4v495q14 5 30 5l30 -5v-217h271v217q14 5 30 5zM581 254h-121v-215h121q61 0 86.5 22.5t25.5 69.5v31q0 47 -25.5 69.5t-86.5 22.5z" />
    <glyph glyph-name="afii10108" unicode="&#x45b;" horiz-adv-x="555" 
d="M345 590h-184v-137q7 6 20.5 14.5t60 22.5t99.5 14q78 0 112.5 -38.5t34.5 -114.5v-349q-15 -4 -30 -4l-30 4v349q0 58 -23.5 84.5t-80.5 26.5q-52 0 -93 -14t-55 -28l-15 -13v-405q-15 -4 -30 -4l-30 4v588h-55q-4 8 -4 20l4 20h58l5 67q12 5 26 5l26 -5v-67h184
q4 -8 4 -20z" />
    <glyph glyph-name="afii10109" unicode="&#x45c;" horiz-adv-x="458" 
d="M335 697l-124 -122q-12 -4 -22 -4l-23 4l109 122q14 5 30 5zM368 2l-168 242l-71 -19v-223q-15 -4 -30 -4l-30 4v495q14 5 30 5l30 -5v-228l71 20l157 208q16 5 33 5l31 -5l-171 -230l183 -265q-15 -4 -32 -4z" />
    <glyph glyph-name="uni045D" unicode="&#x45d;" horiz-adv-x="531" 
d="M283 575l-124 122q14 5 30 5l30 -5l109 -122q-10 -4 -23 -4zM462 497v-495q-15 -4 -30 -4l-30 4v403l-278 -403q-14 -4 -28 -4l-27 4v495q14 5 30 5l30 -5v-402l278 402q13 5 28 5z" />
    <glyph glyph-name="afii10110" unicode="&#x45e;" horiz-adv-x="506" 
d="M210 -78l30 77l-18 3l-185 495q15 5 30 5l30 -5l162 -442l161 442q15 5 30 5l30 -5l-215 -573q-24 -66 -57.5 -97t-90.5 -31q-13 0 -24.5 1.5t-16.5 2.5l-6 2q-5 8 -5 21l5 20q16 -5 46 -5q35 0 56.5 20.5t37.5 63.5zM259 589q-68 0 -96 24t-28 74v10q10 4 22 4l22 -4
v-10q0 -34 17.5 -49t62.5 -15q44 0 62 15t18 49v10q10 4 21 4l22 -4v-10q0 -50 -27.5 -74t-95.5 -24z" />
    <glyph glyph-name="afii10193" unicode="&#x45f;" horiz-adv-x="529" 
d="M239 -123v122l-170 7v491q14 5 30 5l30 -5v-455h271v455q15 5 30 5l30 -5v-491q-66 -6 -169 -7v-122q-12 -4 -26 -4z" />
    <glyph glyph-name="afii10050" unicode="&#x490;" horiz-adv-x="456" 
d="M131 655v-653q-15 -4 -31 -4l-31 4v691q77 7 195 7h101v125q13 4 26 4l26 -4v-170h-286z" />
    <glyph glyph-name="afii10098" unicode="&#x491;" horiz-adv-x="396" 
d="M353 457h-224v-455q-15 -4 -30 -4l-30 4v491q73 7 183 7h49v122q13 5 26 5l26 -5v-165z" />
    <glyph glyph-name="uni04D8" unicode="&#x4d8;" horiz-adv-x="600" 
d="M266 374h204v171q0 59 -38 86.5t-132 27.5t-132 -27.5t-38 -86.5v-14q-14 -4 -29 -4l-29 4v14q0 79 52.5 119t175.5 40t177.5 -40t54.5 -119v-390q0 -79 -54.5 -119t-177.5 -40q-124 0 -176.5 40t-52.5 119v211q74 8 195 8zM131 331v-176q0 -60 37.5 -87t131.5 -27
t132 27t38 87v176h-339z" />
    <glyph glyph-name="afii10846" unicode="&#x4d9;" 
d="M455 351v-202q0 -76 -46 -114.5t-149 -38.5q-105 0 -149 38.5t-44 114.5v120q63 7 164 7h164v75q0 58 -32.5 84.5t-111.5 26.5q-49 0 -91.5 -9.5t-61 -18t-18.5 -10.5l-1 3q-1 3 -2.5 8t-1.5 11l5 22q6 4 18.5 10t56.5 16t96 10q108 0 156 -38.5t48 -114.5zM395 234h-270
v-85q0 -58 30 -84.5t105 -26.5q74 0 104.5 27t30.5 84v85z" />
    <glyph glyph-name="Wgrave" unicode="&#x1e80;" horiz-adv-x="935" 
d="M631 2l-164 633l-162 -633q-20 -4 -43 -4l-42 4l-190 695q15 5 31 5l32 -5l171 -637l165 637q16 5 38 5l39 -5l166 -637l171 637q16 5 31 5l31 -5l-189 -695q-20 -4 -43 -4zM485 752l-125 123q15 4 30 4l30 -4l109 -123q-10 -4 -22 -4z" />
    <glyph glyph-name="wgrave" unicode="&#x1e81;" horiz-adv-x="777" 
d="M516 2l-128 435l-126 -435q-18 -4 -40 -4l-40 4l-152 495q15 5 29 5l31 -5l134 -444l129 444q15 5 35 5l37 -5l129 -444l134 444q15 5 30 5l30 -5l-152 -495q-19 -4 -40 -4zM406 575l-125 122q15 5 31 5l29 -5l109 -122q-9 -4 -22 -4z" />
    <glyph glyph-name="Wacute" unicode="&#x1e82;" horiz-adv-x="935" 
d="M631 2l-164 633l-162 -633q-20 -4 -43 -4l-42 4l-190 695q15 5 31 5l32 -5l171 -637l165 637q16 5 38 5l39 -5l166 -637l171 637q16 5 31 5l31 -5l-189 -695q-20 -4 -43 -4zM574 875l-125 -123q-12 -4 -22 -4l-22 4l109 123q13 4 29 4z" />
    <glyph glyph-name="wacute" unicode="&#x1e83;" horiz-adv-x="777" 
d="M516 2l-128 435l-126 -435q-18 -4 -40 -4l-40 4l-152 495q15 5 29 5l31 -5l134 -444l129 444q15 5 35 5l37 -5l129 -444l134 444q15 5 30 5l30 -5l-152 -495q-19 -4 -40 -4zM495 697l-125 -122q-11 -4 -22 -4l-22 4l109 122q13 5 30 5z" />
    <glyph glyph-name="Wdieresis" unicode="&#x1e84;" horiz-adv-x="935" 
d="M631 2l-164 633l-162 -633q-20 -4 -43 -4l-42 4l-190 695q15 5 31 5l32 -5l171 -637l165 637q16 5 38 5l39 -5l166 -637l171 637q16 5 31 5l31 -5l-189 -695q-20 -4 -43 -4zM387 849v-97q-12 -4 -25 -4l-25 4v97q11 4 25 4zM597 849v-97q-12 -4 -25 -4l-25 4v97
q11 4 25 4z" />
    <glyph glyph-name="wdieresis" unicode="&#x1e85;" horiz-adv-x="777" 
d="M516 2l-128 435l-126 -435q-18 -4 -40 -4l-40 4l-152 495q15 5 29 5l31 -5l134 -444l129 444q15 5 35 5l37 -5l129 -444l134 444q15 5 30 5l30 -5l-152 -495q-19 -4 -40 -4zM308 697v-96q-11 -4 -25 -4l-25 4v96q11 5 25 5zM518 697v-96q-11 -4 -25 -4l-25 4v96
q11 5 25 5z" />
    <glyph glyph-name="Ygrave" unicode="&#x1ef2;" horiz-adv-x="562" 
d="M532 697l-220 -395v-300q-15 -4 -31 -4l-31 4v300l-220 395q17 5 34 5l35 -5l182 -336l182 336q18 5 35 5zM299 752l-125 123q15 4 31 4l29 -4l109 -123q-9 -4 -22 -4z" />
    <glyph glyph-name="ygrave" unicode="&#x1ef3;" horiz-adv-x="506" 
d="M210 -78l30 77l-18 3l-185 495q15 5 30 5l30 -5l162 -442l161 442q15 5 30 5l30 -5l-215 -573q-24 -66 -57.5 -97t-90.5 -31q-13 0 -24.5 1.5t-16.5 2.5l-6 2q-5 8 -5 21l5 20q16 -5 46 -5q35 0 56.5 20.5t37.5 63.5zM270 575l-124 122q14 5 30 5l30 -5l109 -122
q-10 -4 -22 -4z" />
    <glyph glyph-name="figuredash" unicode="&#x2012;" horiz-adv-x="497" 
d="M450 315h-404q-4 8 -4 21l4 21h404q4 -8 4 -21z" />
    <glyph glyph-name="endash" unicode="&#x2013;" horiz-adv-x="497" 
d="M450 265h-404q-4 8 -4 21l4 21h404q4 -8 4 -21z" />
    <glyph glyph-name="emdash" unicode="&#x2014;" horiz-adv-x="647" 
d="M600 265h-554q-4 8 -4 21l4 21h554q4 -8 4 -21z" />
    <glyph glyph-name="quoteleft" unicode="&#x2018;" horiz-adv-x="187" 
d="M66 507q0 39 6.5 73t15 54.5t17.5 35.5t15 21l7 6q9 5 18 5l17 -5q-5 -6 -12.5 -19.5t-20.5 -62.5t-13 -108q-11 -4 -25 -4z" />
    <glyph glyph-name="quoteright" unicode="&#x2019;" horiz-adv-x="187" 
d="M121 697q0 -39 -6.5 -72.5t-15.5 -54t-17.5 -36t-15.5 -21.5l-6 -6q-9 -4 -17 -4l-18 4q5 7 12.5 20t20.5 62t13 108q12 5 25 5z" />
    <glyph glyph-name="quotesinglbase" unicode="&#x201a;" horiz-adv-x="187" 
d="M121 93q0 -39 -6.5 -72.5t-15.5 -54t-17.5 -36t-15.5 -21.5l-6 -6q-9 -4 -17 -4l-18 4q5 7 12.5 20t20.5 62t13 108q12 5 25 5z" />
    <glyph glyph-name="quotedblleft" unicode="&#x201c;" horiz-adv-x="302" 
d="M66 507q0 39 6.5 73t15 54.5t17.5 35.5t15 21l7 6q9 5 18 5l17 -5q-5 -6 -12.5 -19.5t-20.5 -62.5t-13 -108q-11 -4 -25 -4zM181 507q0 39 6.5 73t15.5 54.5t17.5 35.5t15.5 21l6 6q9 5 18 5l17 -5q-5 -6 -12.5 -19.5t-20.5 -62.5t-13 -108q-11 -4 -25 -4z" />
    <glyph glyph-name="quotedblright" unicode="&#x201d;" horiz-adv-x="302" 
d="M121 697q0 -39 -6.5 -72.5t-15.5 -54t-17.5 -36t-15.5 -21.5l-6 -6q-9 -4 -17 -4l-18 4q5 7 12.5 20t20.5 62t13 108q12 5 25 5zM236 697q0 -39 -6.5 -72.5t-15 -54t-17.5 -36t-15 -21.5l-7 -6q-9 -4 -17 -4l-18 4q5 7 12.5 20t20.5 62t13 108q12 5 25 5z" />
    <glyph glyph-name="quotedblbase" unicode="&#x201e;" horiz-adv-x="302" 
d="M121 92q0 -39 -6.5 -72.5t-15.5 -54t-17.5 -36t-15.5 -21.5l-6 -6q-9 -4 -17 -4l-18 4q5 7 12.5 20t20.5 62t13 108q12 5 25 5zM236 92q0 -61 -15.5 -108.5t-30.5 -64.5l-16 -17q-8 -4 -17 -4l-17 4q5 7 12.5 20t20.5 62t13 108q12 5 25 5z" />
    <glyph glyph-name="dagger" unicode="&#x2020;" horiz-adv-x="393" 
d="M351 457h-129v-555q-13 -4 -25 -4l-25 4v555h-129q-4 9 -4 22l4 21h129v197q11 5 25 5l25 -5v-197h129q4 -9 4 -21z" />
    <glyph glyph-name="daggerdbl" unicode="&#x2021;" horiz-adv-x="393" 
d="M351 100h-129v-198q-13 -4 -25 -4l-25 4v198h-129q-4 8 -4 21l4 21h129v315h-129q-4 9 -4 22l4 21h129v197q11 5 25 5l25 -5v-197h129q4 -9 4 -21l-4 -22h-129v-315h129q4 -8 4 -21z" />
    <glyph glyph-name="bullet" unicode="&#x2022;" horiz-adv-x="290" 
d="M233 395q6 -44 6 -95l-6 -96q-50 -7 -99 -7q-22 0 -47 1.5t-39 3.5l-14 2q-6 44 -6 96l6 95q50 8 100 8q22 0 46.5 -2t38.5 -4z" />
    <glyph glyph-name="ellipsis" unicode="&#x2026;" horiz-adv-x="550" 
d="M128 95v-93q-16 -4 -31 -4l-30 4v93q14 4 30 4zM305 95v-93q-15 -4 -30 -4l-30 4v93q14 4 30 4zM483 95v-93q-16 -4 -31 -4l-30 4v93q14 4 30 4z" />
    <glyph glyph-name="perthousand" unicode="&#x2030;" horiz-adv-x="889" 
d="M602 104v28q0 107 122 107q121 0 121 -107v-28q0 -107 -121 -107q-122 0 -122 107zM310 104v28q0 107 121 107t121 -107v-28q0 -107 -121 -107t-121 107zM44 568v28q0 107 121 107t121 -107v-28q0 -107 -121 -107t-121 107zM576 697l-457 -695q-15 -4 -28 -4l-27 4
l457 695q12 5 28 5zM644 132v-28q0 -35 18.5 -52t61.5 -17t61.5 17t18.5 52v28q0 35 -18.5 52t-61.5 17t-61.5 -17t-18.5 -52zM85 596v-28q0 -35 18.5 -52t61.5 -17t61.5 17t18.5 52v28q0 35 -18.5 52t-61.5 17t-61.5 -17t-18.5 -52zM351 132v-28q0 -35 18.5 -52t61.5 -17
t61.5 17t18.5 52v28q0 35 -18.5 52t-61.5 17t-61.5 -17t-18.5 -52z" />
    <glyph glyph-name="guilsinglleft" unicode="&#x2039;" horiz-adv-x="294" 
d="M43 270l178 178q9 -3 18 -12l12 -18l-148 -148l148 -148q-3 -9 -12 -18l-18 -12z" />
    <glyph glyph-name="guilsinglright" unicode="&#x203a;" horiz-adv-x="294" 
d="M251 270l-178 -178q-9 3 -18 12l-12 18l148 148l-148 148q3 9 12 18l18 12z" />
    <glyph glyph-name="fraction" unicode="&#x2044;" horiz-adv-x="599" 
d="M559 697l-457 -695q-16 -4 -31 -4l-30 4l457 695q14 5 31 5z" />
    <glyph glyph-name="Euro" unicode="&#x20ac;" horiz-adv-x="628" 
d="M442 260h-273v-105q0 -60 39 -87t137 -27q60 0 112 11t75 22l22 11q5 -8 5 -23l-5 -23q-8 -5 -23 -12t-69 -19t-118 -12q-126 0 -181.5 40t-55.5 119v105h-55q-4 8 -4 21l4 21h55v90h-55q-4 8 -4 21l4 21h55v111q0 79 54.5 119t177.5 40t175 -40t52 -119v-14
q-13 -4 -28 -4l-29 4v14q0 59 -38 86.5t-132 27.5t-132 -27.5t-38 -86.5v-111h273q4 -8 4 -21l-4 -21h-273v-90h273q4 -8 4 -21z" />
    <glyph glyph-name="uni20B4" unicode="&#x20b4;" horiz-adv-x="543" 
d="M481 260h-297q-6 -5 -16 -15t-26 -38.5t-16 -56.5q0 -57 35.5 -83t122.5 -26q53 0 100 10.5t68 21.5l20 11q5 -8 5 -23l-5 -23q-7 -5 -20.5 -12t-62.5 -18.5t-106 -11.5q-116 0 -167.5 39t-51.5 115q0 27 13 54.5t27 41.5l13 14h-70q-4 8 -4 21l4 21h434q4 -8 4 -21z
M498 397h-434q-4 9 -4 22l4 21h304q6 6 14 16t22 39t14 55q0 57 -35.5 83t-123.5 26q-53 0 -100 -10.5t-67 -21.5l-20 -11q-5 8 -5 23l5 23q7 5 20.5 12t62 18.5t105.5 11.5q116 0 167.5 -39t51.5 -115q0 -28 -11.5 -55.5t-22.5 -40.5l-11 -14h64q4 -9 4 -21z" />
    <glyph glyph-name="afii61352" unicode="&#x2116;" horiz-adv-x="1095" 
d="M650 399v152q0 153 188 153q99 0 144 -39t45 -114v-152q0 -75 -45 -114t-144 -39q-188 0 -188 153zM69 2v695q13 5 27 5l28 -5l363 -581v581q14 5 30 5l30 -5v-695q-13 -4 -27 -4l-28 4l-363 582v-582q-15 -4 -30 -4zM707 551v-152q0 -57 30 -84t101 -27q72 0 102 27
t30 84v152q0 57 -30 84t-102 27q-71 0 -101 -27t-30 -84zM1020 0h-363q-4 9 -4 22l4 23h363q4 -9 4 -23z" />
    <glyph glyph-name="trademark" unicode="&#x2122;" horiz-adv-x="670" 
d="M269 671h-97v-320q-11 -2 -21 -2l-21 2v320h-99q-3 6 -3 15l3 14h238q3 -6 3 -14zM636 699v-348q-10 -2 -20 -2l-20 2v286l-102 -228q-8 -3 -18 -3l-19 3l-101 227v-285q-10 -2 -20 -2l-20 2v347q0 2 27 2l28 -2l105 -238l106 239q13 2 26 2z" />
    <glyph glyph-name="arrowleft" unicode="&#x2190;" horiz-adv-x="1124" 
d="M414 -4l-354 354l354 354l32 -32l-300 -299h890v-45h-890l300 -300z" />
    <glyph glyph-name="arrowup" unicode="&#x2191;" horiz-adv-x="829" 
d="M392 -222v890l-299 -300l-33 32l354 354l354 -354l-32 -32l-299 300v-890h-45z" />
    <glyph glyph-name="arrowright" unicode="&#x2192;" horiz-adv-x="1124" 
d="M88 328v45h890l-300 299l32 32l354 -354l-354 -354l-32 32l300 300h-890z" />
    <glyph glyph-name="arrowdown" unicode="&#x2193;" horiz-adv-x="829" 
d="M414 -226l-354 354l33 32l299 -300v890h45v-890l299 299l32 -31z" />
    <glyph glyph-name="uni2196" unicode="&#x2196;" horiz-adv-x="854" 
d="M88 200v500h500v-45h-424l630 -629l-32 -32l-629 629v-423h-45z" />
    <glyph glyph-name="uni2197" unicode="&#x2197;" horiz-adv-x="854" 
d="M266 655v45h500v-500h-45v423l-629 -629l-32 32l630 629h-424z" />
    <glyph glyph-name="uni2198" unicode="&#x2198;" horiz-adv-x="854" 
d="M266 0v45h424l-630 629l32 32l629 -630v424h45v-500h-500z" />
    <glyph glyph-name="uni2199" unicode="&#x2199;" horiz-adv-x="854" 
d="M88 0v500h45v-424l629 630l32 -32l-630 -629h424v-45h-500z" />
    <glyph glyph-name="minus" unicode="&#x2212;" horiz-adv-x="415" 
d="M369 315h-323q-4 8 -4 21l4 21h323q4 -8 4 -21z" />
    <glyph glyph-name="commaaccent" unicode="&#xf6c3;" horiz-adv-x="187" 
d="M115 -49q0 -46 -14 -83t-29 -52l-14 -14q-9 -4 -17 -4l-16 4q5 6 13 17t21 49.5t13 82.5q10 4 22 4z" />
    <glyph glyph-name="dollaroldstyle" unicode="&#xf724;" horiz-adv-x="493" 
d="M121 367v-20q0 -30 31 -45t92 -27q40 -8 66.5 -15t58 -21t47.5 -35.5t16 -51.5v-20q0 -64 -38.5 -98t-125.5 -38v-94q-12 -4 -25 -4l-25 4v94q-88 4 -125 40.5t-37 106.5v6q14 4 30 4l29 -4v-6q0 -54 29 -80t99 -26t99.5 23.5t29.5 71.5v20q0 33 -34 50t-94 28
q-31 6 -51 10.5t-47.5 14.5t-43.5 21.5t-28 29.5t-12 41v20q0 63 36.5 97.5t119.5 38.5v94q12 5 25 5l25 -5v-94q84 -4 119.5 -41t35.5 -106v-6q-14 -4 -29 -4l-30 4v6q0 54 -27.5 80t-92.5 26q-67 0 -95 -23.5t-28 -71.5z" />
    <glyph glyph-name="zerooldstyle" unicode="&#xf730;" horiz-adv-x="552" 
d="M67 149v202q0 153 209 153t209 -153v-202q0 -153 -209 -153t-209 153zM127 351v-202q0 -57 34.5 -84t114.5 -27t114.5 27t34.5 84v202q0 57 -34.5 84t-114.5 27t-114.5 -27t-34.5 -84z" />
    <glyph glyph-name="oneoldstyle" unicode="&#xf731;" horiz-adv-x="329" 
d="M219 501v-499q-15 -4 -30 -4l-30 4v449l-125 4q-3 9 -3 21l3 21q73 4 185 4z" />
    <glyph glyph-name="twooldstyle" unicode="&#xf732;" horiz-adv-x="516" 
d="M397 336v16q0 57 -32 83.5t-110 26.5q-72 0 -105 -30.5t-33 -79.5v-14q-14 -4 -29 -4l-29 4v14q0 66 46.5 109t149.5 43q107 0 154 -38t47 -114v-16q0 -45 -34.5 -77t-83 -50.5t-97.5 -36t-83.5 -44t-34.5 -62.5v-24h329q4 -8 4 -21l-4 -21h-193q-52 0 -100.5 1.5
t-71.5 2.5l-23 2v60q0 46 34.5 79.5t83 52t97.5 35.5t83.5 42.5t34.5 60.5z" />
    <glyph glyph-name="threeoldstyle" unicode="&#xf733;" horiz-adv-x="548" 
d="M69 457q-4 9 -4 22l4 22h404q4 -9 4 -21l-4 -22l-213 -259q72 0 119.5 -12.5t71.5 -36.5t33 -51.5t9 -65.5v-69q0 -167 -229 -167q-61 0 -112 11t-72 21l-20 11q-4 9 -4 22l4 22q0 -2 22 -12t73 -21.5t109 -11.5q92 0 130.5 30t38.5 95v69q0 65 -41.5 94.5t-138.5 29.5
h-55q-4 9 -4 22l4 22l207 256h-336z" />
    <glyph glyph-name="fouroldstyle" unicode="&#xf734;" horiz-adv-x="531" 
d="M423 297v-253h74q4 -9 4 -22l-4 -22h-72v-198q-15 -4 -30 -4l-29 4v198h-315q-4 8 -4 21l195 476q11 4 29 4l32 -4l-187 -453h250v253q14 5 29 5z" />
    <glyph glyph-name="fiveoldstyle" unicode="&#xf735;" horiz-adv-x="539" 
d="M157 458l-16 -249h119q125 0 172.5 -43.5t47.5 -124.5v-77q0 -167 -219 -167q-62 0 -113 11t-71 21l-20 11q-5 9 -5 22l5 22q0 -2 22 -12t72.5 -21.5t108.5 -11.5q87 0 123.5 30t36.5 95v77q0 64 -36.5 94t-123.5 30h-173q-4 8 -4 22l22 307q77 7 195 7h137q4 -9 4 -21
l-4 -22h-280z" />
    <glyph glyph-name="sixoldstyle" unicode="&#xf736;" horiz-adv-x="565" 
d="M127 386q8 6 23.5 14.5t68.5 22.5t113 14q88 0 126.5 -38.5t38.5 -114.5v-135q0 -75 -51 -114t-164 -39q-215 0 -215 153v379q0 86 52 130.5t170 44.5q50 0 94 -6.5t63 -12.5l18 -6q4 -8 4 -21l-4 -22q-67 26 -177 26q-88 0 -124 -32.5t-36 -99.5v-143zM127 340v-191
q0 -57 35.5 -84t119.5 -27t119.5 27t35.5 84v135q0 57 -27 83.5t-94 26.5q-61 0 -108 -13.5t-64 -26.5z" />
    <glyph glyph-name="sevenoldstyle" unicode="&#xf737;" 
d="M473 480l-264 -677q-12 -4 -31 -4l-33 4l261 654h-353q-4 9 -4 22l4 22h416q4 -9 4 -21z" />
    <glyph glyph-name="eightoldstyle" unicode="&#xf738;" horiz-adv-x="572" 
d="M81 491v60q0 153 205 153t205 -153v-60q0 -102 -95 -130q110 -29 110 -134v-78q0 -75 -52 -114t-168 -39q-220 0 -220 153v78q0 106 109 134q-94 28 -94 130zM126 227v-78q0 -57 36.5 -84t123.5 -27t123.5 27t36.5 84v78q0 57 -36.5 84t-123.5 27t-123.5 -27t-36.5 -84z
M141 551v-60q0 -57 33.5 -84t111.5 -27q79 0 112 27t33 84v60q0 57 -33 84t-112 27q-78 0 -111.5 -27t-33.5 -84z" />
    <glyph glyph-name="nineoldstyle" unicode="&#xf739;" horiz-adv-x="565" 
d="M437 -29v157q-8 -6 -23 -14.5t-68 -22.5t-113 -14q-88 0 -127 38.5t-39 114.5v121q0 153 215 153q113 0 164 -39t51 -114v-379q0 -86 -52 -130.5t-170 -44.5q-49 0 -93 6t-64 12l-19 7q-4 8 -4 21l4 22q70 -26 180 -26q87 0 122.5 32.5t35.5 99.5zM437 174v177
q0 57 -35.5 84t-119.5 27t-119.5 -27t-35.5 -84v-121q0 -57 27 -83.5t95 -26.5q61 0 108 13.5t63 27.5z" />
    <glyph glyph-name="NULL" horiz-adv-x="0" 
 />
    <glyph glyph-name="T_h" horiz-adv-x="1044" 
d="M651 693v-240q7 6 20.5 14.5t60 22.5t99.5 14q78 0 112 -38.5t34 -114.5v-349q-14 -4 -30 -4l-30 4v349q0 58 -23.5 84.5t-80.5 26.5q-52 0 -92.5 -14t-54.5 -28l-15 -13v-405q-15 -4 -30 -4l-30 4v653h-284v-653q-15 -4 -31 -4l-31 4v653h-207q-4 9 -4 22l4 23h425
q52 0 99 -2t68 -4z" />
    <glyph glyph-name="T_h.caron" horiz-adv-x="1044" 
d="M651 693v-240q7 6 20.5 14.5t60 22.5t99.5 14q78 0 112 -38.5t34 -114.5v-349q-14 -4 -30 -4l-30 4v349q0 58 -23.5 84.5t-80.5 26.5q-52 0 -92.5 -14t-54.5 -28l-15 -13v-405q-15 -4 -30 -4l-30 4v653h-284v-653q-15 -4 -31 -4l-31 4v653h-207q-4 9 -4 22l4 23h425
q52 0 99 -2t68 -4zM188 868l88 -88l87 88q12 4 23 4l22 -4l-103 -115q-13 -5 -29 -5l-29 5l-103 115q10 4 22 4z" />
    <glyph glyph-name="T_h.commaaccent" horiz-adv-x="1044" 
d="M651 693v-240q7 6 20.5 14.5t60 22.5t99.5 14q78 0 112 -38.5t34 -114.5v-349q-14 -4 -30 -4l-30 4v349q0 58 -23.5 84.5t-80.5 26.5q-52 0 -92.5 -14t-54.5 -28l-15 -13v-405q-15 -4 -30 -4l-30 4v653h-284v-653q-15 -4 -31 -4l-31 4v653h-207q-4 9 -4 22l4 23h425
q52 0 99 -2t68 -4zM298 -49q0 -46 -14 -83t-28 -52l-15 -14q-8 -4 -16 -4l-16 4q5 6 13 17t21 49.5t13 82.5q10 4 21 4z" />
    <glyph glyph-name="A.smcp" horiz-adv-x="495" 
d="M28 2l181 521q17 3 38 3l39 -3l181 -521q-15 -4 -28 -4l-29 4l-51 141h-224l-50 -141q-14 -4 -29 -4zM248 477l-103 -294h204z" />
    <glyph glyph-name="Aacute.smcp" horiz-adv-x="495" 
d="M28 2l181 521q17 3 38 3l39 -3l181 -521q-15 -4 -28 -4l-29 4l-51 141h-224l-50 -141q-14 -4 -29 -4zM248 477l-103 -294h204zM335 658l-101 -94q-10 -3 -19 -3l-20 3l87 94q11 3 26 3z" />
    <glyph glyph-name="Abreve.smcp" horiz-adv-x="495" 
d="M28 2l181 521q17 3 38 3l39 -3l181 -521q-15 -4 -28 -4l-29 4l-51 141h-224l-50 -141q-14 -4 -29 -4zM248 477l-103 -294h204zM247 561q-56 0 -78.5 18.5t-22.5 57.5v7q9 4 19 4l20 -4v-7q0 -25 14 -36.5t48 -11.5t48 11.5t14 36.5v7q9 4 20 4l20 -4v-7q0 -38 -23 -57
t-79 -19z" />
    <glyph glyph-name="Acircumflex.smcp" horiz-adv-x="495" 
d="M28 2l181 521q17 3 38 3l39 -3l181 -521q-15 -4 -28 -4l-29 4l-51 141h-224l-50 -141q-14 -4 -29 -4zM248 477l-103 -294h204zM316 564l-69 65l-69 -65q-11 -3 -20 -3l-19 3l82 89q12 3 26 3l26 -3l82 -89q-9 -3 -19 -3z" />
    <glyph glyph-name="Agrave.smcp" horiz-adv-x="495" 
d="M28 2l181 521q17 3 38 3l39 -3l181 -521q-15 -4 -28 -4l-29 4l-51 141h-224l-50 -141q-14 -4 -29 -4zM248 477l-103 -294h204zM260 564l-101 94q13 3 27 3l27 -3l86 -94q-9 -3 -20 -3z" />
    <glyph glyph-name="Adieresis.smcp" horiz-adv-x="495" 
d="M28 2l181 521q17 3 38 3l39 -3l181 -521q-15 -4 -28 -4l-29 4l-51 141h-224l-50 -141q-14 -4 -29 -4zM248 477l-103 -294h204zM186 638v-73q-11 -4 -23 -4l-22 4v73q9 3 22 3zM354 638v-73q-11 -4 -23 -4l-22 4v73q9 3 22 3z" />
    <glyph glyph-name="Amacron.smcp" horiz-adv-x="495" 
d="M28 2l181 521q17 3 38 3l39 -3l181 -521q-15 -4 -28 -4l-29 4l-51 141h-224l-50 -141q-14 -4 -29 -4zM248 477l-103 -294h204zM343 580h-191q-4 5 -4 15l4 15h191q3 -6 3 -15z" />
    <glyph glyph-name="Aogonek.smcp" horiz-adv-x="495" 
d="M391 -64q0 30 36 63l-17 3l-51 141h-224l-50 -141q-14 -4 -29 -4l-28 4l181 521q17 3 38 3l39 -3l181 -521q-5 -2 -11 -2q-32 -36 -32 -62q0 -32 39 -32q12 0 23 3t16 7l5 3q4 -5 4 -13l-4 -12q-16 -14 -52 -14q-64 0 -64 56zM248 477l-103 -294h204z" />
    <glyph glyph-name="Aring.smcp" horiz-adv-x="495" 
d="M28 2l181 521q17 3 38 3l39 -3l181 -521q-15 -4 -28 -4l-29 4l-51 141h-224l-50 -141q-14 -4 -29 -4zM248 477l-103 -294h204zM182 608v13q0 51 65 51t65 -51v-13q0 -50 -65 -50t-65 50zM209 621v-13q0 -27 38 -27t38 27v13q0 28 -38 28t-38 -28z" />
    <glyph glyph-name="Atilde.smcp" horiz-adv-x="495" 
d="M28 2l181 521q17 3 38 3l39 -3l181 -521q-15 -4 -28 -4l-29 4l-51 141h-224l-50 -141q-14 -4 -29 -4zM248 477l-103 -294h204zM129 565v3q0 33 14 48.5t47 15.5t61 -21t44 -21q20 0 28 8.5t8 26.5v4q8 3 18 3l16 -3v-4q0 -32 -13.5 -48t-47.5 -16q-32 0 -60 21t-44 21
q-21 0 -29 -8t-8 -27v-3q-8 -4 -17 -4z" />
    <glyph glyph-name="AE.smcp" horiz-adv-x="604" 
d="M316 250v-210h243q3 -8 3 -20l-3 -20h-142l-158 5v138h-124l-50 -141q-14 -4 -29 -4l-28 4l180 519q84 4 209 4h138q3 -8 3 -20l-3 -20h-239v-195h213q3 -8 3 -20l-3 -20h-213zM250 485l-105 -302h114v302h-9z" />
    <glyph glyph-name="AEacute.smcp" horiz-adv-x="604" 
d="M316 250v-210h243q3 -8 3 -20l-3 -20h-142l-158 5v138h-124l-50 -141q-14 -4 -29 -4l-28 4l180 519q84 4 209 4h138q3 -8 3 -20l-3 -20h-239v-195h213q3 -8 3 -20l-3 -20h-213zM250 485l-105 -302h114v302h-9zM438 658l-102 -94q-10 -3 -19 -3l-19 3l86 94q11 3 26 3z
" />
    <glyph glyph-name="B.smcp" horiz-adv-x="475" 
d="M62 4v517q73 6 176 6q175 0 175 -124v-28q0 -83 -87 -105q98 -23 98 -109v-36q0 -63 -44 -95.5t-142 -32.5q-46 0 -90 1.5t-65 3.5zM119 250v-213h119q70 0 99 21t29 67v36q0 46 -29.5 67.5t-98.5 21.5h-119zM119 488v-199h119q64 0 91 20.5t27 65.5v28q0 44 -27 64.5
t-91 20.5h-119z" />
    <glyph glyph-name="C.smcp" horiz-adv-x="486" 
d="M61 120v285q0 61 44 92t143 31t141 -31t42 -92v-10q-13 -4 -26 -4l-26 4v10q0 44 -29 63.5t-102 19.5q-72 0 -101 -19.5t-29 -63.5v-285q0 -44 30.5 -63.5t105.5 -19.5q47 0 89 8.5t60 15.5t18 9l1 -2q1 -3 2 -8t1 -11l-4 -21q-55 -31 -168 -31q-102 0 -147 31t-45 92z
" />
    <glyph glyph-name="Cacute.smcp" horiz-adv-x="486" 
d="M61 120v285q0 61 44 92t143 31t141 -31t42 -92v-10q-13 -4 -26 -4l-26 4v10q0 44 -29 63.5t-102 19.5q-72 0 -101 -19.5t-29 -63.5v-285q0 -44 30.5 -63.5t105.5 -19.5q47 0 89 8.5t60 15.5t18 9l1 -2q1 -3 2 -8t1 -11l-4 -21q-55 -31 -168 -31q-102 0 -147 31t-45 92z
M331 658l-101 -94q-10 -3 -19 -3l-19 3l86 94q12 3 26 3z" />
    <glyph glyph-name="Ccaron.smcp" horiz-adv-x="486" 
d="M61 120v285q0 61 44 92t143 31t141 -31t42 -92v-10q-13 -4 -26 -4l-26 4v10q0 44 -29 63.5t-102 19.5q-72 0 -101 -19.5t-29 -63.5v-285q0 -44 30.5 -63.5t105.5 -19.5q47 0 89 8.5t60 15.5t18 9l1 -2q1 -3 2 -8t1 -11l-4 -21q-55 -31 -168 -31q-102 0 -147 31t-45 92z
M174 653l69 -64l70 64q10 3 19 3l19 -3l-82 -89q-12 -3 -25 -3l-26 3l-83 89q9 3 20 3z" />
    <glyph glyph-name="Ccedilla.smcp" horiz-adv-x="486" 
d="M61 120v285q0 61 44 92t143 31t141 -31t42 -92v-10q-13 -4 -26 -4l-26 4v10q0 44 -29 63.5t-102 19.5q-72 0 -101 -19.5t-29 -63.5v-285q0 -44 30.5 -63.5t105.5 -19.5q47 0 89 8.5t60 15.5t18 9l1 -2q1 -3 2 -8t1 -11l-4 -21q-53 -29 -160 -31v-8q0 -11 10.5 -17
t22.5 -8.5t22.5 -11t10.5 -22.5v-6q0 -50 -72 -50q-40 0 -54.5 12t-14.5 39v4q8 2 16 2l16 -2v-4q0 -15 8 -21t29 -6q22 0 30 5.5t8 20.5v6q0 8 -10.5 13t-22.5 7.5t-22.5 12t-10.5 26.5v9q-88 4 -127 34.5t-39 87.5z" />
    <glyph glyph-name="Ccircumflex.smcp" horiz-adv-x="486" 
d="M61 120v285q0 61 44 92t143 31t141 -31t42 -92v-10q-13 -4 -26 -4l-26 4v10q0 44 -29 63.5t-102 19.5q-72 0 -101 -19.5t-29 -63.5v-285q0 -44 30.5 -63.5t105.5 -19.5q47 0 89 8.5t60 15.5t18 9l1 -2q1 -3 2 -8t1 -11l-4 -21q-55 -31 -168 -31q-102 0 -147 31t-45 92z
M313 564l-70 65l-69 -65q-10 -3 -19 -3l-20 3l83 89q12 3 25 3l26 -3l82 -89q-8 -3 -19 -3z" />
    <glyph glyph-name="Cdotaccent.smcp" horiz-adv-x="486" 
d="M61 120v285q0 61 44 92t143 31t141 -31t42 -92v-10q-13 -4 -26 -4l-26 4v10q0 44 -29 63.5t-102 19.5q-72 0 -101 -19.5t-29 -63.5v-285q0 -44 30.5 -63.5t105.5 -19.5q47 0 89 8.5t60 15.5t18 9l1 -2q1 -3 2 -8t1 -11l-4 -21q-55 -31 -168 -31q-102 0 -147 31t-45 92z
M271 642v-77q-14 -4 -28 -4l-27 4v77q13 3 27 3z" />
    <glyph glyph-name="D.smcp" horiz-adv-x="492" 
d="M62 521q70 6 177 6q101 0 147 -31t46 -91v-285q0 -61 -46 -92t-147 -31q-48 0 -92 1.5t-65 3.5l-20 2v517zM119 488v-451h120q74 0 104.5 19.5t30.5 63.5v285q0 44 -30.5 63.5t-104.5 19.5h-120z" />
    <glyph glyph-name="Dcaron.smcp" horiz-adv-x="492" 
d="M62 521q70 6 177 6q101 0 147 -31t46 -91v-285q0 -61 -46 -92t-147 -31q-48 0 -92 1.5t-65 3.5l-20 2v517zM119 488v-451h120q74 0 104.5 19.5t30.5 63.5v285q0 44 -30.5 63.5t-104.5 19.5h-120zM171 653l69 -64l70 64q10 3 19 3l19 -3l-82 -89q-12 -3 -25 -3l-26 3
l-83 89q9 3 20 3z" />
    <glyph glyph-name="Dcroat.smcp" horiz-adv-x="518" 
d="M88 521q70 6 177 6q192 0 192 -122v-285q0 -61 -45.5 -92t-146.5 -31q-48 0 -92 1.5t-65 3.5l-20 2v247h-43q-4 8 -4 19l4 19h43v232zM279 251h-134v-214h120q74 0 104.5 19.5t30.5 63.5v285q0 44 -30.5 63.5t-104.5 19.5h-120v-199h134q3 -8 3 -19z" />
    <glyph glyph-name="Eth.smcp" horiz-adv-x="518" 
d="M88 521q70 6 177 6q192 0 192 -122v-285q0 -61 -45.5 -92t-146.5 -31q-48 0 -92 1.5t-65 3.5l-20 2v247h-43q-4 8 -4 19l4 19h43v232zM279 251h-134v-214h120q74 0 104.5 19.5t30.5 63.5v285q0 44 -30.5 63.5t-104.5 19.5h-120v-199h134q3 -8 3 -19z" />
    <glyph glyph-name="Thorn.smcp" horiz-adv-x="433" 
d="M119 523v-104q38 3 96 3q160 0 160 -124v-51q0 -61 -38 -92t-122 -31l-96 3v-125q-14 -4 -28 -4l-29 4v521q13 3 29 3zM119 382v-218h94q57 0 80.5 19.5t23.5 63.5v51q0 44 -23.5 64t-80.5 20h-94z" />
    <glyph glyph-name="E.smcp" horiz-adv-x="436" 
d="M119 250v-210h273q3 -8 3 -20l-3 -20h-172l-158 5v515q63 5 158 5h168q3 -8 3 -20l-3 -20h-269v-195h242q4 -8 4 -20l-4 -20h-242z" />
    <glyph glyph-name="Eacute.smcp" horiz-adv-x="436" 
d="M119 250v-210h273q3 -8 3 -20l-3 -20h-172l-158 5v515q63 5 158 5h168q3 -8 3 -20l-3 -20h-269v-195h242q4 -8 4 -20l-4 -20h-242zM314 658l-100 -94q-11 -3 -20 -3l-20 3l86 94q13 3 27 3z" />
    <glyph glyph-name="Ebreve.smcp" horiz-adv-x="436" 
d="M119 250v-210h273q3 -8 3 -20l-3 -20h-172l-158 5v515q63 5 158 5h168q3 -8 3 -20l-3 -20h-269v-195h242q4 -8 4 -20l-4 -20h-242zM221 561q-56 0 -79 18.5t-23 57.5v7q10 4 20 4l19 -4v-7q0 -25 14 -36.5t49 -11.5q34 0 48 11.5t14 36.5v7q9 4 19 4l20 -4v-7
q0 -39 -22.5 -57.5t-78.5 -18.5z" />
    <glyph glyph-name="Ecaron.smcp" horiz-adv-x="436" 
d="M119 250v-210h273q3 -8 3 -20l-3 -20h-172l-158 5v515q63 5 158 5h168q3 -8 3 -20l-3 -20h-269v-195h242q4 -8 4 -20l-4 -20h-242zM160 653l69 -64l69 64q10 3 19 3l20 -3l-82 -89q-12 -3 -26 -3l-26 3l-82 89q9 3 20 3z" />
    <glyph glyph-name="Ecircumflex.smcp" horiz-adv-x="436" 
d="M119 250v-210h273q3 -8 3 -20l-3 -20h-172l-158 5v515q63 5 158 5h168q3 -8 3 -20l-3 -20h-269v-195h242q4 -8 4 -20l-4 -20h-242zM298 564l-69 65l-69 -65q-10 -3 -19 -3l-20 3l82 89q12 3 26 3l26 -3l82 -89q-9 -3 -20 -3z" />
    <glyph glyph-name="Edieresis.smcp" horiz-adv-x="436" 
d="M119 250v-210h273q3 -8 3 -20l-3 -20h-172l-158 5v515q63 5 158 5h168q3 -8 3 -20l-3 -20h-269v-195h242q4 -8 4 -20l-4 -20h-242zM167 638v-73q-9 -4 -22 -4l-23 4v73q10 3 23 3zM335 638v-73q-9 -4 -22 -4l-23 4v73q10 3 23 3z" />
    <glyph glyph-name="Edotaccent.smcp" horiz-adv-x="436" 
d="M119 250v-210h273q3 -8 3 -20l-3 -20h-172l-158 5v515q63 5 158 5h168q3 -8 3 -20l-3 -20h-269v-195h242q4 -8 4 -20l-4 -20h-242zM260 642v-77q-14 -4 -28 -4l-27 4v77q13 3 27 3z" />
    <glyph glyph-name="Egrave.smcp" horiz-adv-x="436" 
d="M119 250v-210h273q3 -8 3 -20l-3 -20h-172l-158 5v515q63 5 158 5h168q3 -8 3 -20l-3 -20h-269v-195h242q4 -8 4 -20l-4 -20h-242zM245 564l-102 94q14 3 28 3l26 -3l87 -94q-9 -3 -20 -3z" />
    <glyph glyph-name="Emacron.smcp" horiz-adv-x="436" 
d="M119 250v-210h273q3 -8 3 -20l-3 -20h-172l-158 5v515q63 5 158 5h168q3 -8 3 -20l-3 -20h-269v-195h242q4 -8 4 -20l-4 -20h-242zM324 580h-191q-3 5 -3 15l3 15h191q4 -6 4 -15z" />
    <glyph glyph-name="Eogonek.smcp" horiz-adv-x="436" 
d="M275 -64q0 36 38 64h-93l-158 5v515q63 5 158 5h168q3 -8 3 -20l-3 -20h-269v-195h242q4 -8 4 -20l-4 -20h-242v-210h273q3 -8 3 -20l-3 -20h-50q-33 -33 -33 -62q0 -32 39 -32q12 0 23 3t16 7l5 3q3 -5 3 -13l-3 -12q-17 -14 -52 -14q-65 0 -65 56z" />
    <glyph glyph-name="F.smcp" horiz-adv-x="426" 
d="M119 250v-248q-14 -4 -28 -4l-29 4v518q63 5 158 5h161q4 -8 4 -20l-4 -20h-262v-195h235q4 -8 4 -20l-4 -20h-235z" />
    <glyph glyph-name="G.smcp" horiz-adv-x="496" 
d="M434 269v-240q-74 -32 -185 -32q-99 0 -143.5 31t-44.5 92v285q0 61 44 92t144 31t142.5 -31t42.5 -92v-10q-13 -4 -26 -4l-27 4v10q0 44 -29 63.5t-103 19.5q-73 0 -102 -19.5t-29 -63.5v-285q0 -44 30 -63.5t101 -19.5q36 0 68.5 5t46.5 10l15 5v178h-120q-3 8 -3 20
l3 20h37q37 0 71.5 -1.5t50.5 -3.5z" />
    <glyph glyph-name="Gbreve.smcp" horiz-adv-x="496" 
d="M434 269v-240q-74 -32 -185 -32q-99 0 -143.5 31t-44.5 92v285q0 61 44 92t144 31t142.5 -31t42.5 -92v-10q-13 -4 -26 -4l-27 4v10q0 44 -29 63.5t-103 19.5q-73 0 -102 -19.5t-29 -63.5v-285q0 -44 30 -63.5t101 -19.5q36 0 68.5 5t46.5 10l15 5v178h-120q-3 8 -3 20
l3 20h37q37 0 71.5 -1.5t50.5 -3.5zM248 561q-56 0 -79 18.5t-23 57.5v7q9 4 19 4l21 -4v-7q0 -26 13.5 -37t48.5 -11q34 0 48 11.5t14 36.5v7q9 4 19 4l20 -4v-7q0 -39 -22.5 -57.5t-78.5 -18.5z" />
    <glyph glyph-name="Gcircumflex.smcp" horiz-adv-x="496" 
d="M434 269v-240q-74 -32 -185 -32q-99 0 -143.5 31t-44.5 92v285q0 61 44 92t144 31t142.5 -31t42.5 -92v-10q-13 -4 -26 -4l-27 4v10q0 44 -29 63.5t-103 19.5q-73 0 -102 -19.5t-29 -63.5v-285q0 -44 30 -63.5t101 -19.5q36 0 68.5 5t46.5 10l15 5v178h-120q-3 8 -3 20
l3 20h37q37 0 71.5 -1.5t50.5 -3.5zM316 564l-68 65l-69 -65q-10 -3 -20 -3l-19 3l82 89q11 3 26 3l26 -3l81 -89q-8 -3 -19 -3z" />
    <glyph glyph-name="Gcommaaccent.smcp" horiz-adv-x="496" 
d="M434 269v-240q-74 -32 -185 -32q-99 0 -143.5 31t-44.5 92v285q0 61 44 92t144 31t142.5 -31t42.5 -92v-10q-13 -4 -26 -4l-27 4v10q0 44 -29 63.5t-103 19.5q-73 0 -102 -19.5t-29 -63.5v-285q0 -44 30 -63.5t101 -19.5q36 0 68.5 5t46.5 10l15 5v178h-120q-3 8 -3 20
l3 20h37q37 0 71.5 -1.5t50.5 -3.5zM266 -36q0 -35 -11.5 -63t-22.5 -39l-12 -10q-7 -4 -15 -4l-13 4q4 4 10 12.5t16 37.5t10 62q9 4 19 4z" />
    <glyph glyph-name="Gdotaccent.smcp" horiz-adv-x="496" 
d="M434 269v-240q-74 -32 -185 -32q-99 0 -143.5 31t-44.5 92v285q0 61 44 92t144 31t142.5 -31t42.5 -92v-10q-13 -4 -26 -4l-27 4v10q0 44 -29 63.5t-103 19.5q-73 0 -102 -19.5t-29 -63.5v-285q0 -44 30 -63.5t101 -19.5q36 0 68.5 5t46.5 10l15 5v178h-120q-3 8 -3 20
l3 20h37q37 0 71.5 -1.5t50.5 -3.5zM275 642v-77q-13 -4 -27 -4l-28 4v77q13 3 28 3z" />
    <glyph glyph-name="H.smcp" horiz-adv-x="510" 
d="M448 523v-521q-15 -4 -30 -4l-28 4v247h-271v-247q-14 -4 -28 -4l-29 4v521q13 3 29 3l28 -3v-234h271v234q14 3 28 3z" />
    <glyph glyph-name="Hbar.smcp" horiz-adv-x="560" 
d="M516 390h-43v-388q-14 -4 -30 -4l-28 4v247h-271v-247q-14 -4 -28 -4l-29 4v388h-43q-3 7 -3 18l3 19h43v96q14 3 29 3l28 -3v-96h271v96q14 3 28 3l30 -3v-96h43q3 -7 3 -19zM144 289h271v101h-271v-101z" />
    <glyph glyph-name="Hcircumflex.smcp" horiz-adv-x="510" 
d="M448 523v-521q-15 -4 -30 -4l-28 4v247h-271v-247q-14 -4 -28 -4l-29 4v521q13 3 29 3l28 -3v-234h271v234q14 3 28 3zM323 564l-69 65l-69 -65q-10 -3 -19 -3l-19 3l82 89q12 3 25 3l26 -3l83 -89q-9 -3 -20 -3z" />
    <glyph glyph-name="I.smcp" horiz-adv-x="264" 
d="M42 40h61v445h-61q-4 7 -4 20l4 20h180q4 -8 4 -20l-4 -20h-61v-445h61q4 -8 4 -20l-4 -20h-180q-4 8 -4 20z" />
    <glyph glyph-name="Iacute.smcp" horiz-adv-x="264" 
d="M42 40h61v445h-61q-4 7 -4 20l4 20h180q4 -8 4 -20l-4 -20h-61v-445h61q4 -8 4 -20l-4 -20h-180q-4 8 -4 20zM220 658l-101 -94q-10 -3 -19 -3l-20 3l86 94q12 3 27 3z" />
    <glyph glyph-name="Ibreve.smcp" horiz-adv-x="264" 
d="M41 40h62v445h-62q-3 7 -3 20l3 20h181q4 -8 4 -20l-4 -20h-61v-445h61q4 -8 4 -20l-4 -20h-181q-3 8 -3 20zM132 561q-56 0 -79 18.5t-23 57.5v7q10 4 20 4l19 -4v-7q0 -25 14 -36.5t49 -11.5q34 0 48 11.5t14 36.5v7q9 4 20 4l19 -4v-7q0 -39 -22.5 -57.5t-78.5 -18.5z
" />
    <glyph glyph-name="Icircumflex.smcp" horiz-adv-x="264" 
d="M42 40h61v445h-61q-4 7 -4 20l4 20h180q4 -8 4 -20l-4 -20h-61v-445h61q4 -8 4 -20l-4 -20h-180q-4 8 -4 20zM201 564l-69 65l-69 -65q-10 -3 -20 -3l-19 3l82 89q12 3 25 3l26 -3l83 -89q-9 -3 -20 -3z" />
    <glyph glyph-name="Idieresis.smcp" horiz-adv-x="264" 
d="M84 638v-74q-10 -3 -23 -3l-22 3v74q10 3 22 3zM225 638v-74q-10 -3 -23 -3l-23 3v74q10 3 23 3zM42 40h61v445h-61q-4 7 -4 20l4 20h180q4 -8 4 -20l-4 -20h-61v-445h61q4 -8 4 -20l-4 -20h-180q-4 8 -4 20z" />
    <glyph glyph-name="Idotaccent.smcp" horiz-adv-x="264" 
d="M42 40h61v445h-61q-4 7 -4 20l4 20h180q4 -8 4 -20l-4 -20h-61v-445h61q4 -8 4 -20l-4 -20h-180q-4 8 -4 20zM159 642v-77q-14 -4 -28 -4l-27 4v77q14 3 27 3z" />
    <glyph glyph-name="Igrave.smcp" horiz-adv-x="264" 
d="M42 40h61v445h-61q-4 7 -4 20l4 20h180q4 -8 4 -20l-4 -20h-61v-445h61q4 -8 4 -20l-4 -20h-180q-4 8 -4 20zM145 564l-101 94q13 3 27 3l26 -3l86 -94q-8 -3 -19 -3z" />
    <glyph glyph-name="Imacron.smcp" horiz-adv-x="265" 
d="M42 40h62v445h-62q-3 7 -3 20l3 20h181q4 -8 4 -20l-4 -20h-62v-445h62q4 -8 4 -20l-4 -20h-181q-3 8 -3 20zM228 580h-191q-4 5 -4 15l4 15h191q3 -6 3 -15z" />
    <glyph glyph-name="Iogonek.smcp" horiz-adv-x="264" 
d="M106 -64q0 36 38 64h-102q-4 8 -4 20l4 20h61v445h-61q-4 7 -4 20l4 20h180q4 -8 4 -20l-4 -20h-61v-445h61q4 -8 4 -20l-4 -20h-50q-33 -33 -33 -62q0 -32 39 -32q12 0 23 3t16 7l5 3q4 -5 4 -13l-4 -12q-16 -14 -52 -14q-64 0 -64 56z" />
    <glyph glyph-name="Itilde.smcp" horiz-adv-x="264" 
d="M42 40h61v445h-61q-3 7 -3 20l3 20h181q3 -8 3 -20l-3 -20h-62v-445h62q3 -8 3 -20l-3 -20h-181q-3 8 -3 20zM14 565v3q0 33 13.5 48.5t47.5 15.5q32 0 60 -21t45 -21q20 0 28 8t8 27v4q8 3 17 3l17 -3v-4q0 -33 -13 -48.5t-47 -15.5q-33 0 -61.5 21t-43.5 21
q-21 0 -29 -8t-8 -27v-3q-8 -4 -17 -4z" />
    <glyph glyph-name="IJ.smcp" horiz-adv-x="600" 
d="M42 40h61v445h-61q-4 7 -4 20l4 20h180q4 -8 4 -20l-4 -20h-61v-445h61q4 -8 4 -20l-4 -20h-180q-4 8 -4 20zM538 525v-405q0 -60 -34 -91t-111 -31q-30 0 -55 4.5t-35 9.5l-10 4q-4 8 -4 20l4 20q36 -19 99 -19q50 0 69.5 19.5t19.5 63.5v365h-95q-3 7 -3 20l3 20h152z
" />
    <glyph glyph-name="J.smcp" horiz-adv-x="394" 
d="M332 523v-403q0 -61 -37.5 -92t-121.5 -31q-38 0 -69.5 7.5t-43.5 15.5l-13 8q-5 9 -5 21q0 6 1 11t3 8l1 2q0 -2 13.5 -9t45 -15.5t67.5 -8.5q56 0 78.5 19.5t22.5 63.5v403q14 3 29 3z" />
    <glyph glyph-name="Jcircumflex.smcp" horiz-adv-x="393" 
d="M332 523v-403q0 -61 -37.5 -92t-121.5 -31q-38 0 -69.5 7.5t-43.5 15.5l-13 8q-5 9 -5 21q0 6 1 11t3 8l1 2q0 -2 13.5 -9t45 -15.5t67.5 -8.5q56 0 78.5 19.5t22.5 63.5v403q14 3 29 3zM371 564l-68 65l-69 -65q-10 -3 -20 -3l-19 3l82 89q11 3 26 3l26 -3l82 -89
q-9 -3 -20 -3z" />
    <glyph glyph-name="K.smcp" horiz-adv-x="441" 
d="M351 2l-168 249l-64 -16v-233q-14 -4 -28 -4l-29 4v521q13 3 29 3l28 -3v-246l64 16l161 230q16 3 31 3l30 -3l-172 -251l180 -270q-15 -4 -30 -4z" />
    <glyph glyph-name="Kcommaaccent.smcp" horiz-adv-x="441" 
d="M351 2l-168 249l-64 -16v-233q-14 -4 -28 -4l-29 4v521q13 3 29 3l28 -3v-246l64 16l161 230q16 3 31 3l30 -3l-172 -251l180 -270q-15 -4 -30 -4zM246 -36q0 -35 -12 -63t-24 -39l-11 -10q-7 -4 -14 -4l-14 4q4 4 10 12.5t16 37.5t10 62q9 4 20 4z" />
    <glyph glyph-name="L.smcp" horiz-adv-x="406" 
d="M119 523v-483h249q3 -8 3 -20l-3 -20h-148l-158 5v518q13 3 29 3z" />
    <glyph glyph-name="Lacute.smcp" horiz-adv-x="406" 
d="M119 523v-483h249q3 -8 3 -20l-3 -20h-148l-158 5v518q13 3 29 3zM186 658l-101 -94q-10 -3 -20 -3l-19 3l86 94q12 3 27 3z" />
    <glyph glyph-name="Lcaron.smcp" horiz-adv-x="406" 
d="M119 523v-483h249q3 -8 3 -20l-3 -20h-148l-158 5v518q13 3 29 3zM60 653l69 -64l68 64q10 3 20 3l19 -3l-82 -89q-11 -3 -25 -3l-26 3l-82 89q8 3 19 3z" />
    <glyph glyph-name="Lcommaaccent.smcp" horiz-adv-x="406" 
d="M119 523v-483h249q3 -8 3 -20l-3 -20h-148l-158 5v518q13 3 29 3zM240 -36q0 -35 -11.5 -63t-22.5 -39l-12 -10q-7 -4 -14 -4l-14 4q4 4 10 12.5t16 37.5t10 62q9 4 19 4z" />
    <glyph glyph-name="Ldot.smcp" horiz-adv-x="406" 
d="M119 523v-483h249q3 -8 3 -20l-3 -20h-148l-158 5v518q13 3 29 3zM317 268v-74q-14 -3 -28 -3l-27 3v74q13 4 27 4z" />
    <glyph glyph-name="Lslash.smcp" horiz-adv-x="428" 
d="M38 197l45 42v284q14 3 28 3l30 -3v-246l81 75q4 -9 4 -22l-4 -23l-81 -76v-191h248q4 -8 4 -20l-4 -20h-148l-158 5v188l-45 -42q-4 11 -4 23z" />
    <glyph glyph-name="M.smcp" horiz-adv-x="626" 
d="M564 523v-521q-14 -4 -28 -4l-27 4v435l-171 -348q-11 -4 -26 -4l-27 4l-168 347v-435q-14 -3 -28 -3l-27 3v522q17 3 36 3l37 -3l177 -365l178 365q17 4 37 4z" />
    <glyph glyph-name="N.smcp" horiz-adv-x="511" 
d="M62 2v521q12 3 25 3l25 -3l282 -417v417q13 3 27 3l28 -3v-521q-12 -4 -25 -4l-25 4l-282 416v-416q-13 -4 -28 -4z" />
    <glyph glyph-name="Nacute.smcp" horiz-adv-x="511" 
d="M62 2v521q12 3 25 3l25 -3l282 -417v417q13 3 27 3l28 -3v-521q-12 -4 -25 -4l-25 4l-282 416v-416q-13 -4 -28 -4zM343 658l-101 -94q-11 -3 -20 -3l-19 3l86 94q13 3 27 3z" />
    <glyph glyph-name="Ncaron.smcp" horiz-adv-x="511" 
d="M62 2v521q12 3 25 3l25 -3l282 -417v417q13 3 27 3l28 -3v-521q-12 -4 -25 -4l-25 4l-282 416v-416q-13 -4 -28 -4zM186 653l69 -64l69 64q10 3 19 3l20 -3l-82 -89q-12 -3 -26 -3l-26 3l-82 89q9 3 20 3z" />
    <glyph glyph-name="Ncommaaccent.smcp" horiz-adv-x="511" 
d="M62 2v521q12 3 25 3l25 -3l282 -417v417q13 3 27 3l28 -3v-521q-12 -4 -25 -4l-25 4l-282 416v-416q-13 -4 -28 -4zM273 -36q0 -35 -11.5 -63t-23.5 -39l-11 -10q-7 -4 -14 -4l-14 4q4 4 10 12.5t16 37.5t10 62q9 4 19 4z" />
    <glyph glyph-name="Ntilde.smcp" horiz-adv-x="511" 
d="M62 2v521q12 3 25 3l25 -3l282 -417v417q13 3 27 3l28 -3v-521q-12 -4 -25 -4l-25 4l-282 416v-416q-13 -4 -28 -4zM137 565v3q0 33 13.5 48.5t46.5 15.5t61 -21t44 -21q20 0 28.5 8t8.5 27v4q8 3 17 3l17 -3v-4q0 -32 -13.5 -48t-47.5 -16q-32 0 -60.5 21t-44.5 21
q-20 0 -28 -8t-8 -27v-3q-8 -4 -17 -4z" />
    <glyph glyph-name="Eng.smcp" horiz-adv-x="511" 
d="M394 -54v64l-277 408v-416q-13 -4 -28 -4l-27 4v521q12 3 25 3l25 -3l282 -417v417q13 3 27 3l28 -3v-577q0 -49 -23.5 -74t-76.5 -25q-33 0 -60 8q-4 7 -4 18l4 17q20 -6 43 -6q35 0 48.5 15t13.5 47z" />
    <glyph glyph-name="O.smcp" horiz-adv-x="507" 
d="M61 120v285q0 123 192 123q193 0 193 -123v-285q0 -123 -193 -123q-101 0 -146.5 31t-45.5 92zM118 405v-285q0 -44 30.5 -63.5t104.5 -19.5t105 19.5t31 63.5v285q0 44 -31 63.5t-105 19.5t-104.5 -19.5t-30.5 -63.5z" />
    <glyph glyph-name="Oacute.smcp" horiz-adv-x="507" 
d="M61 120v285q0 123 192 123q193 0 193 -123v-285q0 -123 -193 -123q-101 0 -146.5 31t-45.5 92zM118 405v-285q0 -44 30.5 -63.5t104.5 -19.5t105 19.5t31 63.5v285q0 44 -31 63.5t-105 19.5t-104.5 -19.5t-30.5 -63.5zM341 658l-100 -94q-11 -3 -20 -3l-20 3l86 94
q13 3 27 3z" />
    <glyph glyph-name="Obreve.smcp" horiz-adv-x="507" 
d="M61 120v285q0 123 192 123q193 0 193 -123v-285q0 -123 -193 -123q-101 0 -146.5 31t-45.5 92zM118 405v-285q0 -44 30.5 -63.5t104.5 -19.5t105 19.5t31 63.5v285q0 44 -31 63.5t-105 19.5t-104.5 -19.5t-30.5 -63.5zM253 561q-56 0 -78.5 18.5t-22.5 57.5v7q9 4 19 4
l20 -4v-7q0 -25 14 -36.5t48 -11.5q35 0 49 11.5t14 36.5v7q9 4 19 4l19 -4v-7q0 -39 -22.5 -57.5t-78.5 -18.5z" />
    <glyph glyph-name="Ocircumflex.smcp" horiz-adv-x="507" 
d="M61 120v285q0 123 192 123q193 0 193 -123v-285q0 -123 -193 -123q-101 0 -146.5 31t-45.5 92zM118 405v-285q0 -44 30.5 -63.5t104.5 -19.5t105 19.5t31 63.5v285q0 44 -31 63.5t-105 19.5t-104.5 -19.5t-30.5 -63.5zM322 564l-69 65l-69 -65q-10 -3 -19 -3l-20 3l82 89
q12 3 26 3l26 -3l82 -89q-9 -3 -19 -3z" />
    <glyph glyph-name="Odieresis.smcp" horiz-adv-x="507" 
d="M61 120v285q0 123 192 123q193 0 193 -123v-285q0 -123 -193 -123q-101 0 -146.5 31t-45.5 92zM118 405v-285q0 -44 30.5 -63.5t104.5 -19.5t105 19.5t31 63.5v285q0 44 -31 63.5t-105 19.5t-104.5 -19.5t-30.5 -63.5zM192 638v-74q-10 -3 -23 -3l-23 3v74q10 3 23 3z
M360 638v-74q-10 -3 -23 -3l-23 3v74q10 3 23 3z" />
    <glyph glyph-name="Ograve.smcp" horiz-adv-x="507" 
d="M61 120v285q0 123 192 123q193 0 193 -123v-285q0 -123 -193 -123q-101 0 -146.5 31t-45.5 92zM118 405v-285q0 -44 30.5 -63.5t104.5 -19.5t105 19.5t31 63.5v285q0 44 -31 63.5t-105 19.5t-104.5 -19.5t-30.5 -63.5zM266 564l-101 94q13 3 28 3l26 -3l86 -94
q-9 -3 -20 -3z" />
    <glyph glyph-name="Ohungarumlaut.smcp" horiz-adv-x="507" 
d="M61 120v285q0 123 192 123q193 0 193 -123v-285q0 -123 -193 -123q-101 0 -146.5 31t-45.5 92zM118 405v-285q0 -44 30.5 -63.5t104.5 -19.5t105 19.5t31 63.5v285q0 44 -31 63.5t-105 19.5t-104.5 -19.5t-30.5 -63.5zM409 658l-102 -94q-10 -3 -19 -3l-20 3l86 94
q12 3 27 3zM275 658l-101 -94q-11 -3 -20 -3l-19 3l86 94q12 3 27 3z" />
    <glyph glyph-name="Omacron.smcp" horiz-adv-x="507" 
d="M61 120v285q0 123 192 123q193 0 193 -123v-285q0 -123 -193 -123q-101 0 -146.5 31t-45.5 92zM118 405v-285q0 -44 30.5 -63.5t104.5 -19.5t105 19.5t31 63.5v285q0 44 -31 63.5t-105 19.5t-104.5 -19.5t-30.5 -63.5zM348 580h-191q-3 5 -3 15l3 15h191q4 -6 4 -15z" />
    <glyph glyph-name="Oslash.smcp" horiz-adv-x="506" 
d="M459 523l-35 -49q22 -28 22 -69v-285q0 -123 -193 -123q-95 0 -143 28l-16 -23q-12 -4 -24 -4l-24 4l35 50q-20 26 -20 68v285q0 123 192 123q95 0 142 -29l17 24q11 3 24 3zM391 405q0 7 -2 19l-252 -361q29 -28 116 -28q75 0 106.5 20.5t31.5 64.5v285zM116 405v-285
q0 -12 1 -17l252 359q-32 27 -116 27q-74 0 -105.5 -20t-31.5 -64z" />
    <glyph glyph-name="Oslashacute.smcp" horiz-adv-x="506" 
d="M459 523l-35 -49q22 -28 22 -69v-285q0 -123 -193 -123q-95 0 -143 28l-16 -23q-12 -4 -24 -4l-24 4l35 50q-20 26 -20 68v285q0 123 192 123q95 0 142 -29l17 24q11 3 24 3zM391 405q0 7 -2 19l-252 -361q29 -28 116 -28q75 0 106.5 20.5t31.5 64.5v285zM116 405v-285
q0 -12 1 -17l252 359q-32 27 -116 27q-74 0 -105.5 -20t-31.5 -64zM341 658l-100 -94q-11 -3 -20 -3l-19 3l85 94q13 3 27 3z" />
    <glyph glyph-name="Otilde.smcp" horiz-adv-x="507" 
d="M61 120v285q0 123 192 123q193 0 193 -123v-285q0 -123 -193 -123q-101 0 -146.5 31t-45.5 92zM118 405v-285q0 -44 30.5 -63.5t104.5 -19.5t105 19.5t31 63.5v285q0 44 -31 63.5t-105 19.5t-104.5 -19.5t-30.5 -63.5zM135 565v3q0 33 13.5 48.5t47.5 15.5q33 0 60.5 -21
t43.5 -21q21 0 29 8t8 27v4q8 3 17 3l17 -3v-4q0 -33 -13.5 -48.5t-47.5 -15.5q-32 0 -60.5 21t-44.5 21q-20 0 -28 -8t-8 -27v-3q-8 -4 -17 -4z" />
    <glyph glyph-name="OE.smcp" horiz-adv-x="687" 
d="M642 0h-132q-89 0 -133 4q-63 -7 -124 -7q-101 0 -146.5 31t-45.5 92v285q0 122 192 122q55 0 125 -7q50 5 132 5h128q4 -8 4 -20l-4 -20h-239v-195h213q3 -8 3 -20l-3 -20h-213v-210h243q4 -8 4 -20zM344 37v451h-91q-74 0 -104.5 -19.5t-30.5 -63.5v-285
q0 -44 30.5 -63.5t104.5 -19.5h91z" />
    <glyph glyph-name="P.smcp" horiz-adv-x="471" 
d="M62 521q67 6 169 6q96 0 139 -31t43 -91v-52q0 -123 -182 -123l-112 3v-231q-14 -4 -28 -4l-29 4v519zM119 488v-218h112q68 0 96.5 20t28.5 63v52q0 44 -28.5 63.5t-96.5 19.5h-112z" />
    <glyph glyph-name="Q.smcp" horiz-adv-x="507" 
d="M352 -130l-73 128q-8 -1 -26 -1q-101 0 -146.5 31t-45.5 92v285q0 123 192 123q193 0 193 -123v-285q0 -97 -116 -117l80 -133q-13 -3 -29 -3zM118 405v-285q0 -44 30.5 -63.5t104.5 -19.5t105 19.5t31 63.5v285q0 44 -31 63.5t-105 19.5t-104.5 -19.5t-30.5 -63.5z" />
    <glyph glyph-name="R.smcp" horiz-adv-x="474" 
d="M371 2l-134 228h-6l-112 3v-231q-14 -4 -28 -4l-29 4v519q67 6 169 6q96 0 139 -31t43 -91v-52q0 -101 -119 -119l138 -232q-14 -4 -30 -4zM119 488v-218h112q68 0 96.5 20t28.5 63v52q0 44 -28.5 63.5t-96.5 19.5h-112z" />
    <glyph glyph-name="Racute.smcp" horiz-adv-x="474" 
d="M371 2l-134 228h-6l-112 3v-231q-14 -4 -28 -4l-29 4v519q67 6 169 6q96 0 139 -31t43 -91v-52q0 -101 -119 -119l138 -232q-14 -4 -30 -4zM119 488v-218h112q68 0 96.5 20t28.5 63v52q0 44 -28.5 63.5t-96.5 19.5h-112zM323 658l-101 -94q-11 -3 -20 -3l-19 3l85 94
q13 3 28 3z" />
    <glyph glyph-name="Rcaron.smcp" horiz-adv-x="474" 
d="M371 2l-134 228h-6l-112 3v-231q-14 -4 -28 -4l-29 4v519q67 6 169 6q96 0 139 -31t43 -91v-52q0 -101 -119 -119l138 -232q-14 -4 -30 -4zM119 488v-218h112q68 0 96.5 20t28.5 63v52q0 44 -28.5 63.5t-96.5 19.5h-112zM160 653l69 -64l69 64q10 3 20 3l19 -3l-82 -89
q-12 -3 -25 -3l-26 3l-83 89q9 3 19 3z" />
    <glyph glyph-name="Rcommaaccent.smcp" horiz-adv-x="474" 
d="M371 2l-134 228h-6l-112 3v-231q-14 -4 -28 -4l-29 4v519q67 6 169 6q96 0 139 -31t43 -91v-52q0 -101 -119 -119l138 -232q-14 -4 -30 -4zM119 488v-218h112q68 0 96.5 20t28.5 63v52q0 44 -28.5 63.5t-96.5 19.5h-112zM262 -36q0 -35 -11.5 -63t-22.5 -39l-12 -10
q-7 -4 -14 -4l-14 4q4 4 10 12.5t16 37.5t10 62q9 4 19 4z" />
    <glyph glyph-name="S.smcp" horiz-adv-x="464" 
d="M111 405v-37q0 -30 31 -48t74.5 -28.5t87.5 -23t75 -40.5t31 -72v-36q0 -62 -42 -92.5t-138 -30.5q-99 0 -139.5 30.5t-40.5 92.5v10q13 3 28 3l28 -3v-10q0 -44 27.5 -63.5t95.5 -19.5t96 19.5t28 63.5v36q0 32 -31 52t-74.5 30.5t-87.5 23t-75 38.5t-31 68v37
q0 61 41 92t135 31q95 0 134 -30.5t39 -92.5v-10q-13 -4 -28 -4l-28 4v10q0 43 -26.5 63t-90.5 20q-65 0 -92 -20t-27 -63z" />
    <glyph glyph-name="Sacute.smcp" horiz-adv-x="464" 
d="M111 405v-37q0 -30 31 -48t74.5 -28.5t87.5 -23t75 -40.5t31 -72v-36q0 -62 -42 -92.5t-138 -30.5q-99 0 -139.5 30.5t-40.5 92.5v10q13 3 28 3l28 -3v-10q0 -44 27.5 -63.5t95.5 -19.5t96 19.5t28 63.5v36q0 32 -31 52t-74.5 30.5t-87.5 23t-75 38.5t-31 68v37
q0 61 41 92t135 31q95 0 134 -30.5t39 -92.5v-10q-13 -4 -28 -4l-28 4v10q0 43 -26.5 63t-90.5 20q-65 0 -92 -20t-27 -63zM320 658l-101 -94q-10 -3 -19 -3l-20 3l86 94q12 3 27 3z" />
    <glyph glyph-name="Scaron.smcp" horiz-adv-x="464" 
d="M111 405v-37q0 -30 31 -48t74.5 -28.5t87.5 -23t75 -40.5t31 -72v-36q0 -62 -42 -92.5t-138 -30.5q-99 0 -139.5 30.5t-40.5 92.5v10q13 3 28 3l28 -3v-10q0 -44 27.5 -63.5t95.5 -19.5t96 19.5t28 63.5v36q0 32 -31 52t-74.5 30.5t-87.5 23t-75 38.5t-31 68v37
q0 61 41 92t135 31q95 0 134 -30.5t39 -92.5v-10q-13 -4 -28 -4l-28 4v10q0 43 -26.5 63t-90.5 20q-65 0 -92 -20t-27 -63zM162 653l70 -64l69 64q10 3 19 3l20 -3l-83 -89q-12 -3 -25 -3l-26 3l-82 89q8 3 19 3z" />
    <glyph glyph-name="Scedilla.smcp" horiz-adv-x="464" 
d="M111 405v-37q0 -30 31 -48t74.5 -28.5t87.5 -23t75 -40.5t31 -72v-36q0 -60 -38.5 -90.5t-126.5 -32.5v-8q0 -11 10.5 -17t23 -8.5t23 -11t10.5 -22.5v-6q0 -50 -72 -50q-41 0 -55.5 12t-14.5 39v4q9 2 16 2l17 -2v-4q0 -15 8 -21t29 -6q22 0 30 5.5t8 20.5v6
q0 8 -10.5 13t-22.5 7.5t-22.5 12t-10.5 26.5v9q-89 2 -125.5 32.5t-36.5 89.5v10q13 3 28 3l28 -3v-10q0 -44 27.5 -63.5t95.5 -19.5t96 19.5t28 63.5v36q0 32 -31 52t-74.5 30.5t-87.5 23t-75 38.5t-31 68v37q0 61 41 92t135 31q95 0 134 -30.5t39 -92.5v-10
q-13 -4 -28 -4l-28 4v10q0 43 -26.5 63t-90.5 20q-65 0 -92 -20t-27 -63z" />
    <glyph glyph-name="Scircumflex.smcp" horiz-adv-x="464" 
d="M111 405v-37q0 -30 31 -48t74.5 -28.5t87.5 -23t75 -40.5t31 -72v-36q0 -62 -42 -92.5t-138 -30.5q-99 0 -139.5 30.5t-40.5 92.5v10q13 3 28 3l28 -3v-10q0 -44 27.5 -63.5t95.5 -19.5t96 19.5t28 63.5v36q0 32 -31 52t-74.5 30.5t-87.5 23t-75 38.5t-31 68v37
q0 61 41 92t135 31q95 0 134 -30.5t39 -92.5v-10q-13 -4 -28 -4l-28 4v10q0 43 -26.5 63t-90.5 20q-65 0 -92 -20t-27 -63zM301 564l-69 65l-70 -65q-10 -3 -19 -3l-19 3l82 89q12 3 25 3l26 -3l83 -89q-9 -3 -20 -3z" />
    <glyph glyph-name="Scommaaccent.smcp" horiz-adv-x="464" 
d="M111 405v-37q0 -30 31 -48t74.5 -28.5t87.5 -23t75 -40.5t31 -72v-36q0 -62 -42 -92.5t-138 -30.5q-99 0 -139.5 30.5t-40.5 92.5v10q13 3 28 3l28 -3v-10q0 -44 27.5 -63.5t95.5 -19.5t96 19.5t28 63.5v36q0 32 -31 52t-74.5 30.5t-87.5 23t-75 38.5t-31 68v37
q0 61 41 92t135 31q95 0 134 -30.5t39 -92.5v-10q-13 -4 -28 -4l-28 4v10q0 43 -26.5 63t-90.5 20q-65 0 -92 -20t-27 -63zM247 -36q0 -35 -11.5 -63t-23.5 -39l-11 -10q-7 -4 -14 -4l-14 4q4 4 10 12.5t16 37.5t10 62q9 4 19 4z" />
    <glyph glyph-name="T.smcp" horiz-adv-x="459" 
d="M418 485h-160v-483q-14 -4 -29 -4l-28 4v483h-163q-3 7 -3 20l3 20h380q3 -8 3 -20z" />
    <glyph glyph-name="Tbar.smcp" horiz-adv-x="459" 
d="M390 258h-132v-256q-14 -4 -29 -4l-28 4v256h-132q-3 6 -3 18l3 19h132v190h-163q-3 7 -3 20l3 20h380q3 -8 3 -20l-3 -20h-160v-190h132q4 -8 4 -19z" />
    <glyph glyph-name="Tcaron.smcp" horiz-adv-x="459" 
d="M418 485h-160v-483q-14 -4 -29 -4l-28 4v483h-163q-3 7 -3 20l3 20h380q3 -8 3 -20zM160 653l69 -64l70 64q10 3 19 3l19 -3l-82 -89q-12 -3 -25 -3l-26 3l-83 89q9 3 20 3z" />
    <glyph glyph-name="Tcommaaccent.smcp" horiz-adv-x="459" 
d="M418 485h-160v-483q-14 -4 -29 -4l-28 4v483h-163q-3 7 -3 20l3 20h380q3 -8 3 -20zM249 -36q0 -35 -11.5 -63t-23.5 -39l-11 -10q-7 -4 -13 -4l-15 4q4 4 10 12.5t16.5 37.5t10.5 62q8 4 18 4z" />
    <glyph glyph-name="uni021A.smcp" horiz-adv-x="459" 
d="M418 485h-160v-483q-14 -4 -29 -4l-28 4v483h-163q-3 7 -3 20l3 20h380q3 -8 3 -20zM249 -36q0 -35 -11.5 -63t-23.5 -39l-11 -10q-7 -4 -13 -4l-15 4q4 4 10 12.5t16.5 37.5t10.5 62q8 4 18 4z" />
    <glyph glyph-name="U.smcp" horiz-adv-x="502" 
d="M440 523v-403q0 -61 -45 -92t-144 -31q-189 0 -189 123v403q13 3 29 3l28 -3v-403q0 -44 30 -63.5t102 -19.5t102 19.5t30 63.5v403q14 3 29 3z" />
    <glyph glyph-name="Uacute.smcp" horiz-adv-x="502" 
d="M440 523v-403q0 -61 -45 -92t-144 -31q-189 0 -189 123v403q13 3 29 3l28 -3v-403q0 -44 30 -63.5t102 -19.5t102 19.5t30 63.5v403q14 3 29 3zM339 658l-101 -94q-10 -3 -19 -3l-20 3l86 94q13 3 27 3z" />
    <glyph glyph-name="Ubreve.smcp" horiz-adv-x="502" 
d="M440 523v-403q0 -61 -45 -92t-144 -31q-189 0 -189 123v403q13 3 29 3l28 -3v-403q0 -44 30 -63.5t102 -19.5t102 19.5t30 63.5v403q14 3 29 3zM251 561q-56 0 -78.5 18.5t-22.5 57.5v7q9 4 19 4l20 -4v-7q0 -25 14 -36.5t48 -11.5t48 11.5t14 36.5v7q10 4 20 4l19 -4v-7
q0 -39 -22.5 -57.5t-78.5 -18.5z" />
    <glyph glyph-name="Ucircumflex.smcp" horiz-adv-x="502" 
d="M440 523v-403q0 -61 -45 -92t-144 -31q-189 0 -189 123v403q13 3 29 3l28 -3v-403q0 -44 30 -63.5t102 -19.5t102 19.5t30 63.5v403q14 3 29 3zM320 564l-69 65l-69 -65q-10 -3 -19 -3l-20 3l82 89q12 3 26 3l26 -3l82 -89q-9 -3 -19 -3z" />
    <glyph glyph-name="Udieresis.smcp" horiz-adv-x="502" 
d="M440 523v-403q0 -61 -45 -92t-144 -31q-189 0 -189 123v403q13 3 29 3l28 -3v-403q0 -44 30 -63.5t102 -19.5t102 19.5t30 63.5v403q14 3 29 3zM189 638v-74q-9 -3 -22 -3l-23 3v74q10 3 23 3zM357 638v-74q-9 -3 -22 -3l-23 3v74q10 3 23 3z" />
    <glyph glyph-name="Ugrave.smcp" horiz-adv-x="502" 
d="M440 523v-403q0 -61 -45 -92t-144 -31q-189 0 -189 123v403q13 3 29 3l28 -3v-403q0 -44 30 -63.5t102 -19.5t102 19.5t30 63.5v403q14 3 29 3zM264 564l-101 94q14 3 27 3l27 -3l86 -94q-9 -3 -19 -3z" />
    <glyph glyph-name="Uhungarumlaut.smcp" horiz-adv-x="502" 
d="M440 523v-403q0 -61 -45 -92t-144 -31q-189 0 -189 123v403q13 3 29 3l28 -3v-403q0 -44 30 -63.5t102 -19.5t102 19.5t30 63.5v403q14 3 29 3zM273 658l-102 -94q-10 -3 -19 -3l-19 3l86 94q12 3 27 3zM407 658l-102 -94q-10 -3 -19 -3l-20 3l86 94q12 3 27 3z" />
    <glyph glyph-name="Umacron.smcp" horiz-adv-x="502" 
d="M440 523v-403q0 -61 -45 -92t-144 -31q-189 0 -189 123v403q13 3 29 3l28 -3v-403q0 -44 30 -63.5t102 -19.5t102 19.5t30 63.5v403q14 3 29 3zM347 580h-192q-3 5 -3 15l3 15h192q3 -6 3 -15z" />
    <glyph glyph-name="Uogonek.smcp" horiz-adv-x="502" 
d="M254 -64q0 33 36 63q-26 -2 -39 -2q-189 0 -189 123v403q13 3 29 3l28 -3v-403q0 -44 30 -63.5t102 -19.5t102 19.5t30 63.5v403q14 3 29 3l28 -3v-403q0 -100 -118 -118q-34 -34 -34 -64q0 -32 38 -32q12 0 23 3t17 7l5 3q3 -5 3 -13l-3 -12q-17 -14 -53 -14
q-64 0 -64 56z" />
    <glyph glyph-name="Uring.smcp" horiz-adv-x="502" 
d="M440 523v-403q0 -61 -45 -92t-144 -31q-189 0 -189 123v403q13 3 29 3l28 -3v-403q0 -44 30 -63.5t102 -19.5t102 19.5t30 63.5v403q14 3 29 3zM186 608v13q0 51 65 51t65 -51v-13q0 -50 -65 -50t-65 50zM214 621v-13q0 -27 37 -27q38 0 38 27v13q0 28 -38 28
q-37 0 -37 -28z" />
    <glyph glyph-name="Utilde.smcp" horiz-adv-x="502" 
d="M440 523v-403q0 -61 -45 -92t-144 -31q-189 0 -189 123v403q13 3 29 3l28 -3v-403q0 -44 30 -63.5t102 -19.5t102 19.5t30 63.5v403q14 3 29 3zM133 565v3q0 33 13.5 48.5t46.5 15.5t61 -21t45 -21q20 0 28 8t8 27v4q8 3 17 3l17 -3v-4q0 -33 -13 -48.5t-47 -15.5
q-33 0 -61.5 21t-44.5 21q-20 0 -28 -8t-8 -27v-3q-8 -4 -17 -4z" />
    <glyph glyph-name="V.smcp" horiz-adv-x="495" 
d="M209 2l-181 521q14 3 28 3l29 -3l162 -473l163 473q15 3 29 3l28 -3l-181 -521q-17 -4 -38 -4z" />
    <glyph glyph-name="W.smcp" horiz-adv-x="768" 
d="M510 2l-126 464l-126 -464q-17 -4 -38 -4l-40 4l-149 521q15 3 29 3l29 -3l132 -469l128 469q15 3 35 3l36 -3l128 -469l131 469q15 3 29 3l29 -3l-149 -521q-18 -4 -39 -4z" />
    <glyph glyph-name="Wacute.smcp" horiz-adv-x="768" 
d="M510 2l-126 464l-126 -464q-17 -4 -38 -4l-40 4l-149 521q15 3 29 3l29 -3l132 -469l128 469q15 3 35 3l36 -3l128 -469l131 469q15 3 29 3l29 -3l-149 -521q-18 -4 -39 -4zM472 658l-102 -94q-10 -3 -19 -3l-19 3l86 94q12 3 27 3z" />
    <glyph glyph-name="Wcircumflex.smcp" horiz-adv-x="768" 
d="M510 2l-126 464l-126 -464q-17 -4 -38 -4l-40 4l-149 521q15 3 29 3l29 -3l132 -469l128 469q15 3 35 3l36 -3l128 -469l131 469q15 3 29 3l29 -3l-149 -521q-18 -4 -39 -4zM452 564l-68 65l-69 -65q-10 -3 -20 -3l-19 3l82 89q11 3 26 3l26 -3l81 -89q-8 -3 -19 -3z" />
    <glyph glyph-name="Wdieresis.smcp" horiz-adv-x="768" 
d="M510 2l-126 464l-126 -464q-17 -4 -38 -4l-40 4l-149 521q15 3 29 3l29 -3l132 -469l128 469q15 3 35 3l36 -3l128 -469l131 469q15 3 29 3l29 -3l-149 -521q-18 -4 -39 -4zM322 638v-74q-10 -3 -22 -3l-23 3v74q10 3 23 3zM490 638v-74q-10 -3 -22 -3l-23 3v74
q10 3 23 3z" />
    <glyph glyph-name="Wgrave.smcp" horiz-adv-x="768" 
d="M510 2l-126 464l-126 -464q-17 -4 -38 -4l-40 4l-149 521q15 3 29 3l29 -3l132 -469l128 469q15 3 35 3l36 -3l128 -469l131 469q15 3 29 3l29 -3l-149 -521q-18 -4 -39 -4zM397 564l-102 94q14 3 27 3l27 -3l86 -94q-8 -3 -19 -3z" />
    <glyph glyph-name="X.smcp" horiz-adv-x="472" 
d="M382 2l-146 228l-146 -228q-16 -4 -31 -4l-32 4l170 264l-165 257q17 3 31 3l32 -3l141 -222l141 222q16 3 32 3l31 -3l-165 -257l170 -264q-17 -4 -32 -4z" />
    <glyph glyph-name="Y.smcp" horiz-adv-x="473" 
d="M440 523l-175 -302v-219q-14 -4 -29 -4l-28 4v219l-176 302q17 3 31 3l32 -3l141 -247l141 247q16 3 32 3z" />
    <glyph glyph-name="Yacute.smcp" horiz-adv-x="473" 
d="M440 523l-175 -302v-219q-14 -4 -29 -4l-28 4v219l-176 302q17 3 31 3l32 -3l141 -247l141 247q16 3 32 3zM324 658l-101 -94q-10 -3 -19 -3l-20 3l86 94q13 3 27 3z" />
    <glyph glyph-name="Ycircumflex.smcp" horiz-adv-x="473" 
d="M440 523l-175 -302v-219q-14 -4 -29 -4l-28 4v219l-176 302q17 3 31 3l32 -3l141 -247l141 247q16 3 32 3zM305 564l-69 65l-69 -65q-10 -3 -19 -3l-20 3l82 89q12 3 26 3l26 -3l82 -89q-9 -3 -19 -3z" />
    <glyph glyph-name="Ydieresis.smcp" horiz-adv-x="473" 
d="M440 523l-175 -302v-219q-14 -4 -29 -4l-28 4v219l-176 302q17 3 31 3l32 -3l141 -247l141 247q16 3 32 3zM174 638v-74q-9 -3 -22 -3l-23 3v74q10 3 23 3zM342 638v-74q-9 -3 -22 -3l-23 3v74q10 3 23 3z" />
    <glyph glyph-name="Ygrave.smcp" horiz-adv-x="473" 
d="M440 523l-175 -302v-219q-14 -4 -29 -4l-28 4v219l-176 302q17 3 31 3l32 -3l141 -247l141 247q16 3 32 3zM249 564l-101 94q14 3 27 3l27 -3l86 -94q-9 -3 -19 -3z" />
    <glyph glyph-name="Z.smcp" horiz-adv-x="458" 
d="M408 485l-295 -444h295q4 -8 4 -20l-4 -21h-358q-4 8 -4 20l4 20l294 444h-293q-4 8 -4 20l4 21h357q3 -8 3 -20z" />
    <glyph glyph-name="Zacute.smcp" horiz-adv-x="458" 
d="M408 485l-295 -444h295q4 -8 4 -20l-4 -21h-358q-4 8 -4 20l4 20l294 444h-293q-4 8 -4 20l4 21h357q3 -8 3 -20zM317 658l-101 -94q-10 -3 -19 -3l-20 3l86 94q12 3 27 3z" />
    <glyph glyph-name="Zcaron.smcp" horiz-adv-x="458" 
d="M408 485l-295 -444h295q4 -8 4 -20l-4 -21h-358q-4 8 -4 20l4 20l294 444h-293q-4 8 -4 20l4 21h357q3 -8 3 -20zM160 653l69 -64l69 64q10 3 19 3l20 -3l-82 -89q-12 -3 -26 -3l-26 3l-82 89q9 3 19 3z" />
    <glyph glyph-name="Zdotaccent.smcp" horiz-adv-x="458" 
d="M408 485l-295 -444h295q4 -8 4 -20l-4 -21h-358q-4 8 -4 20l4 20l294 444h-293q-4 8 -4 20l4 21h357q3 -8 3 -20zM256 642v-77q-13 -4 -27 -4l-28 4v77q13 3 28 3z" />
    <glyph glyph-name="uni018F.smcp" horiz-adv-x="496" 
d="M216 282h162v123q0 44 -29 63.5t-101 19.5q-73 0 -102 -19.5t-29 -63.5v-10q-12 -4 -26 -4l-26 4v10q0 61 42 92t141 31t143.5 -31t44.5 -92v-285q0 -61 -44 -92t-144 -31q-101 0 -143 30.5t-42 92.5v156q58 6 153 6zM118 245v-125q0 -44 29 -63.5t101 -19.5t101 19.5
t29 63.5v125h-260z" />
    <glyph glyph-name="germandbls.smcp" horiz-adv-x="540" 
d="M93 2v337h-42q-4 7 -4 18l4 19h42v46q0 106 130 106q71 0 102 -26.5t31 -79.5v-12q0 -30 -12.5 -49.5t-27 -26.5t-27 -21.5t-12.5 -36.5v-11q0 -36 78 -51q30 -7 47.5 -12t41.5 -16.5t35.5 -29.5t11.5 -42v-15q0 -103 -136 -103q-73 0 -103.5 26.5t-30.5 80.5v7
q14 3 27 3l27 -3v-7q0 -36 18 -52.5t62 -16.5t62.5 16t18.5 49v15q0 24 -21.5 36t-61.5 20q-37 7 -60.5 14.5t-47 28.5t-23.5 52v11q0 30 12.5 48.5t27 25t27 22t12.5 38.5v12q0 33 -17.5 48.5t-60.5 15.5q-42 0 -58.5 -15.5t-16.5 -48.5v-420q-13 -4 -27 -4z" />
    <glyph glyph-name="zero.slash" horiz-adv-x="582" 
d="M531 697l-45 -71q19 -34 19 -81v-390q0 -159 -219 -159q-117 0 -171 43l-23 -37q-14 -4 -26 -4l-25 4l45 71q-19 34 -19 82v390q0 159 219 159q116 0 171 -44l24 37q11 5 25 5zM446 546q0 11 -1 16l-301 -477q32 -47 142 -47q87 0 123.5 28t36.5 88v392zM126 546v-409
l302 477q-33 48 -142 48q-86 0 -123 -28.5t-37 -87.5z" />
    <glyph glyph-name="zero.fitted" horiz-adv-x="556" 
d="M62 149v402q0 153 216 153q215 0 215 -153v-402q0 -153 -215 -153q-216 0 -216 153zM122 551v-402q0 -57 36 -84t120 -27t119.5 27t35.5 84v402q0 57 -35.5 84t-119.5 27t-120 -27t-36 -84z" />
    <glyph glyph-name="zero.fitted.slash" horiz-adv-x="556" 
d="M511 697l-44 -71q19 -34 19 -81v-390q0 -159 -213 -159q-114 0 -166 43l-22 -37q-14 -4 -25 -4l-26 4l44 72q-18 34 -18 81v390q0 159 213 159q113 0 165 -44l23 37q11 5 25 5zM118 546v-407l292 475q-32 48 -137 48q-83 0 -119 -28.5t-36 -87.5zM427 546q0 9 -1 13
l-291 -474q32 -47 138 -47q84 0 119 28t35 88v392z" />
    <glyph glyph-name="one.fitted" horiz-adv-x="556" 
d="M105 42h143v609l-162 4q-3 9 -3 21l3 21q88 4 222 4v-659h143q5 -8 5 -21l-5 -21h-346q-5 8 -5 21z" />
    <glyph glyph-name="two.fitted" horiz-adv-x="556" 
d="M433 494v51q0 61 -35.5 89t-122.5 28q-85 0 -119.5 -28t-34.5 -89v-14q-14 -4 -29 -4l-29 4v14q0 80 48 119.5t164 39.5t166.5 -40t50.5 -119v-51q0 -51 -20 -89.5t-52.5 -61t-71 -41t-77.5 -35.5t-71.5 -37.5t-52.5 -54.5t-20 -80v-53h361q4 -8 4 -21l-4 -21h-225
q-52 0 -100.5 1.5t-71.5 2.5l-23 2v89q0 52 20 91.5t52.5 63t71 42t77.5 35.5t71.5 37.5t52.5 53t20 76.5z" />
    <glyph glyph-name="three.fitted" horiz-adv-x="556" 
d="M71 656q-4 9 -4 22l4 22h408q4 -9 4 -21l-4 -22l-215 -259q72 0 120 -12.5t72.5 -36.5t33.5 -51.5t9 -65.5v-69q0 -167 -230 -167q-62 0 -113.5 11t-71.5 21l-21 11q-5 9 -5 22l5 22q0 -2 22 -12t73 -21.5t110 -11.5q92 0 131.5 30t39.5 95v69q0 65 -42 94.5t-141 29.5
h-55q-4 9 -4 22l4 22l210 256h-340z" />
    <glyph glyph-name="four.fitted" horiz-adv-x="556" 
d="M439 497v-282h76q4 -9 4 -22l-4 -22h-74v-169q-15 -4 -30 -4l-29 4v169h-324q-4 9 -4 22l202 504q12 4 29 4l32 -4l-195 -482h260v282q14 5 29 5z" />
    <glyph glyph-name="five.fitted" horiz-adv-x="556" 
d="M162 657l-16 -249h122q127 0 175.5 -43.5t48.5 -124.5v-77q0 -167 -223 -167q-63 0 -115 11t-72 21l-21 11q-4 9 -4 22l4 22q0 -2 22.5 -12t74.5 -21.5t111 -11.5q89 0 126 30t37 95v77q0 64 -37.5 94t-126.5 30h-176q-4 8 -4 22l22 307q79 7 199 7h140q4 -9 4 -21
l-4 -22h-287z" />
    <glyph glyph-name="six.fitted" horiz-adv-x="556" 
d="M125 386q8 6 23 14.5t67.5 22.5t111.5 14q87 0 125.5 -38.5t38.5 -114.5v-135q0 -153 -213 -153t-213 153v379q0 86 51.5 130.5t168.5 44.5q49 0 92 -6.5t61 -12.5l19 -6q4 -8 4 -21l-4 -22q-66 26 -175 26q-87 0 -122 -32.5t-35 -99.5v-143zM125 340v-191q0 -57 35 -84
t118 -27t118 27t35 84v135q0 57 -26.5 83.5t-93.5 26.5q-60 0 -106.5 -13.5t-62.5 -26.5z" />
    <glyph glyph-name="seven.fitted" horiz-adv-x="556" 
d="M498 679l-276 -677q-12 -4 -31 -4l-33 4l272 654h-368q-4 9 -4 22l4 22h432q4 -9 4 -21z" />
    <glyph glyph-name="eight.fitted" horiz-adv-x="556" 
d="M76 491v60q0 153 202 153q106 0 153.5 -39t47.5 -114v-60q0 -102 -92 -130q107 -29 107 -134v-78q0 -75 -51 -114t-165 -39q-217 0 -217 153v78q0 105 107 134q-92 29 -92 130zM121 227v-78q0 -57 36 -84t121 -27t120.5 27t35.5 84v78q0 57 -35.5 84t-120.5 27t-121 -27
t-36 -84zM136 551v-60q0 -57 32.5 -84t109.5 -27t109 27t32 84v60q0 57 -32 84t-109 27t-109.5 -27t-32.5 -84z" />
    <glyph glyph-name="nine.fitted" horiz-adv-x="556" 
d="M431 170v157q-8 -6 -23 -14.5t-67.5 -22.5t-111.5 -14q-88 0 -126 38.5t-38 114.5v121q0 153 213 153t213 -153v-379q0 -86 -52 -130.5t-168 -44.5q-49 0 -92.5 6t-62.5 12l-20 7q-4 8 -4 21l4 22q70 -26 178 -26q86 0 121.5 32.5t35.5 99.5zM431 373v177q0 57 -35 84
t-118 27t-118 -27t-35 -84v-121q0 -58 26.5 -84t93.5 -26q60 0 106.5 13.5t62.5 27.5z" />
    <glyph glyph-name="zerooldstyle.slash" horiz-adv-x="552" 
d="M477 497l-31 -42q39 -36 39 -104v-202q0 -153 -209 -153q-96 0 -147 30l-18 -24q-12 -4 -22 -4l-23 4l35 47q-34 35 -34 100v202q0 153 209 153q90 0 141 -28l15 21q10 5 23 5zM430 351q0 37 -15 63l-258 -351q36 -27 119 -27q84 0 119 27t35 86v202zM122 351v-202
q0 -35 11 -57l257 348q-38 24 -114 24q-84 0 -119 -27t-35 -86z" />
    <glyph glyph-name="zero.taboldstyle" horiz-adv-x="510" 
d="M55 149v202q0 75 47.5 114t152.5 39q200 0 200 -153v-202q0 -153 -200 -153q-105 0 -152.5 39t-47.5 114zM115 351v-202q0 -57 32.5 -84t107.5 -27t107.5 27t32.5 84v202q0 57 -32.5 84t-107.5 27t-107.5 -27t-32.5 -84z" />
    <glyph glyph-name="zero.taboldstyle.slash" horiz-adv-x="510" 
d="M448 497l-30 -42q37 -38 37 -104v-202q0 -153 -200 -153q-92 0 -140 30l-17 -24q-12 -4 -22 -4l-23 4l34 48q-32 36 -32 99v202q0 75 47.5 114t152.5 39q83 0 134 -27l14 20q10 5 23 5zM400 351q0 37 -13 60l-245 -347q34 -28 113 -28q78 0 111.5 27.5t33.5 85.5v202z
M110 351v-202q0 -35 9 -54l243 345q-34 24 -107 24q-78 0 -111.5 -27.5t-33.5 -85.5z" />
    <glyph glyph-name="one.taboldstyle" horiz-adv-x="510" 
d="M90 42h135v409l-153 4q-3 9 -3 21l3 21q85 4 213 4v-459h135q5 -8 5 -21l-5 -21h-330q-5 8 -5 21z" />
    <glyph glyph-name="two.taboldstyle" horiz-adv-x="510" 
d="M393 336v16q0 57 -32 83.5t-109 26.5q-72 0 -104.5 -30.5t-32.5 -79.5v-14q-14 -4 -29 -4l-29 4v14q0 66 46 109t149 43q106 0 153 -38t47 -114v-16q0 -45 -34 -77t-83 -50.5t-97.5 -36t-82.5 -44t-34 -62.5v-24h327q4 -8 4 -21l-4 -21h-192q-52 0 -100.5 1.5t-71.5 2.5
l-22 2v60q0 46 34 79.5t82.5 52t97.5 35.5t83 42.5t34 60.5z" />
    <glyph glyph-name="three.taboldstyle" horiz-adv-x="510" 
d="M58 456q-4 9 -4 22l4 22h387q4 -9 4 -21l-4 -22l-202 -259q130 0 176 -43t46 -123v-69q0 -82 -52.5 -124.5t-167.5 -42.5q-59 0 -107.5 11t-67.5 21l-20 11q-5 9 -5 22l5 22q0 -2 21 -12t69.5 -21.5t103.5 -11.5q87 0 124 30t37 95v69q0 65 -39 94.5t-132 29.5h-53
q-4 9 -4 22l4 22l198 256h-321z" />
    <glyph glyph-name="four.taboldstyle" horiz-adv-x="510" 
d="M409 297v-253h71q4 -9 4 -22l-4 -22h-69v-198q-15 -4 -30 -4l-29 4v198h-307q-4 8 -4 21l190 476q11 4 29 4l32 -4l-182 -453h243v253q13 5 28 5z" />
    <glyph glyph-name="five.taboldstyle" horiz-adv-x="510" 
d="M147 457l-15 -249h114q120 0 166.5 -43.5t46.5 -124.5v-77q0 -167 -213 -167q-60 0 -109 11t-69 21l-19 11q-5 9 -5 22l5 22q0 -2 21 -12t70 -21.5t105 -11.5q84 0 119 30t35 95v77q0 63 -35 93.5t-118 30.5h-168q-4 8 -4 22l21 307q75 7 189 7h134q4 -9 4 -21l-4 -22
h-271z" />
    <glyph glyph-name="six.taboldstyle" horiz-adv-x="510" 
d="M112 386q7 6 21.5 14.5t63.5 22.5t105 14q83 0 119.5 -38.5t36.5 -114.5v-135q0 -153 -203 -153t-203 153v379q0 86 49 130.5t162 44.5q47 0 87.5 -6.5t57.5 -12.5l18 -6q4 -8 4 -21l-4 -22q-63 26 -167 26q-81 0 -114 -32.5t-33 -99.5v-143zM112 340v-191
q0 -57 32.5 -84t110.5 -27q77 0 110 27t33 84v135q0 57 -25 83.5t-87 26.5q-56 0 -99.5 -13.5t-58.5 -26.5z" />
    <glyph glyph-name="seven.taboldstyle" horiz-adv-x="510" 
d="M464 479l-260 -677q-12 -4 -31 -4l-33 4l257 654h-348q-4 9 -4 22l4 22h411q4 -9 4 -21z" />
    <glyph glyph-name="eight.taboldstyle" horiz-adv-x="510" 
d="M62 491v60q0 153 193 153q192 0 192 -153v-60q0 -102 -87 -130q101 -28 101 -134v-78q0 -75 -49 -114t-157 -39t-157.5 39t-49.5 114v78q0 106 102 134q-88 28 -88 130zM108 227v-78q0 -57 33.5 -84t113.5 -27t113 27t33 84v78q0 57 -33 84t-113 27t-113.5 -27t-33.5 -84
zM122 551v-60q0 -57 30.5 -84t102.5 -27t102 27t30 84v60q0 57 -30 84t-102 27t-102.5 -27t-30.5 -84z" />
    </font>
</defs>
</svg>
