<?xml version="1.0" standalone="no"?>
<!DOCTYPE svg PUBLIC "-//W3C//DTD SVG 1.1//EN" "http://www.w3.org/Graphics/SVG/1.1/DTD/svg11.dtd" >
<svg xmlns="http://www.w3.org/2000/svg" xmlns:xlink="http://www.w3.org/1999/xlink" version="1.1">
<metadata>
Created by FontForge 20170731 at Sun Dec 22 19:41:47 2013
 By Aleksey,,,
Copyright (c) 2013 by Andriy Konstantynov. All rights reserved.
</metadata>
<defs>
<font id="PancettaPro-Bold" horiz-adv-x="516" >
  <font-face 
    font-family="Pancetta Pro"
    font-weight="700"
    font-stretch="normal"
    units-per-em="1000"
    panose-1="2 11 0 3 3 2 0 8 0 4"
    ascent="774"
    descent="-226"
    x-height="500"
    cap-height="704"
    bbox="-86 -208 1058 902"
    underline-thickness="50"
    underline-position="-150"
    unicode-range="U+0020-FB03"
  />
<missing-glyph horiz-adv-x="216" 
 />
    <glyph glyph-name="ff" unicode="ff" horiz-adv-x="697" 
d="M667 402h-113v-397q-40 -8 -80 -8q-18 0 -37.5 2t-30.5 4l-11 2v397h-162v-397q-39 -8 -79 -8q-18 0 -38 2t-31 4l-11 2v397h-42q-7 19 -7 49q0 13 1.5 25.5t3.5 17.5l2 6h42v41q0 83 35.5 124.5t117.5 41.5q78 0 120 -14q6 -22 6 -46l-6 -45q-14 7 -60 7
q-30 0 -42 -15.5t-12 -52.5v-41h162v41q0 83 35.5 124.5t116.5 41.5q32 0 62 -3.5t43 -6.5t15 -4q6 -22 6 -46l-6 -45q-14 7 -60 7q-30 0 -41.5 -15.5t-11.5 -52.5v-41h113q7 -19 7 -49q0 -13 -2 -25t-4 -18z" />
    <glyph glyph-name="fi" unicode="fi" horiz-adv-x="606" 
d="M347 402h-114v-397q-39 -8 -79 -8q-18 0 -38 2t-31 4l-11 2v397h-42q-7 19 -7 49q0 13 1.5 25.5t3.5 17.5l2 6h42v41q0 83 35.5 124.5t117.5 41.5q78 0 120 -14q6 -22 6 -46l-6 -45q-14 7 -60 7q-30 0 -42 -15.5t-12 -52.5v-41h114q6 -19 6 -49q0 -13 -1.5 -25t-3.5 -18z
M565 496v-492q-40 -8 -79 -8q-18 0 -38 2t-31 4l-11 2v492q40 8 80 8q18 0 37.5 -2t30.5 -4zM565 696v-122q-40 -7 -79 -7q-18 0 -38 1.5t-31 3.5l-11 2v122q40 8 80 8q18 0 37.5 -2t30.5 -4z" />
    <glyph glyph-name="ffi" unicode="ffi" horiz-adv-x="927" 
d="M667 402h-113v-397q-40 -8 -80 -8q-18 0 -37.5 2t-30.5 4l-11 2v397h-162v-397q-39 -8 -79 -8q-18 0 -38 2t-31 4l-11 2v397h-42q-7 19 -7 49q0 13 1.5 25.5t3.5 17.5l2 6h42v41q0 83 35.5 124.5t117.5 41.5q78 0 120 -14q6 -22 6 -46l-6 -45q-14 7 -60 7
q-30 0 -42 -15.5t-12 -52.5v-41h162v41q0 83 35.5 124.5t116.5 41.5q32 0 62 -3.5t43 -6.5t15 -4q6 -22 6 -46l-6 -45q-14 7 -60 7q-30 0 -41.5 -15.5t-11.5 -52.5v-41h113q7 -19 7 -49q0 -13 -2 -25t-4 -18zM886 496v-492q-40 -8 -80 -8q-18 0 -38 2t-31 4l-11 2v492
q40 8 80 8q18 0 38 -2t31 -4zM886 696v-122q-40 -7 -80 -7q-18 0 -38 1.5t-31 3.5l-11 2v122q40 8 80 8q18 0 38 -2t31 -4z" />
    <glyph glyph-name="f_f_j" unicode="ffj" horiz-adv-x="931" 
d="M667 402h-113v-397q-40 -8 -80 -8q-18 0 -37.5 2t-30.5 4l-11 2v397h-162v-397q-39 -8 -79 -8q-18 0 -38 2t-31 4l-11 2v397h-42q-7 19 -7 49q0 13 1.5 25.5t3.5 17.5l2 6h42v41q0 83 35.5 124.5t117.5 41.5q78 0 120 -14q6 -22 6 -46l-6 -45q-14 7 -60 7
q-30 0 -42 -15.5t-12 -52.5v-41h162v41q0 83 35.5 124.5t116.5 41.5q32 0 62 -3.5t43 -6.5t15 -4q6 -22 6 -46l-6 -45q-14 7 -60 7q-30 0 -41.5 -15.5t-11.5 -52.5v-41h113q7 -19 7 -49q0 -13 -2 -25t-4 -18zM731 -42v538q40 8 79 8q18 0 38 -2t31 -4l11 -2v-538
q0 -83 -35 -124t-115 -41q-17 0 -33.5 1.5t-29 4t-22.5 5t-15.5 4t-6.5 1.5q-6 21 -6 45l6 44q14 -7 47 -7q29 0 40 15t11 52zM890 696v-122q-40 -7 -80 -7q-17 0 -37 1.5t-31 3.5l-11 2v122q40 8 79 8q18 0 38 -2t31 -4z" />
    <glyph glyph-name="f_j" unicode="fj" horiz-adv-x="611" 
d="M347 402h-114v-397q-39 -8 -79 -8q-18 0 -38 2t-31 4l-11 2v397h-42q-7 19 -7 49q0 13 1.5 25.5t3.5 17.5l2 6h42v41q0 83 35.5 124.5t117.5 41.5q78 0 120 -14q6 -22 6 -46l-6 -45q-14 7 -60 7q-30 0 -42 -15.5t-12 -52.5v-41h114q6 -19 6 -49q0 -13 -1.5 -25t-3.5 -18z
M411 -42v538q39 8 79 8q18 0 38 -2t31 -4l11 -2v-538q0 -83 -35 -124t-115 -41q-17 0 -34 1.5t-29.5 4t-22 5t-15.5 4.5l-6 1q-6 21 -6 45l6 44q14 -7 47 -7q29 0 40 15t11 52zM570 696v-122q-40 -7 -80 -7q-18 0 -37.5 1.5t-30.5 3.5l-11 2v122q39 8 79 8q18 0 38 -2t31 -4
z" />
    <glyph glyph-name="f_iogonek" unicode="f&#x12f;" horiz-adv-x="606" 
d="M347 402h-114v-397q-39 -8 -79 -8q-18 0 -38 2t-31 4l-11 2v397h-42q-7 19 -7 49q0 13 1.5 25.5t3.5 17.5l2 6h42v41q0 83 35.5 124.5t117.5 41.5q78 0 120 -14q6 -22 6 -46l-6 -45q-14 7 -60 7q-30 0 -42 -15.5t-12 -52.5v-41h114q6 -19 6 -49q0 -13 -1.5 -25t-3.5 -18z
M424 -94q0 46 47 90l-65 8v492q40 8 80 8q18 0 37.5 -2t30.5 -4l11 -2v-492q-12 -3 -27 -4q-30 -47 -30 -83q0 -31 29 -31q9 0 17.5 2.5t12.5 5.5l4 2q5 -12 5 -27l-5 -26q-20 -17 -60 -17q-87 0 -87 80zM565 696v-122q-40 -7 -79 -7q-18 0 -38 1.5t-31 3.5l-11 2v122
q40 8 80 8q18 0 37.5 -2t30.5 -4z" />
    <glyph glyph-name="f_f_iogonek" unicode="ff&#x12f;" horiz-adv-x="927" 
d="M667 402h-113v-397q-40 -8 -80 -8q-18 0 -37.5 2t-30.5 4l-11 2v397h-162v-397q-39 -8 -79 -8q-18 0 -38 2t-31 4l-11 2v397h-42q-7 19 -7 49q0 13 1.5 25.5t3.5 17.5l2 6h42v41q0 83 35.5 124.5t117.5 41.5q78 0 120 -14q6 -22 6 -46l-6 -45q-14 7 -60 7
q-30 0 -42 -15.5t-12 -52.5v-41h162v41q0 83 35.5 124.5t116.5 41.5q32 0 62 -3.5t43 -6.5t15 -4q6 -22 6 -46l-6 -45q-14 7 -60 7q-30 0 -41.5 -15.5t-11.5 -52.5v-41h113q7 -19 7 -49q0 -13 -2 -25t-4 -18zM744 -94q0 46 47 90l-65 8v492q40 8 80 8q18 0 38 -2t31 -4
l11 -2v-492q-12 -3 -27 -4q-30 -47 -30 -83q0 -31 28 -31q9 0 17.5 2.5t12.5 5.5l4 2q5 -12 5 -27l-5 -26q-19 -17 -60 -17q-87 0 -87 80zM886 696v-122q-40 -7 -80 -7q-18 0 -38 1.5t-31 3.5l-11 2v122q40 8 80 8q18 0 38 -2t31 -4z" />
    <glyph glyph-name="quoteright_afii10104" unicode="&#x2019;&#x457;" horiz-adv-x="433" 
d="M322 496v-492q-40 -8 -79 -8q-18 0 -38 2t-31 4l-11 2v492q40 8 80 8q18 0 37.5 -2t30.5 -4zM174 696q0 -50 -9 -94t-22 -71t-26 -47t-22 -28l-9 -9q-18 -8 -36 -8q-8 0 -17.5 2t-14.5 4l-5 2q4 9 10 27t16.5 82.5t10.5 139.5q31 8 62 8q14 0 29.5 -2t24.5 -4zM392 696
v-109q-27 -7 -62 -7q-16 0 -31.5 2t-22.5 4l-8 1v109q27 8 62 8q16 0 31.5 -2t22.5 -4z" />
    <glyph glyph-name="afii10103_afii10104" unicode="&#x456;&#x457;" horiz-adv-x="482" 
d="M200 496v-492q-40 -8 -80 -8q-17 0 -37 2t-31 4l-11 2v492q40 8 79 8q18 0 38 -2t31 -4zM183 696v-122q-36 -7 -71 -7q-16 0 -33.5 1.5t-27.5 3.5l-10 2v122q35 8 71 8q16 0 33.5 -2t27.5 -4zM441 496v-492q-40 -8 -80 -8q-18 0 -37.5 2t-30.5 4l-11 2v492q39 8 79 8
q18 0 38 -2t31 -4zM347 696v-109q-28 -7 -62 -7q-16 0 -31.5 2t-23.5 4l-8 1v109q28 8 63 8q15 0 30.5 -2t23.5 -4zM511 696v-109q-28 -7 -62 -7q-16 0 -31.5 2t-23.5 4l-7 1v109q27 8 62 8q15 0 30.5 -2t23.5 -4z" />
    <glyph glyph-name="afii10104_afii10104" unicode="&#x457;&#x457;" horiz-adv-x="482" 
d="M200 496v-492q-40 -8 -80 -8q-17 0 -37 2t-31 4l-11 2v492q40 8 79 8q18 0 38 -2t31 -4zM95 696v-109q-27 -7 -62 -7q-16 0 -31.5 2t-23.5 4l-7 1v109q27 8 62 8q16 0 31.5 -2t23.5 -4zM303 696v-109q-28 -7 -62 -7q-16 0 -31.5 2t-23.5 4l-7 1v109q27 8 62 8
q16 0 31.5 -2t23.5 -4zM441 496v-492q-40 -8 -80 -8q-18 0 -37.5 2t-30.5 4l-11 2v492q39 8 79 8q18 0 38 -2t31 -4zM511 696v-109q-28 -7 -62 -7q-16 0 -31.5 2t-23.5 4l-7 1v109q27 8 62 8q15 0 30.5 -2t23.5 -4z" />
    <glyph glyph-name=".notdef" horiz-adv-x="216" 
 />
    <glyph glyph-name=".null" horiz-adv-x="0" 
 />
    <glyph glyph-name="nonmarkingreturn" horiz-adv-x="333" 
 />
    <glyph glyph-name="space" unicode=" " horiz-adv-x="216" 
 />
    <glyph glyph-name="exclam" unicode="!" horiz-adv-x="241" 
d="M200 137v-133q-40 -8 -80 -8q-18 0 -37.5 2t-30.5 4l-11 2v133q39 8 79 8q18 0 38 -2t31 -4zM200 696v-475q-40 -7 -80 -7q-17 0 -37 2t-31 4l-11 1v475q40 8 79 8q18 0 38 -2t31 -4z" />
    <glyph glyph-name="quotedbl" unicode="&#x22;" horiz-adv-x="332" 
d="M148 696l-13 -210q-23 -7 -45 -7q-10 0 -21.5 1.5t-17.5 3.5l-6 2l-13 210q29 8 58 8q13 0 27.5 -2t22.5 -4zM300 696l-13 -210q-22 -7 -45 -7q-10 0 -21 1.5t-17 3.5l-7 2l-13 210q29 8 58 8q13 0 27.5 -2t22.5 -4z" />
    <glyph glyph-name="numbersign" unicode="#" horiz-adv-x="532" 
d="M480 161h-48l-13 -157q-31 -8 -62 -8q-14 0 -30 2t-25 4l-8 2l14 157h-116l-13 -157q-31 -8 -62 -8q-14 0 -30 2t-25 4l-8 2l14 157h-39q-6 19 -6 49q0 13 1.5 25t3.5 18l1 6h48l14 182h-39q-6 19 -6 49q0 13 1.5 25t2.5 18l2 6h48l14 157q31 8 63 8q14 0 29.5 -2
t23.5 -4l9 -2l-15 -157h116l14 157q31 8 63 8q14 0 29.5 -2t23.5 -4l9 -2l-15 -157h39q6 -20 6 -49q0 -13 -1.5 -25t-3.5 -18l-1 -6h-48l-14 -182h39q6 -20 6 -49q0 -13 -1.5 -25t-2.5 -18zM215 441l-14 -182h116l14 182h-116z" />
    <glyph glyph-name="dollar" unicode="$" horiz-adv-x="564" 
d="M199 508v-30q0 -25 34.5 -41.5t83.5 -29.5t98 -31t83.5 -57t34.5 -97v-30q0 -88 -45 -137t-146 -59v-92q-32 -8 -63 -8q-14 0 -29.5 2t-23.5 4l-9 2v92q-106 9 -147 57t-41 139v12q42 7 82 7q18 0 38.5 -1.5t31.5 -3.5l11 -2v-12q0 -52 18.5 -72t67.5 -20q50 0 68.5 20
t18.5 72v30q0 28 -34 46t-83 31t-98 30.5t-83 55t-34 93.5v30q0 87 43 135.5t141 59.5v93q31 8 62 8q14 0 30 -2t25 -4l8 -2v-92q104 -10 144 -57.5t40 -138.5v-12q-41 -7 -81 -7q-19 0 -39 1.5t-31 3.5l-11 2v12q0 51 -17.5 71.5t-64.5 20.5q-46 0 -64.5 -21t-18.5 -71z
" />
    <glyph glyph-name="percent" unicode="%" horiz-adv-x="648" 
d="M600 696l-418 -692q-34 -8 -67 -8q-15 0 -32 2t-26 4l-9 2l418 692q33 8 67 8q15 0 31.5 -2t25.5 -4zM28 560v29q0 114 137 114q138 0 138 -114v-29q0 -115 -138 -115q-137 0 -137 115zM346 111v29q0 115 137 115t137 -115v-29q0 -114 -137 -114t-137 114zM440 140v-29
q0 -31 43 -31t43 31v29q0 17 -9.5 24t-33.5 7t-33.5 -7t-9.5 -24zM122 589v-29q0 -32 43 -32t43 32v29q0 16 -9.5 23t-33.5 7t-33.5 -7t-9.5 -23z" />
    <glyph glyph-name="ampersand" unicode="&#x26;" horiz-adv-x="669" 
d="M630 402h-105v-243q0 -37 12 -52.5t43 -15.5q26 0 50 12q6 -20 6 -44l-6 -44q-1 0 -6.5 -2.5t-14.5 -5.5t-20.5 -6t-27.5 -5.5t-31 -2.5q-51 0 -84 19q-81 -19 -133 -19q-150 0 -216.5 48t-66.5 144v34q0 107 106 141q-96 34 -96 132v27q0 94 59.5 141t192.5 47
t183 -45.5t50 -140.5v-21h105q6 -20 6 -49q0 -13 -1.5 -25.5t-2.5 -17.5zM292 405h41q6 -20 6 -49q0 -13 -1.5 -25.5t-3.5 -18.5l-1 -6h-41q-58 0 -80.5 -20t-22.5 -67v-34q0 -52 26.5 -73t97.5 -21q42 0 78 15q-7 22 -7 53v362q0 49 -19.5 68.5t-72.5 19.5q-52 0 -72.5 -21
t-20.5 -69v-27q0 -47 20.5 -67t72.5 -20z" />
    <glyph glyph-name="quotesingle" unicode="'" horiz-adv-x="180" 
d="M148 696l-13 -210q-23 -7 -45 -7q-10 0 -21.5 1.5t-17.5 3.5l-6 2l-13 210q29 8 58 8q13 0 27.5 -2t22.5 -4z" />
    <glyph glyph-name="parenleft" unicode="(" horiz-adv-x="281" 
d="M257 -51q6 -19 6 -48q0 -13 -1.5 -25.5t-3.5 -18.5l-1 -6q-115 0 -165.5 44.5t-50.5 133.5v546q0 89 50.5 133.5t165.5 44.5q6 -22 6 -50q0 -13 -1.5 -25.5t-3.5 -17.5l-1 -6q-40 0 -55 -17.5t-15 -61.5v-546q0 -45 15 -62.5t55 -17.5z" />
    <glyph glyph-name="parenright" unicode=")" horiz-adv-x="281" 
d="M24 654q-6 19 -6 49q0 13 1.5 25.5t2.5 18.5l2 6q115 0 165.5 -44.5t50.5 -133.5v-546q0 -89 -50.5 -133.5t-165.5 -44.5q-6 21 -6 50q0 13 1.5 25t2.5 18l2 5q40 0 55 17.5t15 62.5v546q0 44 -15 61.5t-55 17.5z" />
    <glyph glyph-name="asterisk" unicode="*" horiz-adv-x="463" 
d="M60 613l122 -49l-8 132q28 8 58 8q12 0 26.5 -2t23.5 -4l8 -2l-9 -132l123 49q16 -24 25 -53q4 -12 6.5 -26t2.5 -22l1 -9l-127 -32l85 -103q-20 -22 -43 -39q-10 -8 -23 -15t-21 -10l-8 -3l-70 112l-71 -112q-27 11 -51 28q-10 8 -20.5 18t-15.5 16l-6 6l83 101l-127 33
q2 29 10 57q4 12 10.5 25.5t11.5 20.5z" />
    <glyph glyph-name="plus" unicode="+" horiz-adv-x="399" 
d="M250 469v-120h118q7 -20 7 -49q0 -13 -1.5 -25t-3.5 -18l-2 -6h-118v-119q-20 -7 -51 -7q-14 0 -26.5 1.5t-18.5 3.5l-6 2v119h-118q-6 19 -6 49q0 13 1.5 25t2.5 18l2 6h118v120q20 7 51 7q13 0 26 -2t19 -4z" />
    <glyph glyph-name="comma" unicode="," horiz-adv-x="232" 
d="M188 137q0 -50 -10 -95t-24.5 -73.5t-29 -49.5t-24.5 -31l-10 -9q-22 -7 -45 -7q-10 0 -21 2t-18 4l-6 1q5 10 12.5 29.5t19.5 86.5t12 142q36 8 72 8q16 0 34 -2t28 -4z" />
    <glyph glyph-name="hyphen" unicode="-" horiz-adv-x="275" 
d="M243 228h-213q-6 19 -6 49q0 13 1.5 25t2.5 18l2 6h213q7 -20 7 -49q0 -13 -2 -25.5t-4 -17.5z" />
    <glyph glyph-name="period" unicode="." horiz-adv-x="232" 
d="M192 137v-133q-39 -8 -76 -8q-17 0 -35.5 2t-28.5 4l-11 2v133q37 8 75 8q17 0 36 -2t30 -4z" />
    <glyph glyph-name="slash" unicode="/" horiz-adv-x="386" 
d="M367 746l-197 -842q-38 -8 -75 -8q-17 0 -35.5 2t-29.5 4l-10 2l196 842q37 8 75 8q17 0 36 -2t29 -4z" />
    <glyph glyph-name="zero" unicode="0" horiz-adv-x="555" 
d="M36 170v360q0 89 56.5 133t184.5 44t184 -44t56 -133v-360q0 -89 -56 -133t-184 -44t-184.5 44t-56.5 133zM196 530v-360q0 -44 17 -61.5t64 -17.5t64 17.5t17 61.5v360q0 44 -17 61.5t-64 17.5t-64 -17.5t-17 -61.5z" />
    <glyph glyph-name="one" unicode="1" horiz-adv-x="396" 
d="M311 703v-699q-40 -8 -80 -8q-18 0 -37.5 2t-30.5 4l-11 2v580q-34 0 -65.5 2t-46.5 4l-14 3q-7 21 -7 51q0 14 1.5 26.5t3.5 18.5l2 6q109 8 285 8z" />
    <glyph glyph-name="two" unicode="2" horiz-adv-x="555" 
d="M364 478v30q0 54 -20.5 77.5t-69.5 23.5q-51 0 -70 -22.5t-19 -78.5v-12q-38 -7 -77 -7q-17 0 -36 1.5t-30 3.5l-11 2v12q0 102 52 150.5t191 48.5q132 0 189.5 -49t57.5 -150v-30q0 -65 -34 -110.5t-82 -69.5t-96 -44.5t-82 -50t-34 -71.5v-34h316q6 -19 6 -49
q0 -13 -1.5 -25t-3.5 -18l-1 -6h-251q-59 0 -114 2.5t-80 5.5l-26 2v122q0 46 18 82t46.5 59t63.5 41.5t70 34t63.5 32.5t46.5 41.5t18 55.5z" />
    <glyph glyph-name="three" unicode="3" horiz-adv-x="536" 
d="M47 596q-7 22 -7 52q0 13 2 26t4 20l1 6h428q7 -20 7 -49q0 -13 -2 -25.5t-4 -17.5l-1 -6l-174 -187q204 0 204 -189v-41q0 -96 -64 -144t-210 -48q-50 0 -97 9.5t-70 19.5l-22 10q-9 20 -9 51q0 9 1 17t2.5 13.5t2.5 10t2 6.5l1 3q0 -2 22.5 -11.5t69 -20t94.5 -10.5
q68 0 93 21t25 73v41q0 50 -23 71t-82 21h-93q-6 21 -6 52q0 14 1.5 27t2.5 19l2 6l157 174h-258z" />
    <glyph glyph-name="four" unicode="4" horiz-adv-x="560" 
d="M482 496v-242h51q7 -21 7 -52q0 -13 -2 -26t-4 -20l-1 -6h-46v-146q-39 -8 -78 -8q-17 0 -36.5 2t-30.5 4l-11 2v146h-296q-6 20 -6 50l162 496q28 7 73 7q21 0 41 -1.5t29 -3.5l10 -2l-142 -442h131v242q37 8 74 8q17 0 35.5 -2t29.5 -4z" />
    <glyph glyph-name="five" unicode="5" horiz-adv-x="530" 
d="M212 602l-11 -175h41q143 0 200 -48t57 -147v-47q0 -96 -63 -144t-206 -48q-50 0 -97 9.5t-69 19.5l-23 10q-9 20 -9 51q0 9 1 17t2 13.5t2.5 10t2.5 6.5l1 3q0 -2 22.5 -11.5t69 -20t95.5 -10.5q64 0 88 21t24 73v47q0 49 -21.5 70t-76.5 21h-181q-7 21 -7 52l26 315
q88 10 220 10h150q7 -20 7 -49q0 -13 -1.5 -25.5t-3.5 -17.5l-2 -6h-238z" />
    <glyph glyph-name="six" unicode="6" horiz-adv-x="553" 
d="M196 421q58 37 143 37q95 0 136 -44t41 -133v-111q0 -89 -56 -133t-184 -44q-127 0 -183.5 44.5t-56.5 132.5v343q0 194 272 194q43 0 84 -6.5t61 -12.5l20 -6q7 -19 7 -49q0 -8 -0.5 -16t-2 -14l-2.5 -10t-1 -7l-1 -2q0 1 -21.5 7t-64.5 12t-88 6q-57 0 -80 -23.5
t-23 -72.5v-92zM196 332v-162q0 -44 17 -61.5t63 -17.5t63.5 17.5t17.5 61.5v111q0 44 -16 61.5t-59 17.5q-27 0 -48.5 -7t-29.5 -14z" />
    <glyph glyph-name="seven" unicode="7" horiz-adv-x="529" 
d="M495 651l-219 -648q-30 -7 -77 -7q-22 0 -43.5 2t-31.5 4l-10 1l209 593h-283q-7 22 -7 52q0 13 1.5 26t3.5 20l2 6h448q7 -20 7 -49z" />
    <glyph glyph-name="eight" unicode="8" horiz-adv-x="554" 
d="M47 486v44q0 89 54 133t176 44t176 -44t54 -133v-44q0 -90 -70 -126q85 -35 85 -131v-59q0 -89 -57 -133t-188 -44t-188 44t-57 133v59q0 96 85 131q-70 36 -70 126zM191 229v-59q0 -44 18.5 -61.5t67.5 -17.5t67.5 17.5t18.5 61.5v59q0 44 -18.5 61.5t-67.5 17.5
t-67.5 -17.5t-18.5 -61.5zM206 530v-44q0 -44 15.5 -61.5t55.5 -17.5t55.5 17.5t15.5 61.5v44q0 44 -15.5 61.5t-55.5 17.5t-55.5 -17.5t-15.5 -61.5z" />
    <glyph glyph-name="nine" unicode="9" horiz-adv-x="553" 
d="M357 187v103q-58 -38 -144 -38q-94 0 -135.5 44.5t-41.5 133.5v99q0 89 56 133.5t184 44.5t184 -44.5t56 -133.5v-342q0 -194 -276 -194q-44 0 -86 6.5t-62 12.5l-21 6q-7 19 -7 49q0 8 0.5 16t2 13.5t2.5 10t1 7.5l1 2q0 -1 22 -7t67 -12t91 -6q59 0 82.5 24t23.5 72z
M357 379v150q0 45 -17.5 62.5t-63.5 17.5t-63 -17.5t-17 -62.5v-99q0 -44 15.5 -62t58.5 -18q27 0 49 7t30 15z" />
    <glyph glyph-name="colon" unicode=":" horiz-adv-x="232" 
d="M192 137v-133q-39 -8 -76 -8q-17 0 -35.5 2t-28.5 4l-11 2v133q37 8 75 8q17 0 36 -2t30 -4zM192 496v-133q-39 -8 -76 -8q-17 0 -35.5 2t-28.5 4l-11 2v133q37 8 75 8q17 0 36 -2t30 -4z" />
    <glyph glyph-name="semicolon" unicode=";" horiz-adv-x="232" 
d="M192 496v-133q-39 -8 -76 -8q-17 0 -35.5 2t-28.5 4l-11 2v133q37 8 75 8q17 0 36 -2t30 -4zM188 137q0 -50 -10 -95t-24.5 -73.5t-29 -49.5t-24.5 -31l-10 -9q-22 -7 -45 -7q-10 0 -21 2t-18 4l-6 1q5 10 12.5 29.5t19.5 86.5t12 142q36 8 72 8q16 0 34 -2t28 -4z" />
    <glyph glyph-name="less" unicode="&#x3c;" horiz-adv-x="459" 
d="M422 404l-190 -102l190 -102q8 -33 8 -61q0 -12 -2 -26.5t-4 -23.5l-2 -9l-398 222l398 222q8 -33 8 -60q0 -12 -2 -27t-4 -24z" />
    <glyph glyph-name="equal" unicode="=" horiz-adv-x="419" 
d="M388 155h-358q-6 18 -6 49q0 13 1.5 25t2.5 18l2 6h358q6 -20 6 -49q0 -13 -1.5 -25.5t-2.5 -18.5zM388 353h-358q-6 19 -6 49q0 13 1.5 25t2.5 18l2 6h358q7 -20 7 -49q0 -13 -1.5 -25.5t-3.5 -18.5z" />
    <glyph glyph-name="greater" unicode="&#x3e;" horiz-adv-x="459" 
d="M37 201l190 102l-190 102q-7 33 -7 61l7 58l398 -221l-398 -223q-7 34 -7 61z" />
    <glyph glyph-name="question" unicode="?" horiz-adv-x="549" 
d="M359 478v30q0 55 -20 78t-68 23q-49 0 -67.5 -22.5t-18.5 -78.5v-12q-38 -7 -77 -7q-17 0 -36 1.5t-30 3.5l-11 2v12q0 102 51.5 150.5t188.5 48.5q131 0 188 -49t57 -150v-30q0 -42 -17 -72t-41 -46.5t-48.5 -30.5t-41.5 -33t-17 -45v-30q-39 -7 -79 -7q-18 0 -38 2
t-31 4l-11 1v30q0 36 12.5 63.5t31 43t40 29.5t40 24.5t31 27.5t12.5 39zM352 137v-133q-40 -8 -80 -8q-18 0 -38 2t-31 4l-11 2v133q40 8 80 8q18 0 38 -2t31 -4z" />
    <glyph glyph-name="at" unicode="@" horiz-adv-x="728" 
d="M41 40v239q0 114 82.5 171t270.5 57q156 0 224.5 -46t68.5 -138v-319q-39 -8 -79 -8q-19 0 -39 2t-31 4l-10 2v26q-53 -37 -130 -37q-79 0 -114 37t-35 112v11q0 63 43.5 97.5t144.5 47.5l91 11v14q0 47 -29 66.5t-105 19.5q-110 0 -152 -29t-42 -101v-239q0 -87 43 -118
t161 -31q70 0 138 10.5t101.5 20t33.5 11.5l1 -3q1 -2 2.5 -6.5t2.5 -10t2 -13.5t1 -17q0 -14 -2 -26.5t-4 -18.5l-3 -6q-113 -39 -273 -39q-195 0 -279 60.5t-84 186.5zM528 214l-60 -9q-59 -9 -59 -52v-11q0 -28 11.5 -39.5t41.5 -11.5q21 0 37.5 7t22.5 14l6 7v95z" />
    <glyph glyph-name="A" unicode="A" horiz-adv-x="618" 
d="M9 4l187 692q53 8 113 8q26 0 54.5 -2t44.5 -4l15 -2l187 -692q-43 -8 -81 -8q-17 0 -38 2t-33 4l-13 2l-35 142h-201l-36 -142q-44 -8 -83 -8q-17 0 -37.5 2t-32.5 4zM310 567l-78 -314h154z" />
    <glyph glyph-name="B" unicode="B" horiz-adv-x="582" 
d="M41 9v682q102 14 248 14q134 0 193.5 -46t59.5 -140v-27q0 -99 -96 -133q106 -34 106 -140v-34q0 -95 -61.5 -142.5t-201.5 -47.5q-65 0 -127 3.5t-92 7.5zM209 306v-205h80q54 0 74.5 18.5t20.5 65.5v34q0 47 -20.5 67t-74.5 20h-80zM209 599v-190h80q47 0 66 19.5
t19 63.5v27q0 43 -19 61.5t-66 18.5h-80z" />
    <glyph glyph-name="C" unicode="C" horiz-adv-x="560" 
d="M36 192v316q0 99 60 149t197 50t188.5 -48.5t51.5 -150.5v-12q-38 -7 -75 -7q-17 0 -36 1.5t-30 3.5l-10 2v12q0 52 -19 72t-70 20t-70 -20.5t-19 -71.5v-316q0 -51 24 -71.5t86 -20.5q51 0 100 10.5t73 19.5t24 11l1 -3q1 -2 2.5 -6.5t2.5 -10.5t2 -15t1 -18
q0 -15 -2 -29t-4 -21l-3 -6q-81 -39 -198 -39q-148 0 -212.5 49.5t-64.5 149.5z" />
    <glyph glyph-name="D" unicode="D" horiz-adv-x="591" 
d="M41 691q101 14 253 14q139 0 199.5 -49t60.5 -148v-316q0 -99 -60.5 -148t-199.5 -49q-68 0 -131 3.5t-93 7.5l-29 3v682zM209 599v-498h85q52 0 72 20t20 71v316q0 51 -20 71t-72 20h-85z" />
    <glyph glyph-name="E" unicode="E" horiz-adv-x="511" 
d="M209 306v-199h273q7 -21 7 -54q0 -14 -1.5 -27.5t-3.5 -19.5l-2 -6h-221q-59 0 -114 2.5t-81 5.5l-25 2v680q88 10 220 10h216q7 -21 7 -54q0 -14 -2 -27.5t-4 -19.5l-1 -6h-268v-180h238q6 -21 6 -53q0 -14 -1.5 -27.5t-3.5 -20.5l-1 -6h-238z" />
    <glyph glyph-name="F" unicode="F" horiz-adv-x="500" 
d="M209 306v-302q-42 -8 -84 -8q-19 0 -40 2t-33 4l-11 2v686q88 10 220 10h211q6 -21 6 -54q0 -14 -1.5 -27.5t-2.5 -19.5l-2 -6h-263v-180h232q6 -21 6 -53q0 -14 -1.5 -27.5t-3.5 -20.5l-1 -6h-232z" />
    <glyph glyph-name="G" unicode="G" horiz-adv-x="583" 
d="M542 382v-339q-11 -5 -31.5 -13t-84 -21.5t-128.5 -13.5q-139 0 -200.5 49t-61.5 148v316q0 100 61 149.5t201 49.5q139 0 191.5 -48.5t52.5 -150.5v-12q-38 -7 -75 -7q-17 0 -35.5 1.5t-29.5 3.5l-10 2v12q0 52 -20 72t-74 20t-74 -20t-20 -72v-316q0 -51 20.5 -71
t73.5 -20q25 0 46 4t30 8l9 4v169h-79q-6 21 -6 54q0 14 1.5 27.5t2.5 19.5l2 6h44q52 0 100.5 -2.5t71.5 -5.5z" />
    <glyph glyph-name="H" unicode="H" horiz-adv-x="622" 
d="M581 696v-692q-41 -8 -84 -8q-19 0 -40 2t-33 4l-11 2v298h-204v-298q-42 -8 -84 -8q-19 0 -40 2t-33 4l-11 2v692q41 8 84 8q19 0 40 -2t33 -4l11 -2v-287h204v287q42 8 84 8q19 0 40 -2t33 -4z" />
    <glyph glyph-name="I" unicode="I" horiz-adv-x="342" 
d="M28 107h59v486h-59q-6 21 -6 53q0 15 1.5 28.5t2.5 19.5l2 6h286q7 -21 7 -54q0 -14 -1.5 -27.5t-3.5 -19.5l-2 -6h-59v-486h59q7 -21 7 -54q0 -14 -1.5 -27.5t-3.5 -19.5l-2 -6h-286q-6 21 -6 53q0 15 1.5 28.5t2.5 19.5z" />
    <glyph glyph-name="J" unicode="J" horiz-adv-x="470" 
d="M429 696v-504q0 -100 -56.5 -149.5t-186.5 -49.5q-39 0 -76.5 9.5t-55.5 19.5l-17 10q-9 22 -9 56q0 9 1 18t2 15t2.5 10.5t2.5 6.5l1 3q0 -2 17.5 -11t54.5 -19.5t75 -10.5q44 0 60.5 20t16.5 72v504q42 8 84 8q19 0 40 -2t33 -4z" />
    <glyph glyph-name="K" unicode="K" horiz-adv-x="594" 
d="M407 4l-162 299l-36 -9v-290q-43 -8 -84 -8q-19 0 -40 2t-33 4l-11 2v692q41 8 84 8q18 0 39 -2t33 -4l12 -2v-288l36 9l150 279q45 8 88 8q19 0 40 -2t33 -4l11 -2l-175 -336l190 -356q-45 -8 -87 -8q-18 0 -40 2t-35 4z" />
    <glyph glyph-name="L" unicode="L" horiz-adv-x="480" 
d="M209 696v-589h243q7 -21 7 -54q0 -14 -1.5 -27.5t-3.5 -19.5l-2 -6h-191q-59 0 -114 2.5t-81 5.5l-25 2v686q41 8 84 8q19 0 40 -2t33 -4z" />
    <glyph glyph-name="M" unicode="M" horiz-adv-x="801" 
d="M761 697v-692q-40 -8 -80 -8q-18 0 -38 2t-31 4l-11 2v468l-131 -366q-31 -7 -69 -7q-16 0 -34 2t-27 4l-10 1l-130 365v-468q-40 -8 -80 -8q-17 0 -37 2t-31 4l-11 2v692q0 1 15 2.5t42.5 3t54.5 1.5q26 0 54 -1.5t43 -3.5l15 -2l135 -375l136 376q54 7 112 7
q26 0 54 -2t44 -4z" />
    <glyph glyph-name="N" unicode="N" horiz-adv-x="618" 
d="M41 4v692q35 8 71 8q16 0 33.5 -2t27.5 -4l10 -2l235 -386v386q40 8 80 8q18 0 38 -2t31 -4l11 -2v-692q-36 -8 -71 -8q-16 0 -33.5 2t-27.5 4l-10 2l-236 386v-386q-40 -8 -80 -8q-17 0 -37 2t-31 4z" />
    <glyph glyph-name="O" unicode="O" horiz-adv-x="594" 
d="M36 192v316q0 99 61.5 149t199.5 50t199 -50t61 -149v-316q0 -99 -61 -149t-199 -50t-199.5 50t-61.5 149zM204 508v-316q0 -51 20 -71.5t73 -20.5q52 0 72 20.5t20 71.5v316q0 51 -20 71.5t-72 20.5q-53 0 -73 -20.5t-20 -71.5z" />
    <glyph glyph-name="P" unicode="P" horiz-adv-x="577" 
d="M41 691q97 14 243 14q137 0 197.5 -49t60.5 -148v-40q0 -100 -60.5 -148.5t-197.5 -48.5l-75 3v-270q-43 -8 -84 -8q-19 0 -40 2t-33 4l-11 2v687zM209 599v-223h75q51 0 70.5 20.5t19.5 71.5v40q0 51 -19.5 71t-70.5 20h-75z" />
    <glyph glyph-name="Q" unicode="Q" horiz-adv-x="594" 
d="M370 -171l-78 164q-136 1 -196 50.5t-60 148.5v316q0 99 61.5 149t199.5 50t199 -50t61 -149v-316q0 -143 -125 -182l103 -181q-40 -8 -81 -8q-18 0 -39 2t-33 4zM204 508v-316q0 -51 20 -71.5t73 -20.5q52 0 72 20.5t20 71.5v316q0 51 -20 71.5t-72 20.5
q-53 0 -73 -20.5t-20 -71.5z" />
    <glyph glyph-name="R" unicode="R" horiz-adv-x="590" 
d="M403 4l-128 267l-66 3v-270q-43 -8 -84 -8q-19 0 -40 2t-33 4l-11 2v687q97 14 243 14q137 0 197.5 -49t60.5 -148v-40q0 -135 -111 -176l143 -288q-42 -8 -84 -8q-18 0 -40 2t-34 4zM209 599v-223h75q51 0 70.5 20.5t19.5 71.5v40q0 51 -19.5 71t-70.5 20h-75z" />
    <glyph glyph-name="S" unicode="S" horiz-adv-x="564" 
d="M199 508v-30q0 -25 34.5 -41.5t83.5 -29.5t98 -31t83.5 -57t34.5 -97v-30q0 -101 -59 -150t-195 -49q-142 0 -196 48.5t-54 150.5v12q42 7 82 7q18 0 38.5 -1.5t31.5 -3.5l11 -2v-12q0 -52 18.5 -72t67.5 -20q50 0 68.5 20t18.5 72v30q0 28 -34 46t-83 31t-98 30.5
t-83 55t-34 93.5v30q0 101 58 150t191 49q95 0 149.5 -24t74.5 -65.5t20 -109.5v-12q-41 -7 -81 -7q-19 0 -39 1.5t-31 3.5l-11 2v12q0 51 -17.5 71.5t-64.5 20.5q-46 0 -64.5 -21t-18.5 -71z" />
    <glyph glyph-name="T" unicode="T" horiz-adv-x="557" 
d="M530 593h-168v-589q-41 -8 -84 -8q-19 0 -39.5 2t-32.5 4l-11 2v589h-169q-6 21 -6 53q0 15 1.5 28.5t2.5 19.5l2 6h504q6 -21 6 -54q0 -14 -1.5 -27.5t-2.5 -19.5z" />
    <glyph glyph-name="U" unicode="U" horiz-adv-x="598" 
d="M557 696v-504q0 -99 -60.5 -149t-197.5 -50q-138 0 -198 49.5t-60 149.5v504q41 8 84 8q19 0 40 -2t33 -4l11 -2v-504q0 -51 19.5 -71.5t70.5 -20.5t70.5 20.5t19.5 71.5v504q41 8 84 8q19 0 40 -2t33 -4z" />
    <glyph glyph-name="V" unicode="V" horiz-adv-x="618" 
d="M196 4l-187 692q42 8 80 8q17 0 38 -2t33 -4l13 -2l136 -558l136 558q44 8 83 8q17 0 37.5 -2t32.5 -4l12 -2l-187 -692q-53 -8 -113 -8q-27 0 -55.5 2t-43.5 4z" />
    <glyph glyph-name="W" unicode="W" horiz-adv-x="960" 
d="M574 4l-94 527l-94 -527q-55 -8 -115 -8q-27 0 -55.5 2t-43.5 4l-15 2l-148 692q43 8 81 8q17 0 38 -2t34 -4l12 -2l102 -541l102 541q45 8 102 8q25 0 50.5 -2t39.5 -4l13 -2l101 -541l102 541q45 8 84 8q17 0 37 -2t32 -4l12 -2l-148 -692q-54 -8 -113 -8q-27 0 -56 2
t-44 4z" />
    <glyph glyph-name="X" unicode="X" horiz-adv-x="628" 
d="M437 4l-123 256l-123 -256q-48 -8 -89 -8q-18 0 -40.5 2t-35.5 4l-14 2l187 352l-179 340q51 8 91 8q18 0 40.5 -2t36.5 -4l13 -2l113 -243l113 243q49 8 90 8q19 0 41.5 -2t35.5 -4l13 -2l-176 -340l186 -352q-53 -8 -93 -8q-18 0 -39.5 2t-34.5 4z" />
    <glyph glyph-name="Y" unicode="Y" horiz-adv-x="628" 
d="M607 696l-209 -444v-248q-41 -8 -84 -8q-19 0 -40 2t-32 4l-12 2v248l-210 444q51 8 91 8q18 0 40.5 -2t36.5 -4l13 -2l113 -281l113 281q49 8 90 8q19 0 41.5 -2t35.5 -4z" />
    <glyph glyph-name="Z" unicode="Z" horiz-adv-x="546" 
d="M504 593l-281 -481h283q6 -24 6 -56q0 -14 -1.5 -28t-2.5 -21l-2 -7h-466q-7 21 -7 53q0 15 1.5 28.5t3.5 19.5l2 6l281 481h-280q-6 23 -6 56q0 14 1.5 28t3.5 21l1 7h463q6 -21 6 -54q0 -14 -1.5 -27.5t-2.5 -19.5z" />
    <glyph glyph-name="bracketleft" unicode="[" horiz-adv-x="357" 
d="M41 -150v903q78 0 149.5 -2t103.5 -4l33 -2q6 -18 6 -47q0 -12 -1.5 -23.5t-3.5 -16.5l-1 -6q-56 -9 -140 -9v-683q37 0 72 -2t51 -4l17 -3q6 -20 6 -47q0 -12 -1.5 -23.5t-3.5 -16.5l-1 -6q-110 -8 -286 -8z" />
    <glyph glyph-name="backslash" unicode="\" horiz-adv-x="386" 
d="M216 -96l-196 842q37 8 75 8q16 0 35 -2t30 -4l10 -2l197 -842q-38 -8 -76 -8q-17 0 -35.5 2t-29.5 4z" />
    <glyph glyph-name="bracketright" unicode="]" horiz-adv-x="357" 
d="M316 753v-903q-78 0 -149.5 2t-104.5 4l-32 2q-6 18 -6 46q0 12 1.5 24t2.5 18l2 5q57 9 140 9v683q-37 0 -72 2.5t-52 4.5l-16 2q-6 19 -6 46q0 13 1.5 24.5t2.5 17.5l2 5q110 8 286 8z" />
    <glyph glyph-name="asciicircum" unicode="^" horiz-adv-x="443" 
d="M222 705l201 -201q-9 -19 -30 -40q-9 -9 -19 -16.5t-16 -10.5l-5 -3l-131 131l-133 -132q-19 10 -39 30q-9 9 -16.5 19t-10.5 16l-3 5z" />
    <glyph glyph-name="underscore" unicode="_" horiz-adv-x="500" 
d="M500 -148h-500v98h500v-98z" />
    <glyph glyph-name="grave" unicode="`" horiz-adv-x="241" 
d="M148 558l-146 138q39 8 73 8q16 0 34 -2t28 -4l10 -2l91 -138q-21 -8 -45 -8q-9 0 -20.5 2t-18.5 4z" />
    <glyph glyph-name="a" unicode="a" horiz-adv-x="515" 
d="M315 4v26q-53 -37 -130 -37q-79 0 -114 37t-35 112v10q0 63 43.5 97.5t144.5 47.5l91 11v35q0 36 -13 51t-46 15q-34 0 -46.5 -14t-12.5 -48v-9q-37 -7 -76 -7q-16 0 -35 1.5t-30 3.5l-10 2v9q0 82 45.5 121t164.5 39q116 0 167 -41t51 -123v-339q-39 -8 -79 -8
q-19 0 -39 2t-30 4zM315 213l-60 -9q-59 -9 -59 -52v-10q0 -28 11.5 -39.5t41.5 -11.5q21 0 37.5 7t22.5 14l6 7v94z" />
    <glyph glyph-name="b" unicode="b" 
d="M200 30v-26q-40 -8 -80 -8q-17 0 -37 2t-31 4l-11 2v692q40 8 79 8q18 0 38 -2t31 -4l11 -2v-211q38 22 93 22q99 0 142.5 -44t43.5 -133v-160q0 -89 -36 -133t-118 -44q-33 0 -64 9.5t-46 18.5zM320 170v160q0 44 -12.5 61.5t-45.5 17.5q-35 0 -48.5 -17.5t-13.5 -61.5
v-211q19 -28 65 -28q31 0 43 17.5t12 61.5z" />
    <glyph glyph-name="c" unicode="c" horiz-adv-x="488" 
d="M36 170v160q0 89 51 133t168 44q115 0 158.5 -43t43.5 -134v-12q-36 -7 -71 -7q-16 0 -34 1.5t-28 3.5l-9 2v12q0 44 -13 61.5t-47 17.5t-46.5 -17.5t-12.5 -61.5v-160q0 -44 19 -61.5t71 -17.5q38 0 75 7t55 13.5t18 7.5l1 -3q1 -2 2 -6.5t2.5 -10t2.5 -13.5t1 -16
q0 -13 -2.5 -25.5t-4.5 -18.5l-2 -6q-61 -27 -148 -27q-133 0 -191.5 44t-58.5 133z" />
    <glyph glyph-name="d" unicode="d" 
d="M316 4v26q-51 -37 -125 -37q-82 0 -118.5 44.5t-36.5 132.5v160q0 88 44 132.5t143 44.5q24 0 47.5 -5.5t34.5 -11.5l11 -5v211q39 8 79 8q18 0 38 -2t31 -4l11 -2v-692q-40 -8 -80 -8q-18 0 -38 2t-31 4zM196 330v-160q0 -44 11.5 -61.5t43.5 -17.5q20 0 36.5 7t22.5 14
l6 7v211q0 44 -13.5 61.5t-49.5 17.5q-33 0 -45 -17.5t-12 -61.5z" />
    <glyph glyph-name="e" unicode="e" horiz-adv-x="504" 
d="M36 170v160q0 89 51.5 133t168.5 44q120 0 165.5 -43t45.5 -134v-119q-44 -14 -135 -14h-136v-27q0 -44 19.5 -61.5t71.5 -17.5q41 0 80 7t58.5 13.5t19.5 7.5l1 -3q1 -2 2.5 -6.5t2.5 -10t2 -13.5t1 -16q0 -13 -2 -25.5t-4 -18.5l-3 -6q-65 -27 -158 -27
q-134 0 -192.5 44t-58.5 133zM196 295h121v35q0 44 -13 61.5t-48 17.5q-34 0 -47 -17.5t-13 -61.5v-35z" />
    <glyph glyph-name="f" unicode="f" horiz-adv-x="376" 
d="M347 402h-114v-397q-39 -8 -79 -8q-18 0 -38 2t-31 4l-11 2v397h-42q-7 19 -7 49q0 13 1.5 25.5t3.5 17.5l2 6h42v41q0 83 35.5 124.5t117.5 41.5q78 0 120 -14q6 -22 6 -46l-6 -45q-14 7 -60 7q-30 0 -42 -15.5t-12 -52.5v-41h114q6 -19 6 -49q0 -13 -1.5 -25t-3.5 -18z
" />
    <glyph glyph-name="g" unicode="g" 
d="M316 -30v45q-1 -1 -12 -6t-34 -10.5t-47 -5.5q-99 0 -143 44.5t-44 132.5v160q0 88 36.5 132.5t118.5 44.5q33 0 64 -9.5t46 -18.5l15 -9v26q38 8 79 8q18 0 38 -2t31 -4l11 -2v-526q0 -89 -58.5 -133t-191.5 -44q-41 0 -81 5.5t-60 10.5l-19 5q-10 20 -10 49q0 8 1 16.5
t2.5 14t3 10t2.5 6.5l1 3q0 -1 19.5 -6t59.5 -10.5t81 -5.5q52 0 71.5 17.5t19.5 61.5zM196 330v-160q0 -44 12 -61.5t45 -17.5q36 0 49.5 17.5t13.5 61.5v211q-20 28 -65 28q-32 0 -43.5 -17.5t-11.5 -61.5z" />
    <glyph glyph-name="h" unicode="h" 
d="M200 696v-226q51 37 125 37q82 0 118.5 -44.5t36.5 -132.5v-326q-40 -8 -80 -8q-18 0 -37.5 2t-30.5 4l-11 2v326q0 44 -12 61.5t-44 17.5q-20 0 -36.5 -7t-22.5 -14l-6 -7v-377q-40 -8 -80 -8q-17 0 -37 2t-31 4l-11 2v692q40 8 79 8q18 0 38 -2t31 -4z" />
    <glyph glyph-name="i" unicode="i" horiz-adv-x="241" 
d="M200 496v-492q-40 -8 -80 -8q-17 0 -37 2t-31 4l-11 2v492q40 8 79 8q18 0 38 -2t31 -4zM200 696v-122q-40 -7 -80 -7q-17 0 -37 1.5t-31 3.5l-11 2v122q40 8 79 8q18 0 38 -2t31 -4z" />
    <glyph glyph-name="j" unicode="j" horiz-adv-x="252" 
d="M51 -42v538q40 8 80 8q18 0 38 -2t31 -4l11 -2v-538q0 -83 -35 -124t-115 -41q-17 0 -34 1.5t-29.5 4t-22 5t-15.5 4.5l-6 1q-6 21 -6 45l6 44q14 -7 47 -7q29 0 39.5 15t10.5 52zM211 696v-122q-40 -7 -80 -7q-18 0 -38 1.5t-31 3.5l-11 2v122q40 8 80 8q18 0 38 -2
t31 -4z" />
    <glyph glyph-name="k" unicode="k" horiz-adv-x="514" 
d="M336 4l-116 201l-20 -5v-196q-40 -8 -80 -8q-17 0 -37 2t-31 4l-11 2v692q40 8 79 8q18 0 38 -2t31 -4l11 -2v-391l20 6l104 185q43 8 84 8q18 0 37.5 -2t30.5 -4l11 -2l-132 -236l147 -256q-42 -8 -82 -8q-18 0 -39 2t-33 4z" />
    <glyph glyph-name="l" unicode="l" horiz-adv-x="281" 
d="M238 91q11 0 25 4q5 -20 5 -43l-5 -43q-42 -16 -85 -16q-73 0 -105 37t-32 111v555q40 8 79 8q18 0 38 -2t31 -4l11 -2v-555q0 -28 8 -39t30 -11z" />
    <glyph glyph-name="m" unicode="m" horiz-adv-x="786" 
d="M41 4v492q40 8 79 8q18 0 38 -2t31 -4l11 -2v-26q50 37 122 37q86 0 118 -44q7 5 20.5 12.5t54.5 19.5t82 12q81 0 116.5 -44t35.5 -132v-327q-40 -8 -79 -8q-18 0 -38 2t-31 4l-11 2v327q0 43 -11.5 60.5t-41.5 17.5q-34 0 -62 -28v-377q-40 -8 -80 -8q-18 0 -38 2
t-31 4l-11 2v327q0 43 -11.5 60.5t-41.5 17.5q-20 0 -35.5 -7t-20.5 -14l-6 -7v-377q-40 -8 -80 -8q-17 0 -37 2t-31 4z" />
    <glyph glyph-name="n" unicode="n" horiz-adv-x="517" 
d="M200 496v-26q51 37 126 37q82 0 118 -44t36 -133v-326q-39 -8 -79 -8q-18 0 -38 2t-31 4l-11 2v326q0 44 -11.5 61.5t-43.5 17.5q-20 0 -36.5 -7t-23.5 -14l-6 -7v-377q-40 -8 -80 -8q-17 0 -37 2t-31 4l-11 2v492q40 8 79 8q18 0 38 -2t31 -4z" />
    <glyph glyph-name="o" unicode="o" horiz-adv-x="514" 
d="M36 170v160q0 88 52 132.5t169 44.5t168.5 -44t51.5 -133v-160q0 -89 -51.5 -133t-168.5 -44t-169 44.5t-52 132.5zM196 330v-160q0 -44 13 -61.5t48 -17.5t48 17.5t13 61.5v160q0 44 -13 61.5t-48 17.5t-48 -17.5t-13 -61.5z" />
    <glyph glyph-name="p" unicode="p" 
d="M200 496v-26q51 37 125 37q82 0 118 -44t36 -133v-160q0 -89 -43.5 -133t-142.5 -44q-24 0 -47.5 5.5t-34.5 11.5l-11 5v-211q-40 -8 -80 -8q-17 0 -37 2t-31 4l-11 2v692q40 8 79 8q18 0 38 -2t31 -4zM320 170v160q0 44 -12 61.5t-43 17.5q-20 0 -36.5 -7t-22.5 -14
l-6 -7v-211q0 -44 13.5 -61.5t48.5 -17.5q33 0 45.5 17.5t12.5 61.5z" />
    <glyph glyph-name="q" unicode="q" 
d="M316 470v26q38 8 79 8q18 0 38 -2t31 -4l11 -2v-692q-40 -8 -80 -8q-18 0 -37.5 2t-30.5 4l-11 2v211q-39 -22 -93 -22q-99 0 -143 44.5t-44 132.5v160q0 88 36.5 132.5t118.5 44.5q33 0 64 -9.5t46 -18.5zM196 330v-160q0 -44 12 -61.5t45 -17.5q36 0 49.5 17.5
t13.5 61.5v211q-20 28 -65 28q-32 0 -43.5 -17.5t-11.5 -61.5z" />
    <glyph glyph-name="r" unicode="r" horiz-adv-x="372" 
d="M200 496v-45q6 6 17.5 15.5t49 25t78.5 15.5q6 -22 6 -51q0 -13 -1.5 -26t-3.5 -20l-1 -6q-27 0 -52 -9.5t-41 -23t-28.5 -27t-17.5 -22.5l-6 -10v-308q-40 -8 -80 -8q-17 0 -37 2t-31 4l-11 2v492q40 8 79 8q18 0 38 -2t31 -4z" />
    <glyph glyph-name="s" unicode="s" horiz-adv-x="511" 
d="M199 361v-20q0 -15 13 -22t41 -13q24 -4 36.5 -6.5t39 -9t42.5 -13t37.5 -18.5t33.5 -25t21 -32.5t9 -42.5v-20q0 -74 -51 -110t-168 -36q-123 0 -169 39t-46 121v8q39 7 77 7q17 0 36.5 -2t30.5 -4l10 -1v-8q0 -34 13 -48t47 -14q35 0 47.5 10.5t12.5 37.5v20
q0 27 -59 37q-29 5 -43 8t-44.5 11.5t-48 18t-37.5 24.5t-29.5 36t-9.5 47v20q0 74 50 110t165 36q119 0 164 -39t45 -121v-8q-39 -7 -77 -7q-17 0 -36.5 2t-29.5 4l-11 1v8q0 34 -11.5 48t-43.5 14t-44.5 -11t-12.5 -37z" />
    <glyph glyph-name="t" unicode="t" horiz-adv-x="376" 
d="M337 402h-105v-243q0 -37 12 -52.5t43 -15.5q26 0 50 12q6 -20 6 -44l-6 -44q-1 0 -6.5 -2.5t-16 -5.5t-23 -6t-29.5 -5.5t-34 -2.5q-82 0 -118.5 41.5t-36.5 124.5v243h-43q-6 18 -6 49q0 13 1.5 25t2.5 18l2 6h52l17 96q33 8 67 8q15 0 31.5 -2t25.5 -4l9 -2v-96h105
q6 -20 6 -49q0 -13 -1.5 -25.5t-3.5 -17.5z" />
    <glyph glyph-name="u" unicode="u" 
d="M321 4v26q-51 -37 -126 -37q-82 0 -118 44t-36 133v326q40 8 79 8q18 0 38 -2t31 -4l11 -2v-326q0 -44 12 -61.5t43 -17.5q20 0 36.5 7t22.5 14l7 7v377q39 8 79 8q18 0 38 -2t31 -4l11 -2v-492q-40 -8 -80 -8q-18 0 -37.5 2t-30.5 4z" />
    <glyph glyph-name="v" unicode="v" horiz-adv-x="518" 
d="M154 4l-145 492q39 8 76 8q16 0 36 -2t32 -4l12 -2l94 -371l95 371q41 8 79 8q16 0 35.5 -2t30.5 -4l11 -2l-146 -492q-48 -8 -104 -8q-24 0 -50.5 2t-41.5 4z" />
    <glyph glyph-name="w" unicode="w" horiz-adv-x="808" 
d="M471 4l-66 336l-68 -336q-51 -8 -106 -8q-25 0 -51 2t-40 4l-14 2l-117 492q40 8 77 8q16 0 36 -2t32 -4l11 -2l71 -363l75 363q41 8 94 8q23 0 46.5 -2t35.5 -4l12 -2l73 -363l71 363q43 8 80 8q16 0 35 -2t30 -4l11 -2l-116 -492q-50 -8 -105 -8q-24 0 -51 2t-41 4z
" />
    <glyph glyph-name="x" unicode="x" horiz-adv-x="526" 
d="M350 4l-87 164l-87 -164q-45 -8 -83 -8q-16 0 -36.5 2t-32.5 4l-12 2l152 252l-144 240q46 8 82 8q16 0 37 -2t33 -4l13 -2l78 -151l77 151q46 8 83 8q17 0 37.5 -2t32.5 -4l12 -2l-141 -240l150 -252q-46 -8 -82 -8q-16 0 -36.5 2t-33.5 4z" />
    <glyph glyph-name="y" unicode="y" horiz-adv-x="520" 
d="M203 -47l13 45l-51 6l-154 492q39 8 76 8q16 0 36 -2t31 -4l12 -2l95 -360l95 360q41 8 78 8q17 0 36 -2t30 -4l11 -2l-168 -538q-27 -88 -73.5 -126.5t-131.5 -38.5q-18 0 -35.5 3.5t-25.5 6.5l-8 3q-8 18 -8 46q0 12 2 23.5t4 16.5l2 6q24 -7 66 -7q53 0 68 62z" />
    <glyph glyph-name="z" unicode="z" horiz-adv-x="466" 
d="M426 402l-216 -298h216q6 -23 6 -52q0 -13 -1.5 -26t-2.5 -20l-2 -6h-386q-7 19 -7 49q0 13 1.5 25.5t3.5 17.5l2 6l215 298h-215q-7 22 -7 52q0 13 1.5 26t3.5 20l2 6h386q6 -20 6 -49q0 -13 -1.5 -25.5t-2.5 -17.5z" />
    <glyph glyph-name="braceleft" unicode="{" horiz-adv-x="334" 
d="M310 654q-40 0 -55 -17.5t-15 -61.5v-144q0 -89 -48 -129q48 -42 48 -129v-144q0 -45 15 -62.5t55 -17.5q6 -19 6 -48q0 -13 -1.5 -25.5t-2.5 -18.5l-2 -6q-115 0 -165.5 44.5t-50.5 133.5v144q0 44 -15 62t-55 18q-6 19 -6 48q0 13 1.5 25.5t2.5 18.5l2 6q40 0 55 18
t15 62v144q0 89 50.5 133.5t165.5 44.5q6 -20 6 -50q0 -13 -1.5 -25.5t-2.5 -17.5z" />
    <glyph glyph-name="bar" unicode="|" horiz-adv-x="206" 
d="M165 746v-842q-31 -8 -62 -8q-14 0 -29.5 2t-23.5 4l-9 2v842q31 8 62 8q14 0 29.5 -2t23.5 -4z" />
    <glyph glyph-name="braceright" unicode="}" horiz-adv-x="334" 
d="M24 654q-6 19 -6 49q0 13 1.5 25.5t2.5 18.5l2 6q115 0 165.5 -44.5t50.5 -133.5v-144q0 -44 15 -62t55 -18q6 -21 6 -50q0 -13 -1.5 -25t-2.5 -18l-2 -5q-40 0 -55 -18t-15 -62v-144q0 -89 -50.5 -133.5t-165.5 -44.5q-6 21 -6 50q0 13 1.5 25t2.5 18l2 5q40 0 55 17.5
t15 62.5v144q0 88 47 129q-47 39 -47 129v144q0 44 -15 61.5t-55 17.5z" />
    <glyph glyph-name="asciitilde" unicode="~" horiz-adv-x="442" 
d="M25 242v4q0 68 21.5 99.5t76.5 31.5q45 0 74 -13.5t45.5 -26.5t30.5 -13q24 0 32.5 9t8.5 32v5q27 7 52 7l51 -7v-4q0 -70 -20 -101t-78 -31q-45 0 -74 13t-45 26.5t-30 13.5q-24 0 -33 -8.5t-9 -31.5v-5q-27 -7 -52 -7z" />
    <glyph glyph-name="exclamdown" unicode="&#xa1;" horiz-adv-x="241" 
d="M41 363v133q40 8 79 8q18 0 38 -2t31 -4l11 -2v-133q-39 -8 -80 -8q-18 0 -37.5 2t-30.5 4zM41 -196v475q40 7 79 7q18 0 38 -2t31 -4l11 -1v-475q-40 -8 -80 -8q-17 0 -37 2t-31 4z" />
    <glyph glyph-name="cent" unicode="&#xa2;" horiz-adv-x="488" 
d="M36 170v160q0 75 37 118.5t119 54.5v93q31 8 63 8q14 0 29.5 -2t23.5 -4l9 -2v-93q78 -11 109 -53.5t31 -119.5v-12q-36 -7 -71 -7q-16 0 -34 1.5t-28 3.5l-9 2v12q0 44 -13 61.5t-47 17.5t-46.5 -17.5t-12.5 -61.5v-160q0 -44 19 -61.5t71 -17.5q38 0 75 7t55 13.5
t18 7.5l1 -3q1 -2 2 -6.5t2.5 -10t2.5 -13.5t1 -16q0 -13 -2.5 -25.5t-4.5 -18.5l-2 -6q-47 -21 -117 -26v-90q-31 -8 -62 -8q-14 0 -30 2t-25 4l-8 2v96q-82 14 -119 56.5t-37 113.5z" />
    <glyph glyph-name="sterling" unicode="&#xa3;" horiz-adv-x="560" 
d="M350 277h-126v-170h299q7 -21 7 -54q0 -14 -2 -27.5t-4 -19.5l-1 -6h-497q-6 21 -6 53q0 15 1.5 28.5t2.5 19.5l2 6h30v170h-30q-6 19 -6 49q0 13 1.5 25.5t2.5 18.5l2 5h30v133q0 99 57.5 149t188.5 50t180.5 -48.5t49.5 -150.5v-12q-38 -7 -76 -7q-17 0 -35.5 1.5
t-28.5 3.5l-11 2v12q0 52 -17 72t-62 20t-61.5 -20t-16.5 -72v-133h126q7 -19 7 -49q0 -13 -1.5 -25t-3.5 -18z" />
    <glyph glyph-name="currency" unicode="&#xa4;" horiz-adv-x="430" 
d="M69 300v29q0 35 12 58l-63 63q9 19 30 40q9 9 18.5 16.5t15.5 10.5l5 3l75 -74q28 6 52 6q22 0 52 -6l75 74q19 -10 39 -30q9 -9 17 -19t11 -15l3 -6l-64 -63q13 -25 13 -58v-29q0 -28 -7 -46l57 -56q-9 -18 -31 -40q-9 -9 -18.5 -16.5t-14.5 -10.5l-6 -3l-59 59
q-32 -10 -67 -10q-41 0 -67 10l-59 -59q-18 9 -39 30q-9 9 -16.5 19t-10.5 15l-3 6l57 57q-7 18 -7 45zM163 329v-29q0 -41 51 -41q52 0 52 41v29q0 21 -12 30t-40 9t-39.5 -9t-11.5 -30z" />
    <glyph glyph-name="yen" unicode="&#xa5;" horiz-adv-x="628" 
d="M502 84h-104v-80q-41 -8 -84 -8q-19 0 -40 2t-32 4l-12 2v80h-104q-6 18 -6 49q0 13 1.5 25t2.5 18l2 6h104v49h-104q-6 19 -6 49q0 13 1.5 25t2.5 18l2 6h67l-173 367q51 8 91 8q18 0 40.5 -2t36.5 -4l13 -2l113 -281l113 281q49 8 90 8q19 0 41.5 -2t35.5 -4l13 -2
l-173 -367h68q7 -20 7 -49q0 -13 -1.5 -25t-3.5 -18l-2 -6h-104v-49h104q7 -20 7 -49q0 -13 -1.5 -25.5t-3.5 -17.5z" />
    <glyph glyph-name="brokenbar" unicode="&#xa6;" horiz-adv-x="206" 
d="M165 746v-367q-31 -8 -62 -8q-14 0 -29.5 2t-23.5 4l-9 2v367q31 8 62 8q14 0 29.5 -2t23.5 -4zM165 271v-367q-31 -8 -62 -8q-14 0 -29.5 2t-23.5 4l-9 2v367q31 8 62 8q14 0 29.5 -2t23.5 -4z" />
    <glyph glyph-name="section" unicode="&#xa7;" horiz-adv-x="564" 
d="M533 239q0 -88 -53 -134q53 -46 53 -113v-13q0 -94 -59 -140t-195 -46q-142 0 -196 45.5t-54 140.5v12q39 7 77 7q17 0 36.5 -2t29.5 -4l11 -1v-12q0 -50 20.5 -69t74.5 -19q55 0 75.5 19t20.5 69v13q0 28 -35 46t-85.5 31t-100.5 30.5t-85 55t-35 93.5v13q0 93 53 136
q-53 41 -53 111v13q0 94 58 140t191 46q139 0 191.5 -45.5t52.5 -140.5v-12q-38 -7 -77 -7q-17 0 -36.5 2t-30.5 4l-10 1v12q0 49 -19 68.5t-71 19.5q-50 0 -71 -20.5t-21 -67.5v-13q0 -25 35.5 -41.5t86 -29.5t100.5 -31t85.5 -57t35.5 -97v-13zM374 252q0 10 -4 18.5
t-13.5 15.5t-18 12.5t-25 11t-27.5 9t-32 9.5t-32 9q-32 -18 -32 -76v-13q0 -13 8.5 -23.5t26 -18.5t34 -13t44.5 -13t45 -14q26 19 26 73v13z" />
    <glyph glyph-name="dieresis" unicode="&#xa8;" horiz-adv-x="417" 
d="M166 696v-109q-28 -7 -62 -7q-16 0 -31.5 2t-23.5 4l-8 1v109q28 8 63 8q15 0 30.5 -2t23.5 -4zM376 696v-109q-28 -7 -62 -7q-16 0 -31.5 2t-23.5 4l-8 1v109q28 8 63 8q15 0 30.5 -2t23.5 -4z" />
    <glyph glyph-name="copyright" unicode="&#xa9;" horiz-adv-x="810" 
d="M36 240v220q0 123 87 185t282 62t281.5 -62t86.5 -185v-220q0 -123 -86.5 -185t-281.5 -62t-282 62t-87 185zM187 460v-220q0 -83 47 -116t171 -33t171 33t47 116v220q0 82 -47.5 115.5t-170.5 33.5t-170.5 -33.5t-47.5 -115.5zM281 277v150q0 52 30.5 78t100.5 26
q69 0 95 -25t26 -79v-5q-22 -4 -42 -4l-43 4v5q0 25 -8 34.5t-28 9.5q-21 0 -28.5 -9.5t-7.5 -34.5v-150q0 -25 10 -34.5t38 -9.5q25 0 49 5t36 9.5t12 5.5q4 -12 4 -30l-4 -31q-43 -19 -98 -19q-76 0 -109 26t-33 78z" />
    <glyph glyph-name="ordfeminine" unicode="&#xaa;" horiz-adv-x="371" 
d="M223 353v17q-36 -25 -89 -25q-55 0 -79.5 26t-24.5 79v7q0 45 30.5 69.5t101.5 32.5l61 8v23q0 24 -8.5 34t-29.5 10q-22 0 -30.5 -9t-8.5 -33v-5q-27 -6 -55 -6l-54 6v5q0 58 31.5 85.5t116.5 27.5q82 0 118 -28.5t36 -86.5v-237q-29 -6 -58 -6zM223 498l-39 -6
q-38 -7 -38 -35v-7q0 -18 8 -26t28 -8q13 0 23 5t14 9l4 5v63z" />
    <glyph glyph-name="guillemotleft" unicode="&#xab;" horiz-adv-x="518" 
d="M20 271l201 201q18 -9 39 -30q9 -9 17 -19t11 -15l3 -6l-132 -131l133 -133q-10 -18 -31 -39q-9 -9 -18.5 -16.5t-14.5 -10.5l-6 -3zM222 271l201 201q18 -9 40 -30q9 -9 16.5 -19t10.5 -15l3 -6l-132 -131l133 -133q-10 -18 -30 -39q-9 -9 -19 -16.5t-15 -10.5l-6 -3z
" />
    <glyph glyph-name="logicalnot" unicode="&#xac;" horiz-adv-x="399" 
d="M244 213v66h-214q-6 20 -6 49q0 13 1.5 25.5t2.5 18.5l2 5h127q59 0 114 -2.5t81 -4.5l25 -3v-154q-34 -8 -67 -8q-15 0 -31.5 2t-25.5 4z" />
    <glyph glyph-name="uni00AD" unicode="&#xad;" horiz-adv-x="275" 
d="M243 228h-213q-6 19 -6 49q0 13 1.5 25t2.5 18l2 6h213q7 -20 7 -49q0 -13 -2 -25.5t-4 -17.5z" />
    <glyph glyph-name="registered" unicode="&#xae;" horiz-adv-x="810" 
d="M36 240v220q0 123 87 185t282 62t281.5 -62t86.5 -185v-220q0 -123 -86.5 -185t-281.5 -62t-282 62t-87 185zM187 460v-220q0 -83 47 -116t171 -33t171 33t47 116v220q0 82 -47.5 115.5t-170.5 33.5t-170.5 -33.5t-47.5 -115.5zM459 177l-60 129l-24 2v-131
q-24 -4 -48 -4l-47 4v344q50 7 125 7q71 0 101.5 -25.5t30.5 -77.5v-17q0 -68 -52 -90l70 -141q-24 -4 -48 -4zM375 469v-104h30q22 0 30 9t8 34v17q0 25 -8 34.5t-30 9.5h-30z" />
    <glyph glyph-name="macron" unicode="&#xaf;" horiz-adv-x="258" 
d="M271 585h-285q-6 13 -6 36q0 9 1.5 18t2.5 13l2 5h285q6 -15 6 -36q0 -10 -1.5 -19t-3.5 -13z" />
    <glyph glyph-name="degree" unicode="&#xb0;" horiz-adv-x="310" 
d="M48 584v23q0 96 109 96t109 -96v-23q0 -96 -109 -96t-109 96zM120 607v-23q0 -30 37 -30t37 30v23q0 30 -37 30t-37 -30z" />
    <glyph glyph-name="plusminus" unicode="&#xb1;" horiz-adv-x="399" 
d="M250 496v-120h118q7 -20 7 -49q0 -13 -1.5 -25.5t-3.5 -17.5l-2 -6h-118v-119q-20 -7 -51 -7q-14 0 -26.5 2t-18.5 4l-6 1v119h-118q-6 19 -6 49q0 13 1.5 25t2.5 18l2 6h118v120q20 7 51 7q13 0 26 -1.5t19 -3.5zM368 36h-338q-6 18 -6 47q0 12 1.5 23.5t2.5 17.5l2 5
h338q7 -19 7 -46q0 -12 -1.5 -24t-3.5 -17z" />
    <glyph glyph-name="twosuperior" unicode="&#xb2;" horiz-adv-x="291" 
d="M182 588v12q0 27 -9 38t-29 11q-22 0 -30 -10.5t-8 -38.5v-5q-21 -4 -44 -4l-43 4v5q0 54 26.5 79t98.5 25q68 0 97.5 -25.5t29.5 -78.5v-12q0 -39 -25 -65t-55.5 -36.5t-55.5 -27t-25 -39.5v-15h154q3 -11 3 -28l-3 -27h-129q-30 0 -58 1.5t-41 2.5l-13 2v64
q0 37 25 62.5t54.5 36.5t54.5 28.5t25 40.5z" />
    <glyph glyph-name="threesuperior" unicode="&#xb3;" horiz-adv-x="280" 
d="M28 642q-4 12 -4 29l4 29h217q3 -11 3 -27l-3 -28l-84 -86q100 0 100 -96v-18q0 -50 -33 -74.5t-109 -24.5q-24 0 -47.5 5t-35.5 9l-11 5q-4 11 -4 29q0 5 0.5 9.5t1 7.5t1 5.5t0.5 3.5l1 2q0 -1 11.5 -6t34.5 -10t46 -5q31 0 42.5 9.5t11.5 34.5v18q0 23 -9.5 32.5
t-35.5 9.5h-51q-2 12 -2 29l2 29l74 79h-121z" />
    <glyph glyph-name="acute" unicode="&#xb4;" horiz-adv-x="241" 
d="M238 696l-145 -138q-24 -8 -45 -8q-11 0 -22.5 2t-17.5 4l-6 2l92 138q35 8 71 8q16 0 34 -2t29 -4z" />
    <glyph glyph-name="mu" unicode="&#xb5;" 
d="M200 30v-126q-40 -8 -80 -8q-17 0 -37 2t-31 4l-11 2v592q40 8 79 8q18 0 38 -2t31 -4l11 -2v-377q19 -28 65 -28q32 0 44 17.5t12 61.5v326q39 8 79 8q18 0 38 -2t31 -4l11 -2v-326q0 -88 -36.5 -132.5t-118.5 -44.5q-33 0 -64 9.5t-46 18.5z" />
    <glyph glyph-name="paragraph" unicode="&#xb6;" horiz-adv-x="753" 
d="M723 602h-43v-698q-40 -8 -80 -8q-17 0 -37 2t-31 4l-11 2v698h-72v-698q-40 -8 -80 -8q-18 0 -38 2t-31 4l-11 2v367q-137 0 -197.5 48.5t-60.5 148.5v35q0 99 60.5 148t197.5 49h434q6 -20 6 -49q0 -13 -1.5 -25.5t-3.5 -17.5z" />
    <glyph glyph-name="periodcentered" unicode="&#xb7;" horiz-adv-x="232" 
d="M192 328v-134q-39 -7 -76 -7q-17 0 -35.5 1.5t-28.5 3.5l-11 2v134q37 7 75 7q17 0 36 -1.5t30 -3.5z" />
    <glyph glyph-name="cedilla" unicode="&#xb8;" horiz-adv-x="511" 
d="M292 0v-22q0 -12 14.5 -20t32 -13t32 -19t14.5 -37v-10q0 -75 -114 -75q-63 0 -86.5 20t-23.5 61v5q22 4 41 4l40 -4v-5q0 -17 6 -23t23 -6q16 0 22.5 5t6.5 18v10q0 11 -14.5 19t-31.5 12.5t-31.5 19.5t-14.5 38v22h84z" />
    <glyph glyph-name="onesuperior" unicode="&#xb9;" horiz-adv-x="218" 
d="M171 702v-350q-23 -4 -45 -4l-45 4v283l-63 5q-3 12 -3 28l3 29q58 5 153 5z" />
    <glyph glyph-name="ordmasculine" unicode="&#xba;" horiz-adv-x="371" 
d="M30 470v110q0 63 36.5 94t118.5 31q83 0 119.5 -31t36.5 -94v-110q0 -63 -36.5 -94t-119.5 -31q-82 0 -118.5 31t-36.5 94zM146 580v-110q0 -30 8.5 -42t30.5 -12q23 0 31.5 12t8.5 42v110q0 30 -8.5 42t-31.5 12q-22 0 -30.5 -12t-8.5 -42z" />
    <glyph glyph-name="guillemotright" unicode="&#xbb;" horiz-adv-x="518" 
d="M292 270l-202 -201q-18 9 -39 30q-9 9 -16.5 19t-10.5 15l-3 5l131 132l-132 132q10 19 30 40q9 9 19 16.5t15 10.5l5 3zM494 270l-201 -201q-18 9 -40 30q-9 9 -16.5 19t-10.5 15l-3 5l131 132l-132 132q10 19 30 40q9 9 19 16.5t15 10.5l6 3z" />
    <glyph glyph-name="onequarter" unicode="&#xbc;" horiz-adv-x="643" 
d="M595 249v-117h24q3 -12 3 -29l-3 -29h-20v-71q-23 -4 -44 -4l-44 4v71h-146q-4 11 -4 27l78 248q16 4 41 4l44 -4l-66 -217h54v117q20 4 42 4zM589 696l-418 -692q-39 -8 -76 -8q-17 0 -35.5 2t-29.5 4l-10 2l418 692q37 8 75 8q17 0 36 -2t29 -4zM171 702v-350
q-23 -4 -45 -4l-45 4v283l-63 5q-3 12 -3 28l3 29q58 5 153 5z" />
    <glyph glyph-name="onehalf" unicode="&#xbd;" horiz-adv-x="667" 
d="M589 696l-418 -692q-39 -8 -76 -8q-17 0 -35.5 2t-29.5 4l-10 2l418 692q37 8 75 8q17 0 36 -2t29 -4zM171 702v-350q-23 -4 -45 -4l-45 4v283l-63 5q-3 12 -3 28l3 29q58 5 153 5zM559 238v12q0 27 -8.5 38t-29.5 11q-22 0 -29.5 -10.5t-7.5 -38.5v-5q-22 -4 -44 -4
l-43 4v5q0 54 26.5 79t97.5 25q68 0 97.5 -25.5t29.5 -78.5v-12q0 -39 -25 -65t-55.5 -36.5t-55.5 -27t-25 -39.5v-15h154q4 -12 4 -28l-4 -27h-128q-30 0 -58.5 1.5t-41.5 2.5l-13 2v64q0 37 25 62.5t54.5 36.5t54.5 28.5t25 40.5z" />
    <glyph glyph-name="threequarters" unicode="&#xbe;" horiz-adv-x="687" 
d="M637 696l-418 -692q-38 -8 -75 -8q-17 0 -36 2t-30 4l-10 2l418 692q37 8 76 8q17 0 35.5 -2t28.5 -4zM28 642q-4 12 -4 29l4 29h217q3 -11 3 -27l-3 -28l-84 -86q100 0 100 -96v-18q0 -50 -33 -74.5t-109 -24.5q-24 0 -47.5 5t-35.5 9l-11 5q-4 11 -4 29q0 5 0.5 9.5
t1 7.5t1 5.5t0.5 3.5l1 2q0 -1 11.5 -6t34.5 -10t46 -5q31 0 42.5 9.5t11.5 34.5v18q0 23 -9.5 32.5t-35.5 9.5h-51q-2 12 -2 29l2 29l74 79h-121zM641 248v-117h24q3 -12 3 -29l-3 -29h-20v-71q-23 -4 -44 -4l-44 4v71h-146q-4 11 -4 27l78 248q16 4 41 4l44 -4l-66 -217
h54v117q20 4 42 4z" />
    <glyph glyph-name="questiondown" unicode="&#xbf;" horiz-adv-x="549" 
d="M188 21v-30q0 -55 20 -78t68 -23q49 0 67.5 22.5t18.5 78.5v12q38 7 77 7q17 0 36 -2t30 -4l11 -1v-12q0 -102 -51.5 -150.5t-188.5 -48.5q-131 0 -188 49t-57 150v30q0 42 17 72t41.5 46.5t48.5 30.5t41 33t17 45v30q39 7 79 7q18 0 38 -1.5t31 -3.5l11 -2v-30
q0 -43 -17 -73t-41.5 -46.5t-49.5 -30t-42 -32.5t-17 -45zM195 362v133q40 8 80 8q18 0 38 -2t31 -4l11 -2v-133q-40 -7 -80 -7q-18 0 -38 1.5t-31 3.5z" />
    <glyph glyph-name="Agrave" unicode="&#xc0;" horiz-adv-x="618" 
d="M9 4l187 692q53 8 113 8q26 0 54.5 -2t44.5 -4l15 -2l187 -692q-43 -8 -81 -8q-17 0 -38 2t-33 4l-13 2l-35 142h-201l-36 -142q-44 -8 -83 -8q-17 0 -37.5 2t-32.5 4zM310 567l-78 -314h154zM308 754l-145 138q38 8 73 8q16 0 34 -2t28 -4l9 -2l92 -138q-22 -8 -45 -8
q-10 0 -21.5 2t-18.5 4z" />
    <glyph glyph-name="Aacute" unicode="&#xc1;" horiz-adv-x="618" 
d="M9 4l187 692q53 8 113 8q26 0 54.5 -2t44.5 -4l15 -2l187 -692q-43 -8 -81 -8q-17 0 -38 2t-33 4l-13 2l-35 142h-201l-36 -142q-44 -8 -83 -8q-17 0 -37.5 2t-32.5 4zM310 567l-78 -314h154zM454 892l-145 -138q-24 -8 -45 -8q-11 0 -22 2t-17 4l-6 2l91 138q35 8 71 8
q16 0 34 -2t29 -4z" />
    <glyph glyph-name="Acircumflex" unicode="&#xc2;" horiz-adv-x="618" 
d="M9 4l187 692q53 8 113 8q26 0 54.5 -2t44.5 -4l15 -2l187 -692q-43 -8 -81 -8q-17 0 -38 2t-33 4l-13 2l-35 142h-201l-36 -142q-44 -8 -83 -8q-17 0 -37.5 2t-32.5 4zM310 567l-78 -314h154zM383 754l-74 74l-74 -74q-24 -8 -45 -8q-11 0 -22.5 2t-17.5 4l-6 2l97 137
q33 7 67 7q15 0 32 -2t26 -4l10 -1l97 -137q-22 -8 -45 -8q-10 0 -21 2t-17 4z" />
    <glyph glyph-name="Atilde" unicode="&#xc3;" horiz-adv-x="618" 
d="M9 4l187 692q53 8 113 8q26 0 54.5 -2t44.5 -4l15 -2l187 -692q-43 -8 -81 -8q-17 0 -38 2t-33 4l-13 2l-35 142h-201l-36 -142q-44 -8 -83 -8q-17 0 -37.5 2t-32.5 4zM310 567l-78 -314h154zM137 755v4q0 58 19 85t69 27q31 0 54.5 -8.5t33.5 -19t22 -19t23 -8.5
q21 0 29 9.5t8 33.5v5q21 7 43 7q9 0 19.5 -1.5t16.5 -3.5l6 -2v-4q0 -60 -18 -86.5t-69 -26.5q-40 0 -66 14t-40.5 28t-27.5 14q-21 0 -29 -9.5t-8 -33.5v-5q-21 -8 -43 -8q-9 0 -19.5 2t-16.5 4z" />
    <glyph glyph-name="Adieresis" unicode="&#xc4;" horiz-adv-x="618" 
d="M9 4l187 692q53 8 113 8q26 0 54.5 -2t44.5 -4l15 -2l187 -692q-43 -8 -81 -8q-17 0 -38 2t-33 4l-13 2l-35 142h-201l-36 -142q-44 -8 -83 -8q-17 0 -37.5 2t-32.5 4zM310 567l-78 -314h154zM266 864v-109q-28 -8 -62 -8q-16 0 -31.5 2t-23.5 4l-8 2v109q28 7 63 7
q15 0 30.5 -1.5t23.5 -3.5zM476 864v-109q-28 -8 -62 -8q-16 0 -31.5 2t-23.5 4l-8 2v109q28 7 63 7q15 0 30.5 -1.5t23.5 -3.5z" />
    <glyph glyph-name="Aring" unicode="&#xc5;" horiz-adv-x="618" 
d="M9 4l187 692q53 8 113 8q26 0 54.5 -2t44.5 -4l15 -2l187 -692q-43 -8 -81 -8q-17 0 -38 2t-33 4l-13 2l-35 142h-201l-36 -142q-44 -8 -83 -8q-17 0 -37.5 2t-32.5 4zM216 813v14q0 75 93 75q92 0 92 -75v-14q0 -75 -92 -75q-93 0 -93 75zM310 567l-78 -314h154z
M275 827v-14q0 -27 34 -27q33 0 33 27v14q0 26 -33 26q-34 0 -34 -26z" />
    <glyph glyph-name="AE" unicode="&#xc6;" horiz-adv-x="765" 
d="M492 306v-199h242q7 -21 7 -54q0 -14 -1.5 -27.5t-3.5 -19.5l-2 -6h-190q-59 0 -114 2.5t-80 5.5l-26 2v136h-115l-36 -142q-44 -8 -83 -8q-17 0 -37.5 2t-32.5 4l-11 2l185 686q142 10 350 10h185q7 -21 7 -54q0 -14 -2 -27.5t-4 -19.5l-1 -6h-237v-180h207q6 -21 6 -53
q0 -14 -1.5 -27.5t-3.5 -20.5l-1 -6h-207zM318 593l-87 -340h93v340h-6z" />
    <glyph glyph-name="Ccedilla" unicode="&#xc7;" horiz-adv-x="560" 
d="M36 192v316q0 99 60 149t197 50t188.5 -48.5t51.5 -150.5v-12q-38 -7 -75 -7q-17 0 -36 1.5t-30 3.5l-10 2v12q0 52 -19 72t-70 20t-70 -20.5t-19 -71.5v-316q0 -51 24 -71.5t86 -20.5q51 0 100 10.5t73 19.5t24 11l1 -3q1 -2 2.5 -6.5t2.5 -10.5t2 -15t1 -18
q0 -15 -2 -29t-4 -21l-3 -6q-75 -36 -183 -39v-15q0 -12 14.5 -20t32 -13t32 -19t14.5 -37v-10q0 -75 -114 -75q-63 0 -86.5 20t-23.5 61v5q22 4 41 4l40 -4v-5q0 -17 6 -23t23 -6q16 0 22.5 5t6.5 18v10q0 11 -14.5 19t-31.5 12.5t-31.5 19.5t-14.5 38v18q-110 11 -159 60
t-49 136z" />
    <glyph glyph-name="Egrave" unicode="&#xc8;" horiz-adv-x="511" 
d="M209 306v-199h273q7 -21 7 -54q0 -14 -1.5 -27.5t-3.5 -19.5l-2 -6h-221q-59 0 -114 2.5t-81 5.5l-25 2v680q88 10 220 10h216q7 -21 7 -54q0 -14 -2 -27.5t-4 -19.5l-1 -6h-268v-180h238q6 -21 6 -53q0 -14 -1.5 -27.5t-3.5 -20.5l-1 -6h-238zM266 754l-145 138
q38 8 73 8q16 0 34 -2t28 -4l9 -2l92 -138q-22 -8 -45 -8q-10 0 -21.5 2t-18.5 4z" />
    <glyph glyph-name="Eacute" unicode="&#xc9;" horiz-adv-x="511" 
d="M209 306v-199h273q7 -21 7 -54q0 -14 -1.5 -27.5t-3.5 -19.5l-2 -6h-221q-59 0 -114 2.5t-81 5.5l-25 2v680q88 10 220 10h216q7 -21 7 -54q0 -14 -2 -27.5t-4 -19.5l-1 -6h-268v-180h238q6 -21 6 -53q0 -14 -1.5 -27.5t-3.5 -20.5l-1 -6h-238zM411 892l-145 -138
q-24 -8 -46 -8q-10 0 -21.5 2t-17.5 4l-6 2l92 138q34 8 71 8q16 0 34 -2t28 -4z" />
    <glyph glyph-name="Ecircumflex" unicode="&#xca;" horiz-adv-x="511" 
d="M209 306v-199h273q7 -21 7 -54q0 -14 -1.5 -27.5t-3.5 -19.5l-2 -6h-221q-59 0 -114 2.5t-81 5.5l-25 2v680q88 10 220 10h216q7 -21 7 -54q0 -14 -2 -27.5t-4 -19.5l-1 -6h-268v-180h238q6 -21 6 -53q0 -14 -1.5 -27.5t-3.5 -20.5l-1 -6h-238zM340 754l-74 74l-74 -74
q-23 -8 -45 -8q-11 0 -22 2t-17 4l-6 2l96 137q33 7 67 7l69 -7l96 -137q-21 -8 -45 -8q-10 0 -21 2t-18 4z" />
    <glyph glyph-name="Edieresis" unicode="&#xcb;" horiz-adv-x="511" 
d="M209 306v-199h273q7 -21 7 -54q0 -14 -1.5 -27.5t-3.5 -19.5l-2 -6h-221q-59 0 -114 2.5t-81 5.5l-25 2v680q88 10 220 10h216q7 -21 7 -54q0 -14 -2 -27.5t-4 -19.5l-1 -6h-268v-180h238q6 -21 6 -53q0 -14 -1.5 -27.5t-3.5 -20.5l-1 -6h-238zM223 864v-109
q-27 -8 -62 -8q-16 0 -31.5 2t-23.5 4l-7 2v109q27 7 62 7q16 0 31.5 -1.5t23.5 -3.5zM433 864v-109q-27 -8 -62 -8q-16 0 -31.5 2t-23.5 4l-7 2v109q27 7 62 7q16 0 31.5 -1.5t23.5 -3.5z" />
    <glyph glyph-name="Igrave" unicode="&#xcc;" horiz-adv-x="342" 
d="M28 107h59v486h-59q-6 21 -6 53q0 15 1.5 28.5t2.5 19.5l2 6h286q7 -21 7 -54q0 -14 -1.5 -27.5t-3.5 -19.5l-2 -6h-59v-486h59q7 -21 7 -54q0 -14 -1.5 -27.5t-3.5 -19.5l-2 -6h-286q-6 21 -6 53q0 15 1.5 28.5t2.5 19.5zM171 754l-146 138q38 8 73 8q16 0 34 -2t28 -4
l10 -2l91 -138q-21 -8 -45 -8q-10 0 -21 2t-17 4z" />
    <glyph glyph-name="Iacute" unicode="&#xcd;" horiz-adv-x="342" 
d="M28 107h59v486h-59q-6 21 -6 53q0 15 1.5 28.5t2.5 19.5l2 6h286q7 -21 7 -54q0 -14 -1.5 -27.5t-3.5 -19.5l-2 -6h-59v-486h59q7 -21 7 -54q0 -14 -1.5 -27.5t-3.5 -19.5l-2 -6h-286q-6 21 -6 53q0 15 1.5 28.5t2.5 19.5zM317 892l-146 -138q-23 -8 -45 -8q-11 0 -22 2
t-17 4l-6 2l92 138q34 8 71 8q16 0 34 -2t28 -4z" />
    <glyph glyph-name="Icircumflex" unicode="&#xce;" horiz-adv-x="342" 
d="M28 107h59v486h-59q-6 21 -6 53q0 15 1.5 28.5t2.5 19.5l2 6h286q7 -21 7 -54q0 -14 -1.5 -27.5t-3.5 -19.5l-2 -6h-59v-486h59q7 -21 7 -54q0 -14 -1.5 -27.5t-3.5 -19.5l-2 -6h-286q-6 21 -6 53q0 15 1.5 28.5t2.5 19.5zM245 754l-74 74l-74 -74q-23 -8 -45 -8
q-11 0 -22 2t-17 4l-6 2l96 137q33 7 67 7l69 -7l96 -137q-21 -8 -45 -8q-10 0 -21 2t-17 4z" />
    <glyph glyph-name="Idieresis" unicode="&#xcf;" horiz-adv-x="342" 
d="M140 863v-109q-28 -8 -63 -8q-15 0 -30.5 2t-23.5 4l-8 2v109q28 7 62 7q16 0 31.5 -2t23.5 -4zM327 863v-109q-28 -8 -62 -8q-16 0 -31.5 2t-23.5 4l-7 2v109q27 7 62 7q16 0 31.5 -2t23.5 -4zM28 107h59v486h-59q-6 21 -6 53q0 15 1.5 28.5t2.5 19.5l2 6h286
q7 -21 7 -54q0 -14 -1.5 -27.5t-3.5 -19.5l-2 -6h-59v-486h59q7 -21 7 -54q0 -14 -1.5 -27.5t-3.5 -19.5l-2 -6h-286q-6 21 -6 53q0 15 1.5 28.5t2.5 19.5z" />
    <glyph glyph-name="Eth" unicode="&#xd0;" horiz-adv-x="623" 
d="M73 691q101 14 253 14q139 0 199.5 -49t60.5 -148v-316q0 -99 -60.5 -148t-199.5 -49q-68 0 -131 3.5t-93 7.5l-29 3v302h-43q-6 19 -6 49q0 13 1.5 25t2.5 18l2 6h43v282zM329 311h-88v-210h85q52 0 72 20t20 71v316q0 51 -20 71t-72 20h-85v-190h88q7 -20 7 -49
q0 -13 -2 -25t-4 -18z" />
    <glyph glyph-name="Ntilde" unicode="&#xd1;" horiz-adv-x="618" 
d="M41 4v692q35 8 71 8q16 0 33.5 -2t27.5 -4l10 -2l235 -386v386q40 8 80 8q18 0 38 -2t31 -4l11 -2v-692q-36 -8 -71 -8q-16 0 -33.5 2t-27.5 4l-10 2l-236 386v-386q-40 -8 -80 -8q-17 0 -37 2t-31 4zM137 755v4q0 58 19 85t69 27q31 0 54.5 -8.5t33.5 -19t22 -19
t23 -8.5q21 0 29 9.5t8 33.5v5q21 7 43 7q9 0 19.5 -1.5t16.5 -3.5l6 -2v-4q0 -60 -18 -86.5t-69 -26.5q-40 0 -66 14t-40.5 28t-27.5 14q-21 0 -29 -9.5t-8 -33.5v-5q-21 -8 -43 -8q-9 0 -19.5 2t-16.5 4z" />
    <glyph glyph-name="Ograve" unicode="&#xd2;" horiz-adv-x="594" 
d="M36 192v316q0 99 61.5 149t199.5 50t199 -50t61 -149v-316q0 -99 -61 -149t-199 -50t-199.5 50t-61.5 149zM204 508v-316q0 -51 20 -71.5t73 -20.5q52 0 72 20.5t20 71.5v316q0 51 -20 71.5t-72 20.5q-53 0 -73 -20.5t-20 -71.5zM297 754l-146 138q38 8 73 8q16 0 34 -2
t28 -4l9 -2l92 -138q-21 -8 -45 -8q-10 0 -21 2t-17 4z" />
    <glyph glyph-name="Oacute" unicode="&#xd3;" horiz-adv-x="594" 
d="M36 192v316q0 99 61.5 149t199.5 50t199 -50t61 -149v-316q0 -99 -61 -149t-199 -50t-199.5 50t-61.5 149zM204 508v-316q0 -51 20 -71.5t73 -20.5q52 0 72 20.5t20 71.5v316q0 51 -20 71.5t-72 20.5q-53 0 -73 -20.5t-20 -71.5zM443 892l-146 -138q-23 -8 -45 -8
q-11 0 -22 2t-17 4l-6 2l91 138q35 8 72 8q16 0 34 -2t28 -4z" />
    <glyph glyph-name="Ocircumflex" unicode="&#xd4;" horiz-adv-x="594" 
d="M36 192v316q0 99 61.5 149t199.5 50t199 -50t61 -149v-316q0 -99 -61 -149t-199 -50t-199.5 50t-61.5 149zM204 508v-316q0 -51 20 -71.5t73 -20.5q52 0 72 20.5t20 71.5v316q0 51 -20 71.5t-72 20.5q-53 0 -73 -20.5t-20 -71.5zM371 754l-74 74l-74 -74q-23 -8 -45 -8
q-11 0 -22 2t-17 4l-6 2l96 137q33 7 67 7l69 -7l96 -137q-21 -8 -45 -8q-10 0 -21 2t-17 4z" />
    <glyph glyph-name="Otilde" unicode="&#xd5;" horiz-adv-x="594" 
d="M36 192v316q0 99 61.5 149t199.5 50t199 -50t61 -149v-316q0 -99 -61 -149t-199 -50t-199.5 50t-61.5 149zM204 508v-316q0 -51 20 -71.5t73 -20.5q52 0 72 20.5t20 71.5v316q0 51 -20 71.5t-72 20.5q-53 0 -73 -20.5t-20 -71.5zM125 755v4q0 58 19 85t69 27
q32 0 55 -8.5t33.5 -19t22 -19t22.5 -8.5q21 0 29 9.5t8 33.5v5q22 7 43 7q9 0 19.5 -1.5t16.5 -3.5l6 -2v-4q0 -60 -18 -86.5t-69 -26.5q-40 0 -66 14t-40.5 28t-26.5 14q-21 0 -29 -9.5t-8 -33.5v-5q-22 -8 -43 -8q-9 0 -20 2t-17 4z" />
    <glyph glyph-name="Odieresis" unicode="&#xd6;" horiz-adv-x="594" 
d="M36 192v316q0 99 61.5 149t199.5 50t199 -50t61 -149v-316q0 -99 -61 -149t-199 -50t-199.5 50t-61.5 149zM204 508v-316q0 -51 20 -71.5t73 -20.5q52 0 72 20.5t20 71.5v316q0 51 -20 71.5t-72 20.5q-53 0 -73 -20.5t-20 -71.5zM254 863v-109q-27 -8 -62 -8
q-16 0 -31.5 2t-22.5 4l-8 2v109q27 7 62 7q16 0 31.5 -2t22.5 -4zM464 863v-109q-27 -8 -62 -8q-16 0 -31.5 2t-22.5 4l-8 2v109q27 7 62 7q16 0 31.5 -2t22.5 -4z" />
    <glyph glyph-name="multiply" unicode="&#xd7;" horiz-adv-x="399" 
d="M89 479l110 -109l109 109q19 -10 40 -30q9 -9 16.5 -19t10.5 -16l3 -5l-110 -109l109 -108q-9 -19 -30 -40q-9 -9 -19 -16.5t-16 -10.5l-5 -3l-108 108l-109 -108q-18 9 -39 30q-9 9 -16.5 19t-10.5 15l-3 6l108 108l-109 109q10 19 30 40q9 9 19 16.5t15 10.5z" />
    <glyph glyph-name="Oslash" unicode="&#xd8;" horiz-adv-x="594" 
d="M573 696l-45 -73q29 -45 29 -115v-316q0 -99 -61 -149t-199 -50q-88 0 -145 20l-6 -9q-31 -8 -63 -8q-14 0 -29.5 2t-23.5 4l-9 2l45 72q-30 44 -30 116v316q0 99 61.5 149t199.5 50q88 0 145 -21l6 10q31 8 62 8q14 0 30 -2t24 -4zM297 95q57 0 79 21.5t22 75.5v220
l-182 -294q22 -23 81 -23zM196 508v-221l181 295q-22 23 -80 23q-57 0 -79 -22t-22 -75z" />
    <glyph glyph-name="Ugrave" unicode="&#xd9;" horiz-adv-x="598" 
d="M557 696v-504q0 -99 -60.5 -149t-197.5 -50q-138 0 -198 49.5t-60 149.5v504q41 8 84 8q19 0 40 -2t33 -4l11 -2v-504q0 -51 19.5 -71.5t70.5 -20.5t70.5 20.5t19.5 71.5v504q41 8 84 8q19 0 40 -2t33 -4zM299 754l-146 138q38 8 73 8q16 0 34 -2t28 -4l9 -2l92 -138
q-21 -8 -45 -8q-10 0 -21 2t-17 4z" />
    <glyph glyph-name="Uacute" unicode="&#xda;" horiz-adv-x="598" 
d="M557 696v-504q0 -99 -60.5 -149t-197.5 -50q-138 0 -198 49.5t-60 149.5v504q41 8 84 8q19 0 40 -2t33 -4l11 -2v-504q0 -51 19.5 -71.5t70.5 -20.5t70.5 20.5t19.5 71.5v504q41 8 84 8q19 0 40 -2t33 -4zM445 892l-146 -138q-23 -8 -45 -8q-11 0 -22 2t-17 4l-6 2
l91 138q35 8 72 8q16 0 34 -2t28 -4z" />
    <glyph glyph-name="Ucircumflex" unicode="&#xdb;" horiz-adv-x="598" 
d="M557 696v-504q0 -99 -60.5 -149t-197.5 -50q-138 0 -198 49.5t-60 149.5v504q41 8 84 8q19 0 40 -2t33 -4l11 -2v-504q0 -51 19.5 -71.5t70.5 -20.5t70.5 20.5t19.5 71.5v504q41 8 84 8q19 0 40 -2t33 -4zM373 754l-74 74l-74 -74q-23 -8 -45 -8q-11 0 -22 2t-17 4l-6 2
l96 137q33 7 67 7l69 -7l96 -137q-21 -8 -45 -8q-10 0 -21 2t-17 4z" />
    <glyph glyph-name="Udieresis" unicode="&#xdc;" horiz-adv-x="598" 
d="M557 696v-504q0 -99 -60.5 -149t-197.5 -50q-138 0 -198 49.5t-60 149.5v504q41 8 84 8q19 0 40 -2t33 -4l11 -2v-504q0 -51 19.5 -71.5t70.5 -20.5t70.5 20.5t19.5 71.5v504q41 8 84 8q19 0 40 -2t33 -4zM256 863v-109q-28 -8 -62 -8q-16 0 -31.5 2t-22.5 4l-8 2v109
q27 7 62 7q16 0 31.5 -2t22.5 -4zM466 863v-109q-28 -8 -62 -8q-16 0 -31.5 2t-22.5 4l-8 2v109q27 7 62 7q16 0 31.5 -2t22.5 -4z" />
    <glyph glyph-name="Yacute" unicode="&#xdd;" horiz-adv-x="628" 
d="M607 696l-209 -444v-248q-41 -8 -84 -8q-19 0 -40 2t-32 4l-12 2v248l-210 444q51 8 91 8q18 0 40.5 -2t36.5 -4l13 -2l113 -281l113 281q49 8 90 8q19 0 41.5 -2t35.5 -4zM460 892l-146 -138q-23 -8 -45 -8q-11 0 -22 2t-17 4l-6 2l92 138q34 8 71 8q16 0 34 -2t29 -4z
" />
    <glyph glyph-name="Thorn" unicode="&#xde;" horiz-adv-x="552" 
d="M209 696v-122q27 2 68 2q127 0 183 -48.5t56 -147.5v-40q0 -100 -56 -148.5t-183 -48.5l-68 3v-142q-43 -8 -84 -8q-19 0 -40 2t-33 4l-11 2v692q41 8 84 8q19 0 40 -2t33 -4zM209 471v-223h63q44 0 60 20t16 72v40q0 51 -16 71t-60 20h-63z" />
    <glyph glyph-name="germandbls" unicode="&#xdf;" horiz-adv-x="734" 
d="M74 5v397h-42q-7 19 -7 49q0 13 1.5 25.5t3.5 17.5l2 6h42v36q0 86 52 128.5t170 42.5q119 0 171 -42t52 -129v-17q0 -36 -12 -60.5t-26 -33.5t-26 -22t-12 -29v-15q0 -16 12 -24t37 -14q31 -6 50.5 -10.5t53 -17.5t53 -28.5t35.5 -43.5t16 -62v-20q0 -74 -49 -110
t-161 -36q-118 0 -162.5 38.5t-44.5 120.5v8q39 7 77 7q17 0 36.5 -1.5t29.5 -3.5l11 -2v-8q0 -34 11 -47.5t41 -13.5t41 10.5t11 37.5v20q0 17 -13 25.5t-41 14.5q-33 7 -49.5 11t-50.5 17t-52 28t-33.5 42.5t-15.5 61.5v15q0 36 11.5 59.5t25 32.5t25 22.5t11.5 30.5v17
q0 31 -13.5 43.5t-49.5 12.5q-35 0 -49 -14t-14 -42v-531q-39 -8 -79 -8q-18 0 -38 2t-31 4z" />
    <glyph glyph-name="agrave" unicode="&#xe0;" horiz-adv-x="515" 
d="M315 4v26q-53 -37 -130 -37q-79 0 -114 37t-35 112v10q0 63 43.5 97.5t144.5 47.5l91 11v35q0 36 -13 51t-46 15q-34 0 -46.5 -14t-12.5 -48v-9q-37 -7 -76 -7q-16 0 -35 1.5t-30 3.5l-10 2v9q0 82 45.5 121t164.5 39q116 0 167 -41t51 -123v-339q-39 -8 -79 -8
q-19 0 -39 2t-30 4zM315 213l-60 -9q-59 -9 -59 -52v-10q0 -28 11.5 -39.5t41.5 -11.5q21 0 37.5 7t22.5 14l6 7v94zM257 558l-146 138q38 8 73 8q16 0 34 -2t28 -4l10 -2l91 -138q-21 -8 -45 -8q-10 0 -21 2t-17 4z" />
    <glyph glyph-name="aacute" unicode="&#xe1;" horiz-adv-x="515" 
d="M315 4v26q-53 -37 -130 -37q-79 0 -114 37t-35 112v10q0 63 43.5 97.5t144.5 47.5l91 11v35q0 36 -13 51t-46 15q-34 0 -46.5 -14t-12.5 -48v-9q-37 -7 -76 -7q-16 0 -35 1.5t-30 3.5l-10 2v9q0 82 45.5 121t164.5 39q116 0 167 -41t51 -123v-339q-39 -8 -79 -8
q-19 0 -39 2t-30 4zM315 213l-60 -9q-59 -9 -59 -52v-10q0 -28 11.5 -39.5t41.5 -11.5q21 0 37.5 7t22.5 14l6 7v94zM403 696l-146 -138q-23 -8 -45 -8q-10 0 -21.5 2t-17.5 4l-6 2l92 138q34 8 71 8q16 0 34 -2t28 -4z" />
    <glyph glyph-name="acircumflex" unicode="&#xe2;" horiz-adv-x="515" 
d="M315 4v26q-53 -37 -130 -37q-79 0 -114 37t-35 112v10q0 63 43.5 97.5t144.5 47.5l91 11v35q0 36 -13 51t-46 15q-34 0 -46.5 -14t-12.5 -48v-9q-37 -7 -76 -7q-16 0 -35 1.5t-30 3.5l-10 2v9q0 82 45.5 121t164.5 39q116 0 167 -41t51 -123v-339q-39 -8 -79 -8
q-19 0 -39 2t-30 4zM315 213l-60 -9q-59 -9 -59 -52v-10q0 -28 11.5 -39.5t41.5 -11.5q21 0 37.5 7t22.5 14l6 7v94zM331 559l-74 74l-74 -74q-23 -7 -45 -7q-11 0 -22 2t-17 4l-6 1l96 137q33 8 67 8q15 0 32 -2t27 -4l10 -2l96 -137q-21 -7 -45 -7z" />
    <glyph glyph-name="atilde" unicode="&#xe3;" horiz-adv-x="515" 
d="M315 4v26q-53 -37 -130 -37q-79 0 -114 37t-35 112v10q0 63 43.5 97.5t144.5 47.5l91 11v35q0 36 -13 51t-46 15q-34 0 -46.5 -14t-12.5 -48v-9q-37 -7 -76 -7q-16 0 -35 1.5t-30 3.5l-10 2v9q0 82 45.5 121t164.5 39q116 0 167 -41t51 -123v-339q-39 -8 -79 -8
q-19 0 -39 2t-30 4zM315 213l-60 -9q-59 -9 -59 -52v-10q0 -28 11.5 -39.5t41.5 -11.5q21 0 37.5 7t22.5 14l6 7v94zM86 584v4q0 59 18.5 86t68.5 27q32 0 55 -8.5t33.5 -19t22 -19t22.5 -8.5q21 0 29 9.5t8 33.5v5q22 7 43 7q9 0 20 -1.5t17 -3.5l6 -2v-4
q0 -60 -18.5 -86.5t-69.5 -26.5q-32 0 -55 8.5t-33.5 19t-22 19t-22.5 8.5q-22 0 -29.5 -9t-7.5 -34v-5q-22 -7 -43 -7q-9 0 -19.5 1.5t-16.5 3.5z" />
    <glyph glyph-name="adieresis" unicode="&#xe4;" horiz-adv-x="515" 
d="M315 4v26q-53 -37 -130 -37q-79 0 -114 37t-35 112v10q0 63 43.5 97.5t144.5 47.5l91 11v35q0 36 -13 51t-46 15q-34 0 -46.5 -14t-12.5 -48v-9q-37 -7 -76 -7q-16 0 -35 1.5t-30 3.5l-10 2v9q0 82 45.5 121t164.5 39q116 0 167 -41t51 -123v-339q-39 -8 -79 -8
q-19 0 -39 2t-30 4zM315 213l-60 -9q-59 -9 -59 -52v-10q0 -28 11.5 -39.5t41.5 -11.5q21 0 37.5 7t22.5 14l6 7v94zM214 696v-109q-27 -7 -62 -7q-16 0 -31.5 2t-22.5 4l-8 1v109q27 8 62 8q16 0 31.5 -2t22.5 -4zM424 696v-109q-27 -7 -62 -7q-16 0 -31.5 2t-22.5 4l-8 1
v109q27 8 62 8q16 0 31.5 -2t22.5 -4z" />
    <glyph glyph-name="aring" unicode="&#xe5;" horiz-adv-x="515" 
d="M315 4v26q-53 -37 -130 -37q-79 0 -114 37t-35 112v10q0 63 43.5 97.5t144.5 47.5l91 11v35q0 36 -13 51t-46 15q-34 0 -46.5 -14t-12.5 -48v-9q-37 -7 -76 -7q-16 0 -35 1.5t-30 3.5l-10 2v9q0 82 45.5 121t164.5 39q116 0 167 -41t51 -123v-339q-39 -8 -79 -8
q-19 0 -39 2t-30 4zM165 614v15q0 74 92 74q93 0 93 -74v-15q0 -74 -93 -74q-92 0 -92 74zM315 213l-60 -9q-59 -9 -59 -52v-10q0 -28 11.5 -39.5t41.5 -11.5q21 0 37.5 7t22.5 14l6 7v94zM224 629v-15q0 -27 33 -27t33 27v15q0 25 -33 25t-33 -25z" />
    <glyph glyph-name="ae" unicode="&#xe6;" horiz-adv-x="776" 
d="M185 -7q-79 0 -114 37t-35 112v10q0 63 43.5 97.5t144.5 47.5l91 11v35q0 36 -13 51t-46 15q-34 0 -46.5 -14t-12.5 -48v-9q-37 -7 -76 -7q-16 0 -35 1.5t-30 3.5l-10 2v9q0 82 45.5 121t164.5 39q101 0 140 -50q41 50 138 50q117 0 161.5 -43t44.5 -134v-119
q-43 -14 -133 -14h-133v-27q0 -44 19.5 -61.5t70.5 -17.5q40 0 78 7t56.5 13.5t18.5 7.5l1 -3q1 -2 2.5 -6.5t2.5 -10t2 -13.5t1 -16q0 -13 -2 -25.5t-4 -18.5l-3 -6q-63 -27 -153 -27q-128 0 -173 62q-54 -62 -206 -62zM315 213l-60 -9q-59 -9 -59 -52v-10
q0 -28 11.5 -39.5t41.5 -11.5q37 0 51.5 17.5t14.5 61.5v43zM474 295h115v35q0 44 -12 61.5t-45 17.5t-45.5 -17.5t-12.5 -61.5v-35z" />
    <glyph glyph-name="ccedilla" unicode="&#xe7;" horiz-adv-x="488" 
d="M36 170v160q0 89 51 133t168 44q115 0 158.5 -43t43.5 -134v-12q-36 -7 -71 -7q-16 0 -34 1.5t-28 3.5l-9 2v12q0 44 -13 61.5t-47 17.5t-46.5 -17.5t-12.5 -61.5v-160q0 -44 19 -61.5t71 -17.5q38 0 75 7t55 13.5t18 7.5l1 -3q1 -2 2 -6.5t2.5 -10t2.5 -13.5t1 -16
q0 -13 -2.5 -25.5t-4.5 -18.5l-2 -6q-61 -27 -148 -27v-15q0 -12 14.5 -20t31.5 -13t31.5 -19t14.5 -37v-10q0 -75 -113 -75q-63 0 -86.5 20t-23.5 61v5q21 4 40 4l41 -4v-5q0 -17 6 -23t23 -6q16 0 22 5t6 18v10q0 11 -14.5 19t-31.5 12.5t-31.5 19.5t-14.5 38v21
q-87 12 -126 55t-39 116z" />
    <glyph glyph-name="egrave" unicode="&#xe8;" horiz-adv-x="504" 
d="M36 170v160q0 89 51.5 133t168.5 44q120 0 165.5 -43t45.5 -134v-119q-44 -14 -135 -14h-136v-27q0 -44 19.5 -61.5t71.5 -17.5q41 0 80 7t58.5 13.5t19.5 7.5l1 -3q1 -2 2.5 -6.5t2.5 -10t2 -13.5t1 -16q0 -13 -2 -25.5t-4 -18.5l-3 -6q-65 -27 -158 -27
q-134 0 -192.5 44t-58.5 133zM196 295h121v35q0 44 -13 61.5t-48 17.5q-34 0 -47 -17.5t-13 -61.5v-35zM252 558l-146 138q38 8 73 8q16 0 34 -2t27 -4l10 -2l92 -138q-21 -8 -45 -8q-10 0 -21 2t-18 4z" />
    <glyph glyph-name="eacute" unicode="&#xe9;" horiz-adv-x="504" 
d="M36 170v160q0 89 51.5 133t168.5 44q120 0 165.5 -43t45.5 -134v-119q-44 -14 -135 -14h-136v-27q0 -44 19.5 -61.5t71.5 -17.5q41 0 80 7t58.5 13.5t19.5 7.5l1 -3q1 -2 2.5 -6.5t2.5 -10t2 -13.5t1 -16q0 -13 -2 -25.5t-4 -18.5l-3 -6q-65 -27 -158 -27
q-134 0 -192.5 44t-58.5 133zM196 295h121v35q0 44 -13 61.5t-48 17.5q-34 0 -47 -17.5t-13 -61.5v-35zM398 696l-146 -138q-23 -8 -45 -8q-11 0 -22 2t-17 4l-6 2l91 138q35 8 72 8q16 0 34 -2t29 -4z" />
    <glyph glyph-name="ecircumflex" unicode="&#xea;" horiz-adv-x="504" 
d="M36 170v160q0 89 51.5 133t168.5 44q120 0 165.5 -43t45.5 -134v-119q-44 -14 -135 -14h-136v-27q0 -44 19.5 -61.5t71.5 -17.5q41 0 80 7t58.5 13.5t19.5 7.5l1 -3q1 -2 2.5 -6.5t2.5 -10t2 -13.5t1 -16q0 -13 -2 -25.5t-4 -18.5l-3 -6q-65 -27 -158 -27
q-134 0 -192.5 44t-58.5 133zM196 295h121v35q0 44 -13 61.5t-48 17.5q-34 0 -47 -17.5t-13 -61.5v-35zM326 559l-74 74l-74 -74q-23 -7 -45 -7q-11 0 -22 2t-17 4l-6 1l96 137q33 8 67 8q15 0 32 -2t27 -4l10 -2l96 -137q-21 -7 -45 -7q-10 0 -21 2t-18 4z" />
    <glyph glyph-name="edieresis" unicode="&#xeb;" horiz-adv-x="504" 
d="M36 170v160q0 89 51.5 133t168.5 44q120 0 165.5 -43t45.5 -134v-119q-44 -14 -135 -14h-136v-27q0 -44 19.5 -61.5t71.5 -17.5q41 0 80 7t58.5 13.5t19.5 7.5l1 -3q1 -2 2.5 -6.5t2.5 -10t2 -13.5t1 -16q0 -13 -2 -25.5t-4 -18.5l-3 -6q-65 -27 -158 -27
q-134 0 -192.5 44t-58.5 133zM196 295h121v35q0 44 -13 61.5t-48 17.5q-34 0 -47 -17.5t-13 -61.5v-35zM209 696v-109q-27 -7 -62 -7q-16 0 -31.5 2t-23.5 4l-7 1v109q27 8 62 8q16 0 31.5 -2t23.5 -4zM419 696v-109q-27 -7 -62 -7q-16 0 -31.5 2t-23.5 4l-7 1v109
q27 8 62 8q16 0 31.5 -2t23.5 -4z" />
    <glyph glyph-name="igrave" unicode="&#xec;" horiz-adv-x="241" 
d="M120 558l-145 138q38 8 73 8q16 0 33.5 -2t27.5 -4l10 -2l92 -138q-22 -8 -46 -8q-9 0 -20.5 2t-18.5 4zM200 496v-492q-40 -8 -80 -8q-17 0 -37 2t-31 4l-11 2v492q40 8 79 8q18 0 38 -2t31 -4z" />
    <glyph glyph-name="iacute" unicode="&#xed;" horiz-adv-x="241" 
d="M266 696l-145 -138q-24 -8 -46 -8q-10 0 -21.5 2t-17.5 4l-6 2l92 138q35 8 71 8q16 0 34 -2t29 -4zM200 496v-492q-40 -8 -80 -8q-17 0 -37 2t-31 4l-11 2v492q40 8 79 8q18 0 38 -2t31 -4z" />
    <glyph glyph-name="icircumflex" unicode="&#xee;" horiz-adv-x="241" 
d="M194 559l-74 74l-73 -74q-24 -7 -46 -7q-10 0 -21.5 2t-17.5 4l-6 1l97 137q32 8 67 8q15 0 32 -2t26 -4l10 -2l97 -137q-22 -7 -46 -7zM200 496v-492q-40 -8 -80 -8q-17 0 -37 2t-31 4l-11 2v492q40 8 79 8q18 0 38 -2t31 -4z" />
    <glyph glyph-name="idieresis" unicode="&#xef;" horiz-adv-x="241" 
d="M200 496v-492q-40 -8 -80 -8q-17 0 -37 2t-31 4l-11 2v492q40 8 79 8q18 0 38 -2t31 -4zM95 696v-109q-27 -7 -62 -7q-16 0 -31.5 2t-23.5 4l-7 1v109q27 8 62 8q16 0 31.5 -2t23.5 -4zM270 696v-109q-28 -7 -62 -7q-16 0 -31.5 2t-22.5 4l-8 1v109q27 8 62 8
q16 0 31.5 -2t22.5 -4z" />
    <glyph glyph-name="eth" unicode="&#xf0;" horiz-adv-x="513" 
d="M409 696l-45 -46q113 -56 113 -150v-330q0 -88 -51.5 -132.5t-168.5 -44.5t-169 44.5t-52 132.5v160q0 88 36.5 132.5t118.5 44.5q33 0 64.5 -9.5t46.5 -18.5l15 -9v30q0 36 -39 61l-19 -19q-27 -7 -51 -7q-12 0 -24.5 1.5t-19.5 3.5l-6 2l47 51q-28 8 -60.5 13.5
t-50.5 7.5l-18 2v2l-2.5 7.5t-2.5 10t-1.5 13.5t-0.5 16q0 13 1.5 25.5t3.5 17.5l2 6q106 -3 209 -34l15 16q26 8 54 8q12 0 25.5 -2t21.5 -4zM317 170v211q-19 28 -66 28q-32 0 -43.5 -17.5t-11.5 -61.5v-160q0 -44 13 -61.5t48 -17.5q34 0 47 17.5t13 61.5z" />
    <glyph glyph-name="ntilde" unicode="&#xf1;" horiz-adv-x="517" 
d="M200 496v-26q51 37 126 37q82 0 118 -44t36 -133v-326q-39 -8 -79 -8q-18 0 -38 2t-31 4l-11 2v326q0 44 -11.5 61.5t-43.5 17.5q-20 0 -36.5 -7t-23.5 -14l-6 -7v-377q-40 -8 -80 -8q-17 0 -37 2t-31 4l-11 2v492q40 8 79 8q18 0 38 -2t31 -4zM86 584v4q0 59 19 86
t69 27q32 0 55 -8.5t33.5 -19t22 -19t22.5 -8.5q21 0 29 9.5t8 33.5v5q22 7 43 7q9 0 20 -1.5t17 -3.5l6 -2v-4q0 -60 -18.5 -86.5t-69.5 -26.5q-32 0 -55 8.5t-33.5 19t-22 19t-22.5 8.5q-22 0 -29.5 -9t-7.5 -34v-5q-22 -7 -43 -7q-9 0 -20 1.5t-17 3.5z" />
    <glyph glyph-name="ograve" unicode="&#xf2;" horiz-adv-x="514" 
d="M36 170v160q0 88 52 132.5t169 44.5t168.5 -44t51.5 -133v-160q0 -89 -51.5 -133t-168.5 -44t-169 44.5t-52 132.5zM196 330v-160q0 -44 13 -61.5t48 -17.5t48 17.5t13 61.5v160q0 44 -13 61.5t-48 17.5t-48 -17.5t-13 -61.5zM257 558l-146 138q38 8 73 8q16 0 34 -2
t28 -4l9 -2l92 -138q-21 -8 -45 -8q-10 0 -21 2t-17 4z" />
    <glyph glyph-name="oacute" unicode="&#xf3;" horiz-adv-x="514" 
d="M36 170v160q0 88 52 132.5t169 44.5t168.5 -44t51.5 -133v-160q0 -89 -51.5 -133t-168.5 -44t-169 44.5t-52 132.5zM196 330v-160q0 -44 13 -61.5t48 -17.5t48 17.5t13 61.5v160q0 44 -13 61.5t-48 17.5t-48 -17.5t-13 -61.5zM403 696l-146 -138q-23 -8 -45 -8
q-11 0 -22 2t-17 4l-6 2l91 138q35 8 72 8q16 0 34 -2t28 -4z" />
    <glyph glyph-name="ocircumflex" unicode="&#xf4;" horiz-adv-x="514" 
d="M36 170v160q0 88 52 132.5t169 44.5t168.5 -44t51.5 -133v-160q0 -89 -51.5 -133t-168.5 -44t-169 44.5t-52 132.5zM196 330v-160q0 -44 13 -61.5t48 -17.5t48 17.5t13 61.5v160q0 44 -13 61.5t-48 17.5t-48 -17.5t-13 -61.5zM331 559l-74 74l-74 -74q-23 -7 -45 -7
q-11 0 -22 2t-17 4l-6 1l96 137q33 8 67 8q15 0 32 -2t27 -4l10 -2l96 -137q-21 -7 -45 -7q-10 0 -21 2t-17 4z" />
    <glyph glyph-name="otilde" unicode="&#xf5;" horiz-adv-x="514" 
d="M36 170v160q0 88 52 132.5t169 44.5t168.5 -44t51.5 -133v-160q0 -89 -51.5 -133t-168.5 -44t-169 44.5t-52 132.5zM196 330v-160q0 -44 13 -61.5t48 -17.5t48 17.5t13 61.5v160q0 44 -13 61.5t-48 17.5t-48 -17.5t-13 -61.5zM85 584v4q0 59 19 86t69 27q32 0 55 -8.5
t33.5 -19t22 -19t22.5 -8.5q21 0 29 9.5t8 33.5v5q22 7 43 7q9 0 19.5 -1.5t16.5 -3.5l6 -2v-4q0 -60 -18 -86.5t-69 -26.5q-32 0 -55.5 8.5t-34 19t-22 19t-21.5 8.5q-22 0 -29.5 -9t-7.5 -34v-5q-22 -7 -43 -7q-9 0 -20 1.5t-17 3.5z" />
    <glyph glyph-name="odieresis" unicode="&#xf6;" horiz-adv-x="514" 
d="M36 170v160q0 88 52 132.5t169 44.5t168.5 -44t51.5 -133v-160q0 -89 -51.5 -133t-168.5 -44t-169 44.5t-52 132.5zM196 330v-160q0 -44 13 -61.5t48 -17.5t48 17.5t13 61.5v160q0 44 -13 61.5t-48 17.5t-48 -17.5t-13 -61.5zM214 696v-109q-27 -7 -62 -7q-16 0 -31.5 2
t-22.5 4l-8 1v109q27 8 62 8q16 0 31.5 -2t22.5 -4zM424 696v-109q-27 -7 -62 -7q-16 0 -31.5 2t-22.5 4l-8 1v109q27 8 62 8q16 0 31.5 -2t22.5 -4z" />
    <glyph glyph-name="divide" unicode="&#xf7;" horiz-adv-x="417" 
d="M386 242h-356q-6 19 -6 49q0 13 1.5 25.5t2.5 17.5l2 6h356q6 -19 6 -49q0 -13 -1.5 -25t-2.5 -18zM269 495v-109q-31 -5 -61 -5l-60 5v109q29 6 60 6zM269 196v-109q-31 -5 -61 -5l-60 5v109q29 6 60 6z" />
    <glyph glyph-name="oslash" unicode="&#xf8;" horiz-adv-x="514" 
d="M488 496l-41 -56q30 -40 30 -110v-160q0 -89 -51.5 -133t-168.5 -44q-77 0 -128 20l-6 -9q-26 -8 -50 -8q-11 0 -23.5 2t-19.5 4l-6 2l42 56q-30 41 -30 110v160q0 88 52 132.5t169 44.5q77 0 126 -20l7 9q24 8 49 8q11 0 23.5 -2t19.5 -4zM257 82q45 0 62 19.5t17 68.5
v121l-141 -190q16 -19 62 -19zM178 330v-119l140 188q-18 19 -61 19q-45 0 -62 -19.5t-17 -68.5z" />
    <glyph glyph-name="ugrave" unicode="&#xf9;" 
d="M321 4v26q-51 -37 -126 -37q-82 0 -118 44t-36 133v326q40 8 79 8q18 0 38 -2t31 -4l11 -2v-326q0 -44 12 -61.5t43 -17.5q20 0 36.5 7t22.5 14l7 7v377q39 8 79 8q18 0 38 -2t31 -4l11 -2v-492q-40 -8 -80 -8q-18 0 -37.5 2t-30.5 4zM257 558l-145 138q38 8 73 8
q16 0 34 -2t27 -4l10 -2l92 -138q-22 -8 -45 -8q-10 0 -21.5 2t-17.5 4z" />
    <glyph glyph-name="uacute" unicode="&#xfa;" 
d="M321 4v26q-51 -37 -126 -37q-82 0 -118 44t-36 133v326q40 8 79 8q18 0 38 -2t31 -4l11 -2v-326q0 -44 12 -61.5t43 -17.5q20 0 36.5 7t22.5 14l7 7v377q39 8 79 8q18 0 38 -2t31 -4l11 -2v-492q-40 -8 -80 -8q-18 0 -37.5 2t-30.5 4zM403 696l-145 -138q-24 -8 -45 -8
q-11 0 -22.5 2t-17.5 4l-6 2l92 138q35 8 71 8q16 0 34 -2t28 -4z" />
    <glyph glyph-name="ucircumflex" unicode="&#xfb;" 
d="M321 4v26q-51 -37 -126 -37q-82 0 -118 44t-36 133v326q40 8 79 8q18 0 38 -2t31 -4l11 -2v-326q0 -44 12 -61.5t43 -17.5q20 0 36.5 7t22.5 14l7 7v377q39 8 79 8q18 0 38 -2t31 -4l11 -2v-492q-40 -8 -80 -8q-18 0 -37.5 2t-30.5 4zM332 559l-74 74l-74 -74
q-24 -7 -45 -7q-11 0 -22.5 2t-17.5 4l-6 1l97 137q33 8 67 8q15 0 32 -2t27 -4l9 -2l97 -137q-22 -7 -45 -7q-10 0 -21 2t-18 4z" />
    <glyph glyph-name="udieresis" unicode="&#xfc;" 
d="M321 4v26q-51 -37 -126 -37q-82 0 -118 44t-36 133v326q40 8 79 8q18 0 38 -2t31 -4l11 -2v-326q0 -44 12 -61.5t43 -17.5q20 0 36.5 7t22.5 14l7 7v377q39 8 79 8q18 0 38 -2t31 -4l11 -2v-492q-40 -8 -80 -8q-18 0 -37.5 2t-30.5 4zM215 696v-109q-28 -7 -62 -7
q-16 0 -31.5 2t-23.5 4l-8 1v109q28 8 63 8q15 0 30.5 -2t23.5 -4zM425 696v-109q-28 -7 -62 -7q-16 0 -31.5 2t-23.5 4l-8 1v109q28 8 63 8q15 0 30.5 -2t23.5 -4z" />
    <glyph glyph-name="yacute" unicode="&#xfd;" horiz-adv-x="520" 
d="M203 -47l13 45l-51 6l-154 492q39 8 76 8q16 0 36 -2t31 -4l12 -2l95 -360l95 360q41 8 78 8q17 0 36 -2t30 -4l11 -2l-168 -538q-27 -88 -73.5 -126.5t-131.5 -38.5q-18 0 -35.5 3.5t-25.5 6.5l-8 3q-8 18 -8 46q0 12 2 23.5t4 16.5l2 6q24 -7 66 -7q53 0 68 62z
M405 696l-145 -138q-24 -8 -45 -8q-11 0 -22.5 2t-17.5 4l-6 2l92 138q35 8 71 8q16 0 34 -2t28 -4z" />
    <glyph glyph-name="thorn" unicode="&#xfe;" 
d="M200 696v-226q51 37 125 37q82 0 118 -44t36 -133v-160q0 -89 -43.5 -133t-142.5 -44q-24 0 -47.5 5.5t-34.5 11.5l-11 5v-211q-40 -8 -80 -8q-17 0 -37 2t-31 4l-11 2v892q40 8 79 8q18 0 38 -2t31 -4zM320 170v160q0 44 -12 61.5t-43 17.5q-20 0 -36.5 -7t-22.5 -14
l-6 -7v-211q0 -44 13.5 -61.5t48.5 -17.5q33 0 45.5 17.5t12.5 61.5z" />
    <glyph glyph-name="ydieresis" unicode="&#xff;" horiz-adv-x="520" 
d="M203 -47l13 45l-51 6l-154 492q39 8 76 8q16 0 36 -2t31 -4l12 -2l95 -360l95 360q41 8 78 8q17 0 36 -2t30 -4l11 -2l-168 -538q-27 -88 -73.5 -126.5t-131.5 -38.5q-18 0 -35.5 3.5t-25.5 6.5l-8 3q-8 18 -8 46q0 12 2 23.5t4 16.5l2 6q24 -7 66 -7q53 0 68 62z
M217 696v-109q-28 -7 -62 -7q-16 0 -31.5 2t-23.5 4l-8 1v109q28 8 63 8q15 0 30.5 -2t23.5 -4zM427 696v-109q-28 -7 -62 -7q-16 0 -31.5 2t-23.5 4l-8 1v109q28 8 63 8q15 0 30.5 -2t23.5 -4z" />
    <glyph glyph-name="Amacron" unicode="&#x100;" horiz-adv-x="618" 
d="M9 4l187 692q53 8 113 8q26 0 54.5 -2t44.5 -4l15 -2l187 -692q-43 -8 -81 -8q-17 0 -38 2t-33 4l-13 2l-35 142h-201l-36 -142q-44 -8 -83 -8q-17 0 -37.5 2t-32.5 4zM310 567l-78 -314h154zM451 771h-284q-7 13 -7 36q0 9 2 18t4 13l1 5h284q7 -15 7 -36q0 -10 -2 -19
t-4 -13z" />
    <glyph glyph-name="amacron" unicode="&#x101;" horiz-adv-x="515" 
d="M315 4v26q-53 -37 -130 -37q-79 0 -114 37t-35 112v10q0 63 43.5 97.5t144.5 47.5l91 11v35q0 36 -13 51t-46 15q-34 0 -46.5 -14t-12.5 -48v-9q-37 -7 -76 -7q-16 0 -35 1.5t-30 3.5l-10 2v9q0 82 45.5 121t164.5 39q116 0 167 -41t51 -123v-339q-39 -8 -79 -8
q-19 0 -39 2t-30 4zM315 213l-60 -9q-59 -9 -59 -52v-10q0 -28 11.5 -39.5t41.5 -11.5q21 0 37.5 7t22.5 14l6 7v94zM400 585h-285q-6 13 -6 36q0 9 1.5 18t3.5 13l1 5h285q6 -15 6 -36q0 -10 -1.5 -19t-2.5 -13z" />
    <glyph glyph-name="Abreve" unicode="&#x102;" horiz-adv-x="618" 
d="M9 4l187 692q53 8 113 8q26 0 54.5 -2t44.5 -4l15 -2l187 -692q-43 -8 -81 -8q-17 0 -38 2t-33 4l-13 2l-35 142h-201l-36 -142q-44 -8 -83 -8q-17 0 -37.5 2t-32.5 4zM310 567l-78 -314h154zM309 746q-90 0 -124 30.5t-34 94.5v9q26 7 51 7q12 0 24.5 -1.5t19.5 -3.5
l7 -2v-11q0 -30 12 -42.5t44 -12.5q31 0 43 12.5t12 42.5v11q26 7 51 7q12 0 25 -1.5t20 -3.5l7 -2v-9q0 -64 -34 -94.5t-124 -30.5z" />
    <glyph glyph-name="abreve" unicode="&#x103;" horiz-adv-x="515" 
d="M315 4v26q-53 -37 -130 -37q-79 0 -114 37t-35 112v10q0 63 43.5 97.5t144.5 47.5l91 11v35q0 36 -13 51t-46 15q-34 0 -46.5 -14t-12.5 -48v-9q-37 -7 -76 -7q-16 0 -35 1.5t-30 3.5l-10 2v9q0 82 45.5 121t164.5 39q116 0 167 -41t51 -123v-339q-39 -8 -79 -8
q-19 0 -39 2t-30 4zM315 213l-60 -9q-59 -9 -59 -52v-10q0 -28 11.5 -39.5t41.5 -11.5q21 0 37.5 7t22.5 14l6 7v94zM257 562q-90 0 -124 30t-34 94v9q26 8 51 8q12 0 25 -2t20 -4l7 -2v-10q0 -31 11.5 -43t43.5 -12t43.5 12t11.5 43v10q26 8 51 8q12 0 25 -2t20 -4l7 -2v-9
q0 -64 -34 -94t-124 -30z" />
    <glyph glyph-name="Aogonek" unicode="&#x104;" horiz-adv-x="618" 
d="M468 -94q0 46 47 90l-70 8l-35 142h-201l-36 -142q-44 -8 -83 -8q-17 0 -37.5 2t-32.5 4l-11 2l187 692q53 8 113 8q26 0 54.5 -2t44.5 -4l15 -2l187 -692q-11 -2 -26 -4q-31 -45 -31 -83q0 -31 28 -31q9 0 17.5 2.5t12.5 5.5l4 2q5 -12 5 -27l-5 -26q-19 -17 -60 -17
q-87 0 -87 80zM310 567l-78 -314h154z" />
    <glyph glyph-name="aogonek" unicode="&#x105;" horiz-adv-x="515" 
d="M333 -94q0 46 47 90l-65 8v26q-53 -37 -130 -37q-79 0 -114 37t-35 112v10q0 63 43.5 97.5t144.5 47.5l91 11v35q0 36 -13 51t-46 15q-34 0 -46.5 -14t-12.5 -48v-9q-37 -7 -76 -7q-16 0 -35 1.5t-30 3.5l-10 2v9q0 82 45.5 121t164.5 39q116 0 167 -41t51 -123v-339
q-11 -3 -26 -4q-31 -48 -31 -83q0 -31 29 -31q9 0 17.5 2.5t12.5 5.5l4 2q5 -12 5 -27l-5 -26q-20 -17 -60 -17q-87 0 -87 80zM315 213l-60 -9q-59 -9 -59 -52v-10q0 -28 11.5 -39.5t41.5 -11.5q21 0 37.5 7t22.5 14l6 7v94z" />
    <glyph glyph-name="Cacute" unicode="&#x106;" horiz-adv-x="560" 
d="M36 192v316q0 99 60 149t197 50t188.5 -48.5t51.5 -150.5v-12q-38 -7 -75 -7q-17 0 -36 1.5t-30 3.5l-10 2v12q0 52 -19 72t-70 20t-70 -20.5t-19 -71.5v-316q0 -51 24 -71.5t86 -20.5q51 0 100 10.5t73 19.5t24 11l1 -3q1 -2 2.5 -6.5t2.5 -10.5t2 -15t1 -18
q0 -15 -2 -29t-4 -21l-3 -6q-81 -39 -198 -39q-148 0 -212.5 49.5t-64.5 149.5zM426 892l-146 -138q-23 -8 -45 -8q-11 0 -22 2t-17 4l-6 2l91 138q35 8 72 8q16 0 34 -2t29 -4z" />
    <glyph glyph-name="cacute" unicode="&#x107;" horiz-adv-x="488" 
d="M36 170v160q0 89 51 133t168 44q115 0 158.5 -43t43.5 -134v-12q-36 -7 -71 -7q-16 0 -34 1.5t-28 3.5l-9 2v12q0 44 -13 61.5t-47 17.5t-46.5 -17.5t-12.5 -61.5v-160q0 -44 19 -61.5t71 -17.5q38 0 75 7t55 13.5t18 7.5l1 -3q1 -2 2 -6.5t2.5 -10t2.5 -13.5t1 -16
q0 -13 -2.5 -25.5t-4.5 -18.5l-2 -6q-61 -27 -148 -27q-133 0 -191.5 44t-58.5 133zM391 696l-145 -138q-24 -8 -45 -8q-11 0 -22.5 2t-17.5 4l-6 2l92 138q35 8 71 8q16 0 34 -2t28 -4z" />
    <glyph glyph-name="Ccircumflex" unicode="&#x108;" horiz-adv-x="560" 
d="M36 192v316q0 99 60 149t197 50t188.5 -48.5t51.5 -150.5v-12q-38 -7 -75 -7q-17 0 -36 1.5t-30 3.5l-10 2v12q0 52 -19 72t-70 20t-70 -20.5t-19 -71.5v-316q0 -51 24 -71.5t86 -20.5q51 0 100 10.5t73 19.5t24 11l1 -3q1 -2 2.5 -6.5t2.5 -10.5t2 -15t1 -18
q0 -15 -2 -29t-4 -21l-3 -6q-81 -39 -198 -39q-148 0 -212.5 49.5t-64.5 149.5zM354 754l-74 74l-74 -74q-23 -8 -45 -8q-11 0 -22 2t-17 4l-6 2l96 137q33 7 67 7l69 -7l96 -137q-21 -8 -45 -8q-10 0 -21 2t-18 4z" />
    <glyph glyph-name="ccircumflex" unicode="&#x109;" horiz-adv-x="488" 
d="M36 170v160q0 89 51 133t168 44q115 0 158.5 -43t43.5 -134v-12q-36 -7 -71 -7q-16 0 -34 1.5t-28 3.5l-9 2v12q0 44 -13 61.5t-47 17.5t-46.5 -17.5t-12.5 -61.5v-160q0 -44 19 -61.5t71 -17.5q38 0 75 7t55 13.5t18 7.5l1 -3q1 -2 2 -6.5t2.5 -10t2.5 -13.5t1 -16
q0 -13 -2.5 -25.5t-4.5 -18.5l-2 -6q-61 -27 -148 -27q-133 0 -191.5 44t-58.5 133zM320 559l-74 74l-74 -74q-24 -7 -45 -7q-11 0 -22.5 2t-17.5 4l-6 1l97 137q33 8 67 8q15 0 32 -2t27 -4l9 -2l97 -137q-22 -7 -45 -7q-10 0 -21 2t-18 4z" />
    <glyph glyph-name="Cdotaccent" unicode="&#x10a;" horiz-adv-x="560" 
d="M36 192v316q0 99 60 149t197 50t188.5 -48.5t51.5 -150.5v-12q-38 -7 -75 -7q-17 0 -36 1.5t-30 3.5l-10 2v12q0 52 -19 72t-70 20t-70 -20.5t-19 -71.5v-316q0 -51 24 -71.5t86 -20.5q51 0 100 10.5t73 19.5t24 11l1 -3q1 -2 2.5 -6.5t2.5 -10.5t2 -15t1 -18
q0 -15 -2 -29t-4 -21l-3 -6q-81 -39 -198 -39q-148 0 -212.5 49.5t-64.5 149.5zM360 877v-122q-40 -8 -80 -8q-18 0 -38 2t-31 4l-11 2v122q40 7 80 7q18 0 38 -2t31 -4z" />
    <glyph glyph-name="cdotaccent" unicode="&#x10b;" horiz-adv-x="488" 
d="M36 170v160q0 89 51 133t168 44q115 0 158.5 -43t43.5 -134v-12q-36 -7 -71 -7q-16 0 -34 1.5t-28 3.5l-9 2v12q0 44 -13 61.5t-47 17.5t-46.5 -17.5t-12.5 -61.5v-160q0 -44 19 -61.5t71 -17.5q38 0 75 7t55 13.5t18 7.5l1 -3q1 -2 2 -6.5t2.5 -10t2.5 -13.5t1 -16
q0 -13 -2.5 -25.5t-4.5 -18.5l-2 -6q-61 -27 -148 -27q-133 0 -191.5 44t-58.5 133zM325 696v-122q-40 -7 -79 -7q-18 0 -38 1.5t-31 3.5l-11 2v122q40 8 80 8q18 0 37.5 -2t30.5 -4z" />
    <glyph glyph-name="Ccaron" unicode="&#x10c;" horiz-adv-x="560" 
d="M36 192v316q0 99 60 149t197 50t188.5 -48.5t51.5 -150.5v-12q-38 -7 -75 -7q-17 0 -36 1.5t-30 3.5l-10 2v12q0 52 -19 72t-70 20t-70 -20.5t-19 -71.5v-316q0 -51 24 -71.5t86 -20.5q51 0 100 10.5t73 19.5t24 11l1 -3q1 -2 2.5 -6.5t2.5 -10.5t2 -15t1 -18
q0 -15 -2 -29t-4 -21l-3 -6q-81 -39 -198 -39q-148 0 -212.5 49.5t-64.5 149.5zM206 891l74 -74l74 74q23 7 45 7q11 0 22 -2t17 -4l6 -1l-96 -137q-33 -8 -67 -8q-15 0 -32 2t-27 4l-10 2l-96 137q21 7 45 7q10 0 21 -2t18 -4z" />
    <glyph glyph-name="ccaron" unicode="&#x10d;" horiz-adv-x="488" 
d="M36 170v160q0 89 51 133t168 44q115 0 158.5 -43t43.5 -134v-12q-36 -7 -71 -7q-16 0 -34 1.5t-28 3.5l-9 2v12q0 44 -13 61.5t-47 17.5t-46.5 -17.5t-12.5 -61.5v-160q0 -44 19 -61.5t71 -17.5q38 0 75 7t55 13.5t18 7.5l1 -3q1 -2 2 -6.5t2.5 -10t2.5 -13.5t1 -16
q0 -13 -2.5 -25.5t-4.5 -18.5l-2 -6q-61 -27 -148 -27q-133 0 -191.5 44t-58.5 133zM172 696l74 -74l74 74q23 8 45 8q10 0 21.5 -2t17.5 -4l6 -2l-97 -137q-32 -7 -66 -7q-15 0 -32.5 2t-26.5 4l-10 1l-97 137q22 8 46 8q9 0 20.5 -2t18.5 -4z" />
    <glyph glyph-name="Dcaron" unicode="&#x10e;" horiz-adv-x="591" 
d="M41 691q101 14 253 14q139 0 199.5 -49t60.5 -148v-316q0 -99 -60.5 -148t-199.5 -49q-68 0 -131 3.5t-93 7.5l-29 3v682zM209 599v-498h85q52 0 72 20t20 71v316q0 51 -20 71t-72 20h-85zM220 891l74 -74l74 74q23 7 45 7q11 0 22 -2t17 -4l6 -1l-96 -137q-33 -8 -67 -8
q-15 0 -32 2t-27 4l-10 2l-96 137q21 7 45 7q10 0 21 -2t18 -4z" />
    <glyph glyph-name="dcaron" unicode="&#x10f;" horiz-adv-x="670" 
d="M316 4v26q-51 -37 -125 -37q-82 0 -118.5 44.5t-36.5 132.5v160q0 88 44 132.5t143 44.5q24 0 47.5 -5.5t34.5 -11.5l11 -5v211q39 8 79 8q18 0 38 -2t31 -4l11 -2v-692q-40 -8 -80 -8q-18 0 -38 2t-31 4zM196 330v-160q0 -44 11.5 -61.5t43.5 -17.5q20 0 36.5 7t22.5 14
l6 7v211q0 44 -13.5 61.5t-49.5 17.5q-33 0 -45 -17.5t-12 -61.5zM678 696q0 -50 -9 -94t-22 -71t-26 -47t-22 -28l-9 -9q-18 -8 -36 -8q-8 0 -17 2t-14 4l-5 2q4 9 10 27t16 82.5t10 139.5q31 8 62 8q14 0 29.5 -2t24.5 -4z" />
    <glyph glyph-name="Dcroat" unicode="&#x110;" horiz-adv-x="623" 
d="M73 691q101 14 253 14q139 0 199.5 -49t60.5 -148v-316q0 -99 -60.5 -148t-199.5 -49q-68 0 -131 3.5t-93 7.5l-29 3v302h-43q-6 19 -6 49q0 13 1.5 25t2.5 18l2 6h43v282zM329 311h-88v-210h85q52 0 72 20t20 71v316q0 51 -20 71t-72 20h-85v-190h88q7 -20 7 -49
q0 -13 -2 -25t-4 -18z" />
    <glyph glyph-name="dcroat" unicode="&#x111;" horiz-adv-x="548" 
d="M517 561h-42v-557q-40 -8 -80 -8q-18 0 -38 2t-31 4l-10 2v26q-51 -37 -125 -37q-82 0 -118.5 44.5t-36.5 132.5v160q0 88 44 132.5t143 44.5q15 0 30 -2.5t25.5 -5.5t19 -6t13.5 -5l5 -3v76h-125q-6 17 -6 45q0 12 1.5 23t3.5 16l1 5h125v46q39 8 79 8q18 0 38 -2t31 -4
l11 -2v-46h42q7 -17 7 -44q0 -12 -2 -23t-4 -17zM196 330v-160q0 -44 11.5 -61.5t43.5 -17.5q20 0 36.5 7t22.5 14l6 7v211q0 44 -13.5 61.5t-49.5 17.5q-33 0 -45 -17.5t-12 -61.5z" />
    <glyph glyph-name="Emacron" unicode="&#x112;" horiz-adv-x="511" 
d="M209 306v-199h273q7 -21 7 -54q0 -14 -1.5 -27.5t-3.5 -19.5l-2 -6h-221q-59 0 -114 2.5t-81 5.5l-25 2v680q88 10 220 10h216q7 -21 7 -54q0 -14 -2 -27.5t-4 -19.5l-1 -6h-268v-180h238q6 -21 6 -53q0 -14 -1.5 -27.5t-3.5 -20.5l-1 -6h-238zM408 771h-285q-6 13 -6 36
q0 9 1.5 18t3.5 13l1 5h285q6 -15 6 -36q0 -10 -1.5 -19t-2.5 -13z" />
    <glyph glyph-name="emacron" unicode="&#x113;" horiz-adv-x="504" 
d="M36 170v160q0 89 51.5 133t168.5 44q120 0 165.5 -43t45.5 -134v-119q-44 -14 -135 -14h-136v-27q0 -44 19.5 -61.5t71.5 -17.5q41 0 80 7t58.5 13.5t19.5 7.5l1 -3q1 -2 2.5 -6.5t2.5 -10t2 -13.5t1 -16q0 -13 -2 -25.5t-4 -18.5l-3 -6q-65 -27 -158 -27
q-134 0 -192.5 44t-58.5 133zM196 295h121v35q0 44 -13 61.5t-48 17.5q-34 0 -47 -17.5t-13 -61.5v-35zM394 585h-285q-6 13 -6 36q0 9 1.5 18t3.5 13l1 5h285q6 -15 6 -36q0 -10 -1.5 -19t-2.5 -13z" />
    <glyph glyph-name="Ebreve" unicode="&#x114;" horiz-adv-x="511" 
d="M209 306v-199h273q7 -21 7 -54q0 -14 -1.5 -27.5t-3.5 -19.5l-2 -6h-221q-59 0 -114 2.5t-81 5.5l-25 2v680q88 10 220 10h216q7 -21 7 -54q0 -14 -2 -27.5t-4 -19.5l-1 -6h-268v-180h238q6 -21 6 -53q0 -14 -1.5 -27.5t-3.5 -20.5l-1 -6h-238zM264 746q-90 0 -124 30.5
t-34 94.5v9q26 7 51 7q12 0 25 -1.5t20 -3.5l7 -2v-11q0 -31 11.5 -43t43.5 -12t43.5 12t11.5 43v11q26 7 51 7q12 0 25 -1.5t20 -3.5l7 -2v-9q0 -64 -34 -94.5t-124 -30.5z" />
    <glyph glyph-name="ebreve" unicode="&#x115;" horiz-adv-x="504" 
d="M36 170v160q0 89 51.5 133t168.5 44q120 0 165.5 -43t45.5 -134v-119q-44 -14 -135 -14h-136v-27q0 -44 19.5 -61.5t71.5 -17.5q41 0 80 7t58.5 13.5t19.5 7.5l1 -3q1 -2 2.5 -6.5t2.5 -10t2 -13.5t1 -16q0 -13 -2 -25.5t-4 -18.5l-3 -6q-65 -27 -158 -27
q-134 0 -192.5 44t-58.5 133zM196 295h121v35q0 44 -13 61.5t-48 17.5q-34 0 -47 -17.5t-13 -61.5v-35zM252 562q-90 0 -124 30t-34 94v9q26 8 51 8q12 0 25 -2t20 -4l7 -2v-10q0 -31 11.5 -43t43.5 -12t43.5 12t11.5 43v10q26 8 51 8q12 0 25 -2t20 -4l7 -2v-9
q0 -64 -34 -94t-124 -30z" />
    <glyph glyph-name="Edotaccent" unicode="&#x116;" horiz-adv-x="511" 
d="M209 306v-199h273q7 -21 7 -54q0 -14 -1.5 -27.5t-3.5 -19.5l-2 -6h-221q-59 0 -114 2.5t-81 5.5l-25 2v680q88 10 220 10h216q7 -21 7 -54q0 -14 -2 -27.5t-4 -19.5l-1 -6h-268v-180h238q6 -21 6 -53q0 -14 -1.5 -27.5t-3.5 -20.5l-1 -6h-238zM346 877v-122
q-39 -8 -79 -8q-18 0 -38 2t-31 4l-11 2v122q40 7 80 7q18 0 37.5 -2t30.5 -4z" />
    <glyph glyph-name="edotaccent" unicode="&#x117;" horiz-adv-x="504" 
d="M36 170v160q0 89 51.5 133t168.5 44q120 0 165.5 -43t45.5 -134v-119q-44 -14 -135 -14h-136v-27q0 -44 19.5 -61.5t71.5 -17.5q41 0 80 7t58.5 13.5t19.5 7.5l1 -3q1 -2 2.5 -6.5t2.5 -10t2 -13.5t1 -16q0 -13 -2 -25.5t-4 -18.5l-3 -6q-65 -27 -158 -27
q-134 0 -192.5 44t-58.5 133zM196 295h121v35q0 44 -13 61.5t-48 17.5q-34 0 -47 -17.5t-13 -61.5v-35zM332 696v-122q-40 -7 -80 -7q-18 0 -38 1.5t-31 3.5l-11 2v122q40 8 80 8q18 0 38 -2t31 -4z" />
    <glyph glyph-name="Eogonek" unicode="&#x118;" horiz-adv-x="511" 
d="M337 -94q0 49 51 94h-127q-59 0 -114 2.5t-81 5.5l-25 2v680q88 10 220 10h216q7 -21 7 -54q0 -14 -2 -27.5t-4 -19.5l-1 -6h-268v-180h238q6 -21 6 -53q0 -14 -1.5 -27.5t-3.5 -20.5l-1 -6h-238v-199h273q7 -21 7 -54q0 -14 -1.5 -27.5t-3.5 -19.5l-2 -6h-29
q-32 -46 -32 -83q0 -31 29 -31q9 0 17.5 2.5t12.5 5.5l4 2q5 -12 5 -27l-5 -26q-19 -17 -60 -17q-87 0 -87 80z" />
    <glyph glyph-name="eogonek" unicode="&#x119;" horiz-adv-x="504" 
d="M277 -94q0 43 45 88q-12 -1 -35 -1q-134 0 -192.5 44t-58.5 133v160q0 89 51.5 133t168.5 44q120 0 165.5 -43t45.5 -134v-119q-44 -14 -135 -14h-136v-27q0 -44 19.5 -61.5t71.5 -17.5q41 0 80 7t58.5 13.5t19.5 7.5l1 -3q1 -2 2.5 -6.5t2.5 -10t2 -13.5t1 -16
q0 -13 -2 -25.5t-4 -18.5l-3 -6q-20 -8 -49 -15l-2 -3q-2 -4 -5 -8.5t-6.5 -11t-7 -14.5t-6.5 -16.5t-5 -17.5t-2 -17q0 -31 28 -31q9 0 17.5 2.5t12.5 5.5l4 2q5 -12 5 -27l-5 -26q-19 -17 -60 -17q-87 0 -87 80zM196 295h121v35q0 44 -13 61.5t-48 17.5q-34 0 -47 -17.5
t-13 -61.5v-35z" />
    <glyph glyph-name="Ecaron" unicode="&#x11a;" horiz-adv-x="511" 
d="M209 306v-199h273q7 -21 7 -54q0 -14 -1.5 -27.5t-3.5 -19.5l-2 -6h-221q-59 0 -114 2.5t-81 5.5l-25 2v680q88 10 220 10h216q7 -21 7 -54q0 -14 -2 -27.5t-4 -19.5l-1 -6h-268v-180h238q6 -21 6 -53q0 -14 -1.5 -27.5t-3.5 -20.5l-1 -6h-238zM192 891l74 -74l74 74
q23 7 45 7q11 0 22 -2t17 -4l6 -1l-96 -137q-33 -8 -67 -8q-15 0 -32 2t-27 4l-10 2l-96 137q21 7 45 7q10 0 21 -2t18 -4z" />
    <glyph glyph-name="ecaron" unicode="&#x11b;" horiz-adv-x="504" 
d="M36 170v160q0 89 51.5 133t168.5 44q120 0 165.5 -43t45.5 -134v-119q-44 -14 -135 -14h-136v-27q0 -44 19.5 -61.5t71.5 -17.5q41 0 80 7t58.5 13.5t19.5 7.5l1 -3q1 -2 2.5 -6.5t2.5 -10t2 -13.5t1 -16q0 -13 -2 -25.5t-4 -18.5l-3 -6q-65 -27 -158 -27
q-134 0 -192.5 44t-58.5 133zM196 295h121v35q0 44 -13 61.5t-48 17.5q-34 0 -47 -17.5t-13 -61.5v-35zM178 696l74 -74l74 74q23 8 45 8q11 0 22 -2t17 -4l6 -2l-96 -137q-33 -7 -67 -7l-69 7l-96 137q21 8 45 8q10 0 21 -2t18 -4z" />
    <glyph glyph-name="Gcircumflex" unicode="&#x11c;" horiz-adv-x="583" 
d="M542 382v-339q-11 -5 -31.5 -13t-84 -21.5t-128.5 -13.5q-139 0 -200.5 49t-61.5 148v316q0 100 61 149.5t201 49.5q139 0 191.5 -48.5t52.5 -150.5v-12q-38 -7 -75 -7q-17 0 -35.5 1.5t-29.5 3.5l-10 2v12q0 52 -20 72t-74 20t-74 -20t-20 -72v-316q0 -51 20.5 -71
t73.5 -20q25 0 46 4t30 8l9 4v169h-79q-6 21 -6 54q0 14 1.5 27.5t2.5 19.5l2 6h44q52 0 100.5 -2.5t71.5 -5.5zM365 754l-73 74l-74 -74q-24 -8 -45 -8q-11 0 -22.5 2t-17.5 4l-6 2l97 137q33 7 67 7q15 0 32 -2t27 -4l9 -1l97 -137q-22 -8 -45 -8q-10 0 -21.5 2t-17.5 4z
" />
    <glyph glyph-name="gcircumflex" unicode="&#x11d;" 
d="M316 -30v45q-1 -1 -12 -6t-34 -10.5t-47 -5.5q-99 0 -143 44.5t-44 132.5v160q0 88 36.5 132.5t118.5 44.5q33 0 64 -9.5t46 -18.5l15 -9v26q38 8 79 8q18 0 38 -2t31 -4l11 -2v-526q0 -89 -58.5 -133t-191.5 -44q-41 0 -81 5.5t-60 10.5l-19 5q-10 20 -10 49q0 8 1 16.5
t2.5 14t3 10t2.5 6.5l1 3q0 -1 19.5 -6t59.5 -10.5t81 -5.5q52 0 71.5 17.5t19.5 61.5zM196 330v-160q0 -44 12 -61.5t45 -17.5q36 0 49.5 17.5t13.5 61.5v211q-20 28 -65 28q-32 0 -43.5 -17.5t-11.5 -61.5zM331 559l-74 74l-73 -74q-24 -7 -46 -7q-10 0 -21.5 2t-17.5 4
l-6 1l97 137q32 8 67 8q15 0 32 -2t27 -4l9 -2l97 -137q-22 -7 -46 -7z" />
    <glyph glyph-name="Gbreve" unicode="&#x11e;" horiz-adv-x="583" 
d="M542 382v-339q-11 -5 -31.5 -13t-84 -21.5t-128.5 -13.5q-139 0 -200.5 49t-61.5 148v316q0 100 61 149.5t201 49.5q139 0 191.5 -48.5t52.5 -150.5v-12q-38 -7 -75 -7q-17 0 -35.5 1.5t-29.5 3.5l-10 2v12q0 52 -20 72t-74 20t-74 -20t-20 -72v-316q0 -51 20.5 -71
t73.5 -20q25 0 46 4t30 8l9 4v169h-79q-6 21 -6 54q0 14 1.5 27.5t2.5 19.5l2 6h44q52 0 100.5 -2.5t71.5 -5.5zM292 746q-90 0 -124 30.5t-34 94.5v9q25 7 51 7q12 0 24.5 -1.5t19.5 -3.5l7 -2v-11q0 -30 12 -42.5t44 -12.5q31 0 43 12.5t12 42.5v11q26 7 51 7
q12 0 24.5 -1.5t19.5 -3.5l7 -2v-9q0 -64 -33.5 -94.5t-123.5 -30.5z" />
    <glyph glyph-name="gbreve" unicode="&#x11f;" 
d="M316 -30v45q-1 -1 -12 -6t-34 -10.5t-47 -5.5q-99 0 -143 44.5t-44 132.5v160q0 88 36.5 132.5t118.5 44.5q33 0 64 -9.5t46 -18.5l15 -9v26q38 8 79 8q18 0 38 -2t31 -4l11 -2v-526q0 -89 -58.5 -133t-191.5 -44q-41 0 -81 5.5t-60 10.5l-19 5q-10 20 -10 49q0 8 1 16.5
t2.5 14t3 10t2.5 6.5l1 3q0 -1 19.5 -6t59.5 -10.5t81 -5.5q52 0 71.5 17.5t19.5 61.5zM196 330v-160q0 -44 12 -61.5t45 -17.5q36 0 49.5 17.5t13.5 61.5v211q-20 28 -65 28q-32 0 -43.5 -17.5t-11.5 -61.5zM257 562q-90 0 -123.5 30t-33.5 94v9q25 8 50 8q12 0 25 -2
t20 -4l7 -2v-10q0 -31 12 -43t43 -12q32 0 44 12t12 43v10q25 8 50 8q12 0 25 -2t20 -4l7 -2v-9q0 -64 -33.5 -94t-124.5 -30z" />
    <glyph glyph-name="Gdotaccent" unicode="&#x120;" horiz-adv-x="583" 
d="M542 382v-339q-11 -5 -31.5 -13t-84 -21.5t-128.5 -13.5q-139 0 -200.5 49t-61.5 148v316q0 100 61 149.5t201 49.5q139 0 191.5 -48.5t52.5 -150.5v-12q-38 -7 -75 -7q-17 0 -35.5 1.5t-29.5 3.5l-10 2v12q0 52 -20 72t-74 20t-74 -20t-20 -72v-316q0 -51 20.5 -71
t73.5 -20q25 0 46 4t30 8l9 4v169h-79q-6 21 -6 54q0 14 1.5 27.5t2.5 19.5l2 6h44q52 0 100.5 -2.5t71.5 -5.5zM371 877v-122q-40 -8 -79 -8q-18 0 -38 2t-31 4l-11 2v122q40 7 80 7q17 0 37 -2t31 -4z" />
    <glyph glyph-name="gdotaccent" unicode="&#x121;" 
d="M316 -30v45q-1 -1 -12 -6t-34 -10.5t-47 -5.5q-99 0 -143 44.5t-44 132.5v160q0 88 36.5 132.5t118.5 44.5q33 0 64 -9.5t46 -18.5l15 -9v26q38 8 79 8q18 0 38 -2t31 -4l11 -2v-526q0 -89 -58.5 -133t-191.5 -44q-41 0 -81 5.5t-60 10.5l-19 5q-10 20 -10 49q0 8 1 16.5
t2.5 14t3 10t2.5 6.5l1 3q0 -1 19.5 -6t59.5 -10.5t81 -5.5q52 0 71.5 17.5t19.5 61.5zM196 330v-160q0 -44 12 -61.5t45 -17.5q36 0 49.5 17.5t13.5 61.5v211q-20 28 -65 28q-32 0 -43.5 -17.5t-11.5 -61.5zM337 696v-122q-40 -7 -80 -7q-18 0 -37.5 1.5t-30.5 3.5l-11 2
v122q39 8 79 8q18 0 38 -2t31 -4z" />
    <glyph glyph-name="Gcommaaccent" unicode="&#x122;" horiz-adv-x="583" 
d="M542 382v-339q-11 -5 -31.5 -13t-84 -21.5t-128.5 -13.5q-139 0 -200.5 49t-61.5 148v316q0 100 61 149.5t201 49.5q139 0 191.5 -48.5t52.5 -150.5v-12q-38 -7 -75 -7q-17 0 -35.5 1.5t-29.5 3.5l-10 2v12q0 52 -20 72t-74 20t-74 -20t-20 -72v-316q0 -51 20.5 -71
t73.5 -20q25 0 46 4t30 8l9 4v169h-79q-6 21 -6 54q0 14 1.5 27.5t2.5 19.5l2 6h44q52 0 100.5 -2.5t71.5 -5.5zM342 -42q0 -47 -16 -86t-32 -54l-15 -15q-16 -6 -31 -6l-32 6q28 55 28 155q24 8 49 8q11 0 23 -2t19 -4z" />
    <glyph glyph-name="gcommaaccent" unicode="&#x123;" 
d="M209 588q0 48 15.5 87.5t31.5 54.5l16 16q16 6 31 6l32 -6q-27 -55 -27 -158q-24 -7 -50 -7q-11 0 -23 1.5t-19 3.5zM316 -30v45q-1 -1 -12 -6t-34 -10.5t-47 -5.5q-99 0 -143 44.5t-44 132.5v160q0 88 36.5 132.5t118.5 44.5q33 0 64 -9.5t46 -18.5l15 -9v26q38 8 79 8
q18 0 38 -2t31 -4l11 -2v-526q0 -89 -58.5 -133t-191.5 -44q-41 0 -81 5.5t-60 10.5l-19 5q-10 20 -10 49q0 8 1 16.5t2.5 14t3 10t2.5 6.5l1 3q0 -1 19.5 -6t59.5 -10.5t81 -5.5q52 0 71.5 17.5t19.5 61.5zM196 330v-160q0 -44 12 -61.5t45 -17.5q36 0 49.5 17.5t13.5 61.5
v211q-20 28 -65 28q-32 0 -43.5 -17.5t-11.5 -61.5z" />
    <glyph glyph-name="Hcircumflex" unicode="&#x124;" horiz-adv-x="622" 
d="M581 696v-692q-41 -8 -84 -8q-19 0 -40 2t-33 4l-11 2v298h-204v-298q-42 -8 -84 -8q-19 0 -40 2t-33 4l-11 2v692q41 8 84 8q19 0 40 -2t33 -4l11 -2v-287h204v287q42 8 84 8q19 0 40 -2t33 -4zM385 754l-74 74l-74 -74q-23 -8 -45 -8q-11 0 -22 2t-17 4l-6 2l96 137
q33 7 67 7l69 -7l96 -137q-21 -8 -45 -8q-10 0 -21 2t-17 4z" />
    <glyph glyph-name="hcircumflex" unicode="&#x125;" 
d="M200 696v-226q51 37 125 37q82 0 118.5 -44.5t36.5 -132.5v-326q-40 -8 -80 -8q-18 0 -37.5 2t-30.5 4l-11 2v326q0 44 -12 61.5t-44 17.5q-20 0 -36.5 -7t-22.5 -14l-6 -7v-377q-40 -8 -80 -8q-17 0 -37 2t-31 4l-11 2v692q40 8 79 8q18 0 38 -2t31 -4zM318 754l-74 74
l-74 -74q-24 -8 -45 -8q-11 0 -22 2t-17 4l-6 2l96 137q33 7 67 7l69 -7l96 -137q-22 -8 -45 -8q-10 0 -21 2t-18 4z" />
    <glyph glyph-name="Hbar" unicode="&#x126;" horiz-adv-x="683" 
d="M654 504h-42v-500q-42 -8 -84 -8q-19 0 -40 2t-32 4l-12 2v298h-205v-298q-41 -8 -84 -8q-19 0 -40 2t-33 4l-11 2v500h-42q-7 19 -7 49q0 13 2 25.5t4 17.5l1 6h42v94q42 8 84 8q19 0 40 -2t33 -4l11 -2v-94h205v94q41 8 84 8q19 0 40 -2t32 -4l12 -2v-94h42
q7 -19 7 -49q0 -13 -1.5 -25t-3.5 -18zM239 409h205v95h-205v-95z" />
    <glyph glyph-name="hbar" unicode="&#x127;" horiz-adv-x="548" 
d="M376 553h-144v-83q51 37 126 37q82 0 118 -44.5t36 -132.5v-326q-40 -8 -80 -8q-18 0 -37.5 2t-30.5 4l-11 2v326q0 44 -12 61.5t-43 17.5q-20 0 -36.5 -7t-23.5 -14l-6 -7v-377q-40 -8 -79 -8q-18 0 -38 2t-31 4l-11 2v549h-43q-6 17 -6 45q0 12 1.5 23t2.5 16l2 5h52
l17 54q33 8 67 8q15 0 31.5 -2t25.5 -4l9 -2v-54h144q6 -18 6 -44q0 -12 -1.5 -23t-2.5 -17z" />
    <glyph glyph-name="Itilde" unicode="&#x128;" horiz-adv-x="342" 
d="M28 107h59v486h-59q-6 21 -6 53q0 15 1.5 28.5t2.5 19.5l2 6h286q7 -21 7 -54q0 -14 -1.5 -27.5t-3.5 -19.5l-2 -6h-59v-486h59q7 -21 7 -54q0 -14 -1.5 -27.5t-3.5 -19.5l-2 -6h-286q-6 21 -6 53q0 15 1.5 28.5t2.5 19.5zM0 755v4q0 59 18.5 85.5t68.5 26.5
q32 0 55 -8.5t33.5 -19t22 -19t22.5 -8.5q21 0 29 9.5t8 33.5v5q22 7 43 7q9 0 20 -1.5t17 -3.5l6 -2v-4q0 -60 -18.5 -86.5t-69.5 -26.5q-40 0 -66 14t-40 28t-27 14q-21 0 -29 -9.5t-8 -33.5v-5q-22 -8 -43 -8q-9 0 -19.5 2t-16.5 4z" />
    <glyph glyph-name="itilde" unicode="&#x129;" horiz-adv-x="241" 
d="M-50 584v4q0 59 19 86t68 27q32 0 55 -8.5t33.5 -19t22.5 -19t23 -8.5q21 0 29 9.5t8 33.5v5q21 7 43 7q9 0 19.5 -1.5t16.5 -3.5l6 -2v-4q0 -60 -18 -86.5t-69 -26.5q-40 0 -66 13.5t-40.5 27.5t-27.5 14q-21 0 -29 -9t-8 -34v-5q-21 -7 -43 -7q-9 0 -19.5 1.5
t-16.5 3.5zM200 496v-492q-40 -8 -80 -8q-17 0 -37 2t-31 4l-11 2v492q40 8 79 8q18 0 38 -2t31 -4z" />
    <glyph glyph-name="Imacron" unicode="&#x12a;" horiz-adv-x="342" 
d="M28 107h59v486h-59q-6 21 -6 53q0 15 1.5 28.5t2.5 19.5l2 6h286q7 -21 7 -54q0 -14 -1.5 -27.5t-3.5 -19.5l-2 -6h-59v-486h59q7 -21 7 -54q0 -14 -1.5 -27.5t-3.5 -19.5l-2 -6h-286q-6 21 -6 53q0 15 1.5 28.5t2.5 19.5zM313 771h-285q-6 13 -6 36q0 9 1.5 18t2.5 13
l2 5h285q6 -15 6 -36q0 -10 -1.5 -19t-3.5 -13z" />
    <glyph glyph-name="imacron" unicode="&#x12b;" horiz-adv-x="241" 
d="M263 585h-284q-7 13 -7 36q0 9 2 18t4 13l1 5h284q7 -15 7 -36q0 -10 -2 -19t-4 -13zM200 496v-492q-40 -8 -80 -8q-17 0 -37 2t-31 4l-11 2v492q40 8 79 8q18 0 38 -2t31 -4z" />
    <glyph glyph-name="Ibreve" unicode="&#x12c;" horiz-adv-x="342" 
d="M28 107h59v486h-59q-6 21 -6 53q0 15 1.5 28.5t2.5 19.5l2 6h286q7 -21 7 -54q0 -14 -1.5 -27.5t-3.5 -19.5l-2 -6h-59v-486h59q7 -21 7 -54q0 -14 -1.5 -27.5t-3.5 -19.5l-2 -6h-286q-6 21 -6 53q0 15 1.5 28.5t2.5 19.5zM171 746q-90 0 -124 30.5t-34 94.5v9q26 7 51 7
q12 0 25 -1.5t20 -3.5l7 -2v-11q0 -31 11.5 -43t43.5 -12t43.5 12t11.5 43v11q26 7 51 7q12 0 25 -1.5t20 -3.5l7 -2v-9q0 -64 -34 -94.5t-124 -30.5z" />
    <glyph glyph-name="ibreve" unicode="&#x12d;" horiz-adv-x="241" 
d="M120 562q-90 0 -123.5 30t-33.5 94v9q25 8 50 8q12 0 25 -2t20 -4l7 -2v-10q0 -31 12 -43t43 -12q32 0 44 12t12 43v10q25 8 51 8q12 0 24.5 -2t19.5 -4l7 -2v-9q0 -64 -33.5 -94t-124.5 -30zM200 496v-492q-40 -8 -80 -8q-17 0 -37 2t-31 4l-11 2v492q40 8 79 8
q18 0 38 -2t31 -4z" />
    <glyph glyph-name="Iogonek" unicode="&#x12e;" horiz-adv-x="342" 
d="M169 -94q0 49 51 94h-192q-6 21 -6 53q0 15 1.5 28.5t2.5 19.5l2 6h59v486h-59q-6 21 -6 53q0 15 1.5 28.5t2.5 19.5l2 6h286q7 -21 7 -54q0 -14 -1.5 -27.5t-3.5 -19.5l-2 -6h-59v-486h59q7 -21 7 -54q0 -14 -1.5 -27.5t-3.5 -19.5l-2 -6h-29q-32 -46 -32 -83
q0 -31 29 -31q9 0 17.5 2.5t12.5 5.5l4 2q5 -12 5 -27l-5 -26q-19 -17 -60 -17q-87 0 -87 80z" />
    <glyph glyph-name="iogonek" unicode="&#x12f;" horiz-adv-x="241" 
d="M59 -94q0 46 47 90l-65 8v492q40 8 79 8q18 0 38 -2t31 -4l11 -2v-492q-12 -3 -27 -4q-30 -47 -30 -83q0 -31 29 -31q8 0 16.5 2.5t13.5 5.5l4 2q4 -12 4 -27l-4 -26q-20 -17 -61 -17q-86 0 -86 80zM200 696v-122q-40 -7 -80 -7q-17 0 -37 1.5t-31 3.5l-11 2v122
q40 8 79 8q18 0 38 -2t31 -4z" />
    <glyph glyph-name="Idotaccent" unicode="&#x130;" horiz-adv-x="342" 
d="M28 107h59v486h-59q-6 21 -6 53q0 15 1.5 28.5t2.5 19.5l2 6h286q7 -21 7 -54q0 -14 -1.5 -27.5t-3.5 -19.5l-2 -6h-59v-486h59q7 -21 7 -54q0 -14 -1.5 -27.5t-3.5 -19.5l-2 -6h-286q-6 21 -6 53q0 15 1.5 28.5t2.5 19.5zM251 877v-122q-40 -8 -80 -8q-18 0 -38 2t-31 4
l-11 2v122q40 7 80 7q18 0 38 -2t31 -4z" />
    <glyph glyph-name="dotlessi" unicode="&#x131;" horiz-adv-x="241" 
d="M200 496v-492q-40 -8 -80 -8q-17 0 -37 2t-31 4l-11 2v492q40 8 79 8q18 0 38 -2t31 -4z" />
    <glyph glyph-name="IJ" unicode="&#x132;" horiz-adv-x="762" 
d="M28 107h59v486h-59q-6 21 -6 53q0 15 1.5 28.5t2.5 19.5l2 6h286q7 -21 7 -54q0 -14 -1.5 -27.5t-3.5 -19.5l-2 -6h-59v-486h59q7 -21 7 -54q0 -14 -1.5 -27.5t-3.5 -19.5l-2 -6h-286q-6 21 -6 53q0 15 1.5 28.5t2.5 19.5zM721 700v-507q0 -97 -56 -146.5t-184 -49.5
q-27 0 -52.5 3.5t-36.5 7.5l-12 4q-10 22 -10 55q0 14 2.5 27t5.5 18l2 6q40 -16 99 -16q42 0 58 21t16 70v400h-83q-6 21 -6 53q0 15 1.5 28.5t2.5 19.5l2 6h251z" />
    <glyph glyph-name="ij" unicode="&#x133;" horiz-adv-x="482" 
d="M282 -42v538q40 8 80 8q18 0 38 -2t31 -4l11 -2v-538q0 -83 -35 -124t-115 -41q-17 0 -34 1.5t-29.5 4t-22 5t-15.5 4.5l-6 1q-6 21 -6 45l6 44q14 -7 47 -7q29 0 39.5 15t10.5 52zM442 696v-122q-40 -7 -80 -7q-18 0 -38 1.5t-31 3.5l-11 2v122q40 8 80 8q18 0 38 -2
t31 -4zM200 496v-492q-40 -8 -80 -8q-17 0 -37 2t-31 4l-11 2v492q40 8 79 8q18 0 38 -2t31 -4zM200 696v-122q-40 -7 -80 -7q-17 0 -37 1.5t-31 3.5l-11 2v122q40 8 79 8q18 0 38 -2t31 -4z" />
    <glyph glyph-name="Jcircumflex" unicode="&#x134;" horiz-adv-x="470" 
d="M429 696v-504q0 -100 -56.5 -149.5t-186.5 -49.5q-39 0 -76.5 9.5t-55.5 19.5l-17 10q-9 22 -9 56q0 9 1 18t2 15t2.5 10.5t2.5 6.5l1 3q0 -2 17.5 -11t54.5 -19.5t75 -10.5q44 0 60.5 20t16.5 72v504q42 8 84 8q19 0 40 -2t33 -4zM419 754l-74 74l-74 -74q-23 -8 -45 -8
q-11 0 -22 2t-17 4l-6 2l96 137q33 7 67 7q15 0 32.5 -2t27.5 -4l9 -1l96 -137q-21 -8 -45 -8q-9 0 -20.5 2t-17.5 4z" />
    <glyph glyph-name="jcircumflex" unicode="&#x135;" horiz-adv-x="252" 
d="M51 -42v538q40 8 80 8q18 0 38 -2t31 -4l11 -2v-538q0 -83 -35 -124t-115 -41q-17 0 -34 1.5t-29.5 4t-22 5t-15.5 4.5l-6 1q-6 21 -6 45l6 44q14 -7 47 -7q29 0 39.5 15t10.5 52zM201 559l-74 74l-74 -74q-24 -7 -45 -7q-11 0 -22 2t-17 4l-6 1l96 137q33 8 67 8
q15 0 32 -2t27 -4l10 -2l96 -137q-22 -7 -45 -7q-10 0 -21 2t-17 4z" />
    <glyph glyph-name="Kcommaaccent" unicode="&#x136;" horiz-adv-x="594" 
d="M407 4l-162 299l-36 -9v-290q-43 -8 -84 -8q-19 0 -40 2t-33 4l-11 2v692q41 8 84 8q18 0 39 -2t33 -4l12 -2v-288l36 9l150 279q45 8 88 8q19 0 40 -2t33 -4l11 -2l-175 -336l190 -356q-45 -8 -87 -8q-18 0 -40 2t-35 4zM353 -42q0 -30 -6.5 -56.5t-15.5 -44
t-18.5 -30.5t-16.5 -19l-6 -5q-16 -6 -32 -6l-31 6q28 55 28 155q24 8 49 8q11 0 23 -2t19 -4z" />
    <glyph glyph-name="kcommaaccent" unicode="&#x137;" horiz-adv-x="514" 
d="M336 4l-116 201l-20 -5v-196q-40 -8 -80 -8q-17 0 -37 2t-31 4l-11 2v692q40 8 79 8q18 0 38 -2t31 -4l11 -2v-391l20 6l104 185q43 8 84 8q18 0 37.5 -2t30.5 -4l11 -2l-132 -236l147 -256q-42 -8 -82 -8q-18 0 -39 2t-33 4zM315 -42q0 -30 -6.5 -56.5t-15.5 -44
t-18.5 -30.5t-16.5 -19l-6 -5q-16 -6 -32 -6l-31 6q28 55 28 155q24 8 49 8q11 0 23 -2t19 -4z" />
    <glyph glyph-name="Lacute" unicode="&#x139;" horiz-adv-x="480" 
d="M209 696v-589h243q7 -21 7 -54q0 -14 -1.5 -27.5t-3.5 -19.5l-2 -6h-191q-59 0 -114 2.5t-81 5.5l-25 2v686q41 8 84 8q19 0 40 -2t33 -4zM296 892l-146 -138q-23 -8 -45 -8q-11 0 -22 2t-17 4l-6 2l92 138q34 8 71 8q16 0 34 -2t29 -4z" />
    <glyph glyph-name="lacute" unicode="&#x13a;" horiz-adv-x="281" 
d="M238 91q11 0 25 4q5 -20 5 -43l-5 -43q-42 -16 -85 -16q-73 0 -105 37t-32 111v555q40 8 79 8q18 0 38 -2t31 -4l11 -2v-555q0 -28 8 -39t30 -11zM266 892l-145 -138q-24 -8 -46 -8q-10 0 -21.5 2t-17.5 4l-6 2l92 138q34 8 71 8q16 0 34 -2t29 -4z" />
    <glyph glyph-name="Lcommaaccent" unicode="&#x13b;" horiz-adv-x="480" 
d="M209 696v-589h243q7 -21 7 -54q0 -14 -1.5 -27.5t-3.5 -19.5l-2 -6h-191q-59 0 -114 2.5t-81 5.5l-25 2v686q41 8 84 8q19 0 40 -2t33 -4zM303 -42q0 -30 -6.5 -56.5t-15.5 -44t-18.5 -30.5t-16.5 -19l-6 -5q-16 -6 -32 -6l-31 6q28 55 28 155q24 8 49 8q11 0 23 -2
t19 -4z" />
    <glyph glyph-name="lcommaaccent" unicode="&#x13c;" horiz-adv-x="281" 
d="M238 91q11 0 25 4q5 -20 5 -43l-5 -43q-42 -16 -85 -16q-73 0 -105 37t-32 111v555q40 8 79 8q18 0 38 -2t31 -4l11 -2v-555q0 -28 8 -39t30 -11zM204 -42q0 -47 -16 -86t-32 -54l-15 -15q-16 -6 -31 -6l-32 6q28 55 28 155q24 8 49 8q11 0 23 -2t19 -4z" />
    <glyph glyph-name="Lcaron" unicode="&#x13d;" horiz-adv-x="480" 
d="M209 696v-589h243q7 -21 7 -54q0 -14 -1.5 -27.5t-3.5 -19.5l-2 -6h-191q-59 0 -114 2.5t-81 5.5l-25 2v686q41 8 84 8q19 0 40 -2t33 -4zM113 891l74 -74l73 74q24 7 46 7q10 0 21.5 -2t17.5 -4l6 -1l-97 -137q-32 -8 -67 -8q-15 0 -32 2t-27 4l-9 2l-97 137q22 7 45 7z
" />
    <glyph glyph-name="lcaron" unicode="&#x13e;" horiz-adv-x="414" 
d="M238 91q11 0 25 4q5 -20 5 -43l-5 -43q-42 -16 -85 -16q-73 0 -105 37t-32 111v555q40 8 79 8q18 0 38 -2t31 -4l11 -2v-555q0 -28 8 -39t30 -11zM422 696q0 -50 -9 -94t-22 -71t-26 -47t-22 -28l-9 -9q-18 -8 -36 -8q-8 0 -17 2t-14 4l-5 2q4 9 10 27t16 82.5t10 139.5
q31 8 62 8q14 0 29.5 -2t24.5 -4z" />
    <glyph glyph-name="Ldot" unicode="&#x13f;" horiz-adv-x="480" 
d="M209 696v-589h243q7 -21 7 -54q0 -14 -1.5 -27.5t-3.5 -19.5l-2 -6h-191q-59 0 -114 2.5t-81 5.5l-25 2v686q41 8 84 8q19 0 40 -2t33 -4zM440 388v-133q-38 -7 -75 -7q-17 0 -36 2t-29 4l-11 1v133q37 8 76 8q16 0 35 -2t30 -4z" />
    <glyph glyph-name="ldot" unicode="&#x140;" horiz-adv-x="455" 
d="M238 91q11 0 25 4q5 -20 5 -43l-5 -43q-42 -16 -85 -16q-73 0 -105 37t-32 111v555q40 8 79 8q18 0 38 -2t31 -4l11 -2v-555q0 -28 8 -39t30 -11zM423 388v-133q-38 -7 -75 -7q-17 0 -36 2t-30 4l-10 1v133q37 8 76 8q16 0 35 -2t29 -4z" />
    <glyph glyph-name="Lslash" unicode="&#x141;" horiz-adv-x="520" 
d="M30 265l51 51v380q41 8 84 8q19 0 40 -2t33 -4l11 -2v-274l76 76q7 -27 7 -58q0 -12 -2 -26.5t-4 -23.5l-1 -8l-76 -77v-198h243q7 -21 7 -54q0 -14 -1.5 -27.5t-3.5 -19.5l-2 -6h-191q-59 0 -114 2.5t-81 5.5l-25 2v188l-51 -52q-8 31 -8 60q0 13 2 28t4 23z" />
    <glyph glyph-name="lslash" unicode="&#x142;" horiz-adv-x="333" 
d="M30 291l52 50v355q39 8 79 8q18 0 38 -2t31 -4l11 -2v-263l62 61q8 -27 8 -58q0 -12 -2 -26.5t-4 -23.5l-2 -8l-62 -62v-175q0 -28 8 -39t29 -11q11 0 25 4q6 -20 6 -43l-6 -43q-40 -16 -85 -16q-72 0 -104 37t-32 111v82l-52 -51q-8 32 -8 60q0 13 2 28t4 23z" />
    <glyph glyph-name="Nacute" unicode="&#x143;" horiz-adv-x="618" 
d="M41 4v692q35 8 71 8q16 0 33.5 -2t27.5 -4l10 -2l235 -386v386q40 8 80 8q18 0 38 -2t31 -4l11 -2v-692q-36 -8 -71 -8q-16 0 -33.5 2t-27.5 4l-10 2l-236 386v-386q-40 -8 -80 -8q-17 0 -37 2t-31 4zM455 892l-146 -138q-24 -8 -45 -8q-11 0 -22 2t-17 4l-6 2l91 138
q35 8 72 8q15 0 33.5 -2t28.5 -4z" />
    <glyph glyph-name="nacute" unicode="&#x144;" horiz-adv-x="517" 
d="M200 496v-26q51 37 126 37q82 0 118 -44t36 -133v-326q-39 -8 -79 -8q-18 0 -38 2t-31 4l-11 2v326q0 44 -11.5 61.5t-43.5 17.5q-20 0 -36.5 -7t-23.5 -14l-6 -7v-377q-40 -8 -80 -8q-17 0 -37 2t-31 4l-11 2v492q40 8 79 8q18 0 38 -2t31 -4zM404 696l-146 -138
q-23 -8 -45 -8q-11 0 -22 2t-17 4l-6 2l91 138q35 8 72 8q16 0 34 -2t29 -4z" />
    <glyph glyph-name="Ncommaaccent" unicode="&#x145;" horiz-adv-x="618" 
d="M41 4v692q35 8 71 8q16 0 33.5 -2t27.5 -4l10 -2l235 -386v386q40 8 80 8q18 0 38 -2t31 -4l11 -2v-692q-36 -8 -71 -8q-16 0 -33.5 2t-27.5 4l-10 2l-236 386v-386q-40 -8 -80 -8q-17 0 -37 2t-31 4zM359 -42q0 -47 -15.5 -86t-31.5 -54l-15 -15q-17 -6 -32 -6l-32 6
q28 55 28 155q24 8 49 8q11 0 23 -2t19 -4z" />
    <glyph glyph-name="ncommaaccent" unicode="&#x146;" horiz-adv-x="517" 
d="M200 496v-26q51 37 126 37q82 0 118 -44t36 -133v-326q-39 -8 -79 -8q-18 0 -38 2t-31 4l-11 2v326q0 44 -11.5 61.5t-43.5 17.5q-20 0 -36.5 -7t-23.5 -14l-6 -7v-377q-40 -8 -80 -8q-17 0 -37 2t-31 4l-11 2v492q40 8 79 8q18 0 38 -2t31 -4zM311 -42q0 -30 -6.5 -56.5
t-15.5 -44t-18.5 -30.5t-16.5 -19l-6 -5q-16 -6 -32 -6l-31 6q28 55 28 155q24 8 49 8q11 0 23 -2t19 -4z" />
    <glyph glyph-name="Ncaron" unicode="&#x147;" horiz-adv-x="618" 
d="M41 4v692q35 8 71 8q16 0 33.5 -2t27.5 -4l10 -2l235 -386v386q40 8 80 8q18 0 38 -2t31 -4l11 -2v-692q-36 -8 -71 -8q-16 0 -33.5 2t-27.5 4l-10 2l-236 386v-386q-40 -8 -80 -8q-17 0 -37 2t-31 4zM235 891l74 -74l74 74q23 7 45 7q10 0 21.5 -2t17.5 -4l6 -1
l-96 -137q-33 -8 -67 -8q-15 0 -32.5 2t-27.5 4l-9 2l-97 137q22 7 46 7z" />
    <glyph glyph-name="ncaron" unicode="&#x148;" horiz-adv-x="517" 
d="M200 496v-26q51 37 126 37q82 0 118 -44t36 -133v-326q-39 -8 -79 -8q-18 0 -38 2t-31 4l-11 2v326q0 44 -11.5 61.5t-43.5 17.5q-20 0 -36.5 -7t-23.5 -14l-6 -7v-377q-40 -8 -80 -8q-17 0 -37 2t-31 4l-11 2v492q40 8 79 8q18 0 38 -2t31 -4zM184 696l74 -74l74 74
q23 8 45 8q11 0 22 -2t17 -4l6 -2l-96 -137q-33 -7 -67 -7l-69 7l-96 137q21 8 45 8q10 0 21 -2t18 -4z" />
    <glyph glyph-name="Eng" unicode="&#x14a;" horiz-adv-x="618" 
d="M418 -42v74l-218 358v-386q-40 -8 -80 -8q-17 0 -37 2t-31 4l-11 2v692q35 8 71 8q16 0 33.5 -2t27.5 -4l10 -2l235 -386v386q40 8 80 8q18 0 38 -2t31 -4l11 -2v-738q0 -83 -35 -124t-115 -41q-17 0 -34 1.5t-29.5 4t-22 5t-15.5 4.5l-6 1q-6 21 -6 45l6 44q14 -7 47 -7
q29 0 39.5 15t10.5 52z" />
    <glyph glyph-name="eng" unicode="&#x14b;" horiz-adv-x="517" 
d="M321 -42v372q0 44 -11.5 61.5t-43.5 17.5q-20 0 -36.5 -7t-23.5 -14l-6 -7v-377q-40 -8 -80 -8q-17 0 -37 2t-31 4l-11 2v492q40 8 79 8q18 0 38 -2t31 -4l11 -2v-26q51 37 126 37q82 0 118 -44t36 -133v-372q0 -83 -35 -124t-115 -41q-17 0 -33.5 1.5t-29 4t-22.5 5
t-15.5 4t-6.5 1.5q-5 21 -5 45l5 44q21 -7 47 -7q29 0 40 15t11 52z" />
    <glyph glyph-name="Omacron" unicode="&#x14c;" horiz-adv-x="594" 
d="M36 192v316q0 99 61.5 149t199.5 50t199 -50t61 -149v-316q0 -99 -61 -149t-199 -50t-199.5 50t-61.5 149zM204 508v-316q0 -51 20 -71.5t73 -20.5q52 0 72 20.5t20 71.5v316q0 51 -20 71.5t-72 20.5q-53 0 -73 -20.5t-20 -71.5zM439 771h-285q-6 13 -6 36q0 9 1.5 18
t2.5 13l2 5h285q6 -15 6 -36q0 -10 -1.5 -19t-3.5 -13z" />
    <glyph glyph-name="omacron" unicode="&#x14d;" horiz-adv-x="514" 
d="M36 170v160q0 88 52 132.5t169 44.5t168.5 -44t51.5 -133v-160q0 -89 -51.5 -133t-168.5 -44t-169 44.5t-52 132.5zM196 330v-160q0 -44 13 -61.5t48 -17.5t48 17.5t13 61.5v160q0 44 -13 61.5t-48 17.5t-48 -17.5t-13 -61.5zM399 585h-285q-6 13 -6 36q0 9 1.5 18
t2.5 13l2 5h285q6 -15 6 -36q0 -10 -1.5 -19t-3.5 -13z" />
    <glyph glyph-name="Obreve" unicode="&#x14e;" horiz-adv-x="594" 
d="M36 192v316q0 99 61.5 149t199.5 50t199 -50t61 -149v-316q0 -99 -61 -149t-199 -50t-199.5 50t-61.5 149zM204 508v-316q0 -51 20 -71.5t73 -20.5q52 0 72 20.5t20 71.5v316q0 51 -20 71.5t-72 20.5q-53 0 -73 -20.5t-20 -71.5zM297 746q-90 0 -124 30.5t-34 94.5v9
q26 7 51 7q12 0 25 -1.5t20 -3.5l7 -2v-11q0 -31 11.5 -43t43.5 -12t43.5 12t11.5 43v11q26 7 51 7q12 0 25 -1.5t20 -3.5l7 -2v-9q0 -64 -34 -94.5t-124 -30.5z" />
    <glyph glyph-name="obreve" unicode="&#x14f;" horiz-adv-x="514" 
d="M257 562q-90 0 -124 30t-34 94v9q26 8 51 8q12 0 25 -2t20 -4l7 -2v-10q0 -31 11.5 -43t43.5 -12t43.5 12t11.5 43v10q26 8 51 8q12 0 25 -2t20 -4l7 -2v-9q0 -64 -34 -94t-124 -30zM36 170v160q0 88 52 132.5t169 44.5t168.5 -44t51.5 -133v-160q0 -89 -51.5 -133
t-168.5 -44t-169 44.5t-52 132.5zM196 330v-160q0 -44 13 -61.5t48 -17.5t48 17.5t13 61.5v160q0 44 -13 61.5t-48 17.5t-48 -17.5t-13 -61.5z" />
    <glyph glyph-name="Ohungarumlaut" unicode="&#x150;" horiz-adv-x="594" 
d="M36 192v316q0 99 61.5 149t199.5 50t199 -50t61 -149v-316q0 -99 -61 -149t-199 -50t-199.5 50t-61.5 149zM204 508v-316q0 -51 20 -71.5t73 -20.5q52 0 72 20.5t20 71.5v316q0 51 -20 71.5t-72 20.5q-53 0 -73 -20.5t-20 -71.5zM533 892l-145 -138q-24 -8 -46 -8
q-10 0 -21.5 2t-17.5 4l-6 2l92 138q34 8 71 8q16 0 34 -2t28 -4zM354 892l-146 -138q-23 -8 -45 -8q-10 0 -21.5 2t-17.5 4l-6 2l92 138q34 8 71 8q16 0 34 -2t29 -4z" />
    <glyph glyph-name="ohungarumlaut" unicode="&#x151;" horiz-adv-x="514" 
d="M36 170v160q0 88 52 132.5t169 44.5t168.5 -44t51.5 -133v-160q0 -89 -51.5 -133t-168.5 -44t-169 44.5t-52 132.5zM196 330v-160q0 -44 13 -61.5t48 -17.5t48 17.5t13 61.5v160q0 44 -13 61.5t-48 17.5t-48 -17.5t-13 -61.5zM493 696l-145 -138q-24 -8 -46 -8
q-10 0 -21.5 2t-17.5 4l-6 2l92 138q34 8 71 8q16 0 34 -2t28 -4zM314 696l-146 -138q-23 -8 -45 -8q-10 0 -21.5 2t-17.5 4l-6 2l92 138q34 8 71 8q16 0 34 -2t29 -4z" />
    <glyph glyph-name="OE" unicode="&#x152;" horiz-adv-x="799" 
d="M768 0h-155q-91 0 -150 8q-71 -13 -166 -13q-139 0 -200 49t-61 148v316q0 99 61 148t200 49q83 0 166 -13q80 8 150 8h150q7 -21 7 -54q0 -14 -2 -27.5t-4 -19.5l-1 -6h-237v-180h207q6 -21 6 -53q0 -14 -1.5 -27.5t-3.5 -20.5l-1 -6h-207v-199h242q7 -21 7 -54
q0 -14 -1.5 -27.5t-3.5 -19.5zM359 101v498h-62q-53 0 -73 -20t-20 -71v-316q0 -51 20 -71t73 -20h62z" />
    <glyph glyph-name="oe" unicode="&#x153;" horiz-adv-x="786" 
d="M36 170v160q0 88 52 132.5t169 44.5q99 0 141 -51q40 51 140 51q120 0 165.5 -43t45.5 -134v-119q-44 -14 -136 -14h-136v-27q0 -44 19.5 -61.5t71.5 -17.5q41 0 80.5 7t58.5 13.5t19 7.5l1 -3q1 -2 2 -6.5t2.5 -10t2.5 -13.5t1 -16q0 -13 -2.5 -25.5t-4.5 -18.5l-2 -6
q-65 -27 -158 -27q-121 0 -168 55q-40 -55 -143 -55q-117 0 -169 44.5t-52 132.5zM196 330v-160q0 -44 13 -61.5t48 -17.5t48 17.5t13 61.5v160q0 44 -13 61.5t-48 17.5t-48 -17.5t-13 -61.5zM477 295h122v35q0 44 -13 61.5t-48 17.5t-48 -17.5t-13 -61.5v-35z" />
    <glyph glyph-name="Racute" unicode="&#x154;" horiz-adv-x="590" 
d="M403 4l-128 267l-66 3v-270q-43 -8 -84 -8q-19 0 -40 2t-33 4l-11 2v687q97 14 243 14q137 0 197.5 -49t60.5 -148v-40q0 -135 -111 -176l143 -288q-42 -8 -84 -8q-18 0 -40 2t-34 4zM209 599v-223h75q51 0 70.5 20.5t19.5 71.5v40q0 51 -19.5 71t-70.5 20h-75zM432 892
l-146 -138q-23 -8 -45 -8q-11 0 -22 2t-17 4l-6 2l92 138q34 8 71 8q16 0 34 -2t29 -4z" />
    <glyph glyph-name="racute" unicode="&#x155;" horiz-adv-x="372" 
d="M200 496v-45q6 6 17.5 15.5t49 25t78.5 15.5q6 -22 6 -51q0 -13 -1.5 -26t-3.5 -20l-1 -6q-27 0 -52 -9.5t-41 -23t-28.5 -27t-17.5 -22.5l-6 -10v-308q-40 -8 -80 -8q-17 0 -37 2t-31 4l-11 2v492q40 8 79 8q18 0 38 -2t31 -4zM331 696l-146 -138q-23 -8 -45 -8
q-10 0 -21.5 2t-17.5 4l-6 2l92 138q34 8 71 8q16 0 34 -2t28 -4z" />
    <glyph glyph-name="Rcommaaccent" unicode="&#x156;" horiz-adv-x="590" 
d="M403 4l-128 267l-66 3v-270q-43 -8 -84 -8q-19 0 -40 2t-33 4l-11 2v687q97 14 243 14q137 0 197.5 -49t60.5 -148v-40q0 -135 -111 -176l143 -288q-42 -8 -84 -8q-18 0 -40 2t-34 4zM209 599v-223h75q51 0 70.5 20.5t19.5 71.5v40q0 51 -19.5 71t-70.5 20h-75zM354 -42
q0 -47 -16 -86t-32 -54l-15 -15q-17 -6 -32 -6l-32 6q28 55 28 155q24 8 49 8q11 0 23.5 -2t19.5 -4z" />
    <glyph glyph-name="rcommaaccent" unicode="&#x157;" horiz-adv-x="372" 
d="M200 496v-45q6 6 17.5 15.5t49 25t78.5 15.5q6 -22 6 -51q0 -13 -1.5 -26t-3.5 -20l-1 -6q-27 0 -52 -9.5t-41 -23t-28.5 -27t-17.5 -22.5l-6 -10v-308q-40 -8 -80 -8q-17 0 -37 2t-31 4l-11 2v492q40 8 79 8q18 0 38 -2t31 -4zM204 -42q0 -47 -16 -86t-32 -54l-15 -15
q-16 -6 -32 -6l-32 6q28 55 28 155q24 8 50 8q11 0 23 -2t19 -4z" />
    <glyph glyph-name="Rcaron" unicode="&#x158;" horiz-adv-x="590" 
d="M403 4l-128 267l-66 3v-270q-43 -8 -84 -8q-19 0 -40 2t-33 4l-11 2v687q97 14 243 14q137 0 197.5 -49t60.5 -148v-40q0 -135 -111 -176l143 -288q-42 -8 -84 -8q-18 0 -40 2t-34 4zM209 599v-223h75q51 0 70.5 20.5t19.5 71.5v40q0 51 -19.5 71t-70.5 20h-75zM211 891
l74 -74l74 74q23 7 45 7q10 0 21.5 -2t17.5 -4l6 -1l-96 -137q-33 -8 -67 -8q-15 0 -32.5 2t-27.5 4l-9 2l-96 137q21 7 45 7z" />
    <glyph glyph-name="rcaron" unicode="&#x159;" horiz-adv-x="372" 
d="M200 496v-45q6 6 17.5 15.5t49 25t78.5 15.5q6 -22 6 -51q0 -13 -1.5 -26t-3.5 -20l-1 -6q-27 0 -52 -9.5t-41 -23t-28.5 -27t-17.5 -22.5l-6 -10v-308q-40 -8 -80 -8q-17 0 -37 2t-31 4l-11 2v492q40 8 79 8q18 0 38 -2t31 -4zM112 696l74 -74l74 74q23 8 45 8
q11 0 22 -2t17 -4l6 -2l-96 -137q-33 -7 -67 -7l-69 7l-96 137q21 8 45 8q10 0 21 -2t18 -4z" />
    <glyph glyph-name="Sacute" unicode="&#x15a;" horiz-adv-x="564" 
d="M199 508v-30q0 -25 34.5 -41.5t83.5 -29.5t98 -31t83.5 -57t34.5 -97v-30q0 -101 -59 -150t-195 -49q-142 0 -196 48.5t-54 150.5v12q42 7 82 7q18 0 38.5 -1.5t31.5 -3.5l11 -2v-12q0 -52 18.5 -72t67.5 -20q50 0 68.5 20t18.5 72v30q0 28 -34 46t-83 31t-98 30.5
t-83 55t-34 93.5v30q0 101 58 150t191 49q95 0 149.5 -24t74.5 -65.5t20 -109.5v-12q-41 -7 -81 -7q-19 0 -39 1.5t-31 3.5l-11 2v12q0 51 -17.5 71.5t-64.5 20.5q-46 0 -64.5 -21t-18.5 -71zM427 892l-145 -138q-24 -8 -45 -8q-11 0 -22.5 2t-17.5 4l-6 2l92 138q35 8 71 8
q16 0 34 -2t28 -4z" />
    <glyph glyph-name="sacute" unicode="&#x15b;" horiz-adv-x="511" 
d="M199 361v-20q0 -15 13 -22t41 -13q24 -4 36.5 -6.5t39 -9t42.5 -13t37.5 -18.5t33.5 -25t21 -32.5t9 -42.5v-20q0 -74 -51 -110t-168 -36q-123 0 -169 39t-46 121v8q39 7 77 7q17 0 36.5 -2t30.5 -4l10 -1v-8q0 -34 13 -48t47 -14q35 0 47.5 10.5t12.5 37.5v20
q0 27 -59 37q-29 5 -43 8t-44.5 11.5t-48 18t-37.5 24.5t-29.5 36t-9.5 47v20q0 74 50 110t165 36q119 0 164 -39t45 -121v-8q-39 -7 -77 -7q-17 0 -36.5 2t-29.5 4l-11 1v8q0 34 -11.5 48t-43.5 14t-44.5 -11t-12.5 -37zM401 696l-146 -138q-23 -8 -45 -8q-11 0 -22 2
t-17 4l-6 2l92 138q34 8 71 8q16 0 34 -2t28 -4z" />
    <glyph glyph-name="Scircumflex" unicode="&#x15c;" horiz-adv-x="564" 
d="M199 508v-30q0 -25 34.5 -41.5t83.5 -29.5t98 -31t83.5 -57t34.5 -97v-30q0 -101 -59 -150t-195 -49q-142 0 -196 48.5t-54 150.5v12q42 7 82 7q18 0 38.5 -1.5t31.5 -3.5l11 -2v-12q0 -52 18.5 -72t67.5 -20q50 0 68.5 20t18.5 72v30q0 28 -34 46t-83 31t-98 30.5
t-83 55t-34 93.5v30q0 101 58 150t191 49q95 0 149.5 -24t74.5 -65.5t20 -109.5v-12q-41 -7 -81 -7q-19 0 -39 1.5t-31 3.5l-11 2v12q0 51 -17.5 71.5t-64.5 20.5q-46 0 -64.5 -21t-18.5 -71zM355 754l-74 74l-73 -74q-24 -8 -46 -8q-10 0 -21.5 2t-17.5 4l-6 2l97 137
q33 7 67 7q15 0 32 -2t27 -4l9 -1l97 -137q-22 -8 -45 -8q-10 0 -21.5 2t-17.5 4z" />
    <glyph glyph-name="scircumflex" unicode="&#x15d;" horiz-adv-x="511" 
d="M199 361v-20q0 -15 13 -22t41 -13q24 -4 36.5 -6.5t39 -9t42.5 -13t37.5 -18.5t33.5 -25t21 -32.5t9 -42.5v-20q0 -74 -51 -110t-168 -36q-123 0 -169 39t-46 121v8q39 7 77 7q17 0 36.5 -2t30.5 -4l10 -1v-8q0 -34 13 -48t47 -14q35 0 47.5 10.5t12.5 37.5v20
q0 27 -59 37q-29 5 -43 8t-44.5 11.5t-48 18t-37.5 24.5t-29.5 36t-9.5 47v20q0 74 50 110t165 36q119 0 164 -39t45 -121v-8q-39 -7 -77 -7q-17 0 -36.5 2t-29.5 4l-11 1v8q0 34 -11.5 48t-43.5 14t-44.5 -11t-12.5 -37zM329 559l-74 74l-74 -74q-23 -7 -45 -7q-11 0 -22 2
t-17 4l-6 1l96 137q33 8 67 8q15 0 32.5 -2t27.5 -4l9 -2l96 -137q-21 -7 -45 -7z" />
    <glyph glyph-name="Scedilla" unicode="&#x15e;" horiz-adv-x="564" 
d="M199 508v-30q0 -25 34.5 -41.5t83.5 -29.5t98 -31t83.5 -57t34.5 -97v-30q0 -94 -51 -142.5t-166 -55.5v-16q0 -12 14.5 -20t32 -13t32 -19t14.5 -37v-10q0 -75 -113 -75q-63 0 -86.5 20t-23.5 61v5q21 4 40 4l41 -4v-5q0 -17 6 -23t23 -6q16 0 22 5t6 18v10
q0 11 -14.5 19t-31.5 12.5t-31.5 19.5t-14.5 38v17q-115 7 -159 55t-44 142v12q42 7 82 7q18 0 38.5 -1.5t31.5 -3.5l11 -2v-12q0 -52 18.5 -72t67.5 -20q50 0 68.5 20t18.5 72v30q0 28 -34 46t-83 31t-98 30.5t-83 55t-34 93.5v30q0 101 58 150t191 49q95 0 149.5 -24
t74.5 -65.5t20 -109.5v-12q-41 -7 -81 -7q-19 0 -39 1.5t-31 3.5l-11 2v12q0 51 -17.5 71.5t-64.5 20.5q-46 0 -64.5 -21t-18.5 -71z" />
    <glyph glyph-name="scedilla" unicode="&#x15f;" horiz-adv-x="511" 
d="M199 361v-20q0 -15 13 -22t41 -13q24 -4 36.5 -6.5t39 -9t42.5 -13t37.5 -18.5t33.5 -25t21 -32.5t9 -42.5v-20q0 -68 -43.5 -104t-141.5 -41v-16q0 -12 14.5 -20t32 -13t32 -19t14.5 -37v-10q0 -75 -114 -75q-63 0 -86.5 20t-23.5 61v5q22 4 41 4l40 -4v-5
q0 -17 6.5 -23t22.5 -6t22 5t6 18v10q0 14 -23 22t-45.5 22.5t-22.5 44.5v17q-93 7 -129 45.5t-36 112.5v8q39 7 77 7q17 0 36.5 -2t30.5 -4l10 -1v-8q0 -34 13 -48t47 -14q35 0 47.5 10.5t12.5 37.5v20q0 27 -59 37q-29 5 -43 8t-44.5 11.5t-48 18t-37.5 24.5t-29.5 36
t-9.5 47v20q0 74 50 110t165 36q119 0 164 -39t45 -121v-8q-39 -7 -77 -7q-17 0 -36.5 2t-29.5 4l-11 1v8q0 34 -11.5 48t-43.5 14t-44.5 -11t-12.5 -37z" />
    <glyph glyph-name="Scaron" unicode="&#x160;" horiz-adv-x="564" 
d="M199 508v-30q0 -25 34.5 -41.5t83.5 -29.5t98 -31t83.5 -57t34.5 -97v-30q0 -101 -59 -150t-195 -49q-142 0 -196 48.5t-54 150.5v12q42 7 82 7q18 0 38.5 -1.5t31.5 -3.5l11 -2v-12q0 -52 18.5 -72t67.5 -20q50 0 68.5 20t18.5 72v30q0 28 -34 46t-83 31t-98 30.5
t-83 55t-34 93.5v30q0 101 58 150t191 49q95 0 149.5 -24t74.5 -65.5t20 -109.5v-12q-41 -7 -81 -7q-19 0 -39 1.5t-31 3.5l-11 2v12q0 51 -17.5 71.5t-64.5 20.5q-46 0 -64.5 -21t-18.5 -71zM208 891l73 -74l74 74q24 7 46 7q10 0 21.5 -2t17.5 -4l6 -1l-97 -137
q-33 -8 -67 -8q-15 0 -32 2t-26 4l-10 2l-97 137q22 7 45 7z" />
    <glyph glyph-name="scaron" unicode="&#x161;" horiz-adv-x="511" 
d="M199 361v-20q0 -15 13 -22t41 -13q24 -4 36.5 -6.5t39 -9t42.5 -13t37.5 -18.5t33.5 -25t21 -32.5t9 -42.5v-20q0 -74 -51 -110t-168 -36q-123 0 -169 39t-46 121v8q39 7 77 7q17 0 36.5 -2t30.5 -4l10 -1v-8q0 -34 13 -48t47 -14q35 0 47.5 10.5t12.5 37.5v20
q0 27 -59 37q-29 5 -43 8t-44.5 11.5t-48 18t-37.5 24.5t-29.5 36t-9.5 47v20q0 74 50 110t165 36q119 0 164 -39t45 -121v-8q-39 -7 -77 -7q-17 0 -36.5 2t-29.5 4l-11 1v8q0 34 -11.5 48t-43.5 14t-44.5 -11t-12.5 -37zM181 696l74 -74l74 74q24 8 45 8q11 0 22 -2t17 -4
l6 -2l-96 -137q-33 -7 -67 -7l-69 7l-96 137q21 8 45 8q10 0 21 -2t17 -4z" />
    <glyph glyph-name="Tcommaaccent" unicode="&#x162;" horiz-adv-x="557" 
d="M530 593h-168v-589q-41 -8 -84 -8q-19 0 -39.5 2t-32.5 4l-11 2v589h-169q-6 21 -6 53q0 15 1.5 28.5t2.5 19.5l2 6h504q6 -21 6 -54q0 -14 -1.5 -27.5t-2.5 -19.5zM329 -42q0 -30 -6.5 -56.5t-15.5 -44t-18.5 -30.5t-16.5 -19l-6 -5q-16 -6 -32 -6l-32 6q28 55 28 155
q24 8 50 8q11 0 23 -2t19 -4z" />
    <glyph glyph-name="tcommaaccent" unicode="&#x163;" horiz-adv-x="376" 
d="M337 402h-105v-243q0 -37 12 -52.5t43 -15.5q26 0 50 12q6 -20 6 -44l-6 -44q-1 0 -6.5 -2.5t-16 -5.5t-23 -6t-29.5 -5.5t-34 -2.5q-82 0 -118.5 41.5t-36.5 124.5v243h-43q-6 18 -6 49q0 13 1.5 25t2.5 18l2 6h52l17 96q33 8 67 8q15 0 31.5 -2t25.5 -4l9 -2v-96h105
q6 -20 6 -49q0 -13 -1.5 -25.5t-3.5 -17.5zM253 -42q0 -30 -6.5 -56.5t-16 -44t-18.5 -30.5t-16 -19l-6 -5q-16 -6 -32 -6l-31 6q28 55 28 155q24 8 49 8q11 0 23 -2t19 -4z" />
    <glyph glyph-name="Tcaron" unicode="&#x164;" horiz-adv-x="557" 
d="M530 593h-168v-589q-41 -8 -84 -8q-19 0 -39.5 2t-32.5 4l-11 2v589h-169q-6 21 -6 53q0 15 1.5 28.5t2.5 19.5l2 6h504q6 -21 6 -54q0 -14 -1.5 -27.5t-2.5 -19.5zM205 891l73 -74l74 74q24 7 46 7q10 0 21.5 -2t17.5 -4l6 -1l-97 -137q-33 -8 -67 -8q-15 0 -32 2t-27 4
l-9 2l-97 137q22 7 45 7z" />
    <glyph glyph-name="tcaron" unicode="&#x165;" horiz-adv-x="525" 
d="M337 402h-105v-243q0 -37 12 -52.5t43 -15.5q26 0 50 12q6 -20 6 -44l-6 -44q-1 0 -6.5 -2.5t-16 -5.5t-23 -6t-29.5 -5.5t-34 -2.5q-82 0 -118.5 41.5t-36.5 124.5v243h-43q-6 18 -6 49q0 13 1.5 25t2.5 18l2 6h52l17 96q33 8 67 8q15 0 31.5 -2t25.5 -4l9 -2v-96h105
q6 -20 6 -49q0 -13 -1.5 -25.5t-3.5 -17.5zM534 696q0 -50 -9 -94t-22 -71t-26.5 -47t-22.5 -28l-9 -9q-18 -8 -36 -8q-8 0 -17 2t-14 4l-5 2q4 9 10 27t16 82.5t10 139.5q31 8 63 8q14 0 29.5 -2t24.5 -4z" />
    <glyph glyph-name="Tbar" unicode="&#x166;" horiz-adv-x="557" 
d="M485 308h-123v-304q-41 -8 -84 -8q-19 0 -39.5 2t-32.5 4l-11 2v304h-122q-7 19 -7 50q0 13 2 25t4 18l1 6h122v186h-169q-6 21 -6 53q0 15 1.5 28.5t2.5 19.5l2 6h504q6 -21 6 -54q0 -14 -1.5 -27.5t-2.5 -19.5l-2 -6h-168v-186h123q7 -20 7 -49q0 -13 -2 -25.5
t-4 -18.5z" />
    <glyph glyph-name="tbar" unicode="&#x167;" horiz-adv-x="376" 
d="M337 262h-105v-103q0 -37 12 -52.5t43 -15.5q26 0 50 12q6 -20 6 -44l-6 -44q-1 0 -6.5 -2.5t-16 -5.5t-23 -6t-29.5 -5.5t-34 -2.5q-82 0 -118.5 41.5t-36.5 124.5v103h-43q-6 17 -6 44q0 12 1.5 23t2.5 17l2 5h43v59h-43q-6 17 -6 45q0 12 1.5 23.5t2.5 16.5l2 5h52
l17 96q33 8 67 8q15 0 31.5 -2t25.5 -4l9 -2v-96h105q6 -18 6 -45q0 -12 -1.5 -23t-3.5 -16l-1 -6h-105v-59h105q6 -18 6 -45q0 -12 -1.5 -23t-3.5 -16z" />
    <glyph glyph-name="Utilde" unicode="&#x168;" horiz-adv-x="598" 
d="M557 696v-504q0 -99 -60.5 -149t-197.5 -50q-138 0 -198 49.5t-60 149.5v504q41 8 84 8q19 0 40 -2t33 -4l11 -2v-504q0 -51 19.5 -71.5t70.5 -20.5t70.5 20.5t19.5 71.5v504q41 8 84 8q19 0 40 -2t33 -4zM127 755v4q0 58 19 85t69 27q32 0 55 -8.5t33.5 -19t22 -19
t22.5 -8.5q21 0 29 9.5t8 33.5v5q22 7 43 7q9 0 19.5 -1.5t16.5 -3.5l6 -2v-4q0 -60 -18 -86.5t-69 -26.5q-40 0 -66 14t-40.5 28t-26.5 14q-21 0 -29 -9.5t-8 -33.5v-5q-22 -8 -43 -8q-9 0 -20 2t-17 4z" />
    <glyph glyph-name="utilde" unicode="&#x169;" 
d="M321 4v26q-51 -37 -126 -37q-82 0 -118 44t-36 133v326q40 8 79 8q18 0 38 -2t31 -4l11 -2v-326q0 -44 12 -61.5t43 -17.5q20 0 36.5 7t22.5 14l7 7v377q39 8 79 8q18 0 38 -2t31 -4l11 -2v-492q-40 -8 -80 -8q-18 0 -37.5 2t-30.5 4zM86 584v4q0 59 19 86t69 27
q31 0 54.5 -8.5t33.5 -19t22 -19t23 -8.5q21 0 29 9.5t8 33.5v5q21 7 43 7q9 0 19.5 -1.5t16.5 -3.5l6 -2v-4q0 -60 -18 -86.5t-69 -26.5q-40 0 -66 13.5t-40.5 27.5t-27.5 14q-21 0 -29 -9t-8 -34v-5q-21 -7 -43 -7z" />
    <glyph glyph-name="Umacron" unicode="&#x16a;" horiz-adv-x="598" 
d="M557 696v-504q0 -99 -60.5 -149t-197.5 -50q-138 0 -198 49.5t-60 149.5v504q41 8 84 8q19 0 40 -2t33 -4l11 -2v-504q0 -51 19.5 -71.5t70.5 -20.5t70.5 20.5t19.5 71.5v504q41 8 84 8q19 0 40 -2t33 -4zM441 771h-285q-6 13 -6 36q0 9 1.5 18t2.5 13l2 5h285
q6 -15 6 -36q0 -10 -1.5 -19t-3.5 -13z" />
    <glyph glyph-name="umacron" unicode="&#x16b;" 
d="M321 4v26q-51 -37 -126 -37q-82 0 -118 44t-36 133v326q40 8 79 8q18 0 38 -2t31 -4l11 -2v-326q0 -44 12 -61.5t43 -17.5q20 0 36.5 7t22.5 14l7 7v377q39 8 79 8q18 0 38 -2t31 -4l11 -2v-492q-40 -8 -80 -8q-18 0 -37.5 2t-30.5 4zM400 585h-284q-7 13 -7 36
q0 9 1.5 18t3.5 13l2 5h284q7 -15 7 -36q0 -10 -1.5 -19t-3.5 -13z" />
    <glyph glyph-name="Ubreve" unicode="&#x16c;" horiz-adv-x="598" 
d="M557 696v-504q0 -99 -60.5 -149t-197.5 -50q-138 0 -198 49.5t-60 149.5v504q41 8 84 8q19 0 40 -2t33 -4l11 -2v-504q0 -51 19.5 -71.5t70.5 -20.5t70.5 20.5t19.5 71.5v504q41 8 84 8q19 0 40 -2t33 -4zM299 746q-90 0 -124 30.5t-34 94.5v9q26 7 51 7q12 0 25 -1.5
t20 -3.5l7 -2v-11q0 -31 11.5 -43t43.5 -12t43.5 12t11.5 43v11q26 7 51 7q12 0 25 -1.5t20 -3.5l7 -2v-9q0 -64 -34 -94.5t-124 -30.5z" />
    <glyph glyph-name="ubreve" unicode="&#x16d;" 
d="M321 4v26q-51 -37 -126 -37q-82 0 -118 44t-36 133v326q40 8 79 8q18 0 38 -2t31 -4l11 -2v-326q0 -44 12 -61.5t43 -17.5q20 0 36.5 7t22.5 14l7 7v377q39 8 79 8q18 0 38 -2t31 -4l11 -2v-492q-40 -8 -80 -8q-18 0 -37.5 2t-30.5 4zM258 562q-91 0 -124.5 30t-33.5 94
v9q26 8 51 8q12 0 24.5 -2t19.5 -4l7 -2v-10q0 -31 12 -43t44 -12q31 0 43 12t12 43v10q26 8 51 8q12 0 24.5 -2t19.5 -4l7 -2v-9q0 -64 -33.5 -94t-123.5 -30z" />
    <glyph glyph-name="Uring" unicode="&#x16e;" horiz-adv-x="598" 
d="M557 696v-504q0 -99 -60.5 -149t-197.5 -50q-138 0 -198 49.5t-60 149.5v504q41 8 84 8q19 0 40 -2t33 -4l11 -2v-504q0 -51 19.5 -71.5t70.5 -20.5t70.5 20.5t19.5 71.5v504q41 8 84 8q19 0 40 -2t33 -4zM207 813v14q0 75 92 75t92 -75v-14q0 -75 -92 -75t-92 75z
M266 827v-14q0 -27 33 -27t33 27v14q0 26 -33 26t-33 -26z" />
    <glyph glyph-name="uring" unicode="&#x16f;" 
d="M321 4v26q-51 -37 -126 -37q-82 0 -118 44t-36 133v326q40 8 79 8q18 0 38 -2t31 -4l11 -2v-326q0 -44 12 -61.5t43 -17.5q20 0 36.5 7t22.5 14l7 7v377q39 8 79 8q18 0 38 -2t31 -4l11 -2v-492q-40 -8 -80 -8q-18 0 -37.5 2t-30.5 4zM165 614v15q0 74 93 74q92 0 92 -74
v-15q0 -74 -92 -74q-93 0 -93 74zM224 629v-15q0 -27 34 -27q33 0 33 27v15q0 25 -33 25q-34 0 -34 -25z" />
    <glyph glyph-name="Uhungarumlaut" unicode="&#x170;" horiz-adv-x="598" 
d="M557 696v-504q0 -99 -60.5 -149t-197.5 -50q-138 0 -198 49.5t-60 149.5v504q41 8 84 8q19 0 40 -2t33 -4l11 -2v-504q0 -51 19.5 -71.5t70.5 -20.5t70.5 20.5t19.5 71.5v504q41 8 84 8q19 0 40 -2t33 -4zM356 892l-146 -138q-23 -8 -45 -8q-10 0 -21.5 2t-17.5 4l-6 2
l92 138q34 8 71 8q16 0 34 -2t29 -4zM535 892l-145 -138q-24 -8 -46 -8q-10 0 -21.5 2t-17.5 4l-6 2l92 138q34 8 71 8q16 0 34 -2t28 -4z" />
    <glyph glyph-name="uhungarumlaut" unicode="&#x171;" 
d="M321 4v26q-51 -37 -126 -37q-82 0 -118 44t-36 133v326q40 8 79 8q18 0 38 -2t31 -4l11 -2v-326q0 -44 12 -61.5t43 -17.5q20 0 36.5 7t22.5 14l7 7v377q39 8 79 8q18 0 38 -2t31 -4l11 -2v-492q-40 -8 -80 -8q-18 0 -37.5 2t-30.5 4zM315 696l-146 -138q-23 -8 -45 -8
q-11 0 -22 2t-17 4l-6 2l91 138q35 8 72 8q16 0 34 -2t28 -4zM494 696l-146 -138q-23 -8 -45 -8q-11 0 -22 2t-17 4l-6 2l92 138q34 8 71 8q16 0 34 -2t29 -4z" />
    <glyph glyph-name="Uogonek" unicode="&#x172;" horiz-adv-x="598" 
d="M299 -94q0 44 45 89q-28 -2 -45 -2q-138 0 -198 49.5t-60 149.5v504q41 8 84 8q19 0 40 -2t33 -4l11 -2v-504q0 -51 19.5 -71.5t70.5 -20.5t70.5 20.5t19.5 71.5v504q41 8 84 8q19 0 40 -2t33 -4l11 -2v-504q0 -149 -139 -186q-35 -48 -35 -89q0 -31 28 -31q9 0 17.5 2.5
t13.5 5.5l4 2q4 -12 4 -27l-4 -26q-20 -17 -61 -17q-86 0 -86 80z" />
    <glyph glyph-name="uogonek" unicode="&#x173;" 
d="M338 -94q0 46 47 90l-64 8v26q-51 -37 -126 -37q-82 0 -118 44t-36 133v326q40 8 79 8q18 0 38 -2t31 -4l11 -2v-326q0 -44 12 -61.5t43 -17.5q20 0 36.5 7t22.5 14l7 7v377q39 8 79 8q18 0 38 -2t31 -4l11 -2v-492q-12 -3 -27 -4q-30 -47 -30 -83q0 -31 28 -31
q9 0 17.5 2.5t12.5 5.5l4 2q5 -12 5 -27l-5 -26q-19 -17 -60 -17q-87 0 -87 80z" />
    <glyph glyph-name="Wcircumflex" unicode="&#x174;" horiz-adv-x="960" 
d="M574 4l-94 527l-94 -527q-55 -8 -115 -8q-27 0 -55.5 2t-43.5 4l-15 2l-148 692q43 8 81 8q17 0 38 -2t34 -4l12 -2l102 -541l102 541q45 8 102 8q25 0 50.5 -2t39.5 -4l13 -2l101 -541l102 541q45 8 84 8q17 0 37 -2t32 -4l12 -2l-148 -692q-54 -8 -113 -8q-27 0 -56 2
t-44 4zM553 754l-74 74l-73 -74q-24 -8 -46 -8q-10 0 -21.5 2t-17.5 4l-6 2l97 137q32 7 67 7q15 0 32 -2t27 -4l9 -1l97 -137q-22 -8 -46 -8q-9 0 -20.5 2t-17.5 4z" />
    <glyph glyph-name="wcircumflex" unicode="&#x175;" horiz-adv-x="808" 
d="M471 4l-66 336l-68 -336q-51 -8 -106 -8q-25 0 -51 2t-40 4l-14 2l-117 492q40 8 77 8q16 0 36 -2t32 -4l11 -2l71 -363l75 363q41 8 94 8q23 0 46.5 -2t35.5 -4l12 -2l73 -363l71 363q43 8 80 8q16 0 35 -2t30 -4l11 -2l-116 -492q-50 -8 -105 -8q-24 0 -51 2t-41 4z
M478 559l-74 74l-74 -74q-24 -7 -45 -7q-11 0 -22 2t-17 4l-6 1l96 137q33 8 67 8q15 0 32 -2t27 -4l10 -2l96 -137q-22 -7 -45 -7q-10 0 -21 2t-18 4z" />
    <glyph glyph-name="Ycircumflex" unicode="&#x176;" horiz-adv-x="628" 
d="M607 696l-209 -444v-248q-41 -8 -84 -8q-19 0 -40 2t-32 4l-12 2v248l-210 444q51 8 91 8q18 0 40.5 -2t36.5 -4l13 -2l113 -281l113 281q49 8 90 8q19 0 41.5 -2t35.5 -4zM388 754l-74 74l-74 -74q-23 -8 -45 -8q-11 0 -22 2t-17 4l-6 2l96 137q33 7 67 7l69 -7l96 -137
q-21 -8 -45 -8q-10 0 -21 2t-18 4z" />
    <glyph glyph-name="ycircumflex" unicode="&#x177;" horiz-adv-x="520" 
d="M203 -47l13 45l-51 6l-154 492q39 8 76 8q16 0 36 -2t31 -4l12 -2l95 -360l95 360q41 8 78 8q17 0 36 -2t30 -4l11 -2l-168 -538q-27 -88 -73.5 -126.5t-131.5 -38.5q-18 0 -35.5 3.5t-25.5 6.5l-8 3q-8 18 -8 46q0 12 2 23.5t4 16.5l2 6q24 -7 66 -7q53 0 68 62z
M333 559l-73 74l-74 -74q-24 -7 -45 -7q-11 0 -22.5 2t-17.5 4l-6 1l97 137q33 8 67 8q15 0 32 -2t27 -4l9 -2l97 -137q-22 -7 -45 -7z" />
    <glyph glyph-name="Ydieresis" unicode="&#x178;" horiz-adv-x="628" 
d="M607 696l-209 -444v-248q-41 -8 -84 -8q-19 0 -40 2t-32 4l-12 2v248l-210 444q51 8 91 8q18 0 40.5 -2t36.5 -4l13 -2l113 -281l113 281q49 8 90 8q19 0 41.5 -2t35.5 -4zM271 863v-109q-27 -8 -62 -8q-16 0 -31.5 2t-23.5 4l-7 2v109q27 7 62 7q16 0 31.5 -2t23.5 -4z
M481 863v-109q-27 -8 -62 -8q-16 0 -31.5 2t-23.5 4l-7 2v109q27 7 62 7q16 0 31.5 -2t23.5 -4z" />
    <glyph glyph-name="Zacute" unicode="&#x179;" horiz-adv-x="546" 
d="M504 593l-281 -481h283q6 -24 6 -56q0 -14 -1.5 -28t-2.5 -21l-2 -7h-466q-7 21 -7 53q0 15 1.5 28.5t3.5 19.5l2 6l281 481h-280q-6 23 -6 56q0 14 1.5 28t3.5 21l1 7h463q6 -21 6 -54q0 -14 -1.5 -27.5t-2.5 -19.5zM418 892l-145 -138q-24 -8 -45 -8q-11 0 -22.5 2
t-17.5 4l-6 2l92 138q35 8 71 8q16 0 34 -2t29 -4z" />
    <glyph glyph-name="zacute" unicode="&#x17a;" horiz-adv-x="466" 
d="M426 402l-216 -298h216q6 -23 6 -52q0 -13 -1.5 -26t-2.5 -20l-2 -6h-386q-7 19 -7 49q0 13 1.5 25.5t3.5 17.5l2 6l215 298h-215q-7 22 -7 52q0 13 1.5 26t3.5 20l2 6h386q6 -20 6 -49q0 -13 -1.5 -25.5t-2.5 -17.5zM378 696l-145 -138q-24 -8 -45 -8q-11 0 -22.5 2
t-17.5 4l-6 2l92 138q35 8 71 8q16 0 34 -2t29 -4z" />
    <glyph glyph-name="Zdotaccent" unicode="&#x17b;" horiz-adv-x="546" 
d="M504 593l-281 -481h283q6 -24 6 -56q0 -14 -1.5 -28t-2.5 -21l-2 -7h-466q-7 21 -7 53q0 15 1.5 28.5t3.5 19.5l2 6l281 481h-280q-6 23 -6 56q0 14 1.5 28t3.5 21l1 7h463q6 -21 6 -54q0 -14 -1.5 -27.5t-2.5 -19.5zM352 877v-122q-40 -8 -79 -8q-18 0 -38 2t-31 4
l-11 2v122q40 7 80 7q18 0 37.5 -2t30.5 -4z" />
    <glyph glyph-name="zdotaccent" unicode="&#x17c;" horiz-adv-x="466" 
d="M426 402l-216 -298h216q6 -23 6 -52q0 -13 -1.5 -26t-2.5 -20l-2 -6h-386q-7 19 -7 49q0 13 1.5 25.5t3.5 17.5l2 6l215 298h-215q-7 22 -7 52q0 13 1.5 26t3.5 20l2 6h386q6 -20 6 -49q0 -13 -1.5 -25.5t-2.5 -17.5zM312 696v-122q-40 -7 -79 -7q-18 0 -38 1.5t-31 3.5
l-11 2v122q40 8 80 8q18 0 37.5 -2t30.5 -4z" />
    <glyph glyph-name="Zcaron" unicode="&#x17d;" horiz-adv-x="546" 
d="M504 593l-281 -481h283q6 -24 6 -56q0 -14 -1.5 -28t-2.5 -21l-2 -7h-466q-7 21 -7 53q0 15 1.5 28.5t3.5 19.5l2 6l281 481h-280q-6 23 -6 56q0 14 1.5 28t3.5 21l1 7h463q6 -21 6 -54q0 -14 -1.5 -27.5t-2.5 -19.5zM199 891l74 -74l74 74q23 7 45 7q10 0 21.5 -2
t17.5 -4l6 -1l-97 -137q-32 -8 -66 -8q-15 0 -32.5 2t-27.5 4l-9 2l-97 137q22 7 46 7z" />
    <glyph glyph-name="zcaron" unicode="&#x17e;" horiz-adv-x="466" 
d="M426 402l-216 -298h216q6 -23 6 -52q0 -13 -1.5 -26t-2.5 -20l-2 -6h-386q-7 19 -7 49q0 13 1.5 25.5t3.5 17.5l2 6l215 298h-215q-7 22 -7 52q0 13 1.5 26t3.5 20l2 6h386q6 -20 6 -49q0 -13 -1.5 -25.5t-2.5 -17.5zM159 696l74 -74l74 74q23 8 45 8q10 0 21.5 -2
t17.5 -4l6 -2l-97 -137q-32 -7 -66 -7q-15 0 -32.5 2t-27.5 4l-9 1l-97 137q22 8 46 8q9 0 20.5 -2t17.5 -4z" />
    <glyph glyph-name="longs" unicode="&#x17f;" horiz-adv-x="356" 
d="M233 541v-536q-39 -8 -79 -8q-18 0 -38 2t-31 4l-11 2v397h-42q-7 19 -7 49q0 13 1.5 25.5t3.5 17.5l2 6h42v41q0 83 35.5 124.5t117.5 41.5q78 0 120 -14q6 -22 6 -46l-6 -45q-14 7 -60 7q-30 0 -42 -15.5t-12 -52.5z" />
    <glyph glyph-name="uni018F" unicode="&#x18f;" horiz-adv-x="574" 
d="M186 395h184v113q0 52 -19 72t-71 20q-51 0 -70 -20t-19 -72v-12q-37 -7 -75 -7q-16 0 -35 1.5t-29 3.5l-11 2v12q0 102 51.5 150.5t188.5 48.5t197 -50t60 -149v-316q0 -100 -60 -149.5t-198 -49.5q-139 0 -191.5 48.5t-52.5 150.5v190q49 13 150 13zM195 297v-105
q0 -51 18.5 -71.5t66.5 -20.5q52 0 71 20t19 72v105h-175z" />
    <glyph glyph-name="florin" unicode="&#x192;" horiz-adv-x="376" 
d="M74 -42v444h-42q-7 19 -7 49q0 13 1.5 25.5t3.5 17.5l2 6h42v41q0 83 35.5 124.5t117.5 41.5q78 0 120 -14q6 -22 6 -46l-6 -45q-14 7 -60 7q-30 0 -42 -15.5t-12 -52.5v-41h114q6 -19 6 -49q0 -13 -1.5 -25t-3.5 -18l-1 -6h-114v-444q0 -83 -35 -124t-115 -41
q-17 0 -33.5 1.5t-29 4t-22.5 5t-15.5 4t-6.5 1.5q-5 21 -5 45l5 44q21 -7 47 -7q29 0 40 15t11 52z" />
    <glyph glyph-name="uni01DD" unicode="&#x1dd;" horiz-adv-x="504" 
d="M467 330v-160q0 -89 -51 -133t-168 -44q-120 0 -166 43t-46 134v120q44 14 136 14h136v26q0 44 -19.5 61.5t-71.5 17.5q-41 0 -80 -7t-58.5 -13.5t-19.5 -7.5l-1 3q-1 2 -2.5 6.5t-2.5 10t-2 13.5t-1 16q0 13 2 25.5t4 18.5l3 6q65 27 158 27q134 0 192 -44t58 -133z
M308 206h-121v-36q0 -44 13 -61.5t48 -17.5q34 0 47 17.5t13 61.5v36z" />
    <glyph glyph-name="AEacute" unicode="&#x1fc;" horiz-adv-x="765" 
d="M492 306v-199h242q7 -21 7 -54q0 -14 -1.5 -27.5t-3.5 -19.5l-2 -6h-190q-59 0 -114 2.5t-80 5.5l-26 2v136h-115l-36 -142q-44 -8 -83 -8q-17 0 -37.5 2t-32.5 4l-11 2l185 686q142 10 350 10h185q7 -21 7 -54q0 -14 -2 -27.5t-4 -19.5l-1 -6h-237v-180h207q6 -21 6 -53
q0 -14 -1.5 -27.5t-3.5 -20.5l-1 -6h-207zM318 593l-87 -340h93v340h-6zM606 892l-146 -138q-23 -8 -45 -8q-10 0 -21.5 2t-17.5 4l-6 2l92 138q34 8 71 8q16 0 34 -2t29 -4z" />
    <glyph glyph-name="aeacute" unicode="&#x1fd;" horiz-adv-x="776" 
d="M185 -7q-79 0 -114 37t-35 112v10q0 63 43.5 97.5t144.5 47.5l91 11v35q0 36 -13 51t-46 15q-34 0 -46.5 -14t-12.5 -48v-9q-37 -7 -76 -7q-16 0 -35 1.5t-30 3.5l-10 2v9q0 82 45.5 121t164.5 39q101 0 140 -50q41 50 138 50q117 0 161.5 -43t44.5 -134v-119
q-43 -14 -133 -14h-133v-27q0 -44 19.5 -61.5t70.5 -17.5q40 0 78 7t56.5 13.5t18.5 7.5l1 -3q1 -2 2.5 -6.5t2.5 -10t2 -13.5t1 -16q0 -13 -2 -25.5t-4 -18.5l-3 -6q-63 -27 -153 -27q-128 0 -173 62q-54 -62 -206 -62zM315 213l-60 -9q-59 -9 -59 -52v-10
q0 -28 11.5 -39.5t41.5 -11.5q37 0 51.5 17.5t14.5 61.5v43zM474 295h115v35q0 44 -12 61.5t-45 17.5t-45.5 -17.5t-12.5 -61.5v-35zM542 696l-145 -138q-24 -8 -46 -8q-10 0 -21.5 2t-17.5 4l-6 2l92 138q34 8 71 8q16 0 34 -2t29 -4z" />
    <glyph glyph-name="Oslashacute" unicode="&#x1fe;" horiz-adv-x="594" 
d="M573 696l-45 -73q29 -45 29 -115v-316q0 -99 -61 -149t-199 -50q-88 0 -145 20l-6 -9q-31 -8 -63 -8q-14 0 -29.5 2t-23.5 4l-9 2l45 72q-30 44 -30 116v316q0 99 61.5 149t199.5 50q88 0 145 -21l6 10q31 8 62 8q14 0 30 -2t24 -4zM297 95q57 0 79 21.5t22 75.5v220
l-182 -294q22 -23 81 -23zM196 508v-221l181 295q-22 23 -80 23q-57 0 -79 -22t-22 -75zM444 892l-146 -138q-23 -8 -45 -8q-11 0 -22 2t-17 4l-6 2l91 138q35 8 72 8q16 0 34 -2t29 -4z" />
    <glyph glyph-name="oslashacute" unicode="&#x1ff;" horiz-adv-x="514" 
d="M488 496l-41 -56q30 -40 30 -110v-160q0 -89 -51.5 -133t-168.5 -44q-77 0 -128 20l-6 -9q-26 -8 -50 -8q-11 0 -23.5 2t-19.5 4l-6 2l42 56q-30 41 -30 110v160q0 88 52 132.5t169 44.5q77 0 126 -20l7 9q24 8 49 8q11 0 23.5 -2t19.5 -4zM404 696l-146 -138
q-23 -8 -45 -8q-11 0 -22 2t-17 4l-6 2l91 138q35 8 72 8q16 0 34 -2t29 -4zM257 82q45 0 62 19.5t17 68.5v121l-141 -190q16 -19 62 -19zM178 330v-119l140 188q-18 19 -61 19q-45 0 -62 -19.5t-17 -68.5z" />
    <glyph glyph-name="Scommaaccent" unicode="&#x218;" horiz-adv-x="564" 
d="M199 508v-30q0 -25 34.5 -41.5t83.5 -29.5t98 -31t83.5 -57t34.5 -97v-30q0 -101 -59 -150t-195 -49q-142 0 -196 48.5t-54 150.5v12q42 7 82 7q18 0 38.5 -1.5t31.5 -3.5l11 -2v-12q0 -52 18.5 -72t67.5 -20q50 0 68.5 20t18.5 72v30q0 28 -34 46t-83 31t-98 30.5
t-83 55t-34 93.5v30q0 101 58 150t191 49q95 0 149.5 -24t74.5 -65.5t20 -109.5v-12q-41 -7 -81 -7q-19 0 -39 1.5t-31 3.5l-11 2v12q0 51 -17.5 71.5t-64.5 20.5q-46 0 -64.5 -21t-18.5 -71zM326 -42q0 -47 -15.5 -86t-30.5 -54l-16 -15q-17 -6 -32 -6l-32 6q28 55 28 155
q24 8 49 8q11 0 23.5 -2t19.5 -4z" />
    <glyph glyph-name="scommaaccent" unicode="&#x219;" horiz-adv-x="511" 
d="M199 361v-20q0 -15 13 -22t41 -13q24 -4 36.5 -6.5t39 -9t42.5 -13t37.5 -18.5t33.5 -25t21 -32.5t9 -42.5v-20q0 -74 -51 -110t-168 -36q-123 0 -169 39t-46 121v8q39 7 77 7q17 0 36.5 -2t30.5 -4l10 -1v-8q0 -34 13 -48t47 -14q35 0 47.5 10.5t12.5 37.5v20
q0 27 -59 37q-29 5 -43 8t-44.5 11.5t-48 18t-37.5 24.5t-29.5 36t-9.5 47v20q0 74 50 110t165 36q119 0 164 -39t45 -121v-8q-39 -7 -77 -7q-17 0 -36.5 2t-29.5 4l-11 1v8q0 34 -11.5 48t-43.5 14t-44.5 -11t-12.5 -37zM307 -42q0 -30 -6.5 -56.5t-15.5 -44t-18.5 -30.5
t-16.5 -19l-6 -5q-16 -6 -32 -6l-32 6q29 55 29 155q24 8 49 8q11 0 23 -2t19 -4z" />
    <glyph glyph-name="uni021A" unicode="&#x21a;" horiz-adv-x="557" 
d="M530 593h-168v-589q-41 -8 -84 -8q-19 0 -39.5 2t-32.5 4l-11 2v589h-169q-6 21 -6 53q0 15 1.5 28.5t2.5 19.5l2 6h504q6 -21 6 -54q0 -14 -1.5 -27.5t-2.5 -19.5zM329 -42q0 -30 -6.5 -56.5t-15.5 -44t-18.5 -30.5t-16.5 -19l-6 -5q-16 -6 -32 -6l-32 6q28 55 28 155
q24 8 50 8q11 0 23 -2t19 -4z" />
    <glyph glyph-name="uni021B" unicode="&#x21b;" horiz-adv-x="376" 
d="M337 402h-105v-243q0 -37 12 -52.5t43 -15.5q26 0 50 12q6 -20 6 -44l-6 -44q-1 0 -6.5 -2.5t-16 -5.5t-23 -6t-29.5 -5.5t-34 -2.5q-82 0 -118.5 41.5t-36.5 124.5v243h-43q-6 18 -6 49q0 13 1.5 25t2.5 18l2 6h52l17 96q33 8 67 8q15 0 31.5 -2t25.5 -4l9 -2v-96h105
q6 -20 6 -49q0 -13 -1.5 -25.5t-3.5 -17.5zM253 -42q0 -30 -6.5 -56.5t-16 -44t-18.5 -30.5t-16 -19l-6 -5q-16 -6 -32 -6l-31 6q28 55 28 155q24 8 49 8q11 0 23 -2t19 -4z" />
    <glyph glyph-name="dotlessj" unicode="&#x237;" horiz-adv-x="252" 
d="M51 -42v538q40 8 80 8q18 0 38 -2t31 -4l11 -2v-538q0 -83 -35 -124t-115 -41q-17 0 -34 1.5t-29.5 4t-22 5t-15.5 4.5l-6 1q-6 21 -6 45l6 44q14 -7 47 -7q29 0 39.5 15t10.5 52z" />
    <glyph glyph-name="circumflex" unicode="&#x2c6;" horiz-adv-x="241" 
d="M194 559l-74 74l-73 -74q-24 -7 -46 -7q-10 0 -21.5 2t-17.5 4l-6 1l97 137q32 8 67 8q15 0 32 -2t26 -4l10 -2l97 -137q-22 -7 -46 -7z" />
    <glyph glyph-name="caron" unicode="&#x2c7;" horiz-adv-x="241" 
d="M47 696l73 -74l74 74q24 8 45 8q11 0 22.5 -2t17.5 -4l6 -2l-97 -137q-33 -7 -67 -7q-15 0 -32 2t-27 4l-9 1l-97 137q22 8 45 8q10 0 21.5 -2t17.5 -4z" />
    <glyph glyph-name="breve" unicode="&#x2d8;" horiz-adv-x="413" 
d="M205 562q-90 0 -124 30t-34 94v9q26 8 51 8q12 0 25 -2t20 -4l7 -2v-10q0 -31 11.5 -43t43.5 -12t43.5 12t11.5 43v10q26 8 51 8q12 0 25 -2t20 -4l7 -2v-9q0 -64 -34 -94t-124 -30z" />
    <glyph glyph-name="dotaccent" unicode="&#x2d9;" horiz-adv-x="241" 
d="M200 696v-122q-40 -7 -80 -7q-17 0 -37 1.5t-31 3.5l-11 2v122q40 8 79 8q18 0 38 -2t31 -4z" />
    <glyph glyph-name="ring" unicode="&#x2da;" horiz-adv-x="310" 
d="M63 614v15q0 74 92 74t92 -74v-15q0 -74 -92 -74t-92 74zM122 629v-15q0 -27 33 -27t33 27v15q0 25 -33 25t-33 -25z" />
    <glyph glyph-name="ogonek" unicode="&#x2db;" horiz-adv-x="152" 
d="M0 -94q0 24 14.5 49t29.5 38l14 13h62q-35 -48 -35 -89q0 -31 28 -31q9 0 17.5 2.5t12.5 5.5l4 2q5 -12 5 -27l-5 -26q-19 -17 -60 -17q-87 0 -87 80z" />
    <glyph glyph-name="tilde" unicode="&#x2dc;" horiz-adv-x="411" 
d="M34 584v4q0 59 19 86t68 27q32 0 55 -8.5t33.5 -19t22.5 -19t23 -8.5q21 0 29 9.5t8 33.5v5q21 7 43 7q9 0 19.5 -1.5t16.5 -3.5l6 -2v-4q0 -60 -18 -86.5t-69 -26.5q-40 0 -66 13.5t-40.5 27.5t-27.5 14q-21 0 -29 -9t-8 -34v-5q-21 -7 -43 -7q-9 0 -19.5 1.5t-16.5 3.5
z" />
    <glyph glyph-name="hungarumlaut" unicode="&#x2dd;" horiz-adv-x="241" 
d="M150 696l-146 -138q-23 -8 -45 -8q-11 0 -22 2t-17 4l-6 2l91 138q35 8 72 8q16 0 34 -2t29 -4zM329 696l-146 -138q-23 -8 -45 -8q-11 0 -22 2t-17 4l-6 2l92 138q34 8 71 8q16 0 34 -2t28 -4z" />
    <glyph glyph-name="uni0400" unicode="&#x400;" horiz-adv-x="511" 
d="M209 306v-199h273q7 -21 7 -54q0 -14 -1.5 -27.5t-3.5 -19.5l-2 -6h-221q-59 0 -114 2.5t-81 5.5l-25 2v680q88 10 220 10h216q7 -21 7 -54q0 -14 -2 -27.5t-4 -19.5l-1 -6h-268v-180h238q6 -21 6 -53q0 -14 -1.5 -27.5t-3.5 -20.5l-1 -6h-238zM266 754l-145 138
q38 8 73 8q16 0 34 -2t28 -4l9 -2l92 -138q-22 -8 -45 -8q-10 0 -21.5 2t-18.5 4z" />
    <glyph glyph-name="afii10023" unicode="&#x401;" horiz-adv-x="511" 
d="M209 306v-199h273q7 -21 7 -54q0 -14 -1.5 -27.5t-3.5 -19.5l-2 -6h-221q-59 0 -114 2.5t-81 5.5l-25 2v680q88 10 220 10h216q7 -21 7 -54q0 -14 -2 -27.5t-4 -19.5l-1 -6h-268v-180h238q6 -21 6 -53q0 -14 -1.5 -27.5t-3.5 -20.5l-1 -6h-238zM224 864v-109
q-28 -8 -62 -8q-16 0 -31.5 2t-22.5 4l-8 2v109q27 7 62 7q16 0 31.5 -1.5t22.5 -3.5zM434 864v-109q-28 -8 -62 -8q-16 0 -31.5 2t-22.5 4l-8 2v109q27 7 62 7q16 0 31.5 -1.5t22.5 -3.5z" />
    <glyph glyph-name="afii10051" unicode="&#x402;" horiz-adv-x="731" 
d="M526 158v98q0 45 -16 62.5t-60 17.5q-60 0 -88 -28v-304q-41 -8 -84 -8q-19 0 -39.5 2t-32.5 4l-11 2v589h-169q-6 21 -6 53q0 15 1.5 28.5t2.5 19.5l2 6h504q6 -21 6 -54q0 -14 -1.5 -27.5t-2.5 -19.5l-2 -6h-168v-188q62 38 147 38q98 0 141.5 -47t43.5 -140v-98
q0 -83 -36.5 -124t-118.5 -41q-17 0 -34.5 1.5t-30.5 4t-23 5t-16 4.5l-6 1q-6 21 -6 45l6 44q14 -7 47 -7q29 0 39.5 15t10.5 52z" />
    <glyph glyph-name="afii10052" unicode="&#x403;" horiz-adv-x="470" 
d="M392 892l-146 -138q-23 -8 -45 -8q-11 0 -22 2t-17 4l-6 2l92 138q34 8 71 8q16 0 34 -2t29 -4zM209 593v-589q-42 -8 -84 -8q-19 0 -40 2t-33 4l-11 2v686q88 10 220 10h181q7 -21 7 -54q0 -14 -1.5 -27.5t-3.5 -19.5l-2 -6h-233z" />
    <glyph glyph-name="afii10053" unicode="&#x404;" horiz-adv-x="560" 
d="M36 192v316q0 99 60 149t197 50t188.5 -48.5t51.5 -150.5v-12q-38 -7 -75 -7q-17 0 -36 1.5t-30 3.5l-10 2v12q0 52 -19 72t-70 20t-70 -20.5t-19 -71.5v-103h239q6 -22 6 -54q0 -14 -1.5 -27.5t-3.5 -19.5l-1 -6h-239v-106q0 -51 24 -71.5t86 -20.5q51 0 100 10.5
t73 19.5t24 11l1 -3q1 -2 2.5 -6.5t2.5 -10.5t2 -15t1 -18q0 -15 -2 -29t-4 -21l-3 -6q-81 -39 -198 -39q-148 0 -212.5 49.5t-64.5 149.5z" />
    <glyph glyph-name="afii10054" unicode="&#x405;" horiz-adv-x="565" 
d="M199 508v-30q0 -25 34.5 -41.5t83.5 -29.5t98 -31t83.5 -57t34.5 -97v-30q0 -101 -59 -150t-195 -49q-142 0 -196 48.5t-54 150.5v12q42 7 82 7q18 0 38.5 -1.5t31.5 -3.5l11 -2v-12q0 -52 18.5 -72t67.5 -20q50 0 68.5 20t18.5 72v30q0 28 -34 46t-83 31t-98 30.5
t-83 55t-34 93.5v30q0 101 58 150t191 49q95 0 149.5 -24t74.5 -65.5t20 -109.5v-12q-41 -7 -81 -7q-19 0 -39 1.5t-31 3.5l-11 2v12q0 51 -17.5 71.5t-64.5 20.5q-46 0 -64.5 -21t-18.5 -71z" />
    <glyph glyph-name="afii10055" unicode="&#x406;" horiz-adv-x="342" 
d="M28 107h59v486h-59q-6 21 -6 53q0 15 1.5 28.5t2.5 19.5l2 6h286q7 -21 7 -54q0 -14 -1.5 -27.5t-3.5 -19.5l-2 -6h-59v-486h59q7 -21 7 -54q0 -14 -1.5 -27.5t-3.5 -19.5l-2 -6h-286q-6 21 -6 53q0 15 1.5 28.5t2.5 19.5z" />
    <glyph glyph-name="afii10056" unicode="&#x407;" horiz-adv-x="342" 
d="M140 863v-109q-28 -8 -63 -8q-15 0 -30.5 2t-23.5 4l-8 2v109q28 7 62 7q16 0 31.5 -2t23.5 -4zM327 863v-109q-28 -8 -62 -8q-16 0 -31.5 2t-23.5 4l-7 2v109q27 7 62 7q16 0 31.5 -2t23.5 -4zM28 107h59v486h-59q-6 21 -6 53q0 15 1.5 28.5t2.5 19.5l2 6h286
q7 -21 7 -54q0 -14 -1.5 -27.5t-3.5 -19.5l-2 -6h-59v-486h59q7 -21 7 -54q0 -14 -1.5 -27.5t-3.5 -19.5l-2 -6h-286q-6 21 -6 53q0 15 1.5 28.5t2.5 19.5z" />
    <glyph glyph-name="afii10057" unicode="&#x408;" horiz-adv-x="473" 
d="M432 696v-504q0 -99 -57 -149t-187 -50q-39 0 -76 9.5t-54 19.5l-18 10q-9 22 -9 56q0 9 1 18t2.5 15t2.5 10.5t2 6.5l1 3q0 -2 17.5 -11t54 -19.5t74.5 -10.5q45 0 61.5 20t16.5 72v504q41 8 84 8q19 0 40 -2t32 -4z" />
    <glyph glyph-name="afii10058" unicode="&#x409;" horiz-adv-x="958" 
d="M432 9v584h-125l-50 -410q-12 -99 -62.5 -144.5t-171.5 -45.5q-6 21 -6 53q0 14 1.5 27.5t3.5 20.5l1 6q38 0 53.5 18t20.5 65l64 507q89 14 219 14q58 0 113 -3.5t81 -6.5l26 -4v-258q29 3 71 3q137 0 197 -49t60 -149v-44q0 -100 -60 -149t-197 -49q-63 0 -122.5 3.5
t-88.5 7.5zM600 330v-229h71q51 0 70 20.5t19 71.5v44q0 52 -19 72.5t-70 20.5h-71z" />
    <glyph glyph-name="afii10059" unicode="&#x40a;" horiz-adv-x="940" 
d="M413 9v293h-204v-298q-42 -8 -84 -8q-19 0 -40 2t-33 4l-11 2v692q41 8 84 8q19 0 40 -2t33 -4l11 -2v-287h204v287q42 8 84 8q19 0 40 -2t33 -4l11 -2v-264q30 3 72 3q137 0 197 -49t60 -149v-44q0 -100 -60 -149t-197 -49q-63 0 -123 3.5t-88 7.5zM581 330v-229h72
q51 0 70 20.5t19 71.5v44q0 52 -19 72.5t-70 20.5h-72z" />
    <glyph glyph-name="afii10060" unicode="&#x40b;" horiz-adv-x="731" 
d="M530 593h-168v-188q62 38 147 38q98 0 141.5 -47t43.5 -140v-252q-42 -8 -84 -8q-19 0 -40 2t-32 4l-12 2v252q0 45 -16 62.5t-60 17.5q-60 0 -88 -28v-304q-41 -8 -84 -8q-19 0 -39.5 2t-32.5 4l-11 2v589h-169q-6 21 -6 53q0 15 1.5 28.5t2.5 19.5l2 6h504q6 -21 6 -54
q0 -14 -1.5 -27.5t-2.5 -19.5z" />
    <glyph glyph-name="afii10061" unicode="&#x40c;" horiz-adv-x="594" 
d="M407 4l-162 299l-36 -9v-290q-43 -8 -84 -8q-19 0 -40 2t-33 4l-11 2v692q41 8 84 8q18 0 39 -2t33 -4l12 -2v-288l36 9l150 279q45 8 88 8q19 0 40 -2t33 -4l11 -2l-175 -336l190 -356q-45 -8 -87 -8q-18 0 -40 2t-35 4zM442 892l-145 -138q-24 -8 -45 -8q-11 0 -22.5 2
t-17.5 4l-6 2l92 138q35 8 71 8q16 0 34 -2t29 -4z" />
    <glyph glyph-name="uni040D" unicode="&#x40d;" horiz-adv-x="632" 
d="M315 754l-145 138q38 8 73 8q16 0 34 -2t27 -4l10 -2l92 -138q-22 -8 -45 -8q-10 0 -21.5 2t-17.5 4zM586 696v-692q-41 -8 -84 -8q-19 0 -40 2t-32 4l-12 2v394l-235 -394q-36 -8 -71 -8q-16 0 -34 2t-28 4l-9 2v692q41 8 84 8q19 0 40 -2t33 -4l11 -2v-394l236 394
q35 8 70 8q16 0 33.5 -2t27.5 -4z" />
    <glyph glyph-name="afii10062" unicode="&#x40e;" horiz-adv-x="589" 
d="M295 746q-90 0 -124 30.5t-34 94.5v9q26 7 51 7q12 0 25 -1.5t20 -3.5l7 -2v-11q0 -31 11.5 -43t43.5 -12t43.5 12t11.5 43v11q26 7 51 7q12 0 25 -1.5t20 -3.5l7 -2v-9q0 -64 -34 -94.5t-124 -30.5zM238 156l13 47l-60 5l-180 488q42 8 80 8q17 0 38 -2t33 -4l13 -2
l120 -354l121 354q44 8 83 8q17 0 37.5 -2t31.5 -4l12 -2l-194 -538q-32 -89 -82.5 -127t-145.5 -38q-21 0 -40.5 3.5t-28.5 6.5l-9 3q-8 20 -8 50q0 13 2 26t4 19l2 6q29 -7 79 -7q63 0 79 56z" />
    <glyph glyph-name="afii10145" unicode="&#x40f;" horiz-adv-x="615" 
d="M241 -129v126q-54 1 -104 4.5t-73 6.5l-23 2v686q41 8 84 8q19 0 40 -2t33 -4l11 -2v-589h197v589q42 8 84 8q19 0 40 -2t32 -4l12 -2v-686q-79 -10 -200 -13v-126q-33 -7 -66 -7q-15 0 -32 2t-26 4z" />
    <glyph glyph-name="afii10017" unicode="&#x410;" horiz-adv-x="618" 
d="M9 4l187 692q53 8 113 8q26 0 54.5 -2t44.5 -4l15 -2l187 -692q-43 -8 -81 -8q-17 0 -38 2t-33 4l-13 2l-35 142h-201l-36 -142q-44 -8 -83 -8q-17 0 -37.5 2t-32.5 4zM310 567l-78 -314h154z" />
    <glyph glyph-name="afii10018" unicode="&#x411;" horiz-adv-x="577" 
d="M209 593v-160q33 3 80 3q137 0 197.5 -49t60.5 -149v-45q0 -99 -60 -147.5t-198 -48.5q-65 0 -127 3t-92 6l-29 3v681q88 10 220 10h237q7 -21 7 -54q0 -14 -1.5 -27.5t-3.5 -19.5l-2 -6h-289zM209 331v-230h80q51 0 70.5 20t19.5 72v45q0 52 -19.5 72.5t-70.5 20.5h-80z
" />
    <glyph glyph-name="afii10019" unicode="&#x412;" horiz-adv-x="582" 
d="M41 9v682q102 14 248 14q134 0 193.5 -46t59.5 -140v-27q0 -99 -96 -133q106 -34 106 -140v-34q0 -95 -61.5 -142.5t-201.5 -47.5q-65 0 -127 3.5t-92 7.5zM209 306v-205h80q54 0 74.5 18.5t20.5 65.5v34q0 47 -20.5 67t-74.5 20h-80zM209 599v-190h80q47 0 66 19.5
t19 63.5v27q0 43 -19 61.5t-66 18.5h-80z" />
    <glyph glyph-name="afii10020" unicode="&#x413;" horiz-adv-x="470" 
d="M209 593v-589q-42 -8 -84 -8q-19 0 -40 2t-33 4l-11 2v686q88 10 220 10h181q7 -21 7 -54q0 -14 -1.5 -27.5t-3.5 -19.5l-2 -6h-233z" />
    <glyph glyph-name="afii10021" unicode="&#x414;" horiz-adv-x="712" 
d="M23 -129v229q44 0 63 18.5t24 64.5l64 507q89 14 219 14q58 0 113 -3.5t81 -6.5l26 -4v-583l76 -5v-231q-34 -7 -67 -7q-15 0 -31.5 2t-25.5 4l-9 1v129h-400v-129q-34 -7 -67 -7q-15 0 -31.5 2t-25.5 4zM239 107h206v486h-129l-51 -410q-5 -44 -26 -76z" />
    <glyph glyph-name="afii10022" unicode="&#x415;" horiz-adv-x="511" 
d="M209 306v-199h273q7 -21 7 -54q0 -14 -1.5 -27.5t-3.5 -19.5l-2 -6h-221q-59 0 -114 2.5t-81 5.5l-25 2v680q88 10 220 10h216q7 -21 7 -54q0 -14 -2 -27.5t-4 -19.5l-1 -6h-268v-180h238q6 -21 6 -53q0 -14 -1.5 -27.5t-3.5 -20.5l-1 -6h-238z" />
    <glyph glyph-name="afii10024" unicode="&#x416;" horiz-adv-x="885" 
d="M325 303l-138 -299q-47 -8 -88 -8q-19 0 -40.5 2t-33.5 4l-12 2l164 356l-150 336q43 8 85 8q19 0 40.5 -2t33.5 -4l13 -2l126 -279l33 -9v288q43 8 84 8q19 0 40 -2t32 -4l12 -2v-288l34 9l125 279q46 8 88 8q19 0 40 -2t33 -4l12 -2l-151 -336l165 -356q-44 -8 -86 -8
q-18 0 -40 2t-35 4l-13 2l-138 299l-34 -9v-290q-41 -8 -84 -8q-18 0 -39 2t-33 4l-12 2v290z" />
    <glyph glyph-name="afii10025" unicode="&#x417;" horiz-adv-x="549" 
d="M261 707q131 0 189 -47t58 -141v-27q0 -98 -96 -132q106 -34 106 -141v-34q0 -96 -64 -144t-210 -48q-50 0 -97 9.5t-69 19.5l-23 10q-9 22 -9 56q0 9 1 18t2 15t2.5 10.5t2.5 6.5l1 3q0 -2 22.5 -11t69 -19.5t94.5 -10.5q63 0 86.5 19t23.5 66v34q0 44 -21 63.5
t-74 19.5h-90q-6 22 -6 54q0 14 1.5 27.5t2.5 19.5l2 6h90q47 0 65.5 19t18.5 64v27q0 43 -17.5 62t-61.5 19q-47 0 -64.5 -17.5t-17.5 -61.5v-12q-37 -7 -75 -7q-16 0 -34.5 2t-29.5 4l-10 1v12q0 95 49.5 140.5t181.5 45.5z" />
    <glyph glyph-name="afii10026" unicode="&#x418;" horiz-adv-x="627" 
d="M586 696v-692q-41 -8 -84 -8q-19 0 -40 2t-32 4l-12 2v394l-235 -394q-36 -8 -71 -8q-16 0 -34 2t-28 4l-9 2v692q41 8 84 8q19 0 40 -2t33 -4l11 -2v-394l236 394q35 8 70 8q16 0 33.5 -2t27.5 -4z" />
    <glyph glyph-name="afii10027" unicode="&#x419;" horiz-adv-x="627" 
d="M314 746q-90 0 -124 30.5t-34 94.5v9q26 7 51 7q12 0 25 -1.5t20 -3.5l7 -2v-11q0 -31 11.5 -43t43.5 -12t43.5 12t11.5 43v11q26 7 51 7q12 0 25 -1.5t20 -3.5l7 -2v-9q0 -64 -34 -94.5t-124 -30.5zM586 696v-692q-41 -8 -84 -8q-19 0 -40 2t-32 4l-12 2v394l-235 -394
q-36 -8 -71 -8q-16 0 -34 2t-28 4l-9 2v692q41 8 84 8q19 0 40 -2t33 -4l11 -2v-394l236 394q35 8 70 8q16 0 33.5 -2t27.5 -4z" />
    <glyph glyph-name="afii10028" unicode="&#x41a;" horiz-adv-x="594" 
d="M407 4l-162 299l-36 -9v-290q-43 -8 -84 -8q-19 0 -40 2t-33 4l-11 2v692q41 8 84 8q18 0 39 -2t33 -4l12 -2v-288l36 9l150 279q45 8 88 8q19 0 40 -2t33 -4l11 -2l-175 -336l190 -356q-45 -8 -87 -8q-18 0 -40 2t-35 4z" />
    <glyph glyph-name="afii10029" unicode="&#x41b;" horiz-adv-x="641" 
d="M97 183l64 507q89 14 219 14q58 0 113 -3.5t81 -6.5l26 -4v-686q-43 -8 -84 -8q-19 0 -40 2t-32 4l-12 2v589h-125l-50 -410q-12 -99 -62.5 -144.5t-171.5 -45.5q-6 21 -6 53q0 14 1.5 27.5t3.5 20.5l1 6q38 0 53.5 18t20.5 65z" />
    <glyph glyph-name="afii10030" unicode="&#x41c;" horiz-adv-x="803" 
d="M761 697v-692q-40 -8 -80 -8q-18 0 -38 2t-31 4l-11 2v468l-131 -366q-31 -7 -69 -7q-16 0 -34 2t-27 4l-10 1l-130 365v-468q-40 -8 -80 -8q-17 0 -37 2t-31 4l-11 2v692q0 1 15 2.5t42.5 3t54.5 1.5q26 0 54 -1.5t43 -3.5l15 -2l135 -375l136 376q54 7 112 7
q26 0 54 -2t44 -4z" />
    <glyph glyph-name="afii10031" unicode="&#x41d;" horiz-adv-x="622" 
d="M581 696v-692q-41 -8 -84 -8q-19 0 -40 2t-33 4l-11 2v298h-204v-298q-42 -8 -84 -8q-19 0 -40 2t-33 4l-11 2v692q41 8 84 8q19 0 40 -2t33 -4l11 -2v-287h204v287q42 8 84 8q19 0 40 -2t33 -4z" />
    <glyph glyph-name="afii10032" unicode="&#x41e;" horiz-adv-x="594" 
d="M36 192v316q0 99 61.5 149t199.5 50t199 -50t61 -149v-316q0 -99 -61 -149t-199 -50t-199.5 50t-61.5 149zM204 508v-316q0 -51 20 -71.5t73 -20.5q52 0 72 20.5t20 71.5v316q0 51 -20 71.5t-72 20.5q-53 0 -73 -20.5t-20 -71.5z" />
    <glyph glyph-name="afii10033" unicode="&#x41f;" horiz-adv-x="615" 
d="M125 -4q-19 0 -40 2t-33 4l-11 2v686q108 14 266 14q71 0 137.5 -3.5t97.5 -6.5l32 -4v-686q-41 -8 -84 -8q-19 0 -40 2t-32 4l-12 2v589h-197v-589q-42 -8 -84 -8z" />
    <glyph glyph-name="afii10034" unicode="&#x420;" horiz-adv-x="577" 
d="M41 691q97 14 243 14q137 0 197.5 -49t60.5 -148v-40q0 -100 -60.5 -148.5t-197.5 -48.5l-75 3v-270q-43 -8 -84 -8q-19 0 -40 2t-33 4l-11 2v687zM209 599v-223h75q51 0 70.5 20.5t19.5 71.5v40q0 51 -19.5 71t-70.5 20h-75z" />
    <glyph glyph-name="afii10035" unicode="&#x421;" horiz-adv-x="560" 
d="M36 192v316q0 99 60 149t197 50t188.5 -48.5t51.5 -150.5v-12q-38 -7 -75 -7q-17 0 -36 1.5t-30 3.5l-10 2v12q0 52 -19 72t-70 20t-70 -20.5t-19 -71.5v-316q0 -51 24 -71.5t86 -20.5q51 0 100 10.5t73 19.5t24 11l1 -3q1 -2 2.5 -6.5t2.5 -10.5t2 -15t1 -18
q0 -15 -2 -29t-4 -21l-3 -6q-81 -39 -198 -39q-148 0 -212.5 49.5t-64.5 149.5z" />
    <glyph glyph-name="afii10036" unicode="&#x422;" horiz-adv-x="557" 
d="M530 593h-168v-589q-41 -8 -84 -8q-19 0 -39.5 2t-32.5 4l-11 2v589h-169q-6 21 -6 53q0 15 1.5 28.5t2.5 19.5l2 6h504q6 -21 6 -54q0 -14 -1.5 -27.5t-2.5 -19.5z" />
    <glyph glyph-name="afii10037" unicode="&#x423;" horiz-adv-x="589" 
d="M238 156l13 47l-60 5l-180 488q42 8 80 8q17 0 38 -2t33 -4l13 -2l120 -354l121 354q44 8 83 8q17 0 37.5 -2t31.5 -4l12 -2l-194 -538q-32 -89 -82.5 -127t-145.5 -38q-21 0 -40.5 3.5t-28.5 6.5l-9 3q-8 20 -8 50q0 13 2 26t4 19l2 6q29 -7 79 -7q63 0 79 56z" />
    <glyph glyph-name="afii10038" unicode="&#x424;" horiz-adv-x="797" 
d="M314 4v60q-149 0 -214.5 50t-65.5 149v173q0 100 65.5 150t214.5 50v60q42 8 84 8q19 0 40 -2t32 -4l12 -2v-60q149 0 214.5 -50t65.5 -150v-173q0 -99 -65.5 -149t-214.5 -50v-60q-41 -8 -84 -8q-19 0 -40 2t-32 4zM595 263v173q0 52 -24.5 72.5t-88.5 20.5v-358
q64 0 88.5 20.5t24.5 71.5zM202 436v-173q0 -51 24.5 -71.5t87.5 -20.5v358q-63 0 -87.5 -20.5t-24.5 -72.5z" />
    <glyph glyph-name="afii10039" unicode="&#x425;" horiz-adv-x="628" 
d="M437 4l-123 256l-123 -256q-48 -8 -89 -8q-18 0 -40.5 2t-35.5 4l-14 2l187 352l-179 340q51 8 91 8q18 0 40.5 -2t36.5 -4l13 -2l113 -243l113 243q49 8 90 8q19 0 41.5 -2t35.5 -4l13 -2l-176 -340l186 -352q-53 -8 -93 -8q-18 0 -39.5 2t-34.5 4z" />
    <glyph glyph-name="afii10040" unicode="&#x426;" horiz-adv-x="673" 
d="M518 -129v129h-255q-59 0 -114.5 2.5t-81.5 5.5l-26 2v686q40 8 83 8q19 0 40 -2t32 -4l12 -2v-589h198v589q42 8 84 8q19 0 40 -2t32 -4l12 -2v-589l77 -5v-231q-34 -7 -67 -7q-15 0 -31.5 2t-25.5 4z" />
    <glyph glyph-name="afii10041" unicode="&#x427;" horiz-adv-x="593" 
d="M384 4v291q-65 -38 -154 -38q-103 0 -148.5 46.5t-45.5 139.5v250q42 7 84 7q19 0 40 -2t32 -4l12 -1v-250q0 -44 17.5 -61.5t66.5 -17.5q28 0 52 7t32.5 12.5t11.5 8.5v301q42 7 84 7q19 0 40 -2t32 -4l12 -1v-689q-41 -8 -84 -8q-19 0 -40 2t-32 4z" />
    <glyph glyph-name="afii10042" unicode="&#x428;" horiz-adv-x="897" 
d="M772 704q19 0 40 -2t32 -4l12 -2v-686q-91 -10 -223 -10h-370q-59 0 -114.5 2.5t-81.5 5.5l-26 2v686q41 8 84 8q19 0 40 -2t33 -4l11 -2v-589h155v589q42 8 84 8q19 0 40 -2t32 -4l12 -2v-589h156v589q41 8 84 8z" />
    <glyph glyph-name="afii10043" unicode="&#x429;" horiz-adv-x="955" 
d="M799 -129v129h-536q-59 0 -114.5 3t-81.5 6l-26 3v684q41 8 84 8q19 0 40 -2t33 -4l11 -2v-589h155v589q42 8 84 8q19 0 40 -2t32 -4l12 -2v-589h156v589q41 8 84 8q19 0 40 -2t32 -4l12 -2v-589l76 -5v-231q-34 -7 -67 -7q-15 0 -31.5 2t-25.5 4z" />
    <glyph glyph-name="afii10044" unicode="&#x42a;" horiz-adv-x="726" 
d="M190 9v584h-162q-7 21 -7 53q0 15 1.5 28.5t3.5 19.5l2 6h110q59 0 113.5 -2.5t80.5 -5.5l25 -2v-258q34 3 81 3q137 0 197.5 -49t60.5 -149v-44q0 -100 -60.5 -149t-197.5 -49q-65 0 -127 3.5t-91 7.5zM357 330v-229h81q51 0 70.5 20t19.5 72v44q0 52 -19.5 72.5
t-70.5 20.5h-81z" />
    <glyph glyph-name="afii10045" unicode="&#x42b;" horiz-adv-x="811" 
d="M41 9v687q41 8 84 8q18 0 39 -2t33 -4l12 -2v-264q33 3 80 3q137 0 197.5 -49t60.5 -149v-44q0 -100 -60.5 -149t-197.5 -49q-65 0 -127 3.5t-92 7.5zM209 330v-229h80q51 0 70.5 20t19.5 72v44q0 52 -19.5 72.5t-70.5 20.5h-80zM770 696v-692q-42 -8 -84 -8q-19 0 -40 2
t-32 4l-12 2v692q41 8 84 8q19 0 40 -2t32 -4z" />
    <glyph glyph-name="afii10046" unicode="&#x42c;" horiz-adv-x="577" 
d="M41 9v687q41 8 84 8q18 0 39 -2t33 -4l12 -2v-264q33 3 80 3q137 0 197.5 -49t60.5 -149v-44q0 -100 -60.5 -149t-197.5 -49q-65 0 -127 3.5t-92 7.5zM209 330v-229h80q51 0 70.5 20t19.5 72v44q0 52 -19.5 72.5t-70.5 20.5h-80z" />
    <glyph glyph-name="afii10047" unicode="&#x42d;" horiz-adv-x="560" 
d="M523 508v-316q0 -100 -64 -149.5t-212 -49.5q-52 0 -101.5 9.5t-73.5 19.5l-23 10q-9 22 -9 56q0 9 1 18t2 15t2.5 10.5t2.5 6.5l1 3q0 -2 24 -11t73 -19.5t100 -10.5q62 0 86 20.5t24 71.5v106h-187q-6 21 -6 53q0 14 1.5 27.5t3.5 19.5l1 7h187v103q0 52 -19.5 72
t-70.5 20t-70 -20t-19 -72v-12q-37 -7 -75 -7q-16 0 -35 1.5t-29 3.5l-11 2v12q0 102 51.5 150.5t188.5 48.5t196.5 -49.5t59.5 -149.5z" />
    <glyph glyph-name="afii10048" unicode="&#x42e;" horiz-adv-x="841" 
d="M301 192v110h-92v-298q-42 -8 -84 -8q-19 0 -40 2t-33 4l-11 2v692q41 8 84 8q19 0 40 -2t33 -4l11 -2v-287h92v99q0 99 58.5 149t191.5 50q132 0 190.5 -50t58.5 -149v-316q0 -99 -58.5 -149t-190.5 -50q-133 0 -191.5 50t-58.5 149zM469 508v-316q0 -51 18 -71.5
t64 -20.5t63.5 20.5t17.5 71.5v316q0 51 -17.5 71.5t-63.5 20.5t-64 -20.5t-18 -71.5z" />
    <glyph glyph-name="afii10049" unicode="&#x42f;" horiz-adv-x="586" 
d="M545 691v-687q-41 -8 -84 -8q-18 0 -39 2t-33 4l-12 2v274q-28 -3 -68 -3l-123 -271q-45 -8 -86 -8q-19 0 -40 2t-33 4l-12 2l142 287q-127 38 -127 182v33q0 100 60.5 149.5t197.5 49.5q67 0 131.5 -3.5t94.5 -7.5zM377 380v219h-89q-51 0 -70.5 -20.5t-19.5 -72.5v-33
q0 -52 19.5 -72.5t70.5 -20.5h89z" />
    <glyph glyph-name="afii10065" unicode="&#x430;" horiz-adv-x="515" 
d="M315 4v26q-53 -37 -130 -37q-79 0 -114 37t-35 112v10q0 63 43.5 97.5t144.5 47.5l91 11v35q0 36 -13 51t-46 15q-34 0 -46.5 -14t-12.5 -48v-9q-37 -7 -76 -7q-16 0 -35 1.5t-30 3.5l-10 2v9q0 82 45.5 121t164.5 39q116 0 167 -41t51 -123v-339q-39 -8 -79 -8
q-19 0 -39 2t-30 4zM315 213l-60 -9q-59 -9 -59 -52v-10q0 -28 11.5 -39.5t41.5 -11.5q21 0 37.5 7t22.5 14l6 7v94z" />
    <glyph glyph-name="afii10066" unicode="&#x431;" horiz-adv-x="513" 
d="M196 470q51 37 126 37q82 0 118.5 -44.5t36.5 -132.5v-160q0 -88 -52 -132.5t-169 -44.5t-168.5 44.5t-51.5 132.5v345q0 89 57 133.5t188 44.5q40 0 79 5.5t58 10.5l19 5q7 -19 7 -49q0 -8 -0.5 -16t-2 -13.5t-2.5 -10t-1 -7.5l-1 -2l-19 -5q-18 -5 -57 -11t-78 -6
q-50 0 -68.5 -17.5t-18.5 -61.5v-45zM196 381v-211q0 -44 13 -61.5t48 -17.5q34 0 47.5 17.5t13.5 61.5v160q0 44 -12 61.5t-44 17.5q-21 0 -37.5 -7t-22.5 -14z" />
    <glyph glyph-name="afii10067" unicode="&#x432;" horiz-adv-x="507" 
d="M41 8v484q83 14 206 14q117 0 168.5 -36.5t51.5 -108.5v-11q0 -65 -67 -92q82 -27 82 -103v-11q0 -75 -55 -112.5t-180 -37.5q-54 0 -105.5 3.5t-75.5 6.5zM247 206h-47v-113h47q43 0 59.5 12t16.5 39v11q0 27 -16.5 39t-59.5 12zM200 304h47q34 0 47.5 11t13.5 35v11
q0 24 -13.5 35t-47.5 11h-47v-103z" />
    <glyph glyph-name="afii10068" unicode="&#x433;" horiz-adv-x="399" 
d="M200 402v-398q-40 -8 -80 -8q-17 0 -37 2t-31 4l-11 2v486q88 10 220 10h111q6 -20 6 -49q0 -13 -1.5 -25.5t-2.5 -17.5l-2 -6h-172z" />
    <glyph glyph-name="afii10069" unicode="&#x434;" horiz-adv-x="618" 
d="M26 -109v200q40 4 58 26.5t25 71.5l44 301q76 14 188 14q50 0 97 -3.5t69 -6.5l22 -4v-392l66 -4v-203q-33 -7 -66 -7q-15 0 -32 2t-26 4l-9 1v109h-303v-109q-33 -7 -66 -7q-15 0 -32 2t-26 4zM284 402l-29 -215q-8 -56 -29 -89h144v304h-86z" />
    <glyph glyph-name="afii10070" unicode="&#x435;" horiz-adv-x="504" 
d="M36 170v160q0 89 51.5 133t168.5 44q120 0 165.5 -43t45.5 -134v-119q-44 -14 -135 -14h-136v-27q0 -44 19.5 -61.5t71.5 -17.5q41 0 80 7t58.5 13.5t19.5 7.5l1 -3q1 -2 2.5 -6.5t2.5 -10t2 -13.5t1 -16q0 -13 -2 -25.5t-4 -18.5l-3 -6q-65 -27 -158 -27
q-134 0 -192.5 44t-58.5 133zM196 295h121v35q0 44 -13 61.5t-48 17.5q-34 0 -47 -17.5t-13 -61.5v-35z" />
    <glyph glyph-name="afii10072" unicode="&#x436;" horiz-adv-x="752" 
d="M13 4l122 256l-108 236q37 8 77 8q18 0 39 -2t33 -4l12 -2l80 -185l28 -8v193q40 8 80 8q18 0 38 -2t31 -4l11 -2v-193l28 8l80 185q44 8 84 8q18 0 37 -2t29 -4l11 -2l-108 -236l122 -256q-38 -8 -79 -8q-18 0 -39 2t-33 4l-12 2l-92 201l-28 -8v-193q-40 -8 -80 -8
q-18 0 -38 2t-31 4l-11 2v193l-28 8l-92 -201q-44 -8 -84 -8q-18 0 -38 2t-30 4z" />
    <glyph glyph-name="afii10073" unicode="&#x437;" horiz-adv-x="497" 
d="M46 354v9q0 74 42 109t152 35q113 0 163 -36t50 -108v-12q0 -70 -66 -98q81 -26 81 -98v-13q0 -74 -59.5 -111.5t-192.5 -37.5q-40 0 -77.5 6.5t-55.5 13.5l-18 7q-9 20 -9 50q0 8 1 16t2.5 13.5t2.5 10t2 6.5l1 3q0 -1 18 -7.5t55.5 -13.5t75.5 -7q54 0 74.5 12t20.5 39
v13q0 26 -17 38t-59 12h-65q-6 19 -6 47q0 13 1.5 24.5t2.5 17.5l2 5h65q34 0 47.5 12.5t13.5 39.5v12q0 24 -13 35t-44 11q-30 0 -41.5 -10.5t-11.5 -35.5v-9q-35 -8 -70 -8q-15 0 -32 2t-26 4z" />
    <glyph glyph-name="afii10074" unicode="&#x438;" horiz-adv-x="533" 
d="M493 496v-492q-40 -8 -80 -8q-18 0 -38 2t-31 4l-11 2v256l-150 -256q-36 -8 -71 -8q-16 0 -34 2t-28 4l-9 2v492q40 8 79 8q18 0 38 -2t31 -4l11 -2v-256l151 256q35 8 71 8q16 0 33.5 -2t27.5 -4z" />
    <glyph glyph-name="afii10075" unicode="&#x439;" horiz-adv-x="533" 
d="M267 562q-91 0 -124.5 30t-33.5 94v9q26 8 51 8q12 0 25 -2t20 -4l7 -2v-10q0 -31 11.5 -43t43.5 -12q31 0 43 12t12 43v10q26 8 51 8q12 0 25 -2t20 -4l7 -2v-9q0 -64 -34 -94t-124 -30zM493 496v-492q-40 -8 -80 -8q-18 0 -38 2t-31 4l-11 2v256l-150 -256
q-36 -8 -71 -8q-16 0 -34 2t-28 4l-9 2v492q40 8 79 8q18 0 38 -2t31 -4l11 -2v-256l151 256q35 8 71 8q16 0 33.5 -2t27.5 -4z" />
    <glyph glyph-name="afii10076" unicode="&#x43a;" horiz-adv-x="527" 
d="M351 4l-121 202l-30 -7v-195q-40 -8 -80 -8q-17 0 -37 2t-31 4l-11 2v492q40 8 79 8q18 0 38 -2t31 -4l11 -2v-191l30 6l109 185q43 8 83 8q18 0 37 -2t29 -4l11 -2l-136 -236l151 -256q-39 -8 -79 -8q-18 0 -39 2t-33 4z" />
    <glyph glyph-name="afii10077" unicode="&#x43b;" horiz-adv-x="544" 
d="M87 183l36 307q78 14 190 14q50 0 97.5 -3.5t69.5 -6.5l23 -4v-486q-40 -8 -80 -8q-17 0 -37 2t-31 4l-11 2v398h-88l-22 -219q-10 -98 -56 -144t-155 -46q-6 19 -6 49q0 13 1.5 25t3.5 18l1 6q32 0 45 20t19 72z" />
    <glyph glyph-name="afii10078" unicode="&#x43c;" horiz-adv-x="683" 
d="M642 496v-492q-36 -8 -71 -8q-16 0 -33.5 2t-27.5 4l-10 2v311l-89 -257q-32 -8 -69 -8q-16 0 -34 2t-28 4l-9 2l-88 257v-311q-36 -8 -71 -8q-16 0 -34 2t-28 4l-9 2v492q0 1 14 2.5t39.5 3.5t49.5 2t50 -2t40 -4l14 -2l93 -283l94 283q49 8 103 8q24 0 50 -2t40 -4z
" />
    <glyph glyph-name="afii10079" unicode="&#x43d;" horiz-adv-x="525" 
d="M484 496v-492q-40 -8 -80 -8q-18 0 -37.5 2t-30.5 4l-11 2v202h-125v-202q-40 -8 -80 -8q-17 0 -37 2t-31 4l-11 2v492q40 8 79 8q18 0 38 -2t31 -4l11 -2v-191h125v191q39 8 79 8q18 0 38 -2t31 -4z" />
    <glyph glyph-name="afii10080" unicode="&#x43e;" horiz-adv-x="514" 
d="M36 170v160q0 88 52 132.5t169 44.5t168.5 -44t51.5 -133v-160q0 -89 -51.5 -133t-168.5 -44t-169 44.5t-52 132.5zM196 330v-160q0 -44 13 -61.5t48 -17.5t48 17.5t13 61.5v160q0 44 -13 61.5t-48 17.5t-48 -17.5t-13 -61.5z" />
    <glyph glyph-name="afii10081" unicode="&#x43f;" horiz-adv-x="527" 
d="M120 -4q-17 0 -37 2t-31 4l-11 2v486q90 14 222 14q59 0 114.5 -3.5t82.5 -6.5l26 -4v-486q-40 -8 -80 -8q-18 0 -38 2t-31 4l-11 2v398h-126v-398q-40 -8 -80 -8z" />
    <glyph glyph-name="afii10082" unicode="&#x440;" 
d="M200 496v-26q51 37 125 37q82 0 118 -44t36 -133v-160q0 -89 -43.5 -133t-142.5 -44q-24 0 -47.5 5.5t-34.5 11.5l-11 5v-211q-40 -8 -80 -8q-17 0 -37 2t-31 4l-11 2v692q40 8 79 8q18 0 38 -2t31 -4zM320 170v160q0 44 -12 61.5t-43 17.5q-20 0 -36.5 -7t-22.5 -14
l-6 -7v-211q0 -44 13.5 -61.5t48.5 -17.5q33 0 45.5 17.5t12.5 61.5z" />
    <glyph glyph-name="afii10083" unicode="&#x441;" horiz-adv-x="488" 
d="M36 170v160q0 89 51 133t168 44q115 0 158.5 -43t43.5 -134v-12q-36 -7 -71 -7q-16 0 -34 1.5t-28 3.5l-9 2v12q0 44 -13 61.5t-47 17.5t-46.5 -17.5t-12.5 -61.5v-160q0 -44 19 -61.5t71 -17.5q38 0 75 7t55 13.5t18 7.5l1 -3q1 -2 2 -6.5t2.5 -10t2.5 -13.5t1 -16
q0 -13 -2.5 -25.5t-4.5 -18.5l-2 -6q-61 -27 -148 -27q-133 0 -191.5 44t-58.5 133z" />
    <glyph glyph-name="afii10084" unicode="&#x442;" horiz-adv-x="477" 
d="M450 402h-132v-398q-40 -8 -80 -8q-17 0 -37 2t-31 4l-11 2v398h-133q-6 18 -6 49q0 13 1.5 25t2.5 18l2 6h424q6 -20 6 -49q0 -13 -1.5 -25.5t-2.5 -17.5z" />
    <glyph glyph-name="afii10085" unicode="&#x443;" horiz-adv-x="520" 
d="M203 -47l13 45l-51 6l-154 492q39 8 76 8q16 0 36 -2t31 -4l12 -2l95 -360l95 360q41 8 78 8q17 0 36 -2t30 -4l11 -2l-168 -538q-27 -88 -73.5 -126.5t-131.5 -38.5q-18 0 -35.5 3.5t-25.5 6.5l-8 3q-8 18 -8 46q0 12 2 23.5t4 16.5l2 6q24 -7 66 -7q53 0 68 62z" />
    <glyph glyph-name="afii10086" unicode="&#x444;" horiz-adv-x="736" 
d="M447 696v-189q134 0 193 -44.5t59 -132.5v-160q0 -88 -59 -132.5t-193 -44.5v-189q-39 -8 -79 -8q-18 0 -38 2t-31 4l-11 2v189q-134 0 -193 44.5t-59 132.5v160q0 88 59 132.5t193 44.5v189q40 8 80 8q18 0 37.5 -2t30.5 -4zM447 409v-318q53 0 73 17.5t20 61.5v160
q0 44 -20 61.5t-73 17.5zM288 91v318q-52 0 -72 -17.5t-20 -61.5v-160q0 -44 20 -61.5t72 -17.5z" />
    <glyph glyph-name="afii10087" unicode="&#x445;" horiz-adv-x="526" 
d="M350 4l-87 164l-87 -164q-45 -8 -83 -8q-16 0 -36.5 2t-32.5 4l-12 2l152 252l-144 240q46 8 82 8q16 0 37 -2t33 -4l13 -2l78 -151l77 151q46 8 83 8q17 0 37.5 -2t32.5 -4l12 -2l-141 -240l150 -252q-46 -8 -82 -8q-16 0 -36.5 2t-33.5 4z" />
    <glyph glyph-name="afii10088" unicode="&#x446;" horiz-adv-x="575" 
d="M419 -109v109h-156q-59 0 -114.5 2.5t-81.5 5.5l-26 2v486q40 8 79 8q18 0 38 -2t31 -4l11 -2v-398h126v398q40 8 80 8q18 0 38 -2t31 -4l11 -2v-398l66 -4v-203q-34 -7 -67 -7q-15 0 -31.5 2t-25.5 4z" />
    <glyph glyph-name="afii10089" unicode="&#x447;" horiz-adv-x="508" 
d="M312 4v200q-50 -37 -124 -37q-82 0 -117.5 41.5t-35.5 125.5v162q40 8 80 8q18 0 37.5 -2t30.5 -4l11 -2v-162q0 -38 12 -53.5t42 -15.5q20 0 36 7t22 14l6 7v203q40 8 80 8q18 0 38 -2t31 -4l11 -2v-492q-40 -8 -80 -8q-18 0 -38 2t-31 4z" />
    <glyph glyph-name="afii10090" unicode="&#x448;" horiz-adv-x="762" 
d="M641 504q18 0 38 -2t31 -4l11 -2v-486q-90 -10 -222 -10h-236q-59 0 -114.5 2.5t-81.5 5.5l-26 2v486q40 8 79 8q18 0 38 -2t31 -4l11 -2v-398h101v398q40 8 80 8q18 0 37.5 -2t30.5 -4l11 -2v-398h102v398q39 8 79 8z" />
    <glyph glyph-name="afii10091" unicode="&#x449;" horiz-adv-x="810" 
d="M654 -109v109h-391q-59 0 -114.5 2.5t-81.5 5.5l-26 2v486q40 8 79 8q18 0 38 -2t31 -4l11 -2v-398h101v398q40 8 80 8q18 0 37.5 -2t30.5 -4l11 -2v-398h102v398q39 8 79 8q18 0 38 -2t31 -4l11 -2v-398l66 -4v-203q-33 -7 -66 -7q-15 0 -32 2t-26 4z" />
    <glyph glyph-name="afii10092" unicode="&#x44a;" horiz-adv-x="617" 
d="M316 489v-166q24 4 59 4q110 0 158.5 -39.5t48.5 -118.5v-17q0 -79 -50.5 -118.5t-165.5 -39.5q-56 0 -108 3.5t-76 6.5l-25 4v394h-134q-6 19 -6 49q0 13 1.5 25t3.5 18l1 6h80q57 0 110 -3t78 -5zM366 228h-50v-135h50q33 0 45 13t12 46v17q0 33 -12 46t-45 13z" />
    <glyph glyph-name="afii10093" unicode="&#x44b;" horiz-adv-x="716" 
d="M200 496v-173q24 4 59 4q110 0 158.5 -39.5t48.5 -118.5v-17q0 -79 -50.5 -118.5t-165.5 -39.5q-56 0 -108 3.5t-76 6.5l-25 4v488q40 8 79 8q18 0 38 -2t31 -4zM250 228h-50v-135h50q32 0 44.5 13t12.5 46v17q0 33 -12.5 46t-44.5 13zM675 496v-492q-39 -8 -79 -8
q-18 0 -38 2t-31 4l-11 2v492q40 8 80 8q18 0 37.5 -2t30.5 -4z" />
    <glyph glyph-name="afii10094" unicode="&#x44c;" horiz-adv-x="501" 
d="M200 496v-173q24 4 59 4q110 0 158.5 -39.5t48.5 -118.5v-17q0 -79 -50.5 -118.5t-165.5 -39.5q-56 0 -108 3.5t-76 6.5l-25 4v488q40 8 79 8q18 0 38 -2t31 -4zM250 228h-50v-135h50q32 0 44.5 13t12.5 46v17q0 33 -12.5 46t-44.5 13z" />
    <glyph glyph-name="afii10095" unicode="&#x44d;" horiz-adv-x="488" 
d="M293 197h-154q-6 20 -6 49q0 13 1.5 25.5t3.5 18.5l1 5h154v35q0 44 -13 61.5t-47 17.5q-35 0 -47.5 -13t-12.5 -45v-6q-35 -8 -70 -8q-15 0 -32 2t-27 4l-9 2v6q0 81 42.5 118.5t155.5 37.5q117 0 168 -44t51 -133v-160q0 -89 -57.5 -133t-189.5 -44q-38 0 -74.5 6.5
t-54.5 13.5l-17 7q-9 20 -9 50q0 8 1 16t2 13.5t2.5 10t2.5 6.5l1 3q0 -1 17.5 -7.5t54 -13.5t73.5 -7q50 0 69.5 17.5t19.5 61.5v27z" />
    <glyph glyph-name="afii10096" unicode="&#x44e;" horiz-adv-x="726" 
d="M264 170v36h-64v-202q-40 -8 -80 -8q-17 0 -37 2t-31 4l-11 2v492q40 8 79 8q18 0 38 -2t31 -4l11 -2v-191h64v25q0 89 49 133t162 44q112 0 161.5 -44.5t49.5 -132.5v-160q0 -88 -49.5 -132.5t-161.5 -44.5q-113 0 -162 44t-49 133zM423 330v-160q0 -44 11.5 -61.5
t40.5 -17.5t40.5 17.5t11.5 61.5v160q0 44 -11.5 61.5t-40.5 17.5t-40.5 -17.5t-11.5 -61.5z" />
    <glyph glyph-name="afii10097" unicode="&#x44f;" horiz-adv-x="507" 
d="M307 6v170h-50l-78 -172q-44 -8 -84 -8q-18 0 -37.5 2t-30.5 4l-11 2l113 187q-94 32 -94 141v15q0 78 50.5 117t165.5 39q56 0 110 -3.5t79 -6.5l26 -3v-484q-40 -7 -80 -7q-18 0 -37.5 1.5t-30.5 3.5zM251 274h56v131h-56q-32 0 -44.5 -13t-12.5 -45v-15
q0 -32 12.5 -45t44.5 -13z" />
    <glyph glyph-name="uni0450" unicode="&#x450;" horiz-adv-x="504" 
d="M36 170v160q0 89 51.5 133t168.5 44q120 0 165.5 -43t45.5 -134v-119q-44 -14 -135 -14h-136v-27q0 -44 19.5 -61.5t71.5 -17.5q41 0 80 7t58.5 13.5t19.5 7.5l1 -3q1 -2 2.5 -6.5t2.5 -10t2 -13.5t1 -16q0 -13 -2 -25.5t-4 -18.5l-3 -6q-65 -27 -158 -27
q-134 0 -192.5 44t-58.5 133zM196 295h121v35q0 44 -13 61.5t-48 17.5q-34 0 -47 -17.5t-13 -61.5v-35zM252 558l-146 138q38 8 73 8q16 0 34 -2t27 -4l10 -2l92 -138q-21 -8 -45 -8q-10 0 -21 2t-18 4z" />
    <glyph glyph-name="afii10071" unicode="&#x451;" horiz-adv-x="504" 
d="M36 170v160q0 89 51.5 133t168.5 44q120 0 165.5 -43t45.5 -134v-119q-44 -14 -135 -14h-136v-27q0 -44 19.5 -61.5t71.5 -17.5q41 0 80 7t58.5 13.5t19.5 7.5l1 -3q1 -2 2.5 -6.5t2.5 -10t2 -13.5t1 -16q0 -13 -2 -25.5t-4 -18.5l-3 -6q-65 -27 -158 -27
q-134 0 -192.5 44t-58.5 133zM196 295h121v35q0 44 -13 61.5t-48 17.5q-34 0 -47 -17.5t-13 -61.5v-35zM209 676v-110q-27 -7 -62 -7q-16 0 -31.5 1.5t-23.5 3.5l-7 2v110q27 7 62 7q16 0 31.5 -1.5t23.5 -3.5zM419 676v-110q-27 -7 -62 -7q-16 0 -31.5 1.5t-23.5 3.5l-7 2
v110q27 7 62 7q16 0 31.5 -1.5t23.5 -3.5z" />
    <glyph glyph-name="afii10099" unicode="&#x452;" horiz-adv-x="548" 
d="M353 -42v372q0 44 -12 61.5t-43 17.5q-20 0 -36.5 -7t-23.5 -14l-6 -7v-377q-40 -8 -79 -8q-18 0 -38 2t-31 4l-11 2v549h-43q-6 17 -6 45q0 12 1.5 23t2.5 16l2 5h52l17 54q33 8 67 8q15 0 31.5 -2t25.5 -4l9 -2v-54h144q6 -18 6 -44q0 -12 -1.5 -23t-2.5 -17l-2 -5
h-144v-83q51 37 126 37q82 0 118 -44.5t36 -132.5v-372q0 -83 -35 -124t-115 -41q-17 0 -34 1.5t-29.5 4t-22 5t-15.5 4.5l-6 1q-6 21 -6 45l6 44q14 -7 47 -7q29 0 40 15t11 52z" />
    <glyph glyph-name="afii10100" unicode="&#x453;" horiz-adv-x="399" 
d="M346 696l-146 -138q-23 -8 -45 -8q-11 0 -22 2t-17 4l-6 2l91 138q35 8 72 8q16 0 34 -2t29 -4zM200 402v-398q-40 -8 -80 -8q-17 0 -37 2t-31 4l-11 2v486q88 10 220 10h111q6 -20 6 -49q0 -13 -1.5 -25.5t-2.5 -17.5l-2 -6h-172z" />
    <glyph glyph-name="afii10101" unicode="&#x454;" horiz-adv-x="493" 
d="M365 197h-169v-27q0 -44 19 -61.5t71 -17.5q38 0 75.5 7t55.5 13.5t18 7.5l1 -3q1 -2 2.5 -6.5t2.5 -10t2 -13.5t1 -16q0 -13 -2 -25.5t-4 -18.5l-3 -6q-62 -27 -149 -27q-133 0 -191.5 44t-58.5 133v160q0 89 51.5 133t168.5 44q114 0 157.5 -37.5t43.5 -118.5v-6
q-35 -8 -71 -8q-16 0 -33.5 2t-26.5 4l-10 2v6q0 32 -13 45t-47 13q-35 0 -47.5 -17.5t-12.5 -61.5v-35h169q6 -19 6 -49q0 -13 -1.5 -25t-3.5 -18z" />
    <glyph glyph-name="afii10102" unicode="&#x455;" horiz-adv-x="511" 
d="M199 361v-20q0 -15 13 -22t41 -13q24 -4 36.5 -6.5t39 -9t42.5 -13t37.5 -18.5t33.5 -25t21 -32.5t9 -42.5v-20q0 -74 -51 -110t-168 -36q-123 0 -169 39t-46 121v8q39 7 77 7q17 0 36.5 -2t30.5 -4l10 -1v-8q0 -34 13 -48t47 -14q35 0 47.5 10.5t12.5 37.5v20
q0 27 -59 37q-29 5 -43 8t-44.5 11.5t-48 18t-37.5 24.5t-29.5 36t-9.5 47v20q0 74 50 110t165 36q119 0 164 -39t45 -121v-8q-39 -7 -77 -7q-17 0 -36.5 2t-29.5 4l-11 1v8q0 34 -11.5 48t-43.5 14t-44.5 -11t-12.5 -37z" />
    <glyph glyph-name="afii10103" unicode="&#x456;" horiz-adv-x="241" 
d="M200 496v-492q-40 -8 -80 -8q-17 0 -37 2t-31 4l-11 2v492q40 8 79 8q18 0 38 -2t31 -4zM200 696v-122q-40 -7 -80 -7q-17 0 -37 1.5t-31 3.5l-11 2v122q40 8 79 8q18 0 38 -2t31 -4z" />
    <glyph glyph-name="afii10104" unicode="&#x457;" horiz-adv-x="241" 
d="M200 496v-492q-40 -8 -80 -8q-17 0 -37 2t-31 4l-11 2v492q40 8 79 8q18 0 38 -2t31 -4zM95 696v-109q-27 -7 -62 -7q-16 0 -31.5 2t-23.5 4l-7 1v109q27 8 62 8q16 0 31.5 -2t23.5 -4zM270 696v-109q-28 -7 -62 -7q-16 0 -31.5 2t-22.5 4l-8 1v109q27 8 62 8
q16 0 31.5 -2t22.5 -4z" />
    <glyph glyph-name="afii10105" unicode="&#x458;" horiz-adv-x="252" 
d="M51 -42v538q40 8 80 8q18 0 38 -2t31 -4l11 -2v-538q0 -83 -35 -124t-115 -41q-17 0 -34 1.5t-29.5 4t-22 5t-15.5 4.5l-6 1q-6 21 -6 45l6 44q14 -7 47 -7q29 0 39.5 15t10.5 52zM211 696v-122q-40 -7 -80 -7q-18 0 -38 1.5t-31 3.5l-11 2v122q40 8 80 8q18 0 38 -2
t31 -4z" />
    <glyph glyph-name="afii10106" unicode="&#x459;" horiz-adv-x="804" 
d="M87 183l36 307q78 14 190 14q50 0 97.5 -3.5t69.5 -6.5l23 -4v-167q24 4 59 4q110 0 158.5 -39.5t48.5 -118.5v-17q0 -79 -50.5 -118.5t-165.5 -39.5q-56 0 -108 3.5t-77 6.5l-24 4v394h-88l-22 -219q-10 -98 -56 -144t-155 -46q-6 19 -6 49q0 13 1.5 25t3.5 18l1 6
q32 0 45 20t19 72zM553 228h-50v-135h50q32 0 44.5 13t12.5 46v17q0 33 -12.5 46t-44.5 13z" />
    <glyph glyph-name="afii10107" unicode="&#x45a;" horiz-adv-x="785" 
d="M484 496v-173q24 4 59 4q110 0 158.5 -39.5t48.5 -118.5v-17q0 -79 -50.5 -118.5t-165.5 -39.5q-56 0 -108 3.5t-76 6.5l-25 4v198h-125v-202q-40 -8 -80 -8q-17 0 -37 2t-31 4l-11 2v492q40 8 79 8q18 0 38 -2t31 -4l11 -2v-191h125v191q39 8 79 8q18 0 38 -2t31 -4z
M534 228h-50v-135h50q32 0 44.5 13t12.5 46v17q0 33 -12.5 46t-44.5 13z" />
    <glyph glyph-name="afii10108" unicode="&#x45b;" horiz-adv-x="548" 
d="M376 553h-144v-83q51 37 126 37q82 0 118 -44.5t36 -132.5v-326q-40 -8 -80 -8q-18 0 -37.5 2t-30.5 4l-11 2v326q0 44 -12 61.5t-43 17.5q-20 0 -36.5 -7t-23.5 -14l-6 -7v-377q-40 -8 -79 -8q-18 0 -38 2t-31 4l-11 2v549h-43q-6 17 -6 45q0 12 1.5 23t2.5 16l2 5h52
l17 54q33 8 67 8q15 0 31.5 -2t25.5 -4l9 -2v-54h144q6 -18 6 -44q0 -12 -1.5 -23t-2.5 -17z" />
    <glyph glyph-name="afii10109" unicode="&#x45c;" horiz-adv-x="527" 
d="M409 696l-146 -138q-23 -8 -45 -8q-11 0 -22 2t-17 4l-6 2l91 138q35 8 72 8q16 0 34 -2t28 -4zM351 4l-121 202l-30 -7v-195q-40 -8 -80 -8q-17 0 -37 2t-31 4l-11 2v492q40 8 79 8q18 0 38 -2t31 -4l11 -2v-191l30 6l109 185q43 8 83 8q18 0 37 -2t29 -4l11 -2
l-136 -236l151 -256q-39 -8 -79 -8q-18 0 -39 2t-33 4z" />
    <glyph glyph-name="uni045D" unicode="&#x45d;" horiz-adv-x="533" 
d="M267 558l-146 138q38 8 73 8q16 0 34 -2t28 -4l9 -2l92 -138q-22 -8 -45 -8q-10 0 -21 2t-17 4zM493 496v-492q-40 -8 -80 -8q-18 0 -38 2t-31 4l-11 2v256l-150 -256q-36 -8 -71 -8q-16 0 -34 2t-28 4l-9 2v492q40 8 79 8q18 0 38 -2t31 -4l11 -2v-256l151 256
q35 8 71 8q16 0 33.5 -2t27.5 -4z" />
    <glyph glyph-name="afii10110" unicode="&#x45e;" horiz-adv-x="520" 
d="M203 -47l13 45l-51 6l-154 492q39 8 76 8q16 0 36 -2t31 -4l12 -2l95 -360l95 360q41 8 78 8q17 0 36 -2t30 -4l11 -2l-168 -538q-27 -88 -73.5 -126.5t-131.5 -38.5q-18 0 -35.5 3.5t-25.5 6.5l-8 3q-8 18 -8 46q0 12 2 23.5t4 16.5l2 6q24 -7 66 -7q53 0 68 62z
M261 562q-91 0 -124.5 30t-33.5 94v9q26 8 51 8q12 0 24.5 -2t19.5 -4l7 -2v-10q0 -31 12 -43t44 -12q31 0 43 12t12 43v10q26 8 51 8q12 0 24.5 -2t19.5 -4l7 -2v-9q0 -64 -33.5 -94t-123.5 -30z" />
    <glyph glyph-name="afii10193" unicode="&#x45f;" horiz-adv-x="527" 
d="M197 -109v108q-42 1 -81 4t-57 5l-18 2v486q40 8 79 8q18 0 38 -2t31 -4l11 -2v-398h126v398q40 8 80 8q18 0 38 -2t31 -4l11 -2v-486q-62 -8 -156 -11v-108q-34 -7 -67 -7q-15 0 -31.5 2t-25.5 4z" />
    <glyph glyph-name="afii10050" unicode="&#x490;" horiz-adv-x="458" 
d="M209 593v-589q-42 -8 -84 -8q-19 0 -40 2t-33 4l-11 2v686q88 10 220 10h36v118q33 7 67 7q15 0 31.5 -1.5t25.5 -3.5l9 -2v-225h-221z" />
    <glyph glyph-name="afii10098" unicode="&#x491;" horiz-adv-x="398" 
d="M370 402h-170v-398q-40 -8 -80 -8q-17 0 -37 2t-31 4l-11 2v486q73 10 180 10h16v109q32 7 66 7q15 0 31.5 -2t25.5 -4l10 -1v-207z" />
    <glyph glyph-name="uni04D8" unicode="&#x4d8;" horiz-adv-x="574" 
d="M186 395h184v113q0 52 -19 72t-71 20q-51 0 -70 -20t-19 -72v-12q-37 -7 -75 -7q-16 0 -35 1.5t-29 3.5l-11 2v12q0 102 51.5 150.5t188.5 48.5t197 -50t60 -149v-316q0 -100 -60 -149.5t-198 -49.5q-139 0 -191.5 48.5t-52.5 150.5v190q49 13 150 13zM195 297v-105
q0 -51 18.5 -71.5t66.5 -20.5q52 0 71 20t19 72v105h-175z" />
    <glyph glyph-name="afii10846" unicode="&#x4d9;" horiz-adv-x="504" 
d="M467 330v-160q0 -89 -51 -133t-168 -44q-120 0 -166 43t-46 134v120q44 14 136 14h136v26q0 44 -19.5 61.5t-71.5 17.5q-41 0 -80 -7t-58.5 -13.5t-19.5 -7.5l-1 3q-1 2 -2.5 6.5t-2.5 10t-2 13.5t-1 16q0 13 2 25.5t4 18.5l3 6q65 27 158 27q134 0 192 -44t58 -133z
M308 206h-121v-36q0 -44 13 -61.5t48 -17.5q34 0 47 17.5t13 61.5v36z" />
    <glyph glyph-name="Wgrave" unicode="&#x1e80;" horiz-adv-x="960" 
d="M574 4l-94 527l-94 -527q-55 -8 -115 -8q-27 0 -55.5 2t-43.5 4l-15 2l-148 692q43 8 81 8q17 0 38 -2t34 -4l12 -2l102 -541l102 541q45 8 102 8q25 0 50.5 -2t39.5 -4l13 -2l101 -541l102 541q45 8 84 8q17 0 37 -2t32 -4l12 -2l-148 -692q-54 -8 -113 -8q-27 0 -56 2
t-44 4zM479 754l-145 138q38 8 73 8q16 0 33.5 -2t27.5 -4l10 -2l92 -138q-22 -8 -46 -8q-9 0 -20.5 2t-17.5 4z" />
    <glyph glyph-name="wgrave" unicode="&#x1e81;" horiz-adv-x="808" 
d="M471 4l-66 336l-68 -336q-51 -8 -106 -8q-25 0 -51 2t-40 4l-14 2l-117 492q40 8 77 8q16 0 36 -2t32 -4l11 -2l71 -363l75 363q41 8 94 8q23 0 46.5 -2t35.5 -4l12 -2l73 -363l71 363q43 8 80 8q16 0 35 -2t30 -4l11 -2l-116 -492q-50 -8 -105 -8q-24 0 -51 2t-41 4z
M404 558l-146 138q38 8 73 8q16 0 34 -2t27 -4l10 -2l92 -138q-22 -8 -45 -8q-10 0 -21 2t-18 4z" />
    <glyph glyph-name="Wacute" unicode="&#x1e82;" horiz-adv-x="960" 
d="M574 4l-94 527l-94 -527q-55 -8 -115 -8q-27 0 -55.5 2t-43.5 4l-15 2l-148 692q43 8 81 8q17 0 38 -2t34 -4l12 -2l102 -541l102 541q45 8 102 8q25 0 50.5 -2t39.5 -4l13 -2l101 -541l102 541q45 8 84 8q17 0 37 -2t32 -4l12 -2l-148 -692q-54 -8 -113 -8q-27 0 -56 2
t-44 4zM625 892l-145 -138q-24 -8 -46 -8q-10 0 -21.5 2t-17.5 4l-6 2l92 138q34 8 71 8q16 0 34 -2t28 -4z" />
    <glyph glyph-name="wacute" unicode="&#x1e83;" horiz-adv-x="808" 
d="M471 4l-66 336l-68 -336q-51 -8 -106 -8q-25 0 -51 2t-40 4l-14 2l-117 492q40 8 77 8q16 0 36 -2t32 -4l11 -2l71 -363l75 363q41 8 94 8q23 0 46.5 -2t35.5 -4l12 -2l73 -363l71 363q43 8 80 8q16 0 35 -2t30 -4l11 -2l-116 -492q-50 -8 -105 -8q-24 0 -51 2t-41 4z
M550 696l-146 -138q-24 -8 -45 -8q-11 0 -22 2t-17 4l-6 2l91 138q35 8 72 8q15 0 33.5 -2t29.5 -4z" />
    <glyph glyph-name="Wdieresis" unicode="&#x1e84;" horiz-adv-x="960" 
d="M574 4l-94 527l-94 -527q-55 -8 -115 -8q-27 0 -55.5 2t-43.5 4l-15 2l-148 692q43 8 81 8q17 0 38 -2t34 -4l12 -2l102 -541l102 541q45 8 102 8q25 0 50.5 -2t39.5 -4l13 -2l101 -541l102 541q45 8 84 8q17 0 37 -2t32 -4l12 -2l-148 -692q-54 -8 -113 -8q-27 0 -56 2
t-44 4zM437 863v-109q-28 -8 -63 -8q-15 0 -30.5 2t-23.5 4l-8 2v109q28 7 62 7q16 0 31.5 -2t23.5 -4zM647 863v-109q-28 -8 -63 -8q-15 0 -30.5 2t-23.5 4l-8 2v109q28 7 62 7q16 0 31.5 -2t23.5 -4z" />
    <glyph glyph-name="wdieresis" unicode="&#x1e85;" horiz-adv-x="808" 
d="M471 4l-66 336l-68 -336q-51 -8 -106 -8q-25 0 -51 2t-40 4l-14 2l-117 492q40 8 77 8q16 0 36 -2t32 -4l11 -2l71 -363l75 363q41 8 94 8q23 0 46.5 -2t35.5 -4l12 -2l73 -363l71 363q43 8 80 8q16 0 35 -2t30 -4l11 -2l-116 -492q-50 -8 -105 -8q-24 0 -51 2t-41 4z
M361 696v-109q-28 -7 -62 -7q-16 0 -31.5 2t-23.5 4l-7 1v109q27 8 62 8q15 0 30.5 -2t23.5 -4zM571 696v-109q-28 -7 -62 -7q-16 0 -31.5 2t-23.5 4l-7 1v109q27 8 62 8q15 0 30.5 -2t23.5 -4z" />
    <glyph glyph-name="Ygrave" unicode="&#x1ef2;" horiz-adv-x="628" 
d="M607 696l-209 -444v-248q-41 -8 -84 -8q-19 0 -40 2t-32 4l-12 2v248l-210 444q51 8 91 8q18 0 40.5 -2t36.5 -4l13 -2l113 -281l113 281q49 8 90 8q19 0 41.5 -2t35.5 -4zM314 754l-146 138q38 8 73 8q16 0 34 -2t28 -4l10 -2l91 -138q-21 -8 -45 -8q-10 0 -21 2t-18 4z
" />
    <glyph glyph-name="ygrave" unicode="&#x1ef3;" horiz-adv-x="520" 
d="M203 -47l13 45l-51 6l-154 492q39 8 76 8q16 0 36 -2t31 -4l12 -2l95 -360l95 360q41 8 78 8q17 0 36 -2t30 -4l11 -2l-168 -538q-27 -88 -73.5 -126.5t-131.5 -38.5q-18 0 -35.5 3.5t-25.5 6.5l-8 3q-8 18 -8 46q0 12 2 23.5t4 16.5l2 6q24 -7 66 -7q53 0 68 62z
M259 558l-145 138q38 8 73 8q16 0 33.5 -2t27.5 -4l10 -2l92 -138q-22 -8 -45 -8q-10 0 -21.5 2t-17.5 4z" />
    <glyph glyph-name="figuredash" unicode="&#x2012;" horiz-adv-x="475" 
d="M443 278h-413q-6 19 -6 49q0 13 1.5 25t2.5 18l2 6h413q7 -20 7 -49q0 -13 -2 -25.5t-4 -17.5z" />
    <glyph glyph-name="endash" unicode="&#x2013;" horiz-adv-x="475" 
d="M443 228h-413q-6 19 -6 49q0 13 1.5 25t2.5 18l2 6h413q7 -20 7 -49q0 -13 -2 -25.5t-4 -17.5z" />
    <glyph glyph-name="emdash" unicode="&#x2014;" horiz-adv-x="625" 
d="M593 228h-563q-6 19 -6 49q0 13 1.5 25t2.5 18l2 6h563q7 -20 7 -49q0 -13 -2 -25.5t-4 -17.5z" />
    <glyph glyph-name="quoteleft" unicode="&#x2018;" horiz-adv-x="206" 
d="M33 447q0 50 9 94t22 71t26 47t22 29l9 8q18 8 36 8q8 0 17 -2t14 -4l5 -2q-4 -9 -10 -27t-16 -82.5t-10 -139.5q-31 -8 -62 -8q-14 0 -29.5 2t-23.5 4z" />
    <glyph glyph-name="quoteright" unicode="&#x2019;" horiz-adv-x="206" 
d="M174 696q0 -50 -9 -94t-22 -71t-26 -47t-22 -28l-9 -9q-18 -8 -36 -8q-8 0 -17.5 2t-14.5 4l-5 2q4 9 10 27t16.5 82.5t10.5 139.5q31 8 62 8q14 0 29.5 -2t24.5 -4z" />
    <glyph glyph-name="quotesinglbase" unicode="&#x201a;" horiz-adv-x="206" 
d="M174 128q0 -50 -9 -93.5t-22 -71t-26 -47.5t-22 -28l-9 -9q-18 -7 -36 -7q-8 0 -17.5 2t-14.5 4l-5 1q4 9 10 27t16.5 82.5t10.5 139.5q31 8 62 8q14 0 29.5 -2t24.5 -4z" />
    <glyph glyph-name="quotedblleft" unicode="&#x201c;" horiz-adv-x="358" 
d="M33 447q0 50 9 94t22 71t26 47t22 29l9 8q18 8 36 8q8 0 17 -2t14 -4l5 -2q-4 -9 -10 -27t-16 -82.5t-10 -139.5q-31 -8 -62 -8q-14 0 -29.5 2t-23.5 4zM185 447q0 50 9 94t22 71t26 47t22 29l9 8q19 8 37 8q8 0 17 -2t14 -4l5 -2q-4 -9 -10 -27t-16 -82.5t-10 -139.5
q-31 -8 -63 -8q-14 0 -29.5 2t-23.5 4z" />
    <glyph glyph-name="quotedblright" unicode="&#x201d;" horiz-adv-x="358" 
d="M174 696q0 -50 -9 -94t-22 -71t-26 -47t-22 -28l-9 -9q-18 -8 -36 -8q-8 0 -17.5 2t-14.5 4l-5 2q4 9 10 27t16.5 82.5t10.5 139.5q31 8 62 8q14 0 29.5 -2t24.5 -4zM326 696q0 -50 -9 -94t-22 -71t-26 -47t-22 -28l-9 -9q-18 -8 -36 -8q-8 0 -17 2t-14 4l-5 2q4 9 10 27
t16 82.5t10 139.5q31 8 62 8q14 0 29.5 -2t24.5 -4z" />
    <glyph glyph-name="quotedblbase" unicode="&#x201e;" horiz-adv-x="358" 
d="M174 128q0 -50 -9 -93.5t-22 -71t-26 -47.5t-22 -28l-9 -9q-18 -7 -36 -7q-8 0 -17.5 2t-14.5 4l-5 1q4 9 10 27t16.5 82.5t10.5 139.5q31 8 62 8q14 0 29.5 -2t24.5 -4zM326 128q0 -50 -9.5 -93.5t-23 -71t-27 -47.5t-22.5 -28l-10 -9q-17 -7 -34 -7q-8 0 -16.5 2
t-13.5 4l-4 1q4 9 10 27t16 82.5t10 139.5q31 8 62 8q14 0 29.5 -2t24.5 -4z" />
    <glyph glyph-name="dagger" unicode="&#x2020;" horiz-adv-x="427" 
d="M397 402h-121v-498q-31 -8 -63 -8q-14 0 -29.5 2t-23.5 4l-9 2v498h-121q-7 18 -7 49q0 13 1.5 25t3.5 18l2 6h121v196q31 8 62 8q14 0 30 -2t25 -4l8 -2v-196h121q7 -20 7 -49q0 -13 -2 -25.5t-4 -17.5z" />
    <glyph glyph-name="daggerdbl" unicode="&#x2021;" horiz-adv-x="427" 
d="M397 100h-121v-196q-31 -8 -63 -8q-14 0 -29.5 2t-23.5 4l-9 2v196h-121q-7 19 -7 49q0 13 1.5 25.5t3.5 17.5l2 6h121v204h-121q-7 18 -7 49q0 13 1.5 25t3.5 18l2 6h121v196q31 8 62 8q14 0 30 -2t25 -4l8 -2v-196h121q7 -20 7 -49q0 -13 -2 -25.5t-4 -17.5l-1 -6h-121
v-204h121q7 -19 7 -49q0 -13 -2 -25t-4 -18z" />
    <glyph glyph-name="bullet" unicode="&#x2022;" horiz-adv-x="290" 
d="M251 404q7 -48 7 -104q0 -24 -2 -50t-4 -40l-1 -14q-54 -8 -108 -8q-24 0 -51 2t-42 4l-15 2q-7 48 -7 104q0 24 2 50t4 40l1 14q54 8 108 8q24 0 51 -2t42 -4z" />
    <glyph glyph-name="ellipsis" unicode="&#x2026;" horiz-adv-x="674" 
d="M192 137v-133q-39 -8 -76 -8q-17 0 -35.5 2t-28.5 4l-11 2v133q37 8 75 8q17 0 36 -2t30 -4zM413 137v-133q-39 -8 -76 -8q-17 0 -36 2t-29 4l-11 2v133q38 8 76 8q16 0 35 -2t30 -4zM633 137v-133q-38 -8 -75 -8q-17 0 -36 2t-30 4l-10 2v133q38 8 76 8q16 0 35 -2
t29 -4z" />
    <glyph glyph-name="perthousand" unicode="&#x2030;" horiz-adv-x="924" 
d="M600 696l-418 -692q-34 -8 -67 -8q-15 0 -32 2t-26 4l-9 2l418 692q33 8 67 8q15 0 31.5 -2t25.5 -4zM28 560v29q0 114 137 114q138 0 138 -114v-29q0 -115 -138 -115q-137 0 -137 115zM322 111v29q0 115 137 115t137 -115v-29q0 -114 -137 -114t-137 114zM621 111v29
q0 115 137 115t137 -115v-29q0 -114 -137 -114t-137 114zM122 589v-29q0 -32 43 -32t43 32v29q0 16 -9.5 23t-33.5 7t-33.5 -7t-9.5 -23zM715 140v-29q0 -31 43 -31t43 31v29q0 31 -43 31q-24 0 -33.5 -7t-9.5 -24zM416 140v-29q0 -31 43 -31t43 31v29q0 17 -9.5 24t-33.5 7
q-43 0 -43 -31z" />
    <glyph glyph-name="guilsinglleft" unicode="&#x2039;" horiz-adv-x="315" 
d="M20 271l201 201q18 -9 39 -30q9 -9 17 -19t11 -15l3 -6l-132 -131l133 -133q-10 -18 -31 -39q-9 -9 -18.5 -16.5t-14.5 -10.5l-6 -3z" />
    <glyph glyph-name="guilsinglright" unicode="&#x203a;" horiz-adv-x="315" 
d="M292 270l-202 -201q-18 9 -39 30q-9 9 -16.5 19t-10.5 15l-3 5l131 132l-132 132q10 19 30 40q9 9 19 16.5t15 10.5l5 3z" />
    <glyph glyph-name="fraction" unicode="&#x2044;" horiz-adv-x="608" 
d="M589 696l-418 -692q-39 -8 -76 -8q-17 0 -35.5 2t-29.5 4l-10 2l418 692q37 8 75 8q17 0 36 -2t29 -4z" />
    <glyph glyph-name="Euro" unicode="&#x20ac;" horiz-adv-x="597" 
d="M406 223h-164v-31q0 -52 23.5 -72t86.5 -20q51 0 100 10.5t72.5 19.5t23.5 11l1 -3q1 -2 2 -6.5t2.5 -10.5t2.5 -15t1 -18q0 -15 -2.5 -29t-4.5 -21l-2 -6q-81 -39 -197 -39q-148 0 -212.5 49.5t-64.5 149.5v31h-43q-6 19 -6 49q0 13 1.5 25t3.5 18l1 6h43v40h-43
q-6 19 -6 50q0 13 1.5 25t3.5 18l1 6h43v48q0 99 60 149t197 50q136 0 187.5 -48.5t51.5 -150.5v-12q-38 -7 -75 -7q-17 0 -35.5 1.5t-29.5 3.5l-10 2v12q0 51 -19 71.5t-70 20.5t-70 -20t-19 -72v-48h165q6 -20 6 -49q0 -13 -1.5 -25.5t-3.5 -18.5l-1 -6h-165v-40h164
q7 -20 7 -49q0 -13 -1.5 -25.5t-3.5 -18.5z" />
    <glyph glyph-name="uni20B4" unicode="&#x20b4;" horiz-adv-x="552" 
d="M502 223h-271q-17 -21 -17 -48q0 -42 21.5 -58.5t77.5 -16.5q45 0 87.5 9.5t63.5 18t21 10.5l1 -2q1 -3 2.5 -8t2.5 -11t2 -15t1 -18q0 -16 -2 -30t-4 -20l-3 -7q-71 -34 -173 -34q-139 0 -200 45.5t-61 136.5q0 12 3.5 24t6.5 18l3 6h-33q-6 19 -6 49q0 13 1.5 25
t3.5 18l1 6h471q7 -20 7 -49q0 -13 -1.5 -25.5t-3.5 -18.5zM522 379h-471q-7 19 -7 49q0 13 2 25.5t4 18.5l1 5h274q15 23 15 48q0 42 -21.5 58.5t-77.5 16.5q-45 0 -87.5 -9t-63.5 -17.5t-21 -10.5l-1 3q-1 2 -2.5 7t-2.5 11t-2 15t-1 18q0 15 2 29t4 20l3 7q70 34 173 34
q139 0 200 -45.5t61 -136.5q0 -11 -3 -23t-6 -18l-3 -7h31q6 -19 6 -49q0 -13 -1.5 -25t-2.5 -18z" />
    <glyph glyph-name="afii61352" unicode="&#x2116;" horiz-adv-x="1094" 
d="M41 4v692q35 8 71 8q16 0 33.5 -2t27.5 -4l10 -2l235 -386v386q40 8 80 8q18 0 38 -2t31 -4l11 -2v-692q-36 -8 -71 -8q-16 0 -33.5 2t-27.5 4l-10 2l-236 386v-386q-40 -8 -80 -8q-17 0 -37 2t-31 4zM637 420v110q0 89 49 133t161 44t161.5 -44.5t49.5 -132.5v-110
q0 -88 -49.5 -132.5t-161.5 -44.5t-161 44t-49 133zM1044 0h-394q-6 21 -6 53q0 15 1.5 28.5t2.5 19.5l2 6h394q6 -21 6 -54q0 -14 -1.5 -27.5t-2.5 -19.5zM787 530v-110q0 -44 13 -61.5t47 -17.5t47 17.5t13 61.5v110q0 44 -13 61.5t-47 17.5t-47 -17.5t-13 -61.5z" />
    <glyph glyph-name="trademark" unicode="&#x2122;" horiz-adv-x="701" 
d="M273 640h-79v-288q-25 -4 -48 -4l-47 4v288h-80q-4 11 -4 30l4 30h254q4 -12 4 -30zM673 698v-345q-22 -5 -45 -5l-44 5v220l-57 -171q-18 -4 -39 -4l-39 4l-57 171v-221q-22 -4 -44 -4l-45 4v346q0 4 63 4l64 -4l58 -175l58 175q31 5 63 5z" />
    <glyph glyph-name="arrowleft" unicode="&#x2190;" horiz-adv-x="1046" 
d="M391 -3l-354 354l354 353l75 -75l-225 -225h747v-107h-747l226 -225z" />
    <glyph glyph-name="arrowup" unicode="&#x2191;" horiz-adv-x="781" 
d="M337 -196v747l-225 -225l-75 76l354 354l353 -354l-75 -75l-225 224v-747h-107z" />
    <glyph glyph-name="arrowright" unicode="&#x2192;" horiz-adv-x="1046" 
d="M58 297v107h747l-224 225l74 75l354 -353l-354 -354l-75 75l225 225h-747z" />
    <glyph glyph-name="arrowdown" unicode="&#x2193;" horiz-adv-x="781" 
d="M391 -201l-354 354l75 76l225 -226v747h107v-747l225 225l75 -75z" />
    <glyph glyph-name="uni2196" unicode="&#x2196;" horiz-adv-x="805" 
d="M58 200v500h500v-107h-318l528 -527l-75 -76l-528 528v-318h-107z" />
    <glyph glyph-name="uni2197" unicode="&#x2197;" horiz-adv-x="805" 
d="M247 593v107h500v-500h-107v318l-527 -528l-76 76l528 527h-318z" />
    <glyph glyph-name="uni2198" unicode="&#x2198;" horiz-adv-x="805" 
d="M247 0v107h318l-528 527l76 76l527 -528v318h107v-500h-500z" />
    <glyph glyph-name="uni2199" unicode="&#x2199;" horiz-adv-x="805" 
d="M58 0v500h107v-318l528 528l75 -76l-528 -527h318v-107h-500z" />
    <glyph glyph-name="minus" unicode="&#x2212;" horiz-adv-x="399" 
d="M368 278h-338q-6 19 -6 49q0 13 1.5 25t2.5 18l2 6h338q7 -20 7 -49q0 -13 -1.5 -25.5t-3.5 -17.5z" />
    <glyph glyph-name="commaaccent" unicode="&#xf6c3;" horiz-adv-x="206" 
d="M152 -42q0 -47 -16 -86t-32 -54l-15 -15q-16 -6 -31 -6l-32 6q28 55 28 155q24 8 49 8q11 0 23 -2t19 -4z" />
    <glyph glyph-name="dollaroldstyle" unicode="&#xf724;" horiz-adv-x="511" 
d="M199 361v-20q0 -15 13 -22t41 -13q24 -4 36.5 -6.5t39 -9t42.5 -13t37.5 -18.5t33.5 -25t21 -32.5t9 -42.5v-20q0 -63 -37.5 -98.5t-120.5 -44.5v-92q-31 -8 -62 -8q-14 0 -29.5 2t-24.5 4l-8 2v92q-85 9 -118.5 47t-33.5 110v8q39 7 77 7q17 0 36.5 -2t30.5 -4l10 -1v-8
q0 -34 13 -48t47 -14q35 0 47.5 10.5t12.5 37.5v20q0 27 -59 37q-29 5 -43 8t-44.5 11.5t-48 18t-37.5 24.5t-29.5 36t-9.5 47v20q0 62 35 97.5t114 44.5v93q31 8 62 8q14 0 29.5 -2t24.5 -4l8 -2v-92q85 -9 118 -47t33 -110v-8q-39 -7 -77 -7q-17 0 -36.5 2t-29.5 4l-11 1
v8q0 34 -11.5 48t-43.5 14t-44.5 -11t-12.5 -37z" />
    <glyph glyph-name="zerooldstyle" unicode="&#xf730;" horiz-adv-x="534" 
d="M36 170v160q0 88 54.5 132.5t176.5 44.5t176 -44t54 -133v-160q0 -89 -54 -133t-176 -44t-176.5 44.5t-54.5 132.5zM196 330v-160q0 -44 15 -61.5t56 -17.5t56.5 17.5t15.5 61.5v160q0 44 -15.5 61.5t-56.5 17.5t-56 -17.5t-15 -61.5z" />
    <glyph glyph-name="oneoldstyle" unicode="&#xf731;" horiz-adv-x="396" 
d="M311 503v-499q-40 -8 -80 -8q-18 0 -37.5 2t-30.5 4l-11 2v380q-34 0 -65.5 2t-46.5 4l-14 3q-7 21 -7 51q0 14 1.5 26.5t3.5 18.5l2 6q109 8 285 8z" />
    <glyph glyph-name="twooldstyle" unicode="&#xf732;" 
d="M325 321v13q0 41 -16 58t-55 17t-54 -17.5t-15 -57.5v-12q-38 -7 -77 -7q-17 0 -36 1.5t-30 3.5l-11 2v12q0 88 48 130.5t175 42.5q122 0 175.5 -43t53.5 -130v-13q0 -36 -21.5 -64t-53.5 -43.5t-70 -29t-70 -22.5t-53.5 -22t-21.5 -28v-14h277q7 -19 7 -49
q0 -13 -1.5 -25t-3.5 -18l-2 -6h-212q-59 0 -114 2.5t-80 5.5l-26 2v102q0 39 29.5 68.5t72 46.5t84.5 31t71.5 29.5t29.5 33.5z" />
    <glyph glyph-name="threeoldstyle" unicode="&#xf733;" horiz-adv-x="536" 
d="M47 397q-7 22 -7 52q0 13 2 26t4 20l1 6h428q7 -20 7 -49q0 -13 -2 -25.5t-4 -17.5l-1 -6l-174 -187q204 0 204 -189v-41q0 -96 -64 -144t-210 -48q-50 0 -97 9.5t-70 19.5l-22 10q-9 20 -9 51q0 9 1 17t2.5 13.5t2.5 10t2 6.5l1 3q0 -2 22.5 -11.5t69 -20t94.5 -10.5
q68 0 93 21t25 73v41q0 50 -23 71t-82 21h-93q-6 21 -6 52q0 14 1.5 27t2.5 19l2 6l157 174h-258z" />
    <glyph glyph-name="fouroldstyle" unicode="&#xf734;" horiz-adv-x="560" 
d="M482 296v-192h51q7 -22 7 -52q0 -13 -2 -26t-4 -20l-1 -6h-46v-196q-39 -8 -78 -8q-17 0 -36.5 2t-30.5 4l-11 2v196h-296q-6 20 -6 49l158 447q28 7 72 7q21 0 41 -1.5t30 -3.5l9 -2l-137 -392h131v192q37 8 74 8q17 0 35.5 -2t29.5 -4z" />
    <glyph glyph-name="fiveoldstyle" unicode="&#xf735;" horiz-adv-x="530" 
d="M212 403l-11 -175h41q143 0 200 -48t57 -147v-47q0 -96 -63 -144t-206 -48q-50 0 -97 9.5t-69 19.5l-23 10q-9 20 -9 51q0 9 1 17t2 13.5t2.5 10t2.5 6.5l1 3q0 -2 22.5 -11.5t69 -20t95.5 -10.5q64 0 88 21t24 73v47q0 49 -21.5 70t-76.5 21h-181q-7 21 -7 52l26 315
q88 10 220 10h150q7 -20 7 -49q0 -13 -1.5 -25.5t-3.5 -17.5l-2 -6h-238z" />
    <glyph glyph-name="sixoldstyle" unicode="&#xf736;" horiz-adv-x="553" 
d="M196 421q58 37 143 37q95 0 136 -44t41 -133v-111q0 -89 -56 -133t-184 -44q-127 0 -183.5 44.5t-56.5 132.5v343q0 194 272 194q43 0 84 -6.5t61 -12.5l20 -6q7 -19 7 -49q0 -8 -0.5 -16t-2 -14l-2.5 -10t-1 -7l-1 -2q0 1 -21.5 7t-64.5 12t-88 6q-57 0 -80 -23.5
t-23 -72.5v-92zM196 332v-162q0 -44 17 -61.5t63 -17.5t63.5 17.5t17.5 61.5v111q0 44 -16 61.5t-59 17.5q-27 0 -48.5 -7t-29.5 -14z" />
    <glyph glyph-name="sevenoldstyle" unicode="&#xf737;" horiz-adv-x="529" 
d="M495 451l-219 -648q-30 -7 -77 -7q-22 0 -43.5 2t-31.5 4l-10 1l209 593h-283q-7 22 -7 52q0 13 1.5 26t3.5 20l2 6h448q7 -20 7 -49z" />
    <glyph glyph-name="eightoldstyle" unicode="&#xf738;" horiz-adv-x="554" 
d="M47 486v44q0 89 54 133t176 44t176 -44t54 -133v-44q0 -90 -70 -126q85 -35 85 -131v-59q0 -89 -57 -133t-188 -44t-188 44t-57 133v59q0 96 85 131q-70 36 -70 126zM191 229v-59q0 -44 18.5 -61.5t67.5 -17.5t67.5 17.5t18.5 61.5v59q0 44 -18.5 61.5t-67.5 17.5
t-67.5 -17.5t-18.5 -61.5zM206 530v-44q0 -44 15.5 -61.5t55.5 -17.5t55.5 17.5t15.5 61.5v44q0 44 -15.5 61.5t-55.5 17.5t-55.5 -17.5t-15.5 -61.5z" />
    <glyph glyph-name="nineoldstyle" unicode="&#xf739;" horiz-adv-x="553" 
d="M357 -12v103q-58 -38 -144 -38q-94 0 -135.5 44.5t-41.5 133.5v99q0 89 56 133.5t184 44.5t184 -44.5t56 -133.5v-342q0 -194 -276 -194q-44 0 -86 6.5t-62 12.5l-21 6q-7 19 -7 49q0 8 0.5 16t2 13.5t2.5 10t1 7.5l1 2q0 -1 22 -7t67 -12t91 -6q59 0 82.5 24t23.5 72z
M357 180v150q0 45 -17.5 62.5t-63.5 17.5t-63 -17.5t-17 -62.5v-99q0 -44 15.5 -62t58.5 -18q27 0 49 7t30 15z" />
    <glyph glyph-name="NULL" horiz-adv-x="0" 
 />
    <glyph glyph-name="T_h" horiz-adv-x="1018" 
d="M702 690v-220q51 37 126 37q82 0 118 -44.5t36 -132.5v-326q-40 -8 -80 -8q-18 0 -37.5 2t-30.5 4l-11 2v326q0 44 -12 61.5t-43 17.5q-20 0 -36.5 -7t-23.5 -14l-6 -7v-377q-40 -8 -79 -8q-18 0 -38 2t-31 4l-11 2v589h-181v-589q-41 -8 -84 -8q-19 0 -39.5 2t-32.5 4
l-11 2v589h-169q-6 21 -6 53q0 15 1.5 28.5t2.5 19.5l2 6h470q60 0 111.5 -2.5t72.5 -5.5z" />
    <glyph glyph-name="T_h.caron" horiz-adv-x="1018" 
d="M702 690v-220q51 37 126 37q82 0 118 -44.5t36 -132.5v-326q-40 -8 -80 -8q-18 0 -37.5 2t-30.5 4l-11 2v326q0 44 -12 61.5t-43 17.5q-20 0 -36.5 -7t-23.5 -14l-6 -7v-377q-40 -8 -79 -8q-18 0 -38 2t-31 4l-11 2v589h-181v-589q-41 -8 -84 -8q-19 0 -39.5 2t-32.5 4
l-11 2v589h-169q-6 21 -6 53q0 15 1.5 28.5t2.5 19.5l2 6h470q60 0 111.5 -2.5t72.5 -5.5zM205 892l73 -74l74 74q24 7 46 7q10 0 21.5 -1.5t17.5 -3.5l6 -2l-97 -137q-33 -8 -67 -8q-15 0 -32 2t-27 4l-9 2l-97 137q22 7 45 7z" />
    <glyph glyph-name="T_h.commaaccent" horiz-adv-x="1018" 
d="M702 690v-220q51 37 126 37q82 0 118 -44.5t36 -132.5v-326q-40 -8 -80 -8q-18 0 -37.5 2t-30.5 4l-11 2v326q0 44 -12 61.5t-43 17.5q-20 0 -36.5 -7t-23.5 -14l-6 -7v-377q-40 -8 -79 -8q-18 0 -38 2t-31 4l-11 2v589h-181v-589q-41 -8 -84 -8q-19 0 -39.5 2t-32.5 4
l-11 2v589h-169q-6 21 -6 53q0 15 1.5 28.5t2.5 19.5l2 6h470q60 0 111.5 -2.5t72.5 -5.5zM329 -42q0 -47 -15.5 -86t-31.5 -54l-15 -15q-17 -6 -32 -6l-32 6q28 55 28 155q24 8 49 8q11 0 23.5 -2t18.5 -4z" />
    <glyph glyph-name="A.smcp" horiz-adv-x="509" 
d="M10 3l144 519q46 6 100 6l101 -6l144 -519q-38 -6 -72 -6l-74 6l-25 95h-147l-25 -95q-39 -6 -73 -6zM255 408l-55 -216h108z" />
    <glyph glyph-name="Aacute.smcp" horiz-adv-x="509" 
d="M10 3l144 519q46 6 100 6l101 -6l144 -519q-38 -6 -72 -6l-74 6l-25 95h-147l-25 -95q-39 -6 -73 -6zM255 408l-55 -216h108zM376 673l-119 -107q-21 -7 -40 -7q-9 0 -18.5 1.5t-14.5 3.5l-6 2l71 107q30 6 63 6z" />
    <glyph glyph-name="Abreve.smcp" horiz-adv-x="509" 
d="M10 3l144 519q46 6 100 6l101 -6l144 -519q-38 -6 -72 -6l-74 6l-25 95h-147l-25 -95q-39 -6 -73 -6zM255 408l-55 -216h108zM254 559q-75 0 -103 24t-28 76v7q23 5 44 5l47 -5v-9q0 -23 8 -31t32 -8t32.5 8t8.5 31v9q22 5 45 5l45 -5v-7q0 -52 -28 -76t-103 -24z" />
    <glyph glyph-name="Acircumflex.smcp" horiz-adv-x="509" 
d="M10 3l144 519q46 6 100 6l101 -6l144 -519q-38 -6 -72 -6l-74 6l-25 95h-147l-25 -95q-39 -6 -73 -6zM255 408l-55 -216h108zM311 566l-57 52l-57 -52q-21 -7 -40 -7q-9 0 -18.5 1.5t-14.5 3.5l-6 2l76 108q29 6 60 6l60 -6l77 -108q-20 -7 -40 -7z" />
    <glyph glyph-name="Agrave.smcp" horiz-adv-x="509" 
d="M10 3l144 519q46 6 100 6l101 -6l144 -519q-38 -6 -72 -6l-74 6l-25 95h-147l-25 -95q-39 -6 -73 -6zM255 408l-55 -216h108zM251 566l-119 107q33 6 65 6l62 -6l71 -107q-18 -7 -39 -7z" />
    <glyph glyph-name="Adieresis.smcp" horiz-adv-x="509" 
d="M10 3l144 519q46 6 100 6l101 -6l144 -519q-38 -6 -72 -6l-74 6l-25 95h-147l-25 -95q-39 -6 -73 -6zM255 408l-55 -216h108zM226 651v-84q-25 -7 -56 -7q-14 0 -27.5 2t-20.5 4l-7 1v84q24 7 55 7q14 0 28 -2t21 -4zM394 651v-84q-25 -7 -56 -7q-14 0 -27.5 2t-20.5 4
l-7 1v84q24 7 55 7q14 0 28 -2t21 -4z" />
    <glyph glyph-name="Amacron.smcp" horiz-adv-x="509" 
d="M10 3l144 519q46 6 100 6l101 -6l144 -519q-38 -6 -72 -6l-74 6l-25 95h-147l-25 -95q-39 -6 -73 -6zM255 408l-55 -216h108zM372 578h-235q-5 11 -5 30l5 32h235q5 -13 5 -32z" />
    <glyph glyph-name="Aogonek.smcp" horiz-adv-x="509" 
d="M379 -72q0 36 38 69l-64 6l-25 95h-147l-25 -95q-39 -6 -73 -6l-73 6l144 519q46 6 100 6l101 -6l144 -519q-10 -2 -24 -3q-22 -37 -22 -63q0 -19 19 -19l24 5q4 -10 4 -23l-4 -22q-15 -13 -48 -13q-69 0 -69 63zM255 408l-55 -216h108z" />
    <glyph glyph-name="Aring.smcp" horiz-adv-x="509" 
d="M10 3l144 519q46 6 100 6l101 -6l144 -519q-38 -6 -72 -6l-74 6l-25 95h-147l-25 -95q-39 -6 -73 -6zM179 610v10q0 58 75 58q76 0 76 -58v-10q0 -58 -76 -58q-75 0 -75 58zM255 408l-55 -216h108zM230 620v-10q0 -17 24 -17t24 17v10q0 17 -24 17t-24 -17z" />
    <glyph glyph-name="Atilde.smcp" horiz-adv-x="509" 
d="M10 3l144 519q46 6 100 6l101 -6l144 -519q-38 -6 -72 -6l-74 6l-25 95h-147l-25 -95q-39 -6 -73 -6zM255 408l-55 -216h108zM113 567v3q0 47 15.5 69t56.5 22q33 0 54 -10.5t32.5 -20.5t20.5 -10q16 0 22 6.5t6 24.5v4q19 6 38 6l37 -6v-3q0 -49 -15 -70.5t-57 -21.5
q-33 0 -54 10t-32.5 20.5t-20.5 10.5q-17 0 -22.5 -6t-5.5 -25v-3q-19 -7 -38 -7q-8 0 -17 2t-15 4z" />
    <glyph glyph-name="AE.smcp" horiz-adv-x="628" 
d="M417 223v-128h183q6 -19 6 -48q0 -12 -1.5 -24t-2.5 -17l-2 -6h-153q-48 0 -93 2t-66 4l-21 2v90h-86l-25 -95q-39 -6 -73 -6l-73 6l142 514q119 8 295 8h149q6 -19 6 -47q0 -12 -1.5 -24t-2.5 -18l-2 -6h-179v-113h156q5 -19 5 -47l-5 -47h-156zM262 430l-62 -238h67
v238h-5z" />
    <glyph glyph-name="AEacute.smcp" horiz-adv-x="628" 
d="M417 223v-128h183q6 -19 6 -48q0 -12 -1.5 -24t-2.5 -17l-2 -6h-153q-48 0 -93 2t-66 4l-21 2v90h-86l-25 -95q-39 -6 -73 -6l-73 6l142 514q119 8 295 8h149q6 -19 6 -47q0 -12 -1.5 -24t-2.5 -18l-2 -6h-179v-113h156q5 -19 5 -47l-5 -47h-156zM262 430l-62 -238h67
v238h-5zM502 673l-120 -107q-20 -7 -39 -7q-9 0 -19 1.5t-16 3.5l-5 2l71 107q30 6 63 6z" />
    <glyph glyph-name="B.smcp" horiz-adv-x="480" 
d="M35 8v509q84 12 203 12q111 0 159 -35.5t48 -108.5v-18q0 -70 -74 -98q83 -27 83 -104v-21q0 -75 -50.5 -111.5t-165.5 -36.5q-53 0 -103.5 3t-74.5 6zM184 223v-134h54q38 0 52 11.5t14 43.5v21q0 32 -14.5 45t-51.5 13h-54zM184 435v-122h54q32 0 45 12.5t13 41.5v18
q0 27 -12.5 38.5t-45.5 11.5h-54z" />
    <glyph glyph-name="C.smcp" horiz-adv-x="455" 
d="M30 152v221q0 79 49 118.5t161 39.5q111 0 152 -38t41 -120v-9q-34 -6 -67 -6l-67 6v9q0 36 -12.5 50t-46.5 14t-47 -14t-13 -50v-221q0 -36 16.5 -50t61.5 -14q40 0 78.5 7.5t58 14.5t19.5 9l1 -3q1 -2 2 -6t2 -9.5t2 -13.5t1 -16q0 -13 -2 -25t-4 -18l-2 -6
q-67 -28 -157 -28q-121 0 -174 39.5t-53 118.5z" />
    <glyph glyph-name="Cacute.smcp" horiz-adv-x="455" 
d="M30 152v221q0 79 49 118.5t161 39.5q111 0 152 -38t41 -120v-9q-34 -6 -67 -6l-67 6v9q0 36 -12.5 50t-46.5 14t-47 -14t-13 -50v-221q0 -36 16.5 -50t61.5 -14q40 0 78.5 7.5t58 14.5t19.5 9l1 -3q1 -2 2 -6t2 -9.5t2 -13.5t1 -16q0 -13 -2 -25t-4 -18l-2 -6
q-67 -28 -157 -28q-121 0 -174 39.5t-53 118.5zM350 673l-120 -107q-20 -7 -39 -7q-9 0 -19 1.5t-16 3.5l-5 2l72 107q30 6 62 6z" />
    <glyph glyph-name="Ccaron.smcp" horiz-adv-x="455" 
d="M30 152v221q0 79 49 118.5t161 39.5q111 0 152 -38t41 -120v-9q-34 -6 -67 -6l-67 6v9q0 36 -12.5 50t-46.5 14t-47 -14t-13 -50v-221q0 -36 16.5 -50t61.5 -14q40 0 78.5 7.5t58 14.5t19.5 9l1 -3q1 -2 2 -6t2 -9.5t2 -13.5t1 -16q0 -13 -2 -25t-4 -18l-2 -6
q-67 -28 -157 -28q-121 0 -174 39.5t-53 118.5zM171 674l56 -53l58 53q21 6 40 6l38 -6l-76 -108q-28 -7 -59 -7q-13 0 -28 1.5t-24 3.5l-8 2l-77 108q19 6 40 6z" />
    <glyph glyph-name="Ccedilla.smcp" horiz-adv-x="455" 
d="M30 152v221q0 79 49 118.5t161 39.5q111 0 152 -38t41 -120v-9q-34 -6 -67 -6l-67 6v9q0 36 -12.5 50t-46.5 14t-47 -14t-13 -50v-221q0 -36 16.5 -50t61.5 -14q40 0 78.5 7.5t58 14.5t19.5 9l1 -3q1 -2 2 -6t2 -9.5t2 -13.5t1 -16q0 -13 -2 -25t-4 -18l-2 -6
q-61 -25 -144 -28v-13q0 -10 19 -16.5t38 -18t19 -34.5v-8q0 -58 -95 -58q-52 0 -71.5 15.5t-19.5 47.5v4q19 3 35 3l36 -3v-4q0 -19 20 -19q12 0 16 3t4 11v8q0 11 -18.5 17t-37.5 17.5t-19 34.5v16q-88 9 -127 47.5t-39 107.5z" />
    <glyph glyph-name="Ccircumflex.smcp" horiz-adv-x="455" 
d="M30 152v221q0 79 49 118.5t161 39.5q111 0 152 -38t41 -120v-9q-34 -6 -67 -6l-67 6v9q0 36 -12.5 50t-46.5 14t-47 -14t-13 -50v-221q0 -36 16.5 -50t61.5 -14q40 0 78.5 7.5t58 14.5t19.5 9l1 -3q1 -2 2 -6t2 -9.5t2 -13.5t1 -16q0 -13 -2 -25t-4 -18l-2 -6
q-67 -28 -157 -28q-121 0 -174 39.5t-53 118.5zM285 566l-58 52l-56 -52q-21 -7 -40 -7q-9 0 -19 1.5t-16 3.5l-5 2l77 108q29 6 59 6l60 -6l76 -108q-18 -7 -38 -7z" />
    <glyph glyph-name="Cdotaccent.smcp" horiz-adv-x="455" 
d="M30 152v221q0 79 49 118.5t161 39.5q111 0 152 -38t41 -120v-9q-34 -6 -67 -6l-67 6v9q0 36 -12.5 50t-46.5 14t-47 -14t-13 -50v-221q0 -36 16.5 -50t61.5 -14q40 0 78.5 7.5t58 14.5t19.5 9l1 -3q1 -2 2 -6t2 -9.5t2 -13.5t1 -16q0 -13 -2 -25t-4 -18l-2 -6
q-67 -28 -157 -28q-121 0 -174 39.5t-53 118.5zM298 663v-96q-35 -7 -71 -7q-16 0 -33.5 2t-27.5 4l-10 1v96q36 6 71 6z" />
    <glyph glyph-name="D.smcp" horiz-adv-x="484" 
d="M35 517q83 12 207 12q113 0 162 -38.5t49 -117.5v-221q0 -79 -49 -117.5t-162 -38.5q-55 0 -107 3t-76 6l-24 3v509zM184 436v-347h58q35 0 48.5 13.5t13.5 49.5v221q0 36 -13.5 49.5t-48.5 13.5h-58z" />
    <glyph glyph-name="Dcaron.smcp" horiz-adv-x="484" 
d="M35 517q83 12 207 12q113 0 162 -38.5t49 -117.5v-221q0 -79 -49 -117.5t-162 -38.5q-55 0 -107 3t-76 6l-24 3v509zM184 436v-347h58q35 0 48.5 13.5t13.5 49.5v221q0 36 -13.5 49.5t-48.5 13.5h-58zM185 674l57 -53l57 53q21 6 40 6l39 -6l-76 -108q-29 -7 -59 -7
l-61 7l-76 108q19 6 39 6z" />
    <glyph glyph-name="Dcroat.smcp" horiz-adv-x="509" 
d="M60 517q83 12 207 12q113 0 162.5 -38.5t49.5 -117.5v-221q0 -79 -49.5 -117.5t-162.5 -38.5q-55 0 -107 3t-76 6l-24 3v219h-32q-6 16 -6 43q0 12 1.5 22.5t2.5 15.5l2 5h32v204zM267 227h-58v-138h58q36 0 49 13.5t13 49.5v221q0 36 -13 49.5t-49 13.5h-58v-123h58
q6 -17 6 -43q0 -12 -1.5 -22.5t-3.5 -15.5z" />
    <glyph glyph-name="Eth.smcp" horiz-adv-x="509" 
d="M60 517q83 12 207 12q113 0 162.5 -38.5t49.5 -117.5v-221q0 -79 -49.5 -117.5t-162.5 -38.5q-55 0 -107 3t-76 6l-24 3v219h-32q-6 16 -6 43q0 12 1.5 22.5t2.5 15.5l2 5h32v204zM267 227h-58v-138h58q36 0 49 13.5t13 49.5v221q0 36 -13 49.5t-49 13.5h-58v-123h58
q6 -17 6 -43q0 -12 -1.5 -22.5t-3.5 -15.5z" />
    <glyph glyph-name="Thorn.smcp" horiz-adv-x="459" 
d="M184 522v-87q19 1 47 1q106 0 152 -38.5t46 -117.5v-23q0 -79 -46 -117.5t-152 -38.5l-47 2v-100q-38 -6 -74 -6l-75 6v519q37 6 75 6zM184 343v-149h42q31 0 42 13t11 50v23q0 37 -11 50t-42 13h-42z" />
    <glyph glyph-name="E.smcp" horiz-adv-x="419" 
d="M184 223v-128h209q5 -19 5 -48l-5 -47h-179q-48 0 -92.5 2t-65.5 4l-21 2v509q72 8 179 8h175q5 -19 5 -47l-5 -48h-205v-113h180q6 -19 6 -47q0 -12 -1.5 -24t-2.5 -18l-2 -5h-180z" />
    </font>
</defs>
</svg>
