<svg width="18" height="13" viewBox="0 0 18 13" fill="none" xmlns="http://www.w3.org/2000/svg">
<path d="M17.0329 3.57797C17.0335 2.70524 16.703 1.86477 16.1081 1.22619C15.5132 0.587622 14.6983 0.198498 13.8277 0.137361C10.3448 -0.0437231 6.80763 -0.043723 3.34891 0.125289C1.64672 0.125289 0.131646 1.76712 0.131646 3.57797C-0.0438819 5.32808 -0.0438819 7.09137 0.131646 8.84149C0.130027 9.69004 0.46433 10.5047 1.06151 11.1076C1.65869 11.7104 2.47021 12.0524 3.31873 12.0588C5.06922 12.1553 6.82372 12.2036 8.58226 12.2036C10.3408 12.2036 12.0852 12.1573 13.8156 12.0648C14.6611 12.0633 15.4722 11.7296 16.074 11.1357C16.6758 10.5418 17.0202 9.73521 17.0329 8.88978C17.2801 7.1278 17.2801 5.33994 17.0329 3.57797ZM15.8256 8.78716C15.8227 8.81122 15.8227 8.83555 15.8256 8.8596C15.8241 9.12645 15.7698 9.39037 15.6661 9.63623C15.5623 9.88209 15.411 10.105 15.2209 10.2923C15.0309 10.4796 14.8057 10.6276 14.5583 10.7277C14.3109 10.8278 14.0462 10.8781 13.7794 10.8757C10.3049 11.0568 6.82338 11.0568 3.34891 10.8757C3.07999 10.8733 2.81421 10.8176 2.56705 10.7116C2.31988 10.6056 2.09627 10.4515 1.90922 10.2582C1.72217 10.065 1.57542 9.8365 1.4775 9.58602C1.37958 9.33555 1.33246 9.0681 1.33888 8.79924C1.1666 7.09938 1.1666 5.38647 1.33888 3.68662C1.34159 3.66457 1.34159 3.64227 1.33888 3.62022C1.3342 3.05365 1.54049 2.5056 1.91761 2.08274C2.29472 1.65988 2.81568 1.39246 3.37909 1.33252C5.10543 1.25405 6.84384 1.21783 8.58226 1.21783C10.3207 1.21783 12.0591 1.25405 13.7854 1.33252H13.8156C14.8478 1.33252 15.8256 2.44317 15.8256 3.62022C15.8227 3.65033 15.8227 3.68066 15.8256 3.71076C16.062 5.3906 16.062 7.09526 15.8256 8.77509V8.78716Z" fill="#CEB195"/>
<path d="M11.4734 5.69678L7.16355 3.47547C7.093 3.43901 7.01596 3.4168 6.93683 3.41011C6.85769 3.40342 6.77802 3.41238 6.70235 3.43648C6.62668 3.46058 6.5565 3.49935 6.49582 3.55058C6.43513 3.6018 6.38513 3.66448 6.34867 3.73503C6.3122 3.80558 6.28999 3.88261 6.2833 3.96175C6.27661 4.04088 6.28557 4.12055 6.30968 4.19622C6.33378 4.27189 6.37255 4.34207 6.42377 4.40276C6.475 4.46344 6.53767 4.51344 6.60822 4.54991L9.88585 6.23399L7.47139 7.48348V6.23399C7.47139 6.0739 7.4078 5.92037 7.2946 5.80717C7.1814 5.69397 7.02786 5.63038 6.86778 5.63038C6.70769 5.63038 6.55415 5.69397 6.44096 5.80717C6.32776 5.92037 6.26416 6.0739 6.26416 6.23399V8.47944C6.26416 8.63953 6.32776 8.79306 6.44096 8.90626C6.55415 9.01946 6.70769 9.08306 6.86778 9.08306C6.96431 9.08344 7.05952 9.06068 7.14544 9.01666L11.4552 6.77121C11.5537 6.72022 11.6361 6.64312 11.6936 6.54836C11.7511 6.4536 11.7814 6.34483 11.7812 6.23399C11.7832 6.12499 11.7556 6.01749 11.7014 5.92291C11.6472 5.82832 11.5684 5.75018 11.4734 5.69678Z" fill="#CEB195"/>
</svg>
