<svg width="227" height="104" viewBox="0 0 227 104" fill="none" xmlns="http://www.w3.org/2000/svg">
<path d="M46.7027 3.82247L46.52 3.35706C50.0403 1.97499 53.9597 1.97499 57.48 3.35706L57.2973 3.82247C57.9649 4.08458 58.6178 4.39812 59.25 4.76314L61.3952 6.00169L61.6452 5.56868L72.3714 11.7614L72.1214 12.1945L76.4119 14.6716L76.6619 14.2386L87.3881 20.4313L87.1381 20.8643L89.2833 22.1029C89.9156 22.4679 90.5135 22.8765 91.0743 23.3236L91.386 22.9327C94.3431 25.2904 96.3028 28.6846 96.866 32.4244L96.3716 32.4988C96.4784 33.2081 96.5333 33.9302 96.5333 34.6603V37.1374H97.0333V49.5229H96.5333V54.4771H97.0333V66.8626H96.5333V69.3397C96.5333 70.0698 96.4784 70.7919 96.3716 71.5012L96.866 71.5756C96.3028 75.3154 94.3431 78.7096 91.386 81.0673L91.0743 80.6764C90.5135 81.1235 89.9156 81.5321 89.2833 81.8971L87.1381 83.1357L87.3881 83.5687L76.6619 89.7614L76.4119 89.3284L72.1214 91.8055L72.3714 92.2386L61.6452 98.4313L61.3952 97.9983L59.25 99.2369C58.6178 99.6019 57.9649 99.9154 57.2973 100.178L57.48 100.643C53.9597 102.025 50.0403 102.025 46.52 100.643L46.7027 100.178C46.0351 99.9154 45.3822 99.6019 44.75 99.2369L42.6048 97.9983L42.3548 98.4313L31.6286 92.2386L31.8786 91.8055L27.5881 89.3284L27.3381 89.7614L16.6119 83.5687L16.8619 83.1357L14.7167 81.8971C14.0844 81.5321 13.4865 81.1235 12.9257 80.6764L12.614 81.0673C9.6569 78.7096 7.69724 75.3154 7.13396 71.5756L7.62838 71.5012C7.52156 70.7919 7.46668 70.0698 7.46668 69.3397V66.8626H6.96668V54.4771H7.46668V49.5229H6.96668V37.1374H7.46668V34.6603C7.46668 33.9302 7.52156 33.2081 7.62838 32.4988L7.13396 32.4244C7.69724 28.6846 9.6569 25.2904 12.614 22.9327L12.9257 23.3236C13.4865 22.8765 14.0844 22.4679 14.7167 22.1029L16.8619 20.8643L16.6119 20.4313L27.3381 14.2386L27.5881 14.6716L31.8786 12.1945L31.6286 11.7614L42.3548 5.56868L42.6048 6.00169L44.75 4.76314C45.3822 4.39812 46.0351 4.08458 46.7027 3.82247Z" fill="#FAFAFA" stroke="#EAECED" stroke-dasharray="4 10"/>
<path d="M46.7027 3.82247L46.52 3.35706C50.0403 1.97499 53.9597 1.97499 57.48 3.35706L57.2973 3.82247C57.9649 4.08458 58.6178 4.39812 59.25 4.76314L61.3952 6.00169L61.6452 5.56868L72.3714 11.7614L72.1214 12.1945L76.4119 14.6716L76.6619 14.2386L87.3881 20.4313L87.1381 20.8643L89.2833 22.1029C89.9156 22.4679 90.5135 22.8765 91.0743 23.3236L91.386 22.9327C94.3431 25.2904 96.3028 28.6846 96.866 32.4244L96.3716 32.4988C96.4784 33.2081 96.5333 33.9302 96.5333 34.6603V37.1374H97.0333V49.5229H96.5333V54.4771H97.0333V66.8626H96.5333V69.3397C96.5333 70.0698 96.4784 70.7919 96.3716 71.5012L96.866 71.5756C96.3028 75.3154 94.3431 78.7096 91.386 81.0673L91.0743 80.6764C90.5135 81.1235 89.9156 81.5321 89.2833 81.8971L87.1381 83.1357L87.3881 83.5687L76.6619 89.7614L76.4119 89.3284L72.1214 91.8055L72.3714 92.2386L61.6452 98.4313L61.3952 97.9983L59.25 99.2369C58.6178 99.6019 57.9649 99.9154 57.2973 100.178L57.48 100.643C53.9597 102.025 50.0403 102.025 46.52 100.643L46.7027 100.178C46.0351 99.9154 45.3822 99.6019 44.75 99.2369L42.6048 97.9983L42.3548 98.4313L31.6286 92.2386L31.8786 91.8055L27.5881 89.3284L27.3381 89.7614L16.6119 83.5687L16.8619 83.1357L14.7167 81.8971C14.0844 81.5321 13.4865 81.1235 12.9257 80.6764L12.614 81.0673C9.6569 78.7096 7.69724 75.3154 7.13396 71.5756L7.62838 71.5012C7.52156 70.7919 7.46668 70.0698 7.46668 69.3397V66.8626H6.96668V54.4771H7.46668V49.5229H6.96668V37.1374H7.46668V34.6603C7.46668 33.9302 7.52156 33.2081 7.62838 32.4988L7.13396 32.4244C7.69724 28.6846 9.6569 25.2904 12.614 22.9327L12.9257 23.3236C13.4865 22.8765 14.0844 22.4679 14.7167 22.1029L16.8619 20.8643L16.6119 20.4313L27.3381 14.2386L27.5881 14.6716L31.8786 12.1945L31.6286 11.7614L42.3548 5.56868L42.6048 6.00169L44.75 4.76314C45.3822 4.39812 46.0351 4.08458 46.7027 3.82247Z" fill="#FAFAFA" stroke="#EAECED" stroke-dasharray="4 10"/>
<rect opacity="0.2" x="43" y="20" width="184" height="64" rx="11" fill="#EAECED"/>
<path d="M44.75 20.7631C49.2363 18.173 54.7637 18.173 59.25 20.7631L75.4269 30.1029C79.9132 32.6931 82.6769 37.4799 82.6769 42.6603V61.3397C82.6769 66.5201 79.9132 71.3069 75.4269 73.8971L59.25 83.2369C54.7637 85.827 49.2363 85.827 44.75 83.2369L28.5731 73.8971C24.0868 71.3069 21.3231 66.5201 21.3231 61.3397V42.6603C21.3231 37.4799 24.0868 32.6931 28.5731 30.1029L44.75 20.7631Z" fill="#FAFAFA" stroke="#EAECED"/>
<path d="M46.5 26.1754C49.9034 24.2105 54.0966 24.2105 57.5 26.1754L71.6147 34.3246C75.0182 36.2895 77.1147 39.9209 77.1147 43.8509V60.1491C77.1147 64.0791 75.0182 67.7105 71.6147 69.6754L57.5 77.8246C54.0966 79.7895 49.9034 79.7895 46.5 77.8246L32.3853 69.6754C28.9819 67.7105 26.8853 64.0791 26.8853 60.1491V43.8509C26.8853 39.9209 28.9819 36.2895 32.3853 34.3246L46.5 26.1754Z" fill="url(#paint0_linear_29_541)"/>
<path fill-rule="evenodd" clip-rule="evenodd" d="M40 49.3582L42.0392 52.7059L46.4818 45.4019H52.381L50.7059 48.9017H56.4594L58.3529 45.4019L55.4398 40H45.2437L40 49.3582ZM64 53.9359L61.8824 50.5882L57.2689 57.8922H51.1429L52.8824 54.3924H46.9076L44.9412 57.8922L47.9664 63.2941H58.5546L64 53.9359Z" fill="white"/>
<path d="M106.249 55.9905H106.747L104.742 61.9275H104.006L102 55.9905H102.498L104.347 61.4564H104.394L106.249 55.9905Z" fill="#594B3E"/>
<path d="M111.848 59.1915H108.527V60.4418C108.527 60.5626 108.527 60.6491 108.527 60.7015C108.527 60.7538 108.53 60.8243 108.538 60.9129C108.546 60.9974 108.554 61.0558 108.561 61.088C108.573 61.1202 108.59 61.1665 108.614 61.2269C108.641 61.2833 108.67 61.3195 108.7 61.3356C108.731 61.3517 108.774 61.3779 108.828 61.4142C108.886 61.4464 108.946 61.4665 109.008 61.4745C109.073 61.4786 109.155 61.4886 109.251 61.5047C109.348 61.5168 109.45 61.5249 109.558 61.5289C109.67 61.5289 109.8 61.5289 109.947 61.5289C110.318 61.5289 110.594 61.5209 110.776 61.5047C110.957 61.4846 111.096 61.4242 111.193 61.3236C111.289 61.2229 111.344 61.1202 111.355 61.0155C111.367 60.9108 111.373 60.7196 111.373 60.4418V60.0733H111.848V60.4418C111.848 60.6753 111.844 60.8444 111.836 60.9491C111.832 61.0538 111.813 61.1826 111.778 61.3356C111.744 61.4846 111.687 61.5893 111.61 61.6497C111.533 61.7061 111.423 61.7685 111.28 61.8369C111.141 61.9054 110.963 61.9497 110.747 61.9698C110.53 61.9899 110.264 62 109.947 62C109.63 62 109.363 61.9899 109.147 61.9698C108.93 61.9497 108.753 61.9054 108.614 61.8369C108.474 61.7685 108.366 61.7061 108.289 61.6497C108.212 61.5893 108.156 61.4846 108.121 61.3356C108.086 61.1867 108.065 61.0618 108.057 60.9612C108.053 60.8565 108.051 60.6874 108.051 60.4538C108.051 60.4498 108.051 60.4458 108.051 60.4418V57.4763C108.051 57.0173 108.076 56.7092 108.127 56.5522C108.212 56.2985 108.413 56.1274 108.729 56.0388C109 55.9583 109.406 55.918 109.947 55.918C110.264 55.918 110.53 55.9281 110.747 55.9482C110.963 55.9684 111.141 56.0127 111.28 56.0811C111.423 56.1496 111.533 56.214 111.61 56.2744C111.687 56.3307 111.744 56.4354 111.778 56.5884C111.813 56.7374 111.832 56.8643 111.836 56.9689C111.844 57.0736 111.848 57.2427 111.848 57.4763V59.1915ZM108.527 57.4763V58.7265H111.373V57.4763C111.373 57.3273 111.371 57.2206 111.367 57.1562C111.367 57.0917 111.361 57.0112 111.349 56.9146C111.338 56.8179 111.32 56.7535 111.297 56.7213C111.278 56.6851 111.243 56.6408 111.193 56.5884C111.147 56.5321 111.09 56.4978 111.025 56.4858C110.963 56.4697 110.878 56.4515 110.77 56.4314C110.665 56.4072 110.548 56.3932 110.416 56.3891C110.289 56.3851 110.132 56.3831 109.947 56.3831C109.8 56.3831 109.67 56.3851 109.558 56.3891C109.45 56.3891 109.348 56.3972 109.251 56.4133C109.155 56.4254 109.073 56.4354 109.008 56.4435C108.946 56.4475 108.886 56.4676 108.828 56.5039C108.774 56.5361 108.731 56.5623 108.7 56.5824C108.67 56.5985 108.641 56.6368 108.614 56.6972C108.59 56.7535 108.573 56.7978 108.561 56.83C108.554 56.8622 108.546 56.9226 108.538 57.0112C108.53 57.0958 108.527 57.1642 108.527 57.2166C108.527 57.2689 108.527 57.3555 108.527 57.4763Z" fill="#594B3E"/>
<path d="M115.882 55.918C116.156 55.918 116.388 55.9281 116.578 55.9482C116.767 55.9684 116.923 56.0127 117.047 56.0811C117.171 56.1496 117.265 56.214 117.331 56.2744C117.397 56.3307 117.445 56.4334 117.476 56.5824C117.507 56.7314 117.524 56.8582 117.528 56.9629C117.536 57.0636 117.54 57.2307 117.54 57.4642C117.54 57.4682 117.54 57.4722 117.54 57.4763V61.9275H117.07V57.4763C117.07 57.3273 117.068 57.2206 117.064 57.1562C117.064 57.0917 117.059 57.0112 117.047 56.9146C117.036 56.8179 117.018 56.7535 116.995 56.7213C116.976 56.6851 116.941 56.6408 116.891 56.5884C116.844 56.5321 116.788 56.4978 116.723 56.4858C116.661 56.4697 116.576 56.4515 116.467 56.4314C116.363 56.4072 116.245 56.3932 116.114 56.3891C115.986 56.3851 115.83 56.3831 115.644 56.3831C115.459 56.3831 115.3 56.3851 115.169 56.3891C115.042 56.3932 114.924 56.4072 114.816 56.4314C114.711 56.4515 114.626 56.4697 114.56 56.4858C114.499 56.4978 114.443 56.5321 114.392 56.5884C114.346 56.6408 114.311 56.6851 114.288 56.7213C114.269 56.7535 114.253 56.8179 114.242 56.9146C114.23 57.0112 114.222 57.0917 114.219 57.1562C114.219 57.2206 114.219 57.3273 114.219 57.4763V61.9275H113.743V55.9905H114.219V56.4254H114.265C114.273 56.4133 114.29 56.3851 114.317 56.3408C114.344 56.2925 114.361 56.2643 114.369 56.2563C114.377 56.2442 114.396 56.22 114.427 56.1838C114.458 56.1435 114.483 56.1194 114.503 56.1113C114.526 56.1032 114.56 56.0851 114.607 56.0569C114.657 56.0288 114.705 56.0127 114.752 56.0086C114.802 56.0006 114.864 55.9885 114.937 55.9724C115.015 55.9563 115.098 55.9462 115.186 55.9422C115.275 55.9341 115.378 55.9281 115.494 55.9241C115.61 55.92 115.739 55.918 115.882 55.918Z" fill="#594B3E"/>
<path d="M120.218 60.4418C120.218 60.7196 120.223 60.9108 120.235 61.0155C120.247 61.1202 120.301 61.2229 120.397 61.3236C120.494 61.4242 120.633 61.4846 120.815 61.5047C120.996 61.5209 121.273 61.5289 121.644 61.5289H121.881V62H121.644C121.327 62 121.06 61.9899 120.844 61.9698C120.627 61.9497 120.448 61.9054 120.305 61.8369C120.165 61.7685 120.057 61.7061 119.98 61.6497C119.903 61.5893 119.847 61.4846 119.812 61.3356C119.777 61.1826 119.756 61.0538 119.748 60.9491C119.744 60.8444 119.742 60.6753 119.742 60.4418V56.4616H119.029V55.9905H119.742V55H120.218V55.9905H121.759V56.4616H120.218V60.4418Z" fill="#594B3E"/>
<path d="M126.686 55.9905H127.162V61.9275H126.686V61.4927H126.64C126.632 61.5047 126.615 61.5349 126.588 61.5833C126.561 61.6276 126.543 61.6557 126.536 61.6678C126.528 61.6759 126.509 61.698 126.478 61.7343C126.447 61.7705 126.42 61.7947 126.396 61.8067C126.377 61.8148 126.344 61.8329 126.298 61.8611C126.252 61.8852 126.203 61.9014 126.153 61.9094C126.107 61.9175 126.045 61.9295 125.968 61.9456C125.894 61.9617 125.813 61.9718 125.724 61.9758C125.635 61.9839 125.533 61.9899 125.417 61.994C125.301 61.998 125.172 62 125.029 62C124.615 62 124.294 61.9758 124.066 61.9275C123.838 61.8792 123.672 61.7765 123.568 61.6195C123.467 61.4625 123.408 61.3135 123.388 61.1726C123.373 61.0276 123.365 60.784 123.365 60.4418V55.9905H123.84V60.4418C123.84 60.7196 123.846 60.9108 123.858 61.0155C123.869 61.1202 123.923 61.2229 124.02 61.3236C124.117 61.4242 124.256 61.4846 124.437 61.5047C124.619 61.5209 124.895 61.5289 125.266 61.5289C125.413 61.5289 125.541 61.5289 125.649 61.5289C125.761 61.5249 125.865 61.5168 125.962 61.5047C126.058 61.4886 126.138 61.4786 126.199 61.4745C126.265 61.4665 126.325 61.4464 126.379 61.4142C126.437 61.3779 126.481 61.3517 126.512 61.3356C126.543 61.3195 126.57 61.2833 126.594 61.2269C126.621 61.1665 126.638 61.1202 126.646 61.088C126.657 61.0558 126.667 60.9974 126.675 60.9129C126.682 60.8243 126.686 60.7538 126.686 60.7015C126.686 60.6491 126.686 60.5626 126.686 60.4418V55.9905Z" fill="#594B3E"/>
<path d="M129.706 56.4254C129.714 56.4133 129.731 56.3851 129.758 56.3408C129.785 56.2925 129.803 56.2643 129.81 56.2563C129.818 56.2442 129.838 56.22 129.868 56.1838C129.899 56.1435 129.924 56.1194 129.944 56.1113C129.967 56.1032 130.002 56.0851 130.048 56.0569C130.098 56.0288 130.147 56.0127 130.193 56.0086C130.243 56.0006 130.305 55.9885 130.378 55.9724C130.456 55.9563 130.539 55.9462 130.628 55.9422C130.717 55.9341 130.819 55.9281 130.935 55.9241C131.051 55.92 131.18 55.918 131.323 55.918V56.3831H131.086C130.9 56.3831 130.742 56.3851 130.61 56.3891C130.483 56.3932 130.365 56.4072 130.257 56.4314C130.152 56.4515 130.067 56.4697 130.002 56.4858C129.94 56.4978 129.884 56.5321 129.834 56.5884C129.787 56.6408 129.753 56.6851 129.729 56.7213C129.71 56.7535 129.695 56.8179 129.683 56.9146C129.671 57.0112 129.664 57.0917 129.66 57.1562C129.66 57.2206 129.66 57.3273 129.66 57.4763V61.9275H129.184V55.9905H129.66V56.4254H129.706Z" fill="#594B3E"/>
<path d="M136.424 59.1915H133.103V60.4418C133.103 60.5626 133.103 60.6491 133.103 60.7015C133.103 60.7538 133.107 60.8243 133.114 60.9129C133.122 60.9974 133.13 61.0558 133.138 61.088C133.149 61.1202 133.166 61.1665 133.19 61.2269C133.217 61.2833 133.246 61.3195 133.277 61.3356C133.308 61.3517 133.35 61.3779 133.404 61.4142C133.462 61.4464 133.522 61.4665 133.584 61.4745C133.65 61.4786 133.731 61.4886 133.827 61.5047C133.924 61.5168 134.026 61.5249 134.134 61.5289C134.247 61.5289 134.376 61.5289 134.523 61.5289C134.894 61.5289 135.17 61.5209 135.352 61.5047C135.533 61.4846 135.672 61.4242 135.769 61.3236C135.866 61.2229 135.92 61.1202 135.931 61.0155C135.943 60.9108 135.949 60.7196 135.949 60.4418V60.0733H136.424V60.4418C136.424 60.6753 136.42 60.8444 136.412 60.9491C136.409 61.0538 136.389 61.1826 136.354 61.3356C136.32 61.4846 136.264 61.5893 136.186 61.6497C136.109 61.7061 135.999 61.7685 135.856 61.8369C135.717 61.9054 135.539 61.9497 135.323 61.9698C135.106 61.9899 134.84 62 134.523 62C134.206 62 133.939 61.9899 133.723 61.9698C133.507 61.9497 133.329 61.9054 133.19 61.8369C133.051 61.7685 132.942 61.7061 132.865 61.6497C132.788 61.5893 132.732 61.4846 132.697 61.3356C132.662 61.1867 132.641 61.0618 132.633 60.9612C132.629 60.8565 132.627 60.6874 132.627 60.4538C132.627 60.4498 132.627 60.4458 132.627 60.4418V57.4763C132.627 57.0173 132.653 56.7092 132.703 56.5522C132.788 56.2985 132.989 56.1274 133.306 56.0388C133.576 55.9583 133.982 55.918 134.523 55.918C134.84 55.918 135.106 55.9281 135.323 55.9482C135.539 55.9684 135.717 56.0127 135.856 56.0811C135.999 56.1496 136.109 56.214 136.186 56.2744C136.264 56.3307 136.32 56.4354 136.354 56.5884C136.389 56.7374 136.409 56.8643 136.412 56.9689C136.42 57.0736 136.424 57.2427 136.424 57.4763V59.1915ZM133.103 57.4763V58.7265H135.949V57.4763C135.949 57.3273 135.947 57.2206 135.943 57.1562C135.943 57.0917 135.937 57.0112 135.926 56.9146C135.914 56.8179 135.897 56.7535 135.873 56.7213C135.854 56.6851 135.819 56.6408 135.769 56.5884C135.723 56.5321 135.667 56.4978 135.601 56.4858C135.539 56.4697 135.454 56.4515 135.346 56.4314C135.242 56.4072 135.124 56.3932 134.992 56.3891C134.865 56.3851 134.708 56.3831 134.523 56.3831C134.376 56.3831 134.247 56.3851 134.134 56.3891C134.026 56.3891 133.924 56.3972 133.827 56.4133C133.731 56.4254 133.65 56.4354 133.584 56.4435C133.522 56.4475 133.462 56.4676 133.404 56.5039C133.35 56.5361 133.308 56.5623 133.277 56.5824C133.246 56.5985 133.217 56.6368 133.19 56.6972C133.166 56.7535 133.149 56.7978 133.138 56.83C133.13 56.8622 133.122 56.9226 133.114 57.0112C133.107 57.0958 133.103 57.1642 133.103 57.2166C133.103 57.2689 133.103 57.3555 133.103 57.4763Z" fill="#594B3E"/>
<path d="M142 57.8447H141.525V57.4763C141.525 57.3273 141.523 57.2206 141.519 57.1562C141.519 57.0917 141.513 57.0112 141.502 56.9146C141.49 56.8179 141.473 56.7535 141.449 56.7213C141.43 56.6851 141.395 56.6408 141.345 56.5884C141.299 56.5321 141.243 56.4978 141.177 56.4858C141.115 56.4697 141.03 56.4515 140.922 56.4314C140.818 56.4072 140.7 56.3932 140.568 56.3891C140.441 56.3851 140.284 56.3831 140.099 56.3831C139.952 56.3831 139.823 56.3851 139.71 56.3891C139.602 56.3891 139.5 56.3972 139.403 56.4133C139.307 56.4254 139.226 56.4354 139.16 56.4435C139.098 56.4475 139.038 56.4676 138.98 56.5039C138.926 56.5361 138.884 56.5623 138.853 56.5824C138.822 56.5985 138.793 56.6368 138.766 56.6972C138.743 56.7535 138.725 56.7978 138.714 56.83C138.706 56.8622 138.698 56.9226 138.69 57.0112C138.683 57.0958 138.679 57.1642 138.679 57.2166C138.679 57.2689 138.679 57.3555 138.679 57.4763V58.3399L142 59.2036V60.4418C142 60.6753 141.996 60.8444 141.988 60.9491C141.985 61.0538 141.965 61.1826 141.93 61.3356C141.896 61.4846 141.84 61.5893 141.762 61.6497C141.685 61.7061 141.575 61.7685 141.432 61.8369C141.293 61.9054 141.115 61.9497 140.899 61.9698C140.682 61.9899 140.416 62 140.099 62C139.782 62 139.515 61.9899 139.299 61.9698C139.083 61.9497 138.905 61.9054 138.766 61.8369C138.627 61.7685 138.518 61.7061 138.441 61.6497C138.364 61.5893 138.308 61.4846 138.273 61.3356C138.238 61.1867 138.217 61.0618 138.209 60.9612C138.205 60.8565 138.203 60.6874 138.203 60.4538C138.203 60.4498 138.203 60.4458 138.203 60.4418V60.0733H138.679V60.4418C138.679 60.5626 138.679 60.6491 138.679 60.7015C138.679 60.7538 138.683 60.8243 138.69 60.9129C138.698 60.9974 138.706 61.0558 138.714 61.088C138.725 61.1202 138.743 61.1665 138.766 61.2269C138.793 61.2833 138.822 61.3195 138.853 61.3356C138.884 61.3517 138.926 61.3779 138.98 61.4142C139.038 61.4464 139.098 61.4665 139.16 61.4745C139.226 61.4786 139.307 61.4886 139.403 61.5047C139.5 61.5168 139.602 61.5249 139.71 61.5289C139.823 61.5289 139.952 61.5289 140.099 61.5289C140.47 61.5289 140.746 61.5209 140.928 61.5047C141.109 61.4846 141.248 61.4242 141.345 61.3236C141.442 61.2229 141.496 61.1202 141.507 61.0155C141.519 60.9108 141.525 60.7196 141.525 60.4418V59.5781L138.203 58.7144V57.4763C138.203 57.0173 138.229 56.7092 138.279 56.5522C138.364 56.2985 138.565 56.1274 138.882 56.0388C139.152 55.9583 139.558 55.918 140.099 55.918C140.416 55.918 140.682 55.9281 140.899 55.9482C141.115 55.9684 141.293 56.0127 141.432 56.0811C141.575 56.1496 141.685 56.214 141.762 56.2744C141.84 56.3307 141.896 56.4354 141.93 56.5884C141.965 56.7374 141.985 56.8643 141.988 56.9689C141.996 57.0736 142 57.2427 142 57.4763V57.8447Z" fill="#594B3E"/>
<path d="M202 44L201 45L201 43L202 44Z" fill="#594B3E"/>
<path d="M191 43H201V45H191V43Z" fill="#594B3E"/>
<path fill-rule="evenodd" clip-rule="evenodd" d="M199 47.6155C199.012 50.6496 194.392 52.034 190.883 51.9994C187.373 52.034 182.777 50.6496 182.789 47.6155C182.765 44.5584 187.349 42.9548 190.883 43.001C193.302 42.9694 196.226 43.7114 197.821 45.164L190.883 45.164L190.669 45.164V45.1677C188.664 45.2371 187.027 46.2783 187.027 47.6155C187.027 48.9999 188.782 49.6575 190.883 49.6575C192.984 49.6575 194.762 48.9999 194.762 47.6155C194.762 46.9309 194.327 46.3238 193.633 45.8851H198.456C198.806 46.3967 199.005 46.9741 199 47.6155ZM116.399 51.6533H112.818V48.7692H104.581V51.6533H101V43.5778H104.581V46.4619H112.818V43.5778H116.399V51.6533ZM129.78 48.7692H121.543V49.346H132.048V51.6533H117.962V43.5778H131.451V45.8851H121.543V46.4619H129.78V48.7692ZM142.675 43.5778H133.221V51.6533H136.802V45.8851H141.243C144.335 45.8851 145.707 46.7272 145.707 49.6921V51.6533H149.289V49.6921C149.289 45.4236 147.57 43.5778 142.675 43.5778ZM164.08 51.6533H150.603V43.5778H163.722C166.061 43.5778 166.312 46.7734 164.498 47.4771V47.6732C166.694 48.1808 166.515 51.6533 164.08 51.6533ZM154.184 46.4619H162.325C162.779 46.4619 162.767 45.8851 162.325 45.8851H154.184V46.4619ZM162.623 49.346C163.077 49.346 163.065 48.7692 162.623 48.7692H154.184V49.346H162.623ZM166.748 51.6533H180.225C182.661 51.6533 182.84 48.1808 180.643 47.6732V47.4771C182.458 46.7734 182.207 43.5778 179.867 43.5778H166.748V51.6533ZM178.471 46.4619H170.329V45.8851H178.471C178.912 45.8851 178.924 46.4619 178.471 46.4619ZM178.769 48.7692C179.211 48.7692 179.223 49.346 178.769 49.346H170.329V48.7692H178.769Z" fill="#594B3E"/>
<defs>
<linearGradient id="paint0_linear_29_541" x1="52" y1="23" x2="52" y2="81" gradientUnits="userSpaceOnUse">
<stop stop-color="#F4BD87"/>
<stop offset="1" stop-color="#B68B62"/>
</linearGradient>
</defs>
</svg>
