<svg width="4" height="121" viewBox="0 0 4 121" fill="none" xmlns="http://www.w3.org/2000/svg">
<circle cx="0.480316" cy="5.28311" r="0.480316" transform="rotate(-90 0.480316 5.28311)" fill="#C2CDD5"/>
<circle cx="0.480316" cy="12.4882" r="0.480316" transform="rotate(-90 0.480316 12.4882)" fill="#C2CDD5"/>
<circle cx="0.480316" cy="0.480377" r="0.480316" transform="rotate(-90 0.480316 0.480377)" fill="#C2CDD5"/>
<circle cx="0.480316" cy="7.68497" r="0.480316" transform="rotate(-90 0.480316 7.68497)" fill="#C2CDD5"/>
<circle cx="0.480316" cy="14.8896" r="0.480316" transform="rotate(-90 0.480316 14.8896)" fill="#C2CDD5"/>
<circle cx="0.480316" cy="2.88174" r="0.480316" transform="rotate(-90 0.480316 2.88174)" fill="#C2CDD5"/>
<circle cx="0.480316" cy="10.0868" r="0.480316" transform="rotate(-90 0.480316 10.0868)" fill="#C2CDD5"/>
<circle cx="0.480316" cy="17.2914" r="0.480316" transform="rotate(-90 0.480316 17.2914)" fill="#C2CDD5"/>
<circle cx="2.88168" cy="5.28311" r="0.480316" transform="rotate(-90 2.88168 5.28311)" fill="#C2CDD5"/>
<circle cx="2.88168" cy="12.4882" r="0.480316" transform="rotate(-90 2.88168 12.4882)" fill="#C2CDD5"/>
<circle cx="2.88168" cy="0.480377" r="0.480316" transform="rotate(-90 2.88168 0.480377)" fill="#C2CDD5"/>
<circle cx="2.88168" cy="7.68497" r="0.480316" transform="rotate(-90 2.88168 7.68497)" fill="#C2CDD5"/>
<circle cx="2.88168" cy="14.8896" r="0.480316" transform="rotate(-90 2.88168 14.8896)" fill="#C2CDD5"/>
<circle cx="2.88168" cy="2.88174" r="0.480316" transform="rotate(-90 2.88168 2.88174)" fill="#C2CDD5"/>
<circle cx="2.88168" cy="10.0868" r="0.480316" transform="rotate(-90 2.88168 10.0868)" fill="#C2CDD5"/>
<circle cx="2.88168" cy="17.2914" r="0.480316" transform="rotate(-90 2.88168 17.2914)" fill="#C2CDD5"/>
<circle cx="0.480316" cy="41.3075" r="0.480316" transform="rotate(-90 0.480316 41.3075)" fill="#C2CDD5"/>
<circle cx="0.480316" cy="48.5116" r="0.480316" transform="rotate(-90 0.480316 48.5116)" fill="#C2CDD5"/>
<circle cx="0.480316" cy="55.7167" r="0.480316" transform="rotate(-90 0.480316 55.7167)" fill="#C2CDD5"/>
<circle cx="0.480316" cy="43.7089" r="0.480316" transform="rotate(-90 0.480316 43.7089)" fill="#C2CDD5"/>
<circle cx="0.480316" cy="50.9135" r="0.480316" transform="rotate(-90 0.480316 50.9135)" fill="#C2CDD5"/>
<circle cx="0.480316" cy="58.1181" r="0.480316" transform="rotate(-90 0.480316 58.1181)" fill="#C2CDD5"/>
<circle cx="0.480316" cy="46.1103" r="0.480316" transform="rotate(-90 0.480316 46.1103)" fill="#C2CDD5"/>
<circle cx="0.480316" cy="53.3153" r="0.480316" transform="rotate(-90 0.480316 53.3153)" fill="#C2CDD5"/>
<circle cx="0.480316" cy="60.5199" r="0.480316" transform="rotate(-90 0.480316 60.5199)" fill="#C2CDD5"/>
<circle cx="2.88168" cy="41.3075" r="0.480316" transform="rotate(-90 2.88168 41.3075)" fill="#C2CDD5"/>
<circle cx="2.88168" cy="48.5116" r="0.480316" transform="rotate(-90 2.88168 48.5116)" fill="#C2CDD5"/>
<circle cx="2.88168" cy="55.7167" r="0.480316" transform="rotate(-90 2.88168 55.7167)" fill="#C2CDD5"/>
<circle cx="2.88168" cy="43.7089" r="0.480316" transform="rotate(-90 2.88168 43.7089)" fill="#C2CDD5"/>
<circle cx="2.88168" cy="50.9135" r="0.480316" transform="rotate(-90 2.88168 50.9135)" fill="#C2CDD5"/>
<circle cx="2.88168" cy="58.1181" r="0.480316" transform="rotate(-90 2.88168 58.1181)" fill="#C2CDD5"/>
<circle cx="2.88168" cy="46.1103" r="0.480316" transform="rotate(-90 2.88168 46.1103)" fill="#C2CDD5"/>
<circle cx="2.88168" cy="53.3153" r="0.480316" transform="rotate(-90 2.88168 53.3153)" fill="#C2CDD5"/>
<circle cx="2.88168" cy="60.5199" r="0.480316" transform="rotate(-90 2.88168 60.5199)" fill="#C2CDD5"/>
<circle cx="0.480316" cy="19.6933" r="0.480316" transform="rotate(-90 0.480316 19.6933)" fill="#C2CDD5"/>
<circle cx="0.480316" cy="26.8974" r="0.480316" transform="rotate(-90 0.480316 26.8974)" fill="#C2CDD5"/>
<circle cx="0.480316" cy="34.1024" r="0.480316" transform="rotate(-90 0.480316 34.1024)" fill="#C2CDD5"/>
<circle cx="0.480316" cy="22.0946" r="0.480316" transform="rotate(-90 0.480316 22.0946)" fill="#C2CDD5"/>
<circle cx="0.480316" cy="29.2992" r="0.480316" transform="rotate(-90 0.480316 29.2992)" fill="#C2CDD5"/>
<circle cx="0.480316" cy="36.5038" r="0.480316" transform="rotate(-90 0.480316 36.5038)" fill="#C2CDD5"/>
<circle cx="0.480316" cy="24.496" r="0.480316" transform="rotate(-90 0.480316 24.496)" fill="#C2CDD5"/>
<circle cx="0.480316" cy="31.7011" r="0.480316" transform="rotate(-90 0.480316 31.7011)" fill="#C2CDD5"/>
<circle cx="0.480316" cy="38.9057" r="0.480316" transform="rotate(-90 0.480316 38.9057)" fill="#C2CDD5"/>
<circle cx="2.88168" cy="19.6933" r="0.480316" transform="rotate(-90 2.88168 19.6933)" fill="#C2CDD5"/>
<circle cx="2.88168" cy="26.8974" r="0.480316" transform="rotate(-90 2.88168 26.8974)" fill="#C2CDD5"/>
<circle cx="2.88168" cy="34.1024" r="0.480316" transform="rotate(-90 2.88168 34.1024)" fill="#C2CDD5"/>
<circle cx="2.88168" cy="22.0946" r="0.480316" transform="rotate(-90 2.88168 22.0946)" fill="#C2CDD5"/>
<circle cx="2.88168" cy="29.2992" r="0.480316" transform="rotate(-90 2.88168 29.2992)" fill="#C2CDD5"/>
<circle cx="2.88168" cy="36.5038" r="0.480316" transform="rotate(-90 2.88168 36.5038)" fill="#C2CDD5"/>
<circle cx="2.88168" cy="24.496" r="0.480316" transform="rotate(-90 2.88168 24.496)" fill="#C2CDD5"/>
<circle cx="2.88168" cy="31.7011" r="0.480316" transform="rotate(-90 2.88168 31.7011)" fill="#C2CDD5"/>
<circle cx="2.88168" cy="38.9057" r="0.480316" transform="rotate(-90 2.88168 38.9057)" fill="#C2CDD5"/>
<circle cx="0.480316" cy="65.2834" r="0.480316" transform="rotate(-90 0.480316 65.2834)" fill="#C2CDD5"/>
<circle cx="0.480316" cy="72.4883" r="0.480316" transform="rotate(-90 0.480316 72.4883)" fill="#C2CDD5"/>
<circle cx="0.480316" cy="60.4803" r="0.480316" transform="rotate(-90 0.480316 60.4803)" fill="#C2CDD5"/>
<circle cx="0.480316" cy="67.685" r="0.480316" transform="rotate(-90 0.480316 67.685)" fill="#C2CDD5"/>
<circle cx="0.480316" cy="74.8897" r="0.480316" transform="rotate(-90 0.480316 74.8897)" fill="#C2CDD5"/>
<circle cx="0.480316" cy="62.8819" r="0.480316" transform="rotate(-90 0.480316 62.8819)" fill="#C2CDD5"/>
<circle cx="0.480316" cy="70.0867" r="0.480316" transform="rotate(-90 0.480316 70.0867)" fill="#C2CDD5"/>
<circle cx="0.480316" cy="77.2914" r="0.480316" transform="rotate(-90 0.480316 77.2914)" fill="#C2CDD5"/>
<circle cx="2.88217" cy="65.2834" r="0.480316" transform="rotate(-90 2.88217 65.2834)" fill="#C2CDD5"/>
<circle cx="2.88217" cy="72.4883" r="0.480316" transform="rotate(-90 2.88217 72.4883)" fill="#C2CDD5"/>
<circle cx="2.88217" cy="60.4803" r="0.480316" transform="rotate(-90 2.88217 60.4803)" fill="#C2CDD5"/>
<circle cx="2.88217" cy="67.685" r="0.480316" transform="rotate(-90 2.88217 67.685)" fill="#C2CDD5"/>
<circle cx="2.88217" cy="74.8897" r="0.480316" transform="rotate(-90 2.88217 74.8897)" fill="#C2CDD5"/>
<circle cx="2.88217" cy="62.8819" r="0.480316" transform="rotate(-90 2.88217 62.8819)" fill="#C2CDD5"/>
<circle cx="2.88217" cy="70.0867" r="0.480316" transform="rotate(-90 2.88217 70.0867)" fill="#C2CDD5"/>
<circle cx="2.88217" cy="77.2914" r="0.480316" transform="rotate(-90 2.88217 77.2914)" fill="#C2CDD5"/>
<circle cx="0.480316" cy="101.307" r="0.480316" transform="rotate(-90 0.480316 101.307)" fill="#C2CDD5"/>
<circle cx="0.480316" cy="108.512" r="0.480316" transform="rotate(-90 0.480316 108.512)" fill="#C2CDD5"/>
<circle cx="0.480316" cy="115.717" r="0.480316" transform="rotate(-90 0.480316 115.717)" fill="#C2CDD5"/>
<circle cx="0.480316" cy="103.709" r="0.480316" transform="rotate(-90 0.480316 103.709)" fill="#C2CDD5"/>
<circle cx="0.480316" cy="110.913" r="0.480316" transform="rotate(-90 0.480316 110.913)" fill="#C2CDD5"/>
<circle cx="0.480316" cy="118.118" r="0.480316" transform="rotate(-90 0.480316 118.118)" fill="#C2CDD5"/>
<circle cx="0.480316" cy="106.11" r="0.480316" transform="rotate(-90 0.480316 106.11)" fill="#C2CDD5"/>
<circle cx="0.480316" cy="113.315" r="0.480316" transform="rotate(-90 0.480316 113.315)" fill="#C2CDD5"/>
<circle cx="0.480316" cy="120.52" r="0.480316" transform="rotate(-90 0.480316 120.52)" fill="#C2CDD5"/>
<circle cx="2.88168" cy="101.307" r="0.480316" transform="rotate(-90 2.88168 101.307)" fill="#C2CDD5"/>
<circle cx="2.88168" cy="108.512" r="0.480316" transform="rotate(-90 2.88168 108.512)" fill="#C2CDD5"/>
<circle cx="2.88168" cy="115.717" r="0.480316" transform="rotate(-90 2.88168 115.717)" fill="#C2CDD5"/>
<circle cx="2.88168" cy="103.709" r="0.480316" transform="rotate(-90 2.88168 103.709)" fill="#C2CDD5"/>
<circle cx="2.88168" cy="110.913" r="0.480316" transform="rotate(-90 2.88168 110.913)" fill="#C2CDD5"/>
<circle cx="2.88168" cy="118.118" r="0.480316" transform="rotate(-90 2.88168 118.118)" fill="#C2CDD5"/>
<circle cx="2.88168" cy="106.11" r="0.480316" transform="rotate(-90 2.88168 106.11)" fill="#C2CDD5"/>
<circle cx="2.88168" cy="113.315" r="0.480316" transform="rotate(-90 2.88168 113.315)" fill="#C2CDD5"/>
<circle cx="2.88168" cy="120.52" r="0.480316" transform="rotate(-90 2.88168 120.52)" fill="#C2CDD5"/>
<circle cx="0.480316" cy="79.6931" r="0.480316" transform="rotate(-90 0.480316 79.6931)" fill="#C2CDD5"/>
<circle cx="0.480316" cy="86.8976" r="0.480316" transform="rotate(-90 0.480316 86.8976)" fill="#C2CDD5"/>
<circle cx="0.480316" cy="94.1026" r="0.480316" transform="rotate(-90 0.480316 94.1026)" fill="#C2CDD5"/>
<circle cx="0.480316" cy="82.0945" r="0.480316" transform="rotate(-90 0.480316 82.0945)" fill="#C2CDD5"/>
<circle cx="0.480316" cy="89.2992" r="0.480316" transform="rotate(-90 0.480316 89.2992)" fill="#C2CDD5"/>
<circle cx="0.480316" cy="96.5039" r="0.480316" transform="rotate(-90 0.480316 96.5039)" fill="#C2CDD5"/>
<circle cx="0.480316" cy="84.4961" r="0.480316" transform="rotate(-90 0.480316 84.4961)" fill="#C2CDD5"/>
<circle cx="0.480316" cy="91.701" r="0.480316" transform="rotate(-90 0.480316 91.701)" fill="#C2CDD5"/>
<circle cx="0.480316" cy="98.9057" r="0.480316" transform="rotate(-90 0.480316 98.9057)" fill="#C2CDD5"/>
<circle cx="2.88217" cy="79.6931" r="0.480316" transform="rotate(-90 2.88217 79.6931)" fill="#C2CDD5"/>
<circle cx="2.88217" cy="86.8976" r="0.480316" transform="rotate(-90 2.88217 86.8976)" fill="#C2CDD5"/>
<circle cx="2.88217" cy="94.1026" r="0.480316" transform="rotate(-90 2.88217 94.1026)" fill="#C2CDD5"/>
<circle cx="2.88217" cy="82.0945" r="0.480316" transform="rotate(-90 2.88217 82.0945)" fill="#C2CDD5"/>
<circle cx="2.88217" cy="89.2992" r="0.480316" transform="rotate(-90 2.88217 89.2992)" fill="#C2CDD5"/>
<circle cx="2.88217" cy="96.5039" r="0.480316" transform="rotate(-90 2.88217 96.5039)" fill="#C2CDD5"/>
<circle cx="2.88217" cy="84.4961" r="0.480316" transform="rotate(-90 2.88217 84.4961)" fill="#C2CDD5"/>
<circle cx="2.88217" cy="91.701" r="0.480316" transform="rotate(-90 2.88217 91.701)" fill="#C2CDD5"/>
<circle cx="2.88217" cy="98.9057" r="0.480316" transform="rotate(-90 2.88217 98.9057)" fill="#C2CDD5"/>
</svg>
