<svg width="36" height="37" viewBox="0 0 36 37" fill="none" xmlns="http://www.w3.org/2000/svg">
<path fill-rule="evenodd" clip-rule="evenodd" d="M5.9043 24C5.9043 24 9.05664 14.2796 15.9566 19.975C22.8566 25.6705 25.5096 13.5164 25.5096 13.5164V32.1267C25.5096 32.1267 25.34 32.9205 25.0388 33.2C24.7376 33.4796 23.7502 33.7597 23.7502 33.7597C23.7502 33.7597 22.5606 33.6847 22.0252 33.2C21.4897 32.7153 21.2385 31.4862 21.2385 31.4862V30.2328H5.9043V24Z" fill="#ECC65A"/>
<path d="M17.2849 6.43023C17.8068 5.60358 16.8464 4.64287 16.0197 5.16509C15.8041 4.21157 14.4455 4.21157 14.2303 5.16509C13.4036 4.64315 12.4429 5.60394 12.9651 6.43023C12.0116 6.64588 12.0116 8.00446 12.9651 8.21967C12.4432 9.04632 13.4036 10.007 14.2303 9.48481C14.4459 10.4383 15.8045 10.4383 16.0197 9.48481C16.8464 10.0067 17.8071 9.04632 17.2849 8.21967C18.2384 8.00431 18.2384 6.64559 17.2849 6.43023Z" fill="#C0986F"/>
<path fill-rule="evenodd" clip-rule="evenodd" d="M30.0963 5.44667C30.4021 5.44667 30.65 5.19781 30.65 4.89083V3.77917C30.6483 2.24499 29.4098 1.00172 27.8815 1H7.94815C6.41985 1.00172 5.18135 2.24499 5.17963 3.77917V29.9033H1.3037C0.997902 29.9033 0.75 30.1522 0.75 30.4592V31.5708C0.751716 33.105 1.99022 34.3483 3.51852 34.35H23.4519C24.9802 34.3483 26.2187 33.105 26.2204 31.5708V5.44667H30.0963ZM6.28704 3.77917V29.9033H21.237C21.5428 29.9033 21.7907 30.1522 21.7907 30.4592V31.5708C21.7907 32.4918 22.5344 33.2383 23.4519 33.2383C24.3693 33.2383 25.113 32.4918 25.113 31.5708V3.77917C25.1123 3.17752 25.3072 2.59207 25.668 2.11167H7.94815C7.03118 2.11274 6.28811 2.85868 6.28704 3.77917ZM3.51828 33.2383C2.6013 33.2373 1.8582 32.4913 1.85717 31.5708V31.015H20.6831V31.5708C20.6824 32.1725 20.8773 32.7579 21.2381 33.2383H3.51828ZM29.5426 3.77916C29.5416 2.85867 28.7985 2.11273 27.8815 2.11166C26.9645 2.11273 26.2215 2.85867 26.2204 3.77916V4.33499H29.5426V3.77916Z" fill="#594B3E"/>
<path d="M30.65 3.77917H30.85V3.77894L30.65 3.77917ZM27.8815 1L27.8817 0.8H27.8815V1ZM7.94815 1V0.8L7.94792 0.8L7.94815 1ZM5.17963 3.77917L4.97963 3.77894V3.77917H5.17963ZM5.17963 29.9033V30.1033H5.37963V29.9033H5.17963ZM0.75 31.5708H0.55L0.55 31.5711L0.75 31.5708ZM3.51852 34.35L3.51829 34.55H3.51852V34.35ZM23.4519 34.35V34.55H23.4521L23.4519 34.35ZM26.2204 31.5708L26.4204 31.5711V31.5708H26.2204ZM26.2204 5.44667V5.24667H26.0204V5.44667H26.2204ZM6.28704 29.9033H6.08704V30.1033H6.28704V29.9033ZM6.28704 3.77917L6.08704 3.77893V3.77917H6.28704ZM25.113 3.77917H25.313V3.77895L25.113 3.77917ZM25.668 2.11167L25.8279 2.23178L26.0683 1.91167H25.668V2.11167ZM7.94815 2.11167V1.91167L7.94791 1.91167L7.94815 2.11167ZM1.85717 31.5708H1.65717L1.65717 31.5711L1.85717 31.5708ZM3.51828 33.2383L3.51806 33.4383H3.51828V33.2383ZM1.85717 31.015V30.815H1.65717V31.015H1.85717ZM20.6831 31.015H20.8831V30.815H20.6831V31.015ZM20.6831 31.5708L20.8831 31.5711V31.5708H20.6831ZM21.2381 33.2383V33.4383H21.6385L21.398 33.1182L21.2381 33.2383ZM27.8815 2.11166L27.8817 1.91166L27.8813 1.91166L27.8815 2.11166ZM29.5426 3.77916H29.7426V3.77893L29.5426 3.77916ZM26.2204 3.77916L26.0204 3.77893V3.77916H26.2204ZM26.2204 4.33499H26.0204V4.53499H26.2204V4.33499ZM29.5426 4.33499V4.53499H29.7426V4.33499H29.5426ZM30.45 4.89083C30.45 5.08808 30.2909 5.24667 30.0963 5.24667V5.64667C30.5133 5.64667 30.85 5.30754 30.85 4.89083H30.45ZM30.45 3.77917V4.89083H30.85V3.77917H30.45ZM27.8813 1.2C29.2986 1.2016 30.4484 2.35477 30.45 3.77939L30.85 3.77894C30.8482 2.13521 29.521 0.801848 27.8817 0.8L27.8813 1.2ZM7.94815 1.2H27.8815V0.8H7.94815V1.2ZM5.37963 3.77939C5.38122 2.35477 6.53108 1.2016 7.94837 1.2L7.94792 0.8C6.30862 0.801848 4.98147 2.13521 4.97963 3.77894L5.37963 3.77939ZM5.37963 29.9033V3.77917H4.97963V29.9033H5.37963ZM1.3037 30.1033H5.17963V29.7033H1.3037V30.1033ZM0.95 30.4592C0.95 30.2619 1.10908 30.1033 1.3037 30.1033V29.7033C0.886721 29.7033 0.55 30.0425 0.55 30.4592H0.95ZM0.95 31.5708V30.4592H0.55V31.5708H0.95ZM3.51874 34.15C2.10145 34.1484 0.951594 32.9952 0.95 31.5706L0.55 31.5711C0.551839 33.2148 1.87899 34.5482 3.51829 34.55L3.51874 34.15ZM23.4519 34.15H3.51852V34.55H23.4519V34.15ZM26.0204 31.5706C26.0188 32.9952 24.8689 34.1484 23.4516 34.15L23.4521 34.55C25.0914 34.5482 26.4185 33.2148 26.4204 31.5711L26.0204 31.5706ZM26.0204 5.44667V31.5708H26.4204V5.44667H26.0204ZM30.0963 5.24667H26.2204V5.64667H30.0963V5.24667ZM6.48704 29.9033V3.77917H6.08704V29.9033H6.48704ZM21.237 29.7033H6.28704V30.1033H21.237V29.7033ZM21.9907 30.4592C21.9907 30.0425 21.654 29.7033 21.237 29.7033V30.1033C21.4317 30.1033 21.5907 30.2619 21.5907 30.4592H21.9907ZM21.9907 31.5708V30.4592H21.5907V31.5708H21.9907ZM23.4519 33.0383C22.6456 33.0383 21.9907 32.382 21.9907 31.5708H21.5907C21.5907 32.6015 22.4233 33.4383 23.4519 33.4383V33.0383ZM24.913 31.5708C24.913 32.382 24.2581 33.0383 23.4519 33.0383V33.4383C24.4804 33.4383 25.313 32.6015 25.313 31.5708H24.913ZM24.913 3.77917V31.5708H25.313V3.77917H24.913ZM25.5081 1.99156C25.1211 2.50671 24.9122 3.13441 24.913 3.77939L25.313 3.77895C25.3123 3.22063 25.4932 2.67743 25.8279 2.23178L25.5081 1.99156ZM7.94815 2.31167H25.668V1.91167H7.94815V2.31167ZM6.48704 3.7794C6.48798 2.96846 7.14241 2.31261 7.94838 2.31167L7.94791 1.91167C6.91995 1.91287 6.08823 2.74889 6.08704 3.77893L6.48704 3.7794ZM1.65717 31.5711C1.65832 32.6011 2.49008 33.4372 3.51806 33.4383L3.51851 33.0383C2.71253 33.0374 2.05808 32.3816 2.05717 31.5706L1.65717 31.5711ZM1.65717 31.015V31.5708H2.05717V31.015H1.65717ZM20.6831 30.815H1.85717V31.215H20.6831V30.815ZM20.8831 31.5708V31.015H20.4831V31.5708H20.8831ZM21.398 33.1182C21.0633 32.6726 20.8825 32.1294 20.8831 31.5711L20.4831 31.5706C20.4824 32.2156 20.6913 32.8433 21.0782 33.3584L21.398 33.1182ZM3.51828 33.4383H21.2381V33.0383H3.51828V33.4383ZM27.8813 2.31166C28.6872 2.3126 29.3417 2.96845 29.3426 3.77939L29.7426 3.77893C29.7414 2.74888 28.9097 1.91286 27.8817 1.91166L27.8813 2.31166ZM26.4204 3.77939C26.4213 2.96845 27.0758 2.3126 27.8817 2.31166L27.8813 1.91166C26.8533 1.91286 26.0216 2.74888 26.0204 3.77893L26.4204 3.77939ZM26.4204 4.33499V3.77916H26.0204V4.33499H26.4204ZM29.5426 4.13499H26.2204V4.53499H29.5426V4.13499ZM29.3426 3.77916V4.33499H29.7426V3.77916H29.3426Z" fill="#594B3E"/>
<path fill-rule="evenodd" clip-rule="evenodd" d="M12.7339 8.31539C12.4246 8.08077 12.245 7.71319 12.2501 7.32495C12.245 6.93672 12.4246 6.56913 12.7339 6.33451C12.6863 5.95038 12.8185 5.56574 13.0922 5.29203C13.3659 5.01832 13.7505 4.88615 14.1346 4.93379C14.3726 4.62847 14.738 4.44995 15.1251 4.44995C15.5121 4.44995 15.8776 4.62847 16.1155 4.93379C16.4996 4.88615 16.8842 5.01832 17.1579 5.29203C17.4316 5.56574 17.5638 5.95038 17.5162 6.33451C17.8215 6.57244 18 6.93788 18 7.32495C18 7.71202 17.8215 8.07746 17.5162 8.31539C17.5638 8.69952 17.4316 9.08416 17.1579 9.35787C16.8842 9.63158 16.4996 9.76376 16.1155 9.71611C15.8776 10.0214 15.5121 10.2 15.1251 10.2C14.738 10.2 14.3726 10.0214 14.1346 9.71611C13.7505 9.76373 13.3659 9.63154 13.0922 9.35784C12.8185 9.08414 12.6863 8.69952 12.7339 8.31539ZM13.7674 6.76275C13.7078 6.90656 13.5822 7.01249 13.4303 7.04681C13.3003 7.07618 13.208 7.19168 13.208 7.32497C13.208 7.45825 13.3003 7.57376 13.4303 7.60312C13.5822 7.63744 13.7078 7.74337 13.7674 7.88718C13.8269 8.03099 13.8129 8.19476 13.7298 8.32637C13.6586 8.43908 13.675 8.58607 13.7693 8.68032C13.8636 8.77458 14.0106 8.79093 14.1233 8.7197C14.2549 8.63661 14.4186 8.62261 14.5624 8.68216C14.7062 8.74171 14.8121 8.86738 14.8464 9.01918C14.8758 9.14919 14.9913 9.24152 15.1246 9.24152C15.2579 9.24152 15.3734 9.14919 15.4027 9.01918C15.4371 8.86738 15.543 8.74171 15.6868 8.68216C15.8306 8.62261 15.9943 8.63661 16.1259 8.7197C16.2386 8.79093 16.3856 8.77458 16.4799 8.68032C16.5741 8.58607 16.5905 8.43908 16.5194 8.32637C16.4362 8.19476 16.4222 8.03099 16.4818 7.88718C16.5413 7.74337 16.667 7.63744 16.8188 7.60312C16.9488 7.57376 17.0412 7.45825 17.0412 7.32497C17.0412 7.19168 16.9488 7.07618 16.8188 7.04681C16.667 7.01249 16.5413 6.90656 16.4818 6.76275C16.4222 6.61894 16.4362 6.45517 16.5194 6.32357C16.5905 6.21087 16.5741 6.06392 16.4798 5.96969C16.3856 5.87545 16.2387 5.85907 16.126 5.93023C15.9944 6.01335 15.8306 6.02736 15.6868 5.96781C15.543 5.90826 15.4371 5.78257 15.4027 5.63075C15.3734 5.50074 15.2579 5.40842 15.1246 5.40842C14.9913 5.40842 14.8758 5.50074 14.8464 5.63075C14.8121 5.78257 14.7062 5.90826 14.5624 5.96781C14.4186 6.02736 14.2548 6.01335 14.1232 5.93023C14.0105 5.85907 13.8636 5.87545 13.7693 5.96969C13.6751 6.06392 13.6587 6.21087 13.7298 6.32357C13.8129 6.45517 13.8269 6.61894 13.7674 6.76275Z" fill="#594B3E"/>
<path d="M12.25 13.65H18V14.8H12.25V13.65Z" fill="#594B3E"/>
<path d="M14.5498 11.35H20.2998V12.5H14.5498V11.35Z" fill="#594B3E"/>
<path d="M11.1001 11.35H13.4001V12.5H11.1001V11.35Z" fill="#594B3E"/>
<path d="M9.9502 17.1H23.7502V18.25H9.9502V17.1Z" fill="#594B3E"/>
<path d="M7.65039 17.1H8.80039V18.25H7.65039V17.1Z" fill="#594B3E"/>
<path d="M9.9502 20.55H23.7502V21.7H9.9502V20.55Z" fill="#594B3E"/>
<path d="M7.65039 20.55H8.80039V21.7H7.65039V20.55Z" fill="#594B3E"/>
<path d="M9.9502 24H13.4002V25.15H9.9502V24Z" fill="#594B3E"/>
<path d="M14.5498 24H23.7498V25.15H14.5498V24Z" fill="#594B3E"/>
<path d="M9.9502 26.3H19.1502V27.45H9.9502V26.3Z" fill="#594B3E"/>
<path d="M7.65039 26.3H8.80039V27.45H7.65039V26.3Z" fill="#594B3E"/>
<path d="M20.3003 26.3H23.7503V27.45H20.3003V26.3Z" fill="#594B3E"/>
<path fill-rule="evenodd" clip-rule="evenodd" d="M32.1834 10.1466H32.6626C33.4561 10.1476 34.0992 10.9014 34.1001 11.8315V18.0094H33.1418V11.8315C33.1415 11.5214 32.9271 11.2702 32.6626 11.2698H32.1834V28.1188C32.1834 28.206 32.1659 28.292 32.1325 28.3698H32.1328L30.6953 31.7396C30.6141 31.9299 30.4482 32.05 30.2668 32.05C30.0853 32.05 29.9194 31.9299 29.8382 31.7396L28.4007 28.3698H28.4011C28.3676 28.292 28.3501 28.206 28.3501 28.1188V10.1466C28.3501 8.90583 29.2082 7.90002 30.2668 7.90002C31.3253 7.90002 32.1834 8.90583 32.1834 10.1466ZM31.2253 10.1466C31.2247 9.5265 30.796 9.02403 30.2669 9.0233C29.7379 9.02403 29.3092 9.5265 29.3086 10.1466H31.2253ZM29.3086 27.5572V19.1327H31.2253V27.5572H29.3086ZM29.3086 16.8862V18.0094H31.2253V16.8862H29.3086ZM30.2667 30.2328L29.6045 28.6805H30.929L30.2667 30.2328ZM29.3086 11.2698V15.7629H31.2253V11.2698H29.3086Z" fill="#594B3E"/>
<path d="M32.6626 10.1466L32.6627 10.0966H32.6626V10.1466ZM32.1834 10.1466H32.1334V10.1966H32.1834V10.1466ZM34.1001 11.8315H34.1501V11.8314L34.1001 11.8315ZM34.1001 18.0094V18.0594H34.1501V18.0094H34.1001ZM33.1418 18.0094H33.0918V18.0594H33.1418V18.0094ZM33.1418 11.8315H33.1918V11.8314L33.1418 11.8315ZM32.6626 11.2698L32.6627 11.2198H32.6626V11.2698ZM32.1834 11.2698V11.2198H32.1334V11.2698H32.1834ZM32.1834 28.1188L32.2334 28.1189V28.1188H32.1834ZM32.1325 28.3698L32.0865 28.3501L32.0565 28.4198H32.1325V28.3698ZM32.1328 28.3698L32.1788 28.3894L32.2085 28.3198H32.1328V28.3698ZM30.6953 31.7396L30.7413 31.7592L30.7413 31.7592L30.6953 31.7396ZM29.8382 31.7396L29.7922 31.7592L29.7922 31.7592L29.8382 31.7396ZM28.4007 28.3698V28.3198H28.325L28.3547 28.3894L28.4007 28.3698ZM28.4011 28.3698V28.4198H28.477L28.447 28.3501L28.4011 28.3698ZM28.3501 28.1188H28.3001L28.3001 28.1189L28.3501 28.1188ZM30.2669 9.0233L30.267 8.9733L30.2669 8.9733L30.2669 9.0233ZM31.2253 10.1466V10.1966H31.2753L31.2753 10.1465L31.2253 10.1466ZM29.3086 10.1466L29.2586 10.1465L29.2586 10.1966H29.3086V10.1466ZM29.3086 19.1327V19.0827H29.2586V19.1327H29.3086ZM29.3086 27.5572H29.2586V27.6072H29.3086V27.5572ZM31.2253 19.1327H31.2753V19.0827H31.2253V19.1327ZM31.2253 27.5572V27.6072H31.2753V27.5572H31.2253ZM29.3086 18.0094H29.2586V18.0594H29.3086V18.0094ZM29.3086 16.8862V16.8362H29.2586V16.8862H29.3086ZM31.2253 18.0094V18.0594H31.2753V18.0094H31.2253ZM31.2253 16.8862H31.2753V16.8362H31.2253V16.8862ZM29.6045 28.6805V28.6305H29.5288L29.5585 28.7001L29.6045 28.6805ZM30.2667 30.2328L30.2208 30.2524L30.2667 30.3602L30.3127 30.2524L30.2667 30.2328ZM30.929 28.6805L30.9749 28.7001L31.0046 28.6305H30.929V28.6805ZM29.3086 15.7629H29.2586V15.8129H29.3086V15.7629ZM29.3086 11.2698V11.2198H29.2586V11.2698H29.3086ZM31.2253 15.7629V15.8129H31.2753V15.7629H31.2253ZM31.2253 11.2698H31.2753V11.2198H31.2253V11.2698ZM32.6626 10.0966H32.1834V10.1966H32.6626V10.0966ZM34.1501 11.8314C34.1492 10.8815 33.4909 10.0977 32.6627 10.0966L32.6625 10.1966C33.4214 10.1976 34.0492 10.9213 34.0501 11.8315L34.1501 11.8314ZM34.1501 18.0094V11.8315H34.0501V18.0094H34.1501ZM33.1418 18.0594H34.1001V17.9594H33.1418V18.0594ZM33.0918 11.8315V18.0094H33.1918V11.8315H33.0918ZM32.6625 11.3198C32.8923 11.3201 33.0915 11.5413 33.0918 11.8315L33.1918 11.8314C33.1914 11.5015 32.9619 11.2202 32.6627 11.2198L32.6625 11.3198ZM32.1834 11.3198H32.6626V11.2198H32.1834V11.3198ZM32.2334 28.1188V11.2698H32.1334V28.1188H32.2334ZM32.1784 28.3896C32.2146 28.3053 32.2334 28.2126 32.2334 28.1189L32.1334 28.1188C32.1334 28.1994 32.1173 28.2786 32.0865 28.3501L32.1784 28.3896ZM32.1328 28.3198H32.1325V28.4198H32.1328V28.3198ZM30.7413 31.7592L32.1788 28.3894L32.0868 28.3502L30.6493 31.72L30.7413 31.7592ZM30.2668 32.1C30.4716 32.1 30.6537 31.9646 30.7413 31.7592L30.6493 31.72C30.5746 31.8951 30.4249 32 30.2668 32V32.1ZM29.7922 31.7592C29.8799 31.9646 30.0619 32.1 30.2668 32.1V32C30.1087 32 29.9589 31.8951 29.8842 31.72L29.7922 31.7592ZM28.3547 28.3894L29.7922 31.7592L29.8842 31.72L28.4467 28.3502L28.3547 28.3894ZM28.4011 28.3198H28.4007V28.4198H28.4011V28.3198ZM28.3001 28.1189C28.3001 28.2126 28.3189 28.3053 28.3551 28.3896L28.447 28.3501C28.4163 28.2786 28.4001 28.1994 28.4001 28.1188L28.3001 28.1189ZM28.3001 10.1466V28.1188H28.4001V10.1466H28.3001ZM30.2668 7.85002C29.1735 7.85002 28.3001 8.88596 28.3001 10.1466H28.4001C28.4001 8.9257 29.243 7.95002 30.2668 7.95002V7.85002ZM32.2334 10.1466C32.2334 8.88596 31.3601 7.85002 30.2668 7.85002V7.95002C31.2905 7.95002 32.1334 8.9257 32.1334 10.1466H32.2334ZM30.2669 9.0733C30.7612 9.07398 31.1747 9.54641 31.1753 10.1466L31.2753 10.1465C31.2746 9.5066 30.8307 8.97408 30.267 8.9733L30.2669 9.0733ZM29.3586 10.1466C29.3592 9.54641 29.7727 9.07398 30.267 9.0733L30.2669 8.9733C29.7032 8.97408 29.2593 9.5066 29.2586 10.1465L29.3586 10.1466ZM31.2253 10.0966H29.3086V10.1966H31.2253V10.0966ZM29.2586 19.1327V27.5572H29.3586V19.1327H29.2586ZM31.2253 19.0827H29.3086V19.1827H31.2253V19.0827ZM31.2753 27.5572V19.1327H31.1753V27.5572H31.2753ZM29.3086 27.6072H31.2253V27.5072H29.3086V27.6072ZM29.3586 18.0094V16.8862H29.2586V18.0094H29.3586ZM31.2253 17.9594H29.3086V18.0594H31.2253V17.9594ZM31.1753 16.8862V18.0094H31.2753V16.8862H31.1753ZM29.3086 16.9362H31.2253V16.8362H29.3086V16.9362ZM29.5585 28.7001L30.2208 30.2524L30.3127 30.2131L29.6505 28.6609L29.5585 28.7001ZM30.929 28.6305H29.6045V28.7305H30.929V28.6305ZM30.3127 30.2524L30.9749 28.7001L30.883 28.6609L30.2208 30.2131L30.3127 30.2524ZM29.3586 15.7629V11.2698H29.2586V15.7629H29.3586ZM31.2253 15.7129H29.3086V15.8129H31.2253V15.7129ZM31.1753 11.2698V15.7629H31.2753V11.2698H31.1753ZM29.3086 11.3198H31.2253V11.2198H29.3086V11.3198Z" fill="#594B3E"/>
</svg>
