<svg width="17" height="17" viewBox="0 0 17 17" fill="none" xmlns="http://www.w3.org/2000/svg">
<circle cx="5.11283" cy="16.5484" r="0.451626" transform="rotate(-180 5.11283 16.5484)" fill="#C2CDD5"/>
<circle cx="11.8872" cy="16.5484" r="0.451626" transform="rotate(-180 11.8872 16.5484)" fill="#C2CDD5"/>
<circle cx="0.597202" cy="16.5484" r="0.451626" transform="rotate(-180 0.597202 16.5484)" fill="#C2CDD5"/>
<circle cx="7.37162" cy="16.5484" r="0.451626" transform="rotate(-180 7.37162 16.5484)" fill="#C2CDD5"/>
<circle cx="14.146" cy="16.5484" r="0.451626" transform="rotate(-180 14.146 16.5484)" fill="#C2CDD5"/>
<circle cx="2.85599" cy="16.5484" r="0.451626" transform="rotate(-180 2.85599 16.5484)" fill="#C2CDD5"/>
<circle cx="9.62943" cy="16.5484" r="0.451626" transform="rotate(-180 9.62943 16.5484)" fill="#C2CDD5"/>
<circle cx="16.4038" cy="16.5484" r="0.451626" transform="rotate(-180 16.4038 16.5484)" fill="#C2CDD5"/>
<circle cx="5.11283" cy="14.2906" r="0.451626" transform="rotate(-180 5.11283 14.2906)" fill="#C2CDD5"/>
<circle cx="11.8872" cy="14.2906" r="0.451626" transform="rotate(-180 11.8872 14.2906)" fill="#C2CDD5"/>
<circle cx="0.597202" cy="14.2906" r="0.451626" transform="rotate(-180 0.597202 14.2906)" fill="#C2CDD5"/>
<circle cx="7.37162" cy="14.2906" r="0.451626" transform="rotate(-180 7.37162 14.2906)" fill="#C2CDD5"/>
<circle cx="14.146" cy="14.2906" r="0.451626" transform="rotate(-180 14.146 14.2906)" fill="#C2CDD5"/>
<circle cx="2.85599" cy="14.2906" r="0.451626" transform="rotate(-180 2.85599 14.2906)" fill="#C2CDD5"/>
<circle cx="9.62943" cy="14.2906" r="0.451626" transform="rotate(-180 9.62943 14.2906)" fill="#C2CDD5"/>
<circle cx="16.4038" cy="14.2906" r="0.451626" transform="rotate(-180 16.4038 14.2906)" fill="#C2CDD5"/>
<circle cx="2.9097" cy="7.2261" r="0.451626" transform="rotate(90 2.9097 7.2261)" fill="#C2CDD5"/>
<circle cx="2.9097" cy="0.451626" r="0.451626" transform="rotate(90 2.9097 0.451626)" fill="#C2CDD5"/>
<circle cx="2.9097" cy="11.7423" r="0.451626" transform="rotate(90 2.9097 11.7423)" fill="#C2CDD5"/>
<circle cx="2.9097" cy="4.96829" r="0.451626" transform="rotate(90 2.9097 4.96829)" fill="#C2CDD5"/>
<circle cx="2.9097" cy="9.48397" r="0.451626" transform="rotate(90 2.9097 9.48397)" fill="#C2CDD5"/>
<circle cx="2.9097" cy="2.71048" r="0.451626" transform="rotate(90 2.9097 2.71048)" fill="#C2CDD5"/>
<circle cx="0.65189" cy="7.2261" r="0.451626" transform="rotate(90 0.65189 7.2261)" fill="#C2CDD5"/>
<circle cx="0.65189" cy="0.451626" r="0.451626" transform="rotate(90 0.65189 0.451626)" fill="#C2CDD5"/>
<circle cx="0.65189" cy="11.7423" r="0.451626" transform="rotate(90 0.65189 11.7423)" fill="#C2CDD5"/>
<circle cx="0.65189" cy="4.96829" r="0.451626" transform="rotate(90 0.65189 4.96829)" fill="#C2CDD5"/>
<circle cx="0.65189" cy="9.48397" r="0.451626" transform="rotate(90 0.65189 9.48397)" fill="#C2CDD5"/>
<circle cx="0.65189" cy="2.71048" r="0.451626" transform="rotate(90 0.65189 2.71048)" fill="#C2CDD5"/>
</svg>
