<svg width="31" height="32" viewBox="0 0 31 32" fill="none" xmlns="http://www.w3.org/2000/svg">
<path d="M11.1484 23.8411H12.1001V24.7928H11.1484V23.8411Z" fill="#594B3E"/>
<path fill-rule="evenodd" clip-rule="evenodd" d="M13.3379 19.9518C13.3772 18.6997 14.768 18.408 15.8236 19.0825C19.0887 21.1688 19.9847 14.3347 22.4017 15.1805C23.2699 15.4843 23.5391 16.5389 23.573 17.4582L23.86 25.2396C23.9463 27.5779 22.0158 29.4906 19.6785 29.3828L13.0518 29.0772L13.3379 19.9518Z" fill="#ECC65A"/>
<path d="M4.48633 23.8411H5.43804V24.7928H4.48633V23.8411Z" fill="#594B3E"/>
<path d="M7.81721 22.8894H8.76893C9.03173 22.8894 9.24478 23.1024 9.24478 23.3652H10.1965C10.1965 22.5768 9.55735 21.9376 8.76893 21.9376V21.4618H7.81721V21.9376C7.02879 21.9376 6.38965 22.5768 6.38965 23.3652C6.38965 24.1536 7.02879 24.7928 7.81721 24.7928H8.76893C9.03173 24.7928 9.24478 25.0058 9.24478 25.2686C9.24478 25.5314 9.03173 25.7445 8.76893 25.7445H7.81721C7.55441 25.7445 7.34136 25.5314 7.34136 25.2686H6.38965C6.38965 26.0571 7.02879 26.6962 7.81721 26.6962V27.1721H8.76893V26.6962C9.55735 26.6962 10.1965 26.0571 10.1965 25.2686C10.1965 24.4802 9.55735 23.8411 8.76893 23.8411H7.81721C7.55441 23.8411 7.34136 23.628 7.34136 23.3652C7.34136 23.1024 7.55441 22.8894 7.81721 22.8894Z" fill="#594B3E"/>
<path d="M21.617 9.08955H22.5687C22.8315 9.08955 23.0446 9.3026 23.0446 9.56541H23.9963C23.9963 8.77699 23.3572 8.13784 22.5687 8.13784V7.66199H21.617V8.13784C20.8286 8.13784 20.1895 8.77699 20.1895 9.56541C20.1895 10.3538 20.8286 10.993 21.617 10.993H22.5687C22.8315 10.993 23.0446 11.206 23.0446 11.4688C23.0446 11.7316 22.8315 11.9447 22.5687 11.9447H21.617C21.3542 11.9447 21.1412 11.7316 21.1412 11.4688H20.1895C20.1895 12.2573 20.8286 12.8964 21.617 12.8964V13.3723H22.5687V12.8964C23.3572 12.8964 23.9963 12.2573 23.9963 11.4688C23.9963 10.6804 23.3572 10.0413 22.5687 10.0413H21.617C21.3542 10.0413 21.1412 9.82822 21.1412 9.56541C21.1412 9.3026 21.3542 9.08955 21.617 9.08955Z" fill="#594B3E"/>
<path fill-rule="evenodd" clip-rule="evenodd" d="M5.43848 15.6296L6.89497 19.0825H10.197L11.1487 15.6296L10.197 14.9196H9.24466L8.29361 15.6296H7.52474L7.22562 14.9196H6.07374L5.43848 15.6296Z" fill="#BB926A"/>
<path fill-rule="evenodd" clip-rule="evenodd" d="M24.4724 5.33266C26.4993 6.26273 27.7998 8.28702 27.8033 10.5171C27.8008 12.7481 26.5 14.7735 24.4724 15.7039V27.1721C24.4708 28.4854 23.4065 29.5498 22.0931 29.5513H5.914C4.07521 29.5492 2.58511 28.0591 2.58301 26.2203V23.8411C2.58578 21.8038 3.67378 19.9222 5.43814 18.9036V18.1308H6.00013L4.99226 15.4427C4.93747 15.2965 4.95786 15.1328 5.04683 15.0045C5.1358 14.8762 5.28203 14.7997 5.43814 14.7998C5.61008 14.7874 5.77503 14.7267 5.914 14.6247C6.19658 14.4368 6.52648 14.3326 6.86571 14.324C7.03164 14.3243 7.19497 14.3652 7.34156 14.4429V3.37928C7.34314 2.06589 8.40745 1.00157 9.72084 1H22.0931C23.4065 1.00157 24.4708 2.06589 24.4724 3.37928V5.33266ZM18.7621 1.95171H13.0518V2.42757C13.0518 2.69037 13.2649 2.90342 13.5277 2.90342H18.2863C18.5491 2.90342 18.7621 2.69037 18.7621 2.42757V1.95171ZM6.07343 15.6149C6.18189 15.5662 6.28753 15.5113 6.38988 15.4508C6.52885 15.3488 6.69379 15.2881 6.86573 15.2757C6.94389 15.2757 7.09142 15.4425 7.20711 15.5733L7.2212 15.5893C7.46462 15.9521 7.85825 16.1864 8.2933 16.2274C8.72835 16.1864 9.12197 15.9521 9.3654 15.5893L9.37949 15.5733C9.49517 15.4425 9.6427 15.2757 9.72086 15.2757C9.89281 15.2881 10.0578 15.3488 10.1967 15.4508C10.2984 15.5113 10.4035 15.5661 10.5113 15.6149L9.57002 18.1308H7.01658L6.07343 15.6149ZM3.5347 26.2203C3.53627 27.5337 4.60059 28.598 5.91397 28.5996H10.6725C11.9859 28.598 13.0502 27.5337 13.0518 26.2203V23.8411C13.0494 21.9108 11.8825 20.1728 10.0967 19.4399C10.1613 19.6314 10.1951 19.8321 10.1967 20.0342V20.5101H9.24496V20.0342C9.24496 19.5086 8.81887 19.0825 8.29325 19.0825C7.76764 19.0825 7.34154 19.5086 7.34154 20.0342V20.5101H6.38983V20.0342C6.39143 19.8321 6.42516 19.6314 6.48976 19.4399C4.70404 20.1728 3.53708 21.9108 3.5347 23.8411V26.2203ZM23.5206 27.1721C23.5206 27.9605 22.8815 28.5996 22.0931 28.5996H12.999C13.6414 27.9747 14.0037 27.1165 14.0035 26.2203V23.8411C14.0008 21.8038 12.9128 19.9222 11.1484 18.9036V18.1308H10.5864L11.5943 15.4427C11.6491 15.2965 11.6287 15.1328 11.5397 15.0045C11.4507 14.8762 11.3045 14.7997 11.1484 14.7998C10.9765 14.7874 10.8115 14.7267 10.6725 14.6247C10.39 14.4368 10.0601 14.3326 9.72084 14.324C9.28579 14.3649 8.89216 14.5992 8.64874 14.9621L8.63465 14.978C8.51897 15.1088 8.37143 15.2757 8.29327 15.2757V3.37928C8.29327 2.59085 8.93241 1.95171 9.72084 1.95171H12.1001V2.42757C12.1001 3.21599 12.7393 3.85513 13.5277 3.85513H18.2862C19.0747 3.85513 19.7138 3.21599 19.7138 2.42757V1.95171H22.0931C22.8815 1.95171 23.5206 2.59085 23.5206 3.37928V4.99719C21.204 4.38357 18.7506 5.28185 17.3779 7.24632C16.0052 9.2108 16.0052 11.8234 17.3779 13.7879C18.7506 15.7524 21.204 16.6506 23.5206 16.037V27.1721ZM17.3345 10.5171C17.3345 13.1452 19.465 15.2757 22.0931 15.2757C24.7199 15.2728 26.8487 13.144 26.8516 10.5171C26.8516 7.88903 24.7211 5.75855 22.0931 5.75855C19.465 5.75855 17.3345 7.88903 17.3345 10.5171Z" fill="#594B3E"/>
<path d="M27.8033 10.5171L27.9533 10.5173V10.5169L27.8033 10.5171ZM24.4724 5.33266H24.3224V5.42887L24.4098 5.469L24.4724 5.33266ZM24.4724 15.7039L24.4098 15.5676L24.3224 15.6077V15.7039H24.4724ZM24.4724 27.1721L24.6224 27.1722V27.1721H24.4724ZM22.0931 29.5513V29.7013H22.0933L22.0931 29.5513ZM5.914 29.5513L5.91382 29.7013H5.914V29.5513ZM2.58301 26.2203H2.43301L2.43301 26.2205L2.58301 26.2203ZM2.58301 23.8411L2.43301 23.8409V23.8411H2.58301ZM5.43814 18.9036L5.51314 19.0335L5.58814 18.9902V18.9036H5.43814ZM5.43814 18.1308V17.9808H5.28814V18.1308H5.43814ZM6.00013 18.1308V18.2808H6.21656L6.14058 18.0781L6.00013 18.1308ZM4.99226 15.4427L4.85181 15.4953L4.85181 15.4953L4.99226 15.4427ZM5.04683 15.0045L5.17008 15.09L5.17008 15.09L5.04683 15.0045ZM5.43814 14.7998L5.43805 14.9502L5.44894 14.9494L5.43814 14.7998ZM5.914 14.6247L5.83086 14.4996L5.82524 14.5038L5.914 14.6247ZM6.86571 14.324L6.86606 14.1739L6.8619 14.174L6.86571 14.324ZM7.34156 14.4429L7.27128 14.5754L7.49156 14.6923V14.4429H7.34156ZM7.34156 3.37928L7.19156 3.3791V3.37928H7.34156ZM9.72084 1V0.85L9.72066 0.85L9.72084 1ZM22.0931 1L22.0933 0.85H22.0931V1ZM24.4724 3.37928H24.6224V3.3791L24.4724 3.37928ZM13.0518 1.95171V1.80171H12.9018V1.95171H13.0518ZM18.7621 1.95171H18.9121V1.80171H18.7621V1.95171ZM6.38988 15.4508L6.46627 15.5799L6.47266 15.5761L6.47864 15.5717L6.38988 15.4508ZM6.07343 15.6149L6.01189 15.4782L5.88359 15.5359L5.93298 15.6676L6.07343 15.6149ZM6.86573 15.2757V15.1253L6.85494 15.1261L6.86573 15.2757ZM7.20711 15.5733L7.09474 15.6727L7.09476 15.6727L7.20711 15.5733ZM7.2212 15.5893L7.34577 15.5057L7.34018 15.4974L7.33355 15.4899L7.2212 15.5893ZM8.2933 16.2274L8.27924 16.3767L8.2933 16.378L8.30735 16.3767L8.2933 16.2274ZM9.3654 15.5893L9.25305 15.4899L9.24641 15.4974L9.24083 15.5057L9.3654 15.5893ZM9.37949 15.5733L9.49183 15.6727L9.49186 15.6727L9.37949 15.5733ZM9.72086 15.2757L9.73169 15.1257H9.72086V15.2757ZM10.1967 15.4508L10.108 15.5717L10.1138 15.576L10.12 15.5797L10.1967 15.4508ZM10.5113 15.6149L10.6518 15.6675L10.7009 15.5362L10.5732 15.4783L10.5113 15.6149ZM9.57002 18.1308V18.2808H9.67405L9.71051 18.1834L9.57002 18.1308ZM7.01658 18.1308L6.87612 18.1835L6.91262 18.2808H7.01658V18.1308ZM5.91397 28.5996L5.91379 28.7496H5.91397V28.5996ZM3.5347 26.2203H3.3847L3.3847 26.2205L3.5347 26.2203ZM10.6725 28.5996V28.7496H10.6727L10.6725 28.5996ZM13.0518 26.2203L13.2018 26.2205V26.2203H13.0518ZM13.0518 23.8411H13.2018L13.2018 23.8409L13.0518 23.8411ZM10.0967 19.4399L10.1537 19.3011L9.84956 19.1763L9.95461 19.4878L10.0967 19.4399ZM10.1967 20.0342H10.3467L10.3467 20.033L10.1967 20.0342ZM10.1967 20.5101V20.6601H10.3467V20.5101H10.1967ZM9.24496 20.5101H9.09496V20.6601H9.24496V20.5101ZM7.34154 20.5101V20.6601H7.49154V20.5101H7.34154ZM6.38983 20.5101H6.23983V20.6601H6.38983V20.5101ZM6.38983 20.0342L6.23983 20.033V20.0342H6.38983ZM6.48976 19.4399L6.6319 19.4878L6.73695 19.1763L6.43281 19.3011L6.48976 19.4399ZM3.5347 23.8411L3.3847 23.8409V23.8411H3.5347ZM12.999 28.5996L12.8944 28.4921L12.6297 28.7496H12.999V28.5996ZM14.0035 26.2203H13.8535V26.2204L14.0035 26.2203ZM14.0035 23.8411H14.1535L14.1535 23.8409L14.0035 23.8411ZM11.1484 18.9036H10.9984V18.9902L11.0734 19.0335L11.1484 18.9036ZM11.1484 18.1308H11.2984V17.9808H11.1484V18.1308ZM10.5864 18.1308L10.446 18.0781L10.37 18.2808H10.5864V18.1308ZM11.5943 15.4427L11.7347 15.4953L11.7347 15.4953L11.5943 15.4427ZM11.5397 15.0045L11.663 14.919V14.919L11.5397 15.0045ZM11.1484 14.7998L11.1376 14.9498L11.1485 14.9498L11.1484 14.7998ZM10.6725 14.6247L10.7614 14.5036L10.7556 14.4998L10.6725 14.6247ZM9.72084 14.324L9.72465 14.174L9.7157 14.1738L9.70678 14.1746L9.72084 14.324ZM8.64874 14.9621L8.76109 15.0615L8.76772 15.054L8.7733 15.0456L8.64874 14.9621ZM8.63465 14.978L8.5223 14.8786L8.52228 14.8786L8.63465 14.978ZM8.29327 15.2757H8.14327V15.4257H8.29327V15.2757ZM12.1001 1.95171H12.2501V1.80171H12.1001V1.95171ZM19.7138 1.95171V1.80171H19.5638V1.95171H19.7138ZM23.5206 4.99719L23.4822 5.14219L23.6706 5.19209V4.99719H23.5206ZM17.3779 7.24632L17.5008 7.33224L17.3779 7.24632ZM17.3779 13.7879L17.5008 13.702L17.3779 13.7879ZM23.5206 16.037H23.6706V15.8421L23.4822 15.892L23.5206 16.037ZM22.0931 15.2757V15.4257L22.0932 15.4257L22.0931 15.2757ZM26.8516 10.5171L27.0016 10.5173V10.5171H26.8516ZM27.9533 10.5169C27.9498 8.22824 26.615 6.15082 24.5349 5.19633L24.4098 5.469C26.3835 6.37465 27.6499 8.34579 27.6533 10.5173L27.9533 10.5169ZM24.5349 15.8403C26.6158 14.8854 27.9507 12.8068 27.9533 10.5173L27.6533 10.5169C27.6508 12.6893 26.3842 14.6616 24.4098 15.5676L24.5349 15.8403ZM24.6224 27.1721V15.7039H24.3224V27.1721H24.6224ZM22.0933 29.7013C23.4893 29.6997 24.6207 28.5683 24.6224 27.1722L24.3224 27.1719C24.3209 28.4026 23.3236 29.3999 22.0929 29.4013L22.0933 29.7013ZM5.914 29.7013H22.0931V29.4013H5.914V29.7013ZM2.43301 26.2205C2.4352 28.142 3.99233 29.6991 5.91382 29.7013L5.91417 29.4013C4.15809 29.3993 2.73501 27.9762 2.73301 26.2202L2.43301 26.2205ZM2.43301 23.8411V26.2203H2.73301V23.8411H2.43301ZM5.36314 18.7737C3.55243 19.8191 2.43585 21.75 2.43301 23.8409L2.73301 23.8413C2.7357 21.8575 3.79512 20.0254 5.51314 19.0335L5.36314 18.7737ZM5.28814 18.1308V18.9036H5.58814V18.1308H5.28814ZM6.00013 17.9808H5.43814V18.2808H6.00013V17.9808ZM4.85181 15.4953L5.85967 18.1835L6.14058 18.0781L5.13272 15.39L4.85181 15.4953ZM4.92357 14.919C4.80656 15.0877 4.77974 15.3031 4.85181 15.4953L5.13272 15.39C5.0952 15.2899 5.10916 15.1778 5.17008 15.09L4.92357 14.919ZM5.43823 14.6498C5.23291 14.6497 5.04059 14.7503 4.92357 14.919L5.17008 15.09C5.23101 15.0021 5.33114 14.9497 5.43805 14.9498L5.43823 14.6498ZM5.82524 14.5038C5.70904 14.5891 5.57112 14.6398 5.42734 14.6502L5.44894 14.9494C5.64905 14.935 5.84102 14.8643 6.00275 14.7456L5.82524 14.5038ZM6.8619 14.174C6.49442 14.1833 6.13706 14.2963 5.83095 14.4998L5.99704 14.7496C6.2561 14.5774 6.55853 14.4818 6.86952 14.4739L6.8619 14.174ZM7.41184 14.3104C7.24371 14.2212 7.05637 14.1744 6.86606 14.174L6.86536 14.474C7.0069 14.4743 7.14623 14.5091 7.27128 14.5754L7.41184 14.3104ZM7.19156 3.37928V14.4429H7.49156V3.37928H7.19156ZM9.72066 0.85C8.32457 0.851672 7.19323 1.98301 7.19156 3.3791L7.49156 3.37946C7.49304 2.14877 8.49033 1.15147 9.72102 1.15L9.72066 0.85ZM22.0931 0.85H9.72084V1.15H22.0931V0.85ZM24.6224 3.3791C24.6207 1.98301 23.4893 0.851672 22.0933 0.85L22.0929 1.15C23.3236 1.15147 24.3209 2.14877 24.3224 3.37946L24.6224 3.3791ZM24.6224 5.33266V3.37928H24.3224V5.33266H24.6224ZM13.0518 2.10171H18.7621V1.80171H13.0518V2.10171ZM13.2018 2.42757V1.95171H12.9018V2.42757H13.2018ZM13.5277 2.75342C13.3477 2.75342 13.2018 2.60753 13.2018 2.42757H12.9018C12.9018 2.77322 13.182 3.05342 13.5277 3.05342V2.75342ZM18.2863 2.75342H13.5277V3.05342H18.2863V2.75342ZM18.6121 2.42757C18.6121 2.60753 18.4662 2.75342 18.2863 2.75342V3.05342C18.6319 3.05342 18.9121 2.77322 18.9121 2.42757H18.6121ZM18.6121 1.95171V2.42757H18.9121V1.95171H18.6121ZM6.31348 15.3217C6.21594 15.3794 6.11525 15.4317 6.01189 15.4782L6.13497 15.7517C6.24852 15.7007 6.35912 15.6433 6.46627 15.5799L6.31348 15.3217ZM6.85494 15.1261C6.65482 15.1405 6.46285 15.2111 6.30112 15.3299L6.47864 15.5717C6.59484 15.4864 6.73276 15.4357 6.87653 15.4253L6.85494 15.1261ZM7.31948 15.474C7.26275 15.4098 7.19243 15.3301 7.12567 15.2667C7.09234 15.235 7.05579 15.2034 7.01876 15.1788C6.98694 15.1577 6.93167 15.1257 6.86573 15.1257V15.4257C6.83887 15.4257 6.83136 15.4145 6.85279 15.4287C6.86903 15.4395 6.89124 15.4578 6.91903 15.4842C6.97449 15.5369 7.03578 15.606 7.09474 15.6727L7.31948 15.474ZM7.33355 15.4899L7.31946 15.4739L7.09476 15.6727L7.10885 15.6886L7.33355 15.4899ZM8.30735 16.078C7.91715 16.0413 7.5641 15.8312 7.34577 15.5057L7.09663 15.6728C7.36515 16.0731 7.79935 16.3315 8.27924 16.3767L8.30735 16.078ZM9.24083 15.5057C9.0225 15.8312 8.66945 16.0413 8.27924 16.078L8.30735 16.3767C8.78725 16.3315 9.22145 16.0731 9.48997 15.6728L9.24083 15.5057ZM9.26714 15.4739L9.25305 15.4899L9.47775 15.6886L9.49183 15.6727L9.26714 15.4739ZM9.72086 15.1257C9.65492 15.1257 9.59966 15.1577 9.56783 15.1788C9.53081 15.2034 9.49425 15.235 9.46093 15.2667C9.39416 15.3301 9.32384 15.4098 9.26712 15.474L9.49186 15.6727C9.55081 15.606 9.6121 15.5369 9.66756 15.4842C9.69536 15.4578 9.71757 15.4395 9.7338 15.4287C9.75524 15.4145 9.74772 15.4257 9.72086 15.4257V15.1257ZM10.2855 15.3299C10.1237 15.2111 9.93177 15.1405 9.73166 15.1261L9.71007 15.4253C9.85384 15.4357 9.99176 15.4864 10.108 15.5717L10.2855 15.3299ZM10.5732 15.4783C10.4704 15.4318 10.3704 15.3795 10.2734 15.3219L10.12 15.5797C10.2265 15.643 10.3365 15.7004 10.4493 15.7516L10.5732 15.4783ZM9.71051 18.1834L10.6518 15.6675L10.3708 15.5624L9.42953 18.0782L9.71051 18.1834ZM7.01658 18.2808H9.57002V17.9808H7.01658V18.2808ZM5.93298 15.6676L6.87612 18.1835L7.15703 18.0781L6.21389 15.5623L5.93298 15.6676ZM5.91415 28.4496C4.68347 28.4481 3.68617 27.4508 3.6847 26.2202L3.3847 26.2205C3.38637 27.6166 4.51771 28.7479 5.91379 28.7496L5.91415 28.4496ZM10.6725 28.4496H5.91397V28.7496H10.6725V28.4496ZM12.9018 26.2202C12.9003 27.4508 11.903 28.4481 10.6723 28.4496L10.6727 28.7496C12.0688 28.7479 13.2001 27.6166 13.2018 26.2205L12.9018 26.2202ZM12.9018 23.8411V26.2203H13.2018V23.8411H12.9018ZM10.0398 19.5786C11.7693 20.2885 12.8995 21.9718 12.9018 23.8412L13.2018 23.8409C13.1994 21.8498 11.9956 20.0571 10.1537 19.3011L10.0398 19.5786ZM10.3467 20.033C10.3449 19.815 10.3086 19.5986 10.2389 19.3919L9.95461 19.4878C10.0141 19.6643 10.0452 19.8491 10.0467 20.0354L10.3467 20.033ZM10.3467 20.5101V20.0342H10.0467V20.5101H10.3467ZM9.24496 20.6601H10.1967V20.3601H9.24496V20.6601ZM9.09496 20.0342V20.5101H9.39496V20.0342H9.09496ZM8.29325 19.2325C8.73602 19.2325 9.09496 19.5914 9.09496 20.0342H9.39496C9.39496 19.4258 8.90171 18.9325 8.29325 18.9325V19.2325ZM7.49154 20.0342C7.49154 19.5914 7.85048 19.2325 8.29325 19.2325V18.9325C7.68479 18.9325 7.19154 19.4258 7.19154 20.0342H7.49154ZM7.49154 20.5101V20.0342H7.19154V20.5101H7.49154ZM6.38983 20.6601H7.34154V20.3601H6.38983V20.6601ZM6.23983 20.0342V20.5101H6.53983V20.0342H6.23983ZM6.34762 19.3919C6.27794 19.5986 6.24156 19.815 6.23983 20.033L6.53983 20.0354C6.5413 19.8491 6.57238 19.6643 6.6319 19.4878L6.34762 19.3919ZM3.6847 23.8412C3.687 21.9718 4.81722 20.2885 6.54671 19.5786L6.43281 19.3011C4.59086 20.0571 3.38715 21.8498 3.3847 23.8409L3.6847 23.8412ZM3.6847 26.2203V23.8411H3.3847V26.2203H3.6847ZM22.0931 28.7496C22.9643 28.7496 23.6706 28.0433 23.6706 27.1721H23.3706C23.3706 27.8776 22.7987 28.4496 22.0931 28.4496V28.7496ZM12.999 28.7496H22.0931V28.4496H12.999V28.7496ZM13.8535 26.2204C13.8537 27.0761 13.5078 27.8955 12.8944 28.4921L13.1036 28.7071C13.7751 28.054 14.1538 27.157 14.1535 26.2203L13.8535 26.2204ZM13.8535 23.8411V26.2203H14.1535V23.8411H13.8535ZM11.0734 19.0335C12.7914 20.0254 13.8508 21.8575 13.8535 23.8413L14.1535 23.8409C14.1507 21.75 13.0341 19.8191 11.2234 18.7737L11.0734 19.0335ZM10.9984 18.1308V18.9036H11.2984V18.1308H10.9984ZM10.5864 18.2808H11.1484V17.9808H10.5864V18.2808ZM11.4538 15.39L10.446 18.0781L10.7269 18.1835L11.7347 15.4953L11.4538 15.39ZM11.4165 15.09C11.4774 15.1778 11.4913 15.2899 11.4538 15.39L11.7347 15.4953C11.8068 15.3031 11.78 15.0877 11.663 14.919L11.4165 15.09ZM11.1485 14.9498C11.2554 14.9497 11.3555 15.0021 11.4165 15.09L11.663 14.919C11.546 14.7503 11.3536 14.6497 11.1483 14.6498L11.1485 14.9498ZM10.5838 14.7456C10.7455 14.8643 10.9375 14.935 11.1376 14.9494L11.1592 14.6502C11.0154 14.6398 10.8775 14.5891 10.7613 14.5038L10.5838 14.7456ZM9.71703 14.4739C10.028 14.4818 10.3304 14.5774 10.5895 14.7496L10.7556 14.4998C10.4495 14.2963 10.0921 14.1833 9.72465 14.174L9.71703 14.4739ZM8.7733 15.0456C8.99164 14.7202 9.34469 14.51 9.73489 14.4733L9.70678 14.1746C9.22688 14.2198 8.79269 14.4782 8.52417 14.8785L8.7733 15.0456ZM8.747 15.0774L8.76109 15.0615L8.53638 14.8627L8.5223 14.8786L8.747 15.0774ZM8.29327 15.4257C8.35921 15.4257 8.41448 15.3936 8.4463 15.3725C8.48333 15.3479 8.51989 15.3163 8.55321 15.2846C8.61997 15.2212 8.69029 15.1415 8.74702 15.0774L8.52228 14.8786C8.46332 14.9453 8.40203 15.0145 8.34657 15.0671C8.31878 15.0936 8.29657 15.1118 8.28033 15.1226C8.2589 15.1368 8.26641 15.1257 8.29327 15.1257V15.4257ZM8.14327 3.37928V15.2757H8.44327V3.37928H8.14327ZM9.72084 1.80171C8.84957 1.80171 8.14327 2.50801 8.14327 3.37928H8.44327C8.44327 2.6737 9.01526 2.10171 9.72084 2.10171V1.80171ZM12.1001 1.80171H9.72084V2.10171H12.1001V1.80171ZM12.2501 2.42757V1.95171H11.9501V2.42757H12.2501ZM13.5277 3.70513C12.8221 3.70513 12.2501 3.13315 12.2501 2.42757H11.9501C11.9501 3.29883 12.6564 4.00513 13.5277 4.00513V3.70513ZM18.2862 3.70513H13.5277V4.00513H18.2862V3.70513ZM19.5638 2.42757C19.5638 3.13315 18.9918 3.70513 18.2862 3.70513V4.00513C19.1575 4.00513 19.8638 3.29883 19.8638 2.42757H19.5638ZM19.5638 1.95171V2.42757H19.8638V1.95171H19.5638ZM22.0931 1.80171H19.7138V2.10171H22.0931V1.80171ZM23.6706 3.37928C23.6706 2.50801 22.9643 1.80171 22.0931 1.80171V2.10171C22.7987 2.10171 23.3706 2.6737 23.3706 3.37928H23.6706ZM23.6706 4.99719V3.37928H23.3706V4.99719H23.6706ZM17.5008 7.33224C18.8375 5.41937 21.2264 4.54469 23.4822 5.14219L23.5591 4.85219C21.1815 4.22245 18.6637 5.14433 17.2549 7.16041L17.5008 7.33224ZM17.5008 13.702C16.1642 11.7891 16.1642 9.24511 17.5008 7.33224L17.2549 7.16041C15.8461 9.17648 15.8461 11.8577 17.2549 13.8738L17.5008 13.702ZM23.4822 15.892C21.2264 16.4895 18.8375 15.6148 17.5008 13.702L17.2549 13.8738C18.6637 15.8899 21.1815 16.8118 23.5591 16.182L23.4822 15.892ZM23.6706 27.1721V16.037H23.3706V27.1721H23.6706ZM22.0931 15.1257C19.5478 15.1257 17.4845 13.0623 17.4845 10.5171H17.1845C17.1845 13.228 19.3821 15.4257 22.0931 15.4257V15.1257ZM26.7016 10.5169C26.6988 13.0611 24.6371 15.1229 22.0929 15.1257L22.0932 15.4257C24.8028 15.4227 26.9986 13.2269 27.0016 10.5173L26.7016 10.5169ZM22.0931 5.90855C24.6383 5.90855 26.7016 7.97187 26.7016 10.5171H27.0016C27.0016 7.80619 24.804 5.60855 22.0931 5.60855V5.90855ZM17.4845 10.5171C17.4845 7.97187 19.5478 5.90855 22.0931 5.90855V5.60855C19.3821 5.60855 17.1845 7.80619 17.1845 10.5171H17.4845Z" fill="#594B3E"/>
<path d="M19.8184 17.3576L17.9149 19.7368C17.8006 19.8797 17.7782 20.0754 17.8575 20.2404C17.9368 20.4053 18.1036 20.5102 18.2866 20.5101H18.7624V23.8411H19.7142V20.0342C19.7149 19.7853 19.5236 19.5778 19.2754 19.5584L20.19 18.4163L21.1046 19.5584C20.8564 19.5778 20.6651 19.7853 20.6659 20.0342V24.7928H21.6176V20.5101H22.0934C22.2764 20.5102 22.4432 20.4053 22.5225 20.2404C22.6018 20.0754 22.5794 19.8797 22.4651 19.7368L20.5617 17.3576C20.468 17.2501 20.3325 17.1885 20.19 17.1885C20.0475 17.1885 19.912 17.2501 19.8184 17.3576Z" fill="#594B3E"/>
<path d="M15.8029 13.5507C15.7092 13.4432 15.5737 13.3816 15.4312 13.3816C15.2887 13.3816 15.1532 13.4432 15.0596 13.5507L13.1562 15.9299C13.0418 16.0728 13.0195 16.2686 13.0987 16.4335C13.178 16.5984 13.3448 16.7033 13.5278 16.7032H14.0037V20.0342H14.9554V16.2274C14.9561 15.9784 14.7648 15.7709 14.5166 15.7515L15.4312 14.6094L16.3458 15.7515C16.0976 15.7709 15.9063 15.9784 15.9071 16.2274V20.9859H16.8588V16.7032H17.3346C17.5176 16.7033 17.6844 16.5984 17.7637 16.4335C17.843 16.2686 17.8207 16.0728 17.7063 15.9299L15.8029 13.5507Z" fill="#594B3E"/>
<path d="M13.9558 9.29558C14.0351 9.13074 14.0129 8.93502 13.8987 8.79213L11.9952 6.41285C11.9016 6.30543 11.7661 6.24377 11.6236 6.24377C11.4811 6.24377 11.3456 6.30543 11.252 6.41285L9.34854 8.79213C9.23412 8.93504 9.21183 9.13092 9.29121 9.29589C9.3706 9.46085 9.53758 9.56565 9.72066 9.56539H10.1965V12.8964H11.1482V9.08954C11.149 8.84057 10.9577 8.6331 10.7095 8.61368L11.6241 7.47163L12.5387 8.61368C12.2905 8.6331 12.0992 8.84057 12.0999 9.08954V13.8481H13.0516V9.56539H13.5275C13.7102 9.56514 13.8767 9.46028 13.9558 9.29558Z" fill="#594B3E"/>
<path d="M15.9072 21.9376H16.8589V22.8893H15.9072V21.9376Z" fill="#594B3E"/>
<path d="M15.9072 23.8411H16.8589V24.7928H15.9072V23.8411Z" fill="#594B3E"/>
<path d="M20.665 25.7445H21.6168V26.6962H20.665V25.7445Z" fill="#594B3E"/>
<path d="M18.7617 24.7928H19.7134V25.7445H18.7617V24.7928Z" fill="#594B3E"/>
</svg>
