<svg width="129" height="26" viewBox="0 0 129 26" fill="none" xmlns="http://www.w3.org/2000/svg">
<g opacity="0.1" clip-path="url(#clip0_3179_491)">
<path d="M7.68729 12.8627C7.65854 13.3635 7.82977 13.8552 8.16338 14.2299C8.49699 14.6045 8.96567 14.8314 9.46646 14.8606H9.56966C9.93847 14.8602 10.2991 14.7518 10.607 14.5488C10.915 14.3458 11.1567 14.0571 11.3024 13.7183C11.4482 13.3795 11.4915 13.0054 11.4271 12.6423C11.3627 12.2791 11.1934 11.9428 10.9401 11.6748C10.6867 11.4067 10.3604 11.2187 10.0015 11.134C9.64251 11.0493 9.26661 11.0715 8.92014 11.1979C8.57367 11.3244 8.27181 11.5495 8.05181 11.8455C7.8318 12.1415 7.70329 12.4955 7.68213 12.8637L7.68729 12.8627Z" fill="white"/>
<path d="M0.644971 12.3838C0.52457 12.377 0.404873 12.4061 0.301008 12.4674C0.197142 12.5287 0.11377 12.6194 0.0614277 12.728C0.00908511 12.8366 -0.00987856 12.9583 0.00693324 13.0778C0.023745 13.1972 0.0755777 13.3089 0.155881 13.3989C0.236184 13.4888 0.341353 13.553 0.458098 13.5832C0.574842 13.6134 0.697922 13.6083 0.811782 13.5686C0.925642 13.5289 1.02517 13.4563 1.0978 13.36C1.17042 13.2638 1.21287 13.1481 1.21979 13.0277C1.22453 12.9477 1.21341 12.8674 1.18705 12.7917C1.1607 12.7159 1.11963 12.6461 1.06622 12.5863C1.0128 12.5264 0.948091 12.4777 0.875801 12.443C0.80351 12.4082 0.725065 12.3881 0.644971 12.3838Z" fill="white"/>
<path d="M7.56777 1.90197C7.675 1.84691 7.76355 1.76135 7.82226 1.65606C7.88097 1.55078 7.90723 1.43048 7.89772 1.31031C7.88821 1.19014 7.84336 1.07547 7.76883 0.980729C7.69429 0.885991 7.59339 0.81542 7.47883 0.777902C7.36427 0.740384 7.24117 0.737595 7.12503 0.769885C7.00888 0.802176 6.90489 0.868104 6.82614 0.959369C6.74738 1.05063 6.69739 1.16316 6.68245 1.28278C6.6675 1.40239 6.68828 1.52376 6.74217 1.63159C6.77839 1.70377 6.82854 1.76806 6.88972 1.82077C6.95091 1.87348 7.02192 1.91355 7.09867 1.93869C7.17541 1.96382 7.25638 1.97352 7.33689 1.96722C7.4174 1.96092 7.49587 1.93874 7.56777 1.90197Z" fill="white"/>
<path d="M9.48428 5.24342C9.65082 5.15941 9.78871 5.02792 9.88052 4.86555C9.97234 4.70318 10.014 4.51724 10.0001 4.33123C9.98626 4.14521 9.91757 3.96748 9.80272 3.8205C9.68788 3.67352 9.53204 3.56389 9.35489 3.50547C9.17775 3.44705 8.98727 3.44246 8.80751 3.49228C8.62776 3.5421 8.46682 3.6441 8.34503 3.78538C8.22324 3.92666 8.14607 4.10087 8.12328 4.286C8.10049 4.47113 8.1331 4.65886 8.21698 4.82546C8.27272 4.93615 8.34972 5.03477 8.44358 5.11569C8.53744 5.1966 8.64633 5.25823 8.76402 5.29704C8.88172 5.33586 9.0059 5.3511 9.12949 5.3419C9.25307 5.3327 9.37363 5.29924 9.48428 5.24342Z" fill="white"/>
<path d="M3.03518 7.54162C3.16364 7.62609 3.31426 7.67056 3.468 7.6694C3.62174 7.66825 3.77168 7.62152 3.89885 7.53512C4.02602 7.44872 4.1247 7.32655 4.18242 7.18405C4.24013 7.04155 4.25428 6.88514 4.22308 6.7346C4.19187 6.58406 4.11671 6.44615 4.00711 6.33834C3.89751 6.23053 3.75839 6.15765 3.60735 6.12892C3.45632 6.10019 3.30016 6.11691 3.15863 6.17696C3.0171 6.23702 2.89656 6.3377 2.81227 6.46627C2.69938 6.63847 2.65944 6.84844 2.70124 7.05006C2.74303 7.25169 2.86314 7.42848 3.03518 7.54162Z" fill="white"/>
<path d="M4.18389 12.0401C3.99767 12.0296 3.81252 12.0745 3.65183 12.1692C3.49115 12.2639 3.36214 12.4041 3.28113 12.5721C3.20011 12.7401 3.17072 12.9284 3.19668 13.1131C3.22263 13.2978 3.30275 13.4706 3.42692 13.6098C3.5511 13.749 3.71374 13.8482 3.8943 13.895C4.07486 13.9417 4.26523 13.9339 4.44134 13.8725C4.61746 13.8111 4.77141 13.6988 4.88374 13.5499C4.99607 13.401 5.06174 13.2222 5.07244 13.036C5.08653 12.7861 5.00086 12.5409 4.83425 12.3541C4.66765 12.1674 4.43373 12.0544 4.18389 12.0401Z" fill="white"/>
<path d="M3.13849 18.3819C3.00135 18.4512 2.88783 18.5596 2.81229 18.6934C2.73675 18.8272 2.70258 18.9805 2.7141 19.1337C2.72562 19.2869 2.78231 19.4333 2.87701 19.5543C2.9717 19.6753 3.10015 19.7656 3.24612 19.8136C3.39208 19.8616 3.54901 19.8653 3.69707 19.8242C3.84512 19.783 3.97766 19.6989 4.07792 19.5825C4.17818 19.466 4.24166 19.3224 4.26034 19.1699C4.27902 19.0174 4.25207 18.8627 4.18288 18.7255C4.1369 18.6344 4.07341 18.5531 3.99603 18.4865C3.91865 18.4199 3.8289 18.3692 3.7319 18.3373C3.63491 18.3054 3.53258 18.2929 3.43076 18.3005C3.32894 18.3082 3.22962 18.3358 3.13849 18.3819Z" fill="white"/>
<path d="M6.8049 10.0905C6.98858 10.2108 7.20383 10.274 7.42343 10.2721C7.64303 10.2701 7.85712 10.2031 8.03863 10.0795C8.22014 9.95588 8.36092 9.78122 8.44317 9.57759C8.52542 9.37396 8.54545 9.15052 8.50071 8.93552C8.45598 8.72051 8.3485 8.5236 8.19186 8.36967C8.03522 8.21575 7.83646 8.11173 7.62071 8.07076C7.40495 8.0298 7.18189 8.05372 6.97974 8.13952C6.77758 8.22532 6.60541 8.36913 6.48498 8.55278C6.40487 8.6747 6.34959 8.81123 6.3223 8.95454C6.29502 9.09786 6.29628 9.24515 6.32599 9.38798C6.35571 9.53081 6.4133 9.66637 6.49548 9.78692C6.57766 9.90746 6.6828 10.0106 6.8049 10.0905Z" fill="white"/>
<path d="M18.4376 5.16926C18.594 5.27127 18.7771 5.32463 18.9638 5.32259C19.1505 5.32054 19.3324 5.26319 19.4866 5.15778C19.6407 5.05236 19.7601 4.90362 19.8297 4.73036C19.8993 4.5571 19.916 4.36708 19.8776 4.18435C19.8392 4.00161 19.7476 3.83434 19.6141 3.7037C19.4807 3.57306 19.3116 3.4849 19.1281 3.45037C18.9446 3.41584 18.755 3.43649 18.5832 3.5097C18.4114 3.58292 18.2652 3.70542 18.1631 3.86172C18.095 3.96553 18.0482 4.08176 18.0252 4.20372C18.0021 4.32569 18.0034 4.451 18.0289 4.57247C18.0544 4.69394 18.1036 4.80918 18.1738 4.91159C18.2439 5.014 18.3335 5.10156 18.4376 5.16926Z" fill="white"/>
<path d="M20.3737 1.83772C20.4748 1.90398 20.5932 1.93877 20.7141 1.93768C20.835 1.9366 20.9528 1.89968 21.0527 1.83162C21.1525 1.76355 21.23 1.66739 21.2752 1.55529C21.3204 1.4432 21.3314 1.32021 21.3067 1.2019C21.2819 1.08358 21.2227 0.975251 21.1364 0.890613C21.0501 0.805976 20.9407 0.748834 20.8219 0.726419C20.7031 0.704003 20.5804 0.717321 20.4692 0.764687C20.358 0.812054 20.2633 0.891339 20.1972 0.992513C20.1086 1.12803 20.0775 1.29316 20.1106 1.45163C20.1436 1.61011 20.2383 1.74897 20.3737 1.83772Z" fill="white"/>
<path d="M18.5863 11.0651C18.3387 11.0509 18.0906 11.0856 17.8563 11.1672C17.6221 11.2488 17.4062 11.3758 17.221 11.5409C16.847 11.8743 16.6207 12.3425 16.592 12.8427C16.5632 13.3429 16.7344 13.8341 17.0677 14.2081C17.4011 14.5821 17.8694 14.8083 18.3696 14.8371C18.4057 14.8371 18.4429 14.8371 18.479 14.8371C18.8434 14.8369 19.1999 14.7313 19.5056 14.5331C19.8113 14.3348 20.0532 14.0523 20.202 13.7197C20.3508 13.3871 20.4002 13.0186 20.3442 12.6585C20.2883 12.2985 20.1294 11.9623 19.8866 11.6905C19.7223 11.5052 19.5226 11.3544 19.2994 11.247C19.0761 11.1397 18.8337 11.0778 18.5863 11.0651Z" fill="white"/>
<path d="M10.1044 9.95949C10.2612 10.2727 10.5023 10.5359 10.8006 10.7195C11.0988 10.9031 11.4425 10.9998 11.7927 10.9987C12.1157 10.9988 12.4332 10.9161 12.7151 10.7585C12.997 10.601 13.2338 10.3738 13.4029 10.0987C13.572 9.8236 13.6678 9.50975 13.6811 9.1871C13.6945 8.86445 13.6249 8.54377 13.479 8.25565C13.3211 7.94386 13.0796 7.68218 12.7814 7.49991C12.4832 7.31764 12.1402 7.22198 11.7907 7.22365C11.4687 7.2242 11.1523 7.30699 10.8713 7.46417C10.5904 7.62135 10.3542 7.84771 10.1853 8.12176C10.0164 8.39582 9.92029 8.70849 9.90613 9.03011C9.89196 9.35173 9.96021 9.67164 10.1044 9.95949Z" fill="white"/>
<path d="M24.9138 7.53971C25.051 7.47048 25.1646 7.36215 25.2402 7.2284C25.3158 7.09465 25.3501 6.94149 25.3387 6.78827C25.3273 6.63505 25.2707 6.48864 25.1761 6.36756C25.0815 6.24648 24.9532 6.15615 24.8073 6.108C24.6614 6.05985 24.5045 6.05602 24.3564 6.09702C24.2083 6.13801 24.0757 6.22198 23.9753 6.33831C23.875 6.45465 23.8113 6.59812 23.7925 6.75061C23.7736 6.90309 23.8004 7.05775 23.8694 7.19502C23.9623 7.37913 24.1245 7.51885 24.3203 7.58348C24.5161 7.64811 24.7296 7.63237 24.9138 7.53971Z" fill="white"/>
<path d="M20.1241 8.14101C19.928 8.2398 19.7655 8.39453 19.6573 8.58565C19.5491 8.77676 19.5 8.99568 19.5162 9.2147C19.5324 9.43372 19.6132 9.64302 19.7484 9.81613C19.8835 9.98924 20.067 10.1184 20.2755 10.1872C20.4841 10.2561 20.7084 10.2615 20.92 10.2029C21.1317 10.1443 21.3212 10.0242 21.4646 9.85787C21.608 9.69154 21.6989 9.48642 21.7257 9.26844C21.7526 9.05046 21.7142 8.82942 21.6154 8.63327C21.5499 8.50294 21.4593 8.3868 21.3489 8.2915C21.2385 8.1962 21.1103 8.12361 20.9718 8.07789C20.8333 8.03216 20.6872 8.0142 20.5417 8.02504C20.3962 8.03587 20.2543 8.07528 20.1241 8.14101Z" fill="white"/>
<path d="M13.9546 1.55293C14.1081 1.56168 14.2607 1.5247 14.3931 1.44669C14.5256 1.36868 14.6319 1.25314 14.6987 1.11468C14.7655 0.976221 14.7897 0.821067 14.7683 0.668845C14.7469 0.516622 14.6808 0.37417 14.5784 0.259509C14.476 0.144847 14.3419 0.0631282 14.1931 0.0246884C14.0443 -0.0137513 13.8874 -0.00718456 13.7423 0.0435581C13.5972 0.0943008 13.4704 0.186939 13.3779 0.309756C13.2855 0.432572 13.2315 0.580047 13.2229 0.733527C13.2114 0.939194 13.2819 1.14103 13.4191 1.29468C13.5563 1.44833 13.7489 1.54122 13.9546 1.55293Z" fill="white"/>
<path d="M13.9467 6.44373C14.1659 6.45602 14.3838 6.40305 14.5729 6.29151C14.762 6.17998 14.9138 6.01488 15.0092 5.81709C15.1045 5.61929 15.139 5.39769 15.1084 5.18027C15.0778 4.96285 14.9834 4.75939 14.8372 4.59559C14.691 4.43179 14.4995 4.31502 14.287 4.26002C14.0744 4.20501 13.8503 4.21426 13.643 4.28659C13.4357 4.35891 13.2545 4.49107 13.1223 4.66635C12.9901 4.84164 12.9128 5.05218 12.9002 5.27138C12.8836 5.56559 12.9845 5.85437 13.1807 6.07421C13.3769 6.29405 13.6525 6.42697 13.9467 6.44373Z" fill="white"/>
<path d="M7.93016 17.7792C8.12629 17.6803 8.28868 17.5255 8.39681 17.3343C8.50494 17.1432 8.55394 16.9242 8.53762 16.7052C8.5213 16.4861 8.44038 16.2769 8.30512 16.1038C8.16985 15.9308 7.9863 15.8017 7.77768 15.733C7.56907 15.6643 7.34476 15.659 7.13312 15.7177C6.92149 15.7765 6.73204 15.8967 6.58874 16.0632C6.44543 16.2296 6.35471 16.4348 6.32804 16.6529C6.30137 16.8709 6.33996 17.0919 6.43892 17.288C6.57158 17.5508 6.80319 17.7502 7.08283 17.8424C7.36248 17.9345 7.66726 17.9118 7.93016 17.7792Z" fill="white"/>
<path d="M14.6639 8.06391C14.4336 8.41538 14.3271 8.83361 14.3612 9.25242C14.3954 9.67123 14.5682 10.0667 14.8524 10.3762C15.1365 10.6858 15.5158 10.8917 15.9302 10.9614C16.3446 11.0311 16.7704 10.9606 17.1402 10.7611C17.51 10.5616 17.8027 10.2445 17.972 9.8599C18.1413 9.47532 18.1775 9.04525 18.0749 8.63778C17.9723 8.2303 17.7367 7.86869 17.4054 7.61017C17.0742 7.35165 16.6662 7.21099 16.246 7.21045C15.9321 7.21023 15.6232 7.28813 15.347 7.43713C15.0708 7.58613 14.8361 7.80153 14.6639 8.06391Z" fill="white"/>
<path d="M17.9474 15.9615C17.7961 15.6615 17.5675 15.4072 17.2851 15.225C17.0028 15.0428 16.6769 14.9393 16.3412 14.925C16.0054 14.9108 15.672 14.9864 15.3752 15.144C15.0784 15.3017 14.8291 15.5356 14.6529 15.8218C14.4767 16.1079 14.3801 16.4359 14.373 16.7719C14.3659 17.1078 14.4485 17.4396 14.6124 17.733C14.7763 18.0263 15.0155 18.2707 15.3053 18.4407C15.5951 18.6108 15.9251 18.7005 16.2611 18.7005C16.5567 18.6984 16.8478 18.6278 17.1115 18.4941C17.5574 18.2683 17.8958 17.8751 18.0524 17.4004C18.2091 16.9258 18.1713 16.4084 17.9474 15.9615Z" fill="white"/>
<path d="M21.2481 15.8296C21.0645 15.7091 20.8493 15.6457 20.6297 15.6475C20.4101 15.6493 20.1959 15.7162 20.0143 15.8397C19.8327 15.9632 19.6918 16.1377 19.6094 16.3413C19.527 16.5449 19.5069 16.7683 19.5515 16.9834C19.5961 17.1984 19.7034 17.3954 19.86 17.5494C20.0165 17.7035 20.2152 17.8076 20.431 17.8487C20.6467 17.8898 20.8698 17.866 21.072 17.7803C21.2742 17.6946 21.4465 17.5509 21.567 17.3673C21.7281 17.1209 21.785 16.8208 21.7252 16.5326C21.6654 16.2444 21.4939 15.9916 21.2481 15.8296Z" fill="white"/>
<path d="M24.864 12.9925C24.8745 12.8063 24.8296 12.6211 24.7349 12.4604C24.6402 12.2997 24.5 12.1707 24.332 12.0897C24.164 12.0087 23.9757 11.9793 23.791 12.0053C23.6063 12.0312 23.4335 12.1113 23.2943 12.2355C23.1551 12.3597 23.0559 12.5223 23.0091 12.7029C22.9624 12.8835 22.9702 13.0738 23.0316 13.2499C23.093 13.426 23.2053 13.58 23.3542 13.6923C23.5031 13.8047 23.6819 13.8703 23.8681 13.881C24.118 13.8951 24.3632 13.8095 24.5499 13.6428C24.7367 13.4762 24.8496 13.2423 24.864 12.9925Z" fill="white"/>
<path d="M27.4771 12.3208C27.3565 12.3139 27.2365 12.3429 27.1323 12.4041C27.0282 12.4654 26.9445 12.5561 26.8919 12.6649C26.8393 12.7737 26.8202 12.8957 26.8369 13.0153C26.8537 13.135 26.9055 13.247 26.9859 13.3372C27.0663 13.4275 27.1716 13.4918 27.2886 13.5221C27.4056 13.5525 27.5289 13.5475 27.643 13.5077C27.7571 13.4679 27.8569 13.3952 27.9297 13.2988C28.0024 13.2023 28.045 13.0865 28.0519 12.9658C28.061 12.8041 28.0055 12.6455 27.8978 12.5246C27.79 12.4037 27.6388 12.3304 27.4771 12.3208Z" fill="white"/>
<path d="M25.0168 18.3785C24.8883 18.2943 24.7377 18.2501 24.584 18.2515C24.4303 18.2529 24.2805 18.2998 24.1535 18.3863C24.0265 18.4728 23.928 18.5951 23.8705 18.7376C23.813 18.8801 23.799 19.0364 23.8303 19.1868C23.8616 19.3373 23.9368 19.4751 24.0464 19.5828C24.156 19.6905 24.295 19.7633 24.446 19.792C24.597 19.8207 24.753 19.804 24.8945 19.744C25.036 19.684 25.1565 19.5833 25.2408 19.4549C25.2968 19.3695 25.3354 19.2739 25.3545 19.1736C25.3736 19.0733 25.3727 18.9702 25.3519 18.8703C25.3311 18.7703 25.2908 18.6754 25.2333 18.591C25.1758 18.5067 25.1023 18.4344 25.0168 18.3785Z" fill="white"/>
<path d="M7.67903 24.0826C7.57802 24.0163 7.45962 23.9814 7.3388 23.9824C7.21799 23.9834 7.10018 24.0202 7.00028 24.0882C6.90037 24.1561 6.82286 24.2522 6.77753 24.3642C6.73221 24.4762 6.7211 24.5991 6.74563 24.7174C6.77016 24.8357 6.82921 24.9441 6.91532 25.0288C7.00144 25.1136 7.11074 25.1709 7.22943 25.1935C7.34811 25.2161 7.47083 25.2031 7.58209 25.1559C7.69334 25.1088 7.78813 25.0298 7.85447 24.9288C7.89854 24.8617 7.92895 24.7866 7.94399 24.7078C7.95902 24.629 7.95837 24.5479 7.94208 24.4693C7.92579 24.3908 7.89417 24.3162 7.84903 24.2498C7.8039 24.1834 7.74613 24.1266 7.67903 24.0826Z" fill="white"/>
<path d="M20.4844 24.0184C20.3765 24.0728 20.2871 24.1579 20.2276 24.2631C20.1681 24.3683 20.1412 24.4888 20.1501 24.6093C20.1591 24.7298 20.2036 24.8449 20.278 24.9401C20.3524 25.0353 20.4534 25.1064 20.5682 25.1442C20.6829 25.182 20.8063 25.1849 20.9228 25.1526C21.0392 25.1203 21.1435 25.0542 21.2223 24.9626C21.3012 24.871 21.3511 24.7581 21.3658 24.6382C21.3805 24.5183 21.3593 24.3966 21.3048 24.2888C21.2688 24.217 21.219 24.1532 21.1582 24.1007C21.0975 24.0483 21.027 24.0084 20.9507 23.9833C20.8745 23.9582 20.7941 23.9483 20.7141 23.9544C20.6341 23.9604 20.556 23.9821 20.4844 24.0184Z" fill="white"/>
<path d="M13.3881 17.8533C13.6184 17.5018 13.725 17.0836 13.6908 16.6647C13.6566 16.2459 13.4837 15.8504 13.1995 15.5408C12.9152 15.2313 12.5359 15.0254 12.1214 14.9558C11.707 14.8862 11.2812 14.9567 10.9114 15.1564C10.5416 15.356 10.2489 15.6733 10.0797 16.0579C9.91054 16.4426 9.8745 16.8728 9.9773 17.2802C10.0801 17.6877 10.3159 18.0493 10.6473 18.3076C10.9787 18.566 11.3868 18.7065 11.8071 18.7068C12.1209 18.7079 12.43 18.6303 12.7062 18.4813C12.9824 18.3322 13.2168 18.1163 13.3881 17.8533Z" fill="white"/>
<path d="M9.61442 20.752C9.45833 20.6499 9.27548 20.5964 9.08897 20.5982C8.90246 20.6 8.72067 20.657 8.56658 20.7621C8.41249 20.8672 8.29301 21.0156 8.22325 21.1886C8.15349 21.3616 8.13657 21.5514 8.17465 21.7339C8.21272 21.9165 8.30408 22.0837 8.43716 22.2144C8.57024 22.3451 8.73908 22.4334 8.92234 22.4681C9.10559 22.5029 9.29503 22.4825 9.46671 22.4096C9.63839 22.3367 9.7846 22.2145 9.88686 22.0586C10.0238 21.8491 10.0721 21.5939 10.021 21.3489C9.96992 21.104 9.82368 20.8893 9.61442 20.752Z" fill="white"/>
<path d="M14.0175 24.3675C13.8641 24.3587 13.7115 24.3957 13.5791 24.4737C13.4467 24.5516 13.3403 24.6671 13.2735 24.8055C13.2067 24.9439 13.1825 25.099 13.2038 25.2512C13.2252 25.4034 13.2911 25.5458 13.3934 25.6605C13.4957 25.7752 13.6297 25.857 13.7785 25.8956C13.9272 25.9341 14.0841 25.9277 14.2292 25.8771C14.3743 25.8265 14.5012 25.734 14.5937 25.6114C14.6863 25.4887 14.7404 25.3413 14.7492 25.1879C14.7551 25.086 14.7408 24.9839 14.7072 24.8875C14.6736 24.7911 14.6213 24.7023 14.5533 24.6261C14.4854 24.5499 14.4031 24.4878 14.3112 24.4435C14.2192 24.3991 14.1194 24.3733 14.0175 24.3675Z" fill="white"/>
<path d="M14.0259 19.4776C13.8065 19.4643 13.5881 19.5164 13.3983 19.6273C13.2085 19.7382 13.0559 19.9029 12.9599 20.1006C12.8638 20.2983 12.8285 20.5201 12.8586 20.7378C12.8886 20.9556 12.9826 21.1595 13.1287 21.3238C13.2747 21.4881 13.4662 21.6053 13.679 21.6607C13.8917 21.716 14.1161 21.707 14.3236 21.6347C14.5312 21.5625 14.7127 21.4302 14.8451 21.2547C14.9775 21.0792 15.0548 20.8684 15.0672 20.649C15.0841 20.3556 14.984 20.0676 14.7888 19.848C14.5936 19.6284 14.3192 19.4952 14.0259 19.4776Z" fill="white"/>
<path d="M18.5678 20.6771C18.4012 20.7617 18.2634 20.8938 18.1718 21.0567C18.0803 21.2196 18.0392 21.406 18.0536 21.5923C18.0681 21.7786 18.1375 21.9564 18.253 22.1032C18.3686 22.2501 18.5251 22.3593 18.7028 22.4171C18.8805 22.475 19.0713 22.4788 19.2512 22.4281C19.4311 22.3774 19.5918 22.2745 19.7132 22.1324C19.8345 21.9903 19.911 21.8154 19.9328 21.6298C19.9547 21.4442 19.9211 21.2564 19.8361 21.0899C19.78 20.9795 19.7027 20.8811 19.6086 20.8006C19.5145 20.72 19.4054 20.6588 19.2876 20.6205C19.1698 20.5821 19.0455 20.5674 18.922 20.5771C18.7985 20.5868 18.6782 20.6208 18.5678 20.6771Z" fill="white"/>
<path d="M39.4082 8.49842C41.2369 8.49842 42.5176 9.50359 42.5176 11.3694H44.9129C44.9129 8.09594 42.4991 6.51904 39.3721 6.51904C35.531 6.51904 33.2998 8.60472 33.2998 13.0124C33.2998 17.5295 35.531 19.5047 39.3721 19.5047C42.5362 19.5047 44.9129 17.9691 44.9129 14.6945H42.6084C42.6084 16.5233 41.3463 17.5295 39.4092 17.5295C36.8664 17.5295 35.694 16.1208 35.694 13.1951V12.8297C35.6961 9.96076 36.8839 8.49842 39.4082 8.49842Z" fill="white"/>
<path d="M51.2462 6.7417L46.3628 19.2888H48.7777L49.7828 16.5632H55.5218L56.5538 19.2888H59.0781L54.1915 6.7417H51.2462ZM50.5145 14.5849L51.7952 11.1452C52.0512 10.4693 52.5083 9.00591 52.6002 8.74997H52.691C52.7829 9.00591 53.24 10.4868 53.496 11.1452L54.7757 14.5839L50.5145 14.5849Z" fill="white"/>
<path d="M72.1373 10.5457C72.1373 8.22365 70.8019 6.7417 68.0403 6.7417H61.4189V19.2888H63.7606V14.4384H67.6553L70.0289 19.2888H72.5893L69.9061 14.0761C71.387 13.491 72.1373 12.2474 72.1373 10.5457ZM67.8566 12.4662H63.7606V8.73552H67.8566C69.1187 8.73552 69.7771 9.41251 69.7771 10.5457C69.7771 11.7355 69.064 12.4662 67.8566 12.4662Z" fill="white"/>
<path d="M80.3494 6.7417H75.3359V19.2888H80.3473C84.1327 19.2888 86.4361 17.3135 86.4361 13.0152C86.4361 8.71695 84.1348 6.7417 80.3494 6.7417ZM84.044 13.1979C84.0254 15.942 82.7271 17.2949 80.3494 17.2949H77.6796V8.73552H80.3494C82.723 8.73552 84.044 10.0895 84.044 12.8326V13.1979Z" fill="white"/>
<path d="M92.5706 6.7417L87.6851 19.2888H90.0989L91.1051 16.5632H96.8482L97.8719 19.2888H100.396L95.5128 6.7417H92.5706ZM91.8389 14.5849L93.1175 11.1452C93.3734 10.4693 93.8306 9.00591 93.9225 8.74997H94.0154C94.1062 9.00591 94.5644 10.4868 94.8203 11.1452L96.1 14.5839L91.8389 14.5849Z" fill="white"/>
<path d="M111.099 14.2041C111.099 14.4414 111.135 15.0813 111.135 15.1917L111.044 15.2278C110.99 15.1556 110.623 14.5147 110.425 14.2227L104.975 6.7417H102.741V19.2888H104.99V11.7717C104.99 11.4621 104.953 10.8573 104.953 10.7655L105.045 10.7108C105.1 10.784 105.374 11.3145 105.664 11.7355L111.152 19.2888H113.346V6.7417H111.097V14.2041H111.099Z" fill="white"/>
<path d="M122.672 6.52295C118.74 6.52295 116.362 8.60759 116.362 13.0153C116.362 17.4229 118.736 19.5076 122.672 19.5076C126.608 19.5076 129 17.4229 129 13.0153C129 8.60759 126.604 6.52295 122.672 6.52295ZM126.604 13.2165C126.604 16.0875 125.232 17.5323 122.672 17.5323C120.13 17.5323 118.759 16.0875 118.759 13.2165V12.8326C118.759 9.96054 120.149 8.4982 122.672 8.4982C125.215 8.4982 126.604 9.96054 126.604 12.8326V13.2165Z" fill="white"/>
</g>
<defs>
<clipPath id="clip0_3179_491">
<rect width="129" height="25.9207" fill="white"/>
</clipPath>
</defs>
</svg>
