<svg width="129" height="26" viewBox="0 0 129 26" fill="none" xmlns="http://www.w3.org/2000/svg">
<g opacity="0.3" clip-path="url(#clip0_3179_451)">
<path d="M7.68729 12.8629C7.65854 13.3637 7.82977 13.8555 8.16338 14.2301C8.49699 14.6047 8.96567 14.8316 9.46646 14.8609H9.56966C9.93847 14.8605 10.2991 14.7521 10.607 14.5491C10.915 14.3461 11.1567 14.0574 11.3024 13.7186C11.4482 13.3798 11.4915 13.0057 11.4271 12.6425C11.3627 12.2794 11.1934 11.943 10.9401 11.675C10.6867 11.407 10.3604 11.219 10.0015 11.1343C9.64251 11.0495 9.26661 11.0717 8.92014 11.1982C8.57367 11.3246 8.27181 11.5497 8.05181 11.8458C7.8318 12.1418 7.70329 12.4957 7.68213 12.8639L7.68729 12.8629Z" fill="#565F77"/>
<path d="M0.644971 12.384C0.52457 12.3773 0.404873 12.4064 0.301008 12.4676C0.197142 12.5289 0.11377 12.6196 0.0614277 12.7282C0.00908511 12.8369 -0.00987856 12.9586 0.00693324 13.078C0.023745 13.1974 0.0755777 13.3092 0.155881 13.3991C0.236184 13.4891 0.341353 13.5532 0.458098 13.5834C0.574842 13.6136 0.697922 13.6086 0.811782 13.5688C0.925642 13.5291 1.02517 13.4565 1.0978 13.3603C1.17042 13.264 1.21287 13.1484 1.21979 13.028C1.22453 12.9479 1.21341 12.8677 1.18705 12.7919C1.1607 12.7162 1.11963 12.6464 1.06622 12.5865C1.0128 12.5267 0.948091 12.478 0.875801 12.4432C0.80351 12.4085 0.725065 12.3884 0.644971 12.384Z" fill="#565F77"/>
<path d="M7.56777 1.90197C7.675 1.84691 7.76355 1.76135 7.82226 1.65606C7.88097 1.55078 7.90723 1.43048 7.89772 1.31031C7.88821 1.19014 7.84336 1.07547 7.76883 0.980729C7.69429 0.885991 7.59339 0.81542 7.47883 0.777902C7.36427 0.740384 7.24117 0.737595 7.12503 0.769885C7.00888 0.802176 6.90489 0.868104 6.82614 0.959369C6.74738 1.05063 6.69739 1.16316 6.68245 1.28278C6.6675 1.40239 6.68828 1.52376 6.74217 1.63159C6.77839 1.70377 6.82854 1.76806 6.88972 1.82077C6.95091 1.87348 7.02192 1.91355 7.09867 1.93869C7.17541 1.96382 7.25638 1.97352 7.33689 1.96722C7.4174 1.96092 7.49587 1.93874 7.56777 1.90197Z" fill="#565F77"/>
<path d="M9.48428 5.24367C9.65082 5.15966 9.78871 5.02816 9.88052 4.86579C9.97234 4.70343 10.014 4.51748 10.0001 4.33147C9.98626 4.14546 9.91757 3.96773 9.80272 3.82075C9.68788 3.67377 9.53204 3.56413 9.35489 3.50571C9.17775 3.44729 8.98727 3.4427 8.80751 3.49252C8.62776 3.54234 8.46682 3.64434 8.34503 3.78562C8.22324 3.9269 8.14607 4.10112 8.12328 4.28625C8.10049 4.47138 8.1331 4.65911 8.21698 4.82571C8.27272 4.93639 8.34972 5.03501 8.44358 5.11593C8.53744 5.19685 8.64633 5.25847 8.76402 5.29729C8.88172 5.3361 9.0059 5.35135 9.12949 5.34215C9.25307 5.33294 9.37363 5.29948 9.48428 5.24367Z" fill="#565F77"/>
<path d="M3.03518 7.54186C3.16364 7.62633 3.31426 7.6708 3.468 7.66965C3.62174 7.66849 3.77168 7.62176 3.89885 7.53536C4.02602 7.44897 4.1247 7.32679 4.18242 7.18429C4.24013 7.0418 4.25428 6.88538 4.22308 6.73484C4.19187 6.5843 4.11671 6.4464 4.00711 6.33858C3.89751 6.23077 3.75839 6.15789 3.60735 6.12916C3.45632 6.10044 3.30016 6.11716 3.15863 6.17721C3.0171 6.23726 2.89656 6.33794 2.81227 6.46652C2.69938 6.63872 2.65944 6.84869 2.70124 7.05031C2.74303 7.25193 2.86314 7.42872 3.03518 7.54186Z" fill="#565F77"/>
<path d="M4.18389 12.0403C3.99767 12.0298 3.81252 12.0747 3.65183 12.1694C3.49115 12.2641 3.36214 12.4044 3.28113 12.5724C3.20011 12.7404 3.17072 12.9286 3.19668 13.1133C3.22263 13.298 3.30275 13.4709 3.42692 13.61C3.5511 13.7492 3.71374 13.8484 3.8943 13.8952C4.07486 13.942 4.26523 13.9341 4.44134 13.8727C4.61746 13.8113 4.77141 13.699 4.88374 13.5502C4.99607 13.4013 5.06174 13.2224 5.07244 13.0362C5.08653 12.7863 5.00086 12.5411 4.83425 12.3544C4.66765 12.1676 4.43373 12.0547 4.18389 12.0403Z" fill="#565F77"/>
<path d="M3.13849 18.3819C3.00135 18.4512 2.88783 18.5596 2.81229 18.6934C2.73675 18.8272 2.70258 18.9805 2.7141 19.1337C2.72562 19.2869 2.78231 19.4333 2.87701 19.5543C2.9717 19.6753 3.10015 19.7656 3.24612 19.8136C3.39208 19.8616 3.54901 19.8653 3.69707 19.8242C3.84512 19.783 3.97766 19.6989 4.07792 19.5825C4.17818 19.466 4.24166 19.3224 4.26034 19.1699C4.27902 19.0174 4.25207 18.8627 4.18288 18.7255C4.1369 18.6344 4.07341 18.5531 3.99603 18.4865C3.91865 18.4199 3.8289 18.3692 3.7319 18.3373C3.63491 18.3054 3.53258 18.2929 3.43076 18.3005C3.32894 18.3082 3.22962 18.3358 3.13849 18.3819Z" fill="#565F77"/>
<path d="M6.8049 10.0909C6.98858 10.2113 7.20383 10.2745 7.42343 10.2726C7.64303 10.2706 7.85712 10.2036 8.03863 10.08C8.22014 9.95637 8.36092 9.7817 8.44317 9.57808C8.52542 9.37445 8.54545 9.15101 8.50071 8.93601C8.45598 8.721 8.3485 8.52409 8.19186 8.37016C8.03522 8.21624 7.83646 8.11222 7.62071 8.07125C7.40495 8.03028 7.18189 8.05421 6.97974 8.14001C6.77758 8.22581 6.60541 8.36962 6.48498 8.55327C6.40487 8.67519 6.34959 8.81172 6.3223 8.95503C6.29502 9.09835 6.29628 9.24564 6.32599 9.38847C6.35571 9.5313 6.4133 9.66686 6.49548 9.7874C6.57766 9.90795 6.6828 10.0111 6.8049 10.0909Z" fill="#565F77"/>
<path d="M18.4376 5.16926C18.594 5.27127 18.7771 5.32463 18.9638 5.32259C19.1505 5.32054 19.3324 5.26319 19.4866 5.15778C19.6407 5.05236 19.7601 4.90362 19.8297 4.73036C19.8993 4.5571 19.916 4.36708 19.8776 4.18435C19.8392 4.00161 19.7476 3.83434 19.6141 3.7037C19.4807 3.57306 19.3116 3.4849 19.1281 3.45037C18.9446 3.41584 18.755 3.43649 18.5832 3.5097C18.4114 3.58292 18.2652 3.70542 18.1631 3.86172C18.095 3.96553 18.0482 4.08176 18.0252 4.20372C18.0021 4.32569 18.0034 4.451 18.0289 4.57247C18.0544 4.69394 18.1036 4.80918 18.1738 4.91159C18.2439 5.014 18.3335 5.10156 18.4376 5.16926Z" fill="#565F77"/>
<path d="M20.3737 1.83796C20.4748 1.90423 20.5932 1.93901 20.7141 1.93793C20.835 1.93684 20.9528 1.89993 21.0527 1.83186C21.1525 1.76379 21.23 1.66763 21.2752 1.55554C21.3204 1.44344 21.3314 1.32046 21.3067 1.20214C21.2819 1.08383 21.2227 0.975495 21.1364 0.890858C21.0501 0.80622 20.9407 0.749078 20.8219 0.726663C20.7031 0.704247 20.5804 0.717565 20.4692 0.764931C20.358 0.812298 20.2633 0.891583 20.1972 0.992757C20.1086 1.12827 20.0775 1.2934 20.1106 1.45188C20.1436 1.61035 20.2383 1.74921 20.3737 1.83796Z" fill="#565F77"/>
<path d="M18.5863 11.0651C18.3387 11.0509 18.0906 11.0856 17.8563 11.1672C17.6221 11.2488 17.4062 11.3758 17.221 11.5409C16.847 11.8743 16.6207 12.3425 16.592 12.8427C16.5632 13.3429 16.7344 13.8341 17.0677 14.2081C17.4011 14.5821 17.8694 14.8083 18.3696 14.8371C18.4057 14.8371 18.4429 14.8371 18.479 14.8371C18.8434 14.8369 19.1999 14.7313 19.5056 14.5331C19.8113 14.3348 20.0532 14.0523 20.202 13.7197C20.3508 13.3871 20.4002 13.0186 20.3442 12.6585C20.2883 12.2985 20.1294 11.9623 19.8866 11.6905C19.7223 11.5052 19.5226 11.3544 19.2994 11.247C19.0761 11.1397 18.8337 11.0778 18.5863 11.0651Z" fill="#565F77"/>
<path d="M10.1044 9.95997C10.2612 10.2732 10.5023 10.5364 10.8006 10.72C11.0988 10.9036 11.4425 11.0003 11.7927 10.9992C12.1157 10.9993 12.4332 10.9166 12.7151 10.759C12.997 10.6015 13.2338 10.3743 13.4029 10.0992C13.572 9.82409 13.6678 9.51024 13.6811 9.18759C13.6945 8.86494 13.6249 8.54425 13.479 8.25614C13.3211 7.94435 13.0796 7.68266 12.7814 7.5004C12.4832 7.31813 12.1402 7.22247 11.7907 7.22414C11.4687 7.22469 11.1523 7.30748 10.8713 7.46466C10.5904 7.62184 10.3542 7.84819 10.1853 8.12225C10.0164 8.39631 9.92029 8.70898 9.90613 9.0306C9.89196 9.35222 9.96021 9.67213 10.1044 9.95997Z" fill="#565F77"/>
<path d="M24.9138 7.53971C25.051 7.47048 25.1646 7.36215 25.2402 7.2284C25.3158 7.09465 25.3501 6.94149 25.3387 6.78827C25.3273 6.63505 25.2707 6.48864 25.1761 6.36756C25.0815 6.24648 24.9532 6.15615 24.8073 6.108C24.6614 6.05985 24.5045 6.05602 24.3564 6.09702C24.2083 6.13801 24.0757 6.22198 23.9753 6.33831C23.875 6.45465 23.8113 6.59812 23.7925 6.75061C23.7736 6.90309 23.8004 7.05775 23.8694 7.19502C23.9623 7.37913 24.1245 7.51885 24.3203 7.58348C24.5161 7.64811 24.7296 7.63237 24.9138 7.53971Z" fill="#565F77"/>
<path d="M20.1241 8.1415C19.928 8.24029 19.7655 8.39502 19.6573 8.58614C19.5491 8.77725 19.5 8.99616 19.5162 9.21519C19.5324 9.43421 19.6132 9.64351 19.7484 9.81662C19.8835 9.98973 20.067 10.1189 20.2755 10.1877C20.4841 10.2566 20.7084 10.262 20.92 10.2034C21.1317 10.1448 21.3212 10.0247 21.4646 9.85836C21.608 9.69203 21.6989 9.4869 21.7257 9.26893C21.7526 9.05095 21.7142 8.82991 21.6154 8.63376C21.5499 8.50343 21.4593 8.38729 21.3489 8.29199C21.2385 8.19669 21.1103 8.1241 20.9718 8.07838C20.8333 8.03265 20.6872 8.01469 20.5417 8.02552C20.3962 8.03635 20.2543 8.07576 20.1241 8.1415Z" fill="#565F77"/>
<path d="M13.9546 1.55318C14.1081 1.56192 14.2607 1.52495 14.3931 1.44694C14.5256 1.36892 14.6319 1.25338 14.6987 1.11492C14.7655 0.976465 14.7897 0.821311 14.7683 0.669089C14.7469 0.516866 14.6808 0.374414 14.5784 0.259753C14.476 0.145092 14.3419 0.0633723 14.1931 0.0249326C14.0443 -0.0135072 13.8874 -0.00694042 13.7423 0.0438022C13.5972 0.0945449 13.4704 0.187184 13.3779 0.31C13.2855 0.432816 13.2315 0.580291 13.2229 0.733771C13.2114 0.939438 13.2819 1.14128 13.4191 1.29493C13.5563 1.44858 13.7489 1.54147 13.9546 1.55318Z" fill="#565F77"/>
<path d="M13.9467 6.44373C14.1659 6.45602 14.3838 6.40305 14.5729 6.29151C14.762 6.17998 14.9138 6.01488 15.0092 5.81709C15.1045 5.61929 15.139 5.39769 15.1084 5.18027C15.0778 4.96285 14.9834 4.75939 14.8372 4.59559C14.691 4.43179 14.4995 4.31502 14.287 4.26002C14.0744 4.20501 13.8503 4.21426 13.643 4.28659C13.4357 4.35891 13.2545 4.49107 13.1223 4.66635C12.9901 4.84164 12.9128 5.05218 12.9002 5.27138C12.8836 5.56559 12.9845 5.85437 13.1807 6.07421C13.3769 6.29405 13.6525 6.42697 13.9467 6.44373Z" fill="#565F77"/>
<path d="M7.93016 17.7792C8.12629 17.6803 8.28868 17.5255 8.39681 17.3343C8.50494 17.1432 8.55394 16.9242 8.53762 16.7052C8.5213 16.4861 8.44038 16.2769 8.30512 16.1038C8.16985 15.9308 7.9863 15.8017 7.77768 15.733C7.56907 15.6643 7.34476 15.659 7.13312 15.7177C6.92149 15.7765 6.73204 15.8967 6.58874 16.0632C6.44543 16.2296 6.35471 16.4348 6.32804 16.6529C6.30137 16.8709 6.33996 17.0919 6.43892 17.288C6.57158 17.5508 6.80319 17.7502 7.08283 17.8424C7.36248 17.9345 7.66726 17.9118 7.93016 17.7792Z" fill="#565F77"/>
<path d="M14.6639 8.06416C14.4336 8.41562 14.3271 8.83385 14.3612 9.25267C14.3954 9.67148 14.5682 10.0669 14.8524 10.3765C15.1365 10.686 15.5158 10.8919 15.9302 10.9616C16.3446 11.0314 16.7704 10.9609 17.1402 10.7614C17.51 10.5619 17.8027 10.2447 17.972 9.86015C18.1413 9.47556 18.1775 9.0455 18.0749 8.63802C17.9723 8.23055 17.7367 7.86893 17.4054 7.61041C17.0742 7.35189 16.6662 7.21123 16.246 7.21069C15.9321 7.21048 15.6232 7.28838 15.347 7.43737C15.0708 7.58637 14.8361 7.80177 14.6639 8.06416Z" fill="#565F77"/>
<path d="M17.9474 15.962C17.7961 15.662 17.5675 15.4077 17.2851 15.2255C17.0028 15.0433 16.6769 14.9398 16.3412 14.9255C16.0054 14.9113 15.672 14.9869 15.3752 15.1445C15.0784 15.3021 14.8291 15.5361 14.6529 15.8223C14.4767 16.1084 14.3801 16.4364 14.373 16.7724C14.3659 17.1083 14.4485 17.4401 14.6124 17.7335C14.7763 18.0268 15.0155 18.2711 15.3053 18.4412C15.5951 18.6113 15.9251 18.7009 16.2611 18.7009C16.5567 18.6989 16.8478 18.6283 17.1115 18.4945C17.5574 18.2688 17.8958 17.8756 18.0524 17.4009C18.2091 16.9263 18.1713 16.4089 17.9474 15.962Z" fill="#565F77"/>
<path d="M21.2481 15.8299C21.0645 15.7093 20.8493 15.646 20.6297 15.6477C20.4101 15.6495 20.1959 15.7164 20.0143 15.8399C19.8327 15.9634 19.6918 16.138 19.6094 16.3416C19.527 16.5451 19.5069 16.7686 19.5515 16.9836C19.5961 17.1987 19.7034 17.3957 19.86 17.5497C20.0165 17.7037 20.2152 17.8079 20.431 17.849C20.6467 17.8901 20.8698 17.8662 21.072 17.7806C21.2742 17.6949 21.4465 17.5511 21.567 17.3675C21.7281 17.1212 21.785 16.821 21.7252 16.5328C21.6654 16.2446 21.4939 15.9918 21.2481 15.8299Z" fill="#565F77"/>
<path d="M24.864 12.993C24.8745 12.8068 24.8296 12.6216 24.7349 12.4609C24.6402 12.3002 24.5 12.1712 24.332 12.0902C24.164 12.0092 23.9757 11.9798 23.791 12.0058C23.6063 12.0317 23.4335 12.1118 23.2943 12.236C23.1551 12.3602 23.0559 12.5228 23.0091 12.7034C22.9624 12.8839 22.9702 13.0743 23.0316 13.2504C23.093 13.4265 23.2053 13.5805 23.3542 13.6928C23.5031 13.8052 23.6819 13.8708 23.8681 13.8815C24.118 13.8956 24.3632 13.8099 24.5499 13.6433C24.7367 13.4767 24.8496 13.2428 24.864 12.993Z" fill="#565F77"/>
<path d="M27.4771 12.3211C27.3565 12.3141 27.2365 12.3431 27.1323 12.4044C27.0282 12.4656 26.9445 12.5564 26.8919 12.6652C26.8393 12.774 26.8202 12.8959 26.8369 13.0156C26.8537 13.1353 26.9055 13.2473 26.9859 13.3375C27.0663 13.4277 27.1716 13.492 27.2886 13.5224C27.4056 13.5527 27.5289 13.5477 27.643 13.5079C27.7571 13.4682 27.8569 13.3955 27.9297 13.299C28.0024 13.2026 28.045 13.0867 28.0519 12.9661C28.061 12.8044 28.0055 12.6457 27.8978 12.5248C27.79 12.4039 27.6388 12.3307 27.4771 12.3211Z" fill="#565F77"/>
<path d="M25.0168 18.379C24.8883 18.2948 24.7377 18.2506 24.584 18.252C24.4303 18.2534 24.2805 18.3003 24.1535 18.3868C24.0265 18.4733 23.928 18.5956 23.8705 18.7381C23.813 18.8805 23.799 19.0369 23.8303 19.1873C23.8616 19.3378 23.9368 19.4756 24.0464 19.5833C24.156 19.691 24.295 19.7638 24.446 19.7925C24.597 19.8212 24.753 19.8045 24.8945 19.7444C25.036 19.6844 25.1565 19.5838 25.2408 19.4554C25.2968 19.37 25.3354 19.2744 25.3545 19.1741C25.3736 19.0738 25.3727 18.9707 25.3519 18.8708C25.3311 18.7708 25.2908 18.6759 25.2333 18.5915C25.1758 18.5071 25.1023 18.4349 25.0168 18.379Z" fill="#565F77"/>
<path d="M7.67903 24.0828C7.57802 24.0165 7.45962 23.9817 7.3388 23.9827C7.21799 23.9837 7.10018 24.0205 7.00028 24.0884C6.90037 24.1564 6.82286 24.2524 6.77753 24.3644C6.73221 24.4764 6.7211 24.5993 6.74563 24.7176C6.77016 24.8359 6.82921 24.9443 6.91532 25.0291C7.00144 25.1138 7.11074 25.1711 7.22943 25.1937C7.34811 25.2164 7.47083 25.2033 7.58209 25.1562C7.69334 25.1091 7.78813 25.03 7.85447 24.9291C7.89854 24.862 7.92895 24.7869 7.94399 24.708C7.95902 24.6292 7.95837 24.5482 7.94208 24.4696C7.92579 24.391 7.89417 24.3164 7.84903 24.25C7.8039 24.1837 7.74613 24.1268 7.67903 24.0828Z" fill="#565F77"/>
<path d="M20.4844 24.0189C20.3765 24.0733 20.2871 24.1584 20.2276 24.2636C20.1681 24.3688 20.1412 24.4892 20.1501 24.6097C20.1591 24.7303 20.2036 24.8454 20.278 24.9406C20.3524 25.0358 20.4534 25.1068 20.5682 25.1447C20.6829 25.1825 20.8063 25.1854 20.9228 25.1531C21.0392 25.1208 21.1435 25.0547 21.2223 24.9631C21.3012 24.8715 21.3511 24.7586 21.3658 24.6387C21.3805 24.5187 21.3593 24.3971 21.3048 24.2892C21.2688 24.2175 21.219 24.1536 21.1582 24.1012C21.0975 24.0488 21.027 24.0089 20.9507 23.9838C20.8745 23.9587 20.7941 23.9488 20.7141 23.9548C20.6341 23.9609 20.556 23.9826 20.4844 24.0189Z" fill="#565F77"/>
<path d="M13.3881 17.8536C13.6184 17.5021 13.725 17.0838 13.6908 16.665C13.6566 16.2461 13.4837 15.8506 13.1995 15.5411C12.9152 15.2316 12.5359 15.0257 12.1214 14.956C11.707 14.8864 11.2812 14.957 10.9114 15.1566C10.5416 15.3562 10.2489 15.6735 10.0797 16.0582C9.91054 16.4429 9.8745 16.873 9.9773 17.2805C10.0801 17.6879 10.3159 18.0495 10.6473 18.3079C10.9787 18.5663 11.3868 18.7067 11.8071 18.7071C12.1209 18.7081 12.43 18.6306 12.7062 18.4815C12.9824 18.3324 13.2168 18.1165 13.3881 17.8536Z" fill="#565F77"/>
<path d="M9.61442 20.7525C9.45833 20.6504 9.27548 20.5969 9.08897 20.5987C8.90246 20.6005 8.72067 20.6575 8.56658 20.7626C8.41249 20.8677 8.29301 21.0161 8.22325 21.1891C8.15349 21.3621 8.13657 21.5518 8.17465 21.7344C8.21272 21.917 8.30408 22.0842 8.43716 22.2149C8.57024 22.3456 8.73908 22.4339 8.92234 22.4686C9.10559 22.5034 9.29503 22.483 9.46671 22.4101C9.63839 22.3372 9.7846 22.215 9.88686 22.059C10.0238 21.8496 10.0721 21.5944 10.021 21.3494C9.96992 21.1044 9.82368 20.8898 9.61442 20.7525Z" fill="#565F77"/>
<path d="M14.0175 24.3677C13.8641 24.359 13.7115 24.3959 13.5791 24.4739C13.4467 24.5519 13.3403 24.6674 13.2735 24.8058C13.2067 24.9442 13.1825 25.0993 13.2038 25.2515C13.2252 25.4036 13.2911 25.5461 13.3934 25.6608C13.4957 25.7755 13.6297 25.8573 13.7785 25.8958C13.9272 25.9343 14.0841 25.9279 14.2292 25.8773C14.3743 25.8268 14.5012 25.7343 14.5937 25.6116C14.6863 25.4889 14.7404 25.3416 14.7492 25.1882C14.7551 25.0862 14.7408 24.9842 14.7072 24.8878C14.6736 24.7914 14.6213 24.7025 14.5533 24.6263C14.4854 24.5501 14.4031 24.4881 14.3112 24.4437C14.2192 24.3993 14.1194 24.3735 14.0175 24.3677Z" fill="#565F77"/>
<path d="M14.0259 19.4779C13.8065 19.4645 13.5881 19.5166 13.3983 19.6275C13.2085 19.7384 13.0559 19.9032 12.9599 20.1009C12.8638 20.2986 12.8285 20.5203 12.8586 20.7381C12.8886 20.9558 12.9826 21.1598 13.1287 21.324C13.2747 21.4883 13.4662 21.6056 13.679 21.6609C13.8917 21.7163 14.1161 21.7072 14.3236 21.635C14.5312 21.5627 14.7127 21.4304 14.8451 21.255C14.9775 21.0795 15.0548 20.8687 15.0672 20.6492C15.0841 20.3559 14.984 20.0678 14.7888 19.8482C14.5936 19.6286 14.3192 19.4954 14.0259 19.4779Z" fill="#565F77"/>
<path d="M18.5678 20.6771C18.4012 20.7617 18.2634 20.8938 18.1718 21.0567C18.0803 21.2196 18.0392 21.406 18.0536 21.5923C18.0681 21.7786 18.1375 21.9564 18.253 22.1032C18.3686 22.2501 18.5251 22.3593 18.7028 22.4171C18.8805 22.475 19.0713 22.4788 19.2512 22.4281C19.4311 22.3774 19.5918 22.2745 19.7132 22.1324C19.8345 21.9903 19.911 21.8154 19.9328 21.6298C19.9547 21.4442 19.9211 21.2564 19.8361 21.0899C19.78 20.9795 19.7027 20.8811 19.6086 20.8006C19.5145 20.72 19.4054 20.6588 19.2876 20.6205C19.1698 20.5821 19.0455 20.5674 18.922 20.5771C18.7985 20.5868 18.6782 20.6208 18.5678 20.6771Z" fill="#565F77"/>
<path d="M39.4082 8.49866C41.2369 8.49866 42.5176 9.50383 42.5176 11.3697H44.9129C44.9129 8.09618 42.4991 6.51929 39.3721 6.51929C35.531 6.51929 33.2998 8.60496 33.2998 13.0126C33.2998 17.5297 35.531 19.5049 39.3721 19.5049C42.5362 19.5049 44.9129 17.9693 44.9129 14.6948H42.6084C42.6084 16.5235 41.3463 17.5297 39.4092 17.5297C36.8664 17.5297 35.694 16.121 35.694 13.1953V12.83C35.6961 9.96101 36.8839 8.49866 39.4082 8.49866Z" fill="#565F77"/>
<path d="M51.2462 6.74219L46.3628 19.2892H48.7777L49.7828 16.5637H55.5218L56.5538 19.2892H59.0781L54.1915 6.74219H51.2462ZM50.5145 14.5854L51.7952 11.1457C52.0512 10.4698 52.5083 9.00639 52.6002 8.75046H52.691C52.7829 9.00639 53.24 10.4873 53.496 11.1457L54.7757 14.5844L50.5145 14.5854Z" fill="#565F77"/>
<path d="M72.1373 10.5461C72.1373 8.22414 70.8019 6.74219 68.0403 6.74219H61.4189V19.2892H63.7606V14.4388H67.6553L70.0289 19.2892H72.5893L69.9061 14.0766C71.387 13.4915 72.1373 12.2479 72.1373 10.5461ZM67.8566 12.4667H63.7606V8.73601H67.8566C69.1187 8.73601 69.7771 9.413 69.7771 10.5461C69.7771 11.736 69.064 12.4667 67.8566 12.4667Z" fill="#565F77"/>
<path d="M80.3494 6.74219H75.3359V19.2892H80.3473C84.1327 19.2892 86.4361 17.314 86.4361 13.0157C86.4361 8.71744 84.1348 6.74219 80.3494 6.74219ZM84.044 13.1984C84.0254 15.9425 82.7271 17.2954 80.3494 17.2954H77.6796V8.73601H80.3494C82.723 8.73601 84.044 10.09 84.044 12.8331V13.1984Z" fill="#565F77"/>
<path d="M92.5706 6.74219L87.6851 19.2892H90.0989L91.1051 16.5637H96.8482L97.8719 19.2892H100.396L95.5128 6.74219H92.5706ZM91.8389 14.5854L93.1175 11.1457C93.3734 10.4698 93.8306 9.00639 93.9225 8.75046H94.0154C94.1062 9.00639 94.5644 10.4873 94.8203 11.1457L96.1 14.5844L91.8389 14.5854Z" fill="#565F77"/>
<path d="M111.099 14.2046C111.099 14.4419 111.135 15.0818 111.135 15.1922L111.044 15.2283C110.99 15.1561 110.623 14.5152 110.425 14.2232L104.975 6.74219H102.741V19.2892H104.99V11.7722C104.99 11.4626 104.953 10.8578 104.953 10.766L105.045 10.7113C105.1 10.7845 105.374 11.315 105.664 11.736L111.152 19.2892H113.346V6.74219H111.097V14.2046H111.099Z" fill="#565F77"/>
<path d="M122.672 6.52344C118.74 6.52344 116.362 8.60808 116.362 13.0157C116.362 17.4234 118.736 19.5081 122.672 19.5081C126.608 19.5081 129 17.4234 129 13.0157C129 8.60808 126.604 6.52344 122.672 6.52344ZM126.604 13.217C126.604 16.088 125.232 17.5328 122.672 17.5328C120.13 17.5328 118.759 16.088 118.759 13.217V12.8331C118.759 9.96103 120.149 8.49868 122.672 8.49868C125.215 8.49868 126.604 9.96103 126.604 12.8331V13.217Z" fill="#565F77"/>
</g>
<defs>
<clipPath id="clip0_3179_451">
<rect width="129" height="25.9207" fill="white"/>
</clipPath>
</defs>
</svg>
