<svg width="72" height="20" viewBox="0 0 72 20" fill="none" xmlns="http://www.w3.org/2000/svg">
<g opacity="0.3" clip-path="url(#clip0_3360_543)">
<path d="M4.57156 13.5106C3.99379 14.0223 3.25094 14.3195 2.49158 14.3195C1.20397 14.4185 0.0814433 13.4446 -0.00109567 12.157V11.9424C-0.050619 11.0674 0.461122 10.2586 1.28651 9.94491C1.8973 9.68079 2.5411 9.53222 3.21792 9.4827L4.50553 9.38365V9.10302C4.50553 8.27763 3.96077 7.91446 3.03634 7.91446C2.35952 7.94747 1.69921 8.12906 1.10493 8.45921L0.461122 7.27065C1.33604 6.79193 2.30999 6.54431 3.30046 6.5278C5.2979 6.5278 6.23885 7.43573 6.23885 9.18556V12.223C6.18933 12.8668 6.25536 13.5271 6.42043 14.1544H4.85219L4.57156 13.5106ZM3.36649 10.7538C2.98681 10.7373 2.59063 10.8363 2.26047 11.0344C1.97984 11.216 1.79825 11.5297 1.79825 11.8598C1.79825 12.4046 2.24396 12.8668 2.78872 12.8668H2.88777C3.43252 12.8503 3.94427 12.6522 4.35696 12.322V10.7538H3.36649V10.7538ZM7.31186 10.5557C7.31186 8.17858 9.06168 6.61034 11.3398 6.61034C11.6699 6.59383 12.0166 6.62685 12.3467 6.69288V3.1272H14.1791V13.8573C13.3042 14.2369 12.3797 14.4185 11.4223 14.402C9.14422 14.3195 7.31186 13.0484 7.31186 10.5557ZM12.3632 12.6687V8.26112C12.0661 8.17858 11.7525 8.14556 11.4553 8.17858C10.2172 8.14556 9.19374 9.11952 9.16073 10.3576V10.5722C9.06168 11.7443 9.92009 12.7677 11.0921 12.8668C11.2077 12.8833 11.3398 12.8833 11.4553 12.8668C11.7194 12.7677 12.0826 12.7677 12.3632 12.6687ZM14.8394 6.80843H16.7708L18.6032 11.8598L20.4355 6.82494H22.2679L19.247 14.2534H17.8768L14.8394 6.80843Z" fill="#565F77"/>
<path d="M38.5447 8.72344C38.5447 8.26122 38.9078 8.07964 39.5517 8.07964C40.278 8.09615 41.0043 8.24472 41.6647 8.54186V6.99012C40.9548 6.75902 40.212 6.64346 39.4691 6.62695C37.7358 6.62695 36.6298 7.53488 36.6298 8.82249C36.6298 11.1996 40.1294 10.7374 40.1294 12.025C40.1294 12.6688 39.5682 12.8504 38.8418 12.8504C38.132 12.8339 37.4387 12.6028 36.8444 12.2066C36.8444 12.2066 36.2831 13.5767 36.2666 13.5767C37.1085 14.072 38.066 14.3196 39.0234 14.3196C40.6742 14.3196 42.0443 13.6758 42.0443 12.025C42.0443 9.44979 38.5447 9.912 38.5447 8.72344Z" fill="#565F77"/>
<path d="M26.527 12.8338C25.2394 12.8338 24.414 12.0084 24.414 10.4567C24.414 9.08652 25.2394 8.07954 26.6096 8.07954C27.2699 8.06304 27.8972 8.24462 28.4419 8.6243V7.07257C27.8146 6.77543 27.1378 6.62686 26.4445 6.61035H26.2959C24.1664 6.65987 22.4826 8.42621 22.5321 10.5557C22.5321 10.6383 22.5321 10.7043 22.5156 10.7538C22.5486 12.7843 24.2159 14.4185 26.2464 14.3855C27.1543 14.3855 28.0457 14.1379 28.8216 13.6592L28.2768 12.3716C27.7321 12.6852 27.1378 12.8338 26.527 12.8338Z" fill="#565F77"/>
<path d="M35.408 12.223V9.18559C35.408 7.43576 34.4671 6.52783 32.4696 6.52783C31.4791 6.54434 30.4887 6.79196 29.6138 7.27068L30.2246 8.49226C30.8188 8.1621 31.4791 7.98052 32.156 7.9475C33.0804 7.9475 33.6252 8.31067 33.6252 9.13606V9.4167L32.3376 9.49923C31.6607 9.54876 31.0169 9.69733 30.4061 9.96145C29.5808 10.2751 29.069 11.084 29.1185 11.9589V12.1735C29.2011 13.4611 30.3236 14.4351 31.6112 14.336C32.4036 14.336 33.1464 14.0389 33.7242 13.5106L34.0048 14.1544H35.5896C35.4245 13.5271 35.3585 12.8668 35.408 12.223ZM33.5261 12.3056C33.1134 12.6357 32.6017 12.8338 32.0569 12.8503H31.9579C31.4131 12.8503 30.9674 12.3881 30.9674 11.8433C30.9674 11.5132 31.149 11.1995 31.4296 11.0345C31.7598 10.8364 32.156 10.7373 32.5356 10.7538C32.5356 10.7538 33.5426 10.7373 33.5261 10.7538V12.3056Z" fill="#565F77"/>
<path d="M47.4095 6.62685C46.4851 6.67637 45.6102 7.02304 44.9168 7.63382V3.1272H43.0845L43.167 3.14371V14.1379H44.9994V9.00397C45.4946 8.50874 46.1549 8.2116 46.8482 8.16207C47.7727 8.16207 47.9543 8.90492 47.9543 9.81285V14.1379H49.7866V9.2846C49.7866 7.17161 48.5981 6.62685 47.4095 6.62685Z" fill="#565F77"/>
<path d="M61.7049 0.00732422C56.1748 0.00732422 51.7012 4.48093 51.7012 10.011C51.7012 15.5412 56.1748 20.0148 61.7049 20.0148C67.2185 20.0148 71.7086 15.5412 71.7086 10.011C71.7086 4.48093 67.235 0.00732422 61.7049 0.00732422ZM66.8388 9.44978H63.9665L63.6528 8.75645L64.4782 10.5558H66.4922L65.3861 11.9259H65.1055L64.9074 11.4802L66.6572 15.3266L64.5277 15.244L61.5068 8.77296L58.4694 15.244L56.3729 15.3266L59.0471 9.44978H56.0262C56.0097 9.46629 55.1018 8.07963 55.1018 8.07963H59.6744L61.5068 4.05173L63.3392 8.07963H67.9448L66.8388 9.44978ZM56.7526 10.5558H58.5519L57.9246 11.9259H57.6605C57.6605 11.9425 56.7526 10.5558 56.7526 10.5558Z" fill="#565F77"/>
<path d="M61.5067 4.05176L61.1436 7.99712L61.5067 8.77298L61.8699 7.99712L61.5067 4.05176Z" fill="#565F77"/>
</g>
<defs>
<clipPath id="clip0_3360_543">
<rect width="71.7132" height="20" fill="white"/>
</clipPath>
</defs>
</svg>
