<svg width="83" height="23" viewBox="0 0 83 23" fill="none" xmlns="http://www.w3.org/2000/svg">
<g opacity="0.1">
<path d="M5.26039 15.5229C4.5962 16.1112 3.74224 16.4528 2.8693 16.4528C1.38911 16.5666 0.0986768 15.447 0.00379228 13.9668V13.7201C-0.0531384 12.7143 0.535145 11.7844 1.48399 11.4239C2.18614 11.1203 2.92623 10.9495 3.70429 10.8925L5.18449 10.7787V10.4561C5.18449 9.50722 4.55825 9.08973 3.49554 9.08973C2.71749 9.12768 1.95841 9.33643 1.27524 9.71596L0.535145 8.34963C1.54092 7.7993 2.66056 7.51464 3.79917 7.49567C6.09538 7.49567 7.17706 8.5394 7.17706 10.5509V14.0427C7.12013 14.7828 7.19604 15.5419 7.38581 16.263H5.583L5.26039 15.5229ZM3.87508 12.3538C3.43861 12.3348 2.98317 12.4486 2.60363 12.6764C2.28102 12.8851 2.07227 13.2457 2.07227 13.6252C2.07227 14.2514 2.58465 14.7828 3.21089 14.7828H3.32475C3.95099 14.7638 4.53927 14.5361 5.01369 14.1566V12.3538H3.87508V12.3538ZM8.41056 12.126C8.41056 9.39336 10.4221 7.59055 13.0409 7.59055C13.4205 7.57157 13.819 7.60953 14.1985 7.68544V3.58643H16.3049V15.9214C15.2992 16.3579 14.2365 16.5666 13.1358 16.5476C10.517 16.4528 8.41056 14.9915 8.41056 12.126ZM14.2175 14.5551V9.48824C13.8759 9.39336 13.5153 9.3554 13.1738 9.39336C11.7505 9.3554 10.5739 10.475 10.536 11.8983V12.145C10.4221 13.4924 11.4089 14.6689 12.7563 14.7828C12.8891 14.8018 13.0409 14.8018 13.1738 14.7828C13.4774 14.6689 13.8949 14.6689 14.2175 14.5551ZM17.064 7.81827H19.2843L21.3908 13.6252L23.4972 7.83725H25.6036L22.1309 16.3769H20.5558L17.064 7.81827Z" fill="white"/>
<path d="M44.3151 10.0199C44.3151 9.48858 44.7326 9.27983 45.4727 9.27983C46.3077 9.29881 47.1427 9.4696 47.9017 9.81118V8.02736C47.0857 7.76168 46.2318 7.62884 45.3778 7.60986C43.3852 7.60986 42.1138 8.65359 42.1138 10.1338C42.1138 12.8665 46.1369 12.3351 46.1369 13.8153C46.1369 14.5554 45.4917 14.7642 44.6567 14.7642C43.8407 14.7452 43.0436 14.4795 42.3605 14.0241C42.3605 14.0241 41.7153 15.5991 41.6963 15.5991C42.6641 16.1684 43.7648 16.4531 44.8654 16.4531C46.7631 16.4531 48.3382 15.713 48.3382 13.8153C48.3382 10.8549 44.3151 11.3863 44.3151 10.0199Z" fill="white"/>
<path d="M30.5001 14.7451C29.0199 14.7451 28.071 13.7963 28.071 12.0124C28.071 10.4374 29.0199 9.27976 30.5949 9.27976C31.354 9.26079 32.0751 9.46953 32.7014 9.906V8.12217C31.9803 7.78059 31.2022 7.6098 30.4052 7.59082H30.2344C27.7864 7.64775 25.8507 9.67828 25.9076 12.1263C25.9076 12.2212 25.9076 12.2971 25.8887 12.354C25.9266 14.6882 27.8433 16.5669 30.1775 16.5289C31.2212 16.5289 32.2459 16.2443 33.1378 15.694L32.5116 14.2138C31.8854 14.5743 31.2022 14.7451 30.5001 14.7451Z" fill="white"/>
<path d="M40.7086 14.0426V10.5509C40.7086 8.53933 39.6269 7.49561 37.3307 7.49561C36.1921 7.51458 35.0535 7.79924 34.0477 8.34957L34.7499 9.75386C35.433 9.37432 36.1921 9.16557 36.9702 9.12762C38.0329 9.12762 38.6591 9.54511 38.6591 10.494V10.8166L37.1789 10.9114C36.4008 10.9684 35.6607 11.1392 34.9586 11.4428C34.0098 11.8034 33.4215 12.7332 33.4784 13.739V13.9857C33.5733 15.4659 34.8637 16.5855 36.3439 16.4717C37.2548 16.4717 38.1088 16.1301 38.773 15.5228L39.0956 16.2629H40.9173C40.7276 15.5418 40.6517 14.7827 40.7086 14.0426ZM38.5452 14.1375C38.0708 14.5171 37.4825 14.7448 36.8563 14.7638H36.7424C36.1162 14.7638 35.6038 14.2324 35.6038 13.6062C35.6038 13.2266 35.8126 12.8661 36.1352 12.6763C36.5147 12.4486 36.9702 12.3347 37.4066 12.3537C37.4066 12.3537 38.5642 12.3347 38.5452 12.3537V14.1375Z" fill="white"/>
<path d="M54.5051 7.60953C53.4424 7.66646 52.4367 8.06497 51.6396 8.76712V3.58643H49.5332L49.6281 3.6054V16.244H51.7345V10.3422C52.3038 9.77289 53.0629 9.43131 53.8599 9.37438C54.9226 9.37438 55.1314 10.2283 55.1314 11.2721V16.244H57.2378V10.6648C57.2378 8.23577 55.8715 7.60953 54.5051 7.60953Z" fill="white"/>
<path d="M70.9395 0C64.5822 0 59.4395 5.14274 59.4395 11.5C59.4395 17.8573 64.5822 23 70.9395 23C77.2777 23 82.4395 17.8573 82.4395 11.5C82.4395 5.14274 77.2967 0 70.9395 0ZM76.8413 10.8548H73.5393L73.1787 10.0578L74.1276 12.1262H76.4428L75.1713 13.7013H74.8487L74.621 13.1889L76.6325 17.6106L74.1845 17.5157L70.7117 11.5L67.22 17.5157L64.8099 17.6106L67.8842 10.8548H64.4114C64.3924 10.8738 63.3487 9.2797 63.3487 9.2797H68.6053L70.7117 4.64934L72.8182 9.2797H78.1127L76.8413 10.8548ZM65.2464 12.1262H67.3149L66.5937 13.7013H66.2901C66.2901 13.7203 65.2464 12.1262 65.2464 12.1262Z" fill="white"/>
</g>
</svg>
