<svg width="116" height="21" viewBox="0 0 116 21" fill="none" xmlns="http://www.w3.org/2000/svg">
<g opacity="0.1">
<path fill-rule="evenodd" clip-rule="evenodd" d="M12.8016 15.0551L11.2214 13.4549C10.6213 14.0149 10.0146 14.4584 9.40091 14.7853C8.78777 15.1118 8.05426 15.2751 7.20093 15.2751C6.53409 15.2751 5.91743 15.1452 5.3507 14.8851C4.78398 14.6249 4.2939 14.2685 3.88046 13.8148C3.46701 13.3615 3.14722 12.8316 2.92025 12.2249C2.69357 11.6182 2.5805 10.9679 2.5805 10.2749C2.5805 9.58142 2.69357 8.93458 2.92025 8.33443C3.14722 7.73454 3.46701 7.2113 3.88046 6.76442C4.2939 6.31782 4.78398 5.96458 5.3507 5.70444C5.91743 5.44456 6.53409 5.3145 7.20093 5.3145C8.00082 5.3145 8.71436 5.47451 9.34099 5.79457C9.96791 6.11435 10.5613 6.53451 11.1211 7.05451L12.7014 5.23462C12.3682 4.91458 12.0149 4.62124 11.6413 4.35436C11.2681 4.08774 10.8614 3.85756 10.4213 3.66434C9.98113 3.47086 9.49779 3.32109 8.971 3.2145C8.44422 3.10763 7.86077 3.0542 7.2209 3.0542C6.15411 3.0542 5.18068 3.24445 4.30064 3.62441C3.42033 4.00435 2.66037 4.52437 2.02025 5.18443C1.38011 5.84449 0.883553 6.61438 0.530024 7.49464C0.176494 8.37463 0 9.31481 0 10.3149C0 11.3282 0.180002 12.2749 0.54001 13.1551C0.900016 14.0348 1.39684 14.7982 2.03023 15.4451C2.66361 16.0917 3.41358 16.6017 4.28041 16.9751C5.14722 17.3486 6.09419 17.5351 7.12078 17.5351C7.7744 17.5351 8.37108 17.4784 8.91109 17.3651C9.4511 17.2517 9.94794 17.0853 10.4013 16.8653C10.8547 16.6451 11.2781 16.385 11.6716 16.0851C12.0648 15.7851 12.4415 15.4416 12.8016 15.0551Z" fill="white"/>
<path fill-rule="evenodd" clip-rule="evenodd" d="M44.5411 7.01938C44.5411 6.55361 44.74 6.15783 45.1381 5.83206C45.5358 5.50575 46.093 5.34286 46.8091 5.34286C47.4457 5.34286 48.0757 5.46616 48.6989 5.71224C49.3225 5.95833 49.9523 6.31426 50.5887 6.77976L51.9017 4.92393C51.1859 4.35179 50.4199 3.91617 49.6042 3.61706C48.7883 3.31767 47.8701 3.16797 46.8489 3.16797C46.1593 3.16797 45.5227 3.26436 44.9424 3.4574C44.3588 3.65017 43.8618 3.92614 43.4471 4.2853C43.0327 4.64472 42.7077 5.07361 42.469 5.57251C42.2337 6.07141 42.1143 6.62685 42.1143 7.23882C42.1143 7.89063 42.217 8.44284 42.4226 8.89516C42.6283 9.34746 42.9299 9.73328 43.3212 10.0526C43.7123 10.3719 44.1997 10.6379 44.7765 10.8509C45.3568 11.0639 46.0168 11.2564 46.7627 11.4294C47.4128 11.5891 47.9396 11.7421 48.3475 11.8883C48.752 12.0348 49.0704 12.1911 49.3058 12.3572C49.5377 12.5236 49.6971 12.7065 49.7832 12.9059C49.8694 13.1058 49.9124 13.3316 49.9124 13.5844C49.9124 14.1302 49.6904 14.5626 49.2462 14.8816C48.8018 15.2012 48.2016 15.3605 47.4457 15.3605C46.5705 15.3605 45.7879 15.2042 45.0984 14.8916C44.4086 14.579 43.7257 14.1302 43.0491 13.5446L41.5771 15.3008C42.4127 16.0589 43.3212 16.6212 44.3026 16.987C45.284 17.3529 46.3117 17.5358 47.3859 17.5358C48.1154 17.5358 48.7853 17.4426 49.3954 17.2565C50.002 17.07 50.5259 16.7972 50.957 16.4381C51.3913 16.0789 51.7295 15.64 51.9747 15.1212C52.2169 14.6024 52.3395 14.0104 52.3395 13.3451C52.3395 12.7598 52.2434 12.2509 52.051 11.8185C51.8585 11.3861 51.5735 11.0073 51.2023 10.681C50.8308 10.3552 50.3601 10.079 49.7964 9.85282C49.233 9.62694 48.5829 9.4207 47.8535 9.23439C47.1871 9.07473 46.64 8.92154 46.2057 8.77534C45.7747 8.62915 45.4365 8.4695 45.1877 8.29637C44.9424 8.12353 44.7735 7.93721 44.6804 7.73771C44.5878 7.53794 44.5411 7.29859 44.5411 7.01938Z" fill="white"/>
<path fill-rule="evenodd" clip-rule="evenodd" d="M71.7732 7.21722V17.1965H74.2039V3.28125H71.5936L67.3499 9.86122L63.1061 3.28125H60.4961V17.1965H62.9267V7.25691L67.2899 13.7774H67.3698L71.7732 7.21722Z" fill="white"/>
<path fill-rule="evenodd" clip-rule="evenodd" d="M94.6256 10.3149C94.6256 10.9949 94.5092 11.6383 94.2763 12.2452C94.0435 12.8517 93.7208 13.3783 93.3079 13.8249C92.8955 14.2714 92.3996 14.6249 91.8207 14.8851C91.2416 15.1453 90.6061 15.2751 89.9141 15.2751C89.2218 15.2751 88.583 15.1417 87.9973 14.8752C87.4117 14.6083 86.9091 14.2483 86.49 13.7952C86.0708 13.3416 85.7446 12.8116 85.5116 12.2049C85.2789 11.5983 85.1622 10.9548 85.1622 10.275C85.1622 9.59465 85.2789 8.95132 85.5116 8.34469C85.7446 7.73778 86.0673 7.21131 86.48 6.76443C86.8927 6.31782 87.3885 5.96458 87.9674 5.70444C88.5463 5.44457 89.182 5.3145 89.874 5.3145C90.5663 5.3145 91.2052 5.44782 91.7907 5.7147C92.3762 5.98131 92.8788 6.3413 93.2979 6.79465C93.7173 7.24773 94.0435 7.778 94.2763 8.38462C94.5092 8.99125 94.6256 9.63485 94.6256 10.3149ZM97.2011 10.2749C97.2011 9.28809 97.0214 8.35466 96.662 7.4744C96.303 6.59468 95.8035 5.82776 95.1649 5.17444C94.526 4.52086 93.7606 4.00435 92.8685 3.62441C91.977 3.24445 90.9921 3.0542 89.9141 3.0542C88.8359 3.0542 87.8511 3.24769 86.9592 3.63439C86.0673 4.02109 85.2953 4.54433 84.6432 5.20439C83.9907 5.86445 83.4854 6.63462 83.1259 7.51461C82.7665 8.3946 82.5869 9.32803 82.5869 10.3149C82.5869 11.3015 82.7665 12.2346 83.1259 13.1149C83.4854 13.9951 83.9843 14.7618 84.6233 15.4151C85.2619 16.0684 86.0275 16.5852 86.9194 16.9651C87.8109 17.3451 88.7957 17.5351 89.874 17.5351C90.952 17.5351 91.9371 17.3416 92.8287 16.9552C93.7208 16.5685 94.4925 16.0452 95.145 15.3849C95.7971 14.7251 96.303 13.9549 96.662 13.075C97.0214 12.195 97.2011 11.2616 97.2011 10.2749Z" fill="white"/>
<path fill-rule="evenodd" clip-rule="evenodd" d="M107.416 7.01938C107.416 6.55361 107.615 6.15783 108.012 5.83206C108.41 5.50575 108.967 5.34286 109.684 5.34286C110.32 5.34286 110.95 5.46616 111.573 5.71224C112.197 5.95833 112.826 6.31426 113.463 6.77976L114.776 4.92393C114.06 4.35179 113.295 3.91617 112.478 3.61706C111.663 3.31767 110.745 3.16797 109.723 3.16797C109.034 3.16797 108.397 3.26436 107.817 3.4574C107.233 3.65017 106.736 3.92614 106.322 4.2853C105.907 4.64472 105.582 5.07361 105.343 5.57251C105.108 6.07141 104.989 6.62685 104.989 7.23882C104.989 7.89063 105.092 8.44284 105.297 8.89516C105.503 9.34746 105.804 9.73328 106.196 10.0526C106.587 10.3719 107.074 10.6379 107.651 10.8509C108.231 11.0639 108.891 11.2564 109.637 11.4294C110.287 11.5891 110.814 11.7421 111.222 11.8883C111.626 12.0348 111.945 12.1911 112.18 12.3572C112.412 12.5236 112.571 12.7065 112.658 12.9059C112.744 13.1058 112.787 13.3316 112.787 13.5844C112.787 14.1302 112.564 14.5626 112.121 14.8816C111.676 15.2012 111.076 15.3605 110.32 15.3605C109.445 15.3605 108.662 15.2042 107.973 14.8916C107.283 14.579 106.6 14.1302 105.924 13.5446L104.452 15.3008C105.287 16.0589 106.196 16.6212 107.177 16.987C108.158 17.3529 109.186 17.5358 110.26 17.5358C110.99 17.5358 111.66 17.4426 112.27 17.2565C112.876 17.07 113.4 16.7972 113.831 16.4381C114.266 16.0789 114.604 15.64 114.849 15.1212C115.091 14.6024 115.214 14.0104 115.214 13.3451C115.214 12.7598 115.117 12.2509 114.926 11.8185C114.734 11.3861 114.448 11.0073 114.077 10.681C113.705 10.3552 113.235 10.079 112.671 9.85282C112.107 9.62694 111.457 9.4207 110.728 9.23439C110.062 9.07473 109.515 8.92154 109.08 8.77534C108.649 8.62915 108.311 8.4695 108.062 8.29637C107.817 8.12353 107.648 7.93721 107.555 7.73771C107.462 7.53794 107.416 7.29859 107.416 7.01938Z" fill="white"/>
<path fill-rule="evenodd" clip-rule="evenodd" d="M29.476 6.06651L22.8159 12.7178C22.73 12.5513 22.6525 12.378 22.5831 12.1981C22.3505 11.5937 22.2342 10.9525 22.2342 10.2754C22.2342 9.59765 22.3505 8.95675 22.5831 8.35241C22.8159 7.7478 23.1384 7.22331 23.5508 6.77812C23.9633 6.33319 24.4589 5.98129 25.0373 5.72214C25.6162 5.46325 26.2512 5.33368 26.9429 5.33368C27.6347 5.33368 28.2732 5.46648 28.8582 5.73236C29.0758 5.83102 29.2817 5.94231 29.476 6.06651ZM28.8883 14.8681C28.3096 15.1272 27.6745 15.2566 26.9829 15.2566C26.2911 15.2566 25.6525 15.1237 25.0673 14.8582C24.85 14.7592 24.6441 14.6479 24.45 14.5235L31.1098 7.87279C31.1958 8.03893 31.2733 8.21207 31.3427 8.39218C31.5753 8.99652 31.6916 9.6377 31.6916 10.3152C31.6916 10.9926 31.5753 11.6335 31.3427 12.2381C31.1098 12.8424 30.7873 13.367 30.3749 13.8118C29.9625 14.2568 29.4671 14.609 28.8883 14.8681ZM29.896 16.9304C30.7873 16.5451 31.5588 16.0239 32.2106 15.366C32.8623 14.7087 33.3676 13.9415 33.7268 13.0647C34.0861 12.1882 34.2657 11.2582 34.2657 10.2754C34.2657 9.29224 34.0861 8.36235 33.7268 7.48542C33.5139 6.9655 33.2516 6.48535 32.9404 6.04473L37.2722 1.71893L35.5509 0L31.206 4.33898C30.8159 4.07338 30.3924 3.84379 29.9358 3.64997C29.0445 3.27145 28.0602 3.08192 26.9829 3.08192C25.9053 3.08192 24.9211 3.27466 24.0298 3.65991C23.1384 4.04515 22.3668 4.56641 21.7151 5.22399C21.0633 5.88155 20.5578 6.6488 20.1987 7.52548C19.8395 8.40214 19.66 9.33204 19.66 10.3152C19.66 11.2981 19.8395 12.2276 20.1987 13.1046C20.4119 13.6247 20.674 14.1049 20.9853 14.5458L16.6538 18.8711L18.375 20.59L22.7198 16.2512C23.1098 16.5169 23.5334 16.7465 23.9899 16.9403C24.8813 17.3188 25.8654 17.5081 26.9429 17.5081C28.0204 17.5081 29.0047 17.3153 29.896 16.9304Z" fill="white"/>
</g>
</svg>
