<svg width="132" height="25" viewBox="0 0 132 25" fill="none" xmlns="http://www.w3.org/2000/svg">
<g opacity="0.3" clip-path="url(#clip0_2987_451)">
<path fill-rule="evenodd" clip-rule="evenodd" d="M14.6667 17.8934L12.8563 16.0601C12.1687 16.7017 11.4737 17.2098 10.7706 17.5843C10.0681 17.9584 9.22771 18.1454 8.25007 18.1454C7.48606 18.1454 6.77957 17.9966 6.13027 17.6986C5.48098 17.4006 4.91949 16.9922 4.44582 16.4725C3.97214 15.9531 3.60575 15.3459 3.34572 14.6509C3.08601 13.9558 2.95646 13.2107 2.95646 12.4168C2.95646 11.6222 3.08601 10.8812 3.34572 10.1936C3.60575 9.50629 3.97214 8.90681 4.44582 8.39482C4.91949 7.88315 5.48098 7.47845 6.13027 7.1804C6.77957 6.88267 7.48606 6.73365 8.25007 6.73365C9.1665 6.73365 9.98399 6.91698 10.7019 7.28367C11.4202 7.65004 12.1001 8.13141 12.7413 8.72718L14.5519 6.64214C14.1701 6.27547 13.7654 5.9394 13.3374 5.63363C12.9098 5.32816 12.4439 5.06445 11.9396 4.84308C11.4353 4.62141 10.8816 4.44982 10.278 4.3277C9.67449 4.20526 9.00603 4.14404 8.27295 4.14404C7.05072 4.14404 5.93548 4.36201 4.92721 4.79733C3.91865 5.23263 3.04797 5.82841 2.31459 6.58464C1.58119 7.34087 1.01228 8.22292 0.607246 9.23143C0.202208 10.2396 0 11.3168 0 12.4626C0 13.6235 0.206228 14.7081 0.618686 15.7166C1.03114 16.7245 1.60036 17.5991 2.32602 18.3402C3.05168 19.081 3.91092 19.6653 4.90404 20.0932C5.89714 20.521 6.98208 20.7347 8.15823 20.7347C8.90709 20.7347 9.5907 20.6698 10.2094 20.54C10.8281 20.41 11.3973 20.2194 11.9167 19.9674C12.4362 19.7151 12.9213 19.4171 13.3721 19.0735C13.8226 18.7297 14.2542 18.3362 14.6667 17.8934Z" fill="#565F77"/>
<path fill-rule="evenodd" clip-rule="evenodd" d="M51.03 8.68623C51.03 8.15259 51.258 7.69915 51.714 7.32591C52.1697 6.95206 52.8081 6.76544 53.6285 6.76544C54.3579 6.76544 55.0796 6.90671 55.7936 7.18864C56.508 7.47059 57.2297 7.87837 57.9588 8.41169L59.4631 6.28547C58.643 5.62998 57.7654 5.1309 56.8308 4.7882C55.896 4.44519 54.8441 4.27368 53.674 4.27368C52.884 4.27368 52.1546 4.38412 51.4899 4.60528C50.8212 4.82614 50.2518 5.14232 49.7767 5.5538C49.3019 5.96559 48.9295 6.45697 48.6561 7.02855C48.3864 7.60014 48.2497 8.2365 48.2497 8.93763C48.2497 9.68441 48.3674 10.3171 48.6029 10.8353C48.8385 11.3535 49.1841 11.7955 49.6325 12.1614C50.0805 12.5272 50.6389 12.832 51.2997 13.076C51.9646 13.32 52.7208 13.5405 53.5753 13.7388C54.3201 13.9217 54.9237 14.097 55.3911 14.2645C55.8545 14.4323 56.2193 14.6115 56.489 14.8018C56.7546 14.9924 56.9373 15.2019 57.0359 15.4304C57.1347 15.6594 57.1839 15.9181 57.1839 16.2077C57.1839 16.8331 56.9296 17.3284 56.4206 17.6939C55.9115 18.0601 55.2239 18.2427 54.3579 18.2427C53.3551 18.2427 52.4585 18.0635 51.6685 17.7054C50.8782 17.3473 50.0959 16.8331 49.3206 16.1621L47.6343 18.1742C48.5915 19.0428 49.6324 19.6869 50.7568 20.1061C51.8812 20.5253 53.0586 20.7348 54.2893 20.7348C55.1251 20.7348 55.8926 20.6281 56.5916 20.4149C57.2866 20.2011 57.8868 19.8887 58.3807 19.4772C58.8782 19.0657 59.2657 18.5629 59.5467 17.9685C59.8242 17.3741 59.9647 16.6958 59.9647 15.9336C59.9647 15.263 59.8546 14.6799 59.6341 14.1845C59.4136 13.6892 59.0871 13.2551 58.6618 12.8813C58.2362 12.5081 57.6968 12.1916 57.051 11.9325C56.4056 11.6737 55.6607 11.4374 54.825 11.2239C54.0615 11.041 53.4348 10.8655 52.9372 10.698C52.4434 10.5305 52.0559 10.3476 51.7709 10.1493C51.4899 9.95124 51.2964 9.73778 51.1896 9.5092C51.0835 9.28033 51.03 9.00611 51.03 8.68623Z" fill="#565F77"/>
<path fill-rule="evenodd" clip-rule="evenodd" d="M82.2297 8.91273V20.3459H85.0146V4.40332H82.024L77.1619 11.942L72.2998 4.40332H69.3096V20.3459H72.0943V8.95821L77.0932 16.4287H77.1847L82.2297 8.91273Z" fill="#565F77"/>
<path fill-rule="evenodd" clip-rule="evenodd" d="M108.412 12.4626C108.412 13.2417 108.279 13.9788 108.012 14.6741C107.745 15.369 107.376 15.9723 106.903 16.4839C106.43 16.9956 105.862 17.4006 105.199 17.6986C104.535 17.9968 103.807 18.1454 103.014 18.1454C102.221 18.1454 101.489 17.9926 100.818 17.6873C100.147 17.3815 99.5716 16.969 99.0914 16.4499C98.6111 15.9303 98.2374 15.323 97.9704 14.6279C97.7038 13.933 97.5702 13.1957 97.5702 12.4168C97.5702 11.6374 97.7038 10.9003 97.9704 10.2053C98.2374 9.51 98.6071 8.90682 99.0799 8.39483C99.5527 7.88315 100.121 7.47845 100.784 7.1804C101.447 6.88268 102.176 6.73365 102.968 6.73365C103.762 6.73365 104.494 6.88639 105.164 7.19216C105.835 7.49762 106.411 7.91005 106.891 8.42945C107.372 8.94855 107.745 9.55607 108.012 10.2511C108.279 10.9461 108.412 11.6835 108.412 12.4626ZM111.363 12.4168C111.363 11.2862 111.157 10.2168 110.745 9.20824C110.334 8.20035 109.762 7.3217 109.03 6.57319C108.298 5.82439 107.421 5.23263 106.399 4.79733C105.378 4.36201 104.249 4.14404 103.014 4.14404C101.779 4.14404 100.651 4.36572 99.6289 4.80876C98.6071 5.2518 97.7227 5.85128 96.9755 6.60751C96.228 7.36373 95.6491 8.24611 95.2371 9.25431C94.8254 10.2625 94.6196 11.3319 94.6196 12.4626C94.6196 13.5929 94.8254 14.662 95.2371 15.6705C95.6491 16.679 96.2206 17.5573 96.9527 18.3059C97.6844 19.0543 98.5614 19.6464 99.5833 20.0817C100.605 20.517 101.733 20.7347 102.968 20.7347C104.203 20.7347 105.332 20.513 106.354 20.0704C107.376 19.6273 108.26 19.0278 109.007 18.2712C109.754 17.5153 110.334 16.6329 110.745 15.6248C111.157 14.6166 111.363 13.5472 111.363 12.4168Z" fill="#565F77"/>
<path fill-rule="evenodd" clip-rule="evenodd" d="M123.065 8.68623C123.065 8.15259 123.293 7.69915 123.749 7.32591C124.205 6.95206 124.843 6.76544 125.664 6.76544C126.393 6.76544 127.115 6.90671 127.829 7.18864C128.543 7.47059 129.264 7.87837 129.994 8.41169L131.498 6.28547C130.677 5.62998 129.801 5.1309 128.866 4.7882C127.932 4.44519 126.879 4.27368 125.709 4.27368C124.919 4.27368 124.19 4.38412 123.525 4.60528C122.857 4.82614 122.287 5.14232 121.812 5.5538C121.337 5.96559 120.965 6.45697 120.691 7.02855C120.422 7.60014 120.285 8.2365 120.285 8.93763C120.285 9.68441 120.403 10.3171 120.638 10.8353C120.874 11.3535 121.219 11.7955 121.667 12.1614C122.116 12.5272 122.674 12.832 123.335 13.076C124 13.32 124.756 13.5405 125.61 13.7388C126.355 13.9217 126.959 14.097 127.426 14.2645C127.889 14.4323 128.254 14.6115 128.524 14.8018C128.79 14.9924 128.972 15.2019 129.071 15.4304C129.17 15.6594 129.219 15.9181 129.219 16.2077C129.219 16.8331 128.964 17.3284 128.456 17.6939C127.947 18.0601 127.259 18.2427 126.393 18.2427C125.39 18.2427 124.493 18.0635 123.704 17.7054C122.914 17.3473 122.131 16.8331 121.356 16.1621L119.669 18.1742C120.626 19.0428 121.667 19.6869 122.792 20.1061C123.916 20.5253 125.094 20.7348 126.324 20.7348C127.16 20.7348 127.928 20.6281 128.627 20.4149C129.321 20.2011 129.922 19.8887 130.416 19.4772C130.913 19.0657 131.301 18.5629 131.582 17.9685C131.859 17.3741 132 16.6958 132 15.9336C132 15.263 131.889 14.6799 131.67 14.1845C131.449 13.6892 131.122 13.2551 130.697 12.8813C130.271 12.5081 129.732 12.1916 129.087 11.9325C128.44 11.6737 127.696 11.4374 126.86 11.2239C126.097 11.041 125.47 10.8655 124.972 10.698C124.479 10.5305 124.091 10.3476 123.806 10.1493C123.525 9.95124 123.331 9.73778 123.225 9.5092C123.119 9.28033 123.065 9.00611 123.065 8.68623Z" fill="#565F77"/>
<path fill-rule="evenodd" clip-rule="evenodd" d="M33.7699 7.5949L26.1394 15.2152C26.0411 15.0245 25.9522 14.8259 25.8727 14.6198C25.6062 13.9274 25.473 13.1928 25.473 12.417C25.473 11.6405 25.6062 10.9062 25.8727 10.2138C26.1394 9.52114 26.509 8.92024 26.9814 8.41018C27.454 7.90043 28.0218 7.49726 28.6845 7.20036C29.3478 6.90374 30.0753 6.75529 30.8677 6.75529C31.6603 6.75529 32.3919 6.90744 33.0621 7.21206C33.3114 7.3251 33.5473 7.4526 33.7699 7.5949ZM33.0966 17.6788C32.4335 17.9757 31.706 18.124 30.9136 18.124C30.1209 18.124 29.3894 17.9717 28.7188 17.6675C28.4699 17.5541 28.234 17.4266 28.0116 17.284L35.6417 9.66435C35.7402 9.85469 35.829 10.053 35.9086 10.2594C36.175 10.9518 36.3083 11.6864 36.3083 12.4625C36.3083 13.2387 36.175 13.9729 35.9086 14.6657C35.6417 15.358 35.2723 15.959 34.7997 16.4687C34.3273 16.9785 33.7597 17.382 33.0966 17.6788ZM34.2511 20.0416C35.2723 19.6002 36.1562 19.003 36.903 18.2493C37.6496 17.4962 38.2285 16.6172 38.64 15.6127C39.0517 14.6084 39.2574 13.543 39.2574 12.417C39.2574 11.2906 39.0517 10.2252 38.64 9.22054C38.3961 8.62486 38.0956 8.07476 37.739 7.56994L42.7019 2.6139L40.7299 0.644531L35.752 5.61567C35.305 5.31138 34.8198 5.04834 34.2967 4.82628C33.2755 4.39261 32.1479 4.17547 30.9136 4.17547C29.6789 4.17547 28.5514 4.3963 27.5302 4.83767C26.509 5.27903 25.6249 5.87624 24.8783 6.62962C24.1316 7.38299 23.5524 8.26203 23.1409 9.26643C22.7294 10.2708 22.5237 11.3362 22.5237 12.4626C22.5237 13.5887 22.7294 14.6537 23.1409 15.6584C23.3852 16.2543 23.6855 16.8045 24.0421 17.3095L19.0796 22.2651L21.0516 24.2344L26.0293 19.2635C26.4762 19.5678 26.9614 19.8309 27.4845 20.0529C28.5057 20.4866 29.6333 20.7035 30.8677 20.7035C32.1022 20.7035 33.2299 20.4826 34.2511 20.0416Z" fill="#565F77"/>
</g>
<defs>
<clipPath id="clip0_2987_451">
<rect width="132" height="24.75" fill="white"/>
</clipPath>
</defs>
</svg>
