<svg width="122" height="23" viewBox="0 0 122 23" fill="none" xmlns="http://www.w3.org/2000/svg">
<g opacity="0.3" clip-path="url(#clip0_503_472)">
<path d="M31.9615 7.15336H33.3016L37.0488 15.8466H35.28L34.4711 13.8584H30.6995L29.9149 15.8466H28.1851L31.9615 7.15336ZM33.9253 12.533L32.5853 8.99531L31.2209 12.533H33.9253ZM42.1215 15.8466H43.4615L46.9749 7.15336H45.3035L42.8622 13.722L40.4891 7.15336H38.7105L42.1215 15.8466ZM52.5007 7.15336H53.8408L57.5831 15.8466H55.8143L55.0054 13.8584H51.2338L50.4493 15.8466H48.7194L52.5007 7.15336ZM54.4645 12.533L53.1245 8.99531L51.7601 12.533H54.4645ZM61.0088 15.8466H66.252V14.4481H62.5584V7.15336H61.0088V15.8466ZM72.6452 7.15336H73.9853L77.7276 15.8466H75.9588L75.1499 13.8584H71.3783L70.5937 15.8466H68.8639L72.6452 7.15336ZM74.609 12.533L73.269 8.99531L71.9045 12.533H74.609ZM81.1484 15.8466H82.698V9.18048H82.7223L87.0202 15.8466H88.984V7.15336H87.4344V13.6148H87.4101L83.1999 7.15336H81.1484V15.8466ZM100.552 8.30823C100.119 7.80633 99.6459 7.45548 99.1391 7.25082C98.6372 7.03641 98.0963 6.93408 97.5067 6.93408C96.8342 6.93408 96.2154 7.04616 95.655 7.26544C95.0995 7.47984 94.617 7.78684 94.2077 8.18641C93.8082 8.58599 93.4914 9.07328 93.2624 9.64828C93.0334 10.2135 92.9213 10.8421 92.9213 11.539C92.9213 12.2358 93.0382 12.8351 93.2624 13.3906C93.4914 13.9462 93.8082 14.4237 94.2077 14.8281C94.617 15.2229 95.0995 15.5298 95.655 15.7491C96.2202 15.9635 96.8391 16.0659 97.5067 16.0659C98.1791 16.0659 98.7493 15.944 99.3096 15.6955C99.8749 15.4519 100.352 15.0572 100.747 14.5163L99.4704 13.6051C99.1829 13.9754 98.8711 14.2434 98.5348 14.414C98.2084 14.5796 97.8673 14.6576 97.5164 14.6576C97.0632 14.6576 96.6539 14.5748 96.2884 14.414C95.9279 14.2483 95.616 14.0241 95.3529 13.7415C95.0897 13.454 94.8851 13.1178 94.7389 12.7231C94.5976 12.3284 94.5293 11.8995 94.5293 11.4318C94.5293 10.9981 94.5976 10.5936 94.7389 10.2135C94.8851 9.83832 95.0897 9.51184 95.3529 9.22921C95.616 8.94171 95.9279 8.72243 96.2884 8.5665C96.6588 8.40082 97.0681 8.32285 97.5164 8.32285C97.8185 8.32285 98.1158 8.38133 98.413 8.4934C98.7151 8.61035 99.027 8.83451 99.3437 9.18048L100.552 8.30823ZM104.241 15.8466H105.791V12.0165H109.855V15.8466H111.404V7.15336H109.855V10.618H105.791V7.15336H104.241V15.8466ZM115.799 15.8466H121.778V14.4481H117.344V12.0896H121.335V10.6911H117.344V8.55675H121.559V7.15823H115.799V15.8466Z" fill="#565F77"/>
<path fill-rule="evenodd" clip-rule="evenodd" d="M11.5391 0C5.18971 0 0.0439453 5.15064 0.0439453 11.5C0.0439453 17.8494 5.19458 23 11.5439 23C17.8933 23 23.0439 17.8494 23.0439 11.5C23.0439 5.15064 17.8933 0 11.5391 0ZM10.5645 14.7551L10.5548 14.7697C10.3014 15.218 10.1698 15.4422 9.9895 15.6127C9.79458 15.7979 9.56068 15.9343 9.30242 16.0123C9.06852 16.0756 8.80539 16.0756 8.27911 16.0756H6.04733C5.57954 16.0756 5.34564 16.0756 5.20433 15.9831C5.05327 15.8856 4.95581 15.7199 4.94606 15.5396C4.93632 15.3739 5.05327 15.1693 5.28717 14.7648L10.7984 5.05318C11.0323 4.63898 11.1541 4.43432 11.3003 4.35636C11.4611 4.27352 11.656 4.27352 11.8168 4.35636C11.9679 4.43432 12.0848 4.63898 12.3187 5.05318L13.4492 7.03157L13.4541 7.04131C13.7075 7.48475 13.8342 7.7089 13.8927 7.9428C13.956 8.20106 13.956 8.46907 13.8927 8.72733C13.8391 8.9661 13.7075 9.19025 13.4492 9.63856L10.5645 14.7551ZM17.9664 15.9831C17.8251 16.0756 17.5863 16.0756 17.1136 16.0756H13.917C13.4444 16.0756 13.2105 16.0756 13.0692 15.9831C12.9181 15.8856 12.8206 15.715 12.8109 15.5347C12.8011 15.3691 12.9181 15.1693 13.152 14.7648L13.1569 14.7551L14.7552 12.0165C14.9891 11.6121 15.106 11.4123 15.2571 11.3343C15.4179 11.2515 15.6079 11.2515 15.7687 11.3343C15.9149 11.4074 16.027 11.6023 16.256 11.9824L16.2755 12.0117L17.8787 14.7502C17.8836 14.7648 17.8933 14.7746 17.9031 14.7892C18.1272 15.1742 18.2393 15.3691 18.2295 15.5299C18.2149 15.715 18.1175 15.8807 17.9664 15.9831Z" fill="#565F77"/>
</g>
<defs>
<clipPath id="clip0_503_472">
<rect width="121.822" height="23" fill="white"/>
</clipPath>
</defs>
</svg>
