<svg width="110" height="18" viewBox="0 0 110 18" fill="none" xmlns="http://www.w3.org/2000/svg">
<g opacity="0.3">
<path d="M5.14631 17.4869C4.30003 17.4869 3.45375 17.464 2.6189 17.4068C1.73831 17.3476 0.863095 17.2253 0 17.0409V2.0708C0.77552 1.92933 1.55815 1.83008 2.34443 1.77346C3.19071 1.70484 3.97981 1.67053 4.71173 1.67053C5.61985 1.66242 6.5269 1.73514 7.42212 1.88782C8.1686 1.99866 8.88909 2.2427 9.54927 2.60831C10.1242 2.92853 10.6053 3.3938 10.9445 3.95778C11.2761 4.51816 11.4477 5.20433 11.4477 6.01631C11.4477 7.25142 10.853 8.2235 9.66363 8.93255C10.6471 9.29851 11.3104 9.81314 11.665 10.4421C12.0269 11.1044 12.2121 11.8489 12.2025 12.6036C12.2025 14.2275 11.6078 15.4398 10.4299 16.2517C9.22905 17.0866 7.47931 17.4869 5.14631 17.4869ZM3.38513 7.91473H5.07769C6.1527 7.91473 6.90749 7.77749 7.37638 7.50302C7.83383 7.22855 8.06256 6.78254 8.06256 6.17642C8.06256 5.54742 7.82239 5.11285 7.35351 4.86125C6.87318 4.60965 6.17557 4.48385 5.26067 4.48385C4.96333 4.48385 4.64312 4.48385 4.30003 4.49529C3.95694 4.50672 3.6596 4.51816 3.38513 4.55247V7.91473ZM3.38513 10.5679V14.5592C3.63673 14.5935 3.9112 14.6164 4.20854 14.6278C4.50588 14.6392 4.83753 14.6507 5.19206 14.6507C6.23276 14.6507 7.0676 14.502 7.70803 14.2047C8.34846 13.9073 8.66868 13.3584 8.66868 12.5578C8.66868 11.8488 8.40564 11.3342 7.86814 11.0368C7.33063 10.728 6.56441 10.5794 5.56945 10.5794L3.38513 10.5679Z" fill="#565F77"/>
<path d="M17.1546 2.18413C17.1546 2.79025 16.9602 3.27057 16.5599 3.6251C16.1742 3.96414 15.6782 4.15113 15.1647 4.15113C14.6511 4.15113 14.1552 3.96414 13.7694 3.6251C13.3806 3.27057 13.1748 2.80168 13.1748 2.18413C13.1748 1.57801 13.3692 1.09769 13.7694 0.743162C14.1522 0.399252 14.6501 0.211521 15.1647 0.217097C15.6798 0.208217 16.1789 0.396389 16.5599 0.743162C16.9602 1.09769 17.1546 1.57801 17.1546 2.18413ZM16.8344 17.2914H13.5178V5.56926H16.8344V17.2914Z" fill="#565F77"/>
<path d="M18.618 2.65274L21.9345 2.11523V5.56898H25.9257V8.33656H21.9345V12.4536C21.9345 13.1512 22.0603 13.7116 22.3004 14.1233C22.5406 14.535 23.0438 14.7523 23.7872 14.7523C24.1555 14.751 24.5229 14.7166 24.885 14.6494C25.2389 14.5864 25.5869 14.4946 25.9257 14.3749L26.3946 16.9595C25.96 17.1343 25.5127 17.2758 25.0566 17.3826C24.4632 17.512 23.857 17.5734 23.2497 17.5656C22.3462 17.5656 21.5914 17.4398 20.9967 17.1996C20.4385 16.9873 19.9456 16.6324 19.5672 16.1704C19.1984 15.706 18.9438 15.1615 18.8238 14.5807C18.6771 13.9006 18.6043 13.2066 18.6065 12.5108L18.618 2.65274Z" fill="#565F77"/>
<path d="M26.3947 11.4359C26.3889 10.621 26.5283 9.81164 26.8064 9.04568C27.0654 8.31441 27.4737 7.64501 28.0052 7.07997C28.5368 6.51493 29.1801 6.06661 29.8942 5.76348C30.6962 5.42207 31.5615 5.25447 32.433 5.27172C33.0094 5.26634 33.5846 5.32386 34.1485 5.44326C34.6654 5.55648 35.1707 5.71727 35.658 5.92358L34.9719 8.57679C34.6351 8.45399 34.2914 8.35089 33.9426 8.26801C33.5341 8.17218 33.1156 8.1261 32.6961 8.13078C31.7125 8.13078 30.9806 8.43956 30.5003 9.04568C30.02 9.6518 29.7798 10.4523 29.7798 11.4473C29.7798 12.4994 30.0085 13.3228 30.4546 13.8946C30.912 14.4779 31.7011 14.7638 32.8219 14.7638C33.2551 14.763 33.6875 14.7247 34.1142 14.6494C34.5501 14.5831 34.9763 14.464 35.3836 14.2949L35.8525 17.0167C35.3833 17.205 34.8969 17.3467 34.4001 17.4399C33.7671 17.5629 33.1236 17.6242 32.4788 17.6229C31.4038 17.6229 30.4889 17.4628 29.7112 17.1425C28.9855 16.8554 28.3331 16.41 27.8013 15.8388C27.2978 15.2806 26.9265 14.6161 26.7149 13.8946C26.5015 13.0925 26.3939 12.2659 26.3947 11.4359Z" fill="#565F77"/>
<path d="M47.2772 11.4141C47.2856 12.273 47.1503 13.1272 46.877 13.9415C46.6355 14.6682 46.2417 15.3349 45.7219 15.8971C45.2122 16.441 44.5922 16.8699 43.9035 17.1551C42.3853 17.7498 40.6986 17.7498 39.1804 17.1551C38.4917 16.8699 37.8717 16.441 37.362 15.8971C36.8414 15.3314 36.4407 14.6662 36.1841 13.9415C35.8929 13.1312 35.7496 12.2751 35.7609 11.4141C35.7512 10.556 35.8985 9.70329 36.1955 8.89814C36.4576 8.17767 36.8665 7.51952 37.3963 6.96541C37.9129 6.42716 38.5361 6.0026 39.2261 5.71886C39.9584 5.41656 40.744 5.26487 41.5362 5.27284C42.3359 5.26379 43.1293 5.41546 43.8692 5.71886C44.5573 5.99993 45.1773 6.42496 45.6876 6.96541C46.2079 7.52263 46.6087 8.18034 46.8655 8.89814C47.1438 9.70755 47.283 10.5582 47.2772 11.4141ZM43.8921 11.4141C43.8921 10.3848 43.6862 9.58431 43.2745 9.00106C42.8628 8.41782 42.2796 8.12047 41.5248 8.12047C40.77 8.12047 40.1753 8.41782 39.7636 9.00106C39.3519 9.58431 39.1346 10.3963 39.1346 11.4141C39.1346 12.4434 39.3405 13.2553 39.7636 13.85C40.1753 14.4562 40.77 14.7535 41.5248 14.7535C42.2796 14.7535 42.8628 14.4562 43.2745 13.85C43.6862 13.2439 43.8921 12.4319 43.8921 11.4141Z" fill="#565F77"/>
<path d="M52.241 2.18413C52.241 2.79025 52.0466 3.27057 51.6463 3.6251C51.2606 3.96414 50.7646 4.15113 50.2511 4.15113C49.7376 4.15113 49.2416 3.96414 48.8559 3.6251C48.467 3.27057 48.2612 2.80168 48.2612 2.18413C48.2612 1.57801 48.4556 1.09769 48.8559 0.743162C49.2386 0.399252 49.7365 0.211521 50.2511 0.217097C50.7662 0.208217 51.2653 0.396389 51.6463 0.743162C52.0466 1.09769 52.241 1.57801 52.241 2.18413ZM51.9322 17.2914H48.6157V5.56926H51.9322V17.2914Z" fill="#565F77"/>
<path d="M53.8188 5.96966C54.5369 5.77261 55.2663 5.61983 56.0031 5.51221C56.9302 5.36858 57.8669 5.29594 58.805 5.29492C59.8 5.29492 60.6234 5.42072 61.2867 5.68376C61.8957 5.90697 62.4358 6.28542 62.8534 6.78163C63.2508 7.27733 63.5321 7.85564 63.6769 8.4742C63.8439 9.19009 63.9246 9.92343 63.917 10.6585V17.2801H60.6005V11.0588C60.6005 9.98379 60.4633 9.22899 60.1774 8.78298C59.8915 8.33696 59.3654 8.11968 58.5992 8.11968C58.359 8.11968 58.1074 8.13111 57.8444 8.15398C57.5813 8.17686 57.3412 8.19973 57.1353 8.23404V17.2801H53.8188V5.96966Z" fill="#565F77"/>
<path d="M72.9864 17.6009C70.4704 17.6009 68.5568 16.9032 67.2454 15.508C65.9302 14.1128 65.2746 12.1305 65.2784 9.56117C65.2605 8.39314 65.4663 7.23247 65.8845 6.14174C66.2495 5.18943 66.8106 4.32446 67.5313 3.60289C68.2408 2.90846 69.091 2.3742 70.0244 2.03612C71.0325 1.6718 72.0975 1.48979 73.1694 1.49861C73.7674 1.49208 74.3647 1.54187 74.9534 1.64729C75.4293 1.72598 75.8992 1.83678 76.3601 1.97894C76.7052 2.08209 77.0417 2.2121 77.3665 2.36777C77.6295 2.50501 77.8239 2.60794 77.9497 2.67655L76.9433 5.47844C76.4154 5.20567 75.8594 4.99094 75.2851 4.838C74.5843 4.65001 73.8605 4.56147 73.1351 4.57497C72.6019 4.57588 72.0725 4.66475 71.5683 4.838C71.0574 5.02099 70.5929 5.31377 70.2074 5.69572C69.7893 6.13169 69.4661 6.64959 69.2582 7.21674C69.018 7.84573 68.9037 8.60054 68.9037 9.49257C68.901 10.1626 68.9778 10.8305 69.1324 11.4825C69.2733 12.0581 69.5302 12.599 69.8872 13.0721C70.2529 13.5314 70.7235 13.8961 71.2595 14.1357C71.8199 14.3987 72.5061 14.5245 73.3066 14.5245C73.7618 14.5261 74.2166 14.4955 74.6675 14.433C75.0304 14.385 75.3895 14.3124 75.7425 14.2157C76.0235 14.145 76.2987 14.0533 76.5659 13.9413C76.8061 13.8383 77.0234 13.7354 77.2064 13.6554L78.167 16.4458C77.6753 16.7431 76.9891 17.0062 76.0971 17.2463C75.0797 17.4978 74.0342 17.617 72.9864 17.6009Z" fill="#565F77"/>
<path d="M83.3703 5.25977C84.3539 5.25977 85.1658 5.37413 85.8177 5.59142C86.4134 5.77268 86.9528 6.10339 87.3845 6.55206C87.7825 6.97909 88.0692 7.49755 88.2193 8.06165C88.3856 8.70779 88.4663 9.37296 88.4595 10.0401V16.9476C87.9792 17.0505 87.3273 17.1763 86.481 17.3136C85.4629 17.4672 84.4342 17.5399 83.4047 17.5309C82.713 17.5374 82.0228 17.4683 81.3461 17.325C80.7803 17.2085 80.2412 16.9874 79.7565 16.6731C79.3152 16.3736 78.9603 15.9635 78.7272 15.4838C78.4871 14.992 78.3727 14.3973 78.3727 13.6768C78.354 13.0712 78.496 12.4714 78.7844 11.9385C79.0455 11.472 79.424 11.0817 79.8823 10.8063C80.368 10.5093 80.9022 10.3003 81.4605 10.1888C82.0696 10.0595 82.6905 9.99439 83.3132 9.99437C83.6951 9.9937 84.0768 10.0128 84.4568 10.0516C84.7319 10.0729 85.004 10.1227 85.2688 10.2002V9.89145C85.2688 9.33107 85.0972 8.87362 84.7541 8.53053C84.411 8.18744 83.8164 8.0159 82.9701 8.0159C82.4112 8.01752 81.8532 8.05957 81.3004 8.1417C80.8133 8.20623 80.3342 8.32121 79.8709 8.48479L79.4477 5.8087C79.6421 5.75152 79.8823 5.6829 80.1682 5.61429C80.4541 5.54567 80.7743 5.48849 81.1174 5.43131C81.4605 5.37413 81.815 5.33982 82.1924 5.29407C82.5927 5.28264 82.9815 5.25977 83.3703 5.25977ZM83.6334 14.9691C83.965 14.9691 84.2738 14.9577 84.5711 14.9463C84.8089 14.9411 85.0459 14.9182 85.2802 14.8776V12.3617C85.0799 12.3207 84.8776 12.2902 84.6741 12.2702C84.4313 12.2393 84.1869 12.224 83.9422 12.2244C83.6477 12.2252 83.3536 12.2443 83.0616 12.2816C82.8097 12.3071 82.5651 12.3809 82.3411 12.4989C82.1431 12.5948 81.9736 12.7406 81.8493 12.9221C81.7261 13.1211 81.6625 13.3513 81.6663 13.5854C81.6663 14.1 81.8379 14.4659 82.1924 14.6604C82.5469 14.8777 83.0273 14.9691 83.6334 14.9691Z" fill="#565F77"/>
<path d="M93.6173 14.912C94.2234 14.912 94.658 14.8548 94.9096 14.729C95.1612 14.6146 95.2869 14.3745 95.2869 14.0428C95.2869 13.7798 95.1268 13.5396 94.7952 13.3452C94.3177 13.0745 93.8162 12.8486 93.297 12.6705C92.8135 12.4948 92.3401 12.2925 91.8789 12.0643C91.4821 11.8775 91.1189 11.6263 90.8039 11.321C90.5037 11.0269 90.2698 10.6721 90.1178 10.2803C89.9462 9.81579 89.8647 9.32287 89.8776 8.82788C89.8776 7.73 90.2893 6.86084 91.1013 6.22041C91.9133 5.57998 93.034 5.25977 94.4635 5.25977C95.1505 5.25941 95.836 5.32451 96.5106 5.45418C97.0401 5.54587 97.5605 5.68362 98.066 5.86589L97.4827 8.45048C97.0708 8.30753 96.6507 8.18915 96.2247 8.09596C95.7252 7.98637 95.2151 7.93267 94.7037 7.93585C93.663 7.93585 93.1484 8.22176 93.1484 8.805C93.1457 8.92672 93.1691 9.04761 93.217 9.15952C93.2777 9.27955 93.3683 9.38194 93.48 9.45687C93.654 9.57499 93.8377 9.67828 94.029 9.76565C94.3149 9.90507 94.609 10.0273 94.9096 10.1316C95.5298 10.356 96.1336 10.6235 96.7165 10.9321C97.1335 11.1516 97.512 11.4374 97.8372 11.7784C98.1017 12.0681 98.3007 12.4113 98.4205 12.7848C98.542 13.2046 98.5998 13.6402 98.592 14.0771C98.592 15.2322 98.1574 16.1128 97.2883 16.696C96.4191 17.2907 95.1955 17.588 93.6058 17.588C92.7331 17.6043 91.8615 17.516 91.0098 17.325C90.5212 17.2045 90.0401 17.0555 89.5688 16.879L90.1292 14.18C90.6936 14.4018 91.2749 14.5777 91.8675 14.7061C92.4408 14.8422 93.028 14.9113 93.6173 14.912Z" fill="#565F77"/>
<path d="M99.8271 17.2916V0.537505L103.144 0V5.6152C103.425 5.52629 103.711 5.45374 104.001 5.39791C104.336 5.33086 104.677 5.29639 105.019 5.29498C105.968 5.29498 106.757 5.42078 107.386 5.68382C107.974 5.91664 108.493 6.2943 108.896 6.78169C109.282 7.28157 109.555 7.85896 109.697 8.47426C109.86 9.19064 109.936 9.92396 109.925 10.6586V17.2802H106.609V11.0589C106.609 9.98385 106.471 9.22905 106.197 8.78304C105.923 8.33702 105.408 8.11974 104.676 8.11974C104.396 8.11633 104.116 8.14317 103.841 8.19979C103.606 8.24487 103.373 8.30213 103.144 8.37134V17.2802H99.8271V17.2916Z" fill="#565F77"/>
</g>
</svg>
