<svg width="31" height="31" viewBox="0 0 31 31" fill="none" xmlns="http://www.w3.org/2000/svg">
<circle cx="15.5" cy="15.5" r="15.5" fill="url(#paint0_linear_2855_94770)"/>
<g clip-path="url(#clip0_2855_94770)">
<path d="M19.0063 12.4217C18.5438 11.1906 17.2969 11.0663 15.8324 11.3254L15.3622 9.57051L14.2565 9.86678L14.713 11.5706C14.4211 11.6488 14.1222 11.7289 13.8285 11.8076L13.3701 10.097L12.2609 10.3942L12.7311 12.1491C12.4923 12.2131 12.2553 12.2766 12.0235 12.3387L10.495 12.7483L10.7938 13.8918C10.7938 13.8918 11.6092 13.6587 11.5987 13.6761C12.0481 13.5557 12.2625 13.7685 12.3612 13.974L12.8971 15.9743C12.936 15.9615 12.9756 15.9509 13.0157 15.9425L12.8936 15.9752L13.6385 18.7906C13.6553 18.8912 13.6306 18.995 13.5696 19.0796C13.5086 19.1643 13.4163 19.223 13.3123 19.2432C13.3297 19.2514 12.5056 19.4594 12.5056 19.4594L12.6251 20.797L14.0687 20.4102L14.8612 20.1978L15.3369 21.9732L16.4462 21.676L15.9759 19.921C16.2802 19.8395 16.5766 19.771 16.8632 19.6943L17.3316 21.4424L18.4408 21.1452L17.966 19.3732C19.8088 18.7918 20.9938 17.9921 20.7015 16.2644C20.4707 14.8653 19.644 14.4404 18.5158 14.476C19.0753 13.9883 19.3303 13.3265 18.99 12.4242L19.0063 12.4217ZM18.46 16.6313C18.8157 17.9585 16.4137 18.4341 15.6614 18.6339L15.0314 16.2826C15.7832 16.0812 18.088 15.2499 18.4547 16.6327L18.46 16.6313ZM17.0634 13.45C17.3866 14.6563 15.3784 15.0373 14.7521 15.2051L14.1805 13.0719C14.8126 12.9044 16.7296 12.1899 17.0634 13.45Z" fill="white"/>
</g>
<defs>
<linearGradient id="paint0_linear_2855_94770" x1="15.5" y1="0" x2="15.5" y2="31" gradientUnits="userSpaceOnUse">
<stop stop-color="#43C042"/>
<stop offset="1" stop-color="#219320"/>
</linearGradient>
<clipPath id="clip0_2855_94770">
<rect width="9" height="12" fill="white" transform="translate(10 11) rotate(-15)"/>
</clipPath>
</defs>
</svg>
