<svg width="104" height="21" viewBox="0 0 104 21" fill="none" xmlns="http://www.w3.org/2000/svg">
<g opacity="0.1">
<path d="M6.36116 8.74043L10.4006 4.70117L14.4422 8.74257L16.7926 6.39215L10.4006 0L4.01074 6.39001L6.36116 8.74043Z" fill="white"/>
<path d="M4.70097 10.3997L2.35059 8.04932L9.07932e-05 10.3998L2.35047 12.7502L4.70097 10.3997Z" fill="white"/>
<path d="M6.36119 12.0601L10.4006 16.0993L14.442 12.0581L16.7938 14.4072L16.7926 14.4085L10.4006 20.8005L4.01061 14.4107L4.00732 14.4074L6.36119 12.0601Z" fill="white"/>
<path d="M18.4498 12.7514L20.8003 10.4009L18.4499 8.0505L16.0994 10.401L18.4498 12.7514Z" fill="white"/>
<path d="M12.784 10.3988H12.785L10.3999 8.01367L8.6373 9.77628H8.63713L8.43473 9.97884L8.01696 10.3966L8.01367 10.3999L8.01696 10.4034L10.3999 12.7863L12.785 10.4012L12.7861 10.3999L12.784 10.3988Z" fill="white"/>
<path d="M24.4653 5.04004H29.5774C30.8461 5.04004 31.8056 5.36565 32.4558 6.01688C32.959 6.52123 33.2105 7.14633 33.2105 7.89202V7.92356C33.2105 8.23866 33.1716 8.51712 33.0932 8.75862C33.015 9.00045 32.9105 9.21812 32.7799 9.41247C32.6497 9.60699 32.4982 9.77768 32.326 9.92455C32.1537 10.0717 31.9685 10.1979 31.7702 10.3027C32.408 10.5446 32.9101 10.8726 33.2761 11.2876C33.6419 11.7028 33.8251 12.2779 33.8251 13.0131V13.0445C33.8251 13.5488 33.7282 13.9899 33.5342 14.3683C33.3402 14.7463 33.0622 15.0616 32.7003 15.3137C32.3383 15.5659 31.9032 15.7548 31.3945 15.881C30.8859 16.007 30.3222 16.0699 29.7037 16.0699H24.4653V5.04004ZM29.0663 9.49922C29.6022 9.49922 30.0277 9.40755 30.3426 9.22355C30.6577 9.03971 30.8153 8.74285 30.8153 8.33329V8.30175C30.8153 7.93424 30.6786 7.65331 30.4055 7.4588C30.1323 7.26445 29.7384 7.1672 29.2238 7.1672H26.8287V9.49922H29.0663ZM29.7124 13.943C30.2482 13.943 30.6681 13.846 30.973 13.6515C31.2776 13.4572 31.43 13.155 31.43 12.7453V12.7139C31.43 12.3463 31.2881 12.0548 31.0045 11.8393C30.7208 11.6242 30.2639 11.5165 29.6336 11.5165H26.8287V13.9431H29.7124V13.943Z" fill="white"/>
<path d="M36.8696 5.04004H39.2964V16.0703H36.8696V5.04004Z" fill="white"/>
<path d="M42.9717 5.04004H45.2089L50.3775 11.8316V5.04004H52.7726V16.0703H50.7085L45.3666 9.05828V16.0703H42.9717V5.04004Z" fill="white"/>
<path d="M60.1192 4.96143H62.3566L67.0841 16.0703H64.547L63.5385 13.5966H58.8743L57.8659 16.0703H55.3916L60.1192 4.96143ZM62.6719 11.4533L61.2063 7.87649L59.7412 11.4533H62.6719Z" fill="white"/>
<path d="M69.7041 5.04004H71.9418L77.11 11.8316V5.04004H79.5052V16.0703H77.4411L72.0992 9.05828V16.0703H69.7041V5.04004Z" fill="white"/>
<path d="M88.238 16.2593C87.4288 16.2593 86.678 16.1121 85.9845 15.8182C85.2911 15.5243 84.6924 15.1223 84.1883 14.6127C83.6839 14.1033 83.2898 13.5018 83.0066 12.8085C82.7228 12.1151 82.5811 11.3745 82.5811 10.5866V10.5552C82.5811 9.76729 82.7228 9.02949 83.0066 8.3413C83.2899 7.65328 83.6839 7.0492 84.1883 6.52924C84.6923 6.00928 85.2965 5.59939 86.0001 5.30006C86.7038 5.00074 87.4817 4.85107 88.3325 4.85107C88.8469 4.85107 89.3169 4.8933 89.7424 4.97708C90.1679 5.06136 90.5538 5.17669 90.9008 5.32372C91.2476 5.47092 91.5676 5.6495 91.8622 5.85945C92.1557 6.06974 92.4291 6.30072 92.6813 6.5529L91.1373 8.33341C90.7061 7.94488 90.2678 7.63997 89.8214 7.4195C89.3747 7.19903 88.8733 7.08863 88.3166 7.08863C87.8543 7.08863 87.4261 7.178 87.0325 7.35658C86.6386 7.53516 86.2996 7.78191 86.0159 8.09701C85.7325 8.41211 85.5119 8.77731 85.354 9.19213C85.1968 9.60728 85.1181 10.051 85.1181 10.5237V10.555C85.1181 11.0277 85.1968 11.4744 85.354 11.8943C85.5119 12.3147 85.7294 12.6822 86.0082 12.9973C86.2863 13.3124 86.6226 13.5621 87.0164 13.7459C87.4107 13.9299 87.8439 14.0216 88.3166 14.0216C88.9471 14.0216 89.4797 13.9061 89.9157 13.675C90.3517 13.4441 90.7853 13.1289 91.2159 12.7295L92.7601 14.2896C92.4764 14.5943 92.1818 14.8675 91.8778 15.1088C91.573 15.3507 91.2395 15.558 90.8769 15.7315C90.5147 15.9046 90.1178 16.0362 89.6875 16.1253C89.2564 16.2145 88.7734 16.2593 88.238 16.2593Z" fill="white"/>
<path d="M95.6162 5.04004H103.92V7.1989H98.0115V9.43646H103.211V11.5952H98.0115V13.9116H103.999V16.0703H95.6162V5.04004Z" fill="white"/>
</g>
</svg>
