<svg width="31" height="31" viewBox="0 0 31 31" fill="none" xmlns="http://www.w3.org/2000/svg">
<circle cx="15.5" cy="15.5" r="15.5" fill="url(#paint0_linear_2855_95939)"/>
<path d="M11.5115 15.7699L9.75499 17.5249L8 15.7699L9.75499 14.0149L11.5115 15.7699ZM15.7699 11.5085L18.7774 14.5174L20.5324 12.7624L15.7699 8L11.0075 12.7624L12.7624 14.5174L15.7699 11.5085ZM21.7864 14.0149L20.0314 15.7699L21.7864 17.5249L23.5398 15.7699L21.7864 14.0149ZM15.7699 20.0314L12.7624 17.0239L11.0075 18.7774L15.7699 23.5398L20.5324 18.7774L18.7774 17.0239L15.7699 20.0314ZM15.7699 17.5249L17.5249 15.7699L15.7699 14.0149L14.0149 15.7699L15.7699 17.5249Z" fill="white"/>
<defs>
<linearGradient id="paint0_linear_2855_95939" x1="15.5" y1="0" x2="15.5" y2="31" gradientUnits="userSpaceOnUse">
<stop stop-color="#F0B90B"/>
<stop offset="1" stop-color="#C79909"/>
</linearGradient>
</defs>
</svg>
