<svg width="30" height="31" viewBox="0 0 30 31" fill="none" xmlns="http://www.w3.org/2000/svg">
<circle r="0.796987" transform="matrix(-1 -8.74228e-08 -8.74228e-08 1 9.02186 1.54113)" fill="#C3C9D2"/>
<circle r="0.796987" transform="matrix(-1 -8.74228e-08 -8.74228e-08 1 20.9784 1.54113)" fill="#C3C9D2"/>
<circle r="0.796987" transform="matrix(-1 -8.74228e-08 -8.74228e-08 1 1.05311 1.54113)" fill="#C3C9D2"/>
<circle r="0.796987" transform="matrix(-1 -8.74228e-08 -8.74228e-08 1 13.0062 1.54113)" fill="#C3C9D2"/>
<circle r="0.796987" transform="matrix(-1 -8.74228e-08 -8.74228e-08 1 24.9628 1.54113)" fill="#C3C9D2"/>
<circle r="0.796987" transform="matrix(-1 -8.74228e-08 -8.74228e-08 1 5.03749 1.54113)" fill="#C3C9D2"/>
<circle r="0.796987" transform="matrix(-1 -8.74228e-08 -8.74228e-08 1 16.994 1.54113)" fill="#C3C9D2"/>
<circle r="0.796987" transform="matrix(-1 -8.74228e-08 -8.74228e-08 1 28.9472 1.54113)" fill="#C3C9D2"/>
<circle r="0.796987" transform="matrix(-1 -8.74228e-08 -8.74228e-08 1 9.02186 5.5255)" fill="#C3C9D2"/>
<circle r="0.796987" transform="matrix(-1 -8.74228e-08 -8.74228e-08 1 20.9784 5.5255)" fill="#C3C9D2"/>
<circle r="0.796987" transform="matrix(-1 -8.74228e-08 -8.74228e-08 1 1.05311 5.5255)" fill="#C3C9D2"/>
<circle r="0.796987" transform="matrix(-1 -8.74228e-08 -8.74228e-08 1 13.0062 5.5255)" fill="#C3C9D2"/>
<circle r="0.796987" transform="matrix(-1 -8.74228e-08 -8.74228e-08 1 24.9628 5.5255)" fill="#C3C9D2"/>
<circle r="0.796987" transform="matrix(-1 -8.74228e-08 -8.74228e-08 1 5.03749 5.5255)" fill="#C3C9D2"/>
<circle r="0.796987" transform="matrix(-1 -8.74228e-08 -8.74228e-08 1 16.994 5.5255)" fill="#C3C9D2"/>
<circle r="0.796987" transform="matrix(-1 -8.74228e-08 -8.74228e-08 1 28.9472 5.5255)" fill="#C3C9D2"/>
<circle r="0.796987" transform="matrix(1.31134e-07 -1 -1 -1.31134e-07 5.13661 17.9921)" fill="#C3C9D2"/>
<circle r="0.796987" transform="matrix(1.31134e-07 -1 -1 -1.31134e-07 5.13661 29.9472)" fill="#C3C9D2"/>
<circle r="0.796987" transform="matrix(1.31134e-07 -1 -1 -1.31134e-07 5.13661 10.0214)" fill="#C3C9D2"/>
<circle r="0.796987" transform="matrix(1.31134e-07 -1 -1 -1.31134e-07 5.13661 21.9765)" fill="#C3C9D2"/>
<circle r="0.796987" transform="matrix(1.31134e-07 -1 -1 -1.31134e-07 5.13661 14.0077)" fill="#C3C9D2"/>
<circle r="0.796987" transform="matrix(1.31134e-07 -1 -1 -1.31134e-07 5.13661 25.9608)" fill="#C3C9D2"/>
<circle r="0.796987" transform="matrix(1.31134e-07 -1 -1 -1.31134e-07 1.15223 17.9921)" fill="#C3C9D2"/>
<circle r="0.796987" transform="matrix(1.31134e-07 -1 -1 -1.31134e-07 1.15223 29.9472)" fill="#C3C9D2"/>
<circle r="0.796987" transform="matrix(1.31134e-07 -1 -1 -1.31134e-07 1.15223 10.0214)" fill="#C3C9D2"/>
<circle r="0.796987" transform="matrix(1.31134e-07 -1 -1 -1.31134e-07 1.15223 21.9765)" fill="#C3C9D2"/>
<circle r="0.796987" transform="matrix(1.31134e-07 -1 -1 -1.31134e-07 1.15223 14.0077)" fill="#C3C9D2"/>
<circle r="0.796987" transform="matrix(1.31134e-07 -1 -1 -1.31134e-07 1.15223 25.9608)" fill="#C3C9D2"/>
</svg>
