<svg width="86" height="19" viewBox="0 0 86 19" fill="none" xmlns="http://www.w3.org/2000/svg">
<g opacity="0.3">
<path fill-rule="evenodd" clip-rule="evenodd" d="M6.76903 18.1249C11.5541 19.354 16.4001 16.3544 17.5929 11.4258C18.7858 6.49686 15.8742 1.50409 11.0894 0.275311C6.30573 -0.953473 1.4598 2.04632 0.267502 6.97555C-0.925911 11.9039 1.98589 16.8961 6.76903 18.1249ZM10.9023 5.56832C12.1396 6.00733 13.0444 6.66542 12.8666 7.88961C12.7379 8.78575 12.2557 9.21959 11.6154 9.37168C12.4946 9.84319 12.942 10.5663 12.5158 11.8198C11.9869 13.3766 10.7304 13.508 9.05946 13.1822L8.65394 14.8564L7.67403 14.6048L8.07426 12.9531C7.82028 12.8881 7.56072 12.8191 7.29335 12.7444L6.89173 14.4038L5.91294 14.1523L6.31847 12.475C6.227 12.4508 6.13495 12.4261 6.04225 12.4012C5.90301 12.3638 5.76231 12.326 5.61989 12.2893L4.34471 11.9618L4.83117 10.8063C4.83117 10.8063 5.55319 11.0041 5.54342 10.9895C5.82084 11.0602 5.94392 10.8739 5.99248 10.7497L6.63329 8.10322C6.65735 8.10918 6.68092 8.11526 6.70365 8.12114C6.71493 8.12405 6.726 8.12691 6.73683 8.12967C6.69776 8.11357 6.66231 8.10322 6.63496 8.09603L7.09212 6.20686C7.10412 5.99238 7.03239 5.72184 6.63552 5.61978C6.65087 5.60914 5.92383 5.4375 5.92383 5.4375L6.1845 4.35937L7.53588 4.70696L7.53477 4.71213C7.73795 4.76417 7.94727 4.81362 8.1605 4.86365L8.56212 3.20591L9.54146 3.45747L9.14794 5.08272C9.41085 5.14454 9.67543 5.20693 9.93303 5.27305L10.3238 3.65844L11.3037 3.91L10.9023 5.56832ZM7.80284 11.5808C8.6024 11.7983 10.3499 12.2738 10.6277 11.1237C10.9124 9.94785 9.21762 9.5561 8.39064 9.36495C8.29823 9.34359 8.21666 9.32473 8.14989 9.30757L7.6118 11.5297C7.66663 11.5437 7.7309 11.5612 7.80284 11.5808ZM8.5568 8.33374C9.22342 8.517 10.6775 8.91674 10.9308 7.87149C11.1895 6.80236 9.77619 6.48008 9.08598 6.32268C9.00834 6.30497 8.93985 6.28936 8.88391 6.27499L8.39605 8.29039C8.44214 8.30222 8.49621 8.31708 8.5568 8.33374Z" fill="#565F77"/>
<path d="M26.171 5.56765C26.8953 5.56765 27.521 5.70134 28.0468 5.96382C28.5751 6.2289 29.0111 6.58598 29.3608 7.03506C29.7057 7.48644 29.9625 8.014 30.1283 8.61862C30.293 9.22496 30.3756 9.87673 30.3756 10.5745C30.3756 11.6463 30.185 12.6589 29.8001 13.6134C29.4152 14.5693 28.893 15.3985 28.2288 16.1057C27.5651 16.8121 26.7814 17.369 25.8777 17.7804C24.9754 18.1922 23.9943 18.398 22.941 18.398C22.8048 18.398 22.5654 18.394 22.2271 18.3868C21.8888 18.3796 21.5001 18.3437 21.0647 18.283C20.6265 18.22 20.1632 18.1269 19.6739 18.0021C19.185 17.8796 18.7205 17.708 18.2832 17.4901L22.1939 0.563098L25.6965 0.00390625L24.2963 6.01069C24.5961 5.87154 24.898 5.76372 25.1995 5.68524C25.5012 5.6079 25.8249 5.56765 26.171 5.56765ZM23.233 15.5356C23.7604 15.5356 24.2575 15.4019 24.7245 15.1395C25.1928 14.8767 25.5969 14.5219 25.9354 14.08C26.274 13.6361 26.5419 13.1361 26.7373 12.5775C26.9326 12.0189 27.0315 11.4361 27.0315 10.8298C27.0315 10.0849 26.9106 9.50384 26.6697 9.0838C26.4289 8.66548 25.9832 8.45503 25.3359 8.45503C25.1238 8.45503 24.8506 8.49672 24.5118 8.57118C24.1718 8.65024 23.8676 8.81441 23.595 9.06137L22.104 15.4405C22.1939 15.4569 22.2734 15.4724 22.3413 15.487C22.4077 15.5029 22.4811 15.5141 22.5542 15.5218C22.6315 15.5307 22.72 15.5353 22.8269 15.5353C22.9338 15.5353 23.0675 15.5356 23.233 15.5356Z" fill="#565F77"/>
<path d="M34.0091 18.0723H30.6636L33.4889 5.82561H36.8573L34.0091 18.0723ZM35.6371 4.33348C35.1701 4.33348 34.7467 4.1903 34.3711 3.90337C33.9923 3.61817 33.8048 3.17916 33.8048 2.58748C33.8048 2.26202 33.869 1.9567 33.9963 1.66862C34.1255 1.38112 34.2943 1.13358 34.5059 0.923127C34.7172 0.714401 34.9619 0.54765 35.2399 0.422011C35.5196 0.298385 35.8171 0.236572 36.1341 0.236572C36.6008 0.236572 37.0219 0.379749 37.399 0.666676C37.7747 0.955041 37.9636 1.39406 37.9636 1.98257C37.9636 2.30918 37.8997 2.61565 37.7713 2.90315C37.6438 3.19066 37.4749 3.4382 37.2634 3.64865C37.0537 3.85766 36.8067 4.02384 36.5293 4.14833C36.2494 4.27396 35.953 4.33348 35.6371 4.33348Z" fill="#565F77"/>
<path d="M39.7884 2.77501L43.2924 2.21582L42.432 5.8257H46.1847L45.5071 8.66564H41.7769L40.7834 12.9494C40.6918 13.3065 40.6399 13.64 40.6254 13.9499C40.6089 14.2613 40.6472 14.5287 40.7376 14.7538C40.8275 14.9795 40.9891 15.1534 41.2235 15.2765C41.4568 15.4015 41.7909 15.4645 42.2291 15.4645C42.59 15.4645 42.9416 15.4291 43.2815 15.359C43.6195 15.29 43.962 15.194 44.3086 15.0683L44.5581 17.7237C44.106 17.8945 43.6165 18.0414 43.089 18.165C42.5606 18.2903 41.9352 18.3507 41.2123 18.3507C40.173 18.3507 39.3672 18.1917 38.7931 17.8752C38.2199 17.5564 37.8146 17.1208 37.5721 16.5694C37.3329 16.0199 37.226 15.3866 37.2559 14.673C37.2869 13.9577 37.3915 13.2059 37.5721 12.4141L39.7884 2.77501Z" fill="#565F77"/>
<path d="M46.0371 13.1835C46.0371 12.1287 46.2029 11.1339 46.5342 10.2027C46.8649 9.27061 47.3413 8.45554 47.9595 7.75604C48.5755 7.06 49.326 6.50857 50.2093 6.10377C51.0885 5.70127 52.0728 5.49829 53.1577 5.49829C53.8367 5.49829 54.4432 5.56442 54.9768 5.69695C55.5127 5.83064 55.9975 6.00343 56.4359 6.22021L55.2822 8.92273C54.9807 8.7968 54.6679 8.68583 54.3444 8.5852C54.0206 8.48256 53.6254 8.43311 53.158 8.43311C52.0413 8.43311 51.1585 8.82958 50.5015 9.61992C49.847 10.4108 49.5174 11.4755 49.5174 12.8109C49.5174 13.6024 49.6832 14.2424 50.0159 14.732C50.3469 15.2216 50.9584 15.4651 51.8462 15.4651C52.2844 15.4651 52.7072 15.418 53.1122 15.326C53.5202 15.2328 53.8805 15.1155 54.1979 14.9769L54.4477 17.7473C54.0246 17.9164 53.5579 18.069 53.046 18.2027C52.5331 18.3318 51.9224 18.3988 51.2143 18.3988C50.2796 18.3988 49.4884 18.2579 48.8412 17.9805C48.1937 17.6987 47.6587 17.3247 47.2372 16.8509C46.8136 16.3759 46.5093 15.8213 46.3212 15.1848C46.1331 14.5489 46.0371 13.8807 46.0371 13.1835Z" fill="#565F77"/>
<path d="M60.8984 18.3983C60.0999 18.3983 59.4064 18.273 58.818 18.0248C58.2314 17.7767 57.7455 17.4286 57.3612 16.9772C56.9763 16.5281 56.6883 15.9959 56.4909 15.3827C56.2936 14.7697 56.1987 14.091 56.1987 13.3472C56.1987 12.4142 56.3441 11.4816 56.638 10.5515C56.9305 9.61943 57.3645 8.78194 57.9389 8.0376C58.5088 7.2921 59.2118 6.6826 60.0396 6.20736C60.8666 5.73528 61.8178 5.4978 62.8861 5.4978C63.6701 5.4978 64.36 5.62344 64.9565 5.87156C65.5501 6.11909 66.0391 6.47014 66.4256 6.91921C66.808 7.37059 67.0985 7.90046 67.2939 8.51456C67.4907 9.12637 67.5878 9.80688 67.5878 10.5512C67.5878 11.4813 67.4443 12.414 67.1596 13.3469C66.8747 14.2752 66.4519 15.1147 65.8937 15.8608C65.3366 16.6052 64.64 17.2144 63.8032 17.6876C62.9676 18.1608 61.9986 18.3983 60.8984 18.3983ZM62.5705 8.43291C62.0745 8.43291 61.6361 8.58126 61.2607 8.87423C60.8839 9.17064 60.5674 9.54324 60.3123 9.99261C60.0544 10.444 59.8633 10.9362 59.734 11.4712C59.6059 12.0074 59.5431 12.5143 59.5431 12.9959C59.5431 13.773 59.6648 14.3782 59.904 14.8137C60.1465 15.247 60.5822 15.4649 61.2155 15.4649C61.7131 15.4649 62.1493 15.3177 62.5269 15.0216C62.9015 14.7275 63.2183 14.3546 63.4753 13.9044C63.7315 13.4553 63.9244 12.9616 64.0536 12.4257C64.18 11.8913 64.2445 11.3815 64.2445 10.9008C64.2445 10.1257 64.1234 9.51909 63.8819 9.0841C63.6408 8.65084 63.2032 8.43291 62.5705 8.43291Z" fill="#565F77"/>
<path d="M71.2341 18.0723H67.8857L70.711 5.82561H74.0811L71.2341 18.0723ZM72.8595 4.33348C72.3929 4.33348 71.9698 4.1903 71.5947 3.90337C71.2179 3.61817 71.0286 3.17916 71.0286 2.58748C71.0286 2.26202 71.0937 1.9567 71.2212 1.66862C71.3488 1.38112 71.5187 1.13358 71.7303 0.923127C71.9405 0.714401 72.1875 0.54765 72.4649 0.422011C72.7429 0.298385 73.0404 0.236572 73.3563 0.236572C73.8241 0.236572 74.2466 0.379749 74.6228 0.666676C74.9993 0.955041 75.1894 1.39406 75.1894 1.98257C75.1894 2.30918 75.1219 2.61565 74.9954 2.90315C74.869 3.19066 74.699 3.4382 74.4883 3.64865C74.2762 3.85766 74.0323 4.02384 73.7543 4.14833C73.4741 4.27396 73.1771 4.33348 72.8595 4.33348Z" fill="#565F77"/>
<path d="M76.4914 6.3839C76.7454 6.30742 77.029 6.21542 77.3374 6.11537C77.6469 6.01532 77.9927 5.92217 78.3789 5.83822C78.761 5.75168 79.1922 5.68153 79.6664 5.62719C80.1406 5.5717 80.6809 5.54468 81.2813 5.54468C83.0457 5.54468 84.262 6.07397 84.9335 7.12939C85.6044 8.18481 85.7205 9.62922 85.2852 11.46L83.7462 18.0726H80.3787L81.8701 11.5992C81.9611 11.195 82.0326 10.8042 82.0853 10.4224C82.1386 10.0441 82.1356 9.71058 82.0733 9.42193C82.0139 9.13673 81.8738 8.90328 81.6564 8.72244C81.4356 8.54447 81.1021 8.45506 80.6497 8.45506C80.2134 8.45506 79.7697 8.50336 79.3167 8.59651L77.1238 18.0723H73.7549L76.4914 6.3839Z" fill="#565F77"/>
</g>
</svg>
