<svg width="86" height="19" viewBox="0 0 86 19" fill="none" xmlns="http://www.w3.org/2000/svg">
<g opacity="0.1">
<path fill-rule="evenodd" clip-rule="evenodd" d="M6.76903 18.1249C11.5541 19.354 16.4001 16.3544 17.5929 11.4258C18.7858 6.49686 15.8742 1.50409 11.0894 0.275311C6.30573 -0.953473 1.4598 2.04632 0.267502 6.97555C-0.925911 11.9039 1.98589 16.8961 6.76903 18.1249ZM10.9023 5.56832C12.1396 6.00733 13.0444 6.66542 12.8666 7.88961C12.7379 8.78575 12.2557 9.21959 11.6154 9.37168C12.4946 9.84319 12.942 10.5663 12.5158 11.8198C11.9869 13.3766 10.7304 13.508 9.05946 13.1822L8.65394 14.8564L7.67403 14.6048L8.07426 12.9531C7.82028 12.8881 7.56072 12.8191 7.29335 12.7444L6.89173 14.4038L5.91294 14.1523L6.31847 12.475C6.227 12.4508 6.13495 12.4261 6.04225 12.4012C5.90301 12.3638 5.76231 12.326 5.61989 12.2893L4.34471 11.9618L4.83117 10.8063C4.83117 10.8063 5.55319 11.0041 5.54342 10.9895C5.82084 11.0602 5.94392 10.8739 5.99248 10.7497L6.63329 8.10322C6.65735 8.10918 6.68092 8.11526 6.70365 8.12114C6.71493 8.12405 6.726 8.12691 6.73683 8.12967C6.69776 8.11357 6.66231 8.10322 6.63496 8.09603L7.09212 6.20686C7.10412 5.99238 7.03239 5.72184 6.63552 5.61978C6.65087 5.60914 5.92383 5.4375 5.92383 5.4375L6.1845 4.35937L7.53588 4.70696L7.53477 4.71213C7.73795 4.76417 7.94727 4.81362 8.1605 4.86365L8.56212 3.20591L9.54146 3.45747L9.14794 5.08272C9.41085 5.14454 9.67543 5.20693 9.93303 5.27305L10.3238 3.65844L11.3037 3.91L10.9023 5.56832ZM7.80284 11.5808C8.6024 11.7983 10.3499 12.2738 10.6277 11.1237C10.9124 9.94785 9.21762 9.5561 8.39064 9.36495C8.29823 9.34359 8.21666 9.32473 8.14989 9.30757L7.6118 11.5297C7.66663 11.5437 7.7309 11.5612 7.80284 11.5808ZM8.5568 8.33374C9.22342 8.517 10.6775 8.91674 10.9308 7.87149C11.1895 6.80236 9.77619 6.48008 9.08598 6.32268C9.00834 6.30497 8.93985 6.28936 8.88391 6.27499L8.39605 8.29039C8.44214 8.30222 8.49621 8.31708 8.5568 8.33374Z" fill="white"/>
<path d="M26.171 5.56765C26.8953 5.56765 27.521 5.70134 28.0468 5.96382C28.5751 6.2289 29.0111 6.58598 29.3608 7.03506C29.7057 7.48644 29.9625 8.014 30.1283 8.61862C30.293 9.22496 30.3756 9.87673 30.3756 10.5745C30.3756 11.6463 30.185 12.6589 29.8001 13.6134C29.4152 14.5693 28.893 15.3985 28.2288 16.1057C27.5651 16.8121 26.7814 17.369 25.8777 17.7804C24.9754 18.1922 23.9943 18.398 22.941 18.398C22.8048 18.398 22.5654 18.394 22.2271 18.3868C21.8888 18.3796 21.5001 18.3437 21.0647 18.283C20.6265 18.22 20.1632 18.1269 19.6739 18.0021C19.185 17.8796 18.7205 17.708 18.2832 17.4901L22.1939 0.563098L25.6965 0.00390625L24.2963 6.01069C24.5961 5.87154 24.898 5.76372 25.1995 5.68524C25.5012 5.6079 25.8249 5.56765 26.171 5.56765ZM23.233 15.5356C23.7604 15.5356 24.2575 15.4019 24.7245 15.1395C25.1928 14.8767 25.5969 14.5219 25.9354 14.08C26.274 13.6361 26.5419 13.1361 26.7373 12.5775C26.9326 12.0189 27.0315 11.4361 27.0315 10.8298C27.0315 10.0849 26.9106 9.50384 26.6697 9.0838C26.4289 8.66548 25.9832 8.45503 25.3359 8.45503C25.1238 8.45503 24.8506 8.49672 24.5118 8.57118C24.1718 8.65024 23.8676 8.81441 23.595 9.06137L22.104 15.4405C22.1939 15.4569 22.2734 15.4724 22.3413 15.487C22.4077 15.5029 22.4811 15.5141 22.5542 15.5218C22.6315 15.5307 22.72 15.5353 22.8269 15.5353C22.9338 15.5353 23.0675 15.5356 23.233 15.5356Z" fill="white"/>
<path d="M34.0091 18.0726H30.6636L33.4889 5.82586H36.8573L34.0091 18.0726ZM35.6371 4.33372C35.1701 4.33372 34.7467 4.19055 34.3711 3.90362C33.9923 3.61842 33.8048 3.1794 33.8048 2.58772C33.8048 2.26227 33.869 1.95694 33.9963 1.66886C34.1255 1.38136 34.2943 1.13382 34.5059 0.923371C34.7172 0.714645 34.9619 0.547894 35.2399 0.422255C35.5196 0.298629 35.8171 0.236816 36.1341 0.236816C36.6008 0.236816 37.0219 0.379993 37.399 0.66692C37.7747 0.955285 37.9636 1.3943 37.9636 1.98282C37.9636 2.30942 37.8997 2.6159 37.7713 2.9034C37.6438 3.1909 37.4749 3.43844 37.2634 3.64889C37.0537 3.85791 36.8067 4.02408 36.5293 4.14857C36.2494 4.27421 35.953 4.33372 35.6371 4.33372Z" fill="white"/>
<path d="M39.7884 2.77501L43.2924 2.21582L42.432 5.8257H46.1847L45.5071 8.66564H41.7769L40.7834 12.9494C40.6918 13.3065 40.6399 13.64 40.6254 13.9499C40.6089 14.2613 40.6472 14.5287 40.7376 14.7538C40.8275 14.9795 40.9891 15.1534 41.2235 15.2765C41.4568 15.4015 41.7909 15.4645 42.2291 15.4645C42.59 15.4645 42.9416 15.4291 43.2815 15.359C43.6195 15.29 43.962 15.194 44.3086 15.0683L44.5581 17.7237C44.106 17.8945 43.6165 18.0414 43.089 18.165C42.5606 18.2903 41.9352 18.3507 41.2123 18.3507C40.173 18.3507 39.3672 18.1917 38.7931 17.8752C38.2199 17.5564 37.8146 17.1208 37.5721 16.5694C37.3329 16.0199 37.226 15.3866 37.2559 14.673C37.2869 13.9577 37.3915 13.2059 37.5721 12.4141L39.7884 2.77501Z" fill="white"/>
<path d="M46.0371 13.1833C46.0371 12.1284 46.2029 11.1337 46.5342 10.2024C46.8649 9.27036 47.3413 8.45529 47.9595 7.7558C48.5755 7.05976 49.326 6.50833 50.2093 6.10352C51.0885 5.70102 52.0728 5.49805 53.1577 5.49805C53.8367 5.49805 54.4432 5.56417 54.9768 5.69671C55.5127 5.8304 55.9975 6.00319 56.4359 6.21996L55.2822 8.92248C54.9807 8.79656 54.6679 8.68558 54.3444 8.58496C54.0206 8.48232 53.6254 8.43287 53.158 8.43287C52.0413 8.43287 51.1585 8.82933 50.5015 9.61968C49.847 10.4106 49.5174 11.4752 49.5174 12.8107C49.5174 13.6022 49.6832 14.2421 50.0159 14.7317C50.3469 15.2214 50.9584 15.4649 51.8462 15.4649C52.2844 15.4649 52.7072 15.4177 53.1122 15.3257C53.5202 15.2326 53.8805 15.1153 54.1979 14.9767L54.4477 17.7471C54.0246 17.9161 53.5579 18.0688 53.046 18.2025C52.5331 18.3316 51.9224 18.3986 51.2143 18.3986C50.2796 18.3986 49.4884 18.2577 48.8412 17.9802C48.1937 17.6985 47.6587 17.3244 47.2372 16.8506C46.8136 16.3757 46.5093 15.8211 46.3212 15.1846C46.1331 14.5486 46.0371 13.8805 46.0371 13.1833Z" fill="white"/>
<path d="M60.8984 18.3981C60.0999 18.3981 59.4064 18.2727 58.818 18.0246C58.2314 17.7765 57.7455 17.4283 57.3612 16.9769C56.9763 16.5279 56.6883 15.9957 56.4909 15.3825C56.2936 14.7695 56.1987 14.0907 56.1987 13.3469C56.1987 12.414 56.3441 11.4813 56.638 10.5513C56.9305 9.61919 57.3645 8.7817 57.9389 8.03735C58.5088 7.29186 59.2118 6.68235 60.0396 6.20711C60.8666 5.73503 61.8178 5.49756 62.8861 5.49756C63.6701 5.49756 64.36 5.6232 64.9565 5.87131C65.5501 6.11885 66.0391 6.46989 66.4256 6.91897C66.808 7.37035 67.0985 7.90021 67.2939 8.51432C67.4907 9.12612 67.5878 9.80664 67.5878 10.551C67.5878 11.4811 67.4443 12.4137 67.1596 13.3467C66.8747 14.275 66.4519 15.1145 65.8937 15.8606C65.3366 16.6049 64.64 17.2141 63.8032 17.6874C62.9676 18.1606 61.9986 18.3981 60.8984 18.3981ZM62.5705 8.43267C62.0745 8.43267 61.6361 8.58102 61.2607 8.87398C60.8839 9.1704 60.5674 9.543 60.3123 9.99236C60.0544 10.4437 59.8633 10.9359 59.734 11.471C59.6059 12.0072 59.5431 12.514 59.5431 12.9956C59.5431 13.7727 59.6648 14.3779 59.904 14.8135C60.1465 15.2468 60.5822 15.4647 61.2155 15.4647C61.7131 15.4647 62.1493 15.3175 62.5269 15.0214C62.9015 14.7272 63.2183 14.3543 63.4753 13.9041C63.7315 13.455 63.9244 12.9614 64.0536 12.4255C64.18 11.891 64.2445 11.3813 64.2445 10.9006C64.2445 10.1255 64.1234 9.51885 63.8819 9.08386C63.6408 8.65059 63.2032 8.43267 62.5705 8.43267Z" fill="white"/>
<path d="M71.2341 18.0726H67.8857L70.711 5.82586H74.0811L71.2341 18.0726ZM72.8595 4.33372C72.3929 4.33372 71.9698 4.19055 71.5947 3.90362C71.2179 3.61842 71.0286 3.1794 71.0286 2.58772C71.0286 2.26227 71.0937 1.95694 71.2212 1.66886C71.3488 1.38136 71.5187 1.13382 71.7303 0.923371C71.9405 0.714645 72.1875 0.547894 72.4649 0.422255C72.7429 0.298629 73.0404 0.236816 73.3563 0.236816C73.8241 0.236816 74.2466 0.379993 74.6228 0.66692C74.9993 0.955285 75.1894 1.3943 75.1894 1.98282C75.1894 2.30942 75.1219 2.6159 74.9954 2.9034C74.869 3.1909 74.699 3.43844 74.4883 3.64889C74.2762 3.85791 74.0323 4.02408 73.7543 4.14857C73.4741 4.27421 73.1771 4.33372 72.8595 4.33372Z" fill="white"/>
<path d="M76.4914 6.38365C76.7454 6.30718 77.029 6.21518 77.3374 6.11512C77.6469 6.01507 77.9927 5.92192 78.3789 5.83797C78.761 5.75144 79.1922 5.68128 79.6664 5.62695C80.1406 5.57146 80.6809 5.54443 81.2813 5.54443C83.0457 5.54443 84.262 6.07372 84.9335 7.12914C85.6044 8.18456 85.7205 9.62898 85.2852 11.4598L83.7462 18.0723H80.3787L81.8701 11.5989C81.9611 11.1947 82.0326 10.804 82.0853 10.4222C82.1386 10.0438 82.1356 9.71034 82.0733 9.42169C82.0139 9.13648 81.8738 8.90303 81.6564 8.72219C81.4356 8.54423 81.1021 8.45482 80.6497 8.45482C80.2134 8.45482 79.7697 8.50312 79.3167 8.59627L77.1238 18.072H73.7549L76.4914 6.38365Z" fill="white"/>
</g>
</svg>
