<svg width="31" height="31" viewBox="0 0 31 31" fill="none" xmlns="http://www.w3.org/2000/svg">
<circle cx="15.5" cy="15.5" r="15.5" fill="url(#paint0_linear_2855_92468)"/>
<path d="M19.3315 13.7042C19.2033 12.3954 18.0311 11.9527 16.5495 11.8239V10.0071H15.4048V11.771C15.1026 11.771 14.793 11.771 14.489 11.771V10H13.3407V11.8168C13.0934 11.8168 12.848 11.8168 12.6081 11.8168H11.0256L11.0183 12.9987C11.0183 12.9987 11.8663 12.9846 11.8516 12.9987C12.3168 12.9987 12.4689 13.2597 12.511 13.4838V15.5546C12.5519 15.5524 12.5928 15.5524 12.6337 15.5546H12.5073L12.4982 18.4669C12.4884 18.5684 12.4376 18.6623 12.3568 18.7282C12.276 18.7942 12.1716 18.827 12.0659 18.8196C12.0806 18.832 11.2308 18.8196 11.2308 18.8196L11 20.1426H12.4945H13.315V21.9806H14.4634V20.1638C14.7784 20.1638 15.0824 20.1743 15.3791 20.1743V21.9841H16.5275V20.1496C18.4579 20.065 19.8095 19.5993 19.9744 17.8548C20.1136 16.4436 19.4249 15.8192 18.326 15.5617C18.9927 15.2353 19.4103 14.6621 19.315 13.7025L19.3315 13.7042ZM17.7143 17.629C17.7143 19.0031 15.2711 18.8408 14.4927 18.839V16.4048C15.2711 16.4048 17.7125 16.1984 17.7088 17.629H17.7143ZM17.1886 14.1946C17.1886 15.4435 15.1502 15.2918 14.5018 15.2918V13.0833C15.1557 13.0851 17.1923 12.8911 17.1886 14.1946Z" fill="white"/>
<defs>
<linearGradient id="paint0_linear_2855_92468" x1="15.5" y1="0" x2="15.5" y2="31" gradientUnits="userSpaceOnUse">
<stop stop-color="#F8931A"/>
<stop offset="1" stop-color="#CE7810"/>
</linearGradient>
</defs>
</svg>
