<svg width="19" height="19" viewBox="0 0 19 19" fill="none" xmlns="http://www.w3.org/2000/svg">
<path d="M16.2251 3.53019L11.8756 16.0957C11.8346 16.214 11.7573 16.3164 11.6547 16.3881C11.552 16.4598 11.4294 16.4973 11.3042 16.4951C11.179 16.4929 11.0577 16.4512 10.9576 16.376C10.8575 16.3007 10.7838 16.1957 10.747 16.0761L8.99871 10.3942C8.97023 10.3016 8.91954 10.2175 8.85106 10.149C8.78258 10.0805 8.69839 10.0298 8.60583 10.0013L2.92396 8.25305C2.80429 8.21623 2.69931 8.14252 2.62405 8.04244C2.54879 7.94237 2.50709 7.82107 2.50492 7.69588C2.50274 7.57068 2.5402 7.448 2.61194 7.34538C2.68368 7.24275 2.78603 7.16543 2.90435 7.12448L15.4698 2.77488C15.5751 2.73843 15.6886 2.73235 15.7972 2.75733C15.9057 2.7823 16.0051 2.83733 16.0839 2.91612C16.1627 2.99491 16.2177 3.09429 16.2427 3.20288C16.2677 3.31147 16.2616 3.42489 16.2251 3.53019V3.53019Z" stroke="#8D6B48" stroke-width="2" stroke-linecap="round" stroke-linejoin="round"/>
</svg>
