<svg width="16" height="20" viewBox="0 0 16 20" fill="none" xmlns="http://www.w3.org/2000/svg">
<path d="M10.0745 8.955C10.3815 8.53238 10.5657 8.0331 10.6066 7.51235C10.6476 6.9916 10.5437 6.46966 10.3066 6.00425C10.0694 5.53883 9.70816 5.14806 9.26277 4.87514C8.81738 4.60222 8.3052 4.45777 7.78284 4.45777C7.26048 4.45777 6.7483 4.60222 6.30291 4.87514C5.85752 5.14806 5.49627 5.53883 5.25911 6.00425C5.02195 6.46966 4.9181 6.9916 4.95906 7.51235C5.00001 8.0331 5.18417 8.53238 5.49117 8.955C5.10175 9.20318 4.75505 9.51273 4.46451 9.87167C4.38867 9.96977 4.33289 10.0819 4.30037 10.2015C4.26785 10.3212 4.25922 10.4461 4.27497 10.5691C4.29071 10.6921 4.33053 10.8108 4.39215 10.9184C4.45377 11.026 4.53598 11.1204 4.63409 11.1962C4.7322 11.2721 4.84428 11.3279 4.96394 11.3604C5.08361 11.3929 5.2085 11.4015 5.3315 11.3858C5.4545 11.37 5.57319 11.3302 5.6808 11.2686C5.78841 11.207 5.88283 11.1248 5.95867 11.0267C6.18254 10.7421 6.46785 10.5118 6.79327 10.3531C7.11868 10.1944 7.47577 10.1113 7.83784 10.11C8.1999 10.1113 8.55699 10.1944 8.88241 10.3531C9.20782 10.5118 9.49313 10.7421 9.717 11.0267C9.80328 11.133 9.91229 11.2187 10.036 11.2774C10.1597 11.3361 10.2951 11.3663 10.432 11.3658C10.6038 11.365 10.772 11.316 10.9173 11.2242C11.0626 11.1324 11.1792 11.0017 11.2537 10.8468C11.3283 10.692 11.3578 10.5193 11.3389 10.3485C11.3201 10.1777 11.2536 10.0157 11.147 9.88083C10.8434 9.51479 10.4809 9.20189 10.0745 8.955ZM7.792 8.28583C7.59598 8.2857 7.40432 8.22791 7.2409 8.11966C7.07747 8.0114 6.9495 7.85747 6.87292 7.67702C6.79634 7.49657 6.77452 7.29758 6.8102 7.10483C6.84587 6.91208 6.93746 6.73408 7.07355 6.59299C7.20964 6.4519 7.38423 6.35397 7.57557 6.31137C7.76691 6.26878 7.96656 6.28341 8.14964 6.35344C8.33273 6.42347 8.49118 6.54582 8.60525 6.70523C8.71932 6.86465 8.78398 7.0541 8.79117 7.25C8.7961 7.38426 8.7739 7.51814 8.7259 7.64363C8.6779 7.76912 8.60509 7.88364 8.51181 7.98034C8.41853 8.07704 8.30671 8.15393 8.18303 8.20642C8.05935 8.25891 7.92636 8.28592 7.792 8.28583ZM15.547 7.8275C15.4183 6.48817 14.945 5.20499 14.1731 4.10291C13.4012 3.00084 12.3571 2.11743 11.1424 1.5387C9.92774 0.959974 8.58389 0.705659 7.24174 0.800518C5.89959 0.895378 4.60488 1.33618 3.48367 2.08C2.52043 2.72409 1.7118 3.57352 1.11587 4.56727C0.519936 5.56102 0.151492 6.67443 0.0370052 7.8275C-0.0753026 8.97302 0.0687896 10.1292 0.458828 11.2121C0.848866 12.295 1.47507 13.2775 2.29201 14.0883L7.15034 18.9558C7.23555 19.0417 7.33694 19.1099 7.44864 19.1565C7.56035 19.203 7.68016 19.227 7.80117 19.227C7.92218 19.227 8.042 19.203 8.1537 19.1565C8.2654 19.1099 8.36679 19.0417 8.452 18.9558L13.292 14.0883C14.1089 13.2775 14.7351 12.295 15.1252 11.2121C15.5152 10.1292 15.6593 8.97302 15.547 7.8275ZM12.0087 12.7958L7.792 17.0125L3.57534 12.7958C2.95392 12.1744 2.47791 11.423 2.18152 10.5956C1.88513 9.76826 1.77572 8.88551 1.86117 8.01083C1.94717 7.12268 2.22945 6.26473 2.68761 5.49902C3.14577 4.73331 3.76835 4.07898 4.51034 3.58333C5.48287 2.9373 6.62445 2.59269 7.792 2.59269C8.95956 2.59269 10.1011 2.9373 11.0737 3.58333C11.8134 4.07706 12.4346 4.72851 12.8927 5.49086C13.3507 6.25321 13.6342 7.10755 13.7228 7.9925C13.8111 8.87014 13.703 9.75642 13.4066 10.5872C13.1101 11.4179 12.6326 12.1723 12.0087 12.7958Z" fill="#3E3023"/>
</svg>
