<svg width="104" height="23" viewBox="0 0 104 23" fill="none" xmlns="http://www.w3.org/2000/svg">
<g opacity="0.3" clip-path="url(#clip0_207_477)">
<path d="M10.2793 0H10.3634L10.0975 0.0292064C11.752 0.0394286 13.4084 0.490667 14.8596 1.38803C16.7415 2.53803 18.2722 4.39556 19.1382 6.59406C19.7045 8.02883 20.0029 9.60013 19.9729 11.1707C19.9808 13.719 19.1278 16.246 17.6603 18.1875C15.5412 18.4883 13.3465 18.6709 11.2587 18.0488C10.02 17.7034 8.91871 16.8083 8.21365 15.6196C7.49751 14.1994 7.74252 12.2338 8.82813 11.1298C9.58402 10.3617 10.6749 10.0324 11.6725 10.2821C12.5555 10.4844 13.34 11.1291 13.7929 12.0002C14.2354 11.7395 14.6746 11.4723 15.1177 11.213C14.8055 10.6245 14.4204 10.0777 13.9389 9.65197C13.1289 8.93349 12.1019 8.54359 11.0723 8.51146C10.0956 8.49832 9.11615 8.82543 8.31269 9.45044C6.68102 10.6932 5.87365 13.1589 6.43796 15.283C6.79831 16.7243 7.74317 17.9086 8.84573 18.7118C9.72282 19.3434 10.7387 19.6858 11.7572 19.8924C13.1569 20.1699 14.5859 20.0677 15.9934 19.9333C15.852 20.0962 15.6396 20.0867 15.4539 20.1239C13.9519 20.3736 12.403 20.3817 10.9186 19.991C9.49475 19.6216 8.13871 18.8344 7.12738 17.6392C5.64101 15.8408 5.29305 12.918 6.46076 10.8129C7.07069 9.69213 7.96538 8.72832 9.07771 8.27051C10.2923 7.76305 11.6758 7.76816 12.8839 8.29752C13.0826 7.7813 13.299 7.27384 13.4938 6.75616C11.5011 5.84346 9.12071 6.08003 7.31114 7.3914C6.32066 8.10914 5.50548 9.11311 4.91249 10.2529C4.25174 11.5635 4.03801 13.1275 4.24001 14.609C4.50653 16.6067 5.48071 18.4767 6.90909 19.7106C7.60372 20.3254 8.42477 20.7394 9.26994 21.0191C10.3621 21.3827 11.5018 21.5411 12.6389 21.5704C12.7998 21.5733 12.9614 21.5806 13.1217 21.6032C12.893 21.7361 12.6278 21.6959 12.3795 21.704C11.0287 21.7354 9.66743 21.5003 8.40066 20.9702C7.4369 20.5635 6.52723 19.9567 5.81239 19.1185C5.06237 18.2839 4.43159 17.296 4.06603 16.1789C3.6366 14.8565 3.50237 13.4028 3.73239 12.0162C4.01129 10.3668 4.85189 8.88384 5.95249 7.76378C7.27269 6.41225 9.06011 5.64486 10.8495 5.67771C10.8501 5.11111 10.8488 4.54378 10.8508 3.97717C9.30643 3.97791 7.76142 4.42987 6.42623 5.30314C4.66162 6.45314 3.27495 8.30117 2.53926 10.4318C1.99906 12.0279 1.79705 13.8066 2.16392 15.4794C2.58357 17.5223 3.74152 19.3404 5.29239 20.5029C5.53415 20.7015 5.81044 20.8395 6.04763 21.0461C5.93816 21.0381 5.82673 21.0235 5.72833 20.965C5.22853 20.6971 4.76132 20.359 4.31756 19.9881C3.51866 19.3112 2.76538 18.5453 2.1939 17.6173C1.47906 16.5052 0.915401 15.2603 0.603922 13.9307C0.308082 12.7011 0.240965 11.4146 0.31916 10.1477C0.507481 7.43156 1.64913 4.82051 3.43786 2.97686C4.89294 1.46105 6.76442 0.455619 8.73365 0.148222C9.24518 0.0562222 9.76518 0.0649841 10.2793 0Z" fill="#565F77"/>
<path d="M25.024 4.63436C26.5651 4.63874 28.1068 4.63509 29.6479 4.63655C30.4299 4.64458 31.219 4.59055 31.9918 4.75703C32.6663 4.89138 33.3537 5.18344 33.8157 5.77487C34.311 6.37798 34.4713 7.22861 34.4576 8.02741C34.4582 8.68893 34.2999 9.37528 33.9102 9.88639C33.6248 10.2748 33.2475 10.5684 32.8468 10.7881C33.4776 10.9853 34.0784 11.3847 34.4583 11.9936C34.9893 12.8253 35.1079 13.9052 34.9841 14.8982C34.8746 15.8182 34.395 16.6608 33.7213 17.1938C32.9354 17.8137 31.9645 18.0664 31.0163 18.1094C29.0178 18.1102 27.0193 18.1116 25.0207 18.1087C25.022 13.6175 25.0155 9.12557 25.024 4.63436ZM27.6135 6.95407C27.6142 7.99309 27.6142 9.03284 27.6135 10.0719C28.5095 10.077 29.4049 10.0719 30.3009 10.0748C30.7342 10.0813 31.1923 9.9521 31.5194 9.61842C31.8491 9.27379 31.9123 8.72836 31.8693 8.24938C31.8426 7.86166 31.6582 7.48563 31.3611 7.27753C30.9909 7.0103 30.5354 6.95918 30.1054 6.95261C29.2745 6.9548 28.4437 6.95261 27.6135 6.95407ZM27.6135 12.1251C27.6142 13.3459 27.6142 14.566 27.6142 15.7868C28.5955 15.7912 29.5769 15.7883 30.5589 15.7883C30.9896 15.7715 31.4399 15.6882 31.8035 15.4108C32.1254 15.1654 32.3229 14.7485 32.3561 14.3185C32.3985 13.8278 32.3528 13.2962 32.1091 12.8735C31.7814 12.3456 31.1793 12.1455 30.6306 12.1243C29.6251 12.1221 28.619 12.1214 27.6135 12.1251Z" fill="#565F77"/>
<path d="M45.2057 4.6372C48.3772 4.63428 51.5487 4.63793 54.7208 4.63574C54.7215 5.47031 54.7221 6.30488 54.7202 7.13946C53.5798 7.13727 52.4395 7.138 51.2991 7.13873C51.2978 10.7954 51.2991 14.452 51.2985 18.1086C50.407 18.1116 49.5163 18.1108 48.6248 18.1086C48.6294 14.452 48.6229 10.7961 48.6281 7.13946C47.4871 7.13581 46.3461 7.14092 45.2051 7.13727C45.2083 6.30415 45.2077 5.47104 45.2057 4.6372Z" fill="#565F77"/>
<path d="M36.4401 4.63787C37.2442 4.63422 38.0483 4.63714 38.8524 4.63641C38.8518 5.37898 38.8537 6.12155 38.8511 6.86412C38.047 6.86704 37.2429 6.86485 36.4395 6.86558C36.4421 6.12301 36.4401 5.38044 36.4401 4.63787Z" fill="#565F77"/>
<path d="M41.1806 5.41846C41.9854 5.42138 42.7908 5.42211 43.5956 5.41846C43.5975 6.39249 43.5923 7.36652 43.5982 8.34055C44.1781 8.34128 44.7581 8.34201 45.338 8.33982C45.3393 8.94366 45.3354 9.54751 45.3393 10.1513C44.7581 10.1528 44.1775 10.1521 43.5962 10.1521C43.5962 11.8066 43.5943 13.4612 43.5969 15.1157C43.6099 15.4063 43.6392 15.7677 43.8797 15.9408C44.128 16.0927 44.4238 16.1021 44.7008 16.0985C45.0917 16.0591 45.4847 16.0569 45.8769 16.0269C45.8763 16.7235 45.8776 17.4208 45.8763 18.1174C45.0546 18.1926 44.2296 18.216 43.406 18.1897C42.7615 18.1415 42.0454 17.9998 41.6049 17.4193C41.2615 16.9944 41.1859 16.3993 41.18 15.848C41.18 13.9489 41.1807 12.0505 41.18 10.1513C40.6978 10.1521 40.2156 10.1521 39.7334 10.1521C39.7347 9.5475 39.7301 8.94366 39.736 8.33909C40.2162 8.34274 40.6971 8.34055 41.178 8.34055C41.1833 7.36652 41.178 6.39249 41.1806 5.41846Z" fill="#565F77"/>
<path d="M94.8753 5.41846C95.6801 5.42138 96.4842 5.42211 97.289 5.41846C97.2942 6.39249 97.287 7.36725 97.2922 8.34128C97.8722 8.34055 98.4521 8.34128 99.0327 8.33982C99.0321 8.94293 99.0308 9.54604 99.0347 10.1492C98.4528 10.155 97.8715 10.1499 97.2903 10.1521C97.2903 11.7329 97.2916 13.3144 97.2896 14.8952C97.2877 15.2369 97.2805 15.6319 97.5053 15.8977C97.7431 16.0868 98.0507 16.0919 98.3316 16.1C98.7441 16.0678 99.1572 16.0539 99.571 16.0262C99.571 16.722 99.5723 17.4172 99.5703 18.113C98.7701 18.1962 97.9654 18.2101 97.1625 18.194C96.552 18.1561 95.8951 18.0422 95.4207 17.5727C95.0272 17.1755 94.8753 16.5694 94.8753 15.9919C94.8747 14.0453 94.8747 12.0987 94.8753 10.1521C94.3925 10.1513 93.9096 10.1528 93.4268 10.1521C93.43 9.5475 93.4255 8.94366 93.4294 8.33982C93.9103 8.34274 94.3918 8.33982 94.8727 8.34055C94.8779 7.36652 94.8727 6.39249 94.8753 5.41846Z" fill="#565F77"/>
<path d="M56.2056 8.15725C57.1492 8.00757 58.1423 8.06525 59.0311 8.47633C59.9265 8.86989 60.6843 9.64166 61.1111 10.6077C61.6077 11.7117 61.7139 12.9953 61.5679 14.2081C61.4167 15.4428 60.8726 16.649 59.9655 17.3952C59.0187 18.1882 57.7898 18.4459 56.6305 18.3386C55.5266 18.2597 54.4221 17.7428 53.6878 16.7987C53.025 15.9553 52.6784 14.8426 52.6204 13.7298C52.535 12.4221 52.767 11.0421 53.4682 9.96804C54.1113 8.97868 55.1324 8.34125 56.2056 8.15725ZM56.5249 10.1951C55.8512 10.3974 55.3546 11.0699 55.1774 11.8073C54.9754 12.6492 54.9604 13.5458 55.1187 14.3986C55.2347 15.0113 55.5025 15.6239 55.9756 15.9846C56.4207 16.3423 57.0032 16.3913 57.5291 16.3029C58.1299 16.2043 58.6564 15.7319 58.8995 15.112C59.2259 14.3096 59.2644 13.3939 59.1797 12.5287C59.1145 11.8292 58.9034 11.102 58.4134 10.6318C57.9123 10.1148 57.1661 10.025 56.5249 10.1951Z" fill="#565F77"/>
<path d="M65.0356 10.1704C65.4917 8.9065 66.6842 8.03251 67.9015 8.08581C67.9008 8.92695 67.9034 9.76882 67.9002 10.61C67.3085 10.553 66.6725 10.6005 66.1636 10.9765C65.6573 11.3175 65.3621 11.944 65.2441 12.5763C65.1118 13.2166 65.1535 13.8767 65.1477 14.528C65.1483 15.7218 65.1464 16.9149 65.1483 18.1087C64.3442 18.1116 63.5401 18.1109 62.736 18.1087C62.7367 14.8522 62.7367 11.5957 62.7354 8.33917C63.5017 8.34209 64.2673 8.34282 65.0336 8.33917C65.0369 8.94958 65.0336 9.56 65.0356 10.1704Z" fill="#565F77"/>
<path d="M71.2965 10.1821C71.7514 8.91817 72.938 8.03979 74.1559 8.0836C74.1591 8.92547 74.1565 9.76735 74.1572 10.6092C73.5362 10.5501 72.8598 10.6099 72.3443 11.0415C71.8002 11.465 71.5337 12.2039 71.4581 12.9194C71.3643 13.8168 71.4164 14.7222 71.4034 15.6232C71.4034 16.4512 71.4021 17.2799 71.4041 18.1087C70.6045 18.1116 69.8049 18.1109 69.0061 18.1087C69.0047 14.8529 69.0028 11.5971 69.0067 8.34062C69.7678 8.33989 70.5283 8.34281 71.2894 8.33989C71.2952 8.95395 71.2822 9.56801 71.2965 10.1821Z" fill="#565F77"/>
<path d="M76.2455 9.06501C77.0405 8.38889 78.0459 8.04352 79.0429 8.0866C80.2041 8.05666 81.3673 8.62838 82.1114 9.63308C82.9768 10.8072 83.3059 12.3989 83.1918 13.8957C81.0995 13.8884 79.0077 13.8848 76.916 13.8972C76.9636 14.5339 77.0613 15.2224 77.4666 15.7073C77.9182 16.2403 78.6161 16.3768 79.2456 16.3337C79.948 16.2812 80.6616 15.8248 80.9411 15.0779C81.6449 15.0771 82.3486 15.0793 83.0524 15.0771C82.8406 15.8307 82.5154 16.5608 82.0209 17.1325C81.3243 17.9109 80.3357 18.2818 79.3687 18.3453C78.3398 18.4286 77.2659 18.2139 76.3901 17.5809C75.6036 17.0106 75.04 16.1023 74.7604 15.1078C74.4972 14.1739 74.4515 13.1685 74.5903 12.2032C74.7734 10.9788 75.3449 9.80686 76.2455 9.06501ZM77.378 10.8393C77.0809 11.2044 76.9786 11.698 76.9147 12.1726C78.2075 12.177 79.501 12.1828 80.7938 12.1704C80.6576 11.4483 80.4055 10.6224 79.7584 10.2961C78.9693 9.94924 77.9436 10.0785 77.378 10.8393Z" fill="#565F77"/>
<path d="M87.9744 8.40933C88.6592 8.05667 89.4373 8.026 90.173 8.14502C90.8135 8.2487 91.456 8.56194 91.8672 9.13949C92.2634 9.68565 92.4217 10.3932 92.4895 11.0795C92.5592 11.6673 92.526 12.2609 92.5338 12.8523C92.5332 14.6047 92.5345 16.3564 92.5332 18.1088C91.733 18.1102 90.9334 18.1131 90.1332 18.1073C90.1358 16.233 90.1365 14.3594 90.1339 12.4858C90.1104 11.8652 90.0661 11.189 89.7129 10.6801C89.3689 10.2216 88.7817 10.1778 88.2872 10.2347C87.7847 10.28 87.2882 10.5903 87.0673 11.1124C86.7676 11.8097 86.7623 12.6056 86.7643 13.3635C86.7636 14.9457 86.7643 16.5272 86.7636 18.1095C85.9602 18.111 85.1567 18.111 84.3533 18.1095C84.3539 14.8523 84.352 11.5957 84.3539 8.33851C85.1189 8.34289 85.8839 8.34289 86.6496 8.33924C86.6548 8.80508 86.645 9.27165 86.6555 9.73749C86.9702 9.16578 87.4127 8.66708 87.9744 8.40933Z" fill="#565F77"/>
<path d="M36.4417 8.34204C37.2452 8.33912 38.048 8.34277 38.8515 8.34058C38.8547 11.5964 38.8515 14.8529 38.8534 18.1086C38.0493 18.1116 37.2445 18.1108 36.4404 18.1094C36.4424 14.8536 36.4391 11.5978 36.4417 8.34204Z" fill="#565F77"/>
<path d="M99.4725 8.37939C99.9658 8.38159 100.46 8.38012 100.954 8.38012C100.952 8.51958 100.952 8.65905 100.953 8.79851C100.774 8.79924 100.597 8.79924 100.421 8.79632C100.416 9.23587 100.42 9.67543 100.417 10.115C100.279 10.1143 100.144 10.1135 100.009 10.1135C100.008 9.6747 100.013 9.23587 100.008 8.79778C99.8276 8.79924 99.6484 8.79997 99.4699 8.79851C99.4692 8.65905 99.4706 8.51885 99.4725 8.37939Z" fill="#565F77"/>
<path d="M101.165 8.37939C101.357 8.37939 101.55 8.38012 101.744 8.37866C101.887 8.75396 102.019 9.13438 102.159 9.51114C102.302 9.13584 102.433 8.75469 102.578 8.37939C102.77 8.38012 102.961 8.38012 103.155 8.37866C103.156 8.95695 103.154 9.53523 103.155 10.1135C103.022 10.1128 102.89 10.1128 102.76 10.1128C102.758 9.76742 102.758 9.42206 102.76 9.07669C102.629 9.41841 102.505 9.76304 102.382 10.1077C102.236 10.1135 102.09 10.115 101.946 10.1128C101.814 9.76012 101.69 9.40307 101.552 9.05333C101.557 9.406 101.558 9.75939 101.554 10.1121C101.423 10.1128 101.294 10.1142 101.166 10.115C101.164 9.53669 101.166 8.95768 101.165 8.37939Z" fill="#565F77"/>
</g>
<defs>
<clipPath id="clip0_207_477">
<rect width="104" height="23" fill="white"/>
</clipPath>
</defs>
</svg>
