<svg width="114" height="21" viewBox="0 0 114 21" fill="none" xmlns="http://www.w3.org/2000/svg">
<g opacity="0.3">
<g clip-path="url(#clip0_3081_461)">
<path d="M10.5006 0.0441895L7.91005 2.68926L14.4333 9.19302L17.0239 6.61019L10.5006 0.0441895Z" fill="#565F77" stroke="#565F77"/>
<path d="M6.56794 3.96509L3.97735 6.61016L14.4333 17.0349L17.0239 14.452L6.56794 3.96509Z" fill="#565F77" stroke="#565F77"/>
<path d="M18.366 7.88599L15.7754 10.5311L18.366 13.1139L20.9565 10.5311L18.366 7.88599Z" fill="#565F77" stroke="#565F77"/>
<path d="M2.63532 7.88599L0.0447282 10.5311L10.5007 20.9558L13.0913 18.3729L2.63532 7.88599Z" fill="#565F77" stroke="#565F77"/>
</g>
<path d="M26.7706 17V6.81818H31.0163C31.7786 6.81818 32.4167 6.9259 32.9304 7.14133C33.4474 7.35677 33.8352 7.65838 34.0938 8.04616C34.3556 8.43395 34.4865 8.88305 34.4865 9.39347C34.4865 9.78125 34.4053 10.1276 34.2429 10.4325C34.0805 10.7341 33.8568 10.9844 33.5717 11.1832C33.2867 11.3821 32.9569 11.5213 32.5824 11.6009V11.7003C32.9934 11.7202 33.3729 11.8312 33.7209 12.0334C34.0722 12.2356 34.3539 12.5173 34.5661 12.8786C34.7782 13.2365 34.8842 13.6607 34.8842 14.1513C34.8842 14.6982 34.745 15.187 34.4666 15.6179C34.1882 16.0455 33.7855 16.3835 33.2585 16.6321C32.7315 16.8774 32.0919 17 31.3395 17H26.7706ZM29.2315 15.0163H30.7528C31.2865 15.0163 31.6792 14.9152 31.9311 14.7131C32.1863 14.5109 32.3139 14.2292 32.3139 13.8679C32.3139 13.6061 32.2526 13.3807 32.13 13.1918C32.0073 12.9995 31.8333 12.852 31.608 12.7493C31.3826 12.6432 31.1125 12.5902 30.7976 12.5902H29.2315V15.0163ZM29.2315 11.0043H30.5938C30.8622 11.0043 31.1009 10.9595 31.3097 10.87C31.5185 10.7805 31.6809 10.6513 31.7969 10.4822C31.9162 10.3132 31.9759 10.1094 31.9759 9.87074C31.9759 9.52936 31.8549 9.26089 31.6129 9.06534C31.371 8.86979 31.0445 8.77202 30.6335 8.77202H29.2315V11.0043ZM42.2273 6.81818H44.6832V13.3857C44.6832 14.1446 44.5026 14.8059 44.1413 15.3693C43.7801 15.9295 43.2763 16.3636 42.63 16.6719C41.9837 16.9768 41.233 17.1293 40.3778 17.1293C39.5128 17.1293 38.7571 16.9768 38.1108 16.6719C37.4645 16.3636 36.9624 15.9295 36.6044 15.3693C36.2464 14.8059 36.0675 14.1446 36.0675 13.3857V6.81818H38.5284V13.1719C38.5284 13.5232 38.6046 13.8364 38.7571 14.1115C38.9129 14.3866 39.13 14.602 39.4084 14.7578C39.6868 14.9136 40.0099 14.9915 40.3778 14.9915C40.7457 14.9915 41.0672 14.9136 41.3423 14.7578C41.6207 14.602 41.8378 14.3866 41.9936 14.1115C42.1494 13.8364 42.2273 13.5232 42.2273 13.1719V6.81818ZM51.7292 9.87074C51.6961 9.50615 51.5486 9.22277 51.2868 9.0206C51.0282 8.8151 50.6587 8.71236 50.1781 8.71236C49.8599 8.71236 49.5948 8.75379 49.3826 8.83665C49.1705 8.91951 49.0114 9.03385 48.9054 9.17969C48.7993 9.32221 48.7446 9.48627 48.7413 9.67188C48.7347 9.82434 48.7645 9.95857 48.8308 10.0746C48.9004 10.1906 48.9998 10.2933 49.1291 10.3828C49.2617 10.469 49.4208 10.5452 49.6064 10.6115C49.792 10.6778 50.0008 10.7358 50.2328 10.7855L51.1078 10.9844C51.6116 11.0938 52.0557 11.2396 52.4402 11.4219C52.8279 11.6042 53.1528 11.8213 53.4146 12.0732C53.6797 12.325 53.8803 12.6151 54.0162 12.9432C54.152 13.2713 54.2217 13.6392 54.225 14.0469C54.2217 14.6899 54.0592 15.2417 53.7377 15.7024C53.4163 16.1631 52.9539 16.5161 52.3507 16.7614C51.7508 17.0066 51.0266 17.1293 50.1781 17.1293C49.3263 17.1293 48.5839 17.0017 47.9508 16.7464C47.3178 16.4912 46.8256 16.1035 46.4743 15.5831C46.1229 15.0627 45.9423 14.4048 45.9324 13.6094H48.2889C48.3088 13.9375 48.3966 14.2109 48.5524 14.4297C48.7082 14.6484 48.9219 14.8142 49.1937 14.9268C49.4688 15.0395 49.787 15.0959 50.1483 15.0959C50.4797 15.0959 50.7614 15.0511 50.9934 14.9616C51.2288 14.8722 51.4094 14.7479 51.5353 14.5888C51.6613 14.4297 51.7259 14.2474 51.7292 14.0419C51.7259 13.8497 51.6663 13.6856 51.5502 13.5497C51.4342 13.4105 51.2553 13.2912 51.0133 13.1918C50.7747 13.089 50.4698 12.9946 50.0985 12.9084L49.0346 12.6598C48.153 12.4576 47.4586 12.1312 46.9515 11.6804C46.4444 11.2263 46.1925 10.6132 46.1958 9.84091C46.1925 9.21117 46.3616 8.65933 46.7029 8.18537C47.0443 7.71141 47.5166 7.34186 48.1199 7.0767C48.7231 6.81155 49.4108 6.67898 50.1831 6.67898C50.9719 6.67898 51.6563 6.81321 52.2363 7.08168C52.8197 7.34683 53.2721 7.7197 53.5936 8.20028C53.9151 8.68087 54.0791 9.23769 54.0858 9.87074H51.7292ZM59.2314 17H55.4679V6.81818H59.2264C60.2638 6.81818 61.157 7.02202 61.9061 7.42969C62.6584 7.83404 63.2385 8.41738 63.6461 9.17969C64.0538 9.93868 64.2576 10.8468 64.2576 11.9041C64.2576 12.9647 64.0538 13.8762 63.6461 14.6385C63.2418 15.4008 62.6634 15.9858 61.911 16.3935C61.1587 16.7978 60.2654 17 59.2314 17ZM57.9288 14.902H59.1369C59.707 14.902 60.1892 14.8059 60.5836 14.6136C60.9814 14.4181 61.2813 14.1016 61.4835 13.6641C61.689 13.2232 61.7917 12.6366 61.7917 11.9041C61.7917 11.1716 61.689 10.5883 61.4835 10.1541C61.278 9.71662 60.9747 9.40175 60.5737 9.20952C60.176 9.01397 59.6854 8.91619 59.1021 8.91619H57.9288V14.902ZM68.7022 17V6.81818H72.948C73.7103 6.81818 74.3483 6.9259 74.862 7.14133C75.3791 7.35677 75.7669 7.65838 76.0254 8.04616C76.2872 8.43395 76.4181 8.88305 76.4181 9.39347C76.4181 9.78125 76.3369 10.1276 76.1745 10.4325C76.0121 10.7341 75.7884 10.9844 75.5034 11.1832C75.2183 11.3821 74.8886 11.5213 74.514 11.6009V11.7003C74.925 11.7202 75.3045 11.8312 75.6525 12.0334C76.0038 12.2356 76.2856 12.5173 76.4977 12.8786C76.7098 13.2365 76.8159 13.6607 76.8159 14.1513C76.8159 14.6982 76.6767 15.187 76.3983 15.6179C76.1199 16.0455 75.7172 16.3835 75.1902 16.6321C74.6632 16.8774 74.0235 17 73.2711 17H68.7022ZM71.1632 15.0163H72.6845C73.2181 15.0163 73.6109 14.9152 73.8627 14.7131C74.118 14.5109 74.2456 14.2292 74.2456 13.8679C74.2456 13.6061 74.1842 13.3807 74.0616 13.1918C73.939 12.9995 73.765 12.852 73.5396 12.7493C73.3142 12.6432 73.0441 12.5902 72.7292 12.5902H71.1632V15.0163ZM71.1632 11.0043H72.5254C72.7939 11.0043 73.0325 10.9595 73.2413 10.87C73.4501 10.7805 73.6125 10.6513 73.7285 10.4822C73.8478 10.3132 73.9075 10.1094 73.9075 9.87074C73.9075 9.52936 73.7865 9.26089 73.5446 9.06534C73.3026 8.86979 72.9761 8.77202 72.5652 8.77202H71.1632V11.0043ZM77.9991 17V6.81818H85.0985V8.81676H80.46V10.9048H84.7356V12.9084H80.46V15.0014H85.0985V17H77.9991ZM86.6397 17V6.81818H90.8457C91.608 6.81818 92.2659 6.96733 92.8194 7.26562C93.3762 7.56061 93.8055 7.97325 94.1071 8.50355C94.4087 9.03054 94.5595 9.6437 94.5595 10.343C94.5595 11.0457 94.4054 11.6605 94.0971 12.1875C93.7922 12.7112 93.3564 13.1172 92.7896 13.4055C92.2228 13.6939 91.55 13.8381 90.7711 13.8381H88.176V11.8991H90.3137C90.685 11.8991 90.9949 11.8345 91.2434 11.7053C91.4953 11.576 91.6859 11.3954 91.8152 11.1634C91.9444 10.928 92.0091 10.6546 92.0091 10.343C92.0091 10.0282 91.9444 9.75639 91.8152 9.5277C91.6859 9.29569 91.4953 9.11671 91.2434 8.99077C90.9915 8.86482 90.6816 8.80185 90.3137 8.80185H89.1007V17H86.6397ZM95.7527 17V15.2301L99.4664 11.9787C99.7449 11.7268 99.9818 11.4964 100.177 11.2876C100.373 11.0755 100.522 10.8634 100.625 10.6513C100.728 10.4358 100.779 10.2022 100.779 9.95028C100.779 9.66856 100.718 9.42827 100.595 9.2294C100.472 9.02723 100.303 8.87145 100.088 8.76207C99.8725 8.6527 99.6255 8.59801 99.3471 8.59801C99.0654 8.59801 98.8185 8.65601 98.6064 8.77202C98.3942 8.88471 98.2285 9.04877 98.1092 9.2642C97.9932 9.47964 97.9352 9.74148 97.9352 10.0497H95.6035C95.6035 9.35701 95.7593 8.75876 96.0708 8.25497C96.3824 7.75118 96.8199 7.3634 97.3833 7.09162C97.9501 6.81652 98.608 6.67898 99.3571 6.67898C100.129 6.67898 100.8 6.80824 101.371 7.06676C101.941 7.32528 102.381 7.68655 102.693 8.15057C103.008 8.61127 103.165 9.14654 103.165 9.75639C103.165 10.1442 103.087 10.5286 102.932 10.9098C102.776 11.291 102.496 11.7119 102.091 12.1726C101.69 12.6333 101.12 13.1851 100.381 13.8281L99.1632 14.9517V15.0163H103.29V17H95.7527ZM108.891 17.2486C108.003 17.2486 107.237 17.0381 106.594 16.6172C105.951 16.1929 105.456 15.5848 105.108 14.7926C104.76 13.9972 104.588 13.041 104.591 11.924C104.594 10.8071 104.768 9.85914 105.113 9.08026C105.461 8.29806 105.955 7.70312 106.594 7.29545C107.237 6.88447 108.003 6.67898 108.891 6.67898C109.78 6.67898 110.545 6.88447 111.188 7.29545C111.835 7.70312 112.332 8.29806 112.68 9.08026C113.028 9.86245 113.2 10.8104 113.197 11.924C113.197 13.0443 113.023 14.0021 112.675 14.7976C112.327 15.593 111.831 16.2012 111.188 16.6222C110.549 17.0398 109.783 17.2486 108.891 17.2486ZM108.891 15.2351C109.422 15.2351 109.851 14.965 110.179 14.4247C110.507 13.8812 110.67 13.0476 110.666 11.924C110.666 11.1882 110.592 10.5817 110.442 10.1044C110.293 9.62382 110.086 9.26586 109.821 9.03054C109.556 8.79522 109.246 8.67756 108.891 8.67756C108.364 8.67756 107.938 8.94437 107.614 9.47798C107.289 10.0083 107.125 10.8236 107.121 11.924C107.118 12.6697 107.189 13.2879 107.335 13.7784C107.484 14.2689 107.693 14.6352 107.962 14.8771C108.23 15.1158 108.54 15.2351 108.891 15.2351Z" fill="#565F77"/>
</g>
<defs>
<clipPath id="clip0_3081_461">
<rect width="21" height="21" fill="white" transform="matrix(-1 0 0 1 21 0)"/>
</clipPath>
</defs>
</svg>
