<svg width="31" height="31" viewBox="0 0 31 31" fill="none" xmlns="http://www.w3.org/2000/svg">
<path fill-rule="evenodd" clip-rule="evenodd" d="M31.0001 8.85363V11.5112C30.9983 12.9782 29.8097 14.167 28.3429 14.1688H15.5001V27.4566H17.2715V18.598C17.2715 18.1088 17.668 17.7122 18.1572 17.7122C18.6464 17.7122 19.0429 18.1088 19.0429 18.598V27.4566H24.8001C26.2668 27.4549 27.4555 26.266 27.4572 24.799V15.9405C27.4572 15.4512 27.8537 15.0546 28.3429 15.0546C28.8321 15.0546 29.2286 15.4512 29.2286 15.9405V24.799C29.2259 27.2441 27.2448 29.2256 24.8001 29.2283H9.74291C9.25375 29.2283 10.4381 27.4566 10.9273 27.4566H13.7286V14.1688H5.31434V17.7122C5.31434 18.2014 4.91779 18.598 4.42863 18.598C3.93946 18.598 3.54291 18.2014 3.54291 17.7122V14.0137C2.48231 13.6387 1.77277 12.6363 1.77148 11.5112V8.85363C1.77319 7.3866 2.96184 6.19777 4.42863 6.19606H9.97408C8.79139 4.42457 9.21131 2.03597 10.9273 0.774231C12.6432 -0.48751 15.048 -0.175903 16.3858 1.48154C17.7236 -0.175903 20.1283 -0.48751 21.8443 0.774231C23.5602 2.03597 23.9802 4.42457 22.7975 6.19606H28.3429C29.8097 6.19777 30.9983 7.3866 31.0001 8.85363ZM29.2285 11.5112V8.85362C29.2285 8.36438 28.832 7.96777 28.3428 7.96777H19.0428V12.397H28.3428C28.832 12.397 29.2285 12.0004 29.2285 11.5112ZM19.4858 1.76678C20.7087 1.76678 21.7001 2.75831 21.7001 3.98142C21.7001 5.20453 20.7087 6.19606 19.4858 6.19606C18.2628 6.19606 17.2715 5.20453 17.2715 3.98142C17.2729 2.75892 18.2635 1.76825 19.4858 1.76678ZM13.2859 1.76678C12.063 1.76678 11.0716 2.75831 11.0716 3.98142C11.0731 5.20392 12.0636 6.19459 13.2859 6.19606C14.5088 6.19606 15.5002 5.20453 15.5002 3.98142C15.5002 2.75831 14.5088 1.76678 13.2859 1.76678ZM4.42853 12.397C3.93937 12.397 3.54282 12.0004 3.54282 11.5112V8.85362C3.54282 8.36438 3.93937 7.96777 4.42853 7.96777H13.7285V12.397H4.42853ZM17.2716 7.96777H15.5001V12.397H17.2716V7.96777Z" fill="#594B3E"/>
<ellipse cx="18.1572" cy="15.9405" rx="0.885714" ry="0.885855" fill="#594B3E"/>
<path fill-rule="evenodd" clip-rule="evenodd" d="M19.4858 1.76685C20.7087 1.76685 21.7001 2.75837 21.7001 3.98148C21.7001 5.20459 20.7087 6.19612 19.4858 6.19612C18.2629 6.19612 17.2715 5.20459 17.2715 3.98148C17.2729 2.75898 18.2635 1.76831 19.4858 1.76685Z" fill="#BB926A"/>
<path fill-rule="evenodd" clip-rule="evenodd" d="M11.0713 3.98148C11.0713 2.75837 12.0627 1.76685 13.2856 1.76685C14.5085 1.76685 15.4999 2.75837 15.4999 3.98148C15.4999 5.20459 14.5085 6.19612 13.2856 6.19612C12.0633 6.19466 11.0728 5.20399 11.0713 3.98148Z" fill="#BB926A"/>
<path fill-rule="evenodd" clip-rule="evenodd" d="M11.5143 25.2419C11.5143 28.422 8.93672 31 5.75714 31C2.57908 30.9963 0.00366067 28.4205 0 25.2419C0 22.0619 2.57756 19.4839 5.75714 19.4839C8.93672 19.4839 11.5143 22.0619 11.5143 25.2419ZM9.74277 25.2419C9.74277 23.0403 7.9583 21.2556 5.75705 21.2556C3.55682 21.258 1.77378 23.0414 1.77134 25.2419C1.77134 27.4435 3.5558 29.2283 5.75705 29.2283C7.9583 29.2283 9.74277 27.4435 9.74277 25.2419Z" fill="#594B3E"/>
<path fill-rule="evenodd" clip-rule="evenodd" d="M5.7572 21.2556C7.95845 21.2556 9.74291 23.0404 9.74291 25.242C9.74291 27.4436 7.95845 29.2283 5.7572 29.2283C3.55595 29.2283 1.77148 27.4436 1.77148 25.242C1.77393 23.0414 3.55696 21.2581 5.7572 21.2556Z" fill="#ECC65A"/>
<path d="M5.31423 27.4565C5.54918 27.4568 5.77456 27.3634 5.94043 27.1969L8.59757 24.5394C8.93323 24.1918 8.92843 23.6393 8.58678 23.2975C8.24513 22.9558 7.69271 22.951 7.34517 23.2868L5.31423 25.3176L4.169 24.1722C3.82146 23.8365 3.26904 23.8413 2.92739 24.183C2.58574 24.5247 2.58094 25.0772 2.9166 25.4248L4.68803 27.1965C4.85383 27.3631 5.07921 27.4566 5.31423 27.4565Z" fill="#594B3E"/>
</svg>
