<svg width="39" height="39" viewBox="0 0 39 39" fill="none" xmlns="http://www.w3.org/2000/svg">
<circle cx="19.5" cy="19.5" r="15.5" fill="#26B961"/>
<path d="M25.7074 15.1771C25.6231 15.092 25.5228 15.0245 25.4122 14.9785C25.3016 14.9324 25.1831 14.9087 25.0633 14.9087C24.9435 14.9087 24.8249 14.9324 24.7144 14.9785C24.6038 15.0245 24.5035 15.092 24.4191 15.1771L17.66 21.9452L14.8203 19.0964C14.7328 19.0118 14.6294 18.9453 14.5161 18.9007C14.4028 18.856 14.2819 18.8341 14.1601 18.8362C14.0384 18.8384 13.9183 18.8644 13.8066 18.9129C13.6949 18.9615 13.5939 19.0315 13.5093 19.1191C13.4247 19.2067 13.3582 19.31 13.3136 19.4233C13.2689 19.5366 13.2471 19.6576 13.2492 19.7793C13.2513 19.901 13.2773 20.0212 13.3259 20.1328C13.3744 20.2445 13.4444 20.3455 13.532 20.4301L17.0159 23.914C17.1002 23.999 17.2006 24.0665 17.3111 24.1126C17.4217 24.1586 17.5403 24.1823 17.66 24.1823C17.7798 24.1823 17.8984 24.1586 18.009 24.1126C18.1195 24.0665 18.2199 23.999 18.3042 23.914L25.7074 16.5107C25.7995 16.4258 25.873 16.3227 25.9233 16.2079C25.9736 16.0931 25.9995 15.9692 25.9995 15.8439C25.9995 15.7186 25.9736 15.5947 25.9233 15.4799C25.873 15.3651 25.7995 15.262 25.7074 15.1771Z" fill="white"/>
<circle cx="19.5" cy="19.5" r="19" stroke="#26B961"/>
</svg>
