<svg width="98" height="120" viewBox="0 0 98 120" fill="none" xmlns="http://www.w3.org/2000/svg">
<g filter="url(#filter0_d_3428_26118)">
<path d="M75.755 14.1672V83.5117C75.755 85.2482 74.326 86.6782 72.5909 86.6782H25.1645C23.4294 86.6782 22.0004 85.2482 22.0004 83.5117V14.1672C22.0004 12.4307 23.4294 11.0007 25.1645 11.0007H72.5909C74.326 11.0007 75.755 12.4307 75.755 14.1672Z" fill="url(#paint0_linear_3428_26118)"/>
</g>
<path d="M75.7547 14.1665V16.4647H22V14.1665C22 12.43 23.429 11 25.1642 11H72.5905C74.3257 11 75.7547 12.43 75.7547 14.1665Z" fill="url(#paint1_linear_3428_26118)"/>
<path d="M25.1066 14.7278C25.6422 14.7278 26.0763 14.2933 26.0763 13.7574C26.0763 13.2215 25.6422 12.787 25.1066 12.787C24.5711 12.787 24.137 13.2215 24.137 13.7574C24.137 14.2933 24.5711 14.7278 25.1066 14.7278Z" fill="#EAEEF9"/>
<path opacity="0.6" d="M28.1176 14.7278C28.6532 14.7278 29.0873 14.2933 29.0873 13.7574C29.0873 13.2215 28.6532 12.787 28.1176 12.787C27.5821 12.787 27.1479 13.2215 27.1479 13.7574C27.1479 14.2933 27.5821 14.7278 28.1176 14.7278Z" fill="#EAEEF9"/>
<path opacity="0.4" d="M31.1798 14.7278C31.7153 14.7278 32.1494 14.2933 32.1494 13.7574C32.1494 13.2215 31.7153 12.787 31.1798 12.787C30.6442 12.787 30.2101 13.2215 30.2101 13.7574C30.2101 14.2933 30.6442 14.7278 31.1798 14.7278Z" fill="#EAEEF9"/>
<rect opacity="0.6" x="28.7604" y="21.4086" width="13.186" height="2.51163" rx="1.25581" fill="#C2C8D6"/>
<rect opacity="0.6" x="28.7604" y="37.7352" width="13.186" height="2.51163" rx="1.25581" fill="#C2C8D6"/>
<rect opacity="0.6" x="28.7604" y="54.0605" width="13.186" height="2.51163" rx="1.25581" fill="#C2C8D6"/>
<rect x="28.7604" y="26.699" width="40.814" height="6.27907" rx="2" fill="white" stroke="#989FB0" stroke-width="1.5"/>
<rect x="31.8998" y="29.2112" width="13.186" height="1.25581" rx="0.627907" fill="#989FB0"/>
<rect opacity="0.6" x="28.7604" y="43.3862" width="40.814" height="6.27907" rx="2" fill="#C2C8D6"/>
<rect opacity="0.6" x="28.7604" y="59.7115" width="40.814" height="6.27907" rx="2" fill="#C2C8D6"/>
<rect opacity="0.6" x="39.4347" y="70.6528" width="19.4651" height="6.27907" rx="2" fill="#C2C8D6"/>
<rect opacity="0.6" x="43.8302" y="73.1638" width="10.6744" height="1.25581" rx="0.627907" fill="#989FB0"/>
<path d="M75.2733 36.1224C75.173 36.2726 75.1229 36.3727 74.9223 36.4728L72.6157 37.4238C72.2647 37.574 71.9137 37.7742 71.663 38.0245C71.4123 38.2747 71.2117 38.525 71.1616 38.8754L70.2089 41.1778C70.1086 41.5282 69.7075 41.6784 69.4567 41.5282C69.3565 41.4281 69.206 41.3781 69.206 41.2779L64.7433 31.4675C64.643 31.3173 64.643 31.1171 64.7433 31.017C64.8436 30.8668 65.0943 30.7667 65.345 30.8668L75.173 35.3216C75.2733 35.5218 75.3736 35.8722 75.2733 36.1224Z" fill="#989FB0"/>
<path d="M76.978 42.1288C76.8777 42.1288 76.8275 42.1288 76.7272 42.0287L73.5181 38.7753C73.3677 38.6251 73.3677 38.3248 73.5181 38.2747C73.6685 38.1246 73.9694 38.1246 74.0195 38.2747L77.2287 41.4781C77.3791 41.6283 77.3791 41.9286 77.2287 41.9787C77.2287 42.1288 77.0782 42.1288 76.978 42.1288Z" fill="#989FB0"/>
<path d="M73.7188 42.1292C73.6185 42.1292 73.5684 42.1292 73.4681 42.0291L72.0139 40.5775C71.8635 40.4273 71.8635 40.127 72.0139 40.077C72.1644 39.9268 72.4652 39.9268 72.5154 40.077L73.9695 41.5285C74.12 41.6787 74.12 41.979 73.9695 42.0291C73.9695 42.1292 73.9194 42.1292 73.7188 42.1292Z" fill="#989FB0"/>
<defs>
<filter id="filter0_d_3428_26118" x="0.000366211" y="0.000732422" width="97.7546" height="119.677" filterUnits="userSpaceOnUse" color-interpolation-filters="sRGB">
<feFlood flood-opacity="0" result="BackgroundImageFix"/>
<feColorMatrix in="SourceAlpha" type="matrix" values="0 0 0 0 0 0 0 0 0 0 0 0 0 0 0 0 0 0 127 0" result="hardAlpha"/>
<feOffset dy="11"/>
<feGaussianBlur stdDeviation="11"/>
<feColorMatrix type="matrix" values="0 0 0 0 0.397708 0 0 0 0 0.47749 0 0 0 0 0.575 0 0 0 0.27 0"/>
<feBlend mode="normal" in2="BackgroundImageFix" result="effect1_dropShadow_3428_26118"/>
<feBlend mode="normal" in="SourceGraphic" in2="effect1_dropShadow_3428_26118" result="shape"/>
</filter>
<linearGradient id="paint0_linear_3428_26118" x1="48.8602" y1="9.25024" x2="48.8602" y2="87.494" gradientUnits="userSpaceOnUse">
<stop stop-color="#FDFEFF"/>
<stop offset="0.9964" stop-color="#ECF0F5"/>
</linearGradient>
<linearGradient id="paint1_linear_3428_26118" x1="73.6224" y1="11" x2="23.6971" y2="12.7098" gradientUnits="userSpaceOnUse">
<stop stop-color="#B0BACC"/>
<stop offset="1" stop-color="#969EAE"/>
</linearGradient>
</defs>
</svg>
