<svg width="131" height="111" viewBox="0 0 131 111" fill="none" xmlns="http://www.w3.org/2000/svg">
<g filter="url(#filter0_d_3428_26142)">
<path d="M22 33.0331C22 28.6149 25.5817 25.0331 30 25.0331H73.6373C78.0555 25.0331 81.6373 28.6149 81.6373 33.0331V61.556C81.6373 65.9742 78.0555 69.556 73.6373 69.556H36.1469C34.1303 69.556 32.1882 70.3175 30.7091 71.6882L25.3594 76.6458C24.0793 77.8322 22 76.9243 22 75.1789V33.0331Z" fill="url(#paint0_linear_3428_26142)"/>
</g>
<g filter="url(#filter1_d_3428_26142)">
<path d="M109 19C109 14.5817 105.419 11 101 11H57.3631C52.9448 11 49.3631 14.5817 49.3631 19V47.5228C49.3631 51.9411 52.9448 55.5228 57.3631 55.5228H94.8535C96.87 55.5228 98.8122 56.2844 100.291 57.6551L105.641 62.6127C106.921 63.7991 109 62.8911 109 61.1458V19Z" fill="url(#paint1_linear_3428_26142)"/>
</g>
<path d="M82 55.5V29.6875C82 27.0987 79.8893 25 77.2857 25H49V50.3125C49 52.9013 51.1107 55.5 53.7143 55.5H82Z" fill="#D5DDEA"/>
<path d="M59.1862 19.4199H100.581" stroke="#D5DDEA" stroke-width="2" stroke-linecap="round"/>
<path d="M70.4117 61.5176H28.3148" stroke="#D5DDEA" stroke-width="2" stroke-linecap="round"/>
<path d="M85.1449 27.8381H100.58" stroke="#D5DDEA" stroke-width="2" stroke-linecap="round"/>
<path d="M43.7505 53.096H28.315" stroke="#D5DDEA" stroke-width="2" stroke-linecap="round"/>
<path d="M85.1449 36.2579H100.58" stroke="#D5DDEA" stroke-width="2" stroke-linecap="round"/>
<path d="M43.7505 44.6778H28.315" stroke="#D5DDEA" stroke-width="2" stroke-linecap="round"/>
<path d="M85.1449 43.977H100.58" stroke="#D5DDEA" stroke-width="2" stroke-linecap="round"/>
<path d="M43.7505 36.9604H28.315" stroke="#D5DDEA" stroke-width="2" stroke-linecap="round"/>
<path d="M71.5543 39.3698L69.4573 41.4683C69.0974 41.8285 68.6701 42.1143 68.1999 42.3092C67.7296 42.5041 67.2256 42.6045 66.7166 42.6045C66.2076 42.6045 65.7036 42.5041 65.2333 42.3092C64.7631 42.1143 64.3358 41.8285 63.9759 41.4683C63.8872 41.3944 63.8148 41.3028 63.7635 41.1994C63.7121 41.0959 63.6828 40.9829 63.6776 40.8675C63.6723 40.7521 63.6912 40.6368 63.7329 40.5291C63.7746 40.4214 63.8383 40.3236 63.92 40.2419C64.0016 40.1602 64.0994 40.0964 64.207 40.0547C64.3146 40.0129 64.4298 39.994 64.5451 39.9993C64.6604 40.0046 64.7734 40.0339 64.8768 40.0853C64.9802 40.1367 65.0717 40.2091 65.1456 40.2979C65.5628 40.7111 66.1261 40.9429 66.7131 40.9429C67.3002 40.9429 67.8635 40.7111 68.2807 40.2979L70.3778 38.1993C70.7935 37.7833 71.0271 37.219 71.0271 36.6306C71.0271 36.0422 70.7935 35.4779 70.3778 35.0619C69.962 34.6458 69.3981 34.4121 68.8102 34.4121C68.2222 34.4121 67.6583 34.6458 67.2426 35.0619L66.5782 35.7337C66.4222 35.8898 66.2106 35.9775 65.9899 35.9775C65.7693 35.9775 65.5576 35.8898 65.4016 35.7337C65.2456 35.5775 65.158 35.3658 65.158 35.145C65.158 34.9242 65.2456 34.7124 65.4016 34.5563L66.073 33.8845C66.7998 33.1571 67.7857 32.7484 68.8136 32.7484C69.8416 32.7484 70.8275 33.1571 71.5543 33.8845C72.2812 34.6119 72.6896 35.5984 72.6896 36.6271C72.6896 37.6558 72.2812 38.6424 71.5543 39.3698ZM64.7787 43.7954L64.1143 44.4673C63.6986 44.8833 63.1347 45.117 62.5467 45.117C61.9588 45.117 61.3949 44.8833 60.9791 44.4673C60.5634 44.0512 60.3298 43.4869 60.3298 42.8985C60.3298 42.3102 60.5634 41.7459 60.9791 41.3298L63.0762 39.2313C63.4934 38.818 64.0568 38.5863 64.6438 38.5863C65.2308 38.5863 65.7941 38.818 66.2114 39.2313C66.3706 39.3639 66.5736 39.4322 66.7806 39.4227C66.9875 39.4133 67.1835 39.3268 67.33 39.1802C67.4764 39.0336 67.5629 38.8375 67.5723 38.6304C67.5818 38.4233 67.5135 38.2201 67.381 38.0608C67.0216 37.6998 66.5945 37.4133 66.1241 37.2179C65.6538 37.0224 65.1496 36.9218 64.6403 36.9218C64.1311 36.9218 63.6268 37.0224 63.1565 37.2179C62.6862 37.4133 62.2591 37.6998 61.8996 38.0608L59.8026 40.1593C59.0757 40.8867 58.6674 41.8733 58.6674 42.902C58.6674 43.9307 59.0757 44.9173 59.8026 45.6447C60.5295 46.3721 61.5153 46.7807 62.5433 46.7807C63.5712 46.7807 64.5571 46.3721 65.284 45.6447L65.9553 44.9728C66.1113 44.8167 66.199 44.605 66.199 44.3841C66.199 44.1633 66.1113 43.9516 65.9553 43.7954C65.7993 43.6393 65.5877 43.5516 65.367 43.5516C65.1464 43.5516 64.9348 43.6393 64.7787 43.7954Z" fill="#989FB0"/>
<defs>
<filter id="filter0_d_3428_26142" x="0" y="14.0331" width="103.637" height="96.1497" filterUnits="userSpaceOnUse" color-interpolation-filters="sRGB">
<feFlood flood-opacity="0" result="BackgroundImageFix"/>
<feColorMatrix in="SourceAlpha" type="matrix" values="0 0 0 0 0 0 0 0 0 0 0 0 0 0 0 0 0 0 127 0" result="hardAlpha"/>
<feOffset dy="11"/>
<feGaussianBlur stdDeviation="11"/>
<feColorMatrix type="matrix" values="0 0 0 0 0.397708 0 0 0 0 0.47749 0 0 0 0 0.575 0 0 0 0.27 0"/>
<feBlend mode="normal" in2="BackgroundImageFix" result="effect1_dropShadow_3428_26142"/>
<feBlend mode="normal" in="SourceGraphic" in2="effect1_dropShadow_3428_26142" result="shape"/>
</filter>
<filter id="filter1_d_3428_26142" x="27.3632" y="0" width="103.637" height="96.1497" filterUnits="userSpaceOnUse" color-interpolation-filters="sRGB">
<feFlood flood-opacity="0" result="BackgroundImageFix"/>
<feColorMatrix in="SourceAlpha" type="matrix" values="0 0 0 0 0 0 0 0 0 0 0 0 0 0 0 0 0 0 127 0" result="hardAlpha"/>
<feOffset dy="11"/>
<feGaussianBlur stdDeviation="11"/>
<feColorMatrix type="matrix" values="0 0 0 0 0.397708 0 0 0 0 0.47749 0 0 0 0 0.575 0 0 0 0.27 0"/>
<feBlend mode="normal" in2="BackgroundImageFix" result="effect1_dropShadow_3428_26142"/>
<feBlend mode="normal" in="SourceGraphic" in2="effect1_dropShadow_3428_26142" result="shape"/>
</filter>
<linearGradient id="paint0_linear_3428_26142" x1="51.7992" y1="23.7673" x2="51.7992" y2="80.3491" gradientUnits="userSpaceOnUse">
<stop stop-color="#FDFEFF"/>
<stop offset="0.9964" stop-color="#ECF0F5"/>
</linearGradient>
<linearGradient id="paint1_linear_3428_26142" x1="79.2012" y1="9.73414" x2="79.2012" y2="66.3159" gradientUnits="userSpaceOnUse">
<stop stop-color="#FDFEFF"/>
<stop offset="0.9964" stop-color="#ECF0F5"/>
</linearGradient>
</defs>
</svg>
