<svg width="30" height="30" viewBox="0 0 30 30" fill="none" xmlns="http://www.w3.org/2000/svg">
<circle cx="0.796987" cy="8.76576" r="0.796987" transform="rotate(-90 0.796987 8.76576)" fill="#C3C9D2"/>
<circle cx="0.796987" cy="20.7223" r="0.796987" transform="rotate(-90 0.796987 20.7223)" fill="#C3C9D2"/>
<circle cx="0.796987" cy="0.797007" r="0.796987" transform="rotate(-90 0.796987 0.797007)" fill="#C3C9D2"/>
<circle cx="0.796987" cy="12.7501" r="0.796987" transform="rotate(-90 0.796987 12.7501)" fill="#C3C9D2"/>
<circle cx="0.796987" cy="24.7067" r="0.796987" transform="rotate(-90 0.796987 24.7067)" fill="#C3C9D2"/>
<circle cx="0.796987" cy="4.78138" r="0.796987" transform="rotate(-90 0.796987 4.78138)" fill="#C3C9D2"/>
<circle cx="0.796987" cy="16.7379" r="0.796987" transform="rotate(-90 0.796987 16.7379)" fill="#C3C9D2"/>
<circle cx="0.796987" cy="28.691" r="0.796987" transform="rotate(-90 0.796987 28.691)" fill="#C3C9D2"/>
<circle cx="4.78136" cy="8.76576" r="0.796987" transform="rotate(-90 4.78136 8.76576)" fill="#C3C9D2"/>
<circle cx="4.78136" cy="20.7223" r="0.796987" transform="rotate(-90 4.78136 20.7223)" fill="#C3C9D2"/>
<circle cx="4.78136" cy="0.797007" r="0.796987" transform="rotate(-90 4.78136 0.797007)" fill="#C3C9D2"/>
<circle cx="4.78136" cy="12.7501" r="0.796987" transform="rotate(-90 4.78136 12.7501)" fill="#C3C9D2"/>
<circle cx="4.78136" cy="24.7067" r="0.796987" transform="rotate(-90 4.78136 24.7067)" fill="#C3C9D2"/>
<circle cx="4.78136" cy="4.78138" r="0.796987" transform="rotate(-90 4.78136 4.78138)" fill="#C3C9D2"/>
<circle cx="4.78136" cy="16.7379" r="0.796987" transform="rotate(-90 4.78136 16.7379)" fill="#C3C9D2"/>
<circle cx="4.78136" cy="28.691" r="0.796987" transform="rotate(-90 4.78136 28.691)" fill="#C3C9D2"/>
<circle cx="17.2482" cy="4.8805" r="0.796987" transform="rotate(-180 17.2482 4.8805)" fill="#C3C9D2"/>
<circle cx="29.203" cy="4.8805" r="0.796987" transform="rotate(-180 29.203 4.8805)" fill="#C3C9D2"/>
<circle cx="9.27772" cy="4.8805" r="0.796987" transform="rotate(-180 9.27772 4.8805)" fill="#C3C9D2"/>
<circle cx="21.2326" cy="4.8805" r="0.796987" transform="rotate(-180 21.2326 4.8805)" fill="#C3C9D2"/>
<circle cx="13.2638" cy="4.8805" r="0.796987" transform="rotate(-180 13.2638 4.8805)" fill="#C3C9D2"/>
<circle cx="25.2169" cy="4.8805" r="0.796987" transform="rotate(-180 25.2169 4.8805)" fill="#C3C9D2"/>
<circle cx="17.2482" cy="0.896128" r="0.796987" transform="rotate(-180 17.2482 0.896128)" fill="#C3C9D2"/>
<circle cx="29.203" cy="0.896128" r="0.796987" transform="rotate(-180 29.203 0.896128)" fill="#C3C9D2"/>
<circle cx="9.27772" cy="0.896128" r="0.796987" transform="rotate(-180 9.27772 0.896128)" fill="#C3C9D2"/>
<circle cx="21.2326" cy="0.896128" r="0.796987" transform="rotate(-180 21.2326 0.896128)" fill="#C3C9D2"/>
<circle cx="13.2638" cy="0.896128" r="0.796987" transform="rotate(-180 13.2638 0.896128)" fill="#C3C9D2"/>
<circle cx="25.2169" cy="0.896128" r="0.796987" transform="rotate(-180 25.2169 0.896128)" fill="#C3C9D2"/>
</svg>
