<svg width="30" height="30" viewBox="0 0 30 30" fill="none" xmlns="http://www.w3.org/2000/svg">
<circle cx="29.203" cy="20.9454" r="0.796987" transform="rotate(90 29.203 20.9454)" fill="#E3E5E8"/>
<circle cx="29.203" cy="8.98839" r="0.796987" transform="rotate(90 29.203 8.98839)" fill="#E3E5E8"/>
<circle cx="29.203" cy="28.9142" r="0.796987" transform="rotate(90 29.203 28.9142)" fill="#E3E5E8"/>
<circle cx="29.203" cy="16.9611" r="0.796987" transform="rotate(90 29.203 16.9611)" fill="#E3E5E8"/>
<circle cx="29.203" cy="5.00402" r="0.796987" transform="rotate(90 29.203 5.00402)" fill="#E3E5E8"/>
<circle cx="29.203" cy="24.9298" r="0.796987" transform="rotate(90 29.203 24.9298)" fill="#E3E5E8"/>
<circle cx="29.203" cy="12.9728" r="0.796987" transform="rotate(90 29.203 12.9728)" fill="#E3E5E8"/>
<circle cx="29.203" cy="1.01964" r="0.796987" transform="rotate(90 29.203 1.01964)" fill="#E3E5E8"/>
<circle cx="25.2186" cy="20.9454" r="0.796987" transform="rotate(90 25.2186 20.9454)" fill="#E3E5E8"/>
<circle cx="25.2186" cy="8.98839" r="0.796987" transform="rotate(90 25.2186 8.98839)" fill="#E3E5E8"/>
<circle cx="25.2186" cy="28.9142" r="0.796987" transform="rotate(90 25.2186 28.9142)" fill="#E3E5E8"/>
<circle cx="25.2186" cy="16.9611" r="0.796987" transform="rotate(90 25.2186 16.9611)" fill="#E3E5E8"/>
<circle cx="25.2186" cy="5.00402" r="0.796987" transform="rotate(90 25.2186 5.00402)" fill="#E3E5E8"/>
<circle cx="25.2186" cy="24.9298" r="0.796987" transform="rotate(90 25.2186 24.9298)" fill="#E3E5E8"/>
<circle cx="25.2186" cy="12.9728" r="0.796987" transform="rotate(90 25.2186 12.9728)" fill="#E3E5E8"/>
<circle cx="25.2186" cy="1.01964" r="0.796987" transform="rotate(90 25.2186 1.01964)" fill="#E3E5E8"/>
<circle cx="12.7521" cy="24.8302" r="0.796987" fill="#E3E5E8"/>
<circle cx="0.796987" cy="24.8302" r="0.796987" fill="#E3E5E8"/>
<circle cx="20.7228" cy="24.8302" r="0.796987" fill="#E3E5E8"/>
<circle cx="8.76769" cy="24.8302" r="0.796987" fill="#E3E5E8"/>
<circle cx="16.7364" cy="24.8302" r="0.796987" fill="#E3E5E8"/>
<circle cx="4.78331" cy="24.8302" r="0.796987" fill="#E3E5E8"/>
<circle cx="12.7521" cy="28.8146" r="0.796987" fill="#E3E5E8"/>
<circle cx="0.796987" cy="28.8146" r="0.796987" fill="#E3E5E8"/>
<circle cx="20.7228" cy="28.8146" r="0.796987" fill="#E3E5E8"/>
<circle cx="8.76769" cy="28.8146" r="0.796987" fill="#E3E5E8"/>
<circle cx="16.7364" cy="28.8146" r="0.796987" fill="#E3E5E8"/>
<circle cx="4.78331" cy="28.8146" r="0.796987" fill="#E3E5E8"/>
</svg>
