<svg width="17" height="17" viewBox="0 0 17 17" fill="none" xmlns="http://www.w3.org/2000/svg">
<g opacity="0.2">
<circle cx="11.7426" cy="0.451626" r="0.451626" fill="white"/>
<circle cx="4.96823" cy="0.451626" r="0.451626" fill="white"/>
<circle cx="16.2583" cy="0.451626" r="0.451626" fill="white"/>
<circle cx="9.48385" cy="0.451626" r="0.451626" fill="white"/>
<circle cx="2.70944" cy="0.451626" r="0.451626" fill="white"/>
<circle cx="13.9995" cy="0.451626" r="0.451626" fill="white"/>
<circle cx="7.22604" cy="0.451626" r="0.451626" fill="white"/>
<circle cx="0.451626" cy="0.451626" r="0.451626" fill="white"/>
<circle cx="11.7426" cy="2.70944" r="0.451626" fill="white"/>
<circle cx="4.96823" cy="2.70944" r="0.451626" fill="white"/>
<circle cx="16.2583" cy="2.70944" r="0.451626" fill="white"/>
<circle cx="9.48385" cy="2.70944" r="0.451626" fill="white"/>
<circle cx="2.70944" cy="2.70944" r="0.451626" fill="white"/>
<circle cx="13.9995" cy="2.70944" r="0.451626" fill="white"/>
<circle cx="7.22604" cy="2.70944" r="0.451626" fill="white"/>
<circle cx="0.451626" cy="2.70944" r="0.451626" fill="white"/>
<circle cx="13.9458" cy="9.77396" r="0.451626" transform="rotate(-90 13.9458 9.77396)" fill="white"/>
<circle cx="13.9458" cy="16.5484" r="0.451626" transform="rotate(-90 13.9458 16.5484)" fill="white"/>
<circle cx="13.9458" cy="5.2576" r="0.451626" transform="rotate(-90 13.9458 5.2576)" fill="white"/>
<circle cx="13.9458" cy="12.0318" r="0.451626" transform="rotate(-90 13.9458 12.0318)" fill="white"/>
<circle cx="13.9458" cy="7.51615" r="0.451626" transform="rotate(-90 13.9458 7.51615)" fill="white"/>
<circle cx="13.9458" cy="14.2896" r="0.451626" transform="rotate(-90 13.9458 14.2896)" fill="white"/>
<circle cx="16.2036" cy="9.77396" r="0.451626" transform="rotate(-90 16.2036 9.77396)" fill="white"/>
<circle cx="16.2036" cy="16.5484" r="0.451626" transform="rotate(-90 16.2036 16.5484)" fill="white"/>
<circle cx="16.2036" cy="5.2576" r="0.451626" transform="rotate(-90 16.2036 5.2576)" fill="white"/>
<circle cx="16.2036" cy="12.0318" r="0.451626" transform="rotate(-90 16.2036 12.0318)" fill="white"/>
<circle cx="16.2036" cy="7.51615" r="0.451626" transform="rotate(-90 16.2036 7.51615)" fill="white"/>
<circle cx="16.2036" cy="14.2896" r="0.451626" transform="rotate(-90 16.2036 14.2896)" fill="white"/>
</g>
</svg>
