<svg width="17" height="67" viewBox="0 0 17 67" fill="none" xmlns="http://www.w3.org/2000/svg">
<circle cx="0.451626" cy="4.96796" r="0.451626" transform="rotate(-90 0.451626 4.96796)" fill="#AFBDC7"/>
<circle cx="0.451626" cy="11.7424" r="0.451626" transform="rotate(-90 0.451626 11.7424)" fill="#AFBDC7"/>
<circle cx="0.451626" cy="0.451786" r="0.451626" transform="rotate(-90 0.451626 0.451786)" fill="#AFBDC7"/>
<circle cx="0.451626" cy="7.22602" r="0.451626" transform="rotate(-90 0.451626 7.22602)" fill="#AFBDC7"/>
<circle cx="0.451626" cy="14.0005" r="0.451626" transform="rotate(-90 0.451626 14.0005)" fill="#AFBDC7"/>
<circle cx="0.451626" cy="2.71039" r="0.451626" transform="rotate(-90 0.451626 2.71039)" fill="#AFBDC7"/>
<circle cx="0.451626" cy="9.48438" r="0.451626" transform="rotate(-90 0.451626 9.48438)" fill="#AFBDC7"/>
<circle cx="0.451626" cy="16.2586" r="0.451626" transform="rotate(-90 0.451626 16.2586)" fill="#1A85B1"/>
<circle cx="2.70944" cy="4.96796" r="0.451626" transform="rotate(-90 2.70944 4.96796)" fill="#AFBDC7"/>
<circle cx="2.70944" cy="11.7424" r="0.451626" transform="rotate(-90 2.70944 11.7424)" fill="#AFBDC7"/>
<circle cx="2.70944" cy="0.451786" r="0.451626" transform="rotate(-90 2.70944 0.451786)" fill="#AFBDC7"/>
<circle cx="2.70944" cy="7.22602" r="0.451626" transform="rotate(-90 2.70944 7.22602)" fill="#AFBDC7"/>
<circle cx="2.70944" cy="14.0005" r="0.451626" transform="rotate(-90 2.70944 14.0005)" fill="#AFBDC7"/>
<circle cx="2.70944" cy="2.71039" r="0.451626" transform="rotate(-90 2.70944 2.71039)" fill="#AFBDC7"/>
<circle cx="2.70944" cy="9.48438" r="0.451626" transform="rotate(-90 2.70944 9.48438)" fill="#AFBDC7"/>
<circle cx="2.70944" cy="16.2586" r="0.451626" transform="rotate(-90 2.70944 16.2586)" fill="#1A85B1"/>
<circle cx="9.77396" cy="2.7649" r="0.451626" transform="rotate(180 9.77396 2.7649)" fill="#AFBDC7"/>
<circle cx="16.5484" cy="2.76493" r="0.451626" transform="rotate(180 16.5484 2.76493)" fill="#AFBDC7"/>
<circle cx="5.2576" cy="2.7649" r="0.451626" transform="rotate(180 5.2576 2.7649)" fill="#AFBDC7"/>
<circle cx="12.0318" cy="2.7649" r="0.451626" transform="rotate(180 12.0318 2.7649)" fill="#AFBDC7"/>
<circle cx="7.51615" cy="2.7649" r="0.451626" transform="rotate(180 7.51615 2.7649)" fill="#AFBDC7"/>
<circle cx="14.2896" cy="2.7649" r="0.451626" transform="rotate(180 14.2896 2.7649)" fill="#AFBDC7"/>
<circle cx="9.77396" cy="0.506809" r="0.451626" transform="rotate(180 9.77396 0.506809)" fill="#AFBDC7"/>
<circle cx="16.5484" cy="0.506809" r="0.451626" transform="rotate(180 16.5484 0.506809)" fill="#AFBDC7"/>
<circle cx="5.2576" cy="0.506809" r="0.451626" transform="rotate(180 5.2576 0.506809)" fill="#AFBDC7"/>
<circle cx="12.0318" cy="0.506809" r="0.451626" transform="rotate(180 12.0318 0.506809)" fill="#AFBDC7"/>
<circle cx="7.51615" cy="0.506809" r="0.451626" transform="rotate(180 7.51615 0.506809)" fill="#AFBDC7"/>
<circle cx="14.2896" cy="0.506809" r="0.451626" transform="rotate(180 14.2896 0.506809)" fill="#AFBDC7"/>
<circle cx="0.451626" cy="0.451626" r="0.451626" transform="matrix(1.19249e-08 1 1 -1.19249e-08 0 61.2906)" fill="#AFBDC7"/>
<circle cx="0.451626" cy="0.451626" r="0.451626" transform="matrix(1.19249e-08 1 1 -1.19249e-08 0 54.5161)" fill="#AFBDC7"/>
<circle cx="0.451626" cy="0.451626" r="0.451626" transform="matrix(1.19249e-08 1 1 -1.19249e-08 0 65.8068)" fill="#AFBDC7"/>
<circle cx="0.451626" cy="0.451626" r="0.451626" transform="matrix(1.19249e-08 1 1 -1.19249e-08 0 59.0326)" fill="#AFBDC7"/>
<circle cx="0.451626" cy="0.451626" r="0.451626" transform="matrix(1.19249e-08 1 1 -1.19249e-08 0 52.2581)" fill="#AFBDC7"/>
<circle cx="0.451626" cy="0.451626" r="0.451626" transform="matrix(1.19249e-08 1 1 -1.19249e-08 0 63.5482)" fill="#AFBDC7"/>
<circle cx="0.451626" cy="0.451626" r="0.451626" transform="matrix(1.19249e-08 1 1 -1.19249e-08 0 56.7742)" fill="#AFBDC7"/>
<circle cx="0.451626" cy="0.451626" r="0.451626" transform="matrix(1.19249e-08 1 1 -1.19249e-08 0 50)" fill="#1A85B1"/>
<circle cx="0.451626" cy="0.451626" r="0.451626" transform="matrix(1.19249e-08 1 1 -1.19249e-08 2.25781 61.2906)" fill="#AFBDC7"/>
<circle cx="0.451626" cy="0.451626" r="0.451626" transform="matrix(1.19249e-08 1 1 -1.19249e-08 2.25781 54.5161)" fill="#AFBDC7"/>
<circle cx="0.451626" cy="0.451626" r="0.451626" transform="matrix(1.19249e-08 1 1 -1.19249e-08 2.25781 65.8068)" fill="#AFBDC7"/>
<circle cx="0.451626" cy="0.451626" r="0.451626" transform="matrix(1.19249e-08 1 1 -1.19249e-08 2.25781 59.0326)" fill="#AFBDC7"/>
<circle cx="0.451626" cy="0.451626" r="0.451626" transform="matrix(1.19249e-08 1 1 -1.19249e-08 2.25781 52.2581)" fill="#AFBDC7"/>
<circle cx="0.451626" cy="0.451626" r="0.451626" transform="matrix(1.19249e-08 1 1 -1.19249e-08 2.25781 63.5482)" fill="#AFBDC7"/>
<circle cx="0.451626" cy="0.451626" r="0.451626" transform="matrix(1.19249e-08 1 1 -1.19249e-08 2.25781 56.7742)" fill="#AFBDC7"/>
<circle cx="0.451626" cy="0.451626" r="0.451626" transform="matrix(1.19249e-08 1 1 -1.19249e-08 2.25781 50)" fill="#1A85B1"/>
<circle cx="0.451626" cy="0.451626" r="0.451626" transform="matrix(-1 -3.17865e-08 -3.17865e-08 1 10.2256 63.4937)" fill="#AFBDC7"/>
<circle cx="0.451626" cy="0.451626" r="0.451626" transform="matrix(-1 -3.17865e-08 -3.17865e-08 1 17 63.4937)" fill="#AFBDC7"/>
<circle cx="0.451626" cy="0.451626" r="0.451626" transform="matrix(-1 -3.17865e-08 -3.17865e-08 1 5.70923 63.4937)" fill="#AFBDC7"/>
<circle cx="0.451626" cy="0.451626" r="0.451626" transform="matrix(-1 -3.17865e-08 -3.17865e-08 1 12.4834 63.4937)" fill="#AFBDC7"/>
<circle cx="0.451626" cy="0.451626" r="0.451626" transform="matrix(-1 -3.17865e-08 -3.17865e-08 1 7.96777 63.4937)" fill="#AFBDC7"/>
<circle cx="0.451626" cy="0.451626" r="0.451626" transform="matrix(-1 -3.17865e-08 -3.17865e-08 1 14.7412 63.4937)" fill="#AFBDC7"/>
<circle cx="0.451626" cy="0.451626" r="0.451626" transform="matrix(-1 -3.17865e-08 -3.17865e-08 1 10.2256 65.7518)" fill="#AFBDC7"/>
<circle cx="0.451626" cy="0.451626" r="0.451626" transform="matrix(-1 -3.17865e-08 -3.17865e-08 1 17 65.7518)" fill="#AFBDC7"/>
<circle cx="0.451626" cy="0.451626" r="0.451626" transform="matrix(-1 -3.17865e-08 -3.17865e-08 1 5.70923 65.7518)" fill="#AFBDC7"/>
<circle cx="0.451626" cy="0.451626" r="0.451626" transform="matrix(-1 -3.17865e-08 -3.17865e-08 1 12.4834 65.7518)" fill="#AFBDC7"/>
<circle cx="0.451626" cy="0.451626" r="0.451626" transform="matrix(-1 -3.17865e-08 -3.17865e-08 1 7.96777 65.7518)" fill="#AFBDC7"/>
<circle cx="0.451626" cy="0.451626" r="0.451626" transform="matrix(-1 -3.17865e-08 -3.17865e-08 1 14.7412 65.7518)" fill="#AFBDC7"/>
</svg>
