<svg width="17" height="67" viewBox="0 0 17 67" fill="none" xmlns="http://www.w3.org/2000/svg">
<circle cx="0.451626" cy="0.451626" r="0.451626" transform="matrix(-1.19249e-08 -1 -1 1.19249e-08 17 5.41959)" fill="#AFBDC7"/>
<circle cx="0.451626" cy="0.451626" r="0.451626" transform="matrix(-1.19249e-08 -1 -1 1.19249e-08 17 12.1941)" fill="#AFBDC7"/>
<circle cx="0.451626" cy="0.451626" r="0.451626" transform="matrix(-1.19249e-08 -1 -1 1.19249e-08 17 0.903412)" fill="#AFBDC7"/>
<circle cx="0.451626" cy="0.451626" r="0.451626" transform="matrix(-1.19249e-08 -1 -1 1.19249e-08 17 7.67764)" fill="#AFBDC7"/>
<circle cx="0.451626" cy="0.451626" r="0.451626" transform="matrix(-1.19249e-08 -1 -1 1.19249e-08 17 14.4521)" fill="#AFBDC7"/>
<circle cx="0.451626" cy="0.451626" r="0.451626" transform="matrix(-1.19249e-08 -1 -1 1.19249e-08 17 3.16202)" fill="#AFBDC7"/>
<circle cx="0.451626" cy="0.451626" r="0.451626" transform="matrix(-1.19249e-08 -1 -1 1.19249e-08 17 9.936)" fill="#AFBDC7"/>
<circle cx="0.451626" cy="0.451626" r="0.451626" transform="matrix(-1.19249e-08 -1 -1 1.19249e-08 17 16.7102)" fill="#1A85B1"/>
<circle cx="0.451626" cy="0.451626" r="0.451626" transform="matrix(-1.19249e-08 -1 -1 1.19249e-08 14.7422 5.41959)" fill="#AFBDC7"/>
<circle cx="0.451626" cy="0.451626" r="0.451626" transform="matrix(-1.19249e-08 -1 -1 1.19249e-08 14.7422 12.1941)" fill="#AFBDC7"/>
<circle cx="0.451626" cy="0.451626" r="0.451626" transform="matrix(-1.19249e-08 -1 -1 1.19249e-08 14.7422 0.903412)" fill="#AFBDC7"/>
<circle cx="0.451626" cy="0.451626" r="0.451626" transform="matrix(-1.19249e-08 -1 -1 1.19249e-08 14.7422 7.67764)" fill="#AFBDC7"/>
<circle cx="0.451626" cy="0.451626" r="0.451626" transform="matrix(-1.19249e-08 -1 -1 1.19249e-08 14.7422 14.4521)" fill="#AFBDC7"/>
<circle cx="0.451626" cy="0.451626" r="0.451626" transform="matrix(-1.19249e-08 -1 -1 1.19249e-08 14.7422 3.16202)" fill="#AFBDC7"/>
<circle cx="0.451626" cy="0.451626" r="0.451626" transform="matrix(-1.19249e-08 -1 -1 1.19249e-08 14.7422 9.936)" fill="#AFBDC7"/>
<circle cx="0.451626" cy="0.451626" r="0.451626" transform="matrix(-1.19249e-08 -1 -1 1.19249e-08 14.7422 16.7102)" fill="#1A85B1"/>
<circle cx="0.451626" cy="0.451626" r="0.451626" transform="matrix(1 3.17865e-08 3.17865e-08 -1 6.77441 3.21652)" fill="#AFBDC7"/>
<circle cx="0.451626" cy="0.451626" r="0.451626" transform="matrix(1 3.17865e-08 3.17865e-08 -1 0 3.21655)" fill="#AFBDC7"/>
<circle cx="0.451626" cy="0.451626" r="0.451626" transform="matrix(1 3.17865e-08 3.17865e-08 -1 11.2908 3.21652)" fill="#AFBDC7"/>
<circle cx="0.451626" cy="0.451626" r="0.451626" transform="matrix(1 3.17865e-08 3.17865e-08 -1 4.5166 3.21652)" fill="#AFBDC7"/>
<circle cx="0.451626" cy="0.451626" r="0.451626" transform="matrix(1 3.17865e-08 3.17865e-08 -1 9.03223 3.21652)" fill="#AFBDC7"/>
<circle cx="0.451626" cy="0.451626" r="0.451626" transform="matrix(1 3.17865e-08 3.17865e-08 -1 2.25879 3.21652)" fill="#AFBDC7"/>
<circle cx="0.451626" cy="0.451626" r="0.451626" transform="matrix(1 3.17865e-08 3.17865e-08 -1 6.77441 0.958435)" fill="#AFBDC7"/>
<circle cx="0.451626" cy="0.451626" r="0.451626" transform="matrix(1 3.17865e-08 3.17865e-08 -1 0 0.958435)" fill="#AFBDC7"/>
<circle cx="0.451626" cy="0.451626" r="0.451626" transform="matrix(1 3.17865e-08 3.17865e-08 -1 11.2908 0.958435)" fill="#AFBDC7"/>
<circle cx="0.451626" cy="0.451626" r="0.451626" transform="matrix(1 3.17865e-08 3.17865e-08 -1 4.5166 0.958435)" fill="#AFBDC7"/>
<circle cx="0.451626" cy="0.451626" r="0.451626" transform="matrix(1 3.17865e-08 3.17865e-08 -1 9.03223 0.958435)" fill="#AFBDC7"/>
<circle cx="0.451626" cy="0.451626" r="0.451626" transform="matrix(1 3.17865e-08 3.17865e-08 -1 2.25879 0.958435)" fill="#AFBDC7"/>
<circle cx="16.5484" cy="61.7422" r="0.451626" transform="rotate(90 16.5484 61.7422)" fill="#AFBDC7"/>
<circle cx="16.5484" cy="54.9678" r="0.451626" transform="rotate(90 16.5484 54.9678)" fill="#AFBDC7"/>
<circle cx="16.5484" cy="66.2584" r="0.451626" transform="rotate(90 16.5484 66.2584)" fill="#AFBDC7"/>
<circle cx="16.5484" cy="59.4842" r="0.451626" transform="rotate(90 16.5484 59.4842)" fill="#AFBDC7"/>
<circle cx="16.5484" cy="52.7097" r="0.451626" transform="rotate(90 16.5484 52.7097)" fill="#AFBDC7"/>
<circle cx="16.5484" cy="63.9998" r="0.451626" transform="rotate(90 16.5484 63.9998)" fill="#AFBDC7"/>
<circle cx="16.5484" cy="57.2258" r="0.451626" transform="rotate(90 16.5484 57.2258)" fill="#AFBDC7"/>
<circle cx="16.5484" cy="50.4516" r="0.451626" transform="rotate(90 16.5484 50.4516)" fill="#1A85B1"/>
<circle cx="14.2906" cy="61.7422" r="0.451626" transform="rotate(90 14.2906 61.7422)" fill="#AFBDC7"/>
<circle cx="14.2906" cy="54.9678" r="0.451626" transform="rotate(90 14.2906 54.9678)" fill="#AFBDC7"/>
<circle cx="14.2906" cy="66.2584" r="0.451626" transform="rotate(90 14.2906 66.2584)" fill="#AFBDC7"/>
<circle cx="14.2906" cy="59.4842" r="0.451626" transform="rotate(90 14.2906 59.4842)" fill="#AFBDC7"/>
<circle cx="14.2906" cy="52.7097" r="0.451626" transform="rotate(90 14.2906 52.7097)" fill="#AFBDC7"/>
<circle cx="14.2906" cy="63.9998" r="0.451626" transform="rotate(90 14.2906 63.9998)" fill="#AFBDC7"/>
<circle cx="14.2906" cy="57.2258" r="0.451626" transform="rotate(90 14.2906 57.2258)" fill="#AFBDC7"/>
<circle cx="14.2906" cy="50.4516" r="0.451626" transform="rotate(90 14.2906 50.4516)" fill="#1A85B1"/>
<circle cx="7.22604" cy="63.9453" r="0.451626" fill="#AFBDC7"/>
<circle cx="0.451626" cy="63.9453" r="0.451626" fill="#AFBDC7"/>
<circle cx="11.7424" cy="63.9453" r="0.451626" fill="#AFBDC7"/>
<circle cx="4.96823" cy="63.9453" r="0.451626" fill="#AFBDC7"/>
<circle cx="9.48385" cy="63.9453" r="0.451626" fill="#AFBDC7"/>
<circle cx="2.71041" cy="63.9453" r="0.451626" fill="#AFBDC7"/>
<circle cx="7.22604" cy="66.2034" r="0.451626" fill="#AFBDC7"/>
<circle cx="0.451626" cy="66.2034" r="0.451626" fill="#AFBDC7"/>
<circle cx="11.7424" cy="66.2034" r="0.451626" fill="#AFBDC7"/>
<circle cx="4.96823" cy="66.2034" r="0.451626" fill="#AFBDC7"/>
<circle cx="9.48385" cy="66.2034" r="0.451626" fill="#AFBDC7"/>
<circle cx="2.71041" cy="66.2034" r="0.451626" fill="#AFBDC7"/>
</svg>
