<svg width="17" height="17" viewBox="0 0 17 17" fill="none" xmlns="http://www.w3.org/2000/svg">
<circle cx="4.9683" cy="16.5484" r="0.451626" transform="rotate(180 4.9683 16.5484)" fill="#C2CDD5"/>
<circle cx="11.7427" cy="16.5484" r="0.451626" transform="rotate(180 11.7427 16.5484)" fill="#C2CDD5"/>
<circle cx="0.452183" cy="16.5484" r="0.451626" transform="rotate(180 0.452183 16.5484)" fill="#C2CDD5"/>
<circle cx="7.22611" cy="16.5484" r="0.451626" transform="rotate(180 7.22611 16.5484)" fill="#C2CDD5"/>
<circle cx="14.0005" cy="16.5484" r="0.451626" transform="rotate(180 14.0005 16.5484)" fill="#C2CDD5"/>
<circle cx="2.71048" cy="16.5484" r="0.451626" transform="rotate(180 2.71048 16.5484)" fill="#C2CDD5"/>
<circle cx="9.48441" cy="16.5484" r="0.451626" transform="rotate(180 9.48441 16.5484)" fill="#C2CDD5"/>
<circle cx="16.2588" cy="16.5484" r="0.451626" transform="rotate(180 16.2588 16.5484)" fill="#C2CDD5"/>
<circle cx="4.9683" cy="14.2906" r="0.451626" transform="rotate(180 4.9683 14.2906)" fill="#C2CDD5"/>
<circle cx="11.7427" cy="14.2906" r="0.451626" transform="rotate(180 11.7427 14.2906)" fill="#C2CDD5"/>
<circle cx="0.452183" cy="14.2906" r="0.451626" transform="rotate(180 0.452183 14.2906)" fill="#C2CDD5"/>
<circle cx="7.22611" cy="14.2906" r="0.451626" transform="rotate(180 7.22611 14.2906)" fill="#C2CDD5"/>
<circle cx="14.0005" cy="14.2906" r="0.451626" transform="rotate(180 14.0005 14.2906)" fill="#C2CDD5"/>
<circle cx="2.71048" cy="14.2906" r="0.451626" transform="rotate(180 2.71048 14.2906)" fill="#C2CDD5"/>
<circle cx="9.48441" cy="14.2906" r="0.451626" transform="rotate(180 9.48441 14.2906)" fill="#C2CDD5"/>
<circle cx="16.2588" cy="14.2906" r="0.451626" transform="rotate(180 16.2588 14.2906)" fill="#C2CDD5"/>
<circle cx="2.76517" cy="7.22604" r="0.451626" transform="rotate(90 2.76517 7.22604)" fill="#C2CDD5"/>
<circle cx="2.76517" cy="0.451626" r="0.451626" transform="rotate(90 2.76517 0.451626)" fill="#C2CDD5"/>
<circle cx="2.76517" cy="11.7424" r="0.451626" transform="rotate(90 2.76517 11.7424)" fill="#C2CDD5"/>
<circle cx="2.76517" cy="4.96823" r="0.451626" transform="rotate(90 2.76517 4.96823)" fill="#C2CDD5"/>
<circle cx="2.76517" cy="9.48385" r="0.451626" transform="rotate(90 2.76517 9.48385)" fill="#C2CDD5"/>
<circle cx="2.76517" cy="2.71041" r="0.451626" transform="rotate(90 2.76517 2.71041)" fill="#C2CDD5"/>
<circle cx="0.50687" cy="7.22604" r="0.451626" transform="rotate(90 0.50687 7.22604)" fill="#C2CDD5"/>
<circle cx="0.50687" cy="0.451626" r="0.451626" transform="rotate(90 0.50687 0.451626)" fill="#C2CDD5"/>
<circle cx="0.50687" cy="11.7424" r="0.451626" transform="rotate(90 0.50687 11.7424)" fill="#C2CDD5"/>
<circle cx="0.50687" cy="4.96823" r="0.451626" transform="rotate(90 0.50687 4.96823)" fill="#C2CDD5"/>
<circle cx="0.50687" cy="9.48385" r="0.451626" transform="rotate(90 0.50687 9.48385)" fill="#C2CDD5"/>
<circle cx="0.50687" cy="2.71041" r="0.451626" transform="rotate(90 0.50687 2.71041)" fill="#C2CDD5"/>
</svg>
