<svg width="13" height="16" viewBox="0 0 13 16" fill="none" xmlns="http://www.w3.org/2000/svg">
<path d="M0 4.37875C0 3.43418 0.660844 2.61839 1.58484 2.42231L10.5848 0.512501C11.8288 0.248531 13 1.19728 13 2.46894V11.6213C13 12.5658 12.3392 13.3816 11.4152 13.5777L2.41516 15.4875C1.1712 15.7515 0 14.8027 0 13.5311V4.37875Z" fill="#BB926A"/>
<path d="M6.36938 8.70222C6.32644 8.70246 6.28388 8.69423 6.24413 8.678C6.20438 8.66176 6.16823 8.63784 6.13774 8.6076L4.83276 7.30262C4.77133 7.24119 4.73682 7.15787 4.73682 7.07099C4.73682 6.98411 4.77133 6.90079 4.83276 6.83935C4.8942 6.77792 4.97752 6.74341 5.0644 6.74341C5.15128 6.74341 5.2346 6.77792 5.29603 6.83935L6.36938 7.91596L7.44273 6.84262C7.50514 6.78917 7.58542 6.76124 7.66753 6.76441C7.74963 6.76758 7.82752 6.80162 7.88562 6.85972C7.94373 6.91783 7.97776 6.99571 7.98094 7.07782C7.98411 7.15993 7.95618 7.24021 7.90273 7.30262L6.59775 8.6076C6.53698 8.66788 6.45497 8.70186 6.36938 8.70222Z" fill="white"/>
</svg>
