<svg width="66" height="66" viewBox="0 0 66 66" fill="none" xmlns="http://www.w3.org/2000/svg">
<mask id="mask0_2854_88320" style="mask-type:alpha" maskUnits="userSpaceOnUse" x="0" y="0" width="66" height="66">
<path d="M45.006 35.3408C48.2394 32.7968 50.5995 29.3083 51.7579 25.3605C52.9164 21.4128 52.8156 17.2021 51.4695 13.3143C50.1235 9.42651 47.5991 6.05494 44.2476 3.66864C40.8961 1.28235 36.8842 0 32.77 0C28.6558 0 24.6439 1.28235 21.2924 3.66864C17.9409 6.05494 15.4166 9.42651 14.0705 13.3143C12.7244 17.2021 12.6236 21.4128 13.7821 25.3605C14.9405 29.3083 17.3006 32.7968 20.5341 35.3408C14.9935 37.5605 10.1592 41.2422 6.54648 45.9933C2.93376 50.7445 0.678072 56.3869 0.0198936 62.3192C-0.0277488 62.7523 0.0103837 63.1906 0.132113 63.6089C0.253842 64.0273 0.456784 64.4176 0.729352 64.7576C1.27983 65.4441 2.08049 65.8839 2.9552 65.9801C3.82991 66.0763 4.70702 65.8211 5.39357 65.2706C6.08012 64.7202 6.51987 63.9195 6.61609 63.0448C7.3403 56.5976 10.4145 50.6433 15.2512 46.3194C20.088 41.9956 26.3483 39.6053 32.836 39.6053C39.3237 39.6053 45.5839 41.9956 50.4207 46.3194C55.2575 50.6433 58.3316 56.5976 59.0559 63.0448C59.1455 63.8552 59.5322 64.6037 60.1413 65.1457C60.7503 65.6878 61.5386 65.985 62.3539 65.9801H62.7167C63.5813 65.8806 64.3715 65.4435 64.9151 64.7639C65.4588 64.0844 65.7118 63.2175 65.6191 62.3522C64.9578 56.4031 62.6899 50.7461 59.0587 45.9877C55.4274 41.2293 50.5696 37.5488 45.006 35.3408ZM32.77 32.9991C30.1608 32.9991 27.6102 32.2254 25.4407 30.7758C23.2712 29.3262 21.5803 27.2658 20.5818 24.8552C19.5833 22.4446 19.3221 19.7921 19.8311 17.233C20.3401 14.6739 21.5966 12.3233 23.4416 10.4783C25.2866 8.6333 27.6372 7.37684 30.1963 6.86781C32.7554 6.35878 35.4079 6.62003 37.8185 7.61853C40.2291 8.61703 42.2895 10.3079 43.7391 12.4774C45.1887 14.6469 45.9624 17.1975 45.9624 19.8067C45.9624 23.3056 44.5725 26.6611 42.0984 29.1351C39.6244 31.6092 36.2689 32.9991 32.77 32.9991Z" fill="white"/>
</mask>
<g mask="url(#mask0_2854_88320)">
<g opacity="0.3">
<circle cx="62.1018" cy="8.82929" r="0.442575" fill="#AEC1D0"/>
<circle cx="59.8894" cy="8.82929" r="0.442575" fill="#AEC1D0"/>
<circle cx="64.3146" cy="8.82929" r="0.442575" fill="#AEC1D0"/>
<circle cx="57.676" cy="8.82929" r="0.442575" fill="#AEC1D0"/>
<circle cx="62.1018" cy="11.0422" r="0.442575" fill="#AEC1D0"/>
<circle cx="59.8894" cy="11.0422" r="0.442575" fill="#AEC1D0"/>
<circle cx="64.3146" cy="11.0422" r="0.442575" fill="#AEC1D0"/>
<circle cx="57.676" cy="11.0422" r="0.442575" fill="#AEC1D0"/>
</g>
<g opacity="0.3">
<circle cx="62.1018" cy="-0.0225125" r="0.442575" fill="#AEC1D0"/>
<circle cx="59.8894" cy="-0.0225125" r="0.442575" fill="#AEC1D0"/>
<circle cx="64.3146" cy="-0.0225125" r="0.442575" fill="#AEC1D0"/>
<circle cx="57.676" cy="-0.0225125" r="0.442575" fill="#AEC1D0"/>
<circle cx="62.1018" cy="2.19038" r="0.442575" fill="#AEC1D0"/>
<circle cx="59.8894" cy="2.19038" r="0.442575" fill="#AEC1D0"/>
<circle cx="64.3146" cy="2.19038" r="0.442575" fill="#AEC1D0"/>
<circle cx="57.676" cy="2.19038" r="0.442575" fill="#AEC1D0"/>
</g>
<g opacity="0.3">
<circle cx="62.1018" cy="13.2548" r="0.442575" fill="#AEC1D0"/>
<circle cx="59.8894" cy="13.2548" r="0.442575" fill="#AEC1D0"/>
<circle cx="64.3146" cy="13.2548" r="0.442575" fill="#AEC1D0"/>
<circle cx="57.676" cy="13.2551" r="0.442575" fill="#AEC1D0"/>
<circle cx="62.1018" cy="15.4677" r="0.442575" fill="#AEC1D0"/>
<circle cx="59.8894" cy="15.4677" r="0.442575" fill="#AEC1D0"/>
<circle cx="64.3146" cy="15.4677" r="0.442575" fill="#AEC1D0"/>
<circle cx="57.676" cy="15.4677" r="0.442575" fill="#AEC1D0"/>
</g>
<g opacity="0.3">
<circle cx="62.1018" cy="4.40327" r="0.442575" fill="#AEC1D0"/>
<circle cx="59.8894" cy="4.40327" r="0.442575" fill="#AEC1D0"/>
<circle cx="64.3146" cy="4.40327" r="0.442575" fill="#AEC1D0"/>
<circle cx="57.676" cy="4.40327" r="0.442575" fill="#AEC1D0"/>
<circle cx="62.1018" cy="6.61616" r="0.442575" fill="#AEC1D0"/>
<circle cx="59.8894" cy="6.61616" r="0.442575" fill="#AEC1D0"/>
<circle cx="64.3146" cy="6.61616" r="0.442575" fill="#AEC1D0"/>
<circle cx="57.676" cy="6.61616" r="0.442575" fill="#AEC1D0"/>
</g>
<g opacity="0.3">
<circle cx="62.1018" cy="17.6806" r="0.442575" fill="#AEC1D0"/>
<circle cx="59.8894" cy="17.6806" r="0.442575" fill="#AEC1D0"/>
<circle cx="64.3146" cy="17.6806" r="0.442575" fill="#AEC1D0"/>
<circle cx="57.676" cy="17.6806" r="0.442575" fill="#AEC1D0"/>
<circle cx="62.1018" cy="19.8935" r="0.442575" fill="#AEC1D0"/>
<circle cx="59.8894" cy="19.8935" r="0.442575" fill="#AEC1D0"/>
<circle cx="64.3146" cy="19.8935" r="0.442575" fill="#AEC1D0"/>
<circle cx="57.676" cy="19.8935" r="0.442575" fill="#AEC1D0"/>
</g>
<g opacity="0.3">
<circle cx="55.4641" cy="8.82905" r="0.442575" fill="#AEC1D0"/>
<circle cx="48.8254" cy="8.82905" r="0.442575" fill="#AEC1D0"/>
<circle cx="42.1867" cy="8.82905" r="0.442575" fill="#AEC1D0"/>
<circle cx="53.2512" cy="8.82905" r="0.442575" fill="#AEC1D0"/>
<circle cx="46.6125" cy="8.82905" r="0.442575" fill="#AEC1D0"/>
<circle cx="39.9738" cy="8.82905" r="0.442575" fill="#AEC1D0"/>
<circle cx="51.0383" cy="8.82905" r="0.442575" fill="#AEC1D0"/>
<circle cx="44.3996" cy="8.82905" r="0.442575" fill="#AEC1D0"/>
<circle cx="37.7609" cy="8.82905" r="0.442575" fill="#AEC1D0"/>
<circle cx="55.4641" cy="11.0419" r="0.442575" fill="#AEC1D0"/>
<circle cx="48.8254" cy="11.0419" r="0.442575" fill="#AEC1D0"/>
<circle cx="42.1867" cy="11.0419" r="0.442575" fill="#AEC1D0"/>
<circle cx="53.2512" cy="11.0419" r="0.442575" fill="#AEC1D0"/>
<circle cx="46.6125" cy="11.0419" r="0.442575" fill="#AEC1D0"/>
<circle cx="39.9738" cy="11.0419" r="0.442575" fill="#AEC1D0"/>
<circle cx="51.0383" cy="11.0419" r="0.442575" fill="#AEC1D0"/>
<circle cx="44.3996" cy="11.0419" r="0.442575" fill="#AEC1D0"/>
<circle cx="37.7609" cy="11.0419" r="0.442575" fill="#AEC1D0"/>
<circle cx="15.6325" cy="8.82905" r="0.442575" fill="#AEC1D0"/>
<circle cx="8.99433" cy="8.82905" r="0.442575" fill="#AEC1D0"/>
<circle cx="2.35566" cy="8.82905" r="0.442575" fill="#AEC1D0"/>
<circle cx="13.4196" cy="8.82905" r="0.442575" fill="#AEC1D0"/>
<circle cx="6.78095" cy="8.82905" r="0.442575" fill="#AEC1D0"/>
<circle cx="0.142282" cy="8.82905" r="0.442575" fill="#AEC1D0"/>
<circle cx="11.2067" cy="8.82905" r="0.442575" fill="#AEC1D0"/>
<circle cx="4.56806" cy="8.82905" r="0.442575" fill="#AEC1D0"/>
<circle cx="15.6325" cy="11.0419" r="0.442575" fill="#AEC1D0"/>
<circle cx="8.99433" cy="11.0419" r="0.442575" fill="#AEC1D0"/>
<circle cx="2.35566" cy="11.0419" r="0.442575" fill="#AEC1D0"/>
<circle cx="13.4196" cy="11.0419" r="0.442575" fill="#AEC1D0"/>
<circle cx="6.78095" cy="11.0419" r="0.442575" fill="#AEC1D0"/>
<circle cx="0.142282" cy="11.0419" r="0.442575" fill="#AEC1D0"/>
<circle cx="11.2067" cy="11.0419" r="0.442575" fill="#AEC1D0"/>
<circle cx="4.56806" cy="11.0419" r="0.442575" fill="#AEC1D0"/>
<circle cx="35.548" cy="8.82905" r="0.442575" fill="#AEC1D0"/>
<circle cx="28.9099" cy="8.82905" r="0.442575" fill="#AEC1D0"/>
<circle cx="22.2712" cy="8.82905" r="0.442575" fill="#AEC1D0"/>
<circle cx="33.3356" cy="8.82905" r="0.442575" fill="#AEC1D0"/>
<circle cx="26.697" cy="8.82905" r="0.442575" fill="#AEC1D0"/>
<circle cx="20.0583" cy="8.82905" r="0.442575" fill="#AEC1D0"/>
<circle cx="31.1228" cy="8.82905" r="0.442575" fill="#AEC1D0"/>
<circle cx="24.4841" cy="8.82905" r="0.442575" fill="#AEC1D0"/>
<circle cx="17.8454" cy="8.82905" r="0.442575" fill="#AEC1D0"/>
<circle cx="35.548" cy="11.0419" r="0.442575" fill="#AEC1D0"/>
<circle cx="28.9099" cy="11.0419" r="0.442575" fill="#AEC1D0"/>
<circle cx="22.2712" cy="11.0419" r="0.442575" fill="#AEC1D0"/>
<circle cx="33.3356" cy="11.0419" r="0.442575" fill="#AEC1D0"/>
<circle cx="26.697" cy="11.0419" r="0.442575" fill="#AEC1D0"/>
<circle cx="20.0583" cy="11.0419" r="0.442575" fill="#AEC1D0"/>
<circle cx="31.1228" cy="11.0419" r="0.442575" fill="#AEC1D0"/>
<circle cx="24.4841" cy="11.0419" r="0.442575" fill="#AEC1D0"/>
<circle cx="17.8454" cy="11.0419" r="0.442575" fill="#AEC1D0"/>
</g>
<g opacity="0.3">
<circle cx="55.4641" cy="-0.0225125" r="0.442575" fill="#AEC1D0"/>
<circle cx="48.8254" cy="-0.0225125" r="0.442575" fill="#AEC1D0"/>
<circle cx="42.1867" cy="-0.0225125" r="0.442575" fill="#AEC1D0"/>
<circle cx="53.2512" cy="-0.0225125" r="0.442575" fill="#AEC1D0"/>
<circle cx="46.6125" cy="-0.0225125" r="0.442575" fill="#AEC1D0"/>
<circle cx="39.9738" cy="-0.0225125" r="0.442575" fill="#AEC1D0"/>
<circle cx="51.0383" cy="-0.0225125" r="0.442575" fill="#AEC1D0"/>
<circle cx="44.3996" cy="-0.0225125" r="0.442575" fill="#AEC1D0"/>
<circle cx="37.7609" cy="-0.0225125" r="0.442575" fill="#AEC1D0"/>
<circle cx="55.4641" cy="2.19038" r="0.442575" fill="#AEC1D0"/>
<circle cx="48.8254" cy="2.19038" r="0.442575" fill="#AEC1D0"/>
<circle cx="42.1867" cy="2.19038" r="0.442575" fill="#AEC1D0"/>
<circle cx="53.2512" cy="2.19038" r="0.442575" fill="#AEC1D0"/>
<circle cx="46.6125" cy="2.19038" r="0.442575" fill="#AEC1D0"/>
<circle cx="39.9738" cy="2.19038" r="0.442575" fill="#AEC1D0"/>
<circle cx="51.0383" cy="2.19038" r="0.442575" fill="#AEC1D0"/>
<circle cx="44.3996" cy="2.19038" r="0.442575" fill="#AEC1D0"/>
<circle cx="37.7609" cy="2.19038" r="0.442575" fill="#AEC1D0"/>
<circle cx="15.6325" cy="-0.0225125" r="0.442575" fill="#AEC1D0"/>
<circle cx="8.99433" cy="-0.0225125" r="0.442575" fill="#AEC1D0"/>
<circle cx="2.35566" cy="-0.0225125" r="0.442575" fill="#AEC1D0"/>
<circle cx="13.4196" cy="-0.0225125" r="0.442575" fill="#AEC1D0"/>
<circle cx="6.78095" cy="-0.0225125" r="0.442575" fill="#AEC1D0"/>
<circle cx="0.142282" cy="-0.0225125" r="0.442575" fill="#AEC1D0"/>
<circle cx="11.2067" cy="-0.0225125" r="0.442575" fill="#AEC1D0"/>
<circle cx="4.56806" cy="-0.0225125" r="0.442575" fill="#AEC1D0"/>
<circle cx="15.6325" cy="2.19038" r="0.442575" fill="#AEC1D0"/>
<circle cx="8.99433" cy="2.19038" r="0.442575" fill="#AEC1D0"/>
<circle cx="2.35566" cy="2.19038" r="0.442575" fill="#AEC1D0"/>
<circle cx="13.4196" cy="2.19038" r="0.442575" fill="#AEC1D0"/>
<circle cx="6.78095" cy="2.19038" r="0.442575" fill="#AEC1D0"/>
<circle cx="0.142282" cy="2.19038" r="0.442575" fill="#AEC1D0"/>
<circle cx="11.2067" cy="2.19038" r="0.442575" fill="#AEC1D0"/>
<circle cx="4.56806" cy="2.19038" r="0.442575" fill="#AEC1D0"/>
<circle cx="35.548" cy="-0.0225125" r="0.442575" fill="#AEC1D0"/>
<circle cx="28.9099" cy="-0.0225125" r="0.442575" fill="#AEC1D0"/>
<circle cx="22.2712" cy="-0.0225125" r="0.442575" fill="#AEC1D0"/>
<circle cx="33.3356" cy="-0.0225125" r="0.442575" fill="#AEC1D0"/>
<circle cx="26.697" cy="-0.0225125" r="0.442575" fill="#AEC1D0"/>
<circle cx="20.0583" cy="-0.0225125" r="0.442575" fill="#AEC1D0"/>
<circle cx="31.1228" cy="-0.0225125" r="0.442575" fill="#AEC1D0"/>
<circle cx="24.4841" cy="-0.0225125" r="0.442575" fill="#AEC1D0"/>
<circle cx="17.8454" cy="-0.0225125" r="0.442575" fill="#AEC1D0"/>
<circle cx="35.548" cy="2.19038" r="0.442575" fill="#AEC1D0"/>
<circle cx="28.9099" cy="2.19038" r="0.442575" fill="#AEC1D0"/>
<circle cx="22.2712" cy="2.19038" r="0.442575" fill="#AEC1D0"/>
<circle cx="33.3356" cy="2.19038" r="0.442575" fill="#AEC1D0"/>
<circle cx="26.697" cy="2.19038" r="0.442575" fill="#AEC1D0"/>
<circle cx="20.0583" cy="2.19038" r="0.442575" fill="#AEC1D0"/>
<circle cx="31.1228" cy="2.19038" r="0.442575" fill="#AEC1D0"/>
<circle cx="24.4841" cy="2.19038" r="0.442575" fill="#AEC1D0"/>
<circle cx="17.8454" cy="2.19038" r="0.442575" fill="#AEC1D0"/>
</g>
<g opacity="0.3">
<circle cx="55.4641" cy="13.2548" r="0.442575" fill="#AEC1D0"/>
<circle cx="48.8254" cy="13.2548" r="0.442575" fill="#AEC1D0"/>
<circle cx="42.1867" cy="13.2548" r="0.442575" fill="#AEC1D0"/>
<circle cx="53.2512" cy="13.2548" r="0.442575" fill="#AEC1D0"/>
<circle cx="46.6125" cy="13.2548" r="0.442575" fill="#AEC1D0"/>
<circle cx="39.9738" cy="13.2548" r="0.442575" fill="#AEC1D0"/>
<circle cx="51.0383" cy="13.2548" r="0.442575" fill="#AEC1D0"/>
<circle cx="44.3996" cy="13.2548" r="0.442575" fill="#AEC1D0"/>
<circle cx="37.7609" cy="13.2548" r="0.442575" fill="#AEC1D0"/>
<circle cx="55.4641" cy="15.4677" r="0.442575" fill="#AEC1D0"/>
<circle cx="48.8254" cy="15.4677" r="0.442575" fill="#AEC1D0"/>
<circle cx="42.1867" cy="15.4677" r="0.442575" fill="#AEC1D0"/>
<circle cx="53.2512" cy="15.4677" r="0.442575" fill="#AEC1D0"/>
<circle cx="46.6125" cy="15.4677" r="0.442575" fill="#AEC1D0"/>
<circle cx="39.9738" cy="15.4677" r="0.442575" fill="#AEC1D0"/>
<circle cx="51.0383" cy="15.4677" r="0.442575" fill="#AEC1D0"/>
<circle cx="44.3996" cy="15.4677" r="0.442575" fill="#AEC1D0"/>
<circle cx="37.7609" cy="15.4677" r="0.442575" fill="#AEC1D0"/>
<circle cx="15.6325" cy="13.2551" r="0.442575" fill="#AEC1D0"/>
<circle cx="8.99433" cy="13.2551" r="0.442575" fill="#AEC1D0"/>
<circle cx="2.35566" cy="13.2551" r="0.442575" fill="#AEC1D0"/>
<circle cx="13.4196" cy="13.2551" r="0.442575" fill="#AEC1D0"/>
<circle cx="6.78095" cy="13.2551" r="0.442575" fill="#AEC1D0"/>
<circle cx="0.142282" cy="13.2551" r="0.442575" fill="#AEC1D0"/>
<circle cx="11.2067" cy="13.2551" r="0.442575" fill="#AEC1D0"/>
<circle cx="4.56806" cy="13.2551" r="0.442575" fill="#AEC1D0"/>
<circle cx="15.6325" cy="15.468" r="0.442575" fill="#AEC1D0"/>
<circle cx="8.99433" cy="15.468" r="0.442575" fill="#AEC1D0"/>
<circle cx="2.35566" cy="15.468" r="0.442575" fill="#AEC1D0"/>
<circle cx="13.4196" cy="15.468" r="0.442575" fill="#AEC1D0"/>
<circle cx="6.78095" cy="15.468" r="0.442575" fill="#AEC1D0"/>
<circle cx="0.142282" cy="15.468" r="0.442575" fill="#AEC1D0"/>
<circle cx="11.2067" cy="15.468" r="0.442575" fill="#AEC1D0"/>
<circle cx="4.56806" cy="15.468" r="0.442575" fill="#AEC1D0"/>
<circle cx="35.548" cy="13.2551" r="0.442575" fill="#AEC1D0"/>
<circle cx="28.9099" cy="13.2551" r="0.442575" fill="#AEC1D0"/>
<circle cx="22.2712" cy="13.2551" r="0.442575" fill="#AEC1D0"/>
<circle cx="33.3356" cy="13.2551" r="0.442575" fill="#AEC1D0"/>
<circle cx="26.697" cy="13.2551" r="0.442575" fill="#AEC1D0"/>
<circle cx="20.0583" cy="13.2551" r="0.442575" fill="#AEC1D0"/>
<circle cx="31.1228" cy="13.2551" r="0.442575" fill="#AEC1D0"/>
<circle cx="24.4841" cy="13.2551" r="0.442575" fill="#AEC1D0"/>
<circle cx="17.8454" cy="13.2551" r="0.442575" fill="#AEC1D0"/>
<circle cx="35.548" cy="15.4677" r="0.442575" fill="#AEC1D0"/>
<circle cx="28.9099" cy="15.4677" r="0.442575" fill="#AEC1D0"/>
<circle cx="22.2712" cy="15.4677" r="0.442575" fill="#AEC1D0"/>
<circle cx="33.3356" cy="15.4677" r="0.442575" fill="#AEC1D0"/>
<circle cx="26.697" cy="15.4677" r="0.442575" fill="#AEC1D0"/>
<circle cx="20.0583" cy="15.4677" r="0.442575" fill="#AEC1D0"/>
<circle cx="31.1228" cy="15.4677" r="0.442575" fill="#AEC1D0"/>
<circle cx="24.4841" cy="15.4677" r="0.442575" fill="#AEC1D0"/>
<circle cx="17.8454" cy="15.4677" r="0.442575" fill="#AEC1D0"/>
</g>
<g opacity="0.3">
<circle cx="55.4641" cy="4.40327" r="0.442575" fill="#AEC1D0"/>
<circle cx="48.8254" cy="4.40327" r="0.442575" fill="#AEC1D0"/>
<circle cx="42.1867" cy="4.40327" r="0.442575" fill="#AEC1D0"/>
<circle cx="53.2512" cy="4.40327" r="0.442575" fill="#AEC1D0"/>
<circle cx="46.6125" cy="4.40327" r="0.442575" fill="#AEC1D0"/>
<circle cx="39.9738" cy="4.40327" r="0.442575" fill="#AEC1D0"/>
<circle cx="51.0383" cy="4.40327" r="0.442575" fill="#AEC1D0"/>
<circle cx="44.3996" cy="4.40327" r="0.442575" fill="#AEC1D0"/>
<circle cx="37.7609" cy="4.40327" r="0.442575" fill="#AEC1D0"/>
<circle cx="55.4641" cy="6.61616" r="0.442575" fill="#AEC1D0"/>
<circle cx="48.8254" cy="6.61616" r="0.442575" fill="#AEC1D0"/>
<circle cx="42.1867" cy="6.61616" r="0.442575" fill="#AEC1D0"/>
<circle cx="53.2512" cy="6.61616" r="0.442575" fill="#AEC1D0"/>
<circle cx="46.6125" cy="6.61616" r="0.442575" fill="#AEC1D0"/>
<circle cx="39.9738" cy="6.61616" r="0.442575" fill="#AEC1D0"/>
<circle cx="51.0383" cy="6.61616" r="0.442575" fill="#AEC1D0"/>
<circle cx="44.3996" cy="6.61616" r="0.442575" fill="#AEC1D0"/>
<circle cx="37.7609" cy="6.61616" r="0.442575" fill="#AEC1D0"/>
<circle cx="15.6325" cy="4.40327" r="0.442575" fill="#AEC1D0"/>
<circle cx="8.99433" cy="4.40327" r="0.442575" fill="#AEC1D0"/>
<circle cx="2.35566" cy="4.40327" r="0.442575" fill="#AEC1D0"/>
<circle cx="13.4196" cy="4.40327" r="0.442575" fill="#AEC1D0"/>
<circle cx="6.78095" cy="4.40327" r="0.442575" fill="#AEC1D0"/>
<circle cx="0.142282" cy="4.40327" r="0.442575" fill="#AEC1D0"/>
<circle cx="11.2067" cy="4.40327" r="0.442575" fill="#AEC1D0"/>
<circle cx="4.56806" cy="4.40327" r="0.442575" fill="#AEC1D0"/>
<circle cx="15.6325" cy="6.61616" r="0.442575" fill="#AEC1D0"/>
<circle cx="8.99433" cy="6.61616" r="0.442575" fill="#AEC1D0"/>
<circle cx="2.35566" cy="6.61616" r="0.442575" fill="#AEC1D0"/>
<circle cx="13.4196" cy="6.61616" r="0.442575" fill="#AEC1D0"/>
<circle cx="6.78095" cy="6.61616" r="0.442575" fill="#AEC1D0"/>
<circle cx="0.142282" cy="6.61616" r="0.442575" fill="#AEC1D0"/>
<circle cx="11.2067" cy="6.61616" r="0.442575" fill="#AEC1D0"/>
<circle cx="4.56806" cy="6.61616" r="0.442575" fill="#AEC1D0"/>
<circle cx="35.548" cy="4.40327" r="0.442575" fill="#AEC1D0"/>
<circle cx="28.9099" cy="4.40327" r="0.442575" fill="#AEC1D0"/>
<circle cx="22.2712" cy="4.40327" r="0.442575" fill="#AEC1D0"/>
<circle cx="33.3356" cy="4.40327" r="0.442575" fill="#AEC1D0"/>
<circle cx="26.697" cy="4.40327" r="0.442575" fill="#AEC1D0"/>
<circle cx="20.0583" cy="4.40327" r="0.442575" fill="#AEC1D0"/>
<circle cx="31.1228" cy="4.40327" r="0.442575" fill="#AEC1D0"/>
<circle cx="24.4841" cy="4.40327" r="0.442575" fill="#AEC1D0"/>
<circle cx="17.8454" cy="4.40327" r="0.442575" fill="#AEC1D0"/>
<circle cx="35.548" cy="6.61616" r="0.442575" fill="#AEC1D0"/>
<circle cx="28.9099" cy="6.61616" r="0.442575" fill="#AEC1D0"/>
<circle cx="22.2712" cy="6.61616" r="0.442575" fill="#AEC1D0"/>
<circle cx="33.3356" cy="6.61616" r="0.442575" fill="#AEC1D0"/>
<circle cx="26.697" cy="6.61616" r="0.442575" fill="#AEC1D0"/>
<circle cx="20.0583" cy="6.61616" r="0.442575" fill="#AEC1D0"/>
<circle cx="31.1228" cy="6.61616" r="0.442575" fill="#AEC1D0"/>
<circle cx="24.4841" cy="6.61616" r="0.442575" fill="#AEC1D0"/>
<circle cx="17.8454" cy="6.61616" r="0.442575" fill="#AEC1D0"/>
</g>
<g opacity="0.3">
<circle cx="55.4641" cy="17.6806" r="0.442575" fill="#AEC1D0"/>
<circle cx="48.8254" cy="17.6806" r="0.442575" fill="#AEC1D0"/>
<circle cx="42.1867" cy="17.6806" r="0.442575" fill="#AEC1D0"/>
<circle cx="53.2512" cy="17.6806" r="0.442575" fill="#AEC1D0"/>
<circle cx="46.6125" cy="17.6806" r="0.442575" fill="#AEC1D0"/>
<circle cx="39.9738" cy="17.6806" r="0.442575" fill="#AEC1D0"/>
<circle cx="51.0383" cy="17.6806" r="0.442575" fill="#AEC1D0"/>
<circle cx="44.3996" cy="17.6806" r="0.442575" fill="#AEC1D0"/>
<circle cx="37.7609" cy="17.6806" r="0.442575" fill="#AEC1D0"/>
<circle cx="55.4641" cy="19.8935" r="0.442575" fill="#AEC1D0"/>
<circle cx="48.8254" cy="19.8935" r="0.442575" fill="#AEC1D0"/>
<circle cx="42.1867" cy="19.8935" r="0.442575" fill="#AEC1D0"/>
<circle cx="53.2512" cy="19.8935" r="0.442575" fill="#AEC1D0"/>
<circle cx="46.6125" cy="19.8935" r="0.442575" fill="#AEC1D0"/>
<circle cx="39.9738" cy="19.8935" r="0.442575" fill="#AEC1D0"/>
<circle cx="51.0383" cy="19.8935" r="0.442575" fill="#AEC1D0"/>
<circle cx="44.3996" cy="19.8935" r="0.442575" fill="#AEC1D0"/>
<circle cx="37.7609" cy="19.8935" r="0.442575" fill="#AEC1D0"/>
<circle cx="15.6325" cy="17.6806" r="0.442575" fill="#AEC1D0"/>
<circle cx="8.99433" cy="17.6806" r="0.442575" fill="#AEC1D0"/>
<circle cx="2.35566" cy="17.6806" r="0.442575" fill="#AEC1D0"/>
<circle cx="13.4196" cy="17.6806" r="0.442575" fill="#AEC1D0"/>
<circle cx="6.78095" cy="17.6806" r="0.442575" fill="#AEC1D0"/>
<circle cx="0.142282" cy="17.6806" r="0.442575" fill="#AEC1D0"/>
<circle cx="11.2067" cy="17.6806" r="0.442575" fill="#AEC1D0"/>
<circle cx="4.56806" cy="17.6806" r="0.442575" fill="#AEC1D0"/>
<circle cx="15.6325" cy="19.8935" r="0.442575" fill="#AEC1D0"/>
<circle cx="8.99433" cy="19.8935" r="0.442575" fill="#AEC1D0"/>
<circle cx="2.35566" cy="19.8935" r="0.442575" fill="#AEC1D0"/>
<circle cx="13.4196" cy="19.8935" r="0.442575" fill="#AEC1D0"/>
<circle cx="6.78095" cy="19.8935" r="0.442575" fill="#AEC1D0"/>
<circle cx="0.142282" cy="19.8935" r="0.442575" fill="#AEC1D0"/>
<circle cx="11.2067" cy="19.8935" r="0.442575" fill="#AEC1D0"/>
<circle cx="4.56806" cy="19.8935" r="0.442575" fill="#AEC1D0"/>
<circle cx="35.548" cy="17.6806" r="0.442575" fill="#AEC1D0"/>
<circle cx="28.9099" cy="17.6806" r="0.442575" fill="#AEC1D0"/>
<circle cx="22.2712" cy="17.6806" r="0.442575" fill="#AEC1D0"/>
<circle cx="33.3356" cy="17.6806" r="0.442575" fill="#AEC1D0"/>
<circle cx="26.697" cy="17.6806" r="0.442575" fill="#AEC1D0"/>
<circle cx="20.0583" cy="17.6806" r="0.442575" fill="#AEC1D0"/>
<circle cx="31.1228" cy="17.6806" r="0.442575" fill="#AEC1D0"/>
<circle cx="24.4841" cy="17.6806" r="0.442575" fill="#AEC1D0"/>
<circle cx="17.8454" cy="17.6806" r="0.442575" fill="#AEC1D0"/>
<circle cx="35.548" cy="19.8935" r="0.442575" fill="#AEC1D0"/>
<circle cx="28.9099" cy="19.8935" r="0.442575" fill="#AEC1D0"/>
<circle cx="22.2712" cy="19.8935" r="0.442575" fill="#AEC1D0"/>
<circle cx="33.3356" cy="19.8935" r="0.442575" fill="#AEC1D0"/>
<circle cx="26.697" cy="19.8935" r="0.442575" fill="#AEC1D0"/>
<circle cx="20.0583" cy="19.8935" r="0.442575" fill="#AEC1D0"/>
<circle cx="31.1228" cy="19.8935" r="0.442575" fill="#AEC1D0"/>
<circle cx="24.4841" cy="19.8935" r="0.442575" fill="#AEC1D0"/>
<circle cx="17.8454" cy="19.8935" r="0.442575" fill="#AEC1D0"/>
</g>
<g opacity="0.3">
<circle cx="62.1027" cy="22.1064" r="0.442575" fill="#AEC1D0"/>
<circle cx="59.8903" cy="22.1064" r="0.442575" fill="#AEC1D0"/>
<circle cx="64.3156" cy="22.1064" r="0.442575" fill="#AEC1D0"/>
<circle cx="57.6769" cy="22.1064" r="0.442575" fill="#AEC1D0"/>
<circle cx="62.1027" cy="24.3193" r="0.442575" fill="#AEC1D0"/>
<circle cx="59.8903" cy="24.3193" r="0.442575" fill="#AEC1D0"/>
<circle cx="64.3156" cy="24.3193" r="0.442575" fill="#AEC1D0"/>
<circle cx="57.6769" cy="24.3193" r="0.442575" fill="#AEC1D0"/>
</g>
<g opacity="0.3">
<circle cx="62.1027" cy="35.3835" r="0.442575" fill="#AEC1D0"/>
<circle cx="59.8903" cy="35.3835" r="0.442575" fill="#AEC1D0"/>
<circle cx="64.3156" cy="35.3835" r="0.442575" fill="#AEC1D0"/>
<circle cx="57.6769" cy="35.3835" r="0.442575" fill="#AEC1D0"/>
<circle cx="62.1027" cy="37.5964" r="0.442575" fill="#AEC1D0"/>
<circle cx="59.8903" cy="37.5964" r="0.442575" fill="#AEC1D0"/>
<circle cx="64.3156" cy="37.5964" r="0.442575" fill="#AEC1D0"/>
<circle cx="57.6769" cy="37.5964" r="0.442575" fill="#AEC1D0"/>
</g>
<g opacity="0.3">
<circle cx="62.1027" cy="48.6608" r="0.442575" fill="#AEC1D0"/>
<circle cx="59.8903" cy="48.6608" r="0.442575" fill="#AEC1D0"/>
<circle cx="64.3156" cy="48.6608" r="0.442575" fill="#AEC1D0"/>
<circle cx="57.6769" cy="48.6608" r="0.442575" fill="#AEC1D0"/>
<circle cx="62.1027" cy="50.8737" r="0.442575" fill="#AEC1D0"/>
<circle cx="59.8903" cy="50.8737" r="0.442575" fill="#AEC1D0"/>
<circle cx="64.3156" cy="50.8737" r="0.442575" fill="#AEC1D0"/>
<circle cx="57.6769" cy="50.8737" r="0.442575" fill="#AEC1D0"/>
</g>
<g opacity="0.3">
<circle cx="62.1027" cy="26.5319" r="0.442575" fill="#AEC1D0"/>
<circle cx="59.8903" cy="26.5319" r="0.442575" fill="#AEC1D0"/>
<circle cx="64.3156" cy="26.5319" r="0.442575" fill="#AEC1D0"/>
<circle cx="57.6769" cy="26.5319" r="0.442575" fill="#AEC1D0"/>
<circle cx="62.1027" cy="28.7448" r="0.442575" fill="#AEC1D0"/>
<circle cx="59.8903" cy="28.7448" r="0.442575" fill="#AEC1D0"/>
<circle cx="64.3156" cy="28.7448" r="0.442575" fill="#AEC1D0"/>
<circle cx="57.6769" cy="28.7448" r="0.442575" fill="#AEC1D0"/>
</g>
<g opacity="0.3">
<circle cx="62.1027" cy="39.8093" r="0.442575" fill="#AEC1D0"/>
<circle cx="59.8903" cy="39.8093" r="0.442575" fill="#AEC1D0"/>
<circle cx="64.3156" cy="39.8093" r="0.442575" fill="#AEC1D0"/>
<circle cx="57.6769" cy="39.8093" r="0.442575" fill="#AEC1D0"/>
<circle cx="62.1027" cy="42.0222" r="0.442575" fill="#AEC1D0"/>
<circle cx="59.8903" cy="42.0222" r="0.442575" fill="#AEC1D0"/>
<circle cx="64.3156" cy="42.0222" r="0.442575" fill="#AEC1D0"/>
<circle cx="57.6769" cy="42.0222" r="0.442575" fill="#AEC1D0"/>
</g>
<g opacity="0.3">
<circle cx="62.1027" cy="53.0864" r="0.442575" fill="#AEC1D0"/>
<circle cx="59.8903" cy="53.0864" r="0.442575" fill="#AEC1D0"/>
<circle cx="64.3156" cy="53.0864" r="0.442575" fill="#AEC1D0"/>
<circle cx="57.6769" cy="53.0864" r="0.442575" fill="#AEC1D0"/>
<circle cx="62.1027" cy="55.2993" r="0.442575" fill="#AEC1D0"/>
<circle cx="59.8903" cy="55.2993" r="0.442575" fill="#AEC1D0"/>
<circle cx="64.3156" cy="55.2993" r="0.442575" fill="#AEC1D0"/>
<circle cx="57.6769" cy="55.2993" r="0.442575" fill="#AEC1D0"/>
</g>
<g opacity="0.3">
<circle cx="62.1027" cy="30.958" r="0.442575" fill="#AEC1D0"/>
<circle cx="59.8903" cy="30.958" r="0.442575" fill="#AEC1D0"/>
<circle cx="64.3156" cy="30.958" r="0.442575" fill="#AEC1D0"/>
<circle cx="57.6769" cy="30.958" r="0.442575" fill="#AEC1D0"/>
<circle cx="62.1027" cy="33.1708" r="0.442575" fill="#AEC1D0"/>
<circle cx="59.8903" cy="33.1708" r="0.442575" fill="#AEC1D0"/>
<circle cx="64.3156" cy="33.1708" r="0.442575" fill="#AEC1D0"/>
<circle cx="57.6769" cy="33.1708" r="0.442575" fill="#AEC1D0"/>
</g>
<g opacity="0.3">
<circle cx="62.1027" cy="44.2351" r="0.442575" fill="#AEC1D0"/>
<circle cx="59.8903" cy="44.2351" r="0.442575" fill="#AEC1D0"/>
<circle cx="64.3156" cy="44.2351" r="0.442575" fill="#AEC1D0"/>
<circle cx="57.6769" cy="44.2353" r="0.442575" fill="#AEC1D0"/>
<circle cx="62.1027" cy="46.4479" r="0.442575" fill="#AEC1D0"/>
<circle cx="59.8903" cy="46.4479" r="0.442575" fill="#AEC1D0"/>
<circle cx="64.3156" cy="46.4479" r="0.442575" fill="#AEC1D0"/>
<circle cx="57.6769" cy="46.4479" r="0.442575" fill="#AEC1D0"/>
</g>
<g opacity="0.3">
<circle cx="62.1027" cy="57.5122" r="0.442575" fill="#AEC1D0"/>
<circle cx="59.8903" cy="57.5122" r="0.442575" fill="#AEC1D0"/>
<circle cx="64.3156" cy="57.5122" r="0.442575" fill="#AEC1D0"/>
<circle cx="57.6769" cy="57.5122" r="0.442575" fill="#AEC1D0"/>
<circle cx="62.1027" cy="59.725" r="0.442575" fill="#AEC1D0"/>
<circle cx="59.8903" cy="59.725" r="0.442575" fill="#AEC1D0"/>
<circle cx="64.3156" cy="59.725" r="0.442575" fill="#AEC1D0"/>
<circle cx="57.6769" cy="59.725" r="0.442575" fill="#AEC1D0"/>
</g>
<g opacity="0.3">
<circle cx="62.1027" cy="61.9379" r="0.442575" fill="#AEC1D0"/>
<circle cx="59.8903" cy="61.9379" r="0.442575" fill="#AEC1D0"/>
<circle cx="64.3156" cy="61.9379" r="0.442575" fill="#AEC1D0"/>
<circle cx="57.6769" cy="61.9379" r="0.442575" fill="#AEC1D0"/>
<circle cx="62.1027" cy="64.1508" r="0.442575" fill="#AEC1D0"/>
<circle cx="59.8903" cy="64.1508" r="0.442575" fill="#AEC1D0"/>
<circle cx="64.3156" cy="64.1508" r="0.442575" fill="#AEC1D0"/>
<circle cx="57.6769" cy="64.1508" r="0.442575" fill="#AEC1D0"/>
</g>
<g opacity="0.3">
<circle cx="62.1027" cy="66.3637" r="0.442575" fill="#AEC1D0"/>
<circle cx="59.8903" cy="66.3637" r="0.442575" fill="#AEC1D0"/>
<circle cx="64.3156" cy="66.3637" r="0.442575" fill="#AEC1D0"/>
<circle cx="57.6769" cy="66.3637" r="0.442575" fill="#AEC1D0"/>
</g>
<g opacity="0.3">
<circle cx="55.4641" cy="22.1064" r="0.442575" fill="#AEC1D0"/>
<circle cx="48.8254" cy="22.1064" r="0.442575" fill="#AEC1D0"/>
<circle cx="42.1877" cy="22.1064" r="0.442575" fill="#AEC1D0"/>
<circle cx="53.2517" cy="22.1064" r="0.442575" fill="#AEC1D0"/>
<circle cx="46.613" cy="22.1064" r="0.442575" fill="#AEC1D0"/>
<circle cx="39.9743" cy="22.1064" r="0.442575" fill="#AEC1D0"/>
<circle cx="51.0388" cy="22.1064" r="0.442575" fill="#AEC1D0"/>
<circle cx="44.4001" cy="22.1064" r="0.442575" fill="#AEC1D0"/>
<circle cx="37.7614" cy="22.1064" r="0.442575" fill="#AEC1D0"/>
<circle cx="55.4641" cy="24.3193" r="0.442575" fill="#AEC1D0"/>
<circle cx="48.8254" cy="24.3193" r="0.442575" fill="#AEC1D0"/>
<circle cx="42.1877" cy="24.3193" r="0.442575" fill="#AEC1D0"/>
<circle cx="53.2517" cy="24.3193" r="0.442575" fill="#AEC1D0"/>
<circle cx="46.613" cy="24.3193" r="0.442575" fill="#AEC1D0"/>
<circle cx="39.9743" cy="24.3193" r="0.442575" fill="#AEC1D0"/>
<circle cx="51.0388" cy="24.3193" r="0.442575" fill="#AEC1D0"/>
<circle cx="44.4001" cy="24.3193" r="0.442575" fill="#AEC1D0"/>
<circle cx="37.7614" cy="24.3193" r="0.442575" fill="#AEC1D0"/>
<circle cx="15.6325" cy="22.1064" r="0.442575" fill="#AEC1D0"/>
<circle cx="8.99433" cy="22.1064" r="0.442575" fill="#AEC1D0"/>
<circle cx="2.35566" cy="22.1064" r="0.442575" fill="#AEC1D0"/>
<circle cx="13.4196" cy="22.1064" r="0.442575" fill="#AEC1D0"/>
<circle cx="6.78095" cy="22.1064" r="0.442575" fill="#AEC1D0"/>
<circle cx="0.142282" cy="22.1064" r="0.442575" fill="#AEC1D0"/>
<circle cx="11.2067" cy="22.1064" r="0.442575" fill="#AEC1D0"/>
<circle cx="4.56806" cy="22.1064" r="0.442575" fill="#AEC1D0"/>
<circle cx="15.6325" cy="24.3193" r="0.442575" fill="#AEC1D0"/>
<circle cx="8.99433" cy="24.3193" r="0.442575" fill="#AEC1D0"/>
<circle cx="2.35566" cy="24.3193" r="0.442575" fill="#AEC1D0"/>
<circle cx="13.4196" cy="24.3193" r="0.442575" fill="#AEC1D0"/>
<circle cx="6.78095" cy="24.3193" r="0.442575" fill="#AEC1D0"/>
<circle cx="0.142282" cy="24.3193" r="0.442575" fill="#AEC1D0"/>
<circle cx="11.2067" cy="24.3193" r="0.442575" fill="#AEC1D0"/>
<circle cx="4.56806" cy="24.3193" r="0.442575" fill="#AEC1D0"/>
<circle cx="35.548" cy="22.1064" r="0.442575" fill="#AEC1D0"/>
<circle cx="28.9099" cy="22.1064" r="0.442575" fill="#AEC1D0"/>
<circle cx="22.2712" cy="22.1064" r="0.442575" fill="#AEC1D0"/>
<circle cx="33.3356" cy="22.1064" r="0.442575" fill="#AEC1D0"/>
<circle cx="26.697" cy="22.1064" r="0.442575" fill="#AEC1D0"/>
<circle cx="20.0583" cy="22.1064" r="0.442575" fill="#AEC1D0"/>
<circle cx="31.1223" cy="22.1064" r="0.442575" fill="#AEC1D0"/>
<circle cx="24.4841" cy="22.1064" r="0.442575" fill="#AEC1D0"/>
<circle cx="17.8454" cy="22.1064" r="0.442575" fill="#AEC1D0"/>
<circle cx="35.548" cy="24.3193" r="0.442575" fill="#AEC1D0"/>
<circle cx="28.9099" cy="24.3193" r="0.442575" fill="#AEC1D0"/>
<circle cx="22.2712" cy="24.3193" r="0.442575" fill="#AEC1D0"/>
<circle cx="33.3356" cy="24.3193" r="0.442575" fill="#AEC1D0"/>
<circle cx="26.697" cy="24.3193" r="0.442575" fill="#AEC1D0"/>
<circle cx="20.0583" cy="24.3193" r="0.442575" fill="#AEC1D0"/>
<circle cx="31.1223" cy="24.3193" r="0.442575" fill="#AEC1D0"/>
<circle cx="24.4841" cy="24.3193" r="0.442575" fill="#AEC1D0"/>
<circle cx="17.8454" cy="24.3193" r="0.442575" fill="#AEC1D0"/>
</g>
<g opacity="0.3">
<circle cx="55.4641" cy="35.3835" r="0.442575" fill="#AEC1D0"/>
<circle cx="48.8254" cy="35.3835" r="0.442575" fill="#AEC1D0"/>
<circle cx="42.1877" cy="35.3835" r="0.442575" fill="#AEC1D0"/>
<circle cx="53.2517" cy="35.3835" r="0.442575" fill="#AEC1D0"/>
<circle cx="46.613" cy="35.3835" r="0.442575" fill="#AEC1D0"/>
<circle cx="39.9743" cy="35.3835" r="0.442575" fill="#AEC1D0"/>
<circle cx="51.0388" cy="35.3835" r="0.442575" fill="#AEC1D0"/>
<circle cx="44.4001" cy="35.3835" r="0.442575" fill="#AEC1D0"/>
<circle cx="37.7614" cy="35.3835" r="0.442575" fill="#AEC1D0"/>
<circle cx="55.4641" cy="37.5964" r="0.442575" fill="#AEC1D0"/>
<circle cx="48.8254" cy="37.5964" r="0.442575" fill="#AEC1D0"/>
<circle cx="42.1877" cy="37.5964" r="0.442575" fill="#AEC1D0"/>
<circle cx="53.2517" cy="37.5964" r="0.442575" fill="#AEC1D0"/>
<circle cx="46.613" cy="37.5964" r="0.442575" fill="#AEC1D0"/>
<circle cx="39.9743" cy="37.5964" r="0.442575" fill="#AEC1D0"/>
<circle cx="51.0388" cy="37.5964" r="0.442575" fill="#AEC1D0"/>
<circle cx="44.4001" cy="37.5964" r="0.442575" fill="#AEC1D0"/>
<circle cx="37.7614" cy="37.5964" r="0.442575" fill="#AEC1D0"/>
<circle cx="15.6325" cy="35.3835" r="0.442575" fill="#AEC1D0"/>
<circle cx="8.99433" cy="35.3835" r="0.442575" fill="#AEC1D0"/>
<circle cx="2.35566" cy="35.3835" r="0.442575" fill="#AEC1D0"/>
<circle cx="13.4196" cy="35.3835" r="0.442575" fill="#AEC1D0"/>
<circle cx="6.78095" cy="35.3835" r="0.442575" fill="#AEC1D0"/>
<circle cx="0.142282" cy="35.3835" r="0.442575" fill="#AEC1D0"/>
<circle cx="11.2067" cy="35.3835" r="0.442575" fill="#AEC1D0"/>
<circle cx="4.56806" cy="35.3835" r="0.442575" fill="#AEC1D0"/>
<circle cx="15.6325" cy="37.5964" r="0.442575" fill="#AEC1D0"/>
<circle cx="8.99433" cy="37.5964" r="0.442575" fill="#AEC1D0"/>
<circle cx="2.35566" cy="37.5964" r="0.442575" fill="#AEC1D0"/>
<circle cx="13.4196" cy="37.5964" r="0.442575" fill="#AEC1D0"/>
<circle cx="6.78095" cy="37.5964" r="0.442575" fill="#AEC1D0"/>
<circle cx="0.142282" cy="37.5964" r="0.442575" fill="#AEC1D0"/>
<circle cx="11.2067" cy="37.5964" r="0.442575" fill="#AEC1D0"/>
<circle cx="4.56806" cy="37.5964" r="0.442575" fill="#AEC1D0"/>
<circle cx="35.548" cy="35.3835" r="0.442575" fill="#AEC1D0"/>
<circle cx="28.9099" cy="35.3835" r="0.442575" fill="#AEC1D0"/>
<circle cx="22.2712" cy="35.3835" r="0.442575" fill="#AEC1D0"/>
<circle cx="33.3356" cy="35.3835" r="0.442575" fill="#AEC1D0"/>
<circle cx="26.697" cy="35.3835" r="0.442575" fill="#AEC1D0"/>
<circle cx="20.0583" cy="35.3835" r="0.442575" fill="#AEC1D0"/>
<circle cx="31.1223" cy="35.3835" r="0.442575" fill="#AEC1D0"/>
<circle cx="24.4841" cy="35.3835" r="0.442575" fill="#AEC1D0"/>
<circle cx="17.8454" cy="35.3835" r="0.442575" fill="#AEC1D0"/>
<circle cx="35.548" cy="37.5964" r="0.442575" fill="#AEC1D0"/>
<circle cx="28.9099" cy="37.5964" r="0.442575" fill="#AEC1D0"/>
<circle cx="22.2712" cy="37.5964" r="0.442575" fill="#AEC1D0"/>
<circle cx="33.3356" cy="37.5964" r="0.442575" fill="#AEC1D0"/>
<circle cx="26.697" cy="37.5964" r="0.442575" fill="#AEC1D0"/>
<circle cx="20.0583" cy="37.5964" r="0.442575" fill="#AEC1D0"/>
<circle cx="31.1223" cy="37.5964" r="0.442575" fill="#AEC1D0"/>
<circle cx="24.4841" cy="37.5964" r="0.442575" fill="#AEC1D0"/>
<circle cx="17.8454" cy="37.5964" r="0.442575" fill="#AEC1D0"/>
</g>
<g opacity="0.3">
<circle cx="55.4641" cy="48.6606" r="0.442575" fill="#AEC1D0"/>
<circle cx="48.8254" cy="48.6606" r="0.442575" fill="#AEC1D0"/>
<circle cx="42.1877" cy="48.6606" r="0.442575" fill="#AEC1D0"/>
<circle cx="53.2517" cy="48.6606" r="0.442575" fill="#AEC1D0"/>
<circle cx="46.613" cy="48.6606" r="0.442575" fill="#AEC1D0"/>
<circle cx="39.9743" cy="48.6606" r="0.442575" fill="#AEC1D0"/>
<circle cx="51.0388" cy="48.6606" r="0.442575" fill="#AEC1D0"/>
<circle cx="44.4001" cy="48.6606" r="0.442575" fill="#AEC1D0"/>
<circle cx="37.7614" cy="48.6606" r="0.442575" fill="#AEC1D0"/>
<circle cx="55.4641" cy="50.8735" r="0.442575" fill="#AEC1D0"/>
<circle cx="48.8254" cy="50.8735" r="0.442575" fill="#AEC1D0"/>
<circle cx="42.1877" cy="50.8735" r="0.442575" fill="#AEC1D0"/>
<circle cx="53.2517" cy="50.8735" r="0.442575" fill="#AEC1D0"/>
<circle cx="46.613" cy="50.8735" r="0.442575" fill="#AEC1D0"/>
<circle cx="39.9743" cy="50.8735" r="0.442575" fill="#AEC1D0"/>
<circle cx="51.0388" cy="50.8735" r="0.442575" fill="#AEC1D0"/>
<circle cx="44.4001" cy="50.8735" r="0.442575" fill="#AEC1D0"/>
<circle cx="37.7614" cy="50.8735" r="0.442575" fill="#AEC1D0"/>
<circle cx="15.6325" cy="48.6606" r="0.442575" fill="#AEC1D0"/>
<circle cx="8.99433" cy="48.6606" r="0.442575" fill="#AEC1D0"/>
<circle cx="2.35566" cy="48.6606" r="0.442575" fill="#AEC1D0"/>
<circle cx="13.4196" cy="48.6606" r="0.442575" fill="#AEC1D0"/>
<circle cx="6.78095" cy="48.6606" r="0.442575" fill="#AEC1D0"/>
<circle cx="0.142282" cy="48.6606" r="0.442575" fill="#AEC1D0"/>
<circle cx="11.2067" cy="48.6606" r="0.442575" fill="#AEC1D0"/>
<circle cx="4.56806" cy="48.6606" r="0.442575" fill="#AEC1D0"/>
<circle cx="15.6325" cy="50.8735" r="0.442575" fill="#AEC1D0"/>
<circle cx="8.99433" cy="50.8735" r="0.442575" fill="#AEC1D0"/>
<circle cx="2.35566" cy="50.8735" r="0.442575" fill="#AEC1D0"/>
<circle cx="13.4196" cy="50.8735" r="0.442575" fill="#AEC1D0"/>
<circle cx="6.78095" cy="50.8735" r="0.442575" fill="#AEC1D0"/>
<circle cx="0.142282" cy="50.8735" r="0.442575" fill="#AEC1D0"/>
<circle cx="11.2067" cy="50.8735" r="0.442575" fill="#AEC1D0"/>
<circle cx="4.56806" cy="50.8735" r="0.442575" fill="#AEC1D0"/>
<circle cx="35.548" cy="48.6606" r="0.442575" fill="#AEC1D0"/>
<circle cx="28.9099" cy="48.6606" r="0.442575" fill="#AEC1D0"/>
<circle cx="22.2712" cy="48.6606" r="0.442575" fill="#AEC1D0"/>
<circle cx="33.3356" cy="48.6606" r="0.442575" fill="#AEC1D0"/>
<circle cx="26.697" cy="48.6606" r="0.442575" fill="#AEC1D0"/>
<circle cx="20.0583" cy="48.6606" r="0.442575" fill="#AEC1D0"/>
<circle cx="31.1223" cy="48.6606" r="0.442575" fill="#AEC1D0"/>
<circle cx="24.4841" cy="48.6606" r="0.442575" fill="#AEC1D0"/>
<circle cx="17.8454" cy="48.6606" r="0.442575" fill="#AEC1D0"/>
<circle cx="35.548" cy="50.8735" r="0.442575" fill="#AEC1D0"/>
<circle cx="28.9099" cy="50.8735" r="0.442575" fill="#AEC1D0"/>
<circle cx="22.2712" cy="50.8735" r="0.442575" fill="#AEC1D0"/>
<circle cx="33.3356" cy="50.8735" r="0.442575" fill="#AEC1D0"/>
<circle cx="26.697" cy="50.8735" r="0.442575" fill="#AEC1D0"/>
<circle cx="20.0583" cy="50.8735" r="0.442575" fill="#AEC1D0"/>
<circle cx="31.1223" cy="50.8735" r="0.442575" fill="#AEC1D0"/>
<circle cx="24.4841" cy="50.8735" r="0.442575" fill="#AEC1D0"/>
<circle cx="17.8454" cy="50.8735" r="0.442575" fill="#AEC1D0"/>
</g>
<g opacity="0.3">
<circle cx="55.4641" cy="26.5319" r="0.442575" fill="#AEC1D0"/>
<circle cx="48.8254" cy="26.5319" r="0.442575" fill="#AEC1D0"/>
<circle cx="42.1877" cy="26.5319" r="0.442575" fill="#AEC1D0"/>
<circle cx="53.2517" cy="26.5319" r="0.442575" fill="#AEC1D0"/>
<circle cx="46.613" cy="26.5319" r="0.442575" fill="#AEC1D0"/>
<circle cx="39.9743" cy="26.5319" r="0.442575" fill="#AEC1D0"/>
<circle cx="51.0388" cy="26.5319" r="0.442575" fill="#AEC1D0"/>
<circle cx="44.4001" cy="26.5319" r="0.442575" fill="#AEC1D0"/>
<circle cx="37.7614" cy="26.5319" r="0.442575" fill="#AEC1D0"/>
<circle cx="55.4641" cy="28.7448" r="0.442575" fill="#AEC1D0"/>
<circle cx="48.8254" cy="28.7448" r="0.442575" fill="#AEC1D0"/>
<circle cx="42.1877" cy="28.7448" r="0.442575" fill="#AEC1D0"/>
<circle cx="53.2517" cy="28.7448" r="0.442575" fill="#AEC1D0"/>
<circle cx="46.613" cy="28.7448" r="0.442575" fill="#AEC1D0"/>
<circle cx="39.9743" cy="28.7448" r="0.442575" fill="#AEC1D0"/>
<circle cx="51.0388" cy="28.7448" r="0.442575" fill="#AEC1D0"/>
<circle cx="44.4001" cy="28.7448" r="0.442575" fill="#AEC1D0"/>
<circle cx="37.7614" cy="28.7448" r="0.442575" fill="#AEC1D0"/>
<circle cx="15.6325" cy="26.5319" r="0.442575" fill="#AEC1D0"/>
<circle cx="8.99433" cy="26.5319" r="0.442575" fill="#AEC1D0"/>
<circle cx="2.35566" cy="26.5319" r="0.442575" fill="#AEC1D0"/>
<circle cx="13.4196" cy="26.5319" r="0.442575" fill="#AEC1D0"/>
<circle cx="6.78095" cy="26.5319" r="0.442575" fill="#AEC1D0"/>
<circle cx="0.142282" cy="26.5319" r="0.442575" fill="#AEC1D0"/>
<circle cx="11.2067" cy="26.5319" r="0.442575" fill="#AEC1D0"/>
<circle cx="4.56806" cy="26.5319" r="0.442575" fill="#AEC1D0"/>
<circle cx="15.6325" cy="28.7448" r="0.442575" fill="#AEC1D0"/>
<circle cx="8.99433" cy="28.7448" r="0.442575" fill="#AEC1D0"/>
<circle cx="2.35566" cy="28.7448" r="0.442575" fill="#AEC1D0"/>
<circle cx="13.4196" cy="28.7448" r="0.442575" fill="#AEC1D0"/>
<circle cx="6.78095" cy="28.7448" r="0.442575" fill="#AEC1D0"/>
<circle cx="0.142282" cy="28.7448" r="0.442575" fill="#AEC1D0"/>
<circle cx="11.2067" cy="28.7448" r="0.442575" fill="#AEC1D0"/>
<circle cx="4.56806" cy="28.7448" r="0.442575" fill="#AEC1D0"/>
<circle cx="35.548" cy="26.5319" r="0.442575" fill="#AEC1D0"/>
<circle cx="28.9099" cy="26.5319" r="0.442575" fill="#AEC1D0"/>
<circle cx="22.2712" cy="26.5319" r="0.442575" fill="#AEC1D0"/>
<circle cx="33.3356" cy="26.5319" r="0.442575" fill="#AEC1D0"/>
<circle cx="26.697" cy="26.5319" r="0.442575" fill="#AEC1D0"/>
<circle cx="20.0583" cy="26.5319" r="0.442575" fill="#AEC1D0"/>
<circle cx="31.1223" cy="26.5319" r="0.442575" fill="#AEC1D0"/>
<circle cx="24.4841" cy="26.5319" r="0.442575" fill="#AEC1D0"/>
<circle cx="17.8454" cy="26.5319" r="0.442575" fill="#AEC1D0"/>
<circle cx="35.548" cy="28.7448" r="0.442575" fill="#AEC1D0"/>
<circle cx="28.9099" cy="28.7448" r="0.442575" fill="#AEC1D0"/>
<circle cx="22.2712" cy="28.7448" r="0.442575" fill="#AEC1D0"/>
<circle cx="33.3356" cy="28.7448" r="0.442575" fill="#AEC1D0"/>
<circle cx="26.697" cy="28.7448" r="0.442575" fill="#AEC1D0"/>
<circle cx="20.0583" cy="28.7448" r="0.442575" fill="#AEC1D0"/>
<circle cx="31.1223" cy="28.7448" r="0.442575" fill="#AEC1D0"/>
<circle cx="24.4841" cy="28.7448" r="0.442575" fill="#AEC1D0"/>
<circle cx="17.8454" cy="28.7448" r="0.442575" fill="#AEC1D0"/>
</g>
<g opacity="0.3">
<circle cx="55.4641" cy="39.8093" r="0.442575" fill="#AEC1D0"/>
<circle cx="48.8254" cy="39.8093" r="0.442575" fill="#AEC1D0"/>
<circle cx="42.1877" cy="39.8093" r="0.442575" fill="#AEC1D0"/>
<circle cx="53.2517" cy="39.8093" r="0.442575" fill="#AEC1D0"/>
<circle cx="46.613" cy="39.8093" r="0.442575" fill="#AEC1D0"/>
<circle cx="39.9743" cy="39.8093" r="0.442575" fill="#AEC1D0"/>
<circle cx="51.0388" cy="39.8093" r="0.442575" fill="#AEC1D0"/>
<circle cx="44.4001" cy="39.8093" r="0.442575" fill="#AEC1D0"/>
<circle cx="37.7614" cy="39.8093" r="0.442575" fill="#AEC1D0"/>
<circle cx="55.4641" cy="42.0222" r="0.442575" fill="#AEC1D0"/>
<circle cx="48.8254" cy="42.0222" r="0.442575" fill="#AEC1D0"/>
<circle cx="42.1877" cy="42.0222" r="0.442575" fill="#AEC1D0"/>
<circle cx="53.2517" cy="42.0222" r="0.442575" fill="#AEC1D0"/>
<circle cx="46.613" cy="42.0222" r="0.442575" fill="#AEC1D0"/>
<circle cx="39.9743" cy="42.0222" r="0.442575" fill="#AEC1D0"/>
<circle cx="51.0388" cy="42.0222" r="0.442575" fill="#AEC1D0"/>
<circle cx="44.4001" cy="42.0222" r="0.442575" fill="#AEC1D0"/>
<circle cx="37.7614" cy="42.0222" r="0.442575" fill="#AEC1D0"/>
<circle cx="15.6325" cy="39.8093" r="0.442575" fill="#AEC1D0"/>
<circle cx="8.99433" cy="39.8093" r="0.442575" fill="#AEC1D0"/>
<circle cx="2.35566" cy="39.8093" r="0.442575" fill="#AEC1D0"/>
<circle cx="13.4196" cy="39.8093" r="0.442575" fill="#AEC1D0"/>
<circle cx="6.78095" cy="39.8093" r="0.442575" fill="#AEC1D0"/>
<circle cx="0.142282" cy="39.8093" r="0.442575" fill="#AEC1D0"/>
<circle cx="11.2067" cy="39.8093" r="0.442575" fill="#AEC1D0"/>
<circle cx="4.56806" cy="39.8093" r="0.442575" fill="#AEC1D0"/>
<circle cx="15.6325" cy="42.0222" r="0.442575" fill="#AEC1D0"/>
<circle cx="8.99433" cy="42.0222" r="0.442575" fill="#AEC1D0"/>
<circle cx="2.35566" cy="42.0222" r="0.442575" fill="#AEC1D0"/>
<circle cx="13.4196" cy="42.0222" r="0.442575" fill="#AEC1D0"/>
<circle cx="6.78095" cy="42.0222" r="0.442575" fill="#AEC1D0"/>
<circle cx="0.142282" cy="42.0222" r="0.442575" fill="#AEC1D0"/>
<circle cx="11.2067" cy="42.0222" r="0.442575" fill="#AEC1D0"/>
<circle cx="4.56806" cy="42.0222" r="0.442575" fill="#AEC1D0"/>
<circle cx="35.548" cy="39.8093" r="0.442575" fill="#AEC1D0"/>
<circle cx="28.9099" cy="39.8093" r="0.442575" fill="#AEC1D0"/>
<circle cx="22.2712" cy="39.8093" r="0.442575" fill="#AEC1D0"/>
<circle cx="33.3356" cy="39.8093" r="0.442575" fill="#AEC1D0"/>
<circle cx="26.697" cy="39.8093" r="0.442575" fill="#AEC1D0"/>
<circle cx="20.0583" cy="39.8093" r="0.442575" fill="#AEC1D0"/>
<circle cx="31.1223" cy="39.8093" r="0.442575" fill="#AEC1D0"/>
<circle cx="24.4841" cy="39.8093" r="0.442575" fill="#AEC1D0"/>
<circle cx="17.8454" cy="39.8093" r="0.442575" fill="#AEC1D0"/>
<circle cx="35.548" cy="42.0222" r="0.442575" fill="#AEC1D0"/>
<circle cx="28.9099" cy="42.0222" r="0.442575" fill="#AEC1D0"/>
<circle cx="22.2712" cy="42.0222" r="0.442575" fill="#AEC1D0"/>
<circle cx="33.3356" cy="42.0222" r="0.442575" fill="#AEC1D0"/>
<circle cx="26.697" cy="42.0222" r="0.442575" fill="#AEC1D0"/>
<circle cx="20.0583" cy="42.0222" r="0.442575" fill="#AEC1D0"/>
<circle cx="31.1223" cy="42.0222" r="0.442575" fill="#AEC1D0"/>
<circle cx="24.4841" cy="42.0222" r="0.442575" fill="#AEC1D0"/>
<circle cx="17.8454" cy="42.0222" r="0.442575" fill="#AEC1D0"/>
</g>
<g opacity="0.3">
<circle cx="55.4641" cy="53.0864" r="0.442575" fill="#AEC1D0"/>
<circle cx="48.8254" cy="53.0864" r="0.442575" fill="#AEC1D0"/>
<circle cx="42.1877" cy="53.0864" r="0.442575" fill="#AEC1D0"/>
<circle cx="53.2517" cy="53.0864" r="0.442575" fill="#AEC1D0"/>
<circle cx="46.613" cy="53.0864" r="0.442575" fill="#AEC1D0"/>
<circle cx="39.9743" cy="53.0864" r="0.442575" fill="#AEC1D0"/>
<circle cx="51.0388" cy="53.0864" r="0.442575" fill="#AEC1D0"/>
<circle cx="44.4001" cy="53.0864" r="0.442575" fill="#AEC1D0"/>
<circle cx="37.7614" cy="53.0864" r="0.442575" fill="#AEC1D0"/>
<circle cx="55.4641" cy="55.2993" r="0.442575" fill="#AEC1D0"/>
<circle cx="48.8254" cy="55.2993" r="0.442575" fill="#AEC1D0"/>
<circle cx="42.1877" cy="55.2993" r="0.442575" fill="#AEC1D0"/>
<circle cx="53.2517" cy="55.2993" r="0.442575" fill="#AEC1D0"/>
<circle cx="46.613" cy="55.2993" r="0.442575" fill="#AEC1D0"/>
<circle cx="39.9743" cy="55.2993" r="0.442575" fill="#AEC1D0"/>
<circle cx="51.0388" cy="55.2993" r="0.442575" fill="#AEC1D0"/>
<circle cx="44.4001" cy="55.2993" r="0.442575" fill="#AEC1D0"/>
<circle cx="37.7614" cy="55.2993" r="0.442575" fill="#AEC1D0"/>
<circle cx="15.6325" cy="53.0864" r="0.442575" fill="#AEC1D0"/>
<circle cx="8.99433" cy="53.0864" r="0.442575" fill="#AEC1D0"/>
<circle cx="2.35566" cy="53.0864" r="0.442575" fill="#AEC1D0"/>
<circle cx="13.4196" cy="53.0864" r="0.442575" fill="#AEC1D0"/>
<circle cx="6.78095" cy="53.0864" r="0.442575" fill="#AEC1D0"/>
<circle cx="0.142282" cy="53.0864" r="0.442575" fill="#AEC1D0"/>
<circle cx="11.2067" cy="53.0864" r="0.442575" fill="#AEC1D0"/>
<circle cx="4.56806" cy="53.0864" r="0.442575" fill="#AEC1D0"/>
<circle cx="15.6325" cy="55.2993" r="0.442575" fill="#AEC1D0"/>
<circle cx="8.99433" cy="55.2993" r="0.442575" fill="#AEC1D0"/>
<circle cx="2.35566" cy="55.2993" r="0.442575" fill="#AEC1D0"/>
<circle cx="13.4196" cy="55.2993" r="0.442575" fill="#AEC1D0"/>
<circle cx="6.78095" cy="55.2993" r="0.442575" fill="#AEC1D0"/>
<circle cx="0.142282" cy="55.2993" r="0.442575" fill="#AEC1D0"/>
<circle cx="11.2067" cy="55.2993" r="0.442575" fill="#AEC1D0"/>
<circle cx="4.56806" cy="55.2993" r="0.442575" fill="#AEC1D0"/>
<circle cx="35.548" cy="53.0864" r="0.442575" fill="#AEC1D0"/>
<circle cx="28.9099" cy="53.0864" r="0.442575" fill="#AEC1D0"/>
<circle cx="22.2712" cy="53.0864" r="0.442575" fill="#AEC1D0"/>
<circle cx="33.3356" cy="53.0864" r="0.442575" fill="#AEC1D0"/>
<circle cx="26.697" cy="53.0864" r="0.442575" fill="#AEC1D0"/>
<circle cx="20.0583" cy="53.0864" r="0.442575" fill="#AEC1D0"/>
<circle cx="31.1223" cy="53.0864" r="0.442575" fill="#AEC1D0"/>
<circle cx="24.4841" cy="53.0864" r="0.442575" fill="#AEC1D0"/>
<circle cx="17.8454" cy="53.0864" r="0.442575" fill="#AEC1D0"/>
<circle cx="35.548" cy="55.2993" r="0.442575" fill="#AEC1D0"/>
<circle cx="28.9099" cy="55.2993" r="0.442575" fill="#AEC1D0"/>
<circle cx="22.2712" cy="55.2993" r="0.442575" fill="#AEC1D0"/>
<circle cx="33.3356" cy="55.2993" r="0.442575" fill="#AEC1D0"/>
<circle cx="26.697" cy="55.2993" r="0.442575" fill="#AEC1D0"/>
<circle cx="20.0583" cy="55.2993" r="0.442575" fill="#AEC1D0"/>
<circle cx="31.1223" cy="55.2993" r="0.442575" fill="#AEC1D0"/>
<circle cx="24.4841" cy="55.2993" r="0.442575" fill="#AEC1D0"/>
<circle cx="17.8454" cy="55.2993" r="0.442575" fill="#AEC1D0"/>
</g>
<g opacity="0.3">
<circle cx="55.4641" cy="30.9577" r="0.442575" fill="#AEC1D0"/>
<circle cx="48.8254" cy="30.9577" r="0.442575" fill="#AEC1D0"/>
<circle cx="42.1877" cy="30.9577" r="0.442575" fill="#AEC1D0"/>
<circle cx="53.2517" cy="30.9577" r="0.442575" fill="#AEC1D0"/>
<circle cx="46.613" cy="30.9577" r="0.442575" fill="#AEC1D0"/>
<circle cx="39.9743" cy="30.9577" r="0.442575" fill="#AEC1D0"/>
<circle cx="51.0388" cy="30.9577" r="0.442575" fill="#AEC1D0"/>
<circle cx="44.4001" cy="30.9577" r="0.442575" fill="#AEC1D0"/>
<circle cx="37.7614" cy="30.9577" r="0.442575" fill="#AEC1D0"/>
<circle cx="55.4641" cy="33.1706" r="0.442575" fill="#AEC1D0"/>
<circle cx="48.8254" cy="33.1706" r="0.442575" fill="#AEC1D0"/>
<circle cx="42.1877" cy="33.1706" r="0.442575" fill="#AEC1D0"/>
<circle cx="53.2517" cy="33.1706" r="0.442575" fill="#AEC1D0"/>
<circle cx="46.613" cy="33.1706" r="0.442575" fill="#AEC1D0"/>
<circle cx="39.9743" cy="33.1706" r="0.442575" fill="#AEC1D0"/>
<circle cx="51.0388" cy="33.1706" r="0.442575" fill="#AEC1D0"/>
<circle cx="44.4001" cy="33.1706" r="0.442575" fill="#AEC1D0"/>
<circle cx="37.7614" cy="33.1706" r="0.442575" fill="#AEC1D0"/>
<circle cx="15.6325" cy="30.9577" r="0.442575" fill="#AEC1D0"/>
<circle cx="8.99433" cy="30.9577" r="0.442575" fill="#AEC1D0"/>
<circle cx="2.35566" cy="30.9577" r="0.442575" fill="#AEC1D0"/>
<circle cx="13.4196" cy="30.9577" r="0.442575" fill="#AEC1D0"/>
<circle cx="6.78095" cy="30.9577" r="0.442575" fill="#AEC1D0"/>
<circle cx="0.142282" cy="30.9577" r="0.442575" fill="#AEC1D0"/>
<circle cx="11.2067" cy="30.9577" r="0.442575" fill="#AEC1D0"/>
<circle cx="4.56806" cy="30.9577" r="0.442575" fill="#AEC1D0"/>
<circle cx="15.6325" cy="33.1706" r="0.442575" fill="#AEC1D0"/>
<circle cx="8.99433" cy="33.1706" r="0.442575" fill="#AEC1D0"/>
<circle cx="2.35566" cy="33.1706" r="0.442575" fill="#AEC1D0"/>
<circle cx="13.4196" cy="33.1706" r="0.442575" fill="#AEC1D0"/>
<circle cx="6.78095" cy="33.1706" r="0.442575" fill="#AEC1D0"/>
<circle cx="0.142282" cy="33.1706" r="0.442575" fill="#AEC1D0"/>
<circle cx="11.2067" cy="33.1706" r="0.442575" fill="#AEC1D0"/>
<circle cx="4.56806" cy="33.1706" r="0.442575" fill="#AEC1D0"/>
<circle cx="35.548" cy="30.9577" r="0.442575" fill="#AEC1D0"/>
<circle cx="28.9099" cy="30.9577" r="0.442575" fill="#AEC1D0"/>
<circle cx="22.2712" cy="30.9577" r="0.442575" fill="#AEC1D0"/>
<circle cx="33.3356" cy="30.9577" r="0.442575" fill="#AEC1D0"/>
<circle cx="26.697" cy="30.9577" r="0.442575" fill="#AEC1D0"/>
<circle cx="20.0583" cy="30.9577" r="0.442575" fill="#AEC1D0"/>
<circle cx="31.1223" cy="30.9577" r="0.442575" fill="#AEC1D0"/>
<circle cx="24.4841" cy="30.9577" r="0.442575" fill="#AEC1D0"/>
<circle cx="17.8454" cy="30.9577" r="0.442575" fill="#AEC1D0"/>
<circle cx="35.548" cy="33.1706" r="0.442575" fill="#AEC1D0"/>
<circle cx="28.9099" cy="33.1706" r="0.442575" fill="#AEC1D0"/>
<circle cx="22.2712" cy="33.1706" r="0.442575" fill="#AEC1D0"/>
<circle cx="33.3356" cy="33.1706" r="0.442575" fill="#AEC1D0"/>
<circle cx="26.697" cy="33.1706" r="0.442575" fill="#AEC1D0"/>
<circle cx="20.0583" cy="33.1706" r="0.442575" fill="#AEC1D0"/>
<circle cx="31.1223" cy="33.1706" r="0.442575" fill="#AEC1D0"/>
<circle cx="24.4841" cy="33.1706" r="0.442575" fill="#AEC1D0"/>
<circle cx="17.8454" cy="33.1706" r="0.442575" fill="#AEC1D0"/>
</g>
<g opacity="0.3">
<circle cx="55.4641" cy="44.2351" r="0.442575" fill="#AEC1D0"/>
<circle cx="48.8254" cy="44.2351" r="0.442575" fill="#AEC1D0"/>
<circle cx="42.1877" cy="44.2351" r="0.442575" fill="#AEC1D0"/>
<circle cx="53.2517" cy="44.2351" r="0.442575" fill="#AEC1D0"/>
<circle cx="46.613" cy="44.2351" r="0.442575" fill="#AEC1D0"/>
<circle cx="39.9743" cy="44.2351" r="0.442575" fill="#AEC1D0"/>
<circle cx="51.0388" cy="44.2351" r="0.442575" fill="#AEC1D0"/>
<circle cx="44.4001" cy="44.2351" r="0.442575" fill="#AEC1D0"/>
<circle cx="37.7614" cy="44.2351" r="0.442575" fill="#AEC1D0"/>
<circle cx="55.4641" cy="46.4479" r="0.442575" fill="#AEC1D0"/>
<circle cx="48.8254" cy="46.4479" r="0.442575" fill="#AEC1D0"/>
<circle cx="42.1877" cy="46.4479" r="0.442575" fill="#AEC1D0"/>
<circle cx="53.2517" cy="46.4479" r="0.442575" fill="#AEC1D0"/>
<circle cx="46.613" cy="46.4479" r="0.442575" fill="#AEC1D0"/>
<circle cx="39.9743" cy="46.4479" r="0.442575" fill="#AEC1D0"/>
<circle cx="51.0388" cy="46.4479" r="0.442575" fill="#AEC1D0"/>
<circle cx="44.4001" cy="46.4479" r="0.442575" fill="#AEC1D0"/>
<circle cx="37.7614" cy="46.4479" r="0.442575" fill="#AEC1D0"/>
<circle cx="15.6325" cy="44.2348" r="0.442575" fill="#AEC1D0"/>
<circle cx="8.99433" cy="44.2348" r="0.442575" fill="#AEC1D0"/>
<circle cx="2.35566" cy="44.2348" r="0.442575" fill="#AEC1D0"/>
<circle cx="13.4196" cy="44.2348" r="0.442575" fill="#AEC1D0"/>
<circle cx="6.78095" cy="44.2348" r="0.442575" fill="#AEC1D0"/>
<circle cx="0.142282" cy="44.2348" r="0.442575" fill="#AEC1D0"/>
<circle cx="11.2067" cy="44.2348" r="0.442575" fill="#AEC1D0"/>
<circle cx="4.56806" cy="44.2348" r="0.442575" fill="#AEC1D0"/>
<circle cx="15.6325" cy="46.4477" r="0.442575" fill="#AEC1D0"/>
<circle cx="8.99433" cy="46.4477" r="0.442575" fill="#AEC1D0"/>
<circle cx="2.35566" cy="46.4477" r="0.442575" fill="#AEC1D0"/>
<circle cx="13.4196" cy="46.4477" r="0.442575" fill="#AEC1D0"/>
<circle cx="6.78095" cy="46.4477" r="0.442575" fill="#AEC1D0"/>
<circle cx="0.142282" cy="46.4477" r="0.442575" fill="#AEC1D0"/>
<circle cx="11.2067" cy="46.4477" r="0.442575" fill="#AEC1D0"/>
<circle cx="4.56806" cy="46.4477" r="0.442575" fill="#AEC1D0"/>
<circle cx="35.548" cy="44.2351" r="0.442575" fill="#AEC1D0"/>
<circle cx="28.9099" cy="44.2351" r="0.442575" fill="#AEC1D0"/>
<circle cx="22.2712" cy="44.2351" r="0.442575" fill="#AEC1D0"/>
<circle cx="33.3356" cy="44.2351" r="0.442575" fill="#AEC1D0"/>
<circle cx="26.697" cy="44.2351" r="0.442575" fill="#AEC1D0"/>
<circle cx="20.0583" cy="44.2351" r="0.442575" fill="#AEC1D0"/>
<circle cx="31.1223" cy="44.2351" r="0.442575" fill="#AEC1D0"/>
<circle cx="24.4841" cy="44.2351" r="0.442575" fill="#AEC1D0"/>
<circle cx="17.8454" cy="44.2351" r="0.442575" fill="#AEC1D0"/>
<circle cx="35.548" cy="46.4479" r="0.442575" fill="#AEC1D0"/>
<circle cx="28.9099" cy="46.4479" r="0.442575" fill="#AEC1D0"/>
<circle cx="22.2712" cy="46.4479" r="0.442575" fill="#AEC1D0"/>
<circle cx="33.3356" cy="46.4479" r="0.442575" fill="#AEC1D0"/>
<circle cx="26.697" cy="46.4479" r="0.442575" fill="#AEC1D0"/>
<circle cx="20.0583" cy="46.4479" r="0.442575" fill="#AEC1D0"/>
<circle cx="31.1223" cy="46.4479" r="0.442575" fill="#AEC1D0"/>
<circle cx="24.4841" cy="46.4479" r="0.442575" fill="#AEC1D0"/>
<circle cx="17.8454" cy="46.4479" r="0.442575" fill="#AEC1D0"/>
</g>
<g opacity="0.3">
<circle cx="55.4641" cy="57.5124" r="0.442575" fill="#AEC1D0"/>
<circle cx="48.8254" cy="57.5124" r="0.442575" fill="#AEC1D0"/>
<circle cx="42.1877" cy="57.5124" r="0.442575" fill="#AEC1D0"/>
<circle cx="53.2517" cy="57.5124" r="0.442575" fill="#AEC1D0"/>
<circle cx="46.613" cy="57.5124" r="0.442575" fill="#AEC1D0"/>
<circle cx="39.9743" cy="57.5124" r="0.442575" fill="#AEC1D0"/>
<circle cx="51.0388" cy="57.5124" r="0.442575" fill="#AEC1D0"/>
<circle cx="44.4001" cy="57.5124" r="0.442575" fill="#AEC1D0"/>
<circle cx="37.7614" cy="57.5124" r="0.442575" fill="#AEC1D0"/>
<circle cx="55.4641" cy="59.7253" r="0.442575" fill="#AEC1D0"/>
<circle cx="48.8254" cy="59.7253" r="0.442575" fill="#AEC1D0"/>
<circle cx="42.1877" cy="59.7253" r="0.442575" fill="#AEC1D0"/>
<circle cx="53.2517" cy="59.7253" r="0.442575" fill="#AEC1D0"/>
<circle cx="46.613" cy="59.7253" r="0.442575" fill="#AEC1D0"/>
<circle cx="39.9743" cy="59.7253" r="0.442575" fill="#AEC1D0"/>
<circle cx="51.0388" cy="59.7253" r="0.442575" fill="#AEC1D0"/>
<circle cx="44.4001" cy="59.7253" r="0.442575" fill="#AEC1D0"/>
<circle cx="37.7614" cy="59.7253" r="0.442575" fill="#AEC1D0"/>
<circle cx="15.6325" cy="57.5124" r="0.442575" fill="#AEC1D0"/>
<circle cx="8.99433" cy="57.5124" r="0.442575" fill="#AEC1D0"/>
<circle cx="2.35566" cy="57.5124" r="0.442575" fill="#AEC1D0"/>
<circle cx="13.4196" cy="57.5124" r="0.442575" fill="#AEC1D0"/>
<circle cx="6.78095" cy="57.5124" r="0.442575" fill="#AEC1D0"/>
<circle cx="0.142282" cy="57.5124" r="0.442575" fill="#AEC1D0"/>
<circle cx="11.2067" cy="57.5124" r="0.442575" fill="#AEC1D0"/>
<circle cx="4.56806" cy="57.5124" r="0.442575" fill="#AEC1D0"/>
<circle cx="15.6325" cy="59.7253" r="0.442575" fill="#AEC1D0"/>
<circle cx="8.99433" cy="59.7253" r="0.442575" fill="#AEC1D0"/>
<circle cx="2.35566" cy="59.7253" r="0.442575" fill="#AEC1D0"/>
<circle cx="13.4196" cy="59.7253" r="0.442575" fill="#AEC1D0"/>
<circle cx="6.78095" cy="59.7253" r="0.442575" fill="#AEC1D0"/>
<circle cx="0.142282" cy="59.7253" r="0.442575" fill="#AEC1D0"/>
<circle cx="11.2067" cy="59.7253" r="0.442575" fill="#AEC1D0"/>
<circle cx="4.56806" cy="59.7253" r="0.442575" fill="#AEC1D0"/>
<circle cx="35.548" cy="57.5124" r="0.442575" fill="#AEC1D0"/>
<circle cx="28.9099" cy="57.5124" r="0.442575" fill="#AEC1D0"/>
<circle cx="22.2712" cy="57.5124" r="0.442575" fill="#AEC1D0"/>
<circle cx="33.3356" cy="57.5124" r="0.442575" fill="#AEC1D0"/>
<circle cx="26.697" cy="57.5124" r="0.442575" fill="#AEC1D0"/>
<circle cx="20.0583" cy="57.5124" r="0.442575" fill="#AEC1D0"/>
<circle cx="31.1223" cy="57.5124" r="0.442575" fill="#AEC1D0"/>
<circle cx="24.4841" cy="57.5124" r="0.442575" fill="#AEC1D0"/>
<circle cx="17.8454" cy="57.5124" r="0.442575" fill="#AEC1D0"/>
<circle cx="35.548" cy="59.7253" r="0.442575" fill="#AEC1D0"/>
<circle cx="28.9099" cy="59.7253" r="0.442575" fill="#AEC1D0"/>
<circle cx="22.2712" cy="59.7253" r="0.442575" fill="#AEC1D0"/>
<circle cx="33.3356" cy="59.7253" r="0.442575" fill="#AEC1D0"/>
<circle cx="26.697" cy="59.7253" r="0.442575" fill="#AEC1D0"/>
<circle cx="20.0583" cy="59.7253" r="0.442575" fill="#AEC1D0"/>
<circle cx="31.1223" cy="59.7253" r="0.442575" fill="#AEC1D0"/>
<circle cx="24.4841" cy="59.7253" r="0.442575" fill="#AEC1D0"/>
<circle cx="17.8454" cy="59.7253" r="0.442575" fill="#AEC1D0"/>
</g>
<g opacity="0.3">
<circle cx="55.4641" cy="61.9382" r="0.442575" fill="#AEC1D0"/>
<circle cx="48.8254" cy="61.9382" r="0.442575" fill="#AEC1D0"/>
<circle cx="42.1867" cy="61.9382" r="0.442575" fill="#AEC1D0"/>
<circle cx="53.2512" cy="61.9382" r="0.442575" fill="#AEC1D0"/>
<circle cx="46.6125" cy="61.9382" r="0.442575" fill="#AEC1D0"/>
<circle cx="39.9738" cy="61.9382" r="0.442575" fill="#AEC1D0"/>
<circle cx="51.0383" cy="61.9382" r="0.442575" fill="#AEC1D0"/>
<circle cx="44.3996" cy="61.9382" r="0.442575" fill="#AEC1D0"/>
<circle cx="37.7609" cy="61.9382" r="0.442575" fill="#AEC1D0"/>
<circle cx="55.4641" cy="64.1511" r="0.442575" fill="#AEC1D0"/>
<circle cx="48.8254" cy="64.1511" r="0.442575" fill="#AEC1D0"/>
<circle cx="42.1867" cy="64.1511" r="0.442575" fill="#AEC1D0"/>
<circle cx="53.2512" cy="64.1511" r="0.442575" fill="#AEC1D0"/>
<circle cx="46.6125" cy="64.1511" r="0.442575" fill="#AEC1D0"/>
<circle cx="39.9738" cy="64.1511" r="0.442575" fill="#AEC1D0"/>
<circle cx="51.0383" cy="64.1511" r="0.442575" fill="#AEC1D0"/>
<circle cx="44.3996" cy="64.1511" r="0.442575" fill="#AEC1D0"/>
<circle cx="37.7609" cy="64.1511" r="0.442575" fill="#AEC1D0"/>
<circle cx="15.6325" cy="61.9382" r="0.442575" fill="#AEC1D0"/>
<circle cx="8.99433" cy="61.9382" r="0.442575" fill="#AEC1D0"/>
<circle cx="2.35566" cy="61.9382" r="0.442575" fill="#AEC1D0"/>
<circle cx="13.4196" cy="61.9382" r="0.442575" fill="#AEC1D0"/>
<circle cx="6.78095" cy="61.9382" r="0.442575" fill="#AEC1D0"/>
<circle cx="0.142282" cy="61.9382" r="0.442575" fill="#AEC1D0"/>
<circle cx="11.2067" cy="61.9382" r="0.442575" fill="#AEC1D0"/>
<circle cx="4.56806" cy="61.9382" r="0.442575" fill="#AEC1D0"/>
<circle cx="15.6325" cy="64.1511" r="0.442575" fill="#AEC1D0"/>
<circle cx="8.99433" cy="64.1511" r="0.442575" fill="#AEC1D0"/>
<circle cx="2.35566" cy="64.1511" r="0.442575" fill="#AEC1D0"/>
<circle cx="13.4196" cy="64.1511" r="0.442575" fill="#AEC1D0"/>
<circle cx="6.78095" cy="64.1511" r="0.442575" fill="#AEC1D0"/>
<circle cx="0.142282" cy="64.1511" r="0.442575" fill="#AEC1D0"/>
<circle cx="11.2067" cy="64.1511" r="0.442575" fill="#AEC1D0"/>
<circle cx="4.56806" cy="64.1511" r="0.442575" fill="#AEC1D0"/>
<circle cx="35.548" cy="61.9382" r="0.442575" fill="#AEC1D0"/>
<circle cx="28.9099" cy="61.9382" r="0.442575" fill="#AEC1D0"/>
<circle cx="22.2712" cy="61.9382" r="0.442575" fill="#AEC1D0"/>
<circle cx="33.3356" cy="61.9382" r="0.442575" fill="#AEC1D0"/>
<circle cx="26.697" cy="61.9382" r="0.442575" fill="#AEC1D0"/>
<circle cx="20.0583" cy="61.9382" r="0.442575" fill="#AEC1D0"/>
<circle cx="31.1228" cy="61.9382" r="0.442575" fill="#AEC1D0"/>
<circle cx="24.4841" cy="61.9382" r="0.442575" fill="#AEC1D0"/>
<circle cx="17.8454" cy="61.9382" r="0.442575" fill="#AEC1D0"/>
<circle cx="35.548" cy="64.1511" r="0.442575" fill="#AEC1D0"/>
<circle cx="28.9099" cy="64.1511" r="0.442575" fill="#AEC1D0"/>
<circle cx="22.2712" cy="64.1511" r="0.442575" fill="#AEC1D0"/>
<circle cx="33.3356" cy="64.1511" r="0.442575" fill="#AEC1D0"/>
<circle cx="26.697" cy="64.1511" r="0.442575" fill="#AEC1D0"/>
<circle cx="20.0583" cy="64.1511" r="0.442575" fill="#AEC1D0"/>
<circle cx="31.1228" cy="64.1511" r="0.442575" fill="#AEC1D0"/>
<circle cx="24.4841" cy="64.1511" r="0.442575" fill="#AEC1D0"/>
<circle cx="17.8454" cy="64.1511" r="0.442575" fill="#AEC1D0"/>
</g>
<g opacity="0.3">
<circle cx="55.4641" cy="66.364" r="0.442575" fill="#AEC1D0"/>
<circle cx="48.8254" cy="66.364" r="0.442575" fill="#AEC1D0"/>
<circle cx="42.1867" cy="66.364" r="0.442575" fill="#AEC1D0"/>
<circle cx="53.2512" cy="66.364" r="0.442575" fill="#AEC1D0"/>
<circle cx="46.6125" cy="66.364" r="0.442575" fill="#AEC1D0"/>
<circle cx="39.9738" cy="66.364" r="0.442575" fill="#AEC1D0"/>
<circle cx="51.0383" cy="66.364" r="0.442575" fill="#AEC1D0"/>
<circle cx="44.3996" cy="66.364" r="0.442575" fill="#AEC1D0"/>
<circle cx="37.7609" cy="66.364" r="0.442575" fill="#AEC1D0"/>
<circle cx="15.6325" cy="66.3637" r="0.442575" fill="#AEC1D0"/>
<circle cx="8.99433" cy="66.3637" r="0.442575" fill="#AEC1D0"/>
<circle cx="2.35566" cy="66.3637" r="0.442575" fill="#AEC1D0"/>
<circle cx="13.4196" cy="66.3637" r="0.442575" fill="#AEC1D0"/>
<circle cx="6.78095" cy="66.3637" r="0.442575" fill="#AEC1D0"/>
<circle cx="0.142282" cy="66.3637" r="0.442575" fill="#AEC1D0"/>
<circle cx="11.2067" cy="66.3637" r="0.442575" fill="#AEC1D0"/>
<circle cx="4.56806" cy="66.3637" r="0.442575" fill="#AEC1D0"/>
<circle cx="35.548" cy="66.3637" r="0.442575" fill="#AEC1D0"/>
<circle cx="28.9099" cy="66.3637" r="0.442575" fill="#AEC1D0"/>
<circle cx="22.2712" cy="66.3637" r="0.442575" fill="#AEC1D0"/>
<circle cx="33.3356" cy="66.3637" r="0.442575" fill="#AEC1D0"/>
<circle cx="26.697" cy="66.3637" r="0.442575" fill="#AEC1D0"/>
<circle cx="20.0583" cy="66.3637" r="0.442575" fill="#AEC1D0"/>
<circle cx="31.1228" cy="66.3637" r="0.442575" fill="#AEC1D0"/>
<circle cx="24.4841" cy="66.3637" r="0.442575" fill="#AEC1D0"/>
<circle cx="17.8454" cy="66.3637" r="0.442575" fill="#AEC1D0"/>
</g>
</g>
</svg>
