<svg width="109" height="7" viewBox="0 0 109 7" fill="none" xmlns="http://www.w3.org/2000/svg">
<circle cx="99.5594" cy="0.858268" r="0.858268" fill="#E4E6E9"/>
<circle cx="86.6849" cy="0.858268" r="0.858268" fill="#E4E6E9"/>
<circle cx="108.142" cy="0.858268" r="0.858268" fill="#E4E6E9"/>
<circle cx="95.2679" cy="0.858268" r="0.858268" fill="#E4E6E9"/>
<circle cx="82.3939" cy="0.858268" r="0.858268" fill="#E4E6E9"/>
<circle cx="103.85" cy="0.858268" r="0.858268" fill="#E4E6E9"/>
<circle cx="90.9764" cy="0.858268" r="0.858268" fill="#E4E6E9"/>
<circle cx="78.1024" cy="0.858268" r="0.858268" fill="#E4E6E9"/>
<circle cx="99.5594" cy="5.14928" r="0.858268" fill="#E4E6E9"/>
<circle cx="86.6849" cy="5.14928" r="0.858268" fill="#E4E6E9"/>
<circle cx="108.142" cy="5.14928" r="0.858268" fill="#E4E6E9"/>
<circle cx="95.2679" cy="5.14928" r="0.858268" fill="#E4E6E9"/>
<circle cx="82.3939" cy="5.14928" r="0.858268" fill="#E4E6E9"/>
<circle cx="103.85" cy="5.14928" r="0.858268" fill="#E4E6E9"/>
<circle cx="90.9764" cy="5.14928" r="0.858268" fill="#E4E6E9"/>
<circle cx="78.1024" cy="5.14928" r="0.858268" fill="#E4E6E9"/>
<circle cx="35.1888" cy="0.858268" r="0.858268" fill="#E4E6E9"/>
<circle cx="22.3153" cy="0.858268" r="0.858268" fill="#E4E6E9"/>
<circle cx="9.44079" cy="0.858268" r="0.858268" fill="#E4E6E9"/>
<circle cx="30.8978" cy="0.858268" r="0.858268" fill="#E4E6E9"/>
<circle cx="18.0238" cy="0.858268" r="0.858268" fill="#E4E6E9"/>
<circle cx="5.14977" cy="0.858268" r="0.858268" fill="#E4E6E9"/>
<circle cx="26.6063" cy="0.858268" r="0.858268" fill="#E4E6E9"/>
<circle cx="13.7323" cy="0.858268" r="0.858268" fill="#E4E6E9"/>
<circle cx="0.858268" cy="0.858268" r="0.858268" fill="#E4E6E9"/>
<circle cx="35.1888" cy="5.14928" r="0.858268" fill="#E4E6E9"/>
<circle cx="22.3153" cy="5.14928" r="0.858268" fill="#E4E6E9"/>
<circle cx="9.44079" cy="5.14928" r="0.858268" fill="#E4E6E9"/>
<circle cx="30.8978" cy="5.14928" r="0.858268" fill="#E4E6E9"/>
<circle cx="18.0238" cy="5.14928" r="0.858268" fill="#E4E6E9"/>
<circle cx="5.14977" cy="5.14928" r="0.858268" fill="#E4E6E9"/>
<circle cx="26.6063" cy="5.14928" r="0.858268" fill="#E4E6E9"/>
<circle cx="13.7323" cy="5.14928" r="0.858268" fill="#E4E6E9"/>
<circle cx="0.858268" cy="5.14928" r="0.858268" fill="#E4E6E9"/>
<circle cx="73.8109" cy="0.858268" r="0.858268" fill="#E4E6E9"/>
<circle cx="60.9374" cy="0.858268" r="0.858268" fill="#E4E6E9"/>
<circle cx="48.0629" cy="0.858268" r="0.858268" fill="#E4E6E9"/>
<circle cx="69.5199" cy="0.858268" r="0.858268" fill="#E4E6E9"/>
<circle cx="56.6459" cy="0.858268" r="0.858268" fill="#E4E6E9"/>
<circle cx="43.7718" cy="0.858268" r="0.858268" fill="#E4E6E9"/>
<circle cx="65.2284" cy="0.858268" r="0.858268" fill="#E4E6E9"/>
<circle cx="52.3544" cy="0.858268" r="0.858268" fill="#E4E6E9"/>
<circle cx="39.4803" cy="0.858268" r="0.858268" fill="#E4E6E9"/>
<circle cx="73.8109" cy="5.14928" r="0.858268" fill="#E4E6E9"/>
<circle cx="60.9374" cy="5.14928" r="0.858268" fill="#E4E6E9"/>
<circle cx="48.0629" cy="5.14928" r="0.858268" fill="#E4E6E9"/>
<circle cx="69.5199" cy="5.14928" r="0.858268" fill="#E4E6E9"/>
<circle cx="56.6459" cy="5.14928" r="0.858268" fill="#E4E6E9"/>
<circle cx="43.7718" cy="5.14928" r="0.858268" fill="#E4E6E9"/>
<circle cx="65.2284" cy="5.14928" r="0.858268" fill="#E4E6E9"/>
<circle cx="52.3544" cy="5.14928" r="0.858268" fill="#E4E6E9"/>
<circle cx="39.4803" cy="5.14928" r="0.858268" fill="#E4E6E9"/>
</svg>
