<?xml version="1.0" encoding="utf-8"?>
<!-- Generator: Adobe Illustrator 24.1.2, SVG Export Plug-In . SVG Version: 6.00 Build 0)  -->
<svg version="1.1" id="Layer_1" xmlns="http://www.w3.org/2000/svg" xmlns:xlink="http://www.w3.org/1999/xlink" x="0px" y="0px"
	 viewBox="0 0 170.4 165.8" style="enable-background:new 0 0 170.4 165.8;" xml:space="preserve">
<style type="text/css">
	.st0{fill-rule:evenodd;clip-rule:evenodd;fill:#FFFFFF;filter:url(#Adobe_OpacityMaskFilter);}
	.st1{mask:url(#mask0_1_);}
	.st2{fill-rule:evenodd;clip-rule:evenodd;}
</style>
<defs>
	<filter id="Adobe_OpacityMaskFilter" filterUnits="userSpaceOnUse" x="0" y="0" width="170.4" height="137.3">
		<feColorMatrix  type="matrix" values="1 0 0 0 0  0 1 0 0 0  0 0 1 0 0  0 0 0 1 0"/>
	</filter>
</defs>
<mask maskUnits="userSpaceOnUse" x="0" y="0" width="170.4" height="137.3" id="mask0_1_">
	<path class="st0" d="M0,0h170.4v137.3H0V0z"/>
</mask>
<g class="st1">
	<path class="st2" d="M20,132.2c-5.1-10.8-7.9-22.9-7.9-35.7c0-46.6,37.8-84.4,84.4-84.4c26,0,49.2,11.7,64.7,30.2l9.2-7.8
		C152.7,13.4,126.1,0,96.5,0C43.2,0,0,43.2,0,96.5c0,14.6,3.2,28.4,9,40.8L20,132.2z"/>
</g>
<path class="st2" d="M96.5,153.8c-31.6,0-57.3-25.6-57.3-57.3c0-31.6,25.6-57.3,57.3-57.3c17.6,0,33.4,8,43.9,20.5l9.2-7.8
	c-12.7-15.1-31.8-24.8-53.1-24.8c-38.3,0-69.3,31-69.3,69.3c0,38.3,31,69.3,69.3,69.3V153.8z"/>
<path class="st2" d="M117.3,113.9c-5,5.9-12.4,9.7-20.8,9.7c-15,0-27.1-12.1-27.1-27.1c0-15,12.1-27.1,27.1-27.1
	c8.3,0,15.8,3.8,20.8,9.7l10.4-8.7c-7.5-8.9-18.7-14.5-31.2-14.5C74,55.8,55.8,74,55.8,96.5c0,22.5,18.2,40.7,40.7,40.7
	c11.5,0,21.8-4.7,29.2-12.4L117.3,113.9z"/>
</svg>
