<svg width="17" height="14" viewBox="0 0 17 14" fill="none" xmlns="http://www.w3.org/2000/svg">
<path d="M16.9898 1.02549V12.5852C11.3316 9.12561 5.67347 16.0781 0 12.6018V1.03658C5.67347 4.49618 11.3316 -2.43965 16.9898 1.02549Z" fill="#2E4593"/>
<path d="M16.9898 11.3819V12.585C16.435 12.2464 15.8414 11.9891 15.2245 11.8199C13.6892 10.3966 11.92 9.30178 10.0102 8.59316L9.5 8.38803L8.88265 8.15517L8.67857 8.07755L8.05102 7.84469L7.80612 7.76153L7.61225 7.68391L7.21939 7.53422L7.09184 7.47877L6.89796 7.4067C6.28061 7.15166 5.66837 6.88 5.05102 6.55289C4.77041 6.40874 4.4949 6.2535 4.21939 6.08163C2.60457 5.10065 1.17337 3.79929 0 2.24502V1.03638L0.0306122 1.08073C0.581317 1.40575 1.17 1.64821 1.78061 1.80148C3.34161 3.25054 5.14487 4.35926 7.09184 5.06703L7.60204 5.27217L7.7398 5.32207L8.57653 5.63809L8.65816 5.67135L8.97449 5.78778L9.48469 5.98183L9.57143 6.0151L10.0051 6.18697L10.4337 6.36438C10.8112 6.52517 11.1939 6.69149 11.5765 6.88C11.852 7.0186 12.1276 7.16275 12.4082 7.32353C14.1704 8.3287 15.7285 9.70888 16.9898 11.3819Z" fill="#FCF5FF"/>
<path d="M16.9898 12.557V12.5958C16.6269 12.3738 16.246 12.1882 15.852 12.0414C14.1937 10.2903 12.1959 8.96429 10.0051 8.16043L9.4949 7.96084L8.98469 7.76679L8.67347 7.64482L8.11735 7.43968L7.60714 7.24563L7.54082 7.20682L7.21939 7.07931L7.09184 7.02941C6.62245 6.8409 6.15306 6.64131 5.68878 6.41954C5.41327 6.29202 5.13265 6.14787 4.85714 5.99818C2.98377 4.98962 1.32836 3.5611 0 1.80674L0 1.01392L0.0306122 1.05827C1.62506 3.1522 3.68 4.77502 6.0051 5.77641C6.28061 5.90393 6.55612 6.02036 6.83163 6.13679L7.06122 6.22549L7.57143 6.43063L7.76531 6.50825L8.08673 6.62468L8.67347 6.84645L9.44898 7.14029L9.53571 7.17356L9.81633 7.28444L9.96939 7.34543L10.648 7.63373C13.1258 8.63564 15.3143 10.3346 16.9898 12.557Z" fill="#F42525"/>
<path d="M16.9898 1.25266V2.45576C15.5887 2.63833 14.2547 3.21127 13.1173 4.11902C12.8418 4.31862 12.5663 4.5293 12.2857 4.75107C11.6735 5.25005 11.0561 5.80447 10.4388 6.41434L10.0102 6.81352L9.57653 7.23488L9.4898 7.31805L9.29082 7.51209L8.98469 7.81148L8.66837 8.1275L8.45918 8.33264L7.61225 9.16982L7.10204 9.67435C5.44388 11.2711 3.78061 12.7237 2.12245 13.4999C1.37469 13.328 0.657775 13.0246 0 12.6017L0 11.6425C1.63776 11.5261 3.27551 10.5337 4.91327 9.192L5.7398 8.47679C6.12245 8.13305 6.5051 7.77822 6.88265 7.41784L7.09184 7.20716L7.21939 7.08519L7.61225 6.70264L7.80612 6.51413L8.67347 5.67141L8.7551 5.58825L9.4898 4.86195L9.58163 4.7677L10.0102 4.35743C11.8571 2.58327 13.7041 1.03089 15.5561 0.354492C15.999 0.506337 16.4278 0.703099 16.8367 0.942181C16.898 1.04752 16.9439 1.14732 16.9898 1.25266Z" fill="#FCF5FF"/>
<path d="M16.9439 1.28594C15.0969 1.43009 13.2653 2.68309 11.398 4.31309C11.1224 4.55704 10.8418 4.80653 10.5663 5.06711L10.0102 5.59381L9.57653 6.01517L9.48979 6.09834L8.71428 6.85789L8.12755 7.44004L7.80612 7.7616L7.61224 7.95011L7.57143 7.98892L7.09184 8.46018L6.7398 8.79283C4.62755 10.7943 2.5102 12.5019 0.397959 12.8235L0 12.6017V12.0473C1.85204 11.9142 3.69898 10.6723 5.55102 9.04787C5.82653 8.80392 6.10204 8.54888 6.38265 8.29385L7.09184 7.65072L7.21939 7.52875L7.54082 7.21827L7.61224 7.14065L8.12245 6.63613L8.97959 5.78786L9.38265 5.39422L9.48469 5.29442L9.9949 4.7899L10.2041 4.5903C12.1939 2.69972 14.1837 1.06972 16.1735 0.604004C16.3755 0.692292 16.5731 0.79223 16.7653 0.903392L16.9745 1.02537V1.2804L16.9439 1.28594Z" fill="#F42525"/>
<path d="M17 8.2718C11.3316 4.79002 5.66837 11.748 0 8.2718V5.09496C5.66837 8.57673 11.3316 1.61873 17 5.09496V8.2718Z" fill="#594B3E"/>
<path d="M17 7.70612C11.3316 4.22434 5.66837 11.1824 0 7.70612V5.66584C5.66837 9.14208 11.3316 2.18407 17 5.66584V7.70612Z" fill="#F42525"/>
<path d="M9.49034 0.731445V12.2967C8.86279 12.4797 8.24034 12.6793 7.61279 12.8511V1.29696C8.24034 1.10845 8.86279 0.914405 9.49034 0.731445Z" fill="#CD002A"/>
<path d="M9.48434 7.972L9.99454 7.82231V12.1468C9.02515 12.4185 8.05066 12.74 7.07617 13.0173V8.69275L7.58638 8.53751V5.36621L7.07617 5.51591V1.45199C8.05066 1.17478 9.02515 0.85321 9.99454 0.581543V4.65101L9.48434 4.8007V7.972Z" fill="#594B3E"/>
<path d="M9.49464 0.726074V12.2913L7.59668 12.8458V1.30267L9.49464 0.726074Z" fill="#F42525"/>
<path style="mix-blend-mode:multiply" d="M16.9692 4.80087V8.68184V12.5628C11.3162 9.10874 5.6631 16.0335 0.0151367 12.5628V0.99753C5.6631 4.46822 11.3162 -2.46207 16.9692 0.99753V4.79533V4.80087Z" fill="url(#paint0_linear_2685_38342)"/>
<path style="mix-blend-mode:overlay" opacity="0.25" d="M16.9692 4.80087V8.68184V12.5628C11.3162 9.10874 5.6631 16.0335 0.0151367 12.5628V0.99753C5.6631 4.46822 11.3162 -2.46207 16.9692 0.99753V4.79533V4.80087Z" fill="url(#paint1_linear_2685_38342)"/>
<defs>
<linearGradient id="paint0_linear_2685_38342" x1="0.0100347" y1="6.78016" x2="16.9692" y2="6.78016" gradientUnits="userSpaceOnUse">
<stop stop-color="white"/>
<stop offset="0.13" stop-color="#F7F7F7"/>
<stop offset="0.34" stop-color="#E0E0E1"/>
<stop offset="0.54" stop-color="#C4C5C6"/>
<stop offset="0.57" stop-color="#C1C2C3"/>
<stop offset="0.69" stop-color="#BEBFC0"/>
<stop offset="0.91" stop-color="white"/>
</linearGradient>
<linearGradient id="paint1_linear_2685_38342" x1="0.0100347" y1="6.78016" x2="16.9692" y2="6.78016" gradientUnits="userSpaceOnUse">
<stop stop-color="white"/>
<stop offset="0.13" stop-color="#F7F7F7"/>
<stop offset="0.34" stop-color="#E0E0E1"/>
<stop offset="0.54" stop-color="#C4C5C6"/>
<stop offset="0.57" stop-color="#C1C2C3"/>
<stop offset="0.69" stop-color="#BEBFC0"/>
<stop offset="0.91" stop-color="white"/>
</linearGradient>
</defs>
</svg>
