<svg width="27" height="28" viewBox="0 0 27 28" fill="none" xmlns="http://www.w3.org/2000/svg">
<path fill-rule="evenodd" clip-rule="evenodd" d="M23.4084 4.45852C23.6462 4.45852 23.8391 4.26496 23.8391 4.0262V3.16157C23.8377 1.96833 22.8744 1.00134 21.6858 1H6.18206C4.99338 1.00134 4.0301 1.96833 4.02876 3.16157V23.4804H1.01415C0.776308 23.4804 0.583496 23.6739 0.583496 23.9127V24.7773C0.584831 25.9706 1.54811 26.9375 2.73679 26.9389H18.2405C19.4292 26.9375 20.3924 25.9706 20.3938 24.7773V4.45852H23.4084ZM4.89008 3.16157V23.4804H16.5179C16.7557 23.4804 16.9485 23.6739 16.9485 23.9127V24.7773C16.9485 25.4936 17.527 26.0743 18.2405 26.0743C18.954 26.0743 19.5325 25.4936 19.5325 24.7773V3.16157C19.5319 2.69362 19.6835 2.23828 19.9641 1.86463H6.18206C5.46886 1.86546 4.89091 2.44564 4.89008 3.16157ZM2.73661 26.0743C2.0234 26.0735 1.44543 25.4933 1.44463 24.7773V24.345H16.087V24.7773C16.0865 25.2453 16.2381 25.7006 16.5187 26.0743H2.73661ZM22.9778 3.16157C22.9769 2.44563 22.399 1.86546 21.6858 1.86462C20.9726 1.86546 20.3946 2.44563 20.3938 3.16157V3.59388H22.9778V3.16157Z" fill="black"/>
<path d="M23.8391 3.16157L24.0391 3.16157L24.0391 3.16135L23.8391 3.16157ZM21.6858 1L21.686 0.8H21.6858V1ZM6.18206 1L6.18206 0.8L6.18183 0.8L6.18206 1ZM4.02876 3.16157L3.82876 3.16135V3.16157H4.02876ZM4.02876 23.4804V23.6804H4.22876V23.4804H4.02876ZM0.583496 24.7773H0.383496L0.383496 24.7775L0.583496 24.7773ZM2.73679 26.9389L2.73656 27.1389H2.73679V26.9389ZM18.2405 26.9389L18.2405 27.1389L18.2407 27.1389L18.2405 26.9389ZM20.3938 24.7773L20.5938 24.7775V24.7773H20.3938ZM20.3938 4.45852V4.25852H20.1938V4.45852H20.3938ZM4.89008 23.4804H4.69008V23.6804H4.89008V23.4804ZM4.89008 3.16157L4.69008 3.16134V3.16157H4.89008ZM19.5325 3.16157L19.7325 3.16157L19.7325 3.16135L19.5325 3.16157ZM19.9641 1.86463L20.1241 1.98474L20.3645 1.66463H19.9641V1.86463ZM6.18206 1.86463L6.18206 1.66463L6.18182 1.66463L6.18206 1.86463ZM1.44463 24.7773L1.24463 24.7773L1.24463 24.7775L1.44463 24.7773ZM2.73661 26.0743L2.73638 26.2743H2.73661V26.0743ZM1.44463 24.345V24.145H1.24463V24.345H1.44463ZM16.087 24.345H16.287V24.145H16.087V24.345ZM16.087 24.7773L16.287 24.7775V24.7773H16.087ZM16.5187 26.0743V26.2743H16.919L16.6786 25.9541L16.5187 26.0743ZM21.6858 1.86462L21.686 1.66462L21.6855 1.66462L21.6858 1.86462ZM22.9778 3.16157L23.1778 3.16157L23.1778 3.16134L22.9778 3.16157ZM20.3938 3.16157L20.1938 3.16134V3.16157H20.3938ZM20.3938 3.59388H20.1938V3.79388H20.3938V3.59388ZM22.9778 3.59388V3.79388H23.1778V3.59388H22.9778ZM23.6391 4.0262C23.6391 4.15523 23.5351 4.25852 23.4084 4.25852V4.65852C23.7574 4.65852 24.0391 4.3747 24.0391 4.0262H23.6391ZM23.6391 3.16157V4.0262H24.0391V3.16157H23.6391ZM21.6855 1.2C22.7632 1.20121 23.6378 2.07811 23.6391 3.1618L24.0391 3.16135C24.0376 1.85854 22.9857 0.801465 21.686 0.8L21.6855 1.2ZM6.18206 1.2H21.6858V0.8H6.18206V1.2ZM4.22876 3.1618C4.22998 2.07811 5.10461 1.20121 6.18228 1.2L6.18183 0.8C4.88215 0.801465 3.83022 1.85854 3.82876 3.16135L4.22876 3.1618ZM4.22876 23.4804V3.16157H3.82876V23.4804H4.22876ZM1.01415 23.6804H4.02876V23.2804H1.01415V23.6804ZM0.783496 23.9127C0.783496 23.7837 0.887489 23.6804 1.01415 23.6804V23.2804C0.665128 23.2804 0.383496 23.5642 0.383496 23.9127H0.783496ZM0.783496 24.7773V23.9127H0.383496V24.7773H0.783496ZM2.73701 26.7389C1.65934 26.7377 0.784708 25.8608 0.783496 24.7771L0.383496 24.7775C0.384954 26.0803 1.43688 27.1374 2.73656 27.1389L2.73701 26.7389ZM18.2405 26.7389H2.73679V27.1389H18.2405V26.7389ZM20.1938 24.7771C20.1926 25.8608 19.3179 26.7377 18.2403 26.7389L18.2407 27.1389C19.5404 27.1374 20.5923 26.0803 20.5938 24.7775L20.1938 24.7771ZM20.1938 4.45852V24.7773H20.5938V4.45852H20.1938ZM23.4084 4.25852H20.3938V4.65852H23.4084V4.25852ZM5.09008 23.4804V3.16157H4.69008V23.4804H5.09008ZM16.5179 23.2804H4.89008V23.6804H16.5179V23.2804ZM17.1485 23.9127C17.1485 23.5642 16.8669 23.2804 16.5179 23.2804V23.6804C16.6445 23.6804 16.7485 23.7837 16.7485 23.9127H17.1485ZM17.1485 24.7773V23.9127H16.7485V24.7773H17.1485ZM18.2405 25.8743C17.6381 25.8743 17.1485 25.3839 17.1485 24.7773H16.7485C16.7485 25.6033 17.4158 26.2743 18.2405 26.2743V25.8743ZM19.3325 24.7773C19.3325 25.3839 18.8428 25.8743 18.2405 25.8743V26.2743C19.0652 26.2743 19.7325 25.6033 19.7325 24.7773H19.3325ZM19.3325 3.16157V24.7773H19.7325V3.16157H19.3325ZM19.8042 1.74452C19.4975 2.15292 19.3319 2.65051 19.3325 3.16179L19.7325 3.16135C19.732 2.73673 19.8695 2.32364 20.1241 1.98474L19.8042 1.74452ZM6.18206 2.06463H19.9641V1.66463H6.18206V2.06463ZM5.09008 3.16181C5.09078 2.55542 5.58009 2.06533 6.18229 2.06463L6.18182 1.66463C5.35763 1.66559 4.69104 2.33585 4.69008 3.16134L5.09008 3.16181ZM1.24463 24.7775C1.24555 25.603 1.91217 26.2733 2.73638 26.2743L2.73683 25.8743C2.13463 25.8736 1.64531 25.3835 1.64463 24.7771L1.24463 24.7775ZM1.24463 24.345V24.7773H1.64463V24.345H1.24463ZM16.087 24.145H1.44463V24.545H16.087V24.145ZM16.287 24.7773V24.345H15.887V24.7773H16.287ZM16.6786 25.9541C16.4241 25.6152 16.2865 25.2021 16.287 24.7775L15.887 24.7771C15.8865 25.2884 16.052 25.786 16.3588 26.1944L16.6786 25.9541ZM2.73661 26.2743H16.5187V25.8743H2.73661V26.2743ZM21.6855 2.06462C22.2877 2.06533 22.777 2.55542 22.7778 3.1618L23.1778 3.16134C23.1768 2.33585 22.5102 1.66559 21.686 1.66462L21.6855 2.06462ZM20.5938 3.1618C20.5945 2.55542 21.0838 2.06533 21.686 2.06462L21.6855 1.66462C20.8614 1.66559 20.1948 2.33585 20.1938 3.16134L20.5938 3.1618ZM20.5938 3.59388V3.16157H20.1938V3.59388H20.5938ZM22.9778 3.39388H20.3938V3.79388H22.9778V3.39388ZM22.7778 3.16157V3.59388H23.1778V3.16157H22.7778Z" fill="black"/>
<path fill-rule="evenodd" clip-rule="evenodd" d="M9.90423 6.6898C9.66361 6.50732 9.52395 6.22142 9.52791 5.91946C9.52395 5.6175 9.66361 5.3316 9.90423 5.14912C9.86717 4.85035 9.96998 4.55118 10.1829 4.3383C10.3957 4.12542 10.6949 4.02261 10.9937 4.05967C11.1787 3.8222 11.4629 3.68335 11.764 3.68335C12.065 3.68335 12.3493 3.8222 12.5343 4.05967C12.8331 4.02261 13.1322 4.12542 13.3451 4.3383C13.558 4.55118 13.6608 4.85035 13.6237 5.14912C13.8612 5.33417 14.0001 5.6184 14.0001 5.91946C14.0001 6.22052 13.8612 6.50475 13.6237 6.6898C13.6608 6.98857 13.558 7.28774 13.3451 7.50062C13.1322 7.7135 12.8331 7.81631 12.5343 7.77925C12.3493 8.01672 12.065 8.15557 11.764 8.15557C11.4629 8.15557 11.1787 8.01672 10.9937 7.77925C10.6949 7.81629 10.3957 7.71348 10.1829 7.5006C9.97 7.28772 9.86719 6.98857 9.90423 6.6898ZM10.708 5.4822C10.6617 5.59405 10.564 5.67644 10.4459 5.70313C10.3448 5.72597 10.273 5.81581 10.273 5.91947C10.273 6.02314 10.3448 6.11298 10.4459 6.13582C10.564 6.16251 10.6617 6.2449 10.708 6.35675C10.7543 6.4686 10.7434 6.59598 10.6788 6.69834C10.6234 6.786 10.6362 6.90033 10.7095 6.97364C10.7828 7.04695 10.8972 7.05967 10.9848 7.00427C11.0872 6.93964 11.2145 6.92875 11.3264 6.97507C11.4382 7.02138 11.5206 7.11913 11.5473 7.2372C11.5701 7.33831 11.66 7.41012 11.7636 7.41012C11.8673 7.41012 11.9571 7.33831 11.98 7.2372C12.0067 7.11913 12.089 7.02138 12.2009 6.97507C12.3127 6.92875 12.4401 6.93964 12.5424 7.00427C12.6301 7.05967 12.7444 7.04695 12.8177 6.97364C12.8911 6.90033 12.9038 6.786 12.8484 6.69834C12.7838 6.59598 12.7729 6.4686 12.8192 6.35675C12.8655 6.2449 12.9633 6.16251 13.0814 6.13582C13.1825 6.11298 13.2543 6.02314 13.2543 5.91947C13.2543 5.81581 13.1825 5.72597 13.0814 5.70313C12.9633 5.67644 12.8655 5.59405 12.8192 5.4822C12.7729 5.37034 12.7838 5.24296 12.8484 5.14061C12.9038 5.05295 12.891 4.93866 12.8177 4.86537C12.7444 4.79207 12.6301 4.77933 12.5425 4.83468C12.4401 4.89932 12.3127 4.91022 12.2009 4.86391C12.089 4.81759 12.0067 4.71983 11.98 4.60175C11.9571 4.50063 11.8673 4.42882 11.7636 4.42882C11.66 4.42882 11.5701 4.50063 11.5473 4.60175C11.5206 4.71983 11.4382 4.81759 11.3264 4.86391C11.2145 4.91022 11.0871 4.89932 10.9848 4.83468C10.8971 4.77933 10.7828 4.79207 10.7095 4.86537C10.6362 4.93866 10.6235 5.05295 10.6788 5.14061C10.7434 5.24296 10.7543 5.37034 10.708 5.4822Z" fill="black"/>
<path d="M9.52783 10.8389H14.0001V11.7333H9.52783V10.8389Z" fill="black"/>
<path d="M11.3169 9.05005H15.7891V9.94449H11.3169V9.05005Z" fill="black"/>
<path d="M8.6333 9.05005H10.4222V9.94449H8.6333V9.05005Z" fill="black"/>
<path d="M7.73926 13.5222H18.4726V14.4167H7.73926V13.5222Z" fill="black"/>
<path d="M5.9502 13.5222H6.84464V14.4167H5.9502V13.5222Z" fill="black"/>
<path d="M7.73926 16.2056H18.4726V17.1H7.73926V16.2056Z" fill="black"/>
<path d="M5.9502 16.2056H6.84464V17.1H5.9502V16.2056Z" fill="black"/>
<path d="M7.73926 18.8889H10.4226V19.7834H7.73926V18.8889Z" fill="black"/>
<path d="M11.3169 18.8889H18.4724V19.7834H11.3169V18.8889Z" fill="black"/>
<path d="M7.73926 20.6777H14.8948V21.5722H7.73926V20.6777Z" fill="black"/>
<path d="M5.9502 20.6777H6.84464V21.5722H5.9502V20.6777Z" fill="black"/>
<path d="M15.7891 20.6777H18.4724V21.5722H15.7891V20.6777Z" fill="black"/>
<path fill-rule="evenodd" clip-rule="evenodd" d="M25.0318 8.114H25.4045C26.0216 8.11485 26.5218 8.70107 26.5225 9.42448V14.2296H25.7771V9.42448C25.7769 9.18334 25.6102 8.98793 25.4045 8.98766H25.0318V22.0924C25.0317 22.1602 25.0182 22.2271 24.9921 22.2876H24.9924L23.8744 24.9086C23.8112 25.0566 23.6822 25.15 23.541 25.15C23.3999 25.15 23.2709 25.0566 23.2077 24.9086L22.0897 22.2876H22.0899C22.0639 22.2271 22.0503 22.1602 22.0503 22.0924V8.114C22.0503 7.14899 22.7177 6.3667 23.541 6.3667C24.3643 6.3667 25.0318 7.14899 25.0318 8.114ZM24.2865 8.11401C24.2861 7.63174 23.9526 7.24093 23.5412 7.24035C23.1297 7.24093 22.7963 7.63174 22.7958 8.11401H24.2865ZM24.2865 21.6556H22.7958V15.1032H24.2865V21.6556ZM22.7958 14.2296H24.2865V13.3559H22.7958V14.2296ZM23.541 23.7366L23.026 22.5293H24.0561L23.541 23.7366ZM22.7958 12.4823H24.2865V8.98765H22.7958V12.4823Z" fill="black"/>
<path d="M25.4045 8.114L25.4045 8.064H25.4045V8.114ZM25.0318 8.114H24.9818V8.164H25.0318V8.114ZM26.5225 9.42448L26.5725 9.42448L26.5725 9.42443L26.5225 9.42448ZM26.5225 14.2296V14.2796H26.5725V14.2296H26.5225ZM25.7771 14.2296H25.7271V14.2796H25.7771V14.2296ZM25.7771 9.42448H25.8271L25.8271 9.42443L25.7771 9.42448ZM25.4045 8.98766L25.4045 8.93766H25.4045V8.98766ZM25.0318 8.98766V8.93766H24.9818V8.98766H25.0318ZM25.0318 22.0924L25.0818 22.0925V22.0924H25.0318ZM24.9921 22.2876L24.9462 22.2679L24.9162 22.3376H24.9921V22.2876ZM24.9924 22.2876L25.0384 22.3073L25.0681 22.2376H24.9924V22.2876ZM23.8744 24.9086L23.9203 24.9282L23.9203 24.9282L23.8744 24.9086ZM23.2077 24.9086L23.1617 24.9282L23.1617 24.9282L23.2077 24.9086ZM22.0897 22.2876V22.2376H22.014L22.0437 22.3073L22.0897 22.2876ZM22.0899 22.2876V22.3376H22.1659L22.1359 22.2679L22.0899 22.2876ZM22.0503 22.0924L22.0003 22.0924L22.0003 22.0925L22.0503 22.0924ZM23.5412 7.24035L23.5412 7.19035L23.5411 7.19035L23.5412 7.24035ZM24.2865 8.11401V8.16401H24.3366L24.3365 8.11396L24.2865 8.11401ZM22.7958 8.11401L22.7458 8.11396L22.7458 8.16401H22.7958V8.11401ZM22.7958 21.6556H22.7458V21.7056H22.7958V21.6556ZM24.2865 21.6556V21.7056H24.3365V21.6556H24.2865ZM22.7958 15.1032V15.0532H22.7458V15.1032H22.7958ZM24.2865 15.1032H24.3365V15.0532H24.2865V15.1032ZM24.2865 14.2296V14.2796H24.3365V14.2296H24.2865ZM22.7958 14.2296H22.7458V14.2796H22.7958V14.2296ZM24.2865 13.3559H24.3365V13.3059H24.2865V13.3559ZM22.7958 13.3559V13.3059H22.7458V13.3559H22.7958ZM23.026 22.5293V22.4793H22.9503L22.98 22.5489L23.026 22.5293ZM23.541 23.7366L23.495 23.7562L23.541 23.864L23.587 23.7562L23.541 23.7366ZM24.0561 22.5293L24.1021 22.5489L24.1318 22.4793H24.0561V22.5293ZM24.2865 12.4823V12.5323H24.3365V12.4823H24.2865ZM22.7958 12.4823H22.7458V12.5323H22.7958V12.4823ZM24.2865 8.98765H24.3365V8.93765H24.2865V8.98765ZM22.7958 8.98765V8.93765H22.7458V8.98765H22.7958ZM25.4045 8.064H25.0318V8.164H25.4045V8.064ZM26.5725 9.42443C26.5718 8.68117 26.0564 8.06489 25.4045 8.064L25.4044 8.164C25.9869 8.1648 26.4718 8.72098 26.4725 9.42453L26.5725 9.42443ZM26.5725 14.2296V9.42448H26.4725V14.2296H26.5725ZM25.7771 14.2796H26.5225V14.1796H25.7771V14.2796ZM25.7271 9.42448V14.2296H25.8271V9.42448H25.7271ZM25.4044 9.03766C25.5754 9.03788 25.7269 9.20324 25.7271 9.42453L25.8271 9.42443C25.8269 9.16344 25.645 8.93797 25.4045 8.93766L25.4044 9.03766ZM25.0318 9.03766H25.4045V8.93766H25.0318V9.03766ZM25.0818 22.0924V8.98766H24.9818V22.0924H25.0818ZM25.0381 22.3074C25.0669 22.2404 25.0817 22.1668 25.0818 22.0925L24.9818 22.0924C24.9818 22.1536 24.9695 22.2138 24.9462 22.2679L25.0381 22.3074ZM24.9924 22.2376H24.9921V22.3376H24.9924V22.2376ZM23.9203 24.9282L25.0384 22.3073L24.9464 22.268L23.8284 24.889L23.9203 24.9282ZM23.541 25.2C23.7055 25.2 23.8507 25.0913 23.9203 24.9282L23.8284 24.889C23.7717 25.0218 23.6588 25.1 23.541 25.1V25.2ZM23.1617 24.9282C23.2313 25.0913 23.3765 25.2 23.541 25.2V25.1C23.4232 25.1 23.3104 25.0218 23.2537 24.889L23.1617 24.9282ZM22.0437 22.3073L23.1617 24.9282L23.2537 24.889L22.1356 22.268L22.0437 22.3073ZM22.0899 22.2376H22.0897V22.3376H22.0899V22.2376ZM22.0003 22.0925C22.0003 22.1668 22.0152 22.2404 22.044 22.3074L22.1359 22.2679C22.1126 22.2138 22.1003 22.1536 22.1003 22.0924L22.0003 22.0925ZM22.0003 8.114V22.0924H22.1003V8.114H22.0003ZM23.541 6.3167C22.683 6.3167 22.0003 7.12912 22.0003 8.114H22.1003C22.1003 7.16887 22.7525 6.4167 23.541 6.4167V6.3167ZM25.0818 8.114C25.0818 7.12912 24.3991 6.3167 23.541 6.3167V6.4167C24.3296 6.4167 24.9818 7.16887 24.9818 8.114H25.0818ZM23.5411 7.29035C23.9179 7.29088 24.2361 7.65164 24.2365 8.11406L24.3365 8.11396C24.336 7.61183 23.9874 7.19097 23.5412 7.19035L23.5411 7.29035ZM22.8458 8.11406C22.8463 7.65164 23.1645 7.29088 23.5412 7.29035L23.5411 7.19035C23.095 7.19097 22.7463 7.61183 22.7458 8.11396L22.8458 8.11406ZM24.2865 8.06401H22.7958V8.16401H24.2865V8.06401ZM22.7958 21.7056H24.2865V21.6056H22.7958V21.7056ZM22.7458 15.1032V21.6556H22.8458V15.1032H22.7458ZM24.2865 15.0532H22.7958V15.1532H24.2865V15.0532ZM24.3365 21.6556V15.1032H24.2365V21.6556H24.3365ZM24.2865 14.1796H22.7958V14.2796H24.2865V14.1796ZM24.2365 13.3559V14.2296H24.3365V13.3559H24.2365ZM22.7958 13.4059H24.2865V13.3059H22.7958V13.4059ZM22.8458 14.2296V13.3559H22.7458V14.2296H22.8458ZM22.98 22.5489L23.495 23.7562L23.587 23.717L23.072 22.5097L22.98 22.5489ZM24.0561 22.4793H23.026V22.5793H24.0561V22.4793ZM23.587 23.7562L24.1021 22.5489L24.0101 22.5097L23.495 23.717L23.587 23.7562ZM24.2865 12.4323H22.7958V12.5323H24.2865V12.4323ZM24.2365 8.98765V12.4823H24.3365V8.98765H24.2365ZM22.7958 9.03765H24.2865V8.93765H22.7958V9.03765ZM22.8458 12.4823V8.98765H22.7458V12.4823H22.8458Z" fill="black"/>
</svg>
