<svg width="66" height="19" viewBox="0 0 66 19" fill="none" xmlns="http://www.w3.org/2000/svg">
<g opacity="0.1" clip-path="url(#clip0_3080_471)">
<mask id="mask0_3080_471" style="mask-type:luminance" maskUnits="userSpaceOnUse" x="0" y="0" width="66" height="19">
<path d="M65.227 0H0V19H65.227V0Z" fill="white"/>
</mask>
<g mask="url(#mask0_3080_471)">
<path d="M34.991 8.88455C34.6491 8.73726 34.3388 8.52685 34.0757 8.26384C33.8127 8.00083 33.6076 7.68521 33.455 7.34856C33.2657 6.91196 33.192 6.43327 33.2394 5.95459C33.2815 5.48117 33.4445 5.02353 33.7075 4.62375C33.9705 4.22397 34.3282 3.9031 34.7491 3.67691C35.1699 3.45072 35.638 3.33499 36.1167 3.34025C36.506 3.34025 36.8847 3.41915 37.2424 3.56644C37.5843 3.71373 37.8894 3.92414 38.1577 4.18715C38.4207 4.45016 38.6311 4.76052 38.7679 5.10243C38.9204 5.46013 38.9993 5.84413 38.9993 6.22812C38.9993 6.61738 38.9204 6.99612 38.7679 7.35382C38.6206 7.69573 38.4154 8.00609 38.1524 8.2691C37.8894 8.53211 37.5738 8.74252 37.2372 8.88981C36.8795 9.03709 36.4955 9.11074 36.1115 9.11074C35.7275 9.11074 35.3487 9.03709 34.991 8.88455ZM34.5807 2.58277C33.6286 2.98255 32.8712 3.74003 32.4766 4.68687C32.2715 5.17607 32.1663 5.69684 32.1663 6.22812C32.1663 6.75415 32.2715 7.28017 32.4766 7.76937C32.8764 8.72148 33.6339 9.47369 34.5807 9.87347C35.0699 10.0786 35.5907 10.1838 36.1167 10.1838C36.6427 10.1838 37.1688 10.0786 37.658 9.87347C38.6101 9.47369 39.3676 8.71622 39.7621 7.76937C39.9672 7.28017 40.0724 6.75941 40.0724 6.23338C40.0724 5.70736 39.9672 5.18134 39.7621 4.69739C39.3623 3.74529 38.6048 2.98781 37.6527 2.58804C37.1635 2.38289 36.6427 2.28294 36.1167 2.28294C35.5907 2.27242 35.0699 2.37763 34.5807 2.58277ZM26.1643 2.57751C25.6962 2.7774 25.2648 3.06672 24.9019 3.42441C24.5442 3.78737 24.2549 4.21345 24.055 4.68161C23.8498 5.17081 23.7446 5.69158 23.7446 6.22286C23.7446 6.75415 23.8498 7.27491 24.055 7.76412C24.2549 8.23228 24.5442 8.65836 24.9019 9.02131C25.2648 9.37901 25.6909 9.66832 26.1591 9.86821C26.6483 10.0734 27.169 10.1733 27.7003 10.1733C28.7471 10.1733 29.7518 9.75775 30.4935 9.02131C30.8565 8.65836 31.1405 8.22702 31.3404 7.75885C31.3825 7.65365 31.4193 7.54844 31.4561 7.44324H30.3042C30.1621 7.74833 29.9675 8.02713 29.7308 8.26384C29.4625 8.53211 29.1469 8.74778 28.7945 8.89507C28.442 9.04235 28.0685 9.11074 27.6846 9.11074C27.3058 9.11074 26.9271 9.03709 26.5799 8.89507C26.2275 8.74778 25.9118 8.53737 25.6436 8.2691C25.3806 8.00609 25.1754 7.69047 25.0229 7.35382C24.7283 6.63316 24.7283 5.82308 25.0281 5.10243C25.2491 4.58167 25.6173 4.13455 26.096 3.81893C26.5694 3.50332 27.127 3.34025 27.6951 3.34025C28.0843 3.34025 28.4683 3.41915 28.8208 3.56644C29.1627 3.71373 29.473 3.92414 29.736 4.18715C29.9728 4.42912 30.1674 4.70791 30.3094 5.01301H31.4561C31.4193 4.90254 31.3825 4.79734 31.3404 4.69213C30.9406 3.74003 30.1832 2.98781 29.2311 2.58277C28.7419 2.37763 28.2211 2.27768 27.6951 2.27768C27.1743 2.27242 26.6535 2.37763 26.1643 2.57751ZM41.2665 10.1786H42.3343V2.27242H41.2665V10.1786ZM54.4539 5.06035C54.4539 4.81312 54.5013 4.56589 54.596 4.3397C54.6906 4.10825 54.8274 3.9031 55.0063 3.72951C55.1798 3.55592 55.3903 3.41389 55.6164 3.31921C55.8426 3.22452 56.0899 3.17718 56.3371 3.17718C56.5843 3.17718 56.8316 3.22452 57.0578 3.31921C57.2892 3.41389 57.4944 3.55066 57.6679 3.72951C57.8415 3.90836 57.9836 4.11351 58.0782 4.3397C58.1729 4.57115 58.2203 4.81312 58.2203 5.06035C58.2203 5.56007 58.0204 6.03875 57.6679 6.39645C57.3155 6.74889 56.8368 6.94878 56.3318 6.94878C55.8269 6.94878 55.3534 6.74889 54.9957 6.39645C54.6538 6.03875 54.4539 5.56007 54.4539 5.06035ZM53.4913 5.07613C53.4913 6.61738 54.7643 7.82724 56.3897 7.82724H57.0367L55.7795 10.2154H56.8526L58.8147 6.45957C59.0566 6.02823 59.1934 5.54429 59.2039 5.04457C59.1829 4.29761 58.8725 3.58748 58.336 3.07198C57.7994 2.55121 57.0841 2.2619 56.3371 2.26716C55.5901 2.27242 54.8748 2.56699 54.3435 3.09302C53.8122 3.61904 53.5071 4.32918 53.4913 5.07613ZM61.045 7.83776C61.0503 7.40642 61.2291 6.99612 61.5395 6.69102C61.8498 6.38593 62.2601 6.2176 62.6915 6.2176C63.1228 6.2176 63.5384 6.38593 63.8487 6.69102C64.1591 6.99612 64.3327 7.40642 64.3432 7.83776C64.3432 8.27436 64.1696 8.69518 63.8592 9.00027C63.5489 9.31063 63.1333 9.48421 62.6915 9.48421C62.2496 9.48421 61.8341 9.31063 61.529 9.00027C61.2186 8.69518 61.045 8.27436 61.045 7.83776ZM61.5921 4.22397C61.5921 3.93466 61.7078 3.65586 61.9077 3.44545C62.1128 3.24031 62.3864 3.11932 62.6757 3.1088C62.9703 3.1088 63.2543 3.22452 63.4647 3.43493C63.6751 3.64534 63.7909 3.92414 63.7909 4.22397C63.7909 4.51854 63.6751 4.8026 63.4647 5.00775C63.2543 5.21816 62.9755 5.33388 62.6757 5.33388C62.3864 5.32862 62.1128 5.20764 61.9077 4.99723C61.7078 4.79208 61.5921 4.51328 61.5921 4.22397ZM60.7031 4.22397C60.6978 4.65531 60.8346 5.07613 61.0924 5.42331L61.3133 5.71788L61.0345 5.95459C60.761 6.18604 60.54 6.47536 60.3875 6.80149C60.2349 7.12763 60.156 7.48532 60.1613 7.84302C60.1613 8.51633 60.4296 9.15808 60.903 9.63676C61.3764 10.1102 62.0234 10.3785 62.6967 10.3785C63.37 10.3785 64.0118 10.1102 64.4905 9.63676C64.9639 9.16334 65.2322 8.51633 65.2322 7.84302C65.2322 7.48006 65.1533 7.12237 65.0007 6.79097C64.8482 6.45957 64.622 6.17026 64.3432 5.93881L64.0591 5.69684L64.2906 5.40227C64.5536 5.06561 64.6904 4.65005 64.6851 4.22397C64.6746 3.70321 64.4642 3.20874 64.0907 2.84053C63.7172 2.47757 63.2175 2.27242 62.6967 2.27242C62.176 2.27242 61.6762 2.47757 61.3028 2.84053C60.9293 3.20348 60.7136 3.70321 60.7031 4.22397ZM50.9348 2.27242V8.40586C50.9454 8.47951 50.9348 8.55315 50.9138 8.62153C50.8927 8.68992 50.8559 8.7583 50.8086 8.8109C50.7612 8.86351 50.7034 8.91085 50.635 8.94241C50.5666 8.97397 50.4982 8.98975 50.4246 8.98975C50.2983 8.98449 50.1826 8.94241 50.0774 8.87403C49.9722 8.80564 49.8933 8.7057 49.8407 8.59523L47.3999 3.34025C47.2737 3.02464 47.0528 2.7511 46.7687 2.56173C46.4847 2.37237 46.148 2.27242 45.8061 2.27242C45.4063 2.26716 45.0223 2.40393 44.712 2.65116C44.6962 2.66168 44.6857 2.6722 44.6699 2.68272C44.5068 2.81423 44.3753 2.98255 44.2859 3.17718C44.1965 3.36655 44.1491 3.57696 44.1491 3.78737V10.1786H45.2801V3.9557C45.2748 3.88732 45.2853 3.81367 45.3116 3.74529C45.3379 3.67691 45.3748 3.61904 45.4221 3.56644C45.4694 3.51384 45.5326 3.47176 45.5957 3.44545C45.6588 3.41915 45.7324 3.40337 45.8008 3.40337C45.9271 3.40863 46.0481 3.45072 46.148 3.5191C46.248 3.59274 46.3269 3.69269 46.3689 3.80841L46.39 3.86101C46.9633 5.12873 48.2468 7.91666 48.9991 9.40005C49.2516 9.89451 49.6829 10.1207 50.3983 10.126C50.8033 10.1312 51.1978 9.99972 51.5187 9.74723C51.6923 9.63676 51.8396 9.47895 51.929 9.28959C52.0237 9.10548 52.0658 8.89507 52.05 8.68992V2.27242H50.9348Z" fill="white"/>
</g>
<mask id="mask1_3080_471" style="mask-type:luminance" maskUnits="userSpaceOnUse" x="0" y="0" width="66" height="19">
<path d="M65.227 0H0V19H65.227V0Z" fill="white"/>
</mask>
<g mask="url(#mask1_3080_471)">
<path d="M24.8391 16.5539C24.8127 16.5591 24.7864 16.5539 24.7601 16.5434C24.7338 16.5328 24.7128 16.5223 24.6918 16.5013C24.6707 16.4802 24.6602 16.4592 24.6497 16.4329C24.6392 16.4066 24.6392 16.3803 24.6392 16.354V12.6613C24.6392 12.635 24.6392 12.6087 24.6497 12.5824C24.6602 12.5561 24.6707 12.5351 24.6918 12.514C24.7181 12.4825 24.7549 12.4614 24.797 12.4562C24.839 12.4456 24.8759 12.4509 24.918 12.4667C24.9548 12.4825 24.9863 12.5088 25.0074 12.5456C25.0284 12.5824 25.0389 12.6192 25.0337 12.6613V16.354C25.0337 16.3803 25.0337 16.4066 25.0232 16.4329C25.0126 16.4592 25.0021 16.4802 24.9863 16.5013C24.9653 16.5171 24.9443 16.5328 24.918 16.5434C24.8917 16.5539 24.8654 16.5591 24.8391 16.5539ZM26.4434 16.5539C26.4171 16.5591 26.3908 16.5539 26.3645 16.5486C26.3382 16.5381 26.3172 16.5276 26.2961 16.5065C26.2751 16.4855 26.2646 16.4645 26.2541 16.4382C26.2435 16.4119 26.2435 16.3856 26.2488 16.3593V12.6666C26.2435 12.6403 26.2488 12.614 26.2541 12.5877C26.2646 12.5614 26.2751 12.5403 26.2961 12.5193C26.3172 12.4982 26.3382 12.4877 26.3645 12.4772C26.3908 12.4667 26.4171 12.4667 26.4434 12.4719C26.4855 12.4772 26.5223 12.4877 26.5539 12.5088C26.5854 12.5298 26.617 12.5561 26.6381 12.5877L29.1419 15.8069V12.6718C29.1419 12.6455 29.1472 12.6192 29.1525 12.5929C29.163 12.5666 29.1788 12.5456 29.1945 12.5245C29.2103 12.5035 29.2366 12.4877 29.2577 12.4825C29.284 12.4719 29.3103 12.4667 29.3366 12.4667C29.3629 12.4667 29.3892 12.4719 29.4155 12.4825C29.4418 12.493 29.4628 12.5088 29.4786 12.5245C29.4944 12.5456 29.5101 12.5666 29.5207 12.5929C29.5312 12.6192 29.5364 12.6455 29.5312 12.6718V16.3645C29.5364 16.3908 29.5312 16.4171 29.5259 16.4434C29.5154 16.4697 29.5049 16.4908 29.4838 16.5118C29.4628 16.5328 29.4418 16.5434 29.4155 16.5539C29.3892 16.5644 29.3629 16.5644 29.3366 16.5591C29.2945 16.5539 29.2577 16.5434 29.2261 16.5223C29.1893 16.5013 29.163 16.475 29.1419 16.4434L26.6381 13.2294V16.3645C26.6433 16.3908 26.6381 16.4171 26.6328 16.4434C26.6223 16.4697 26.6118 16.4908 26.5907 16.5118C26.5697 16.5328 26.5486 16.5434 26.5223 16.5539C26.496 16.5591 26.4697 16.5591 26.4434 16.5539ZM31.7878 16.5539C31.4933 16.5749 31.1987 16.4908 30.962 16.3172C30.862 16.2225 30.7831 16.1068 30.7305 15.9805C30.6779 15.8543 30.6464 15.7175 30.6464 15.5755V15.5544C30.6464 15.5281 30.6464 15.5071 30.6569 15.4808C30.6674 15.4598 30.6779 15.4335 30.6937 15.4177C30.7147 15.4019 30.7358 15.3861 30.7621 15.3809C30.7884 15.3703 30.8147 15.3703 30.841 15.3703C30.8673 15.3703 30.8936 15.3703 30.9146 15.3809C30.9409 15.3914 30.962 15.4019 30.9778 15.4177C31.0146 15.4598 31.0356 15.5071 31.0409 15.5597C31.0356 15.6439 31.0514 15.7333 31.0882 15.8122C31.1198 15.8911 31.1724 15.9647 31.2355 16.0226C31.4038 16.1225 31.5985 16.1699 31.7931 16.1541H32.6926C32.903 16.1751 33.1187 16.1173 33.287 15.991C33.4132 15.8227 33.4711 15.6123 33.4501 15.4019C33.4711 15.1915 33.4132 14.9758 33.2817 14.8075C33.1134 14.6812 32.903 14.6234 32.6926 14.6444H31.8667C31.7142 14.6602 31.5616 14.6444 31.4144 14.5971C31.2671 14.5497 31.1356 14.4708 31.0198 14.3709C30.9094 14.2657 30.8147 14.1447 30.7516 14.0027C30.6884 13.8659 30.6569 13.7134 30.6569 13.5608C30.6569 13.4083 30.6884 13.2557 30.7516 13.1137C30.8147 12.9717 30.9041 12.8507 31.0146 12.7455C31.125 12.6403 31.2618 12.5666 31.4038 12.514C31.5511 12.4667 31.7037 12.4456 31.8562 12.4614H32.6873C32.9661 12.4404 33.2397 12.5193 33.4658 12.6823C33.5605 12.7718 33.6342 12.8822 33.6868 12.998C33.7394 13.1189 33.7657 13.2452 33.7657 13.3767V13.403C33.7657 13.424 33.7604 13.4503 33.7552 13.4714C33.7446 13.4924 33.7341 13.5135 33.7183 13.5292C33.6973 13.545 33.6763 13.5608 33.65 13.5713C33.6237 13.5818 33.5974 13.5818 33.5711 13.5818C33.5448 13.5818 33.5185 13.5818 33.4974 13.5713C33.4711 13.5608 33.4501 13.5503 33.4343 13.5292C33.3975 13.4924 33.3764 13.4398 33.3764 13.3872C33.3764 13.3083 33.3606 13.2294 33.3291 13.1558C33.2975 13.0821 33.2502 13.019 33.1923 12.9664C33.0398 12.877 32.8662 12.8349 32.6873 12.8507H31.8562C31.6616 12.8296 31.467 12.8822 31.3092 13.0032C31.1934 13.161 31.1408 13.3557 31.1619 13.545C31.1408 13.7397 31.1934 13.9343 31.3144 14.0921C31.4722 14.2131 31.6668 14.2709 31.8667 14.2446H32.6926C32.8557 14.2289 33.0135 14.2446 33.166 14.2972C33.3186 14.3446 33.4606 14.4287 33.5816 14.5392C33.7026 14.6497 33.7972 14.7812 33.8604 14.9285C33.9235 15.0758 33.9603 15.2336 33.9603 15.3966C33.9603 15.5597 33.9288 15.7175 33.8604 15.8648C33.7972 16.0121 33.6973 16.1436 33.5816 16.2541C33.4606 16.3645 33.3238 16.4434 33.166 16.496C33.0135 16.5486 32.8504 16.5644 32.6926 16.5486C32.6873 16.5539 31.7878 16.5539 31.7878 16.5539ZM35.1333 16.5539C35.107 16.5591 35.0807 16.5539 35.0544 16.5434C35.0281 16.5328 35.0071 16.5223 34.9861 16.5013C34.965 16.4802 34.9545 16.4592 34.944 16.4329C34.9335 16.4066 34.9335 16.3803 34.9335 16.354V12.6613C34.9335 12.635 34.9335 12.6087 34.944 12.5824C34.9545 12.5561 34.965 12.5351 34.9861 12.514C35.0124 12.4825 35.0492 12.4614 35.0913 12.4562C35.1333 12.4456 35.1702 12.4509 35.2123 12.4667C35.2491 12.4825 35.2806 12.5088 35.3017 12.5456C35.3227 12.5824 35.3332 12.6192 35.328 12.6613V16.354C35.328 16.3803 35.328 16.4066 35.3175 16.4329C35.3069 16.4592 35.2964 16.4802 35.2754 16.5013C35.2543 16.5171 35.2333 16.5328 35.207 16.5434C35.1859 16.5539 35.1596 16.5591 35.1333 16.5539ZM37.7635 16.5539C37.5846 16.5697 37.4005 16.5486 37.2269 16.496C37.0533 16.4434 36.8903 16.354 36.7535 16.233C36.6378 16.0962 36.5484 15.9332 36.4905 15.7596C36.4379 15.586 36.4168 15.4019 36.4326 15.223V13.7975C36.4168 13.6187 36.4379 13.4346 36.4905 13.261C36.5431 13.0874 36.6325 12.9243 36.7535 12.7876C36.8903 12.6718 37.0481 12.5824 37.2164 12.5298C37.3847 12.4772 37.5636 12.4562 37.7424 12.4719H38.5104C38.8208 12.4509 39.1259 12.5351 39.3784 12.7086C39.4836 12.8086 39.5677 12.9243 39.6203 13.0558C39.6782 13.1873 39.7045 13.3294 39.6992 13.4714C39.7045 13.4819 39.7045 13.4977 39.7045 13.5082C39.7045 13.5503 39.6887 13.5924 39.6572 13.6239C39.6361 13.6397 39.6151 13.6555 39.5888 13.6608C39.5625 13.6713 39.5362 13.6713 39.5099 13.6713C39.4836 13.6713 39.4573 13.6713 39.431 13.6608C39.4047 13.6502 39.3836 13.6397 39.3626 13.6187C39.3415 13.5976 39.3258 13.5766 39.3152 13.5555C39.3047 13.5292 39.2995 13.5029 39.2995 13.4766C39.3047 13.3872 39.2837 13.2925 39.2521 13.2084C39.2153 13.1242 39.1627 13.0506 39.0943 12.9874C38.9155 12.8875 38.7051 12.8402 38.4999 12.8559H37.7214C37.5425 12.8507 37.3584 12.877 37.1901 12.9401C37.0586 12.9927 36.9534 13.0979 36.9008 13.2294C36.8324 13.4083 36.8061 13.5976 36.8114 13.7923V15.2178C36.8061 15.4072 36.8324 15.5965 36.9008 15.7754C36.9534 15.9069 37.0639 16.0121 37.1954 16.0699C37.3742 16.1383 37.5636 16.1646 37.7529 16.1594H38.4999C38.6682 16.1646 38.8313 16.1436 38.9891 16.0857C39.047 16.0647 39.0996 16.0279 39.1417 15.9858C39.1837 15.9437 39.2206 15.8911 39.2416 15.8332C39.2942 15.6754 39.3205 15.5124 39.3152 15.344V14.9863L38.6998 14.9811C38.6472 14.9811 38.5998 14.96 38.563 14.9232C38.5262 14.8864 38.5104 14.839 38.5104 14.7864C38.5104 14.7338 38.5315 14.6865 38.563 14.6497C38.5998 14.6129 38.6472 14.5918 38.6998 14.5918L39.5151 14.5971C39.5414 14.5918 39.5677 14.5971 39.594 14.6023C39.6203 14.6129 39.6414 14.6234 39.6624 14.6444C39.6835 14.6655 39.694 14.6865 39.7045 14.7128C39.715 14.7391 39.715 14.7654 39.7098 14.7917V15.3493C39.7255 15.5124 39.7045 15.6807 39.6572 15.8385C39.6098 15.9963 39.5257 16.1436 39.4204 16.2698C39.1627 16.4855 38.8366 16.5854 38.4999 16.5591L37.7635 16.5539ZM41.1511 14.292H43.15C43.2026 14.292 43.2499 14.3078 43.292 14.3393C43.3288 14.3814 43.3498 14.434 43.3498 14.4866C43.3498 14.5392 43.3288 14.5971 43.292 14.6339C43.2499 14.6655 43.2026 14.6812 43.15 14.6812H41.1458V16.3593C41.1458 16.3856 41.1405 16.4119 41.1353 16.4382C41.1248 16.4645 41.109 16.4855 41.0932 16.5065C41.0774 16.5276 41.0511 16.5381 41.0301 16.5486C41.0038 16.5591 40.9775 16.5644 40.9512 16.5644C40.9249 16.5644 40.8986 16.5591 40.8723 16.5486C40.846 16.5381 40.8249 16.5223 40.8091 16.5065C40.7934 16.4855 40.7776 16.4645 40.7671 16.4382C40.7565 16.4119 40.7513 16.3856 40.7565 16.3593V12.6666C40.7565 12.6403 40.7618 12.614 40.7723 12.5929C40.7828 12.5666 40.7986 12.5456 40.8144 12.5298C40.8355 12.5088 40.8565 12.4982 40.8775 12.4877C40.9038 12.4772 40.9301 12.4719 40.9564 12.4719C40.9827 12.4719 41.009 12.4772 41.0301 12.4877C41.0511 12.4982 41.0774 12.514 41.0932 12.5298C41.1142 12.5456 41.1248 12.5719 41.1353 12.5929C41.1458 12.6192 41.1511 12.6455 41.1511 12.6666V14.292ZM44.1336 12.6666V16.3593C44.1336 16.3856 44.1284 16.4119 44.1178 16.4329C44.1073 16.4592 44.0915 16.4802 44.0758 16.496C44.0547 16.5118 44.0337 16.5276 44.0126 16.5381C43.9863 16.5486 43.9653 16.5539 43.939 16.5539C43.9127 16.5539 43.8864 16.5486 43.8654 16.5434C43.8391 16.5328 43.818 16.5171 43.8022 16.5013C43.7812 16.4855 43.7654 16.4592 43.7549 16.4382C43.7444 16.4119 43.7391 16.3856 43.7391 16.3593V12.6666C43.7391 12.6403 43.7444 12.614 43.7549 12.5877C43.7654 12.5614 43.7812 12.5403 43.8022 12.5245C43.818 12.5088 43.8391 12.493 43.8654 12.4825C43.8917 12.4719 43.9127 12.4667 43.939 12.4667C43.9653 12.4667 43.9916 12.4719 44.0126 12.4825C44.0389 12.493 44.06 12.5088 44.0758 12.5245C44.0915 12.5403 44.1073 12.5666 44.1178 12.5877C44.1284 12.614 44.1336 12.6403 44.1336 12.6666ZM48.1893 12.5245C48.2103 12.5456 48.2208 12.5666 48.2314 12.5877C48.2419 12.614 48.2471 12.6403 48.2419 12.6666C48.2471 12.7192 48.2261 12.7718 48.1945 12.8086C48.1735 12.8244 48.1525 12.8402 48.1261 12.8507C48.0998 12.8612 48.0735 12.8665 48.0472 12.8612H45.0805C45.0542 12.8665 45.0279 12.8612 45.0016 12.8507C44.9753 12.8402 44.9542 12.8296 44.9332 12.8086C44.9121 12.7876 44.9016 12.7665 44.8911 12.7402C44.8806 12.7139 44.8806 12.6876 44.8806 12.6613C44.8753 12.635 44.8806 12.6087 44.8911 12.5824C44.9016 12.5561 44.9121 12.5351 44.9332 12.514C44.9542 12.493 44.9753 12.4825 45.0016 12.4719C45.0279 12.4614 45.0542 12.4614 45.0805 12.4614H48.0472C48.0735 12.4614 48.0998 12.4614 48.1209 12.4719C48.1524 12.4877 48.1735 12.5035 48.1893 12.5245ZM46.364 13.4503C46.364 13.403 46.3745 13.3504 46.406 13.3136C46.4271 13.2925 46.4534 13.2768 46.4797 13.2662C46.506 13.2557 46.5376 13.2505 46.5639 13.2557C46.5902 13.2505 46.6217 13.2557 46.648 13.2662C46.6743 13.2768 46.7006 13.2925 46.7164 13.3136C46.7427 13.3557 46.7585 13.403 46.7585 13.4503V16.3593C46.7585 16.3856 46.7585 16.4119 46.748 16.4382C46.7374 16.4645 46.7269 16.4855 46.7059 16.5013C46.6848 16.5171 46.6638 16.5328 46.6375 16.5434C46.6112 16.5539 46.5849 16.5539 46.5586 16.5539C46.506 16.5591 46.4534 16.5381 46.4113 16.5013C46.3903 16.4802 46.3797 16.4592 46.3692 16.4329C46.3587 16.4066 46.3534 16.3803 46.3587 16.354C46.364 16.3593 46.364 13.4503 46.364 13.4503ZM50.0251 16.5539C49.7305 16.5749 49.4359 16.4908 49.1992 16.3172C49.0993 16.2225 49.0204 16.1068 48.9678 15.9805C48.9152 15.8543 48.8836 15.7175 48.8836 15.5755V15.5544C48.8836 15.5281 48.8836 15.5071 48.8941 15.4808C48.9047 15.4598 48.9152 15.4335 48.931 15.4177C48.952 15.4019 48.973 15.3861 48.9993 15.3809C49.0256 15.3703 49.052 15.3703 49.0783 15.3703C49.1046 15.3703 49.1309 15.3703 49.1519 15.3809C49.1782 15.3914 49.1992 15.4019 49.2203 15.4177C49.2571 15.4598 49.2781 15.5071 49.2834 15.5597C49.2781 15.6439 49.2939 15.7333 49.3307 15.8122C49.3623 15.8911 49.4149 15.9647 49.478 16.0226C49.6464 16.1225 49.841 16.1699 50.0356 16.1541H50.9351C51.1455 16.1751 51.3612 16.1173 51.5295 15.991C51.6558 15.8227 51.7136 15.6123 51.6926 15.4019C51.7136 15.1915 51.6558 14.9758 51.5243 14.8075C51.3559 14.6812 51.1455 14.6234 50.9351 14.6444H50.1093C49.9567 14.6602 49.8042 14.6444 49.6569 14.5971C49.5096 14.5497 49.3781 14.4708 49.2624 14.3709C49.1466 14.2709 49.0572 14.1447 48.9941 14.0027C48.931 13.8606 48.8994 13.7134 48.8994 13.5608C48.8994 13.4083 48.931 13.2557 48.9941 13.1137C49.0572 12.9717 49.1466 12.8507 49.2571 12.7455C49.3676 12.6403 49.5043 12.5666 49.6464 12.514C49.7936 12.4667 49.9462 12.4456 50.0987 12.4614H50.9299C51.2087 12.4404 51.4822 12.5193 51.7084 12.6823C51.8031 12.7718 51.8767 12.8822 51.9293 12.998C51.9819 13.1189 52.0082 13.2452 52.0082 13.3767V13.403C52.0082 13.424 52.0029 13.4503 51.9977 13.4714C51.9872 13.4924 51.9766 13.5135 51.9609 13.5292C51.9398 13.545 51.9188 13.5608 51.8925 13.5713C51.8662 13.5818 51.8399 13.5818 51.8136 13.5818C51.7873 13.5818 51.761 13.5818 51.7399 13.5713C51.7136 13.5608 51.6926 13.5503 51.6768 13.5292C51.64 13.4924 51.619 13.4398 51.619 13.3872C51.619 13.3083 51.6032 13.2294 51.5716 13.1558C51.54 13.0821 51.4927 13.019 51.4348 12.9664C51.2823 12.877 51.1034 12.8349 50.9299 12.8507H50.0987C49.9041 12.8296 49.7095 12.8822 49.5517 13.0032C49.4359 13.161 49.3833 13.3557 49.4044 13.545C49.3833 13.7397 49.4359 13.9343 49.5569 14.0921C49.7147 14.2131 49.9094 14.2709 50.1093 14.2446H50.9351C51.0929 14.2289 51.256 14.2446 51.4085 14.2972C51.5611 14.3446 51.7031 14.4287 51.8241 14.5392C51.9451 14.6497 52.0398 14.7812 52.1029 14.9285C52.166 15.0758 52.2028 15.2336 52.2028 15.3966C52.2028 15.5597 52.1713 15.7175 52.1029 15.8648C52.0398 16.0121 51.9398 16.1436 51.8241 16.2541C51.7031 16.3593 51.5611 16.4434 51.4085 16.496C51.256 16.5486 51.0929 16.5644 50.9351 16.5486L50.0251 16.5539Z" fill="white"/>
</g>
<mask id="mask2_3080_471" style="mask-type:luminance" maskUnits="userSpaceOnUse" x="0" y="0" width="66" height="19">
<path d="M65.227 0H0V19H65.227V0Z" fill="white"/>
</mask>
<g mask="url(#mask2_3080_471)">
<path d="M15.5335 0H3.46124C2.5407 0 1.66224 0.368217 1.01523 1.01523C0.368217 1.6675 0 2.54596 0 3.4665V15.5335C0 16.454 0.362957 17.3325 1.01523 17.9848C1.66224 18.6318 2.54596 19 3.46124 19H15.5335C16.454 19 17.3325 18.6318 17.9795 17.9848C18.6265 17.3378 18.9947 16.454 18.9947 15.5388V3.4665C18.9947 2.54596 18.6318 1.6675 17.9795 1.02049C17.3325 0.368217 16.454 0 15.5335 0ZM12.6035 4.75C13.2769 4.75 13.9239 5.01827 14.3973 5.49695C14.8707 5.97564 15.139 6.61739 15.1442 7.2907C15.1442 7.71678 15.039 8.13234 14.8339 8.50581C14.5183 8.24806 14.1553 8.04817 13.7661 7.91667C13.8713 7.72204 13.9239 7.50637 13.9239 7.2907C13.9291 7.11711 13.8923 6.94352 13.8292 6.78045C13.7661 6.61739 13.6661 6.4701 13.5451 6.34385C13.4241 6.21761 13.2769 6.12292 13.1138 6.05454C12.9507 5.98616 12.7771 5.9546 12.6035 5.9546C12.43 5.9546 12.2564 5.99142 12.0933 6.05454C11.9302 6.12292 11.7882 6.22287 11.662 6.34385C11.541 6.4701 11.441 6.61739 11.3779 6.78045C11.3148 6.94352 11.278 7.11711 11.2832 7.2907C11.2832 7.51163 11.3358 7.7273 11.441 7.91667C11.0518 8.04817 10.6941 8.24806 10.3732 8.50581C10.1681 8.13234 10.0628 7.71678 10.0628 7.2907C10.0628 6.61739 10.3311 5.97038 10.8045 5.49695C11.2832 5.01827 11.9302 4.75 12.6035 4.75ZM6.3912 14.25C5.71788 14.25 5.07087 13.9817 4.59745 13.503C4.11877 13.0296 3.85576 12.3826 3.8505 11.7093H5.07087C5.07087 11.8829 5.10244 12.0565 5.17082 12.2143C5.2392 12.3721 5.33389 12.5194 5.45487 12.6404C5.57586 12.7614 5.72315 12.8613 5.88095 12.9244C6.04402 12.9928 6.21235 13.0244 6.38594 13.0244C6.55952 13.0244 6.73311 12.9875 6.89092 12.9244C7.04873 12.856 7.19601 12.7614 7.317 12.6404C7.43798 12.5194 7.53793 12.3721 7.60631 12.2143C7.6747 12.0512 7.70626 11.8829 7.70626 11.7093H8.92663C8.92663 12.0407 8.85825 12.3721 8.732 12.6824C8.60576 12.9875 8.41639 13.2716 8.17968 13.5083C7.94297 13.745 7.66418 13.9291 7.35382 14.0606C7.05399 14.1869 6.72785 14.25 6.3912 14.25ZM6.3912 10.6836C5.80205 10.6836 5.22868 10.51 4.74474 10.1838C4.25554 9.8577 3.8768 9.3948 3.65061 8.85299C3.42442 8.31119 3.36656 7.71152 3.48228 7.13815C3.59801 6.55952 3.88206 6.0335 4.29762 5.61794C4.71318 5.20238 5.24446 4.92359 5.81783 4.80786C6.3912 4.69214 6.99086 4.75526 7.53267 4.97619C8.07447 5.20238 8.53738 5.58112 8.86351 6.07032C9.18965 6.55952 9.36323 7.13289 9.36323 7.72204C9.36323 8.1113 9.28433 8.49529 9.13704 8.85825C8.98976 9.22121 8.76883 9.54734 8.49529 9.82087C8.22176 10.0944 7.89037 10.3153 7.53267 10.4626C7.16971 10.6099 6.78045 10.6836 6.3912 10.6836ZM12.6035 14.25C12.0144 14.25 11.441 14.0764 10.9518 13.7503C10.4626 13.4241 10.0839 12.9612 9.8577 12.4194C9.63151 11.8776 9.57364 11.278 9.68937 10.7046C9.80509 10.126 10.0839 9.59994 10.5047 9.18439C10.9203 8.76883 11.4463 8.48477 12.0249 8.37431C12.6035 8.25858 13.198 8.32171 13.7398 8.54264C14.2816 8.76883 14.7445 9.14756 15.0706 9.63677C15.3967 10.126 15.5703 10.6993 15.5703 11.2885C15.5703 12.0723 15.2547 12.8297 14.7024 13.3821C14.1395 13.9396 13.3873 14.25 12.6035 14.25ZM14.3552 11.2832C14.3552 11.6304 14.25 11.9671 14.0606 12.2564C13.866 12.5457 13.5925 12.7719 13.2769 12.9034C12.956 13.0349 12.6035 13.0717 12.2669 13.0033C11.9302 12.9349 11.6146 12.7666 11.3674 12.5246C11.1202 12.2774 10.9571 11.9671 10.8887 11.6304C10.8203 11.2885 10.8571 10.936 10.9886 10.6204C11.1202 10.2996 11.3463 10.026 11.6357 9.83666C11.925 9.64203 12.2616 9.54208 12.6088 9.54208C12.8403 9.54208 13.0664 9.58942 13.2769 9.67359C13.4873 9.76301 13.6819 9.88926 13.845 10.0523C14.008 10.2154 14.1343 10.41 14.2237 10.6204C14.3079 10.8256 14.3552 11.057 14.3552 11.2832ZM8.14286 7.71678C8.14286 8.06395 8.03765 8.40061 7.84828 8.68992C7.65365 8.97924 7.38012 9.20017 7.06451 9.33693C6.74363 9.46844 6.3912 9.50526 6.05454 9.43688C5.71788 9.36849 5.40227 9.20017 5.1603 8.9582C4.91307 8.71096 4.75 8.40061 4.68162 8.06395C4.61323 7.72204 4.65006 7.3696 4.78156 7.05399C4.91307 6.73311 5.13926 6.45958 5.42857 6.27021C5.71788 6.07558 6.05454 5.97564 6.40172 5.97564C6.86462 5.97564 7.31174 6.15975 7.63787 6.49114C7.95875 6.81202 8.14286 7.25388 8.14286 7.71678Z" fill="white"/>
</g>
</g>
<defs>
<clipPath id="clip0_3080_471">
<rect width="65.227" height="19" fill="white"/>
</clipPath>
</defs>
</svg>
