<svg width="69" height="20" viewBox="0 0 69 20" fill="none" xmlns="http://www.w3.org/2000/svg">
<g opacity="0.3" clip-path="url(#clip0_3080_454)">
<mask id="mask0_3080_454" style="mask-type:luminance" maskUnits="userSpaceOnUse" x="0" y="0" width="69" height="20">
<path d="M68.66 0H0V20H68.66V0Z" fill="white"/>
</mask>
<g mask="url(#mask0_3080_454)">
<path d="M36.8329 9.35222C36.473 9.19718 36.1463 8.9757 35.8695 8.69884C35.5926 8.42199 35.3767 8.08976 35.2161 7.73539C35.0168 7.27581 34.9393 6.77193 34.9891 6.26805C35.0334 5.76972 35.205 5.28799 35.4819 4.86717C35.7587 4.44635 36.1353 4.10859 36.5782 3.87049C37.0212 3.6324 37.514 3.51058 38.0179 3.51612C38.4276 3.51612 38.8263 3.59917 39.2028 3.75421C39.5627 3.90925 39.8839 4.13073 40.1663 4.40759C40.4431 4.68444 40.6646 5.01113 40.8086 5.37104C40.9692 5.74757 41.0522 6.15178 41.0522 6.55598C41.0522 6.96573 40.9692 7.3644 40.8086 7.74092C40.6535 8.10083 40.4376 8.42752 40.1607 8.70438C39.8839 8.98123 39.5517 9.20272 39.1973 9.35776C38.8208 9.51279 38.4166 9.59031 38.0123 9.59031C37.6081 9.59031 37.2095 9.51279 36.8329 9.35222ZM36.4011 2.71877C35.3988 3.13959 34.6015 3.93694 34.1862 4.93361C33.9703 5.44856 33.8595 5.99674 33.8595 6.55598C33.8595 7.10969 33.9703 7.6634 34.1862 8.17835C34.607 9.18057 35.4044 9.97237 36.4011 10.3932C36.916 10.6091 37.4642 10.7199 38.0179 10.7199C38.5716 10.7199 39.1253 10.6091 39.6403 10.3932C40.6425 9.97237 41.4398 9.17503 41.8551 8.17835C42.071 7.6634 42.1818 7.11523 42.1818 6.56152C42.1818 6.00781 42.071 5.4541 41.8551 4.94469C41.4343 3.94247 40.6369 3.14513 39.6347 2.72431C39.1198 2.50837 38.5716 2.40316 38.0179 2.40316C37.4642 2.39209 36.916 2.50283 36.4011 2.71877ZM27.5417 2.71324C27.0489 2.92365 26.5949 3.22819 26.2128 3.60471C25.8363 3.98677 25.5317 4.43528 25.3213 4.92808C25.1054 5.44303 24.9946 5.9912 24.9946 6.55045C24.9946 7.10969 25.1054 7.65787 25.3213 8.17282C25.5317 8.66562 25.8363 9.11412 26.2128 9.49618C26.5949 9.87271 27.0434 10.1772 27.5362 10.3877C28.0511 10.6036 28.5993 10.7088 29.1585 10.7088C30.2604 10.7088 31.318 10.2714 32.0987 9.49618C32.4808 9.11412 32.7798 8.66008 32.9902 8.16728C33.0345 8.05654 33.0733 7.9458 33.112 7.83505H31.8994C31.7499 8.15621 31.545 8.44967 31.2958 8.69884C31.0135 8.98123 30.6812 9.20825 30.3102 9.36329C29.9393 9.51833 29.5461 9.59031 29.1419 9.59031C28.7432 9.59031 28.3446 9.51279 27.9791 9.36329C27.6081 9.20825 27.2759 8.98677 26.9935 8.70438C26.7167 8.42752 26.5007 8.0953 26.3401 7.74092C26.0301 6.98234 26.0301 6.12963 26.3457 5.37104C26.5782 4.82287 26.9658 4.35222 27.4697 4.01999C27.9681 3.68777 28.555 3.51612 29.153 3.51612C29.5627 3.51612 29.9669 3.59917 30.3379 3.75421C30.6978 3.90925 31.0245 4.13073 31.3014 4.40759C31.5506 4.6623 31.7554 4.95576 31.9049 5.27691H33.112C33.0733 5.16064 33.0345 5.04989 32.9902 4.93915C32.5694 3.93694 31.772 3.14513 30.7698 2.71877C30.2549 2.50283 29.7067 2.39762 29.153 2.39762C28.6048 2.39209 28.0566 2.50283 27.5417 2.71324ZM43.4387 10.7143H44.5627V2.39209H43.4387V10.7143ZM57.3202 5.32675C57.3202 5.0665 57.37 4.80626 57.4697 4.56817C57.5694 4.32453 57.7133 4.10859 57.9016 3.92586C58.0843 3.74314 58.3058 3.59364 58.5439 3.49397C58.782 3.3943 59.0422 3.34447 59.3025 3.34447C59.5627 3.34447 59.823 3.3943 60.0611 3.49397C60.3047 3.59364 60.5207 3.7376 60.7034 3.92586C60.8861 4.11412 61.0356 4.33007 61.1353 4.56817C61.2349 4.8118 61.2848 5.0665 61.2848 5.32675C61.2848 5.85277 61.0744 6.35665 60.7034 6.73317C60.3324 7.10416 59.8285 7.31457 59.297 7.31457C58.7654 7.31457 58.2671 7.10416 57.8905 6.73317C57.5306 6.35665 57.3202 5.85277 57.3202 5.32675ZM56.3069 5.34336C56.3069 6.96573 57.6469 8.23926 59.3579 8.23926H60.0389L58.7156 10.7531H59.8451L61.9105 6.79962C62.1652 6.34557 62.3091 5.83616 62.3202 5.31014C62.2981 4.52387 61.9714 3.77636 61.4066 3.23373C60.8418 2.68555 60.0888 2.38101 59.3025 2.38655C58.5162 2.39209 57.7632 2.70216 57.2039 3.25587C56.6447 3.80958 56.3235 4.55709 56.3069 5.34336ZM64.2582 8.25034C64.2637 7.79629 64.452 7.3644 64.7787 7.04325C65.1054 6.7221 65.5373 6.54491 65.9913 6.54491C66.4454 6.54491 66.8828 6.7221 67.2095 7.04325C67.5362 7.3644 67.7189 7.79629 67.73 8.25034C67.73 8.70992 67.5472 9.15288 67.2205 9.47403C66.8939 9.80072 66.4564 9.98345 65.9913 9.98345C65.5262 9.98345 65.0888 9.80072 64.7676 9.47403C64.4409 9.15288 64.2582 8.70992 64.2582 8.25034ZM64.8341 4.44635C64.8341 4.14181 64.9559 3.84834 65.1663 3.62686C65.3822 3.41091 65.6702 3.28356 65.9747 3.27248C66.2848 3.27248 66.5838 3.3943 66.8053 3.61578C67.0267 3.83727 67.1486 4.13073 67.1486 4.44635C67.1486 4.75643 67.0267 5.05543 66.8053 5.27138C66.5838 5.49286 66.2903 5.61468 65.9747 5.61468C65.6702 5.60914 65.3822 5.48179 65.1663 5.2603C64.9559 5.04436 64.8341 4.75089 64.8341 4.44635ZM63.8983 4.44635C63.8927 4.90039 64.0367 5.34336 64.308 5.70881L64.5406 6.01889L64.2471 6.26805C63.9592 6.51169 63.7266 6.81623 63.5661 7.15953C63.4055 7.50283 63.3224 7.87935 63.328 8.25587C63.328 8.96462 63.6104 9.64015 64.1087 10.144C64.607 10.6424 65.2881 10.9248 65.9968 10.9248C66.7056 10.9248 67.3811 10.6424 67.885 10.144C68.3833 9.64568 68.6657 8.96462 68.6657 8.25587C68.6657 7.87381 68.5827 7.49729 68.4221 7.14845C68.2615 6.79962 68.0234 6.49508 67.73 6.25144L67.431 5.99674L67.6746 5.68666C67.9514 5.33228 68.0954 4.89485 68.0899 4.44635C68.0788 3.89818 67.8573 3.37769 67.4642 2.99009C67.071 2.60803 66.545 2.39209 65.9968 2.39209C65.4487 2.39209 64.9226 2.60803 64.5295 2.99009C64.1364 3.37215 63.9094 3.89818 63.8983 4.44635ZM53.6159 2.39209V8.84834C53.627 8.92586 53.6159 9.00338 53.5937 9.07536C53.5716 9.14735 53.5328 9.21933 53.483 9.2747C53.4332 9.33007 53.3723 9.3799 53.3003 9.41313C53.2283 9.44635 53.1563 9.46296 53.0788 9.46296C52.9459 9.45742 52.8241 9.41313 52.7133 9.34114C52.6026 9.26916 52.5195 9.16396 52.4642 9.04768L49.895 3.51612C49.7621 3.18389 49.5295 2.89596 49.2305 2.69663C48.9315 2.49729 48.5771 2.39209 48.2172 2.39209C47.7964 2.38655 47.3922 2.53051 47.0655 2.79076C47.0489 2.80183 47.0378 2.81291 47.0212 2.82398C46.8496 2.96241 46.7111 3.13959 46.617 3.34447C46.5229 3.5438 46.473 3.76529 46.473 3.98677V10.7143H47.6635V4.16396C47.658 4.09197 47.669 4.01446 47.6967 3.94247C47.7244 3.87049 47.7632 3.80958 47.813 3.75421C47.8628 3.69884 47.9293 3.65454 47.9957 3.62686C48.0622 3.59917 48.1397 3.58256 48.2117 3.58256C48.3446 3.5881 48.4719 3.6324 48.5771 3.70438C48.6823 3.7819 48.7654 3.8871 48.8097 4.00892L48.8318 4.06429C49.4354 5.39873 50.7864 8.33339 51.5782 9.89485C51.844 10.4153 52.2981 10.6534 53.0511 10.659C53.4775 10.6645 53.8927 10.5261 54.2305 10.2603C54.4132 10.144 54.5683 9.97791 54.6624 9.77858C54.7621 9.58478 54.8064 9.36329 54.7898 9.14735V2.39209H53.6159Z" fill="#565F77"/>
</g>
<mask id="mask1_3080_454" style="mask-type:luminance" maskUnits="userSpaceOnUse" x="0" y="0" width="69" height="20">
<path d="M68.66 0H0V20H68.66V0Z" fill="white"/>
</mask>
<g mask="url(#mask1_3080_454)">
<path d="M26.146 17.4254C26.1183 17.4309 26.0906 17.4254 26.0629 17.4143C26.0352 17.4032 26.0131 17.3921 25.9909 17.37C25.9688 17.3478 25.9577 17.3257 25.9466 17.298C25.9355 17.2703 25.9355 17.2426 25.9355 17.215V13.3279C25.9355 13.3002 25.9355 13.2725 25.9466 13.2449C25.9577 13.2172 25.9688 13.195 25.9909 13.1729C26.0186 13.1396 26.0574 13.1175 26.1017 13.112C26.146 13.1009 26.1847 13.1064 26.229 13.123C26.2678 13.1396 26.301 13.1673 26.3231 13.2061C26.3453 13.2449 26.3564 13.2836 26.3508 13.3279V17.215C26.3508 17.2426 26.3508 17.2703 26.3398 17.298C26.3287 17.3257 26.3176 17.3478 26.301 17.37C26.2788 17.3866 26.2567 17.4032 26.229 17.4143C26.2013 17.4254 26.1736 17.4309 26.146 17.4254ZM27.8348 17.4254C27.8071 17.4309 27.7794 17.4254 27.7517 17.4198C27.724 17.4088 27.7019 17.3977 27.6797 17.3755C27.6576 17.3534 27.6465 17.3312 27.6354 17.3035C27.6244 17.2759 27.6244 17.2482 27.6299 17.2205V13.3334C27.6244 13.3058 27.6299 13.2781 27.6354 13.2504C27.6465 13.2227 27.6576 13.2006 27.6797 13.1784C27.7019 13.1563 27.724 13.1452 27.7517 13.1341C27.7794 13.123 27.8071 13.123 27.8348 13.1286C27.8791 13.1341 27.9178 13.1452 27.9511 13.1673C27.9843 13.1895 28.0175 13.2172 28.0396 13.2504L30.6753 16.6391V13.339C30.6753 13.3113 30.6808 13.2836 30.6864 13.2559C30.6975 13.2282 30.7141 13.2061 30.7307 13.1839C30.7473 13.1618 30.775 13.1452 30.7971 13.1396C30.8248 13.1286 30.8525 13.123 30.8802 13.123C30.9079 13.123 30.9355 13.1286 30.9632 13.1396C30.9909 13.1507 31.0131 13.1673 31.0297 13.1839C31.0463 13.2061 31.0629 13.2282 31.074 13.2559C31.085 13.2836 31.0906 13.3113 31.085 13.339V17.226C31.0906 17.2537 31.085 17.2814 31.0795 17.3091C31.0684 17.3368 31.0574 17.3589 31.0352 17.3811C31.0131 17.4032 30.9909 17.4143 30.9632 17.4254C30.9355 17.4364 30.9079 17.4364 30.8802 17.4309C30.8359 17.4254 30.7971 17.4143 30.7639 17.3921C30.7251 17.37 30.6975 17.3423 30.6753 17.3091L28.0396 13.9259V17.226C28.0452 17.2537 28.0396 17.2814 28.0341 17.3091C28.023 17.3368 28.012 17.3589 27.9898 17.3811C27.9677 17.4032 27.9455 17.4143 27.9178 17.4254C27.8901 17.4309 27.8625 17.4309 27.8348 17.4254ZM33.4605 17.4254C33.1504 17.4475 32.8403 17.3589 32.5911 17.1762C32.4859 17.0765 32.4029 16.9547 32.3475 16.8218C32.2921 16.6889 32.2589 16.545 32.2589 16.3955V16.3733C32.2589 16.3456 32.2589 16.3235 32.27 16.2958C32.2811 16.2736 32.2921 16.246 32.3087 16.2293C32.3309 16.2127 32.353 16.1961 32.3807 16.1906C32.4084 16.1795 32.4361 16.1795 32.4638 16.1795C32.4915 16.1795 32.5192 16.1795 32.5413 16.1906C32.569 16.2017 32.5911 16.2127 32.6078 16.2293C32.6465 16.2736 32.6687 16.3235 32.6742 16.3788C32.6687 16.4674 32.6853 16.5616 32.724 16.6446C32.7573 16.7277 32.8126 16.8052 32.8791 16.8661C33.0563 16.9713 33.2611 17.0212 33.466 17.0045H34.4128C34.6343 17.0267 34.8613 16.9658 35.0385 16.8329C35.1714 16.6557 35.2323 16.4342 35.2102 16.2127C35.2323 15.9913 35.1714 15.7642 35.033 15.587C34.8558 15.4542 34.6343 15.3932 34.4128 15.4154H33.5435C33.3829 15.432 33.2224 15.4154 33.0673 15.3656C32.9123 15.3157 32.7739 15.2327 32.652 15.1275C32.5358 15.0167 32.4361 14.8894 32.3697 14.7399C32.3032 14.5959 32.27 14.4353 32.27 14.2748C32.27 14.1142 32.3032 13.9536 32.3697 13.8041C32.4361 13.6546 32.5302 13.5272 32.6465 13.4165C32.7628 13.3058 32.9068 13.2282 33.0563 13.1729C33.2113 13.123 33.3719 13.1009 33.5324 13.1175H34.4073C34.7008 13.0954 34.9887 13.1784 35.2268 13.3501C35.3265 13.4442 35.404 13.5605 35.4594 13.6823C35.5147 13.8096 35.5424 13.9425 35.5424 14.081V14.1086C35.5424 14.1308 35.5369 14.1585 35.5313 14.1806C35.5203 14.2028 35.5092 14.2249 35.4926 14.2415C35.4704 14.2581 35.4483 14.2748 35.4206 14.2858C35.3929 14.2969 35.3652 14.2969 35.3375 14.2969C35.3099 14.2969 35.2822 14.2969 35.26 14.2858C35.2323 14.2748 35.2102 14.2637 35.1936 14.2415C35.1548 14.2028 35.1327 14.1474 35.1327 14.092C35.1327 14.009 35.1161 13.9259 35.0828 13.8484C35.0496 13.7709 34.9998 13.7044 34.9389 13.6491C34.7783 13.5549 34.5956 13.5106 34.4073 13.5272H33.5324C33.3276 13.5051 33.1227 13.5605 32.9566 13.6878C32.8348 13.8539 32.7794 14.0588 32.8016 14.2581C32.7794 14.463 32.8348 14.6679 32.9621 14.834C33.1282 14.9614 33.3331 15.0223 33.5435 14.9946H34.4128C34.5845 14.978 34.7506 14.9946 34.9112 15.0499C35.0718 15.0998 35.2213 15.1884 35.3486 15.3047C35.476 15.4209 35.5756 15.5594 35.6421 15.7144C35.7085 15.8694 35.7473 16.0356 35.7473 16.2072C35.7473 16.3789 35.7141 16.545 35.6421 16.7C35.5756 16.855 35.4704 16.9935 35.3486 17.1097C35.2213 17.226 35.0773 17.3091 34.9112 17.3645C34.7506 17.4198 34.579 17.4364 34.4128 17.4198C34.4073 17.4254 33.4605 17.4254 33.4605 17.4254ZM36.9821 17.4254C36.9544 17.4309 36.9267 17.4254 36.899 17.4143C36.8713 17.4032 36.8492 17.3921 36.827 17.37C36.8049 17.3478 36.7938 17.3257 36.7827 17.298C36.7716 17.2703 36.7716 17.2426 36.7716 17.215V13.3279C36.7716 13.3002 36.7716 13.2725 36.7827 13.2449C36.7938 13.2172 36.8049 13.195 36.827 13.1729C36.8547 13.1396 36.8935 13.1175 36.9378 13.112C36.9821 13.1009 37.0208 13.1064 37.0651 13.123C37.1039 13.1396 37.1371 13.1673 37.1592 13.2061C37.1814 13.2449 37.1925 13.2836 37.1869 13.3279V17.215C37.1869 17.2426 37.1869 17.2703 37.1759 17.298C37.1648 17.3257 37.1537 17.3478 37.1316 17.37C37.1094 17.3866 37.0873 17.4032 37.0596 17.4143C37.0374 17.4254 37.0097 17.4309 36.9821 17.4254ZM39.7506 17.4254C39.5623 17.442 39.3685 17.4198 39.1858 17.3645C39.0031 17.3091 38.8314 17.215 38.6875 17.0876C38.5657 16.9436 38.4715 16.772 38.4106 16.5893C38.3553 16.4065 38.3331 16.2127 38.3497 16.0245V14.5239C38.3331 14.3357 38.3553 14.1419 38.4106 13.9591C38.466 13.7764 38.5601 13.6048 38.6875 13.4608C38.8314 13.339 38.9976 13.2449 39.1747 13.1895C39.3519 13.1341 39.5402 13.112 39.7285 13.1286H40.5369C40.8636 13.1064 41.1847 13.195 41.4505 13.3777C41.5612 13.4829 41.6498 13.6048 41.7052 13.7432C41.7661 13.8816 41.7938 14.0311 41.7883 14.1806C41.7938 14.1917 41.7938 14.2083 41.7938 14.2194C41.7938 14.2637 41.7772 14.308 41.744 14.3412C41.7218 14.3578 41.6997 14.3744 41.672 14.38C41.6443 14.391 41.6166 14.391 41.5889 14.391C41.5612 14.391 41.5336 14.391 41.5059 14.38C41.4782 14.3689 41.456 14.3578 41.4339 14.3357C41.4117 14.3135 41.3951 14.2914 41.3841 14.2692C41.373 14.2415 41.3674 14.2138 41.3674 14.1862C41.373 14.092 41.3508 13.9924 41.3176 13.9038C41.2788 13.8152 41.2235 13.7377 41.1515 13.6712C40.9632 13.566 40.7417 13.5162 40.5258 13.5328H39.7063C39.518 13.5272 39.3243 13.5549 39.1471 13.6214C39.0086 13.6767 38.8979 13.7875 38.8425 13.9259C38.7705 14.1142 38.7429 14.3135 38.7484 14.5184V16.0189C38.7429 16.2183 38.7705 16.4176 38.8425 16.6059C38.8979 16.7443 39.0142 16.855 39.1526 16.9159C39.3409 16.9879 39.5402 17.0156 39.7395 17.0101H40.5258C40.703 17.0156 40.8746 16.9935 41.0408 16.9326C41.1017 16.9104 41.157 16.8717 41.2013 16.8274C41.2456 16.7831 41.2844 16.7277 41.3065 16.6668C41.3619 16.5007 41.3896 16.329 41.3841 16.1518V15.7753L40.7362 15.7698C40.6808 15.7698 40.631 15.7476 40.5922 15.7089C40.5535 15.6701 40.5369 15.6203 40.5369 15.5649C40.5369 15.5095 40.559 15.4597 40.5922 15.4209C40.631 15.3822 40.6808 15.36 40.7362 15.36L41.5945 15.3656C41.6221 15.36 41.6498 15.3656 41.6775 15.3711C41.7052 15.3822 41.7274 15.3932 41.7495 15.4154C41.7716 15.4375 41.7827 15.4597 41.7938 15.4874C41.8049 15.5151 41.8049 15.5427 41.7993 15.5704V16.1574C41.8159 16.329 41.7938 16.5062 41.744 16.6723C41.6941 16.8384 41.6055 16.9935 41.4948 17.1264C41.2235 17.3534 40.8802 17.4586 40.5258 17.4309L39.7506 17.4254ZM43.3165 15.0444H45.4206C45.476 15.0444 45.5258 15.061 45.5701 15.0942C45.6089 15.1385 45.631 15.1939 45.631 15.2493C45.631 15.3047 45.6089 15.3656 45.5701 15.4043C45.5258 15.4375 45.476 15.4542 45.4206 15.4542H43.311V17.2205C43.311 17.2482 43.3054 17.2759 43.2999 17.3035C43.2888 17.3312 43.2722 17.3534 43.2556 17.3755C43.239 17.3977 43.2113 17.4088 43.1891 17.4198C43.1615 17.4309 43.1338 17.4364 43.1061 17.4364C43.0784 17.4364 43.0507 17.4309 43.023 17.4198C42.9953 17.4088 42.9732 17.3921 42.9566 17.3755C42.94 17.3534 42.9234 17.3312 42.9123 17.3035C42.9012 17.2759 42.8957 17.2482 42.9012 17.2205V13.3334C42.9012 13.3058 42.9068 13.2781 42.9178 13.2559C42.9289 13.2282 42.9455 13.2061 42.9621 13.1895C42.9843 13.1673 43.0064 13.1563 43.0286 13.1452C43.0563 13.1341 43.0839 13.1286 43.1116 13.1286C43.1393 13.1286 43.167 13.1341 43.1891 13.1452C43.2113 13.1563 43.239 13.1729 43.2556 13.1895C43.2777 13.2061 43.2888 13.2338 43.2999 13.2559C43.311 13.2836 43.3165 13.3113 43.3165 13.3334V15.0444ZM46.456 13.3334V17.2205C46.456 17.2482 46.4505 17.2759 46.4394 17.298C46.4283 17.3257 46.4117 17.3478 46.3951 17.3645C46.373 17.3811 46.3508 17.3977 46.3287 17.4088C46.301 17.4198 46.2788 17.4254 46.2512 17.4254C46.2235 17.4254 46.1958 17.4198 46.1736 17.4143C46.146 17.4032 46.1238 17.3866 46.1072 17.37C46.085 17.3534 46.0684 17.3257 46.0574 17.3035C46.0463 17.2759 46.0408 17.2482 46.0408 17.2205V13.3334C46.0408 13.3058 46.0463 13.2781 46.0574 13.2504C46.0684 13.2227 46.085 13.2006 46.1072 13.1839C46.1238 13.1673 46.146 13.1507 46.1736 13.1396C46.2013 13.1286 46.2235 13.123 46.2512 13.123C46.2788 13.123 46.3065 13.1286 46.3287 13.1396C46.3564 13.1507 46.3785 13.1673 46.3951 13.1839C46.4117 13.2006 46.4283 13.2282 46.4394 13.2504C46.4505 13.2781 46.456 13.3058 46.456 13.3334ZM50.7251 13.1839C50.7473 13.2061 50.7584 13.2282 50.7694 13.2504C50.7805 13.2781 50.786 13.3058 50.7805 13.3334C50.786 13.3888 50.7639 13.4442 50.7307 13.4829C50.7085 13.4996 50.6864 13.5162 50.6587 13.5272C50.631 13.5383 50.6033 13.5439 50.5756 13.5383H47.4527C47.425 13.5439 47.3973 13.5383 47.3697 13.5272C47.342 13.5162 47.3198 13.5051 47.2977 13.4829C47.2755 13.4608 47.2645 13.4387 47.2534 13.411C47.2423 13.3833 47.2423 13.3556 47.2423 13.3279C47.2368 13.3002 47.2423 13.2725 47.2534 13.2449C47.2645 13.2172 47.2755 13.195 47.2977 13.1729C47.3198 13.1507 47.342 13.1396 47.3697 13.1286C47.3973 13.1175 47.425 13.1175 47.4527 13.1175H50.5756C50.6033 13.1175 50.631 13.1175 50.6532 13.1286C50.6864 13.1452 50.7085 13.1618 50.7251 13.1839ZM48.8038 14.1585C48.8038 14.1086 48.8148 14.0533 48.8481 14.0145C48.8702 13.9924 48.8979 13.9757 48.9256 13.9647C48.9533 13.9536 48.9865 13.9481 49.0142 13.9536C49.0419 13.9481 49.0751 13.9536 49.1028 13.9647C49.1305 13.9757 49.1581 13.9924 49.1747 14.0145C49.2024 14.0588 49.219 14.1086 49.219 14.1585V17.2205C49.219 17.2482 49.219 17.2759 49.208 17.3035C49.1969 17.3312 49.1858 17.3534 49.1637 17.37C49.1415 17.3866 49.1194 17.4032 49.0917 17.4143C49.064 17.4254 49.0363 17.4254 49.0086 17.4254C48.9533 17.4309 48.8979 17.4088 48.8536 17.37C48.8314 17.3478 48.8204 17.3257 48.8093 17.298C48.7982 17.2703 48.7927 17.2426 48.7982 17.215C48.8038 17.2205 48.8038 14.1585 48.8038 14.1585ZM52.6576 17.4254C52.3475 17.4475 52.0374 17.3589 51.7883 17.1762C51.6831 17.0765 51.6 16.9547 51.5446 16.8218C51.4893 16.6889 51.456 16.545 51.456 16.3955V16.3733C51.456 16.3456 51.456 16.3235 51.4671 16.2958C51.4782 16.2736 51.4893 16.246 51.5059 16.2293C51.528 16.2127 51.5502 16.1961 51.5778 16.1906C51.6055 16.1795 51.6332 16.1795 51.6609 16.1795C51.6886 16.1795 51.7163 16.1795 51.7384 16.1906C51.7661 16.2017 51.7883 16.2127 51.8104 16.2293C51.8492 16.2736 51.8713 16.3235 51.8769 16.3788C51.8713 16.4674 51.8879 16.5616 51.9267 16.6446C51.9599 16.7277 52.0153 16.8052 52.0817 16.8661C52.2589 16.9713 52.4638 17.0212 52.6687 17.0045H53.6155C53.837 17.0267 54.064 16.9658 54.2412 16.8329C54.3741 16.6557 54.435 16.4342 54.4128 16.2127C54.435 15.9913 54.3741 15.7642 54.2357 15.587C54.0585 15.4542 53.837 15.3932 53.6155 15.4154H52.7462C52.5856 15.432 52.425 15.4154 52.27 15.3656C52.1149 15.3157 51.9765 15.2327 51.8547 15.1275C51.7329 15.0223 51.6388 14.8894 51.5723 14.7399C51.5059 14.5904 51.4726 14.4353 51.4726 14.2748C51.4726 14.1142 51.5059 13.9536 51.5723 13.8041C51.6388 13.6546 51.7329 13.5272 51.8492 13.4165C51.9654 13.3058 52.1094 13.2282 52.2589 13.1729C52.414 13.123 52.5745 13.1009 52.7351 13.1175H53.61C53.9034 13.0954 54.1914 13.1784 54.4295 13.3501C54.5291 13.4442 54.6066 13.5605 54.662 13.6823C54.7174 13.8096 54.7451 13.9425 54.7451 14.081V14.1086C54.7451 14.1308 54.7395 14.1585 54.734 14.1806C54.7229 14.2028 54.7118 14.2249 54.6952 14.2415C54.6731 14.2581 54.6509 14.2748 54.6233 14.2858C54.5956 14.2969 54.5679 14.2969 54.5402 14.2969C54.5125 14.2969 54.4848 14.2969 54.4627 14.2858C54.435 14.2748 54.4128 14.2637 54.3962 14.2415C54.3575 14.2028 54.3353 14.1474 54.3353 14.092C54.3353 14.009 54.3187 13.9259 54.2855 13.8484C54.2523 13.7709 54.2024 13.7044 54.1415 13.6491C53.9809 13.5549 53.7927 13.5106 53.61 13.5272H52.7351C52.5302 13.5051 52.3254 13.5605 52.1592 13.6878C52.0374 13.8539 51.9821 14.0588 52.0042 14.2581C51.9821 14.463 52.0374 14.6679 52.1648 14.834C52.3309 14.9614 52.5358 15.0223 52.7462 14.9946H53.6155C53.7816 14.978 53.9533 14.9946 54.1138 15.0499C54.2744 15.0998 54.4239 15.1884 54.5513 15.3047C54.6786 15.4209 54.7783 15.5594 54.8447 15.7144C54.9112 15.8694 54.9499 16.0356 54.9499 16.2072C54.9499 16.3789 54.9167 16.545 54.8447 16.7C54.7783 16.855 54.6731 16.9935 54.5513 17.1097C54.4239 17.2205 54.2744 17.3091 54.1138 17.3645C53.9533 17.4198 53.7816 17.4364 53.6155 17.4198L52.6576 17.4254Z" fill="#565F77"/>
</g>
<mask id="mask2_3080_454" style="mask-type:luminance" maskUnits="userSpaceOnUse" x="0" y="0" width="69" height="20">
<path d="M68.66 0H0V20H68.66V0Z" fill="white"/>
</mask>
<g mask="url(#mask2_3080_454)">
<path d="M16.3511 0H3.64341C2.67442 0 1.74972 0.387597 1.06866 1.06866C0.387597 1.75526 0 2.67996 0 3.64895V16.3511C0 17.32 0.38206 18.2447 1.06866 18.9313C1.74972 19.6124 2.67996 20 3.64341 20H16.3511C17.32 20 18.2447 19.6124 18.9258 18.9313C19.6069 18.2503 19.9945 17.32 19.9945 16.3566V3.64895C19.9945 2.67996 19.6124 1.75526 18.9258 1.0742C18.2447 0.387597 17.32 0 16.3511 0ZM13.2669 5C13.9756 5 14.6567 5.28239 15.155 5.78627C15.6534 6.29014 15.9358 6.96567 15.9413 7.67442C15.9413 8.12292 15.8306 8.56035 15.6146 8.95349C15.2824 8.68217 14.9003 8.47176 14.4906 8.33333C14.6013 8.12846 14.6567 7.90144 14.6567 7.67442C14.6622 7.49169 14.6235 7.30897 14.557 7.13732C14.4906 6.96567 14.3854 6.81063 14.258 6.67774C14.1307 6.54485 13.9756 6.44518 13.804 6.3732C13.6323 6.30122 13.4496 6.268 13.2669 6.268C13.0842 6.268 12.9014 6.30675 12.7298 6.3732C12.5581 6.44518 12.4086 6.55039 12.2757 6.67774C12.1484 6.81063 12.0432 6.96567 11.9767 7.13732C11.9103 7.30897 11.8715 7.49169 11.8771 7.67442C11.8771 7.90698 11.9324 8.134 12.0432 8.33333C11.6334 8.47176 11.2569 8.68217 10.9192 8.95349C10.7032 8.56035 10.5925 8.12292 10.5925 7.67442C10.5925 6.96567 10.8749 6.28461 11.3732 5.78627C11.8771 5.28239 12.5581 5 13.2669 5ZM6.72757 15C6.01883 15 5.33776 14.7176 4.83942 14.2137C4.33555 13.7154 4.05869 13.0343 4.05316 12.3256H5.33776C5.33776 12.5083 5.37099 12.691 5.44297 12.8571C5.51495 13.0233 5.61462 13.1783 5.74197 13.3056C5.86932 13.433 6.02436 13.5382 6.19048 13.6047C6.36213 13.6766 6.53931 13.7099 6.72204 13.7099C6.90476 13.7099 7.08749 13.6711 7.2536 13.6047C7.41971 13.5327 7.57475 13.433 7.7021 13.3056C7.82946 13.1783 7.93466 13.0233 8.00664 12.8571C8.07863 12.6855 8.11185 12.5083 8.11185 12.3256H9.39646C9.39646 12.6744 9.32447 13.0233 9.19158 13.3499C9.05869 13.6711 8.85936 13.9701 8.61019 14.2193C8.36102 14.4684 8.06755 14.6622 7.74086 14.8007C7.42525 14.9336 7.08195 15 6.72757 15ZM6.72757 11.2458C6.10742 11.2458 5.50388 11.0631 4.99446 10.7198C4.47951 10.3765 4.08084 9.88926 3.84275 9.31894C3.60465 8.74862 3.54374 8.11739 3.66556 7.51384C3.78738 6.90476 4.08638 6.35105 4.52381 5.91362C4.96124 5.47619 5.52049 5.18272 6.12403 5.06091C6.72757 4.93909 7.3588 5.00554 7.92913 5.23809C8.49945 5.47619 8.98671 5.87486 9.33001 6.38981C9.67331 6.90476 9.85604 7.50831 9.85604 8.12846C9.85604 8.53821 9.77298 8.94241 9.61794 9.32447C9.4629 9.70653 9.23034 10.0498 8.94241 10.3378C8.65449 10.6257 8.30565 10.8582 7.92913 11.0133C7.54707 11.1683 7.13732 11.2458 6.72757 11.2458ZM13.2669 15C12.6467 15 12.0432 14.8173 11.5282 14.474C11.0133 14.1307 10.6146 13.6434 10.3765 13.0731C10.1384 12.5028 10.0775 11.8715 10.1993 11.268C10.3212 10.6589 10.6146 10.1052 11.0576 9.66777C11.495 9.23034 12.0487 8.93134 12.6578 8.81506C13.2669 8.69324 13.8926 8.75969 14.4629 8.99225C15.0332 9.23034 15.5205 9.62901 15.8638 10.144C16.2071 10.6589 16.3898 11.2625 16.3898 11.8826C16.3898 12.7076 16.0576 13.505 15.4762 14.0864C14.8837 14.6733 14.0919 15 13.2669 15ZM15.1107 11.8771C15.1107 12.2425 15 12.5969 14.8007 12.9014C14.5958 13.206 14.3079 13.4441 13.9756 13.5825C13.6379 13.7209 13.2669 13.7597 12.9125 13.6877C12.5581 13.6157 12.2259 13.4385 11.9657 13.1838C11.7054 12.9236 11.5338 12.5969 11.4618 12.2425C11.3898 11.8826 11.4286 11.5116 11.567 11.1794C11.7054 10.8416 11.9435 10.5537 12.2481 10.3544C12.5526 10.1495 12.907 10.0443 13.2724 10.0443C13.5161 10.0443 13.7542 10.0941 13.9756 10.1827C14.1971 10.2769 14.402 10.4097 14.5736 10.5814C14.7453 10.753 14.8782 10.9579 14.9723 11.1794C15.0609 11.3953 15.1107 11.639 15.1107 11.8771ZM8.57143 8.12292C8.57143 8.48837 8.46069 8.84275 8.26135 9.14729C8.05648 9.45183 7.76855 9.68438 7.43632 9.82835C7.09856 9.96678 6.72757 10.0055 6.3732 9.93355C6.01883 9.86157 5.6866 9.68439 5.43189 9.42968C5.17165 9.16943 5 8.84275 4.92802 8.48837C4.85604 8.12846 4.8948 7.75748 5.03322 7.42525C5.17165 7.08749 5.40975 6.79956 5.71429 6.60022C6.01883 6.39535 6.3732 6.29014 6.73865 6.29014C7.22591 6.29014 7.69657 6.48394 8.03987 6.83278C8.37763 7.17054 8.57143 7.63566 8.57143 8.12292Z" fill="#565F77"/>
</g>
</g>
<defs>
<clipPath id="clip0_3080_454">
<rect width="68.66" height="20" fill="white"/>
</clipPath>
</defs>
</svg>
