<svg width="121" height="4" viewBox="0 0 121 4" fill="none" xmlns="http://www.w3.org/2000/svg">
<circle cx="5.28336" cy="2.88193" r="0.480316" transform="rotate(180 5.28336 2.88193)" fill="#C2CDD5"/>
<circle cx="12.4884" cy="2.88193" r="0.480316" transform="rotate(180 12.4884 2.88193)" fill="#C2CDD5"/>
<circle cx="0.480621" cy="2.88193" r="0.480316" transform="rotate(180 0.480621 2.88193)" fill="#C2CDD5"/>
<circle cx="7.68472" cy="2.88193" r="0.480316" transform="rotate(180 7.68472 2.88193)" fill="#C2CDD5"/>
<circle cx="14.8888" cy="2.88193" r="0.480316" transform="rotate(180 14.8888 2.88193)" fill="#C2CDD5"/>
<circle cx="2.88101" cy="2.88193" r="0.480316" transform="rotate(180 2.88101 2.88193)" fill="#C2CDD5"/>
<circle cx="10.0861" cy="2.88193" r="0.480316" transform="rotate(180 10.0861 2.88193)" fill="#C2CDD5"/>
<circle cx="17.2912" cy="2.88193" r="0.480316" transform="rotate(180 17.2912 2.88193)" fill="#C2CDD5"/>
<circle cx="5.28238" cy="0.480316" r="0.480316" transform="rotate(180 5.28238 0.480316)" fill="#C2CDD5"/>
<circle cx="12.4875" cy="0.480316" r="0.480316" transform="rotate(180 12.4875 0.480316)" fill="#C2CDD5"/>
<circle cx="0.479645" cy="0.480316" r="0.480316" transform="rotate(180 0.479645 0.480316)" fill="#C2CDD5"/>
<circle cx="7.68472" cy="0.480316" r="0.480316" transform="rotate(180 7.68472 0.480316)" fill="#C2CDD5"/>
<circle cx="14.8888" cy="0.480316" r="0.480316" transform="rotate(180 14.8888 0.480316)" fill="#C2CDD5"/>
<circle cx="2.88101" cy="0.480316" r="0.480316" transform="rotate(180 2.88101 0.480316)" fill="#C2CDD5"/>
<circle cx="10.0861" cy="0.480316" r="0.480316" transform="rotate(180 10.0861 0.480316)" fill="#C2CDD5"/>
<circle cx="17.2912" cy="0.480316" r="0.480316" transform="rotate(180 17.2912 0.480316)" fill="#C2CDD5"/>
<circle cx="41.3068" cy="2.88193" r="0.480316" transform="rotate(180 41.3068 2.88193)" fill="#C2CDD5"/>
<circle cx="48.5119" cy="2.88193" r="0.480316" transform="rotate(180 48.5119 2.88193)" fill="#C2CDD5"/>
<circle cx="55.7169" cy="2.88193" r="0.480316" transform="rotate(180 55.7169 2.88193)" fill="#C2CDD5"/>
<circle cx="43.7091" cy="2.88193" r="0.480316" transform="rotate(180 43.7091 2.88193)" fill="#C2CDD5"/>
<circle cx="50.9132" cy="2.88193" r="0.480316" transform="rotate(180 50.9132 2.88193)" fill="#C2CDD5"/>
<circle cx="58.1173" cy="2.88193" r="0.480316" transform="rotate(180 58.1173 2.88193)" fill="#C2CDD5"/>
<circle cx="46.1095" cy="2.88193" r="0.480316" transform="rotate(180 46.1095 2.88193)" fill="#C2CDD5"/>
<circle cx="53.3146" cy="2.88193" r="0.480316" transform="rotate(180 53.3146 2.88193)" fill="#C2CDD5"/>
<circle cx="60.5197" cy="2.88193" r="0.480316" transform="rotate(180 60.5197 2.88193)" fill="#C2CDD5"/>
<circle cx="41.3068" cy="0.480316" r="0.480316" transform="rotate(180 41.3068 0.480316)" fill="#C2CDD5"/>
<circle cx="48.5109" cy="0.480316" r="0.480316" transform="rotate(180 48.5109 0.480316)" fill="#C2CDD5"/>
<circle cx="55.716" cy="0.480316" r="0.480316" transform="rotate(180 55.716 0.480316)" fill="#C2CDD5"/>
<circle cx="43.7082" cy="0.480316" r="0.480316" transform="rotate(180 43.7082 0.480316)" fill="#C2CDD5"/>
<circle cx="50.9132" cy="0.480316" r="0.480316" transform="rotate(180 50.9132 0.480316)" fill="#C2CDD5"/>
<circle cx="58.1173" cy="0.480316" r="0.480316" transform="rotate(180 58.1173 0.480316)" fill="#C2CDD5"/>
<circle cx="46.1095" cy="0.480316" r="0.480316" transform="rotate(180 46.1095 0.480316)" fill="#C2CDD5"/>
<circle cx="53.3146" cy="0.480316" r="0.480316" transform="rotate(180 53.3146 0.480316)" fill="#C2CDD5"/>
<circle cx="60.5197" cy="0.480377" r="0.480316" transform="rotate(180 60.5197 0.480377)" fill="#C2CDD5"/>
<circle cx="19.6935" cy="2.88193" r="0.480316" transform="rotate(180 19.6935 2.88193)" fill="#C2CDD5"/>
<circle cx="26.8966" cy="2.88193" r="0.480316" transform="rotate(180 26.8966 2.88193)" fill="#C2CDD5"/>
<circle cx="34.1017" cy="2.88193" r="0.480316" transform="rotate(180 34.1017 2.88193)" fill="#C2CDD5"/>
<circle cx="22.0939" cy="2.88193" r="0.480316" transform="rotate(180 22.0939 2.88193)" fill="#C2CDD5"/>
<circle cx="29.299" cy="2.88193" r="0.480316" transform="rotate(180 29.299 2.88193)" fill="#C2CDD5"/>
<circle cx="36.5041" cy="2.88193" r="0.480316" transform="rotate(180 36.5041 2.88193)" fill="#C2CDD5"/>
<circle cx="24.4962" cy="2.88193" r="0.480316" transform="rotate(180 24.4962 2.88193)" fill="#C2CDD5"/>
<circle cx="31.7013" cy="2.88193" r="0.480316" transform="rotate(180 31.7013 2.88193)" fill="#C2CDD5"/>
<circle cx="38.9054" cy="2.88193" r="0.480316" transform="rotate(180 38.9054 2.88193)" fill="#C2CDD5"/>
<circle cx="19.6925" cy="0.480316" r="0.480316" transform="rotate(180 19.6925 0.480316)" fill="#C2CDD5"/>
<circle cx="26.8966" cy="0.480316" r="0.480316" transform="rotate(180 26.8966 0.480316)" fill="#C2CDD5"/>
<circle cx="34.1017" cy="0.480316" r="0.480316" transform="rotate(180 34.1017 0.480316)" fill="#C2CDD5"/>
<circle cx="22.0939" cy="0.480316" r="0.480316" transform="rotate(180 22.0939 0.480316)" fill="#C2CDD5"/>
<circle cx="29.299" cy="0.480316" r="0.480316" transform="rotate(180 29.299 0.480316)" fill="#C2CDD5"/>
<circle cx="36.5031" cy="0.480316" r="0.480316" transform="rotate(180 36.5031 0.480316)" fill="#C2CDD5"/>
<circle cx="24.4953" cy="0.480316" r="0.480316" transform="rotate(180 24.4953 0.480316)" fill="#C2CDD5"/>
<circle cx="31.7003" cy="0.480316" r="0.480316" transform="rotate(180 31.7003 0.480316)" fill="#C2CDD5"/>
<circle cx="38.9054" cy="0.480316" r="0.480316" transform="rotate(180 38.9054 0.480316)" fill="#C2CDD5"/>
<circle cx="65.2834" cy="2.88193" r="0.480316" transform="rotate(180 65.2834 2.88193)" fill="#C2CDD5"/>
<circle cx="72.4884" cy="2.88193" r="0.480316" transform="rotate(180 72.4884 2.88193)" fill="#C2CDD5"/>
<circle cx="60.4796" cy="2.88193" r="0.480316" transform="rotate(180 60.4796 2.88193)" fill="#C2CDD5"/>
<circle cx="67.6847" cy="2.88193" r="0.480316" transform="rotate(180 67.6847 2.88193)" fill="#C2CDD5"/>
<circle cx="74.8898" cy="2.88193" r="0.480316" transform="rotate(180 74.8898 2.88193)" fill="#C2CDD5"/>
<circle cx="62.882" cy="2.88193" r="0.480316" transform="rotate(180 62.882 2.88193)" fill="#C2CDD5"/>
<circle cx="70.0861" cy="2.88193" r="0.480316" transform="rotate(180 70.0861 2.88193)" fill="#C2CDD5"/>
<circle cx="77.2912" cy="2.88193" r="0.480316" transform="rotate(180 77.2912 2.88193)" fill="#C2CDD5"/>
<circle cx="65.2834" cy="0.480255" r="0.480316" transform="rotate(180 65.2834 0.480255)" fill="#C2CDD5"/>
<circle cx="72.4884" cy="0.480255" r="0.480316" transform="rotate(180 72.4884 0.480255)" fill="#C2CDD5"/>
<circle cx="60.4796" cy="0.480255" r="0.480316" transform="rotate(180 60.4796 0.480255)" fill="#C2CDD5"/>
<circle cx="67.6847" cy="0.480255" r="0.480316" transform="rotate(180 67.6847 0.480255)" fill="#C2CDD5"/>
<circle cx="74.8898" cy="0.480255" r="0.480316" transform="rotate(180 74.8898 0.480255)" fill="#C2CDD5"/>
<circle cx="62.882" cy="0.480255" r="0.480316" transform="rotate(180 62.882 0.480255)" fill="#C2CDD5"/>
<circle cx="70.0861" cy="0.480255" r="0.480316" transform="rotate(180 70.0861 0.480255)" fill="#C2CDD5"/>
<circle cx="77.2912" cy="0.480255" r="0.480316" transform="rotate(180 77.2912 0.480255)" fill="#C2CDD5"/>
<circle cx="101.307" cy="2.88193" r="0.480316" transform="rotate(180 101.307 2.88193)" fill="#C2CDD5"/>
<circle cx="108.512" cy="2.88193" r="0.480316" transform="rotate(180 108.512 2.88193)" fill="#C2CDD5"/>
<circle cx="115.717" cy="2.88193" r="0.480316" transform="rotate(180 115.717 2.88193)" fill="#C2CDD5"/>
<circle cx="103.708" cy="2.88193" r="0.480316" transform="rotate(180 103.708 2.88193)" fill="#C2CDD5"/>
<circle cx="110.913" cy="2.88193" r="0.480316" transform="rotate(180 110.913 2.88193)" fill="#C2CDD5"/>
<circle cx="118.118" cy="2.88193" r="0.480316" transform="rotate(180 118.118 2.88193)" fill="#C2CDD5"/>
<circle cx="106.111" cy="2.88193" r="0.480316" transform="rotate(180 106.111 2.88193)" fill="#C2CDD5"/>
<circle cx="113.315" cy="2.88193" r="0.480316" transform="rotate(180 113.315 2.88193)" fill="#C2CDD5"/>
<circle cx="120.52" cy="2.88193" r="0.480316" transform="rotate(180 120.52 2.88193)" fill="#C2CDD5"/>
<circle cx="101.307" cy="0.480377" r="0.480316" transform="rotate(180 101.307 0.480377)" fill="#C2CDD5"/>
<circle cx="108.512" cy="0.480377" r="0.480316" transform="rotate(180 108.512 0.480377)" fill="#C2CDD5"/>
<circle cx="115.717" cy="0.480377" r="0.480316" transform="rotate(180 115.717 0.480377)" fill="#C2CDD5"/>
<circle cx="103.708" cy="0.480377" r="0.480316" transform="rotate(180 103.708 0.480377)" fill="#C2CDD5"/>
<circle cx="110.913" cy="0.480377" r="0.480316" transform="rotate(180 110.913 0.480377)" fill="#C2CDD5"/>
<circle cx="118.118" cy="0.480377" r="0.480316" transform="rotate(180 118.118 0.480377)" fill="#C2CDD5"/>
<circle cx="106.111" cy="0.480377" r="0.480316" transform="rotate(180 106.111 0.480377)" fill="#C2CDD5"/>
<circle cx="113.315" cy="0.480377" r="0.480316" transform="rotate(180 113.315 0.480377)" fill="#C2CDD5"/>
<circle cx="120.52" cy="0.480377" r="0.480316" transform="rotate(180 120.52 0.480377)" fill="#C2CDD5"/>
<circle cx="79.6925" cy="2.88193" r="0.480316" transform="rotate(180 79.6925 2.88193)" fill="#C2CDD5"/>
<circle cx="86.8976" cy="2.88193" r="0.480316" transform="rotate(180 86.8976 2.88193)" fill="#C2CDD5"/>
<circle cx="94.1027" cy="2.88193" r="0.480316" transform="rotate(180 94.1027 2.88193)" fill="#C2CDD5"/>
<circle cx="82.0939" cy="2.88193" r="0.480316" transform="rotate(180 82.0939 2.88193)" fill="#C2CDD5"/>
<circle cx="89.299" cy="2.88193" r="0.480316" transform="rotate(180 89.299 2.88193)" fill="#C2CDD5"/>
<circle cx="96.5041" cy="2.88193" r="0.480316" transform="rotate(180 96.5041 2.88193)" fill="#C2CDD5"/>
<circle cx="84.4962" cy="2.88193" r="0.480316" transform="rotate(180 84.4962 2.88193)" fill="#C2CDD5"/>
<circle cx="91.7003" cy="2.88193" r="0.480316" transform="rotate(180 91.7003 2.88193)" fill="#C2CDD5"/>
<circle cx="98.9054" cy="2.88193" r="0.480316" transform="rotate(180 98.9054 2.88193)" fill="#C2CDD5"/>
<circle cx="79.6925" cy="0.480255" r="0.480316" transform="rotate(180 79.6925 0.480255)" fill="#C2CDD5"/>
<circle cx="86.8976" cy="0.480255" r="0.480316" transform="rotate(180 86.8976 0.480255)" fill="#C2CDD5"/>
<circle cx="94.1027" cy="0.480255" r="0.480316" transform="rotate(180 94.1027 0.480255)" fill="#C2CDD5"/>
<circle cx="82.0939" cy="0.480255" r="0.480316" transform="rotate(180 82.0939 0.480255)" fill="#C2CDD5"/>
<circle cx="89.299" cy="0.480255" r="0.480316" transform="rotate(180 89.299 0.480255)" fill="#C2CDD5"/>
<circle cx="96.5041" cy="0.480255" r="0.480316" transform="rotate(180 96.5041 0.480255)" fill="#C2CDD5"/>
<circle cx="84.4962" cy="0.480255" r="0.480316" transform="rotate(180 84.4962 0.480255)" fill="#C2CDD5"/>
<circle cx="91.7003" cy="0.480255" r="0.480316" transform="rotate(180 91.7003 0.480255)" fill="#C2CDD5"/>
<circle cx="98.9054" cy="0.480255" r="0.480316" transform="rotate(180 98.9054 0.480255)" fill="#C2CDD5"/>
</svg>
