<svg width="70" height="23" viewBox="0 0 70 23" fill="none" xmlns="http://www.w3.org/2000/svg">
<g opacity="0.1" clip-path="url(#clip0_317_478)">
<path fill-rule="evenodd" clip-rule="evenodd" d="M12.5215 0H3.17356V7.45546H-0.0810547V10.082H3.17356V12.918H-0.0810547V15.5445H3.17356V22.8967H12.5215C18.0873 22.8967 22.3942 19.8515 23.9685 15.5445H26.9077V12.918H24.5965C24.7026 11.9717 24.7026 11.0283 24.5965 10.082H26.9077V7.45546H23.9685C22.3942 3.04527 18.0873 0 12.4154 0H12.5215ZM5.80014 20.5856V15.6478H21.1325C19.6615 18.5898 16.6163 20.5856 12.5215 20.5856H5.80014ZM5.80014 12.918H21.9727C22.0788 11.9717 22.0788 11.0283 21.9727 10.082H5.80014V12.918ZM21.1325 7.45546C19.6615 4.41019 16.6163 2.41444 12.5215 2.41444H5.80014V7.45546H21.1325Z" fill="white"/>
<path fill-rule="evenodd" clip-rule="evenodd" d="M38.9854 6.3028C37.9359 6.3028 37.0957 7.14296 37.0957 8.19248V16.3848C37.0957 17.4343 37.9359 18.2745 38.9854 18.2745C41.612 18.2745 44.8666 18.4839 46.7563 16.2788C48.5427 14.0737 48.8581 9.76675 46.3348 7.66772C44.3418 5.98738 41.5059 6.3028 38.9854 6.3028ZM39.1975 8.29576C39.9316 8.29576 41.9274 8.29576 42.5582 8.40182C44.554 8.71724 46.025 10.1882 46.025 12.2873C46.025 14.4924 44.7633 15.9634 42.6643 16.2788C41.5087 16.4881 40.3531 16.3848 39.1975 16.3848V8.29576Z" fill="white"/>
<path fill-rule="evenodd" clip-rule="evenodd" d="M56.6292 6.30273C55.8951 6.30273 55.2643 6.72421 55.055 7.35225L50.748 18.2745H52.8499L54.2148 15.1231H59.1497L60.5147 18.2745H62.7198L58.4129 7.35225C58.2035 6.72142 57.4666 6.30273 56.8386 6.30273H56.6292ZM56.526 8.71718L58.2063 13.1274H54.7396L56.4199 8.71718H56.526Z" fill="white"/>
<path d="M67.6572 7.35231C67.6572 5.98738 69.759 5.98738 69.759 7.35231V18.2745H67.6572V7.35231Z" fill="white"/>
</g>
<defs>
<clipPath id="clip0_317_478">
<rect width="69.7816" height="23" fill="white"/>
</clipPath>
</defs>
</svg>
