<svg width="105" height="23" viewBox="0 0 105 23" fill="none" xmlns="http://www.w3.org/2000/svg">
<g opacity="0.1" clip-path="url(#clip0_505_479)">
<path d="M39.5628 18.0708H35.917V7.93333H39.5628C40.6045 7.93333 41.4878 8.13333 42.2462 8.575C42.967 8.975 43.6087 9.575 43.9712 10.3C44.3712 11.1 44.5337 11.9833 44.5337 13.025C44.5337 14.0667 44.3337 15.0292 43.892 15.75C43.5295 16.4708 42.892 17.1125 42.167 17.5125C41.4837 17.8708 40.6045 18.0708 39.5628 18.0708ZM38.0795 16.2292H39.442C40.3628 16.2292 41.1253 15.95 41.6462 15.4292C42.167 14.9083 42.367 14.0667 42.367 12.9833C42.367 11.9 42.0878 11.0583 41.6462 10.5375C41.1253 10.0167 40.4045 9.7375 39.442 9.7375H38.0795V16.2292ZM46.1753 18.0708H43.892L47.4587 7.93333H50.2628L53.8295 18.0708H51.542L50.8212 15.7875H47.0962L46.2128 18.0708H46.1753ZM47.4962 14.1042H50.1003L48.8587 10.2958H48.7378L47.4962 14.1042ZM62.642 13.0208C62.642 14.1042 62.442 15.0625 62.0003 15.825C61.6003 16.625 61.0003 17.1875 60.2753 17.5875C59.5545 17.9875 58.7545 18.2292 57.8295 18.2292C56.9462 18.2292 56.1045 18.0292 55.3837 17.5875C54.6628 17.1875 54.0628 16.5875 53.6587 15.825C53.2587 15.025 53.017 14.1 53.017 13.0208C53.017 11.9417 53.217 10.9792 53.6587 10.2167C54.0587 9.41667 54.6587 8.85417 55.3837 8.45417C56.1045 8.05417 56.9045 7.8125 57.8295 7.8125C58.7128 7.8125 59.5545 8.0125 60.2753 8.45417C60.9962 8.85417 61.5962 9.45417 62.0003 10.2167C62.4003 10.9375 62.642 11.9417 62.642 13.0208ZM60.4378 13.0208C60.4378 11.9792 60.1587 11.1375 59.717 10.575C59.2378 10.0125 58.6337 9.73333 57.8337 9.73333C57.0337 9.73333 56.4295 10.0125 55.9503 10.575C55.4712 11.1375 55.2295 11.9792 55.2295 13.0208C55.2295 14.0625 55.5087 14.9042 55.9503 15.4667C56.4295 16.0292 57.0337 16.3083 57.8337 16.3083C58.6337 16.3083 59.2378 16.0292 59.717 15.4667C60.1962 14.9042 60.4378 14.0625 60.4378 13.0208ZM65.5253 7.93333H68.2087L71.0128 14.7833H71.1337L73.9378 7.93333H76.6212V18.0708H74.5378V11.4208H74.417L71.7337 17.9542H70.3337L67.6503 11.3833H67.5295V18.0333H65.4462L65.4878 7.9375H65.5253V7.93333ZM79.792 18.1917C79.0712 18.1917 78.4295 17.9917 77.9503 17.6292C77.4712 17.2667 77.2295 16.7083 77.2295 15.9042C77.2295 15.3417 77.3878 14.9042 77.6295 14.5417C77.9087 14.2208 78.2712 13.9792 78.6712 13.8208C79.1503 13.6625 79.592 13.5417 80.0753 13.5C80.7545 13.4583 81.2378 13.3417 81.4795 13.3C81.7587 13.1792 81.8795 13.1 81.8795 12.8208V12.7792C81.8795 12.4583 81.7587 12.2167 81.5587 12.0583C81.3587 11.9 81.0795 11.7792 80.717 11.7792C80.3545 11.7792 80.0378 11.9 79.7962 12.0583C79.5962 12.2167 79.4337 12.4208 79.317 12.7L77.3128 12.5417C77.4712 11.8625 77.8337 11.3 78.3962 10.9375C78.9587 10.5375 79.7587 10.2958 80.642 10.2958C81.2045 10.2958 81.7253 10.4167 82.2462 10.575C82.767 10.7333 83.1295 11.0542 83.4503 11.4167C83.7712 11.7792 83.9295 12.3 83.9295 12.9V18.0708H82.0462V17.0292H82.0045C81.8045 17.3917 81.5253 17.7083 81.1628 17.9125C80.7628 18.1917 80.2795 18.275 79.6795 18.275L79.792 18.1917ZM80.4337 16.7875C80.9128 16.7875 81.2753 16.6292 81.5962 16.3875C81.917 16.1083 82.0753 15.7458 82.0753 15.3875V14.5833C81.9545 14.625 81.8753 14.7042 81.6753 14.7417C81.4753 14.7833 81.3128 14.8625 81.1128 14.8625C80.9128 14.9042 80.7503 14.9042 80.592 14.9833C80.2295 15.025 79.9128 15.1417 79.7087 15.3042C79.5087 15.4625 79.3878 15.6667 79.3878 15.9833C79.3878 16.3 79.5087 16.5042 79.7087 16.6625C79.9087 16.7042 80.1878 16.8208 80.5087 16.8208L80.4337 16.7875ZM84.9628 18.1125V7.975H87.0878V13.425H87.2087L89.6545 10.5417H92.1003L89.217 13.8292L92.1837 18.1583H89.6587L87.5753 15.075L87.0128 15.7542V18.1583L84.9295 18.1167H84.9628V18.1125Z" fill="white"/>
<path d="M95.3793 18.2333C94.5793 18.2333 93.8959 18.075 93.3376 17.7542C92.7751 17.4333 92.3376 16.9542 92.0168 16.3917C91.6959 15.8292 91.5376 15.0708 91.5376 14.3083C91.5376 13.5083 91.6959 12.825 92.0168 12.2667C92.3376 11.7083 92.7376 11.225 93.3376 10.9042C93.9001 10.5833 94.5418 10.425 95.3418 10.425C96.0209 10.425 96.6626 10.5833 97.1834 10.825C97.7043 11.1042 98.1834 11.5458 98.5043 12.1458C98.8251 12.7083 98.9834 13.4667 98.9834 14.2708V14.8333H93.7751C93.7751 15.3958 93.9334 15.8333 94.2543 16.1958C94.5751 16.5167 94.9751 16.675 95.4959 16.675C95.8584 16.675 96.1751 16.5542 96.4168 16.475C96.6959 16.3167 96.8959 16.1125 96.9793 15.7958L98.9834 15.9542C98.8251 16.675 98.4626 17.1958 97.8209 17.6792C97.1418 18 96.3376 18.2 95.4168 18.2L95.3793 18.2333ZM93.6543 13.4625H96.9001C96.9001 12.9833 96.7418 12.6208 96.4209 12.3792C96.1001 12.0583 95.7418 11.9792 95.2584 11.9792C94.7751 11.9792 94.3751 12.1375 94.0959 12.4583C93.8168 12.7375 93.6959 13.1 93.6168 13.5L93.6543 13.4625ZM99.4668 18.0708V10.4583H101.55V11.7792H101.671C101.829 11.3 102.033 10.9375 102.35 10.7375C102.671 10.4583 103.071 10.375 103.513 10.375C103.792 10.375 103.992 10.4167 104.192 10.4958V12.3792C104.033 12.3375 103.913 12.3375 103.792 12.2583C103.633 12.2583 103.471 12.2583 103.313 12.2583C102.833 12.2583 102.429 12.4167 102.15 12.6583C101.829 12.9792 101.671 13.3375 101.671 13.8208V18.1083H99.4668V18.0708Z" fill="white"/>
<path d="M0.0126953 22.9583L10.271 3.96667L19.2877 0L9.06686 18.9542L0.0126953 22.9583Z" fill="white"/>
<path d="M10.1919 18.5915L18.0044 4.1665L22.4502 8.53317L14.7586 22.9998L10.1919 18.5915Z" fill="white"/>
<path d="M23.2542 8.9751L29.025 11.1001L26.1375 16.3501L19.125 16.6293L23.2542 8.9751Z" fill="white"/>
</g>
<defs>
<clipPath id="clip0_505_479">
<rect width="104.167" height="23" fill="white"/>
</clipPath>
</defs>
</svg>
