<svg width="68" height="19" viewBox="0 0 68 19" fill="none" xmlns="http://www.w3.org/2000/svg">
<g opacity="0.1">
<path d="M14.358 0H6.37604L5.71454 3.85774L12.9173 3.8668C16.4646 3.8668 17.5136 5.21044 17.4837 7.44111C17.4682 8.58389 16.9934 10.5155 16.7884 11.1418C16.2417 12.8111 15.1189 14.7161 10.9086 14.7085L3.90709 14.7055L3.24414 18.5648H11.2083C14.0174 18.5648 15.213 18.224 16.4772 17.6138C19.2819 16.2626 20.9509 13.3745 21.6192 9.60533C22.615 3.99266 21.375 0 14.358 0Z" fill="white"/>
<path d="M39.0439 18.5739L39.6065 15.2196H46.4252C46.9608 15.2196 47.3362 14.8838 47.4163 14.325C47.5234 13.7657 47.2556 13.4304 46.72 13.4304H43.4598C40.8876 13.4304 39.6553 11.8653 40.1108 9.1815C40.5662 6.49775 42.3346 4.93311 44.9063 4.93311H52.3141L51.725 8.28742H45.1963C44.6602 8.28742 44.2853 8.6227 44.2048 9.1815C44.0976 9.74081 44.3654 10.0761 44.9015 10.0761H48.1617C50.7335 10.0761 51.9658 11.6417 51.5108 14.325C51.0558 17.0082 49.3135 18.5739 46.7417 18.5739H39.0439Z" fill="white"/>
<path d="M28.6595 18.5734C24.4261 18.5734 22.5236 16.1691 23.2738 11.752C23.9976 7.33551 26.7305 4.93115 30.9634 4.93115H38.4658L36.1614 18.5739L28.6595 18.5734ZM33.5357 8.28597H31.6057C29.3017 8.28597 27.9387 9.3482 27.5387 11.752C27.1102 14.1564 27.9676 15.2186 30.2715 15.2186H32.383L33.5357 8.28597Z" fill="white"/>
<path d="M61.6113 18.5733L62.9512 10.6338C63.1925 9.06818 62.5836 8.39762 61.083 8.39762H58.9494L57.2346 18.5733H52.8921L56.0317 0H60.3742L59.5385 4.93356H62.7906C66.5951 4.93356 67.9615 6.66685 67.2918 10.6363L65.9519 18.5759L61.6113 18.5733Z" fill="white"/>
<path d="M2.93215 7.34424C0.841479 7.34424 0.541847 8.76591 0.344022 9.62476C0.0849199 10.7499 0 11.2055 0 11.2055H8.17258C10.2633 11.2055 10.5629 9.78384 10.7607 8.92499C11.0198 7.79984 11.1047 7.34424 11.1047 7.34424H2.93215Z" fill="white"/>
</g>
</svg>
