<svg width="36" height="42" viewBox="0 0 36 42" fill="none" xmlns="http://www.w3.org/2000/svg">
<path opacity="0.1" d="M18.0002 42C8.72841 41.1334 0.71677 24.4363 0 10.3539C6.57774 9.32487 13.0833 5.25576 18.0002 0C22.6293 5.13975 29.4222 9.32487 36 10.3539C35.2832 24.4363 27.2719 41.1334 18.0002 42Z" fill="#B28B65"/>
<path d="M11.0582 24.2675V22.8973L17.7285 21.9763V20.0404L11.0582 21.4188V20.0107L17.6999 17.8233V16.1073L11.0582 18.5561V17.2464L17.6999 14.1158V11.9633L11.0582 15.8696V14.785L17.9303 9.69482L24.8313 14.9593V25.9251H25.6945V27.9033H10.311V25.9251H17.6999V23.8886L11.0582 24.2675Z" fill="#B99069"/>
</svg>
