<svg width="68" height="19" viewBox="0 0 68 19" fill="none" xmlns="http://www.w3.org/2000/svg">
<g opacity="0.1" clip-path="url(#clip0_2931_308)">
<path d="M65.2426 0.471328C65.9348 0.0853574 66.704 0.31694 67.3962 0.31694C67.3962 0.31694 67.4731 0.471328 67.4731 0.548523C66.9347 3.71349 66.3964 6.87845 65.8579 10.0434C65.781 10.661 65.6272 10.8926 64.935 10.8926C63.089 10.8154 63.089 10.8926 62.6275 9.11706C62.166 7.34161 61.6277 5.64334 61.1661 3.79068C60.8585 4.02226 60.9354 4.40823 60.9354 4.63981C60.6277 6.49247 60.3201 8.34512 60.0124 10.275C59.9355 10.7381 59.7817 10.8926 59.3202 10.8926C57.6281 10.8926 57.6281 10.8926 57.9357 9.27149C58.3972 6.49247 58.8587 3.71349 59.3202 0.934493C59.3971 0.394134 59.551 0.239746 60.0893 0.239746C62.0122 0.239746 62.0122 0.239746 62.5506 2.09241C63.0121 3.79068 63.4736 5.56615 64.0889 7.26442L65.2426 0.471328Z" fill="white"/>
<path d="M28.5541 3.01743C27.7849 2.55427 27.0158 2.1683 26.1698 2.0911C24.9391 1.93672 23.9392 2.32268 23.1701 3.32621C22.2471 4.56131 22.0164 5.95081 22.324 7.4175C22.6316 8.88419 24.0931 9.50176 25.4006 8.9614C25.6314 8.88419 25.7083 8.72983 25.7083 8.49818C25.7852 8.18947 25.7852 7.88068 25.8621 7.57189C26.0928 6.87714 25.8621 6.64555 25.2467 6.79995C24.6314 6.87714 24.6314 6.64555 24.7083 6.10519C24.9391 4.94729 24.9391 4.94729 26.0159 4.94729C26.7081 4.94729 27.4003 4.94729 28.0926 4.94729C28.4003 4.94729 28.5541 5.02448 28.4772 5.41045C28.2465 6.87714 28.0157 8.26661 27.7849 9.73334C27.708 10.0421 27.6311 10.1965 27.3234 10.2737C25.939 10.9684 24.4776 11.2772 22.9393 10.9684C21.1703 10.6596 20.0166 9.34733 19.8627 7.49469C19.7858 6.33678 19.8627 5.25606 20.2473 4.17534C21.7087 -0.0703361 25.4775 -0.687889 28.5541 0.624412C28.8617 0.778803 28.9387 0.933189 28.8617 1.24196C28.7079 1.78232 28.631 2.39988 28.5541 3.01743Z" fill="white"/>
<path d="M31.8615 10.8916C31.0154 10.8916 30.0924 10.8916 29.2464 10.8916C28.8618 10.8916 28.7079 10.8916 28.7849 10.4285C29.2464 7.1091 29.7848 3.86694 30.3232 0.624786C30.4001 0.316009 30.477 0.161621 30.7846 0.161621C32.5537 0.161621 34.3997 0.161621 36.1687 0.161621C36.5533 0.161621 36.6302 0.316009 36.5533 0.70198C36.3225 2.24587 36.3225 2.24587 34.7842 2.24587C34.1689 2.24587 33.6305 2.32306 33.0152 2.24587C32.4768 2.16867 32.323 2.40025 32.246 2.86342C32.0153 4.17572 32.0153 4.17572 33.3228 4.17572C34.0151 4.17572 34.6304 4.17572 35.3226 4.17572C35.6302 4.17572 35.7841 4.25291 35.7072 4.63889V4.71608C35.4764 6.33715 35.4764 6.33715 33.9382 6.33715H33.5535C31.7846 6.33715 31.7846 6.33715 31.4769 8.1126C31.4 8.57582 31.4769 8.73017 31.9384 8.73017C32.9383 8.73017 33.9382 8.73017 34.8611 8.73017C35.2457 8.73017 35.3995 8.80739 35.3226 9.27053C35.0919 10.8916 35.0919 10.8916 33.5535 10.8916H31.8615Z" fill="white"/>
<path d="M43.7831 8.11321C43.7831 8.88515 43.6293 9.50265 43.5524 10.1202C43.5524 10.3518 43.3217 10.429 43.1678 10.5062C42.168 10.8922 41.168 11.1237 40.1682 11.0466C38.4761 10.9694 37.0146 9.81143 36.707 8.11321C36.1686 5.56578 36.7839 3.24995 38.6299 1.47448C40.1682 -0.0693972 42.6295 -0.378174 44.5523 0.62535C44.86 0.779737 45.0138 0.934124 44.9369 1.2429C44.7831 1.78326 44.7062 2.40082 44.6292 3.01837C44.5523 3.01837 44.4754 2.94118 44.3985 2.86398C42.2449 1.3201 40.1682 2.01484 39.3221 4.56225C39.0144 5.3342 38.9375 6.18333 39.0144 6.95527C39.2452 8.65357 40.322 9.42551 41.9372 8.96229C42.5525 8.80793 43.1678 8.42193 43.7831 8.11321Z" fill="white"/>
<path d="M55.321 10.8924C54.2442 10.8924 54.2442 10.8924 54.398 9.73445C54.8595 6.80108 55.3979 3.8677 55.7824 0.934316C55.8593 0.39396 56.0902 0.162378 56.6285 0.239571C58.2437 0.316765 58.2437 0.239572 58.0129 1.86065C57.5515 4.48525 57.1669 7.03266 56.7054 9.65723C56.5516 10.8924 56.5516 10.8924 55.321 10.8924Z" fill="white"/>
<path d="M46.3222 15.369C46.3222 14.5971 46.3992 13.9024 46.3222 13.1304C46.2453 12.5129 46.5531 12.3584 47.0914 12.4356C47.5529 12.4356 47.8606 12.4356 47.8606 13.1304C47.8606 14.8287 47.9375 14.8287 49.5527 14.6743C49.8603 14.6743 50.0142 14.5199 50.0142 14.2111C50.0142 13.9024 50.0142 13.6707 50.0142 13.362C50.0142 12.59 50.6295 12.2041 51.3217 12.5129C51.5525 12.59 51.4756 12.8216 51.4756 12.976C51.4756 14.5971 51.4756 16.2954 51.4756 17.9165C51.4756 18.534 51.0141 18.3796 50.7064 18.3796C50.3987 18.3796 49.9373 18.6112 49.9373 17.9165C49.9373 17.6077 49.9373 17.2217 49.9373 16.9129C49.9373 16.5269 50.168 15.9866 49.7834 15.8322C49.245 15.6006 48.5528 15.6778 48.0144 15.8322C47.7836 15.8322 47.8606 16.1409 47.8606 16.2954C47.8606 16.8357 47.8606 17.2989 47.8606 17.8392C47.9375 18.534 47.476 18.3796 47.0914 18.3796C46.7069 18.3796 46.3222 18.534 46.3222 17.8392C46.3222 17.4532 46.3222 16.9901 46.3222 16.6042V15.369Z" fill="white"/>
<path d="M17.0938 15.2914C17.0938 14.5194 17.0938 13.7474 17.0938 12.9755C17.0938 12.5896 17.1707 12.3579 17.6322 12.3579C18.6321 12.3579 19.632 12.3579 20.5549 12.3579C20.9395 12.3579 21.0933 12.4351 21.0933 12.8983C21.0933 13.2843 21.0164 13.5158 20.5549 13.5158C20.0935 13.5158 19.632 13.5158 19.0935 13.5158C18.709 13.5158 18.5552 13.5931 18.4782 14.0562C18.4782 14.5194 18.6321 14.5966 19.0935 14.5966C19.4781 14.5966 19.9396 14.5966 20.3242 14.5966C20.7088 14.5966 20.9395 14.6738 20.9395 15.1369C20.9395 15.6001 20.7857 15.6773 20.3242 15.6773C20.0166 15.6773 19.7089 15.6773 19.4012 15.6773C18.5552 15.6773 18.3244 15.9861 18.4782 16.8352C18.6321 17.144 18.7859 17.144 19.0166 17.144C19.5551 17.144 20.0935 17.144 20.6319 17.144C21.0933 17.144 21.1702 17.2984 21.1702 17.6844C21.1702 18.0703 21.0933 18.2247 20.6319 18.2247C19.632 18.2247 18.5552 18.2247 17.5553 18.2247C17.1707 18.2247 17.0938 18.0703 17.0938 17.7615C17.0938 16.9896 17.0938 16.1404 17.0938 15.2914Z" fill="white"/>
<path d="M52.4746 15.3694C52.4746 14.5975 52.4746 13.7483 52.4746 12.9764C52.4746 12.5904 52.5515 12.436 53.013 12.436C54.0129 12.436 55.0128 12.436 56.0126 12.436C56.3972 12.436 56.5511 12.5904 56.5511 12.9764C56.5511 13.3623 56.4741 13.594 56.0895 13.5168C55.5512 13.5168 55.0128 13.5168 54.4744 13.5168C54.0898 13.5168 54.0129 13.6711 54.0129 14.0571C54.0129 14.3659 54.0129 14.6746 54.4744 14.6746C54.9359 14.6746 55.3973 14.6746 55.8588 14.6746C56.3203 14.6746 56.3972 14.829 56.3972 15.2922C56.3972 15.7553 56.2434 15.8326 55.8588 15.8326C55.5512 15.8326 55.1666 15.8326 54.859 15.8326C54.1667 15.7553 53.9359 16.0641 54.0129 16.7589C54.0129 17.2221 54.1667 17.3764 54.5513 17.2993C55.0128 17.2993 55.4743 17.2993 56.0126 17.2993C56.3972 17.2993 56.628 17.3764 56.628 17.8396C56.628 18.3028 56.4741 18.4571 56.0895 18.38C55.0897 18.38 54.0898 18.38 53.0899 18.38C52.7053 18.38 52.5515 18.2256 52.5515 17.8396C52.5515 16.9133 52.4746 16.1413 52.4746 15.3694Z" fill="white"/>
<path d="M32.7852 15.2925C32.7852 14.5205 32.7852 13.6714 32.7852 12.8994C32.7852 12.5135 32.8621 12.3591 33.2466 12.4363C34.2465 12.4363 35.3233 12.4363 36.3232 12.4363C36.7847 12.4363 36.7847 12.7451 36.7847 13.0539C36.7847 13.4398 36.6308 13.5942 36.3232 13.517C35.7848 13.517 35.2464 13.517 34.708 13.517C34.3234 13.517 34.2465 13.6714 34.2465 14.0574C34.2465 14.3662 34.2465 14.6749 34.708 14.6749C35.0926 14.6749 35.4772 14.6749 35.9386 14.6749C36.3232 14.6749 36.6308 14.675 36.6308 15.2925C36.6308 15.9872 36.2463 15.7556 35.9386 15.8328C35.7079 15.8328 35.4002 15.8328 35.1695 15.8328C34.3234 15.8328 34.0927 16.1416 34.2465 16.9907C34.4003 17.1451 34.5541 17.1451 34.7849 17.1451C35.3233 17.1451 35.8617 17.1451 36.4001 17.1451C36.8616 17.1451 36.9386 17.2995 36.9386 17.6855C36.9386 18.0715 36.7847 18.2258 36.4001 18.2258C35.4002 18.2258 34.3234 18.2258 33.3235 18.2258C32.939 18.2258 32.8621 18.0715 32.8621 17.6855C32.8621 16.9907 32.7852 16.1416 32.7852 15.2925Z" fill="white"/>
<path d="M63.2429 15.2922C63.2429 14.5203 63.2429 13.7483 63.2429 12.9764C63.2429 12.5904 63.3198 12.436 63.7045 12.436C64.7043 12.436 65.7042 12.436 66.7041 12.436C67.0887 12.436 67.1656 12.5904 67.1656 12.9764C67.1656 13.2852 67.1656 13.594 66.7041 13.594C66.1657 13.594 65.6273 13.594 65.0889 13.594C64.7043 13.594 64.6274 13.8255 64.6274 14.1343C64.6274 14.443 64.6274 14.7518 65.0889 14.7518C65.5504 14.7518 66.0119 14.7518 66.4734 14.7518C66.8579 14.7518 67.0118 14.9063 67.0118 15.2922C67.0118 15.6782 66.9349 15.8326 66.4734 15.8326C66.1657 15.8326 65.7811 15.8326 65.4735 15.8326C64.7812 15.7553 64.5505 15.987 64.6274 16.6817C64.6274 17.2221 64.7812 17.3764 65.2427 17.2993C65.7042 17.2993 66.0888 17.2993 66.5503 17.2993C66.9349 17.2993 67.2425 17.2993 67.2425 17.8396C67.2425 18.38 67.0118 18.4571 66.6272 18.38C65.7042 18.38 64.7043 18.38 63.7814 18.38C63.3198 18.38 63.166 18.2256 63.166 17.7624C63.2429 16.9133 63.2429 16.0641 63.2429 15.2922Z" fill="white"/>
<path d="M10.71 16.7581C10.7869 18.0704 10.6331 18.2249 9.32561 18.3021C6.86434 18.4564 5.40297 16.8354 5.94136 14.5196C6.32593 12.6669 8.78723 11.5862 10.4024 12.5897C10.9408 12.8985 10.5562 13.4388 10.71 13.902C9.63326 13.3616 8.55642 12.9756 7.71039 14.1336C7.17199 14.8283 7.24891 16.0634 7.7873 16.7581C8.40259 17.3757 9.32561 17.3757 10.71 16.7581Z" fill="white"/>
<path d="M16.0939 16.7581C16.2477 17.9933 16.0939 18.1476 14.9401 18.3021C12.402 18.6108 10.7867 16.9126 11.3252 14.5196C11.7867 12.6669 14.2479 11.5862 15.8632 12.5897C16.3246 12.8985 16.1708 13.3616 16.0939 13.6704C15.9401 13.9792 15.7093 13.6704 15.4785 13.5932C14.7094 13.2844 13.9403 13.2844 13.3249 13.902C12.7865 14.4423 12.7096 15.6003 13.0942 16.3722C13.4788 17.1441 14.2479 17.4529 15.1709 17.1441C15.4785 17.0669 15.7862 16.9126 16.0939 16.7581Z" fill="white"/>
<path d="M29.7845 12.4359C30.4767 12.4359 31.1689 12.4359 31.8612 12.4359C32.2458 12.4359 32.3996 12.5904 32.3996 12.9763C32.3996 13.3623 32.3227 13.5166 31.9381 13.5166C30.5537 13.5939 30.5537 13.5939 30.5537 15.0606C30.5537 15.9097 30.4767 16.7588 30.5537 17.608C30.6306 18.3027 30.246 18.2255 29.7845 18.3027C29.2461 18.3027 29.0153 18.2255 29.0153 17.608C29.0922 16.45 29.0153 15.3693 29.0153 14.2114C29.0153 13.6711 28.8615 13.4395 28.3231 13.5166C28.0924 13.5166 27.8617 13.5166 27.6309 13.5166C27.2464 13.5166 27.0156 13.4395 27.0156 12.9763C27.0156 12.5131 27.1694 12.3588 27.554 12.4359C28.3231 12.4359 29.0153 12.4359 29.7845 12.4359Z" fill="white"/>
<path fill-rule="evenodd" clip-rule="evenodd" d="M1.63437 10.8926H2.17277C2.56747 10.8926 2.96217 10.8722 3.34648 10.8524C3.71106 10.8337 4.06629 10.8154 4.40329 10.8154C6.01849 10.661 7.24913 9.88899 8.17211 8.49956C8.94123 7.26442 9.32579 5.87492 9.24888 4.40823C9.17197 1.78363 7.86446 0.471329 5.24935 0.31694C4.78786 0.278343 4.30715 0.278343 3.81682 0.278343C3.32649 0.278343 2.82654 0.278343 2.3266 0.239746C1.71128 0.239746 1.55746 0.471328 1.48054 1.01169C1.09597 3.71346 0.634488 6.41524 0.173005 9.11698L0.172994 9.11706C0.0182716 10.01 -0.0586403 10.4538 0.128133 10.6744C0.312748 10.8926 0.754991 10.8926 1.63437 10.8926ZM3.01865 8.80857C5.32609 8.88579 6.78746 7.41909 6.78746 4.94887C6.86438 3.09621 6.01832 2.32427 4.24928 2.24708C3.78779 2.24708 3.63397 2.40147 3.55705 2.86463L3.55697 2.86512C3.24934 4.71762 2.94171 6.57011 2.63407 8.34543C2.48025 8.80857 2.71099 8.80857 3.01865 8.80857Z" fill="white"/>
<path fill-rule="evenodd" clip-rule="evenodd" d="M46.0905 2.16887C45.0906 3.48117 44.7061 5.02505 44.7061 6.64613C44.7061 9.03914 45.8598 10.6602 47.7057 11.0462C49.7055 11.355 51.4745 10.8146 52.7052 9.11635C53.9358 7.49527 54.3973 5.6426 54.1665 3.63556C54.0127 1.86009 52.9359 0.547792 51.3976 0.161821C49.3978 -0.378538 47.3211 0.470598 46.0905 2.16887ZM48.0904 3.09474C47.3982 4.09827 47.1675 5.17899 47.1675 6.25971C47.1675 6.80007 47.1675 7.18604 47.3213 7.57201C47.7059 9.03868 49.0903 9.5019 50.3209 8.57554C50.6286 8.34396 50.9362 8.03518 51.0901 7.64917C51.6285 6.56848 51.9362 5.25618 51.7823 4.02108C51.7054 3.17194 51.4747 2.3228 50.4748 2.09122C49.5518 1.85964 48.7058 2.24561 48.0904 3.09474Z" fill="white"/>
<path fill-rule="evenodd" clip-rule="evenodd" d="M18.0175 8.88499C19.0173 7.5727 19.4019 6.10601 19.4019 4.48494C19.4019 2.3235 18.4789 0.70242 16.7099 0.239255C14.787 -0.301104 13.018 0.0848671 11.6335 1.62875C10.0183 3.48141 9.47992 5.72004 10.0183 8.11306C10.326 9.73414 11.4028 10.7376 13.018 10.9692C15.0178 11.278 16.7868 10.6605 18.0175 8.88499ZM16.2486 7.57244C16.71 6.72331 16.9408 5.71978 16.9408 4.71626C16.9408 3.17238 16.4793 2.32324 15.5563 2.09166C14.4795 1.86008 13.4796 2.47763 12.8643 3.78993C12.249 4.94784 12.0952 6.26014 12.4028 7.49525C12.7104 8.9619 14.018 9.50226 15.2486 8.73033C15.7101 8.42154 16.0178 8.03562 16.2486 7.57244Z" fill="white"/>
<path fill-rule="evenodd" clip-rule="evenodd" d="M37.7842 13.0536V15.3694C37.7842 16.1413 37.7842 16.9133 37.8611 17.7624C37.8611 18.1484 38.0149 18.3028 38.3995 18.3028C38.768 18.272 39.1243 18.2658 39.4781 18.2596C40.0104 18.2503 40.5371 18.2411 41.0915 18.1484C42.3991 17.9168 43.1682 16.9133 43.2451 15.4466C43.2451 14.0571 42.476 12.8992 41.1684 12.5904C40.5915 12.4457 40.0147 12.4517 39.4378 12.4578C39.0917 12.4613 38.7456 12.465 38.3995 12.436C37.8611 12.3588 37.7842 12.5904 37.7842 13.0536ZM39.2455 14.6742V15.2917V16.6812C39.2455 16.9128 39.2455 17.0672 39.5532 17.1444C40.2454 17.2216 41.0914 16.8357 41.3991 16.2181C41.7068 15.4462 41.5529 14.3654 40.9376 13.9022C40.4761 13.5935 39.9377 13.3619 39.3993 13.5935C39.1542 13.6918 39.1903 13.9471 39.2288 14.2192C39.2507 14.3739 39.2734 14.5342 39.2455 14.6742Z" fill="white"/>
<path fill-rule="evenodd" clip-rule="evenodd" d="M57.5515 12.9755V15.2914V17.6844C57.5515 17.7091 57.5496 17.7358 57.5475 17.7636C57.5367 17.9089 57.5239 18.0827 57.7823 18.1475C58.5514 18.4563 59.0129 18.1475 59.0129 17.2984V16.758C59.0389 16.6537 59.0297 16.5405 59.0211 16.4333C59.0041 16.2236 58.9891 16.0371 59.2436 15.9861C59.6282 15.9089 60.0128 15.9861 60.2435 16.372L60.9357 17.7615C61.0896 18.0703 62.2433 18.3791 62.551 18.1475C62.7048 18.0703 62.6279 17.9159 62.551 17.8387C62.2433 17.0668 61.9356 16.2949 61.3972 15.6773C61.3794 15.6594 61.3616 15.6426 61.3446 15.6265C61.214 15.503 61.1251 15.419 61.3972 15.2141C62.0125 14.751 62.0895 14.1334 61.9356 13.4386C61.7049 12.6667 61.0896 12.4351 60.3974 12.3579H58.0899C57.6284 12.3579 57.5515 12.5896 57.5515 12.9755ZM59.0112 14.2253C59.012 14.2708 59.0128 14.3176 59.0128 14.3651C58.9359 14.7511 59.0897 14.9826 59.5512 15.0599C59.5978 15.052 59.6444 15.045 59.6906 15.0381C60.1012 14.9763 60.4741 14.9202 60.4741 14.3651C60.4741 13.734 60.0934 13.6762 59.6777 13.6131C59.6358 13.6067 59.5934 13.6002 59.5512 13.5931C58.999 13.5239 59.0043 13.8276 59.0112 14.2253Z" fill="white"/>
<path fill-rule="evenodd" clip-rule="evenodd" d="M4.17261 13.3626C3.94187 12.6679 3.71113 12.2046 2.86506 12.4362C2.76347 12.4567 2.6565 12.4501 2.55125 12.4437C2.25813 12.4257 1.97836 12.4086 1.86518 12.9766C1.55752 13.8257 1.24986 14.6556 0.942202 15.4854C0.634544 16.3152 0.326886 17.1451 0.0192285 17.9942C0.0192285 18.0356 0.0137063 18.0714 0.00858063 18.1047C-0.00542309 18.1955 -0.0164674 18.2672 0.096143 18.3802C0.480715 18.6117 1.4806 18.303 1.55752 17.917C1.63443 17.3767 1.94209 17.2994 2.40358 17.2994H3.63421C3.94187 17.2223 4.17261 17.3767 4.17261 17.6082C4.24952 18.303 4.78792 18.303 5.32632 18.303C5.94164 18.303 5.86473 18.0714 5.7109 17.6855C5.59595 17.3723 5.481 17.0627 5.3668 16.7551C4.9461 15.6219 4.53557 14.5161 4.17261 13.3626ZM3.48029 15.6008C3.24955 15.0605 3.09572 14.5973 2.94189 14.057L2.78806 14.1342C2.71115 14.3658 2.63424 14.5888 2.55732 14.8117C2.40349 15.2578 2.24966 15.7038 2.09583 16.2184H3.09572C3.63412 16.2184 3.63412 15.9869 3.48029 15.6008Z" fill="white"/>
<path fill-rule="evenodd" clip-rule="evenodd" d="M24.1427 12.4294C24.0447 12.4323 23.9506 12.4351 23.8623 12.4351C23.3239 12.4351 22.9393 12.4351 22.4009 12.3579C22.0933 12.3579 21.9395 12.4351 21.9395 12.7439V17.8387C21.9395 18.2848 22.2016 18.2574 22.4228 18.2343C22.4696 18.2294 22.5145 18.2247 22.5547 18.2247C22.6305 18.2247 22.7156 18.2434 22.802 18.2624C23.0664 18.3206 23.3429 18.3814 23.4009 17.9159C23.4286 17.7209 23.4063 17.5055 23.3844 17.2956C23.3458 16.9241 23.309 16.5693 23.5547 16.372C23.811 16.1662 24.2042 16.1662 24.5972 16.1662C24.7939 16.1662 24.9904 16.1662 25.1698 16.1404H25.2467C26.1698 15.9861 26.6312 15.3685 26.7081 14.5194C26.7851 13.5158 26.4005 12.8983 25.4776 12.5896C25.0422 12.4023 24.5566 12.4169 24.1427 12.4294ZM24.1701 13.5937C23.5548 13.5165 23.4779 13.8253 23.5548 14.2885C23.5548 14.3573 23.5514 14.4245 23.5481 14.4889C23.5294 14.8579 23.5153 15.1376 24.1701 15.1376C24.2195 15.1305 24.2689 15.1242 24.3178 15.1178C24.8027 15.0546 25.2469 14.9968 25.2469 14.3657C25.2469 13.7481 24.7085 13.671 24.1701 13.5937Z" fill="white"/>
</g>
<defs>
<clipPath id="clip0_2931_308">
<rect width="67.64" height="19" fill="white"/>
</clipPath>
</defs>
</svg>
