<svg width="68" height="19" viewBox="0 0 68 19" fill="none" xmlns="http://www.w3.org/2000/svg">
<g opacity="0.3" clip-path="url(#clip0_3359_508)">
<path d="M65.2426 0.471328C65.9348 0.0853574 66.704 0.31694 67.3962 0.31694C67.3962 0.31694 67.4731 0.471328 67.4731 0.548523C66.9347 3.71349 66.3964 6.87845 65.8579 10.0434C65.781 10.661 65.6272 10.8926 64.935 10.8926C63.089 10.8154 63.089 10.8926 62.6275 9.11706C62.166 7.34161 61.6277 5.64334 61.1661 3.79068C60.8585 4.02226 60.9354 4.40823 60.9354 4.63981C60.6277 6.49247 60.3201 8.34512 60.0124 10.275C59.9355 10.7381 59.7817 10.8926 59.3202 10.8926C57.6281 10.8926 57.6281 10.8926 57.9357 9.27149C58.3972 6.49247 58.8587 3.71349 59.3202 0.934493C59.3971 0.394134 59.551 0.239746 60.0893 0.239746C62.0122 0.239746 62.0122 0.239746 62.5506 2.09241C63.0121 3.79068 63.4736 5.56615 64.0889 7.26442L65.2426 0.471328Z" fill="#565F77"/>
<path d="M28.5546 3.01767C27.7854 2.55451 27.0163 2.16854 26.1702 2.09135C24.9396 1.93696 23.9397 2.32293 23.1706 3.32645C22.2476 4.56156 22.0168 5.95105 22.3245 7.41775C22.6321 8.88443 24.0935 9.50201 25.401 8.96165C25.6319 8.88443 25.7088 8.73008 25.7088 8.49843C25.7857 8.18972 25.7857 7.88093 25.8626 7.57213C26.0933 6.87739 25.8626 6.6458 25.2472 6.80019C24.6319 6.87739 24.6319 6.6458 24.7088 6.10544C24.9396 4.94753 24.9396 4.94753 26.0164 4.94753C26.7086 4.94753 27.4008 4.94753 28.0931 4.94753C28.4008 4.94753 28.5546 5.02473 28.4777 5.41069C28.2469 6.87739 28.0162 8.26686 27.7854 9.73358C27.7085 10.0424 27.6316 10.1967 27.3239 10.2739C25.9395 10.9687 24.4781 11.2774 22.9398 10.9687C21.1708 10.6599 20.0171 9.34758 19.8632 7.49494C19.7863 6.33703 19.8632 5.25631 20.2478 4.17559C21.7092 -0.070092 25.478 -0.687645 28.5546 0.624656C28.8622 0.779047 28.9391 0.933433 28.8622 1.24221C28.7084 1.78257 28.6315 2.40012 28.5546 3.01767Z" fill="#565F77"/>
<path d="M31.862 10.8919C31.0159 10.8919 30.0929 10.8919 29.2469 10.8919C28.8623 10.8919 28.7084 10.8919 28.7853 10.4287C29.2469 7.10934 29.7853 3.86718 30.3237 0.62503C30.4006 0.316253 30.4775 0.161865 30.7851 0.161865C32.5542 0.161865 34.4001 0.161865 36.1692 0.161865C36.5538 0.161865 36.6307 0.316253 36.5538 0.702224C36.323 2.24611 36.323 2.24611 34.7847 2.24611C34.1694 2.24611 33.6309 2.3233 33.0157 2.24611C32.4773 2.16891 32.3234 2.4005 32.2465 2.86366C32.0158 4.17596 32.0158 4.17596 33.3233 4.17596C34.0156 4.17596 34.6309 4.17596 35.3231 4.17596C35.6307 4.17596 35.7846 4.25316 35.7076 4.63913V4.71632C35.4769 6.3374 35.4769 6.3374 33.9387 6.3374H33.554C31.7851 6.3374 31.7851 6.3374 31.4774 8.11284C31.4005 8.57606 31.4774 8.73042 31.9389 8.73042C32.9387 8.73042 33.9387 8.73042 34.8616 8.73042C35.2462 8.73042 35.4 8.80763 35.3231 9.27078C35.0924 10.8919 35.0924 10.8919 33.554 10.8919H31.862Z" fill="#565F77"/>
<path d="M43.7836 8.11297C43.7836 8.8849 43.6298 9.5024 43.5529 10.12C43.5529 10.3515 43.3221 10.4288 43.1683 10.506C42.1685 10.8919 41.1685 11.1235 40.1687 11.0463C38.4765 10.9691 37.0151 9.81119 36.7075 8.11297C36.1691 5.56553 36.7844 3.24971 38.6304 1.47424C40.1687 -0.0696413 42.6299 -0.378418 44.5528 0.625106C44.8605 0.779493 45.0143 0.93388 44.9374 1.24266C44.7836 1.78302 44.7066 2.40057 44.6297 3.01813C44.5528 3.01813 44.4759 2.94093 44.399 2.86374C42.2454 1.31985 40.1687 2.0146 39.3226 4.56201C39.0149 5.33395 38.938 6.18309 39.0149 6.95503C39.2457 8.65333 40.3225 9.42526 41.9377 8.96204C42.553 8.80769 43.1683 8.42168 43.7836 8.11297Z" fill="#565F77"/>
<path d="M55.3205 10.8921C54.2437 10.8921 54.2437 10.8921 54.3975 9.7342C54.859 6.80083 55.3974 3.86745 55.7819 0.934072C55.8588 0.393716 56.0897 0.162133 56.628 0.239327C58.2432 0.316521 58.2432 0.239327 58.0125 1.86041C57.551 4.485 57.1664 7.03241 56.705 9.65699C56.5511 10.8921 56.5511 10.8921 55.3205 10.8921Z" fill="#565F77"/>
<path d="M46.3218 15.3693C46.3218 14.5973 46.3987 13.9026 46.3218 13.1306C46.2448 12.5131 46.5526 12.3587 47.0909 12.4359C47.5524 12.4359 47.8601 12.4359 47.8601 13.1306C47.8601 14.8289 47.937 14.8289 49.5522 14.6745C49.8599 14.6745 50.0137 14.5201 50.0137 14.2113C50.0137 13.9026 50.0137 13.671 50.0137 13.3622C50.0137 12.5902 50.629 12.2043 51.3213 12.5131C51.552 12.5902 51.4751 12.8219 51.4751 12.9762C51.4751 14.5973 51.4751 16.2956 51.4751 17.9167C51.4751 18.5342 51.0136 18.3798 50.7059 18.3798C50.3982 18.3798 49.9368 18.6114 49.9368 17.9167C49.9368 17.6079 49.9368 17.2219 49.9368 16.9131C49.9368 16.5272 50.1675 15.9868 49.7829 15.8324C49.2446 15.6008 48.5523 15.678 48.0139 15.8324C47.7832 15.8324 47.8601 16.1412 47.8601 16.2956C47.8601 16.836 47.8601 17.2991 47.8601 17.8395C47.937 18.5342 47.4755 18.3798 47.0909 18.3798C46.7064 18.3798 46.3218 18.5342 46.3218 17.8395C46.3218 17.4535 46.3218 16.9903 46.3218 16.6044V15.3693Z" fill="#565F77"/>
<path d="M17.0942 15.2916C17.0942 14.5196 17.0942 13.7477 17.0942 12.9757C17.0942 12.5898 17.1712 12.3582 17.6327 12.3582C18.6326 12.3582 19.6325 12.3582 20.5554 12.3582C20.94 12.3582 21.0938 12.4354 21.0938 12.8985C21.0938 13.2845 21.0169 13.5161 20.5554 13.5161C20.094 13.5161 19.6325 13.5161 19.094 13.5161C18.7095 13.5161 18.5556 13.5933 18.4787 14.0565C18.4787 14.5196 18.6326 14.5968 19.094 14.5968C19.4786 14.5968 19.9401 14.5968 20.3247 14.5968C20.7093 14.5968 20.94 14.674 20.94 15.1372C20.94 15.6003 20.7862 15.6775 20.3247 15.6775C20.017 15.6775 19.7094 15.6775 19.4017 15.6775C18.5556 15.6775 18.3249 15.9863 18.4787 16.8355C18.6326 17.1443 18.7864 17.1443 19.0171 17.1443C19.5556 17.1443 20.094 17.1443 20.6323 17.1443C21.0938 17.1443 21.1707 17.2986 21.1707 17.6846C21.1707 18.0705 21.0938 18.225 20.6323 18.225C19.6325 18.225 18.5556 18.225 17.5558 18.225C17.1712 18.225 17.0942 18.0705 17.0942 17.7618C17.0942 16.9898 17.0942 16.1407 17.0942 15.2916Z" fill="#565F77"/>
<path d="M52.4746 15.3694C52.4746 14.5975 52.4746 13.7483 52.4746 12.9764C52.4746 12.5904 52.5515 12.436 53.013 12.436C54.0129 12.436 55.0128 12.436 56.0126 12.436C56.3972 12.436 56.5511 12.5904 56.5511 12.9764C56.5511 13.3623 56.4741 13.594 56.0895 13.5168C55.5512 13.5168 55.0128 13.5168 54.4744 13.5168C54.0898 13.5168 54.0129 13.6711 54.0129 14.0571C54.0129 14.3659 54.0129 14.6746 54.4744 14.6746C54.9359 14.6746 55.3973 14.6746 55.8588 14.6746C56.3203 14.6746 56.3972 14.829 56.3972 15.2922C56.3972 15.7553 56.2434 15.8326 55.8588 15.8326C55.5512 15.8326 55.1666 15.8326 54.859 15.8326C54.1667 15.7553 53.9359 16.0641 54.0129 16.7589C54.0129 17.2221 54.1667 17.3764 54.5513 17.2993C55.0128 17.2993 55.4743 17.2993 56.0126 17.2993C56.3972 17.2993 56.628 17.3764 56.628 17.8396C56.628 18.3028 56.4741 18.4571 56.0895 18.38C55.0897 18.38 54.0898 18.38 53.0899 18.38C52.7053 18.38 52.5515 18.2256 52.5515 17.8396C52.5515 16.9133 52.4746 16.1413 52.4746 15.3694Z" fill="#565F77"/>
<path d="M32.7847 15.2922C32.7847 14.5203 32.7847 13.6711 32.7847 12.8992C32.7847 12.5133 32.8616 12.3588 33.2461 12.4361C34.246 12.4361 35.3228 12.4361 36.3227 12.4361C36.7842 12.4361 36.7842 12.7448 36.7842 13.0536C36.7842 13.4396 36.6303 13.594 36.3227 13.5168C35.7843 13.5168 35.2459 13.5168 34.7075 13.5168C34.3229 13.5168 34.246 13.6711 34.246 14.0571C34.246 14.3659 34.246 14.6746 34.7075 14.6746C35.0921 14.6746 35.4767 14.6746 35.9381 14.6746C36.3227 14.6746 36.6303 14.6747 36.6303 15.2922C36.6303 15.987 36.2458 15.7554 35.9381 15.8326C35.7074 15.8326 35.3998 15.8326 35.169 15.8326C34.3229 15.8326 34.0922 16.1414 34.246 16.9905C34.3998 17.1449 34.5536 17.1449 34.7845 17.1449C35.3228 17.1449 35.8612 17.1449 36.3996 17.1449C36.8611 17.1449 36.9381 17.2993 36.9381 17.6852C36.9381 18.0712 36.7842 18.2256 36.3996 18.2256C35.3998 18.2256 34.3229 18.2256 33.323 18.2256C32.9385 18.2256 32.8616 18.0712 32.8616 17.6852C32.8616 16.9905 32.7847 16.1414 32.7847 15.2922Z" fill="#565F77"/>
<path d="M63.2429 15.2922C63.2429 14.5203 63.2429 13.7483 63.2429 12.9764C63.2429 12.5904 63.3198 12.436 63.7045 12.436C64.7043 12.436 65.7042 12.436 66.7041 12.436C67.0887 12.436 67.1656 12.5904 67.1656 12.9764C67.1656 13.2852 67.1656 13.594 66.7041 13.594C66.1657 13.594 65.6273 13.594 65.0889 13.594C64.7043 13.594 64.6274 13.8255 64.6274 14.1343C64.6274 14.443 64.6274 14.7518 65.0889 14.7518C65.5504 14.7518 66.0119 14.7518 66.4734 14.7518C66.8579 14.7518 67.0118 14.9063 67.0118 15.2922C67.0118 15.6782 66.9349 15.8326 66.4734 15.8326C66.1657 15.8326 65.7811 15.8326 65.4735 15.8326C64.7812 15.7553 64.5505 15.987 64.6274 16.6817C64.6274 17.2221 64.7812 17.3764 65.2427 17.2993C65.7042 17.2993 66.0888 17.2993 66.5503 17.2993C66.9349 17.2993 67.2425 17.2993 67.2425 17.8396C67.2425 18.38 67.0118 18.4571 66.6272 18.38C65.7042 18.38 64.7043 18.38 63.7814 18.38C63.3198 18.38 63.166 18.2256 63.166 17.7624C63.2429 16.9133 63.2429 16.0641 63.2429 15.2922Z" fill="#565F77"/>
<path d="M10.7105 16.7584C10.7874 18.0707 10.6336 18.2251 9.3261 18.3023C6.86483 18.4567 5.40345 16.8356 5.94185 14.5198C6.32642 12.6672 8.78772 11.5864 10.4029 12.5899C10.9413 12.8987 10.5567 13.4391 10.7105 13.9022C9.63375 13.3619 8.55691 12.9759 7.71087 14.1338C7.17248 14.8285 7.24939 16.0637 7.78779 16.7584C8.40308 17.376 9.3261 17.376 10.7105 16.7584Z" fill="#565F77"/>
<path d="M16.0944 16.7584C16.2482 17.9935 16.0944 18.1479 14.9406 18.3023C12.4024 18.611 10.7872 16.9128 11.3257 14.5198C11.7872 12.6672 14.2484 11.5864 15.8636 12.5899C16.3251 12.8987 16.1713 13.3619 16.0944 13.6707C15.9406 13.9794 15.7098 13.6707 15.479 13.5934C14.7099 13.2847 13.9408 13.2847 13.3254 13.9022C12.787 14.4426 12.7101 15.6005 13.0947 16.3725C13.4793 17.1444 14.2484 17.4532 15.1714 17.1444C15.479 17.0672 15.7867 16.9128 16.0944 16.7584Z" fill="#565F77"/>
<path d="M29.785 12.4357C30.4772 12.4357 31.1694 12.4357 31.8617 12.4357C32.2463 12.4357 32.4001 12.5901 32.4001 12.976C32.4001 13.362 32.3232 13.5164 31.9386 13.5164C30.5541 13.5936 30.5541 13.5936 30.5541 15.0603C30.5541 15.9094 30.4772 16.7586 30.5541 17.6077C30.6311 18.3025 30.2465 18.2253 29.785 18.3024C29.2466 18.3024 29.0158 18.2253 29.0158 17.6077C29.0927 16.4498 29.0158 15.3691 29.0158 14.2112C29.0158 13.6708 28.862 13.4393 28.3236 13.5164C28.0929 13.5164 27.8621 13.5164 27.6314 13.5164C27.2468 13.5164 27.0161 13.4393 27.0161 12.976C27.0161 12.5129 27.1699 12.3585 27.5545 12.4357C28.3236 12.4357 29.0158 12.4357 29.785 12.4357Z" fill="#565F77"/>
<path fill-rule="evenodd" clip-rule="evenodd" d="M1.63437 10.8926H2.17277C2.56747 10.8926 2.96217 10.8722 3.34648 10.8524C3.71106 10.8337 4.06629 10.8154 4.40329 10.8154C6.01849 10.661 7.24913 9.88899 8.17211 8.49956C8.94123 7.26442 9.32579 5.87492 9.24888 4.40823C9.17197 1.78363 7.86446 0.471329 5.24935 0.31694C4.78786 0.278343 4.30715 0.278343 3.81682 0.278343C3.32649 0.278343 2.82654 0.278343 2.3266 0.239746C1.71128 0.239746 1.55746 0.471328 1.48054 1.01169C1.09597 3.71346 0.634488 6.41524 0.173005 9.11698L0.172994 9.11706C0.0182716 10.01 -0.0586403 10.4538 0.128133 10.6744C0.312748 10.8926 0.754991 10.8926 1.63437 10.8926ZM3.01865 8.80857C5.32609 8.88579 6.78746 7.41909 6.78746 4.94887C6.86438 3.09621 6.01832 2.32427 4.24928 2.24708C3.78779 2.24708 3.63397 2.40147 3.55705 2.86463L3.55697 2.86512C3.24934 4.71762 2.94171 6.57011 2.63407 8.34543C2.48025 8.80857 2.71099 8.80857 3.01865 8.80857Z" fill="#565F77"/>
<path fill-rule="evenodd" clip-rule="evenodd" d="M46.091 2.16887C45.0911 3.48117 44.7065 5.02505 44.7065 6.64613C44.7065 9.03914 45.8603 10.6602 47.7062 11.0462C49.706 11.355 51.475 10.8146 52.7057 9.11635C53.9363 7.49527 54.3978 5.6426 54.167 3.63556C54.0132 1.86009 52.9364 0.547792 51.3981 0.161821C49.3983 -0.378538 47.3216 0.470598 46.091 2.16887ZM48.0909 3.09474C47.3987 4.09827 47.168 5.17899 47.168 6.25971C47.168 6.80007 47.168 7.18604 47.3218 7.57201C47.7063 9.03868 49.0908 9.5019 50.3214 8.57554C50.6291 8.34396 50.9367 8.03518 51.0906 7.64917C51.629 6.56848 51.9367 5.25618 51.7828 4.02108C51.7059 3.17194 51.4752 2.3228 50.4752 2.09122C49.5523 1.85964 48.7063 2.24561 48.0909 3.09474Z" fill="#565F77"/>
<path fill-rule="evenodd" clip-rule="evenodd" d="M18.017 8.88475C19.0168 7.57246 19.4014 6.10577 19.4014 4.48469C19.4014 2.32325 18.4784 0.702176 16.7094 0.239011C14.7865 -0.301348 13.0175 0.084623 11.633 1.6285C10.0178 3.48116 9.47943 5.7198 10.0178 8.11282C10.3255 9.7339 11.4023 10.7374 13.0175 10.969C15.0173 11.2778 16.7863 10.6603 18.017 8.88475ZM16.2481 7.5722C16.7095 6.72307 16.9403 5.71954 16.9403 4.71601C16.9403 3.17213 16.4788 2.32299 15.5558 2.09141C14.479 1.85983 13.4792 2.47739 12.8638 3.78969C12.2485 4.9476 12.0947 6.2599 12.4023 7.495C12.71 8.96166 14.0175 9.50202 15.2481 8.73009C15.7096 8.4213 16.0173 8.03537 16.2481 7.5722Z" fill="#565F77"/>
<path fill-rule="evenodd" clip-rule="evenodd" d="M37.7842 13.0534V15.3692C37.7842 16.1411 37.7842 16.913 37.8611 17.7622C37.8611 18.1482 38.0149 18.3025 38.3995 18.3025C38.768 18.2717 39.1243 18.2655 39.4781 18.2594C40.0104 18.2501 40.5371 18.2409 41.0915 18.1482C42.3991 17.9166 43.1682 16.913 43.2451 15.4464C43.2451 14.0569 42.476 12.8989 41.1684 12.5901C40.5915 12.4454 40.0147 12.4514 39.4378 12.4575C39.0917 12.4611 38.7456 12.4647 38.3995 12.4358C37.8611 12.3586 37.7842 12.5901 37.7842 13.0534ZM39.2455 14.674V15.2915V16.681C39.2455 16.9126 39.2455 17.067 39.5532 17.1441C40.2454 17.2213 41.0914 16.8354 41.3991 16.2178C41.7068 15.4459 41.5529 14.3652 40.9376 13.902C40.4761 13.5933 39.9377 13.3616 39.3993 13.5933C39.1542 13.6916 39.1903 13.9469 39.2288 14.219C39.2507 14.3737 39.2734 14.534 39.2455 14.674Z" fill="#565F77"/>
<path fill-rule="evenodd" clip-rule="evenodd" d="M57.5511 12.9757V15.2916V17.6846C57.5511 17.7093 57.5491 17.7361 57.547 17.7638C57.5362 17.9092 57.5234 18.0829 57.7818 18.1478C58.5509 18.4565 59.0124 18.1478 59.0124 17.2986V16.7583C59.0384 16.6539 59.0292 16.5407 59.0206 16.4336C59.0036 16.2238 58.9886 16.0374 59.2431 15.9863C59.6277 15.9091 60.0123 15.9863 60.243 16.3722L60.9353 17.7618C61.0891 18.0705 62.2428 18.3793 62.5505 18.1478C62.7043 18.0705 62.6274 17.9162 62.5505 17.839C62.2428 17.067 61.9351 16.2951 61.3967 15.6775C61.3789 15.6597 61.3612 15.6429 61.3441 15.6268C61.2135 15.5033 61.1246 15.4192 61.3967 15.2144C62.012 14.7512 62.089 14.1337 61.9351 13.4389C61.7044 12.6669 61.0891 12.4354 60.3969 12.3582H58.0894C57.628 12.3582 57.5511 12.5898 57.5511 12.9757ZM59.0107 14.2256C59.0115 14.2711 59.0123 14.3178 59.0123 14.3653C58.9354 14.7513 59.0892 14.9829 59.5507 15.0601C59.5973 15.0523 59.6439 15.0453 59.6901 15.0384C60.1007 14.9766 60.4736 14.9205 60.4736 14.3653C60.4736 13.7343 60.0929 13.6765 59.6772 13.6133C59.6353 13.6069 59.5929 13.6004 59.5507 13.5934C58.9985 13.5241 59.0038 13.8278 59.0107 14.2256Z" fill="#565F77"/>
<path fill-rule="evenodd" clip-rule="evenodd" d="M4.17261 13.3626C3.94187 12.6679 3.71113 12.2046 2.86506 12.4362C2.76347 12.4567 2.6565 12.4501 2.55125 12.4437C2.25813 12.4257 1.97836 12.4086 1.86518 12.9766C1.55752 13.8257 1.24986 14.6556 0.942202 15.4854C0.634544 16.3152 0.326886 17.1451 0.0192285 17.9942C0.0192285 18.0356 0.0137063 18.0714 0.00858063 18.1047C-0.00542309 18.1955 -0.0164674 18.2672 0.096143 18.3802C0.480715 18.6117 1.4806 18.303 1.55752 17.917C1.63443 17.3767 1.94209 17.2994 2.40358 17.2994H3.63421C3.94187 17.2223 4.17261 17.3767 4.17261 17.6082C4.24952 18.303 4.78792 18.303 5.32632 18.303C5.94164 18.303 5.86473 18.0714 5.7109 17.6855C5.59595 17.3723 5.481 17.0627 5.3668 16.7551C4.9461 15.6219 4.53557 14.5161 4.17261 13.3626ZM3.48029 15.6008C3.24955 15.0605 3.09572 14.5973 2.94189 14.057L2.78806 14.1342C2.71115 14.3658 2.63424 14.5888 2.55732 14.8117C2.40349 15.2578 2.24966 15.7038 2.09583 16.2184H3.09572C3.63412 16.2184 3.63412 15.9869 3.48029 15.6008Z" fill="#565F77"/>
<path fill-rule="evenodd" clip-rule="evenodd" d="M24.1432 12.4296C24.0451 12.4326 23.9511 12.4354 23.8628 12.4354C23.3244 12.4354 22.9398 12.4354 22.4014 12.3582C22.0938 12.3582 21.9399 12.4354 21.9399 12.7442V17.839C21.9399 18.2851 22.2021 18.2577 22.4233 18.2345C22.47 18.2296 22.515 18.225 22.5552 18.225C22.631 18.225 22.7161 18.2437 22.8025 18.2627C23.0669 18.3208 23.3434 18.3817 23.4013 17.9162C23.4291 17.7211 23.4067 17.5058 23.3849 17.2959C23.3463 16.9244 23.3095 16.5695 23.5552 16.3722C23.8115 16.1664 24.2047 16.1664 24.5977 16.1664C24.7944 16.1664 24.9909 16.1664 25.1703 16.1407H25.2472C26.1703 15.9863 26.6317 15.3687 26.7086 14.5196C26.7856 13.5161 26.401 12.8985 25.478 12.5898C25.0427 12.4025 24.5571 12.4171 24.1432 12.4296ZM24.1706 13.594C23.5553 13.5168 23.4784 13.8256 23.5553 14.2887C23.5553 14.3576 23.5519 14.4247 23.5486 14.4891C23.5299 14.8581 23.5158 15.1379 24.1706 15.1379C24.2199 15.1308 24.2693 15.1244 24.3183 15.118C24.8032 15.0549 25.2474 14.997 25.2474 14.3659C25.2474 13.7483 24.709 13.6712 24.1706 13.594Z" fill="#565F77"/>
</g>
<defs>
<clipPath id="clip0_3359_508">
<rect width="67.64" height="19" fill="white"/>
</clipPath>
</defs>
</svg>
