<svg width="105" height="22" viewBox="0 0 105 22" fill="none" xmlns="http://www.w3.org/2000/svg">
<g opacity="0.1" clip-path="url(#clip0_103_534)">
<path d="M32.6091 3.28223C31.3797 3.28223 30.195 3.43354 29.7125 3.56146C29.0102 3.75489 28.8351 4.05596 28.7029 4.67994L25.9162 17.2766C25.8716 17.5339 25.8286 17.7492 25.8286 17.9645C25.8286 18.5885 26.2458 18.9956 26.9258 18.9956C27.6726 18.9956 27.98 18.523 28.1328 17.7913L28.9227 14.2019C29.4704 14.2658 30.195 14.3314 31.2269 14.3314C35.77 14.3314 38.5997 11.9244 38.5997 8.29123C38.5997 5.10893 36.3385 3.28223 32.6091 3.28223ZM31.117 12.2675C30.4147 12.2675 29.8654 12.2457 29.3622 12.1818L30.8319 5.4958C31.2922 5.43184 31.9737 5.34448 32.676 5.34448C35.09 5.34448 36.3194 6.46297 36.3194 8.31151C36.3178 10.6764 34.5614 12.2675 31.117 12.2675Z" fill="white"/>
<path d="M104.1 14.8461C103.728 14.8461 103.485 15.0613 103.025 15.5558C102.213 16.3733 101.708 16.8241 101.073 16.8241C100.503 16.8241 100.196 16.3733 100.196 15.6416C100.196 15.2329 100.283 14.7384 100.393 14.2018L101.205 10.461H103.642C104.409 10.461 104.871 10.0305 104.871 9.25675C104.871 8.82621 104.586 8.50486 103.928 8.50486H101.643L102.038 6.76395C102.083 6.50656 102.126 6.26945 102.126 6.05417C102.126 5.45203 101.708 5.02148 101.028 5.02148C100.304 5.02148 99.9758 5.49415 99.8214 6.22577L99.3166 8.50486H98.2847C97.4949 8.50486 97.0347 8.9354 97.0347 9.70914C97.0347 10.1397 97.342 10.461 97.9997 10.461H98.8994L98.0872 14.1581C97.9997 14.5668 97.8898 15.2329 97.8898 15.9209C97.8898 17.6618 98.8118 18.93 100.786 18.93C101.928 18.93 102.936 18.3716 103.705 17.7039C104.452 17.0596 105 16.2641 105 15.7477C105 15.2548 104.605 14.8461 104.1 14.8461Z" fill="white"/>
<path d="M53.6306 4.55027C53.6306 3.92629 53.1911 3.51758 52.5112 3.51758C51.7866 3.51758 51.4586 3.99024 51.3041 4.72186L48.562 17.2108C48.4967 17.4682 48.4521 17.6835 48.4521 17.8988C48.4521 18.5228 48.8917 18.9299 49.5493 18.9299C50.2962 18.9299 50.6242 18.4572 50.7787 17.7256L53.5208 5.2382C53.5654 4.97925 53.6306 4.76554 53.6306 4.55027Z" fill="white"/>
<path d="M92.7992 8.28966C89.288 8.28966 86.8962 11.7075 86.8962 14.9538C86.8962 15.0146 86.8978 15.0755 86.8994 15.1347C86.3484 15.9537 85.6445 16.8023 85.162 16.8023C84.8117 16.8023 84.6795 16.4794 84.6795 15.9849C84.6795 15.3828 84.8547 14.3719 85.0522 13.4905L86.8739 5.23528C86.9185 4.97788 86.9615 4.76261 86.9615 4.54734C86.9615 3.92336 86.5443 3.51465 85.8643 3.51465C85.1175 3.51465 84.8117 3.98731 84.6572 4.71893L83.67 9.18975C83.1429 8.65313 82.3737 8.28654 81.2113 8.28654C78.88 8.28654 76.5344 10.0446 75.6203 12.7418C74.6139 15.2907 73.7142 16.7992 73.004 16.7992C72.7413 16.7992 72.5868 16.5839 72.5868 16.2189C72.5868 15.1441 73.2015 12.5218 73.4642 11.2536C73.5518 10.7809 73.5964 10.5875 73.5964 10.3082C73.5964 9.36291 71.9944 8.24442 69.91 8.24442C67.4991 8.24442 65.3159 9.74042 64.2219 11.9618C62.5961 14.7759 61.104 16.7992 60.3651 16.7992C60.0355 16.7992 59.9256 16.3905 59.838 16.0036L59.2918 13.0413L62.6486 10.355C62.956 10.0976 63.3509 9.73106 63.3509 9.25839C63.3509 8.67809 62.956 8.29122 62.3636 8.29122C61.9241 8.29122 61.5515 8.54861 61.1788 8.84968L56.1325 12.9336L57.822 5.23839C57.8666 4.981 57.9319 4.76573 57.9319 4.55046C57.9319 3.92648 57.4924 3.51777 56.8125 3.51777C56.0879 3.51777 55.7599 3.99043 55.6054 4.72205L52.8633 17.211C52.798 17.4684 52.7534 17.6837 52.7534 17.899C52.7534 18.5229 53.1929 18.9301 53.8506 18.9301C54.5974 18.9301 54.9255 18.4574 55.0799 17.7258L55.4318 16.1144L57.494 14.4811L57.9988 16.9739C58.1963 17.9629 58.7233 18.9301 60.0833 18.9301C61.4368 18.9301 62.5021 17.7196 63.569 16.0832C63.8923 17.7976 65.1376 18.9301 66.8653 18.9301C68.5994 18.9301 69.7842 17.9192 70.5517 16.5652V16.6089C70.5517 18.0066 71.2763 18.9301 72.5486 18.9301C73.6999 18.9301 74.6554 18.25 75.5089 16.8054C75.993 18.0643 77.0758 18.9301 78.5822 18.9301C80.3593 18.9301 81.6317 17.8771 82.4438 16.4155V16.5449C82.4438 18.0924 83.2336 18.9317 84.5283 18.9317C85.6716 18.9317 86.643 18.2812 87.4726 17.2235C88.1032 18.2812 89.2338 18.9317 90.7609 18.9317C94.2722 18.9317 96.664 15.5138 96.664 12.2457C96.6624 9.94477 95.2356 8.28966 92.7992 8.28966ZM70.9228 12.6544C70.2858 15.3406 68.9259 16.8678 67.3892 16.8678C66.3573 16.8678 65.7872 16.0941 65.7872 14.9335C65.7872 12.6544 67.4768 10.2037 69.7364 10.2037C70.4164 10.2037 70.9435 10.3972 71.4037 10.6764L70.9228 12.6544ZM83.1445 11.5156C82.4422 14.6761 80.8403 16.8678 79.0854 16.8678C78.1204 16.8678 77.5488 16.1362 77.5488 14.9335C77.5488 12.6341 79.173 10.2474 81.345 10.2474C82.1795 10.2474 82.8148 10.5266 83.2766 10.8917L83.1445 11.5156ZM91.0221 16.8678C89.7498 16.8678 89.2227 15.9646 89.2227 14.8259C89.2227 12.7402 90.6925 10.355 92.5365 10.355C93.8088 10.355 94.3359 11.2582 94.3359 12.397C94.3359 14.5029 92.8661 16.8678 91.0221 16.8678Z" fill="white"/>
<path d="M44.0632 8.28955C40.552 8.28955 38.1602 11.7074 38.1602 14.9537C38.1602 17.2749 39.587 18.93 42.0217 18.93C45.533 18.93 47.9248 15.5121 47.9248 12.244C47.9248 9.94466 46.498 8.28955 44.0632 8.28955ZM42.2861 16.8677C41.0137 16.8677 40.4867 15.9645 40.4867 14.8257C40.4867 12.7401 41.9565 10.3549 43.8005 10.3549C45.0728 10.3549 45.5999 11.2581 45.5999 12.3969C45.5983 14.5028 44.1285 16.8677 42.2861 16.8677Z" fill="white"/>
<path d="M10.5578 4.61434C12.7943 4.61434 14.6073 3.58138 14.6073 2.30717C14.6073 1.03295 12.7943 0 10.5578 0C8.32132 0 6.5083 1.03295 6.5083 2.30717C6.5083 3.58138 8.32132 4.61434 10.5578 4.61434Z" fill="white"/>
<path d="M10.5578 21.9986C12.7943 21.9986 14.6073 20.9657 14.6073 19.6914C14.6073 18.4172 12.7943 17.3843 10.5578 17.3843C8.32132 17.3843 6.5083 18.4172 6.5083 19.6914C6.5083 20.9657 8.32132 21.9986 10.5578 21.9986Z" fill="white"/>
<path d="M4.91427 7.80791C6.0325 5.9106 6.02524 3.8557 4.89806 3.21817C3.77087 2.58063 1.95059 3.60187 0.83236 5.49919C-0.285874 7.3965 -0.278617 9.4514 0.848571 10.0889C1.97576 10.7265 3.79603 9.70522 4.91427 7.80791Z" fill="white"/>
<path d="M20.2811 16.4992C21.3994 14.6019 21.3927 12.5474 20.2663 11.9103C19.1399 11.2731 17.3202 12.2947 16.202 14.1921C15.0838 16.0894 15.0904 18.1439 16.2168 18.781C17.3432 19.4181 19.1629 18.3965 20.2811 16.4992Z" fill="white"/>
<path d="M4.89855 18.7804C6.02573 18.1428 6.03299 16.0879 4.91476 14.1906C3.79652 12.2933 1.97625 11.2721 0.849059 11.9096C-0.278128 12.5471 -0.285386 14.602 0.832848 16.4993C1.95108 18.3967 3.77136 19.4179 4.89855 18.7804Z" fill="white"/>
<path d="M20.2673 10.0897C21.3937 9.45264 21.4003 7.39809 20.2821 5.50077C19.1639 3.60346 17.3442 2.58187 16.2178 3.21897C15.0914 3.85608 15.0847 5.91063 16.203 7.80794C17.3212 9.70525 19.1409 10.7269 20.2673 10.0897Z" fill="white"/>
</g>
<defs>
<clipPath id="clip0_103_534">
<rect width="105" height="22" fill="white"/>
</clipPath>
</defs>
</svg>
