<svg width="86" height="18" viewBox="0 0 86 18" fill="none" xmlns="http://www.w3.org/2000/svg">
<g opacity="0.3" clip-path="url(#clip0_2885_473)">
<path fill-rule="evenodd" clip-rule="evenodd" d="M4.91278 0H19.6511C21.8698 0 23.8243 1.44 24.4054 3.54857C23.613 4.47429 21.8698 4.88571 20.6548 5.04C20.2322 4.16571 19.3342 3.6 18.3305 3.6H6.23342C4.80713 3.6 3.69779 4.68 3.69779 6.06857V11.88C3.69779 13.2686 4.85995 14.3486 6.23342 14.3486H19.6511C23.0848 14.3486 23.93 13.32 24.5639 12.24V13.1657C24.5639 15.7886 22.3452 17.9486 19.6511 17.9486H4.91278C2.21867 17.9486 0 15.7886 0 13.1657V4.83429C0 3.54857 0.528256 2.31429 1.42629 1.44C2.37715 0.514286 3.59214 0 4.91278 0Z" fill="#565F77"/>
<path fill-rule="evenodd" clip-rule="evenodd" d="M8.55758 6.58296H20.0735C22.0281 6.58296 23.7713 5.4001 24.4052 3.6001C25.3033 4.62867 25.7787 5.96581 25.6731 7.30295C25.6731 8.79438 24.8807 10.183 23.56 11.0058C22.8733 11.4687 22.0809 11.6744 21.2885 11.6744H8.55758C8.13497 11.6744 7.76519 11.5201 7.44824 11.2115C7.13129 10.903 6.97281 10.543 7.02564 10.1315V8.02296C7.02564 7.61153 7.18411 7.25153 7.50107 6.94295C7.76519 6.73724 8.13497 6.58296 8.55758 6.58296ZM10.3008 8.12581H9.34996C8.92736 8.12581 8.55758 8.48581 8.55758 8.89724V9.51438C8.55758 9.92581 8.92736 10.2858 9.34996 10.2858H10.3008C10.7234 10.2858 11.0932 9.92581 11.0932 9.51438V8.89724C11.0404 8.43438 10.7234 8.12581 10.3008 8.12581Z" fill="#565F77"/>
<path d="M30.639 10.0286C31.1673 10.0286 31.5899 9.97713 31.9597 9.87428C32.3294 9.77142 32.6464 9.61713 32.9105 9.46285C33.1746 9.30856 33.3331 9.10285 33.4916 8.89713C33.6501 8.69142 33.7029 8.53713 33.7557 8.33142C33.7557 8.22856 33.7557 8.1257 33.6501 8.07428C33.5444 8.02285 33.4916 7.97142 33.386 7.97142H32.9633C32.8577 7.97142 32.752 7.97142 32.6992 8.02285C32.6464 8.07428 32.5936 8.1257 32.4879 8.17713C32.3294 8.33142 32.1181 8.53713 31.854 8.63999C31.5899 8.74285 31.1673 8.8457 30.639 8.8457C30.0579 8.8457 29.6353 8.69142 29.2127 8.33142C28.843 7.97142 28.6317 7.50856 28.6317 6.89142V6.78856H33.5444C33.6501 6.78856 33.7557 6.73713 33.8086 6.6857C33.8614 6.63428 33.9142 6.53142 33.9142 6.42856V6.06856C33.9142 5.55428 33.8614 5.03999 33.7029 4.62856C33.5444 4.21713 33.3331 3.8057 33.069 3.49713C32.8049 3.18856 32.4351 2.98285 32.0125 2.77713C31.6427 2.62285 31.1673 2.51999 30.639 2.51999C30.1636 2.51999 29.741 2.62285 29.3712 2.77713C29.0014 2.93142 28.6317 3.13713 28.3675 3.4457C28.1034 3.70285 27.8921 4.06285 27.6808 4.42285C27.5223 4.78285 27.4167 5.19427 27.3638 5.6057C27.311 6.01713 27.311 6.47999 27.3638 6.89142C27.4167 7.35427 27.5223 7.7657 27.6808 8.1257C27.8393 8.4857 28.1034 8.8457 28.3675 9.10285C28.6317 9.35999 29.0014 9.61713 29.3712 9.77142C29.741 9.9257 30.1636 10.0286 30.639 10.0286ZM32.6992 5.6057H28.6845V5.55428C28.6845 5.29713 28.7373 5.03999 28.843 4.78285C28.9486 4.57713 29.1071 4.37142 29.2656 4.21713C29.424 4.06285 29.6353 3.90856 29.8995 3.85713C30.1108 3.75427 30.3749 3.70285 30.639 3.70285C31.2729 3.70285 31.7484 3.85713 32.1181 4.21713C32.4879 4.57713 32.6992 5.03999 32.6992 5.6057ZM36.2385 9.87428C36.3442 9.87428 36.4498 9.82285 36.5027 9.77142C36.5555 9.71999 36.6083 9.61713 36.6083 9.51427V6.11999H39.2496C39.725 6.11999 40.1476 6.06856 40.5702 5.91427C40.9928 5.81142 41.3626 5.6057 41.6796 5.34856C41.9965 5.09142 42.2606 4.78285 42.4191 4.42285C42.5776 4.06285 42.6833 3.59999 42.6833 3.0857C42.6833 2.57142 42.5776 2.15999 42.4191 1.74856C42.2078 1.38856 41.9965 1.07999 41.6796 0.822846C41.3626 0.565703 40.9928 0.411417 40.5702 0.30856C40.1476 0.205703 39.725 0.154275 39.2496 0.154275H35.6574C35.5518 0.154275 35.4461 0.205703 35.3933 0.257132C35.3405 0.30856 35.2877 0.411417 35.2877 0.514275V9.46285C35.2877 9.5657 35.3405 9.66856 35.3933 9.71999C35.4461 9.77142 35.5518 9.82285 35.6574 9.82285H36.2385V9.87428ZM39.1439 4.83427H36.6083V1.43999H39.1439C39.8307 1.43999 40.3589 1.59427 40.7287 1.85142C41.0985 2.10856 41.3098 2.57142 41.3098 3.13713C41.3098 3.70285 41.0985 4.1657 40.7287 4.47427C40.3589 4.73142 39.8307 4.83427 39.1439 4.83427ZM45.4302 10.0286C45.6415 10.0286 45.9056 10.0286 46.1169 9.97713C46.381 9.9257 46.5923 9.87427 46.8565 9.77142C47.0678 9.66856 47.2791 9.5657 47.4904 9.41142C47.6489 9.25713 47.8073 9.10285 47.913 8.94856V9.51427C47.913 9.61713 47.9658 9.71999 48.0186 9.77142C48.0715 9.82285 48.1771 9.87428 48.2828 9.87428H48.811C48.9167 9.87428 49.0223 9.82285 49.0751 9.77142C49.128 9.71999 49.1808 9.61713 49.1808 9.51427V5.29713C49.1808 4.83428 49.128 4.47427 48.9695 4.11427C48.811 3.75427 48.5997 3.4457 48.3356 3.23999C48.0715 3.03427 47.7545 2.82856 47.3847 2.7257C47.0149 2.62285 46.6452 2.51999 46.1697 2.51999C45.8 2.51999 45.4302 2.57142 45.1132 2.67427C44.7963 2.77713 44.4793 2.93142 44.268 3.0857C44.0039 3.23999 43.7926 3.4457 43.6869 3.65142C43.5285 3.85713 43.4756 4.06285 43.4228 4.26856C43.4228 4.37142 43.4228 4.47428 43.5285 4.5257C43.6341 4.62856 43.7398 4.67999 43.8454 4.67999H44.268C44.3737 4.67999 44.4793 4.67999 44.5321 4.62856C44.585 4.57713 44.6378 4.5257 44.7434 4.47427C44.9019 4.26856 45.0604 4.11427 45.2717 3.95999C45.483 3.8057 45.8 3.75427 46.2226 3.75427C46.698 3.75427 47.1206 3.85713 47.4376 4.11427C47.7545 4.37142 47.913 4.67999 47.913 5.19428V5.39999L45.8528 5.65713C45.4302 5.70856 45.0604 5.81142 44.7434 5.91427C44.3737 6.01713 44.0567 6.17142 43.7926 6.37713C43.5285 6.58285 43.3172 6.78856 43.1587 7.09713C43.0002 7.35428 42.9474 7.71428 42.9474 8.07428C42.9474 8.33142 43.0002 8.58856 43.1059 8.8457C43.2115 9.10285 43.37 9.30856 43.5813 9.46285C43.7926 9.61713 44.0567 9.77142 44.3737 9.87428C44.7434 9.97713 45.0604 10.0286 45.4302 10.0286ZM45.5887 8.8457C45.3245 8.8457 45.1132 8.79427 44.9547 8.74285C44.7963 8.69142 44.6378 8.58856 44.5321 8.53713C44.4265 8.43427 44.3737 8.33142 44.3208 8.22856C44.268 8.1257 44.268 8.02285 44.268 7.91999C44.268 7.61142 44.4265 7.35427 44.7963 7.14856C45.1661 6.94285 45.6415 6.78856 46.2226 6.6857L47.913 6.42856V6.78856C47.913 7.09713 47.8602 7.35428 47.7545 7.61142C47.6489 7.86856 47.4904 8.07427 47.2791 8.27999C47.0678 8.4857 46.8036 8.58856 46.5395 8.69142C46.2226 8.79427 45.9056 8.8457 45.5887 8.8457ZM52.2447 12.4971C52.3503 12.4971 52.456 12.4457 52.5088 12.3943C52.5616 12.3428 52.6145 12.24 52.6673 12.1886L56.9461 3.0857C56.9461 3.03427 56.9461 3.03427 56.9461 2.98285C56.9461 2.87999 56.8933 2.82856 56.8405 2.7257C56.7877 2.62285 56.682 2.62285 56.5764 2.62285H55.9953C55.8896 2.62285 55.784 2.67427 55.7312 2.7257C55.6783 2.77713 55.6255 2.87999 55.5727 2.93142L53.354 7.66285L51.1353 2.93142C51.0825 2.87999 51.0825 2.77713 50.9769 2.7257C50.8712 2.67427 50.8184 2.62285 50.7127 2.62285H50.1845C50.0788 2.62285 50.026 2.67427 49.9203 2.7257C49.8675 2.77713 49.8147 2.87999 49.8147 2.98285C49.8147 3.03427 49.8147 3.03427 49.8147 3.0857L52.6145 9.2057L51.241 12.0857C51.241 12.1371 51.241 12.1371 51.241 12.1886C51.241 12.2914 51.2938 12.3428 51.3466 12.4457C51.3995 12.4971 51.5051 12.5486 51.6108 12.5486H52.2447V12.4971ZM61.6476 10.0286C62.3344 10.0286 62.9683 9.9257 63.4437 9.71999C63.9191 9.51427 64.3417 9.25713 64.6587 8.89713C64.9756 8.58856 65.1869 8.22856 65.3454 7.86856C65.5039 7.50856 65.5567 7.19999 65.6095 6.89142C65.6095 6.78856 65.5567 6.73713 65.5039 6.6857C65.4511 6.63428 65.3454 6.58285 65.2926 6.58285H64.6587C64.6059 6.58285 64.5002 6.58285 64.4474 6.63427C64.3946 6.6857 64.3417 6.73713 64.2889 6.83999C64.2361 7.0457 64.1304 7.30285 64.0248 7.50856C63.9191 7.71428 63.7606 7.91999 63.5493 8.1257C63.338 8.27999 63.0739 8.43427 62.757 8.53713C62.44 8.63999 62.0702 8.69142 61.5948 8.69142C60.7496 8.69142 60.1157 8.43428 59.6403 7.97142C59.1648 7.50856 58.9535 6.89142 58.9007 6.11999C58.9007 5.70856 58.8479 5.29713 58.8479 4.93713C58.8479 4.57713 58.8479 4.1657 58.9007 3.75427C58.9535 2.98285 59.1648 2.3657 59.6403 1.90285C60.1157 1.43999 60.7496 1.18285 61.5948 1.18285C62.0702 1.18285 62.44 1.23427 62.757 1.33713C63.0739 1.43999 63.338 1.59427 63.5493 1.74856C63.7606 1.90285 63.9191 2.10856 64.0248 2.3657C64.1304 2.57142 64.2361 2.82856 64.2889 3.03427C64.2889 3.13713 64.3417 3.18856 64.4474 3.23999C64.5002 3.29142 64.6059 3.29142 64.6587 3.29142H65.2926C65.3982 3.29142 65.4511 3.23999 65.5039 3.18856C65.5567 3.13713 65.6095 3.03427 65.6095 2.98285C65.6095 2.67427 65.5039 2.3657 65.3454 2.0057C65.1869 1.6457 64.9756 1.2857 64.6587 0.977132C64.3417 0.66856 63.9191 0.411417 63.4437 0.154275C62.9683 -0.102868 62.3344 -0.154297 61.6476 -0.154297C61.0137 -0.154297 60.4855 -0.0514397 60.01 0.154275C59.5346 0.359989 59.112 0.617132 58.7422 0.925703C58.3724 1.23427 58.1083 1.6457 57.9498 2.10856C57.7385 2.57142 57.6329 3.0857 57.6329 3.59999C57.5801 4.42285 57.5801 5.2457 57.6329 6.06856C57.6329 6.63428 57.7385 7.09713 57.9498 7.55999C58.1611 8.02285 58.4253 8.43427 58.7422 8.74285C59.112 9.05142 59.4818 9.35999 60.01 9.51427C60.4855 9.9257 61.0137 10.0286 61.6476 10.0286ZM69.7828 10.0286C70.311 10.0286 70.7336 9.97713 71.1562 9.82285C71.5788 9.66856 71.8958 9.46285 72.1599 9.2057C72.424 8.94856 72.6882 8.58856 72.8466 8.22856C73.0051 7.86856 73.1108 7.4057 73.1636 6.94285C73.1636 6.89142 73.1636 6.78856 73.1636 6.63427V5.91427C73.1636 5.81142 73.1636 5.70856 73.1636 5.6057C73.1108 5.14285 73.0051 4.73142 72.8466 4.37142C72.6882 4.01142 72.4769 3.65142 72.1599 3.39427C71.8958 3.13713 71.526 2.93142 71.1562 2.77713C70.7336 2.62285 70.311 2.57142 69.7828 2.57142C69.2545 2.57142 68.8319 2.62285 68.4093 2.77713C67.9867 2.93142 67.6697 3.13713 67.4056 3.39427C67.1415 3.65142 66.8774 4.01142 66.7189 4.37142C66.5604 4.73142 66.4547 5.19427 66.4019 5.6057C66.4019 5.70856 66.4019 5.81142 66.4019 5.91427C66.4019 6.01713 66.4019 6.17142 66.4019 6.27427C66.4019 6.37713 66.4019 6.53142 66.4019 6.63427C66.4019 6.73713 66.4019 6.83999 66.4019 6.94285C66.4547 7.4057 66.5604 7.81713 66.7189 8.22856C66.8774 8.58856 67.0887 8.94856 67.4056 9.2057C67.6697 9.46285 68.0395 9.66856 68.4093 9.82285C68.8319 9.9257 69.2545 10.0286 69.7828 10.0286ZM69.7828 8.8457C69.4658 8.8457 69.1489 8.79427 68.9375 8.69142C68.6734 8.58856 68.4621 8.43427 68.3036 8.27999C68.1452 8.1257 67.9867 7.91999 67.881 7.66285C67.7754 7.4057 67.7226 7.14856 67.6697 6.89142C67.6697 6.73713 67.6169 6.53142 67.6169 6.3257C67.6169 6.11999 67.6169 5.91427 67.6697 5.75999C67.7226 5.50285 67.7754 5.2457 67.881 4.98856C67.9867 4.73142 68.0923 4.5257 68.3036 4.37142C68.4621 4.21713 68.6734 4.06285 68.9375 3.95999C69.2017 3.85713 69.4658 3.8057 69.7828 3.8057C70.0997 3.8057 70.4167 3.85713 70.628 3.95999C70.8921 4.06285 71.1034 4.21713 71.2619 4.37142C71.4203 4.5257 71.5788 4.73142 71.6845 4.98856C71.7901 5.2457 71.843 5.50285 71.8958 5.75999C71.8958 5.91427 71.9486 6.11999 71.9486 6.3257C71.9486 6.53142 71.9486 6.73713 71.8958 6.89142C71.843 7.14856 71.7901 7.4057 71.6845 7.66285C71.5788 7.91999 71.4732 8.1257 71.2619 8.27999C71.0506 8.43427 70.8921 8.58856 70.628 8.69142C70.4167 8.79427 70.0997 8.8457 69.7828 8.8457ZM75.2766 9.87428C75.3823 9.87428 75.4879 9.82285 75.5407 9.77142C75.5936 9.71999 75.6464 9.61713 75.6464 9.51427V5.45142C75.6464 4.37142 76.1747 3.85713 77.284 3.85713H78.1292C78.2348 3.85713 78.3405 3.8057 78.3933 3.75427C78.4461 3.70285 78.499 3.59999 78.499 3.49713V3.03427C78.499 2.93142 78.4461 2.82856 78.3933 2.77713C78.3405 2.7257 78.2348 2.67427 78.1292 2.67427H77.3896C76.967 2.67427 76.5973 2.7257 76.3331 2.87999C76.069 3.03427 75.8577 3.18856 75.6464 3.49713V3.03427C75.6464 2.93142 75.5936 2.82856 75.5407 2.77713C75.4879 2.7257 75.3823 2.67427 75.2766 2.67427H74.7484C74.6427 2.67427 74.5371 2.7257 74.4842 2.77713C74.4314 2.82856 74.3786 2.93142 74.3786 3.03427V9.51427C74.3786 9.61713 74.4314 9.71999 74.4842 9.77142C74.5371 9.82285 74.6427 9.87428 74.7484 9.87428H75.2766ZM81.9326 10.0286C82.4609 10.0286 82.8835 9.97713 83.2533 9.87428C83.6231 9.77142 83.94 9.61713 84.2041 9.46285C84.4683 9.30856 84.6267 9.10285 84.7852 8.89713C84.9437 8.69142 84.9965 8.53713 85.0493 8.33142C85.0493 8.22856 85.0493 8.1257 84.9437 8.07428C84.838 8.02285 84.7852 7.97142 84.6796 7.97142H84.257C84.1513 7.97142 84.0457 7.97142 83.9928 8.02285C83.94 8.07428 83.8872 8.1257 83.7815 8.17713C83.6231 8.33142 83.4117 8.53713 83.1476 8.63999C82.8835 8.74285 82.5137 8.8457 81.9855 8.8457C81.4044 8.8457 80.9818 8.69142 80.5592 8.33142C80.1894 7.97142 79.9781 7.50856 79.9781 6.89142V6.78856H84.8909C84.9965 6.78856 85.1022 6.73713 85.155 6.6857C85.2078 6.63428 85.2606 6.53142 85.2606 6.42856V6.06856C85.2606 5.55428 85.2078 5.03999 85.0493 4.62856C84.8909 4.21713 84.6796 3.8057 84.4154 3.49713C84.1513 3.18856 83.7815 2.98285 83.3589 2.77713C82.9363 2.62285 82.5137 2.51999 81.9855 2.51999C81.51 2.51999 81.0874 2.62285 80.7176 2.77713C80.3479 2.93142 79.9781 3.13713 79.714 3.4457C79.4498 3.70285 79.2385 4.06285 79.0272 4.42285C78.8688 4.78285 78.7631 5.19427 78.7103 5.6057C78.6574 6.01713 78.6574 6.47999 78.7103 6.89142C78.7631 7.35427 78.8688 7.7657 79.0272 8.1257C79.1857 8.4857 79.4498 8.8457 79.714 9.10285C79.9781 9.35999 80.3479 9.61713 80.7176 9.77142C81.0346 9.9257 81.4572 10.0286 81.9326 10.0286ZM83.94 5.6057H79.9253V5.55428C79.9253 5.29713 79.9781 5.03999 80.0837 4.78285C80.1894 4.57713 80.3479 4.37142 80.5063 4.21713C80.6648 4.06285 80.8761 3.90856 81.1403 3.85713C81.3516 3.75427 81.6157 3.70285 81.9326 3.70285C82.5665 3.70285 83.042 3.85713 83.4117 4.21713C83.7815 4.57713 83.94 5.03999 83.94 5.6057Z" fill="#565F77"/>
<path d="M30.6386 17.4343L29.2651 13.2686H29.8462L30.5329 15.3257C30.6914 15.8914 30.8499 16.4057 31.0084 16.8686C31.114 16.4057 31.3253 15.84 31.4838 15.3257L32.2234 13.2686H32.7516L31.2197 17.4343H30.6386Z" fill="#565F77"/>
<path d="M33.7553 13.2686V17.4343H33.2271V13.2686H33.7553V13.2686Z" fill="#565F77"/>
<path d="M34.6534 16.7658C34.9175 16.9201 35.2873 17.0229 35.6571 17.0229C36.2382 17.0229 36.5551 16.7143 36.5551 16.3029C36.5551 15.8915 36.3438 15.6858 35.7627 15.4801C35.076 15.2229 34.6534 14.8629 34.6534 14.2972C34.6534 13.6286 35.1817 13.1658 36.0269 13.1658C36.4495 13.1658 36.7664 13.2686 36.9777 13.3715L36.8193 13.8343C36.6608 13.7829 36.3967 13.6286 36.0269 13.6286C35.4458 13.6286 35.2345 13.9886 35.2345 14.2458C35.2345 14.6572 35.4986 14.8115 36.0797 15.0686C36.8193 15.3258 37.189 15.6858 37.189 16.3029C37.189 16.9201 36.7136 17.4858 35.7099 17.4858C35.2873 17.4858 34.8647 17.3829 34.6006 17.2286L34.6534 16.7658Z" fill="#565F77"/>
<path d="M38.5624 16.1486L38.1398 17.4343H37.5059L38.9321 13.2686H39.6189L41.098 17.4343H40.5169L40.0415 16.1486H38.5624ZM39.9358 15.7371L39.5132 14.5543C39.4076 14.2971 39.3548 14.04 39.3019 13.7828C39.2491 14.04 39.1435 14.2971 39.0906 14.5543L38.668 15.7371H39.9358Z" fill="#565F77"/>
<path d="M42.5771 17.6916L44.3204 13.2173H44.743L42.9469 17.6916H42.5771Z" fill="#565F77"/>
<path d="M50.1841 15.6343C50.1313 15.0686 50.1313 14.3486 50.1313 13.8343C49.9728 14.2971 49.8143 14.8628 49.603 15.4286L48.8635 17.4343H48.4409L47.7013 15.4286C47.49 14.8628 47.3315 14.2971 47.2259 13.8343C47.2259 14.3486 47.1731 15.0686 47.1202 15.6857L47.0146 17.4343H46.4863L46.8033 13.2686H47.49L48.2296 15.2743C48.388 15.7886 48.5465 16.2514 48.6522 16.6628C48.7578 16.2514 48.9163 15.7886 49.1276 15.2743L49.8672 13.2686H50.5539L50.818 17.4343H50.2898L50.1841 15.6343Z" fill="#565F77"/>
<path d="M52.2971 16.1486L51.8745 17.4343H51.2935L52.7197 13.2686H53.4065L54.8856 17.4343H54.3045L53.8291 16.1486H52.2971ZM53.7234 15.7371L53.3008 14.5543C53.1952 14.2971 53.1424 14.04 53.0895 13.7828C53.0367 14.04 52.931 14.2971 52.8782 14.5543L52.4556 15.7371H53.7234Z" fill="#565F77"/>
<path d="M55.4137 16.7658C55.6778 16.9201 56.0476 17.0229 56.4174 17.0229C56.9984 17.0229 57.3154 16.7143 57.3154 16.3029C57.3154 15.8915 57.1041 15.6858 56.523 15.4801C55.8363 15.2229 55.4137 14.8629 55.4137 14.2972C55.4137 13.6286 55.9419 13.1658 56.7871 13.1658C57.2097 13.1658 57.5267 13.2686 57.738 13.3715L57.5795 13.8343C57.421 13.7829 57.1569 13.6286 56.7871 13.6286C56.206 13.6286 55.9947 13.9886 55.9947 14.2458C55.9947 14.6572 56.2589 14.8115 56.84 15.0686C57.5795 15.3258 57.9493 15.6858 57.9493 16.3029C57.9493 16.9201 57.4739 17.4858 56.4702 17.4858C56.0476 17.4858 55.625 17.3829 55.3608 17.2286L55.4137 16.7658Z" fill="#565F77"/>
<path d="M59.4285 13.7314H58.1079V13.2686H61.2774V13.7314H59.9568V17.4343H59.3757V13.7314H59.4285Z" fill="#565F77"/>
<path d="M63.9715 15.48H62.3339V16.9714H64.1828V17.4343H61.8057V13.2686H64.13V13.7314H62.3339V15.0686H63.9715V15.48Z" fill="#565F77"/>
<path d="M64.9224 13.3201C65.1865 13.2687 65.6091 13.2173 65.9789 13.2173C66.56 13.2173 66.9297 13.3201 67.1939 13.5773C67.4052 13.783 67.5108 14.0401 67.5108 14.3487C67.5108 14.9144 67.141 15.2744 66.7184 15.4287C67.0354 15.5316 67.2467 15.8401 67.3523 16.2516C67.5108 16.8173 67.6165 17.2287 67.6693 17.383H67.0882C67.0354 17.2801 66.9297 16.9201 66.8241 16.4059C66.7184 15.8401 66.4543 15.6344 65.9789 15.583H65.4506V17.383H64.9224V13.3201ZM65.4506 15.223H66.0317C66.6128 15.223 66.9826 14.9144 66.9826 14.4516C66.9826 13.9373 66.56 13.6801 65.9789 13.6801C65.7147 13.6801 65.5034 13.6801 65.4506 13.7316V15.223V15.223Z" fill="#565F77"/>
<path d="M71.3142 17.3314C71.1029 17.4343 70.6802 17.5371 70.2048 17.5371C68.9898 17.5371 68.0918 16.8171 68.0918 15.4286C68.0918 14.1428 68.9898 13.2686 70.3105 13.2686C70.8387 13.2686 71.1557 13.3714 71.3142 13.4743L71.1557 13.9371C70.9444 13.8343 70.6274 13.7828 70.3105 13.7828C69.3068 13.7828 68.6201 14.4 68.6201 15.48C68.6201 16.5086 69.2011 17.1771 70.2576 17.1771C70.5746 17.1771 70.9444 17.1257 71.1557 17.0228L71.3142 17.3314Z" fill="#565F77"/>
<path d="M72.7405 16.1486L72.3179 17.4343H71.7368L73.1631 13.2686H73.8498L75.329 17.4343H74.7479L74.2724 16.1486H72.7405ZM74.114 15.7371L73.6914 14.5543C73.5857 14.2971 73.5329 14.04 73.4801 13.7828C73.4272 14.04 73.3216 14.2971 73.2688 14.5543L72.8461 15.7371H74.114Z" fill="#565F77"/>
<path d="M75.9102 13.3201C76.1743 13.2687 76.5969 13.2173 76.9667 13.2173C77.5477 13.2173 77.9175 13.3201 78.1817 13.5773C78.393 13.783 78.4986 14.0401 78.4986 14.3487C78.4986 14.9144 78.1288 15.2744 77.7062 15.4287C78.0232 15.5316 78.2345 15.8401 78.3401 16.2516C78.4986 16.8173 78.6043 17.2287 78.6571 17.383H78.076C78.0232 17.2801 77.9175 16.9201 77.8119 16.4059C77.7062 15.8401 77.4421 15.6344 76.9667 15.583H76.4384V17.383H75.9102V13.3201ZM76.4384 15.223H77.0195C77.6006 15.223 77.9704 14.9144 77.9704 14.4516C77.9704 13.9373 77.5477 13.6801 76.9667 13.6801C76.7025 13.6801 76.4912 13.6801 76.4384 13.7316V15.223Z" fill="#565F77"/>
<path d="M79.3438 13.3201C79.6608 13.2687 80.0834 13.2173 80.506 13.2173C81.2984 13.2173 81.8795 13.3716 82.2492 13.7316C82.619 14.0916 82.8303 14.5544 82.8303 15.223C82.8303 15.8916 82.619 16.4573 82.1964 16.8173C81.7738 17.2287 81.1399 17.4344 80.2947 17.4344C79.9249 17.4344 79.5551 17.4344 79.291 17.383V13.3201H79.3438ZM79.8721 17.023C80.0306 17.023 80.189 17.0744 80.4532 17.0744C81.6153 17.0744 82.2492 16.4573 82.2492 15.3259C82.2492 14.3487 81.6682 13.7316 80.506 13.7316C80.2419 13.7316 80.0306 13.7316 79.8721 13.783V17.023Z" fill="#565F77"/>
</g>
<defs>
<clipPath id="clip0_2885_473">
<rect width="86" height="18" fill="white"/>
</clipPath>
</defs>
</svg>
