<svg width="92" height="21" viewBox="0 0 92 21" fill="none" xmlns="http://www.w3.org/2000/svg">
<g opacity="0.1">
<path fill-rule="evenodd" clip-rule="evenodd" d="M5.30112 0.170898H21.2045C23.5985 0.170898 25.7076 1.76693 26.3346 4.10398C25.4796 5.13001 23.5985 5.58602 22.2875 5.75702C21.8315 4.788 20.8625 4.16099 19.7794 4.16099H6.72615C5.18711 4.16099 3.99009 5.35801 3.99009 6.89705V13.3382C3.99009 14.8772 5.24411 16.0742 6.72615 16.0742H21.2045C24.9095 16.0742 25.8216 14.9342 26.5056 13.7372V14.7632C26.5056 17.6703 24.1115 20.0643 21.2045 20.0643H5.30112C2.39405 20.0643 0 17.6703 0 14.7632V5.52902C0 4.10398 0.570012 2.73595 1.53903 1.76693C2.56506 0.740911 3.87608 0.170898 5.30112 0.170898Z" fill="white"/>
<path fill-rule="evenodd" clip-rule="evenodd" d="M9.23415 7.4672H21.6604C23.7695 7.4672 25.6505 6.15618 26.3345 4.16113C27.3035 5.30116 27.8166 6.78319 27.7025 8.26522C27.7025 9.91826 26.8475 11.4573 25.4225 12.3693C24.6815 12.8823 23.8265 13.1103 22.9714 13.1103H9.23415C8.77814 13.1103 8.37913 12.9393 8.03712 12.5973C7.69512 12.2553 7.52411 11.8563 7.58111 11.4003V9.06324C7.58111 8.60723 7.75212 8.20822 8.09413 7.86621C8.37913 7.63821 8.77814 7.4672 9.23415 7.4672ZM11.1152 9.17724H10.0892C9.63316 9.17724 9.23415 9.57625 9.23415 10.0323V10.7163C9.23415 11.1723 9.63316 11.5713 10.0892 11.5713H11.1152C11.5712 11.5713 11.9702 11.1723 11.9702 10.7163V10.0323C11.9132 9.51925 11.5712 9.17724 11.1152 9.17724Z" fill="white"/>
<path d="M33.0607 11.2862C33.6307 11.2862 34.0867 11.2292 34.4857 11.1152C34.8848 11.0012 35.2268 10.8302 35.5118 10.6592C35.7968 10.4882 35.9678 10.2602 36.1388 10.0322C36.3098 9.80421 36.3668 9.63321 36.4238 9.4052C36.4238 9.2912 36.4238 9.1772 36.3098 9.1202C36.1958 9.0632 36.1388 9.0062 36.0248 9.0062H35.5688C35.4548 9.0062 35.3408 9.0062 35.2838 9.0632C35.2268 9.1202 35.1698 9.1772 35.0558 9.2342C34.8848 9.4052 34.6567 9.63321 34.3717 9.74721C34.0867 9.86121 33.6307 9.97522 33.0607 9.97522C32.4337 9.97522 31.9777 9.80421 31.5217 9.4052C31.1227 9.0062 30.8947 8.49318 30.8947 7.80917V7.69517H36.1958C36.3098 7.69517 36.4238 7.63817 36.4808 7.58116C36.5378 7.52416 36.5948 7.41016 36.5948 7.29616V6.89715C36.5948 6.32714 36.5378 5.75713 36.3668 5.30112C36.1958 4.84511 35.9678 4.3891 35.6828 4.04709C35.3978 3.70508 34.9988 3.47708 34.5427 3.24907C34.1437 3.07807 33.6307 2.96406 33.0607 2.96406C32.5477 2.96406 32.0917 3.07807 31.6927 3.24907C31.2937 3.42007 30.8947 3.64808 30.6097 3.99009C30.3247 4.27509 30.0967 4.6741 29.8686 5.07311C29.6976 5.47212 29.5836 5.92813 29.5266 6.38414C29.4696 6.84015 29.4696 7.35316 29.5266 7.80917C29.5836 8.32218 29.6976 8.77819 29.8686 9.1772C30.0397 9.57621 30.3247 9.97522 30.6097 10.2602C30.8947 10.5452 31.2937 10.8302 31.6927 11.0012C32.0917 11.1722 32.5477 11.2862 33.0607 11.2862ZM35.2838 6.38414H30.9517V6.32714C30.9517 6.04213 31.0087 5.75713 31.1227 5.47212C31.2367 5.24411 31.4077 5.01611 31.5787 4.84511C31.7497 4.6741 31.9777 4.5031 32.2627 4.4461C32.4907 4.33209 32.7757 4.27509 33.0607 4.27509C33.7447 4.27509 34.2577 4.4461 34.6567 4.84511C35.0558 5.24411 35.2838 5.75713 35.2838 6.38414ZM39.1028 11.1152C39.2168 11.1152 39.3309 11.0582 39.3879 11.0012C39.4449 10.9442 39.5019 10.8302 39.5019 10.7162V6.95415H42.3519C42.8649 6.95415 43.3209 6.89715 43.777 6.72615C44.233 6.61214 44.632 6.38414 44.974 6.09913C45.316 5.81413 45.601 5.47212 45.772 5.07311C45.943 4.6741 46.057 4.16109 46.057 3.59108C46.057 3.02107 45.943 2.56506 45.772 2.10905C45.544 1.71004 45.316 1.36803 44.974 1.08302C44.632 0.798017 44.233 0.627014 43.777 0.513011C43.3209 0.399009 42.8649 0.342007 42.3519 0.342007H38.4758C38.3618 0.342007 38.2478 0.399009 38.1908 0.45601C38.1338 0.513011 38.0768 0.627014 38.0768 0.741016V10.6592C38.0768 10.7732 38.1338 10.8872 38.1908 10.9442C38.2478 11.0012 38.3618 11.0582 38.4758 11.0582H39.1028V11.1152ZM42.2379 5.52912H39.5019V1.76704H42.2379C42.9789 1.76704 43.5489 1.93804 43.948 2.22305C44.347 2.50805 44.575 3.02107 44.575 3.64808C44.575 4.27509 44.347 4.7881 43.948 5.13011C43.5489 5.41512 42.9789 5.52912 42.2379 5.52912ZM49.0211 11.2862C49.2491 11.2862 49.5341 11.2862 49.7621 11.2292C50.0471 11.1722 50.2751 11.1152 50.5601 11.0012C50.7881 10.8872 51.0161 10.7732 51.2441 10.6022C51.4151 10.4312 51.5861 10.2602 51.7001 10.0892V10.7162C51.7001 10.8302 51.7571 10.9442 51.8141 11.0012C51.8711 11.0582 51.9851 11.1152 52.0991 11.1152H52.6691C52.7831 11.1152 52.8971 11.0582 52.9541 11.0012C53.0111 10.9442 53.0681 10.8302 53.0681 10.7162V6.04213C53.0681 5.52912 53.0111 5.13011 52.8401 4.7311C52.6691 4.33209 52.4411 3.99009 52.1561 3.76208C51.8711 3.53408 51.5291 3.30607 51.1301 3.19207C50.7311 3.07807 50.3321 2.96406 49.8191 2.96406C49.4201 2.96406 49.0211 3.02107 48.6791 3.13507C48.337 3.24907 47.995 3.42007 47.767 3.59108C47.482 3.76208 47.254 3.99009 47.14 4.21809C46.969 4.4461 46.912 4.6741 46.855 4.90211C46.855 5.01611 46.855 5.13011 46.969 5.18711C47.083 5.30112 47.197 5.35812 47.311 5.35812H47.767C47.881 5.35812 47.995 5.35812 48.052 5.30112C48.109 5.24411 48.166 5.18711 48.28 5.13011C48.451 4.90211 48.6221 4.7311 48.8501 4.5601C49.0781 4.3891 49.4201 4.33209 49.8761 4.33209C50.3891 4.33209 50.8451 4.4461 51.1871 4.7311C51.5291 5.01611 51.7001 5.35812 51.7001 5.92813V6.15613L49.4771 6.44114C49.0211 6.49814 48.6221 6.61214 48.28 6.72615C47.881 6.84015 47.539 7.01115 47.254 7.23916C46.969 7.46716 46.741 7.69517 46.57 8.03717C46.399 8.32218 46.342 8.72119 46.342 9.1202C46.342 9.4052 46.399 9.69021 46.513 9.97522C46.627 10.2602 46.798 10.4882 47.026 10.6592C47.254 10.8302 47.539 11.0012 47.881 11.1152C48.28 11.2292 48.6221 11.2862 49.0211 11.2862ZM49.1921 9.97522C48.9071 9.97522 48.6791 9.91822 48.5081 9.86121C48.337 9.80421 48.166 9.69021 48.052 9.63321C47.938 9.51921 47.881 9.4052 47.824 9.2912C47.767 9.1772 47.767 9.0632 47.767 8.94919C47.767 8.60719 47.938 8.32218 48.337 8.09418C48.7361 7.86617 49.2491 7.69517 49.8761 7.58116L51.7001 7.29616V7.69517C51.7001 8.03717 51.6431 8.32218 51.5291 8.60719C51.4151 8.89219 51.2441 9.1202 51.0161 9.3482C50.7881 9.57621 50.5031 9.69021 50.2181 9.80421C49.8761 9.91821 49.5341 9.97522 49.1921 9.97522ZM56.3742 14.0223C56.4882 14.0223 56.6022 13.9653 56.6592 13.9083C56.7162 13.8513 56.7732 13.7373 56.8302 13.6803L61.4473 3.59108C61.4473 3.53408 61.4473 3.53408 61.4473 3.47708C61.4473 3.36307 61.3903 3.30607 61.3333 3.19207C61.2763 3.07807 61.1623 3.07807 61.0483 3.07807H60.4213C60.3073 3.07807 60.1933 3.13507 60.1363 3.19207C60.0793 3.24907 60.0223 3.36307 59.9653 3.42007L57.5712 8.66419L55.1772 3.42007C55.1202 3.36307 55.1202 3.24907 55.0062 3.19207C54.8922 3.13507 54.8352 3.07807 54.7212 3.07807H54.1512C54.0372 3.07807 53.9802 3.13507 53.8662 3.19207C53.8092 3.24907 53.7522 3.36307 53.7522 3.47708C53.7522 3.53408 53.7522 3.53408 53.7522 3.59108L56.7732 10.3742L55.2912 13.5663C55.2912 13.6233 55.2912 13.6233 55.2912 13.6803C55.2912 13.7943 55.3482 13.8513 55.4052 13.9653C55.4622 14.0223 55.5762 14.0793 55.6902 14.0793H56.3742V14.0223ZM66.5204 11.2862C67.2615 11.2862 67.9455 11.1722 68.4585 10.9442C68.9715 10.7162 69.4275 10.4312 69.7695 10.0322C70.1115 9.69021 70.3395 9.2912 70.5105 8.89219C70.6815 8.49318 70.7385 8.15118 70.7955 7.80917C70.7955 7.69517 70.7385 7.63817 70.6815 7.58116C70.6245 7.52416 70.5105 7.46716 70.4535 7.46716H69.7695C69.7125 7.46716 69.5985 7.46716 69.5415 7.52416C69.4845 7.58116 69.4275 7.63817 69.3705 7.75217C69.3135 7.98017 69.1995 8.26518 69.0855 8.49318C68.9715 8.72119 68.8005 8.94919 68.5725 9.1772C68.3445 9.3482 68.0595 9.51921 67.7175 9.63321C67.3755 9.74721 66.9765 9.80421 66.4634 9.80421C65.5514 9.80421 64.8674 9.51921 64.3544 9.0062C63.8414 8.49318 63.6134 7.80917 63.5564 6.95415C63.5564 6.49814 63.4994 6.04213 63.4994 5.64312C63.4994 5.24411 63.4994 4.7881 63.5564 4.33209C63.6134 3.47708 63.8414 2.79306 64.3544 2.28005C64.8674 1.76704 65.5514 1.48203 66.4634 1.48203C66.9765 1.48203 67.3755 1.53903 67.7175 1.65304C68.0595 1.76704 68.3445 1.93804 68.5725 2.10905C68.8005 2.28005 68.9715 2.50805 69.0855 2.79306C69.1995 3.02107 69.3135 3.30607 69.3705 3.53408C69.3705 3.64808 69.4275 3.70508 69.5415 3.76208C69.5985 3.81908 69.7125 3.81908 69.7695 3.81908H70.4535C70.5675 3.81908 70.6245 3.76208 70.6815 3.70508C70.7385 3.64808 70.7955 3.53408 70.7955 3.47708C70.7955 3.13507 70.6815 2.79306 70.5105 2.39405C70.3395 1.99504 70.1115 1.59603 69.7695 1.25403C69.4275 0.91202 68.9715 0.627014 68.4585 0.342007C67.9455 0.0570013 67.2615 0 66.5204 0C65.8364 0 65.2664 0.114002 64.7534 0.342007C64.2404 0.570012 63.7844 0.855019 63.3854 1.19703C62.9864 1.53903 62.7014 1.99504 62.5304 2.50805C62.3023 3.02107 62.1883 3.59108 62.1883 4.16109C62.1313 5.07311 62.1313 5.98513 62.1883 6.89715C62.1883 7.52416 62.3023 8.03717 62.5304 8.55019C62.7584 9.0632 63.0434 9.51921 63.3854 9.86121C63.7844 10.2032 64.1834 10.5452 64.7534 10.7162C65.2664 11.1722 65.8364 11.2862 66.5204 11.2862ZM75.2986 11.2862C75.8686 11.2862 76.3247 11.2292 76.7807 11.0582C77.2367 10.8872 77.5787 10.6592 77.8637 10.3742C78.1487 10.0892 78.4337 9.69021 78.6047 9.2912C78.7757 8.89219 78.8897 8.37918 78.9467 7.86617C78.9467 7.80917 78.9467 7.69517 78.9467 7.52416V6.72615C78.9467 6.61214 78.9467 6.49814 78.9467 6.38414C78.8897 5.87113 78.7757 5.41512 78.6047 5.01611C78.4337 4.6171 78.2057 4.21809 77.8637 3.93309C77.5787 3.64808 77.1797 3.42007 76.7807 3.24907C76.3247 3.07807 75.8686 3.02107 75.2986 3.02107C74.7286 3.02107 74.2726 3.07807 73.8166 3.24907C73.3606 3.42007 73.0186 3.64808 72.7336 3.93309C72.4486 4.21809 72.1636 4.6171 71.9926 5.01611C71.8216 5.41512 71.7076 5.92813 71.6506 6.38414C71.6506 6.49814 71.6506 6.61214 71.6506 6.72615C71.6506 6.84015 71.6506 7.01115 71.6506 7.12515C71.6506 7.23916 71.6506 7.41016 71.6506 7.52416C71.6506 7.63817 71.6506 7.75217 71.6506 7.86617C71.7076 8.37918 71.8216 8.83519 71.9926 9.2912C72.1636 9.69021 72.3916 10.0892 72.7336 10.3742C73.0186 10.6592 73.4176 10.8872 73.8166 11.0582C74.2726 11.1722 74.7286 11.2862 75.2986 11.2862ZM75.2986 9.97522C74.9566 9.97522 74.6146 9.91821 74.3866 9.80421C74.1016 9.69021 73.8736 9.51921 73.7026 9.3482C73.5316 9.1772 73.3606 8.94919 73.2466 8.66419C73.1326 8.37918 73.0756 8.09418 73.0186 7.80917C73.0186 7.63817 72.9616 7.41016 72.9616 7.18216C72.9616 6.95415 72.9616 6.72615 73.0186 6.55514C73.0756 6.27014 73.1326 5.98513 73.2466 5.70012C73.3606 5.41512 73.4746 5.18711 73.7026 5.01611C73.8736 4.84511 74.1016 4.6741 74.3866 4.5601C74.6716 4.4461 74.9566 4.3891 75.2986 4.3891C75.6406 4.3891 75.9826 4.4461 76.2107 4.5601C76.4957 4.6741 76.7237 4.84511 76.8947 5.01611C77.0657 5.18711 77.2367 5.41512 77.3507 5.70012C77.4647 5.98513 77.5217 6.27014 77.5787 6.55514C77.5787 6.72615 77.6357 6.95415 77.6357 7.18216C77.6357 7.41016 77.6357 7.63817 77.5787 7.80917C77.5217 8.09418 77.4647 8.37918 77.3507 8.66419C77.2367 8.94919 77.1227 9.1772 76.8947 9.3482C76.6667 9.51921 76.4957 9.69021 76.2107 9.80421C75.9826 9.91821 75.6406 9.97522 75.2986 9.97522ZM81.2268 11.1152C81.3408 11.1152 81.4548 11.0582 81.5118 11.0012C81.5688 10.9442 81.6258 10.8302 81.6258 10.7162V6.21314C81.6258 5.01611 82.1958 4.4461 83.3928 4.4461H84.3048C84.4188 4.4461 84.5328 4.3891 84.5898 4.33209C84.6468 4.27509 84.7038 4.16109 84.7038 4.04709V3.53408C84.7038 3.42007 84.6468 3.30607 84.5898 3.24907C84.5328 3.19207 84.4188 3.13507 84.3048 3.13507H83.5068C83.0508 3.13507 82.6518 3.19207 82.3668 3.36307C82.0818 3.53408 81.8538 3.70508 81.6258 4.04709V3.53408C81.6258 3.42007 81.5688 3.30607 81.5118 3.24907C81.4548 3.19207 81.3408 3.13507 81.2268 3.13507H80.6567C80.5427 3.13507 80.4287 3.19207 80.3717 3.24907C80.3147 3.30607 80.2577 3.42007 80.2577 3.53408V10.7162C80.2577 10.8302 80.3147 10.9442 80.3717 11.0012C80.4287 11.0582 80.5427 11.1152 80.6567 11.1152H81.2268ZM88.4089 11.2862C88.9789 11.2862 89.4349 11.2292 89.834 11.1152C90.233 11.0012 90.575 10.8302 90.86 10.6592C91.145 10.4882 91.316 10.2602 91.487 10.0322C91.658 9.80421 91.715 9.63321 91.772 9.4052C91.772 9.2912 91.772 9.1772 91.658 9.1202C91.544 9.0632 91.487 9.0062 91.373 9.0062H90.917C90.803 9.0062 90.689 9.0062 90.632 9.0632C90.575 9.1202 90.518 9.1772 90.404 9.2342C90.233 9.4052 90.0049 9.63321 89.7199 9.74721C89.4349 9.86121 89.0359 9.97522 88.4659 9.97522C87.8389 9.97522 87.3829 9.80421 86.9269 9.4052C86.5279 9.0062 86.2999 8.49318 86.2999 7.80917V7.69517H91.601C91.715 7.69517 91.829 7.63817 91.886 7.58116C91.943 7.52416 92 7.41016 92 7.29616V6.89715C92 6.32714 91.943 5.75713 91.772 5.30112C91.601 4.84511 91.373 4.3891 91.088 4.04709C90.803 3.70508 90.404 3.47708 89.948 3.24907C89.4919 3.07807 89.0359 2.96406 88.4659 2.96406C87.9529 2.96406 87.4969 3.07807 87.0979 3.24907C86.6989 3.42007 86.2999 3.64808 86.0149 3.99009C85.7299 4.27509 85.5019 4.6741 85.2739 5.07311C85.1029 5.47212 84.9888 5.92813 84.9318 6.38414C84.8748 6.84015 84.8748 7.35316 84.9318 7.80917C84.9888 8.32218 85.1029 8.77819 85.2739 9.1772C85.4449 9.57621 85.7299 9.97522 86.0149 10.2602C86.2999 10.5452 86.6989 10.8302 87.0979 11.0012C87.4399 11.1722 87.8959 11.2862 88.4089 11.2862ZM90.575 6.38414H86.2429V6.32714C86.2429 6.04213 86.2999 5.75713 86.4139 5.47212C86.5279 5.24411 86.6989 5.01611 86.8699 4.84511C87.0409 4.6741 87.2689 4.5031 87.5539 4.4461C87.7819 4.33209 88.0669 4.27509 88.4089 4.27509C89.0929 4.27509 89.6059 4.4461 90.0049 4.84511C90.404 5.24411 90.575 5.75713 90.575 6.38414Z" fill="white"/>
<path d="M33.0606 19.4945L31.5786 14.8774H32.2056L32.9466 17.1575C33.1176 17.7845 33.2887 18.3545 33.4597 18.8675C33.5737 18.3545 33.8017 17.7275 33.9727 17.1575L34.7707 14.8774H35.3407L33.6877 19.4945H33.0606Z" fill="white"/>
<path d="M36.4235 14.8774V19.4945H35.8535V14.8774H36.4235V14.8774Z" fill="white"/>
<path d="M37.3929 18.7533C37.6779 18.9243 38.077 19.0383 38.476 19.0383C39.103 19.0383 39.445 18.6963 39.445 18.2403C39.445 17.7842 39.217 17.5562 38.59 17.3282C37.8489 17.0432 37.3929 16.6442 37.3929 16.0172C37.3929 15.2762 37.9629 14.7632 38.875 14.7632C39.331 14.7632 39.673 14.8772 39.901 14.9912L39.73 15.5042C39.559 15.4472 39.274 15.2762 38.875 15.2762C38.248 15.2762 38.02 15.6752 38.02 15.9602C38.02 16.4162 38.305 16.5872 38.932 16.8722C39.73 17.1572 40.129 17.5562 40.129 18.2403C40.129 18.9243 39.616 19.5513 38.533 19.5513C38.077 19.5513 37.6209 19.4373 37.3359 19.2663L37.3929 18.7533Z" fill="white"/>
<path d="M41.6107 18.0695L41.1547 19.4945H40.4707L42.0097 14.8774H42.7508L44.3468 19.4945H43.7198L43.2068 18.0695H41.6107ZM43.0928 17.6135L42.6368 16.3025C42.5227 16.0175 42.4657 15.7325 42.4087 15.4475C42.3517 15.7325 42.2377 16.0175 42.1807 16.3025L41.7247 17.6135H43.0928Z" fill="white"/>
<path d="M45.9429 19.7794L47.8239 14.8203H48.2799L46.3419 19.7794H45.9429Z" fill="white"/>
<path d="M54.1512 17.4995C54.0942 16.8725 54.0942 16.0745 54.0942 15.5045C53.9232 16.0175 53.7522 16.6445 53.5242 17.2715L52.7262 19.4945H52.2702L51.4722 17.2715C51.2442 16.6445 51.0732 16.0175 50.9592 15.5045C50.9592 16.0745 50.9021 16.8725 50.8451 17.5565L50.7311 19.4945H50.1611L50.5031 14.8774H51.2442L52.0422 17.1005C52.2132 17.6705 52.3842 18.1835 52.4982 18.6395C52.6122 18.1835 52.7832 17.6705 53.0112 17.1005L53.8092 14.8774H54.5502L54.8352 19.4945H54.2652L54.1512 17.4995Z" fill="white"/>
<path d="M56.4312 18.0695L55.9752 19.4945H55.3481L56.8872 14.8774H57.6282L59.2242 19.4945H58.5972L58.0842 18.0695H56.4312ZM57.9702 17.6135L57.5142 16.3025C57.4002 16.0175 57.3432 15.7325 57.2862 15.4475C57.2292 15.7325 57.1152 16.0175 57.0582 16.3025L56.6022 17.6135H57.9702Z" fill="white"/>
<path d="M59.7943 18.7533C60.0793 18.9243 60.4783 19.0383 60.8773 19.0383C61.5043 19.0383 61.8463 18.6963 61.8463 18.2403C61.8463 17.7842 61.6183 17.5562 60.9913 17.3282C60.2503 17.0432 59.7943 16.6442 59.7943 16.0172C59.7943 15.2762 60.3643 14.7632 61.2763 14.7632C61.7323 14.7632 62.0744 14.8772 62.3024 14.9912L62.1314 15.5042C61.9604 15.4472 61.6753 15.2762 61.2763 15.2762C60.6493 15.2762 60.4213 15.6752 60.4213 15.9602C60.4213 16.4162 60.7063 16.5872 61.3333 16.8722C62.1314 17.1572 62.5304 17.5562 62.5304 18.2403C62.5304 18.9243 62.0174 19.5513 60.9343 19.5513C60.4783 19.5513 60.0223 19.4373 59.7373 19.2663L59.7943 18.7533Z" fill="white"/>
<path d="M64.1262 15.3905H62.7012V14.8774H66.1212V15.3905H64.6962V19.4945H64.0692V15.3905H64.1262Z" fill="white"/>
<path d="M69.0285 17.3285H67.2614V18.9815H69.2565V19.4945H66.6914V14.8774H69.1995V15.3905H67.2614V16.8725H69.0285V17.3285Z" fill="white"/>
<path d="M70.0547 14.9343C70.3397 14.8773 70.7957 14.8203 71.1947 14.8203C71.8217 14.8203 72.2207 14.9343 72.5057 15.2193C72.7337 15.4473 72.8477 15.7323 72.8477 16.0743C72.8477 16.7014 72.4487 17.1004 71.9927 17.2714C72.3347 17.3854 72.5627 17.7274 72.6767 18.1834C72.8477 18.8104 72.9618 19.2664 73.0188 19.4374H72.3917C72.3347 19.3234 72.2207 18.9244 72.1067 18.3544C71.9927 17.7274 71.7077 17.4994 71.1947 17.4424H70.6247V19.4374H70.0547V14.9343ZM70.6247 17.0434H71.2517C71.8787 17.0434 72.2777 16.7014 72.2777 16.1883C72.2777 15.6183 71.8217 15.3333 71.1947 15.3333C70.9097 15.3333 70.6817 15.3333 70.6247 15.3903V17.0434V17.0434Z" fill="white"/>
<path d="M76.9517 19.3805C76.7237 19.4945 76.2677 19.6085 75.7547 19.6085C74.4436 19.6085 73.4746 18.8105 73.4746 17.2715C73.4746 15.8465 74.4436 14.8774 75.8687 14.8774C76.4387 14.8774 76.7807 14.9914 76.9517 15.1054L76.7807 15.6185C76.5527 15.5045 76.2107 15.4475 75.8687 15.4475C74.7856 15.4475 74.0446 16.1315 74.0446 17.3285C74.0446 18.4685 74.6716 19.2095 75.8117 19.2095C76.1537 19.2095 76.5527 19.1525 76.7807 19.0385L76.9517 19.3805Z" fill="white"/>
<path d="M78.4907 18.0695L78.0347 19.4945H77.4077L78.9467 14.8774H79.6878L81.2838 19.4945H80.6568L80.1438 18.0695H78.4907ZM79.9728 17.6135L79.5168 16.3025C79.4028 16.0175 79.3458 15.7325 79.2888 15.4475C79.2318 15.7325 79.1177 16.0175 79.0607 16.3025L78.6047 17.6135H79.9728Z" fill="white"/>
<path d="M81.9106 14.9343C82.1957 14.8773 82.6517 14.8203 83.0507 14.8203C83.6777 14.8203 84.0767 14.9343 84.3617 15.2193C84.5897 15.4473 84.7037 15.7323 84.7037 16.0743C84.7037 16.7014 84.3047 17.1004 83.8487 17.2714C84.1907 17.3854 84.4187 17.7274 84.5327 18.1834C84.7037 18.8104 84.8177 19.2664 84.8747 19.4374H84.2477C84.1907 19.3234 84.0767 18.9244 83.9627 18.3544C83.8487 17.7274 83.5637 17.4994 83.0507 17.4424H82.4807V19.4374H81.9106V14.9343ZM82.4807 17.0434H83.1077C83.7347 17.0434 84.1337 16.7014 84.1337 16.1883C84.1337 15.6183 83.6777 15.3333 83.0507 15.3333C82.7657 15.3333 82.5377 15.3333 82.4807 15.3903V17.0434Z" fill="white"/>
<path d="M85.6161 14.9343C85.9581 14.8773 86.4141 14.8203 86.8701 14.8203C87.7251 14.8203 88.3521 14.9913 88.7511 15.3903C89.1502 15.7893 89.3782 16.3023 89.3782 17.0434C89.3782 17.7844 89.1502 18.4114 88.6942 18.8104C88.2381 19.2664 87.5541 19.4944 86.6421 19.4944C86.2431 19.4944 85.8441 19.4944 85.5591 19.4374V14.9343H85.6161ZM86.1861 19.0384C86.3571 19.0384 86.5281 19.0954 86.8131 19.0954C88.0671 19.0954 88.7511 18.4114 88.7511 17.1574C88.7511 16.0743 88.1241 15.3903 86.8701 15.3903C86.5851 15.3903 86.3571 15.3903 86.1861 15.4473V19.0384Z" fill="white"/>
</g>
</svg>
