<svg width="94" height="22" viewBox="0 0 94 22" fill="none" xmlns="http://www.w3.org/2000/svg">
<g opacity="0.55">
<path d="M23.04 11.0346C23.04 11.2124 22.8961 11.3572 22.7239 11.3572H16.636C16.7879 12.9117 17.9199 14.3301 19.5121 14.3301C20.5999 14.3301 21.4081 13.9001 22.0161 13.003C22.1041 12.8788 22.2361 12.8004 22.404 12.8749C22.496 12.9162 22.56 13.003 22.5759 13.1023C22.5918 13.2056 22.5641 13.2636 22.536 13.3213C21.924 14.4252 20.7041 14.9668 19.5079 14.9668C17.4598 14.9668 16 13.0733 16 11.0472C16 9.02114 17.4598 7.1273 19.5079 7.1273C21.556 7.12344 23.0359 9.01276 23.04 11.0346ZM22.3881 10.7288C22.256 9.17433 21.1042 7.75598 19.5121 7.75598C17.9201 7.75598 16.7879 9.17404 16.636 10.7288H22.3881ZM30.4279 7.28049C30.6039 7.28049 30.7319 7.43764 30.7319 7.59468C30.7319 7.77661 30.5999 7.90888 30.4279 7.90888H28.7958V14.5285C28.7958 14.6855 28.6638 14.8427 28.4918 14.8427C28.3158 14.8427 28.1879 14.6855 28.1879 14.5285V7.90888H26.6197C26.4437 7.90888 26.3158 7.77246 26.3158 7.59468C26.3158 7.43764 26.4478 7.28049 26.6197 7.28049H28.1879V4.85765C28.1879 4.70475 28.2877 4.56409 28.4319 4.53931C28.636 4.50605 28.7958 4.65086 28.7958 4.84927V7.28049H30.4279ZM40.3839 10.4805V14.491C40.3839 14.673 40.232 14.8052 40.08 14.8052C39.904 14.8052 39.776 14.6687 39.776 14.491V10.4805C39.776 9.12854 39.0361 7.77632 37.576 7.77632C35.7038 7.77632 34.8959 9.46722 35.0038 11.1998C35.0038 11.2453 35.0238 11.4478 35.0238 11.4685V14.4784C35.0238 14.6313 34.9239 14.772 34.7798 14.7968C34.5757 14.83 34.4159 14.6852 34.4159 14.4868V1.31419C34.4159 1.1571 34.5479 1 34.7199 1C34.8959 1 35.0238 1.1571 35.0238 1.31419V8.76884C35.5477 7.80148 36.4837 7.14793 37.5719 7.14793C39.36 7.14793 40.3839 8.76884 40.3839 10.4805ZM51.3002 11.0346C51.3002 11.2124 51.1563 11.3572 50.9841 11.3572H44.8921C45.0441 12.9117 46.1759 14.3301 47.7681 14.3301C48.856 14.3301 49.6643 13.9001 50.2722 13.003C50.3602 12.8788 50.4922 12.8004 50.6601 12.8749C50.7522 12.9162 50.8162 13.003 50.832 13.1023C50.848 13.2056 50.8202 13.2636 50.7921 13.3213C50.1802 14.4252 48.9602 14.9668 47.764 14.9668C45.7159 14.9668 44.2561 13.0733 44.2561 11.0472C44.2561 9.02114 45.7159 7.12759 47.764 7.12759C49.816 7.12344 51.2961 9.01276 51.3002 11.0346ZM50.6442 10.7288C50.5122 9.17433 49.3603 7.75598 47.7681 7.75598C46.1762 7.75598 45.0441 9.17404 44.8921 10.7288H50.6442ZM58.772 7.57405C58.772 7.77661 58.6641 7.88825 58.4881 7.91312C56.7002 8.18181 55.896 9.69108 55.896 11.4481V14.4581C55.896 14.611 55.7962 14.7517 55.652 14.7765C55.4479 14.8097 55.2882 14.6649 55.2882 14.4665V7.60693C55.2882 7.45403 55.388 7.31346 55.5321 7.28859C55.7362 7.25533 55.896 7.40023 55.896 7.59854V8.99598C56.3959 8.11953 57.3999 7.28406 58.4441 7.28406C58.596 7.28049 58.772 7.39599 58.772 7.57405ZM68.7721 11.0346C68.7721 11.2124 68.6282 11.3572 68.4559 11.3572H62.368C62.5201 12.9117 63.6519 14.3301 65.2441 14.3301C66.332 14.3301 67.1402 13.9001 67.7482 13.003C67.8361 12.8788 67.9682 12.8004 68.1361 12.8749C68.2281 12.9162 68.2921 13.003 68.308 13.1023C68.3239 13.2056 68.2961 13.2636 68.2681 13.3213C67.6561 14.4252 66.4363 14.9668 65.2401 14.9668C63.1919 14.9668 61.732 13.0733 61.732 11.0472C61.732 9.02114 63.1919 7.12759 65.2401 7.12759C67.2882 7.12344 68.768 9.01276 68.7721 11.0346ZM68.1201 10.7288C67.9882 9.17433 66.8363 7.75598 65.2441 7.75598C63.6523 7.75598 62.5201 9.17404 62.368 10.7288H68.1201ZM78.6001 7.65243V14.5285C78.6001 14.7104 78.4481 14.8427 78.2962 14.8427C78.1202 14.8427 77.9922 14.7061 77.9922 14.5285V13.222C77.4923 14.2597 76.5963 15 75.4641 15C73.6559 15 72.652 13.3791 72.652 11.6676V7.63595C72.652 7.4789 72.7841 7.32185 72.956 7.32185C73.132 7.32185 73.2599 7.4789 73.2599 7.63595V11.6672C73.2599 13.0191 73.9998 14.3713 75.46 14.3713C77.5081 14.3713 77.9881 12.3907 77.9881 10.2037V7.63595C77.9881 7.45402 78.1641 7.26796 78.3801 7.33409C78.5121 7.3795 78.6001 7.51177 78.6001 7.65243ZM94 10.4559V14.4871C94 14.669 93.848 14.8013 93.6959 14.8013C93.5206 14.8013 93.3919 14.6649 93.3919 14.4871V10.4559C93.3919 9.10405 92.6523 7.77661 91.1926 7.77661C89.3599 7.77661 88.6641 9.80272 88.6641 11.3778V14.4871C88.6641 14.669 88.512 14.8013 88.36 14.8013C88.1837 14.8013 88.056 14.6649 88.056 14.4871V10.4559C88.056 9.10405 87.3163 7.77661 85.8557 7.77661C84.0043 7.77661 83.24 9.28559 83.3076 11.2911C83.3076 11.3366 83.3281 11.4275 83.3076 11.4481V14.4787C83.3076 14.6316 83.2081 14.7723 83.0599 14.7972C82.8558 14.8303 82.6961 14.6855 82.6961 14.4871V7.60693C82.6961 7.45403 82.7958 7.31346 82.94 7.28859C83.1441 7.25533 83.3039 7.40023 83.3039 7.59854V8.74792C83.8281 7.78046 84.7636 7.14793 85.852 7.14793C87.0915 7.14793 88.0522 7.95824 88.444 9.15341C88.9439 7.9834 89.9241 7.14793 91.1879 7.14793C92.9759 7.14793 94 8.74407 94 10.4559Z" fill="#565F77"/>
<g opacity="0.6">
<g opacity="0.6">
<path opacity="0.6" d="M6.66747 8.03027L0 11.0626L6.66747 15.0018L13.3322 11.0626L6.66747 8.03027Z" fill="#565F77"/>
</g>
</g>
<g opacity="0.45">
<g opacity="0.45">
<path opacity="0.45" d="M0 11.0626L6.66747 15.0017V0L0 11.0626Z" fill="#565F77"/>
</g>
</g>
<g opacity="0.8">
<g opacity="0.8">
<path opacity="0.8" d="M6.66748 0V15.0017L13.3323 11.0626L6.66748 0Z" fill="#565F77"/>
</g>
</g>
<g opacity="0.45">
<g opacity="0.45">
<path opacity="0.45" d="M0 12.3254L6.66747 21.7185V16.2644L0 12.3254Z" fill="#565F77"/>
</g>
</g>
<g opacity="0.8">
<g opacity="0.8">
<path opacity="0.8" d="M6.66748 16.2646V21.7185L13.3376 12.3254L6.66748 16.2646Z" fill="#565F77"/>
</g>
</g>
</g>
</svg>
