<svg width="115" height="25" viewBox="0 0 115 25" fill="none" xmlns="http://www.w3.org/2000/svg">
<g opacity="0.2">
<path d="M29.4841 12.4681C29.4841 12.6713 29.3107 12.8368 29.1031 12.8368H21.7665C21.9496 14.6134 23.3137 16.2344 25.2325 16.2344C26.5435 16.2344 27.5175 15.7429 28.2501 14.7177C28.3562 14.5758 28.5153 14.4862 28.7176 14.5713C28.8285 14.6185 28.9056 14.7177 28.9249 14.8312C28.944 14.9492 28.9106 15.0155 28.8767 15.0815C28.1392 16.3431 26.6691 16.9621 25.2275 16.9621C22.7593 16.9621 21 14.798 21 12.4825C21 10.167 22.7593 8.00263 25.2275 8.00263C27.6957 7.99822 29.4792 10.1574 29.4841 12.4681ZM28.6985 12.1187C28.5393 10.3421 27.1513 8.72112 25.2325 8.72112C23.314 8.72112 21.9496 10.3418 21.7665 12.1187H28.6985ZM38.3875 8.1777C38.5996 8.1777 38.7538 8.3573 38.7538 8.53678C38.7538 8.74469 38.5947 8.89586 38.3875 8.89586H36.4206V16.4611C36.4206 16.6406 36.2615 16.8202 36.0543 16.8202C35.8421 16.8202 35.6879 16.6406 35.6879 16.4611V8.89586H33.7981C33.586 8.89586 33.4318 8.73996 33.4318 8.53678C33.4318 8.3573 33.591 8.1777 33.7981 8.1777H35.6879V5.40875C35.6879 5.234 35.8083 5.07325 35.9821 5.04493C36.228 5.00692 36.4206 5.17241 36.4206 5.39916V8.1777H38.3875ZM50.3858 11.8348V16.4182C50.3858 16.6263 50.2027 16.7773 50.0194 16.7773C49.8073 16.7773 49.6531 16.6214 49.6531 16.4182V11.8348C49.6531 10.2898 48.7614 8.74436 47.0018 8.74436C44.7456 8.74436 43.772 10.6768 43.902 12.6569C43.902 12.7089 43.9262 12.9404 43.9262 12.964V16.4039C43.9262 16.5787 43.8058 16.7394 43.632 16.7677C43.3861 16.8058 43.1935 16.6403 43.1935 16.4135V1.35908C43.1935 1.17954 43.3526 1 43.5598 1C43.7719 1 43.9262 1.17954 43.9262 1.35908V9.87868C44.5575 8.77312 45.6855 8.0262 46.9969 8.0262C49.1518 8.0262 50.3858 9.87868 50.3858 11.8348ZM63.5412 12.4681C63.5412 12.6713 63.3679 12.8368 63.1603 12.8368H55.8187C56.0019 14.6134 57.3659 16.2344 59.2847 16.2344C60.5957 16.2344 61.5698 15.7429 62.3024 14.7177C62.4084 14.5758 62.5675 14.4862 62.7699 14.5713C62.8809 14.6185 62.958 14.7177 62.9771 14.8312C62.9963 14.9492 62.9628 15.0155 62.929 15.0815C62.1915 16.3431 60.7213 16.9621 59.2797 16.9621C56.8115 16.9621 55.0522 14.798 55.0522 12.4825C55.0522 10.167 56.8115 8.00296 59.2797 8.00296C61.7526 7.99822 63.5364 10.1574 63.5412 12.4681ZM62.7507 12.1187C62.5916 10.3421 61.2035 8.72112 59.2847 8.72112C57.3662 8.72112 56.0019 10.3418 55.8187 12.1187H62.7507ZM72.5458 8.5132C72.5458 8.74469 72.4157 8.87228 72.2036 8.90071C70.049 9.20778 69.0798 10.9327 69.0798 12.9407V16.3807C69.0798 16.5554 68.9595 16.7162 68.7857 16.7446C68.5398 16.7825 68.3473 16.617 68.3473 16.3903V8.55078C68.3473 8.37603 68.4675 8.21538 68.6413 8.18696C68.8872 8.14895 69.0798 8.31455 69.0798 8.54119V10.1383C69.6823 9.13661 70.8921 8.18178 72.1506 8.18178C72.3337 8.1777 72.5458 8.3097 72.5458 8.5132ZM84.5971 12.4681C84.5971 12.6713 84.4237 12.8368 84.2161 12.8368H76.8794C77.0626 14.6134 78.4266 16.2344 80.3454 16.2344C81.6565 16.2344 82.6306 15.7429 83.3632 14.7177C83.4692 14.5758 83.6283 14.4862 83.8307 14.5713C83.9416 14.6185 84.0187 14.7177 84.0378 14.8312C84.057 14.9492 84.0235 15.0155 83.9897 15.0815C83.2522 16.3431 81.7822 16.9621 80.3406 16.9621C77.8723 16.9621 76.113 14.798 76.113 12.4825C76.113 10.167 77.8723 8.00296 80.3406 8.00296C82.8088 7.99822 84.5922 10.1574 84.5971 12.4681ZM83.8114 12.1187C83.6524 10.3421 82.2642 8.72112 80.3454 8.72112C78.4271 8.72112 77.0626 10.3418 76.8794 12.1187H83.8114ZM96.4412 8.60278V16.4611C96.4412 16.669 96.258 16.8202 96.0749 16.8202C95.8628 16.8202 95.7086 16.6642 95.7086 16.4611V14.968C95.1061 16.1539 94.0263 17 92.6618 17C90.4828 17 89.2729 15.1475 89.2729 13.1915V8.58394C89.2729 8.40446 89.4321 8.22497 89.6392 8.22497C89.8513 8.22497 90.0056 8.40446 90.0056 8.58394V13.191C90.0056 14.7361 90.8972 16.2815 92.657 16.2815C95.1252 16.2815 95.7036 14.018 95.7036 11.5185V8.58394C95.7036 8.37603 95.9157 8.16338 96.176 8.23896C96.3351 8.29086 96.4412 8.44203 96.4412 8.60278ZM115 11.8067V16.4138C115 16.6217 114.817 16.7729 114.634 16.7729C114.422 16.7729 114.267 16.617 114.267 16.4138V11.8067C114.267 10.2618 113.376 8.74469 111.617 8.74469C109.408 8.74469 108.57 11.0603 108.57 12.8604V16.4138C108.57 16.6217 108.386 16.7729 108.203 16.7729C107.991 16.7729 107.837 16.617 107.837 16.4138V11.8067C107.837 10.2618 106.945 8.74469 105.185 8.74469C102.954 8.74469 102.033 10.4692 102.114 12.7612C102.114 12.8132 102.139 12.9171 102.114 12.9407V16.4043C102.114 16.579 101.994 16.7398 101.816 16.7682C101.57 16.8061 101.377 16.6406 101.377 16.4138V8.55078C101.377 8.37603 101.498 8.21538 101.671 8.18696C101.917 8.14895 102.11 8.31455 102.11 8.54119V9.85477C102.742 8.7491 103.869 8.0262 105.181 8.0262C106.674 8.0262 107.832 8.95227 108.304 10.3182C108.907 8.98103 110.088 8.0262 111.611 8.0262C113.766 8.0262 115 9.85036 115 11.8067Z" fill="white"/>
<g opacity="0.6">
<g opacity="0.6">
<path opacity="0.6" d="M7.57667 9.12549L0 12.5713L7.57667 17.0476L15.1503 12.5713L7.57667 9.12549Z" fill="white"/>
</g>
</g>
<g opacity="0.45">
<g opacity="0.45">
<path opacity="0.45" d="M0 12.5711L7.57667 17.0474V0L0 12.5711Z" fill="white"/>
</g>
</g>
<g opacity="0.8">
<g opacity="0.8">
<path opacity="0.8" d="M7.57617 0V17.0474L15.1498 12.5711L7.57617 0Z" fill="white"/>
</g>
</g>
<g opacity="0.45">
<g opacity="0.45">
<path opacity="0.45" d="M0 14.0063L7.57667 24.6803V18.4825L0 14.0063Z" fill="white"/>
</g>
</g>
<g opacity="0.8">
<g opacity="0.8">
<path opacity="0.8" d="M7.57617 18.4827V24.6803L15.1558 14.0063L7.57617 18.4827Z" fill="white"/>
</g>
</g>
</g>
</svg>
