<svg width="17" height="17" viewBox="0 0 17 17" fill="none" xmlns="http://www.w3.org/2000/svg">
<circle cx="0.451626" cy="4.96793" r="0.451626" transform="rotate(-90 0.451626 4.96793)" fill="#C2CDD5"/>
<circle cx="0.451626" cy="11.7424" r="0.451626" transform="rotate(-90 0.451626 11.7424)" fill="#C2CDD5"/>
<circle cx="0.451626" cy="0.451755" r="0.451626" transform="rotate(-90 0.451626 0.451755)" fill="#C2CDD5"/>
<circle cx="0.451626" cy="7.22599" r="0.451626" transform="rotate(-90 0.451626 7.22599)" fill="#C2CDD5"/>
<circle cx="0.451626" cy="14.0005" r="0.451626" transform="rotate(-90 0.451626 14.0005)" fill="#C2CDD5"/>
<circle cx="0.451626" cy="2.71036" r="0.451626" transform="rotate(-90 0.451626 2.71036)" fill="#C2CDD5"/>
<circle cx="0.451626" cy="9.48435" r="0.451626" transform="rotate(-90 0.451626 9.48435)" fill="#C2CDD5"/>
<circle cx="0.451626" cy="16.2586" r="0.451626" transform="rotate(-90 0.451626 16.2586)" fill="#C2CDD5"/>
<circle cx="2.70944" cy="4.96793" r="0.451626" transform="rotate(-90 2.70944 4.96793)" fill="#C2CDD5"/>
<circle cx="2.70944" cy="11.7424" r="0.451626" transform="rotate(-90 2.70944 11.7424)" fill="#C2CDD5"/>
<circle cx="2.70944" cy="0.451755" r="0.451626" transform="rotate(-90 2.70944 0.451755)" fill="#C2CDD5"/>
<circle cx="2.70944" cy="7.22599" r="0.451626" transform="rotate(-90 2.70944 7.22599)" fill="#C2CDD5"/>
<circle cx="2.70944" cy="14.0005" r="0.451626" transform="rotate(-90 2.70944 14.0005)" fill="#C2CDD5"/>
<circle cx="2.70944" cy="2.71036" r="0.451626" transform="rotate(-90 2.70944 2.71036)" fill="#C2CDD5"/>
<circle cx="2.70944" cy="9.48435" r="0.451626" transform="rotate(-90 2.70944 9.48435)" fill="#C2CDD5"/>
<circle cx="2.70944" cy="16.2586" r="0.451626" transform="rotate(-90 2.70944 16.2586)" fill="#C2CDD5"/>
<circle cx="9.77298" cy="2.7648" r="0.451626" transform="rotate(180 9.77298 2.7648)" fill="#C2CDD5"/>
<circle cx="16.5484" cy="2.76487" r="0.451626" transform="rotate(180 16.5484 2.76487)" fill="#C2CDD5"/>
<circle cx="5.25736" cy="2.7648" r="0.451626" transform="rotate(180 5.25736 2.7648)" fill="#C2CDD5"/>
<circle cx="12.0308" cy="2.7648" r="0.451626" transform="rotate(180 12.0308 2.7648)" fill="#C2CDD5"/>
<circle cx="7.51517" cy="2.7648" r="0.451626" transform="rotate(180 7.51517 2.7648)" fill="#C2CDD5"/>
<circle cx="14.2886" cy="2.7648" r="0.451626" transform="rotate(180 14.2886 2.7648)" fill="#C2CDD5"/>
<circle cx="9.77298" cy="0.506748" r="0.451626" transform="rotate(180 9.77298 0.506748)" fill="#C2CDD5"/>
<circle cx="16.5484" cy="0.506748" r="0.451626" transform="rotate(180 16.5484 0.506748)" fill="#C2CDD5"/>
<circle cx="5.25736" cy="0.506748" r="0.451626" transform="rotate(180 5.25736 0.506748)" fill="#C2CDD5"/>
<circle cx="12.0308" cy="0.506748" r="0.451626" transform="rotate(180 12.0308 0.506748)" fill="#C2CDD5"/>
<circle cx="7.51517" cy="0.506748" r="0.451626" transform="rotate(180 7.51517 0.506748)" fill="#C2CDD5"/>
<circle cx="14.2886" cy="0.506748" r="0.451626" transform="rotate(180 14.2886 0.506748)" fill="#C2CDD5"/>
</svg>
