<svg width="40" height="40" viewBox="0 0 40 40" fill="none" xmlns="http://www.w3.org/2000/svg">
<mask id="mask0_2828_220812" style="mask-type:alpha" maskUnits="userSpaceOnUse" x="0" y="0" width="40" height="40">
<circle cx="19.7987" cy="20.2011" r="15.2989" transform="rotate(90 19.7987 20.2011)" stroke="white" stroke-width="9"/>
</mask>
<g mask="url(#mask0_2828_220812)">
<g opacity="0.3">
<circle cx="39.2553" cy="32.8775" r="0.522005" transform="rotate(90 39.2553 32.8775)" fill="#4B6C87"/>
<circle cx="39.2553" cy="25.0479" r="0.522005" transform="rotate(90 39.2553 25.0479)" fill="#4B6C87"/>
<circle cx="39.2553" cy="17.2181" r="0.522005" transform="rotate(90 39.2553 17.2181)" fill="#4B6C87"/>
<circle cx="39.2553" cy="30.2676" r="0.522005" transform="rotate(90 39.2553 30.2676)" fill="#4B6C87"/>
<circle cx="39.2553" cy="22.4369" r="0.522005" transform="rotate(90 39.2553 22.4369)" fill="#4B6C87"/>
<circle cx="39.2553" cy="14.6079" r="0.522005" transform="rotate(90 39.2553 14.6079)" fill="#4B6C87"/>
<circle cx="39.2553" cy="27.6574" r="0.522005" transform="rotate(90 39.2553 27.6574)" fill="#4B6C87"/>
<circle cx="39.2553" cy="19.8277" r="0.522005" transform="rotate(90 39.2553 19.8277)" fill="#4B6C87"/>
<circle cx="39.2553" cy="11.9977" r="0.522005" transform="rotate(90 39.2553 11.9977)" fill="#4B6C87"/>
<circle cx="36.644" cy="32.8773" r="0.522005" transform="rotate(90 36.644 32.8773)" fill="#4B6C87"/>
<circle cx="36.646" cy="25.0479" r="0.522005" transform="rotate(90 36.646 25.0479)" fill="#4B6C87"/>
<circle cx="36.646" cy="17.2179" r="0.522005" transform="rotate(90 36.646 17.2179)" fill="#4B6C87"/>
<circle cx="36.646" cy="30.2681" r="0.522005" transform="rotate(90 36.646 30.2681)" fill="#4B6C87"/>
<circle cx="36.646" cy="22.4377" r="0.522005" transform="rotate(90 36.646 22.4377)" fill="#4B6C87"/>
<circle cx="36.646" cy="14.6077" r="0.522005" transform="rotate(90 36.646 14.6077)" fill="#4B6C87"/>
<circle cx="36.646" cy="27.6579" r="0.522005" transform="rotate(90 36.646 27.6579)" fill="#4B6C87"/>
<circle cx="36.646" cy="19.8279" r="0.522005" transform="rotate(90 36.646 19.8279)" fill="#4B6C87"/>
<circle cx="36.646" cy="11.9977" r="0.522005" transform="rotate(90 36.646 11.9977)" fill="#4B6C87"/>
<circle cx="39.2553" cy="38.0983" r="0.522005" transform="rotate(90 39.2553 38.0983)" fill="#4B6C87"/>
<circle cx="39.2553" cy="35.4883" r="0.522005" transform="rotate(90 39.2553 35.4883)" fill="#4B6C87"/>
<circle cx="36.646" cy="38.0983" r="0.522005" transform="rotate(90 36.646 38.0983)" fill="#4B6C87"/>
<circle cx="36.646" cy="35.488" r="0.522005" transform="rotate(90 36.646 35.488)" fill="#4B6C87"/>
</g>
<g opacity="0.3">
<circle cx="23.5952" cy="32.8775" r="0.522005" transform="rotate(90 23.5952 32.8775)" fill="#4B6C87"/>
<circle cx="23.5952" cy="25.0469" r="0.522005" transform="rotate(90 23.5952 25.0469)" fill="#4B6C87"/>
<circle cx="23.5952" cy="17.2179" r="0.522005" transform="rotate(90 23.5952 17.2179)" fill="#4B6C87"/>
<circle cx="23.5952" cy="30.2673" r="0.522005" transform="rotate(90 23.5952 30.2673)" fill="#4B6C87"/>
<circle cx="23.5952" cy="22.4367" r="0.522005" transform="rotate(90 23.5952 22.4367)" fill="#4B6C87"/>
<circle cx="23.5952" cy="14.6077" r="0.522005" transform="rotate(90 23.5952 14.6077)" fill="#4B6C87"/>
<circle cx="23.5952" cy="27.657" r="0.522005" transform="rotate(90 23.5952 27.657)" fill="#4B6C87"/>
<circle cx="23.5952" cy="19.8276" r="0.522005" transform="rotate(90 23.5952 19.8276)" fill="#4B6C87"/>
<circle cx="23.5952" cy="11.9977" r="0.522005" transform="rotate(90 23.5952 11.9977)" fill="#4B6C87"/>
<circle cx="20.9839" cy="32.8775" r="0.522005" transform="rotate(90 20.9839 32.8775)" fill="#4B6C87"/>
<circle cx="20.9839" cy="25.0472" r="0.522005" transform="rotate(90 20.9839 25.0472)" fill="#4B6C87"/>
<circle cx="20.9858" cy="17.2179" r="0.522005" transform="rotate(90 20.9858 17.2179)" fill="#4B6C87"/>
<circle cx="20.9839" cy="30.2673" r="0.522005" transform="rotate(90 20.9839 30.2673)" fill="#4B6C87"/>
<circle cx="20.9858" cy="22.4375" r="0.522005" transform="rotate(90 20.9858 22.4375)" fill="#4B6C87"/>
<circle cx="20.9839" cy="14.6073" r="0.522005" transform="rotate(90 20.9839 14.6073)" fill="#4B6C87"/>
<circle cx="20.9839" cy="27.657" r="0.522005" transform="rotate(90 20.9839 27.657)" fill="#4B6C87"/>
<circle cx="20.9839" cy="19.8276" r="0.522005" transform="rotate(90 20.9839 19.8276)" fill="#4B6C87"/>
<circle cx="20.9839" cy="11.9977" r="0.522005" transform="rotate(90 20.9839 11.9977)" fill="#4B6C87"/>
<circle cx="23.5952" cy="38.0977" r="0.522005" transform="rotate(90 23.5952 38.0977)" fill="#4B6C87"/>
<circle cx="23.5952" cy="35.4876" r="0.522005" transform="rotate(90 23.5952 35.4876)" fill="#4B6C87"/>
<circle cx="20.9839" cy="38.0967" r="0.522005" transform="rotate(90 20.9839 38.0967)" fill="#4B6C87"/>
<circle cx="20.9839" cy="35.4876" r="0.522005" transform="rotate(90 20.9839 35.4876)" fill="#4B6C87"/>
</g>
<g opacity="0.3">
<circle cx="34.0346" cy="32.8775" r="0.522005" transform="rotate(90 34.0346 32.8775)" fill="#4B6C87"/>
<circle cx="34.0346" cy="25.0481" r="0.522005" transform="rotate(90 34.0346 25.0481)" fill="#4B6C87"/>
<circle cx="34.0346" cy="17.2182" r="0.522005" transform="rotate(90 34.0346 17.2182)" fill="#4B6C87"/>
<circle cx="34.0346" cy="30.2675" r="0.522005" transform="rotate(90 34.0346 30.2675)" fill="#4B6C87"/>
<circle cx="34.0346" cy="22.438" r="0.522005" transform="rotate(90 34.0346 22.438)" fill="#4B6C87"/>
<circle cx="34.0346" cy="14.608" r="0.522005" transform="rotate(90 34.0346 14.608)" fill="#4B6C87"/>
<circle cx="34.0346" cy="27.6583" r="0.522005" transform="rotate(90 34.0346 27.6583)" fill="#4B6C87"/>
<circle cx="34.0346" cy="19.8278" r="0.522005" transform="rotate(90 34.0346 19.8278)" fill="#4B6C87"/>
<circle cx="34.0346" cy="11.9978" r="0.522005" transform="rotate(90 34.0346 11.9978)" fill="#4B6C87"/>
<circle cx="31.4233" cy="32.8774" r="0.522005" transform="rotate(90 31.4233 32.8774)" fill="#4B6C87"/>
<circle cx="31.4253" cy="25.0479" r="0.522005" transform="rotate(90 31.4253 25.0479)" fill="#4B6C87"/>
<circle cx="31.4253" cy="17.2179" r="0.522005" transform="rotate(90 31.4253 17.2179)" fill="#4B6C87"/>
<circle cx="31.4253" cy="30.2681" r="0.522005" transform="rotate(90 31.4253 30.2681)" fill="#4B6C87"/>
<circle cx="31.4253" cy="22.4379" r="0.522005" transform="rotate(90 31.4253 22.4379)" fill="#4B6C87"/>
<circle cx="31.4253" cy="14.6077" r="0.522005" transform="rotate(90 31.4253 14.6077)" fill="#4B6C87"/>
<circle cx="31.4253" cy="27.6581" r="0.522005" transform="rotate(90 31.4253 27.6581)" fill="#4B6C87"/>
<circle cx="31.4253" cy="19.828" r="0.522005" transform="rotate(90 31.4253 19.828)" fill="#4B6C87"/>
<circle cx="31.4253" cy="11.9978" r="0.522005" transform="rotate(90 31.4253 11.9978)" fill="#4B6C87"/>
<circle cx="34.0346" cy="38.0982" r="0.522005" transform="rotate(90 34.0346 38.0982)" fill="#4B6C87"/>
<circle cx="34.0346" cy="35.4881" r="0.522005" transform="rotate(90 34.0346 35.4881)" fill="#4B6C87"/>
<circle cx="31.4253" cy="38.098" r="0.522005" transform="rotate(90 31.4253 38.098)" fill="#4B6C87"/>
<circle cx="31.4253" cy="35.488" r="0.522005" transform="rotate(90 31.4253 35.488)" fill="#4B6C87"/>
</g>
<g opacity="0.3">
<circle cx="18.3745" cy="32.8783" r="0.522005" transform="rotate(90 18.3745 32.8783)" fill="#4B6C87"/>
<circle cx="18.3745" cy="25.0483" r="0.522005" transform="rotate(90 18.3745 25.0483)" fill="#4B6C87"/>
<circle cx="18.3745" cy="17.2181" r="0.522005" transform="rotate(90 18.3745 17.2181)" fill="#4B6C87"/>
<circle cx="18.3745" cy="30.2686" r="0.522005" transform="rotate(90 18.3745 30.2686)" fill="#4B6C87"/>
<circle cx="18.3745" cy="22.4377" r="0.522005" transform="rotate(90 18.3745 22.4377)" fill="#4B6C87"/>
<circle cx="18.3745" cy="14.6086" r="0.522005" transform="rotate(90 18.3745 14.6086)" fill="#4B6C87"/>
<circle cx="18.3745" cy="27.658" r="0.522005" transform="rotate(90 18.3745 27.658)" fill="#4B6C87"/>
<circle cx="18.3745" cy="19.8282" r="0.522005" transform="rotate(90 18.3745 19.8282)" fill="#4B6C87"/>
<circle cx="18.3745" cy="11.9986" r="0.522005" transform="rotate(90 18.3745 11.9986)" fill="#4B6C87"/>
<circle cx="15.7632" cy="32.8783" r="0.522005" transform="rotate(90 15.7632 32.8783)" fill="#4B6C87"/>
<circle cx="15.7632" cy="25.0479" r="0.522005" transform="rotate(90 15.7632 25.0479)" fill="#4B6C87"/>
<circle cx="15.7651" cy="17.2188" r="0.522005" transform="rotate(90 15.7651 17.2188)" fill="#4B6C87"/>
<circle cx="15.7632" cy="30.2683" r="0.522005" transform="rotate(90 15.7632 30.2683)" fill="#4B6C87"/>
<circle cx="15.7632" cy="22.4377" r="0.522005" transform="rotate(90 15.7632 22.4377)" fill="#4B6C87"/>
<circle cx="15.7651" cy="14.6086" r="0.522005" transform="rotate(90 15.7651 14.6086)" fill="#4B6C87"/>
<circle cx="15.7632" cy="27.658" r="0.522005" transform="rotate(90 15.7632 27.658)" fill="#4B6C87"/>
<circle cx="15.7632" cy="19.8282" r="0.522005" transform="rotate(90 15.7632 19.8282)" fill="#4B6C87"/>
<circle cx="15.7651" cy="11.9984" r="0.522005" transform="rotate(90 15.7651 11.9984)" fill="#4B6C87"/>
<circle cx="18.3745" cy="38.0985" r="0.522005" transform="rotate(90 18.3745 38.0985)" fill="#4B6C87"/>
<circle cx="18.3745" cy="35.4885" r="0.522005" transform="rotate(90 18.3745 35.4885)" fill="#4B6C87"/>
<circle cx="15.7632" cy="38.0981" r="0.522005" transform="rotate(90 15.7632 38.0981)" fill="#4B6C87"/>
<circle cx="15.7651" cy="35.4884" r="0.522005" transform="rotate(90 15.7651 35.4884)" fill="#4B6C87"/>
</g>
<g opacity="0.3">
<circle cx="28.8159" cy="32.8783" r="0.522005" transform="rotate(90 28.8159 32.8783)" fill="#4B6C87"/>
<circle cx="28.8159" cy="25.0483" r="0.522005" transform="rotate(90 28.8159 25.0483)" fill="#4B6C87"/>
<circle cx="28.8159" cy="17.2181" r="0.522005" transform="rotate(90 28.8159 17.2181)" fill="#4B6C87"/>
<circle cx="28.8159" cy="30.2686" r="0.522005" transform="rotate(90 28.8159 30.2686)" fill="#4B6C87"/>
<circle cx="28.8159" cy="22.4377" r="0.522005" transform="rotate(90 28.8159 22.4377)" fill="#4B6C87"/>
<circle cx="28.8159" cy="14.6086" r="0.522005" transform="rotate(90 28.8159 14.6086)" fill="#4B6C87"/>
<circle cx="28.8159" cy="27.658" r="0.522005" transform="rotate(90 28.8159 27.658)" fill="#4B6C87"/>
<circle cx="28.8159" cy="19.8282" r="0.522005" transform="rotate(90 28.8159 19.8282)" fill="#4B6C87"/>
<circle cx="28.8159" cy="11.9986" r="0.522005" transform="rotate(90 28.8159 11.9986)" fill="#4B6C87"/>
<circle cx="26.2046" cy="32.8783" r="0.522005" transform="rotate(90 26.2046 32.8783)" fill="#4B6C87"/>
<circle cx="26.2046" cy="25.0479" r="0.522005" transform="rotate(90 26.2046 25.0479)" fill="#4B6C87"/>
<circle cx="26.2065" cy="17.2188" r="0.522005" transform="rotate(90 26.2065 17.2188)" fill="#4B6C87"/>
<circle cx="26.2046" cy="30.2683" r="0.522005" transform="rotate(90 26.2046 30.2683)" fill="#4B6C87"/>
<circle cx="26.2046" cy="22.4377" r="0.522005" transform="rotate(90 26.2046 22.4377)" fill="#4B6C87"/>
<circle cx="26.2065" cy="14.6086" r="0.522005" transform="rotate(90 26.2065 14.6086)" fill="#4B6C87"/>
<circle cx="26.2046" cy="27.658" r="0.522005" transform="rotate(90 26.2046 27.658)" fill="#4B6C87"/>
<circle cx="26.2046" cy="19.8282" r="0.522005" transform="rotate(90 26.2046 19.8282)" fill="#4B6C87"/>
<circle cx="26.2065" cy="11.9984" r="0.522005" transform="rotate(90 26.2065 11.9984)" fill="#4B6C87"/>
<circle cx="28.8159" cy="38.0988" r="0.522005" transform="rotate(90 28.8159 38.0988)" fill="#4B6C87"/>
<circle cx="28.8159" cy="35.4888" r="0.522005" transform="rotate(90 28.8159 35.4888)" fill="#4B6C87"/>
<circle cx="26.2065" cy="38.0988" r="0.522005" transform="rotate(90 26.2065 38.0988)" fill="#4B6C87"/>
<circle cx="26.2065" cy="35.4887" r="0.522005" transform="rotate(90 26.2065 35.4887)" fill="#4B6C87"/>
</g>
<g opacity="0.3">
<circle cx="13.1557" cy="32.878" r="0.522005" transform="rotate(90 13.1557 32.878)" fill="#4B6C87"/>
<circle cx="13.1557" cy="25.0477" r="0.522005" transform="rotate(90 13.1557 25.0477)" fill="#4B6C87"/>
<circle cx="13.1557" cy="17.2181" r="0.522005" transform="rotate(90 13.1557 17.2181)" fill="#4B6C87"/>
<circle cx="13.1557" cy="30.2679" r="0.522005" transform="rotate(90 13.1557 30.2679)" fill="#4B6C87"/>
<circle cx="13.1557" cy="22.4379" r="0.522005" transform="rotate(90 13.1557 22.4379)" fill="#4B6C87"/>
<circle cx="13.1557" cy="14.6079" r="0.522005" transform="rotate(90 13.1557 14.6079)" fill="#4B6C87"/>
<circle cx="13.1557" cy="27.6577" r="0.522005" transform="rotate(90 13.1557 27.6577)" fill="#4B6C87"/>
<circle cx="13.1557" cy="19.8279" r="0.522005" transform="rotate(90 13.1557 19.8279)" fill="#4B6C87"/>
<circle cx="13.1557" cy="11.9979" r="0.522005" transform="rotate(90 13.1557 11.9979)" fill="#4B6C87"/>
<circle cx="10.5464" cy="32.8779" r="0.522005" transform="rotate(90 10.5464 32.8779)" fill="#4B6C87"/>
<circle cx="10.5464" cy="25.0479" r="0.522005" transform="rotate(90 10.5464 25.0479)" fill="#4B6C87"/>
<circle cx="10.5464" cy="17.218" r="0.522005" transform="rotate(90 10.5464 17.218)" fill="#4B6C87"/>
<circle cx="10.5464" cy="30.2682" r="0.522005" transform="rotate(90 10.5464 30.2682)" fill="#4B6C87"/>
<circle cx="10.5464" cy="22.4377" r="0.522005" transform="rotate(90 10.5464 22.4377)" fill="#4B6C87"/>
<circle cx="10.5464" cy="14.6078" r="0.522005" transform="rotate(90 10.5464 14.6078)" fill="#4B6C87"/>
<circle cx="10.5444" cy="27.6576" r="0.522005" transform="rotate(90 10.5444 27.6576)" fill="#4B6C87"/>
<circle cx="10.5464" cy="19.828" r="0.522005" transform="rotate(90 10.5464 19.828)" fill="#4B6C87"/>
<circle cx="10.5464" cy="11.9977" r="0.522005" transform="rotate(90 10.5464 11.9977)" fill="#4B6C87"/>
<circle cx="13.1557" cy="38.0981" r="0.522005" transform="rotate(90 13.1557 38.0981)" fill="#4B6C87"/>
<circle cx="13.1557" cy="35.4882" r="0.522005" transform="rotate(90 13.1557 35.4882)" fill="#4B6C87"/>
<circle cx="10.5464" cy="38.0979" r="0.522005" transform="rotate(90 10.5464 38.0979)" fill="#4B6C87"/>
<circle cx="10.5464" cy="35.4879" r="0.522005" transform="rotate(90 10.5464 35.4879)" fill="#4B6C87"/>
</g>
<g opacity="0.3">
<circle cx="7.93307" cy="32.8767" r="0.522005" transform="rotate(90 7.93307 32.8767)" fill="#4B6C87"/>
<circle cx="7.93307" cy="25.0472" r="0.522005" transform="rotate(90 7.93307 25.0472)" fill="#4B6C87"/>
<circle cx="7.93307" cy="17.2172" r="0.522005" transform="rotate(90 7.93307 17.2172)" fill="#4B6C87"/>
<circle cx="7.93307" cy="30.2674" r="0.522005" transform="rotate(90 7.93307 30.2674)" fill="#4B6C87"/>
<circle cx="7.93112" cy="22.4362" r="0.522005" transform="rotate(90 7.93112 22.4362)" fill="#4B6C87"/>
<circle cx="7.93307" cy="14.607" r="0.522005" transform="rotate(90 7.93307 14.607)" fill="#4B6C87"/>
<circle cx="7.93307" cy="27.6564" r="0.522005" transform="rotate(90 7.93307 27.6564)" fill="#4B6C87"/>
<circle cx="7.93307" cy="19.8268" r="0.522005" transform="rotate(90 7.93307 19.8268)" fill="#4B6C87"/>
<circle cx="7.93307" cy="11.997" r="0.522005" transform="rotate(90 7.93307 11.997)" fill="#4B6C87"/>
<circle cx="5.3237" cy="32.8774" r="0.522005" transform="rotate(90 5.3237 32.8774)" fill="#4B6C87"/>
<circle cx="5.3237" cy="25.047" r="0.522005" transform="rotate(90 5.3237 25.047)" fill="#4B6C87"/>
<circle cx="5.3237" cy="17.217" r="0.522005" transform="rotate(90 5.3237 17.217)" fill="#4B6C87"/>
<circle cx="5.3237" cy="30.2672" r="0.522005" transform="rotate(90 5.3237 30.2672)" fill="#4B6C87"/>
<circle cx="5.3237" cy="22.4368" r="0.522005" transform="rotate(90 5.3237 22.4368)" fill="#4B6C87"/>
<circle cx="5.3237" cy="14.6068" r="0.522005" transform="rotate(90 5.3237 14.6068)" fill="#4B6C87"/>
<circle cx="5.3237" cy="27.657" r="0.522005" transform="rotate(90 5.3237 27.657)" fill="#4B6C87"/>
<circle cx="5.3237" cy="19.8272" r="0.522005" transform="rotate(90 5.3237 19.8272)" fill="#4B6C87"/>
<circle cx="5.3237" cy="11.9968" r="0.522005" transform="rotate(90 5.3237 11.9968)" fill="#4B6C87"/>
<circle cx="7.93307" cy="38.0968" r="0.522005" transform="rotate(90 7.93307 38.0968)" fill="#4B6C87"/>
<circle cx="7.93307" cy="35.4868" r="0.522005" transform="rotate(90 7.93307 35.4868)" fill="#4B6C87"/>
<circle cx="5.3237" cy="38.0967" r="0.522005" transform="rotate(90 5.3237 38.0967)" fill="#4B6C87"/>
<circle cx="5.3237" cy="35.4865" r="0.522005" transform="rotate(90 5.3237 35.4865)" fill="#4B6C87"/>
</g>
<g opacity="0.3">
<circle cx="2.71237" cy="32.8767" r="0.522005" transform="rotate(90 2.71237 32.8767)" fill="#4B6C87"/>
<circle cx="2.71237" cy="25.0471" r="0.522005" transform="rotate(90 2.71237 25.0471)" fill="#4B6C87"/>
<circle cx="2.71237" cy="17.2173" r="0.522005" transform="rotate(90 2.71237 17.2173)" fill="#4B6C87"/>
<circle cx="2.71237" cy="30.2668" r="0.522005" transform="rotate(90 2.71237 30.2668)" fill="#4B6C87"/>
<circle cx="2.71237" cy="22.4361" r="0.522005" transform="rotate(90 2.71237 22.4361)" fill="#4B6C87"/>
<circle cx="2.71237" cy="14.6071" r="0.522005" transform="rotate(90 2.71237 14.6071)" fill="#4B6C87"/>
<circle cx="2.71237" cy="27.6565" r="0.522005" transform="rotate(90 2.71237 27.6565)" fill="#4B6C87"/>
<circle cx="2.71237" cy="19.8269" r="0.522005" transform="rotate(90 2.71237 19.8269)" fill="#4B6C87"/>
<circle cx="2.71237" cy="11.9969" r="0.522005" transform="rotate(90 2.71237 11.9969)" fill="#4B6C87"/>
<circle cx="0.101041" cy="32.8765" r="0.522005" transform="rotate(90 0.101041 32.8765)" fill="#4B6C87"/>
<circle cx="0.102995" cy="25.0471" r="0.522005" transform="rotate(90 0.102995 25.0471)" fill="#4B6C87"/>
<circle cx="0.102995" cy="17.2171" r="0.522005" transform="rotate(90 0.102995 17.2171)" fill="#4B6C87"/>
<circle cx="0.102995" cy="30.2673" r="0.522005" transform="rotate(90 0.102995 30.2673)" fill="#4B6C87"/>
<circle cx="0.102995" cy="22.4369" r="0.522005" transform="rotate(90 0.102995 22.4369)" fill="#4B6C87"/>
<circle cx="0.102995" cy="14.6068" r="0.522005" transform="rotate(90 0.102995 14.6068)" fill="#4B6C87"/>
<circle cx="0.102995" cy="27.657" r="0.522005" transform="rotate(90 0.102995 27.657)" fill="#4B6C87"/>
<circle cx="0.102995" cy="19.8271" r="0.522005" transform="rotate(90 0.102995 19.8271)" fill="#4B6C87"/>
<circle cx="0.102995" cy="11.9968" r="0.522005" transform="rotate(90 0.102995 11.9968)" fill="#4B6C87"/>
<circle cx="2.71432" cy="38.0978" r="0.522005" transform="rotate(90 2.71432 38.0978)" fill="#4B6C87"/>
<circle cx="2.71432" cy="35.4876" r="0.522005" transform="rotate(90 2.71432 35.4876)" fill="#4B6C87"/>
<circle cx="0.104948" cy="38.0975" r="0.522005" transform="rotate(90 0.104948 38.0975)" fill="#4B6C87"/>
<circle cx="0.104948" cy="35.4875" r="0.522005" transform="rotate(90 0.104948 35.4875)" fill="#4B6C87"/>
</g>
<g opacity="0.3">
<circle cx="39.2553" cy="9.3873" r="0.522005" transform="rotate(90 39.2553 9.3873)" fill="#4B6C87"/>
<circle cx="39.2553" cy="1.55783" r="0.522005" transform="rotate(90 39.2553 1.55783)" fill="#4B6C87"/>
<circle cx="39.2553" cy="6.77808" r="0.522005" transform="rotate(90 39.2553 6.77808)" fill="#4B6C87"/>
<circle cx="39.2553" cy="4.16706" r="0.522005" transform="rotate(90 39.2553 4.16706)" fill="#4B6C87"/>
<circle cx="36.646" cy="9.38791" r="0.522005" transform="rotate(90 36.646 9.38791)" fill="#4B6C87"/>
<circle cx="36.646" cy="1.55765" r="0.522005" transform="rotate(90 36.646 1.55765)" fill="#4B6C87"/>
<circle cx="36.646" cy="6.7779" r="0.522005" transform="rotate(90 36.646 6.7779)" fill="#4B6C87"/>
<circle cx="36.646" cy="4.16767" r="0.522005" transform="rotate(90 36.646 4.16767)" fill="#4B6C87"/>
</g>
<g opacity="0.3">
<circle cx="23.5952" cy="9.38709" r="0.522005" transform="rotate(90 23.5952 9.38709)" fill="#4B6C87"/>
<circle cx="23.5952" cy="1.55762" r="0.522005" transform="rotate(90 23.5952 1.55762)" fill="#4B6C87"/>
<circle cx="23.5952" cy="6.77695" r="0.522005" transform="rotate(90 23.5952 6.77695)" fill="#4B6C87"/>
<circle cx="23.5952" cy="4.16684" r="0.522005" transform="rotate(90 23.5952 4.16684)" fill="#4B6C87"/>
<circle cx="20.9839" cy="9.38709" r="0.522005" transform="rotate(90 20.9839 9.38709)" fill="#4B6C87"/>
<circle cx="20.9839" cy="1.55683" r="0.522005" transform="rotate(90 20.9839 1.55683)" fill="#4B6C87"/>
<circle cx="20.9839" cy="6.77695" r="0.522005" transform="rotate(90 20.9839 6.77695)" fill="#4B6C87"/>
<circle cx="20.9839" cy="4.16672" r="0.522005" transform="rotate(90 20.9839 4.16672)" fill="#4B6C87"/>
</g>
<g opacity="0.3">
<circle cx="34.0346" cy="9.38687" r="0.522005" transform="rotate(90 34.0346 9.38687)" fill="#4B6C87"/>
<circle cx="34.0346" cy="1.55731" r="0.522005" transform="rotate(90 34.0346 1.55731)" fill="#4B6C87"/>
<circle cx="34.0346" cy="6.77695" r="0.522005" transform="rotate(90 34.0346 6.77695)" fill="#4B6C87"/>
<circle cx="34.0346" cy="4.16754" r="0.522005" transform="rotate(90 34.0346 4.16754)" fill="#4B6C87"/>
<circle cx="31.4233" cy="9.38666" r="0.522005" transform="rotate(90 31.4233 9.38666)" fill="#4B6C87"/>
<circle cx="31.4253" cy="1.55731" r="0.522005" transform="rotate(90 31.4253 1.55731)" fill="#4B6C87"/>
<circle cx="31.4253" cy="6.77747" r="0.522005" transform="rotate(90 31.4253 6.77747)" fill="#4B6C87"/>
<circle cx="31.4253" cy="4.16754" r="0.522005" transform="rotate(90 31.4253 4.16754)" fill="#4B6C87"/>
</g>
<g opacity="0.3">
<circle cx="18.3764" cy="9.38727" r="0.522005" transform="rotate(90 18.3764 9.38727)" fill="#4B6C87"/>
<circle cx="18.3764" cy="1.55741" r="0.522005" transform="rotate(90 18.3764 1.55741)" fill="#4B6C87"/>
<circle cx="18.3764" cy="6.77774" r="0.522005" transform="rotate(90 18.3764 6.77774)" fill="#4B6C87"/>
<circle cx="18.3764" cy="4.16712" r="0.522005" transform="rotate(90 18.3764 4.16712)" fill="#4B6C87"/>
<circle cx="15.7651" cy="9.38727" r="0.522005" transform="rotate(90 15.7651 9.38727)" fill="#4B6C87"/>
<circle cx="15.7651" cy="1.55741" r="0.522005" transform="rotate(90 15.7651 1.55741)" fill="#4B6C87"/>
<circle cx="15.7651" cy="6.77735" r="0.522005" transform="rotate(90 15.7651 6.77735)" fill="#4B6C87"/>
<circle cx="15.7651" cy="4.16712" r="0.522005" transform="rotate(90 15.7651 4.16712)" fill="#4B6C87"/>
</g>
<g opacity="0.3">
<circle cx="28.8139" cy="9.38635" r="0.522005" transform="rotate(90 28.8139 9.38635)" fill="#4B6C87"/>
<circle cx="28.8139" cy="1.55652" r="0.522005" transform="rotate(90 28.8139 1.55652)" fill="#4B6C87"/>
<circle cx="28.8139" cy="6.77674" r="0.522005" transform="rotate(90 28.8139 6.77674)" fill="#4B6C87"/>
<circle cx="28.8139" cy="4.16611" r="0.522005" transform="rotate(90 28.8139 4.16611)" fill="#4B6C87"/>
<circle cx="26.2026" cy="9.38635" r="0.522005" transform="rotate(90 26.2026 9.38635)" fill="#4B6C87"/>
<circle cx="26.2026" cy="1.55652" r="0.522005" transform="rotate(90 26.2026 1.55652)" fill="#4B6C87"/>
<circle cx="26.2026" cy="6.77634" r="0.522005" transform="rotate(90 26.2026 6.77634)" fill="#4B6C87"/>
<circle cx="26.2026" cy="4.16611" r="0.522005" transform="rotate(90 26.2026 4.16611)" fill="#4B6C87"/>
</g>
<g opacity="0.3">
<circle cx="13.1557" cy="9.38736" r="0.522005" transform="rotate(90 13.1557 9.38736)" fill="#4B6C87"/>
<circle cx="13.1557" cy="1.5578" r="0.522005" transform="rotate(90 13.1557 1.5578)" fill="#4B6C87"/>
<circle cx="13.1557" cy="6.77735" r="0.522005" transform="rotate(90 13.1557 6.77735)" fill="#4B6C87"/>
<circle cx="13.1557" cy="4.16721" r="0.522005" transform="rotate(90 13.1557 4.16721)" fill="#4B6C87"/>
<circle cx="10.5444" cy="9.38727" r="0.522005" transform="rotate(90 10.5444 9.38727)" fill="#4B6C87"/>
<circle cx="10.5464" cy="1.5578" r="0.522005" transform="rotate(90 10.5464 1.5578)" fill="#4B6C87"/>
<circle cx="10.5464" cy="6.77796" r="0.522005" transform="rotate(90 10.5464 6.77796)" fill="#4B6C87"/>
<circle cx="10.5464" cy="4.16773" r="0.522005" transform="rotate(90 10.5464 4.16773)" fill="#4B6C87"/>
</g>
<g opacity="0.3">
<circle cx="7.93503" cy="9.38696" r="0.522005" transform="rotate(90 7.93503 9.38696)" fill="#4B6C87"/>
<circle cx="7.93503" cy="1.55701" r="0.522005" transform="rotate(90 7.93503 1.55701)" fill="#4B6C87"/>
<circle cx="7.93503" cy="6.77725" r="0.522005" transform="rotate(90 7.93503 6.77725)" fill="#4B6C87"/>
<circle cx="7.93503" cy="4.16663" r="0.522005" transform="rotate(90 7.93503 4.16663)" fill="#4B6C87"/>
<circle cx="5.32565" cy="9.38718" r="0.522005" transform="rotate(90 5.32565 9.38718)" fill="#4B6C87"/>
<circle cx="5.3237" cy="1.55683" r="0.522005" transform="rotate(90 5.3237 1.55683)" fill="#4B6C87"/>
<circle cx="5.3237" cy="6.77716" r="0.522005" transform="rotate(90 5.3237 6.77716)" fill="#4B6C87"/>
<circle cx="5.3237" cy="4.16693" r="0.522005" transform="rotate(90 5.3237 4.16693)" fill="#4B6C87"/>
</g>
<g opacity="0.3">
<circle cx="2.71432" cy="9.38663" r="0.522005" transform="rotate(90 2.71432 9.38663)" fill="#4B6C87"/>
<circle cx="2.71432" cy="1.55716" r="0.522005" transform="rotate(90 2.71432 1.55716)" fill="#4B6C87"/>
<circle cx="2.71432" cy="6.77661" r="0.522005" transform="rotate(90 2.71432 6.77661)" fill="#4B6C87"/>
<circle cx="2.71432" cy="4.16638" r="0.522005" transform="rotate(90 2.71432 4.16638)" fill="#4B6C87"/>
<circle cx="0.102995" cy="9.38651" r="0.522005" transform="rotate(90 0.102995 9.38651)" fill="#4B6C87"/>
<circle cx="0.104948" cy="1.55698" r="0.522005" transform="rotate(90 0.104948 1.55698)" fill="#4B6C87"/>
<circle cx="0.104948" cy="6.77719" r="0.522005" transform="rotate(90 0.104948 6.77719)" fill="#4B6C87"/>
<circle cx="0.104948" cy="4.16699" r="0.522005" transform="rotate(90 0.104948 4.16699)" fill="#4B6C87"/>
</g>
</g>
</svg>
