<svg width="29" height="31" viewBox="0 0 29 31" fill="none" xmlns="http://www.w3.org/2000/svg">
<path d="M15.3602 0C19.2979 0.0113339 23.081 1.54832 25.928 4.2935V1.55C25.928 1.13891 26.0898 0.744666 26.3779 0.453984C26.6659 0.163303 27.0566 0 27.464 0C27.8714 0 28.2621 0.163303 28.5501 0.453984C28.8382 0.744666 29 1.13891 29 1.55V8.525C29 8.93609 28.8382 9.33033 28.5501 9.62102C28.2621 9.9117 27.8714 10.075 27.464 10.075H20.5519C20.1445 10.075 19.7538 9.9117 19.4658 9.62102C19.1777 9.33033 19.0159 8.93609 19.0159 8.525C19.0159 8.11391 19.1777 7.71967 19.4658 7.42898C19.7538 7.1383 20.1445 6.975 20.5519 6.975H24.2383C22.8379 5.48236 21.0918 4.36443 19.157 3.72176C17.2222 3.0791 15.1594 2.93186 13.1542 3.29329C11.1491 3.65472 9.26435 4.51349 7.66968 5.79233C6.075 7.07118 4.82038 8.73 4.01866 10.6196C3.21695 12.5091 2.89329 14.5702 3.07681 16.6173C3.26033 18.6644 3.94527 20.6333 5.07001 22.347C6.19474 24.0608 7.724 25.4654 9.52022 26.4347C11.3164 27.404 13.3233 27.9076 15.3602 27.9C15.7675 27.9 16.1582 28.0633 16.4463 28.354C16.7344 28.6447 16.8962 29.0389 16.8962 29.45C16.8962 29.8611 16.7344 30.2553 16.4463 30.546C16.1582 30.8367 15.7675 31 15.3602 31C11.2864 31 7.37948 29.367 4.49889 26.4602C1.6183 23.5533 0 19.6109 0 15.5C0 11.3891 1.6183 7.44666 4.49889 4.53984C7.37948 1.63303 11.2864 0 15.3602 0ZM15.3602 9.3C15.7675 9.3 16.1582 9.4633 16.4463 9.75399C16.7344 10.0447 16.8962 10.4389 16.8962 10.85V15.5C16.8962 15.9111 16.7344 16.3053 16.4463 16.596C16.1582 16.8867 15.7675 17.05 15.3602 17.05H12.2881C11.8808 17.05 11.4901 16.8867 11.202 16.596C10.9139 16.3053 10.7521 15.9111 10.7521 15.5C10.7521 15.0889 10.9139 14.6947 11.202 14.404C11.4901 14.1133 11.8808 13.95 12.2881 13.95H13.8242V10.85C13.8242 10.4389 13.986 10.0447 14.274 9.75399C14.5621 9.4633 14.9528 9.3 15.3602 9.3Z" fill="#BB926A"/>
</svg>
