<svg width="23" height="23" viewBox="0 0 23 23" fill="none" xmlns="http://www.w3.org/2000/svg">
<path d="M20.3368 8.4458H15.0479V13.7347H20.3368V8.4458Z" fill="#00EF8B"/>
<path d="M9.75868 15.7228C9.75868 16.8106 8.85843 17.7108 7.77064 17.7108C6.68284 17.7108 5.78259 16.8106 5.78259 15.7228C5.78259 14.635 6.68284 13.7347 7.77064 13.7347H9.75868V8.4458H7.77064C3.75704 8.4458 0.493652 11.7092 0.493652 15.7228C0.493652 19.7364 3.75704 22.9998 7.77064 22.9998C11.7842 22.9998 15.0476 19.7364 15.0476 15.7228V13.7347H9.75868V15.7228Z" fill="#00EF8B"/>
<path d="M17.0358 5.78259H22.9999V0.493652H17.0358C13.0222 0.493652 9.75879 3.75704 9.75879 7.77064V8.44582H15.0477V7.77064C15.0477 6.68284 15.948 5.78259 17.0358 5.78259Z" fill="#00EF8B"/>
</svg>
