<?xml version="1.0" encoding="UTF-8"?>
<svg width="289px" height="32px" viewBox="0 0 289 32" version="1.1" xmlns="http://www.w3.org/2000/svg" xmlns:xlink="http://www.w3.org/1999/xlink">
    <title>Group</title>
    <g id="Back-end" stroke="none" stroke-width="1" fill="none" fill-rule="evenodd">
        <g id="Pop-up-–-Withdrawal-completed" transform="translate(-120.000000, -504.000000)" fill-rule="nonzero">
            <g id="Group" transform="translate(120.000000, 504.000000)">
                <g id="trustpilot-1">
                    <path d="M34.2497286,11.339848 L47.4310532,11.339848 L47.4310532,13.7937025 L42.2410423,13.7937025 L42.2410423,27.6264929 L39.3963084,27.6264929 L39.3963084,13.7937025 L34.228013,13.7937025 L34.2497286,11.339848 Z M46.8664495,15.834962 L49.2985885,15.834962 L49.2985885,18.1150923 L49.3420195,18.1150923 C49.4288817,17.7893594 49.5808903,17.485342 49.7980456,17.1813246 C50.0152009,16.8773073 50.2757872,16.5950054 50.6015201,16.3561346 C50.9055375,16.0955483 51.2529859,15.9001086 51.6438654,15.7480999 C52.0130293,15.5960912 52.4039088,15.5092291 52.7947883,15.5092291 C53.0988056,15.5092291 53.3159609,15.5309446 53.4245385,15.5309446 C53.5331162,15.5526602 53.6634093,15.5743757 53.771987,15.5743757 L53.771987,18.0716612 C53.5982628,18.0282302 53.402823,18.0065147 53.2073833,17.9847991 C53.0119435,17.9630836 52.8382193,17.9413681 52.6427796,17.9413681 C52.2084691,17.9413681 51.795874,18.0282302 51.4049946,18.2019544 C51.0141151,18.3756786 50.6883822,18.6362649 50.3843648,18.9619978 C50.102063,19.3094463 49.8631922,19.7220413 49.689468,20.2214984 C49.5157438,20.7209555 49.4288817,21.3072747 49.4288817,21.9587405 L49.4288817,27.5613464 L46.8230185,27.5613464 L46.8664495,15.834962 Z M65.7155266,27.6264929 L63.1530945,27.6264929 L63.1530945,25.9761129 L63.1096634,25.9761129 C62.7839305,26.5841477 62.3061889,27.0401737 61.6764387,27.4093377 C61.0466884,27.7785016 60.3952226,27.9522258 59.7437568,27.9522258 C58.2019544,27.9522258 57.072747,27.5830619 56.3778502,26.8013029 C55.6829533,26.0412595 55.3355049,24.8686211 55.3355049,23.3268187 L55.3355049,15.834962 L57.9413681,15.834962 L57.9413681,23.0662324 C57.9413681,24.1085776 58.1368078,24.8469055 58.5494028,25.2595005 C58.9402823,25.6938111 59.504886,25.9109663 60.2214984,25.9109663 C60.7643865,25.9109663 61.2204126,25.8241042 61.5895765,25.65038 C61.9587405,25.4766558 62.2627579,25.2595005 62.4799131,24.9771987 C62.7187839,24.6948969 62.8707926,24.3474484 62.9793702,23.9565689 C63.0879479,23.5656895 63.1313789,23.1313789 63.1313789,22.6753529 L63.1313789,15.834962 L65.7372421,15.834962 L65.7372421,27.6264929 L65.7155266,27.6264929 Z M70.145494,23.8479913 C70.2323561,24.6080347 70.514658,25.1292074 71.0141151,25.4549403 C71.5135722,25.7589577 72.1216069,25.9109663 72.8165038,25.9109663 C73.0553746,25.9109663 73.3376764,25.8892508 73.6416938,25.8458198 C73.9457112,25.8023887 74.2497286,25.7372421 74.5103149,25.6286645 C74.7926167,25.5200869 75.009772,25.3680782 75.1834962,25.1509229 C75.3572204,24.9337676 75.4440825,24.6731813 75.422367,24.3474484 C75.4006515,24.0217155 75.2920738,23.7394137 75.053203,23.5222584 C74.8143322,23.3051031 74.5320304,23.1530945 74.184582,23.0010858 C73.8371336,22.8707926 73.4245385,22.762215 72.9685125,22.6753529 C72.5124864,22.5884908 72.0564604,22.4799131 71.5787188,22.3713355 C71.1009772,22.2627579 70.6232356,22.1324647 70.1672096,21.980456 C69.7111835,21.8284473 69.320304,21.6330076 68.9511401,21.3507058 C68.6036916,21.0901194 68.2996743,20.7643865 68.1042345,20.3517915 C67.8870793,19.9391965 67.7785016,19.4614549 67.7785016,18.8534202 C67.7785016,18.2019544 67.9305103,17.6807818 68.2562432,17.2464712 C68.5602606,16.8121607 68.9728556,16.4647123 69.4505972,16.204126 C69.9283388,15.9435396 70.4712269,15.7480999 71.0575461,15.6395223 C71.6438654,15.5309446 72.2084691,15.4875136 72.7296417,15.4875136 C73.3376764,15.4875136 73.9239957,15.5526602 74.4668838,15.6829533 C75.009772,15.8132465 75.5309446,16.0086862 75.9652552,16.3127036 C76.4212812,16.5950054 76.7904452,16.9858849 77.072747,17.441911 C77.3767644,17.897937 77.5504886,18.4625407 77.6373507,19.1140065 L74.9229099,19.1140065 C74.7926167,18.4842562 74.5103149,18.0716612 74.0760043,17.854506 C73.6199783,17.6373507 73.1205212,17.5287731 72.534202,17.5287731 C72.3604777,17.5287731 72.1216069,17.5504886 71.8827362,17.5722041 C71.6221498,17.6156352 71.4049946,17.6590662 71.1661238,17.7459283 C70.9489685,17.8327904 70.7535288,17.9630836 70.6015201,18.1150923 C70.4495114,18.267101 70.3626493,18.4842562 70.3626493,18.7448426 C70.3626493,19.0705755 70.4712269,19.3094463 70.6883822,19.504886 C70.9055375,19.7003257 71.1878393,19.8523344 71.5570033,20.0043431 C71.9044517,20.1346363 72.3170467,20.2432139 72.7730727,20.330076 C73.2290988,20.4169381 73.7068404,20.5255157 74.184582,20.6340934 C74.6623236,20.742671 75.1183496,20.8729642 75.5743757,21.0249729 C76.0304017,21.1769815 76.4429967,21.3724213 76.7904452,21.6547231 C77.1378936,21.9153094 77.441911,22.2410423 77.6590662,22.6319218 C77.8762215,23.0228013 77.9847991,23.5222584 77.9847991,24.0868621 C77.9847991,24.781759 77.8327904,25.3680782 77.5070575,25.8675353 C77.1813246,26.3452769 76.7687296,26.7578719 76.2692725,27.0618893 C75.7698154,27.3659066 75.1834962,27.5830619 74.5754615,27.7350706 C73.9457112,27.8653637 73.3376764,27.9522258 72.7296417,27.9522258 C71.9913138,27.9522258 71.2964169,27.8653637 70.6666667,27.6916395 C70.0369164,27.5179153 69.4723127,27.257329 69.0162866,26.9315961 C68.5602606,26.5841477 68.1910966,26.1715527 67.9305103,25.65038 C67.669924,25.1509229 67.5179153,24.5428882 67.4961998,23.8262758 L70.1237785,23.8262758 L70.1237785,23.8479913 L70.145494,23.8479913 Z M78.723127,15.834962 L80.69924,15.834962 L80.69924,12.2736156 L83.3051031,12.2736156 L83.3051031,15.8132465 L85.65038,15.8132465 L85.65038,17.7459283 L83.3051031,17.7459283 L83.3051031,24.0434311 C83.3051031,24.3257329 83.3268187,24.5428882 83.3485342,24.7600434 C83.3702497,24.9554832 83.4353963,25.1292074 83.5005429,25.2595005 C83.587405,25.3897937 83.7176982,25.4983713 83.8697068,25.5635179 C84.0434311,25.6286645 84.2605863,25.6720955 84.5646037,25.6720955 C84.7383279,25.6720955 84.9337676,25.6720955 85.1074919,25.65038 C85.2812161,25.6286645 85.4766558,25.606949 85.65038,25.5635179 L85.65038,27.5830619 C85.3680782,27.6264929 85.0857763,27.6482085 84.8034745,27.669924 C84.5211726,27.713355 84.2605863,27.713355 83.9565689,27.713355 C83.2616721,27.713355 82.7187839,27.6482085 82.3061889,27.5179153 C81.8935939,27.3876221 81.567861,27.1921824 81.3289902,26.9533116 C81.0901194,26.6927253 80.9381107,26.3887079 80.8512486,26.019544 C80.7643865,25.65038 80.7209555,25.194354 80.69924,24.7166124 L80.69924,17.7676439 L78.723127,17.7676439 L78.723127,15.7915309 L78.723127,15.834962 Z M87.4744843,15.834962 L89.9283388,15.834962 L89.9283388,17.441911 L89.9717698,17.441911 C90.3409338,16.7470141 90.8403909,16.2692725 91.4918567,15.9652552 C92.1433225,15.6612378 92.8382193,15.5092291 93.6199783,15.5092291 C94.5537459,15.5092291 95.3572204,15.6612378 96.0521173,16.0086862 C96.7470141,16.3344191 97.3116178,16.7687296 97.7676439,17.3550489 C98.2236699,17.9196526 98.5711183,18.5928339 98.7882736,19.3528773 C99.0054289,20.1129207 99.135722,20.9381107 99.135722,21.7850163 C99.135722,22.5884908 99.0271444,23.3485342 98.8317047,24.0868621 C98.6145494,24.82519 98.310532,25.4983713 97.897937,26.062975 C97.485342,26.6275787 96.9641694,27.0836048 96.3127036,27.4310532 C95.6612378,27.7785016 94.9229099,27.9522258 94.0542888,27.9522258 C93.6851249,27.9522258 93.2942454,27.9087948 92.9250814,27.8436482 C92.5559175,27.7785016 92.1867535,27.669924 91.8393051,27.5179153 C91.4918567,27.3659066 91.1661238,27.1704669 90.8838219,26.9315961 C90.5798046,26.6927253 90.3409338,26.4104235 90.145494,26.1064061 L90.102063,26.1064061 L90.102063,31.9913138 L87.4961998,31.9913138 L87.4961998,15.834962 L87.4744843,15.834962 Z M96.5732899,21.7415852 C96.5732899,21.2204126 96.5081433,20.69924 96.3561346,20.1997828 C96.2258415,19.7003257 96.0086862,19.2660152 95.7263844,18.8751357 C95.4440825,18.4842562 95.0966341,18.1802389 94.7057546,17.9413681 C94.2931596,17.7024973 93.815418,17.5939197 93.2942454,17.5939197 C92.2084691,17.5939197 91.383279,17.9630836 90.8186754,18.723127 C90.2757872,19.4831705 89.9934853,20.5038002 89.9934853,21.7633008 C89.9934853,22.3713355 90.0586319,22.9142237 90.2106406,23.4136808 C90.3626493,23.9131379 90.558089,24.3474484 90.8621064,24.7166124 C91.1444083,25.0857763 91.4918567,25.3680782 91.9044517,25.5852334 C92.3170467,25.8023887 92.7730727,25.9109663 93.3159609,25.9109663 C93.9239957,25.9109663 94.4017372,25.7806732 94.8143322,25.5418024 C95.2269273,25.3029316 95.5526602,24.9771987 95.834962,24.6080347 C96.0955483,24.2171553 96.2909881,23.7828447 96.3995657,23.2833876 C96.5081433,22.762215 96.5732899,22.2627579 96.5732899,21.7415852 L96.5732899,21.7415852 Z M101.155266,11.339848 L103.761129,11.339848 L103.761129,13.7937025 L101.155266,13.7937025 L101.155266,11.339848 Z M101.155266,15.834962 L103.761129,15.834962 L103.761129,27.6264929 L101.155266,27.6264929 L101.155266,15.834962 Z M106.084691,11.339848 L108.690554,11.339848 L108.690554,27.6264929 L106.084691,27.6264929 L106.084691,11.339848 Z M116.638436,27.9522258 C115.704669,27.9522258 114.857763,27.8002172 114.119435,27.4744843 C113.381107,27.1487514 112.773073,26.7361564 112.2519,26.1932682 C111.752443,25.65038 111.361564,24.9771987 111.100977,24.2171553 C110.840391,23.4571118 110.688382,22.6102063 110.688382,21.7198697 C110.688382,20.8295331 110.818675,20.0043431 111.100977,19.2442997 C111.361564,18.4842562 111.752443,17.8327904 112.2519,17.2681868 C112.751357,16.7252986 113.381107,16.2909881 114.119435,15.9869707 C114.857763,15.6829533 115.704669,15.5092291 116.638436,15.5092291 C117.572204,15.5092291 118.41911,15.6612378 119.157438,15.9869707 C119.895765,16.2909881 120.5038,16.7252986 121.024973,17.2681868 C121.52443,17.8110749 121.915309,18.4842562 122.175896,19.2442997 C122.436482,20.0043431 122.588491,20.8295331 122.588491,21.7198697 C122.588491,22.6319218 122.458198,23.4571118 122.175896,24.2171553 C121.893594,24.9771987 121.52443,25.6286645 121.024973,26.1932682 C120.525516,26.7361564 119.895765,27.1704669 119.157438,27.4744843 C118.41911,27.7785016 117.59392,27.9522258 116.638436,27.9522258 Z M116.638436,25.8892508 C117.20304,25.8892508 117.724213,25.7589577 118.136808,25.5200869 C118.571118,25.2812161 118.896851,24.9554832 119.179153,24.5646037 C119.461455,24.1737242 119.656895,23.7176982 119.787188,23.2399566 C119.917481,22.7404995 119.982628,22.2410423 119.982628,21.7198697 C119.982628,21.2204126 119.917481,20.7209555 119.787188,20.2214984 C119.656895,19.7220413 119.461455,19.2877307 119.179153,18.8968512 C118.896851,18.5059718 118.549403,18.2019544 118.136808,17.9630836 C117.702497,17.7242128 117.20304,17.5939197 116.638436,17.5939197 C116.073833,17.5939197 115.55266,17.7242128 115.140065,17.9630836 C114.705755,18.2019544 114.380022,18.5276873 114.09772,18.8968512 C113.815418,19.2877307 113.619978,19.7220413 113.489685,20.2214984 C113.359392,20.7209555 113.294245,21.2204126 113.294245,21.7198697 C113.294245,22.2410423 113.359392,22.7404995 113.489685,23.2399566 C113.619978,23.7394137 113.815418,24.1737242 114.09772,24.5646037 C114.380022,24.9554832 114.72747,25.2812161 115.140065,25.5200869 C115.574376,25.7806732 116.073833,25.8892508 116.638436,25.8892508 Z M123.37025,15.834962 L125.346363,15.834962 L125.346363,12.2736156 L127.952226,12.2736156 L127.952226,15.8132465 L130.297503,15.8132465 L130.297503,17.7459283 L127.952226,17.7459283 L127.952226,24.0434311 C127.952226,24.3257329 127.973941,24.5428882 127.995657,24.7600434 C128.017372,24.9554832 128.082519,25.1292074 128.147666,25.2595005 C128.234528,25.3897937 128.364821,25.4983713 128.51683,25.5635179 C128.690554,25.6286645 128.907709,25.6720955 129.211726,25.6720955 C129.385451,25.6720955 129.58089,25.6720955 129.754615,25.65038 C129.928339,25.6286645 130.123779,25.606949 130.297503,25.5635179 L130.297503,27.5830619 C130.015201,27.6264929 129.732899,27.6482085 129.450597,27.669924 C129.168295,27.713355 128.907709,27.713355 128.603692,27.713355 C127.908795,27.713355 127.365907,27.6482085 126.953312,27.5179153 C126.540717,27.3876221 126.214984,27.1921824 125.976113,26.9533116 C125.737242,26.6927253 125.585233,26.3887079 125.498371,26.019544 C125.411509,25.65038 125.368078,25.194354 125.346363,24.7166124 L125.346363,17.7676439 L123.37025,17.7676439 L123.37025,15.7915309 L123.37025,15.834962 Z" id="Shape" fill="#000000"></path>
                    <polygon id="Path" fill="#005128" points="22.393051 20.8946797 21.567861 18.3322476 15.6178067 22.6536374"></polygon>
                    <polygon id="Path" fill="#00B67A" points="31.2095548 11.339848 19.2877307 11.339848 15.6178067 0.00434310532 11.9261672 11.339848 0.00434310532 11.3181325 9.64603692 18.3322476 5.95439739 29.6677524 15.5960912 22.6536374 25.237785 29.6677524 21.567861 18.3322476"></polygon>
                </g>
                <g id="stars-5" transform="translate(155.000000, 4.000000)">
                    <rect id="Rectangle-path" fill="#00B67A" x="0" y="0" width="25" height="25"></rect>
                    <rect id="Rectangle-path" fill="#00B67A" x="27.0833333" y="0" width="25" height="25"></rect>
                    <rect id="Rectangle-path" fill="#00B67A" x="54.1666667" y="0" width="25" height="25"></rect>
                    <rect id="Rectangle-path" fill="#00B67A" x="81.25" y="0" width="25" height="25"></rect>
                    <rect id="Rectangle-path" fill="#00B67A" x="108.333333" y="0" width="25" height="25"></rect>
                    <path d="M12.5,16.8489583 L16.3020833,15.8854167 L17.890625,20.78125 L12.5,16.8489583 Z M21.25,10.5208333 L14.5572917,10.5208333 L12.5,4.21875 L10.4427083,10.5208333 L3.75,10.5208333 L9.16666667,14.4270833 L7.109375,20.7291667 L12.5260417,16.8229167 L15.859375,14.4270833 L21.25,10.5208333 L21.25,10.5208333 L21.25,10.5208333 L21.25,10.5208333 Z" id="Shape" fill="#FFFFFF"></path>
                    <path d="M39.5833333,16.8489583 L43.3854167,15.8854167 L44.9739583,20.78125 L39.5833333,16.8489583 Z M48.3333333,10.5208333 L41.640625,10.5208333 L39.5833333,4.21875 L37.5260417,10.5208333 L30.8333333,10.5208333 L36.25,14.4270833 L34.1927083,20.7291667 L39.609375,16.8229167 L42.9427083,14.4270833 L48.3333333,10.5208333 L48.3333333,10.5208333 L48.3333333,10.5208333 L48.3333333,10.5208333 Z" id="Shape" fill="#FFFFFF"></path>
                    <path d="M66.6666667,16.8489583 L70.46875,15.8854167 L72.0572917,20.78125 L66.6666667,16.8489583 Z M75.4166667,10.5208333 L68.7239583,10.5208333 L66.6666667,4.21875 L64.609375,10.5208333 L57.9166667,10.5208333 L63.3333333,14.4270833 L61.2760417,20.7291667 L66.6927083,16.8229167 L70.0260417,14.4270833 L75.4166667,10.5208333 L75.4166667,10.5208333 L75.4166667,10.5208333 L75.4166667,10.5208333 Z" id="Shape" fill="#FFFFFF"></path>
                    <path d="M93.75,16.8489583 L97.5520833,15.8854167 L99.140625,20.78125 L93.75,16.8489583 Z M102.5,10.5208333 L95.8072917,10.5208333 L93.75,4.21875 L91.6927083,10.5208333 L85,10.5208333 L90.4166667,14.4270833 L88.359375,20.7291667 L93.7760417,16.8229167 L97.109375,14.4270833 L102.5,10.5208333 L102.5,10.5208333 L102.5,10.5208333 L102.5,10.5208333 Z" id="Shape" fill="#FFFFFF"></path>
                    <path d="M120.833333,16.8489583 L124.635417,15.8854167 L126.223958,20.78125 L120.833333,16.8489583 Z M129.583333,10.5208333 L122.890625,10.5208333 L120.833333,4.21875 L118.776042,10.5208333 L112.083333,10.5208333 L117.5,14.4270833 L115.442708,20.7291667 L120.859375,16.8229167 L124.192708,14.4270833 L129.583333,10.5208333 L129.583333,10.5208333 L129.583333,10.5208333 L129.583333,10.5208333 Z" id="Shape" fill="#FFFFFF"></path>
                </g>
            </g>
        </g>
    </g>
</svg>