<svg width="17" height="17" viewBox="0 0 17 17" fill="none" xmlns="http://www.w3.org/2000/svg">
<g opacity="0.2">
<circle r="0.451626" transform="matrix(-4.37114e-08 -1 -1 4.37114e-08 16.5484 4.9683)" fill="white"/>
<circle r="0.451626" transform="matrix(-4.37114e-08 -1 -1 4.37114e-08 16.5484 11.7427)" fill="white"/>
<circle r="0.451626" transform="matrix(-4.37114e-08 -1 -1 4.37114e-08 16.5484 0.452183)" fill="white"/>
<circle r="0.451626" transform="matrix(-4.37114e-08 -1 -1 4.37114e-08 16.5484 7.22611)" fill="white"/>
<circle r="0.451626" transform="matrix(-4.37114e-08 -1 -1 4.37114e-08 16.5484 14.0005)" fill="white"/>
<circle r="0.451626" transform="matrix(-4.37114e-08 -1 -1 4.37114e-08 16.5484 2.71048)" fill="white"/>
<circle r="0.451626" transform="matrix(-4.37114e-08 -1 -1 4.37114e-08 16.5484 9.48441)" fill="white"/>
<circle r="0.451626" transform="matrix(-4.37114e-08 -1 -1 4.37114e-08 16.5484 16.2588)" fill="white"/>
<circle r="0.451626" transform="matrix(-4.37114e-08 -1 -1 4.37114e-08 14.2906 4.9683)" fill="white"/>
<circle r="0.451626" transform="matrix(-4.37114e-08 -1 -1 4.37114e-08 14.2906 11.7427)" fill="white"/>
<circle r="0.451626" transform="matrix(-4.37114e-08 -1 -1 4.37114e-08 14.2906 0.452183)" fill="white"/>
<circle r="0.451626" transform="matrix(-4.37114e-08 -1 -1 4.37114e-08 14.2906 7.22611)" fill="white"/>
<circle r="0.451626" transform="matrix(-4.37114e-08 -1 -1 4.37114e-08 14.2906 14.0005)" fill="white"/>
<circle r="0.451626" transform="matrix(-4.37114e-08 -1 -1 4.37114e-08 14.2906 2.71048)" fill="white"/>
<circle r="0.451626" transform="matrix(-4.37114e-08 -1 -1 4.37114e-08 14.2906 9.48441)" fill="white"/>
<circle r="0.451626" transform="matrix(-4.37114e-08 -1 -1 4.37114e-08 14.2906 16.2588)" fill="white"/>
<circle r="0.451626" transform="matrix(1 0 0 -1 7.22604 2.76517)" fill="white"/>
<circle r="0.451626" transform="matrix(1 0 0 -1 0.451626 2.76517)" fill="white"/>
<circle r="0.451626" transform="matrix(1 0 0 -1 11.7422 2.76517)" fill="white"/>
<circle r="0.451626" transform="matrix(1 0 0 -1 4.96823 2.76517)" fill="white"/>
<circle r="0.451626" transform="matrix(1 0 0 -1 9.48385 2.76517)" fill="white"/>
<circle r="0.451626" transform="matrix(1 0 0 -1 2.71041 2.76517)" fill="white"/>
<circle r="0.451626" transform="matrix(1 0 0 -1 7.22604 0.50687)" fill="white"/>
<circle r="0.451626" transform="matrix(1 0 0 -1 0.451626 0.50687)" fill="white"/>
<circle r="0.451626" transform="matrix(1 0 0 -1 11.7422 0.50687)" fill="white"/>
<circle r="0.451626" transform="matrix(1 0 0 -1 4.96823 0.50687)" fill="white"/>
<circle r="0.451626" transform="matrix(1 0 0 -1 9.48385 0.50687)" fill="white"/>
<circle r="0.451626" transform="matrix(1 0 0 -1 2.71041 0.50687)" fill="white"/>
</g>
</svg>
