<svg width="17" height="17" viewBox="0 0 17 17" fill="none" xmlns="http://www.w3.org/2000/svg">
<path d="M8.50037 8.22805e-09C7.19654 -5.73555e-05 5.91018 0.299829 4.74079 0.876461C3.5714 1.45309 2.55034 2.29101 1.7566 3.32539C0.96286 4.35977 0.417715 5.56289 0.163339 6.84166C-0.0910359 8.12043 -0.047822 9.44059 0.289638 10.7C0.627098 11.9594 1.24976 13.1243 2.10945 14.1045C2.96914 15.0848 4.04281 15.8541 5.2474 16.3531C6.452 16.852 7.75522 17.0671 9.05626 16.9818C10.3573 16.8965 11.6213 16.513 12.7504 15.861C12.852 15.8079 12.9417 15.7347 13.0143 15.646C13.0869 15.5573 13.1408 15.4548 13.1727 15.3447C13.2047 15.2346 13.214 15.1191 13.2002 15.0053C13.1863 14.8915 13.1496 14.7817 13.0923 14.6824C13.0349 14.5832 12.9581 14.4966 12.8663 14.4278C12.7746 14.359 12.6699 14.3095 12.5586 14.2822C12.4473 14.255 12.3315 14.2505 12.2184 14.2691C12.1053 14.2877 11.9971 14.329 11.9004 14.3905C10.6041 15.1389 9.09703 15.4387 7.61298 15.2434C6.12894 15.048 4.75081 14.3685 3.69232 13.3101C2.63383 12.2517 1.95413 10.8737 1.75862 9.38967C1.56312 7.90565 1.86274 6.39858 2.61102 5.10219C3.3593 3.8058 4.51442 2.79252 5.89724 2.21951C7.28007 1.6465 8.81333 1.54577 10.2592 1.93293C11.7051 2.3201 12.9829 3.17354 13.8944 4.36089C14.8058 5.54824 15.3 7.00315 15.3004 8.5V9.1375C15.3004 9.53201 15.1437 9.91036 14.8647 10.1893C14.5857 10.4683 14.2074 10.625 13.8129 10.625C13.4184 10.625 13.04 10.4683 12.7611 10.1893C12.4821 9.91036 12.3254 9.53201 12.3254 9.1375V5.525C12.3254 5.29957 12.2358 5.08336 12.0764 4.92396C11.917 4.76455 11.7008 4.675 11.4754 4.675C11.2777 4.6706 11.0847 4.73525 10.9295 4.85781C10.7744 4.98037 10.6668 5.15318 10.6254 5.3465C10.0005 4.91434 9.26007 4.68035 8.50037 4.675C7.86046 4.66735 7.22886 4.82037 6.66341 5.12006C6.09797 5.41974 5.61675 5.85651 5.26383 6.39036C4.91092 6.9242 4.69759 7.53807 4.64338 8.17572C4.58917 8.81338 4.69582 9.45444 4.95355 10.0402C5.21129 10.626 5.61187 11.1377 6.11861 11.5285C6.62536 11.9194 7.22206 12.1768 7.85408 12.2773C8.4861 12.3778 9.13323 12.3181 9.73619 12.1036C10.3392 11.8892 10.8787 11.527 11.3054 11.05C11.7092 11.573 12.2661 11.9572 12.8984 12.1491C13.5307 12.341 14.2071 12.331 14.8336 12.1207C15.46 11.9103 16.0053 11.5099 16.3936 10.9753C16.782 10.4406 16.994 9.79827 17.0004 9.1375V8.5C17.0004 7.38376 16.7805 6.27846 16.3533 5.24719C15.9262 4.21592 15.3001 3.27889 14.5108 2.48959C13.7215 1.70029 12.7844 1.07419 11.7532 0.647024C10.7219 0.219859 9.61661 8.22805e-09 8.50037 8.22805e-09ZM8.50037 10.625C8.08009 10.625 7.66924 10.5004 7.31979 10.2669C6.97033 10.0334 6.69796 9.70149 6.53713 9.3132C6.37629 8.92491 6.33421 8.49764 6.4162 8.08543C6.4982 7.67322 6.70058 7.29458 6.99777 6.9974C7.29496 6.70021 7.6736 6.49782 8.0858 6.41583C8.49801 6.33384 8.92528 6.37592 9.31357 6.53676C9.70187 6.69759 10.0337 6.96996 10.2672 7.31941C10.5007 7.66887 10.6254 8.07971 10.6254 8.5C10.6254 9.06358 10.4015 9.60409 10.003 10.0026C9.60446 10.4011 9.06396 10.625 8.50037 10.625Z" fill="#B78F67"/>
</svg>
