<svg width="40" height="40" viewBox="0 0 40 40" fill="none" xmlns="http://www.w3.org/2000/svg">
<mask id="mask0_2770_39646" style="mask-type:alpha" maskUnits="userSpaceOnUse" x="0" y="0" width="40" height="40">
<circle cx="19.7989" cy="19.7989" r="15.2989" stroke="white" stroke-width="9"/>
</mask>
<g mask="url(#mask0_2770_39646)">
<g opacity="0.3">
<circle cx="32.4751" cy="0.343295" r="0.522005" fill="white"/>
<circle cx="24.6455" cy="0.342806" r="0.522005" fill="white"/>
<circle cx="16.816" cy="0.342806" r="0.522005" fill="white"/>
<circle cx="29.8653" cy="0.343783" r="0.522005" fill="white"/>
<circle cx="22.0347" cy="0.343783" r="0.522005" fill="white"/>
<circle cx="14.2056" cy="0.342806" r="0.522005" fill="white"/>
<circle cx="27.2549" cy="0.343783" r="0.522005" fill="white"/>
<circle cx="19.4253" cy="0.342806" r="0.522005" fill="white"/>
<circle cx="11.5952" cy="0.342806" r="0.522005" fill="white"/>
<circle cx="32.4751" cy="2.95316" r="0.522005" fill="white"/>
<circle cx="24.6455" cy="2.95316" r="0.522005" fill="white"/>
<circle cx="16.8155" cy="2.95267" r="0.522005" fill="white"/>
<circle cx="29.8658" cy="2.95267" r="0.522005" fill="white"/>
<circle cx="22.0352" cy="2.95316" r="0.522005" fill="white"/>
<circle cx="14.2051" cy="2.95267" r="0.522005" fill="white"/>
<circle cx="27.2554" cy="2.95267" r="0.522005" fill="white"/>
<circle cx="19.4253" cy="2.95267" r="0.522005" fill="white"/>
<circle cx="11.5952" cy="2.95316" r="0.522005" fill="white"/>
<circle cx="37.6963" cy="0.342318" r="0.522005" fill="white"/>
<circle cx="35.086" cy="0.342806" r="0.522005" fill="white"/>
<circle cx="37.6963" cy="2.95267" r="0.522005" fill="white"/>
<circle cx="35.086" cy="2.95267" r="0.522005" fill="white"/>
</g>
<g opacity="0.3">
<circle cx="32.4751" cy="16.0035" r="0.522005" fill="white"/>
<circle cx="24.6446" cy="16.0039" r="0.522005" fill="white"/>
<circle cx="16.8155" cy="16.003" r="0.522005" fill="white"/>
<circle cx="29.8648" cy="16.0035" r="0.522005" fill="white"/>
<circle cx="22.0342" cy="16.0039" r="0.522005" fill="white"/>
<circle cx="14.2051" cy="16.003" r="0.522005" fill="white"/>
<circle cx="27.2544" cy="16.0035" r="0.522005" fill="white"/>
<circle cx="19.4253" cy="16.0035" r="0.522005" fill="white"/>
<circle cx="11.5952" cy="16.003" r="0.522005" fill="white"/>
<circle cx="32.4751" cy="18.6138" r="0.522005" fill="white"/>
<circle cx="24.6446" cy="18.6143" r="0.522005" fill="white"/>
<circle cx="16.8155" cy="18.6133" r="0.522005" fill="white"/>
<circle cx="29.8648" cy="18.6138" r="0.522005" fill="white"/>
<circle cx="22.0352" cy="18.6133" r="0.522005" fill="white"/>
<circle cx="14.2046" cy="18.6138" r="0.522005" fill="white"/>
<circle cx="27.2544" cy="18.6138" r="0.522005" fill="white"/>
<circle cx="19.4253" cy="18.6133" r="0.522005" fill="white"/>
<circle cx="11.5952" cy="18.6133" r="0.522005" fill="white"/>
<circle cx="37.6953" cy="16.0035" r="0.522005" fill="white"/>
<circle cx="35.085" cy="16.0035" r="0.522005" fill="white"/>
<circle cx="37.6944" cy="18.6143" r="0.522005" fill="white"/>
<circle cx="35.085" cy="18.6138" r="0.522005" fill="white"/>
</g>
<g opacity="0.3">
<circle cx="32.4751" cy="5.56302" r="0.522005" fill="white"/>
<circle cx="24.6455" cy="5.56253" r="0.522005" fill="white"/>
<circle cx="16.816" cy="5.56253" r="0.522005" fill="white"/>
<circle cx="29.8648" cy="5.56302" r="0.522005" fill="white"/>
<circle cx="22.0357" cy="5.56253" r="0.522005" fill="white"/>
<circle cx="14.2056" cy="5.56253" r="0.522005" fill="white"/>
<circle cx="27.2559" cy="5.56253" r="0.522005" fill="white"/>
<circle cx="19.4253" cy="5.56253" r="0.522005" fill="white"/>
<circle cx="11.5952" cy="5.56253" r="0.522005" fill="white"/>
<circle cx="32.4746" cy="8.17288" r="0.522005" fill="white"/>
<circle cx="24.6455" cy="8.1724" r="0.522005" fill="white"/>
<circle cx="16.8155" cy="8.1724" r="0.522005" fill="white"/>
<circle cx="29.8658" cy="8.1724" r="0.522005" fill="white"/>
<circle cx="22.0352" cy="8.17288" r="0.522005" fill="white"/>
<circle cx="14.2051" cy="8.1724" r="0.522005" fill="white"/>
<circle cx="27.2554" cy="8.1724" r="0.522005" fill="white"/>
<circle cx="19.4253" cy="8.1724" r="0.522005" fill="white"/>
<circle cx="11.5952" cy="8.17288" r="0.522005" fill="white"/>
<circle cx="37.6958" cy="5.56253" r="0.522005" fill="white"/>
<circle cx="35.0855" cy="5.56253" r="0.522005" fill="white"/>
<circle cx="37.6953" cy="8.17288" r="0.522005" fill="white"/>
<circle cx="35.0855" cy="8.17288" r="0.522005" fill="white"/>
</g>
<g opacity="0.3">
<circle cx="32.4761" cy="21.2232" r="0.522005" fill="white"/>
<circle cx="24.646" cy="21.2232" r="0.522005" fill="white"/>
<circle cx="16.816" cy="21.2237" r="0.522005" fill="white"/>
<circle cx="29.8662" cy="21.2232" r="0.522005" fill="white"/>
<circle cx="22.0357" cy="21.2237" r="0.522005" fill="white"/>
<circle cx="14.2066" cy="21.2227" r="0.522005" fill="white"/>
<circle cx="27.2559" cy="21.2232" r="0.522005" fill="white"/>
<circle cx="19.4258" cy="21.2232" r="0.522005" fill="white"/>
<circle cx="11.5962" cy="21.2227" r="0.522005" fill="white"/>
<circle cx="32.4761" cy="23.8335" r="0.522005" fill="white"/>
<circle cx="24.6455" cy="23.8335" r="0.522005" fill="white"/>
<circle cx="16.8164" cy="23.833" r="0.522005" fill="white"/>
<circle cx="29.8662" cy="23.8335" r="0.522005" fill="white"/>
<circle cx="22.0357" cy="23.8335" r="0.522005" fill="white"/>
<circle cx="14.2066" cy="23.833" r="0.522005" fill="white"/>
<circle cx="27.2559" cy="23.8335" r="0.522005" fill="white"/>
<circle cx="19.4258" cy="23.8335" r="0.522005" fill="white"/>
<circle cx="11.5962" cy="23.833" r="0.522005" fill="white"/>
<circle cx="37.6963" cy="21.2227" r="0.522005" fill="white"/>
<circle cx="35.086" cy="21.2227" r="0.522005" fill="white"/>
<circle cx="37.6958" cy="23.8335" r="0.522005" fill="white"/>
<circle cx="35.086" cy="23.833" r="0.522005" fill="white"/>
</g>
<g opacity="0.3">
<circle cx="32.4761" cy="10.7823" r="0.522005" fill="white"/>
<circle cx="24.646" cy="10.7823" r="0.522005" fill="white"/>
<circle cx="16.816" cy="10.7827" r="0.522005" fill="white"/>
<circle cx="29.8662" cy="10.7823" r="0.522005" fill="white"/>
<circle cx="22.0357" cy="10.7827" r="0.522005" fill="white"/>
<circle cx="14.2066" cy="10.7818" r="0.522005" fill="white"/>
<circle cx="27.2559" cy="10.7823" r="0.522005" fill="white"/>
<circle cx="19.4258" cy="10.7823" r="0.522005" fill="white"/>
<circle cx="11.5962" cy="10.7818" r="0.522005" fill="white"/>
<circle cx="32.4761" cy="13.3926" r="0.522005" fill="white"/>
<circle cx="24.6455" cy="13.3926" r="0.522005" fill="white"/>
<circle cx="16.8164" cy="13.3921" r="0.522005" fill="white"/>
<circle cx="29.8662" cy="13.3926" r="0.522005" fill="white"/>
<circle cx="22.0357" cy="13.3926" r="0.522005" fill="white"/>
<circle cx="14.2066" cy="13.3921" r="0.522005" fill="white"/>
<circle cx="27.2559" cy="13.3926" r="0.522005" fill="white"/>
<circle cx="19.4258" cy="13.3926" r="0.522005" fill="white"/>
<circle cx="11.5962" cy="13.3921" r="0.522005" fill="white"/>
<circle cx="37.6968" cy="10.7823" r="0.522005" fill="white"/>
<circle cx="35.0865" cy="10.7823" r="0.522005" fill="white"/>
<circle cx="37.6968" cy="13.3926" r="0.522005" fill="white"/>
<circle cx="35.0865" cy="13.3926" r="0.522005" fill="white"/>
</g>
<g opacity="0.3">
<circle cx="32.4756" cy="26.4429" r="0.522005" fill="white"/>
<circle cx="24.6451" cy="26.4434" r="0.522005" fill="white"/>
<circle cx="16.8155" cy="26.4429" r="0.522005" fill="white"/>
<circle cx="29.8653" cy="26.4434" r="0.522005" fill="white"/>
<circle cx="22.0352" cy="26.4429" r="0.522005" fill="white"/>
<circle cx="14.2056" cy="26.4429" r="0.522005" fill="white"/>
<circle cx="27.2554" cy="26.4434" r="0.522005" fill="white"/>
<circle cx="19.4253" cy="26.4434" r="0.522005" fill="white"/>
<circle cx="11.5952" cy="26.4429" r="0.522005" fill="white"/>
<circle cx="32.4756" cy="29.0533" r="0.522005" fill="white"/>
<circle cx="24.6455" cy="29.0533" r="0.522005" fill="white"/>
<circle cx="16.8155" cy="29.0533" r="0.522005" fill="white"/>
<circle cx="29.8658" cy="29.0528" r="0.522005" fill="white"/>
<circle cx="22.0352" cy="29.0533" r="0.522005" fill="white"/>
<circle cx="14.2056" cy="29.0533" r="0.522005" fill="white"/>
<circle cx="27.2549" cy="29.0533" r="0.522005" fill="white"/>
<circle cx="19.4258" cy="29.0528" r="0.522005" fill="white"/>
<circle cx="11.5952" cy="29.0533" r="0.522005" fill="white"/>
<circle cx="37.6958" cy="26.4429" r="0.522005" fill="white"/>
<circle cx="35.0855" cy="26.4429" r="0.522005" fill="white"/>
<circle cx="37.6953" cy="29.0528" r="0.522005" fill="white"/>
<circle cx="35.0855" cy="29.0533" r="0.522005" fill="white"/>
</g>
<g opacity="0.3">
<circle cx="32.4742" cy="31.6641" r="0.522005" fill="white"/>
<circle cx="24.6446" cy="31.6636" r="0.522005" fill="white"/>
<circle cx="16.8145" cy="31.6636" r="0.522005" fill="white"/>
<circle cx="29.8648" cy="31.6636" r="0.522005" fill="white"/>
<circle cx="22.0337" cy="31.6646" r="0.522005" fill="white"/>
<circle cx="14.2046" cy="31.6636" r="0.522005" fill="white"/>
<circle cx="27.2539" cy="31.6646" r="0.522005" fill="white"/>
<circle cx="19.4243" cy="31.6641" r="0.522005" fill="white"/>
<circle cx="11.5943" cy="31.6641" r="0.522005" fill="white"/>
<circle cx="32.4746" cy="34.2735" r="0.522005" fill="white"/>
<circle cx="24.6446" cy="34.274" r="0.522005" fill="white"/>
<circle cx="16.8145" cy="34.274" r="0.522005" fill="white"/>
<circle cx="29.8648" cy="34.2735" r="0.522005" fill="white"/>
<circle cx="22.0342" cy="34.274" r="0.522005" fill="white"/>
<circle cx="14.2041" cy="34.274" r="0.522005" fill="white"/>
<circle cx="27.2544" cy="34.2735" r="0.522005" fill="white"/>
<circle cx="19.4248" cy="34.2735" r="0.522005" fill="white"/>
<circle cx="11.5943" cy="34.274" r="0.522005" fill="white"/>
<circle cx="37.6944" cy="31.6641" r="0.522005" fill="white"/>
<circle cx="35.084" cy="31.6641" r="0.522005" fill="white"/>
<circle cx="37.6944" cy="34.2744" r="0.522005" fill="white"/>
<circle cx="35.084" cy="34.2744" r="0.522005" fill="white"/>
</g>
<g opacity="0.3">
<circle cx="32.4746" cy="36.8833" r="0.522005" fill="white"/>
<circle cx="24.6451" cy="36.8828" r="0.522005" fill="white"/>
<circle cx="16.815" cy="36.8828" r="0.522005" fill="white"/>
<circle cx="29.8648" cy="36.8838" r="0.522005" fill="white"/>
<circle cx="22.0342" cy="36.8838" r="0.522005" fill="white"/>
<circle cx="14.2051" cy="36.8828" r="0.522005" fill="white"/>
<circle cx="27.2544" cy="36.8838" r="0.522005" fill="white"/>
<circle cx="19.4248" cy="36.8828" r="0.522005" fill="white"/>
<circle cx="11.5948" cy="36.8828" r="0.522005" fill="white"/>
<circle cx="32.4746" cy="39.4932" r="0.522005" fill="white"/>
<circle cx="24.6451" cy="39.4932" r="0.522005" fill="white"/>
<circle cx="16.815" cy="39.4927" r="0.522005" fill="white"/>
<circle cx="29.8653" cy="39.4927" r="0.522005" fill="white"/>
<circle cx="22.0347" cy="39.4932" r="0.522005" fill="white"/>
<circle cx="14.2046" cy="39.4927" r="0.522005" fill="white"/>
<circle cx="27.2549" cy="39.4927" r="0.522005" fill="white"/>
<circle cx="19.4248" cy="39.4927" r="0.522005" fill="white"/>
<circle cx="11.5948" cy="39.4932" r="0.522005" fill="white"/>
<circle cx="37.6958" cy="36.8824" r="0.522005" fill="white"/>
<circle cx="35.0855" cy="36.8824" r="0.522005" fill="white"/>
<circle cx="37.6953" cy="39.4927" r="0.522005" fill="white"/>
<circle cx="35.0855" cy="39.4927" r="0.522005" fill="white"/>
</g>
<g opacity="0.3">
<circle cx="8.98538" cy="0.343783" r="0.522005" fill="white"/>
<circle cx="1.15579" cy="0.343295" r="0.522005" fill="white"/>
<circle cx="6.37601" cy="0.343295" r="0.522005" fill="white"/>
<circle cx="3.76517" cy="0.344271" r="0.522005" fill="white"/>
<circle cx="8.98587" cy="2.95316" r="0.522005" fill="white"/>
<circle cx="1.15579" cy="2.95365" r="0.522005" fill="white"/>
<circle cx="6.37601" cy="2.95316" r="0.522005" fill="white"/>
<circle cx="3.76566" cy="2.95316" r="0.522005" fill="white"/>
</g>
<g opacity="0.3">
<circle cx="8.9849" cy="16.0039" r="0.522005" fill="white"/>
<circle cx="1.15531" cy="16.0035" r="0.522005" fill="white"/>
<circle cx="6.37454" cy="16.0039" r="0.522005" fill="white"/>
<circle cx="3.76468" cy="16.0044" r="0.522005" fill="white"/>
<circle cx="8.9849" cy="18.6143" r="0.522005" fill="white"/>
<circle cx="1.15433" cy="18.6148" r="0.522005" fill="white"/>
<circle cx="6.37454" cy="18.6143" r="0.522005" fill="white"/>
<circle cx="3.76419" cy="18.6143" r="0.522005" fill="white"/>
</g>
<g opacity="0.3">
<circle cx="8.98441" cy="5.56351" r="0.522005" fill="white"/>
<circle cx="1.15482" cy="5.56302" r="0.522005" fill="white"/>
<circle cx="6.37454" cy="5.564" r="0.522005" fill="white"/>
<circle cx="3.76517" cy="5.56302" r="0.522005" fill="white"/>
<circle cx="8.98441" cy="8.17337" r="0.522005" fill="white"/>
<circle cx="1.15482" cy="8.17337" r="0.522005" fill="white"/>
<circle cx="6.37503" cy="8.17288" r="0.522005" fill="white"/>
<circle cx="3.76517" cy="8.17337" r="0.522005" fill="white"/>
</g>
<g opacity="0.3">
<circle cx="8.98538" cy="21.2232" r="0.522005" fill="white"/>
<circle cx="1.15531" cy="21.2232" r="0.522005" fill="white"/>
<circle cx="6.37552" cy="21.2232" r="0.522005" fill="white"/>
<circle cx="3.76517" cy="21.2232" r="0.522005" fill="white"/>
<circle cx="8.98538" cy="23.8335" r="0.522005" fill="white"/>
<circle cx="1.15531" cy="23.8335" r="0.522005" fill="white"/>
<circle cx="6.37552" cy="23.8335" r="0.522005" fill="white"/>
<circle cx="3.76517" cy="23.8335" r="0.522005" fill="white"/>
</g>
<g opacity="0.3">
<circle cx="8.98441" cy="10.7837" r="0.522005" fill="white"/>
<circle cx="1.15433" cy="10.7837" r="0.522005" fill="white"/>
<circle cx="6.37454" cy="10.7837" r="0.522005" fill="white"/>
<circle cx="3.7637" cy="10.7837" r="0.522005" fill="white"/>
<circle cx="8.98441" cy="13.3941" r="0.522005" fill="white"/>
<circle cx="1.15433" cy="13.3941" r="0.522005" fill="white"/>
<circle cx="6.37406" cy="13.3941" r="0.522005" fill="white"/>
<circle cx="3.7637" cy="13.3941" r="0.522005" fill="white"/>
</g>
<g opacity="0.3">
<circle cx="8.98538" cy="26.4439" r="0.522005" fill="white"/>
<circle cx="1.15579" cy="26.4434" r="0.522005" fill="white"/>
<circle cx="6.37552" cy="26.4439" r="0.522005" fill="white"/>
<circle cx="3.76517" cy="26.4444" r="0.522005" fill="white"/>
<circle cx="8.98538" cy="29.0542" r="0.522005" fill="white"/>
<circle cx="1.15579" cy="29.0537" r="0.522005" fill="white"/>
<circle cx="6.37601" cy="29.0533" r="0.522005" fill="white"/>
<circle cx="3.76566" cy="29.0533" r="0.522005" fill="white"/>
</g>
<g opacity="0.3">
<circle cx="8.9849" cy="31.6636" r="0.522005" fill="white"/>
<circle cx="1.15482" cy="31.6636" r="0.522005" fill="white"/>
<circle cx="6.37503" cy="31.6636" r="0.522005" fill="white"/>
<circle cx="3.76419" cy="31.6636" r="0.522005" fill="white"/>
<circle cx="8.9849" cy="34.2735" r="0.522005" fill="white"/>
<circle cx="1.15433" cy="34.2735" r="0.522005" fill="white"/>
<circle cx="6.37503" cy="34.2735" r="0.522005" fill="white"/>
<circle cx="3.76468" cy="34.2735" r="0.522005" fill="white"/>
</g>
<g opacity="0.3">
<circle cx="8.9849" cy="36.8838" r="0.522005" fill="white"/>
<circle cx="1.15531" cy="36.8838" r="0.522005" fill="white"/>
<circle cx="6.37454" cy="36.8843" r="0.522005" fill="white"/>
<circle cx="3.76468" cy="36.8843" r="0.522005" fill="white"/>
<circle cx="8.9849" cy="39.4942" r="0.522005" fill="white"/>
<circle cx="1.15531" cy="39.4937" r="0.522005" fill="white"/>
<circle cx="6.37552" cy="39.4932" r="0.522005" fill="white"/>
<circle cx="3.76517" cy="39.4932" r="0.522005" fill="white"/>
</g>
</g>
</svg>
