<svg width="350" height="4" viewBox="0 0 350 4" fill="none" xmlns="http://www.w3.org/2000/svg">
<g opacity="0.2">
<ellipse cx="112.191" cy="0.480316" rx="0.46568" ry="0.480316" fill="white"/>
<ellipse cx="105.206" cy="0.480316" rx="0.46568" ry="0.480316" fill="white"/>
<ellipse cx="116.848" cy="0.480316" rx="0.46568" ry="0.480316" fill="white"/>
<ellipse cx="109.862" cy="0.480316" rx="0.46568" ry="0.480316" fill="white"/>
<ellipse cx="102.877" cy="0.480316" rx="0.46568" ry="0.480316" fill="white"/>
<ellipse cx="114.519" cy="0.480316" rx="0.46568" ry="0.480316" fill="white"/>
<ellipse cx="107.534" cy="0.480316" rx="0.46568" ry="0.480316" fill="white"/>
<ellipse cx="100.549" cy="0.480316" rx="0.46568" ry="0.480316" fill="white"/>
<ellipse cx="112.191" cy="2.88168" rx="0.46568" ry="0.480316" fill="white"/>
<ellipse cx="105.206" cy="2.88168" rx="0.46568" ry="0.480316" fill="white"/>
<ellipse cx="116.848" cy="2.88168" rx="0.46568" ry="0.480316" fill="white"/>
<ellipse cx="109.862" cy="2.88168" rx="0.46568" ry="0.480316" fill="white"/>
<ellipse cx="102.877" cy="2.88168" rx="0.46568" ry="0.480316" fill="white"/>
<ellipse cx="114.519" cy="2.88168" rx="0.46568" ry="0.480316" fill="white"/>
<ellipse cx="107.534" cy="2.88168" rx="0.46568" ry="0.480316" fill="white"/>
<ellipse cx="100.549" cy="2.88168" rx="0.46568" ry="0.480316" fill="white"/>
<ellipse cx="77.2645" cy="0.480316" rx="0.46568" ry="0.480316" fill="white"/>
<ellipse cx="70.2796" cy="0.480316" rx="0.46568" ry="0.480316" fill="white"/>
<ellipse cx="63.2943" cy="0.480316" rx="0.46568" ry="0.480316" fill="white"/>
<ellipse cx="74.9359" cy="0.480316" rx="0.46568" ry="0.480316" fill="white"/>
<ellipse cx="67.9515" cy="0.480316" rx="0.46568" ry="0.480316" fill="white"/>
<ellipse cx="60.9662" cy="0.480316" rx="0.46568" ry="0.480316" fill="white"/>
<ellipse cx="72.6078" cy="0.480316" rx="0.46568" ry="0.480316" fill="white"/>
<ellipse cx="65.6224" cy="0.480316" rx="0.46568" ry="0.480316" fill="white"/>
<ellipse cx="58.6376" cy="0.480316" rx="0.46568" ry="0.480316" fill="white"/>
<ellipse cx="77.2645" cy="2.88168" rx="0.46568" ry="0.480316" fill="white"/>
<ellipse cx="70.2796" cy="2.88168" rx="0.46568" ry="0.480316" fill="white"/>
<ellipse cx="63.2943" cy="2.88168" rx="0.46568" ry="0.480316" fill="white"/>
<ellipse cx="74.9359" cy="2.88168" rx="0.46568" ry="0.480316" fill="white"/>
<ellipse cx="67.9515" cy="2.88168" rx="0.46568" ry="0.480316" fill="white"/>
<ellipse cx="60.9662" cy="2.88168" rx="0.46568" ry="0.480316" fill="white"/>
<ellipse cx="72.6078" cy="2.88168" rx="0.46568" ry="0.480316" fill="white"/>
<ellipse cx="65.6224" cy="2.88168" rx="0.46568" ry="0.480316" fill="white"/>
<ellipse cx="58.6376" cy="2.88168" rx="0.46568" ry="0.480316" fill="white"/>
<ellipse cx="98.2201" cy="0.480316" rx="0.46568" ry="0.480316" fill="white"/>
<ellipse cx="91.2352" cy="0.480316" rx="0.46568" ry="0.480316" fill="white"/>
<ellipse cx="84.2499" cy="0.480316" rx="0.46568" ry="0.480316" fill="white"/>
<ellipse cx="95.892" cy="0.480316" rx="0.46568" ry="0.480316" fill="white"/>
<ellipse cx="88.9066" cy="0.480316" rx="0.46568" ry="0.480316" fill="white"/>
<ellipse cx="81.9217" cy="0.480316" rx="0.46568" ry="0.480316" fill="white"/>
<ellipse cx="93.5633" cy="0.480316" rx="0.46568" ry="0.480316" fill="white"/>
<ellipse cx="86.5785" cy="0.480316" rx="0.46568" ry="0.480316" fill="white"/>
<ellipse cx="79.5931" cy="0.480316" rx="0.46568" ry="0.480316" fill="white"/>
<ellipse cx="98.2201" cy="2.88168" rx="0.46568" ry="0.480316" fill="white"/>
<ellipse cx="91.2352" cy="2.88168" rx="0.46568" ry="0.480316" fill="white"/>
<ellipse cx="84.2499" cy="2.88168" rx="0.46568" ry="0.480316" fill="white"/>
<ellipse cx="95.892" cy="2.88168" rx="0.46568" ry="0.480316" fill="white"/>
<ellipse cx="88.9066" cy="2.88168" rx="0.46568" ry="0.480316" fill="white"/>
<ellipse cx="81.9217" cy="2.88168" rx="0.46568" ry="0.480316" fill="white"/>
<ellipse cx="93.5633" cy="2.88168" rx="0.46568" ry="0.480316" fill="white"/>
<ellipse cx="86.5785" cy="2.88168" rx="0.46568" ry="0.480316" fill="white"/>
<ellipse cx="79.5931" cy="2.88168" rx="0.46568" ry="0.480316" fill="white"/>
<ellipse cx="54.0194" cy="0.480316" rx="0.46568" ry="0.480316" fill="white"/>
<ellipse cx="47.034" cy="0.480316" rx="0.46568" ry="0.480316" fill="white"/>
<ellipse cx="58.6756" cy="0.480316" rx="0.46568" ry="0.480316" fill="white"/>
<ellipse cx="51.6903" cy="0.480316" rx="0.46568" ry="0.480316" fill="white"/>
<ellipse cx="44.7059" cy="0.480316" rx="0.46568" ry="0.480316" fill="white"/>
<ellipse cx="56.3475" cy="0.480316" rx="0.46568" ry="0.480316" fill="white"/>
<ellipse cx="49.3617" cy="0.480316" rx="0.46568" ry="0.480316" fill="white"/>
<ellipse cx="42.3768" cy="0.480316" rx="0.46568" ry="0.480316" fill="white"/>
<ellipse cx="54.0194" cy="2.88217" rx="0.46568" ry="0.480316" fill="white"/>
<ellipse cx="47.034" cy="2.88217" rx="0.46568" ry="0.480316" fill="white"/>
<ellipse cx="58.6756" cy="2.88217" rx="0.46568" ry="0.480316" fill="white"/>
<ellipse cx="51.6903" cy="2.88217" rx="0.46568" ry="0.480316" fill="white"/>
<ellipse cx="44.7059" cy="2.88217" rx="0.46568" ry="0.480316" fill="white"/>
<ellipse cx="56.3475" cy="2.88217" rx="0.46568" ry="0.480316" fill="white"/>
<ellipse cx="49.3617" cy="2.88217" rx="0.46568" ry="0.480316" fill="white"/>
<ellipse cx="42.3768" cy="2.88217" rx="0.46568" ry="0.480316" fill="white"/>
<ellipse cx="19.0926" cy="0.480316" rx="0.46568" ry="0.480316" fill="white"/>
<ellipse cx="12.1078" cy="0.480316" rx="0.46568" ry="0.480316" fill="white"/>
<ellipse cx="5.12242" cy="0.480316" rx="0.46568" ry="0.480316" fill="white"/>
<ellipse cx="16.7645" cy="0.480316" rx="0.46568" ry="0.480316" fill="white"/>
<ellipse cx="9.77964" cy="0.480316" rx="0.46568" ry="0.480316" fill="white"/>
<ellipse cx="2.79429" cy="0.480316" rx="0.46568" ry="0.480316" fill="white"/>
<ellipse cx="14.4359" cy="0.480316" rx="0.46568" ry="0.480316" fill="white"/>
<ellipse cx="7.45103" cy="0.480316" rx="0.46568" ry="0.480316" fill="white"/>
<ellipse cx="0.46568" cy="0.480316" rx="0.46568" ry="0.480316" fill="white"/>
<ellipse cx="19.0926" cy="2.88168" rx="0.46568" ry="0.480316" fill="white"/>
<ellipse cx="12.1078" cy="2.88168" rx="0.46568" ry="0.480316" fill="white"/>
<ellipse cx="5.12242" cy="2.88168" rx="0.46568" ry="0.480316" fill="white"/>
<ellipse cx="16.7645" cy="2.88168" rx="0.46568" ry="0.480316" fill="white"/>
<ellipse cx="9.77964" cy="2.88168" rx="0.46568" ry="0.480316" fill="white"/>
<ellipse cx="2.79429" cy="2.88168" rx="0.46568" ry="0.480316" fill="white"/>
<ellipse cx="14.4359" cy="2.88168" rx="0.46568" ry="0.480316" fill="white"/>
<ellipse cx="7.45103" cy="2.88168" rx="0.46568" ry="0.480316" fill="white"/>
<ellipse cx="0.46568" cy="2.88168" rx="0.46568" ry="0.480316" fill="white"/>
<ellipse cx="40.0482" cy="0.480316" rx="0.46568" ry="0.480316" fill="white"/>
<ellipse cx="33.0633" cy="0.480316" rx="0.46568" ry="0.480316" fill="white"/>
<ellipse cx="26.0785" cy="0.480316" rx="0.46568" ry="0.480316" fill="white"/>
<ellipse cx="37.7201" cy="0.480316" rx="0.46568" ry="0.480316" fill="white"/>
<ellipse cx="30.7347" cy="0.480316" rx="0.46568" ry="0.480316" fill="white"/>
<ellipse cx="23.7499" cy="0.480316" rx="0.46568" ry="0.480316" fill="white"/>
<ellipse cx="35.3919" cy="0.480316" rx="0.46568" ry="0.480316" fill="white"/>
<ellipse cx="28.4066" cy="0.480316" rx="0.46568" ry="0.480316" fill="white"/>
<ellipse cx="21.4212" cy="0.480316" rx="0.46568" ry="0.480316" fill="white"/>
<ellipse cx="40.0482" cy="2.88217" rx="0.46568" ry="0.480316" fill="white"/>
<ellipse cx="33.0633" cy="2.88217" rx="0.46568" ry="0.480316" fill="white"/>
<ellipse cx="26.0785" cy="2.88217" rx="0.46568" ry="0.480316" fill="white"/>
<ellipse cx="37.7201" cy="2.88217" rx="0.46568" ry="0.480316" fill="white"/>
<ellipse cx="30.7347" cy="2.88217" rx="0.46568" ry="0.480316" fill="white"/>
<ellipse cx="23.7499" cy="2.88217" rx="0.46568" ry="0.480316" fill="white"/>
<ellipse cx="35.3919" cy="2.88217" rx="0.46568" ry="0.480316" fill="white"/>
<ellipse cx="28.4066" cy="2.88217" rx="0.46568" ry="0.480316" fill="white"/>
<ellipse cx="21.4212" cy="2.88217" rx="0.46568" ry="0.480316" fill="white"/>
<ellipse cx="228.534" cy="0.480316" rx="0.46568" ry="0.480316" fill="white"/>
<ellipse cx="221.549" cy="0.480316" rx="0.46568" ry="0.480316" fill="white"/>
<ellipse cx="233.191" cy="0.480316" rx="0.46568" ry="0.480316" fill="white"/>
<ellipse cx="226.205" cy="0.480316" rx="0.46568" ry="0.480316" fill="white"/>
<ellipse cx="219.221" cy="0.480316" rx="0.46568" ry="0.480316" fill="white"/>
<ellipse cx="230.863" cy="0.480316" rx="0.46568" ry="0.480316" fill="white"/>
<ellipse cx="223.877" cy="0.480316" rx="0.46568" ry="0.480316" fill="white"/>
<ellipse cx="216.892" cy="0.480316" rx="0.46568" ry="0.480316" fill="white"/>
<ellipse cx="228.534" cy="2.88168" rx="0.46568" ry="0.480316" fill="white"/>
<ellipse cx="221.549" cy="2.88168" rx="0.46568" ry="0.480316" fill="white"/>
<ellipse cx="233.191" cy="2.88168" rx="0.46568" ry="0.480316" fill="white"/>
<ellipse cx="226.205" cy="2.88168" rx="0.46568" ry="0.480316" fill="white"/>
<ellipse cx="219.221" cy="2.88168" rx="0.46568" ry="0.480316" fill="white"/>
<ellipse cx="230.863" cy="2.88168" rx="0.46568" ry="0.480316" fill="white"/>
<ellipse cx="223.877" cy="2.88168" rx="0.46568" ry="0.480316" fill="white"/>
<ellipse cx="216.892" cy="2.88168" rx="0.46568" ry="0.480316" fill="white"/>
<ellipse cx="193.608" cy="0.480316" rx="0.46568" ry="0.480316" fill="white"/>
<ellipse cx="186.623" cy="0.480316" rx="0.46568" ry="0.480316" fill="white"/>
<ellipse cx="179.638" cy="0.480316" rx="0.46568" ry="0.480316" fill="white"/>
<ellipse cx="191.279" cy="0.480316" rx="0.46568" ry="0.480316" fill="white"/>
<ellipse cx="184.295" cy="0.480316" rx="0.46568" ry="0.480316" fill="white"/>
<ellipse cx="177.309" cy="0.480316" rx="0.46568" ry="0.480316" fill="white"/>
<ellipse cx="188.951" cy="0.480316" rx="0.46568" ry="0.480316" fill="white"/>
<ellipse cx="181.966" cy="0.480316" rx="0.46568" ry="0.480316" fill="white"/>
<ellipse cx="174.981" cy="0.480316" rx="0.46568" ry="0.480316" fill="white"/>
<ellipse cx="193.608" cy="2.88168" rx="0.46568" ry="0.480316" fill="white"/>
<ellipse cx="186.623" cy="2.88168" rx="0.46568" ry="0.480316" fill="white"/>
<ellipse cx="179.638" cy="2.88168" rx="0.46568" ry="0.480316" fill="white"/>
<ellipse cx="191.279" cy="2.88168" rx="0.46568" ry="0.480316" fill="white"/>
<ellipse cx="184.295" cy="2.88168" rx="0.46568" ry="0.480316" fill="white"/>
<ellipse cx="177.309" cy="2.88168" rx="0.46568" ry="0.480316" fill="white"/>
<ellipse cx="188.951" cy="2.88168" rx="0.46568" ry="0.480316" fill="white"/>
<ellipse cx="181.966" cy="2.88168" rx="0.46568" ry="0.480316" fill="white"/>
<ellipse cx="174.981" cy="2.88168" rx="0.46568" ry="0.480316" fill="white"/>
<ellipse cx="214.563" cy="0.480316" rx="0.46568" ry="0.480316" fill="white"/>
<ellipse cx="207.578" cy="0.480316" rx="0.46568" ry="0.480316" fill="white"/>
<ellipse cx="200.593" cy="0.480316" rx="0.46568" ry="0.480316" fill="white"/>
<ellipse cx="212.235" cy="0.480316" rx="0.46568" ry="0.480316" fill="white"/>
<ellipse cx="205.25" cy="0.480316" rx="0.46568" ry="0.480316" fill="white"/>
<ellipse cx="198.265" cy="0.480316" rx="0.46568" ry="0.480316" fill="white"/>
<ellipse cx="209.907" cy="0.480316" rx="0.46568" ry="0.480316" fill="white"/>
<ellipse cx="202.922" cy="0.480316" rx="0.46568" ry="0.480316" fill="white"/>
<ellipse cx="195.936" cy="0.480316" rx="0.46568" ry="0.480316" fill="white"/>
<ellipse cx="214.563" cy="2.88168" rx="0.46568" ry="0.480316" fill="white"/>
<ellipse cx="207.578" cy="2.88168" rx="0.46568" ry="0.480316" fill="white"/>
<ellipse cx="200.593" cy="2.88168" rx="0.46568" ry="0.480316" fill="white"/>
<ellipse cx="212.235" cy="2.88168" rx="0.46568" ry="0.480316" fill="white"/>
<ellipse cx="205.25" cy="2.88168" rx="0.46568" ry="0.480316" fill="white"/>
<ellipse cx="198.265" cy="2.88168" rx="0.46568" ry="0.480316" fill="white"/>
<ellipse cx="209.907" cy="2.88168" rx="0.46568" ry="0.480316" fill="white"/>
<ellipse cx="202.922" cy="2.88168" rx="0.46568" ry="0.480316" fill="white"/>
<ellipse cx="195.936" cy="2.88168" rx="0.46568" ry="0.480316" fill="white"/>
<ellipse cx="170.363" cy="0.480316" rx="0.46568" ry="0.480316" fill="white"/>
<ellipse cx="163.377" cy="0.480316" rx="0.46568" ry="0.480316" fill="white"/>
<ellipse cx="175.019" cy="0.480316" rx="0.46568" ry="0.480316" fill="white"/>
<ellipse cx="168.034" cy="0.480316" rx="0.46568" ry="0.480316" fill="white"/>
<ellipse cx="161.049" cy="0.480316" rx="0.46568" ry="0.480316" fill="white"/>
<ellipse cx="172.691" cy="0.480316" rx="0.46568" ry="0.480316" fill="white"/>
<ellipse cx="165.705" cy="0.480316" rx="0.46568" ry="0.480316" fill="white"/>
<ellipse cx="158.721" cy="0.480316" rx="0.46568" ry="0.480316" fill="white"/>
<ellipse cx="170.363" cy="2.88217" rx="0.46568" ry="0.480316" fill="white"/>
<ellipse cx="163.377" cy="2.88217" rx="0.46568" ry="0.480316" fill="white"/>
<ellipse cx="175.019" cy="2.88217" rx="0.46568" ry="0.480316" fill="white"/>
<ellipse cx="168.034" cy="2.88217" rx="0.46568" ry="0.480316" fill="white"/>
<ellipse cx="161.049" cy="2.88217" rx="0.46568" ry="0.480316" fill="white"/>
<ellipse cx="172.691" cy="2.88217" rx="0.46568" ry="0.480316" fill="white"/>
<ellipse cx="165.705" cy="2.88217" rx="0.46568" ry="0.480316" fill="white"/>
<ellipse cx="158.721" cy="2.88217" rx="0.46568" ry="0.480316" fill="white"/>
<ellipse cx="135.436" cy="0.480316" rx="0.46568" ry="0.480316" fill="white"/>
<ellipse cx="128.451" cy="0.480316" rx="0.46568" ry="0.480316" fill="white"/>
<ellipse cx="121.466" cy="0.480316" rx="0.46568" ry="0.480316" fill="white"/>
<ellipse cx="133.108" cy="0.480316" rx="0.46568" ry="0.480316" fill="white"/>
<ellipse cx="126.123" cy="0.480316" rx="0.46568" ry="0.480316" fill="white"/>
<ellipse cx="119.138" cy="0.480316" rx="0.46568" ry="0.480316" fill="white"/>
<ellipse cx="130.78" cy="0.480316" rx="0.46568" ry="0.480316" fill="white"/>
<ellipse cx="123.794" cy="0.480316" rx="0.46568" ry="0.480316" fill="white"/>
<ellipse cx="116.809" cy="0.480316" rx="0.46568" ry="0.480316" fill="white"/>
<ellipse cx="135.436" cy="2.88168" rx="0.46568" ry="0.480316" fill="white"/>
<ellipse cx="128.451" cy="2.88168" rx="0.46568" ry="0.480316" fill="white"/>
<ellipse cx="121.466" cy="2.88168" rx="0.46568" ry="0.480316" fill="white"/>
<ellipse cx="133.108" cy="2.88168" rx="0.46568" ry="0.480316" fill="white"/>
<ellipse cx="126.123" cy="2.88168" rx="0.46568" ry="0.480316" fill="white"/>
<ellipse cx="119.138" cy="2.88168" rx="0.46568" ry="0.480316" fill="white"/>
<ellipse cx="130.78" cy="2.88168" rx="0.46568" ry="0.480316" fill="white"/>
<ellipse cx="123.794" cy="2.88168" rx="0.46568" ry="0.480316" fill="white"/>
<ellipse cx="116.809" cy="2.88168" rx="0.46568" ry="0.480316" fill="white"/>
<ellipse cx="156.391" cy="0.480316" rx="0.46568" ry="0.480316" fill="white"/>
<ellipse cx="149.407" cy="0.480316" rx="0.46568" ry="0.480316" fill="white"/>
<ellipse cx="142.422" cy="0.480316" rx="0.46568" ry="0.480316" fill="white"/>
<ellipse cx="154.063" cy="0.480316" rx="0.46568" ry="0.480316" fill="white"/>
<ellipse cx="147.078" cy="0.480316" rx="0.46568" ry="0.480316" fill="white"/>
<ellipse cx="140.094" cy="0.480316" rx="0.46568" ry="0.480316" fill="white"/>
<ellipse cx="151.735" cy="0.480316" rx="0.46568" ry="0.480316" fill="white"/>
<ellipse cx="144.75" cy="0.480316" rx="0.46568" ry="0.480316" fill="white"/>
<ellipse cx="137.765" cy="0.480316" rx="0.46568" ry="0.480316" fill="white"/>
<ellipse cx="156.391" cy="2.88217" rx="0.46568" ry="0.480316" fill="white"/>
<ellipse cx="149.407" cy="2.88217" rx="0.46568" ry="0.480316" fill="white"/>
<ellipse cx="142.422" cy="2.88217" rx="0.46568" ry="0.480316" fill="white"/>
<ellipse cx="154.063" cy="2.88217" rx="0.46568" ry="0.480316" fill="white"/>
<ellipse cx="147.078" cy="2.88217" rx="0.46568" ry="0.480316" fill="white"/>
<ellipse cx="140.094" cy="2.88217" rx="0.46568" ry="0.480316" fill="white"/>
<ellipse cx="151.735" cy="2.88217" rx="0.46568" ry="0.480316" fill="white"/>
<ellipse cx="144.75" cy="2.88217" rx="0.46568" ry="0.480316" fill="white"/>
<ellipse cx="137.765" cy="2.88217" rx="0.46568" ry="0.480316" fill="white"/>
<ellipse cx="344.878" cy="0.480316" rx="0.46568" ry="0.480316" fill="white"/>
<ellipse cx="337.892" cy="0.480316" rx="0.46568" ry="0.480316" fill="white"/>
<ellipse cx="349.534" cy="0.480316" rx="0.46568" ry="0.480316" fill="white"/>
<ellipse cx="342.549" cy="0.480316" rx="0.46568" ry="0.480316" fill="white"/>
<ellipse cx="335.564" cy="0.480316" rx="0.46568" ry="0.480316" fill="white"/>
<ellipse cx="347.206" cy="0.480316" rx="0.46568" ry="0.480316" fill="white"/>
<ellipse cx="340.221" cy="0.480316" rx="0.46568" ry="0.480316" fill="white"/>
<ellipse cx="333.235" cy="0.480316" rx="0.46568" ry="0.480316" fill="white"/>
<ellipse cx="344.878" cy="2.88168" rx="0.46568" ry="0.480316" fill="white"/>
<ellipse cx="337.892" cy="2.88168" rx="0.46568" ry="0.480316" fill="white"/>
<ellipse cx="349.534" cy="2.88168" rx="0.46568" ry="0.480316" fill="white"/>
<ellipse cx="342.549" cy="2.88168" rx="0.46568" ry="0.480316" fill="white"/>
<ellipse cx="335.564" cy="2.88168" rx="0.46568" ry="0.480316" fill="white"/>
<ellipse cx="347.206" cy="2.88168" rx="0.46568" ry="0.480316" fill="white"/>
<ellipse cx="340.221" cy="2.88168" rx="0.46568" ry="0.480316" fill="white"/>
<ellipse cx="333.235" cy="2.88168" rx="0.46568" ry="0.480316" fill="white"/>
<ellipse cx="309.951" cy="0.480316" rx="0.46568" ry="0.480316" fill="white"/>
<ellipse cx="302.967" cy="0.480316" rx="0.46568" ry="0.480316" fill="white"/>
<ellipse cx="295.981" cy="0.480316" rx="0.46568" ry="0.480316" fill="white"/>
<ellipse cx="307.623" cy="0.480316" rx="0.46568" ry="0.480316" fill="white"/>
<ellipse cx="300.638" cy="0.480316" rx="0.46568" ry="0.480316" fill="white"/>
<ellipse cx="293.653" cy="0.480316" rx="0.46568" ry="0.480316" fill="white"/>
<ellipse cx="305.295" cy="0.480316" rx="0.46568" ry="0.480316" fill="white"/>
<ellipse cx="298.309" cy="0.480316" rx="0.46568" ry="0.480316" fill="white"/>
<ellipse cx="291.324" cy="0.480316" rx="0.46568" ry="0.480316" fill="white"/>
<ellipse cx="309.951" cy="2.88168" rx="0.46568" ry="0.480316" fill="white"/>
<ellipse cx="302.967" cy="2.88168" rx="0.46568" ry="0.480316" fill="white"/>
<ellipse cx="295.981" cy="2.88168" rx="0.46568" ry="0.480316" fill="white"/>
<ellipse cx="307.623" cy="2.88168" rx="0.46568" ry="0.480316" fill="white"/>
<ellipse cx="300.638" cy="2.88168" rx="0.46568" ry="0.480316" fill="white"/>
<ellipse cx="293.653" cy="2.88168" rx="0.46568" ry="0.480316" fill="white"/>
<ellipse cx="305.295" cy="2.88168" rx="0.46568" ry="0.480316" fill="white"/>
<ellipse cx="298.309" cy="2.88168" rx="0.46568" ry="0.480316" fill="white"/>
<ellipse cx="291.324" cy="2.88168" rx="0.46568" ry="0.480316" fill="white"/>
<ellipse cx="330.907" cy="0.480316" rx="0.46568" ry="0.480316" fill="white"/>
<ellipse cx="323.922" cy="0.480316" rx="0.46568" ry="0.480316" fill="white"/>
<ellipse cx="316.937" cy="0.480316" rx="0.46568" ry="0.480316" fill="white"/>
<ellipse cx="328.578" cy="0.480316" rx="0.46568" ry="0.480316" fill="white"/>
<ellipse cx="321.594" cy="0.480316" rx="0.46568" ry="0.480316" fill="white"/>
<ellipse cx="314.608" cy="0.480316" rx="0.46568" ry="0.480316" fill="white"/>
<ellipse cx="326.25" cy="0.480316" rx="0.46568" ry="0.480316" fill="white"/>
<ellipse cx="319.265" cy="0.480316" rx="0.46568" ry="0.480316" fill="white"/>
<ellipse cx="312.28" cy="0.480316" rx="0.46568" ry="0.480316" fill="white"/>
<ellipse cx="330.907" cy="2.88168" rx="0.46568" ry="0.480316" fill="white"/>
<ellipse cx="323.922" cy="2.88168" rx="0.46568" ry="0.480316" fill="white"/>
<ellipse cx="316.937" cy="2.88168" rx="0.46568" ry="0.480316" fill="white"/>
<ellipse cx="328.578" cy="2.88168" rx="0.46568" ry="0.480316" fill="white"/>
<ellipse cx="321.594" cy="2.88168" rx="0.46568" ry="0.480316" fill="white"/>
<ellipse cx="314.608" cy="2.88168" rx="0.46568" ry="0.480316" fill="white"/>
<ellipse cx="326.25" cy="2.88168" rx="0.46568" ry="0.480316" fill="white"/>
<ellipse cx="319.265" cy="2.88168" rx="0.46568" ry="0.480316" fill="white"/>
<ellipse cx="312.28" cy="2.88168" rx="0.46568" ry="0.480316" fill="white"/>
<ellipse cx="286.706" cy="0.480316" rx="0.46568" ry="0.480316" fill="white"/>
<ellipse cx="279.721" cy="0.480316" rx="0.46568" ry="0.480316" fill="white"/>
<ellipse cx="291.362" cy="0.480316" rx="0.46568" ry="0.480316" fill="white"/>
<ellipse cx="284.378" cy="0.480316" rx="0.46568" ry="0.480316" fill="white"/>
<ellipse cx="277.392" cy="0.480316" rx="0.46568" ry="0.480316" fill="white"/>
<ellipse cx="289.034" cy="0.480316" rx="0.46568" ry="0.480316" fill="white"/>
<ellipse cx="282.049" cy="0.480316" rx="0.46568" ry="0.480316" fill="white"/>
<ellipse cx="275.064" cy="0.480316" rx="0.46568" ry="0.480316" fill="white"/>
<ellipse cx="286.706" cy="2.88217" rx="0.46568" ry="0.480316" fill="white"/>
<ellipse cx="279.721" cy="2.88217" rx="0.46568" ry="0.480316" fill="white"/>
<ellipse cx="291.362" cy="2.88217" rx="0.46568" ry="0.480316" fill="white"/>
<ellipse cx="284.378" cy="2.88217" rx="0.46568" ry="0.480316" fill="white"/>
<ellipse cx="277.392" cy="2.88217" rx="0.46568" ry="0.480316" fill="white"/>
<ellipse cx="289.034" cy="2.88217" rx="0.46568" ry="0.480316" fill="white"/>
<ellipse cx="282.049" cy="2.88217" rx="0.46568" ry="0.480316" fill="white"/>
<ellipse cx="275.064" cy="2.88217" rx="0.46568" ry="0.480316" fill="white"/>
<ellipse cx="251.779" cy="0.480316" rx="0.46568" ry="0.480316" fill="white"/>
<ellipse cx="244.795" cy="0.480316" rx="0.46568" ry="0.480316" fill="white"/>
<ellipse cx="237.809" cy="0.480316" rx="0.46568" ry="0.480316" fill="white"/>
<ellipse cx="249.451" cy="0.480316" rx="0.46568" ry="0.480316" fill="white"/>
<ellipse cx="242.466" cy="0.480316" rx="0.46568" ry="0.480316" fill="white"/>
<ellipse cx="235.481" cy="0.480316" rx="0.46568" ry="0.480316" fill="white"/>
<ellipse cx="247.123" cy="0.480316" rx="0.46568" ry="0.480316" fill="white"/>
<ellipse cx="240.138" cy="0.480316" rx="0.46568" ry="0.480316" fill="white"/>
<ellipse cx="233.152" cy="0.480316" rx="0.46568" ry="0.480316" fill="white"/>
<ellipse cx="251.779" cy="2.88168" rx="0.46568" ry="0.480316" fill="white"/>
<ellipse cx="244.795" cy="2.88168" rx="0.46568" ry="0.480316" fill="white"/>
<ellipse cx="237.809" cy="2.88168" rx="0.46568" ry="0.480316" fill="white"/>
<ellipse cx="249.451" cy="2.88168" rx="0.46568" ry="0.480316" fill="white"/>
<ellipse cx="242.466" cy="2.88168" rx="0.46568" ry="0.480316" fill="white"/>
<ellipse cx="235.481" cy="2.88168" rx="0.46568" ry="0.480316" fill="white"/>
<ellipse cx="247.123" cy="2.88168" rx="0.46568" ry="0.480316" fill="white"/>
<ellipse cx="240.138" cy="2.88168" rx="0.46568" ry="0.480316" fill="white"/>
<ellipse cx="233.152" cy="2.88168" rx="0.46568" ry="0.480316" fill="white"/>
<ellipse cx="272.735" cy="0.480316" rx="0.46568" ry="0.480316" fill="white"/>
<ellipse cx="265.751" cy="0.480316" rx="0.46568" ry="0.480316" fill="white"/>
<ellipse cx="258.765" cy="0.480316" rx="0.46568" ry="0.480316" fill="white"/>
<ellipse cx="270.407" cy="0.480316" rx="0.46568" ry="0.480316" fill="white"/>
<ellipse cx="263.422" cy="0.480316" rx="0.46568" ry="0.480316" fill="white"/>
<ellipse cx="256.437" cy="0.480316" rx="0.46568" ry="0.480316" fill="white"/>
<ellipse cx="268.078" cy="0.480316" rx="0.46568" ry="0.480316" fill="white"/>
<ellipse cx="261.093" cy="0.480316" rx="0.46568" ry="0.480316" fill="white"/>
<ellipse cx="254.108" cy="0.480316" rx="0.46568" ry="0.480316" fill="white"/>
<ellipse cx="272.735" cy="2.88217" rx="0.46568" ry="0.480316" fill="white"/>
<ellipse cx="265.751" cy="2.88217" rx="0.46568" ry="0.480316" fill="white"/>
<ellipse cx="258.765" cy="2.88217" rx="0.46568" ry="0.480316" fill="white"/>
<ellipse cx="270.407" cy="2.88217" rx="0.46568" ry="0.480316" fill="white"/>
<ellipse cx="263.422" cy="2.88217" rx="0.46568" ry="0.480316" fill="white"/>
<ellipse cx="256.437" cy="2.88217" rx="0.46568" ry="0.480316" fill="white"/>
<ellipse cx="268.078" cy="2.88217" rx="0.46568" ry="0.480316" fill="white"/>
<ellipse cx="261.093" cy="2.88217" rx="0.46568" ry="0.480316" fill="white"/>
<ellipse cx="254.108" cy="2.88217" rx="0.46568" ry="0.480316" fill="white"/>
</g>
</svg>
