<svg width="11" height="11" viewBox="0 0 11 11" fill="none" xmlns="http://www.w3.org/2000/svg">
<circle cx="5.5" cy="5.5" r="5" fill="url(#paint0_linear_3129_32398)" stroke="#F6F7F8"/>
<g clip-path="url(#clip0_3129_32398)">
<path d="M7.62861 4.16081C7.55739 3.39732 6.90619 3.13906 6.08303 3.06394V2.00412H5.44709V3.03307C5.2792 3.03307 5.10724 3.03307 4.93834 3.03307V2H4.30037V3.05983C4.163 3.05983 4.02666 3.05983 3.89337 3.05983H3.01425L3.01018 3.74923C3.01018 3.74923 3.48128 3.741 3.47314 3.74923C3.73158 3.74923 3.81604 3.90151 3.83944 4.03219V5.24019C3.86214 5.23889 3.8849 5.23889 3.90761 5.24019H3.8374L3.83232 6.939C3.82688 6.99825 3.79869 7.05299 3.75379 7.09146C3.7089 7.12994 3.65088 7.14908 3.59219 7.14479C3.60033 7.15199 3.12821 7.14479 3.12821 7.14479L3 7.91651H3.83028H4.28612V8.98868H4.92409V7.92886C5.0991 7.92886 5.26801 7.93503 5.43285 7.93503V8.99074H6.07082V7.92062C7.14326 7.87123 7.89418 7.59959 7.98575 6.58195C8.06309 5.75878 7.6805 5.39453 7.07 5.2443C7.44037 5.05395 7.67237 4.71954 7.61945 4.15978L7.62861 4.16081ZM6.73016 6.45024C6.73016 7.2518 5.37281 7.15714 4.94037 7.15611V5.73615C5.37281 5.73615 6.72914 5.61576 6.72711 6.45024H6.73016ZM6.43814 4.44686C6.43814 5.17536 5.30566 5.08687 4.94546 5.08687V3.79862C5.30871 3.79965 6.44017 3.68646 6.43814 4.44686Z" fill="white"/>
</g>
<defs>
<linearGradient id="paint0_linear_3129_32398" x1="5.5" y1="1" x2="5.5" y2="10" gradientUnits="userSpaceOnUse">
<stop stop-color="#F8931A"/>
<stop offset="1" stop-color="#CE7810"/>
</linearGradient>
<clipPath id="clip0_3129_32398">
<rect width="5" height="7" fill="white" transform="translate(3 2)"/>
</clipPath>
</defs>
</svg>
