<svg width="17" height="12" viewBox="0 0 17 12" fill="none" xmlns="http://www.w3.org/2000/svg">
<path d="M13.4999 3.49958L3.9099 3.49958L5.2099 2.20958C5.3982 2.02127 5.50399 1.76588 5.50399 1.49958C5.50399 1.23327 5.3982 0.977879 5.2099 0.789575C5.02159 0.601271 4.7662 0.495483 4.4999 0.495483C4.23359 0.495483 3.9782 0.601271 3.7899 0.789575L0.789896 3.78958C0.698856 3.88468 0.627491 3.99682 0.579896 4.11958C0.479878 4.36304 0.479878 4.63611 0.579896 4.87958C0.627491 5.00233 0.698856 5.11447 0.789896 5.20958L3.7899 8.20958C3.88286 8.3033 3.99346 8.3777 4.11532 8.42847C4.23718 8.47924 4.36788 8.50537 4.4999 8.50537C4.63191 8.50537 4.76261 8.47924 4.88447 8.42847C5.00633 8.3777 5.11693 8.3033 5.2099 8.20958C5.30363 8.11661 5.37802 8.00601 5.42879 7.88415C5.47956 7.76229 5.50569 7.63159 5.50569 7.49958C5.50569 7.36756 5.47956 7.23686 5.42879 7.115C5.37802 6.99314 5.30363 6.88254 5.2099 6.78958L3.9099 5.49958L13.4999 5.49958C13.7651 5.49958 14.0195 5.60493 14.207 5.79247C14.3945 5.98 14.4999 6.23436 14.4999 6.49958V10.4996C14.4999 10.7648 14.6053 11.0191 14.7928 11.2067C14.9803 11.3942 15.2347 11.4996 15.4999 11.4996C15.7651 11.4996 16.0195 11.3942 16.207 11.2067C16.3945 11.0191 16.4999 10.7648 16.4999 10.4996V6.49958C16.4999 5.70393 16.1838 4.94086 15.6212 4.37825C15.0586 3.81565 14.2955 3.49958 13.4999 3.49958Z" fill="black"/>
</svg>
