<svg width="119" height="158" viewBox="0 0 119 158" fill="none" xmlns="http://www.w3.org/2000/svg">
<path d="M24.4114 16.255C28.7424 17.4362 33.0735 18.2236 37.4045 19.4048C41.7356 20.586 46.0666 21.3735 50.3977 22.5547C51.5789 22.9484 51.9726 22.5547 52.3664 21.3735C53.9413 14.68 55.5162 8.38032 57.0911 1.68688C57.4849 0.505683 57.8786 0.11195 59.0598 0.505681C62.9971 1.68688 66.5407 2.47434 70.478 3.2618C71.6592 3.65554 71.6592 4.04927 71.2655 4.83673C69.6906 11.1364 68.1156 17.8299 66.5407 24.1296C66.5407 24.5233 66.5407 24.9171 66.147 25.7045C69.2968 26.492 72.8404 27.2795 75.9903 28.0669C76.384 28.0669 76.7777 27.2795 77.1715 26.8857C78.3527 21.7672 79.5339 17.0424 81.1088 11.9239C81.5025 10.349 81.8962 8.77405 82.29 7.19912C82.29 6.41166 82.6837 6.01793 83.4712 6.41166C87.4085 7.59286 91.3458 8.38032 95.6769 9.56152C96.0706 9.56152 96.0706 9.95525 96.4643 9.95525C95.2831 15.0738 94.1019 19.7985 92.9207 24.5233C92.527 26.492 92.1333 28.4606 91.3458 30.4293C90.9521 31.6105 91.3458 32.0042 92.527 32.398C96.8581 34.3666 101.189 36.3353 105.52 38.304C109.457 40.6663 113.001 43.8162 115.757 47.7535C119.301 53.6595 119.695 59.9592 118.12 66.2589C116.938 70.59 115.363 74.5273 112.214 77.6771C109.851 80.0395 106.701 81.6145 103.552 82.7957C103.158 82.7957 102.764 83.1894 101.977 83.1894C103.551 84.3706 105.126 85.1581 106.701 86.3392C111.426 89.8828 114.576 94.2139 116.151 99.7261C116.938 104.057 116.545 108.782 115.363 113.113C113.789 118.625 111.82 123.35 108.276 127.681C103.945 132.8 98.433 135.556 92.1333 136.343C83.8649 137.524 75.9903 136.737 68.1156 135.556C66.9344 135.162 66.147 135.556 65.7532 136.737C64.1783 143.037 62.6034 149.73 61.0285 156.03C60.6347 157.605 60.6347 157.998 58.6661 157.211C55.1225 156.424 51.1852 155.242 47.6416 154.455C46.4604 154.061 46.4604 153.667 46.8541 152.88C48.429 146.187 50.004 139.493 51.9726 133.193C51.9726 132.406 52.3664 132.012 51.5789 131.618C48.429 130.831 45.2792 130.043 41.7356 129.256C40.9481 132.8 39.7669 136.343 38.9795 139.887C38.192 143.43 37.0108 146.974 36.2233 150.518C35.8296 151.305 35.8296 151.699 34.6484 151.305C30.7111 150.124 26.7738 149.336 22.8365 148.549C21.6553 148.155 21.6553 147.761 22.049 146.974C23.6239 140.281 25.1988 133.587 27.1675 127.287C27.1675 126.894 27.5612 126.5 27.5612 125.712C18.5054 123.35 9.44957 120.988 0 118.625C0.787464 117.05 1.1812 115.869 1.96866 114.294C3.54359 110.751 5.11852 107.207 6.29971 104.057C6.69345 102.876 7.08718 102.876 8.26837 102.876C11.0245 103.663 14.1744 104.451 16.9305 104.845C20.0803 105.632 22.4427 104.057 22.8365 101.301C27.955 81.2207 33.0735 61.1404 37.7983 40.6663C38.5857 37.5165 36.6171 33.9729 33.0735 32.7917C29.5299 31.6105 25.9863 30.823 22.8365 30.0356C22.049 30.0356 21.6553 29.6418 22.049 28.8544C23.2302 24.5233 24.4114 19.7985 25.5926 15.4675C24.0176 16.6487 24.0177 16.6487 24.4114 16.255ZM44.4917 113.507C44.8854 113.507 45.2792 113.9 45.2792 113.9C51.5789 115.475 58.2723 117.444 64.9658 117.838C69.6906 118.232 74.0216 118.232 78.3527 116.657C85.8336 114.294 88.9834 104.451 84.6524 98.1512C82.6837 95.0014 79.5339 93.0327 76.384 91.064C69.2968 87.1267 61.0285 85.5518 53.1538 83.9769C51.9726 83.5831 51.9726 83.9769 51.5789 85.1581C50.7914 89.0954 49.6102 92.639 48.8228 96.5763C47.2478 102.089 46.0666 107.601 44.4917 113.507ZM77.5652 73.3461C78.3527 73.3461 80.3213 72.9524 81.8963 72.5586C89.3772 70.9837 93.3145 62.3216 89.3772 55.6282C87.4085 52.0846 83.8649 49.7222 80.3213 48.1473C74.8091 45.7849 69.2968 44.6037 63.3908 43.0287C62.2097 42.635 61.8159 43.0287 61.4222 44.2099C59.4535 52.4783 57.4849 60.3529 55.1225 68.6213C54.7287 69.4088 55.1225 69.8025 55.9099 70.1962C57.4849 70.59 58.6661 70.9837 60.241 71.3774C66.147 72.1649 71.2655 73.3461 77.5652 73.3461Z" fill="white"/>
</svg>
