<svg width="50" height="50" viewBox="0 0 50 50" fill="none" xmlns="http://www.w3.org/2000/svg">
<path fill-rule="evenodd" clip-rule="evenodd" d="M25 0C20.3108 0 16.3719 0.247998 13.1252 0.969562C9.85005 1.69744 7.1279 2.94001 5.03395 5.03395C2.94001 7.1279 1.69744 9.85005 0.969562 13.1252C0.247998 16.3719 0 20.3108 0 25C0 29.6892 0.247998 33.6281 0.969562 36.8748C1.69744 40.15 2.94001 42.8721 5.03395 44.966C7.1279 47.06 9.85005 48.3026 13.1252 49.0304C16.3719 49.752 20.3108 50 25 50C29.6892 50 33.6281 49.752 36.8748 49.0304C40.15 48.3026 42.8721 47.06 44.966 44.966C47.06 42.8721 48.3026 40.15 49.0304 36.8748C49.752 33.6281 50 29.6892 50 25C50 20.3108 49.752 16.3719 49.0304 13.1252C48.3026 9.85005 47.06 7.1279 44.966 5.03395C42.8721 2.94001 40.15 1.69744 36.8748 0.969562C33.6281 0.247998 29.6892 0 25 0ZM25.0001 10C26.3808 10 27.5001 11.1193 27.5001 12.5V12.7372C28.9871 13.0306 30.1786 13.5605 31.0893 14.1228C31.7675 14.5416 32.277 14.9699 32.6317 15.3135C32.9315 15.6038 33.0991 15.7966 33.2588 16.0118L33.2605 16.0141C34.0812 17.1244 33.8463 18.6898 32.736 19.5105C31.6404 20.3202 30.1002 20.1005 29.2712 19.028C29.2062 18.9529 28.6817 18.3475 27.5001 17.9123V22.7535C31.4884 23.5983 34.0624 26.4647 34.0624 30C34.0625 33.5353 31.4885 36.4018 27.5001 37.2465V37.5C27.5001 38.8807 26.3808 40 25.0001 40C23.6194 40 22.5001 38.8807 22.5001 37.5V37.2127C21.1862 36.9087 20.0788 36.4065 19.2284 35.9206C18.4275 35.4629 17.6379 34.9225 16.9823 34.2677C16.006 33.2914 16.006 31.7085 16.9823 30.7322C17.954 29.7606 19.5264 29.756 20.5038 30.7183C20.5475 30.7598 21.3587 31.4875 22.5001 31.9724V27.2465C18.5116 26.4019 15.9375 23.5353 15.9375 20C15.9375 16.4647 18.5116 13.5981 22.5001 12.7535V12.5C22.5001 11.1193 23.6194 10 25.0001 10Z" fill="#5BD1FF"/>
<path fill-rule="evenodd" clip-rule="evenodd" d="M27.813 28.1144C27.6704 28.0315 27.5 28.1405 27.5 28.3054V31.6947C27.5 31.8597 27.6704 31.9686 27.813 31.8858C28.8 31.312 29.0624 30.4749 29.0624 30.0001C29.0624 29.5252 28.8 28.6881 27.813 28.1144Z" fill="#5BD1FF"/>
<path fill-rule="evenodd" clip-rule="evenodd" d="M22.5001 18.3492C22.5001 18.1637 22.3083 18.0412 22.1492 18.1365C21.1931 18.7095 20.9375 19.5313 20.9375 20C20.9375 20.4688 21.1931 21.2905 22.1492 21.8635C22.3083 21.9588 22.5001 21.8363 22.5001 21.6508V18.3492Z" fill="#5BD1FF"/>
</svg>
