<svg width="50" height="50" viewBox="0 0 50 50" fill="none" xmlns="http://www.w3.org/2000/svg">
<path fill-rule="evenodd" clip-rule="evenodd" d="M12.5 1.20603e-05L12.3354 6.0998e-06C10.1192 -0.000118474 8.20968 -0.000225473 6.68053 0.205363C5.04174 0.425693 3.47087 0.922556 2.19671 2.19671C0.922556 3.47087 0.425693 5.04174 0.205363 6.68053C-0.000225473 8.20968 -0.000118474 10.1192 6.0998e-06 12.3354L1.20603e-05 12.5L6.0998e-06 37.6646C-0.000118474 39.8808 -0.000225473 41.7903 0.205363 43.3195C0.425693 44.9583 0.922556 46.5292 2.19671 47.8033C3.47087 49.0775 5.04174 49.5743 6.68053 49.7947C8.2097 50.0003 10.1193 50.0001 12.3355 50H37.6645C39.8808 50.0001 41.7903 50.0003 43.3195 49.7947C44.9583 49.5743 46.5292 49.0775 47.8033 47.8033C49.0775 46.5292 49.5743 44.9583 49.7947 43.3195C50.0003 41.7903 50.0001 39.8808 50 37.6645V12.3355C50.0001 10.1193 50.0003 8.2097 49.7947 6.68053C49.5743 5.04174 49.0775 3.47087 47.8033 2.19671C46.5292 0.922556 44.9583 0.425693 43.3195 0.205363C41.7903 -0.000225473 39.8808 -0.000118474 37.6646 6.0998e-06L12.5 1.20603e-05ZM7.5 31C6.67157 31 6 31.6716 6 32.5C6 33.3284 6.67157 34 7.5 34H11.4296C11.5968 34 11.7529 34.0835 11.8457 34.2226L15.6582 39.9415C16.3073 40.9151 17.4001 41.5 18.5704 41.5H31.4296C32.5999 41.5 33.6927 40.9151 34.3418 39.9415L38.1543 34.2226C38.2471 34.0835 38.4032 34 38.5704 34H42.5C43.3284 34 44 33.3284 44 32.5C44 31.6716 43.3284 31 42.5 31H38.5704C37.4001 31 36.3073 31.5849 35.6582 32.5585L31.8457 38.2774C31.7529 38.4165 31.5968 38.5 31.4296 38.5H18.5704C18.4032 38.5 18.2471 38.4165 18.1543 38.2774L14.3418 32.5585C13.6927 31.5849 12.5999 31 11.4296 31H7.5ZM26.5 25.1287L30.1893 21.4393C30.7751 20.8536 31.7249 20.8536 32.3107 21.4393C32.8964 22.0251 32.8964 22.9749 32.3107 23.5607L27.3107 28.5607C26.0345 29.8368 23.9655 29.8368 22.6893 28.5607L17.6893 23.5607C17.1036 22.9749 17.1036 22.0251 17.6893 21.4393C18.2751 20.8536 19.2249 20.8536 19.8107 21.4393L23.5 25.1287V15C23.5 14.1716 24.1716 13.5 25 13.5C25.8284 13.5 26.5 14.1716 26.5 15V25.1287Z" fill="#5BD1FF"/>
</svg>
