<svg width="50" height="46" viewBox="0 0 50 46" fill="none" xmlns="http://www.w3.org/2000/svg">
<path fill-rule="evenodd" clip-rule="evenodd" d="M49.2519 4.76777C50.2282 3.79146 50.2282 2.20854 49.2519 1.23223C48.2756 0.255922 46.6927 0.255922 45.7164 1.23223L37.4841 9.46447L34.2519 6.23223C33.2756 5.25592 31.6927 5.25592 30.7164 6.23223C29.7401 7.20854 29.7401 8.79146 30.7164 9.76777L34.4664 13.5178C36.133 15.1844 38.8352 15.1844 40.5019 13.5178L49.2519 4.76777ZM7.48413 19.25C7.48413 13.0368 12.5209 8 18.7341 8C24.9473 8 29.9841 13.0368 29.9841 19.25C29.9841 25.4632 24.9473 30.5 18.7341 30.5C12.5209 30.5 7.48413 25.4632 7.48413 19.25ZM6.587 34.7482C9.66791 33.4109 13.7103 33 18.734 33C23.7621 33 27.8073 33.4116 30.8895 34.7519C34.2467 36.2118 36.2871 38.6982 37.3566 42.2089C37.8579 43.8544 36.6218 45.5 34.9186 45.5H2.55415C0.848867 45.5 -0.389734 43.8521 0.113052 42.2036C1.18399 38.6922 3.22758 36.2064 6.587 34.7482Z" fill="#5BD1FF"/>
</svg>
