<svg width="141" height="141" viewBox="0 0 141 141" fill="none" xmlns="http://www.w3.org/2000/svg">
<path d="M141 70.6472C140.418 109.734 108.868 141.293 70.0655 140.998C30.6905 140.425 -0.573666 108.572 0.00748396 69.7799C0.580212 30.6935 32.1392 -0.284408 70.6467 0.00196962C109.727 0.296529 141 31.8472 141 70.6472ZM66.0143 95.8321V94.9648C68.0357 87.1508 69.7792 79.6231 71.809 71.8091C72.0954 71.2282 72.6765 70.3609 73.544 70.0663C75.5654 69.199 77.5952 68.3317 79.625 67.7507C84.2574 66.597 86.8683 63.9869 87.4411 59.3558C87.7274 57.3266 88.595 55.3056 89.1761 52.99C84.2574 55.011 79.9114 56.7538 75.279 58.4885C78.4627 46.0351 81.3601 34.4573 84.5437 22.2985H58.1983C56.4633 22.2985 55.8821 22.8713 55.301 24.6141L43.1389 69.7799C42.8104 70.6258 42.1996 71.3403 41.4039 71.8091C38.7929 72.9628 35.904 73.8301 33.3015 74.992C32.7203 75.2784 31.8528 75.5648 31.8528 75.8593C30.6905 79.6231 29.5366 83.6733 28.088 88.0181C32.1392 86.2835 35.6177 84.827 39.6689 83.387C37.0579 93.5165 34.4554 103.36 31.8528 113.211H106.552C107.992 113.211 108.573 112.917 108.868 111.468C109.441 108.572 110.308 105.684 111.184 103.073C111.757 101.044 112.052 99.0232 112.624 96.7076L66.0143 95.8321Z" fill="white"/>
</svg>
