<svg width="22" height="18" viewBox="0 0 22 18" fill="none" xmlns="http://www.w3.org/2000/svg">
<path d="M19.2027 0H21.4429L12.3593 10.3725C12.1292 10.6333 12.1138 11.0323 12.344 11.3085L17.5763 17.4H15.244L10.4106 11.7534L10.1651 11.4466C9.93498 11.1857 9.95032 10.7714 10.1805 10.5106L19.2027 0Z" fill="#17B5CB"/>
<path d="M13.9937 11.3086C13.8403 11.1398 13.7942 10.8943 13.8403 10.6795C13.8863 10.5567 13.963 10.434 14.0551 10.3419L14.6535 9.68213L21.3281 17.4001H19.2106C19.2106 17.4001 15.2979 12.8276 13.9937 11.3086Z" fill="#17B5CB"/>
<path d="M2.33228 17.4H0L7.15027 9.12963C7.38042 8.86878 7.38042 8.46984 7.15027 8.20899L0.0613757 0H2.30159L9.43651 8.27037C9.62064 8.51587 9.65132 8.86878 9.45185 9.09894C7.5799 11.2624 2.33228 17.4 2.33228 17.4Z" fill="#17B5CB"/>
<path d="M6.22969 0H4.08154L10.6948 7.65661C10.6948 7.65661 10.7101 7.64127 11.4466 6.76667C11.6461 6.53651 11.6921 6.24497 11.462 6.01482C10.081 4.60318 6.22969 0 6.22969 0Z" fill="#17B5CB"/>
<path d="M12.674 5.33968L17.2618 0H15.083L12.6893 2.79259L11.9988 3.60582C11.7687 3.86667 11.7533 4.26561 11.9835 4.5418C12.1523 4.74127 12.674 5.33968 12.674 5.33968Z" fill="#17B5CB"/>
<path d="M8.68451 12.0605L4.09668 17.4002H6.26017L8.65382 14.6076L9.3443 13.7944C9.57446 13.5336 9.5898 13.1346 9.35964 12.8584C9.19086 12.659 8.68451 12.0605 8.68451 12.0605Z" fill="#17B5CB"/>
</svg>
