<svg width="17" height="18" viewBox="0 0 17 18" fill="none" xmlns="http://www.w3.org/2000/svg">
<path d="M8.50881 6.57812L8.97187 7.17929C8.97187 7.17929 11.7584 11.2721 13.1541 13.3153C14.1167 14.7329 15.0794 16.1505 16.0437 17.5673C16.1177 17.6689 16.1859 17.7745 16.2476 17.8833C14.5319 17.8907 12.8161 17.8866 11.1011 17.885C9.3935 15.3503 6.0034 10.2639 6.0034 10.2639L5.71094 9.73101" fill="url(#paint0_linear_2758_33262)"/>
<path d="M4.50099 11.8211C4.43762 11.8715 4.4425 11.9551 4.4425 12.0282L4.37344 12.259L4.03955 6.89151L4.44818 6.45444C4.55298 6.38295 8.61087 2.09353 10.5639 0.0511806C10.6102 -0.0138106 10.6938 0.00568673 10.7621 0C12.4616 0.00568673 15.8598 0.00406195 15.8598 0.00406195C15.8598 0.00406195 4.99573 11.2963 4.50099 11.8211Z" fill="url(#paint1_linear_2758_33262)"/>
<path d="M0 0.00488281H4.44702V17.8783H0V0.00488281Z" fill="#69009A"/>
<defs>
<linearGradient id="paint0_linear_2758_33262" x1="7.24133" y1="8.52913" x2="11.3625" y2="14.4324" gradientUnits="userSpaceOnUse">
<stop stop-color="#EA078C"/>
<stop offset="1" stop-color="#69009A"/>
</linearGradient>
<linearGradient id="paint1_linear_2758_33262" x1="3.69388" y1="8.4699" x2="12.0756" y2="3.31838" gradientUnits="userSpaceOnUse">
<stop stop-color="#EA078C"/>
<stop offset="1" stop-color="#69009A"/>
</linearGradient>
</defs>
</svg>
