<svg width="82" height="26" viewBox="0 0 82 26" fill="none" xmlns="http://www.w3.org/2000/svg">
<g opacity="0.3">
<path d="M27.8352 12.6813C27.7412 10.2648 29.6342 8.23753 32.0508 8.14355H32.2253C34.4539 8.14355 35.7696 9.44582 36.1589 10.9763L34.7627 11.4462C34.5076 10.2648 33.4201 9.44581 32.2253 9.53979C30.7888 9.53979 29.3388 10.587 29.3388 12.7082C29.3388 14.8294 30.7485 15.8363 32.2387 15.8363C33.447 15.8631 34.521 15.071 34.8432 13.9165L36.1992 14.3595C35.7159 16.1316 34.0646 17.3399 32.2253 17.2459C29.8356 17.2862 27.8621 15.3932 27.8218 13.0035C27.8218 12.8961 27.8218 12.7887 27.8352 12.6813Z" fill="#565F77"/>
<path d="M38.9111 17.0446H37.4478V8.1167H38.9111V11.6207C39.3273 11.124 39.9583 10.842 40.6161 10.8689C42.0929 10.8689 42.8179 11.9295 42.8179 13.2452V17.0446H41.3948V13.4868C41.4888 12.8558 41.0458 12.2651 40.4148 12.1712C40.3342 12.1577 40.2402 12.1577 40.1597 12.1712C39.475 12.1712 38.9111 12.735 38.9111 13.4197C38.9111 13.46 38.9111 13.4868 38.9111 13.5271V17.0446Z" fill="#565F77"/>
<path d="M45.9864 13.6077L47.5303 13.366C47.8794 13.3257 47.9734 13.1378 47.9734 12.9364C47.9734 12.4262 47.6377 12.0235 46.8322 12.0235C46.2147 11.9698 45.6642 12.4262 45.5971 13.0438V13.0975L44.2948 12.8021C44.4022 11.7684 45.342 10.842 46.8188 10.842C48.6715 10.842 49.3696 11.8892 49.3696 13.1109V16.0914C49.3696 16.4136 49.383 16.7358 49.4502 17.058H48.1211C48.0673 16.8029 48.0539 16.5478 48.0674 16.2927C47.6646 16.9103 46.953 17.2728 46.2147 17.2459C45.1809 17.3265 44.2814 16.5747 44.174 15.5409V15.4469C44.1606 14.3326 44.9527 13.7553 45.9864 13.6077ZM47.9599 14.5743V14.3058L46.3892 14.534C45.9461 14.5474 45.5971 14.9099 45.5837 15.353C45.5837 15.796 45.9461 16.1451 46.3892 16.1316H46.4563C47.2081 16.2256 47.8928 15.6752 47.9734 14.9233C47.9734 14.9099 47.9734 14.9099 47.9734 14.8965C48.0002 14.7891 47.9868 14.6817 47.9599 14.5743Z" fill="#565F77"/>
<path d="M51.7995 7.99609C52.3096 7.99609 52.7392 8.39885 52.7527 8.92244C52.7527 9.43261 52.3365 9.84879 51.8263 9.86222C51.3162 9.86222 50.9 9.44603 50.8865 8.93587C50.8731 8.41228 51.2893 7.99609 51.7995 7.99609ZM51.1014 17.0716V11.0437H52.5379V17.0448L51.1014 17.0716Z" fill="#565F77"/>
<path d="M55.7871 17.0447H54.3506V11.0435H55.7468V11.8491C56.1227 11.2315 56.794 10.8556 57.519 10.869C58.9823 10.869 59.6805 11.9296 59.6805 13.2453V17.0447H58.2574V13.4869C58.2574 12.7486 57.9217 12.1578 57.0222 12.1578C56.3241 12.1578 55.7602 12.7351 55.7602 13.4332C55.7602 13.4869 55.7602 13.5272 55.7602 13.5809L55.7871 17.0447Z" fill="#565F77"/>
<path d="M62.8621 8.1167H61.439V17.0446H62.8621V8.1167Z" fill="#565F77"/>
<path d="M65.4264 7.99609C65.9365 7.99609 66.3527 8.41228 66.3661 8.92244C66.3661 9.43261 65.9499 9.84879 65.4398 9.86222C64.9296 9.86222 64.5134 9.44603 64.5 8.93587V8.92244C64.5 8.41228 64.9028 7.99609 65.4264 7.99609ZM64.7148 17.0716V11.0437H66.1379V17.0448L64.7148 17.0716Z" fill="#565F77"/>
<path d="M69.4138 17.0447H67.9907V11.0435H69.387V11.8491C69.7629 11.2315 70.4341 10.8556 71.1591 10.869C72.6225 10.869 73.334 11.9296 73.334 13.2453V17.0447H71.9109V13.4869C72.0049 12.856 71.5619 12.2652 70.9309 12.1713C70.8503 12.1578 70.7563 12.1578 70.6758 12.1713C69.9777 12.1713 69.4138 12.7351 69.4272 13.4332C69.4272 13.4869 69.4272 13.5406 69.4272 13.5809L69.4138 17.0447Z" fill="#565F77"/>
<path d="M78.2072 13.5674L80.7312 17.0446H78.9724L77.2137 14.5609L76.4753 15.3395V17.0446H75.0522V8.1167H76.4753V13.46L78.7845 11.0434H80.6775L78.2072 13.5674Z" fill="#565F77"/>
<path d="M10.8926 5.70024L17.0817 9.25796V16.3868L10.9195 19.958L4.7304 16.4405V9.28482L10.8926 5.70024ZM10.8926 0.464355L8.62375 1.78004L2.44808 5.36461L0.179199 6.6803V19.045L2.44808 20.3473L8.63717 23.8916L10.9061 25.1939L13.1749 23.8782L19.3372 20.2936L21.6061 18.9779V6.59975L19.3372 5.29748L13.1481 1.73976L10.8926 0.464355Z" fill="#565F77"/>
</g>
</svg>
