<svg width="29" height="32" viewBox="0 0 29 32" fill="none" xmlns="http://www.w3.org/2000/svg">
<path d="M0.00130067 6.94662V31.4651H16.0438L28.075 24.5185V0H12.0325L0 6.94662H0.00130067ZM16.0438 27.4538H4.01255V9.36871L6.01756 8.21095L8.02253 9.36871V23.4439H12.0338V17.7382H16.0438V27.4552V27.4538ZM24.065 4.00996V22.0951L22.06 23.2529L20.055 22.0951V8.01993H16.0451V13.7256H12.0351V4.00866H24.0663L24.065 4.00996Z" fill="#D9A776"/>
<path d="M0.00130067 6.94662V31.4651H16.0438L28.075 24.5185V0H12.0325L0 6.94662H0.00130067ZM16.0438 27.4538H4.01255V9.36871L6.01756 8.21095L8.02253 9.36871V23.4439H12.0338V17.7382H16.0438V27.4552V27.4538ZM24.065 4.00996V22.0951L22.06 23.2529L20.055 22.0951V8.01993H16.0451V13.7256H12.0351V4.00866H24.0663L24.065 4.00996Z" fill="url(#paint0_linear_3636_8031)"/>
<defs>
<linearGradient id="paint0_linear_3636_8031" x1="13.9043" y1="31.0812" x2="14.0606" y2="0.505182" gradientUnits="userSpaceOnUse">
<stop stop-color="#AC7845"/>
<stop offset="1" stop-color="#D9A776"/>
</linearGradient>
</defs>
</svg>
