<svg width="16" height="22" viewBox="0 0 16 22" fill="none" xmlns="http://www.w3.org/2000/svg">
<path d="M10.4896 4.47998C11.5896 4.47998 12.4896 3.57998 12.4896 2.47998C12.4896 1.37998 11.5896 0.47998 10.4896 0.47998C9.38955 0.47998 8.48955 1.37998 8.48955 2.47998C8.48955 3.57998 9.38955 4.47998 10.4896 4.47998ZM7.31955 16.48L7.88955 13.98L9.98955 15.98V20.98C9.98955 21.53 10.4396 21.98 10.9896 21.98C11.5396 21.98 11.9896 21.53 11.9896 20.98V15.34C11.9896 14.79 11.7696 14.27 11.3696 13.89L9.88955 12.48L10.4896 9.47998C11.5596 10.72 13.1096 11.61 14.8496 11.89C15.4496 11.98 15.9896 11.5 15.9896 10.89C15.9896 10.4 15.6296 9.98998 15.1396 9.90998C13.6196 9.65998 12.3596 8.75998 11.6896 7.57998L10.6896 5.97998C10.2896 5.37998 9.68955 4.97998 8.98955 4.97998C8.68955 4.97998 8.48955 5.07998 8.18955 5.07998L4.20955 6.75998C3.46955 7.07998 2.98955 7.79998 2.98955 8.60998V10.98C2.98955 11.53 3.43955 11.98 3.98955 11.98C4.53955 11.98 4.98955 11.53 4.98955 10.98V8.57998L6.78955 7.87998L5.18955 15.98L1.26955 15.18C0.729552 15.07 0.199552 15.42 0.0895519 15.96V16C-0.0204481 16.54 0.329552 17.07 0.869552 17.18L4.97955 18C6.03955 18.21 7.07955 17.54 7.31955 16.48Z" fill="black"/>
</svg>
