<svg width="205" height="32" viewBox="0 0 205 32" fill="none" xmlns="http://www.w3.org/2000/svg">
<path d="M0.00130067 7.48153V32H16.0438L28.075 25.0534V0.534912H12.0325L0 7.48153H0.00130067ZM16.0438 27.9888H4.01255V9.90362L6.01756 8.74587L8.02253 9.90362V23.9788H12.0338V18.2731H16.0438V27.9901V27.9888ZM24.065 4.54488V22.63L22.06 23.7878L20.055 22.63V8.55484H16.0451V14.2605H12.0351V4.54358H24.0663L24.065 4.54488Z" fill="#D9A776"/>
<path d="M0.00130067 7.48153V32H16.0438L28.075 25.0534V0.534912H12.0325L0 7.48153H0.00130067ZM16.0438 27.9888H4.01255V9.90362L6.01756 8.74587L8.02253 9.90362V23.9788H12.0338V18.2731H16.0438V27.9901V27.9888ZM24.065 4.54488V22.63L22.06 23.7878L20.055 22.63V8.55484H16.0451V14.2605H12.0351V4.54358H24.0663L24.065 4.54488Z" fill="url(#paint0_linear_3636_8024)"/>
<path d="M37.6099 22.1494H38.2264L38.525 26.9221C38.5507 27.3576 38.57 27.9371 38.5828 28.6605H38.6117C38.7144 28.3585 38.8943 27.8809 39.1511 27.2277L39.2282 27.0275L41.2511 22.1494H41.9158L38.814 29.5245H38.0915L37.6099 22.1494Z" fill="#161014"/>
<path d="M43.935 22.1494H46.9694L46.8634 22.7605H44.4552L43.9831 25.4366H46.1987L46.0928 26.0266H43.8772L43.357 28.9134H45.8423L45.7363 29.5245H42.6249L43.935 22.1494Z" fill="#161014"/>
<path d="M49.3972 22.1494H50.0233L51.555 28.2286H51.5839C51.6931 27.3646 51.8022 26.6306 51.9114 26.0266L52.605 22.1494H53.2119L51.9018 29.5245H51.2756L49.7343 23.4137H49.7151C49.6316 24.1723 49.5256 24.9028 49.3972 25.6051L48.7036 29.5245H48.0871L49.3972 22.1494Z" fill="#161014"/>
<path d="M56.7889 22.7605H55.1321L55.238 22.1494H59.1779L59.072 22.7605H57.4151L56.211 29.5245H55.5848L56.7889 22.7605Z" fill="#161014"/>
<path d="M61.8419 29.6509C61.2575 29.6509 60.8272 29.5315 60.5511 29.2927C60.2749 29.0539 60.1369 28.6781 60.1369 28.1653C60.1369 27.9406 60.1593 27.7053 60.2043 27.4594L61.158 22.1494H61.7745L60.8208 27.5121C60.7758 27.7931 60.7534 28.0038 60.7534 28.1443C60.7534 28.4744 60.8368 28.7062 61.0038 28.8396C61.1708 28.9731 61.4534 29.0398 61.8515 29.0398C62.1855 29.0398 62.452 28.9942 62.6511 28.9028C62.8566 28.8115 63.0171 28.657 63.1327 28.4393C63.2483 28.2145 63.3414 27.9055 63.4121 27.5121L64.3754 22.1494H64.9919L64.0286 27.5543C63.8937 28.3128 63.6593 28.8537 63.3254 29.1768C62.9979 29.4929 62.5034 29.6509 61.8419 29.6509Z" fill="#161014"/>
<path d="M67.6653 22.1494H69.2932C69.8841 22.1494 70.3143 22.2618 70.5841 22.4866C70.8538 22.7113 70.9887 23.073 70.9887 23.5717C70.9887 23.7754 70.963 24.0283 70.9116 24.3303C70.8088 24.8852 70.6451 25.3137 70.4203 25.6157C70.202 25.9177 69.8776 26.1144 69.4474 26.2057L70.3529 29.5245H69.7075L68.8309 26.2689H68.7731H67.5593L66.9813 29.5245H66.3552L67.6653 22.1494ZM68.7634 25.6578C69.1038 25.6578 69.3703 25.6192 69.563 25.5419C69.7556 25.4576 69.9098 25.3137 70.0254 25.11C70.1409 24.9063 70.2341 24.6078 70.3047 24.2144C70.3497 23.9756 70.3721 23.7649 70.3721 23.5823C70.3721 23.2732 70.2919 23.059 70.1313 22.9396C69.9708 22.8202 69.701 22.7605 69.3221 22.7605H68.1854L67.6653 25.6578H68.7634Z" fill="#161014"/>
<path d="M73.833 22.1494H76.8674L76.7614 22.7605H74.3532L73.8812 25.4366H76.0968L75.9908 26.0266H73.7752L73.255 28.9134H75.7403L75.6344 29.5245H72.5229L73.833 22.1494Z" fill="#161014"/>
<path d="M79.6324 29.6509C79.0544 29.6509 78.6306 29.542 78.3608 29.3243C78.0975 29.1065 77.9659 28.7659 77.9659 28.3023C77.9659 28.1197 77.9851 27.9125 78.0237 27.6807L78.0815 27.3436H78.698L78.6402 27.7018C78.6017 27.9125 78.5824 28.0951 78.5824 28.2496C78.5824 28.5376 78.6594 28.7413 78.8136 28.8607C78.9741 28.9801 79.2374 29.0398 79.6035 29.0398C79.9374 29.0398 80.2007 28.9977 80.3934 28.9134C80.586 28.8221 80.7305 28.6816 80.8269 28.492C80.9296 28.3023 81.0131 28.0319 81.0773 27.6807C81.1223 27.4559 81.1448 27.2522 81.1448 27.0696C81.1448 26.8449 81.0966 26.6657 81.0003 26.5323C80.9104 26.3988 80.7562 26.29 80.5379 26.2057L79.6613 25.858C79.3402 25.7316 79.0994 25.5595 78.9388 25.3418C78.7847 25.124 78.7076 24.8325 78.7076 24.4673C78.7076 24.2636 78.7301 24.0423 78.775 23.8035C78.8842 23.1644 79.0865 22.7078 79.3819 22.4339C79.6773 22.1599 80.1269 22.023 80.7305 22.023C81.2828 22.023 81.6874 22.1318 81.9443 22.3496C82.2012 22.5673 82.3296 22.9115 82.3296 23.3821C82.3296 23.5788 82.3104 23.793 82.2718 24.0248L82.2237 24.2671H81.6264L81.6842 23.93C81.7227 23.7192 81.742 23.5436 81.742 23.4032C81.742 23.1152 81.6649 22.915 81.5108 22.8026C81.3631 22.6902 81.1127 22.6341 80.7594 22.6341C80.4576 22.6341 80.2168 22.6727 80.037 22.7499C79.8572 22.8272 79.7127 22.9607 79.6035 23.1503C79.5007 23.34 79.4172 23.6104 79.353 23.9616C79.3209 24.1723 79.3049 24.3338 79.3049 24.4462C79.3049 24.6569 79.3434 24.822 79.4205 24.9414C79.5039 25.0538 79.6356 25.1486 79.8154 25.2259L80.7498 25.5946C81.0902 25.7281 81.3406 25.9142 81.5012 26.153C81.6682 26.3918 81.7516 26.7079 81.7516 27.1012C81.7516 27.326 81.7292 27.5613 81.6842 27.8071C81.5622 28.4814 81.3471 28.959 81.0388 29.24C80.7305 29.5139 80.2617 29.6509 79.6324 29.6509Z" fill="#161014"/>
<path d="M86.8093 28.355C86.8735 28.0038 86.973 27.7018 87.1079 27.4489C87.2492 27.196 87.4515 26.9467 87.7148 26.7009C87.9845 26.455 88.3634 26.1706 88.8515 25.8475C89.179 25.6297 89.4327 25.4331 89.6125 25.2575C89.7923 25.0819 89.9336 24.8817 90.0363 24.6569C90.1391 24.4322 90.2226 24.1477 90.2868 23.8035C90.3189 23.6139 90.3349 23.4629 90.3349 23.3505C90.3349 23.0906 90.2675 22.908 90.1327 22.8026C89.9978 22.6902 89.7794 22.6341 89.4776 22.6341C89.0923 22.6341 88.8097 22.7254 88.6299 22.908C88.4501 23.0836 88.3184 23.4067 88.2349 23.8773L88.1579 24.3514H87.5317L87.6281 23.8035C87.7437 23.1573 87.9427 22.7008 88.2253 22.4339C88.5079 22.1599 88.9285 22.023 89.4872 22.023C89.9817 22.023 90.3446 22.1283 90.5758 22.3391C90.8134 22.5498 90.9322 22.8764 90.9322 23.3189C90.9322 23.5085 90.9129 23.7192 90.8744 23.951C90.8037 24.3514 90.7074 24.6815 90.5854 24.9414C90.4634 25.2013 90.29 25.4436 90.0652 25.6684C89.8404 25.8861 89.5226 26.1319 89.1115 26.4059C88.5336 26.7922 88.129 27.1258 87.8978 27.4068C87.6666 27.6807 87.5189 28.0003 87.4547 28.3655L87.368 28.8712H89.9978L89.8918 29.5245H86.5973L86.8093 28.355Z" fill="#161014"/>
<path d="M92.2079 28.5552H92.9304L92.7666 29.5245H92.0345L92.2079 28.5552Z" fill="#161014"/>
<path d="M96.8605 29.6509C96.3339 29.6509 95.9485 29.5526 95.7045 29.3559C95.4669 29.1522 95.3481 28.8291 95.3481 28.3866C95.3481 28.2321 95.3706 28.0143 95.4155 27.7334L96.0995 23.8983C96.2215 23.2241 96.4334 22.7429 96.7352 22.4549C97.0371 22.167 97.4866 22.023 98.0839 22.023C98.5976 22.023 98.9765 22.1283 99.2206 22.3391C99.4646 22.5427 99.5866 22.8694 99.5866 23.3189C99.5866 23.4664 99.5641 23.6806 99.5192 23.9616L98.8352 27.8071C98.7132 28.4814 98.5013 28.959 98.1995 29.24C97.904 29.5139 97.4577 29.6509 96.8605 29.6509ZM96.032 27.8177C95.9935 28.0354 95.9742 28.218 95.9742 28.3655C95.9742 28.6254 96.0417 28.8045 96.1765 28.9028C96.3114 28.9942 96.5394 29.0398 96.8605 29.0398C97.1623 29.0398 97.3999 29.0012 97.5733 28.9239C97.7531 28.8467 97.8912 28.7202 97.9875 28.5446C98.0839 28.362 98.1609 28.0986 98.2187 27.7544L98.9027 23.9194C98.9412 23.6947 98.9605 23.5085 98.9605 23.361C98.9605 23.0941 98.8898 22.908 98.7485 22.8026C98.6137 22.6902 98.3857 22.6341 98.0646 22.6341C97.7756 22.6341 97.5444 22.6762 97.371 22.7605C97.1976 22.8377 97.0596 22.9712 96.9568 23.1608C96.854 23.3435 96.7738 23.6069 96.716 23.951L96.032 27.8177Z" fill="#161014"/>
<path d="M57.4228 16.141V11.1237H43.3184V16.141H37.186V2.09244H43.3184V7.1098H57.4228V2.09244H63.5552V16.141H57.4228Z" fill="#161014"/>
<path d="M72.3633 11.1237V12.1271H90.3515V16.141H66.2309V2.09244H89.3295V6.10633H72.3633V7.1098H86.4677V11.1237H72.3633Z" fill="#161014"/>
<path d="M108.55 2.09244C116.931 2.09244 119.875 5.30355 119.875 12.7292V16.141H113.742V12.7292C113.742 7.57139 111.392 6.10633 106.097 6.10633H98.4932V16.141H92.3608V2.09244H108.55Z" fill="#161014"/>
<path d="M122.125 16.141V2.09244H144.59C148.596 2.09244 149.025 7.65167 145.918 8.8759V9.21708C149.68 10.1001 149.373 16.141 145.203 16.141H122.125ZM142.198 7.1098C142.975 7.1098 142.954 6.10633 142.198 6.10633H128.257V7.1098H142.198ZM142.709 11.1237H128.257V12.1271H142.709C143.486 12.1271 143.465 11.1237 142.709 11.1237Z" fill="#161014"/>
<path d="M149.772 16.141V2.09244H172.237C176.244 2.09244 176.673 7.65167 173.566 8.8759V9.21708C177.327 10.1001 177.02 16.141 172.85 16.141H149.772ZM169.846 7.1098C170.622 7.1098 170.602 6.10633 169.846 6.10633H155.905V7.1098H169.846ZM170.357 11.1237H155.905V12.1271H170.357C171.133 12.1271 171.113 11.1237 170.357 11.1237Z" fill="#161014"/>
<path d="M191.1 16.7431C185.09 16.8033 177.22 14.395 177.241 9.11674C177.2 3.79834 185.049 1.41008 191.1 1.49036C197.15 1.41008 205.041 3.79834 205 9.11674C205.02 14.395 197.11 16.8033 191.1 16.7431ZM184.497 9.11674C184.497 11.5251 187.502 12.669 191.1 12.669C194.697 12.669 197.743 11.5251 197.743 9.11674C197.743 6.70841 194.697 5.56445 191.1 5.56445C187.502 5.56445 184.497 6.70841 184.497 9.11674Z" fill="#161014"/>
<defs>
<linearGradient id="paint0_linear_3636_8024" x1="13.9043" y1="31.6161" x2="14.0606" y2="1.04009" gradientUnits="userSpaceOnUse">
<stop stop-color="#AC7845"/>
<stop offset="1" stop-color="#D9A776"/>
</linearGradient>
</defs>
</svg>
