<?xml version="1.0" encoding="utf-8"?>
<!-- Generator: Adobe Illustrator 24.1.2, SVG Export Plug-In . SVG Version: 6.00 Build 0)  -->
<svg version="1.1" id="Layer_1" xmlns="http://www.w3.org/2000/svg" xmlns:xlink="http://www.w3.org/1999/xlink" x="0px" y="0px"
	 viewBox="0 0 205 32" style="enable-background:new 0 0 205 32;" xml:space="preserve">
<style type="text/css">
	.st0{fill:#FFFFFF;}
</style>
<path class="st0" d="M0,6.9v24.5h16l12-6.9V0H12L0,6.9L0,6.9z M16,27.5H4V9.4l2-1.2l2,1.2v14.1h4v-5.7h4V27.5L16,27.5z M24.1,4v18.1
	l-2,1.2l-2-1.2V8h-4v5.7h-4V4L24.1,4L24.1,4z"/>
<path class="st0" d="M37.6,21.6h0.6l0.3,4.8c0,0.4,0,1,0.1,1.7h0c0.1-0.3,0.3-0.8,0.5-1.4l0.1-0.2l2-4.9h0.7L38.8,29h-0.7L37.6,21.6
	z"/>
<path class="st0" d="M43.9,21.6h3l-0.1,0.6h-2.4L44,24.9h2.2l-0.1,0.6h-2.2l-0.5,2.9h2.5L45.7,29h-3.1L43.9,21.6z"/>
<path class="st0" d="M49.4,21.6H50l1.5,6.1h0c0.1-0.9,0.2-1.6,0.3-2.2l0.7-3.9h0.6L51.9,29h-0.6l-1.5-6.1h0
	c-0.1,0.8-0.2,1.5-0.3,2.2L48.7,29h-0.6L49.4,21.6z"/>
<path class="st0" d="M56.8,22.2h-1.7l0.1-0.6h3.9l-0.1,0.6h-1.7L56.2,29h-0.6L56.8,22.2z"/>
<path class="st0" d="M61.8,29.1c-0.6,0-1-0.1-1.3-0.4c-0.3-0.2-0.4-0.6-0.4-1.1c0-0.2,0-0.5,0.1-0.7l1-5.3h0.6l-1,5.4
	c0,0.3-0.1,0.5-0.1,0.6c0,0.3,0.1,0.6,0.3,0.7c0.2,0.1,0.4,0.2,0.8,0.2c0.3,0,0.6,0,0.8-0.1c0.2-0.1,0.4-0.2,0.5-0.5
	c0.1-0.2,0.2-0.5,0.3-0.9l1-5.4H65L64,27c-0.1,0.8-0.4,1.3-0.7,1.6C63,29,62.5,29.1,61.8,29.1z"/>
<path class="st0" d="M67.7,21.6h1.6c0.6,0,1,0.1,1.3,0.3c0.3,0.2,0.4,0.6,0.4,1.1c0,0.2,0,0.5-0.1,0.8c-0.1,0.6-0.3,1-0.5,1.3
	c-0.2,0.3-0.5,0.5-1,0.6l0.9,3.3h-0.6l-0.9-3.3h-0.1h-1.2L67,29h-0.6L67.7,21.6z M68.8,25.1c0.3,0,0.6,0,0.8-0.1
	c0.2-0.1,0.3-0.2,0.5-0.4c0.1-0.2,0.2-0.5,0.3-0.9c0-0.2,0.1-0.4,0.1-0.6c0-0.3-0.1-0.5-0.2-0.6c-0.2-0.1-0.4-0.2-0.8-0.2h-1.1
	l-0.5,2.9H68.8z"/>
<path class="st0" d="M73.8,21.6h3l-0.1,0.6h-2.4l-0.5,2.7h2.2L76,25.5h-2.2l-0.5,2.9h2.5L75.6,29h-3.1L73.8,21.6z"/>
<path class="st0" d="M79.6,29.1c-0.6,0-1-0.1-1.3-0.3c-0.3-0.2-0.4-0.6-0.4-1c0-0.2,0-0.4,0.1-0.6l0.1-0.3h0.6l-0.1,0.4
	c0,0.2-0.1,0.4-0.1,0.5c0,0.3,0.1,0.5,0.2,0.6c0.2,0.1,0.4,0.2,0.8,0.2c0.3,0,0.6,0,0.8-0.1c0.2-0.1,0.3-0.2,0.4-0.4
	c0.1-0.2,0.2-0.5,0.3-0.8c0-0.2,0.1-0.4,0.1-0.6c0-0.2,0-0.4-0.1-0.5c-0.1-0.1-0.2-0.2-0.5-0.3l-0.9-0.3c-0.3-0.1-0.6-0.3-0.7-0.5
	c-0.2-0.2-0.2-0.5-0.2-0.9c0-0.2,0-0.4,0.1-0.7c0.1-0.6,0.3-1.1,0.6-1.4c0.3-0.3,0.7-0.4,1.3-0.4c0.6,0,1,0.1,1.2,0.3
	c0.3,0.2,0.4,0.6,0.4,1c0,0.2,0,0.4-0.1,0.6l0,0.2h-0.6l0.1-0.3c0-0.2,0.1-0.4,0.1-0.5c0-0.3-0.1-0.5-0.2-0.6
	c-0.1-0.1-0.4-0.2-0.8-0.2c-0.3,0-0.5,0-0.7,0.1c-0.2,0.1-0.3,0.2-0.4,0.4c-0.1,0.2-0.2,0.5-0.3,0.8c0,0.2,0,0.4,0,0.5
	c0,0.2,0,0.4,0.1,0.5c0.1,0.1,0.2,0.2,0.4,0.3l0.9,0.4c0.3,0.1,0.6,0.3,0.8,0.6c0.2,0.2,0.3,0.6,0.3,0.9c0,0.2,0,0.5-0.1,0.7
	c-0.1,0.7-0.3,1.2-0.6,1.4C80.7,29,80.3,29.1,79.6,29.1z"/>
<path class="st0" d="M86.8,27.8c0.1-0.4,0.2-0.7,0.3-0.9c0.1-0.3,0.3-0.5,0.6-0.7c0.3-0.2,0.6-0.5,1.1-0.9c0.3-0.2,0.6-0.4,0.8-0.6
	c0.2-0.2,0.3-0.4,0.4-0.6c0.1-0.2,0.2-0.5,0.3-0.9c0-0.2,0-0.3,0-0.5c0-0.3-0.1-0.4-0.2-0.5c-0.1-0.1-0.4-0.2-0.7-0.2
	c-0.4,0-0.7,0.1-0.8,0.3c-0.2,0.2-0.3,0.5-0.4,1l-0.1,0.5h-0.6l0.1-0.5c0.1-0.6,0.3-1.1,0.6-1.4c0.3-0.3,0.7-0.4,1.3-0.4
	c0.5,0,0.9,0.1,1.1,0.3c0.2,0.2,0.4,0.5,0.4,1c0,0.2,0,0.4-0.1,0.6c-0.1,0.4-0.2,0.7-0.3,1c-0.1,0.3-0.3,0.5-0.5,0.7
	c-0.2,0.2-0.5,0.5-1,0.7c-0.6,0.4-1,0.7-1.2,1c-0.2,0.3-0.4,0.6-0.4,1l-0.1,0.5H90L89.9,29h-3.3L86.8,27.8z"/>
<path class="st0" d="M92.2,28h0.7l-0.2,1H92L92.2,28z"/>
<path class="st0" d="M96.9,29.1c-0.5,0-0.9-0.1-1.2-0.3c-0.2-0.2-0.4-0.5-0.4-1c0-0.2,0-0.4,0.1-0.7l0.7-3.8
	c0.1-0.7,0.3-1.2,0.6-1.4c0.3-0.3,0.8-0.4,1.3-0.4c0.5,0,0.9,0.1,1.1,0.3c0.2,0.2,0.4,0.5,0.4,1c0,0.1,0,0.4-0.1,0.6l-0.7,3.8
	c-0.1,0.7-0.3,1.2-0.6,1.4C97.9,29,97.5,29.1,96.9,29.1z M96,27.3c0,0.2-0.1,0.4-0.1,0.5c0,0.3,0.1,0.4,0.2,0.5
	c0.1,0.1,0.4,0.1,0.7,0.1c0.3,0,0.5,0,0.7-0.1c0.2-0.1,0.3-0.2,0.4-0.4c0.1-0.2,0.2-0.4,0.2-0.8l0.7-3.8c0-0.2,0.1-0.4,0.1-0.6
	c0-0.3-0.1-0.5-0.2-0.6c-0.1-0.1-0.4-0.2-0.7-0.2c-0.3,0-0.5,0-0.7,0.1c-0.2,0.1-0.3,0.2-0.4,0.4c-0.1,0.2-0.2,0.4-0.2,0.8L96,27.3z
	"/>
<path class="st0" d="M57.4,15.6v-5H43.3v5h-6.1v-14h6.1v5h14.1v-5h6.1v14H57.4z"/>
<path class="st0" d="M72.4,10.6v1h18v4H66.2v-14h23.1v4h-17v1h14.1v4H72.4z"/>
<path class="st0" d="M108.6,1.6c8.4,0,11.3,3.2,11.3,10.6v3.4h-6.1v-3.4c0-5.2-2.3-6.6-7.6-6.6h-7.6v10h-6.1v-14H108.6z"/>
<path class="st0" d="M122.1,15.6v-14h22.5c4,0,4.4,5.6,1.3,6.8v0.3c3.8,0.9,3.5,6.9-0.7,6.9H122.1z M142.2,6.6c0.8,0,0.8-1,0-1
	h-13.9v1H142.2z M142.7,10.6h-14.5v1h14.5C143.5,11.6,143.5,10.6,142.7,10.6z"/>
<path class="st0" d="M149.8,15.6v-14h22.5c4,0,4.4,5.6,1.3,6.8v0.3c3.8,0.9,3.5,6.9-0.7,6.9H149.8z M169.8,6.6c0.8,0,0.8-1,0-1
	h-13.9v1H169.8z M170.4,10.6h-14.5v1h14.5C171.1,11.6,171.1,10.6,170.4,10.6z"/>
<path class="st0" d="M191.1,16.2c-6,0.1-13.9-2.3-13.9-7.6c0-5.3,7.8-7.7,13.9-7.6c6-0.1,13.9,2.3,13.9,7.6
	C205,13.9,197.1,16.3,191.1,16.2z M184.5,8.6c0,2.4,3,3.6,6.6,3.6c3.6,0,6.6-1.1,6.6-3.6c0-2.4-3-3.6-6.6-3.6
	C187.5,5,184.5,6.2,184.5,8.6z"/>
</svg>
