<svg width="79" height="19" viewBox="0 0 79 19" fill="none" xmlns="http://www.w3.org/2000/svg">
<g opacity="0.3" clip-path="url(#clip0_3359_498)">
<path d="M9.27551 0C7.44098 0 5.64768 0.544001 4.12233 1.56321C2.59697 2.58242 1.4081 4.03106 0.706062 5.72594C0.00401894 7.42082 -0.179668 9.28581 0.178231 11.0851C0.53613 12.8844 1.41954 14.5371 2.71674 15.8343C4.01395 17.1316 5.66669 18.0149 7.46598 18.3729C9.26528 18.7307 11.1303 18.5471 12.8251 17.845C14.52 17.143 15.9686 15.9541 16.9879 14.4287C18.0071 12.9034 18.5511 11.11 18.5511 9.27551C18.5511 8.05746 18.3112 6.8513 17.845 5.72594C17.3789 4.60058 16.6957 3.57805 15.8343 2.71674C14.973 1.85543 13.9505 1.1722 12.8251 0.706058C11.6998 0.239919 10.4936 0 9.27551 0ZM9.4259 9.58068L8.46107 12.8363H13.6216C13.6918 12.8363 13.7592 12.8642 13.8088 12.9139C13.8585 12.9635 13.8864 13.0309 13.8864 13.1011C13.8859 13.1261 13.8822 13.1511 13.8752 13.1751L13.4264 14.7211C13.405 14.7949 13.3601 14.8598 13.2986 14.9059C13.2372 14.952 13.1622 14.977 13.0854 14.9768H5.20319L6.53596 10.4759L5.06183 10.9246L5.38717 9.8724L6.86354 9.42363L8.73481 3.10082C8.75535 3.02673 8.79963 2.9614 8.8608 2.91481C8.92196 2.86822 8.99672 2.84293 9.0736 2.84279H11.0705C11.1407 2.84279 11.2081 2.87069 11.2577 2.92034C11.3074 2.96999 11.3353 3.03733 11.3353 3.10755C11.3387 3.13136 11.3387 3.15554 11.3353 3.17935L9.7557 8.5261L11.2208 8.07741L10.9045 9.14762L9.4259 9.58068Z" fill="#565F77"/>
<path d="M25.3724 16.6735H22.9482V3.83374H25.3724V16.6735Z" fill="#565F77"/>
<path d="M29.9198 16.6735H27.4957V7.62885H29.9198V16.6735ZM27.3535 5.28825C27.3535 4.92601 27.4734 4.62787 27.713 4.39381C27.9582 4.15975 28.2898 4.04272 28.7077 4.04272C29.1201 4.04272 29.4489 4.15975 29.6941 4.39381C29.9393 4.62787 30.0619 4.92601 30.0619 5.28825C30.0619 5.65605 29.9365 5.95698 29.6858 6.19104C29.4405 6.4251 29.1145 6.54212 28.7077 6.54212C28.3009 6.54212 27.9721 6.4251 27.7213 6.19104C27.4761 5.95698 27.3535 5.65605 27.3535 5.28825Z" fill="#565F77"/>
<path d="M34.8098 5.40527V7.62885H36.3563V9.40097H34.8098V13.9149C34.8098 14.2493 34.8739 14.4889 35.0021 14.6339C35.1303 14.7788 35.3754 14.8512 35.7377 14.8512C36.0052 14.8512 36.242 14.8317 36.4482 14.7927V16.6233C35.9745 16.7682 35.4869 16.8407 34.9853 16.8407C33.2912 16.8407 32.4274 15.9853 32.394 14.2744V9.40097H31.0732V7.62885H32.394V5.40527H34.8098Z" fill="#565F77"/>
<path d="M41.8649 16.8407C40.5385 16.8407 39.4574 16.4339 38.6215 15.6203C37.7911 14.8066 37.376 13.7227 37.376 12.3685V12.1344C37.376 11.2261 37.5515 10.4152 37.9026 9.70192C38.2536 8.98306 38.7497 8.43133 39.3905 8.0468C40.037 7.65671 40.7726 7.46167 41.5973 7.46167C42.8345 7.46167 43.807 7.85175 44.5147 8.63192C45.228 9.41217 45.5847 10.5183 45.5847 11.9506V12.937H39.8252C39.9032 13.5276 40.1373 14.0013 40.5273 14.358C40.9231 14.7147 41.4218 14.893 42.0237 14.893C42.9543 14.893 43.6816 14.5558 44.2055 13.8816L45.3924 15.2107C45.0302 15.7234 44.5398 16.1246 43.9212 16.4144C43.3027 16.6986 42.6172 16.8407 41.8649 16.8407ZM41.589 9.41772C41.1097 9.41772 40.7196 9.57929 40.4187 9.90251C40.1234 10.2258 39.9339 10.6883 39.8503 11.2902H43.2107V11.0979C43.1996 10.5629 43.0546 10.1505 42.776 9.86079C42.4974 9.56541 42.1017 9.41772 41.589 9.41772Z" fill="#565F77"/>
<path d="M50.7257 14.893C51.1715 14.893 51.5337 14.7704 51.8124 14.5252C52.091 14.28 52.2359 13.954 52.247 13.5472H54.5124C54.5068 14.1602 54.3396 14.723 54.0108 15.2357C53.6821 15.7428 53.2307 16.1385 52.6566 16.4227C52.0882 16.7014 51.4585 16.8407 50.7675 16.8407C49.4746 16.8407 48.4547 16.4311 47.708 15.6119C46.9612 14.7871 46.5879 13.6503 46.5879 12.2014V12.0425C46.5879 10.6493 46.9585 9.53757 47.6996 8.70719C48.4408 7.87682 49.4578 7.46167 50.7507 7.46167C51.882 7.46167 52.7876 7.78489 53.4675 8.43133C54.153 9.07221 54.5012 9.92765 54.5124 10.9976H52.247C52.2359 10.5295 52.091 10.1505 51.8124 9.86079C51.5337 9.56541 51.1659 9.41772 50.7089 9.41772C50.1461 9.41772 49.7197 9.62394 49.43 10.0363C49.1458 10.4431 49.0037 11.1063 49.0037 12.0258V12.2766C49.0037 13.2072 49.1458 13.8759 49.43 14.2827C49.7142 14.6896 50.1461 14.893 50.7257 14.893Z" fill="#565F77"/>
<path d="M55.5156 12.0676C55.5156 11.1704 55.6884 10.3706 56.0339 9.66852C56.3794 8.96632 56.8754 8.423 57.5219 8.03847C58.1739 7.65394 58.929 7.46167 59.7872 7.46167C61.0077 7.46167 62.0024 7.83502 62.7714 8.58179C63.546 9.32857 63.9779 10.3428 64.0671 11.6246L64.0838 12.2431C64.0838 13.6308 63.6965 14.7453 62.9219 15.5868C62.1473 16.4227 61.108 16.8407 59.8039 16.8407C58.4999 16.8407 57.4578 16.4227 56.6776 15.5868C55.9029 14.7509 55.5156 13.614 55.5156 12.1762V12.0676ZM57.9315 12.2431C57.9315 13.1013 58.093 13.7589 58.4163 14.2159C58.7395 14.6673 59.2021 14.893 59.8039 14.893C60.3891 14.893 60.846 14.6701 61.1748 14.2243C61.5036 13.7729 61.668 13.054 61.668 12.0676C61.668 11.2261 61.5036 10.5741 61.1748 10.1115C60.846 9.64901 60.3835 9.41772 59.7872 9.41772C59.1965 9.41772 58.7395 9.64901 58.4163 10.1115C58.093 10.5685 57.9315 11.2791 57.9315 12.2431Z" fill="#565F77"/>
<path d="M68.1214 16.6735H65.6972V7.62885H68.1214V16.6735ZM65.5552 5.28825C65.5552 4.92601 65.6749 4.62787 65.9146 4.39381C66.1598 4.15975 66.4914 4.04272 66.9094 4.04272C67.3217 4.04272 67.6505 4.15975 67.8958 4.39381C68.1409 4.62787 68.2636 4.92601 68.2636 5.28825C68.2636 5.65605 68.1382 5.95698 67.8874 6.19104C67.6422 6.4251 67.3162 6.54212 66.9094 6.54212C66.5025 6.54212 66.1737 6.4251 65.923 6.19104C65.6777 5.95698 65.5552 5.65605 65.5552 5.28825Z" fill="#565F77"/>
<path d="M72.3426 7.62887L72.4178 8.67372C73.0642 7.86571 73.9311 7.46167 75.0178 7.46167C75.9758 7.46167 76.689 7.74309 77.1575 8.30593C77.6259 8.86877 77.8648 9.71032 77.8765 10.8304V16.6735H75.4606V10.8889C75.4606 10.3763 75.3488 10.0056 75.1259 9.77719C74.903 9.54312 74.5325 9.42605 74.0144 9.42605C73.3348 9.42605 72.8246 9.71587 72.4846 10.2954V16.6735H70.0688V7.62887H72.3426Z" fill="#565F77"/>
</g>
<defs>
<clipPath id="clip0_3359_498">
<rect width="78.1923" height="19" fill="white"/>
</clipPath>
</defs>
</svg>
