<svg width="83" height="20" viewBox="0 0 83 20" fill="none" xmlns="http://www.w3.org/2000/svg">
<g opacity="0.1" clip-path="url(#clip0_2931_298)">
<path d="M9.76369 0C7.83262 0 5.94493 0.572632 4.33929 1.64548C2.73365 2.71834 1.48222 4.24322 0.743223 6.02731C0.00423046 7.81138 -0.189124 9.77454 0.187612 11.6685C0.564347 13.5625 1.49425 15.3022 2.85973 16.6677C4.22522 18.0332 5.96494 18.9631 7.85892 19.3398C9.75292 19.7165 11.7161 19.5232 13.5002 18.7842C15.2842 18.0452 16.8091 16.7938 17.882 15.1882C18.9548 13.5825 19.5275 11.6948 19.5275 9.76369C19.5275 8.48154 19.2749 7.21189 18.7842 6.02731C18.2935 4.84271 17.5744 3.76637 16.6677 2.85973C15.7611 1.95308 14.6847 1.23389 13.5002 0.743219C12.3155 0.252546 11.0459 0 9.76369 0ZM9.922 10.0849L8.90639 13.5119H14.3385C14.4125 13.5119 14.4834 13.5413 14.5356 13.5935C14.5878 13.6458 14.6172 13.7167 14.6172 13.7906C14.6168 13.817 14.6128 13.8432 14.6055 13.8685L14.1331 15.4958C14.1105 15.5735 14.0633 15.6418 13.9985 15.6905C13.9338 15.739 13.855 15.7652 13.7741 15.7651H5.47704L6.87995 11.0273L5.32825 11.4996L5.67071 10.392L7.22478 9.91961L9.19454 3.26402C9.21615 3.18603 9.26277 3.11726 9.32715 3.06822C9.39154 3.01918 9.47023 2.99255 9.55115 2.99242H11.6532C11.7271 2.99242 11.798 3.02178 11.8502 3.07404C11.9025 3.12631 11.9318 3.19719 11.9318 3.27111C11.9355 3.29617 11.9355 3.32162 11.9318 3.34668L10.2692 8.97485L11.8114 8.50254L11.4784 9.62908L9.922 10.0849Z" fill="white"/>
<path d="M26.708 17.5512H24.1562V4.03564H26.708V17.5512Z" fill="white"/>
<path d="M31.4943 17.5509H28.9426V8.03024H31.4943V17.5509ZM28.793 5.56645C28.793 5.18515 28.9191 4.87131 29.1714 4.62493C29.4294 4.37856 29.7785 4.25537 30.2184 4.25537C30.6525 4.25537 30.9987 4.37856 31.2567 4.62493C31.5148 4.87131 31.6439 5.18515 31.6439 5.56645C31.6439 5.95361 31.5119 6.27038 31.248 6.51676C30.9898 6.76313 30.6467 6.88632 30.2184 6.88632C29.7902 6.88632 29.4441 6.76313 29.1801 6.51676C28.922 6.27038 28.793 5.95361 28.793 5.56645Z" fill="white"/>
<path d="M36.6422 5.68994V8.03055H38.2701V9.89593H36.6422V14.6475C36.6422 14.9995 36.7097 15.2517 36.8446 15.4042C36.9795 15.5568 37.2376 15.633 37.6189 15.633C37.9005 15.633 38.1498 15.6125 38.3668 15.5714V17.4984C37.8682 17.6509 37.355 17.7272 36.827 17.7272C35.0437 17.7272 34.1344 16.8268 34.0993 15.0259V9.89593H32.709V8.03055H34.0993V5.68994H36.6422Z" fill="white"/>
<path d="M44.0679 17.7272C42.6718 17.7272 41.5338 17.299 40.6539 16.4425C39.7798 15.586 39.3428 14.445 39.3428 13.0196V12.7732C39.3428 11.817 39.5275 10.9635 39.8971 10.2126C40.2666 9.45595 40.7888 8.87518 41.4633 8.47042C42.1439 8.0598 42.9182 7.85449 43.7863 7.85449C45.0886 7.85449 46.1122 8.26511 46.8572 9.08634C47.6081 9.90765 47.9835 11.072 47.9835 12.5796V13.618H41.9209C42.003 14.2397 42.2494 14.7383 42.66 15.1138C43.0765 15.4893 43.6015 15.677 44.2351 15.677C45.2147 15.677 45.9802 15.322 46.5317 14.6123L47.7812 16.0113C47.3999 16.551 46.8836 16.9733 46.2325 17.2784C45.5814 17.5776 44.8599 17.7272 44.0679 17.7272ZM43.7775 9.91349C43.273 9.91349 42.8624 10.0836 42.5456 10.4238C42.2348 10.7641 42.0353 11.251 41.9473 11.8845H45.4845V11.6821C45.4729 11.119 45.3203 10.6849 45.027 10.3799C44.7337 10.069 44.3172 9.91349 43.7775 9.91349Z" fill="white"/>
<path d="M53.3956 15.677C53.8649 15.677 54.2462 15.5479 54.5395 15.2898C54.8328 15.0316 54.9853 14.6885 54.997 14.2603H57.3816C57.3757 14.9056 57.1997 15.498 56.8537 16.0377C56.5076 16.5715 56.0324 16.988 55.4282 17.2872C54.8299 17.5805 54.167 17.7272 53.4396 17.7272C52.0787 17.7272 51.0051 17.296 50.2191 16.4336C49.433 15.5655 49.04 14.3688 49.04 12.8436V12.6764C49.04 11.2099 49.4301 10.0396 50.2103 9.16557C50.9905 8.29149 52.061 7.85449 53.422 7.85449C54.6128 7.85449 55.566 8.19472 56.2817 8.87518C57.0033 9.5498 57.3699 10.4503 57.3816 11.5765H54.997C54.9853 11.0838 54.8328 10.6849 54.5395 10.3799C54.2462 10.069 53.859 9.91349 53.378 9.91349C52.7855 9.91349 52.3367 10.1306 52.0317 10.5646C51.7326 10.9929 51.583 11.691 51.583 12.6588V12.9228C51.583 13.9024 51.7326 14.6063 52.0317 15.0346C52.3309 15.4628 52.7855 15.677 53.3956 15.677Z" fill="white"/>
<path d="M58.4375 12.7028C58.4375 11.7584 58.6194 10.9166 58.983 10.1775C59.3467 9.43834 59.8688 8.86642 60.5493 8.46165C61.2357 8.05688 62.0305 7.85449 62.9339 7.85449C64.2186 7.85449 65.2657 8.24749 66.0752 9.03357C66.8906 9.81965 67.3452 10.8873 67.439 12.2365L67.4567 12.8876C67.4567 14.3483 67.049 15.5215 66.2336 16.4073C65.4182 17.2872 64.3242 17.7272 62.9515 17.7272C61.5788 17.7272 60.4819 17.2872 59.6606 16.4073C58.8452 15.5273 58.4375 14.3306 58.4375 12.8172V12.7028ZM60.9805 12.8876C60.9805 13.791 61.1506 14.4832 61.4908 14.9642C61.831 15.4393 62.318 15.677 62.9515 15.677C63.5674 15.677 64.0484 15.4423 64.3946 14.973C64.7407 14.4979 64.9137 13.7411 64.9137 12.7028C64.9137 11.817 64.7407 11.1307 64.3946 10.6438C64.0484 10.157 63.5616 9.91349 62.9339 9.91349C62.3121 9.91349 61.831 10.157 61.4908 10.6438C61.1506 11.1249 60.9805 11.8728 60.9805 12.8876Z" fill="white"/>
<path d="M71.7062 17.5509H69.1544V8.03024H71.7062V17.5509ZM69.0049 5.56645C69.0049 5.18515 69.131 4.87131 69.3832 4.62493C69.6413 4.37856 69.9903 4.25537 70.4303 4.25537C70.8644 4.25537 71.2105 4.37856 71.4686 4.62493C71.7267 4.87131 71.8558 5.18515 71.8558 5.56645C71.8558 5.95361 71.7238 6.27038 71.4598 6.51676C71.2017 6.76313 70.8586 6.88632 70.4303 6.88632C70.0021 6.88632 69.656 6.76313 69.392 6.51676C69.1339 6.27038 69.0049 5.95361 69.0049 5.56645Z" fill="white"/>
<path d="M76.1502 8.03049L76.2294 9.13034C76.9098 8.2798 77.8224 7.85449 78.9662 7.85449C79.9747 7.85449 80.7255 8.15072 81.2185 8.74318C81.7116 9.33565 81.9631 10.2215 81.9755 11.4006V17.5512H79.4324V11.4621C79.4324 10.9225 79.3147 10.5323 79.0801 10.2919C78.8455 10.0455 78.4555 9.92226 77.9101 9.92226C77.1947 9.92226 76.6576 10.2273 76.2998 10.8374V17.5512H73.7568V8.03049H76.1502Z" fill="white"/>
</g>
<defs>
<clipPath id="clip0_2931_298">
<rect width="82.3077" height="20" fill="white"/>
</clipPath>
</defs>
</svg>
