<svg width="108" height="25" viewBox="0 0 108 25" fill="none" xmlns="http://www.w3.org/2000/svg">
<g opacity="0.3" clip-path="url(#clip0_30_477)">
<path d="M42.2978 7.5C42.7958 8 43.2937 8.5 43.7917 9C44.2897 9.5 44.2897 10.5 44.2897 11.5C44.2897 12.5 44.2897 13.5 43.7917 14C43.7917 15.5 42.7958 16 42.2978 16.5C41.3019 16.5 40.8039 17 39.808 17C39.3101 17 38.8121 17 38.3142 16.5C37.8162 16.5 37.3182 16 36.8203 16V21H33.8325V7.5H36.3223L36.8203 8.5C37.8162 7.5 38.8121 7 40.306 7C40.8039 7 41.7999 7 42.2978 7.5ZM40.804 14C41.3019 13.5 41.7999 13 41.7999 12C41.7999 11 41.3019 10.5 40.804 10C40.306 9.5 39.808 9.5 39.3101 9.5C38.8121 9.5 38.3142 9.5 37.8162 10C37.3182 10 37.3182 10.5 36.8203 11V13C36.8203 13.5 37.3182 14 37.8162 14C37.8162 14.5 38.3142 14.5 38.8121 14.5C39.808 14.5 40.306 14.5 40.804 14Z" fill="#565F77"/>
<path d="M46.2816 9.5C46.7796 9 47.2776 8 48.2735 8C49.2694 7.5 49.7674 7.5 50.7633 7.5C51.7592 7.5 52.7551 7.5 53.2531 8C53.751 8.5 54.747 9 55.2449 10C55.7429 10.5 55.7429 11.5 55.7429 12.5C55.7429 13.5 55.7429 14 55.2449 15C54.747 15.5 54.249 16.5 53.2531 16.5C52.7551 17 51.7592 17 50.7633 17C49.7674 17 48.7714 17 48.2735 16.5C47.7755 16 46.7796 15.5 46.2816 15C45.7837 14.5 45.7837 13.5 45.7837 12.5C45.7837 11 45.7837 10 46.2816 9.5ZM49.2694 14C49.7674 14.5 50.2653 14.5 50.7633 14.5C51.2612 14.5 51.7592 14 52.2572 14C52.7551 14 52.7551 13 52.7551 12C52.7551 11 52.7551 10.5 52.2572 10C51.7592 9.5 51.2612 9.5 50.7633 9.5C50.2653 9.5 49.7674 10 49.2694 10C48.7714 10.5 48.7714 11 48.7714 12C48.7714 12.5 48.7714 13.5 49.2694 14Z" fill="#565F77"/>
<path d="M60.7221 0V16.5H57.7344V0H60.7221Z" fill="#565F77"/>
<path d="M72.6734 7.5L66.6979 21H63.7101L65.7019 16L61.7183 7.5H65.204L67.6938 13L70.1836 7.5C69.6856 7.5 72.6734 7.5 72.6734 7.5Z" fill="#565F77"/>
<path d="M83.6284 7.5V16.5C83.6284 17.5 83.6284 18 83.1305 19C82.6325 20 82.1346 20 81.1386 20.5C80.1427 21 79.1468 21 78.1509 21C77.6529 21 76.657 21 76.1591 20.5C75.6611 20.5 75.1631 20 74.6652 20C74.1672 20 73.6693 19.5 73.1713 19L74.6652 17C75.6611 18 76.1591 18 76.657 18.5C77.155 19 77.6529 19 78.1509 19C78.6489 19 79.6448 19 80.1427 18.5C80.6407 18 80.6407 17.5 80.6407 17V15.5C80.1427 16 80.1427 16.5 79.1468 16.5C78.6488 17 77.6529 17 77.155 17C76.657 17 75.6611 17 74.6652 16.5C74.1672 16 73.6693 15.5 73.1713 15C72.6733 13.5 72.6733 13 72.6733 12C72.6733 11 72.6733 10.5 73.1713 9.5C73.6693 8.5 74.1672 8 75.1631 7.5C75.6611 7 76.657 7 77.155 7C77.6529 7 78.6488 7 79.1468 7.5C79.6448 7.5 80.1427 8 80.6407 8.5L81.1386 8H83.6284V7.5ZM80.6407 13V11C80.6407 10.5 80.1427 10 79.6448 10C79.1468 10 78.6489 9.5 78.1509 9.5C77.6529 9.5 76.657 10 76.1591 10C75.6611 10.5 75.6611 11 75.6611 12C75.6611 12.5 75.6611 13.5 76.1591 14C76.657 14.5 77.155 15 78.1509 15C79.1468 14.5 80.1427 14 80.6407 13Z" fill="#565F77"/>
<path d="M86.118 9.5C86.616 8.5 87.1139 8 87.6119 7.5C88.6078 7 89.1057 7 90.1017 7C91.0976 7 92.0935 7 92.5915 7.5C93.0894 8 94.0853 8.5 94.5833 9C95.0813 10 95.0813 10.5 95.0813 11.5C95.0813 12.5 95.0813 13.5 94.5833 14C94.0853 15 93.5874 15.5 92.5915 16C92.0935 16.5 91.0976 16.5 90.1017 16.5C89.1057 16.5 88.1098 16.5 87.6119 16C86.6159 15.5 86.118 15 85.62 14.5C85.1221 13.5 85.1221 13 85.1221 12C85.1221 11 85.62 10 86.118 9.5ZM88.6078 14C89.1057 14.5 89.6037 14.5 90.1017 14.5C90.5996 14.5 91.0976 14 91.5955 14C92.0935 14 92.5915 12.5 92.5915 12C92.5915 11 92.5915 10.5 92.0935 10C91.5955 9.5 91.0976 9.5 90.5996 9.5C90.1017 9.5 89.6037 10 89.1057 10C88.6078 10.5 88.6078 11 88.6078 12C88.1098 12.5 88.6078 13.5 88.6078 14Z" fill="#565F77"/>
<path d="M106.037 8C106.535 8.5 107.033 9 107.033 10V17H104.045V11C104.045 10 103.547 9.5 102.551 9.5C102.053 9.5 101.555 10 101.057 10.5C100.559 11 100.061 12 100.061 13V16.5H97.5713V7.5H100.061V9C100.559 8.5 101.057 8 101.555 7.5C102.053 7 103.049 7 103.547 7C104.543 7 105.041 7.5 106.037 8Z" fill="#565F77"/>
<path d="M21.3836 7.5C20.8857 7 20.3877 7 19.8897 7.5L15.9061 9.5L13.4163 11L9.43259 13.5C8.93463 14 8.43667 14 7.93871 13.5L4.453 11.5C3.95504 11.5 3.95504 11 3.95504 10V6.5C3.95504 6 4.453 5.5 4.95096 5L7.93871 3.5C8.43667 3 8.93463 3 9.43259 3.5L12.4203 5C12.9183 5.5 13.4163 6 13.4163 6.5V9L15.9061 7.5V5C15.9061 4.5 15.4081 4 14.9101 3.5L9.43259 0.5C8.93463 1.93715e-08 8.43667 1.93715e-08 7.93871 0.5L1.9632 3.5C1.46524 4 0.967285 4.5 0.967285 5V11.5C0.967285 12.5 1.46524 13 1.9632 13L7.93871 16.5C8.43667 17 8.93463 17 9.43259 16.5L13.4163 14.5L15.9061 13L19.8897 11C20.3877 10.5 20.8857 10.5 21.3836 11L24.3714 12.5C24.8693 12.5 25.3673 13 25.3673 13.5V17C25.3673 17.5 24.8693 18 24.3714 18.5L21.3836 20.5C20.8857 21 20.3877 21 19.8897 20.5L16.902 18.5C16.404 18.5 15.9061 18 15.9061 17.5V15L13.4163 16.5V19C13.4163 19.5 13.9142 20 14.4122 20.5L20.3877 24C20.8857 24.5 21.3836 24.5 21.8816 24L27.8571 20.5C27.8571 20 28.355 19.5 28.355 19V12C28.355 11.5 27.8571 11 27.3591 10.5L21.3836 7.5Z" fill="#565F77"/>
</g>
<defs>
<clipPath id="clip0_30_477">
<rect width="108" height="25" fill="white"/>
</clipPath>
</defs>
</svg>
