<svg width="19" height="11" viewBox="0 0 19 11" fill="none" xmlns="http://www.w3.org/2000/svg">
<path d="M10.7171 5.39522C10.7171 8.37496 8.318 10.7906 5.35847 10.7906C2.39893 10.7906 0 8.37568 0 5.39522C0 2.41476 2.39911 0 5.35847 0C8.31782 0 10.7171 2.41549 10.7171 5.39522ZM16.5956 5.39522C16.5956 8.20028 15.396 10.474 13.9163 10.474C12.4366 10.474 11.237 8.19955 11.237 5.39522C11.237 2.59089 12.4366 0.316424 13.9163 0.316424C15.396 0.316424 16.5956 2.59089 16.5956 5.39522ZM19 5.39522C19 7.90842 18.578 9.94561 18.0576 9.94561C17.5372 9.94561 17.1153 7.90769 17.1153 5.39522C17.1153 2.88275 17.5372 0.844829 18.0578 0.844829C18.5784 0.844829 19 2.88221 19 5.39522Z" fill="#565F77"/>
</svg>
