<svg width="94" height="25" viewBox="0 0 94 25" fill="none" xmlns="http://www.w3.org/2000/svg">
<g opacity="0.1" clip-path="url(#clip0_508_478)">
<path d="M39.244 4.48926C37.5492 4.48926 36.3169 4.88986 35.2699 5.81397L33.421 7.41572C33.2669 7.53928 32.9586 7.63162 32.7433 7.44629C32.5274 7.2616 32.4969 7.01512 32.6816 6.76865L33.6675 5.28982C33.8216 5.07391 33.6987 4.79687 33.421 4.79687H31.0486C30.7716 4.79687 30.5557 5.01277 30.5557 5.28982V19.7088C30.5557 19.9858 30.7716 20.2017 31.0486 20.2017H33.5133C33.7904 20.2017 34.0063 19.9858 34.0063 19.7088V11.5752C34.0063 7.84753 37.1181 7.26223 38.2887 7.26223C40.784 7.26223 41.6775 9.04932 41.6775 10.4046V19.7088C41.6775 19.9858 41.8934 20.2017 42.1704 20.2017H44.6352C44.9122 20.2017 45.1281 19.9858 45.1281 19.7088V10.0964C45.1281 6.64573 42.8787 4.48926 39.2433 4.48926H39.244Z" fill="white"/>
<path d="M55.1711 4.42725C50.3957 4.42725 47.3457 7.35435 47.3457 11.3285V13.5162C47.3457 17.7062 50.3957 20.5715 55.1711 20.5715C59.3917 20.5715 62.3493 18.3838 62.6576 15.4262C62.6888 15.1179 62.4729 14.9027 62.1646 14.9027H59.7617C59.5458 14.9027 59.3611 15.0262 59.2993 15.2415C58.9911 16.2274 57.5434 17.7062 55.1711 17.7062C52.7987 17.7062 50.5804 15.9809 50.611 13.5162L50.6422 10.7744C50.6728 8.71027 52.8299 7.29321 55.1711 7.29321C57.297 7.29321 59.3611 8.495 59.5764 10.4668C59.5942 10.6948 59.4375 10.9005 59.2127 10.9438L52.3051 12.2844C52.028 12.3462 51.8121 12.5927 51.8121 12.9003V12.9309C51.8121 13.2079 52.0892 13.4544 52.4898 13.4544H62.4105C62.6831 13.4544 62.9034 13.2334 62.9034 12.9614V11.0209C62.9034 7.35498 59.7298 4.42788 55.1704 4.42788L55.1711 4.42725Z" fill="white"/>
<path d="M72.362 4.42739C68.5108 4.42739 65.1837 6.67622 65.1837 9.63389C65.1837 9.88036 65.3996 10.0651 65.6766 10.0651H68.1719C68.4184 10.0651 68.6031 9.88036 68.6343 9.63389C68.8808 8.27861 70.5137 7.29272 72.2696 7.29272C74.3643 7.29272 75.782 8.58686 75.782 10.8051V13.4857C75.782 16.2275 73.7485 17.614 71.222 17.614C69.2502 17.614 68.1102 16.8746 68.1102 15.6728C68.1102 14.6251 68.6649 13.7316 70.9443 13.2081L74.2408 12.3145C74.5796 12.2222 74.7031 11.9445 74.6414 11.6369C74.6108 11.3904 74.3338 11.2669 74.0866 11.2669H70.6672C67.7713 11.2669 64.8442 13.1151 64.8442 15.8263V16.2574C64.8442 19.0304 67.4631 20.478 70.4513 20.478C72.3613 20.478 73.9943 19.7386 75.0108 18.8763L76.5208 17.5822C76.7673 17.3663 77.0137 17.3663 77.229 17.5822C77.4137 17.7669 77.3519 18.0445 77.1978 18.2598L76.2737 19.7081C76.1196 19.924 76.2425 20.201 76.5202 20.201H78.7384C79.0155 20.201 79.2314 19.9851 79.2314 19.7081V10.3727C79.2314 6.79914 76.6743 4.42676 72.3607 4.42676L72.362 4.42739Z" fill="white"/>
<path d="M92.5406 4.79736H89.09C87.8889 4.79736 86.7176 5.53678 85.8859 6.24563L84.5306 7.41621C84.3765 7.53977 84.0988 7.63212 83.9141 7.47799C83.6982 7.32387 83.6058 7.01562 83.7912 6.76915L84.7771 5.29031C84.9312 5.07441 84.8083 4.79736 84.5306 4.79736H82.22C81.943 4.79736 81.7271 5.01327 81.7271 5.29031V19.7093C81.7271 19.9863 81.943 20.2022 82.22 20.2022H84.7465C85.0235 20.2022 85.2394 19.9863 85.2394 19.7093V12.3151C85.2394 9.14152 86.5336 7.72447 89.3371 7.72447H92.5413C92.8183 7.72447 93.0342 7.50856 93.0342 7.23152V5.29031C93.0342 5.01327 92.8183 4.79736 92.5413 4.79736H92.5406Z" fill="white"/>
<path d="M21.296 1.32275C20.468 1.32275 19.6993 1.75201 19.2656 2.45767L14.5928 9.39521C14.4406 9.62385 14.5024 9.9321 14.731 10.0843C14.9163 10.2079 15.1615 10.1926 15.3303 10.0474L19.9298 6.05796C20.0063 5.98918 20.1241 5.99618 20.1929 6.07261C20.2241 6.10764 20.2406 6.15285 20.2406 6.19935V18.6898C20.2406 18.793 20.1572 18.8758 20.054 18.8758C19.9986 18.8758 19.9464 18.8516 19.9114 18.8089L6.00764 2.16598C5.55482 1.63164 4.88992 1.32339 4.18999 1.32275H3.70405C2.38889 1.32275 1.32275 2.38889 1.32275 3.70405V21.296C1.32275 22.6111 2.38889 23.6773 3.70405 23.6773C4.53199 23.6773 5.30071 23.248 5.73442 22.5423L10.4072 15.6048C10.5594 15.3762 10.4977 15.0679 10.269 14.9157C10.0837 14.7921 9.83848 14.8074 9.66971 14.9526L5.07016 18.942C4.99373 19.0108 4.87591 19.0038 4.80713 18.9274C4.77592 18.8924 4.75936 18.8472 4.76 18.8007V6.30698C4.76 6.2038 4.84343 6.12101 4.9466 6.12101C5.00137 6.12101 5.05424 6.14521 5.08926 6.18788L18.9911 22.834C19.4439 23.3684 20.1088 23.6766 20.8087 23.6773H21.2947C22.6098 23.6779 23.6766 22.6124 23.6779 21.2972V3.70405C23.6779 2.38889 22.6117 1.32275 21.2966 1.32275H21.296Z" fill="white"/>
</g>
<defs>
<clipPath id="clip0_508_478">
<rect width="93.0556" height="25" fill="white"/>
</clipPath>
</defs>
</svg>
