<svg width="94" height="25" viewBox="0 0 94 25" fill="none" xmlns="http://www.w3.org/2000/svg">
<g opacity="0.3" clip-path="url(#clip0_508_471)">
<path d="M39.244 4.4895C37.5492 4.4895 36.3169 4.8901 35.2699 5.81421L33.421 7.41597C33.2669 7.53952 32.9586 7.63187 32.7433 7.44654C32.5274 7.26184 32.4969 7.01537 32.6816 6.7689L33.6675 5.29006C33.8216 5.07416 33.6987 4.79712 33.421 4.79712H31.0486C30.7716 4.79712 30.5557 5.01302 30.5557 5.29006V19.709C30.5557 19.9861 30.7716 20.202 31.0486 20.202H33.5133C33.7904 20.202 34.0063 19.9861 34.0063 19.709V11.5754C34.0063 7.84777 37.1181 7.26248 38.2887 7.26248C40.784 7.26248 41.6775 9.04957 41.6775 10.4048V19.709C41.6775 19.9861 41.8934 20.202 42.1704 20.202H44.6352C44.9122 20.202 45.1281 19.9861 45.1281 19.709V10.0966C45.1281 6.64598 42.8787 4.4895 39.2433 4.4895H39.244Z" fill="#565F77"/>
<path d="M55.1711 4.42773C50.3957 4.42773 47.3457 7.35483 47.3457 11.329V13.5167C47.3457 17.7067 50.3957 20.572 55.1711 20.572C59.3917 20.572 62.3493 18.3843 62.6576 15.4267C62.6888 15.1184 62.4729 14.9031 62.1646 14.9031H59.7617C59.5458 14.9031 59.3611 15.0267 59.2993 15.242C58.9911 16.2279 57.5434 17.7067 55.1711 17.7067C52.7987 17.7067 50.5804 15.9814 50.611 13.5167L50.6422 10.7749C50.6728 8.71075 52.8299 7.2937 55.1711 7.2937C57.297 7.2937 59.3611 8.49549 59.5764 10.4673C59.5942 10.6953 59.4375 10.901 59.2127 10.9443L52.3051 12.2849C52.028 12.3467 51.8121 12.5932 51.8121 12.9008V12.9314C51.8121 13.2084 52.0892 13.4549 52.4898 13.4549H62.4105C62.6831 13.4549 62.9034 13.2339 62.9034 12.9619V11.0214C62.9034 7.35547 59.7298 4.42837 55.1704 4.42837L55.1711 4.42773Z" fill="#565F77"/>
<path d="M72.362 4.42764C68.5108 4.42764 65.1837 6.67646 65.1837 9.63413C65.1837 9.88061 65.3996 10.0653 65.6766 10.0653H68.1719C68.4184 10.0653 68.6031 9.88061 68.6343 9.63413C68.8808 8.27885 70.5137 7.29296 72.2696 7.29296C74.3643 7.29296 75.782 8.5871 75.782 10.8054V13.486C75.782 16.2278 73.7485 17.6142 71.222 17.6142C69.2502 17.6142 68.1102 16.8748 68.1102 15.673C68.1102 14.6254 68.6649 13.7318 70.9443 13.2083L74.2408 12.3148C74.5796 12.2224 74.7031 11.9447 74.6414 11.6371C74.6108 11.3907 74.3338 11.2671 74.0866 11.2671H70.6672C67.7713 11.2671 64.8442 13.1153 64.8442 15.8265V16.2577C64.8442 19.0307 67.4631 20.4783 70.4513 20.4783C72.3613 20.4783 73.9943 19.7389 75.0108 18.8765L76.5208 17.5824C76.7673 17.3665 77.0137 17.3665 77.229 17.5824C77.4137 17.7671 77.3519 18.0448 77.1978 18.26L76.2737 19.7083C76.1196 19.9242 76.2425 20.2013 76.5202 20.2013H78.7384C79.0155 20.2013 79.2314 19.9853 79.2314 19.7083V10.3729C79.2314 6.79938 76.6743 4.427 72.3607 4.427L72.362 4.42764Z" fill="#565F77"/>
<path d="M92.5406 4.79761H89.09C87.8889 4.79761 86.7176 5.53703 85.8859 6.24587L84.5306 7.41646C84.3765 7.54001 84.0988 7.63236 83.9141 7.47824C83.6982 7.32411 83.6058 7.01586 83.7912 6.76939L84.7771 5.29055C84.9312 5.07465 84.8083 4.79761 84.5306 4.79761H82.22C81.943 4.79761 81.7271 5.01351 81.7271 5.29055V19.7095C81.7271 19.9866 81.943 20.2025 82.22 20.2025H84.7465C85.0235 20.2025 85.2394 19.9866 85.2394 19.7095V12.3153C85.2394 9.14177 86.5336 7.72471 89.3371 7.72471H92.5413C92.8183 7.72471 93.0342 7.50881 93.0342 7.23176V5.29055C93.0342 5.01351 92.8183 4.79761 92.5413 4.79761H92.5406Z" fill="#565F77"/>
<path d="M21.296 1.32275C20.468 1.32275 19.6993 1.75201 19.2656 2.45767L14.5928 9.39521C14.4406 9.62385 14.5024 9.9321 14.731 10.0843C14.9163 10.2079 15.1615 10.1926 15.3303 10.0474L19.9298 6.05796C20.0063 5.98918 20.1241 5.99618 20.1929 6.07261C20.2241 6.10764 20.2406 6.15285 20.2406 6.19935V18.6898C20.2406 18.793 20.1572 18.8758 20.054 18.8758C19.9986 18.8758 19.9464 18.8516 19.9114 18.8089L6.00764 2.16598C5.55482 1.63164 4.88992 1.32339 4.18999 1.32275H3.70405C2.38889 1.32275 1.32275 2.38889 1.32275 3.70405V21.296C1.32275 22.6111 2.38889 23.6773 3.70405 23.6773C4.53199 23.6773 5.30071 23.248 5.73442 22.5423L10.4072 15.6048C10.5594 15.3762 10.4977 15.0679 10.269 14.9157C10.0837 14.7921 9.83848 14.8074 9.66971 14.9526L5.07016 18.942C4.99373 19.0108 4.87591 19.0038 4.80713 18.9274C4.77592 18.8924 4.75936 18.8472 4.76 18.8007V6.30698C4.76 6.2038 4.84343 6.12101 4.9466 6.12101C5.00137 6.12101 5.05424 6.14521 5.08926 6.18788L18.9911 22.834C19.4439 23.3684 20.1088 23.6766 20.8087 23.6773H21.2947C22.6098 23.6779 23.6766 22.6124 23.6779 21.2972V3.70405C23.6779 2.38889 22.6117 1.32275 21.2966 1.32275H21.296Z" fill="#565F77"/>
</g>
<defs>
<clipPath id="clip0_508_471">
<rect width="93.0556" height="25" fill="white"/>
</clipPath>
</defs>
</svg>
