<svg width="40" height="40" viewBox="0 0 40 40" fill="none" xmlns="http://www.w3.org/2000/svg">
<mask id="mask0_2823_185576" style="mask-type:alpha" maskUnits="userSpaceOnUse" x="0" y="0" width="40" height="40">
<circle cx="19.7989" cy="19.7989" r="15.2989" transform="rotate(-90 19.7989 19.7989)" stroke="white" stroke-width="9"/>
</mask>
<g mask="url(#mask0_2823_185576)">
<g opacity="0.3">
<circle cx="0.344271" cy="7.12246" r="0.522005" transform="rotate(-90 0.344271 7.12246)" fill="#594B3E"/>
<circle cx="0.343295" cy="14.952" r="0.522005" transform="rotate(-90 0.343295 14.952)" fill="#594B3E"/>
<circle cx="0.343295" cy="22.7819" r="0.522005" transform="rotate(-90 0.343295 22.7819)" fill="#594B3E"/>
<circle cx="0.344271" cy="9.73239" r="0.522005" transform="rotate(-90 0.344271 9.73239)" fill="#594B3E"/>
<circle cx="0.344271" cy="17.563" r="0.522005" transform="rotate(-90 0.344271 17.563)" fill="#594B3E"/>
<circle cx="0.343295" cy="25.3921" r="0.522005" transform="rotate(-90 0.343295 25.3921)" fill="#594B3E"/>
<circle cx="0.344271" cy="12.3426" r="0.522005" transform="rotate(-90 0.344271 12.3426)" fill="#594B3E"/>
<circle cx="0.343295" cy="20.1723" r="0.522005" transform="rotate(-90 0.343295 20.1723)" fill="#594B3E"/>
<circle cx="0.343295" cy="28.0023" r="0.522005" transform="rotate(-90 0.343295 28.0023)" fill="#594B3E"/>
<circle cx="2.95365" cy="7.12268" r="0.522005" transform="rotate(-90 2.95365 7.12268)" fill="#594B3E"/>
<circle cx="2.95365" cy="14.952" r="0.522005" transform="rotate(-90 2.95365 14.952)" fill="#594B3E"/>
<circle cx="2.95365" cy="22.7821" r="0.522005" transform="rotate(-90 2.95365 22.7821)" fill="#594B3E"/>
<circle cx="2.95365" cy="9.73187" r="0.522005" transform="rotate(-90 2.95365 9.73187)" fill="#594B3E"/>
<circle cx="2.95365" cy="17.5623" r="0.522005" transform="rotate(-90 2.95365 17.5623)" fill="#594B3E"/>
<circle cx="2.95365" cy="25.3923" r="0.522005" transform="rotate(-90 2.95365 25.3923)" fill="#594B3E"/>
<circle cx="2.95365" cy="12.3421" r="0.522005" transform="rotate(-90 2.95365 12.3421)" fill="#594B3E"/>
<circle cx="2.95267" cy="20.1721" r="0.522005" transform="rotate(-90 2.95267 20.1721)" fill="#594B3E"/>
<circle cx="2.95365" cy="28.0023" r="0.522005" transform="rotate(-90 2.95365 28.0023)" fill="#594B3E"/>
<circle cx="0.342318" cy="1.9017" r="0.522005" transform="rotate(-90 0.342318 1.9017)" fill="#594B3E"/>
<circle cx="0.342318" cy="4.51162" r="0.522005" transform="rotate(-90 0.342318 4.51162)" fill="#594B3E"/>
<circle cx="2.95267" cy="1.9017" r="0.522005" transform="rotate(-90 2.95267 1.9017)" fill="#594B3E"/>
<circle cx="2.95267" cy="4.51193" r="0.522005" transform="rotate(-90 2.95267 4.51193)" fill="#594B3E"/>
</g>
<g opacity="0.3">
<circle cx="16.0044" cy="7.12246" r="0.522005" transform="rotate(-90 16.0044 7.12246)" fill="#594B3E"/>
<circle cx="16.0044" cy="14.953" r="0.522005" transform="rotate(-90 16.0044 14.953)" fill="#594B3E"/>
<circle cx="16.0035" cy="22.7821" r="0.522005" transform="rotate(-90 16.0035 22.7821)" fill="#594B3E"/>
<circle cx="16.0044" cy="9.73269" r="0.522005" transform="rotate(-90 16.0044 9.73269)" fill="#594B3E"/>
<circle cx="16.0044" cy="17.5633" r="0.522005" transform="rotate(-90 16.0044 17.5633)" fill="#594B3E"/>
<circle cx="16.0035" cy="25.3923" r="0.522005" transform="rotate(-90 16.0035 25.3923)" fill="#594B3E"/>
<circle cx="16.0044" cy="12.3429" r="0.522005" transform="rotate(-90 16.0044 12.3429)" fill="#594B3E"/>
<circle cx="16.0035" cy="20.1724" r="0.522005" transform="rotate(-90 16.0035 20.1724)" fill="#594B3E"/>
<circle cx="16.0035" cy="28.0023" r="0.522005" transform="rotate(-90 16.0035 28.0023)" fill="#594B3E"/>
<circle cx="18.6148" cy="7.12246" r="0.522005" transform="rotate(-90 18.6148 7.12246)" fill="#594B3E"/>
<circle cx="18.6148" cy="14.9528" r="0.522005" transform="rotate(-90 18.6148 14.9528)" fill="#594B3E"/>
<circle cx="18.6138" cy="22.7821" r="0.522005" transform="rotate(-90 18.6138 22.7821)" fill="#594B3E"/>
<circle cx="18.6148" cy="9.73269" r="0.522005" transform="rotate(-90 18.6148 9.73269)" fill="#594B3E"/>
<circle cx="18.6138" cy="17.5624" r="0.522005" transform="rotate(-90 18.6138 17.5624)" fill="#594B3E"/>
<circle cx="18.6138" cy="25.3927" r="0.522005" transform="rotate(-90 18.6138 25.3927)" fill="#594B3E"/>
<circle cx="18.6148" cy="12.3429" r="0.522005" transform="rotate(-90 18.6148 12.3429)" fill="#594B3E"/>
<circle cx="18.6138" cy="20.1724" r="0.522005" transform="rotate(-90 18.6138 20.1724)" fill="#594B3E"/>
<circle cx="18.6138" cy="28.0023" r="0.522005" transform="rotate(-90 18.6138 28.0023)" fill="#594B3E"/>
<circle cx="16.0044" cy="1.90231" r="0.522005" transform="rotate(-90 16.0044 1.90231)" fill="#594B3E"/>
<circle cx="16.0044" cy="4.51242" r="0.522005" transform="rotate(-90 16.0044 4.51242)" fill="#594B3E"/>
<circle cx="18.6158" cy="1.90323" r="0.522005" transform="rotate(-90 18.6158 1.90323)" fill="#594B3E"/>
<circle cx="18.6148" cy="4.51242" r="0.522005" transform="rotate(-90 18.6148 4.51242)" fill="#594B3E"/>
</g>
<g opacity="0.3">
<circle cx="5.56204" cy="7.12243" r="0.522005" transform="rotate(-90 5.56204 7.12243)" fill="#594B3E"/>
<circle cx="5.56204" cy="14.9519" r="0.522005" transform="rotate(-90 5.56204 14.9519)" fill="#594B3E"/>
<circle cx="5.56204" cy="22.7817" r="0.522005" transform="rotate(-90 5.56204 22.7817)" fill="#594B3E"/>
<circle cx="5.56302" cy="9.73245" r="0.522005" transform="rotate(-90 5.56302 9.73245)" fill="#594B3E"/>
<circle cx="5.56204" cy="17.562" r="0.522005" transform="rotate(-90 5.56204 17.562)" fill="#594B3E"/>
<circle cx="5.56204" cy="25.392" r="0.522005" transform="rotate(-90 5.56204 25.392)" fill="#594B3E"/>
<circle cx="5.56204" cy="12.3417" r="0.522005" transform="rotate(-90 5.56204 12.3417)" fill="#594B3E"/>
<circle cx="5.56204" cy="20.1722" r="0.522005" transform="rotate(-90 5.56204 20.1722)" fill="#594B3E"/>
<circle cx="5.56204" cy="28.0022" r="0.522005" transform="rotate(-90 5.56204 28.0022)" fill="#594B3E"/>
<circle cx="8.1724" cy="7.12265" r="0.522005" transform="rotate(-90 8.1724 7.12265)" fill="#594B3E"/>
<circle cx="8.1724" cy="14.9521" r="0.522005" transform="rotate(-90 8.1724 14.9521)" fill="#594B3E"/>
<circle cx="8.17142" cy="22.782" r="0.522005" transform="rotate(-90 8.17142 22.782)" fill="#594B3E"/>
<circle cx="8.17142" cy="9.73184" r="0.522005" transform="rotate(-90 8.17142 9.73184)" fill="#594B3E"/>
<circle cx="8.1724" cy="17.5621" r="0.522005" transform="rotate(-90 8.1724 17.5621)" fill="#594B3E"/>
<circle cx="8.17142" cy="25.3923" r="0.522005" transform="rotate(-90 8.17142 25.3923)" fill="#594B3E"/>
<circle cx="8.1724" cy="12.3419" r="0.522005" transform="rotate(-90 8.1724 12.3419)" fill="#594B3E"/>
<circle cx="8.17142" cy="20.1719" r="0.522005" transform="rotate(-90 8.17142 20.1719)" fill="#594B3E"/>
<circle cx="8.1724" cy="28.0022" r="0.522005" transform="rotate(-90 8.1724 28.0022)" fill="#594B3E"/>
<circle cx="5.56204" cy="1.90176" r="0.522005" transform="rotate(-90 5.56204 1.90176)" fill="#594B3E"/>
<circle cx="5.56204" cy="4.5119" r="0.522005" transform="rotate(-90 5.56204 4.5119)" fill="#594B3E"/>
<circle cx="8.1724" cy="1.90194" r="0.522005" transform="rotate(-90 8.1724 1.90194)" fill="#594B3E"/>
<circle cx="8.1724" cy="4.51196" r="0.522005" transform="rotate(-90 8.1724 4.51196)" fill="#594B3E"/>
</g>
<g opacity="0.3">
<circle cx="21.2242" cy="7.1217" r="0.522005" transform="rotate(-90 21.2242 7.1217)" fill="#594B3E"/>
<circle cx="21.2232" cy="14.9517" r="0.522005" transform="rotate(-90 21.2232 14.9517)" fill="#594B3E"/>
<circle cx="21.2242" cy="22.7819" r="0.522005" transform="rotate(-90 21.2242 22.7819)" fill="#594B3E"/>
<circle cx="21.2232" cy="9.73132" r="0.522005" transform="rotate(-90 21.2232 9.73132)" fill="#594B3E"/>
<circle cx="21.2242" cy="17.5623" r="0.522005" transform="rotate(-90 21.2242 17.5623)" fill="#594B3E"/>
<circle cx="21.2232" cy="25.3913" r="0.522005" transform="rotate(-90 21.2232 25.3913)" fill="#594B3E"/>
<circle cx="21.2242" cy="12.3419" r="0.522005" transform="rotate(-90 21.2242 12.3419)" fill="#594B3E"/>
<circle cx="21.2242" cy="20.1718" r="0.522005" transform="rotate(-90 21.2242 20.1718)" fill="#594B3E"/>
<circle cx="21.2232" cy="28.0013" r="0.522005" transform="rotate(-90 21.2232 28.0013)" fill="#594B3E"/>
<circle cx="23.8335" cy="7.1217" r="0.522005" transform="rotate(-90 23.8335 7.1217)" fill="#594B3E"/>
<circle cx="23.8345" cy="14.9521" r="0.522005" transform="rotate(-90 23.8345 14.9521)" fill="#594B3E"/>
<circle cx="23.8335" cy="22.7811" r="0.522005" transform="rotate(-90 23.8335 22.7811)" fill="#594B3E"/>
<circle cx="23.8345" cy="9.73172" r="0.522005" transform="rotate(-90 23.8345 9.73172)" fill="#594B3E"/>
<circle cx="23.8345" cy="17.5623" r="0.522005" transform="rotate(-90 23.8345 17.5623)" fill="#594B3E"/>
<circle cx="23.8335" cy="25.3913" r="0.522005" transform="rotate(-90 23.8335 25.3913)" fill="#594B3E"/>
<circle cx="23.8345" cy="12.3419" r="0.522005" transform="rotate(-90 23.8345 12.3419)" fill="#594B3E"/>
<circle cx="23.8345" cy="20.1718" r="0.522005" transform="rotate(-90 23.8345 20.1718)" fill="#594B3E"/>
<circle cx="23.8335" cy="28.0016" r="0.522005" transform="rotate(-90 23.8335 28.0016)" fill="#594B3E"/>
<circle cx="21.2232" cy="1.90149" r="0.522005" transform="rotate(-90 21.2232 1.90149)" fill="#594B3E"/>
<circle cx="21.2232" cy="4.5115" r="0.522005" transform="rotate(-90 21.2232 4.5115)" fill="#594B3E"/>
<circle cx="23.8335" cy="1.90188" r="0.522005" transform="rotate(-90 23.8335 1.90188)" fill="#594B3E"/>
<circle cx="23.8335" cy="4.51159" r="0.522005" transform="rotate(-90 23.8335 4.51159)" fill="#594B3E"/>
</g>
<g opacity="0.3">
<circle cx="10.7827" cy="7.1217" r="0.522005" transform="rotate(-90 10.7827 7.1217)" fill="#594B3E"/>
<circle cx="10.7818" cy="14.9517" r="0.522005" transform="rotate(-90 10.7818 14.9517)" fill="#594B3E"/>
<circle cx="10.7827" cy="22.7819" r="0.522005" transform="rotate(-90 10.7827 22.7819)" fill="#594B3E"/>
<circle cx="10.7818" cy="9.73132" r="0.522005" transform="rotate(-90 10.7818 9.73132)" fill="#594B3E"/>
<circle cx="10.7827" cy="17.5623" r="0.522005" transform="rotate(-90 10.7827 17.5623)" fill="#594B3E"/>
<circle cx="10.7818" cy="25.3913" r="0.522005" transform="rotate(-90 10.7818 25.3913)" fill="#594B3E"/>
<circle cx="10.7827" cy="12.3419" r="0.522005" transform="rotate(-90 10.7827 12.3419)" fill="#594B3E"/>
<circle cx="10.7827" cy="20.1718" r="0.522005" transform="rotate(-90 10.7827 20.1718)" fill="#594B3E"/>
<circle cx="10.7818" cy="28.0013" r="0.522005" transform="rotate(-90 10.7818 28.0013)" fill="#594B3E"/>
<circle cx="13.3921" cy="7.1217" r="0.522005" transform="rotate(-90 13.3921 7.1217)" fill="#594B3E"/>
<circle cx="13.3931" cy="14.9521" r="0.522005" transform="rotate(-90 13.3931 14.9521)" fill="#594B3E"/>
<circle cx="13.3921" cy="22.7811" r="0.522005" transform="rotate(-90 13.3921 22.7811)" fill="#594B3E"/>
<circle cx="13.3931" cy="9.73172" r="0.522005" transform="rotate(-90 13.3931 9.73172)" fill="#594B3E"/>
<circle cx="13.3931" cy="17.5623" r="0.522005" transform="rotate(-90 13.3931 17.5623)" fill="#594B3E"/>
<circle cx="13.3921" cy="25.3913" r="0.522005" transform="rotate(-90 13.3921 25.3913)" fill="#594B3E"/>
<circle cx="13.3931" cy="12.3419" r="0.522005" transform="rotate(-90 13.3931 12.3419)" fill="#594B3E"/>
<circle cx="13.3931" cy="20.1718" r="0.522005" transform="rotate(-90 13.3931 20.1718)" fill="#594B3E"/>
<circle cx="13.3921" cy="28.0016" r="0.522005" transform="rotate(-90 13.3921 28.0016)" fill="#594B3E"/>
<circle cx="10.7818" cy="1.90115" r="0.522005" transform="rotate(-90 10.7818 1.90115)" fill="#594B3E"/>
<circle cx="10.7818" cy="4.51117" r="0.522005" transform="rotate(-90 10.7818 4.51117)" fill="#594B3E"/>
<circle cx="13.3921" cy="1.90115" r="0.522005" transform="rotate(-90 13.3921 1.90115)" fill="#594B3E"/>
<circle cx="13.3921" cy="4.51126" r="0.522005" transform="rotate(-90 13.3921 4.51126)" fill="#594B3E"/>
</g>
<g opacity="0.3">
<circle cx="26.4429" cy="7.12195" r="0.522005" transform="rotate(-90 26.4429 7.12195)" fill="#594B3E"/>
<circle cx="26.4439" cy="14.9523" r="0.522005" transform="rotate(-90 26.4439 14.9523)" fill="#594B3E"/>
<circle cx="26.4429" cy="22.7819" r="0.522005" transform="rotate(-90 26.4429 22.7819)" fill="#594B3E"/>
<circle cx="26.4429" cy="9.73205" r="0.522005" transform="rotate(-90 26.4429 9.73205)" fill="#594B3E"/>
<circle cx="26.4429" cy="17.5621" r="0.522005" transform="rotate(-90 26.4429 17.5621)" fill="#594B3E"/>
<circle cx="26.4429" cy="25.3921" r="0.522005" transform="rotate(-90 26.4429 25.3921)" fill="#594B3E"/>
<circle cx="26.4429" cy="12.3423" r="0.522005" transform="rotate(-90 26.4429 12.3423)" fill="#594B3E"/>
<circle cx="26.4429" cy="20.1721" r="0.522005" transform="rotate(-90 26.4429 20.1721)" fill="#594B3E"/>
<circle cx="26.4429" cy="28.0021" r="0.522005" transform="rotate(-90 26.4429 28.0021)" fill="#594B3E"/>
<circle cx="29.0533" cy="7.12204" r="0.522005" transform="rotate(-90 29.0533 7.12204)" fill="#594B3E"/>
<circle cx="29.0533" cy="14.9521" r="0.522005" transform="rotate(-90 29.0533 14.9521)" fill="#594B3E"/>
<circle cx="29.0533" cy="22.7819" r="0.522005" transform="rotate(-90 29.0533 22.7819)" fill="#594B3E"/>
<circle cx="29.0533" cy="9.73175" r="0.522005" transform="rotate(-90 29.0533 9.73175)" fill="#594B3E"/>
<circle cx="29.0533" cy="17.5623" r="0.522005" transform="rotate(-90 29.0533 17.5623)" fill="#594B3E"/>
<circle cx="29.0533" cy="25.3922" r="0.522005" transform="rotate(-90 29.0533 25.3922)" fill="#594B3E"/>
<circle cx="29.0533" cy="12.3424" r="0.522005" transform="rotate(-90 29.0533 12.3424)" fill="#594B3E"/>
<circle cx="29.0533" cy="20.1719" r="0.522005" transform="rotate(-90 29.0533 20.1719)" fill="#594B3E"/>
<circle cx="29.0533" cy="28.0023" r="0.522005" transform="rotate(-90 29.0533 28.0023)" fill="#594B3E"/>
<circle cx="26.4439" cy="1.90185" r="0.522005" transform="rotate(-90 26.4439 1.90185)" fill="#594B3E"/>
<circle cx="26.4439" cy="4.51181" r="0.522005" transform="rotate(-90 26.4439 4.51181)" fill="#594B3E"/>
<circle cx="29.0542" cy="1.90204" r="0.522005" transform="rotate(-90 29.0542 1.90204)" fill="#594B3E"/>
<circle cx="29.0542" cy="4.51205" r="0.522005" transform="rotate(-90 29.0542 4.51205)" fill="#594B3E"/>
</g>
<g opacity="0.3">
<circle cx="31.6646" cy="7.12332" r="0.522005" transform="rotate(-90 31.6646 7.12332)" fill="#594B3E"/>
<circle cx="31.6636" cy="14.9528" r="0.522005" transform="rotate(-90 31.6636 14.9528)" fill="#594B3E"/>
<circle cx="31.6636" cy="22.7827" r="0.522005" transform="rotate(-90 31.6636 22.7827)" fill="#594B3E"/>
<circle cx="31.6636" cy="9.73254" r="0.522005" transform="rotate(-90 31.6636 9.73254)" fill="#594B3E"/>
<circle cx="31.6646" cy="17.5638" r="0.522005" transform="rotate(-90 31.6646 17.5638)" fill="#594B3E"/>
<circle cx="31.6636" cy="25.3929" r="0.522005" transform="rotate(-90 31.6636 25.3929)" fill="#594B3E"/>
<circle cx="31.6646" cy="12.3436" r="0.522005" transform="rotate(-90 31.6646 12.3436)" fill="#594B3E"/>
<circle cx="31.6636" cy="20.1731" r="0.522005" transform="rotate(-90 31.6636 20.1731)" fill="#594B3E"/>
<circle cx="31.6636" cy="28.003" r="0.522005" transform="rotate(-90 31.6636 28.003)" fill="#594B3E"/>
<circle cx="34.274" cy="7.12262" r="0.522005" transform="rotate(-90 34.274 7.12262)" fill="#594B3E"/>
<circle cx="34.274" cy="14.953" r="0.522005" transform="rotate(-90 34.274 14.953)" fill="#594B3E"/>
<circle cx="34.274" cy="22.7829" r="0.522005" transform="rotate(-90 34.274 22.7829)" fill="#594B3E"/>
<circle cx="34.274" cy="9.73276" r="0.522005" transform="rotate(-90 34.274 9.73276)" fill="#594B3E"/>
<circle cx="34.274" cy="17.5632" r="0.522005" transform="rotate(-90 34.274 17.5632)" fill="#594B3E"/>
<circle cx="34.274" cy="25.3932" r="0.522005" transform="rotate(-90 34.274 25.3932)" fill="#594B3E"/>
<circle cx="34.274" cy="12.343" r="0.522005" transform="rotate(-90 34.274 12.343)" fill="#594B3E"/>
<circle cx="34.274" cy="20.1728" r="0.522005" transform="rotate(-90 34.274 20.1728)" fill="#594B3E"/>
<circle cx="34.274" cy="28.0032" r="0.522005" transform="rotate(-90 34.274 28.0032)" fill="#594B3E"/>
<circle cx="31.6646" cy="1.9032" r="0.522005" transform="rotate(-90 31.6646 1.9032)" fill="#594B3E"/>
<circle cx="31.6646" cy="4.51321" r="0.522005" transform="rotate(-90 31.6646 4.51321)" fill="#594B3E"/>
<circle cx="34.2749" cy="1.90332" r="0.522005" transform="rotate(-90 34.2749 1.90332)" fill="#594B3E"/>
<circle cx="34.2749" cy="4.51343" r="0.522005" transform="rotate(-90 34.2749 4.51343)" fill="#594B3E"/>
</g>
<g opacity="0.3">
<circle cx="36.8843" cy="7.12329" r="0.522005" transform="rotate(-90 36.8843 7.12329)" fill="#594B3E"/>
<circle cx="36.8833" cy="14.9528" r="0.522005" transform="rotate(-90 36.8833 14.9528)" fill="#594B3E"/>
<circle cx="36.8833" cy="22.7827" r="0.522005" transform="rotate(-90 36.8833 22.7827)" fill="#594B3E"/>
<circle cx="36.8843" cy="9.73321" r="0.522005" transform="rotate(-90 36.8843 9.73321)" fill="#594B3E"/>
<circle cx="36.8843" cy="17.5639" r="0.522005" transform="rotate(-90 36.8843 17.5639)" fill="#594B3E"/>
<circle cx="36.8833" cy="25.3929" r="0.522005" transform="rotate(-90 36.8833 25.3929)" fill="#594B3E"/>
<circle cx="36.8843" cy="12.3434" r="0.522005" transform="rotate(-90 36.8843 12.3434)" fill="#594B3E"/>
<circle cx="36.8833" cy="20.1731" r="0.522005" transform="rotate(-90 36.8833 20.1731)" fill="#594B3E"/>
<circle cx="36.8833" cy="28.003" r="0.522005" transform="rotate(-90 36.8833 28.003)" fill="#594B3E"/>
<circle cx="39.4937" cy="7.1235" r="0.522005" transform="rotate(-90 39.4937 7.1235)" fill="#594B3E"/>
<circle cx="39.4937" cy="14.9528" r="0.522005" transform="rotate(-90 39.4937 14.9528)" fill="#594B3E"/>
<circle cx="39.4937" cy="22.7829" r="0.522005" transform="rotate(-90 39.4937 22.7829)" fill="#594B3E"/>
<circle cx="39.4937" cy="9.73273" r="0.522005" transform="rotate(-90 39.4937 9.73273)" fill="#594B3E"/>
<circle cx="39.4937" cy="17.5631" r="0.522005" transform="rotate(-90 39.4937 17.5631)" fill="#594B3E"/>
<circle cx="39.4937" cy="25.3931" r="0.522005" transform="rotate(-90 39.4937 25.3931)" fill="#594B3E"/>
<circle cx="39.4937" cy="12.3429" r="0.522005" transform="rotate(-90 39.4937 12.3429)" fill="#594B3E"/>
<circle cx="39.4927" cy="20.1729" r="0.522005" transform="rotate(-90 39.4927 20.1729)" fill="#594B3E"/>
<circle cx="39.4937" cy="28.0031" r="0.522005" transform="rotate(-90 39.4937 28.0031)" fill="#594B3E"/>
<circle cx="36.8833" cy="1.90222" r="0.522005" transform="rotate(-90 36.8833 1.90222)" fill="#594B3E"/>
<circle cx="36.8833" cy="4.51236" r="0.522005" transform="rotate(-90 36.8833 4.51236)" fill="#594B3E"/>
<circle cx="39.4937" cy="1.90243" r="0.522005" transform="rotate(-90 39.4937 1.90243)" fill="#594B3E"/>
<circle cx="39.4937" cy="4.51245" r="0.522005" transform="rotate(-90 39.4937 4.51245)" fill="#594B3E"/>
</g>
<g opacity="0.3">
<circle cx="0.345248" cy="30.6127" r="0.522005" transform="rotate(-90 0.345248 30.6127)" fill="#594B3E"/>
<circle cx="0.344271" cy="38.4422" r="0.522005" transform="rotate(-90 0.344271 38.4422)" fill="#594B3E"/>
<circle cx="0.344271" cy="33.2219" r="0.522005" transform="rotate(-90 0.344271 33.2219)" fill="#594B3E"/>
<circle cx="0.345248" cy="35.8329" r="0.522005" transform="rotate(-90 0.345248 35.8329)" fill="#594B3E"/>
<circle cx="2.95365" cy="30.6121" r="0.522005" transform="rotate(-90 2.95365 30.6121)" fill="#594B3E"/>
<circle cx="2.95462" cy="38.4423" r="0.522005" transform="rotate(-90 2.95462 38.4423)" fill="#594B3E"/>
<circle cx="2.95462" cy="33.2221" r="0.522005" transform="rotate(-90 2.95462 33.2221)" fill="#594B3E"/>
<circle cx="2.95462" cy="35.8323" r="0.522005" transform="rotate(-90 2.95462 35.8323)" fill="#594B3E"/>
</g>
<g opacity="0.3">
<circle cx="16.0044" cy="30.6129" r="0.522005" transform="rotate(-90 16.0044 30.6129)" fill="#594B3E"/>
<circle cx="16.0035" cy="38.4423" r="0.522005" transform="rotate(-90 16.0035 38.4423)" fill="#594B3E"/>
<circle cx="16.0044" cy="33.223" r="0.522005" transform="rotate(-90 16.0044 33.223)" fill="#594B3E"/>
<circle cx="16.0044" cy="35.8331" r="0.522005" transform="rotate(-90 16.0044 35.8331)" fill="#594B3E"/>
<circle cx="18.6138" cy="30.6129" r="0.522005" transform="rotate(-90 18.6138 30.6129)" fill="#594B3E"/>
<circle cx="18.6148" cy="38.4431" r="0.522005" transform="rotate(-90 18.6148 38.4431)" fill="#594B3E"/>
<circle cx="18.6148" cy="33.223" r="0.522005" transform="rotate(-90 18.6148 33.223)" fill="#594B3E"/>
<circle cx="18.6148" cy="35.8332" r="0.522005" transform="rotate(-90 18.6148 35.8332)" fill="#594B3E"/>
</g>
<g opacity="0.3">
<circle cx="5.56497" cy="30.6132" r="0.522005" transform="rotate(-90 5.56497 30.6132)" fill="#594B3E"/>
<circle cx="5.564" cy="38.4427" r="0.522005" transform="rotate(-90 5.564 38.4427)" fill="#594B3E"/>
<circle cx="5.56497" cy="33.2231" r="0.522005" transform="rotate(-90 5.56497 33.2231)" fill="#594B3E"/>
<circle cx="5.564" cy="35.8325" r="0.522005" transform="rotate(-90 5.564 35.8325)" fill="#594B3E"/>
<circle cx="8.17435" cy="30.6134" r="0.522005" transform="rotate(-90 8.17435 30.6134)" fill="#594B3E"/>
<circle cx="8.17435" cy="38.4427" r="0.522005" transform="rotate(-90 8.17435 38.4427)" fill="#594B3E"/>
<circle cx="8.17435" cy="33.2226" r="0.522005" transform="rotate(-90 8.17435 33.2226)" fill="#594B3E"/>
<circle cx="8.17435" cy="35.8325" r="0.522005" transform="rotate(-90 8.17435 35.8325)" fill="#594B3E"/>
</g>
<g opacity="0.3">
<circle cx="21.2232" cy="30.6128" r="0.522005" transform="rotate(-90 21.2232 30.6128)" fill="#594B3E"/>
<circle cx="21.2232" cy="38.4426" r="0.522005" transform="rotate(-90 21.2232 38.4426)" fill="#594B3E"/>
<circle cx="21.2232" cy="33.2223" r="0.522005" transform="rotate(-90 21.2232 33.2223)" fill="#594B3E"/>
<circle cx="21.2242" cy="35.8329" r="0.522005" transform="rotate(-90 21.2242 35.8329)" fill="#594B3E"/>
<circle cx="23.8335" cy="30.6128" r="0.522005" transform="rotate(-90 23.8335 30.6128)" fill="#594B3E"/>
<circle cx="23.8335" cy="38.4426" r="0.522005" transform="rotate(-90 23.8335 38.4426)" fill="#594B3E"/>
<circle cx="23.8345" cy="33.2227" r="0.522005" transform="rotate(-90 23.8345 33.2227)" fill="#594B3E"/>
<circle cx="23.8345" cy="35.8329" r="0.522005" transform="rotate(-90 23.8345 35.8329)" fill="#594B3E"/>
</g>
<g opacity="0.3">
<circle cx="10.7847" cy="30.6136" r="0.522005" transform="rotate(-90 10.7847 30.6136)" fill="#594B3E"/>
<circle cx="10.7847" cy="38.4434" r="0.522005" transform="rotate(-90 10.7847 38.4434)" fill="#594B3E"/>
<circle cx="10.7837" cy="33.2232" r="0.522005" transform="rotate(-90 10.7837 33.2232)" fill="#594B3E"/>
<circle cx="10.7847" cy="35.8339" r="0.522005" transform="rotate(-90 10.7847 35.8339)" fill="#594B3E"/>
<circle cx="13.3941" cy="30.6136" r="0.522005" transform="rotate(-90 13.3941 30.6136)" fill="#594B3E"/>
<circle cx="13.3941" cy="38.4434" r="0.522005" transform="rotate(-90 13.3941 38.4434)" fill="#594B3E"/>
<circle cx="13.3951" cy="33.2236" r="0.522005" transform="rotate(-90 13.3951 33.2236)" fill="#594B3E"/>
<circle cx="13.3951" cy="35.8339" r="0.522005" transform="rotate(-90 13.3951 35.8339)" fill="#594B3E"/>
</g>
<g opacity="0.3">
<circle cx="26.4439" cy="30.6126" r="0.522005" transform="rotate(-90 26.4439 30.6126)" fill="#594B3E"/>
<circle cx="26.4429" cy="38.4422" r="0.522005" transform="rotate(-90 26.4429 38.4422)" fill="#594B3E"/>
<circle cx="26.4439" cy="33.2227" r="0.522005" transform="rotate(-90 26.4439 33.2227)" fill="#594B3E"/>
<circle cx="26.4439" cy="35.8328" r="0.522005" transform="rotate(-90 26.4439 35.8328)" fill="#594B3E"/>
<circle cx="29.0533" cy="30.6128" r="0.522005" transform="rotate(-90 29.0533 30.6128)" fill="#594B3E"/>
<circle cx="29.0533" cy="38.4422" r="0.522005" transform="rotate(-90 29.0533 38.4422)" fill="#594B3E"/>
<circle cx="29.0533" cy="33.2221" r="0.522005" transform="rotate(-90 29.0533 33.2221)" fill="#594B3E"/>
<circle cx="29.0533" cy="35.8323" r="0.522005" transform="rotate(-90 29.0533 35.8323)" fill="#594B3E"/>
</g>
<g opacity="0.3">
<circle cx="31.6646" cy="30.613" r="0.522005" transform="rotate(-90 31.6646 30.613)" fill="#594B3E"/>
<circle cx="31.6646" cy="38.443" r="0.522005" transform="rotate(-90 31.6646 38.443)" fill="#594B3E"/>
<circle cx="31.6636" cy="33.2227" r="0.522005" transform="rotate(-90 31.6636 33.2227)" fill="#594B3E"/>
<circle cx="31.6646" cy="35.8333" r="0.522005" transform="rotate(-90 31.6646 35.8333)" fill="#594B3E"/>
<circle cx="34.274" cy="30.6128" r="0.522005" transform="rotate(-90 34.274 30.6128)" fill="#594B3E"/>
<circle cx="34.274" cy="38.4431" r="0.522005" transform="rotate(-90 34.274 38.4431)" fill="#594B3E"/>
<circle cx="34.274" cy="33.2228" r="0.522005" transform="rotate(-90 34.274 33.2228)" fill="#594B3E"/>
<circle cx="34.274" cy="35.833" r="0.522005" transform="rotate(-90 34.274 35.833)" fill="#594B3E"/>
</g>
<g opacity="0.3">
<circle cx="36.8843" cy="30.6133" r="0.522005" transform="rotate(-90 36.8843 30.6133)" fill="#594B3E"/>
<circle cx="36.8833" cy="38.4428" r="0.522005" transform="rotate(-90 36.8833 38.4428)" fill="#594B3E"/>
<circle cx="36.8843" cy="33.2234" r="0.522005" transform="rotate(-90 36.8843 33.2234)" fill="#594B3E"/>
<circle cx="36.8843" cy="35.8336" r="0.522005" transform="rotate(-90 36.8843 35.8336)" fill="#594B3E"/>
<circle cx="39.4937" cy="30.6135" r="0.522005" transform="rotate(-90 39.4937 30.6135)" fill="#594B3E"/>
<circle cx="39.4937" cy="38.443" r="0.522005" transform="rotate(-90 39.4937 38.443)" fill="#594B3E"/>
<circle cx="39.4937" cy="33.2228" r="0.522005" transform="rotate(-90 39.4937 33.2228)" fill="#594B3E"/>
<circle cx="39.4937" cy="35.833" r="0.522005" transform="rotate(-90 39.4937 35.833)" fill="#594B3E"/>
</g>
</g>
<path d="M19.436 21.5576C19.514 21.558 19.5914 21.5431 19.6636 21.5136C19.7358 21.4841 19.8015 21.4406 19.8569 21.3857L22.228 19.0145C22.3396 18.9029 22.4023 18.7515 22.4023 18.5937C22.4023 18.4358 22.3396 18.2844 22.228 18.1728C22.1164 18.0612 21.965 17.9985 21.8071 17.9985C21.6493 17.9985 21.4979 18.0612 21.3863 18.1728L19.436 20.129L17.4858 18.1787C17.3724 18.0816 17.2265 18.0309 17.0773 18.0366C16.9282 18.0424 16.7866 18.1042 16.6811 18.2098C16.5755 18.3154 16.5136 18.4569 16.5079 18.6061C16.5021 18.7553 16.5529 18.9011 16.65 19.0145L19.0211 21.3857C19.1315 21.4952 19.2805 21.5569 19.436 21.5576Z" fill="#BB926A"/>
</svg>
