<svg width="29" height="29" viewBox="0 0 29 29" fill="none" xmlns="http://www.w3.org/2000/svg">
<path d="M16.4763 14.5237C16.477 14.3982 16.4529 14.2738 16.4055 14.1576C16.358 14.0414 16.2881 13.9357 16.1997 13.8466L16.1989 13.8458L13.3833 11.0302C13.2039 10.8508 12.9605 10.75 12.7068 10.75C12.453 10.75 12.2097 10.8508 12.0302 11.0302C11.8508 11.2097 11.75 11.453 11.75 11.7068C11.75 11.9605 11.8508 12.2039 12.0302 12.3833L12.0305 12.3836L14.1761 14.5227L12.0373 16.6615L12.0304 16.6683L12.0242 16.6756C11.8679 16.8581 11.7862 17.0928 11.7955 17.3329C11.8048 17.573 11.9043 17.8007 12.0742 17.9706C12.2441 18.1405 12.4718 18.24 12.7119 18.2493C12.952 18.2586 13.1867 18.1769 13.3692 18.0206L13.3765 18.0143L13.3833 18.0075L16.1989 15.1919L16.1997 15.1912C16.3758 15.0136 16.4752 14.7739 16.4763 14.5237ZM16.4763 14.5237C16.4763 14.5236 16.4763 14.5235 16.4763 14.5234L16.2263 14.5224L16.4763 14.5238C16.4763 14.5238 16.4763 14.5237 16.4763 14.5237Z" stroke="#BB926A" stroke-width="0.5"/>
<circle opacity="0.2" cx="13.5" cy="13.5" r="13.5" transform="matrix(-1 0 0 1 28 1)" stroke="#565F77" stroke-linecap="round" stroke-dasharray="0.1 5"/>
</svg>
