<svg width="36" height="20" viewBox="0 0 36 20" fill="none" xmlns="http://www.w3.org/2000/svg">
<g opacity="0.1" clip-path="url(#clip0_2934_412)">
<path d="M1.61983 15.5537L1.68595 6.71074L13.8843 15.5537H14.6942V0H12.8926L12.9752 8.61157L0.826446 0H0V15.5537" fill="white"/>
<path d="M20.2641 0H16.5947V15.5537H20.2641V0Z" fill="white"/>
<path d="M22.1982 15.5537V10.4132C22.2313 8.64463 23.6693 7.91736 25.8015 7.90083V7.8843C23.3387 7.91736 22.1982 6.90909 22.1982 5.04132V0H25.8015V5.22314C25.8511 6.26446 26.8759 6.84297 29.0577 6.87603C31.3883 6.8595 32.4131 6.31405 32.4958 5.3719V0H35.9668V5.22314C35.9668 7.04132 34.6611 7.86777 32.2644 7.90083C34.4792 7.90083 35.9503 8.59504 35.9668 10.6446V15.5537H32.4462V10.0826C32.4296 9.10744 31.3387 8.61157 29.0743 8.6281C27.1073 8.6281 25.8346 9.00826 25.8346 10.0826V15.5537" fill="white"/>
<path d="M0.0827173 20.0004C0.0331305 20.0004 0.0166016 19.9839 0.0166016 19.9343V17.0417C0.0166016 16.9921 0.0331305 16.9756 0.0827173 16.9756H0.892635C0.925692 16.9756 0.95875 16.9921 0.991808 17.0417L2.33065 19.207H2.38024L3.71908 17.0417C3.75214 16.9921 3.7852 16.9756 3.81825 16.9756H4.62817C4.67776 16.9756 4.69429 16.9921 4.69429 17.0417V19.9343C4.69429 19.9839 4.67776 20.0004 4.62817 20.0004H4.06619C4.0166 20.0004 4.00007 19.9839 4.00007 19.9343V17.8847H3.95049L2.69429 19.9343C2.66123 19.9839 2.62817 20.0004 2.59511 20.0004H2.11578C2.08272 20.0004 2.03313 19.9839 2.0166 19.9343L0.760403 17.8847H0.694287V19.9343C0.694287 19.9839 0.677759 20.0004 0.628172 20.0004H0.0827173Z" fill="white"/>
<path d="M9.50433 20.0168C9.23986 20.0168 9.04152 19.9506 8.90928 19.8019C8.77705 19.6697 8.71094 19.4713 8.71094 19.2234V17.7358C8.71094 17.4878 8.77705 17.2895 8.90928 17.1573C9.04152 17.025 9.23986 16.9424 9.50433 16.9424H11.8018C12.0663 16.9424 12.2647 17.0085 12.3969 17.1573C12.5291 17.2895 12.5952 17.4878 12.5952 17.7358V19.2234C12.5952 19.4713 12.5291 19.6697 12.3969 19.8019C12.2647 19.9341 12.0663 20.0168 11.8018 20.0168H9.50433ZM9.66962 19.4217H11.6531C11.8349 19.4217 11.9341 19.3391 11.9341 19.1903V17.8019C11.9341 17.6366 11.8349 17.5705 11.6531 17.5705H9.66962C9.4878 17.5705 9.38862 17.6531 9.38862 17.8019V19.1903C9.38862 19.3391 9.47127 19.4217 9.66962 19.4217Z" fill="white"/>
<path d="M16.7106 20.0004C16.6611 20.0004 16.6445 19.9839 16.6445 19.9343V17.0417C16.6445 16.9921 16.6611 16.9756 16.7106 16.9756H17.3553C17.3718 16.9756 17.4049 16.9921 17.4544 17.0252L19.752 19.1905H19.8181V17.0417C19.8181 16.9921 19.8346 16.9756 19.8842 16.9756H20.4462C20.4958 16.9756 20.5123 16.9921 20.5123 17.0417V19.9343C20.5123 19.9839 20.4958 20.0004 20.4462 20.0004H19.8016C19.785 20.0004 19.752 19.9839 19.7024 19.9508L17.4049 17.7855H17.3387V19.9343C17.3387 19.9839 17.3222 20.0004 17.2726 20.0004H16.7106Z" fill="white"/>
<path d="M28.0335 19.4054C28.0831 19.4054 28.0996 19.4219 28.0996 19.4715V19.9509C28.0996 20.0005 28.0831 20.017 28.0335 20.017H24.612C24.5624 20.017 24.5459 20.0005 24.5459 19.9509V17.0583C24.5459 17.0087 24.5624 16.9922 24.612 16.9922H28.017C28.0666 16.9922 28.0831 17.0087 28.0831 17.0583V17.5376C28.0831 17.5872 28.0666 17.6038 28.017 17.6038H25.2401V18.2153H27.9839C28.0335 18.2153 28.05 18.2319 28.05 18.2814V18.7608C28.05 18.8104 28.0335 18.8269 27.9839 18.8269H25.2401V19.4385H28.0335V19.4054Z" fill="white"/>
<path d="M35.9009 16.959C35.934 16.959 35.9505 16.959 35.967 16.9755C35.9836 16.992 35.967 17.0086 35.9505 17.0416L34.3307 18.8433V19.9177C34.3307 19.9672 34.3141 19.9838 34.2645 19.9838H33.7191C33.6695 19.9838 33.653 19.9672 33.653 19.9177V18.8433L32.0331 17.0416C32.0166 17.0251 32.0001 16.992 32.0166 16.9755C32.0331 16.959 32.0497 16.959 32.0827 16.959H32.6943C32.7274 16.959 32.7769 16.9755 32.8265 17.0251L33.9836 18.3144H34.0331L35.1902 17.0251C35.2398 16.9755 35.2728 16.959 35.3224 16.959H35.9009Z" fill="white"/>
</g>
<defs>
<clipPath id="clip0_2934_412">
<rect width="35.9669" height="20" fill="white"/>
</clipPath>
</defs>
</svg>
