<svg width="36" height="20" viewBox="0 0 36 20" fill="none" xmlns="http://www.w3.org/2000/svg">
<g opacity="0.3" clip-path="url(#clip0_3359_488)">
<path d="M1.61983 15.5537L1.68595 6.71074L13.8843 15.5537H14.6942V0H12.8926L12.9752 8.61157L0.826446 0H0V15.5537" fill="#565F77"/>
<path d="M20.2646 0H16.5952V15.5537H20.2646V0Z" fill="#565F77"/>
<path d="M22.1982 15.5537V10.4132C22.2313 8.64463 23.6693 7.91736 25.8015 7.90083V7.8843C23.3387 7.91736 22.1982 6.90909 22.1982 5.04132V0H25.8015V5.22314C25.8511 6.26446 26.8759 6.84297 29.0577 6.87603C31.3883 6.8595 32.4131 6.31405 32.4958 5.3719V0H35.9668V5.22314C35.9668 7.04132 34.6611 7.86777 32.2644 7.90083C34.4792 7.90083 35.9503 8.59504 35.9668 10.6446V15.5537H32.4462V10.0826C32.4296 9.10744 31.3387 8.61157 29.0743 8.6281C27.1073 8.6281 25.8346 9.00826 25.8346 10.0826V15.5537" fill="#565F77"/>
<path d="M0.0827173 19.9999C0.0331305 19.9999 0.0166016 19.9834 0.0166016 19.9338V17.0412C0.0166016 16.9916 0.0331305 16.9751 0.0827173 16.9751H0.892635C0.925692 16.9751 0.95875 16.9916 0.991808 17.0412L2.33065 19.2065H2.38024L3.71908 17.0412C3.75214 16.9916 3.7852 16.9751 3.81825 16.9751H4.62817C4.67776 16.9751 4.69429 16.9916 4.69429 17.0412V19.9338C4.69429 19.9834 4.67776 19.9999 4.62817 19.9999H4.06619C4.0166 19.9999 4.00007 19.9834 4.00007 19.9338V17.8842H3.95049L2.69429 19.9338C2.66123 19.9834 2.62817 19.9999 2.59511 19.9999H2.11578C2.08272 19.9999 2.03313 19.9834 2.0166 19.9338L0.760403 17.8842H0.694287V19.9338C0.694287 19.9834 0.677759 19.9999 0.628172 19.9999H0.0827173Z" fill="#565F77"/>
<path d="M9.50433 20.0165C9.23986 20.0165 9.04152 19.9504 8.90928 19.8016C8.77705 19.6694 8.71094 19.4711 8.71094 19.2231V17.7355C8.71094 17.4876 8.77705 17.2892 8.90928 17.157C9.04152 17.0248 9.23986 16.9421 9.50433 16.9421H11.8018C12.0663 16.9421 12.2647 17.0083 12.3969 17.157C12.5291 17.2892 12.5952 17.4876 12.5952 17.7355V19.2231C12.5952 19.4711 12.5291 19.6694 12.3969 19.8016C12.2647 19.9339 12.0663 20.0165 11.8018 20.0165H9.50433ZM9.66962 19.4215H11.6531C11.8349 19.4215 11.9341 19.3388 11.9341 19.1901V17.8016C11.9341 17.6364 11.8349 17.5702 11.6531 17.5702H9.66962C9.4878 17.5702 9.38862 17.6529 9.38862 17.8016V19.1901C9.38862 19.3388 9.47127 19.4215 9.66962 19.4215Z" fill="#565F77"/>
<path d="M16.7106 19.9999C16.6611 19.9999 16.6445 19.9834 16.6445 19.9338V17.0412C16.6445 16.9916 16.6611 16.9751 16.7106 16.9751H17.3553C17.3718 16.9751 17.4049 16.9916 17.4544 17.0247L19.752 19.19H19.8181V17.0412C19.8181 16.9916 19.8346 16.9751 19.8842 16.9751H20.4462C20.4958 16.9751 20.5123 16.9916 20.5123 17.0412V19.9338C20.5123 19.9834 20.4958 19.9999 20.4462 19.9999H19.8016C19.785 19.9999 19.752 19.9834 19.7024 19.9503L17.4049 17.785H17.3387V19.9338C17.3387 19.9834 17.3222 19.9999 17.2726 19.9999H16.7106Z" fill="#565F77"/>
<path d="M28.033 19.4049C28.0826 19.4049 28.0991 19.4215 28.0991 19.471V19.9504C28.0991 20 28.0826 20.0165 28.033 20.0165H24.6115C24.5619 20.0165 24.5454 20 24.5454 19.9504V17.0578C24.5454 17.0082 24.5619 16.9917 24.6115 16.9917H28.0165C28.0661 16.9917 28.0826 17.0082 28.0826 17.0578V17.5372C28.0826 17.5867 28.0661 17.6033 28.0165 17.6033H25.2396V18.2148H27.9834C28.033 18.2148 28.0495 18.2314 28.0495 18.281V18.7603C28.0495 18.8099 28.033 18.8264 27.9834 18.8264H25.2396V19.438H28.033V19.4049Z" fill="#565F77"/>
<path d="M35.9009 16.9587C35.934 16.9587 35.9505 16.9587 35.967 16.9753C35.9836 16.9918 35.967 17.0083 35.9505 17.0414L34.3307 18.843V19.9174C34.3307 19.967 34.3141 19.9835 34.2645 19.9835H33.7191C33.6695 19.9835 33.653 19.967 33.653 19.9174V18.843L32.0331 17.0414C32.0166 17.0249 32.0001 16.9918 32.0166 16.9753C32.0331 16.9587 32.0497 16.9587 32.0827 16.9587H32.6943C32.7274 16.9587 32.7769 16.9753 32.8265 17.0249L33.9836 18.3141H34.0331L35.1902 17.0249C35.2398 16.9753 35.2728 16.9587 35.3224 16.9587H35.9009Z" fill="#565F77"/>
</g>
<defs>
<clipPath id="clip0_3359_488">
<rect width="35.9669" height="20" fill="white"/>
</clipPath>
</defs>
</svg>
