<svg width="29" height="29" viewBox="0 0 29 29" fill="none" xmlns="http://www.w3.org/2000/svg">
<path d="M14.4763 16.4763C14.6018 16.477 14.7262 16.4529 14.8424 16.4055C14.9586 16.358 15.0643 16.2881 15.1534 16.1997L15.1542 16.1989L17.9698 13.3833C18.1492 13.2039 18.25 12.9605 18.25 12.7068C18.25 12.453 18.1492 12.2097 17.9698 12.0302C17.7903 11.8508 17.547 11.75 17.2932 11.75C17.0395 11.75 16.7961 11.8508 16.6167 12.0302L16.6164 12.0305L14.4773 14.1761L12.3385 12.0373L12.3317 12.0304L12.3244 12.0242C12.1419 11.8679 11.9072 11.7862 11.6671 11.7955C11.427 11.8048 11.1993 11.9043 11.0294 12.0742C10.8595 12.2441 10.76 12.4718 10.7507 12.7119C10.7414 12.952 10.8231 13.1867 10.9794 13.3692L10.9857 13.3765L10.9925 13.3833L13.8081 16.1989L13.8088 16.1997C13.9864 16.3758 14.2261 16.4752 14.4763 16.4763ZM14.4763 16.4763C14.4764 16.4763 14.4765 16.4763 14.4766 16.4763L14.4776 16.2263L14.4762 16.4763C14.4762 16.4763 14.4763 16.4763 14.4763 16.4763Z" stroke="#26B961" stroke-width="0.5"/>
<circle opacity="0.2" r="13.5" transform="matrix(4.37114e-08 -1 -1 -4.37114e-08 14.5 14.5)" stroke="#565F77" stroke-linecap="round" stroke-dasharray="0.1 5"/>
</svg>
