<svg width="96" height="18" viewBox="0 0 96 18" fill="none" xmlns="http://www.w3.org/2000/svg">
<g opacity="0.3" clip-path="url(#clip0_3359_476)">
<path d="M1.84375 16.7047V1.24609H6.85239C8.75058 1.24609 9.98744 1.32368 10.564 1.47816C11.4499 1.71022 12.1915 2.21467 12.7889 2.99151C13.3863 3.76836 13.6851 4.77179 13.6851 6.00217C13.6851 6.95126 13.5128 7.74895 13.1683 8.39558C12.8238 9.04255 12.3863 9.55008 11.8556 9.91919C11.3248 10.2883 10.7855 10.5327 10.2369 10.6519C9.49188 10.7996 8.41291 10.8734 6.99969 10.8734H4.96445V16.705H1.84375V16.7047ZM4.96479 3.86132V8.24794H6.6733C7.90333 8.24794 8.72597 8.16728 9.14088 8.00528C9.55545 7.84362 9.88081 7.59071 10.1163 7.24621C10.3514 6.9017 10.4693 6.50115 10.4693 6.04386C10.4693 5.48165 10.3043 5.01787 9.97377 4.65217C9.64328 4.28682 9.2253 4.05818 8.71914 3.96692C8.34661 3.89652 7.59779 3.86132 6.47302 3.86132H4.96479V3.86132Z" fill="#565F77"/>
<path d="M28.5898 16.7047H25.1944L23.8447 13.193H17.6655L16.3897 16.7047H13.0786L19.0996 1.24609H22.4L28.5898 16.7047ZM22.843 10.5887L20.7131 4.85245L18.6252 10.5887H22.843Z" fill="#565F77"/>
<path d="M32.3397 16.7047V10.1984L26.6772 1.24609H30.3362L33.9744 7.36207L37.5387 1.24609H41.1345L35.4508 10.2196V16.7047H32.3397Z" fill="#565F77"/>
<path d="M42.6621 16.7047V1.24609H54.1244V3.86132H45.7835V7.28825H53.5444V9.89287H45.7835V14.1004H54.4197V16.705H42.6621V16.7047Z" fill="#565F77"/>
<path d="M57.0659 16.7047V1.24609H68.5282V3.86132H60.1873V7.28825H67.9482V9.89287H60.1873V14.1004H68.8235V16.705H57.0659V16.7047Z" fill="#565F77"/>
<path d="M71.4805 16.7047V1.24609H78.05C79.7017 1.24609 80.9024 1.38485 81.6509 1.66271C82.3993 1.94057 82.9988 2.43443 83.4489 3.14428C83.8987 3.85448 84.1239 4.66653 84.1239 5.58008C84.1239 6.74005 83.7828 7.69803 83.101 8.45368C82.4192 9.20933 81.3997 9.68576 80.0432 9.88262C80.7182 10.2763 81.2749 10.7087 81.7148 11.1796C82.1539 11.6506 82.7466 12.4873 83.4913 13.6893L85.3789 16.705H81.6457L79.389 13.3413C78.5876 12.139 78.0394 11.3816 77.7441 11.0686C77.4488 10.7558 77.1361 10.5416 76.8056 10.4254C76.4751 10.3092 75.9515 10.2514 75.2341 10.2514H74.6015V16.705H71.4805V16.7047ZM74.6019 7.78381H76.9112C78.4085 7.78381 79.3432 7.72058 79.7161 7.59413C80.0886 7.46767 80.3802 7.24997 80.5914 6.94032C80.8022 6.63102 80.9079 6.24448 80.9079 5.78036C80.9079 5.26018 80.7691 4.84015 80.4912 4.52025C80.2134 4.20035 79.8217 3.99837 79.3155 3.91395C79.0626 3.87875 78.3032 3.86132 77.038 3.86132H74.6022V7.78381H74.6019Z" fill="#565F77"/>
<path d="M94.2113 12.3869C94.2113 13.5793 93.7913 14.5968 92.9516 15.4399C92.1115 16.2834 91.0968 16.7055 89.9054 16.7055C88.714 16.7055 87.7013 16.2834 86.865 15.4399C86.0328 14.5998 85.6172 13.582 85.6172 12.3869C85.6172 11.203 86.0376 10.1927 86.8766 9.35298C87.7133 8.51735 88.7222 8.09937 89.9054 8.09937C91.0968 8.09937 92.1115 8.51735 92.9516 9.35298C93.7916 10.1886 94.2113 11.2009 94.2113 12.3869ZM89.9057 8.68482C88.8866 8.68482 88.0161 9.04812 87.2925 9.77438C86.5745 10.4976 86.2149 11.3694 86.2149 12.3934C86.2149 13.4245 86.5724 14.3032 87.2871 15.0301C88.0065 15.756 88.878 16.1193 89.9057 16.1193C90.9331 16.1193 91.8049 15.756 92.524 15.0301C93.2434 14.3032 93.602 13.4245 93.602 12.3934C93.602 11.3694 93.2434 10.4976 92.524 9.77438C91.8025 9.04778 90.9283 8.68482 89.9057 8.68482ZM89.823 10.0146C90.4095 10.0146 90.8394 10.071 91.1122 10.1842C91.6009 10.3879 91.8446 10.7864 91.8446 11.3814C91.8446 11.8028 91.6908 12.1148 91.3839 12.3137C91.2212 12.4193 90.9939 12.4942 90.7007 12.541C91.0712 12.5998 91.3405 12.7546 91.5117 13.0055C91.6826 13.2539 91.7684 13.4969 91.7684 13.7362V14.0807C91.7684 14.1907 91.7714 14.308 91.7796 14.4324C91.7878 14.5561 91.8022 14.6388 91.8207 14.6784L91.85 14.7369H91.0712C91.0664 14.7205 91.064 14.7051 91.0592 14.6901C91.0544 14.6737 91.0524 14.6569 91.0476 14.6361L91.0301 14.485V14.1111C91.0301 13.5667 90.8811 13.2068 90.5845 13.0314C90.4091 12.9306 90.1005 12.8787 89.659 12.8787H89.0031V14.7372H88.1712V10.0146H89.823ZM91.0363 11.4494C91.0363 11.1076 90.9307 10.8749 90.7222 10.7587C90.5124 10.6415 90.1757 10.5827 89.7147 10.5827H89.0035V12.2925H89.7553C90.108 12.2925 90.3729 12.2573 90.5486 12.1869C90.8736 12.0588 91.0363 11.8124 91.0363 11.4494Z" fill="#565F77"/>
</g>
<defs>
<clipPath id="clip0_3359_476">
<rect width="95.0121" height="18" fill="white"/>
</clipPath>
</defs>
</svg>
