<svg width="96" height="18" viewBox="0 0 96 18" fill="none" xmlns="http://www.w3.org/2000/svg">
<g opacity="0.1" clip-path="url(#clip0_2932_387)">
<path d="M1.84375 16.7047V1.24609H6.85239C8.75058 1.24609 9.98745 1.32368 10.564 1.47816C11.4499 1.71022 12.1915 2.21467 12.7889 2.99151C13.3863 3.76836 13.6851 4.77179 13.6851 6.00217C13.6851 6.95126 13.5128 7.74895 13.1683 8.39558C12.8238 9.04255 12.3863 9.55008 11.8556 9.91919C11.3248 10.2883 10.7855 10.5327 10.2369 10.6519C9.49188 10.7996 8.41291 10.8734 6.99969 10.8734H4.96445V16.705H1.84375V16.7047ZM4.96479 3.86132V8.24794H6.6733C7.90333 8.24794 8.72597 8.16728 9.14088 8.00528C9.55545 7.84362 9.88081 7.59071 10.1163 7.24621C10.3514 6.9017 10.4693 6.50115 10.4693 6.04386C10.4693 5.48165 10.3043 5.01787 9.97377 4.65217C9.64328 4.28682 9.2253 4.05818 8.71914 3.96692C8.34661 3.89652 7.59779 3.86132 6.47302 3.86132H4.96479V3.86132Z" fill="white"/>
<path d="M28.5903 16.7047H25.1948L23.8452 13.193H17.666L16.3902 16.7047H13.0791L19.1001 1.24609H22.4005L28.5903 16.7047ZM22.8435 10.5887L20.7136 4.85245L18.6257 10.5887H22.8435Z" fill="white"/>
<path d="M32.3402 16.7047V10.1984L26.6777 1.24609H30.3367L33.9749 7.36207L37.5392 1.24609H41.1349L35.4513 10.2196V16.7047H32.3402Z" fill="white"/>
<path d="M42.6621 16.7047V1.24609H54.1244V3.86132H45.7835V7.28825H53.5444V9.89287H45.7835V14.1004H54.4197V16.705H42.6621V16.7047Z" fill="white"/>
<path d="M57.0664 16.7047V1.24609H68.5287V3.86132H60.1878V7.28825H67.9487V9.89287H60.1878V14.1004H68.824V16.705H57.0664V16.7047Z" fill="white"/>
<path d="M71.4805 16.7047V1.24609H78.05C79.7017 1.24609 80.9024 1.38485 81.6509 1.66271C82.3993 1.94057 82.9988 2.43443 83.4489 3.14428C83.8987 3.85448 84.1239 4.66653 84.1239 5.58008C84.1239 6.74005 83.7828 7.69803 83.101 8.45368C82.4192 9.20933 81.3997 9.68576 80.0432 9.88262C80.7182 10.2763 81.2749 10.7087 81.7148 11.1796C82.1539 11.6506 82.7466 12.4873 83.4913 13.6893L85.3789 16.705H81.6457L79.389 13.3413C78.5876 12.139 78.0394 11.3816 77.7441 11.0686C77.4488 10.7558 77.1361 10.5416 76.8056 10.4254C76.4751 10.3092 75.9515 10.2514 75.2341 10.2514H74.6015V16.705H71.4805V16.7047ZM74.6019 7.78381H76.9112C78.4085 7.78381 79.3432 7.72058 79.7161 7.59413C80.0886 7.46767 80.3802 7.24997 80.5914 6.94032C80.8022 6.63102 80.9079 6.24448 80.9079 5.78036C80.9079 5.26018 80.7691 4.84015 80.4912 4.52025C80.2134 4.20035 79.8217 3.99837 79.3155 3.91395C79.0626 3.87875 78.3032 3.86132 77.038 3.86132H74.6022V7.78381H74.6019Z" fill="white"/>
<path d="M94.2113 12.3866C94.2113 13.5791 93.7913 14.5965 92.9516 15.4397C92.1115 16.2831 91.0968 16.7052 89.9054 16.7052C88.714 16.7052 87.7013 16.2831 86.865 15.4397C86.0328 14.5996 85.6172 13.5818 85.6172 12.3866C85.6172 11.2027 86.0376 10.1925 86.8766 9.35273C87.7133 8.51711 88.7222 8.09912 89.9054 8.09912C91.0968 8.09912 92.1115 8.51711 92.9516 9.35273C93.7916 10.1884 94.2113 11.2007 94.2113 12.3866ZM89.9057 8.68457C88.8866 8.68457 88.0161 9.04787 87.2925 9.77414C86.5745 10.4973 86.2149 11.3692 86.2149 12.3931C86.2149 13.4242 86.5724 14.3029 87.2871 15.0299C88.0065 15.7558 88.878 16.1191 89.9057 16.1191C90.9331 16.1191 91.8049 15.7558 92.524 15.0299C93.2434 14.3029 93.602 13.4242 93.602 12.3931C93.602 11.3692 93.2434 10.4973 92.524 9.77414C91.8025 9.04753 90.9283 8.68457 89.9057 8.68457ZM89.823 10.0144C90.4095 10.0144 90.8394 10.0708 91.1122 10.1839C91.6009 10.3876 91.8446 10.7861 91.8446 11.3811C91.8446 11.8025 91.6908 12.1146 91.3839 12.3135C91.2212 12.4191 90.9939 12.4939 90.7007 12.5408C91.0712 12.5995 91.3405 12.7544 91.5117 13.0052C91.6826 13.2537 91.7684 13.4967 91.7684 13.7359V14.0804C91.7684 14.1905 91.7714 14.3077 91.7796 14.4321C91.7878 14.5558 91.8022 14.6385 91.8207 14.6782L91.85 14.7366H91.0712C91.0664 14.7202 91.064 14.7049 91.0592 14.6898C91.0544 14.6734 91.0524 14.6567 91.0476 14.6358L91.0301 14.4848V14.1109C91.0301 13.5664 90.8811 13.2065 90.5845 13.0312C90.4091 12.9304 90.1005 12.8784 89.659 12.8784H89.0031V14.737H88.1712V10.0144H89.823ZM91.0363 11.4492C91.0363 11.1074 90.9307 10.8746 90.7222 10.7584C90.5124 10.6412 90.1757 10.5824 89.7147 10.5824H89.0035V12.2923H89.7553C90.108 12.2923 90.3729 12.2571 90.5486 12.1867C90.8736 12.0585 91.0363 11.8121 91.0363 11.4492Z" fill="white"/>
</g>
<defs>
<clipPath id="clip0_2932_387">
<rect width="95.0121" height="18" fill="white"/>
</clipPath>
</defs>
</svg>
