<svg width="40" height="40" viewBox="0 0 40 40" fill="none" xmlns="http://www.w3.org/2000/svg">
<mask id="mask0_2763_33929" style="mask-type:alpha" maskUnits="userSpaceOnUse" x="0" y="0" width="40" height="40">
<circle cx="19.7987" cy="19.7987" r="15.2989" transform="rotate(180 19.7987 19.7987)" stroke="white" stroke-width="9"/>
</mask>
<g mask="url(#mask0_2763_33929)">
<g opacity="0.3">
<circle cx="7.12253" cy="39.2544" r="0.522005" transform="rotate(180 7.12253 39.2544)" fill="#4B6C87"/>
<circle cx="14.9521" cy="39.2548" r="0.522005" transform="rotate(180 14.9521 39.2548)" fill="#4B6C87"/>
<circle cx="22.7817" cy="39.2548" r="0.522005" transform="rotate(180 22.7817 39.2548)" fill="#4B6C87"/>
<circle cx="9.73239" cy="39.2539" r="0.522005" transform="rotate(180 9.73239 39.2539)" fill="#4B6C87"/>
<circle cx="17.563" cy="39.2539" r="0.522005" transform="rotate(180 17.563 39.2539)" fill="#4B6C87"/>
<circle cx="25.3921" cy="39.2548" r="0.522005" transform="rotate(180 25.3921 39.2548)" fill="#4B6C87"/>
<circle cx="12.3427" cy="39.2539" r="0.522005" transform="rotate(180 12.3427 39.2539)" fill="#4B6C87"/>
<circle cx="20.1723" cy="39.2548" r="0.522005" transform="rotate(180 20.1723 39.2548)" fill="#4B6C87"/>
<circle cx="28.0024" cy="39.2548" r="0.522005" transform="rotate(180 28.0024 39.2548)" fill="#4B6C87"/>
<circle cx="7.12253" cy="36.6445" r="0.522005" transform="rotate(180 7.12253 36.6445)" fill="#4B6C87"/>
<circle cx="14.9521" cy="36.6445" r="0.522005" transform="rotate(180 14.9521 36.6445)" fill="#4B6C87"/>
<circle cx="22.7822" cy="36.645" r="0.522005" transform="rotate(180 22.7822 36.645)" fill="#4B6C87"/>
<circle cx="9.7319" cy="36.645" r="0.522005" transform="rotate(180 9.7319 36.645)" fill="#4B6C87"/>
<circle cx="17.5625" cy="36.6445" r="0.522005" transform="rotate(180 17.5625 36.6445)" fill="#4B6C87"/>
<circle cx="25.3925" cy="36.645" r="0.522005" transform="rotate(180 25.3925 36.645)" fill="#4B6C87"/>
<circle cx="12.3423" cy="36.645" r="0.522005" transform="rotate(180 12.3423 36.645)" fill="#4B6C87"/>
<circle cx="20.1723" cy="36.645" r="0.522005" transform="rotate(180 20.1723 36.645)" fill="#4B6C87"/>
<circle cx="28.0024" cy="36.6445" r="0.522005" transform="rotate(180 28.0024 36.6445)" fill="#4B6C87"/>
<circle cx="1.90133" cy="39.2553" r="0.522005" transform="rotate(180 1.90133 39.2553)" fill="#4B6C87"/>
<circle cx="4.51169" cy="39.2548" r="0.522005" transform="rotate(180 4.51169 39.2548)" fill="#4B6C87"/>
<circle cx="1.90133" cy="36.645" r="0.522005" transform="rotate(180 1.90133 36.645)" fill="#4B6C87"/>
<circle cx="4.51169" cy="36.645" r="0.522005" transform="rotate(180 4.51169 36.645)" fill="#4B6C87"/>
</g>
<g opacity="0.3">
<circle cx="7.12253" cy="23.5942" r="0.522005" transform="rotate(180 7.12253 23.5942)" fill="#4B6C87"/>
<circle cx="14.9531" cy="23.5937" r="0.522005" transform="rotate(180 14.9531 23.5937)" fill="#4B6C87"/>
<circle cx="22.7822" cy="23.5947" r="0.522005" transform="rotate(180 22.7822 23.5947)" fill="#4B6C87"/>
<circle cx="9.73288" cy="23.5942" r="0.522005" transform="rotate(180 9.73288 23.5942)" fill="#4B6C87"/>
<circle cx="17.5634" cy="23.5937" r="0.522005" transform="rotate(180 17.5634 23.5937)" fill="#4B6C87"/>
<circle cx="25.3925" cy="23.5947" r="0.522005" transform="rotate(180 25.3925 23.5947)" fill="#4B6C87"/>
<circle cx="12.3432" cy="23.5942" r="0.522005" transform="rotate(180 12.3432 23.5942)" fill="#4B6C87"/>
<circle cx="20.1723" cy="23.5942" r="0.522005" transform="rotate(180 20.1723 23.5942)" fill="#4B6C87"/>
<circle cx="28.0024" cy="23.5947" r="0.522005" transform="rotate(180 28.0024 23.5947)" fill="#4B6C87"/>
<circle cx="7.12253" cy="20.9839" r="0.522005" transform="rotate(180 7.12253 20.9839)" fill="#4B6C87"/>
<circle cx="14.9531" cy="20.9834" r="0.522005" transform="rotate(180 14.9531 20.9834)" fill="#4B6C87"/>
<circle cx="22.7822" cy="20.9843" r="0.522005" transform="rotate(180 22.7822 20.9843)" fill="#4B6C87"/>
<circle cx="9.73288" cy="20.9839" r="0.522005" transform="rotate(180 9.73288 20.9839)" fill="#4B6C87"/>
<circle cx="17.5625" cy="20.9843" r="0.522005" transform="rotate(180 17.5625 20.9843)" fill="#4B6C87"/>
<circle cx="25.393" cy="20.9839" r="0.522005" transform="rotate(180 25.393 20.9839)" fill="#4B6C87"/>
<circle cx="12.3432" cy="20.9839" r="0.522005" transform="rotate(180 12.3432 20.9839)" fill="#4B6C87"/>
<circle cx="20.1723" cy="20.9843" r="0.522005" transform="rotate(180 20.1723 20.9843)" fill="#4B6C87"/>
<circle cx="28.0024" cy="20.9843" r="0.522005" transform="rotate(180 28.0024 20.9843)" fill="#4B6C87"/>
<circle cx="1.90231" cy="23.5942" r="0.522005" transform="rotate(180 1.90231 23.5942)" fill="#4B6C87"/>
<circle cx="4.51266" cy="23.5942" r="0.522005" transform="rotate(180 4.51266 23.5942)" fill="#4B6C87"/>
<circle cx="1.90329" cy="20.9834" r="0.522005" transform="rotate(180 1.90329 20.9834)" fill="#4B6C87"/>
<circle cx="4.51266" cy="20.9839" r="0.522005" transform="rotate(180 4.51266 20.9839)" fill="#4B6C87"/>
</g>
<g opacity="0.3">
<circle cx="7.12253" cy="34.0346" r="0.522005" transform="rotate(180 7.12253 34.0346)" fill="#4B6C87"/>
<circle cx="14.9521" cy="34.0351" r="0.522005" transform="rotate(180 14.9521 34.0351)" fill="#4B6C87"/>
<circle cx="22.7817" cy="34.0351" r="0.522005" transform="rotate(180 22.7817 34.0351)" fill="#4B6C87"/>
<circle cx="9.73239" cy="34.0346" r="0.522005" transform="rotate(180 9.73239 34.0346)" fill="#4B6C87"/>
<circle cx="17.562" cy="34.0351" r="0.522005" transform="rotate(180 17.562 34.0351)" fill="#4B6C87"/>
<circle cx="25.3921" cy="34.0351" r="0.522005" transform="rotate(180 25.3921 34.0351)" fill="#4B6C87"/>
<circle cx="12.3418" cy="34.0351" r="0.522005" transform="rotate(180 12.3418 34.0351)" fill="#4B6C87"/>
<circle cx="20.1723" cy="34.0351" r="0.522005" transform="rotate(180 20.1723 34.0351)" fill="#4B6C87"/>
<circle cx="28.0024" cy="34.0351" r="0.522005" transform="rotate(180 28.0024 34.0351)" fill="#4B6C87"/>
<circle cx="7.12301" cy="31.4248" r="0.522005" transform="rotate(180 7.12301 31.4248)" fill="#4B6C87"/>
<circle cx="14.9521" cy="31.4253" r="0.522005" transform="rotate(180 14.9521 31.4253)" fill="#4B6C87"/>
<circle cx="22.7822" cy="31.4253" r="0.522005" transform="rotate(180 22.7822 31.4253)" fill="#4B6C87"/>
<circle cx="9.7319" cy="31.4253" r="0.522005" transform="rotate(180 9.7319 31.4253)" fill="#4B6C87"/>
<circle cx="17.5625" cy="31.4248" r="0.522005" transform="rotate(180 17.5625 31.4248)" fill="#4B6C87"/>
<circle cx="25.3925" cy="31.4253" r="0.522005" transform="rotate(180 25.3925 31.4253)" fill="#4B6C87"/>
<circle cx="12.3423" cy="31.4253" r="0.522005" transform="rotate(180 12.3423 31.4253)" fill="#4B6C87"/>
<circle cx="20.1723" cy="31.4253" r="0.522005" transform="rotate(180 20.1723 31.4253)" fill="#4B6C87"/>
<circle cx="28.0024" cy="31.4248" r="0.522005" transform="rotate(180 28.0024 31.4248)" fill="#4B6C87"/>
<circle cx="1.90182" cy="34.0351" r="0.522005" transform="rotate(180 1.90182 34.0351)" fill="#4B6C87"/>
<circle cx="4.51217" cy="34.0351" r="0.522005" transform="rotate(180 4.51217 34.0351)" fill="#4B6C87"/>
<circle cx="1.90231" cy="31.4248" r="0.522005" transform="rotate(180 1.90231 31.4248)" fill="#4B6C87"/>
<circle cx="4.51217" cy="31.4248" r="0.522005" transform="rotate(180 4.51217 31.4248)" fill="#4B6C87"/>
</g>
<g opacity="0.3">
<circle cx="7.12155" cy="18.3745" r="0.522005" transform="rotate(180 7.12155 18.3745)" fill="#4B6C87"/>
<circle cx="14.9516" cy="18.3745" r="0.522005" transform="rotate(180 14.9516 18.3745)" fill="#4B6C87"/>
<circle cx="22.7817" cy="18.374" r="0.522005" transform="rotate(180 22.7817 18.374)" fill="#4B6C87"/>
<circle cx="9.73141" cy="18.3745" r="0.522005" transform="rotate(180 9.73141 18.3745)" fill="#4B6C87"/>
<circle cx="17.562" cy="18.374" r="0.522005" transform="rotate(180 17.562 18.374)" fill="#4B6C87"/>
<circle cx="25.3911" cy="18.375" r="0.522005" transform="rotate(180 25.3911 18.375)" fill="#4B6C87"/>
<circle cx="12.3418" cy="18.3745" r="0.522005" transform="rotate(180 12.3418 18.3745)" fill="#4B6C87"/>
<circle cx="20.1718" cy="18.3745" r="0.522005" transform="rotate(180 20.1718 18.3745)" fill="#4B6C87"/>
<circle cx="28.0014" cy="18.375" r="0.522005" transform="rotate(180 28.0014 18.375)" fill="#4B6C87"/>
<circle cx="7.12155" cy="15.7641" r="0.522005" transform="rotate(180 7.12155 15.7641)" fill="#4B6C87"/>
<circle cx="14.9521" cy="15.7641" r="0.522005" transform="rotate(180 14.9521 15.7641)" fill="#4B6C87"/>
<circle cx="22.7812" cy="15.7646" r="0.522005" transform="rotate(180 22.7812 15.7646)" fill="#4B6C87"/>
<circle cx="9.73141" cy="15.7641" r="0.522005" transform="rotate(180 9.73141 15.7641)" fill="#4B6C87"/>
<circle cx="17.562" cy="15.7641" r="0.522005" transform="rotate(180 17.562 15.7641)" fill="#4B6C87"/>
<circle cx="25.3911" cy="15.7646" r="0.522005" transform="rotate(180 25.3911 15.7646)" fill="#4B6C87"/>
<circle cx="12.3418" cy="15.7641" r="0.522005" transform="rotate(180 12.3418 15.7641)" fill="#4B6C87"/>
<circle cx="20.1718" cy="15.7641" r="0.522005" transform="rotate(180 20.1718 15.7641)" fill="#4B6C87"/>
<circle cx="28.0014" cy="15.7646" r="0.522005" transform="rotate(180 28.0014 15.7646)" fill="#4B6C87"/>
<circle cx="1.90133" cy="18.375" r="0.522005" transform="rotate(180 1.90133 18.375)" fill="#4B6C87"/>
<circle cx="4.51169" cy="18.375" r="0.522005" transform="rotate(180 4.51169 18.375)" fill="#4B6C87"/>
<circle cx="1.90182" cy="15.7641" r="0.522005" transform="rotate(180 1.90182 15.7641)" fill="#4B6C87"/>
<circle cx="4.51169" cy="15.7646" r="0.522005" transform="rotate(180 4.51169 15.7646)" fill="#4B6C87"/>
</g>
<g opacity="0.3">
<circle cx="7.12155" cy="28.8154" r="0.522005" transform="rotate(180 7.12155 28.8154)" fill="#4B6C87"/>
<circle cx="14.9516" cy="28.8154" r="0.522005" transform="rotate(180 14.9516 28.8154)" fill="#4B6C87"/>
<circle cx="22.7817" cy="28.8149" r="0.522005" transform="rotate(180 22.7817 28.8149)" fill="#4B6C87"/>
<circle cx="9.73141" cy="28.8154" r="0.522005" transform="rotate(180 9.73141 28.8154)" fill="#4B6C87"/>
<circle cx="17.562" cy="28.8149" r="0.522005" transform="rotate(180 17.562 28.8149)" fill="#4B6C87"/>
<circle cx="25.3911" cy="28.8159" r="0.522005" transform="rotate(180 25.3911 28.8159)" fill="#4B6C87"/>
<circle cx="12.3418" cy="28.8154" r="0.522005" transform="rotate(180 12.3418 28.8154)" fill="#4B6C87"/>
<circle cx="20.1718" cy="28.8154" r="0.522005" transform="rotate(180 20.1718 28.8154)" fill="#4B6C87"/>
<circle cx="28.0014" cy="28.8159" r="0.522005" transform="rotate(180 28.0014 28.8159)" fill="#4B6C87"/>
<circle cx="7.12155" cy="26.205" r="0.522005" transform="rotate(180 7.12155 26.205)" fill="#4B6C87"/>
<circle cx="14.9521" cy="26.205" r="0.522005" transform="rotate(180 14.9521 26.205)" fill="#4B6C87"/>
<circle cx="22.7812" cy="26.2055" r="0.522005" transform="rotate(180 22.7812 26.2055)" fill="#4B6C87"/>
<circle cx="9.73141" cy="26.205" r="0.522005" transform="rotate(180 9.73141 26.205)" fill="#4B6C87"/>
<circle cx="17.562" cy="26.205" r="0.522005" transform="rotate(180 17.562 26.205)" fill="#4B6C87"/>
<circle cx="25.3911" cy="26.2055" r="0.522005" transform="rotate(180 25.3911 26.2055)" fill="#4B6C87"/>
<circle cx="12.3418" cy="26.205" r="0.522005" transform="rotate(180 12.3418 26.205)" fill="#4B6C87"/>
<circle cx="20.1718" cy="26.205" r="0.522005" transform="rotate(180 20.1718 26.205)" fill="#4B6C87"/>
<circle cx="28.0014" cy="26.2055" r="0.522005" transform="rotate(180 28.0014 26.2055)" fill="#4B6C87"/>
<circle cx="1.90085" cy="28.8154" r="0.522005" transform="rotate(180 1.90085 28.8154)" fill="#4B6C87"/>
<circle cx="4.5112" cy="28.8154" r="0.522005" transform="rotate(180 4.5112 28.8154)" fill="#4B6C87"/>
<circle cx="1.90085" cy="26.205" r="0.522005" transform="rotate(180 1.90085 26.205)" fill="#4B6C87"/>
<circle cx="4.5112" cy="26.205" r="0.522005" transform="rotate(180 4.5112 26.205)" fill="#4B6C87"/>
</g>
<g opacity="0.3">
<circle cx="7.12204" cy="13.1548" r="0.522005" transform="rotate(180 7.12204 13.1548)" fill="#4B6C87"/>
<circle cx="14.9526" cy="13.1543" r="0.522005" transform="rotate(180 14.9526 13.1543)" fill="#4B6C87"/>
<circle cx="22.7822" cy="13.1548" r="0.522005" transform="rotate(180 22.7822 13.1548)" fill="#4B6C87"/>
<circle cx="9.73239" cy="13.1543" r="0.522005" transform="rotate(180 9.73239 13.1543)" fill="#4B6C87"/>
<circle cx="17.5625" cy="13.1548" r="0.522005" transform="rotate(180 17.5625 13.1548)" fill="#4B6C87"/>
<circle cx="25.3921" cy="13.1548" r="0.522005" transform="rotate(180 25.3921 13.1548)" fill="#4B6C87"/>
<circle cx="12.3423" cy="13.1543" r="0.522005" transform="rotate(180 12.3423 13.1543)" fill="#4B6C87"/>
<circle cx="20.1723" cy="13.1543" r="0.522005" transform="rotate(180 20.1723 13.1543)" fill="#4B6C87"/>
<circle cx="28.0024" cy="13.1548" r="0.522005" transform="rotate(180 28.0024 13.1548)" fill="#4B6C87"/>
<circle cx="7.12204" cy="10.5444" r="0.522005" transform="rotate(180 7.12204 10.5444)" fill="#4B6C87"/>
<circle cx="14.9521" cy="10.5444" r="0.522005" transform="rotate(180 14.9521 10.5444)" fill="#4B6C87"/>
<circle cx="22.7822" cy="10.5444" r="0.522005" transform="rotate(180 22.7822 10.5444)" fill="#4B6C87"/>
<circle cx="9.7319" cy="10.5449" r="0.522005" transform="rotate(180 9.7319 10.5449)" fill="#4B6C87"/>
<circle cx="17.5625" cy="10.5444" r="0.522005" transform="rotate(180 17.5625 10.5444)" fill="#4B6C87"/>
<circle cx="25.3921" cy="10.5444" r="0.522005" transform="rotate(180 25.3921 10.5444)" fill="#4B6C87"/>
<circle cx="12.3427" cy="10.5444" r="0.522005" transform="rotate(180 12.3427 10.5444)" fill="#4B6C87"/>
<circle cx="20.1718" cy="10.5449" r="0.522005" transform="rotate(180 20.1718 10.5449)" fill="#4B6C87"/>
<circle cx="28.0024" cy="10.5444" r="0.522005" transform="rotate(180 28.0024 10.5444)" fill="#4B6C87"/>
<circle cx="1.90182" cy="13.1548" r="0.522005" transform="rotate(180 1.90182 13.1548)" fill="#4B6C87"/>
<circle cx="4.51217" cy="13.1548" r="0.522005" transform="rotate(180 4.51217 13.1548)" fill="#4B6C87"/>
<circle cx="1.90231" cy="10.5449" r="0.522005" transform="rotate(180 1.90231 10.5449)" fill="#4B6C87"/>
<circle cx="4.51217" cy="10.5444" r="0.522005" transform="rotate(180 4.51217 10.5444)" fill="#4B6C87"/>
</g>
<g opacity="0.3">
<circle cx="7.1235" cy="7.93356" r="0.522005" transform="rotate(180 7.1235 7.93356)" fill="#4B6C87"/>
<circle cx="14.9531" cy="7.93405" r="0.522005" transform="rotate(180 14.9531 7.93405)" fill="#4B6C87"/>
<circle cx="22.7832" cy="7.93405" r="0.522005" transform="rotate(180 22.7832 7.93405)" fill="#4B6C87"/>
<circle cx="9.73288" cy="7.93405" r="0.522005" transform="rotate(180 9.73288 7.93405)" fill="#4B6C87"/>
<circle cx="17.5639" cy="7.93307" r="0.522005" transform="rotate(180 17.5639 7.93307)" fill="#4B6C87"/>
<circle cx="25.393" cy="7.93405" r="0.522005" transform="rotate(180 25.393 7.93405)" fill="#4B6C87"/>
<circle cx="12.3437" cy="7.93307" r="0.522005" transform="rotate(180 12.3437 7.93307)" fill="#4B6C87"/>
<circle cx="20.1733" cy="7.93356" r="0.522005" transform="rotate(180 20.1733 7.93356)" fill="#4B6C87"/>
<circle cx="28.0034" cy="7.93356" r="0.522005" transform="rotate(180 28.0034 7.93356)" fill="#4B6C87"/>
<circle cx="7.12301" cy="5.32419" r="0.522005" transform="rotate(180 7.12301 5.32419)" fill="#4B6C87"/>
<circle cx="14.9531" cy="5.3237" r="0.522005" transform="rotate(180 14.9531 5.3237)" fill="#4B6C87"/>
<circle cx="22.7832" cy="5.3237" r="0.522005" transform="rotate(180 22.7832 5.3237)" fill="#4B6C87"/>
<circle cx="9.73288" cy="5.32419" r="0.522005" transform="rotate(180 9.73288 5.32419)" fill="#4B6C87"/>
<circle cx="17.5634" cy="5.3237" r="0.522005" transform="rotate(180 17.5634 5.3237)" fill="#4B6C87"/>
<circle cx="25.3935" cy="5.3237" r="0.522005" transform="rotate(180 25.3935 5.3237)" fill="#4B6C87"/>
<circle cx="12.3432" cy="5.32419" r="0.522005" transform="rotate(180 12.3432 5.32419)" fill="#4B6C87"/>
<circle cx="20.1728" cy="5.32419" r="0.522005" transform="rotate(180 20.1728 5.32419)" fill="#4B6C87"/>
<circle cx="28.0034" cy="5.3237" r="0.522005" transform="rotate(180 28.0034 5.3237)" fill="#4B6C87"/>
<circle cx="1.90329" cy="7.93356" r="0.522005" transform="rotate(180 1.90329 7.93356)" fill="#4B6C87"/>
<circle cx="4.51364" cy="7.93356" r="0.522005" transform="rotate(180 4.51364 7.93356)" fill="#4B6C87"/>
<circle cx="1.90329" cy="5.32321" r="0.522005" transform="rotate(180 1.90329 5.32321)" fill="#4B6C87"/>
<circle cx="4.51364" cy="5.32321" r="0.522005" transform="rotate(180 4.51364 5.32321)" fill="#4B6C87"/>
</g>
<g opacity="0.3">
<circle cx="7.12301" cy="2.71432" r="0.522005" transform="rotate(180 7.12301 2.71432)" fill="#4B6C87"/>
<circle cx="14.9526" cy="2.71481" r="0.522005" transform="rotate(180 14.9526 2.71481)" fill="#4B6C87"/>
<circle cx="22.7827" cy="2.71481" r="0.522005" transform="rotate(180 22.7827 2.71481)" fill="#4B6C87"/>
<circle cx="9.73288" cy="2.71383" r="0.522005" transform="rotate(180 9.73288 2.71383)" fill="#4B6C87"/>
<circle cx="17.5634" cy="2.71383" r="0.522005" transform="rotate(180 17.5634 2.71383)" fill="#4B6C87"/>
<circle cx="25.3925" cy="2.71481" r="0.522005" transform="rotate(180 25.3925 2.71481)" fill="#4B6C87"/>
<circle cx="12.3432" cy="2.71383" r="0.522005" transform="rotate(180 12.3432 2.71383)" fill="#4B6C87"/>
<circle cx="20.1728" cy="2.71481" r="0.522005" transform="rotate(180 20.1728 2.71481)" fill="#4B6C87"/>
<circle cx="28.0029" cy="2.71481" r="0.522005" transform="rotate(180 28.0029 2.71481)" fill="#4B6C87"/>
<circle cx="7.12301" cy="0.104459" r="0.522005" transform="rotate(180 7.12301 0.104459)" fill="#4B6C87"/>
<circle cx="14.9526" cy="0.104459" r="0.522005" transform="rotate(180 14.9526 0.104459)" fill="#4B6C87"/>
<circle cx="22.7827" cy="0.104948" r="0.522005" transform="rotate(180 22.7827 0.104948)" fill="#4B6C87"/>
<circle cx="9.73239" cy="0.104948" r="0.522005" transform="rotate(180 9.73239 0.104948)" fill="#4B6C87"/>
<circle cx="17.563" cy="0.104459" r="0.522005" transform="rotate(180 17.563 0.104459)" fill="#4B6C87"/>
<circle cx="25.393" cy="0.104948" r="0.522005" transform="rotate(180 25.393 0.104948)" fill="#4B6C87"/>
<circle cx="12.3427" cy="0.104948" r="0.522005" transform="rotate(180 12.3427 0.104948)" fill="#4B6C87"/>
<circle cx="20.1728" cy="0.104948" r="0.522005" transform="rotate(180 20.1728 0.104948)" fill="#4B6C87"/>
<circle cx="28.0029" cy="0.104459" r="0.522005" transform="rotate(180 28.0029 0.104459)" fill="#4B6C87"/>
<circle cx="1.90182" cy="2.7153" r="0.522005" transform="rotate(180 1.90182 2.7153)" fill="#4B6C87"/>
<circle cx="4.51217" cy="2.7153" r="0.522005" transform="rotate(180 4.51217 2.7153)" fill="#4B6C87"/>
<circle cx="1.90231" cy="0.104948" r="0.522005" transform="rotate(180 1.90231 0.104948)" fill="#4B6C87"/>
<circle cx="4.51217" cy="0.104948" r="0.522005" transform="rotate(180 4.51217 0.104948)" fill="#4B6C87"/>
</g>
<g opacity="0.3">
<circle cx="30.6123" cy="39.2539" r="0.522005" transform="rotate(180 30.6123 39.2539)" fill="#4B6C87"/>
<circle cx="38.4419" cy="39.2544" r="0.522005" transform="rotate(180 38.4419 39.2544)" fill="#4B6C87"/>
<circle cx="33.2216" cy="39.2544" r="0.522005" transform="rotate(180 33.2216 39.2544)" fill="#4B6C87"/>
<circle cx="35.8325" cy="39.2534" r="0.522005" transform="rotate(180 35.8325 39.2534)" fill="#4B6C87"/>
<circle cx="30.6118" cy="36.6445" r="0.522005" transform="rotate(180 30.6118 36.6445)" fill="#4B6C87"/>
<circle cx="38.4419" cy="36.644" r="0.522005" transform="rotate(180 38.4419 36.644)" fill="#4B6C87"/>
<circle cx="33.2216" cy="36.6445" r="0.522005" transform="rotate(180 33.2216 36.6445)" fill="#4B6C87"/>
<circle cx="35.832" cy="36.6445" r="0.522005" transform="rotate(180 35.832 36.6445)" fill="#4B6C87"/>
</g>
<g opacity="0.3">
<circle cx="30.6128" cy="23.5937" r="0.522005" transform="rotate(180 30.6128 23.5937)" fill="#4B6C87"/>
<circle cx="38.4423" cy="23.5942" r="0.522005" transform="rotate(180 38.4423 23.5942)" fill="#4B6C87"/>
<circle cx="33.2231" cy="23.5937" r="0.522005" transform="rotate(180 33.2231 23.5937)" fill="#4B6C87"/>
<circle cx="35.833" cy="23.5932" r="0.522005" transform="rotate(180 35.833 23.5932)" fill="#4B6C87"/>
<circle cx="30.6128" cy="20.9834" r="0.522005" transform="rotate(180 30.6128 20.9834)" fill="#4B6C87"/>
<circle cx="38.4433" cy="20.9829" r="0.522005" transform="rotate(180 38.4433 20.9829)" fill="#4B6C87"/>
<circle cx="33.2231" cy="20.9834" r="0.522005" transform="rotate(180 33.2231 20.9834)" fill="#4B6C87"/>
<circle cx="35.8335" cy="20.9834" r="0.522005" transform="rotate(180 35.8335 20.9834)" fill="#4B6C87"/>
</g>
<g opacity="0.3">
<circle cx="30.6132" cy="34.0341" r="0.522005" transform="rotate(180 30.6132 34.0341)" fill="#4B6C87"/>
<circle cx="38.4428" cy="34.0346" r="0.522005" transform="rotate(180 38.4428 34.0346)" fill="#4B6C87"/>
<circle cx="33.2231" cy="34.0337" r="0.522005" transform="rotate(180 33.2231 34.0337)" fill="#4B6C87"/>
<circle cx="35.8325" cy="34.0346" r="0.522005" transform="rotate(180 35.8325 34.0346)" fill="#4B6C87"/>
<circle cx="30.6132" cy="31.4243" r="0.522005" transform="rotate(180 30.6132 31.4243)" fill="#4B6C87"/>
<circle cx="38.4428" cy="31.4243" r="0.522005" transform="rotate(180 38.4428 31.4243)" fill="#4B6C87"/>
<circle cx="33.2226" cy="31.4248" r="0.522005" transform="rotate(180 33.2226 31.4248)" fill="#4B6C87"/>
<circle cx="35.8325" cy="31.4243" r="0.522005" transform="rotate(180 35.8325 31.4243)" fill="#4B6C87"/>
</g>
<g opacity="0.3">
<circle cx="30.6123" cy="18.3745" r="0.522005" transform="rotate(180 30.6123 18.3745)" fill="#4B6C87"/>
<circle cx="38.4423" cy="18.3745" r="0.522005" transform="rotate(180 38.4423 18.3745)" fill="#4B6C87"/>
<circle cx="33.2221" cy="18.3745" r="0.522005" transform="rotate(180 33.2221 18.3745)" fill="#4B6C87"/>
<circle cx="35.8325" cy="18.3745" r="0.522005" transform="rotate(180 35.8325 18.3745)" fill="#4B6C87"/>
<circle cx="30.6123" cy="15.7641" r="0.522005" transform="rotate(180 30.6123 15.7641)" fill="#4B6C87"/>
<circle cx="38.4423" cy="15.7641" r="0.522005" transform="rotate(180 38.4423 15.7641)" fill="#4B6C87"/>
<circle cx="33.2221" cy="15.7641" r="0.522005" transform="rotate(180 33.2221 15.7641)" fill="#4B6C87"/>
<circle cx="35.8325" cy="15.7641" r="0.522005" transform="rotate(180 35.8325 15.7641)" fill="#4B6C87"/>
</g>
<g opacity="0.3">
<circle cx="30.6132" cy="28.8139" r="0.522005" transform="rotate(180 30.6132 28.8139)" fill="#4B6C87"/>
<circle cx="38.4433" cy="28.8139" r="0.522005" transform="rotate(180 38.4433 28.8139)" fill="#4B6C87"/>
<circle cx="33.2231" cy="28.8139" r="0.522005" transform="rotate(180 33.2231 28.8139)" fill="#4B6C87"/>
<circle cx="35.834" cy="28.8139" r="0.522005" transform="rotate(180 35.834 28.8139)" fill="#4B6C87"/>
<circle cx="30.6132" cy="26.2036" r="0.522005" transform="rotate(180 30.6132 26.2036)" fill="#4B6C87"/>
<circle cx="38.4433" cy="26.2036" r="0.522005" transform="rotate(180 38.4433 26.2036)" fill="#4B6C87"/>
<circle cx="33.2236" cy="26.2036" r="0.522005" transform="rotate(180 33.2236 26.2036)" fill="#4B6C87"/>
<circle cx="35.834" cy="26.2036" r="0.522005" transform="rotate(180 35.834 26.2036)" fill="#4B6C87"/>
</g>
<g opacity="0.3">
<circle cx="30.6123" cy="13.1538" r="0.522005" transform="rotate(180 30.6123 13.1538)" fill="#4B6C87"/>
<circle cx="38.4419" cy="13.1543" r="0.522005" transform="rotate(180 38.4419 13.1543)" fill="#4B6C87"/>
<circle cx="33.2221" cy="13.1538" r="0.522005" transform="rotate(180 33.2221 13.1538)" fill="#4B6C87"/>
<circle cx="35.8325" cy="13.1533" r="0.522005" transform="rotate(180 35.8325 13.1533)" fill="#4B6C87"/>
<circle cx="30.6123" cy="10.5434" r="0.522005" transform="rotate(180 30.6123 10.5434)" fill="#4B6C87"/>
<circle cx="38.4419" cy="10.5439" r="0.522005" transform="rotate(180 38.4419 10.5439)" fill="#4B6C87"/>
<circle cx="33.2216" cy="10.5444" r="0.522005" transform="rotate(180 33.2216 10.5444)" fill="#4B6C87"/>
<circle cx="35.832" cy="10.5444" r="0.522005" transform="rotate(180 35.832 10.5444)" fill="#4B6C87"/>
</g>
<g opacity="0.3">
<circle cx="30.6128" cy="7.93405" r="0.522005" transform="rotate(180 30.6128 7.93405)" fill="#4B6C87"/>
<circle cx="38.4428" cy="7.93405" r="0.522005" transform="rotate(180 38.4428 7.93405)" fill="#4B6C87"/>
<circle cx="33.2226" cy="7.93405" r="0.522005" transform="rotate(180 33.2226 7.93405)" fill="#4B6C87"/>
<circle cx="35.8335" cy="7.93405" r="0.522005" transform="rotate(180 35.8335 7.93405)" fill="#4B6C87"/>
<circle cx="30.6128" cy="5.32419" r="0.522005" transform="rotate(180 30.6128 5.32419)" fill="#4B6C87"/>
<circle cx="38.4433" cy="5.32419" r="0.522005" transform="rotate(180 38.4433 5.32419)" fill="#4B6C87"/>
<circle cx="33.2226" cy="5.32419" r="0.522005" transform="rotate(180 33.2226 5.32419)" fill="#4B6C87"/>
<circle cx="35.833" cy="5.32419" r="0.522005" transform="rotate(180 35.833 5.32419)" fill="#4B6C87"/>
</g>
<g opacity="0.3">
<circle cx="30.6128" cy="2.71383" r="0.522005" transform="rotate(180 30.6128 2.71383)" fill="#4B6C87"/>
<circle cx="38.4423" cy="2.71383" r="0.522005" transform="rotate(180 38.4423 2.71383)" fill="#4B6C87"/>
<circle cx="33.2231" cy="2.71335" r="0.522005" transform="rotate(180 33.2231 2.71335)" fill="#4B6C87"/>
<circle cx="35.833" cy="2.71335" r="0.522005" transform="rotate(180 35.833 2.71335)" fill="#4B6C87"/>
<circle cx="30.6128" cy="0.103483" r="0.522005" transform="rotate(180 30.6128 0.103483)" fill="#4B6C87"/>
<circle cx="38.4423" cy="0.103971" r="0.522005" transform="rotate(180 38.4423 0.103971)" fill="#4B6C87"/>
<circle cx="33.2221" cy="0.104459" r="0.522005" transform="rotate(180 33.2221 0.104459)" fill="#4B6C87"/>
<circle cx="35.8325" cy="0.104459" r="0.522005" transform="rotate(180 35.8325 0.104459)" fill="#4B6C87"/>
</g>
</g>
<path d="M21.5571 20.1616C21.5576 20.0836 21.5426 20.0063 21.5131 19.9341C21.4836 19.8618 21.4402 19.7961 21.3852 19.7408L19.0141 17.3696C18.9025 17.258 18.7511 17.1953 18.5932 17.1953C18.4354 17.1953 18.284 17.258 18.1724 17.3696C18.0608 17.4813 17.998 17.6327 17.998 17.7905C17.998 17.9484 18.0608 18.0998 18.1724 18.2114L20.1285 20.1616L18.1783 22.1119C18.0812 22.2253 18.0304 22.3711 18.0362 22.5203C18.042 22.6695 18.1038 22.811 18.2094 22.9166C18.315 23.0222 18.4565 23.084 18.6057 23.0898C18.7549 23.0955 18.9007 23.0448 19.0141 22.9477L21.3852 20.5766C21.4947 20.4662 21.5565 20.3171 21.5571 20.1616Z" fill="#C2CDD5"/>
</svg>
