<svg width="155" height="32" viewBox="0 0 155 32" fill="none" xmlns="http://www.w3.org/2000/svg">
<path d="M9.47877 13.4418L15.4977 7.42532L21.5191 13.4467L25.0194 9.94403L15.4977 0.419922L5.97607 9.94158L9.47877 13.4418Z" fill="#F3BA2F"/>
<path d="M0 15.916L3.50142 12.4146L7.00284 15.916L3.50142 19.4174L0 15.916Z" fill="#F3BA2F"/>
<path d="M9.47879 18.3887L15.4977 24.4076L21.5192 18.3862L25.0219 21.884L25.0194 21.8865L15.4977 31.4106L5.97609 21.8914L5.97119 21.8865L9.47879 18.3887Z" fill="#F3BA2F"/>
<path d="M23.9868 15.9165L27.4882 12.4151L30.9897 15.9165L27.4882 19.4179L23.9868 15.9165Z" fill="#F3BA2F"/>
<path d="M19.0496 15.914L15.498 12.3599L12.8715 14.9863L12.568 15.2873L11.9463 15.9091L11.9414 15.914L11.9463 15.9213L15.498 19.4705L19.0496 15.9164L19.0521 15.914H19.0496Z" fill="#F3BA2F"/>
<path d="M36.4531 7.92969H44.0705C45.9601 7.92969 47.3896 8.41923 48.3589 9.39832C48.7241 9.75999 49.012 10.1921 49.2051 10.6684C49.3982 11.1447 49.4926 11.6553 49.4824 12.1692V12.2157C49.4889 12.6366 49.4303 13.0561 49.3086 13.4591C49.2002 13.8061 49.0427 14.1357 48.8411 14.4382C48.6531 14.7234 48.4256 14.9805 48.1655 15.2019C47.9113 15.4206 47.6329 15.6095 47.3357 15.7649C48.1928 16.0634 48.9635 16.5677 49.5803 17.2335C50.1253 17.8536 50.3978 18.7103 50.3978 19.8036V19.8501C50.4133 20.5329 50.2647 21.2095 49.9646 21.823C49.6737 22.3883 49.2474 22.8726 48.7236 23.2329C48.1314 23.6299 47.4721 23.916 46.7776 24.0773C45.9526 24.273 45.1068 24.3675 44.2589 24.3588H36.4531V7.92969ZM43.3068 14.5728C43.9658 14.6047 44.6216 14.4629 45.2086 14.1616C45.4376 14.0279 45.6245 13.8327 45.7482 13.5983C45.8719 13.3638 45.9275 13.0994 45.9087 12.8349V12.7884C45.9208 12.5448 45.8713 12.302 45.7648 12.0825C45.6583 11.863 45.4981 11.674 45.2992 11.5327C44.8929 11.2439 44.3063 11.0995 43.5393 11.0995H39.9754V14.5728H43.3068ZM44.2687 21.1939C44.9253 21.2307 45.5789 21.0805 46.1535 20.7607C46.3773 20.6169 46.5585 20.4156 46.6782 20.178C46.7979 19.9404 46.8517 19.675 46.8339 19.4095V19.363C46.8428 19.1107 46.7896 18.86 46.6791 18.633C46.5685 18.406 46.404 18.2095 46.2 18.0608C45.779 17.7345 45.0985 17.5713 44.1586 17.5713H39.9754V21.1939H44.2687Z" fill="#F3BA2F"/>
<path d="M54.936 7.92969H58.5513V24.3637H54.936V7.92969Z" fill="#F3BA2F"/>
<path d="M64.022 7.92969H67.3558L75.0612 18.0437V7.92969H78.63V24.3637H75.5532L67.5957 13.9168V24.3637H64.022V7.92969Z" fill="#F3BA2F"/>
<path d="M89.5763 7.81201H92.9052L99.9473 24.3635H96.1729L94.67 20.6773H87.7209L86.218 24.3635H82.5317L89.5763 7.81201ZM93.3801 17.4854L91.1918 12.1543L89.0133 17.4854H93.3801Z" fill="#F3BA2F"/>
<path d="M103.856 7.92969H107.19L114.891 18.0437V7.92969H118.46V24.3637H115.383L107.425 13.9168V24.3637H103.856V7.92969Z" fill="#F3BA2F"/>
<path d="M131.471 24.6525C130.319 24.6624 129.177 24.4392 128.113 23.9965C127.112 23.583 126.203 22.9732 125.441 22.2031C124.679 21.4329 124.078 20.518 123.675 19.5123C123.25 18.4603 123.035 17.3352 123.041 16.2005V16.154C123.022 13.9173 123.883 11.7628 125.438 10.1546C126.203 9.36907 127.118 8.7463 128.13 8.32371C129.231 7.86785 130.412 7.6405 131.603 7.65548C132.308 7.65022 133.011 7.71334 133.704 7.84395C134.296 7.95598 134.875 8.12906 135.432 8.36043C135.937 8.57304 136.417 8.84064 136.864 9.15838C137.299 9.46828 137.709 9.81378 138.088 10.1913L135.789 12.8447C135.202 12.3028 134.543 11.8441 133.831 11.4813C133.131 11.1468 132.364 10.9793 131.589 10.9917C130.944 10.9848 130.304 11.1153 129.714 11.3744C129.123 11.6335 128.594 12.0154 128.162 12.4946C127.734 12.9726 127.398 13.5263 127.173 14.1273C126.937 14.7623 126.819 15.4349 126.823 16.1124V16.1589C126.821 16.8353 126.939 17.5068 127.173 18.1415C127.396 18.7446 127.727 19.3015 128.152 19.784C128.581 20.2692 129.108 20.6566 129.7 20.9201C130.291 21.1837 130.932 21.3171 131.579 21.3114C132.403 21.3373 133.221 21.1599 133.961 20.7949C134.665 20.4112 135.316 19.9372 135.897 19.385L138.198 21.7103C137.791 22.1513 137.352 22.5604 136.883 22.9342C136.423 23.2983 135.923 23.6095 135.393 23.8619C134.828 24.1278 134.233 24.3242 133.62 24.4469C132.913 24.5887 132.193 24.6576 131.471 24.6525Z" fill="#F3BA2F"/>
<path d="M142.464 7.92969H154.833V11.146H146.021V14.4798H153.78V17.6961H146.033V21.1474H154.955V24.3637H142.472L142.464 7.92969Z" fill="#F3BA2F"/>
</svg>
