<svg width="160" height="25" viewBox="0 0 160 25" fill="none" xmlns="http://www.w3.org/2000/svg">
<g clip-path="url(#clip0_2763_33864)">
<path d="M26.8804 19.3425L22.4915 24.0925C22.3966 24.1957 22.2816 24.278 22.1538 24.3344C22.026 24.3907 21.888 24.4199 21.7485 24.42H0.943523C0.844295 24.42 0.747235 24.3907 0.664229 24.3358C0.581224 24.2809 0.515877 24.2028 0.476187 24.111C0.436496 24.0192 0.424187 23.9177 0.440766 23.819C0.457346 23.7202 0.502091 23.6285 0.569529 23.555L4.95343 18.805C5.04837 18.7018 5.16331 18.6195 5.29116 18.5632C5.41899 18.5068 5.55697 18.4777 5.69646 18.4775H26.5014C26.6015 18.4754 26.7001 18.5033 26.7845 18.5576C26.869 18.6119 26.9358 18.6902 26.9762 18.7826C27.0168 18.8751 27.0292 18.9776 27.0121 19.0772C26.995 19.1769 26.9492 19.2692 26.8804 19.3425ZM22.4915 9.77502C22.3962 9.67232 22.2812 9.59032 22.1534 9.53399C22.0257 9.47769 21.8879 9.44827 21.7485 9.44754H0.943523C0.844295 9.44759 0.747235 9.47684 0.664229 9.53174C0.581224 9.58662 0.515877 9.66474 0.476187 9.75654C0.436496 9.84834 0.424187 9.94982 0.440766 10.0486C0.457346 10.1473 0.502091 10.2391 0.569529 10.3125L4.95343 15.065C5.04871 15.1677 5.16376 15.2497 5.29151 15.3061C5.41926 15.3624 5.55707 15.3918 5.69646 15.3925H26.5014C26.6005 15.392 26.6971 15.3624 26.7798 15.3073C26.8625 15.2522 26.9274 15.1741 26.9668 15.0824C27.0062 14.9907 27.0183 14.8894 27.0015 14.7909C26.9849 14.6923 26.9403 14.6008 26.8729 14.5275L22.4915 9.77502ZM0.943523 6.36252H21.7485C21.888 6.36239 22.026 6.33322 22.1538 6.27687C22.2816 6.22054 22.3966 6.13819 22.4915 6.03502L26.8804 1.28503C26.9492 1.21166 26.995 1.11936 27.0121 1.01974C27.0292 0.920114 27.0168 0.817621 26.9762 0.725156C26.9358 0.632692 26.869 0.554386 26.7845 0.500093C26.7001 0.445799 26.6015 0.417944 26.5014 0.420031H5.69646C5.55697 0.420179 5.41899 0.449336 5.29116 0.505682C5.16331 0.562028 5.04837 0.644356 4.95343 0.747531L0.569529 5.49752C0.502091 5.57099 0.457346 5.66274 0.440766 5.76149C0.424187 5.86024 0.436496 5.96172 0.476187 6.05352C0.515877 6.14532 0.581224 6.22344 0.664229 6.27832C0.747235 6.33322 0.844295 6.36247 0.943523 6.36252Z" fill="url(#paint0_linear_2763_33864)"/>
<path d="M52.2452 10.57H41.1146V6.86998H55.1381V3.16998H41.0774C40.5969 3.16735 40.1209 3.26025 39.6761 3.44338C39.2312 3.62653 38.8263 3.8963 38.485 4.23733C38.1434 4.57835 37.8717 4.98395 37.6855 5.43093C37.4992 5.87793 37.4019 6.35758 37.3994 6.84248V10.5925C37.4014 11.0778 37.498 11.558 37.684 12.0056C37.87 12.4531 38.1415 12.8593 38.483 13.2009C38.8248 13.5424 39.2298 13.8127 39.6748 13.9961C40.1199 14.1796 40.5967 14.2726 41.0774 14.27H52.2229V17.97H37.6644V21.67H52.2452C52.7257 21.6726 53.2018 21.5797 53.6466 21.3966C54.0914 21.2134 54.4961 20.9436 54.8377 20.6026C55.1792 20.2616 55.4509 19.856 55.6372 19.409C55.8234 18.962 55.9208 18.4824 55.9233 17.9975V14.2475C55.9213 13.7622 55.8247 13.282 55.6387 12.8344C55.4527 12.3868 55.1812 11.9807 54.8397 11.6391C54.4979 11.2976 54.0929 11.0273 53.6478 10.8439C53.2028 10.6604 52.726 10.5674 52.2452 10.57Z" fill="black"/>
<path d="M73.8079 3.17004H62.6352C62.154 3.16609 61.6767 3.25802 61.2306 3.44057C60.7848 3.62312 60.3788 3.89267 60.0363 4.23384C59.6935 4.57499 59.4211 4.98102 59.2343 5.42867C59.0473 5.87632 58.9497 6.35679 58.9473 6.84254V17.9975C58.9497 18.4833 59.0473 18.9638 59.2343 19.4114C59.4211 19.8591 59.6935 20.2651 60.0363 20.6062C60.3788 20.9474 60.7848 21.217 61.2306 21.3995C61.6767 21.5821 62.154 21.674 62.6352 21.67H73.8079C74.2884 21.6727 74.7645 21.5798 75.2093 21.3966C75.6541 21.2135 76.0591 20.9437 76.4004 20.6027C76.7419 20.2617 77.0136 19.8561 77.1999 19.4091C77.3862 18.9621 77.4835 18.4824 77.486 17.9975V6.84254C77.4835 6.35764 77.3862 5.87799 77.1999 5.43099C77.0136 4.98402 76.7419 4.57842 76.4004 4.23739C76.0591 3.89637 75.6541 3.62659 75.2093 3.44344C74.7645 3.26032 74.2884 3.16742 73.8079 3.17004ZM73.7807 17.97H62.6624V6.87004H73.7757L73.7807 17.97Z" fill="black"/>
<path d="M112.941 3.1702H102.043C101.563 3.16757 101.087 3.26047 100.642 3.4436C100.197 3.62675 99.7921 3.89652 99.4508 4.23755C99.1093 4.57857 98.8376 4.98417 98.6513 5.43114C98.465 5.87814 98.3677 6.3578 98.3652 6.84269V21.6702H102.08V15.5927H112.929V21.6702H116.644V6.84269C116.641 6.35567 116.543 5.87397 116.356 5.42532C116.168 4.97669 115.894 4.57 115.55 4.22862C115.206 3.88727 114.798 3.61802 114.35 3.43637C113.902 3.25472 113.424 3.16427 112.941 3.1702ZM112.914 11.8927H102.066V6.8702H112.914V11.8927Z" fill="black"/>
<path d="M156.322 3.16998H145.424C144.944 3.16735 144.468 3.26025 144.023 3.44338C143.578 3.62653 143.173 3.8963 142.832 4.23733C142.49 4.57835 142.218 4.98395 142.032 5.43093C141.846 5.87793 141.749 6.35758 141.746 6.84248V21.67H145.461V15.5925H156.285V21.67H160V6.84248C159.997 6.35758 159.9 5.87793 159.714 5.43093C159.528 4.98395 159.256 4.57835 158.914 4.23733C158.573 3.8963 158.168 3.62653 157.723 3.44338C157.278 3.26025 156.802 3.16735 156.322 3.16998ZM156.285 11.8925H145.437V6.86998H156.285V11.8925Z" fill="black"/>
<path d="M134.737 17.97H133.25L127.938 4.71995C127.756 4.26283 127.442 3.87105 127.038 3.5949C126.634 3.31873 126.157 3.17075 125.669 3.16995H122.372C122.052 3.1683 121.734 3.23038 121.438 3.3526C121.141 3.47485 120.871 3.65485 120.644 3.88235C120.416 4.10988 120.235 4.3804 120.111 4.67855C119.987 4.97668 119.922 5.29658 119.92 5.61995V21.67H123.636V6.86995H125.122L130.432 20.12C130.617 20.5762 130.933 20.9664 131.339 21.2407C131.744 21.515 132.222 21.661 132.711 21.66H136.007C136.328 21.6616 136.645 21.5996 136.942 21.4773C137.238 21.3551 137.508 21.1751 137.736 20.9476C137.964 20.7201 138.145 20.4495 138.269 20.1514C138.393 19.8532 138.457 19.5334 138.459 19.21V3.16995H134.737V17.97Z" fill="black"/>
<path d="M84.4827 3.16992H80.7676V17.9974C80.7701 18.4834 80.8679 18.9641 81.0549 19.4119C81.2419 19.8597 81.5146 20.2658 81.8574 20.607C82.2001 20.9482 82.6066 21.2177 83.0527 21.4001C83.499 21.5825 83.9765 21.6742 84.458 21.6699H95.6035V17.9699H84.4827V3.16992Z" fill="black"/>
</g>
<defs>
<linearGradient id="paint0_linear_2763_33864" x1="2.67727" y1="24.9925" x2="24.7209" y2="0.371761" gradientUnits="userSpaceOnUse">
<stop offset="0.08" stop-color="#9945FF"/>
<stop offset="0.3" stop-color="#8752F3"/>
<stop offset="0.5" stop-color="#5497D5"/>
<stop offset="0.6" stop-color="#43B4CA"/>
<stop offset="0.72" stop-color="#28E0B9"/>
<stop offset="0.97" stop-color="#19FB9B"/>
</linearGradient>
<clipPath id="clip0_2763_33864">
<rect width="160" height="24" fill="white" transform="translate(0 0.419922)"/>
</clipPath>
</defs>
</svg>
