<svg width="149" height="36" viewBox="0 0 149 36" fill="none" xmlns="http://www.w3.org/2000/svg">
<path fill-rule="evenodd" clip-rule="evenodd" d="M30.5059 5.83601L30.6919 6.96028C30.8385 8.00616 30.9064 9.06157 30.895 10.1176C30.8938 12.4514 30.6123 14.7764 30.0565 17.043C29.3049 20.1224 27.9957 23.038 26.1938 25.6456C24.1116 28.6404 21.101 31.5859 16.7125 33.9527L16.1756 34.2421L15.6388 33.9527C11.2503 31.5859 8.24089 28.6404 6.15747 25.6456C4.35559 23.038 3.04644 20.1224 2.29476 17.043C1.73909 14.7769 1.45756 12.4522 1.45622 10.1189C1.44488 9.0628 1.5128 8.00739 1.6594 6.96151L1.84533 5.83724C1.86119 5.74556 1.85876 5.65163 1.83818 5.56088C1.81759 5.47014 1.77925 5.38437 1.72535 5.30851C1.67147 5.23265 1.6031 5.16821 1.52419 5.1189C1.44529 5.06958 1.3574 5.03637 1.2656 5.02118C1.17381 5.00599 1.07991 5.00912 0.989327 5.03038C0.89874 5.05164 0.813262 5.09063 0.73781 5.14508C0.662359 5.19953 0.598429 5.26838 0.549704 5.34764C0.50098 5.42692 0.468424 5.51505 0.453914 5.60697L0.267983 6.73124C0.108055 7.85317 0.0335501 8.98562 0.04511 10.1189C0.0459962 12.5671 0.341172 15.0063 0.924283 17.3841C1.71804 20.6313 3.09983 23.7055 5.00124 26.4546C7.19919 29.6182 10.3871 32.7287 14.9751 35.1976L15.8468 35.6667C15.9496 35.7223 16.0644 35.7514 16.1812 35.7514C16.2979 35.7514 16.4128 35.7223 16.5155 35.6667L17.386 35.1976C21.9691 32.7274 25.1583 29.6182 27.3599 26.4546C29.2604 23.7056 30.6413 20.6319 31.4343 17.3854C32.0175 15.0076 32.3127 12.5683 32.3135 10.1201C32.3251 8.98686 32.2505 7.8544 32.0907 6.73247L31.9047 5.6082C31.8902 5.51628 31.8576 5.42815 31.809 5.34888C31.7603 5.2696 31.6963 5.20076 31.6209 5.14631C31.5454 5.09186 31.4599 5.05288 31.3693 5.03161C31.2788 5.01034 31.1848 5.00722 31.093 5.02241C31.0012 5.03761 30.9133 5.07081 30.8344 5.12013C30.7555 5.16944 30.6872 5.23388 30.6333 5.30974C30.5795 5.3856 30.5411 5.47137 30.5205 5.56212C30.4999 5.65287 30.4975 5.74678 30.5134 5.83848L30.5059 5.83601Z" fill="black"/>
<path fill-rule="evenodd" clip-rule="evenodd" d="M5.69881 5.06969L16.1778 1.86806L26.8908 5.13865C27.0701 5.19227 27.2634 5.17265 27.4284 5.0841C27.5933 4.99554 27.7164 4.84526 27.7708 4.66614C27.8252 4.48701 27.8064 4.29365 27.7185 4.12834C27.6307 3.96303 27.481 3.83926 27.3021 3.78411L16.3834 0.450723C16.2495 0.409655 16.1062 0.409655 15.9721 0.450723L5.2863 3.71269C5.197 3.73939 5.11386 3.78346 5.04163 3.84237C4.96941 3.90129 4.90954 3.97389 4.86545 4.05601C4.82136 4.13812 4.79393 4.22814 4.78471 4.32089C4.77551 4.41364 4.7847 4.50729 4.81178 4.59647C4.83886 4.68566 4.88329 4.76862 4.94251 4.84059C5.00173 4.91256 5.07459 4.97212 5.1569 5.01586C5.2392 5.0596 5.32933 5.08665 5.42211 5.09547C5.5149 5.10428 5.60852 5.09468 5.69758 5.06722L5.69881 5.06969Z" fill="black"/>
<path fill-rule="evenodd" clip-rule="evenodd" d="M0.524217 6.04205L15.5475 35.3643C15.6061 35.4789 15.695 35.5753 15.8045 35.6429C15.9139 35.7105 16.0398 35.7469 16.1686 35.7481C16.2972 35.7492 16.4237 35.7151 16.5344 35.6494C16.6451 35.5837 16.7356 35.4889 16.7962 35.3753L25.958 18.2403L25.9715 18.2133L31.8356 6.02235C31.915 5.85411 31.9249 5.6613 31.863 5.48583C31.8011 5.31037 31.6725 5.16641 31.505 5.08529C31.3376 5.00416 31.1449 4.9924 30.9688 5.05258C30.7927 5.11276 30.6475 5.24 30.5647 5.40664L24.7105 17.5877L16.1965 33.522L1.77903 5.39679C1.73748 5.31329 1.67978 5.23885 1.60925 5.17781C1.53872 5.11677 1.45679 5.07032 1.36818 5.04117C1.27958 5.01202 1.18608 5.00075 1.09308 5.00799C1.00009 5.01524 0.909454 5.04087 0.826439 5.0834C0.74342 5.12592 0.669668 5.1845 0.609452 5.25574C0.549238 5.32697 0.503758 5.40944 0.475648 5.49838C0.447538 5.58732 0.437356 5.68095 0.445693 5.77385C0.454031 5.86675 0.480721 5.95708 0.524217 6.03959V6.04205Z" fill="black"/>
<path fill-rule="evenodd" clip-rule="evenodd" d="M7.71522 19.1007H24.4215C24.6085 19.1007 24.7877 19.0265 24.92 18.8942C25.0522 18.762 25.1265 18.5828 25.1265 18.3957C25.1265 18.2088 25.0522 18.0295 24.92 17.8973C24.7877 17.7651 24.6085 17.6908 24.4215 17.6908H7.71522C7.52825 17.6908 7.34894 17.7651 7.21673 17.8973C7.08453 18.0295 7.01025 18.2088 7.01025 18.3957C7.01025 18.5828 7.08453 18.762 7.21673 18.8942C7.34894 19.0265 7.52825 19.1007 7.71522 19.1007ZM54.3134 13.0177H43.4452C43.2574 13.0186 43.0775 13.0937 42.9447 13.2265C42.8119 13.3593 42.7369 13.5391 42.7359 13.727V22.4501C42.7371 22.6378 42.8123 22.8175 42.945 22.9502C43.0777 23.083 43.2575 23.1581 43.4452 23.1594H54.3134V24.637H43.4452C43.1584 24.6383 42.8743 24.5829 42.609 24.4737C42.3439 24.3645 42.103 24.204 41.9002 24.0012C41.6974 23.7985 41.5369 23.5575 41.4277 23.2924C41.3186 23.0272 41.2631 22.743 41.2644 22.4563V13.7331C41.2631 13.4463 41.3186 13.1622 41.4277 12.8971C41.5369 12.6318 41.6974 12.3909 41.9002 12.1881C42.103 11.9854 42.3439 11.8248 42.609 11.7157C42.8743 11.6065 43.1584 11.551 43.4452 11.5523H54.3134V13.0177ZM74.7212 11.5449V13.0226H64.2544V17.3411H72.6672V18.8311H64.2532V23.1569H74.72V24.6346H62.7755V11.5449H74.7212Z" fill="black"/>
<path d="M96.2748 13.7438V17.5784C96.2766 17.8651 96.2209 18.1491 96.1114 18.4143C96.0018 18.6793 95.8419 18.9203 95.6387 19.1229C95.4364 19.3257 95.1952 19.4862 94.9301 19.5954C94.6651 19.7046 94.3806 19.7603 94.0943 19.7592H92.0958L96.2024 24.6293H94.2578L90.1688 19.7592H85.3662C85.1287 19.7471 84.8919 19.7228 84.6569 19.6865V24.6293H83.1792V11.563H94.0828C94.37 11.5619 94.6536 11.6175 94.9186 11.7267C95.1846 11.8359 95.4249 11.9965 95.6281 12.1992C95.8304 12.402 95.9912 12.6428 96.0999 12.9079C96.2094 13.173 96.2651 13.4571 96.2642 13.7438H96.2748ZM85.3711 18.2692H94.0943C94.1853 18.2703 94.2754 18.2533 94.3602 18.2189C94.4442 18.1846 94.521 18.1338 94.5855 18.0694C94.65 18.005 94.7004 17.9284 94.7349 17.8441C94.7693 17.7598 94.7861 17.6694 94.7852 17.5784V13.7438C94.7861 13.6515 94.7693 13.5597 94.7357 13.4739C94.7013 13.3881 94.65 13.3099 94.5855 13.2439C94.5228 13.1763 94.4468 13.1227 94.362 13.0866C94.2772 13.0505 94.1853 13.0328 94.0934 13.0345H85.3699C85.1821 13.0355 85.0023 13.1106 84.8694 13.2434C84.7366 13.3762 84.6616 13.5561 84.6606 13.7438V17.5784C84.6587 17.6706 84.6763 17.7621 84.7125 17.847C84.7485 17.932 84.8022 18.0083 84.8699 18.0709C84.9361 18.1356 85.0144 18.1865 85.1005 18.2205C85.1866 18.2546 85.2785 18.2711 85.3711 18.2692Z" fill="black"/>
<path fill-rule="evenodd" clip-rule="evenodd" d="M104.091 11.5449H117.17V13.0226H111.383V24.6358H109.905V13.0226H104.091V11.5449ZM125.098 24.6297V11.5449H126.576V24.6297H125.098ZM146.215 11.5449H148.106L142.636 18.0873L148.124 24.6297H146.215L141.345 18.8323H137.129V24.6297H135.641V11.5449H137.132V17.3411H141.348L146.215 11.5449Z" fill="black"/>
</svg>
