<svg width="184" height="29" viewBox="0 0 184 29" fill="none" xmlns="http://www.w3.org/2000/svg">
<path d="M35.9704 21.9126C35.5139 21.9126 35.2856 21.7985 35.0574 21.6843C34.9432 21.4561 34.8291 21.2278 34.8291 20.8855V8.10319C34.8291 7.76081 34.9432 7.41843 35.0574 7.3043C35.2856 7.07604 35.5139 6.96191 35.9704 6.96191H41.3344C43.3886 6.96191 44.8723 7.41843 45.8995 8.21732C46.8125 9.13034 47.3831 10.3857 47.3831 12.0976C47.3831 13.8096 46.9266 15.065 45.8995 15.978C44.9864 16.7769 43.3886 17.2334 41.3344 17.2334H39.2801V20.7713C39.2801 21.1137 39.1659 21.4561 39.0518 21.5702C38.8236 21.7985 38.5953 21.7985 38.1388 21.7985H35.9704V21.9126ZM40.992 14.0378C41.5626 14.0378 42.0191 13.9237 42.3615 13.5813C42.7039 13.2389 42.818 12.7824 42.818 12.0976C42.818 11.4129 42.7039 10.9564 42.3615 10.614C42.0191 10.2716 41.5626 10.1575 40.992 10.1575H39.2801V14.0378H40.992Z" fill="black"/>
<path d="M52.5192 22.2551C51.1497 22.2551 50.0084 21.7986 49.2095 20.8856C48.4106 19.9726 47.9541 18.7172 47.9541 17.1194C47.9541 15.864 48.1824 14.8369 48.753 13.9239C49.3236 13.0108 50.1225 12.3261 51.1497 11.7554C52.1768 11.2989 53.4322 10.9565 54.6876 10.9565C55.8289 10.9565 56.7419 11.0707 57.6549 11.2989C58.5679 11.5272 59.2527 11.8696 60.0516 12.3261V21.1139C60.0516 21.3421 60.0516 21.5704 59.9375 21.6845C59.8233 21.7986 59.5951 21.7986 59.3668 21.7986H57.0843C56.9702 21.7986 56.7419 21.7986 56.7419 21.6845C56.6278 21.5704 56.6278 21.5704 56.5136 21.4563L56.1713 20.7715C55.7148 21.228 55.2583 21.5704 54.6876 21.7986C54.117 22.141 53.3181 22.2551 52.5192 22.2551ZM54.117 19.2878C54.6876 19.2878 55.1441 19.1737 55.4865 18.8313C55.8289 18.6031 55.943 18.1466 55.943 17.6901V14.2662C55.7148 14.1521 55.2582 14.038 54.9159 14.038C54.117 14.038 53.5463 14.2662 53.0898 14.8369C52.6333 15.4075 52.4051 16.0923 52.4051 17.1194C52.4051 18.4889 52.9757 19.2878 54.117 19.2878Z" fill="black"/>
<path d="M63.133 21.9129C62.6765 21.9129 62.4482 21.7988 62.22 21.6846C61.9917 21.4564 61.9917 21.2281 61.9917 20.8858V11.9838C61.9917 11.7556 61.9917 11.5273 62.1058 11.4132C62.22 11.2991 62.4482 11.2991 62.6765 11.2991H64.959C65.1873 11.2991 65.3014 11.2991 65.3014 11.4132C65.4155 11.4132 65.4155 11.5273 65.5296 11.6414L65.6438 12.3262C66.1003 11.8697 66.5568 11.6414 67.2416 11.4132C67.9263 11.1849 68.6111 11.0708 69.5241 11.0708C70.6654 11.0708 71.6925 11.4132 72.3773 12.0979C73.062 12.7827 73.5186 13.6957 73.5186 15.0653V20.8858C73.5186 21.2281 73.4044 21.5705 73.2903 21.6846C73.1762 21.9129 72.8338 21.9129 72.3773 21.9129H70.2089C69.7524 21.9129 69.5241 21.7988 69.2958 21.6846C69.0676 21.4564 69.0676 21.2281 69.0676 20.8858V15.2935C69.0676 14.837 68.9535 14.4946 68.7252 14.3805C68.4969 14.1522 68.2687 14.0381 67.8122 14.0381C67.3557 14.0381 67.0133 14.1522 66.785 14.3805C66.5568 14.6087 66.4427 14.9511 66.4427 15.2935V20.7716C66.4427 21.114 66.3285 21.4564 66.2144 21.5705C66.1003 21.7988 65.7579 21.7988 65.3014 21.7988H63.133V21.9129Z" fill="black"/>
<path d="M81.2797 22.2553C79.2254 22.2553 77.6276 21.7988 76.4863 20.7716C75.3451 19.8586 74.7744 18.4891 74.7744 16.663C74.7744 15.5218 75.0027 14.6087 75.5733 13.6957C76.0298 12.8968 76.8287 12.2121 77.7417 11.7556C78.7689 11.2991 79.9101 11.0708 81.1655 11.0708C82.1927 11.0708 82.9916 11.1849 83.6763 11.4132C84.3611 11.6414 85.0459 11.8697 85.5024 12.3262C85.6165 12.4403 85.7306 12.5545 85.7306 12.6686C85.7306 12.7827 85.6165 12.8968 85.5024 13.1251L84.5894 14.7229C84.4752 14.9511 84.3611 15.0653 84.247 15.0653C84.1329 15.0653 84.0187 14.9511 83.7905 14.837C83.4481 14.6087 82.9916 14.3805 82.6492 14.2664C82.3068 14.1522 81.8503 14.0381 81.3938 14.0381C80.709 14.0381 80.0243 14.2664 79.5678 14.7229C79.1112 15.1794 78.883 15.8641 78.883 16.663C78.883 17.4619 79.1112 18.1467 79.5678 18.6032C80.0243 19.0597 80.5949 19.288 81.3938 19.288C81.8503 19.288 82.3068 19.1738 82.6492 19.0597C82.9916 18.9456 83.4481 18.7173 83.7905 18.4891C84.0187 18.3749 84.1329 18.2608 84.247 18.2608C84.3611 18.2608 84.4752 18.3749 84.5894 18.6032L85.6165 20.3151C85.7306 20.4292 85.7306 20.5434 85.7306 20.6575C85.7306 20.7716 85.6165 20.8857 85.5024 20.9999C84.9317 21.3423 84.247 21.6846 83.4481 21.9129C83.1057 22.1411 82.3068 22.2553 81.2797 22.2553Z" fill="black"/>
<path d="M91.6652 22.2551C90.2957 22.2551 89.1544 21.7986 88.3555 20.8856C87.5566 19.9726 87.1001 18.7172 87.1001 17.1194C87.1001 15.864 87.3283 14.8369 87.899 13.9239C88.4696 13.0108 89.2685 12.3261 90.2957 11.7554C91.3228 11.2989 92.5782 10.9565 93.8336 10.9565C94.9749 10.9565 95.8879 11.0707 96.8009 11.2989C97.7139 11.5272 98.3987 11.8696 99.1976 12.3261V21.1139C99.1976 21.3421 99.1976 21.5704 99.0835 21.6845C98.9693 21.7986 98.7411 21.7986 98.5128 21.7986H96.2303C96.1162 21.7986 95.8879 21.7986 95.8879 21.6845C95.7738 21.5704 95.7738 21.5704 95.6596 21.4563L95.3173 20.7715C94.8608 21.228 94.4042 21.5704 93.8336 21.7986C93.263 22.141 92.5782 22.2551 91.6652 22.2551ZM93.3771 19.2878C93.9477 19.2878 94.4042 19.1737 94.7466 18.8313C95.089 18.6031 95.2031 18.1466 95.2031 17.6901V14.2662C94.9749 14.1521 94.5184 14.038 94.176 14.038C93.3771 14.038 92.8065 14.2662 92.35 14.8369C91.8934 15.4075 91.6652 16.0923 91.6652 17.1194C91.5511 18.4889 92.1217 19.2878 93.3771 19.2878Z" fill="black"/>
<path d="M113.121 21.1137C113.235 21.2278 113.235 21.342 113.235 21.4561C113.235 21.5702 113.235 21.6843 113.121 21.7985C113.007 21.9126 112.893 21.9126 112.779 21.9126H109.355C109.127 21.9126 109.012 21.9126 108.898 21.9126C108.784 21.9126 108.67 21.7985 108.556 21.6843L105.589 17.5758V20.7713C105.589 21.1137 105.475 21.4561 105.36 21.5702C105.132 21.7985 104.904 21.7985 104.447 21.7985H102.279C101.822 21.7985 101.594 21.6843 101.366 21.5702C101.252 21.342 101.138 21.1137 101.138 20.7713V8.10319C101.138 7.76081 101.252 7.41843 101.366 7.3043C101.594 7.07604 101.822 6.96191 102.279 6.96191H104.447C104.904 6.96191 105.132 7.07604 105.36 7.3043C105.589 7.53255 105.589 7.76081 105.589 8.10319V15.4073L108.442 11.6411C108.556 11.527 108.67 11.4129 108.784 11.4129C108.898 11.4129 109.012 11.2988 109.241 11.2988H112.665C112.779 11.2988 112.893 11.2988 113.007 11.4129C113.121 11.527 113.121 11.6411 113.121 11.7553C113.121 11.8694 113.121 11.9835 113.007 12.0976L109.241 16.4345L113.121 21.1137Z" fill="black"/>
<path d="M120.197 22.2549C118.941 22.2549 117.914 22.0267 116.887 21.6843C115.974 21.2278 115.175 20.6571 114.605 19.8582C114.034 19.0594 113.806 18.0322 113.806 16.8909C113.806 15.0649 114.376 13.5812 115.403 12.6682C116.431 11.6411 118.028 11.1846 119.969 11.1846C121.909 11.1846 123.392 11.6411 124.305 12.6682C125.333 13.5812 125.789 14.9508 125.789 16.6627C125.789 17.3474 125.447 17.804 124.876 17.804H118.028C118.028 18.4887 118.257 18.9452 118.713 19.2876C119.17 19.63 119.969 19.7441 120.882 19.7441C121.452 19.7441 122.023 19.7441 122.365 19.63C122.822 19.5159 123.164 19.2876 123.621 19.1735C123.849 19.0594 123.963 19.0594 123.963 19.0594C124.077 19.0594 124.191 19.1735 124.305 19.2876L125.104 20.6571C125.218 20.7713 125.218 20.8854 125.218 20.9995C125.218 21.1136 125.104 21.2278 124.99 21.3419C124.42 21.6843 123.735 22.0267 122.936 22.2549C122.023 22.1408 121.224 22.2549 120.197 22.2549ZM121.909 15.4073C121.909 14.8366 121.795 14.3801 121.452 14.1519C121.11 13.8095 120.653 13.6954 119.969 13.6954C119.284 13.6954 118.827 13.8095 118.485 14.1519C118.143 14.4943 118.028 14.8366 118.028 15.4073H121.909Z" fill="black"/>
<path d="M133.436 22.2548C132.181 22.2548 131.039 22.1407 129.898 21.9125C128.757 21.6842 127.958 21.2277 127.273 20.7712C127.045 20.6571 126.931 20.4288 126.931 20.3147C126.931 20.2006 126.931 20.0864 127.045 19.9723L128.072 18.2604C128.186 18.0321 128.3 18.0321 128.414 18.0321C128.528 18.0321 128.643 18.0321 128.757 18.1463C129.327 18.4886 129.898 18.7169 130.583 18.9451C131.268 19.1734 131.952 19.2875 132.637 19.2875C133.322 19.2875 133.778 19.1734 134.121 18.9451C134.463 18.7169 134.577 18.3745 134.577 17.918C134.577 17.4615 134.349 17.1191 134.007 16.8909C133.664 16.6626 132.979 16.3202 131.952 15.9778C130.469 15.4072 129.327 14.8366 128.528 14.1518C127.73 13.467 127.273 12.4399 127.273 11.2986C127.273 9.81497 127.844 8.78782 128.871 7.98893C129.898 7.19004 131.268 6.84766 132.979 6.84766C134.235 6.84766 135.262 6.96178 136.061 7.19004C136.974 7.41829 137.659 7.76067 138.229 8.10305C138.458 8.33131 138.572 8.44544 138.572 8.67369C138.572 8.78782 138.572 8.90195 138.458 9.01608L137.43 10.728C137.316 10.9562 137.202 10.9562 137.088 10.9562C136.974 10.9562 136.86 10.9562 136.746 10.8421C135.947 10.2715 134.92 10.0432 133.664 10.0432C132.979 10.0432 132.523 10.1573 132.181 10.3856C131.838 10.6139 131.724 10.9562 131.724 11.4127C131.724 11.7551 131.838 11.9834 131.952 12.2116C132.181 12.4399 132.409 12.554 132.637 12.7823C132.979 12.8964 133.436 13.1247 134.007 13.3529L134.463 13.467C135.49 13.9235 136.403 14.2659 136.974 14.7224C137.659 15.0648 138.115 15.6355 138.458 16.2061C138.8 16.7767 138.914 17.4615 138.914 18.2604C138.914 19.5158 138.458 20.6571 137.43 21.3418C136.746 21.7983 135.262 22.2548 133.436 22.2548Z" fill="black"/>
<path d="M143.821 21.9127C143.593 21.9127 143.479 21.9127 143.365 21.7985C143.251 21.6844 143.136 21.5703 143.136 21.342L140.283 11.8695C140.283 11.7553 140.283 11.7553 140.283 11.6412C140.283 11.413 140.397 11.2988 140.74 11.2988H143.593C143.821 11.2988 143.935 11.2988 144.049 11.413C144.164 11.5271 144.164 11.5271 144.278 11.7553L145.419 16.7769L146.903 12.7825C147.017 12.5542 147.017 12.4401 147.131 12.4401C147.245 12.326 147.359 12.326 147.587 12.326H148.957C149.185 12.326 149.299 12.326 149.413 12.4401C149.528 12.5542 149.528 12.6684 149.642 12.7825L151.125 16.7769L152.381 11.7553C152.381 11.6412 152.495 11.5271 152.609 11.413C152.723 11.2988 152.837 11.2988 152.951 11.2988H155.919C156.261 11.2988 156.375 11.413 156.375 11.6412C156.375 11.6412 156.375 11.7553 156.375 11.8695L153.522 21.342C153.408 21.5703 153.408 21.6844 153.294 21.7985C153.18 21.9127 153.065 21.9127 152.837 21.9127H150.669C150.441 21.9127 150.326 21.9127 150.212 21.7985C150.098 21.6844 149.984 21.5703 149.984 21.342L148.5 17.3476L147.017 21.342C146.903 21.5703 146.903 21.6844 146.788 21.7985C146.674 21.9127 146.56 21.9127 146.332 21.9127H143.821Z" fill="black"/>
<path d="M161.625 22.2551C160.255 22.2551 159.114 21.7986 158.315 20.8856C157.516 19.9726 157.06 18.7172 157.06 17.1194C157.06 15.864 157.288 14.8369 157.858 13.9239C158.429 13.0108 159.228 12.3261 160.255 11.7554C161.282 11.2989 162.538 10.9565 163.793 10.9565C164.934 10.9565 165.847 11.0707 166.76 11.2989C167.673 11.5272 168.358 11.8696 169.157 12.3261V21.1139C169.157 21.3421 169.157 21.5704 169.043 21.6845C168.929 21.7986 168.701 21.7986 168.472 21.7986H166.19C166.076 21.7986 165.961 21.7986 165.847 21.6845C165.733 21.5704 165.733 21.5704 165.619 21.4563L165.277 20.7715C164.82 21.228 164.364 21.5704 163.793 21.7986C163.222 22.141 162.538 22.2551 161.625 22.2551ZM163.337 19.2878C163.907 19.2878 164.364 19.1737 164.706 18.8313C165.048 18.6031 165.163 18.1466 165.163 17.6901V14.2662C164.934 14.1521 164.478 14.038 164.135 14.038C163.337 14.038 162.766 14.2662 162.309 14.8369C161.853 15.4075 161.625 16.0923 161.625 17.1194C161.511 18.4889 162.081 19.2878 163.337 19.2878Z" fill="black"/>
<path d="M172.239 26.3635C171.782 26.3635 171.554 26.2494 171.326 26.1352C171.212 25.907 171.098 25.6787 171.098 25.3364V12.7824C171.782 12.3258 172.581 11.8693 173.608 11.6411C174.636 11.2987 175.663 11.1846 176.69 11.1846C181.141 11.1846 183.309 13.0106 183.309 16.7768C183.309 18.4887 182.853 19.8582 181.94 20.8854C181.027 21.9125 179.657 22.369 177.945 22.369C177.489 22.369 177.032 22.2549 176.576 22.1408C176.119 22.0267 175.777 21.9125 175.434 21.6843V25.3364C175.434 25.6787 175.32 26.0211 175.206 26.1352C174.978 26.3635 174.75 26.3635 174.293 26.3635H172.239ZM177.032 19.2876C177.717 19.2876 178.174 19.0594 178.402 18.6028C178.744 18.1463 178.858 17.4616 178.858 16.6627C178.858 15.7497 178.63 15.0649 178.288 14.6084C177.945 14.266 177.375 14.0378 176.576 14.0378C176.119 14.0378 175.663 14.1519 175.434 14.266V17.6898C175.434 18.1463 175.549 18.6028 175.891 18.8311C176.119 19.1735 176.576 19.2876 177.032 19.2876Z" fill="black"/>
<path fill-rule="evenodd" clip-rule="evenodd" d="M5.72704 4.45097C5.27053 2.16842 7.09657 0 9.37911 0C11.4334 0 13.1453 1.71191 13.1453 3.7662V8.33129C13.7159 8.33129 14.1725 8.33129 14.7431 8.33129C15.1996 8.33129 15.7702 8.33129 16.2267 8.33129V3.7662C16.2267 1.71191 17.9387 0 19.993 0C22.2755 0 24.1015 2.16842 23.645 4.45097L22.6179 9.81495C26.0417 11.2986 28.6666 13.9235 28.6666 17.2332V19.1734C28.6666 21.9124 26.8406 24.195 24.3298 25.6786C21.819 27.2764 18.3952 28.1894 14.629 28.1894C10.8628 28.1894 7.43895 27.2764 4.92815 25.6786C2.41734 24.195 0.591309 21.9124 0.591309 19.1734V17.2332C0.591309 13.9235 3.21624 11.2986 6.64005 9.81495L5.72704 4.45097ZM21.3625 10.6138L22.5038 4.33684C22.8461 2.73905 21.5907 1.2554 19.993 1.2554C18.5093 1.2554 17.368 2.39668 17.368 3.88033V9.70082C17.0256 9.70082 16.5691 9.58669 16.2267 9.58669C15.7702 9.58669 15.1996 9.58669 14.7431 9.58669C14.1725 9.58669 13.7159 9.58669 13.1453 9.70082C12.8029 9.70082 12.3464 9.81495 12.004 9.81495V3.99446C12.004 2.5108 10.8628 1.36953 9.37911 1.36953C7.78133 1.36953 6.52593 2.85318 6.86831 4.45097L8.00958 10.8421C4.35751 12.2116 1.84671 14.7224 1.84671 17.5756V19.5158C1.84671 23.8526 7.55307 27.3906 14.629 27.3906C21.7049 27.3906 27.4112 23.8526 27.4112 19.5158V17.5756C27.5254 14.4942 25.0146 11.9834 21.3625 10.6138Z" fill="#633001"/>
<path d="M27.5254 19.2878C27.5254 23.6247 21.8191 27.1626 14.7432 27.1626C7.6673 27.1626 1.96094 23.6247 1.96094 19.2878V17.3477H27.6396V19.2878H27.5254Z" fill="#FEDC90"/>
<path fill-rule="evenodd" clip-rule="evenodd" d="M6.86805 4.22255C6.52567 2.62477 7.78107 1.14111 9.37885 1.14111C10.8625 1.14111 12.0038 2.28239 12.0038 3.76604V9.70066C12.9168 9.58653 13.8298 9.47241 14.7428 9.47241C15.6559 9.47241 16.5689 9.58654 17.3678 9.58654V3.76604C17.3678 2.28239 18.509 1.14111 19.9927 1.14111C21.5905 1.14111 22.8459 2.62477 22.5035 4.22255L21.3622 10.4996C25.1284 11.8691 27.6392 14.3799 27.6392 17.2331C27.6392 21.5699 21.9329 25.1078 14.857 25.1078C7.78107 25.1078 2.07471 21.5699 2.07471 17.2331C2.07471 14.3799 4.58551 11.8691 8.23758 10.4996L6.86805 4.22255Z" fill="#D1884F"/>
<path d="M11.2049 16.7763C11.2049 17.9176 10.5201 18.9447 9.83535 18.9447C9.15058 18.9447 8.46582 18.0317 8.46582 16.7763C8.46582 15.6351 9.15058 14.6079 9.83535 14.6079C10.5201 14.6079 11.2049 15.5209 11.2049 16.7763Z" fill="#633001"/>
<path d="M21.0203 16.7763C21.0203 17.9176 20.3355 18.9447 19.6508 18.9447C18.8519 18.9447 18.2812 18.0317 18.2812 16.7763C18.2812 15.6351 18.966 14.6079 19.6508 14.6079C20.3355 14.6079 21.0203 15.5209 21.0203 16.7763Z" fill="#633001"/>
</svg>
