<svg width="121" height="27" viewBox="0 0 121 27" fill="none" xmlns="http://www.w3.org/2000/svg">
<path d="M7.79737 26.1859C3.85699 26.1859 0 23.3505 0 16.9499C0 10.5286 3.85699 7.73486 7.79737 7.73486C9.73629 7.73486 11.2582 8.23523 12.3424 8.94408L11.154 11.5502C10.4243 11.0289 9.34017 10.6954 8.25604 10.6954C5.8793 10.6954 3.71105 12.5717 3.71105 16.9082C3.71105 21.2447 5.94185 23.1628 8.25604 23.1628C9.34017 23.1628 10.4243 22.8292 11.154 22.308L12.3424 24.9766C11.2165 25.7272 9.73629 26.1859 7.79737 26.1859Z" fill="#0081C9"/>
<path d="M21.3696 26.1859C16.3451 26.1859 13.5723 22.2038 13.5723 16.9499C13.5723 11.6961 16.3243 7.73486 21.3696 7.73486C26.3941 7.73486 29.167 11.6752 29.167 16.9499C29.167 22.2038 26.3941 26.1859 21.3696 26.1859ZM21.3696 10.5911C18.5759 10.5911 17.1999 13.093 17.1999 16.9082C17.1999 20.7235 18.5759 23.2462 21.3696 23.2462C24.1634 23.2462 25.5394 20.7235 25.5394 16.9082C25.5394 13.093 24.1634 10.5911 21.3696 10.5911Z" fill="#0081C9"/>
<path d="M34.0039 4.8788C32.8155 4.8788 31.8564 3.96147 31.8564 2.83564C31.8564 1.70982 32.8155 0.79248 34.0039 0.79248C35.1922 0.79248 36.1513 1.70982 36.1513 2.83564C36.1513 3.96147 35.1714 4.8788 34.0039 4.8788ZM32.19 8.08949H35.8177V25.8108H32.19V8.08949Z" fill="#0081C9"/>
<path d="M50.0367 25.8106V13.9894C50.0367 11.9254 48.7858 10.6328 46.3256 10.6328C45.0122 10.6328 43.803 10.8622 43.0733 11.154V25.8314H39.4873V8.98578C41.2594 8.25608 43.5319 7.73486 46.3048 7.73486C51.2668 7.73486 53.6643 9.90312 53.6643 13.6559V25.8314H50.0367" fill="#0081C9"/>
<path d="M63.1922 26.1858C60.8988 26.1858 58.6263 25.6229 57.2295 24.9349V0H60.8155V8.54792C61.6702 8.1518 63.0463 7.81822 64.2763 7.81822C68.8422 7.81822 71.9486 11.1123 71.9486 16.5329C71.9486 23.2253 68.4877 26.1858 63.1922 26.1858ZM63.6509 10.6328C62.671 10.6328 61.5035 10.8621 60.8155 11.2165V22.8501C61.3367 23.0794 62.3582 23.3087 63.3798 23.3087C66.2361 23.3087 68.3418 21.3281 68.3418 16.804C68.3626 12.9261 66.528 10.6328 63.6509 10.6328Z" fill="#0081C9"/>
<path d="M81.7055 26.1859C76.6184 26.1859 74.0332 24.1219 74.0332 20.6193C74.0332 15.6782 79.287 14.8025 84.6451 14.5107V13.3848C84.6451 11.154 83.1649 10.3618 80.8924 10.3618C79.2245 10.3618 77.1813 10.883 75.993 11.4459L75.0756 8.98578C76.4933 8.36032 78.8909 7.73486 81.2677 7.73486C85.4999 7.73486 88.0852 9.3819 88.0852 13.7601V24.9349C86.8134 25.623 84.2073 26.1859 81.7055 26.1859ZM84.666 16.9082C81.0383 17.0959 77.4315 17.4086 77.4315 20.5567C77.4315 22.4331 78.8701 23.5798 81.6012 23.5798C82.7479 23.5798 84.1031 23.3922 84.666 23.1211V16.9082Z" fill="#0081C9"/>
<path d="M96.1748 26.1859C94.1108 26.1859 91.9425 25.623 90.6499 24.9349L91.8591 22.1829C92.7765 22.7458 94.7154 23.3296 96.0705 23.3296C98.0095 23.3296 99.3021 22.3706 99.3021 20.8903C99.3021 19.285 97.9469 18.6595 96.1539 17.9924C93.7772 17.0959 91.1294 16.0118 91.1294 12.6968C91.1294 9.77802 93.4019 7.73486 97.3423 7.73486C99.4897 7.73486 101.262 8.25608 102.513 8.98578L101.387 11.4876C100.595 10.9872 99.0102 10.4452 97.7384 10.4452C95.8621 10.4452 94.8196 11.4251 94.8196 12.7177C94.8196 14.323 96.1331 14.8859 97.8844 15.5531C100.344 16.4704 103.076 17.492 103.076 20.9529C103.055 24.101 100.616 26.1859 96.1748 26.1859Z" fill="#0081C9"/>
<path d="M120.546 16.8664L108.767 18.5134C109.121 21.7033 111.206 23.3086 114.188 23.3086C115.96 23.3086 117.878 22.8708 119.087 22.2245L120.129 24.914C118.753 25.6437 116.377 26.1649 113.937 26.1649C108.35 26.1649 105.223 22.5789 105.223 16.9289C105.223 11.5083 108.246 7.71387 113.208 7.71387C117.815 7.71387 120.546 10.7369 120.546 15.5112C120.588 15.9491 120.588 16.4077 120.546 16.8664ZM113.187 10.3616C110.435 10.3616 108.621 12.4673 108.558 16.1575L117.148 14.9692C117.106 11.8836 115.543 10.3616 113.187 10.3616Z" fill="#0081C9"/>
</svg>
