<svg width="167" height="37" viewBox="0 0 167 37" fill="none" xmlns="http://www.w3.org/2000/svg">
<path d="M63.6196 28.9631H57.792V12.6924H63.663C65.3093 12.6924 66.7392 13.0139 67.9307 13.657C69.1222 14.3002 70.0538 15.2434 70.6821 16.4438C71.3319 17.6658 71.6353 19.102 71.6353 20.7956C71.6353 22.4891 71.3103 23.9469 70.6604 25.1688C70.0105 26.3907 69.1006 27.3125 67.8874 27.977C66.7175 28.6416 65.2877 28.9631 63.6196 28.9631ZM61.2583 26.0048H63.468C65.0061 26.0048 66.1759 25.5975 66.9775 24.7614C67.7791 23.9469 68.169 22.6177 68.169 20.7956C68.169 18.9949 67.7791 17.6872 66.9775 16.8511C66.1759 16.0366 65.0061 15.6292 63.468 15.6292H61.2583V26.0048Z" fill="#2B2D42"/>
<path d="M74.2349 28.9626H70.5088L76.1848 12.7134H80.6691L86.3232 28.9626H82.5973L81.3841 25.2541H75.4481L74.2349 28.9626ZM76.3364 22.5744H80.5175L78.5027 16.4219H78.3728L76.3364 22.5744Z" fill="#2B2D42"/>
<path d="M100.578 20.8381C100.578 22.6173 100.231 24.118 99.56 25.3613C98.8885 26.6046 97.9567 27.5479 96.8088 28.2124C95.6383 28.8555 94.3388 29.1985 92.887 29.1985C91.4361 29.1985 90.114 28.877 88.9661 28.2124C87.7965 27.5479 86.8864 26.6046 86.2149 25.3613C85.5434 24.118 85.1968 22.6173 85.1968 20.8595C85.1968 19.0802 85.5434 17.5796 86.2149 16.3363C86.8864 15.0929 87.7965 14.1497 88.9661 13.4852C90.1358 12.842 91.4361 12.499 92.887 12.499C94.3388 12.499 95.6383 12.8206 96.8088 13.4852C97.9784 14.1283 98.8885 15.0929 99.56 16.3363C100.253 17.5367 100.578 19.0588 100.578 20.8381ZM97.0683 20.8381C97.0683 19.1231 96.6782 17.794 95.9204 16.8936C95.1619 15.9933 94.1438 15.5216 92.887 15.5216C91.6311 15.5216 90.6122 15.9718 89.8545 16.8936C89.0959 17.8154 88.7057 19.1231 88.7057 20.8381C88.7057 22.553 89.0959 23.8821 89.8545 24.7825C90.6122 25.6828 91.6311 26.1544 92.887 26.1544C94.1438 26.1544 95.1619 25.7042 95.9204 24.7825C96.6782 23.8607 97.0683 22.553 97.0683 20.8381Z" fill="#2B2D42"/>
<path d="M105.236 12.6924H109.525L114.053 23.6253H114.248L118.776 12.6924H123.044V28.9631H119.664V18.3732H119.534L115.288 28.8773H112.991L108.746 18.3303H108.615V28.9631H105.236V12.6924Z" fill="#2B2D42"/>
<path d="M128.092 29.1774C126.922 29.1774 125.947 28.8772 125.167 28.2556C124.387 27.6553 123.998 26.7335 123.998 25.533C123.998 24.6327 124.214 23.9038 124.647 23.3893C125.08 22.8749 125.644 22.489 126.359 22.2531C127.052 22.0174 127.81 21.8459 128.633 21.7816C129.695 21.6743 130.475 21.5672 130.929 21.4386C131.385 21.31 131.622 21.0741 131.622 20.6669V20.624C131.622 20.1309 131.471 19.7236 131.146 19.4664C130.821 19.1877 130.388 19.0591 129.803 19.0591C129.196 19.0591 128.698 19.1877 128.33 19.4664C127.962 19.7236 127.723 20.0666 127.615 20.4739L124.452 20.2167C124.691 19.1019 125.275 18.223 126.207 17.5799C127.138 16.9368 128.351 16.5938 129.825 16.5938C130.735 16.5938 131.602 16.7439 132.381 17.0225C133.182 17.3012 133.811 17.7514 134.309 18.3517C134.807 18.9519 135.046 19.745 135.046 20.7097V28.963H131.796V27.2694H131.71C131.406 27.8268 130.973 28.2984 130.367 28.6629C129.76 29.0058 129.002 29.1774 128.092 29.1774ZM129.066 26.8622C129.825 26.8622 130.431 26.6478 130.908 26.219C131.385 25.7903 131.622 25.2544 131.622 24.6113V23.325C131.493 23.4107 131.276 23.4966 130.995 23.5609C130.713 23.6252 130.409 23.6895 130.106 23.7323C129.781 23.7752 129.5 23.8181 129.261 23.8609C128.655 23.9467 128.178 24.1182 127.81 24.354C127.442 24.6113 127.269 24.9757 127.269 25.4473C127.269 25.9189 127.442 26.2619 127.789 26.4977C128.114 26.7335 128.546 26.8622 129.066 26.8622Z" fill="#2B2D42"/>
<path d="M136.346 28.9631V12.6924H139.768V21.3744H139.964L143.906 16.744H147.828L143.256 22.0175L148.066 28.9416H144.059L140.679 24.0326L139.748 25.083V28.9631H136.346Z" fill="#2B2D42"/>
<path d="M153.005 29.1988C151.748 29.1988 150.665 28.9416 149.734 28.4271C148.824 27.9126 148.109 27.1837 147.632 26.2619C147.134 25.3187 146.896 24.204 146.896 22.9177C146.896 21.6744 147.134 20.5597 147.632 19.6165C148.13 18.6732 148.824 17.923 149.712 17.4085C150.6 16.8725 151.662 16.6152 152.875 16.6152C153.958 16.6152 154.933 16.8511 155.822 17.3012C156.688 17.7514 157.381 18.4374 157.901 19.3592C158.421 20.281 158.681 21.4172 158.681 22.8106V23.7324H150.297C150.297 24.6327 150.557 25.3616 151.055 25.8761C151.553 26.3905 152.246 26.6692 153.091 26.6692C153.655 26.6692 154.153 26.5406 154.565 26.3048C154.976 26.069 155.28 25.7046 155.453 25.2544L158.615 25.4688C158.378 26.6049 157.771 27.5052 156.796 28.1913C155.8 28.8558 154.543 29.1988 153.005 29.1988ZM150.276 21.6315H155.453C155.453 20.9027 155.215 20.3025 154.738 19.8308C154.262 19.3592 153.676 19.1234 152.918 19.1234C152.16 19.1234 151.531 19.3592 151.055 19.8523C150.579 20.3453 150.318 20.9456 150.276 21.6315Z" fill="#2B2D42"/>
<path d="M159.525 28.963V16.7653H162.84V18.8876H162.97C163.187 18.1372 163.577 17.5584 164.097 17.1725C164.617 16.7867 165.245 16.5938 165.916 16.5938C166.306 16.5938 166.653 16.6367 167 16.7224V19.7236C166.848 19.6807 166.609 19.6379 166.328 19.595C166.046 19.5521 165.786 19.5521 165.548 19.5521C164.79 19.5521 164.161 19.7879 163.685 20.2595C163.187 20.7312 162.948 21.3314 162.948 22.0817V28.963H159.525Z" fill="#2B2D42"/>
<path d="M0.209473 36.7761L16.621 6.37649L31.0931 0L14.6815 30.3996L0.209473 36.7761Z" fill="url(#paint0_linear_2763_33851)"/>
<path d="M16.5786 29.8273L29.0472 6.73633L36.1233 13.6848L23.8253 36.8393L16.5786 29.8273Z" fill="url(#paint1_linear_2763_33851)"/>
<path d="M37.509 14.3843L46.7378 17.7314L42.134 26.1628L30.9443 26.5441L37.509 14.3843Z" fill="url(#paint2_linear_2763_33851)"/>
<defs>
<linearGradient id="paint0_linear_2763_33851" x1="0.242705" y1="36.7538" x2="47.5976" y2="-0.36083" gradientUnits="userSpaceOnUse">
<stop stop-color="#48D5FF"/>
<stop offset="1" stop-color="#1FA5FF"/>
</linearGradient>
<linearGradient id="paint1_linear_2763_33851" x1="0.655304" y1="36.8559" x2="49.9841" y2="-0.372604" gradientUnits="userSpaceOnUse">
<stop stop-color="#48D5FF"/>
<stop offset="1" stop-color="#1FA5FF"/>
</linearGradient>
<linearGradient id="paint2_linear_2763_33851" x1="0.449343" y1="36.7028" x2="48.2859" y2="0.384156" gradientUnits="userSpaceOnUse">
<stop stop-color="#48D5FF"/>
<stop offset="1" stop-color="#1FA5FF"/>
</linearGradient>
</defs>
</svg>
