<svg width="19" height="20" viewBox="0 0 19 20" fill="none" xmlns="http://www.w3.org/2000/svg">
<ellipse cx="12.7762" cy="14.6124" rx="5.26154" ry="3.38158" fill="#F4C028"/>
<path fill-rule="evenodd" clip-rule="evenodd" d="M12.7761 7.43077C11.759 7.42946 10.7614 7.71079 9.89484 8.24338L9.74313 8.03088C9.80711 7.89694 9.8638 7.75965 9.91297 7.6196L11.0705 7.42668C11.2113 7.40312 11.3145 7.28125 11.3146 7.13846V5.38462C11.3145 5.24182 11.2113 5.11996 11.0705 5.0964L9.91297 4.90348C9.8638 4.76343 9.80711 4.62613 9.74313 4.4922L10.4248 3.53782C10.5078 3.42153 10.4945 3.26232 10.3935 3.16132L9.15326 1.92106C9.05226 1.82004 8.89305 1.80682 8.77677 1.88978L7.82238 2.57145C7.68842 2.50797 7.55112 2.45176 7.4111 2.40308L7.21818 1.24554C7.19526 1.10412 7.07323 1.00016 6.92997 1H5.17612C5.03333 1.00004 4.91146 1.10324 4.8879 1.24408L4.69498 2.40162C4.55493 2.45078 4.41764 2.50747 4.2837 2.57145L3.32932 1.88978C3.21304 1.80682 3.05382 1.82004 2.95283 1.92106L1.71257 3.16132C1.61155 3.26232 1.59832 3.42153 1.68129 3.53782L2.36617 4.49658C2.3027 4.62865 2.24678 4.7642 2.19867 4.9026L1.03558 5.0964C0.894746 5.11996 0.791546 5.24182 0.791504 5.38462V7.13846C0.791546 7.28125 0.894746 7.40312 1.03558 7.42668L2.19838 7.62048C2.24627 7.75959 2.30119 7.89617 2.36295 8.02971L1.68129 8.98526C1.59832 9.10154 1.61155 9.26076 1.71257 9.36175L2.95283 10.602C3.05382 10.703 3.21304 10.7163 3.32932 10.6333L4.2837 9.95163C4.41764 10.0156 4.55493 10.0723 4.69498 10.1215L4.8879 11.279C4.91146 11.4198 5.03333 11.523 5.17612 11.5231H6.92997C7.07276 11.523 7.19462 11.4198 7.21818 11.279L7.4111 10.1215C7.55115 10.0723 7.68845 10.0156 7.82238 9.95163L8.03489 10.1033C7.5023 10.9699 7.22096 11.9675 7.22227 12.9846C7.22227 16.0519 9.70881 18.5385 12.7761 18.5385C15.8434 18.5385 18.33 16.0519 18.33 12.9846C18.33 9.91731 15.8434 7.43077 12.7761 7.43077ZM7.70988 9.35328C7.50487 9.4629 7.28945 9.55181 7.0668 9.61869C6.95997 9.65061 6.8806 9.74052 6.86219 9.85049L6.68242 10.9385H5.42374L5.24251 9.85049C5.22409 9.74052 5.14473 9.65061 5.03789 9.61869C4.81525 9.55181 4.59982 9.4629 4.39482 9.35328C4.29677 9.30062 4.17732 9.30821 4.08672 9.37286L3.18934 10.0136L2.30102 9.12381L2.94176 8.22643C3.0064 8.13584 3.014 8.01639 2.96134 7.91834C2.8519 7.70813 2.7616 7.4885 2.69154 7.26211C2.65589 7.16228 2.56898 7.08957 2.46442 7.07211L1.37615 6.89088V5.6322L2.46412 5.45097C2.56868 5.43351 2.65559 5.3608 2.69125 5.26097C2.76652 5.03128 2.85905 4.80761 2.96806 4.59188C3.01354 4.49599 3.00347 4.38298 2.94176 4.29665L2.30102 3.39926L3.1908 2.50948L4.08819 3.15022C4.17878 3.21486 4.29823 3.22246 4.39628 3.1698C4.60128 3.06018 4.81671 2.97127 5.03936 2.90438C5.14619 2.87247 5.22556 2.78255 5.24397 2.67258L5.42374 1.58462H6.68242L6.86365 2.67258C6.88206 2.78255 6.96143 2.87247 7.06826 2.90438C7.29091 2.97127 7.50633 3.06018 7.71134 3.1698C7.80939 3.22246 7.92884 3.21486 8.01943 3.15022L8.91682 2.50948L9.8066 3.39926L9.16586 4.29665C9.10121 4.38724 9.09362 4.50669 9.14628 4.60474C9.2559 4.80974 9.34481 5.02517 9.41169 5.24782C9.44361 5.35465 9.53353 5.43402 9.64349 5.45243L10.7315 5.63366V6.89234L9.64349 7.07357C9.53353 7.09198 9.44361 7.17135 9.41169 7.27818C9.34481 7.50083 9.2559 7.71625 9.14628 7.92126C9.09362 8.01931 9.10121 8.13876 9.16586 8.22935L9.8066 9.12674L8.91682 10.0165L8.01943 9.37578C7.92908 9.3096 7.80885 9.30085 7.70988 9.35328ZM13.0684 17.0769V17.9389C15.5783 17.7888 17.5803 15.7869 17.7304 13.2769H16.8684V12.6923H17.7304C17.5803 10.1824 15.5783 8.18042 13.0684 8.03029V8.89231H12.4838V8.0262C11.689 8.07105 10.9171 8.30904 10.2351 8.71955L10.4248 8.98526C10.5077 9.10154 10.4945 9.26076 10.3935 9.36175L9.15322 10.602C9.05222 10.703 8.89301 10.7163 8.77673 10.6333L8.51102 10.4436C8.10051 11.1256 7.86251 11.8975 7.81767 12.6923H8.68377V13.2769H7.82176C7.97189 15.7869 9.97383 17.7888 12.4838 17.9389V17.0769H13.0684Z" fill="#161014"/>
<path d="M9.89484 8.24338L9.77276 8.33054L9.8541 8.44449L9.97338 8.37118L9.89484 8.24338ZM12.7761 7.43077L12.7759 7.58077H12.7761V7.43077ZM9.74313 8.03088L9.60778 7.96622L9.56966 8.04604L9.62105 8.11803L9.74313 8.03088ZM9.91297 7.6196L9.88831 7.47164L9.80081 7.48622L9.77143 7.56992L9.91297 7.6196ZM11.0705 7.42668L11.0952 7.57464L11.0953 7.57462L11.0705 7.42668ZM11.3146 7.13846L11.4646 7.1385V7.13846H11.3146ZM11.3146 5.38462H11.4646V5.38457L11.3146 5.38462ZM11.0705 5.0964L11.0953 4.94846L11.0952 4.94844L11.0705 5.0964ZM9.91297 4.90348L9.77143 4.95316L9.80081 5.03685L9.88831 5.05144L9.91297 4.90348ZM9.74313 4.4922L9.62107 4.40502L9.56965 4.47702L9.60778 4.55685L9.74313 4.4922ZM10.4248 3.53782L10.5469 3.625L10.5469 3.62494L10.4248 3.53782ZM10.3935 3.16132L10.2875 3.26739L10.2875 3.2674L10.3935 3.16132ZM9.15326 1.92106L9.04718 2.02712L9.04719 2.02713L9.15326 1.92106ZM8.77677 1.88978L8.68964 1.76768L8.68958 1.76772L8.77677 1.88978ZM7.82238 2.57145L7.75815 2.707L7.83782 2.74475L7.90956 2.69351L7.82238 2.57145ZM7.4111 2.40308L7.26314 2.42774L7.27778 2.51553L7.36184 2.54476L7.4111 2.40308ZM7.21818 1.24554L7.07011 1.26954L7.07022 1.2702L7.21818 1.24554ZM6.92997 1L6.93013 0.85H6.92997V1ZM5.17612 1V0.85H5.17608L5.17612 1ZM4.8879 1.24408L4.73996 1.21933L4.73994 1.21942L4.8879 1.24408ZM4.69498 2.40162L4.74466 2.54315L4.82836 2.51377L4.84294 2.42628L4.69498 2.40162ZM4.2837 2.57145L4.19652 2.69351L4.26852 2.74493L4.34836 2.7068L4.2837 2.57145ZM3.32932 1.88978L3.4165 1.76772L3.41644 1.76768L3.32932 1.88978ZM2.95283 1.92106L3.05889 2.02713L3.0589 2.02712L2.95283 1.92106ZM1.71257 3.16132L1.81862 3.2674L1.81863 3.26739L1.71257 3.16132ZM1.68129 3.53782L1.55918 3.62494L1.55923 3.625L1.68129 3.53782ZM2.36617 4.49658L2.50136 4.56156L2.53979 4.48159L2.48822 4.4094L2.36617 4.49658ZM2.19867 4.9026L2.22333 5.05056L2.31113 5.03593L2.34036 4.95185L2.19867 4.9026ZM1.03558 5.0964L1.01093 4.94844L1.01083 4.94846L1.03558 5.0964ZM0.791504 5.38462L0.641504 5.38457V5.38462H0.791504ZM0.791504 7.13846H0.641504V7.1385L0.791504 7.13846ZM1.03558 7.42668L1.01083 7.57462L1.01092 7.57464L1.03558 7.42668ZM2.19838 7.62048L2.34021 7.57165L2.31114 7.4872L2.22304 7.47252L2.19838 7.62048ZM2.36295 8.02971L2.48506 8.11682L2.53568 8.04586L2.49909 7.96674L2.36295 8.02971ZM1.68129 8.98526L1.80339 9.07238L1.8034 9.07237L1.68129 8.98526ZM1.71257 9.36175L1.81863 9.25569L1.81862 9.25568L1.71257 9.36175ZM2.95283 10.602L3.0589 10.496L3.05889 10.4959L2.95283 10.602ZM3.32932 10.6333L3.41644 10.7554L3.4165 10.7554L3.32932 10.6333ZM4.2837 9.95163L4.34836 9.81628L4.26852 9.77814L4.19652 9.82957L4.2837 9.95163ZM4.69498 10.1215L4.84294 10.0968L4.82836 10.0093L4.74466 9.97993L4.69498 10.1215ZM4.8879 11.279L4.73994 11.3037L4.73996 11.3037L4.8879 11.279ZM5.17612 11.5231L5.17608 11.6731H5.17612V11.5231ZM6.92997 11.5231V11.6731H6.93001L6.92997 11.5231ZM7.21818 11.279L7.36612 11.3037L7.36614 11.3037L7.21818 11.279ZM7.4111 10.1215L7.36142 9.97993L7.27773 10.0093L7.26314 10.0968L7.4111 10.1215ZM7.82238 9.95163L7.90953 9.82955L7.83754 9.77815L7.75773 9.81628L7.82238 9.95163ZM8.03489 10.1033L8.16268 10.1819L8.23599 10.0626L8.12204 9.98126L8.03489 10.1033ZM7.22227 12.9846H7.37227V12.9844L7.22227 12.9846ZM7.0668 9.61869L7.10974 9.76241L7.10995 9.76235L7.0668 9.61869ZM7.70988 9.35328L7.63967 9.22072L7.63915 9.221L7.70988 9.35328ZM6.86219 9.85049L6.71424 9.82572L6.71419 9.82604L6.86219 9.85049ZM6.68242 10.9385V11.0885H6.80967L6.83041 10.9629L6.68242 10.9385ZM5.42374 10.9385L5.27578 10.9631L5.29666 11.0885H5.42374V10.9385ZM5.24251 9.85049L5.39047 9.82584L5.39045 9.82572L5.24251 9.85049ZM5.03789 9.61869L4.99474 9.76235L4.99495 9.76241L5.03789 9.61869ZM4.39482 9.35328L4.32385 9.48543L4.32408 9.48555L4.39482 9.35328ZM4.08672 9.37286L3.99959 9.25076L3.99956 9.25078L4.08672 9.37286ZM3.18934 10.0136L3.08319 10.1196L3.17302 10.2096L3.2765 10.1357L3.18934 10.0136ZM2.30102 9.12381L2.17894 9.03665L2.10518 9.13996L2.19486 9.22979L2.30102 9.12381ZM2.94176 8.22643L3.06383 8.31359L3.06385 8.31356L2.94176 8.22643ZM2.96134 7.91834L2.82828 7.98761L2.82919 7.98931L2.96134 7.91834ZM2.69154 7.26211L2.83497 7.21772L2.8328 7.21166L2.69154 7.26211ZM2.46442 7.07211L2.48913 6.92416L2.48906 6.92415L2.46442 7.07211ZM1.37615 6.89088H1.22615V7.01796L1.35151 7.03884L1.37615 6.89088ZM1.37615 5.6322L1.35151 5.48424L1.22615 5.50512V5.6322H1.37615ZM2.46412 5.45097L2.48877 5.59893L2.48884 5.59892L2.46412 5.45097ZM2.69125 5.26097L2.83256 5.31144L2.83379 5.30768L2.69125 5.26097ZM2.96806 4.59188L3.10198 4.65955L3.10359 4.65615L2.96806 4.59188ZM2.94176 4.29665L2.81968 4.38381L2.81972 4.38387L2.94176 4.29665ZM2.30102 3.39926L2.19495 3.2932L2.10512 3.38303L2.17894 3.48642L2.30102 3.39926ZM3.1908 2.50948L3.27796 2.3874L3.17457 2.31358L3.08474 2.40341L3.1908 2.50948ZM4.08819 3.15022L4.00102 3.27229L4.00105 3.27231L4.08819 3.15022ZM4.39628 3.1698L4.32555 3.03752L4.32531 3.03765L4.39628 3.1698ZM5.03936 2.90438L4.99641 2.76066L4.9962 2.76073L5.03936 2.90438ZM5.24397 2.67258L5.39191 2.69736L5.39196 2.69704L5.24397 2.67258ZM5.42374 1.58462V1.43462H5.29649L5.27575 1.56016L5.42374 1.58462ZM6.68242 1.58462L6.83038 1.55997L6.8095 1.43462H6.68242V1.58462ZM6.86365 2.67258L6.71569 2.69723L6.71571 2.69736L6.86365 2.67258ZM7.06826 2.90438L7.11142 2.76073L7.1112 2.76066L7.06826 2.90438ZM7.71134 3.1698L7.78231 3.03765L7.78207 3.03752L7.71134 3.1698ZM8.01943 3.15022L8.10656 3.27231L8.1066 3.27229L8.01943 3.15022ZM8.91682 2.50948L9.02288 2.40341L8.93305 2.31358L8.82965 2.3874L8.91682 2.50948ZM9.8066 3.39926L9.92868 3.48642L10.0025 3.38303L9.91267 3.2932L9.8066 3.39926ZM9.16586 4.29665L9.04379 4.20948L9.04376 4.20951L9.16586 4.29665ZM9.14628 4.60474L9.27855 4.53401L9.27843 4.53377L9.14628 4.60474ZM9.41169 5.24782L9.55542 5.20487L9.55535 5.20466L9.41169 5.24782ZM9.64349 5.45243L9.61872 5.60037L9.61885 5.60039L9.64349 5.45243ZM10.7315 5.63366H10.8815V5.50658L10.7561 5.4857L10.7315 5.63366ZM10.7315 6.89234L10.7561 7.0403L10.8815 7.01942V6.89234H10.7315ZM9.64349 7.07357L9.61885 6.92561L9.61872 6.92563L9.64349 7.07357ZM9.41169 7.27818L9.55535 7.32134L9.55542 7.32112L9.41169 7.27818ZM9.14628 7.92126L9.27843 7.99223L9.27855 7.99199L9.14628 7.92126ZM9.16586 8.22935L9.04376 8.31648L9.04379 8.31652L9.16586 8.22935ZM9.8066 9.12674L9.91267 9.2328L10.0025 9.14297L9.92868 9.03957L9.8066 9.12674ZM8.91682 10.0165L8.82965 10.1386L8.93305 10.2124L9.02288 10.1226L8.91682 10.0165ZM8.01943 9.37578L7.93078 9.4968L7.93227 9.49786L8.01943 9.37578ZM13.0684 17.9389H12.9184V18.0982L13.0773 18.0887L13.0684 17.9389ZM13.0684 17.0769H13.2184V16.9269H13.0684V17.0769ZM17.7304 13.2769L17.8801 13.2859L17.8896 13.1269H17.7304V13.2769ZM16.8684 13.2769H16.7184V13.4269H16.8684V13.2769ZM16.8684 12.6923V12.5423H16.7184V12.6923H16.8684ZM17.7304 12.6923V12.8423H17.8896L17.8801 12.6834L17.7304 12.6923ZM13.0684 8.03029L13.0773 7.88056L12.9184 7.87105V8.03029H13.0684ZM13.0684 8.89231V9.04231H13.2184V8.89231H13.0684ZM12.4838 8.89231H12.3338V9.04231H12.4838V8.89231ZM12.4838 8.0262H12.6338V7.8675L12.4753 7.87644L12.4838 8.0262ZM10.2351 8.71955L10.1577 8.59104L10.0187 8.67469L10.113 8.80671L10.2351 8.71955ZM10.4248 8.98526L10.5469 8.89814L10.5468 8.8981L10.4248 8.98526ZM10.3935 9.36175L10.2874 9.25568L10.2874 9.25569L10.3935 9.36175ZM9.15322 10.602L9.04715 10.4959L9.04714 10.496L9.15322 10.602ZM8.77673 10.6333L8.68957 10.7554L8.6896 10.7554L8.77673 10.6333ZM8.51102 10.4436L8.59818 10.3215L8.46616 10.2272L8.3825 10.3662L8.51102 10.4436ZM7.81767 12.6923L7.6679 12.6839L7.65896 12.8423H7.81767V12.6923ZM8.68377 12.6923H8.83377V12.5423H8.68377V12.6923ZM8.68377 13.2769V13.4269H8.83377V13.2769H8.68377ZM7.82176 13.2769V13.1269H7.66252L7.67202 13.2859L7.82176 13.2769ZM12.4838 17.9389L12.4748 18.0887L12.6338 18.0982V17.9389H12.4838ZM12.4838 17.0769V16.9269H12.3338V17.0769H12.4838ZM9.97338 8.37118C10.8163 7.85314 11.7866 7.57949 12.7759 7.58077L12.7763 7.28077C11.7314 7.27942 10.7066 7.56844 9.8163 8.11559L9.97338 8.37118ZM9.62105 8.11803L9.77276 8.33054L10.0169 8.15623L9.86522 7.94372L9.62105 8.11803ZM9.77143 7.56992C9.72406 7.70487 9.66943 7.83716 9.60778 7.96622L9.87849 8.09553C9.94479 7.95672 10.0035 7.81443 10.0545 7.66928L9.77143 7.56992ZM11.0458 7.27872L9.88831 7.47164L9.93763 7.76756L11.0952 7.57464L11.0458 7.27872ZM11.1646 7.13842C11.1646 7.20793 11.1143 7.26726 11.0458 7.27873L11.0953 7.57462C11.3084 7.53897 11.4645 7.35457 11.4646 7.1385L11.1646 7.13842ZM11.1646 5.38462V7.13846H11.4646V5.38462H11.1646ZM11.0458 5.24434C11.1143 5.25581 11.1646 5.31514 11.1646 5.38466L11.4646 5.38457C11.4645 5.16851 11.3084 4.98411 11.0953 4.94846L11.0458 5.24434ZM9.88831 5.05144L11.0458 5.24436L11.0952 4.94844L9.93763 4.75552L9.88831 5.05144ZM9.60778 4.55685C9.66943 4.68591 9.72406 4.81821 9.77143 4.95316L10.0545 4.85379C10.0035 4.70865 9.94479 4.56636 9.87849 4.42755L9.60778 4.55685ZM10.3027 3.45063L9.62107 4.40502L9.8652 4.57938L10.5469 3.625L10.3027 3.45063ZM10.2875 3.2674C10.3366 3.31657 10.3431 3.39408 10.3027 3.45069L10.5469 3.62494C10.6724 3.44899 10.6524 3.20807 10.4996 3.05525L10.2875 3.2674ZM9.04719 2.02713L10.2875 3.26739L10.4996 3.05526L9.25932 1.815L9.04719 2.02713ZM8.86389 2.01189C8.9205 1.9715 8.99801 1.97794 9.04718 2.02712L9.25933 1.81501C9.10651 1.66215 8.86559 1.64214 8.68964 1.76768L8.86389 2.01189ZM7.90956 2.69351L8.86395 2.01185L8.68958 1.76772L7.7352 2.44938L7.90956 2.69351ZM7.36184 2.54476C7.49677 2.59167 7.62906 2.64583 7.75815 2.707L7.88661 2.43589C7.74777 2.37011 7.60548 2.31185 7.46037 2.2614L7.36184 2.54476ZM7.07022 1.2702L7.26314 2.42774L7.55906 2.37842L7.36614 1.22088L7.07022 1.2702ZM6.9298 1.15C6.99954 1.15008 7.05895 1.20069 7.07011 1.26954L7.36625 1.22154C7.33156 1.00755 7.14691 0.850242 6.93013 0.85L6.9298 1.15ZM5.17612 1.15H6.92997V0.85H5.17612V1.15ZM5.03585 1.26883C5.04732 1.20026 5.10665 1.15002 5.17616 1.15L5.17608 0.85C4.96001 0.850063 4.77561 1.00622 4.73996 1.21933L5.03585 1.26883ZM4.84294 2.42628L5.03586 1.26874L4.73994 1.21942L4.54702 2.37696L4.84294 2.42628ZM4.34836 2.7068C4.47742 2.64515 4.60971 2.59052 4.74466 2.54315L4.6453 2.26008C4.50015 2.31104 4.35786 2.36979 4.21905 2.43609L4.34836 2.7068ZM3.24214 2.01185L4.19652 2.69351L4.37089 2.44938L3.4165 1.76772L3.24214 2.01185ZM3.0589 2.02712C3.10807 1.97794 3.18559 1.9715 3.2422 2.01189L3.41644 1.76768C3.24049 1.64214 2.99957 1.66215 2.84675 1.81501L3.0589 2.02712ZM1.81863 3.26739L3.05889 2.02713L2.84676 1.815L1.6065 3.05526L1.81863 3.26739ZM1.80339 3.45069C1.763 3.39408 1.76944 3.31657 1.81862 3.2674L1.60651 3.05525C1.45365 3.20807 1.43364 3.44899 1.55918 3.62494L1.80339 3.45069ZM2.48822 4.4094L1.80335 3.45063L1.55923 3.625L2.24411 4.58377L2.48822 4.4094ZM2.34036 4.95185C2.3866 4.81881 2.44036 4.6885 2.50136 4.56156L2.23097 4.43161C2.16505 4.56879 2.10696 4.70959 2.05699 4.85335L2.34036 4.95185ZM1.06023 5.24436L2.22333 5.05056L2.17402 4.75464L1.01093 4.94844L1.06023 5.24436ZM0.941504 5.38466C0.941524 5.31514 0.991767 5.25581 1.06033 5.24434L1.01083 4.94846C0.797726 4.98411 0.641567 5.16851 0.641504 5.38457L0.941504 5.38466ZM0.941504 7.13846V5.38462H0.641504V7.13846H0.941504ZM1.06033 7.27873C0.991767 7.26726 0.941524 7.20793 0.941504 7.13842L0.641504 7.1385C0.641567 7.35457 0.797726 7.53897 1.01083 7.57462L1.06033 7.27873ZM2.22304 7.47252L1.06024 7.27872L1.01092 7.57464L2.17372 7.76844L2.22304 7.47252ZM2.49909 7.96674C2.43947 7.83783 2.38644 7.70596 2.34021 7.57165L2.05655 7.6693C2.10609 7.81322 2.16291 7.95452 2.2268 8.09267L2.49909 7.96674ZM1.8034 9.07237L2.48506 8.11682L2.24084 7.9426L1.55918 8.89815L1.8034 9.07237ZM1.81862 9.25568C1.76944 9.20651 1.763 9.129 1.80339 9.07238L1.55918 8.89814C1.43364 9.07409 1.45365 9.31501 1.60651 9.46783L1.81862 9.25568ZM3.05889 10.4959L1.81863 9.25569L1.6065 9.46782L2.84676 10.7081L3.05889 10.4959ZM3.2422 10.5112C3.18559 10.5516 3.10807 10.5451 3.0589 10.496L2.84675 10.7081C2.99957 10.8609 3.24049 10.8809 3.41644 10.7554L3.2422 10.5112ZM4.19652 9.82957L3.24214 10.5112L3.4165 10.7554L4.37089 10.0737L4.19652 9.82957ZM4.74466 9.97993C4.60971 9.93255 4.47742 9.87793 4.34836 9.81628L4.21905 10.087C4.35786 10.1533 4.50015 10.212 4.6453 10.263L4.74466 9.97993ZM5.03586 11.2543L4.84294 10.0968L4.54702 10.1461L4.73994 11.3037L5.03586 11.2543ZM5.17616 11.3731C5.10665 11.3731 5.04732 11.3228 5.03585 11.2542L4.73996 11.3037C4.77561 11.5169 4.96001 11.673 5.17608 11.6731L5.17616 11.3731ZM6.92997 11.3731H5.17612V11.6731H6.92997V11.3731ZM7.07024 11.2542C7.05877 11.3228 6.99944 11.3731 6.92992 11.3731L6.93001 11.6731C7.14607 11.673 7.33047 11.5169 7.36612 11.3037L7.07024 11.2542ZM7.26314 10.0968L7.07022 11.2543L7.36614 11.3037L7.55906 10.1461L7.26314 10.0968ZM7.75773 9.81628C7.62867 9.87793 7.49637 9.93255 7.36142 9.97993L7.46079 10.263C7.60593 10.212 7.74822 10.1533 7.88703 10.087L7.75773 9.81628ZM8.12204 9.98126L7.90953 9.82955L7.73523 10.0737L7.94773 10.2254L8.12204 9.98126ZM7.37227 12.9844C7.371 11.9951 7.64464 11.0248 8.16268 10.1819L7.90709 10.0248C7.35995 10.9151 7.07092 11.9398 7.07227 12.9848L7.37227 12.9844ZM12.7761 18.3885C9.79166 18.3885 7.37227 15.9691 7.37227 12.9846H7.07227C7.07227 16.1348 9.62597 18.6885 12.7761 18.6885V18.3885ZM18.18 12.9846C18.18 15.9691 15.7606 18.3885 12.7761 18.3885V18.6885C15.9263 18.6885 18.48 16.1348 18.48 12.9846H18.18ZM12.7761 7.58077C15.7606 7.58077 18.18 10.0002 18.18 12.9846H18.48C18.48 9.83447 15.9263 7.28077 12.7761 7.28077V7.58077ZM7.10995 9.76235C7.34215 9.6926 7.56681 9.59988 7.78061 9.48555L7.63915 9.221C7.44293 9.32592 7.23675 9.41102 7.02365 9.47503L7.10995 9.76235ZM7.01013 9.87526C7.01909 9.82173 7.05773 9.77795 7.10974 9.76241L7.02386 9.47497C6.86221 9.52327 6.74211 9.65932 6.71425 9.82572L7.01013 9.87526ZM6.83041 10.9629L7.01018 9.87494L6.71419 9.82604L6.53442 10.914L6.83041 10.9629ZM5.42374 11.0885H6.68242V10.7885H5.42374V11.0885ZM5.09455 9.87514L5.27578 10.9631L5.5717 10.9138L5.39047 9.82584L5.09455 9.87514ZM4.99495 9.76241C5.04696 9.77795 5.0856 9.82173 5.09457 9.87526L5.39045 9.82572C5.36259 9.65932 5.24249 9.52327 5.08083 9.47497L4.99495 9.76241ZM4.32408 9.48555C4.53788 9.59988 4.76254 9.6926 4.99474 9.76235L5.08105 9.47503C4.86795 9.41102 4.66176 9.32592 4.46555 9.221L4.32408 9.48555ZM4.17385 9.49496C4.21796 9.46349 4.27611 9.45979 4.32385 9.48542L4.46579 9.22113C4.31742 9.14145 4.13668 9.15294 3.99959 9.25076L4.17385 9.49496ZM3.2765 10.1357L4.17389 9.49494L3.99956 9.25078L3.10218 9.89152L3.2765 10.1357ZM2.19486 9.22979L3.08319 10.1196L3.29549 9.90762L2.40717 9.01784L2.19486 9.22979ZM2.81968 8.13927L2.17894 9.03665L2.42309 9.21098L3.06383 8.31359L2.81968 8.13927ZM2.82919 7.98931C2.85483 8.03704 2.85113 8.09519 2.81966 8.1393L3.06385 8.31356C3.16168 8.17648 3.17317 7.99574 3.09349 7.84737L2.82919 7.98931ZM2.54824 7.30645C2.62097 7.54145 2.7147 7.76942 2.82829 7.98761L3.09439 7.84907C2.98911 7.64685 2.90224 7.43556 2.83483 7.21776L2.54824 7.30645ZM2.43971 7.22006C2.49061 7.22856 2.53292 7.26396 2.55028 7.31256L2.8328 7.21166C2.77885 7.0606 2.64734 6.95058 2.48913 6.92416L2.43971 7.22006ZM1.35151 7.03884L2.43978 7.22007L2.48906 6.92415L1.4008 6.74291L1.35151 7.03884ZM1.22615 5.6322V6.89088H1.52615V5.6322H1.22615ZM2.43948 5.30301L1.35151 5.48424L1.4008 5.78016L2.48877 5.59893L2.43948 5.30301ZM2.54999 5.21052C2.53263 5.25912 2.49032 5.29452 2.43941 5.30302L2.48884 5.59892C2.64705 5.57249 2.77856 5.46248 2.83251 5.31142L2.54999 5.21052ZM2.83418 4.52423C2.72176 4.74671 2.62633 4.97738 2.54871 5.21426L2.83379 5.30768C2.9067 5.08518 2.99635 4.86851 3.10194 4.65952L2.83418 4.52423ZM2.81972 4.38387C2.84977 4.4259 2.85467 4.48092 2.83253 4.5276L3.10359 4.65615C3.1724 4.51106 3.15717 4.34006 3.06379 4.20942L2.81972 4.38387ZM2.17894 3.48642L2.81968 4.38381L3.06383 4.20948L2.42309 3.3121L2.17894 3.48642ZM3.08474 2.40341L2.19495 3.2932L2.40708 3.50533L3.29687 2.61554L3.08474 2.40341ZM4.17535 3.02814L3.27796 2.3874L3.10364 2.63155L4.00102 3.27229L4.17535 3.02814ZM4.32531 3.03765C4.27757 3.06329 4.21942 3.05959 4.17532 3.02812L4.00105 3.27231C4.13814 3.37014 4.31888 3.38163 4.46725 3.30195L4.32531 3.03765ZM4.9962 2.76073C4.76401 2.83048 4.53934 2.9232 4.32555 3.03752L4.46701 3.30208C4.66322 3.19715 4.86941 3.11206 5.08251 3.04804L4.9962 2.76073ZM5.09603 2.64781C5.08707 2.70135 5.04843 2.74512 4.99642 2.76066L5.0823 3.04811C5.24395 2.99981 5.36405 2.86375 5.39191 2.69736L5.09603 2.64781ZM5.27575 1.56016L5.09598 2.64813L5.39196 2.69704L5.57173 1.60907L5.27575 1.56016ZM6.68242 1.43462H5.42374V1.73462H6.68242V1.43462ZM7.01161 2.64794L6.83038 1.55997L6.53446 1.60926L6.71569 2.69723L7.01161 2.64794ZM7.1112 2.76066C7.05919 2.74512 7.02055 2.70135 7.01159 2.64781L6.71571 2.69736C6.74357 2.86375 6.86367 2.99981 7.02532 3.04811L7.1112 2.76066ZM7.78207 3.03752C7.56827 2.9232 7.34361 2.83048 7.11142 2.76073L7.02511 3.04804C7.23821 3.11206 7.44439 3.19715 7.64061 3.30208L7.78207 3.03752ZM7.9323 3.02812C7.8882 3.05959 7.83004 3.06329 7.78231 3.03765L7.64037 3.30195C7.78874 3.38163 7.96948 3.37014 8.10656 3.27231L7.9323 3.02812ZM8.82965 2.3874L7.93227 3.02814L8.1066 3.27229L9.00398 2.63155L8.82965 2.3874ZM9.91267 3.2932L9.02288 2.40341L8.81075 2.61554L9.70053 3.50533L9.91267 3.2932ZM9.28794 4.38381L9.92868 3.48642L9.68452 3.3121L9.04379 4.20948L9.28794 4.38381ZM9.27843 4.53377C9.25279 4.48603 9.25649 4.42788 9.28796 4.38378L9.04376 4.20951C8.94594 4.3466 8.93445 4.52734 9.01413 4.67571L9.27843 4.53377ZM9.55535 5.20466C9.4856 4.97247 9.39288 4.7478 9.27855 4.53401L9.014 4.67547C9.11892 4.87168 9.20402 5.07787 9.26803 5.29097L9.55535 5.20466ZM9.66827 5.30449C9.61473 5.29553 9.57096 5.25689 9.55542 5.20487L9.26797 5.29076C9.31627 5.45241 9.45232 5.57251 9.61872 5.60037L9.66827 5.30449ZM10.7561 5.4857L9.66814 5.30447L9.61885 5.60039L10.7068 5.78162L10.7561 5.4857ZM10.8815 6.89234V5.63366H10.5815V6.89234H10.8815ZM9.66814 7.22153L10.7561 7.0403L10.7068 6.74438L9.61885 6.92561L9.66814 7.22153ZM9.55542 7.32112C9.57096 7.26911 9.61473 7.23047 9.66827 7.22151L9.61872 6.92563C9.45232 6.95349 9.31627 7.07359 9.26797 7.23524L9.55542 7.32112ZM9.27855 7.99199C9.39288 7.77819 9.4856 7.55353 9.55535 7.32134L9.26803 7.23503C9.20402 7.44813 9.11892 7.65431 9.014 7.85053L9.27855 7.99199ZM9.28796 8.14222C9.25649 8.09812 9.25279 8.03997 9.27843 7.99223L9.01413 7.85029C8.93445 7.99866 8.94594 8.1794 9.04376 8.31648L9.28796 8.14222ZM9.92868 9.03957L9.28794 8.14219L9.04379 8.31652L9.68452 9.2139L9.92868 9.03957ZM9.02288 10.1226L9.91267 9.2328L9.70053 9.02067L8.81075 9.91046L9.02288 10.1226ZM7.93227 9.49786L8.82965 10.1386L9.00398 9.89445L8.1066 9.25371L7.93227 9.49786ZM7.78009 9.48583C7.82827 9.46031 7.8868 9.46457 7.93079 9.49679L8.10807 9.25478C7.97136 9.15463 7.78944 9.1414 7.63967 9.22072L7.78009 9.48583ZM13.2184 17.9389V17.0769H12.9184V17.9389H13.2184ZM17.5807 13.268C17.4351 15.7021 15.4936 17.6436 13.0594 17.7892L13.0773 18.0887C15.6631 17.934 17.7255 15.8716 17.8801 13.2859L17.5807 13.268ZM16.8684 13.4269H17.7304V13.1269H16.8684V13.4269ZM16.7184 12.6923V13.2769H17.0184V12.6923H16.7184ZM17.7304 12.5423H16.8684V12.8423H17.7304V12.5423ZM13.0594 8.18003C15.4936 8.32562 17.4351 10.2671 17.5807 12.7013L17.8801 12.6834C17.7255 10.0976 15.6631 8.03523 13.0773 7.88056L13.0594 8.18003ZM13.2184 8.89231V8.03029H12.9184V8.89231H13.2184ZM12.4838 9.04231H13.0684V8.74231H12.4838V9.04231ZM12.3338 8.0262V8.89231H12.6338V8.0262H12.3338ZM10.3124 8.84807C10.9736 8.45014 11.7218 8.21944 12.4922 8.17596L12.4753 7.87644C11.6562 7.92266 10.8606 8.16795 10.1577 8.59104L10.3124 8.84807ZM10.5468 8.8981L10.3571 8.63239L10.113 8.80671L10.3027 9.07242L10.5468 8.8981ZM10.4995 9.46783C10.6524 9.31501 10.6724 9.07409 10.5469 8.89814L10.3027 9.07238C10.343 9.129 10.3366 9.20651 10.2874 9.25568L10.4995 9.46783ZM9.25928 10.7081L10.4995 9.46782L10.2874 9.25569L9.04715 10.4959L9.25928 10.7081ZM8.6896 10.7554C8.86556 10.8809 9.10647 10.8609 9.2593 10.7081L9.04714 10.496C8.99797 10.5451 8.92046 10.5516 8.86385 10.5112L8.6896 10.7554ZM8.42386 10.5657L8.68957 10.7554L8.86389 10.5112L8.59818 10.3215L8.42386 10.5657ZM7.96743 12.7008C8.0109 11.9303 8.2416 11.1821 8.63954 10.5209L8.3825 10.3662C7.95941 11.0692 7.71413 11.8647 7.6679 12.6839L7.96743 12.7008ZM8.68377 12.5423H7.81767V12.8423H8.68377V12.5423ZM8.83377 13.2769V12.6923H8.53377V13.2769H8.83377ZM7.82176 13.4269H8.68377V13.1269H7.82176V13.4269ZM12.4927 17.7892C10.0586 17.6436 8.11709 15.7021 7.97149 13.268L7.67202 13.2859C7.82669 15.8716 9.88908 17.934 12.4748 18.0887L12.4927 17.7892ZM12.3338 17.0769V17.9389H12.6338V17.0769H12.3338ZM13.0684 16.9269H12.4838V17.2269H13.0684V16.9269Z" fill="#161014"/>
<path d="M13.0685 9.47693H12.4839V12.9846C12.4839 13.1461 12.6148 13.2769 12.7762 13.2769H15.1147V12.6923H13.0685V9.47693Z" fill="#161014" stroke="#161014" stroke-width="0.1"/>
<path fill-rule="evenodd" clip-rule="evenodd" d="M6.199 5.67689C6.16015 5.13045 5.41953 4.99393 5.1884 5.4906L4.59131 6.77366H6.05285C6.05285 7.26787 6.72865 7.40975 6.9274 6.95728L7.48983 5.67689H6.199Z" fill="#F4C028"/>
<path fill-rule="evenodd" clip-rule="evenodd" d="M6.34539 5.38463H7.51462C7.614 5.38466 7.70656 5.43518 7.76034 5.51875C7.81413 5.60232 7.82176 5.70749 7.78062 5.79795L6.31908 9.01334C6.27165 9.11763 6.16766 9.1846 6.05308 9.18463C6.03226 9.18464 6.01149 9.18249 5.99111 9.1782C5.8566 9.14902 5.76067 9.02996 5.76077 8.89232V7.13847H4.59154C4.49216 7.13845 4.3996 7.08793 4.34582 7.00436C4.29204 6.92079 4.2844 6.81562 4.32554 6.72515L5.78708 3.50977C5.84409 3.38463 5.98061 3.31616 6.115 3.34529C6.24939 3.37442 6.34531 3.49327 6.34539 3.63078V5.38463ZM6.34534 6.84617V7.54274L7.06061 5.96924H6.05303C5.89159 5.96924 5.76072 5.83837 5.76072 5.67694V4.98037L5.04544 6.55386H6.05303C6.21447 6.55386 6.34534 6.68473 6.34534 6.84617Z" fill="#161014"/>
<rect x="5.76074" y="2.16925" width="0.584616" height="0.584615" fill="#161014"/>
<path d="M2.95264 3.57465L3.36602 3.16126L3.77941 3.57465L3.36602 3.98803L2.95264 3.57465Z" fill="#161014"/>
<rect x="1.96094" y="5.96924" width="0.584615" height="0.584616" fill="#161014"/>
<path d="M2.95264 8.94824L3.36602 8.53486L3.77941 8.94824L3.36602 9.36163L2.95264 8.94824Z" fill="#161014"/>
<rect x="5.76074" y="9.76923" width="0.584616" height="0.584616" fill="#161014"/>
<path d="M8.32666 8.94843L8.74005 8.53504L9.15343 8.94843L8.74005 9.36181L8.32666 8.94843Z" fill="#161014"/>
<rect x="9.56055" y="5.96924" width="0.584616" height="0.584616" fill="#161014"/>
<path d="M8.32666 3.57483L8.74005 3.16144L9.15343 3.57483L8.74005 3.98821L8.32666 3.57483Z" fill="#161014"/>
</svg>
