<svg width="20" height="21" viewBox="0 0 20 21" fill="none" xmlns="http://www.w3.org/2000/svg">
<path fill-rule="evenodd" clip-rule="evenodd" d="M4.0415 14.6842C4.0415 14.6842 6.20693 13.3468 9.13563 14.6842C10.5622 15.3357 12.9791 14.5573 14.5221 12.3158C15.0908 11.4895 15.3198 9.23071 15.3198 9.23071C15.3198 9.23071 17.3801 14.5597 14.8584 17.122C12.3367 19.6842 6.5012 17.7124 6.5012 17.7124C6.5012 17.7124 5.18884 16.77 4.72016 16.193C4.25147 15.616 4.0415 14.6842 4.0415 14.6842Z" fill="#F19A63"/>
<path fill-rule="evenodd" clip-rule="evenodd" d="M12.9086 4.75212C12.9086 4.96657 12.8465 5.16514 12.7453 5.33716C14.9761 6.8256 16.6271 10.0741 16.6271 13.0645C16.6271 16.6608 14.1063 18.8947 10.0482 18.8947C5.99012 18.8947 3.46924 16.6608 3.46924 13.0645C3.46924 10.0744 5.12027 6.8256 7.3511 5.33745C7.24984 5.16514 7.18777 4.96657 7.18777 4.75212C7.18777 4.30014 7.44864 3.91222 7.8245 3.72289L6.82793 2.51615C6.69121 2.35048 6.61569 2.14036 6.61569 1.92447C6.61569 1.41475 7.02673 1 7.53159 1H7.73955C8.1749 1 8.58594 1.1625 8.90402 1.45949C9.22267 1.16221 9.63114 1 10.0482 1C10.4712 1 10.8857 1.16683 11.1926 1.4592C11.511 1.16221 11.9218 1 12.3568 1H12.3857C12.9893 1 13.4807 1.49557 13.4807 2.10514C13.4807 2.40012 13.3668 2.67749 13.16 2.88616L12.3102 3.74367C12.6649 3.93993 12.9086 4.31601 12.9086 4.75212ZM7.53156 1.57725C7.34191 1.57725 7.18774 1.73311 7.18774 1.92446C7.18774 2.00528 7.21605 2.08436 7.26783 2.1467L8.46605 3.59762H8.76754L8.35221 2.5502L8.88339 2.33575L9.38367 3.59762H9.76211V2.1545H10.3342V3.59762H10.7126L11.2126 2.33604L11.7438 2.55049L11.3288 3.59762H11.646L12.7555 2.47833C12.8542 2.37876 12.9086 2.24599 12.9086 2.10514C12.9086 1.81392 12.674 1.57725 12.3857 1.57725H12.3568C12.0513 1.57725 11.7638 1.69732 11.5476 1.91523C11.3588 2.10659 11.0261 2.10687 10.8368 1.91494C10.4003 1.47536 9.68173 1.48951 9.27383 1.9008C9.05587 2.12102 8.73779 2.10687 8.54843 1.91494C8.33247 1.69732 8.045 1.57725 7.73951 1.57725H7.53156ZM8.33188 4.17487H11.7644C12.0799 4.17487 12.3365 4.43377 12.3365 4.75212C12.3365 5.07048 12.0799 5.32937 11.7644 5.32937H8.33188C8.01637 5.32937 7.7598 5.07048 7.7598 4.75212C7.7598 4.43377 8.01637 4.17487 8.33188 4.17487ZM4.04128 13.0645C4.04128 16.3537 6.28699 18.3175 10.0481 18.3175C13.8093 18.3175 16.055 16.3537 16.055 13.0645C16.055 10.2057 14.4618 7.10355 12.3265 5.75134C12.1597 5.84745 11.9698 5.90662 11.7644 5.90662H11.6148L12.0301 6.95404L11.4989 7.16849L10.9987 5.90662H10.3342V7.06112H9.7621V5.90662H9.09763L8.59763 7.1682L8.06645 6.95375L8.48149 5.90662H8.33189C8.12652 5.90662 7.9363 5.84745 7.76954 5.75134C5.63453 7.10355 4.04128 10.206 4.04128 13.0645Z" fill="#161014"/>
<path d="M12.7453 5.33716L12.616 5.26107L12.5441 5.38325L12.662 5.46194L12.7453 5.33716ZM7.3511 5.33745L7.43434 5.46224L7.55221 5.38361L7.48043 5.26146L7.3511 5.33745ZM7.8245 3.72289L7.89198 3.85685L8.05984 3.77229L7.94016 3.62737L7.8245 3.72289ZM6.82793 2.51615L6.71224 2.61162L6.71228 2.61166L6.82793 2.51615ZM8.90402 1.45949L8.80165 1.56913L8.90398 1.66467L9.00635 1.56917L8.90402 1.45949ZM11.1926 1.4592L11.0892 1.56781L11.1916 1.66534L11.295 1.56889L11.1926 1.4592ZM13.16 2.88616L13.2666 2.99175V2.99175L13.16 2.88616ZM12.3102 3.74367L12.2037 3.63808L12.0641 3.77891L12.2376 3.87491L12.3102 3.74367ZM7.26783 2.1467L7.38349 2.05119L7.38322 2.05087L7.26783 2.1467ZM8.46605 3.59762L8.3504 3.69314L8.39539 3.74762H8.46605V3.59762ZM8.76754 3.59762V3.74762H8.98838L8.90698 3.54233L8.76754 3.59762ZM8.35221 2.5502L8.29605 2.41111L8.15782 2.46692L8.21277 2.60549L8.35221 2.5502ZM8.88339 2.33575L9.02283 2.28047L8.9672 2.14015L8.82723 2.19666L8.88339 2.33575ZM9.38367 3.59762L9.24423 3.6529L9.28178 3.74762H9.38367V3.59762ZM9.76211 3.59762V3.74762H9.91211V3.59762H9.76211ZM9.76211 2.1545V2.0045H9.61211V2.1545H9.76211ZM10.3342 2.1545H10.4842V2.0045H10.3342V2.1545ZM10.3342 3.59762H10.1842V3.74762H10.3342V3.59762ZM10.7126 3.59762V3.74762H10.8145L10.8521 3.65289L10.7126 3.59762ZM11.2126 2.33604L11.2688 2.19695L11.1288 2.14044L11.0732 2.28078L11.2126 2.33604ZM11.7438 2.55049L11.8832 2.60576L11.9382 2.4672L11.8 2.4114L11.7438 2.55049ZM11.3288 3.59762L11.1893 3.54235L11.1079 3.74762H11.3288V3.59762ZM11.646 3.59762V3.74762H11.7085L11.7525 3.70322L11.646 3.59762ZM12.7555 2.47833L12.8621 2.58394L12.8621 2.58392L12.7555 2.47833ZM11.5476 1.91523L11.4411 1.80957L11.4408 1.80988L11.5476 1.91523ZM10.8368 1.91494L10.9435 1.80959L10.9432 1.80925L10.8368 1.91494ZM9.27383 1.9008L9.16733 1.79517L9.16722 1.79528L9.27383 1.9008ZM8.54843 1.91494L8.65521 1.80959L8.65491 1.80928L8.54843 1.91494ZM12.3265 5.75134L12.4067 5.62462L12.3301 5.57611L12.2516 5.62138L12.3265 5.75134ZM11.6148 5.90662V5.75662H11.3939L11.4754 5.96191L11.6148 5.90662ZM12.0301 6.95404L12.0863 7.09313L12.2245 7.03733L12.1696 6.89875L12.0301 6.95404ZM11.4989 7.16849L11.3595 7.22377L11.4151 7.36409L11.5551 7.30758L11.4989 7.16849ZM10.9987 5.90662L11.1381 5.85134L11.1005 5.75662H10.9987V5.90662ZM10.3342 5.90662V5.75662H10.1842V5.90662H10.3342ZM10.3342 7.06112V7.21112H10.4842V7.06112H10.3342ZM9.7621 7.06112H9.6121V7.21112H9.7621V7.06112ZM9.7621 5.90662H9.9121V5.75662H9.7621V5.90662ZM9.09763 5.90662V5.75662H8.99573L8.95818 5.85136L9.09763 5.90662ZM8.59763 7.1682L8.54147 7.30729L8.68145 7.36381L8.73707 7.22347L8.59763 7.1682ZM8.06645 6.95375L7.927 6.89848L7.87208 7.03705L8.01029 7.09285L8.06645 6.95375ZM8.48149 5.90662L8.62094 5.96189L8.7023 5.75662H8.48149V5.90662ZM7.76954 5.75134L7.84444 5.62138L7.76588 5.5761L7.68928 5.62462L7.76954 5.75134ZM12.8745 5.41326C12.9879 5.22075 13.0586 4.99617 13.0586 4.75212H12.7586C12.7586 4.93697 12.7052 5.10954 12.616 5.26107L12.8745 5.41326ZM16.7771 13.0645C16.7771 10.0296 15.1055 6.73164 12.8285 5.21239L12.662 5.46194C14.8467 6.91957 16.4771 10.1186 16.4771 13.0645H16.7771ZM10.0482 19.0447C12.1038 19.0447 13.7873 18.4788 14.9589 17.4405C16.1327 16.4003 16.7771 14.8997 16.7771 13.0645H16.4771C16.4771 14.8256 15.8612 16.2401 14.7599 17.216C13.6566 18.1937 12.0507 18.7447 10.0482 18.7447V19.0447ZM3.31924 13.0645C3.31924 14.8997 3.96371 16.4003 5.13745 17.4405C6.30908 18.4788 7.99259 19.0447 10.0482 19.0447V18.7447C8.04572 18.7447 6.43975 18.1937 5.33642 17.216C4.2352 16.2401 3.61924 14.8256 3.61924 13.0645H3.31924ZM7.26786 5.21267C4.99083 6.73164 3.31924 10.0299 3.31924 13.0645H3.61924C3.61924 10.1189 5.2497 6.91957 7.43434 5.46224L7.26786 5.21267ZM7.03777 4.75212C7.03777 4.99619 7.10853 5.22073 7.22178 5.41345L7.48043 5.26146C7.39116 5.10956 7.33777 4.93696 7.33777 4.75212H7.03777ZM7.75702 3.58892C7.33322 3.80241 7.03777 4.24057 7.03777 4.75212H7.33777C7.33777 4.3597 7.56407 4.02204 7.89198 3.85685L7.75702 3.58892ZM6.71228 2.61166L7.70884 3.8184L7.94016 3.62737L6.94359 2.42063L6.71228 2.61166ZM6.46569 1.92447C6.46569 2.17511 6.55328 2.41901 6.71224 2.61162L6.94362 2.42067C6.82913 2.28194 6.76569 2.1056 6.76569 1.92447H6.46569ZM7.53159 0.85C6.94259 0.85 6.46569 1.33322 6.46569 1.92447H6.76569C6.76569 1.49629 7.11087 1.15 7.53159 1.15V0.85ZM7.73955 0.85H7.53159V1.15H7.73955V0.85ZM9.00639 1.34985C8.6606 1.02699 8.213 0.85 7.73955 0.85V1.15C8.1368 1.15 8.51128 1.29801 8.80165 1.56913L9.00639 1.34985ZM10.0482 0.85C9.59198 0.85 9.14725 1.02743 8.8017 1.34981L9.00635 1.56917C9.29809 1.29698 9.67029 1.15 10.0482 1.15V0.85ZM11.2961 1.35059C10.9615 1.03184 10.51 0.85 10.0482 0.85V1.15C10.4324 1.15 10.8099 1.30181 11.0892 1.56781L11.2961 1.35059ZM12.3568 0.85C11.8837 0.85 11.4364 1.02668 11.0903 1.34952L11.295 1.56889C11.5856 1.29773 11.9598 1.15 12.3568 1.15V0.85ZM12.3857 0.85H12.3568V1.15H12.3857V0.85ZM13.6307 2.10514C13.6307 1.414 13.0734 0.85 12.3857 0.85V1.15C12.9051 1.15 13.3307 1.57714 13.3307 2.10514H13.6307ZM13.2666 2.99175C13.5014 2.75485 13.6307 2.43947 13.6307 2.10514H13.3307C13.3307 2.36077 13.2323 2.60013 13.0535 2.78058L13.2666 2.99175ZM12.4167 3.84926L13.2666 2.99175L13.0535 2.78058L12.2037 3.63808L12.4167 3.84926ZM13.0586 4.75212C13.0586 4.25829 12.7824 3.83354 12.3828 3.61242L12.2376 3.87491C12.5473 4.04632 12.7586 4.37373 12.7586 4.75212H13.0586ZM7.33774 1.92446C7.33774 1.81451 7.42619 1.72725 7.53156 1.72725V1.42725C7.25764 1.42725 7.03774 1.6517 7.03774 1.92446H7.33774ZM7.38322 2.05087C7.35397 2.01565 7.33774 1.97052 7.33774 1.92446H7.03774C7.03774 2.04003 7.07814 2.15308 7.15243 2.24254L7.38322 2.05087ZM8.58171 3.50211L7.38349 2.05119L7.15217 2.24222L8.3504 3.69314L8.58171 3.50211ZM8.76754 3.44762H8.46605V3.74762H8.76754V3.44762ZM8.21277 2.60549L8.6281 3.65291L8.90698 3.54233L8.49165 2.49491L8.21277 2.60549ZM8.82723 2.19666L8.29605 2.41111L8.40836 2.68929L8.93954 2.47485L8.82723 2.19666ZM9.52311 3.54234L9.02283 2.28047L8.74395 2.39104L9.24423 3.6529L9.52311 3.54234ZM9.76211 3.44762H9.38367V3.74762H9.76211V3.44762ZM9.61211 2.1545V3.59762H9.91211V2.1545H9.61211ZM10.3342 2.0045H9.76211V2.3045H10.3342V2.0045ZM10.4842 3.59762V2.1545H10.1842V3.59762H10.4842ZM10.7126 3.44762H10.3342V3.74762H10.7126V3.44762ZM11.0732 2.28078L10.5732 3.54235L10.8521 3.65289L11.3521 2.39131L11.0732 2.28078ZM11.8 2.4114L11.2688 2.19695L11.1565 2.47513L11.6876 2.68958L11.8 2.4114ZM11.4682 3.65289L11.8832 2.60576L11.6044 2.49522L11.1893 3.54235L11.4682 3.65289ZM11.646 3.44762H11.3288V3.74762H11.646V3.44762ZM12.649 2.37273L11.5394 3.49202L11.7525 3.70322L12.8621 2.58394L12.649 2.37273ZM12.7586 2.10514C12.7586 2.20676 12.7196 2.30149 12.649 2.37275L12.8621 2.58392C12.9888 2.45603 13.0586 2.28522 13.0586 2.10514H12.7586ZM12.3857 1.72725C12.5898 1.72725 12.7586 1.89543 12.7586 2.10514H13.0586C13.0586 1.73241 12.7582 1.42725 12.3857 1.42725V1.72725ZM12.3568 1.72725H12.3857V1.42725H12.3568V1.72725ZM11.654 2.02089C11.8423 1.8312 12.0915 1.72725 12.3568 1.72725V1.42725C12.0111 1.42725 11.6854 1.56344 11.4411 1.80957L11.654 2.02089ZM10.73 2.02029C10.9781 2.27176 11.4068 2.27147 11.6544 2.02057L11.4408 1.80988C11.3107 1.9417 11.0742 1.94199 10.9435 1.80959L10.73 2.02029ZM9.38034 2.00642C9.72952 1.65434 10.3525 1.6401 10.7303 2.02063L10.9432 1.80925C10.4481 1.31063 9.63394 1.32468 9.16733 1.79517L9.38034 2.00642ZM8.44165 2.02029C8.68985 2.27185 9.10387 2.28575 9.38045 2.00631L9.16722 1.79528C9.00787 1.95629 8.78574 1.94189 8.65521 1.80959L8.44165 2.02029ZM7.73951 1.72725C8.00483 1.72725 8.25403 1.83122 8.44196 2.0206L8.65491 1.80928C8.41092 1.56342 8.08518 1.42725 7.73951 1.42725V1.72725ZM7.53156 1.72725H7.73951V1.42725H7.53156V1.72725ZM11.7644 4.02487H8.33188V4.32487H11.7644V4.02487ZM12.4865 4.75212C12.4865 4.3522 12.164 4.02487 11.7644 4.02487V4.32487C11.9958 4.32487 12.1865 4.51534 12.1865 4.75212H12.4865ZM11.7644 5.47937C12.164 5.47937 12.4865 5.15204 12.4865 4.75212H12.1865C12.1865 4.98891 11.9958 5.17937 11.7644 5.17937V5.47937ZM8.33188 5.47937H11.7644V5.17937H8.33188V5.47937ZM7.6098 4.75212C7.6098 5.15204 7.93226 5.47937 8.33188 5.47937V5.17937C8.10049 5.17937 7.9098 4.98891 7.9098 4.75212H7.6098ZM8.33188 4.02487C7.93226 4.02487 7.6098 4.3522 7.6098 4.75212H7.9098C7.9098 4.51534 8.10049 4.32487 8.33188 4.32487V4.02487ZM10.0481 18.1675C8.19227 18.1675 6.72962 17.683 5.73302 16.8115C4.73905 15.9423 4.19128 14.673 4.19128 13.0645H3.89128C3.89128 14.7452 4.46636 16.1024 5.53553 17.0374C6.60208 17.97 8.14286 18.4675 10.0481 18.4675V18.1675ZM15.905 13.0645C15.905 14.673 15.3572 15.9423 14.3633 16.8115C13.3667 17.683 11.904 18.1675 10.0481 18.1675V18.4675C11.9534 18.4675 13.4942 17.97 14.5608 17.0374C15.6299 16.1024 16.205 14.7452 16.205 13.0645H15.905ZM12.2462 5.87807C14.3323 7.19912 15.905 10.2499 15.905 13.0645H16.205C16.205 10.1615 14.5912 7.00797 12.4067 5.62462L12.2462 5.87807ZM11.7644 6.05662C11.9993 6.05662 12.2148 5.9888 12.4014 5.8813L12.2516 5.62138C12.1045 5.70611 11.9402 5.75662 11.7644 5.75662V6.05662ZM11.6148 6.05662H11.7644V5.75662H11.6148V6.05662ZM12.1696 6.89875L11.7542 5.85133L11.4754 5.96191L11.8907 7.00933L12.1696 6.89875ZM11.5551 7.30758L12.0863 7.09313L11.974 6.81495L11.4428 7.0294L11.5551 7.30758ZM10.8592 5.96191L11.3595 7.22377L11.6384 7.11321L11.1381 5.85134L10.8592 5.96191ZM10.3342 6.05662H10.9987V5.75662H10.3342V6.05662ZM10.4842 7.06112V5.90662H10.1842V7.06112H10.4842ZM9.7621 7.21112H10.3342V6.91112H9.7621V7.21112ZM9.6121 5.90662V7.06112H9.9121V5.90662H9.6121ZM9.09763 6.05662H9.7621V5.75662H9.09763V6.05662ZM8.73707 7.22347L9.23707 5.96189L8.95818 5.85136L8.45818 7.11293L8.73707 7.22347ZM8.01029 7.09285L8.54147 7.30729L8.65378 7.02911L8.1226 6.81466L8.01029 7.09285ZM8.34205 5.85135L7.927 6.89848L8.20589 7.00902L8.62094 5.96189L8.34205 5.85135ZM8.33189 6.05662H8.48149V5.75662H8.33189V6.05662ZM7.69464 5.8813C7.88119 5.98882 8.09698 6.05662 8.33189 6.05662V5.75662C8.15606 5.75662 7.99141 5.70609 7.84444 5.62138L7.69464 5.8813ZM4.19128 13.0645C4.19128 10.2502 5.76398 7.19912 7.8498 5.87806L7.68928 5.62462C5.50508 7.00798 3.89128 10.1618 3.89128 13.0645H4.19128Z" fill="#161014"/>
<path fill-rule="evenodd" clip-rule="evenodd" d="M5.57471 12.3158C5.57471 9.84906 7.5816 7.84216 10.0484 7.84216C12.5152 7.84216 14.5221 9.84906 14.5221 12.3158C14.5221 14.7826 12.5152 16.7895 10.0484 16.7895C7.5816 16.7895 5.57471 14.7826 5.57471 12.3158ZM6.17112 12.3158C6.17112 14.4537 7.91049 16.193 10.0483 16.193C12.1861 16.193 13.9255 14.4537 13.9255 12.3158C13.9255 10.178 12.1861 8.43865 10.0483 8.43865C7.91049 8.43865 6.17112 10.178 6.17112 12.3158Z" fill="#161014"/>
<path d="M10.0484 7.69216C7.49876 7.69216 5.42471 9.76622 5.42471 12.3158H5.72471C5.72471 9.9319 7.66444 7.99216 10.0484 7.99216V7.69216ZM14.6721 12.3158C14.6721 9.76622 12.598 7.69216 10.0484 7.69216V7.99216C12.4323 7.99216 14.3721 9.9319 14.3721 12.3158H14.6721ZM10.0484 16.9395C12.598 16.9395 14.6721 14.8655 14.6721 12.3158H14.3721C14.3721 14.6998 12.4323 16.6395 10.0484 16.6395V16.9395ZM5.42471 12.3158C5.42471 14.8655 7.49876 16.9395 10.0484 16.9395V16.6395C7.66444 16.6395 5.72471 14.6998 5.72471 12.3158H5.42471ZM10.0483 16.043C7.99333 16.043 6.32112 14.3708 6.32112 12.3158H6.02112C6.02112 14.5365 7.82764 16.343 10.0483 16.343V16.043ZM13.7755 12.3158C13.7755 14.3708 12.1033 16.043 10.0483 16.043V16.343C12.269 16.343 14.0755 14.5365 14.0755 12.3158H13.7755ZM10.0483 8.58865C12.1033 8.58865 13.7755 10.2609 13.7755 12.3158H14.0755C14.0755 10.0952 12.269 8.28865 10.0483 8.28865V8.58865ZM6.32112 12.3158C6.32112 10.2609 7.99333 8.58865 10.0483 8.58865V8.28865C7.82764 8.28865 6.02112 10.0952 6.02112 12.3158H6.32112Z" fill="#161014"/>
</svg>
