<svg width="26" height="30" viewBox="0 0 26 30" fill="none" xmlns="http://www.w3.org/2000/svg">
<path d="M25.3863 17.6504V8.36071V4.02553C25.3863 2.7869 24.1476 1.75472 22.909 1.96116C22.0833 2.16759 21.2575 2.16759 20.4318 2.16759C18.1609 2.16759 15.8901 1.54828 14.2386 0.309656C13.6193 -0.103219 12.7936 -0.103219 12.1743 0.309656C10.1099 1.54828 8.25195 2.16759 5.98114 2.16759C4.94895 2.16759 3.91677 2.16759 3.09102 1.96116C1.85239 1.54828 0.61377 2.58047 0.61377 4.02553V8.36071V17.8568" fill="url(#paint0_linear_2740_3259)"/>
<path d="M0.61377 8.77356V18.2697V20.7469C0.61377 22.3984 1.43952 23.6371 2.88458 24.4628L11.1421 28.798C12.3807 29.4173 13.6193 29.4173 14.8579 28.798L23.1154 24.6692C24.5605 24.0499 25.3863 22.6049 25.3863 20.9534V18.4761V8.77356" fill="url(#paint1_linear_2740_3259)"/>
<path d="M0.61377 8.77356V18.2697V20.7469C0.61377 22.3984 1.43952 23.6371 2.88458 24.4628L11.1421 28.798C12.3807 29.4173 13.6193 29.4173 14.8579 28.798L23.1154 24.6692C24.5605 24.0499 25.3863 22.6049 25.3863 20.9534V18.4761V8.77356" fill="url(#paint2_linear_2740_3259)"/>
<path d="M13.413 8.7736L14.858 11.6637C15.0645 12.0766 15.4774 12.283 15.8902 12.283L18.9868 12.6959C19.3997 12.6959 19.3997 13.1088 19.1932 13.3152L16.9224 15.586C16.716 15.7925 16.5095 16.2053 16.5095 16.6182L17.1289 19.7148C17.1289 20.1277 16.9224 20.3341 16.5095 20.1277L13.6194 18.6826C13.2065 18.4762 12.7937 18.4762 12.3808 18.6826L9.49067 20.1277C9.28424 20.3341 8.87136 20.1277 8.87136 19.7148L9.49067 16.6182C9.49067 16.2053 9.49067 15.7925 9.0778 15.586L6.80699 13.3152C6.60055 13.1088 6.60055 12.6959 7.01342 12.6959L10.3164 12.4895C10.7293 12.4895 11.1422 12.0766 11.3486 11.8702L12.7937 8.98004C12.7937 8.56716 13.2065 8.56716 13.413 8.7736Z" fill="white"/>
<defs>
<linearGradient id="paint0_linear_2740_3259" x1="0.61377" y1="8.90777" x2="25.3863" y2="8.90777" gradientUnits="userSpaceOnUse">
<stop stop-color="#F19A63"/>
<stop offset="1" stop-color="#D66D2B"/>
</linearGradient>
<linearGradient id="paint1_linear_2740_3259" x1="0.61377" y1="18.8663" x2="25.3863" y2="18.8663" gradientUnits="userSpaceOnUse">
<stop stop-color="#FF5640"/>
<stop offset="1" stop-color="#CC3737"/>
</linearGradient>
<linearGradient id="paint2_linear_2740_3259" x1="0.61377" y1="18.9943" x2="25.3863" y2="18.9943" gradientUnits="userSpaceOnUse">
<stop stop-color="#F19A63"/>
<stop offset="1" stop-color="#D66D2B"/>
</linearGradient>
</defs>
</svg>
