<svg width="35" height="35" viewBox="0 0 35 35" fill="none" xmlns="http://www.w3.org/2000/svg">
<path d="M4.90018 28.66C4.59018 28.66 4.27018 28.66 3.90018 28.61C3.45309 28.574 3.0259 28.4097 2.66989 28.1369C2.31389 27.8641 2.0442 27.4943 1.89321 27.0719C1.74222 26.6495 1.71634 26.1926 1.81869 25.7559C1.92103 25.3192 2.14725 24.9213 2.47018 24.61C3.05261 24.0912 3.51061 23.4478 3.81012 22.7275C4.10963 22.0073 4.24295 21.2289 4.20018 20.45C2.62396 19.6263 1.39281 18.268 0.727568 16.6186C0.0623256 14.9692 0.00652498 13.1368 0.570176 11.45C0.929093 10.3921 1.536 9.43546 2.34018 8.66002C3.33528 7.62413 4.60558 6.89403 6.00159 6.55566C7.39759 6.21729 8.8612 6.28472 10.2202 6.75002C11.6924 7.24538 12.9991 8.13788 13.9962 9.32901C14.9932 10.5201 15.6417 11.9636 15.8702 13.5C16.3624 16.2618 15.9301 19.1089 14.6402 21.6V21.68C11.5602 26.52 8.62018 28.66 4.90018 28.66ZM4.53018 26.15C6.74018 26.26 9.23018 25.51 12.4502 20.39C13.4611 18.4191 13.8116 16.1754 13.4502 13.99C13.3007 12.8872 12.8474 11.8476 12.1411 10.9876C11.4347 10.1275 10.503 9.48092 9.45018 9.12002C8.53443 8.79784 7.5447 8.74921 6.60177 8.98006C5.65885 9.2109 4.80352 9.71125 4.14018 10.42C3.6177 10.9327 3.22663 11.5639 3.00018 12.26C2.6016 13.4623 2.67415 14.7709 3.20315 15.9218C3.73215 17.0726 4.67819 17.9797 5.85018 18.46C6.04228 18.5369 6.21228 18.6604 6.34493 18.8192C6.47758 18.978 6.56872 19.1673 6.61018 19.37C6.84878 20.584 6.78376 21.8382 6.42089 23.021C6.05802 24.2038 5.40854 25.2787 4.53018 26.15ZM23.5902 28.66C23.2702 28.66 22.9602 28.66 22.5902 28.61C22.1431 28.574 21.7159 28.4097 21.3599 28.1369C21.0039 27.8641 20.7342 27.4943 20.5832 27.0719C20.4322 26.6495 20.4063 26.1926 20.5087 25.7559C20.611 25.3192 20.8372 24.9213 21.1602 24.61C21.7426 24.0912 22.2006 23.4478 22.5001 22.7275C22.7996 22.0073 22.933 21.2289 22.8902 20.45C21.3154 19.6248 20.0855 18.2663 19.4205 16.6174C18.7554 14.9686 18.6986 13.1369 19.2602 11.45C19.6135 10.3965 20.2096 9.44082 21.0002 8.66002C21.9977 7.62139 23.2715 6.8897 24.6712 6.55128C26.071 6.21286 27.5383 6.28182 28.9002 6.75002C30.3736 7.24339 31.6815 8.13529 32.6788 9.32679C33.6761 10.5183 34.3239 11.9628 34.5502 13.5C35.0424 16.2618 34.6101 19.1089 33.3202 21.6C33.322 21.6267 33.322 21.6534 33.3202 21.68C30.2502 26.52 27.3002 28.66 23.5902 28.66ZM23.2102 26.15C25.4302 26.26 27.9102 25.51 31.1402 20.39C32.1593 18.4218 32.5104 16.1753 32.1402 13.99C32.1448 13.9569 32.1448 13.9232 32.1402 13.89C31.9844 12.8011 31.5273 11.7774 30.8205 10.9345C30.1137 10.0917 29.1853 9.46318 28.1402 9.12002C27.2244 8.79784 26.2347 8.74921 25.2918 8.98006C24.3489 9.2109 23.4935 9.71125 22.8302 10.42C22.3144 10.9327 21.9332 11.5647 21.7202 12.26C21.3216 13.4623 21.3941 14.7709 21.9231 15.9218C22.4522 17.0726 23.3982 17.9797 24.5702 18.46C24.7599 18.539 24.9275 18.6633 25.0582 18.8219C25.1889 18.9805 25.2789 19.1687 25.3202 19.37C25.5568 20.5865 25.4879 21.8427 25.1197 23.026C24.7514 24.2092 24.0953 25.2827 23.2102 26.15Z" fill="#E49E71"/>
</svg>
