<svg width="35" height="35" viewBox="0 0 35 35" fill="none" xmlns="http://www.w3.org/2000/svg">
<g clip-path="url(#clip0_2791_53602)">
<path d="M30.0998 6.33998C30.4098 6.33998 30.7298 6.33998 31.0998 6.38997C31.5469 6.42598 31.9741 6.59027 32.3301 6.86311C32.6861 7.13595 32.9558 7.50574 33.1068 7.9281C33.2578 8.35045 33.2837 8.80741 33.1813 9.24411C33.079 9.68081 32.8528 10.0787 32.5298 10.39C31.9474 10.9088 31.4894 11.5522 31.1899 12.2725C30.8904 12.9927 30.757 13.7711 30.7998 14.55C32.376 15.3737 33.6072 16.732 34.2724 18.3814C34.9377 20.0308 34.9935 21.8632 34.4298 23.55C34.0709 24.6079 33.464 25.5645 32.6598 26.34C31.6647 27.3759 30.3944 28.106 28.9984 28.4443C27.6024 28.7827 26.1388 28.7153 24.7798 28.25C23.3076 27.7546 22.0009 26.8621 21.0038 25.671C20.0068 24.4799 19.3583 23.0364 19.1298 21.5C18.6376 18.7382 19.0699 15.8911 20.3598 13.4L20.3598 13.32C23.4398 8.47998 26.3798 6.33998 30.0998 6.33998ZM30.4698 8.84998C28.2598 8.73998 25.7698 9.48998 22.5498 14.61C21.5389 16.5809 21.1884 18.8246 21.5498 21.01C21.6993 22.1128 22.1526 23.1524 22.8589 24.0124C23.5653 24.8725 24.497 25.5191 25.5498 25.88C26.4656 26.2022 27.4553 26.2508 28.3982 26.0199C29.3411 25.7891 30.1965 25.2888 30.8598 24.58C31.3823 24.0673 31.7734 23.4361 31.9998 22.74C32.3984 21.5377 32.3259 20.2291 31.7968 19.0782C31.2678 17.9274 30.3218 17.0203 29.1498 16.54C28.9577 16.4631 28.7877 16.3396 28.6551 16.1808C28.5224 16.022 28.4313 15.8327 28.3898 15.63C28.1512 14.416 28.2162 13.1618 28.5791 11.979C28.942 10.7962 29.5915 9.72131 30.4698 8.84998ZM11.4098 6.33998C11.7298 6.33998 12.0398 6.33998 12.4098 6.38998C12.8569 6.42598 13.2841 6.59027 13.6401 6.86311C13.9961 7.13595 14.2658 7.50574 14.4168 7.9281C14.5678 8.35045 14.5937 8.80741 14.4913 9.24411C14.389 9.68081 14.1628 10.0787 13.8398 10.39C13.2574 10.9088 12.7994 11.5522 12.4999 12.2725C12.2004 12.9927 12.067 13.7711 12.1098 14.55C13.6846 15.3752 14.9145 16.7337 15.5795 18.3826C16.2446 20.0314 16.3014 21.8631 15.7398 23.55C15.3865 24.6035 14.7904 25.5592 13.9998 26.34C13.0023 27.3786 11.7285 28.1103 10.3288 28.4487C8.92901 28.7871 7.46167 28.7182 6.09982 28.25C4.62642 27.7566 3.3185 26.8647 2.32118 25.6732C1.32385 24.4817 0.676116 23.0372 0.449825 21.5C-0.0424432 18.7382 0.389888 15.8911 1.67982 13.4C1.67802 13.3733 1.67802 13.3466 1.67982 13.32C4.74982 8.47998 7.69982 6.33998 11.4098 6.33998ZM11.7898 8.84998C9.56982 8.73998 7.08982 9.48998 3.85982 14.61C2.84065 16.5782 2.48964 18.8247 2.85982 21.01C2.85517 21.0431 2.85517 21.0768 2.85982 21.11C3.01561 22.1989 3.47271 23.2226 4.17952 24.0655C4.88634 24.9083 5.81471 25.5368 6.85982 25.88C7.77557 26.2022 8.7653 26.2508 9.70823 26.0199C10.6511 25.7891 11.5065 25.2888 12.1698 24.58C12.6856 24.0673 13.0668 23.4353 13.2798 22.74C13.6784 21.5377 13.6059 20.2291 13.0769 19.0782C12.5478 17.9274 11.6018 17.0203 10.4298 16.54C10.2401 16.461 10.0725 16.3367 9.94179 16.1781C9.81107 16.0195 9.72113 15.8313 9.67982 15.63C9.44318 14.4135 9.51207 13.1573 9.88032 11.974C10.2486 10.7908 10.9047 9.71733 11.7898 8.84998Z" fill="#E49E71"/>
</g>
<defs>
<clipPath id="clip0_2791_53602">
<rect width="35" height="35" fill="white" transform="translate(35 35) rotate(180)"/>
</clipPath>
</defs>
</svg>
