<svg width="27" height="27" viewBox="0 0 27 27" fill="none" xmlns="http://www.w3.org/2000/svg">
<path d="M24.5292 19.5392C24.2179 19.5392 23.9066 19.4607 23.6212 19.3052C21.4776 18.1331 17.2082 16.1672 12.6914 16.1672C12.2451 16.1672 11.8828 15.8051 11.8828 15.3572C11.8828 14.9093 12.2451 14.5472 12.6914 14.5472C17.5664 14.5472 22.1172 16.637 24.3966 17.8828C24.5147 17.9492 24.623 17.9071 24.6748 17.8763C24.7289 17.8439 24.8203 17.7678 24.8203 17.6212V1.91526C24.8203 1.77756 24.7395 1.70223 24.6909 1.66983C24.6432 1.63743 24.543 1.59207 24.4168 1.64391C24.1476 1.75569 23.8508 1.88205 23.529 2.02056C21.0741 3.07194 16.9656 4.83207 12.6914 4.83207C12.2451 4.83207 11.8828 4.46919 11.8828 4.02207C11.8828 3.55308 12.2968 3.17238 12.7545 3.21207C16.6745 3.19506 20.4143 1.59207 22.8926 0.530164C23.2209 0.389224 23.5241 0.259624 23.7991 0.145414C24.3918 -0.0992065 25.0621 -0.0319764 25.5901 0.322804C26.1205 0.679204 26.4375 1.27374 26.4375 1.91526V17.6212C26.4375 18.3048 26.0866 18.9204 25.4987 19.2695C25.1971 19.4493 24.8632 19.5392 24.5292 19.5392Z" fill="#594B3E"/>
<path d="M15.7061 8.2093C15.2589 8.2093 14.8975 7.84642 14.8975 7.3993C14.8975 6.95218 15.2589 6.5893 15.7061 6.5893C19.4571 6.5893 21.7632 4.60237 21.7867 4.58212C22.1214 4.29052 22.6317 4.31968 22.9268 4.65421C23.2219 4.98874 23.192 5.49823 22.8589 5.79469C22.7481 5.89351 20.0967 8.2093 15.7061 8.2093Z" fill="#ECC65A"/>
<path d="M12.6914 16.167H3.39339C1.83199 16.167 0.5625 14.8953 0.5625 13.3312V6.04284C0.5625 4.47873 1.83199 3.20703 3.39339 3.20703H12.6914C13.1377 3.20703 13.5 3.56991 13.5 4.01703C13.5 4.46415 13.1377 4.82703 12.6914 4.82703H3.39339C2.72387 4.82703 2.17969 5.37216 2.17969 6.04284V13.3312C2.17969 14.0011 2.72387 14.547 3.39339 14.547H12.6914C13.1377 14.547 13.5 14.9091 13.5 15.357C13.5 15.805 13.1377 16.167 12.6914 16.167Z" fill="#594B3E"/>
<path d="M12.6914 16.167C12.2451 16.167 11.8828 15.805 11.8828 15.357V4.01703C11.8828 3.56991 12.2451 3.20703 12.6914 3.20703C13.1378 3.20703 13.5 3.56991 13.5 4.01703V15.357C13.5 15.805 13.1378 16.167 12.6914 16.167Z" fill="#594B3E"/>
<path fill-rule="evenodd" clip-rule="evenodd" d="M7.03125 16.167L10.4964 25.2979L13.9125 24.0255L11.8828 16.167H7.03125Z" fill="#BB926A"/>
<path d="M11.4786 25.8868C10.2592 25.8868 9.18134 25.1084 8.79564 23.9493L6.02136 15.6128C5.87985 15.1884 6.10869 14.7291 6.53239 14.5881C6.95852 14.4456 7.41376 14.6756 7.55526 15.1001L10.3295 23.4366C10.4953 23.9339 10.957 24.2668 11.4786 24.2668C11.8546 24.2668 12.2022 24.0967 12.4335 23.8003C12.6648 23.5038 12.7448 23.1247 12.6534 22.7594L10.8551 15.5537C10.7468 15.1203 11.0104 14.6805 11.4438 14.5719C11.878 14.4642 12.3163 14.7258 12.4246 15.1616L14.2229 22.3674C14.4356 23.2195 14.248 24.1056 13.7078 24.7974C13.1685 25.4899 12.3559 25.8868 11.4786 25.8868Z" fill="#594B3E"/>
</svg>
