<svg width="15" height="15" viewBox="0 0 15 15" fill="none" xmlns="http://www.w3.org/2000/svg">
<path fill-rule="evenodd" clip-rule="evenodd" d="M14.9999 4.28401V5.56993C14.9991 6.27978 14.4239 6.85502 13.7142 6.85585H7.49991V13.2854H8.35706V8.99905C8.35706 8.76232 8.54893 8.57041 8.78563 8.57041C9.02232 8.57041 9.2142 8.76232 9.2142 8.99905V13.2854H11.9999C12.7097 13.2846 13.2848 12.7094 13.2856 11.9995V7.71313C13.2856 7.4764 13.4775 7.28449 13.7142 7.28449C13.9509 7.28449 14.1428 7.4764 14.1428 7.71313V11.9995C14.1415 13.1826 13.1828 14.1414 11.9999 14.1427H4.7142C4.4775 14.1427 5.05058 13.2854 5.28727 13.2854H6.64277V6.85585H2.57134V8.57041C2.57134 8.80714 2.37946 8.99905 2.14277 8.99905C1.90608 8.99905 1.7142 8.80714 1.7142 8.57041V6.78084C1.201 6.59937 0.857678 6.11434 0.857056 5.56993V4.28401C0.857882 3.57416 1.43303 2.99892 2.14277 2.99809H4.82606C4.25378 2.14092 4.45697 0.985148 5.28727 0.374628C6.11757 -0.235892 7.28116 -0.0851141 7.92848 0.716875C8.57581 -0.0851141 9.7394 -0.235892 10.5697 0.374628C11.4 0.985148 11.6032 2.14092 11.0309 2.99809H13.7142C14.4239 2.99892 14.9991 3.57416 14.9999 4.28401ZM14.1427 5.56993V4.28401C14.1427 4.04728 13.9508 3.85537 13.7142 3.85537H9.21415V5.99857H13.7142C13.9508 5.99857 14.1427 5.80666 14.1427 5.56993ZM9.42848 0.854895C10.0202 0.854895 10.4999 1.33467 10.4999 1.92649C10.4999 2.51832 10.0202 2.99809 9.42848 2.99809C8.83675 2.99809 8.35705 2.51832 8.35705 1.92649C8.35776 1.33496 8.83704 0.855603 9.42848 0.854895ZM6.42855 0.854895C5.83681 0.854895 5.35712 1.33467 5.35712 1.92649C5.35783 2.51803 5.83711 2.99738 6.42855 2.99809C7.02028 2.99809 7.49998 2.51832 7.49998 1.92649C7.49998 1.33467 7.02028 0.854895 6.42855 0.854895ZM2.14272 5.99857C1.90603 5.99857 1.71415 5.80666 1.71415 5.56993V4.28401C1.71415 4.04728 1.90603 3.85537 2.14272 3.85537H6.64272V5.99857H2.14272ZM8.3571 3.85537H7.49995V5.99857H8.3571V3.85537Z" fill="#565F77"/>
<ellipse cx="8.78563" cy="7.71312" rx="0.428572" ry="0.428639" fill="#565F77"/>
<path fill-rule="evenodd" clip-rule="evenodd" d="M9.42848 0.854889C10.0202 0.854889 10.4999 1.33466 10.4999 1.92649C10.4999 2.51832 10.0202 2.99809 9.42848 2.99809C8.83675 2.99809 8.35706 2.51832 8.35706 1.92649C8.35776 1.33495 8.83704 0.855597 9.42848 0.854889Z" fill="#F67942"/>
<path fill-rule="evenodd" clip-rule="evenodd" d="M5.35718 1.92649C5.35718 1.33466 5.83687 0.854889 6.42861 0.854889C7.02034 0.854889 7.50003 1.33466 7.50003 1.92649C7.50003 2.51832 7.02034 2.99809 6.42861 2.99809C5.83717 2.99738 5.35789 2.51802 5.35718 1.92649Z" fill="#F67942"/>
<path fill-rule="evenodd" clip-rule="evenodd" d="M5.57143 12.2138C5.57143 13.7526 4.32422 15 2.78571 15C1.24794 14.9982 0.00177129 13.7518 0 12.2138C0 10.6751 1.24721 9.42767 2.78571 9.42767C4.32422 9.42767 5.57143 10.6751 5.57143 12.2138ZM4.71424 12.2138C4.71424 11.1485 3.85079 10.285 2.78567 10.285C1.72104 10.2861 0.858281 11.149 0.8571 12.2138C0.8571 13.2791 1.72055 14.1427 2.78567 14.1427C3.85079 14.1427 4.71424 13.2791 4.71424 12.2138Z" fill="#565F77"/>
<path fill-rule="evenodd" clip-rule="evenodd" d="M2.78563 10.285C3.85075 10.285 4.7142 11.1486 4.7142 12.2139C4.7142 13.2791 3.85075 14.1427 2.78563 14.1427C1.72051 14.1427 0.857056 13.2791 0.857056 12.2139C0.858237 11.1491 1.721 10.2862 2.78563 10.285Z" fill="#0B969F"/>
<path d="M2.57146 13.2855C2.68515 13.2856 2.7942 13.2404 2.87446 13.1599L4.16018 11.8739C4.32259 11.7058 4.32027 11.4384 4.15496 11.2731C3.98964 11.1077 3.72234 11.1054 3.55418 11.2678L2.57146 12.2505L2.01732 11.6963C1.84916 11.5338 1.58186 11.5362 1.41654 11.7015C1.25123 11.8668 1.2489 12.1342 1.41132 12.3024L2.26846 13.1596C2.34869 13.2403 2.45774 13.2855 2.57146 13.2855Z" fill="#565F77"/>
</svg>
