<svg width="29" height="30" viewBox="0 0 29 30" fill="none" xmlns="http://www.w3.org/2000/svg">
<path fill-rule="evenodd" clip-rule="evenodd" d="M4.75684 19.5282C4.75684 19.5282 7.29623 11.6978 12.8546 16.2858C18.4129 20.8738 20.55 11.083 20.55 11.083V26.0747C20.55 26.0747 20.4134 26.7141 20.1708 26.9393C19.9281 27.1645 19.1327 27.3902 19.1327 27.3902C19.1327 27.3902 18.1744 27.3297 17.7431 26.9393C17.3118 26.5488 17.1094 25.5587 17.1094 25.5587V24.549H4.75684V19.5282Z" fill="#ECC65A"/>
<path d="M19.1323 26.9393H2.45727C1.43401 26.9393 0.604492 26.1098 0.604492 25.0865V24.1602H17.2795V25.0865C17.2795 26.1098 18.109 26.9393 19.1323 26.9393Z" fill="#ECC65A"/>
<path d="M24.6909 4.70592H20.9854V3.77954C20.9854 2.75627 21.8149 1.92676 22.8381 1.92676C23.8614 1.92676 24.6909 2.75627 24.6909 3.77954V4.70592Z" fill="#BB926A"/>
<path d="M13.924 5.37452C14.3445 4.70861 13.5708 3.9347 12.9049 4.35538C12.7312 3.58727 11.6368 3.58727 11.4634 4.35538C10.7975 3.93493 10.0236 4.7089 10.4443 5.37452C9.67614 5.54824 9.67614 6.64265 10.4443 6.81602C10.0238 7.48193 10.7975 8.25584 11.4634 7.83515C11.6371 8.60327 12.7315 8.60327 12.9049 7.83515C13.5708 8.25561 14.3447 7.48193 13.924 6.81602C14.6921 6.64253 14.6921 5.548 13.924 5.37452Z" fill="#BB926A"/>
<path fill-rule="evenodd" clip-rule="evenodd" d="M24.2446 4.58204C24.4909 4.58204 24.6906 4.38157 24.6906 4.13428V3.23877C24.6892 2.00291 23.6915 1.00139 22.4604 1H6.403C5.17187 1.00139 4.17419 2.00291 4.1728 3.23877V24.2832H1.05053C0.804191 24.2832 0.604492 24.4837 0.604492 24.731V25.6265C0.605875 26.8624 1.60356 27.8639 2.83469 27.8653H18.8921C20.1232 27.8639 21.1209 26.8624 21.1223 25.6265V4.58204H24.2446ZM5.06488 3.23877V24.2832H17.1079C17.3543 24.2832 17.554 24.4837 17.554 24.731V25.6265C17.554 26.3684 18.1531 26.9698 18.8921 26.9698C19.6311 26.9698 20.2302 26.3684 20.2302 25.6265V3.23877C20.2297 2.75411 20.3866 2.2825 20.6773 1.89551H6.403C5.66433 1.89637 5.06574 2.49727 5.06488 3.23877ZM2.8345 26.9698C2.09582 26.9689 1.49721 26.368 1.49638 25.6265V25.1787H16.6617V25.6265C16.6612 26.1112 16.8181 26.5828 17.1088 26.9698H2.8345ZM23.7985 3.23877C23.7977 2.49726 23.1991 1.89637 22.4604 1.8955C21.7218 1.89637 21.1232 2.49726 21.1223 3.23877V3.68652H23.7985V3.23877Z" fill="#594B3E"/>
<path d="M24.6906 3.23877H24.8906V3.23855L24.6906 3.23877ZM22.4604 1L22.4606 0.8H22.4604V1ZM6.403 1V0.8L6.40277 0.8L6.403 1ZM4.1728 3.23877L3.9728 3.23855V3.23877H4.1728ZM4.1728 24.2832V24.4832H4.3728V24.2832H4.1728ZM0.604492 25.6265H0.404492L0.404492 25.6267L0.604492 25.6265ZM2.83469 27.8653L2.83446 28.0653H2.83469V27.8653ZM18.8921 27.8653V28.0653H18.8923L18.8921 27.8653ZM21.1223 25.6265L21.3223 25.6267V25.6265H21.1223ZM21.1223 4.58204V4.38204H20.9223V4.58204H21.1223ZM5.06488 24.2832H4.86488V24.4832H5.06488V24.2832ZM5.06488 3.23877L4.86488 3.23854V3.23877H5.06488ZM20.2302 3.23877H20.4302V3.23855L20.2302 3.23877ZM20.6773 1.89551L20.8372 2.01562L21.0777 1.69551H20.6773V1.89551ZM6.403 1.89551V1.69551L6.40277 1.69551L6.403 1.89551ZM1.49638 25.6265H1.29638L1.29638 25.6267L1.49638 25.6265ZM2.8345 26.9698L2.83427 27.1698H2.8345V26.9698ZM1.49638 25.1787V24.9787H1.29638V25.1787H1.49638ZM16.6617 25.1787H16.8617V24.9787H16.6617V25.1787ZM16.6617 25.6265L16.8617 25.6267V25.6265H16.6617ZM17.1088 26.9698V27.1698H17.5091L17.2687 26.8497L17.1088 26.9698ZM22.4604 1.8955L22.4607 1.6955L22.4602 1.6955L22.4604 1.8955ZM23.7985 3.23877H23.9985V3.23854L23.7985 3.23877ZM21.1223 3.23877L20.9223 3.23854V3.23877H21.1223ZM21.1223 3.68652H20.9223V3.88652H21.1223V3.68652ZM23.7985 3.68652V3.88652H23.9985V3.68652H23.7985ZM24.4906 4.13428C24.4906 4.27184 24.3797 4.38204 24.2446 4.38204V4.78204C24.6021 4.78204 24.8906 4.4913 24.8906 4.13428H24.4906ZM24.4906 3.23877V4.13428H24.8906V3.23877H24.4906ZM22.4602 1.2C23.5803 1.20126 24.4893 2.11269 24.4906 3.239L24.8906 3.23855C24.8891 1.89313 23.8028 0.801513 22.4606 0.8L22.4602 1.2ZM6.403 1.2H22.4604V0.8H6.403V1.2ZM4.3728 3.239C4.37406 2.11269 5.2831 1.20126 6.40323 1.2L6.40277 0.8C5.06064 0.801513 3.97431 1.89313 3.9728 3.23855L4.3728 3.239ZM4.3728 24.2832V3.23877H3.9728V24.2832H4.3728ZM1.05053 24.4832H4.1728V24.0832H1.05053V24.4832ZM0.804492 24.731C0.804492 24.5934 0.915372 24.4832 1.05053 24.4832V24.0832C0.69301 24.0832 0.404492 24.374 0.404492 24.731H0.804492ZM0.804492 25.6265V24.731H0.404492V25.6265H0.804492ZM2.83491 27.6653C1.71479 27.664 0.805752 26.7526 0.804492 25.6263L0.404492 25.6267C0.405998 26.9722 1.49233 28.0638 2.83446 28.0653L2.83491 27.6653ZM18.8921 27.6653H2.83469V28.0653H18.8921V27.6653ZM20.9223 25.6263C20.921 26.7526 20.012 27.664 18.8919 27.6653L18.8923 28.0653C20.2344 28.0638 21.3208 26.9722 21.3223 25.6267L20.9223 25.6263ZM20.9223 4.58204V25.6265H21.3223V4.58204H20.9223ZM24.2446 4.38204H21.1223V4.78204H24.2446V4.38204ZM5.26488 24.2832V3.23877H4.86488V24.2832H5.26488ZM17.1079 24.0832H5.06488V24.4832H17.1079V24.0832ZM17.754 24.731C17.754 24.374 17.4655 24.0832 17.1079 24.0832V24.4832C17.2431 24.4832 17.354 24.5934 17.354 24.731H17.754ZM17.754 25.6265V24.731H17.354V25.6265H17.754ZM18.8921 26.7698C18.2642 26.7698 17.754 26.2586 17.754 25.6265H17.354C17.354 26.4781 18.0419 27.1698 18.8921 27.1698V26.7698ZM20.0302 25.6265C20.0302 26.2586 19.5199 26.7698 18.8921 26.7698V27.1698C19.7423 27.1698 20.4302 26.4781 20.4302 25.6265H20.0302ZM20.0302 3.23877V25.6265H20.4302V3.23877H20.0302ZM20.5174 1.7754C20.2006 2.19714 20.0296 2.711 20.0302 3.23899L20.4302 3.23855C20.4297 2.79722 20.5727 2.36786 20.8372 2.01562L20.5174 1.7754ZM6.403 2.09551H20.6773V1.69551H6.403V2.09551ZM5.26488 3.23901C5.26562 2.60705 5.77556 2.09624 6.40323 2.09551L6.40277 1.69551C5.55311 1.6965 4.86587 2.38748 4.86488 3.23854L5.26488 3.23901ZM1.29638 25.6267C1.29733 26.4778 1.98459 27.1688 2.83427 27.1698L2.83472 26.7698C2.20705 26.7691 1.69709 26.2582 1.69638 25.6263L1.29638 25.6267ZM1.29638 25.1787V25.6265H1.69638V25.1787H1.29638ZM16.6617 24.9787H1.49638V25.3787H16.6617V24.9787ZM16.8617 25.6265V25.1787H16.4617V25.6265H16.8617ZM17.2687 26.8497C17.0042 26.4974 16.8612 26.0681 16.8617 25.6267L16.4617 25.6263C16.4611 26.1543 16.6321 26.6681 16.9489 27.0899L17.2687 26.8497ZM2.8345 27.1698H17.1088V26.7698H2.8345V27.1698ZM22.4602 2.0955C23.0879 2.09624 23.5978 2.60705 23.5985 3.239L23.9985 3.23854C23.9976 2.38748 23.3103 1.6965 22.4607 1.6955L22.4602 2.0955ZM21.3223 3.239C21.323 2.60705 21.833 2.09624 22.4607 2.0955L22.4602 1.6955C21.6105 1.6965 20.9233 2.38748 20.9223 3.23854L21.3223 3.239ZM21.3223 3.68652V3.23877H20.9223V3.68652H21.3223ZM23.7985 3.48652H21.1223V3.88652H23.7985V3.48652ZM23.5985 3.23877V3.68652H23.9985V3.23877H23.5985Z" fill="#594B3E"/>
<path fill-rule="evenodd" clip-rule="evenodd" d="M10.258 6.89312C10.0088 6.70413 9.86414 6.40801 9.86825 6.09527C9.86414 5.78252 10.0088 5.48641 10.258 5.29742C10.2196 4.98797 10.3261 4.67812 10.5466 4.45764C10.7671 4.23715 11.0769 4.13068 11.3863 4.16905C11.578 3.9231 11.8724 3.7793 12.1842 3.7793C12.496 3.7793 12.7904 3.9231 12.982 4.16905C13.2915 4.13068 13.6013 4.23715 13.8218 4.45764C14.0423 4.67812 14.1487 4.98797 14.1104 5.29742C14.3563 5.48908 14.5001 5.78346 14.5001 6.09527C14.5001 6.40708 14.3563 6.70146 14.1104 6.89312C14.1487 7.20256 14.0423 7.51241 13.8218 7.7329C13.6013 7.95338 13.2915 8.05986 12.982 8.02148C12.7904 8.26743 12.496 8.41124 12.1842 8.41124C11.8724 8.41124 11.578 8.26743 11.3863 8.02148C11.0769 8.05984 10.7671 7.95336 10.5466 7.73288C10.3261 7.5124 10.2196 7.20256 10.258 6.89312ZM11.0905 5.64239C11.0425 5.75824 10.9413 5.84356 10.819 5.87121C10.7143 5.89487 10.6399 5.98791 10.6399 6.09528C10.6399 6.20265 10.7143 6.2957 10.819 6.31935C10.9413 6.347 11.0425 6.43233 11.0905 6.54817C11.1385 6.66402 11.1272 6.79595 11.0602 6.90196C11.0029 6.99276 11.0161 7.11117 11.092 7.1871C11.168 7.26302 11.2864 7.2762 11.3772 7.21882C11.4832 7.15188 11.6151 7.14061 11.7309 7.18858C11.8468 7.23654 11.9321 7.33778 11.9597 7.46007C11.9834 7.56479 12.0764 7.63917 12.1838 7.63917C12.2912 7.63917 12.3842 7.56479 12.4079 7.46007C12.4355 7.33778 12.5208 7.23654 12.6367 7.18858C12.7525 7.14061 12.8844 7.15188 12.9904 7.21882C13.0812 7.2762 13.1996 7.26302 13.2756 7.1871C13.3515 7.11117 13.3647 6.99276 13.3074 6.90196C13.2404 6.79595 13.2291 6.66402 13.2771 6.54817C13.3251 6.43233 13.4263 6.347 13.5486 6.31935C13.6533 6.2957 13.7277 6.20265 13.7277 6.09528C13.7277 5.98791 13.6533 5.89487 13.5486 5.87121C13.4263 5.84356 13.3251 5.75824 13.2771 5.64239C13.2291 5.52654 13.2404 5.39461 13.3074 5.2886C13.3647 5.19781 13.3515 5.07944 13.2755 5.00353C13.1996 4.92762 13.0812 4.91442 12.9905 4.97174C12.8845 5.0387 12.7525 5.04999 12.6367 5.00202C12.5208 4.95405 12.4355 4.8528 12.4079 4.7305C12.3842 4.62577 12.2912 4.55139 12.1838 4.55139C12.0764 4.55139 11.9834 4.62577 11.9597 4.7305C11.9321 4.8528 11.8468 4.95405 11.7309 5.00202C11.6151 5.04999 11.4831 5.0387 11.3771 4.97174C11.2864 4.91442 11.168 4.92762 11.0921 5.00353C11.0161 5.07944 11.0029 5.19781 11.0602 5.2886C11.1272 5.39461 11.1385 5.52654 11.0905 5.64239Z" fill="#594B3E"/>
<path d="M9.86816 11.1904H14.5001V12.1168H9.86816V11.1904Z" fill="#594B3E"/>
<path d="M11.7207 9.33789H16.3526V10.2643H11.7207V9.33789Z" fill="#594B3E"/>
<path d="M8.94238 9.33789H10.7952V10.2643H8.94238V9.33789Z" fill="#594B3E"/>
<path d="M8.01562 13.9697H19.1323V14.8961H8.01562V13.9697Z" fill="#594B3E"/>
<path d="M6.16309 13.9697H7.08947V14.8961H6.16309V13.9697Z" fill="#594B3E"/>
<path d="M8.01562 16.749H19.1323V17.6754H8.01562V16.749Z" fill="#594B3E"/>
<path d="M6.16309 16.749H7.08947V17.6754H6.16309V16.749Z" fill="#594B3E"/>
<path d="M8.01562 19.5273H10.7948V20.4537H8.01562V19.5273Z" fill="#594B3E"/>
<path d="M11.7207 19.5273H19.1318V20.4537H11.7207V19.5273Z" fill="#594B3E"/>
<path d="M8.01562 21.3809H15.4267V22.3072H8.01562V21.3809Z" fill="#594B3E"/>
<path d="M6.16309 21.3809H7.08947V22.3072H6.16309V21.3809Z" fill="#594B3E"/>
<path d="M16.3535 21.3809H19.1327V22.3072H16.3535V21.3809Z" fill="#594B3E"/>
</svg>
