<svg width="14" height="14" viewBox="0 0 14 14" fill="none" xmlns="http://www.w3.org/2000/svg">
<path d="M7.00077 0.342773C6.2981 0.342773 5.59944 0.619446 5.06344 1.15545L1.14677 5.0721C0.0747735 6.14477 0.0747735 7.87478 1.14677 8.94745L5.06344 12.8641C6.13611 13.9361 7.86611 13.9361 8.93878 12.8641L12.8554 8.94745C13.9274 7.87478 13.9274 6.14477 12.8554 5.0721L8.93878 1.15545C8.40211 0.619446 7.70343 0.342773 7.00077 0.342773ZM7.00077 3.67611C7.36943 3.67611 7.66743 3.97477 7.66743 4.34277V7.6761C7.66743 8.04477 7.36943 8.34277 7.00077 8.34277C6.63277 8.34277 6.3341 8.04477 6.3341 7.6761V4.34277C6.3341 3.97477 6.63277 3.67611 7.00077 3.67611ZM7.00077 9.00944C7.36943 9.00944 7.66743 9.3081 7.66743 9.6761C7.66743 10.0448 7.36943 10.3428 7.00077 10.3428C6.63277 10.3428 6.3341 10.0448 6.3341 9.6761C6.3341 9.3081 6.63277 9.00944 7.00077 9.00944Z" fill="#E49E71"/>
</svg>
