<svg width="30" height="30" viewBox="0 0 30 30" fill="none" xmlns="http://www.w3.org/2000/svg">
<circle r="0.796987" transform="matrix(-1 -8.74228e-08 -8.74228e-08 1 9.02186 0.796987)" fill="#C3C9D2"/>
<circle r="0.796987" transform="matrix(-1 -8.74228e-08 -8.74228e-08 1 20.9784 0.796987)" fill="#C3C9D2"/>
<circle r="0.796987" transform="matrix(-1 -8.74228e-08 -8.74228e-08 1 1.05311 0.796987)" fill="#C3C9D2"/>
<circle r="0.796987" transform="matrix(-1 -8.74228e-08 -8.74228e-08 1 13.0062 0.796987)" fill="#C3C9D2"/>
<circle r="0.796987" transform="matrix(-1 -8.74228e-08 -8.74228e-08 1 24.9628 0.796987)" fill="#C3C9D2"/>
<circle r="0.796987" transform="matrix(-1 -8.74228e-08 -8.74228e-08 1 5.03749 0.796987)" fill="#C3C9D2"/>
<circle r="0.796987" transform="matrix(-1 -8.74228e-08 -8.74228e-08 1 16.994 0.796987)" fill="#C3C9D2"/>
<circle r="0.796987" transform="matrix(-1 -8.74228e-08 -8.74228e-08 1 28.9472 0.796987)" fill="#C3C9D2"/>
<circle r="0.796987" transform="matrix(-1 -8.74228e-08 -8.74228e-08 1 9.02186 4.78136)" fill="#C3C9D2"/>
<circle r="0.796987" transform="matrix(-1 -8.74228e-08 -8.74228e-08 1 20.9784 4.78136)" fill="#C3C9D2"/>
<circle r="0.796987" transform="matrix(-1 -8.74228e-08 -8.74228e-08 1 1.05311 4.78136)" fill="#C3C9D2"/>
<circle r="0.796987" transform="matrix(-1 -8.74228e-08 -8.74228e-08 1 13.0062 4.78136)" fill="#C3C9D2"/>
<circle r="0.796987" transform="matrix(-1 -8.74228e-08 -8.74228e-08 1 24.9628 4.78136)" fill="#C3C9D2"/>
<circle r="0.796987" transform="matrix(-1 -8.74228e-08 -8.74228e-08 1 5.03749 4.78136)" fill="#C3C9D2"/>
<circle r="0.796987" transform="matrix(-1 -8.74228e-08 -8.74228e-08 1 16.994 4.78136)" fill="#C3C9D2"/>
<circle r="0.796987" transform="matrix(-1 -8.74228e-08 -8.74228e-08 1 28.9472 4.78136)" fill="#C3C9D2"/>
<circle r="0.796987" transform="matrix(1.31134e-07 -1 -1 -1.31134e-07 5.13661 17.2479)" fill="#C3C9D2"/>
<circle r="0.796987" transform="matrix(1.31134e-07 -1 -1 -1.31134e-07 5.13661 29.203)" fill="#C3C9D2"/>
<circle r="0.796987" transform="matrix(1.31134e-07 -1 -1 -1.31134e-07 5.13661 9.27723)" fill="#C3C9D2"/>
<circle r="0.796987" transform="matrix(1.31134e-07 -1 -1 -1.31134e-07 5.13661 21.2323)" fill="#C3C9D2"/>
<circle r="0.796987" transform="matrix(1.31134e-07 -1 -1 -1.31134e-07 5.13661 13.2636)" fill="#C3C9D2"/>
<circle r="0.796987" transform="matrix(1.31134e-07 -1 -1 -1.31134e-07 5.13661 25.2167)" fill="#C3C9D2"/>
<circle r="0.796987" transform="matrix(1.31134e-07 -1 -1 -1.31134e-07 1.15223 17.2479)" fill="#C3C9D2"/>
<circle r="0.796987" transform="matrix(1.31134e-07 -1 -1 -1.31134e-07 1.15223 29.203)" fill="#C3C9D2"/>
<circle r="0.796987" transform="matrix(1.31134e-07 -1 -1 -1.31134e-07 1.15223 9.27723)" fill="#C3C9D2"/>
<circle r="0.796987" transform="matrix(1.31134e-07 -1 -1 -1.31134e-07 1.15223 21.2323)" fill="#C3C9D2"/>
<circle r="0.796987" transform="matrix(1.31134e-07 -1 -1 -1.31134e-07 1.15223 13.2636)" fill="#C3C9D2"/>
<circle r="0.796987" transform="matrix(1.31134e-07 -1 -1 -1.31134e-07 1.15223 25.2167)" fill="#C3C9D2"/>
</svg>
