<svg width="12" height="12" viewBox="0 0 12 12" fill="none" xmlns="http://www.w3.org/2000/svg">
<circle cx="5.99975" cy="5.99999" r="3.97436" fill="#26B961"/>
<path d="M7.59095 4.89181C7.56932 4.87001 7.5436 4.8527 7.51525 4.84089C7.4869 4.82908 7.45649 4.823 7.42578 4.823C7.39507 4.823 7.36467 4.82908 7.33632 4.84089C7.30797 4.8527 7.28224 4.87001 7.26061 4.89181L5.52752 6.62723L4.79938 5.89677C4.77693 5.87508 4.75042 5.85803 4.72138 5.84658C4.69233 5.83514 4.66132 5.82952 4.6301 5.83006C4.59889 5.8306 4.56809 5.83729 4.53945 5.84973C4.51082 5.86217 4.48492 5.88014 4.46323 5.90259C4.44154 5.92504 4.42449 5.95155 4.41304 5.9806C4.40159 6.00964 4.39598 6.04066 4.39652 6.07187C4.39706 6.10308 4.40374 6.13389 4.41619 6.16252C4.42863 6.19115 4.44659 6.21705 4.46905 6.23874L5.36235 7.13204C5.38397 7.15385 5.4097 7.17115 5.43805 7.18296C5.4664 7.19477 5.49681 7.20085 5.52752 7.20085C5.55823 7.20085 5.58863 7.19477 5.61698 7.18296C5.64533 7.17115 5.67106 7.15385 5.69268 7.13204L7.59095 5.23378C7.61456 5.21199 7.63341 5.18555 7.6463 5.15613C7.65919 5.1267 7.66584 5.09492 7.66584 5.06279C7.66584 5.03067 7.65919 4.99889 7.6463 4.96946C7.63341 4.94003 7.61456 4.91359 7.59095 4.89181Z" fill="white"/>
<circle cx="6" cy="6" r="5.5" stroke="#26B961"/>
</svg>
