<svg width="24" height="19" viewBox="0 0 24 19" fill="none" xmlns="http://www.w3.org/2000/svg">
<path d="M3.76815 13.8725C3.9081 13.7325 4.10053 13.6509 4.30462 13.6509H22.8129C23.1511 13.6509 23.3203 14.0591 23.0812 14.2981L19.425 17.9543C19.285 18.0943 19.0926 18.1759 18.8885 18.1759H0.380205C0.0419941 18.1759 -0.127112 17.7677 0.111969 17.5286L3.76815 13.8725Z" fill="url(#paint0_linear_2758_33266)"/>
<path d="M3.76815 0.221587C3.91393 0.0816372 4.10636 0 4.30462 0H22.8129C23.1511 0 23.3203 0.408186 23.0812 0.647266L19.425 4.30345C19.285 4.4434 19.0926 4.52503 18.8885 4.52503H0.380205C0.0419941 4.52503 -0.127112 4.11685 0.111969 3.87777L3.76815 0.221587Z" fill="url(#paint1_linear_2758_33266)"/>
<path d="M19.425 7.00332C19.285 6.86338 19.0926 6.78174 18.8885 6.78174H0.380205C0.0419941 6.78174 -0.127112 7.18992 0.111969 7.429L3.76815 11.0852C3.9081 11.2251 4.10053 11.3068 4.30462 11.3068H22.8129C23.1511 11.3068 23.3203 10.8986 23.0812 10.6595L19.425 7.00332Z" fill="url(#paint2_linear_2758_33266)"/>
<defs>
<linearGradient id="paint0_linear_2758_33266" x1="21.0449" y1="-2.18413" x2="8.23562" y2="22.3507" gradientUnits="userSpaceOnUse">
<stop stop-color="#00FFA3"/>
<stop offset="1" stop-color="#DC1FFF"/>
</linearGradient>
<linearGradient id="paint1_linear_2758_33266" x1="15.444" y1="-5.10824" x2="2.63473" y2="19.4266" gradientUnits="userSpaceOnUse">
<stop stop-color="#00FFA3"/>
<stop offset="1" stop-color="#DC1FFF"/>
</linearGradient>
<linearGradient id="paint2_linear_2758_33266" x1="18.2266" y1="-3.65546" x2="5.41735" y2="20.8794" gradientUnits="userSpaceOnUse">
<stop stop-color="#00FFA3"/>
<stop offset="1" stop-color="#DC1FFF"/>
</linearGradient>
</defs>
</svg>
