<svg width="104" height="20" viewBox="0 0 104 20" fill="none" xmlns="http://www.w3.org/2000/svg">
<g opacity="0.3" clip-path="url(#clip0_301_471)">
<path d="M35.2303 10.6429H39.15C39.7012 10.6429 40.1478 11.0943 40.1478 11.6454C40.1478 12.2013 39.7012 12.6479 39.15 12.6479H34.4225C34.3465 12.6479 34.2753 12.6764 34.223 12.7239L32.7976 13.9545C32.5791 14.1445 32.7121 14.5009 32.9972 14.5009H38.9125C38.9125 14.5009 38.9172 14.5009 38.9172 14.4961C38.9172 14.4914 38.922 14.4914 38.922 14.4914C38.998 14.4961 39.0693 14.5009 39.15 14.5009C40.7179 14.5009 41.9913 13.2228 41.9913 11.6454C41.9913 10.1488 40.8462 8.91818 39.3828 8.7994C39.3828 8.7994 39.3781 8.7994 39.3781 8.79465C39.3781 8.7899 39.3781 8.7899 39.3733 8.7899H35.1542C34.6031 8.7899 34.1565 8.33853 34.1565 7.78738C34.1565 7.23149 34.6031 6.78487 35.1542 6.78487H39.8722C39.9482 6.78487 40.0243 6.75636 40.0813 6.7041L41.4069 5.47353C41.6159 5.28348 41.4781 4.93188 41.1978 4.93188H35.2303C35.2065 4.93188 35.178 4.93188 35.1542 4.93188C33.5863 4.93188 32.313 6.20997 32.313 7.78738C32.313 9.3648 33.5863 10.6429 35.1542 10.6429C35.178 10.6429 35.2065 10.6429 35.2303 10.6429Z" fill="#565F77"/>
<path d="M58.0505 4.927C57.8795 4.927 57.7417 5.06479 57.7417 5.24058V14.1919C57.7417 14.363 57.8795 14.5055 58.0505 14.5055H65.2249C65.3104 14.5055 65.3912 14.4675 65.453 14.4057L66.351 13.4412C66.5363 13.2417 66.3985 12.9186 66.1229 12.9186H59.8608C59.6897 12.9186 59.5519 12.7808 59.5519 12.605V5.24058C59.5519 5.06954 59.4141 4.927 59.2431 4.927H58.0505Z" fill="#565F77"/>
<path fill-rule="evenodd" clip-rule="evenodd" d="M46.5575 4.927C45.6405 4.96976 44.9041 5.70621 44.8613 6.6232V12.643C44.8613 12.6668 44.8613 12.6953 44.8613 12.719C44.8613 13.674 45.612 14.4532 46.5575 14.4913H53.0667C54.0075 14.4485 54.7629 13.6693 54.7629 12.719C54.7629 12.6953 54.7629 12.6668 54.7629 12.643V6.62795C54.7249 5.71096 53.9885 4.96976 53.0715 4.93175H46.5575V4.927ZM47.7738 6.62795C47.1989 6.6517 46.7381 7.11733 46.7143 7.69698V11.4837C46.7143 11.498 46.7143 11.517 46.7143 11.5312C46.7143 12.1299 47.1847 12.624 47.7738 12.6478H51.8552C52.4443 12.624 52.9147 12.1299 52.9147 11.5312C52.9147 11.517 52.9147 11.498 52.9147 11.4837V7.69698C52.8909 7.11733 52.4301 6.65646 51.8552 6.62795H47.7738Z" fill="#565F77"/>
<path fill-rule="evenodd" clip-rule="evenodd" d="M76.7802 14.1921C76.7802 14.3631 76.918 14.5056 77.089 14.5056H78.3053C78.4764 14.5056 78.6142 14.3679 78.6142 14.1921V6.78012C78.6142 6.75636 78.6142 6.72786 78.6142 6.7041C78.6142 5.7491 77.8682 4.96989 76.937 4.93188H70.6891C70.6653 4.93188 70.6368 4.93188 70.6131 4.93188C69.6438 4.93188 68.8599 5.72534 68.8599 6.70885C68.8599 6.73261 68.8599 6.76111 68.8599 6.78487V14.1921C68.8599 14.3631 68.9976 14.5056 69.1687 14.5056H70.385C70.5561 14.5056 70.6938 14.3679 70.6938 14.1921V11.1085C70.6938 10.9375 70.8316 10.7949 71.0027 10.7949H76.4856C76.6567 10.7949 76.7944 10.9327 76.7944 11.1085V14.1921H76.7802ZM70.6796 9.09397V7.55457C70.6796 6.95591 71.1595 6.47129 71.7486 6.47129H75.7112C76.3003 6.47129 76.7802 6.95591 76.7802 7.55457V9.09397C76.7802 9.26502 76.6424 9.40756 76.4714 9.40756H70.9884C70.8174 9.40756 70.6796 9.26502 70.6796 9.09397Z" fill="#565F77"/>
<path fill-rule="evenodd" clip-rule="evenodd" d="M102.461 14.5008C102.29 14.5008 102.152 14.363 102.152 14.1872V11.1036C102.152 10.9326 102.014 10.79 101.843 10.79H96.2983C96.1273 10.79 95.9895 10.9278 95.9895 11.1036V14.1872C95.9895 14.3582 95.8517 14.5008 95.6807 14.5008H94.4548C94.2838 14.5008 94.146 14.363 94.146 14.1872V6.77999C94.146 6.75623 94.146 6.72772 94.146 6.70397C94.146 5.72521 94.9395 4.927 95.9182 4.927C95.942 4.927 95.9705 4.927 95.9942 4.927H102.313C103.254 4.96976 104.01 5.74897 104.01 6.69922C104.01 6.72297 104.01 6.75148 104.01 6.77524V14.1824C104.01 14.3535 103.872 14.496 103.701 14.496H102.461V14.5008ZM95.9847 7.55444V9.09384C95.9847 9.26489 96.1225 9.40743 96.2936 9.40743H101.838C102.009 9.40743 102.147 9.26964 102.147 9.09384V7.55444C102.147 6.95578 101.662 6.47116 101.069 6.47116H97.0633C96.4646 6.47116 95.9847 6.95578 95.9847 7.55444Z" fill="#565F77"/>
<path d="M83.1896 4.927C83.2799 4.927 83.3654 4.96501 83.4224 5.03628L88.8768 11.5407C89.0621 11.7593 89.4185 11.6263 89.4185 11.3364V5.24058C89.4185 5.06954 89.5563 4.927 89.7273 4.927H90.9436C91.1147 4.927 91.2524 5.06479 91.2524 5.24058V14.1919C91.2524 14.363 91.1147 14.5055 90.9436 14.5055H89.4327C89.428 14.5055 89.4232 14.5008 89.4232 14.496C89.4232 14.4913 89.4232 14.4913 89.4185 14.4865L83.869 8.02957C83.6837 7.81101 83.3274 7.94879 83.3274 8.23387V14.1967C83.3274 14.3677 83.1896 14.5103 83.0185 14.5103H81.7927C81.6217 14.5103 81.4839 14.3725 81.4839 14.1967V5.24058C81.4839 5.06954 81.6217 4.927 81.7927 4.927H83.1896Z" fill="#565F77"/>
<path d="M4.02926 14.8335C4.1813 14.6815 4.3856 14.5959 4.59941 14.5959H24.3883C24.7494 14.5959 24.93 15.0331 24.6734 15.2849L20.7631 19.1952C20.6111 19.3472 20.4068 19.4327 20.193 19.4327H0.40406C0.0429655 19.4327 -0.137582 18.9956 0.118985 18.7438L4.02926 14.8335Z" fill="#565F77"/>
<path d="M4.02926 0.237562C4.1813 0.0855224 4.3856 0 4.59941 0H24.3883C24.7494 0 24.93 0.437115 24.6734 0.688931L20.7631 4.59921C20.6111 4.75125 20.4068 4.83677 20.193 4.83677H0.40406C0.0429655 4.83677 -0.137582 4.39965 0.118985 4.14784L4.02926 0.237562Z" fill="#565F77"/>
<path d="M20.7631 7.48805C20.6111 7.33601 20.4068 7.25049 20.193 7.25049H0.40406C0.0429655 7.25049 -0.137582 7.6876 0.118985 7.93942L4.02926 11.8449C4.1813 11.997 4.3856 12.0825 4.59941 12.0825H24.3883C24.7494 12.0825 24.93 11.6454 24.6734 11.3936L20.7631 7.48805Z" fill="#565F77"/>
</g>
<defs>
<clipPath id="clip0_301_471">
<rect width="104" height="19.4278" fill="white"/>
</clipPath>
</defs>
</svg>
