<svg width="104" height="20" viewBox="0 0 104 20" fill="none" xmlns="http://www.w3.org/2000/svg">
<g opacity="0.1" clip-path="url(#clip0_301_481)">
<path d="M35.2303 10.6426H39.15C39.7012 10.6426 40.1478 11.094 40.1478 11.6452C40.1478 12.201 39.7012 12.6477 39.15 12.6477H34.4225C34.3465 12.6477 34.2753 12.6762 34.223 12.7237L32.7976 13.9543C32.5791 14.1443 32.7121 14.5006 32.9972 14.5006H38.9125C38.9125 14.5006 38.9172 14.5006 38.9172 14.4959C38.9172 14.4911 38.922 14.4911 38.922 14.4911C38.998 14.4959 39.0693 14.5006 39.15 14.5006C40.7179 14.5006 41.9913 13.2226 41.9913 11.6452C41.9913 10.1485 40.8462 8.91794 39.3828 8.79915C39.3828 8.79915 39.3781 8.79915 39.3781 8.7944C39.3781 8.78965 39.3781 8.78965 39.3733 8.78965H35.1542C34.6031 8.78965 34.1565 8.33828 34.1565 7.78714C34.1565 7.23124 34.6031 6.78463 35.1542 6.78463H39.8722C39.9482 6.78463 40.0243 6.75612 40.0813 6.70386L41.4069 5.47328C41.6159 5.28323 41.4781 4.93164 41.1978 4.93164H35.2303C35.2065 4.93164 35.178 4.93164 35.1542 4.93164C33.5863 4.93164 32.313 6.20973 32.313 7.78714C32.313 9.36455 33.5863 10.6426 35.1542 10.6426C35.178 10.6426 35.2065 10.6426 35.2303 10.6426Z" fill="white"/>
<path d="M58.0505 4.92725C57.8795 4.92725 57.7417 5.06503 57.7417 5.24083V14.1922C57.7417 14.3632 57.8795 14.5058 58.0505 14.5058H65.2249C65.3104 14.5058 65.3912 14.4677 65.453 14.406L66.351 13.4415C66.5363 13.2419 66.3985 12.9188 66.1229 12.9188H59.8608C59.6897 12.9188 59.5519 12.7811 59.5519 12.6053V5.24083C59.5519 5.06978 59.4141 4.92725 59.2431 4.92725H58.0505Z" fill="white"/>
<path fill-rule="evenodd" clip-rule="evenodd" d="M46.5575 4.92725C45.6405 4.97001 44.9041 5.70645 44.8613 6.62344V12.6433C44.8613 12.667 44.8613 12.6955 44.8613 12.7193C44.8613 13.6743 45.612 14.4535 46.5575 14.4915H53.0667C54.0075 14.4487 54.7629 13.6695 54.7629 12.7193C54.7629 12.6955 54.7629 12.667 54.7629 12.6433V6.62819C54.7249 5.7112 53.9885 4.97001 53.0715 4.932H46.5575V4.92725ZM47.7738 6.62819C47.1989 6.65195 46.7381 7.11757 46.7143 7.69722V11.484C46.7143 11.4982 46.7143 11.5172 46.7143 11.5315C46.7143 12.1301 47.1847 12.6243 47.7738 12.648H51.8552C52.4443 12.6243 52.9147 12.1301 52.9147 11.5315C52.9147 11.5172 52.9147 11.4982 52.9147 11.484V7.69722C52.8909 7.11757 52.4301 6.6567 51.8552 6.62819H47.7738Z" fill="white"/>
<path fill-rule="evenodd" clip-rule="evenodd" d="M76.7802 14.1918C76.7802 14.3629 76.918 14.5054 77.089 14.5054H78.3053C78.4764 14.5054 78.6142 14.3676 78.6142 14.1918V6.77987C78.6142 6.75612 78.6142 6.72761 78.6142 6.70386C78.6142 5.74885 77.8682 4.96965 76.937 4.93164H70.6891C70.6653 4.93164 70.6368 4.93164 70.6131 4.93164C69.6438 4.93164 68.8599 5.7251 68.8599 6.70861C68.8599 6.73236 68.8599 6.76087 68.8599 6.78463V14.1918C68.8599 14.3629 68.9976 14.5054 69.1687 14.5054H70.385C70.5561 14.5054 70.6938 14.3676 70.6938 14.1918V11.1083C70.6938 10.9372 70.8316 10.7947 71.0027 10.7947H76.4856C76.6567 10.7947 76.7944 10.9325 76.7944 11.1083V14.1918H76.7802ZM70.6796 9.09373V7.55433C70.6796 6.95567 71.1595 6.47104 71.7486 6.47104H75.7112C76.3003 6.47104 76.7802 6.95567 76.7802 7.55433V9.09373C76.7802 9.26478 76.6424 9.40731 76.4714 9.40731H70.9884C70.8174 9.40731 70.6796 9.26478 70.6796 9.09373Z" fill="white"/>
<path fill-rule="evenodd" clip-rule="evenodd" d="M102.461 14.501C102.29 14.501 102.152 14.3632 102.152 14.1874V11.1039C102.152 10.9328 102.014 10.7903 101.843 10.7903H96.2983C96.1273 10.7903 95.9895 10.9281 95.9895 11.1039V14.1874C95.9895 14.3585 95.8517 14.501 95.6807 14.501H94.4548C94.2838 14.501 94.146 14.3632 94.146 14.1874V6.78023C94.146 6.75648 94.146 6.72797 94.146 6.70421C94.146 5.72546 94.9395 4.92725 95.9182 4.92725C95.942 4.92725 95.9705 4.92725 95.9942 4.92725H102.313C103.254 4.97001 104.01 5.74921 104.01 6.69946C104.01 6.72322 104.01 6.75172 104.01 6.77548V14.1827C104.01 14.3537 103.872 14.4963 103.701 14.4963H102.461V14.501ZM95.9847 7.55468V9.09409C95.9847 9.26513 96.1225 9.40767 96.2936 9.40767H101.838C102.009 9.40767 102.147 9.26988 102.147 9.09409V7.55468C102.147 6.95603 101.662 6.4714 101.069 6.4714H97.0633C96.4646 6.4714 95.9847 6.95603 95.9847 7.55468Z" fill="white"/>
<path d="M83.1896 4.92725C83.2799 4.92725 83.3654 4.96526 83.4224 5.03652L88.8768 11.541C89.0621 11.7595 89.4185 11.6265 89.4185 11.3367V5.24083C89.4185 5.06978 89.5563 4.92725 89.7273 4.92725H90.9436C91.1147 4.92725 91.2524 5.06503 91.2524 5.24083V14.1922C91.2524 14.3632 91.1147 14.5058 90.9436 14.5058H89.4327C89.428 14.5058 89.4232 14.501 89.4232 14.4963C89.4232 14.4915 89.4232 14.4915 89.4185 14.4868L83.869 8.02981C83.6837 7.81125 83.3274 7.94904 83.3274 8.23411V14.1969C83.3274 14.368 83.1896 14.5105 83.0185 14.5105H81.7927C81.6217 14.5105 81.4839 14.3727 81.4839 14.1969V5.24083C81.4839 5.06978 81.6217 4.92725 81.7927 4.92725H83.1896Z" fill="white"/>
<path d="M4.02926 14.8333C4.1813 14.6812 4.3856 14.5957 4.59941 14.5957H24.3883C24.7494 14.5957 24.93 15.0328 24.6734 15.2846L20.7631 19.1949C20.6111 19.3469 20.4068 19.4325 20.193 19.4325H0.40406C0.0429655 19.4325 -0.137582 18.9954 0.118985 18.7435L4.02926 14.8333Z" fill="white"/>
<path d="M4.02926 0.237562C4.1813 0.0855224 4.3856 0 4.59941 0H24.3883C24.7494 0 24.93 0.437115 24.6734 0.688931L20.7631 4.59921C20.6111 4.75125 20.4068 4.83677 20.193 4.83677H0.40406C0.0429655 4.83677 -0.137582 4.39965 0.118985 4.14784L4.02926 0.237562Z" fill="white"/>
<path d="M20.7631 7.48805C20.6111 7.33601 20.4068 7.25049 20.193 7.25049H0.40406C0.0429655 7.25049 -0.137582 7.6876 0.118985 7.93942L4.02926 11.8449C4.1813 11.997 4.3856 12.0825 4.59941 12.0825H24.3883C24.7494 12.0825 24.93 11.6454 24.6734 11.3936L20.7631 7.48805Z" fill="white"/>
</g>
<defs>
<clipPath id="clip0_301_481">
<rect width="104" height="19.4278" fill="white"/>
</clipPath>
</defs>
</svg>
