<?xml version="1.0" encoding="utf-8"?><svg xmlns="http://www.w3.org/2000/svg" xmlns:xlink="http://www.w3.org/1999/xlink"><symbol viewBox="32.163 68.509 203.691 228.155" id="ad" xmlns="http://www.w3.org/2000/svg"><path d="M101.885 207.092c7.865 0 14.241 6.376 14.241 14.241v61.09c0 7.865-6.376 14.24-14.241 14.24-7.864 0-14.24-6.375-14.24-14.24v-61.09c0-7.864 6.376-14.24 14.24-14.24z"/><path d="M69.374 133.645c-.047.54-.088 1.086-.088 1.638v92.557c0 9.954 7.879 17.973 17.66 17.973h94.124c9.782 0 17.661-8.02 17.661-17.973v-92.557c0-.552-.02-1.1-.066-1.638H69.374z"/><path d="M166.133 207.092c7.865 0 14.241 6.376 14.241 14.241v61.09c0 7.865-6.376 14.24-14.241 14.24-7.864 0-14.24-6.375-14.24-14.24v-61.09c0-7.864 6.376-14.24 14.24-14.24zm-119.728-65.21c7.864 0 14.24 6.376 14.24 14.241v61.09c0 7.865-6.376 14.241-14.24 14.241-7.865 0-14.241-6.376-14.241-14.24v-61.09c-.001-7.865 6.375-14.242 14.241-14.242zm175.209 0c7.864 0 14.24 6.376 14.24 14.241v61.09c0 7.865-6.376 14.241-14.24 14.241-7.865 0-14.241-6.376-14.241-14.24v-61.09c0-7.865 6.376-14.242 14.241-14.242zM69.79 127.565c.396-28.43 25.21-51.74 57.062-54.812h14.312c31.854 3.073 56.666 26.384 57.062 54.812H69.79zM74.743 70.009l15.022 26.02m103.511-26.02l-15.023 26.02"/><path d="M114.878 102.087c.012 3.974-3.277 7.205-7.347 7.216-4.068.01-7.376-3.202-7.388-7.176v-.04c-.011-3.975 3.278-7.205 7.347-7.216 4.068-.011 7.376 3.2 7.388 7.176v.04zm54.996 0c.012 3.974-3.277 7.205-7.347 7.216-4.068.01-7.376-3.202-7.388-7.176v-.04c-.011-3.975 3.278-7.205 7.347-7.216 4.068-.011 7.376 3.2 7.388 7.176v.04z"/></symbol><symbol viewBox="0 0 5 3" id="arrow" xmlns="http://www.w3.org/2000/svg"><path d="M4.883.115a.395.395 0 0 0-.557 0l-1.42 1.4-1.398-1.4A.395.395 0 1 0 .95.676l1.676 1.676a.395.395 0 0 0 .561 0L4.883.676a.395.395 0 0 0 0-.561z"/></symbol><symbol viewBox="0 0 6 8" id="arrow-bd" xmlns="http://www.w3.org/2000/svg"><path d="M4.526 4.635l.001-.001a1.055 1.055 0 0 0 .306-.75l-.5.004.5-.002a1.055 1.055 0 0 0-.306-.739l-.001-.001L2.306.925 2.291.91 2.277.9A1.055 1.055 0 0 0 .789 2.386l.013.015.013.014 1.473 1.472L.81 5.36a1.057 1.057 0 1 0 1.495 1.496l2.221-2.22z"/></symbol><symbol viewBox="0 0 7 11" id="arrow-left" xmlns="http://www.w3.org/2000/svg"><path d="M3.714 5.824l2.394-2.386a1.336 1.336 0 1 0-1.889-1.89L.888 4.878l-.002.002a1.333 1.333 0 0 0-.386.946c.001.35.14.685.386.933l.002.001 3.331 3.331.014.014.014.013a1.332 1.332 0 0 0 1.81-.07l-.354-.354.354.354a1.333 1.333 0 0 0 .07-1.81l-.013-.014L6.1 8.21 3.714 5.824z"/></symbol><symbol viewBox="0 0 788 788" id="bch" xmlns="http://www.w3.org/2000/svg"><title>12-bitcoin-cash-square-crop</title><circle class="aecls-1" cx="394" cy="394" r="394"/><path class="aecls-2" d="M551.124 407.914l-.187-.346-.031-.058c-.113-.348-.2-.713-.326-1.089l-.016-.03-.016-.029-.016-.029-.016-.029-.016-.029-.016-.029-.032-.058a68.435 68.435 0 0 0-22.372-33.478l-.015-.029c-.315-.24-.646-.51-.962-.747l-.435-.324-.315-.239-.135-.114-.3-.211-.135-.113-.3-.211-.135-.113-.315-.239-.165-.1-.315-.239-.165-.1-.34-.224-.165-.1-.2-.3-.18-.127-.34-.224-.179-.127-.341-.225-.179-.126-.34-.225-.18-.127-.36-.255-.179-.127-.388-.238-.18-.126-.387-.239-.18-.126-.388-.239-.179-.126-.388-.239-.209-.11-.388-.238-.208-.111-.418-.222-.208-.11-.433-.251-.208-.11-.433-.25-.209-.111-.433-.25-.224-.139-.433-.251-.225-.139-.461-.236-.224-.139-.462-.236-.312-.17-.016-.029c-.224-.139-.461-.236-.686-.376a95.508 95.508 0 0 0-30.588-9.665 85.552 85.552 0 0 0 8.195-10.293l.393-.584.029-.016.182-.284.238-.388.127-.18.238-.387.126-.18.239-.388.126-.179.239-.388.126-.18.238-.388.126-.179.209-.374.127-.179.208-.374.1-.165.208-.373.1-.165.208-.373.1-.165.18-.358.1-.165.179-.357.1-.165.179-.357.1-.165.195-.329.1-.165.2-.328.1-.165.171-.312.1-.165.17-.313.069-.148.171-.313.068-.149.171-.312.068-.149.171-.312.069-.149.137-.3.069-.149.138-.3.069-.149.138-.3.069-.148.151-.341.207-.445c.151-.341.273-.668.425-1.01l.029-.016a60.785 60.785 0 0 0 3.088-35.684l-.016-.029-.032-.058-.016-.029-.015-.029-.016-.029-.016-.029-.017-.029-.015-.028a11.288 11.288 0 0 0-.235-.992v-.073l-.016-.029-.016-.029-.016-.028.016.028-.14-.259c-.1-.466-.2-.936-.35-1.411-.1-.466-.248-.946-.379-1.4l-.171-.317-.031-.058c-.1-.319-.195-.64-.293-.959l-.017-.029-.016-.029-.016-.029-.015-.029-.016-.028-.017-.029-.015-.029a60.8 60.8 0 0 0-19.9-29.784l-.017-.03c-.27-.227-.57-.438-.841-.663l-.374-.283-.3-.22-.135-.113-.256-.2-.135-.114-.255-.2-.135-.113-.284-.182-.136-.113-.3-.211-.135-.113-.3-.211-.136-.113-.3-.211-.165-.1-.3-.211-.165-.1-.3-.211-.165-.1-.328-.195-.165-.1-.328-.195-.165-.1-.329-.195-.165-.1-.328-.2-.165-.1-.34-.225-.165-.1-.345-.224-.165-.1-.373-.209-.165-.1-.373-.209-.18-.127-.373-.208-.179-.127-.373-.208-.18-.127-.387-.238-.209-.111-.388-.238-.208-.11-.418-.223-.208-.11-.418-.222-.3-.138-.016-.029-.626-.332c-18.294-9.508-41.536-12.371-64.92-6.372l-6.083 1.562-15.415-59.862-35.652 9.14 15.3 59.681-28.521 7.316-15.348-59.486L280.027 210l15.335 59.676-73.529 18.924 9.783 38.025 29.627-7.609a18.335 18.335 0 0 1 22.332 13.178l.008.034 41.128 160.01a12.249 12.249 0 0 1-8.8 14.9l-25.96 6.678 1.525 45.223 73.435-18.874 15.537 59.568 35.636-9.169-15.35-59.706 28.521-7.316 15.35 59.7 35.636-9.169-15.4-59.938a6704.9 6704.9 0 0 1 14.827-3.85c26.353-6.779 47.663-22.232 60.558-41.494l.436-.643.029-.016.211-.3.28-.448.139-.225.28-.448.14-.225.25-.433.139-.224.25-.433.111-.209.25-.433.111-.208.25-.433.11-.209.222-.417.111-.209.222-.417.11-.209.239-.388.11-.208.238-.388.111-.208.208-.374.111-.208.208-.373.111-.208.208-.373.085-.193.209-.373.085-.193.179-.357.1-.165.18-.357.1-.165.179-.358.1-.165.179-.357.1-.165.18-.357.1-.165.18-.358.1-.165.151-.34.1-.165.151-.34.069-.149.165-.386.221-.491c.165-.386.344-.744.479-1.114l.014-.045a68.5 68.5 0 0 0 3.482-40.138l-.016-.029-.016-.029-.016-.029-.016-.029-.016-.029-.016-.029-.016-.029-.016-.029-.255-1.092v-.073l-.015-.029-.016-.029-.017-.029-.016-.029-.015-.029-.016-.029-.016-.029-.016-.029-.016-.028-.016-.029-.016-.029-.015-.029-.016-.029-.063-.115c-.132-.523-.237-1.062-.4-1.572-.025-.318-.101-.874-.133-1.489zM341.641 300.876c6.083-1.561 31.233-7.878 39.526-10.037 13.185-3.375 26.172-2.065 36.323 2.82l.341.151.148.069.209.11.1.056.208.11.1.056.208.11.1.056.209.11.1.055.209.111.1.055.209.111.1.055.208.111.1.055.208.111.1.055.208.111.1.055.18.127.1.055.179.127.1.055.179.127.1.055.165.1.1.055.165.1.1.055.165.1.1.055.165.1.1.055.165.1.076.072.165.1.06.041.165.1.059.042.165.1.06.041.165.1.059.042.136.113.059.042.165.1.225.14c.165.1.315.241.48.34a30.749 30.749 0 0 1 10.9 15.612l.046.085c.048.16.113.348.161.51l.016.03.094.17c.066.262.146.48.214.741a4.436 4.436 0 0 1 .142.817l.093.17.016.029a2.557 2.557 0 0 0 .133.523l.046.085a30.857 30.857 0 0 1-2.029 18.931l-.234.535-.124.255-.1.165-.027.089-.069.149-.027.089-.1.165-.027.086-.1.165-.027.089-.1.165-.027.085-.1.165-.027.089-.1.165-.028.09-.1.165-.056.1-.1.165-.056.1-.1.165-.055.1-.1.165-.055.1-.127.179-.055.1-.127.18-.055.1-.127.179-.055.1-.127.179-.055.1-.127.18-.055.1-.127.18-.055.1-.127.179-.055.1-.127.179-.055.1-.156.195-.055.1-.156.195-.055.1-.156.195-.055.1-.156.195-.113.135-.211.3c-6.557 9.188-17.3 16.609-30.485 19.983-8.309 2.127-33.393 8.706-39.471 10.268zM481 423.55l.094.17.016.029c.035.2.085.364.12.568l.016.03.016.029.017.029.016.029a31.694 31.694 0 0 1-2.867 20.675l-.319.581-.153.269-.111.208-.055.1-.1.165-.055.1-.1.165-.055.1-.127.179-.055.1-.127.179-.055.1-.127.18-.055.1-.127.179-.055.1-.127.179-.055.1-.127.18-.055.1-.127.18-.055.1-.127.179-.055.1-.127.179-.055.1-.156.195-.055.1-.156.195-.055.1-.14.225-.055.1-.141.224-.055.1-.139.225-.086.12-.139.224-.085.12-.17.239-.085.12-.17.239-.086.12-.17.239-.085.12-.17.239-.085.12-.17.239-.142.152-.269.33c-7.964 10.169-20.807 18.533-36.409 22.537-9.836 2.54-39.562 10.314-46.794 12.16l-20.237-78.739c7.217-1.872 37.025-9.357 46.861-11.9 15.6-4 30.914-2.869 42.754 2.186l.386.165.193.085.283.108.132.039.256.124.132.039.256.125.132.039.255.124.1.055.255.124.1.056.255.124.1.055.255.124.1.056.209.11.1.056.209.11.1.056.208.11.1.055.208.111.1.055.208.111.1.055.209.111.1.055.209.111.1.055.208.111.1.055.208.11.1.056.179.126.1.056.18.127.1.055.18.127.1.055.179.127.1.055.18.127.1.055.165.1.1.055.18.127.239.17c.179.127.388.238.569.364a31.789 31.789 0 0 1 12.547 16.799l.062.115c.064.188.113.349.177.537l.016.028.093.171c.067.262.133.523.216.815.147.063.17.385.125.782z"/></symbol><symbol id="bch-logo" viewBox="0 0 55.2 70.3" xmlns="http://www.w3.org/2000/svg"><style>.afst0{fill:#363635}</style><title>Artboard 51</title><path class="afst0" d="M54.9 30.5c1.7-7.3-3.6-11.7-11.1-14.9L47 5.8l-5.9-2-3.1 9.6c-1.6-.5-3.2-1-4.7-1.6l3.2-9.5-6-2-3.2 9.8c-1.3-.4-2.6-.8-3.8-1.3l-8.2-2.7-2.1 6.3s4.4 1.4 4.3 1.4c2.4.8 2.7 2.5 2.6 3.7l-3.7 11.1c.2.1.4.1.6.2l-.7-.2L11 44.4c-.5 1.1-1.8 1.6-2.9 1.2.1.1-4.3-1.4-4.3-1.4L.2 50.9 8 53.4l4.3 1.4L9 64.7l6 2 3.2-9.8c1.6.5 3.2 1.1 4.7 1.6l-3.2 9.7 6 2 3.3-9.9c10.2 2.9 18 2.7 22-6.4 3.2-7.4.8-11.9-4.5-15.2 3.9-.5 7.1-2.9 8.4-8.2zM39.6 48.9c-2.4 7.4-14.8 2.3-18.9 1L25 36.7c4.1 1.4 17.1 4.5 14.6 12.2zm3.3-19.4c-2.2 6.7-12.5 2.4-15.9 1.3l4-11.9c3.4 1.1 14.3 3.6 11.9 10.6z"/></symbol><symbol viewBox="0 0 2500.01 2500" id="bnb-logo" xmlns="http://www.w3.org/2000/svg"><defs><style>.agcls-1{fill:#f3ba2f}</style></defs><title>bi</title><g id="agLayer_2" data-name="Layer 2"><g id="agLayer_1-2" data-name="Layer 1"><path class="agcls-1" d="M764.48 1050.52L1250 565l485.75 485.73 282.5-282.5L1250 0 482 768l282.49 282.5M0 1250l282.51-282.55L565 1249.94l-282.51 282.51zm764.48 199.51L1250 1935l485.74-485.72 282.65 282.35-.14.15L1250 2500l-768-768-.4-.4 282.91-282.12M1935 1250.12l282.51-282.51L2500 1250.1l-282.5 282.51z"/><path class="agcls-1" d="M1536.52 1249.85h.12L1250 963.19 1038.13 1175l-24.34 24.35-50.2 50.21-.4.39.4.41L1250 1536.81l286.66-286.66.14-.16-.26-.14"/></g></g></symbol><symbol viewBox="0 0 258 258" id="btc" xmlns="http://www.w3.org/2000/svg"><path d="M118.667 133.206l23.426 6.277c10.933 2.929 15.486 11.96 12.437 22.303-2.023 7.548-7.22 13.409-14.165 14.338-2.621.413-6.075-.234-8.938-1l-22.385-5.999 9.625-35.92zm41.846-39.562c3.987 3.858 4.935 9.692 3.331 15.678-2.51 9.37-9.72 14.413-19.09 11.903l-21.345-5.72 8.44-31.495 18.74 5.022c4.165 1.116 7.67 2.613 9.924 4.612zm-31.816 99.998l-4.882 18.22-12.234-3.278 4.882-18.22-12.754-3.418-4.882 18.221-12.234-3.278 4.883-18.221-24.468-6.556 4.463-16.658 7.549 2.023c3.904 1.046 7.604-1.31 8.58-4.955l19.738-73.662c1.047-3.905-1.31-7.604-4.953-8.58-5.033-1.35-7.55-2.023-7.55-2.023s1.489-5.553 4.464-16.66l24.468 6.557 4.882-18.22 12.234 3.277L136 66.431l12.754 3.418 4.882-18.22 12.234 3.278-4.952 18.48c6.177 1.935 10.913 4.04 15.301 7.448 9.817 7.094 14.645 19.268 11.019 32.803-3.07 11.454-10.786 19.429-21.742 21.793 12.349 8.052 15.198 21.37 11.78 34.124-4.654 16.328-18.795 25.372-32.925 26.05-5.624.166-10.449-.569-15.655-1.963zM5.362 95.87c-18.274 68.196 22.312 138.494 90.51 156.768 68.195 18.273 138.494-22.314 156.767-90.51 18.273-68.197-22.314-138.494-90.51-156.768C93.932-12.912 23.635 27.675 5.362 95.871z" fill-rule="evenodd"/></symbol><symbol id="btc-logo" viewBox="0 0 49.14 68.03" xmlns="http://www.w3.org/2000/svg"><defs><style>.aicls-1{fill:#363635}</style></defs><path class="aicls-1" d="M45.49 21c-.7-7.42-7.1-9.93-15.19-10.66V.04h-6.25v10h-5V0h-6.27v10.3H.14L.1 17s4.63-.08 4.55 0c2.54 0 3.37 1.48 3.6 2.75v11.74a5.92 5.92 0 0 1 .67 0h-.69L8.18 48a2.21 2.21 0 0 1-2.36 2c.08.07-4.56 0-4.56 0L0 57.5h12.64v10.42h6.27v-10.3c1.72 0 3.38.06 5 .06v10.26h6.27v-10.4C40.72 57.06 48.1 54.42 49 44.53c.76-8-3-11.54-9-13 3.64-1.85 5.92-5.1 5.4-10.54zm-8.83 22.25c0 7.79-13.34 6.87-17.59 6.86v-13.8c4.25 0 17.58-1.17 17.56 6.94zm-2.87-19.47c0 7.08-11.13 6.22-14.67 6.22V17.48c3.57.01 14.69-1.09 14.67 6.3z"/></symbol><symbol viewBox="0 0 16 17" id="cab-menu-1" xmlns="http://www.w3.org/2000/svg"><path d="M10.97 8.615a4.824 4.824 0 1 0-5.965 0 8.04 8.04 0 0 0-5 6.576.809.809 0 0 0 1.608.177 6.432 6.432 0 0 1 12.783 0 .804.804 0 0 0 .803.715h.089a.804.804 0 0 0 .707-.884 8.04 8.04 0 0 0-5.024-6.584zm-2.982-.571a3.216 3.216 0 1 1 0-6.432 3.216 3.216 0 0 1 0 6.432z"/></symbol><symbol viewBox="0 0 14 16" id="cab-menu-2" xmlns="http://www.w3.org/2000/svg"><path d="M13.378 4.297v-.064l-.047-.119a.566.566 0 0 0-.056-.071.752.752 0 0 0-.071-.095l-.072-.056-.127-.063L7.061.159a.793.793 0 0 0-.84 0L.322 3.829l-.071.063-.072.056a.746.746 0 0 0-.071.095.563.563 0 0 0-.056.071l-.047.12v.063a.912.912 0 0 0 0 .206v6.928a.793.793 0 0 0 .372.673l5.945 3.67a.37.37 0 0 0 .12.048h.063a.68.68 0 0 0 .412 0h.063a.37.37 0 0 0 .12-.048l5.904-3.67a.793.793 0 0 0 .373-.673V4.503a.922.922 0 0 0 0-.206zm-7.506 9.385l-4.36-2.695V5.929l4.36 2.688v5.065zm.792-6.437L2.225 4.503l4.44-2.735 4.438 2.735-4.439 2.742zm5.152 3.742l-4.36 2.695V8.617l4.36-2.688v5.058z"/></symbol><symbol viewBox="0 0 16 16" id="cab-menu-3" xmlns="http://www.w3.org/2000/svg"><path d="M13.475 4.003h-.792v-.792A2.378 2.378 0 0 0 10.305.833H2.378A2.378 2.378 0 0 0 0 3.21v9.512A2.378 2.378 0 0 0 2.378 15.1h11.097a2.378 2.378 0 0 0 2.378-2.377V6.38a2.378 2.378 0 0 0-2.378-2.378zM2.378 2.418h7.927a.793.793 0 0 1 .792.793v.792H2.378a.793.793 0 1 1 0-1.585zm11.89 7.926h-.793a.792.792 0 1 1 0-1.585h.793v1.585zm0-3.17h-.793a2.378 2.378 0 1 0 0 4.756h.793v.793a.793.793 0 0 1-.793.792H2.378a.793.793 0 0 1-.793-.793V5.455c.255.09.523.135.793.134h11.097a.793.793 0 0 1 .793.793v.793z"/></symbol><symbol viewBox="0 0 15 16" id="cab-menu-4" xmlns="http://www.w3.org/2000/svg"><path d="M7.039.04a7.927 7.927 0 0 0-5.454 2.195V.832A.793.793 0 1 0 0 .832V4.4a.793.793 0 0 0 .793.793H4.36a.793.793 0 1 0 0-1.585H2.457a6.341 6.341 0 1 1 4.582 10.7.793.793 0 1 0 0 1.586 7.927 7.927 0 1 0 0-15.853zm0 4.756a.793.793 0 0 0-.793.792v2.378a.793.793 0 0 0 .793.793h1.585a.793.793 0 1 0 0-1.585h-.793V5.588a.793.793 0 0 0-.792-.792z"/></symbol><symbol viewBox="0 0 13 16" id="cab-menu-5" xmlns="http://www.w3.org/2000/svg"><path d="M12.586 6.024a.792.792 0 0 0-.706-.436H7.917V.832A.793.793 0 0 0 6.88.038a.793.793 0 0 0-.398.287L.141 9.045a.793.793 0 0 0-.064.792.792.792 0 0 0 .706.507h3.963V15.1a.793.793 0 0 0 1.435.468l6.341-8.72a.793.793 0 0 0 .064-.824zM6.332 12.66V9.552a.793.793 0 0 0-.793-.793h-3.17l3.963-5.485V6.38a.793.793 0 0 0 .792.793h3.17l-3.962 5.485z"/></symbol><symbol viewBox="0 0 16 16" id="cab-menu-6" xmlns="http://www.w3.org/2000/svg"><path d="M6.239 12.366l-1.403 1.363a1.962 1.962 0 1 1-2.774-2.774L5.66 7.348a1.95 1.95 0 0 1 2.687-.071l.096.08a.793.793 0 1 0 1.11-1.134 2.182 2.182 0 0 0-.143-.167 3.535 3.535 0 0 0-4.828.175L.936 9.837a3.551 3.551 0 0 0 5.018 5.018l1.37-1.34a.793.793 0 0 0-1.085-1.15zm8.474-11.288a3.56 3.56 0 0 0-5.018 0l-1.371 1.34a.793.793 0 0 0 1.086 1.15l1.37-1.364a1.962 1.962 0 0 1 2.775 2.774L9.957 8.585a1.95 1.95 0 0 1-2.688.071l-.095-.08a.793.793 0 1 0-1.11 1.134c.058.06.119.115.183.167a3.543 3.543 0 0 0 4.827-.175l3.607-3.606a3.559 3.559 0 0 0 .032-5.018z"/></symbol><symbol viewBox="0 0 16 16" id="cab-menu-7" xmlns="http://www.w3.org/2000/svg"><path d="M15.314 6.024l-1.498-.499.706-1.41a.793.793 0 0 0-.151-.905l-1.688-1.688a.793.793 0 0 0-.912-.15l-1.41.705-.5-1.498a.793.793 0 0 0-.745-.54H6.738a.793.793 0 0 0-.753.54l-.5 1.498-1.41-.706a.793.793 0 0 0-.904.151L1.482 3.21a.793.793 0 0 0-.15.912l.705 1.41-1.498.5A.793.793 0 0 0 0 6.777v2.378a.793.793 0 0 0 .539.753l1.498.5-.705 1.41a.792.792 0 0 0 .15.904l1.689 1.689a.793.793 0 0 0 .911.15l1.411-.705.5 1.498a.792.792 0 0 0 .753.539h2.378a.792.792 0 0 0 .753-.539l.499-1.498 1.41.705a.793.793 0 0 0 .897-.15l1.688-1.689a.793.793 0 0 0 .15-.911l-.705-1.411 1.498-.5a.792.792 0 0 0 .54-.745V6.777a.792.792 0 0 0-.54-.753zm-1.046 2.56l-.951.318a1.586 1.586 0 0 0-.92 2.235l.452.904-.872.872-.88-.476a1.586 1.586 0 0 0-2.211.92l-.317.95h-1.26l-.318-.95a1.586 1.586 0 0 0-2.235-.92l-.904.452-.872-.872.476-.88a1.586 1.586 0 0 0-.92-2.235l-.95-.317V7.348l.95-.317a1.585 1.585 0 0 0 .92-2.235l-.452-.88.872-.872.88.452a1.585 1.585 0 0 0 2.235-.92l.317-.95h1.237l.317.95a1.585 1.585 0 0 0 2.235.92l.904-.452.872.872-.476.88a1.587 1.587 0 0 0 .92 2.211l.95.317v1.26zM7.927 4.797a3.17 3.17 0 1 0 0 6.341 3.17 3.17 0 0 0 0-6.341zm0 4.756a1.585 1.585 0 1 1 0-3.17 1.585 1.585 0 0 1 0 3.17z"/></symbol><symbol viewBox="0 0 17 17" id="cab-menu-8" xmlns="http://www.w3.org/2000/svg"><path d="M16.859 6.1a.844.844 0 0 0-.725-.565l-4.798-.7-2.15-4.36a.843.843 0 0 0-1.518 0l-2.15 4.352-4.798.708a.843.843 0 0 0-.683.573.843.843 0 0 0 .21.844l3.483 3.372-.843 4.79a.843.843 0 0 0 1.24.91l4.3-2.25 4.3 2.25a.784.784 0 0 0 .388.102.843.843 0 0 0 .79-.533.843.843 0 0 0 .045-.47l-.843-4.79 3.482-3.373a.843.843 0 0 0 .27-.86zm-5.186 3.373a.842.842 0 0 0-.245.742l.608 3.541-3.17-1.686a.893.893 0 0 0-.793 0l-3.17 1.686.606-3.541a.843.843 0 0 0-.244-.742l-2.53-2.53 3.55-.514a.843.843 0 0 0 .64-.464l1.502-3.213 1.585 3.221a.844.844 0 0 0 .64.464l3.55.514-2.529 2.522z"/></symbol><symbol viewBox="0 0 20 18" id="cab-menu-9" xmlns="http://www.w3.org/2000/svg"><path d="M15.982 8.23l-.297 3.574-.86 1.376-3.183-1.559a.318.318 0 0 0-.386.085l-1.103 1.342-.536-.43a.318.318 0 0 0-.292-.056l-1.92.586a.319.319 0 0 0-.188.156l-1.24 2.364a.319.319 0 1 0 .564.296l1.177-2.246 1.631-.497 1.648 1.322a.319.319 0 1 0 .4-.497l-.748-.599.939-1.143 3.115 1.526 1.45 2.991a.319.319 0 0 0 .575-.277l-.722-1.49 2.23-.113a.319.319 0 0 0 .302-.334.315.315 0 0 0-.335-.302l-2.5.127-.397-.819.96-1.536a.317.317 0 0 0 .047-.142l.293-3.508 2.856-2.114a.319.319 0 1 0-.379-.512L16.11 8a.318.318 0 0 0-.128.228z"/><path d="M15.106 8.246a.318.318 0 0 0 .313-.264l.403-2.317a.318.318 0 1 0-.628-.11l-.402 2.317a.319.319 0 0 0 .314.374zM9.707 9.665l1.966 1.334a.318.318 0 0 0 .357-.527l-1.966-1.334a.319.319 0 0 0-.45.08c-.048.071-.065.159-.048.243a.318.318 0 0 0 .14.204zM16.129 4.78a1.383 1.383 0 1 0 0-2.766 1.383 1.383 0 0 0 0 2.767zm0-2.13a.746.746 0 1 1 0 1.493.746.746 0 0 1 0-1.492zM1.708 13.347a.638.638 0 0 0 .903 0l6.07-6.07a.318.318 0 0 0-.45-.45l-6.073 6.07-.62-.623 6.07-6.07a.318.318 0 1 0-.45-.45l-6.07 6.07a.638.638 0 0 0 0 .903l.62.62zM2.873.643A17.87 17.87 0 0 1 7.63 4.218l-.076.076a.318.318 0 0 0 0 .45L9.65 6.84a.319.319 0 0 0 .45 0l.076-.076a17.865 17.865 0 0 1 3.575 4.758.319.319 0 0 0 .6-.086c.023-.13.516-3.155-2.555-6.293l.153-.152a.319.319 0 0 0 0-.45l-.312-.313.88-.88a.319.319 0 0 0 0-.451l-1.019-1.02a.319.319 0 0 0-.45.45l.794.795-.655.656-1.333-1.333a.319.319 0 0 0-.45 0l-.152.152C6.113-.476 3.09.019 2.96.043a.319.319 0 0 0-.086.6zM13.7 10.109a18.67 18.67 0 0 0-3.072-3.797l.718-.717c1.682 1.725 2.208 3.42 2.354 4.513zM8.802 3.047l-.045.046a.319.319 0 0 0 .45.45l.266-.265.157-.156 1.644 1.645-1.398 1.398-1.645-1.646.066-.066a.319.319 0 0 0 .017-.433A18.25 18.25 0 0 0 4.286.694c1.094.146 2.79.669 4.516 2.353z"/></symbol><symbol viewBox="0 0 18 18" id="cancel" xmlns="http://www.w3.org/2000/svg"><path d="M14.245 0H3.755C1.685 0 0 1.692 0 3.772v10.456C0 16.308 1.684 18 3.755 18h10.49C16.315 18 18 16.308 18 14.228V3.772C18 1.692 16.316 0 14.245 0zm2.38 14.228a2.388 2.388 0 0 1-2.38 2.39H3.755a2.388 2.388 0 0 1-2.38-2.39V3.772a2.388 2.388 0 0 1 2.38-2.39h10.49a2.388 2.388 0 0 1 2.38 2.39v10.456z"/><path d="M12.234 5.588a.569.569 0 0 0-.805-.003L8.9 8.103 6.373 5.567a.569.569 0 0 0-.806 0 .572.572 0 0 0 0 .808l2.526 2.533-2.506 2.496a.572.572 0 0 0 .402.977c.145 0 .29-.055.401-.166L8.9 9.716l2.51 2.517a.567.567 0 0 0 .805 0 .572.572 0 0 0 0-.808L9.707 8.91l2.525-2.515a.572.572 0 0 0 .002-.808z"/></symbol><symbol viewBox="0 0 7 6" id="check" xmlns="http://www.w3.org/2000/svg"><path d="M6.839.647a.498.498 0 0 0-.707 0l-3.71 3.716-1.56-1.564a.509.509 0 1 0-.707.732l1.913 1.912a.498.498 0 0 0 .707 0L6.839 1.38a.498.498 0 0 0 0-.732z"/></symbol><symbol id="copy-icon" viewBox="0 0 115.77 122.88" xmlns="http://www.w3.org/2000/svg"><style>.aust0{fill-rule:evenodd;clip-rule:evenodd}</style><path class="aust0" d="M89.62 13.96v7.73h12.2v.02c3.85.01 7.34 1.57 9.86 4.1 2.5 2.51 4.06 5.98 4.07 9.82h.02v73.3h-.02c-.01 3.84-1.57 7.33-4.1 9.86-2.51 2.5-5.98 4.06-9.82 4.07v.02H40.1v-.02c-3.84-.01-7.34-1.57-9.86-4.1-2.5-2.51-4.06-5.98-4.07-9.82h-.02V92.51h-12.2v-.02c-3.84-.01-7.34-1.57-9.86-4.1-2.5-2.51-4.06-5.98-4.07-9.82H0V13.95h.02c.01-3.85 1.58-7.34 4.1-9.86C6.63 1.59 10.1.03 13.94.02V0h61.73v.02c3.85.01 7.34 1.57 9.86 4.1 2.5 2.51 4.06 5.98 4.07 9.82h.02v.02zm-10.58 7.73v-7.75h.02c0-.91-.39-1.75-1.01-2.37-.61-.61-1.46-1-2.37-1v.02H13.95v-.02c-.91 0-1.75.39-2.37 1.01-.61.61-1 1.46-1 2.37h.02v64.62h-.02c0 .91.39 1.75 1.01 2.37.61.61 1.46 1 2.37 1v-.02h12.2V35.64h.02c.01-3.85 1.58-7.34 4.1-9.86 2.51-2.5 5.98-4.06 9.82-4.07v-.02h38.94zm26.14 87.23V35.63h.02c0-.91-.39-1.75-1.01-2.37-.61-.61-1.46-1-2.37-1v.02H40.09v-.02c-.91 0-1.75.39-2.37 1.01-.61.61-1 1.46-1 2.37h.02v73.3h-.02c0 .91.39 1.75 1.01 2.37.61.61 1.46 1 2.37 1v-.02h61.73v.02c.91 0 1.75-.39 2.37-1.01.61-.61 1-1.46 1-2.37h-.02v-.01z"/></symbol><symbol viewBox="0 0 256 256" id="dash" xmlns="http://www.w3.org/2000/svg"><path d="M128 256c70.692 0 128-57.308 128-128C256 57.308 198.692 0 128 0 57.308 0 0 57.308 0 128c0 70.692 57.308 128 128 128zM71.519 103.269c.12-.432.217-.86.355-1.273 2.469-7.398 4.942-14.794 7.416-22.19.43-1.288.433-1.291 1.816-1.291l73.246-.001c13.361 0 26.722.011 40.083-.007 3.812-.006 7.342.988 10.646 2.822 1.776.985 3.177 2.383 4.25 4.121 1.79 2.898 2.648 6.058 3.033 9.427.388 3.411-.23 6.586-1.363 9.786-1.548 4.37-2.85 8.827-4.257 13.247-3.595 11.294-7.17 22.595-10.8 33.878-.76 2.36-2.012 4.515-3.188 6.695-2.382 4.414-5.868 7.847-9.642 11.047-2.749 2.331-5.876 4.063-8.97 5.866-2.835 1.652-5.938 2.332-9.125 2.719-1.566.19-3.158.222-4.738.223-37.19.011-74.382.01-111.573.007-.541 0-1.082-.035-1.775-.058.098-.475.134-.838.247-1.175a16777.6 16777.6 0 0 1 7.59-22.684c.345-1.031.359-1.031 1.576-1.031 14.98-.002 29.96-.001 44.94-.001h56.509c1.132-.007 1.138-.005 1.5-1.112 2.603-7.97 5.2-15.941 7.805-23.91 2.54-7.774 5.086-15.546 7.625-23.32.136-.415.235-.843.388-1.399-.54-.031-.97-.079-1.402-.079-7.06-.004-14.12-.003-21.179-.003-26.378 0-52.756 0-79.134-.005-.604 0-1.239.115-1.88-.3m-28.282 36.294c.15-.537.24-.96.386-1.363 2.311-6.417 4.63-12.831 6.947-19.246.21-.58.42-1.16.626-1.742.144-.404.415-.608.856-.587.274.013.549-.002.824-.002 19.402 0 38.804 0 58.207.003.47 0 .94.039 1.558.066-.126.505-.196.897-.32 1.271-2.265 6.8-4.536 13.596-6.808 20.393-.436 1.303-.442 1.305-1.803 1.305H47.46c-1.03 0-2.06.007-3.09-.004-.33-.004-.661-.053-1.133-.094" fill-rule="evenodd"/></symbol><symbol id="dash-logo" viewBox="0 0 72.2 42.52" xmlns="http://www.w3.org/2000/svg"><defs><style>.awcls-1{fill:#363635}</style></defs><path class="awcls-1" d="M72.1 6.74a7.76 7.76 0 0 0-1.1-3.5A5 5 0 0 0 68.36.83 7.93 7.93 0 0 0 64.59 0h-49l-3.47 10.52h44.36l-7 21.48H5.13L1.62 42.52h49.19a13.34 13.34 0 0 0 4.29-.83A28.68 28.68 0 0 0 59.39 39a20.45 20.45 0 0 0 3.51-3.5 22.8 22.8 0 0 0 2.16-4.05L71.56 11a7.57 7.57 0 0 0 .54-4.28z"/><path class="awcls-1" d="M29.61 16.39H3.51L0 26.1h26.37z"/></symbol><symbol viewBox="0 0 48 38" id="dis" xmlns="http://www.w3.org/2000/svg"><path d="M40.584 3.957S48 12.547 48 28.02v3.244s-9.365 6.103-12.22 6.103l-2.768-4.026c1.72-.77 4.068-2.108 4.068-2.108l-.858-.664s-5.487 2.542-12.221 2.542-12.221-2.542-12.221-2.542l-.858.664s2.347 1.338 4.068 2.108l-2.769 4.026C9.365 37.366 0 31.263 0 31.263V28.02C0 12.547 7.416 3.957 7.416 3.957s5.073-2.455 9.757-3.101l1.454 2.756s2.31-.536 5.373-.536 5.373.536 5.373.536L30.827.856c4.684.646 9.757 3.101 9.757 3.101zM16.009 25.758c2.36 0 4.274-2.15 4.274-4.8 0-2.652-1.914-4.802-4.274-4.802-2.36 0-4.274 2.15-4.274 4.801 0 2.652 1.913 4.801 4.274 4.801zm15.982 0c2.361 0 4.274-2.15 4.274-4.8 0-2.652-1.914-4.802-4.274-4.802-2.36 0-4.274 2.15-4.274 4.801 0 2.652 1.913 4.801 4.274 4.801z"/></symbol><symbol viewBox="0 0 2000 2000" id="doge" xmlns="http://www.w3.org/2000/svg"><path d="M1024 659H881.12v281.69h224.79v117.94H881.12v281.67H1031c38.51 0 316.16 4.35 315.73-327.72S1077.44 659 1024 659z"/><path d="M1000 0C447.71 0 0 447.71 0 1000s447.71 1000 1000 1000 1000-447.71 1000-1000S1552.29 0 1000 0zm39.29 1540.1H677.14v-481.46H549.48V940.7h127.65V459.21h310.82c73.53 0 560.56-15.27 560.56 549.48 0 574.09-509.21 531.41-509.21 531.41z"/></symbol><symbol id="doge-logo" viewBox="0 0 44.51 48.19" xmlns="http://www.w3.org/2000/svg"><defs><style>.azcls-1{fill:#363635}</style></defs><path class="azcls-1" d="M21.82 48.16s22.69 1.9 22.69-23.68C44.51-.68 22.81 0 19.53 0H5.69v21.45H0v5.26h5.69v21.45zm-7-21.45h10v-5.26h-10V8.9h6.36c2.38 0 14.36 1 14.38 15.76s-12.35 14.6-14.07 14.6h-6.71z"/></symbol><symbol viewBox="0 0 226.777 226.777" id="eth" xmlns="http://www.w3.org/2000/svg"><path d="M113.313 0C50.732 0 0 50.732 0 113.313s50.732 113.313 113.313 113.313 113.313-50.732 113.313-113.313S175.894 0 113.313 0zm-1.469 188.386l-44.78-63.344 44.78 26.218v37.126zm0-46.41l-45.083-26.408 45.083-19.748v46.156zm0-49.329l-43.631 19.11 43.631-73.306v54.196zm2.906-54.218l44.244 73.6-44.244-19.382V38.429zm0 149.957V151.26l44.78-26.218-44.78 63.344zm0-46.409V95.821l45.116 19.762-45.116 26.394z"/></symbol><symbol id="eth-logo" viewBox="0 0 42.32 68.03" xmlns="http://www.w3.org/2000/svg"><defs><style>.bbcls-1{fill:#363635}</style></defs><path class="bbcls-1" d="M21.65 47.38l20.67-12.22-20.67-9.4v21.62zm0-22.69l20.49 9.32L21.65 0v24.69zM.67 39.85l20 28.18V51.67l-20-11.82zm40.99 0L21.65 51.67v16.36l20.01-28.18zm-20.99 7.53V25.76L0 35.16l20.67 12.22zm0-47.38L.18 34.01l20.49-9.32V0z"/></symbol><symbol viewBox="0 0 36 26" id="faq-tabs-1" xmlns="http://www.w3.org/2000/svg"><path d="M32.968 7.236H20.912v-3.62a3.004 3.004 0 0 0-3-3L3.001.608A3 3 0 0 0 0 3.605v9.549a3.004 3.004 0 0 0 3.001 3h.557v1.687a.8.8 0 0 0 .427.708.82.82 0 0 0 .831-.04l3.524-2.354h6.722v3.625a2.998 2.998 0 0 0 2.995 2.995h9.577l3.524 2.36a.811.811 0 0 0 .832.04.799.799 0 0 0 .427-.708V22.78h.556a3.008 3.008 0 0 0 3.007-2.996v-9.543a3.026 3.026 0 0 0-3.012-3.006zm-17.08 7.306H8.087a.81.81 0 0 0-.45.135l-2.472 1.652v-.984a.803.803 0 0 0-.804-.803h-1.36a1.391 1.391 0 0 1-1.388-1.388V3.605c0-.764.624-1.388 1.388-1.388l14.91.005a1.39 1.39 0 0 1 1.388 1.389v9.543a1.39 1.39 0 0 1-1.388 1.388h-2.023zm18.468 5.243c0 .765-.624 1.389-1.394 1.389h-1.36a.803.803 0 0 0-.804.803v.984l-2.473-1.658a.797.797 0 0 0-.45-.135h-9.823a1.391 1.391 0 0 1-1.388-1.388v-3.625h1.242a3.004 3.004 0 0 0 3-3.001V8.837h12.056c.77 0 1.394.624 1.394 1.394v9.554z"/><path d="M13.13 10.67a.322.322 0 0 0-.124-.068 2.67 2.67 0 0 1-.545-.258 3.444 3.444 0 0 1-.45-.338 2.212 2.212 0 0 0 .518-.877c.061-.18.106-.37.134-.578a4.22 4.22 0 0 0 .045-.67c0-.46-.056-.853-.163-1.19a2.051 2.051 0 0 0-.478-.832 1.925 1.925 0 0 0-.77-.49 3.18 3.18 0 0 0-1.05-.157c-.422 0-.793.062-1.108.191-.32.13-.584.315-.803.551a2.439 2.439 0 0 0-.49.871 3.922 3.922 0 0 0-.162 1.158c0 .472.05.882.151 1.225.101.343.259.624.461.849.203.22.461.382.77.489.31.107.669.157 1.08.157.218 0 .415-.022.595-.062.18-.045.332-.09.455-.151.152.174.315.326.49.455a3.67 3.67 0 0 0 .988.55c.146.051.264.074.354.074a.113.113 0 0 0 .062-.017.116.116 0 0 0 .05-.062.54.54 0 0 0 .04-.14c.011-.062.017-.141.017-.236 0-.124-.006-.22-.022-.287-.017-.068-.012-.13-.046-.158zm-1.614-2.007a1.756 1.756 0 0 1-.23.596 1.138 1.138 0 0 1-.433.399c-.18.101-.399.146-.663.146s-.483-.045-.657-.13a.997.997 0 0 1-.416-.376 1.624 1.624 0 0 1-.22-.596 4.148 4.148 0 0 1 0-1.489c.046-.225.124-.416.231-.584.107-.169.253-.298.433-.4.18-.1.399-.146.663-.146s.483.045.657.135c.175.09.315.214.422.377.107.163.18.36.225.584.045.225.067.478.067.753-.005.259-.034.5-.079.731zm14.776 3.704a.396.396 0 0 0-.062-.13c-.023-.033-.067-.056-.124-.073a.844.844 0 0 0-.236-.028c-.1-.005-.236-.005-.41-.005-.146 0-.264 0-.354.005a1.42 1.42 0 0 0-.208.028.24.24 0 0 0-.112.068.383.383 0 0 0-.062.118l-1.731 4.98c-.034.1-.056.18-.068.241-.01.062 0 .107.028.14.029.034.08.057.158.062.073.012.18.012.314.012.124 0 .225-.006.304-.012a.638.638 0 0 0 .18-.033.191.191 0 0 0 .09-.068.424.424 0 0 0 .045-.101l.354-1.096h2.107l.377 1.13a.26.26 0 0 0 .045.09.196.196 0 0 0 .09.056c.045.011.107.022.19.028.085.006.198.006.344.006.14 0 .253-.006.331-.012a.296.296 0 0 0 .169-.056c.034-.028.045-.073.034-.135a1.402 1.402 0 0 0-.068-.247l-1.725-4.968zm-1.636 3.243l.793-2.383h.005l.793 2.383h-1.59z"/></symbol><symbol viewBox="0 0 20 24" id="faq-tabs-2" xmlns="http://www.w3.org/2000/svg"><path d="M7.061 15.32a30.304 30.304 0 0 1 5.181 0c.943.064 1.88.202 2.8.413 1.993.4 3.294 1.193 3.84 2.354a3.601 3.601 0 0 1-.032 3.03c-.556 1.162-1.857 1.954-3.88 2.366-.919.206-1.852.34-2.79.4C11.14 24 10.26 24 9.442 24h-.325a.916.916 0 0 1-.815-.913c0-.47.352-.863.815-.914h.718a28.67 28.67 0 0 0 2.166-.105 17.079 17.079 0 0 0 2.538-.36c1.437-.316 2.34-.77 2.622-1.372.22-.46.22-.997 0-1.457-.283-.612-1.185-1.088-2.59-1.373a16.33 16.33 0 0 0-2.58-.37 26.857 26.857 0 0 0-4.877 0 17.38 17.38 0 0 0-2.549.36c-1.437.317-2.328.77-2.622 1.373a1.795 1.795 0 0 0 0 1.468 3.048 3.048 0 0 0 2.098 1.235l.122.033a.923.923 0 0 1 .338 1.528.908.908 0 0 1-.922.212 4.646 4.646 0 0 1-3.24-2.217 3.559 3.559 0 0 1 0-3.03c.556-1.193 1.856-1.964 3.86-2.376.942-.205 1.9-.34 2.862-.401zM7.158.49a6.356 6.356 0 0 1 6.962 1.398 6.462 6.462 0 0 1 1.377 7.011 6.387 6.387 0 0 1-5.908 3.963c-3.523-.006-6.377-2.883-6.377-6.43l.006-.278A6.429 6.429 0 0 1 7.158.489zm2.431 1.348A4.547 4.547 0 0 0 6.356 3.18a4.609 4.609 0 0 0-1.34 3.251 4.604 4.604 0 0 0 2.816 4.261 4.55 4.55 0 0 0 4.987-.991 4.626 4.626 0 0 0 .996-5.018 4.573 4.573 0 0 0-4.226-2.845z"/></symbol><symbol viewBox="0 0 23 24" id="faq-tabs-3" xmlns="http://www.w3.org/2000/svg"><path d="M22.489 9.941l-2.077-2.065a5.247 5.247 0 0 0 .78-2.713 5.174 5.174 0 1 0-5.186 5.186 5.223 5.223 0 0 0 2.713-.756l2.065 2.077a1.2 1.2 0 0 0 1.705 0 1.2 1.2 0 0 0 0-1.729zm-4.514-2.75a2.785 2.785 0 0 1-4.743-2.028 2.749 2.749 0 0 1 .817-1.957 2.785 2.785 0 0 1 3.926 0 2.773 2.773 0 0 1 0 3.926v.06zm2.46 7.204a1.2 1.2 0 0 0-1.464.865 8.404 8.404 0 0 1-8.14 6.339H4.12l.768-.757a1.2 1.2 0 0 0 0-1.692 8.405 8.405 0 0 1-2.401-6.003 8.404 8.404 0 0 1 5.186-7.732 1.202 1.202 0 0 0-.888-2.233A10.806 10.806 0 0 0 2.391 19.99L.374 21.947a1.2 1.2 0 0 0-.252 1.309A1.2 1.2 0 0 0 1.226 24h9.605a10.805 10.805 0 0 0 10.47-8.104 1.2 1.2 0 0 0-.865-1.5z"/></symbol><symbol viewBox="0 0 8 15" id="fb" xmlns="http://www.w3.org/2000/svg"><path d="M7.048 0H4.651C3.228 0 1.646.598 1.646 2.66c.007.719 0 1.407 0 2.182H0V7.46h1.697V15h3.118V7.41h2.057l.187-2.576H4.76s.005-1.146 0-1.479c0-.815.848-.768.899-.768h1.39V0h-.002z"/></symbol><symbol viewBox="0 0 50 50" id="icon-info" xmlns="http://www.w3.org/2000/svg"><path d="M25 2C12.31 2 2 12.31 2 25s10.31 23 23 23 23-10.31 23-23S37.69 2 25 2zm0 2c11.61 0 21 9.39 21 21s-9.39 21-21 21S4 36.61 4 25 13.39 4 25 4zm0 7a3 3 0 0 0-3 3 3 3 0 0 0 3 3 3 3 0 0 0 3-3 3 3 0 0 0-3-3zm-4 10v2h2v13h-2v2h8v-2h-2V21h-6z"/></symbol><symbol viewBox="0 0 14 14" id="info" xmlns="http://www.w3.org/2000/svg"><path d="M7 .343c-.702 0-1.4.276-1.937.812L1.147 5.072a2.737 2.737 0 0 0 0 3.875l3.916 3.917a2.737 2.737 0 0 0 3.876 0l3.916-3.917a2.737 2.737 0 0 0 0-3.875L8.94 1.155A2.74 2.74 0 0 0 7 .343zm0 3.333c.37 0 .667.299.667.667v3.333a.666.666 0 1 1-1.333 0V4.343c0-.368.299-.667.667-.667zM7 9.01a.666.666 0 1 1 .001 1.333.666.666 0 0 1 0-1.333z"/></symbol><symbol viewBox="0 0 15 15" id="inst" xmlns="http://www.w3.org/2000/svg"><path d="M5 7.5a2.5 2.5 0 1 1 5 0 2.5 2.5 0 0 1-5 0zm-1.351 0a3.851 3.851 0 1 0 7.702 0 3.851 3.851 0 0 0-7.702 0zm6.955-4.004a.9.9 0 1 0 1.8 0 .9.9 0 0 0-1.8 0zM4.47 13.605c-.732-.034-1.129-.155-1.393-.258-.35-.137-.6-.299-.863-.561a2.318 2.318 0 0 1-.56-.862c-.104-.264-.225-.662-.259-1.393-.036-.79-.043-1.028-.043-3.031s.007-2.24.043-3.03c.034-.732.156-1.129.258-1.394.137-.35.299-.6.561-.862.263-.263.512-.426.863-.561.264-.103.661-.225 1.393-.258.79-.037 1.028-.044 3.03-.044 2.003 0 2.24.008 3.03.044.732.033 1.129.155 1.394.258.35.135.6.298.862.56.263.263.425.513.561.863.103.264.225.662.258 1.393.037.791.044 1.028.044 3.031 0 2.002-.007 2.24-.044 3.03-.033.732-.155 1.13-.258 1.394-.136.35-.298.6-.56.862a2.327 2.327 0 0 1-.863.56c-.264.104-.662.226-1.393.259-.79.036-1.028.043-3.031.043-2.002 0-2.24-.007-3.03-.043zM4.408.045c-.799.037-1.344.163-1.82.349a3.68 3.68 0 0 0-1.33.865 3.67 3.67 0 0 0-.864 1.328C.208 3.064.082 3.61.045 4.407.008 5.208 0 5.464 0 7.5s.008 2.292.045 3.092c.037.798.163 1.344.349 1.82.191.494.447.912.865 1.33a3.69 3.69 0 0 0 1.328.864c.478.186 1.022.312 1.82.349.801.036 1.056.045 3.093.045s2.292-.008 3.092-.045c.798-.037 1.344-.163 1.82-.349a3.688 3.688 0 0 0 1.33-.865 3.69 3.69 0 0 0 .864-1.328c.186-.477.313-1.023.349-1.82.036-.801.044-1.056.044-3.093s-.008-2.292-.044-3.092c-.037-.799-.163-1.344-.349-1.82a3.688 3.688 0 0 0-.865-1.33 3.678 3.678 0 0 0-1.328-.864C11.936.208 11.39.08 10.593.045 9.793.01 9.537 0 7.5 0S5.208.008 4.408.045z"/></symbol><symbol viewBox="0 0 226.777 226.777" id="ltc" xmlns="http://www.w3.org/2000/svg"><path d="M113.441 0C50.789 0 0 50.79 0 113.443c0 62.654 50.789 113.441 113.441 113.441 62.654 0 113.443-50.787 113.443-113.441C226.885 50.79 176.096 0 113.441 0zm44.036 168.762H68.839l7.45-35.566-14.486 9.933 3.519-19.463 15.151-10.43 14.862-70.939h27.671l-10.232 48.71L148.8 66.213l-4.222 20.167-36.02 24.693-7.126 33.93H162.4l-4.923 23.759z"/></symbol><symbol id="ltc-logo" viewBox="0 0 46.48 51.02" xmlns="http://www.w3.org/2000/svg"><defs><style>.bkcls-1{fill:#363635}</style></defs><path class="bkcls-1" d="M20.26 41l3.31-12.48 7.85-2.86 1.95-7.34-.07-.18L25.58 21l5.56-21H15.36L8.08 27.35 2 29.57l-2 7.56 6.07-2.22L1.78 51h42l2.7-10z"/></symbol><symbol viewBox="0 0 16 16" id="mail" xmlns="http://www.w3.org/2000/svg"><path d="M8 0a8 8 0 1 0 4 14.928.799.799 0 0 0-.18-1.486.8.8 0 0 0-.62.102A6.4 6.4 0 1 1 14.4 8v.6a1.4 1.4 0 1 1-2.8 0V5.2a.8.8 0 0 0-.8-.8.8.8 0 0 0-.8.632A3.56 3.56 0 0 0 8 4.4a3.6 3.6 0 1 0 2.64 6A2.991 2.991 0 0 0 16 8.6V8a8 8 0 0 0-8-8zm0 10a2 2 0 1 1 0-4 2 2 0 0 1 0 4z"/></symbol><symbol viewBox="0 0 19 11" id="md" xmlns="http://www.w3.org/2000/svg"><path d="M10.717 5.395c0 2.98-2.399 5.396-5.359 5.396S0 8.376 0 5.395C0 2.415 2.4 0 5.358 0c2.96 0 5.36 2.415 5.36 5.395zm5.879 0c0 2.805-1.2 5.079-2.68 5.079-1.48 0-2.679-2.274-2.679-5.079 0-2.804 1.2-5.079 2.68-5.079 1.479 0 2.679 2.275 2.679 5.08zm2.404 0c0 2.513-.422 4.55-.942 4.55s-.943-2.037-.943-4.55c0-2.512.422-4.55.943-4.55.52 0 .942 2.037.942 4.55z"/></symbol><symbol viewBox="0 0 13 8" id="medium" xmlns="http://www.w3.org/2000/svg"><path d="M7.246 3.942c0 1.982-1.596 3.589-3.564 3.589C1.713 7.53.118 5.924.118 3.94.118 1.96 1.713.354 3.682.354c1.968 0 3.564 1.607 3.564 3.589zm3.91 0c0 1.866-.798 3.378-1.782 3.378S7.592 5.807 7.592 3.942c0-1.866.798-3.378 1.782-3.378s1.782 1.512 1.782 3.378zm1.6 0c0 1.671-.28 3.026-.627 3.026-.346 0-.627-1.355-.627-3.026 0-1.671.28-3.027.627-3.027.346 0 .627 1.355.627 3.027z"/></symbol><symbol viewBox="0 0 512 512" id="monero" xmlns="http://www.w3.org/2000/svg"><circle cx="256" cy="256" r="256"/><path d="M364.2 393.163h107.979c-45.411 71.439-125.262 118.836-216.178 118.836S85.235 464.603 39.824 393.163h107.969V257.328l108.209 108.146L364.2 257.328v135.835z"/><path d="M512 256.001c0 28.599-4.692 56.1-13.343 81.784H421.21V122.537L256.002 286.062 90.794 122.537v215.248H13.346C4.694 312.102.003 284.6.003 256.001.003 114.617 114.617.003 256.001.003S512 114.616 512 256.001z"/></symbol><symbol id="monero-logo" viewBox="0 0 90.97 45.35" xmlns="http://www.w3.org/2000/svg"><defs><style>.bpcls-1{fill:#363635}</style></defs><path class="bpcls-1" d="M90.97 45.35v-8.84H73.65V0l-28.2 28.21L17.24 0v36.51H0v8.84h26.65V22.38l18.8 18.8 18.79-18.8v22.97h26.73z"/></symbol><symbol viewBox="0 0 15 16" id="pass" xmlns="http://www.w3.org/2000/svg"><path d="M13.624 10.634L9.062 8l4.562-2.634a1 1 0 0 0-1-1.732L8.062 6.268V1a1 1 0 0 0-2 0v5.268L1.5 3.634a1 1 0 0 0-1 1.732L5.06 8 .5 10.634a1 1 0 0 0 1 1.732l4.562-2.634V15a1 1 0 1 0 2 0V9.732l4.562 2.634a1 1 0 0 0 1-1.732z"/></symbol><symbol viewBox="0 0 75 75" id="payeer" xmlns="http://www.w3.org/2000/svg"><circle class="brst0" cx="37.5" cy="37.5" r="37.5"/><path class="brst1" d="M24.4 18.3c3.1-.5 7.5-.9 13.6-.9 6.3 0 10.6 1.2 13.6 3.5 2.8 2.3 4.7 5.9 4.7 10.3s-1.4 8-4.2 10.6c-3.5 3.3-8.5 4.7-14.5 4.7-1.4 0-2.4 0-3.5-.2v15.9h-9.9v-44l.2.1zm10 20.2c.9.2 1.9.3 3.3.3 5.4 0 8.7-2.8 8.7-7.3 0-4.2-2.8-6.6-7.8-6.6-2.1 0-3.5.2-4.2.3v13.3z"/></symbol><symbol id="payeer-logo" viewBox="0 0 75 75" xmlns="http://www.w3.org/2000/svg"><style>.st0{fill:#3499dc}.bsst1{fill:#fff}</style><path class="bsst1" d="M24.4 18.3c3.1-.5 7.5-.9 13.6-.9 6.3 0 10.6 1.2 13.6 3.5 2.8 2.3 4.7 5.9 4.7 10.3s-1.4 8-4.2 10.6c-3.5 3.3-8.5 4.7-14.5 4.7-1.4 0-2.4 0-3.5-.2v15.9h-9.9v-44l.2.1zm10 20.2c.9.2 1.9.3 3.3.3 5.4 0 8.7-2.8 8.7-7.3 0-4.2-2.8-6.6-7.8-6.6-2.1 0-3.5.2-4.2.3v13.3z"/></symbol><symbol viewBox="0 0 22 22" id="planet" xmlns="http://www.w3.org/2000/svg"><path d="M10.969 0C4.916 0 0 4.916 0 10.969c0 6.053 4.916 10.969 10.969 10.969 6.053 0 10.969-4.916 10.969-10.97C21.938 4.917 17.021 0 10.967 0zm0 .813a10.1 10.1 0 0 1 4.34.982c-.951.192-1.76.61-1.954.566-.296-.065-1.732.184-2.26.381-.527.198-.477.45-.609.483-.132.033-.202.15-.406.38-.204.231.102.508.102.508s.782.176.914-.406c.078-.346-.034.295 0 .559.033.263.524.329.787 0 .119-.149.102-.511.178-.635.093-.151.297-.035.406-.05.065-.009-.084.102 0 .151.168.1.515-.07.431.33-.033.162-.543.194-.609.432-.066.238-.178.381-.178.381L11.02 4.9l-.356-.507s-.346.15-.254.457c.064.211-.101.457-.101.457s-.559.089-.559.254c0 .09-.228.101-.355.152-.105.041-.176.214-.28.228l-.533.077c-.232.028-.127.081-.127.177 0 .132.432.153.432.153s.276.107.177.304c-.098.198.071.28-.127.28-.085 0-.284-.027-.482-.026-.256 0-.502-.08-.508.026-.024.406-.025.99-.025.99s.347.171.533.127c.259-.06.637.142.813-.33.013-.037.022-.116.05-.153.123-.16.255-.483.457-.584.125-.062.297-.022.356-.025.131-.008.355-.178.355-.178s.583.08.737.66c.045.172.002.454.101.508.06.034.33-.254.33-.254l.305.026-.178-.407-.558-.634.101-.05s.424.029.457.127c.033.1.543.35.457.635-.143.473.203.584.203.584s.3.07.432-.177c.114-.217.127-.407.127-.407l.38-.077s-.036-.791.382-.813c.417-.021.457 0 .457 0s.916.303 1.015.533c.099.23.144.45-.152.483-.296.033-.736-.024-.736-.024s-1.166-.177-1.067.152c.099.33.203.66.203.66s.254-.026.483.024c.245.056.558.026.558.026l.051.558-.152.05c-.166.047-.655.079-.787.128s-1.567-.202-1.6-.152c-.033.048-.498.217-.762.152-.263-.066-.33-.686-.33-.686s-.047-.295-.228-.279l-1.422.127s-.406.18-.406.28c0 0-.115-.083-.28 0-.164.082-.416.07-.482.202s-.325.379-.457.61c-.132.23-.51.248-.61.66-.098.412-.168 1.1-.152 1.396.017.297.009 1.032.305 1.194.296.162.69.562.838.71.148.149.942.27 1.04.204.1-.066.454-.203.636-.203.181 0 .57.028.685.127.115.099.256.311.356.558.098.247.197.664.279.813.082.148.395.43.28.71-.116.28-.313.56-.28.89.033.328.23.765.305.913.075.148.55.614.533.762-.016.148.124.112.305.178.18.066.95-.147 1.066-.28.115-.131.294-.547.508-.761.214-.215.658-.566.888-.813.23-.247.466-.474.483-.787.016-.313-.165-1.002 0-1.117.165-.115.393-.294.558-.508.165-.214.515-.197.762-.888.247-.692.329-.907.28-.94-.05-.033-.442.13-.508.229s-.451.123-.534.203c-.082.08-.457 0-.457 0s.159-.624.076-.838c-.082-.214-.502-1.05-.634-1.346a1.142 1.142 0 0 1-.076-.71c.02.03.034.046.05.075.059.106.375.48.508.864.285.823.61 1.421.61 1.421s.429.017 1.142-.533c.486-.373 1.005-.392 1.092-.584.165-.362-.508-.685-.508-.685h-.61l-.456-.787.127-.051s.506.584.736.584c.23 0 .843-.053 1.041.178.198.23.815.62.914 1.015.1.395.049.948.229 1.143.252.275.482.254.482.254l.305-.711.71-.813.151-.076A10.15 10.15 0 0 1 10.97 21.125a10.11 10.11 0 0 1-6.881-2.7l.305-.448.355-1.422-.863-.534-.99-.33-.66-1.6s-.617-.497-1.127-.728a10.16 10.16 0 0 1-.296-2.394c0-.6.063-1.183.162-1.754.625-.478 1.463-.861 1.463-.861s.464-.053-.33-1.372a1.99 1.99 0 0 1-.225-.533c.333-.67.73-1.3 1.197-1.876-.04.241-.199 1.243.095 1.42.329.197.644-.413.71-.61.067-.198.753-.95 1.016-1.346.188-.282.122-.829-.071-1.149A10.102 10.102 0 0 1 10.97.813zM8.963 2.64c-.158.015-.483.1-.483.355v.483s-.097.173-.152.228c-.055.055-.007.308.026.406.032.1.05.407.05.407s.16.083.203.126c.044.044.42.139.584.051.165-.087.26-.319.381-.33.121-.011.048-.01.026-.101-.022-.088.101-.407.101-.407l-.33-.279s-.2-.427-.178-.559c.022-.132-.162-.364-.152-.38.002-.009-.024-.009-.076 0zm-.863.964c-.045.02-.131.128-.178.153-.063.031-.043.14-.076.228s-.127.407-.127.407l.203.076s.322-.061.355-.127c.027-.053-.069-.341-.101-.457-.008-.028 0-.051 0-.051l-.051-.203c-.008-.016-.01-.033-.025-.026zm8.505 2.793c.075 0 .221.052.254.077.044.033.044.419 0 .66a.37.37 0 0 0 .203.406c.067.022.113.55.102.66-.01.11-.32.192-.406.203-.085.012-.443.008-.432-.152.011-.16-.061-.68-.127-.889-.066-.208-.048-.503.051-.558.099-.055.305-.381.305-.381.008-.018.026-.025.05-.026zm-.457 8.989a.557.557 0 0 0-.152.025s-.023.487-.254.635c-.23.148-.38.436-.38.584 0 .148-.05.283 0 .431.049.149.161.271.304.254.143-.016.297-.325.33-.457.033-.131.156-.415.254-.507.099-.092.118-.35.102-.483-.015-.115.072-.489-.204-.482z"/></symbol><symbol viewBox="0 0 46 46" id="pm" xmlns="http://www.w3.org/2000/svg"><path d="M23 0C10.324 0 0 10.324 0 23s10.324 23 23 23 23-10.324 23-23S35.676 0 23 0zm-8.791 30.871H9.098c-.307 0-.41-.102-.41-.409 0-.306 0-.51.41-.51 1.329 0 1.43-.205 1.43-1.534v-3.271c0-.307.103-.41.41-.307h1.329c.306 0 .409.102.409.409v3.68c0 .92.204 1.022 1.022 1.124h.409c.409 0 .51.103.51.511 0 .205 0 .307-.408.307zm.715-6.849c-2.453.205-4.906.205-7.36-.409-.102 0-.306-.102-.408-.102-.205-.102-.307-.102-.512-.204.41.102.512.102 1.023.102.92.102 1.84.204 2.862.204 1.431.103 2.862 0 4.191-.306 2.147-.511 3.271-2.25 2.964-4.396 0-.102 0-.204-.102-.409v-.511c0-.102 0-.102-.102-.204v-.103l-.307-.613c-1.022-1.533-2.657-1.635-4.293-1.533-.307 0-.307.204-.307.409v6.337c0 .41-.102.512-.51.512h-1.227c-.205 0-.307-.103-.307-.307v-6.235c0-.41-.205-.614-.613-.614h-.818c-.307 0-.41 0-.41-.409 0-.307.205-.307.41-.307h6.542c1.431 0 2.658.614 3.578 1.84 0 0 .102.205.204.307 0 .102.102.102.102.205 0 .102.103.102.103.204l.306.92c0 .102.103.613.103.716v.51c0 .103 0 .512-.103.614-.306 1.636-1.329 2.658-2.862 3.271-.715.409-1.431.511-2.147.511zm23.614 6.85H33.12c-.307 0-.307-.205-.307-.41 0-.204-.102-.51.307-.51h.818c.613 0 .818-.205.818-.92.102-1.943.102-3.885.102-5.828v-4.497h-.102c-.41.715-.716 1.43-1.125 2.146 0 0 0 .103-.102.103 0 0 0 .102-.102.102-.103.102-.103.306-.205.409 0 0 0 .102-.102.102 0 .102 0 .102-.102.204 0 0 0 .103-.102.103-.614 1.533-1.432 2.964-2.147 4.395-.716 1.329-1.329 2.76-2.045 4.089-.102.102-.102.409-.306.409-.205 0-.205-.205-.307-.409C26.17 26.68 24.33 23 22.49 19.32c0-.102-.102-.204-.102-.307-.103-.204-.307-.51-.41-.817-.101.204-.101.408-.101.51v10.12c.204.818.306.92 1.124.92h.613c.41-.102.614.103.511.512 0 .306-.102.409-.408.409h-5.214c-.409 0-.306-.307-.409-.511 0-.307.103-.41.41-.41h.817c.818 0 1.124-.306 1.227-1.124.102-.715.102-1.43.204-2.146.102-1.023.102-2.147.102-3.17v-6.95c0-.512-.204-.614-.613-.716h-.409c-.409 0-.613-.204-.409-.613 0-.103.102-.103.205-.103h2.964c.102 0 .205.103.307.205.51 1.227 1.226 2.351 1.635 3.578 1.534 2.862 2.76 5.826 4.294 8.79 1.124-2.248 2.146-4.497 3.27-6.644 0-.102.103-.102.103-.204 0 0 0-.102.102-.102.818-1.738 1.636-3.476 2.454-5.316.102-.102.204-.204.306-.204h3.271c.307 0 .307.204.307.409 0 .204 0 .408-.307.408h-.409c-.817 0-.92.205-.92.92 0 2.556 0 5.01-.102 7.565v.92c0 .92.102 1.942 0 2.862 0 .409 0 .818.102 1.227 0 .204.307.51.614.51h.92c.306 0 .306.205.306.41 0 .306.103.613-.306.613z"/></symbol><symbol viewBox="0 0 17 8" id="pm-logo" xmlns="http://www.w3.org/2000/svg"><path d="M16 7.13h-.36a.6.6 0 0 1-.36-.14.51.51 0 0 1-.15-.28v-.49c0-.54 0-1.11-.06-1.69-.06-.58 0-1.72 0-1.72V1.69a2.57 2.57 0 0 1 .05-.61.53.53 0 0 1 .21-.33 1.58 1.58 0 0 1 .53-.14h.23a.14.14 0 0 0 0-.15.17.17 0 0 0-.09-.11h-1.85a2.997 2.997 0 0 1-.24.89l-.61 1.28-1.06 2.12-.42.87a8.427 8.427 0 0 1-.45.84c-.14-.26-.26-.5-.39-.76l-.38-.81-1.32-2.6c-.17-.36-.33-.72-.45-1a2.47 2.47 0 0 1-.14-.83H6.94a.15.15 0 0 0-.07.12.14.14 0 0 0 0 .14h.17c.16.034.317.077.47.13a.44.44 0 0 1 .2.29 1.63 1.63 0 0 1 0 .52v1.07c0 .41 0 .85-.07 1.29-.07.44 0 .65-.06.91s0 .51-.06.73c-.06.22 0 .46 0 .69a2.17 2.17 0 0 1-.11.54.36.36 0 0 1-.2.23 1.11 1.11 0 0 1-.35.1h-.23s-.06.07 0 .14a.18.18 0 0 0 .06.13h1.65l.61.05A.16.16 0 0 0 9 7.26a.17.17 0 0 0 0-.15h-.43a.58.58 0 0 1-.32-.1.45.45 0 0 1-.14-.31 2 2 0 0 1 0-.64V3.4c0-.35.05-.66.06-1 .01-.34 0-.67.05-1l.35.92.36.8 1 2.15c.09.18.19.4.31.67s.27.56.39.83c.107.234.197.474.27.72h.05a.11.11 0 0 0 .08 0c.08-.18.17-.4.3-.67.13-.27.26-.58.41-.89.15-.31.33-.65.51-1l1-1.94c.07-.16.15-.34.25-.54l.3-.57c.08-.18.17.5.17.5H14v3.8a.83.83 0 0 1 .1.56.33.33 0 0 1-.15.27c-.06.07-.18.1-.38.12h-.33v.15a.19.19 0 0 0 .06.13c.23 0 .47 0 .69-.06h1.3c.22 0 .45.05.67.06a.13.13 0 0 0 .06-.13.16.16 0 0 0-.02-.15zM5.4.44a3.33 3.33 0 0 0-.92-.35A7.07 7.07 0 0 0 3.28 0H2.07c-.36 0-.68 0-1 .06A.16.16 0 0 0 1 .21a.13.13 0 0 0 .1.14h.38a.54.54 0 0 1 .36.13.44.44 0 0 1 .16.39c.014.237.014.474 0 .71v2.24c.334.02.667.02 1 0V.69A.53.53 0 0 1 3 .4a.22.22 0 0 1 .15-.11h.45A1.9 1.9 0 0 1 5 .77c.319.364.484.837.46 1.32a1.92 1.92 0 0 1-.38 1.26 1.81 1.81 0 0 1-1 .62 8.34 8.34 0 0 1-1.93.13C1.47 4.08.76 4.04 0 3.97c.591.137 1.189.244 1.79.32.7.096 1.41.096 2.11 0 .318-.049.63-.13.93-.24a4.71 4.71 0 0 0 .82-.48c.189-.15.34-.341.44-.56a2.19 2.19 0 0 0 .18-.86 2 2 0 0 0-.27-1 1.83 1.83 0 0 0-.6-.71zM3.82 7.07a1.07 1.07 0 0 1-.55-.13.58.58 0 0 1-.24-.4 4.47 4.47 0 0 1 0-.88V4.59a5.32 5.32 0 0 1-1 0V5.7a6.2 6.2 0 0 1-.05.88.42.42 0 0 1-.2.38.77.77 0 0 1-.5.15h-.25a.13.13 0 0 0-.05.15.15.15 0 0 0 .07.14l.72-.05h1.46l.9.05s0-.08.07-.14a.19.19 0 0 0 0-.15l-.38-.04z"/></symbol><symbol viewBox="0 0 26 26" id="rdd" xmlns="http://www.w3.org/2000/svg"><path d="M17.662 11.212c-.38 0-.713.153-.959.39-.903-.606-2.12-.996-3.467-1.038l.7-3.063 2.231.486c0 .53.445.962.992.962.556 0 1.004-.444 1.004-.974S17.718 7 17.159 7c-.39 0-.726.228-.893.54l-2.464-.53c-.124-.032-.245.054-.278.174l-.769 3.378c-1.338.054-2.542.444-3.447 1.05a1.364 1.364 0 0 0-.971-.4c-1.407 0-1.867 1.832-.58 2.458a2.67 2.67 0 0 0-.065.606c0 2.057 2.387 3.724 5.319 3.724 2.944 0 5.331-1.667 5.331-3.724 0-.206-.023-.422-.078-.616 1.262-.629.797-2.448-.602-2.448zM9.799 13.8c0-.54.445-.975 1.004-.975.546 0 .991.432.991.975 0 .53-.445.962-.991.962-.557.003-1.004-.432-1.004-.962zm5.42 2.295c-.921.894-3.519.894-4.44 0-.1-.086-.1-.238 0-.336a.248.248 0 0 1 .335 0c.703.7 3.035.712 3.768 0a.248.248 0 0 1 .334 0c.104.098.104.25.003.336zm-.02-1.33c-.547 0-.992-.432-.992-.963 0-.54.445-.974.991-.974.557 0 1.005.432 1.005.974-.003.528-.448.963-1.005.963z"/><path d="M13 0C5.82 0 0 5.82 0 13s5.82 13 13 13 13-5.82 13-13S20.18 0 13 0zm0 24.818C6.473 24.818 1.182 19.527 1.182 13 1.182 6.473 6.473 1.182 13 1.182c6.527 0 11.818 5.291 11.818 11.818 0 6.527-5.291 11.818-11.818 11.818z"/></symbol><symbol viewBox="0 0 24 24" id="reset" xmlns="http://www.w3.org/2000/svg"><path d="M23.297 11.297a.703.703 0 0 0-.703.703c0 5.841-4.753 10.594-10.594 10.594C6.159 22.594 1.406 17.84 1.406 12 1.406 6.159 6.16 1.406 12 1.406c2.352 0 4.587.762 6.423 2.168l-1.22.216a.703.703 0 1 0 .245 1.385l2.662-.47a.703.703 0 0 0 .581-.693V1.349a.703.703 0 0 0-1.406 0v1.114A11.909 11.909 0 0 0 12 0a11.922 11.922 0 0 0-8.485 3.515A11.922 11.922 0 0 0 0 12c0 3.205 1.248 6.219 3.515 8.485A11.922 11.922 0 0 0 12 24c3.205 0 6.219-1.248 8.485-3.515A11.921 11.921 0 0 0 24 12a.703.703 0 0 0-.703-.703z"/><path d="M15.6 9V7.857C15.6 5.841 13.985 4.2 12 4.2S8.4 5.84 8.4 7.857V9h1.35V7.857c0-1.26 1.01-2.286 2.25-2.286s2.25 1.026 2.25 2.286V9h1.35zm-8.4 2.497v5.806c0 .385.307.697.686.697h8.228a.691.691 0 0 0 .686-.697v-5.806a.691.691 0 0 0-.686-.697H7.886a.691.691 0 0 0-.686.697zm4.343 1.858h.914c.379 0 .686.312.686.697a.691.691 0 0 1-.686.696h-.914a.691.691 0 0 1-.686-.696c0-.385.307-.697.686-.697z"/></symbol><symbol viewBox="0 0 12 12" id="search" xmlns="http://www.w3.org/2000/svg"><path d="M5.257 9.005a3.753 3.753 0 0 0 3.755-3.752A3.753 3.753 0 0 0 5.257 1.5a3.753 3.753 0 0 0-3.755 3.752 3.753 3.753 0 0 0 3.755 3.752zm0 1.5A5.255 5.255 0 0 1 0 5.253 5.255 5.255 0 0 1 5.257 0a5.255 5.255 0 0 1 5.257 5.253 5.255 5.255 0 0 1-5.257 5.252zm2.7-2.129l.425-.425a.45.45 0 0 1 .638.001l2.849 2.856a.45.45 0 0 1-.001.637l-.425.424a.45.45 0 0 1-.638 0L7.956 9.012a.45.45 0 0 1 0-.636z"/></symbol><symbol viewBox="0 0 20 20" id="skype" xmlns="http://www.w3.org/2000/svg"><path d="M14.584 10.724a4.642 4.642 0 0 0-5.308-5.308A2.796 2.796 0 0 0 7.803 5 2.802 2.802 0 0 0 5 7.803a2.8 2.8 0 0 0 .416 1.473 4.642 4.642 0 0 0 5.308 5.308A2.802 2.802 0 0 0 15 12.197c0-.541-.152-1.046-.416-1.473zm-2.44.956a1.7 1.7 0 0 1-.758.603c-.334.146-.726.217-1.181.217-.543 0-.995-.098-1.351-.298a1.78 1.78 0 0 1-.615-.573c-.157-.237-.239-.471-.239-.701 0-.136.05-.251.147-.346a.515.515 0 0 1 .37-.146c.12 0 .226.038.31.112a.848.848 0 0 1 .213.329c.069.166.144.305.226.417.079.108.19.2.337.274.144.071.334.109.572.109.328 0 .593-.075.792-.217.203-.146.301-.322.301-.54a.551.551 0 0 0-.16-.413 1.04 1.04 0 0 0-.426-.247 7.519 7.519 0 0 0-.703-.183 5.36 5.36 0 0 1-.994-.312 1.628 1.628 0 0 1-.642-.491 1.26 1.26 0 0 1-.238-.776c0-.295.085-.556.252-.786.166-.23.408-.404.723-.529A3.056 3.056 0 0 1 10.189 7c.34 0 .63.04.88.122.248.081.454.19.618.325.163.136.284.278.36.427a.97.97 0 0 1 .114.437.523.523 0 0 1-.147.36.474.474 0 0 1-.363.159c-.131 0-.232-.03-.301-.098a1.307 1.307 0 0 1-.22-.305 1.337 1.337 0 0 0-.356-.461c-.134-.109-.357-.163-.664-.163-.285 0-.514.061-.684.18-.173.118-.255.257-.255.42 0 .102.03.186.085.26a.725.725 0 0 0 .242.194c.105.054.21.098.314.129.108.03.285.078.53.135a8 8 0 0 1 .844.23c.252.086.468.187.645.31.18.121.32.274.418.46.102.186.15.417.15.685.004.328-.08.616-.254.874z"/><path d="M10 0C4.477 0 0 4.477 0 10s4.477 10 10 10 10-4.477 10-10S15.523 0 10 0zm0 19.09A9.09 9.09 0 1 1 10 .91a9.09 9.09 0 0 1 0 18.18z"/></symbol><symbol viewBox="0 0 12 10" id="tg" xmlns="http://www.w3.org/2000/svg"><path d="M.736 4.321s5.307-2.178 7.148-2.945C8.589 1.07 10.982.088 10.982.088s1.105-.43 1.013.613c-.031.43-.277 1.933-.522 3.559-.368 2.3-.767 4.816-.767 4.816s-.061.706-.583.829c-.521.122-1.38-.43-1.534-.553-.122-.092-2.3-1.472-3.098-2.147-.215-.184-.46-.552.03-.982a117.175 117.175 0 0 0 3.222-3.068c.368-.368.736-1.227-.798-.184-2.178 1.504-4.326 2.915-4.326 2.915s-.49.307-1.41.03C1.287 5.64.213 5.272.213 5.272s-.736-.46.522-.95z"/></symbol><symbol viewBox="0 0 427 413" id="tp" xmlns="http://www.w3.org/2000/svg"><path d="M304.027 288.466l39.011 120.5-131.723-95.827-131.723 95.826 50.435-154.864-131.723-95.825 162.874.296L211.612 3.71l50.138 154.863h162.874l-131.723 95.53-.466.343-78.576 57.43 90.168-23.409z"/></symbol><symbol viewBox="0 0 64 64" id="trx-logo" xmlns="http://www.w3.org/2000/svg"><path class="cccls-1" d="M61.55 19.28c-3-2.77-7.15-7-10.53-10l-.2-.14a3.82 3.82 0 0 0-1.11-.62C41.56 7 3.63-.09 2.89 0a1.4 1.4 0 0 0-.58.22l-.19.15a2.23 2.23 0 0 0-.52.84l-.05.13v.82C5.82 14.05 22.68 53 26 62.14c.2.62.58 1.8 1.29 1.86h.16c.38 0 2-2.14 2-2.14S58.41 26.74 61.34 23a9.46 9.46 0 0 0 1-1.48 2.41 2.41 0 0 0-.79-2.24zm-24.67 4.09l12.36-10.25 7.25 6.68zm-4.8-.67L10.8 5.26l34.43 6.35zM34 27.27l21.78-3.51-24.9 30zM7.91 7L30.3 26l-3.24 27.78z"/></symbol><symbol viewBox="0 0 16 13" id="tw" xmlns="http://www.w3.org/2000/svg"><path d="M5.34 12.821c5.869 0 9.078-4.863 9.078-9.08 0-.139-.003-.276-.01-.413A6.49 6.49 0 0 0 16 1.675a6.359 6.359 0 0 1-1.832.503A3.203 3.203 0 0 0 15.571.412a6.398 6.398 0 0 1-2.026.775 3.191 3.191 0 0 0-5.437 2.91A9.058 9.058 0 0 1 1.533.764a3.19 3.19 0 0 0 .988 4.26 3.166 3.166 0 0 1-1.445-.398v.04c0 1.546 1.1 2.837 2.56 3.129a3.193 3.193 0 0 1-1.442.055 3.194 3.194 0 0 0 2.98 2.216A6.4 6.4 0 0 1 .45 11.387a9.029 9.029 0 0 0 4.89 1.434"/></symbol><symbol viewBox="0 0 226.777 226.777" id="usdt-logo" xmlns="http://www.w3.org/2000/svg"><path d="M226.883 107.66c0-14.245-38.761-26.13-90.27-28.872l-.004-22.697h64.315V8.855H25.06v47.236h64.31v22.808C38.799 81.829.97 93.59.97 107.66c0 14.072 37.829 25.834 88.4 28.759v81.504h47.239V136.53c51.513-2.736 90.274-14.625 90.274-28.87zm-112.957 14.033c-55.288 0-100.109-8.557-100.109-19.119 0-8.943 32.139-16.451 75.553-18.54v5.383h.005v22.059c7.827.439 16.053.669 24.551.669 7.825 0 15.424-.199 22.688-.563v-27.63c44.355 1.961 77.423 9.548 77.423 18.622-.001 10.562-44.823 19.119-100.111 19.119z"/></symbol><symbol viewBox="0 0 16 17" id="user" xmlns="http://www.w3.org/2000/svg"><path d="M10.97 8.615a4.824 4.824 0 1 0-5.965 0 8.04 8.04 0 0 0-5 6.576.809.809 0 0 0 1.608.177 6.432 6.432 0 0 1 12.783 0 .804.804 0 0 0 .803.715h.089a.804.804 0 0 0 .707-.884 8.04 8.04 0 0 0-5.024-6.584zm-2.982-.571a3.216 3.216 0 1 1 0-6.432 3.216 3.216 0 0 1 0 6.432z"/></symbol><symbol viewBox="0 0 21 13" id="vk" xmlns="http://www.w3.org/2000/svg"><path d="M10.275 12.643h1.255s.38-.042.572-.25c.179-.192.172-.552.172-.552s-.025-1.684.758-1.932c.77-.244 1.76 1.628 2.809 2.348.793.545 1.395.426 1.395.426l2.805-.04s1.468-.09.772-1.244c-.057-.094-.406-.853-2.086-2.413-1.759-1.632-1.523-1.367.596-4.19 1.29-1.72 1.806-2.77 1.645-3.22-.154-.427-1.103-.314-1.103-.314l-3.155.018s-.234-.031-.409.072c-.169.103-.278.339-.278.339s-.5 1.331-1.167 2.462c-1.405 2.388-1.969 2.514-2.198 2.366-.535-.345-.4-1.389-.4-2.13 0-2.313.35-3.278-.684-3.528-.344-.082-.597-.137-1.475-.147C8.973.703 8.02.718 7.48.982c-.36.176-.636.569-.467.59.209.028.681.128.932.47.324.44.313 1.429.313 1.429s.186 2.724-.435 3.062c-.427.233-1.01-.241-2.264-2.408-.642-1.11-1.128-2.337-1.128-2.337s-.093-.228-.26-.35c-.202-.149-.485-.196-.485-.196l-3 .019s-.451.013-.616.208c-.147.175-.012.534-.012.534S2.407 7.5 5.066 10.27c2.44 2.54 5.21 2.373 5.21 2.373z"/></symbol><symbol viewBox="0 0 226.777 226.777" id="xrp" xmlns="http://www.w3.org/2000/svg"><path d="M113.48.183C50.908.183.183 50.908.183 113.48c0 62.572 50.725 113.297 113.297 113.297 62.572 0 113.297-50.726 113.297-113.297C226.777 50.908 176.052.183 113.48.183zm47.419 163.777c-7.365 12.656-23.905 17.119-36.941 9.97-13.037-7.149-17.635-23.205-10.268-35.862 3.068-5.272 1.153-11.96-4.28-14.941-5.356-2.937-12.132-1.166-15.261 3.941h-.002v-.021c-.044.078-.083.155-.128.232-7.365 12.656-23.904 17.12-36.94 9.97-13.038-7.149-17.636-23.207-10.271-35.86 7.367-12.657 23.905-17.12 36.944-9.969 4.357 2.39 7.765 5.779 10.107 9.7v-.014l.002-.002c3.248 5.032 10.055 6.654 15.341 3.603 5.362-3.095 7.125-9.824 3.936-15.03-7.651-12.494-3.42-28.645 9.451-36.072 12.869-7.428 29.506-3.321 37.159 9.172 7.651 12.495 3.422 28.645-9.451 36.073a27.612 27.612 0 0 1-13.697 3.694l.012.005v.002c-6.175.207-11.081 5.161-11.007 11.191.073 6.11 5.239 11.008 11.533 10.936l-.039.021a27.627 27.627 0 0 1 13.533 3.401c13.034 7.151 17.632 23.206 10.267 35.86z"/></symbol><symbol id="xrp-logo" viewBox="0 0 52.44 56.69" xmlns="http://www.w3.org/2000/svg"><defs><style>.cicls-1{fill:#363635}</style></defs><title>Artboard 53</title><path class="cicls-1" d="M34.67 1.53a12 12 0 0 0-5.93 10.3 13.42 13.42 0 0 0 2 6.36C31.59 20 32 23 29 24.56a4.71 4.71 0 0 1-6.4-1.76 19.78 19.78 0 0 0-4.83-4.8 11.49 11.49 0 0 0-11.84 0 11.94 11.94 0 0 0 0 20.63 11.51 11.51 0 0 0 11.85 0 12.06 12.06 0 0 0 4.6-4.82A4.51 4.51 0 0 1 28.73 32a4.91 4.91 0 0 1 1.76 6.36 13.24 13.24 0 0 0-1.76 6.36 11.92 11.92 0 0 0 5.94 10.31 11.49 11.49 0 0 0 11.84 0 11.93 11.93 0 0 0 0-20.62 13.24 13.24 0 0 0-6.58-1.54 4.6 4.6 0 1 1 0-9.2 13.81 13.81 0 0 0 6.58-1.54 11.92 11.92 0 0 0 0-20.61A11.37 11.37 0 0 0 40.59 0a11.31 11.31 0 0 0-5.92 1.53z"/></symbol><symbol viewBox="0 0 21 15" id="yt" xmlns="http://www.w3.org/2000/svg"><path d="M11.292 14.508l-4.168-.076c-1.35-.027-2.702.026-4.025-.249-2.013-.411-2.155-2.427-2.304-4.118a28.889 28.889 0 0 1 .262-7.156C1.276 1.587 2.137.797 3.47.711 7.97.4 12.5.437 16.99.582a9.75 9.75 0 0 1 1.419.17c2.308.404 2.364 2.688 2.514 4.611a26.11 26.11 0 0 1-.2 5.826c-.228 1.598-.666 2.938-2.513 3.067-2.314.17-4.576.306-6.897.262 0-.01-.013-.01-.02-.01zm-2.45-4.045c1.744-1.002 3.455-1.986 5.19-2.981-1.748-1.001-3.456-1.986-5.19-2.98v5.96z"/></symbol><symbol viewBox="0 0 18 18" id="zoom" xmlns="http://www.w3.org/2000/svg"><path d="M17.468 16.087l-3.306-3.295a7.7 7.7 0 0 0 1.644-4.764 7.778 7.778 0 1 0-7.778 7.778 7.7 7.7 0 0 0 4.764-1.643l3.295 3.305a.973.973 0 0 0 1.594-.316.974.974 0 0 0-.213-1.065zM2.194 8.027a5.833 5.833 0 1 1 11.667 0 5.833 5.833 0 0 1-11.667 0z"/></symbol></svg>