<svg width="36" height="42" viewBox="0 0 36 42" fill="none" xmlns="http://www.w3.org/2000/svg">
<path opacity="0.1" d="M18.0002 42C8.72841 41.1334 0.71677 24.4363 0 10.3539C6.57774 9.32487 13.0833 5.25576 18.0002 0C22.6293 5.13975 29.4222 9.32487 36 10.3539C35.2832 24.4363 27.2719 41.1334 18.0002 42Z" fill="#B38C65"/>
<path d="M22.9518 19.4908V18.0263C22.9518 15.4619 20.8358 13.3755 18.2346 13.3755C15.6334 13.3755 13.5174 15.4619 13.5174 18.0263V19.4908H12.4692V28.9249H24V19.4908H22.9518ZM15.614 18.0263C15.614 16.6418 16.8148 15.4721 18.2346 15.4721C19.6544 15.4721 20.8551 16.6418 20.8551 18.0263V19.4908H15.614V18.0263ZM15.605 26.8768C14.8487 26.8768 14.4569 26.4289 14.4569 25.6453V25.3439H15.1851V25.6939C15.1851 26.0439 15.3388 26.17 15.5837 26.17C15.8289 26.17 15.9831 26.0439 15.9831 25.6939C15.9831 24.6864 14.4782 24.4973 14.4782 23.0973C14.4782 22.3134 14.8632 21.8654 15.6117 21.8654C16.3608 21.8654 16.7457 22.3134 16.7457 23.0973V23.2514H16.018V23.0483C16.018 22.6987 15.8779 22.5655 15.633 22.5655C15.3878 22.5655 15.2481 22.6987 15.2481 23.0483C15.2481 24.0563 16.7529 24.2453 16.7529 25.6453C16.7529 26.4289 16.3608 26.8768 15.605 26.8768ZM18.5717 26.8768C17.8159 26.8768 17.4237 26.4289 17.4237 25.6453V25.3439H18.1514V25.6939C18.1514 26.0439 18.3056 26.17 18.5508 26.17C18.7957 26.17 18.9494 26.0439 18.9494 25.6939C18.9494 24.6864 17.4446 24.4973 17.4446 23.0973C17.4446 22.3134 17.8295 21.8654 18.5785 21.8654C19.3275 21.8654 19.7125 22.3134 19.7125 23.0973V23.2514H18.9844V23.0483C18.9844 22.6987 18.8446 22.5655 18.5994 22.5655C18.3546 22.5655 18.2144 22.6987 18.2144 23.0483C18.2144 24.0563 19.7193 24.2453 19.7193 25.6453C19.7193 26.4289 19.3275 26.8768 18.5717 26.8768ZM22.5464 26.8211H20.5097V21.9216H21.2796V26.121H22.5464V26.8211Z" fill="#F3BF27"/>
</svg>
