<svg width="40" height="40" viewBox="0 0 40 40" fill="none" xmlns="http://www.w3.org/2000/svg">
<path fill-rule="evenodd" clip-rule="evenodd" d="M1.9502 38.3085V36.0795H2.99152V33.3776C2.99152 33.3776 4.15711 32.5707 4.98509 32.1265C5.81308 31.6823 6.66303 31.348 6.66303 31.348V33.3776H7.74969V36.0795H10.2817V33.3776H11.4513V29.8103C11.4513 29.8103 12.0594 29.7075 12.6454 29.7075C13.2313 29.7075 13.8905 29.7075 13.8905 29.7075V33.3776H15.2249V36.0795H17.6455V33.3776H18.8943V30.8577C18.8943 30.8577 19.6137 31.1209 20.1778 31.348C20.7419 31.5752 21.3605 31.8507 21.3605 31.8507V33.3776H22.4184V36.1927H24.9987V33.3776H26.1755V31.7413C26.1755 31.7413 26.7643 31.6126 27.3678 31.4806C27.9713 31.3487 28.5747 31.2167 28.5747 31.2167V33.3776H29.848V36.1927H31.0325V38.3085H1.9502Z" fill="#BB926A"/>
<path fill-rule="evenodd" clip-rule="evenodd" d="M18.7742 8.35471C17.7605 8.35471 16.9355 9.17968 16.9355 10.1934H17.693L31.6452 17.1695V20.6128H30.4194V23.0644H29.1936V32.8708H30.4194V35.3225H31.6452V38.9999H1V35.3225H2.22581V32.8708H3.45161V23.0644H2.22581V20.6128H1V17.1695L14.9521 10.1934H15.7097C15.7097 8.50365 17.0844 7.12891 18.7742 7.12891H21.8387V8.35471H18.7742ZM7.12896 34.0966H3.45154V35.3225H7.12896V34.0966ZM10.8065 23.0644V32.8708H9.58069V35.3225H8.35488V32.8708H7.12908V23.0644H8.35488V20.6128H9.58069V23.0644H10.8065ZM18.1613 32.8708V23.0644H16.9355V20.6128H15.7097V23.0644H14.4839V32.8708H15.7097V35.3225H16.9355V32.8708H18.1613ZM25.5162 23.0644V32.8708H24.2904V35.3225H23.0646V32.8708H21.8388V23.0644H23.0646V20.6128H24.2904V23.0644H25.5162ZM29.1935 35.3225V34.0966H25.5161V35.3225H29.1935ZM26.7418 32.8708V23.0644H27.9677V32.8708H26.7418ZM18.1612 21.8386H21.8386V20.6128H18.1612V21.8386ZM20.6128 23.0644V32.8708H19.387V23.0644H20.6128ZM21.8386 35.3225V34.0966H18.1612V35.3225H21.8386ZM14.4838 21.8386H10.8064V20.6128H14.4838V21.8386ZM13.258 32.8708V23.0644H12.0322V32.8708H13.258ZM14.4838 34.0966V35.3225H10.8064V34.0966H14.4838ZM3.45154 21.8386H7.12896V20.6128H3.45154V21.8386ZM5.90311 23.0644V32.8708H4.67731V23.0644H5.90311ZM30.4193 37.7741V36.5483H2.22577V37.7741H30.4193ZM29.1935 21.8386H25.5161V20.6128H29.1935V21.8386ZM24.2903 19.387H30.4193V17.927L17.4037 11.4192H16.9354V15.7095H15.7096V11.4192H15.2414L2.22577 17.927V19.387H8.3548H9.58061H15.7096H16.9354H23.0645H24.2903Z" fill="#594B3E"/>
<path d="M16.9355 10.1934H16.8355V10.2934H16.9355V10.1934ZM17.693 10.1934L17.7378 10.104L17.7166 10.0934H17.693V10.1934ZM31.6452 17.1695H31.7452V17.1077L31.6899 17.08L31.6452 17.1695ZM31.6452 20.6128V20.7128H31.7452V20.6128H31.6452ZM30.4194 20.6128V20.5128H30.3194V20.6128H30.4194ZM30.4194 23.0644V23.1644H30.5194V23.0644H30.4194ZM29.1936 23.0644V22.9644H29.0935V23.0644H29.1936ZM29.1936 32.8708H29.0935V32.9708H29.1936V32.8708ZM30.4194 32.8708H30.5194V32.7708H30.4194V32.8708ZM30.4194 35.3225H30.3194V35.4225H30.4194V35.3225ZM31.6452 35.3225H31.7452V35.2225H31.6452V35.3225ZM31.6452 38.9999V39.0999H31.7452V38.9999H31.6452ZM1 38.9999H0.9V39.0999H1V38.9999ZM1 35.3225V35.2225H0.9V35.3225H1ZM2.22581 35.3225V35.4225H2.32581V35.3225H2.22581ZM2.22581 32.8708V32.7708H2.12581V32.8708H2.22581ZM3.45161 32.8708V32.9708H3.55161V32.8708H3.45161ZM3.45161 23.0644H3.55161V22.9644H3.45161V23.0644ZM2.22581 23.0644H2.12581V23.1644H2.22581V23.0644ZM2.22581 20.6128H2.32581V20.5128H2.22581V20.6128ZM1 20.6128H0.9V20.7128H1V20.6128ZM1 17.1695L0.955279 17.08L0.9 17.1077V17.1695H1ZM14.9521 10.1934V10.0934H14.9285L14.9074 10.104L14.9521 10.1934ZM15.7097 10.1934V10.2934H15.8097V10.1934H15.7097ZM21.8387 7.12891H21.9387V7.02891H21.8387V7.12891ZM21.8387 8.35471V8.45471H21.9387V8.35471H21.8387ZM3.45154 34.0966V33.9966H3.35154V34.0966H3.45154ZM7.12896 34.0966H7.22896V33.9966H7.12896V34.0966ZM3.45154 35.3225H3.35154V35.4225H3.45154V35.3225ZM7.12896 35.3225V35.4225H7.22896V35.3225H7.12896ZM10.8065 32.8708V32.9708H10.9065V32.8708H10.8065ZM10.8065 23.0644H10.9065V22.9644H10.8065V23.0644ZM9.58069 32.8708V32.7708H9.48069V32.8708H9.58069ZM9.58069 35.3225V35.4225H9.68069V35.3225H9.58069ZM8.35488 35.3225H8.25488V35.4225H8.35488V35.3225ZM8.35488 32.8708H8.45488V32.7708H8.35488V32.8708ZM7.12908 32.8708H7.02908V32.9708H7.12908V32.8708ZM7.12908 23.0644V22.9644H7.02908V23.0644H7.12908ZM8.35488 23.0644V23.1644H8.45488V23.0644H8.35488ZM8.35488 20.6128V20.5128H8.25488V20.6128H8.35488ZM9.58069 20.6128H9.68069V20.5128H9.58069V20.6128ZM9.58069 23.0644H9.48069V23.1644H9.58069V23.0644ZM18.1613 23.0644H18.2613V22.9644H18.1613V23.0644ZM18.1613 32.8708V32.9708H18.2613V32.8708H18.1613ZM16.9355 23.0644H16.8355V23.1644H16.9355V23.0644ZM16.9355 20.6128H17.0355V20.5128H16.9355V20.6128ZM15.7097 20.6128V20.5128H15.6097V20.6128H15.7097ZM15.7097 23.0644V23.1644H15.8097V23.0644H15.7097ZM14.4839 23.0644V22.9644H14.3839V23.0644H14.4839ZM14.4839 32.8708H14.3839V32.9708H14.4839V32.8708ZM15.7097 32.8708H15.8097V32.7708H15.7097V32.8708ZM15.7097 35.3225H15.6097V35.4225H15.7097V35.3225ZM16.9355 35.3225V35.4225H17.0355V35.3225H16.9355ZM16.9355 32.8708V32.7708H16.8355V32.8708H16.9355ZM25.5162 32.8708V32.9708H25.6162V32.8708H25.5162ZM25.5162 23.0644H25.6162V22.9644H25.5162V23.0644ZM24.2904 32.8708V32.7708H24.1904V32.8708H24.2904ZM24.2904 35.3225V35.4225H24.3904V35.3225H24.2904ZM23.0646 35.3225H22.9646V35.4225H23.0646V35.3225ZM23.0646 32.8708H23.1646V32.7708H23.0646V32.8708ZM21.8388 32.8708H21.7388V32.9708H21.8388V32.8708ZM21.8388 23.0644V22.9644H21.7388V23.0644H21.8388ZM23.0646 23.0644V23.1644H23.1646V23.0644H23.0646ZM23.0646 20.6128V20.5128H22.9646V20.6128H23.0646ZM24.2904 20.6128H24.3904V20.5128H24.2904V20.6128ZM24.2904 23.0644H24.1904V23.1644H24.2904V23.0644ZM29.1935 34.0966H29.2935V33.9966H29.1935V34.0966ZM29.1935 35.3225V35.4225H29.2935V35.3225H29.1935ZM25.5161 34.0966V33.9966H25.4161V34.0966H25.5161ZM25.5161 35.3225H25.4161V35.4225H25.5161V35.3225ZM26.7418 23.0644V22.9644H26.6418V23.0644H26.7418ZM26.7418 32.8708H26.6418V32.9708H26.7418V32.8708ZM27.9677 23.0644H28.0677V22.9644H27.9677V23.0644ZM27.9677 32.8708V32.9708H28.0677V32.8708H27.9677ZM21.8386 21.8386V21.9386H21.9387V21.8386H21.8386ZM18.1612 21.8386H18.0612V21.9386H18.1612V21.8386ZM21.8386 20.6128H21.9387V20.5128H21.8386V20.6128ZM18.1612 20.6128V20.5128H18.0612V20.6128H18.1612ZM20.6128 32.8708V32.9708H20.7128V32.8708H20.6128ZM20.6128 23.0644H20.7128V22.9644H20.6128V23.0644ZM19.387 32.8708H19.287V32.9708H19.387V32.8708ZM19.387 23.0644V22.9644H19.287V23.0644H19.387ZM21.8386 34.0966H21.9387V33.9966H21.8386V34.0966ZM21.8386 35.3225V35.4225H21.9387V35.3225H21.8386ZM18.1612 34.0966V33.9966H18.0612V34.0966H18.1612ZM18.1612 35.3225H18.0612V35.4225H18.1612V35.3225ZM10.8064 21.8386H10.7064V21.9386H10.8064V21.8386ZM14.4838 21.8386V21.9386H14.5838V21.8386H14.4838ZM10.8064 20.6128V20.5128H10.7064V20.6128H10.8064ZM14.4838 20.6128H14.5838V20.5128H14.4838V20.6128ZM13.258 23.0644H13.358V22.9644H13.258V23.0644ZM13.258 32.8708V32.9708H13.358V32.8708H13.258ZM12.0322 23.0644V22.9644H11.9322V23.0644H12.0322ZM12.0322 32.8708H11.9322V32.9708H12.0322V32.8708ZM14.4838 35.3225V35.4225H14.5838V35.3225H14.4838ZM14.4838 34.0966H14.5838V33.9966H14.4838V34.0966ZM10.8064 35.3225H10.7064V35.4225H10.8064V35.3225ZM10.8064 34.0966V33.9966H10.7064V34.0966H10.8064ZM7.12896 21.8386V21.9386H7.22896V21.8386H7.12896ZM3.45154 21.8386H3.35154V21.9386H3.45154V21.8386ZM7.12896 20.6128H7.22896V20.5128H7.12896V20.6128ZM3.45154 20.6128V20.5128H3.35154V20.6128H3.45154ZM5.90311 32.8708V32.9708H6.00311V32.8708H5.90311ZM5.90311 23.0644H6.00311V22.9644H5.90311V23.0644ZM4.67731 32.8708H4.57731V32.9708H4.67731V32.8708ZM4.67731 23.0644V22.9644H4.57731V23.0644H4.67731ZM30.4193 36.5483H30.5193V36.4483H30.4193V36.5483ZM30.4193 37.7741V37.8741H30.5193V37.7741H30.4193ZM2.22577 36.5483V36.4483H2.12577V36.5483H2.22577ZM2.22577 37.7741H2.12577V37.8741H2.22577V37.7741ZM25.5161 21.8386H25.4161V21.9386H25.5161V21.8386ZM29.1935 21.8386V21.9386H29.2935V21.8386H29.1935ZM25.5161 20.6128V20.5128H25.4161V20.6128H25.5161ZM29.1935 20.6128H29.2935V20.5128H29.1935V20.6128ZM30.4193 19.387V19.487H30.5193V19.387H30.4193ZM30.4193 17.927H30.5193V17.8652L30.464 17.8376L30.4193 17.927ZM17.4037 11.4192L17.4484 11.3298L17.4273 11.3192H17.4037V11.4192ZM16.9354 11.4192V11.3192H16.8354V11.4192H16.9354ZM16.9354 15.7095V15.8095H17.0354V15.7095H16.9354ZM15.7096 15.7095H15.6096V15.8095H15.7096V15.7095ZM15.7096 11.4192H15.8096V11.3192H15.7096V11.4192ZM15.2414 11.4192V11.3192H15.2178L15.1967 11.3298L15.2414 11.4192ZM2.22577 17.927L2.18105 17.8376L2.12577 17.8652V17.927H2.22577ZM2.22577 19.387H2.12577V19.487H2.22577V19.387ZM17.0355 10.1934C17.0355 9.23491 17.8157 8.45471 18.7742 8.45471V8.25471C17.7052 8.25471 16.8355 9.12445 16.8355 10.1934H17.0355ZM17.693 10.0934H16.9355V10.2934H17.693V10.0934ZM31.6899 17.08L17.7378 10.104L17.6483 10.2829L31.6004 17.2589L31.6899 17.08ZM31.7452 20.6128V17.1695H31.5452V20.6128H31.7452ZM30.4194 20.7128H31.6452V20.5128H30.4194V20.7128ZM30.5194 23.0644V20.6128H30.3194V23.0644H30.5194ZM29.1936 23.1644H30.4194V22.9644H29.1936V23.1644ZM29.2936 32.8708V23.0644H29.0935V32.8708H29.2936ZM30.4194 32.7708H29.1936V32.9708H30.4194V32.7708ZM30.5194 35.3225V32.8708H30.3194V35.3225H30.5194ZM31.6452 35.2225H30.4194V35.4225H31.6452V35.2225ZM31.7452 38.9999V35.3225H31.5452V38.9999H31.7452ZM1 39.0999H31.6452V38.8999H1V39.0999ZM0.9 35.3225V38.9999H1.1V35.3225H0.9ZM2.22581 35.2225H1V35.4225H2.22581V35.2225ZM2.12581 32.8708V35.3225H2.32581V32.8708H2.12581ZM3.45161 32.7708H2.22581V32.9708H3.45161V32.7708ZM3.35161 23.0644V32.8708H3.55161V23.0644H3.35161ZM2.22581 23.1644H3.45161V22.9644H2.22581V23.1644ZM2.12581 20.6128V23.0644H2.32581V20.6128H2.12581ZM1 20.7128H2.22581V20.5128H1V20.7128ZM0.9 17.1695V20.6128H1.1V17.1695H0.9ZM14.9074 10.104L0.955279 17.08L1.04472 17.2589L14.9969 10.2829L14.9074 10.104ZM15.7097 10.0934H14.9521V10.2934H15.7097V10.0934ZM18.7742 7.02891C17.0292 7.02891 15.6097 8.44842 15.6097 10.1934H15.8097C15.8097 8.55888 17.1396 7.22891 18.7742 7.22891V7.02891ZM21.8387 7.02891H18.7742V7.22891H21.8387V7.02891ZM21.9387 8.35471V7.12891H21.7387V8.35471H21.9387ZM18.7742 8.45471H21.8387V8.25471H18.7742V8.45471ZM3.45154 34.1966H7.12896V33.9966H3.45154V34.1966ZM3.55154 35.3225V34.0966H3.35154V35.3225H3.55154ZM7.12896 35.2225H3.45154V35.4225H7.12896V35.2225ZM7.02896 34.0966V35.3225H7.22896V34.0966H7.02896ZM10.9065 32.8708V23.0644H10.7065V32.8708H10.9065ZM9.58069 32.9708H10.8065V32.7708H9.58069V32.9708ZM9.68069 35.3225V32.8708H9.48069V35.3225H9.68069ZM8.35488 35.4225H9.58069V35.2225H8.35488V35.4225ZM8.25488 32.8708V35.3225H8.45488V32.8708H8.25488ZM7.12908 32.9708H8.35488V32.7708H7.12908V32.9708ZM7.02908 23.0644V32.8708H7.22908V23.0644H7.02908ZM8.35488 22.9644H7.12908V23.1644H8.35488V22.9644ZM8.25488 20.6128V23.0644H8.45488V20.6128H8.25488ZM9.58069 20.5128H8.35488V20.7128H9.58069V20.5128ZM9.68069 23.0644V20.6128H9.48069V23.0644H9.68069ZM10.8065 22.9644H9.58069V23.1644H10.8065V22.9644ZM18.0613 23.0644V32.8708H18.2613V23.0644H18.0613ZM16.9355 23.1644H18.1613V22.9644H16.9355V23.1644ZM16.8355 20.6128V23.0644H17.0355V20.6128H16.8355ZM15.7097 20.7128H16.9355V20.5128H15.7097V20.7128ZM15.8097 23.0644V20.6128H15.6097V23.0644H15.8097ZM14.4839 23.1644H15.7097V22.9644H14.4839V23.1644ZM14.5839 32.8708V23.0644H14.3839V32.8708H14.5839ZM15.7097 32.7708H14.4839V32.9708H15.7097V32.7708ZM15.8097 35.3225V32.8708H15.6097V35.3225H15.8097ZM16.9355 35.2225H15.7097V35.4225H16.9355V35.2225ZM16.8355 32.8708V35.3225H17.0355V32.8708H16.8355ZM18.1613 32.7708H16.9355V32.9708H18.1613V32.7708ZM25.6162 32.8708V23.0644H25.4162V32.8708H25.6162ZM24.2904 32.9708H25.5162V32.7708H24.2904V32.9708ZM24.3904 35.3225V32.8708H24.1904V35.3225H24.3904ZM23.0646 35.4225H24.2904V35.2225H23.0646V35.4225ZM22.9646 32.8708V35.3225H23.1646V32.8708H22.9646ZM21.8388 32.9708H23.0646V32.7708H21.8388V32.9708ZM21.7388 23.0644V32.8708H21.9388V23.0644H21.7388ZM23.0646 22.9644H21.8388V23.1644H23.0646V22.9644ZM22.9646 20.6128V23.0644H23.1646V20.6128H22.9646ZM24.2904 20.5128H23.0646V20.7128H24.2904V20.5128ZM24.3904 23.0644V20.6128H24.1904V23.0644H24.3904ZM25.5162 22.9644H24.2904V23.1644H25.5162V22.9644ZM29.0935 34.0966V35.3225H29.2935V34.0966H29.0935ZM25.5161 34.1966H29.1935V33.9966H25.5161V34.1966ZM25.6161 35.3225V34.0966H25.4161V35.3225H25.6161ZM29.1935 35.2225H25.5161V35.4225H29.1935V35.2225ZM26.6418 23.0644V32.8708H26.8418V23.0644H26.6418ZM27.9677 22.9644H26.7418V23.1644H27.9677V22.9644ZM28.0677 32.8708V23.0644H27.8677V32.8708H28.0677ZM26.7418 32.9708H27.9677V32.7708H26.7418V32.9708ZM21.8386 21.7386H18.1612V21.9386H21.8386V21.7386ZM21.7386 20.6128V21.8386H21.9387V20.6128H21.7386ZM18.1612 20.7128H21.8386V20.5128H18.1612V20.7128ZM18.2612 21.8386V20.6128H18.0612V21.8386H18.2612ZM20.7128 32.8708V23.0644H20.5128V32.8708H20.7128ZM19.387 32.9708H20.6128V32.7708H19.387V32.9708ZM19.287 23.0644V32.8708H19.487V23.0644H19.287ZM20.6128 22.9644H19.387V23.1644H20.6128V22.9644ZM21.7386 34.0966V35.3225H21.9387V34.0966H21.7386ZM18.1612 34.1966H21.8386V33.9966H18.1612V34.1966ZM18.2612 35.3225V34.0966H18.0612V35.3225H18.2612ZM21.8386 35.2225H18.1612V35.4225H21.8386V35.2225ZM10.8064 21.9386H14.4838V21.7386H10.8064V21.9386ZM10.7064 20.6128V21.8386H10.9064V20.6128H10.7064ZM14.4838 20.5128H10.8064V20.7128H14.4838V20.5128ZM14.5838 21.8386V20.6128H14.3838V21.8386H14.5838ZM13.158 23.0644V32.8708H13.358V23.0644H13.158ZM12.0322 23.1644H13.258V22.9644H12.0322V23.1644ZM12.1322 32.8708V23.0644H11.9322V32.8708H12.1322ZM13.258 32.7708H12.0322V32.9708H13.258V32.7708ZM14.5838 35.3225V34.0966H14.3838V35.3225H14.5838ZM10.8064 35.4225H14.4838V35.2225H10.8064V35.4225ZM10.7064 34.0966V35.3225H10.9064V34.0966H10.7064ZM14.4838 33.9966H10.8064V34.1966H14.4838V33.9966ZM7.12896 21.7386H3.45154V21.9386H7.12896V21.7386ZM7.02896 20.6128V21.8386H7.22896V20.6128H7.02896ZM3.45154 20.7128H7.12896V20.5128H3.45154V20.7128ZM3.55154 21.8386V20.6128H3.35154V21.8386H3.55154ZM6.00311 32.8708V23.0644H5.80311V32.8708H6.00311ZM4.67731 32.9708H5.90311V32.7708H4.67731V32.9708ZM4.57731 23.0644V32.8708H4.77731V23.0644H4.57731ZM5.90311 22.9644H4.67731V23.1644H5.90311V22.9644ZM30.3193 36.5483V37.7741H30.5193V36.5483H30.3193ZM2.22577 36.6483H30.4193V36.4483H2.22577V36.6483ZM2.32577 37.7741V36.5483H2.12577V37.7741H2.32577ZM30.4193 37.6741H2.22577V37.8741H30.4193V37.6741ZM25.5161 21.9386H29.1935V21.7386H25.5161V21.9386ZM25.4161 20.6128V21.8386H25.6161V20.6128H25.4161ZM29.1935 20.5128H25.5161V20.7128H29.1935V20.5128ZM29.2935 21.8386V20.6128H29.0935V21.8386H29.2935ZM30.4193 19.287H24.2903V19.487H30.4193V19.287ZM30.3193 17.927V19.387H30.5193V17.927H30.3193ZM17.359 11.5087L30.3746 18.0165L30.464 17.8376L17.4484 11.3298L17.359 11.5087ZM16.9354 11.5192H17.4037V11.3192H16.9354V11.5192ZM17.0354 15.7095V11.4192H16.8354V15.7095H17.0354ZM15.7096 15.8095H16.9354V15.6095H15.7096V15.8095ZM15.6096 11.4192V15.7095H15.8096V11.4192H15.6096ZM15.2414 11.5192H15.7096V11.3192H15.2414V11.5192ZM2.27049 18.0165L15.2861 11.5087L15.1967 11.3298L2.18105 17.8376L2.27049 18.0165ZM2.32577 19.387V17.927H2.12577V19.387H2.32577ZM8.3548 19.287H2.22577V19.487H8.3548V19.287ZM9.58061 19.287H8.3548V19.487H9.58061V19.287ZM15.7096 19.287H9.58061V19.487H15.7096V19.287ZM16.9354 19.287H15.7096V19.487H16.9354V19.287ZM23.0645 19.287H16.9354V19.487H23.0645V19.287ZM24.2903 19.287H23.0645V19.487H24.2903V19.287Z" fill="#594B3E"/>
<rect x="5.90332" y="16.9355" width="20.8387" height="1.22581" fill="#594B3E" stroke="#594B3E" stroke-width="0.1"/>
<path fill-rule="evenodd" clip-rule="evenodd" d="M25.5161 7.74194C25.5161 4.02468 28.5408 1 32.258 1C35.9753 1 39 4.02468 39 7.74194C39 11.4592 35.9753 14.4839 32.258 14.4839C28.5408 14.4839 25.5161 11.4592 25.5161 7.74194ZM26.7418 7.74193C26.7418 10.7838 29.2161 13.2581 32.2579 13.2581C35.2998 13.2581 37.7741 10.7838 37.7741 7.74193C37.7741 4.7001 35.2998 2.22581 32.2579 2.22581C29.2161 2.22581 26.7418 4.7001 26.7418 7.74193Z" fill="#594B3E"/>
<path d="M32.258 0.95C28.5132 0.95 25.4661 3.99706 25.4661 7.74194H25.5661C25.5661 4.05229 28.5684 1.05 32.258 1.05V0.95ZM39.05 7.74194C39.05 3.99706 36.0029 0.95 32.258 0.95V1.05C35.9477 1.05 38.95 4.05229 38.95 7.74194H39.05ZM32.258 14.5339C36.0029 14.5339 39.05 11.4868 39.05 7.74194H38.95C38.95 11.4316 35.9477 14.4339 32.258 14.4339V14.5339ZM25.4661 7.74194C25.4661 11.4868 28.5132 14.5339 32.258 14.5339V14.4339C28.5684 14.4339 25.5661 11.4316 25.5661 7.74194H25.4661ZM32.2579 13.2081C29.2437 13.2081 26.7918 10.7562 26.7918 7.74193H26.6918C26.6918 10.8114 29.1885 13.3081 32.2579 13.3081V13.2081ZM37.7241 7.74193C37.7241 10.7562 35.2722 13.2081 32.2579 13.2081V13.3081C35.3274 13.3081 37.8241 10.8114 37.8241 7.74193H37.7241ZM32.2579 2.27581C35.2722 2.27581 37.7241 4.72771 37.7241 7.74193H37.8241C37.8241 4.67248 35.3274 2.17581 32.2579 2.17581V2.27581ZM26.7918 7.74193C26.7918 4.72771 29.2437 2.27581 32.2579 2.27581V2.17581C29.1885 2.17581 26.6918 4.67248 26.6918 7.74193H26.7918Z" fill="#594B3E"/>
<rect x="23.0645" y="7.12891" width="1.22581" height="1.22581" fill="#594B3E"/>
<path d="M35.3227 24.9031C35.3227 25.9169 34.4977 26.7418 33.484 26.7418H32.8711V27.9676H33.484C35.1738 27.9676 36.5485 26.5929 36.5485 24.9031V15.0967H35.3227V24.9031Z" fill="#594B3E"/>
<rect x="30.4194" y="26.7417" width="1.22581" height="1.22581" fill="#594B3E"/>
</svg>
