<svg width="37" height="36" viewBox="0 0 37 36" fill="none" xmlns="http://www.w3.org/2000/svg">
<path fill-rule="evenodd" clip-rule="evenodd" d="M23.273 8.42407C23.2698 8.47465 23.2618 8.52481 23.2491 8.57388C24.4731 9.88581 25.1588 11.6101 25.1701 13.4043C25.196 17.3226 22.0281 20.621 18.1098 20.621H18.064C14.1663 20.621 10.9838 17.3988 10.9586 13.4964C10.9454 11.2619 11.9679 9.14717 13.7275 7.7698V4.71194C13.7275 4.41907 13.9649 4.18164 14.2578 4.18164C14.5507 4.18164 14.7881 4.41907 14.7881 4.71194V7.0877C15.7856 6.5682 16.8943 6.29886 18.019 6.30285H18.0654C19.553 6.29558 21.0048 6.75969 22.2124 7.62861V5.24225C22.2124 4.94937 22.4498 4.71194 22.7427 4.71194C23.0355 4.71194 23.273 4.94937 23.273 5.24225V8.42407ZM18.0633 19.5604H18.1024C21.4367 19.5604 24.1306 16.7564 24.1094 13.4235C24.0882 10.1031 21.379 7.36346 18.0646 7.36346H18.0255C14.6925 7.36346 11.9973 10.1681 12.0185 13.501C12.0397 16.8214 14.7489 19.5604 18.0633 19.5604Z" fill="#594B3E"/>
<path d="M23.2491 8.57388L23.1039 8.53626L23.0832 8.61598L23.1394 8.6762L23.2491 8.57388ZM23.273 8.42407L23.423 8.43345V8.42407H23.273ZM25.1701 13.4043L25.0201 13.4052V13.4053L25.1701 13.4043ZM10.9586 13.4964L10.8086 13.4973L10.8086 13.4974L10.9586 13.4964ZM13.7275 7.7698L13.8199 7.88792L13.8775 7.84288V7.7698H13.7275ZM14.7881 7.0877H14.6381V7.33495L14.8574 7.22074L14.7881 7.0877ZM18.019 6.30285L18.0184 6.45285H18.019V6.30285ZM18.0654 6.30285V6.45285L18.0661 6.45285L18.0654 6.30285ZM22.2124 7.62861L22.1247 7.75037L22.3624 7.92134V7.62861H22.2124ZM24.1094 13.4235L24.2594 13.4225V13.4225L24.1094 13.4235ZM12.0185 13.501L11.8685 13.502L11.8685 13.502L12.0185 13.501ZM23.3943 8.61149C23.4094 8.55318 23.4189 8.49355 23.4227 8.43343L23.1233 8.4147C23.1207 8.45574 23.1142 8.49645 23.1039 8.53626L23.3943 8.61149ZM25.3201 13.4033C25.3086 11.5715 24.6084 9.81101 23.3588 8.47155L23.1394 8.6762C24.3377 9.9606 25.009 11.6487 25.0201 13.4052L25.3201 13.4033ZM18.1098 20.771C22.1143 20.771 25.3465 17.4018 25.3201 13.4033L25.0201 13.4053C25.0455 17.2433 21.9419 20.471 18.1098 20.471V20.771ZM18.064 20.771H18.1098V20.471H18.064V20.771ZM10.8086 13.4974C10.8343 17.4805 14.0821 20.771 18.064 20.771V20.471C14.2505 20.471 11.1333 17.3171 11.1086 13.4954L10.8086 13.4974ZM13.635 7.65169C11.8388 9.05768 10.7951 11.2163 10.8086 13.4973L11.1086 13.4955C11.0957 11.3074 12.0969 9.23667 13.8199 7.88792L13.635 7.65169ZM13.5775 4.71194V7.7698H13.8775V4.71194H13.5775ZM14.2578 4.03164C13.8821 4.03164 13.5775 4.33622 13.5775 4.71194H13.8775C13.8775 4.50191 14.0477 4.33164 14.2578 4.33164V4.03164ZM14.9381 4.71194C14.9381 4.33622 14.6335 4.03164 14.2578 4.03164V4.33164C14.4678 4.33164 14.6381 4.50191 14.6381 4.71194H14.9381ZM14.9381 7.0877V4.71194H14.6381V7.0877H14.9381ZM18.0195 6.15285C16.8706 6.14877 15.7378 6.42394 14.7188 6.95466L14.8574 7.22074C15.8333 6.71247 16.9181 6.44894 18.0184 6.45285L18.0195 6.15285ZM18.0654 6.15285H18.019V6.45285H18.0654V6.15285ZM22.3 7.50686C21.0667 6.61942 19.584 6.14542 18.0646 6.15285L18.0661 6.45285C19.5221 6.44573 20.9429 6.89996 22.1247 7.75037L22.3 7.50686ZM22.0624 5.24225V7.62861H22.3624V5.24225H22.0624ZM22.7427 4.56194C22.3669 4.56194 22.0624 4.86653 22.0624 5.24225H22.3624C22.3624 5.03221 22.5326 4.86194 22.7427 4.86194V4.56194ZM23.423 5.24225C23.423 4.86653 23.1184 4.56194 22.7427 4.56194V4.86194C22.9527 4.86194 23.123 5.03221 23.123 5.24225H23.423ZM23.423 8.42407V5.24225H23.123V8.42407H23.423ZM18.1024 19.4104H18.0633V19.7104H18.1024V19.4104ZM23.9594 13.4244C23.9801 16.6772 21.3505 19.4104 18.1024 19.4104V19.7104C21.5228 19.7104 24.2811 16.8357 24.2594 13.4225L23.9594 13.4244ZM18.0646 7.51346C21.2949 7.51346 23.9387 10.1849 23.9594 13.4245L24.2594 13.4225C24.2377 10.0213 21.4631 7.21346 18.0646 7.21346V7.51346ZM18.0255 7.51346H18.0646V7.21346H18.0255V7.51346ZM12.1685 13.5001C12.1478 10.2474 14.7787 7.51346 18.0255 7.51346V7.21346C14.6064 7.21346 11.8468 10.0888 11.8685 13.502L12.1685 13.5001ZM18.0633 19.4104C14.833 19.4104 12.1892 16.7396 12.1685 13.5001L11.8685 13.502C11.8902 16.9032 14.6648 19.7104 18.0633 19.7104V19.4104Z" fill="#594B3E"/>
<path fill-rule="evenodd" clip-rule="evenodd" d="M8.35205 14.1084C8.35016 14.1382 8.34539 14.1678 8.33781 14.1968C9.06854 14.9706 9.47794 15.9877 9.48471 17.046C9.50014 19.3573 7.60882 21.3029 5.2695 21.3029H5.24219C2.91514 21.3029 1.01511 19.4022 1.00008 17.1004C0.992173 15.7823 1.60261 14.5349 2.65315 13.7225V11.9188C2.65315 11.746 2.7949 11.606 2.96976 11.606C3.14461 11.606 3.28636 11.746 3.28636 11.9188V13.3201C3.88188 13.0137 4.54384 12.8548 5.21528 12.8572H5.24299C6.13117 12.8529 6.9979 13.1266 7.71884 13.6392V12.2316C7.71884 12.0588 7.86059 11.9188 8.03545 11.9188C8.2103 11.9188 8.35205 12.0588 8.35205 12.2316V14.1084ZM5.24186 20.6773H5.26521C7.25587 20.6773 8.86423 19.0234 8.85156 17.0574C8.8389 15.0988 7.22144 13.4828 5.24266 13.4828H5.21931C3.22944 13.4828 1.62029 15.1371 1.63296 17.1031C1.64562 19.0617 3.26308 20.6773 5.24186 20.6773Z" fill="#594B3E"/>
<path d="M8.33781 14.1968L8.14434 14.146L8.1162 14.2534L8.19239 14.3341L8.33781 14.1968ZM8.35205 14.1084L8.55205 14.1211V14.1084H8.35205ZM9.48471 17.046L9.28471 17.0473V17.0474L9.48471 17.046ZM1.00008 17.1004L0.800079 17.1016L0.80008 17.1017L1.00008 17.1004ZM2.65315 13.7225L2.77551 13.8807L2.85315 13.8206V13.7225H2.65315ZM3.28636 13.3201H3.08636V13.648L3.37787 13.498L3.28636 13.3201ZM5.21528 12.8572L5.21458 13.0572H5.21528V12.8572ZM5.24299 12.8572V13.0572L5.24395 13.0572L5.24299 12.8572ZM7.71884 13.6392L7.60296 13.8022L7.91884 14.0268V13.6392H7.71884ZM8.85156 17.0574L9.05156 17.0561V17.0561L8.85156 17.0574ZM1.63296 17.1031L1.43296 17.1044L1.43296 17.1044L1.63296 17.1031ZM8.53127 14.2475C8.54212 14.2061 8.54895 14.1637 8.55165 14.121L8.15245 14.0958C8.15138 14.1127 8.14866 14.1296 8.14434 14.146L8.53127 14.2475ZM9.6847 17.0448C9.67761 15.9355 9.24849 14.8699 8.48322 14.0595L8.19239 14.3341C8.88859 15.0714 9.27827 16.0399 9.28471 17.0473L9.6847 17.0448ZM5.2695 21.5029C7.72148 21.5029 9.70087 19.4652 9.6847 17.0447L9.28471 17.0474C9.29942 19.2493 7.49616 21.1029 5.2695 21.1029V21.5029ZM5.24219 21.5029H5.2695V21.1029H5.24219V21.5029ZM0.80008 17.1017C0.815837 19.5135 2.80516 21.5029 5.24219 21.5029V21.1029C3.02512 21.1029 1.21439 19.291 1.20007 17.0991L0.80008 17.1017ZM2.5308 13.5643C1.43139 14.4145 0.791799 15.7206 0.800079 17.1016L1.20007 17.0992C1.19255 15.844 1.77383 14.6553 2.77551 13.8807L2.5308 13.5643ZM2.45315 11.9188V13.7225H2.85315V11.9188H2.45315ZM2.96976 11.406C2.68673 11.406 2.45315 11.6333 2.45315 11.9188H2.85315C2.85315 11.8587 2.90307 11.806 2.96976 11.806V11.406ZM3.48636 11.9188C3.48636 11.6333 3.25279 11.406 2.96976 11.406V11.806C3.03644 11.806 3.08636 11.8587 3.08636 11.9188H3.48636ZM3.48636 13.3201V11.9188H3.08636V13.3201H3.48636ZM5.21599 12.6572C4.51256 12.6547 3.81896 12.8211 3.19485 13.1423L3.37787 13.498C3.9448 13.2062 4.57513 13.0549 5.21458 13.0572L5.21599 12.6572ZM5.24299 12.6572H5.21528V13.0572H5.24299V12.6572ZM7.83473 13.4762C7.07951 12.9393 6.17188 12.6527 5.24202 12.6572L5.24395 13.0572C6.09045 13.0531 6.91628 13.314 7.60296 13.8022L7.83473 13.4762ZM7.51884 12.2316V13.6392H7.91884V12.2316H7.51884ZM8.03545 11.7188C7.75242 11.7188 7.51884 11.9461 7.51884 12.2316H7.91884C7.91884 12.1715 7.96876 12.1188 8.03545 12.1188V11.7188ZM8.55205 12.2316C8.55205 11.9461 8.31848 11.7188 8.03545 11.7188V12.1188C8.10213 12.1188 8.15205 12.1715 8.15205 12.2316H8.55205ZM8.55205 14.1084V12.2316H8.15205V14.1084H8.55205ZM5.26521 20.4773H5.24186V20.8773H5.26521V20.4773ZM8.65157 17.0587C8.66353 18.9153 7.14327 20.4773 5.26521 20.4773V20.8773C7.36847 20.8773 9.06493 19.1314 9.05156 17.0561L8.65157 17.0587ZM5.24266 13.6828C7.11156 13.6828 8.63962 15.2101 8.65157 17.0587L9.05156 17.0561C9.03818 14.9875 7.33132 13.2828 5.24266 13.2828V13.6828ZM5.21931 13.6828H5.24266V13.2828H5.21931V13.6828ZM1.83295 17.1018C1.82099 15.2452 3.34204 13.6828 5.21931 13.6828V13.2828C3.11684 13.2828 1.41959 15.0291 1.43296 17.1044L1.83295 17.1018ZM5.24186 20.4773C3.37293 20.4773 1.8449 18.9503 1.83295 17.1018L1.43296 17.1044C1.44634 19.173 3.15323 20.8773 5.24186 20.8773V20.4773Z" fill="#594B3E"/>
<path fill-rule="evenodd" clip-rule="evenodd" d="M34.8672 11.9873C34.8653 12.0171 34.8605 12.0467 34.8529 12.0757C35.5837 12.8495 35.9931 13.8666 35.9998 14.9249C36.0153 17.2362 34.124 19.1818 31.7846 19.1818H31.7573C29.4303 19.1818 27.5303 17.2811 27.5152 14.9793C27.5073 13.6612 28.1177 12.4138 29.1683 11.6014V9.79767C29.1683 9.62491 29.31 9.48486 29.4849 9.48486C29.6598 9.48486 29.8015 9.62491 29.8015 9.79767V11.199C30.397 10.8926 31.059 10.7337 31.7304 10.7361H31.7581C32.6463 10.7318 33.513 11.0056 34.234 11.5181V10.1105C34.234 9.93772 34.3757 9.79767 34.5506 9.79767C34.7254 9.79767 34.8672 9.93772 34.8672 10.1105V11.9873ZM31.7569 18.5562H31.7802C33.7709 18.5562 35.3792 16.9023 35.3666 14.9363C35.3539 12.9777 33.7364 11.3617 31.7577 11.3617H31.7343C29.7444 11.3617 28.1353 13.016 28.148 14.982C28.1606 16.9406 29.7781 18.5562 31.7569 18.5562Z" fill="#594B3E"/>
<path d="M34.8529 12.0757L34.6595 12.025L34.6313 12.1323L34.7075 12.213L34.8529 12.0757ZM34.8672 11.9873L35.0672 12V11.9873H34.8672ZM35.9998 14.9249L35.7998 14.9262V14.9263L35.9998 14.9249ZM27.5152 14.9793L27.3152 14.9805L27.3152 14.9806L27.5152 14.9793ZM29.1683 11.6014L29.2906 11.7596L29.3683 11.6995V11.6014H29.1683ZM29.8015 11.199H29.6015V11.5269L29.893 11.3769L29.8015 11.199ZM31.7304 10.7361L31.7297 10.9361H31.7304V10.7361ZM31.7581 10.7361V10.9361L31.7591 10.9361L31.7581 10.7361ZM34.234 11.5181L34.1181 11.6811L34.434 11.9057V11.5181H34.234ZM35.3666 14.9363L35.5666 14.935V14.935L35.3666 14.9363ZM28.148 14.982L27.948 14.9833L27.948 14.9833L28.148 14.982ZM35.0464 12.1264C35.0573 12.085 35.0641 12.0427 35.0668 11.9999L34.6676 11.9747C34.6665 11.9916 34.6638 12.0085 34.6595 12.025L35.0464 12.1264ZM36.1998 14.9237C36.1927 13.8144 35.7636 12.7488 34.9984 11.9384L34.7075 12.213C35.4037 12.9503 35.7934 13.9188 35.7998 14.9262L36.1998 14.9237ZM31.7846 19.3818C34.2366 19.3818 36.216 17.3441 36.1998 14.9236L35.7998 14.9263C35.8146 17.1282 34.0113 18.9818 31.7846 18.9818V19.3818ZM31.7573 19.3818H31.7846V18.9818H31.7573V19.3818ZM27.3152 14.9806C27.331 17.3924 29.3203 19.3818 31.7573 19.3818V18.9818C29.5403 18.9818 27.7295 17.1699 27.7152 14.978L27.3152 14.9806ZM29.0459 11.4432C27.9465 12.2934 27.3069 13.5995 27.3152 14.9805L27.7152 14.9781C27.7077 13.7229 28.289 12.5343 29.2906 11.7596L29.0459 11.4432ZM28.9683 9.79767V11.6014H29.3683V9.79767H28.9683ZM29.4849 9.28486C29.2019 9.28486 28.9683 9.51218 28.9683 9.79767H29.3683C29.3683 9.73764 29.4182 9.68486 29.4849 9.68486V9.28486ZM30.0015 9.79767C30.0015 9.51218 29.7679 9.28486 29.4849 9.28486V9.68486C29.5516 9.68486 29.6015 9.73764 29.6015 9.79767H30.0015ZM30.0015 11.199V9.79767H29.6015V11.199H30.0015ZM31.7311 10.5361C31.0277 10.5336 30.3341 10.7001 29.71 11.0212L29.893 11.3769C30.4599 11.0852 31.0903 10.9338 31.7297 10.9361L31.7311 10.5361ZM31.7581 10.5361H31.7304V10.9361H31.7581V10.5361ZM34.3499 11.3551C33.5947 10.8182 32.687 10.5316 31.7572 10.5361L31.7591 10.9361C32.6056 10.932 33.4314 11.1929 34.1181 11.6811L34.3499 11.3551ZM34.034 10.1105V11.5181H34.434V10.1105H34.034ZM34.5506 9.59767C34.2676 9.59767 34.034 9.82499 34.034 10.1105H34.434C34.434 10.0504 34.4839 9.99767 34.5506 9.99767V9.59767ZM35.0672 10.1105C35.0672 9.82499 34.8336 9.59767 34.5506 9.59767V9.99767C34.6173 9.99767 34.6672 10.0504 34.6672 10.1105H35.0672ZM35.0672 11.9873V10.1105H34.6672V11.9873H35.0672ZM31.7802 18.3562H31.7569V18.7562H31.7802V18.3562ZM35.1666 14.9376C35.1785 16.7942 33.6583 18.3562 31.7802 18.3562V18.7562C33.8835 18.7562 35.5799 17.0103 35.5666 14.935L35.1666 14.9376ZM31.7577 11.5617C33.6266 11.5617 35.1546 13.089 35.1666 14.9376L35.5666 14.935C35.5532 12.8664 33.8463 11.1617 31.7577 11.1617V11.5617ZM31.7343 11.5617H31.7577V11.1617H31.7343V11.5617ZM28.3479 14.9807C28.336 13.1241 29.857 11.5617 31.7343 11.5617V11.1617C29.6318 11.1617 27.9346 12.908 27.948 14.9833L28.3479 14.9807ZM31.7569 18.3562C29.8879 18.3562 28.3599 16.8292 28.3479 14.9807L27.948 14.9833C27.9613 17.0519 29.6682 18.7562 31.7569 18.7562V18.3562Z" fill="#594B3E"/>
<path d="M14.2574 1C13.9645 1 13.7271 1.23742 13.7271 1.5303V2.59091C13.7271 2.88379 13.9645 3.12121 14.2574 3.12121C14.5502 3.12121 14.7877 2.88379 14.7877 2.59091V1.5303C14.7877 1.23742 14.5502 1 14.2574 1Z" fill="#594B3E" stroke="#594B3E" stroke-width="0.3"/>
<path d="M22.7427 1.53027C22.4498 1.53027 22.2124 1.7677 22.2124 2.06058V3.12118C22.2124 3.41406 22.4498 3.65149 22.7427 3.65149C23.0356 3.65149 23.273 3.41406 23.273 3.12118V2.06058C23.273 1.7677 23.0356 1.53027 22.7427 1.53027Z" fill="#594B3E" stroke="#594B3E" stroke-width="0.3"/>
<path d="M29.5303 5.24219C29.2374 5.24219 29 5.47961 29 5.77249V6.8331C29 7.12597 29.2374 7.3634 29.5303 7.3634C29.8232 7.3634 30.0606 7.12597 30.0606 6.8331V5.77249C30.0606 5.47961 29.8232 5.24219 29.5303 5.24219Z" fill="#594B3E" stroke="#594B3E" stroke-width="0.3"/>
<ellipse cx="14.2574" cy="13.7271" rx="0.530305" ry="0.530303" fill="#594B3E"/>
<ellipse cx="21.6817" cy="13.7271" rx="0.530305" ry="0.530303" fill="#594B3E"/>
<path fill-rule="evenodd" clip-rule="evenodd" d="M4.23682 26.9847L8.95451 30.1665L17.9544 32.2417L23.2727 30.6968V28.5687C23.2727 28.5687 22.0855 29.6557 18.0638 29.1384C14.0422 28.6211 14.2576 27.9141 10.5934 26.5558C6.92922 25.1975 4.23682 26.9847 4.23682 26.9847Z" fill="#BB926A"/>
<path fill-rule="evenodd" clip-rule="evenodd" d="M27.5152 21.6816H33.3485C33.6414 21.6816 33.8788 21.9191 33.8788 22.2119V32.2877C33.8788 32.5806 33.6414 32.818 33.3485 32.818H27.5152C26.8432 32.8148 26.2458 32.3898 26.0224 31.7561H23.3675C23.2001 31.7544 23.0438 31.6719 22.9479 31.5347L18.3316 32.5953C18.0933 32.6492 17.846 32.6492 17.6078 32.5953L8.83652 30.5921C8.77603 30.5782 8.71839 30.554 8.66616 30.5205L2.77513 26.7083C2.33071 26.4244 2.0614 25.9337 2.06055 25.4064V24.2563C2.06017 23.7669 2.29215 23.3063 2.68565 23.0154C3.09285 22.7102 3.62044 22.6158 4.10819 22.7608L12.2172 25.1392C12.3849 24.6052 12.7861 24.1763 13.3077 23.9732L17.4599 22.326C17.7638 22.2053 18.097 22.1795 18.4158 22.2517L22.8399 23.256C22.8488 22.9709 23.0816 22.7439 23.3669 22.7422H26.0217C26.2456 22.1088 26.8433 21.6844 27.5152 21.6816ZM18.0943 31.5638L22.7093 30.5032L22.7425 24.3212L18.1832 23.2871C18.0726 23.2618 17.957 23.2709 17.8517 23.313L13.6994 24.9616C13.4 25.0748 13.2006 25.36 13.197 25.6801C13.197 26.1064 13.5636 26.4544 14.0137 26.4544H17.9697C18.2626 26.4544 18.5 26.6918 18.5 26.9847C18.5 27.2776 18.2626 27.515 17.9697 27.515H14.0137C13.2093 27.5192 12.4911 27.0118 12.2265 26.2522L3.80794 23.779C3.6409 23.7278 3.45947 23.7599 3.32006 23.8652C3.19484 23.9558 3.12084 24.1011 3.12119 24.2556V25.4057C3.12116 25.5733 3.20632 25.7293 3.34723 25.82L9.1607 29.5818L17.8444 31.5638C17.9266 31.5831 18.0122 31.5831 18.0943 31.5638ZM25.9242 30.6968H23.803V23.8029H25.9242V30.6968ZM27.5152 31.7574H32.8182V22.7422H27.5152C27.2223 22.7422 26.9849 22.9797 26.9849 23.2726V31.2271C26.9849 31.52 27.2223 31.7574 27.5152 31.7574Z" fill="#594B3E"/>
<path d="M27.5152 21.6816V21.5316L27.5146 21.5316L27.5152 21.6816ZM27.5152 32.818L27.5145 32.968H27.5152V32.818ZM26.0224 31.7561L26.1638 31.7062L26.1285 31.6061H26.0224V31.7561ZM23.3675 31.7561L23.366 31.9061H23.3675V31.7561ZM22.9479 31.5347L23.0709 31.4487L23.0129 31.3658L22.9143 31.3885L22.9479 31.5347ZM18.3316 32.5953L18.3647 32.7416L18.3652 32.7415L18.3316 32.5953ZM17.6078 32.5953L17.5744 32.7415L17.5747 32.7416L17.6078 32.5953ZM8.83652 30.5921L8.80301 30.7383L8.80312 30.7383L8.83652 30.5921ZM8.66616 30.5205L8.58466 30.6464L8.58517 30.6467L8.66616 30.5205ZM2.77513 26.7083L2.85663 26.5823L2.85588 26.5818L2.77513 26.7083ZM2.06055 25.4064H1.91055L1.91055 25.4066L2.06055 25.4064ZM2.06055 24.2563H2.21055L2.21055 24.2561L2.06055 24.2563ZM2.68565 23.0154L2.77483 23.136L2.77559 23.1354L2.68565 23.0154ZM4.10819 22.7608L4.06545 22.9046L4.06597 22.9047L4.10819 22.7608ZM12.2172 25.1392L12.175 25.2832L12.3162 25.3246L12.3603 25.1842L12.2172 25.1392ZM13.3077 23.9732L13.3621 24.113L13.363 24.1126L13.3077 23.9732ZM17.4599 22.326L17.5153 22.4654L17.5153 22.4654L17.4599 22.326ZM18.4158 22.2517L18.449 22.1054L18.449 22.1054L18.4158 22.2517ZM22.8399 23.256L22.8067 23.4023L22.9841 23.4425L22.9898 23.2607L22.8399 23.256ZM23.3669 22.7422V22.5922L23.366 22.5922L23.3669 22.7422ZM26.0217 22.7422V22.8922H26.1278L26.1631 22.7922L26.0217 22.7422ZM22.7093 30.5032L22.7429 30.6494L22.8587 30.6228L22.8593 30.504L22.7093 30.5032ZM18.0943 31.5638L18.0608 31.4177L18.0602 31.4178L18.0943 31.5638ZM22.7425 24.3212L22.8925 24.322L22.8931 24.2016L22.7756 24.1749L22.7425 24.3212ZM18.1832 23.2871L18.1497 23.4334L18.15 23.4334L18.1832 23.2871ZM17.8517 23.313L17.9071 23.4524L17.9075 23.4523L17.8517 23.313ZM13.6994 24.9616L13.7525 25.1019L13.7548 25.101L13.6994 24.9616ZM13.197 25.6801L13.047 25.6784V25.6801H13.197ZM14.0137 27.515V27.365L14.0129 27.365L14.0137 27.515ZM12.2265 26.2522L12.3682 26.2028L12.3428 26.13L12.2688 26.1083L12.2265 26.2522ZM3.80794 23.779L3.76402 23.9224L3.76566 23.9229L3.80794 23.779ZM3.32006 23.8652L3.408 23.9867L3.41045 23.9849L3.32006 23.8652ZM3.12119 24.2556H3.27119L3.27119 24.2553L3.12119 24.2556ZM3.12119 25.4057L3.27119 25.4057V25.4057H3.12119ZM3.34723 25.82L3.42872 25.6941L3.42839 25.6938L3.34723 25.82ZM9.1607 29.5818L9.07921 29.7078L9.10147 29.7222L9.12732 29.7281L9.1607 29.5818ZM17.8444 31.5638L17.8786 31.4178L17.8778 31.4176L17.8444 31.5638ZM23.803 30.6968H23.653V30.8468H23.803V30.6968ZM25.9242 30.6968V30.8468H26.0742V30.6968H25.9242ZM23.803 23.8029V23.6529H23.653V23.8029H23.803ZM25.9242 23.8029H26.0742V23.6529H25.9242V23.8029ZM32.8182 31.7574V31.9074H32.9682V31.7574H32.8182ZM32.8182 22.7422H32.9682V22.5922H32.8182V22.7422ZM33.3485 21.5316H27.5152V21.8316H33.3485V21.5316ZM34.0288 22.2119C34.0288 21.8362 33.7243 21.5316 33.3485 21.5316V21.8316C33.5586 21.8316 33.7288 22.0019 33.7288 22.2119H34.0288ZM34.0288 32.2877V22.2119H33.7288V32.2877H34.0288ZM33.3485 32.968C33.7243 32.968 34.0288 32.6634 34.0288 32.2877H33.7288C33.7288 32.4977 33.5586 32.668 33.3485 32.668V32.968ZM27.5152 32.968H33.3485V32.668H27.5152V32.968ZM25.8809 31.8059C26.1254 32.4994 26.7792 32.9645 27.5145 32.968L27.5159 32.668C26.9073 32.6651 26.3662 32.2802 26.1638 31.7062L25.8809 31.8059ZM23.3675 31.9061H26.0224V31.6061H23.3675V31.9061ZM22.825 31.6206C22.9486 31.7975 23.1501 31.9039 23.366 31.9061L23.3691 31.6061C23.2501 31.6049 23.139 31.5463 23.0709 31.4487L22.825 31.6206ZM18.3652 32.7415L22.9815 31.6809L22.9143 31.3885L18.298 32.4491L18.3652 32.7415ZM17.5747 32.7416C17.8347 32.8004 18.1047 32.8004 18.3647 32.7416L18.2985 32.449C18.082 32.498 17.8573 32.498 17.6409 32.449L17.5747 32.7416ZM8.80312 30.7383L17.5744 32.7415L17.6412 32.449L8.86992 30.4458L8.80312 30.7383ZM8.58517 30.6467C8.65196 30.6896 8.72566 30.7205 8.80301 30.7383L8.87003 30.4458C8.8264 30.4358 8.78482 30.4184 8.74715 30.3942L8.58517 30.6467ZM2.69364 26.8342L8.58466 30.6464L8.74765 30.3945L2.85663 26.5823L2.69364 26.8342ZM1.91055 25.4066C1.91149 25.9851 2.20689 26.5233 2.69439 26.8347L2.85588 26.5818C2.45452 26.3255 2.21132 25.8824 2.21055 25.4061L1.91055 25.4066ZM1.91055 24.2563V25.4064H2.21055V24.2563H1.91055ZM2.59646 22.8947C2.16468 23.214 1.91013 23.7194 1.91055 24.2564L2.21055 24.2561C2.2102 23.8144 2.41962 23.3986 2.77483 23.136L2.59646 22.8947ZM4.15093 22.617C3.61769 22.4585 3.04089 22.5617 2.5957 22.8953L2.77559 23.1354C3.14482 22.8587 3.62319 22.7731 4.06545 22.9046L4.15093 22.617ZM12.2594 24.9953L4.15041 22.6169L4.06597 22.9047L12.175 25.2832L12.2594 24.9953ZM13.2532 23.8334C12.6892 24.053 12.2554 24.5168 12.0741 25.0943L12.3603 25.1842C12.5144 24.6936 12.8829 24.2995 13.3621 24.113L13.2532 23.8334ZM17.4046 22.1865L13.2523 23.8338L13.363 24.1126L17.5153 22.4654L17.4046 22.1865ZM18.449 22.1054C18.1006 22.0265 17.7366 22.0548 17.4046 22.1865L17.5153 22.4654C17.791 22.3559 18.0934 22.3324 18.3827 22.398L18.449 22.1054ZM22.8731 23.1097L18.449 22.1054L18.3826 22.398L22.8067 23.4023L22.8731 23.1097ZM23.366 22.5922C23.0001 22.5944 22.7014 22.8855 22.69 23.2513L22.9898 23.2607C22.9962 23.0562 23.1632 22.8934 23.3677 22.8922L23.366 22.5922ZM26.0217 22.5922H23.3669V22.8922H26.0217V22.5922ZM27.5146 21.5316C26.7794 21.5346 26.1253 21.9991 25.8803 22.6922L26.1631 22.7922C26.366 22.2186 26.9073 21.8341 27.5158 21.8316L27.5146 21.5316ZM22.6757 30.357L18.0608 31.4177L18.1279 31.71L22.7429 30.6494L22.6757 30.357ZM22.5925 24.3204L22.5593 30.5024L22.8593 30.504L22.8925 24.322L22.5925 24.3204ZM18.15 23.4334L22.7093 24.4675L22.7756 24.1749L18.2164 23.1409L18.15 23.4334ZM17.9075 23.4523C17.9844 23.4215 18.0689 23.4149 18.1497 23.4334L18.2166 23.1409C18.0763 23.1088 17.9296 23.1203 17.796 23.1737L17.9075 23.4523ZM13.7548 25.101L17.9071 23.4524L17.7964 23.1736L13.6441 24.8222L13.7548 25.101ZM13.347 25.6818C13.3499 25.4234 13.5108 25.1933 13.7525 25.1019L13.6464 24.8213C13.2892 24.9564 13.0513 25.2966 13.047 25.6784L13.347 25.6818ZM14.0137 26.3044C13.6388 26.3044 13.347 26.0161 13.347 25.6801H13.047C13.047 26.1966 13.4883 26.6044 14.0137 26.6044V26.3044ZM17.9697 26.3044H14.0137V26.6044H17.9697V26.3044ZM18.65 26.9847C18.65 26.609 18.3454 26.3044 17.9697 26.3044V26.6044C18.1798 26.6044 18.35 26.7746 18.35 26.9847H18.65ZM17.9697 27.665C18.3454 27.665 18.65 27.3604 18.65 26.9847H18.35C18.35 27.1947 18.1798 27.365 17.9697 27.365V27.665ZM14.0137 27.665H17.9697V27.365H14.0137V27.665ZM12.0849 26.3015C12.3706 27.1217 13.146 27.6696 14.0144 27.665L14.0129 27.365C13.2726 27.3689 12.6117 26.9019 12.3682 26.2028L12.0849 26.3015ZM3.76566 23.9229L12.1842 26.3961L12.2688 26.1083L3.85022 23.6351L3.76566 23.9229ZM3.41045 23.9849C3.51148 23.9086 3.64297 23.8854 3.76402 23.9224L3.85185 23.6356C3.63883 23.5703 3.40745 23.6112 3.22966 23.7455L3.41045 23.9849ZM3.27119 24.2553C3.27095 24.149 3.32185 24.049 3.40799 23.9867L3.23212 23.7436C3.06783 23.8625 2.97073 24.0532 2.97119 24.2559L3.27119 24.2553ZM3.27119 25.4057V24.2556H2.97119V25.4057H3.27119ZM3.42839 25.6938C3.33039 25.6308 3.27117 25.5223 3.27119 25.4057L2.97119 25.4057C2.97115 25.6243 3.08224 25.8279 3.26608 25.9461L3.42839 25.6938ZM9.24219 29.4559L3.42872 25.6941L3.26574 25.9459L9.07921 29.7078L9.24219 29.4559ZM17.8778 31.4176L9.19408 29.4356L9.12732 29.7281L17.8111 31.7101L17.8778 31.4176ZM18.0602 31.4178C18.0005 31.4317 17.9383 31.4317 17.8786 31.4178L17.8103 31.7099C17.915 31.7344 18.0238 31.7344 18.1285 31.7099L18.0602 31.4178ZM23.803 30.8468H25.9242V30.5468H23.803V30.8468ZM23.653 23.8029V30.6968H23.953V23.8029H23.653ZM25.9242 23.6529H23.803V23.9529H25.9242V23.6529ZM26.0742 30.6968V23.8029H25.7742V30.6968H26.0742ZM32.8182 31.6074H27.5152V31.9074H32.8182V31.6074ZM32.6682 22.7422V31.7574H32.9682V22.7422H32.6682ZM27.5152 22.8922H32.8182V22.5922H27.5152V22.8922ZM27.1349 23.2726C27.1349 23.0625 27.3052 22.8922 27.5152 22.8922V22.5922C27.1395 22.5922 26.8349 22.8968 26.8349 23.2726H27.1349ZM27.1349 31.2271V23.2726H26.8349V31.2271H27.1349ZM27.5152 31.6074C27.3052 31.6074 27.1349 31.4371 27.1349 31.2271H26.8349C26.8349 31.6028 27.1395 31.9074 27.5152 31.9074V31.6074Z" fill="#594B3E"/>
<path d="M30.7921 29.6362H29.2012C28.9083 29.6362 28.6709 29.8737 28.6709 30.1665C28.6709 30.4594 28.9083 30.6968 29.2012 30.6968H30.7921C31.085 30.6968 31.3224 30.4594 31.3224 30.1665C31.3224 29.8737 31.085 29.6362 30.7921 29.6362Z" fill="#594B3E"/>
</svg>
