<svg width="35" height="35" viewBox="0 0 35 35" fill="none" xmlns="http://www.w3.org/2000/svg">
<path d="M8.61222 14.621L7.03659 16.2452C6.73195 16.5593 6.73953 17.0609 7.05362 17.3656C7.20754 17.515 7.40644 17.5892 7.60522 17.5892C7.81202 17.5892 8.01866 17.5087 8.17398 17.3486L9.74961 15.7244C10.0543 15.4103 10.0467 14.9087 9.73259 14.604C9.4185 14.2993 8.9169 14.3069 8.61222 14.621Z" fill="#F4C027" stroke="#F4C027" stroke-width="0.3"/>
<path d="M14.1273 15.1328C13.6897 15.1328 13.335 15.4875 13.335 15.9251V22.8974C13.335 23.335 13.6897 23.6897 14.1273 23.6897H14.1273C14.5648 23.6897 14.9196 23.335 14.9196 22.8974L14.9195 15.9251C14.9195 15.4875 14.5648 15.1328 14.1273 15.1328Z" fill="#594B3E" stroke="#594B3E" stroke-width="0.3"/>
<path d="M24.7582 3.40674H22.3813C21.9437 3.40674 21.589 3.76147 21.589 4.19904C21.589 4.63661 21.9437 4.99134 22.3813 4.99134H24.4695L18.6518 10.8078C18.4957 10.964 18.2914 11.0528 18.0894 11.0528C18.0852 11.0528 18.0809 11.0527 18.0766 11.0526C17.8821 11.049 17.6833 10.9598 17.5313 10.8078L16.5998 9.87631C16.1438 9.42028 15.5384 9.15593 14.9388 9.151C14.9329 9.15096 14.9271 9.15096 14.9213 9.15096C14.3007 9.15096 13.6809 9.42226 13.2178 9.89714L11.5199 11.6027C11.2112 11.9128 11.2123 12.4144 11.5224 12.7232C11.6769 12.8771 11.8791 12.954 12.0813 12.954C12.2847 12.954 12.488 12.8761 12.6428 12.7206L14.3438 11.012C14.3461 11.0097 14.3484 11.0074 14.3507 11.005C14.5162 10.8346 14.7318 10.7336 14.9258 10.7355C15.1104 10.737 15.3173 10.8347 15.4794 10.9967L16.4109 11.9283C16.8565 12.3739 17.4376 12.6256 18.0472 12.6369C18.681 12.6488 19.3103 12.3905 19.7723 11.9283L25.5505 6.15132V8.12094C25.5505 8.55851 25.9052 8.91325 26.3428 8.91325C26.7804 8.91325 27.1351 8.55851 27.1351 8.12094V5.78365C27.1351 4.47304 26.0688 3.40674 24.7582 3.40674Z" fill="#BB926A" stroke="#BB926A" stroke-width="0.3"/>
<path d="M9.15242 18.6982C8.71382 18.6967 8.35742 19.0519 8.35742 19.4905V22.8974C8.35742 23.335 8.71215 23.6897 9.14972 23.6897H9.14976C9.58733 23.6897 9.94207 23.335 9.94207 22.8974V19.4905C9.94203 19.054 9.589 18.6997 9.15242 18.6982Z" fill="#594B3E" stroke="#594B3E" stroke-width="0.3"/>
<path d="M24.7186 10.1812C24.281 10.1812 23.9263 10.5359 23.9263 10.9735V22.8976C23.9263 23.3352 24.281 23.69 24.7186 23.69H24.7186C25.1561 23.69 25.5109 23.3352 25.5109 22.8976V10.9735C25.5109 10.5358 25.1562 10.1812 24.7186 10.1812Z" fill="#594B3E" stroke="#594B3E" stroke-width="0.3"/>
<path d="M19.3831 14.3804C18.9456 14.3804 18.5908 14.7351 18.5908 15.1727V22.8976C18.5908 23.3352 18.9456 23.6899 19.3831 23.6899H19.3832C19.8207 23.6899 20.1755 23.3352 20.1755 22.8976V15.1727C20.1754 14.7351 19.8207 14.3804 19.3831 14.3804Z" fill="#594B3E" stroke="#594B3E" stroke-width="0.3"/>
<path d="M26.4776 28.6048H27.1342H29.9084C31.7034 28.6048 33.1584 27.1498 33.1584 25.3548V4C33.1584 2.20507 31.7034 0.75 29.9084 0.75H5.1665C3.37158 0.75 1.9165 2.20507 1.9165 4V25.3548C1.9165 27.1498 3.37158 28.6048 5.1665 28.6048H19.231H19.6111L19.8358 28.9113L19.8358 28.9113L19.8359 28.9114L19.8363 28.9119L19.8382 28.9146L19.8465 28.9258L19.8801 28.9712C19.9099 29.0114 19.9541 29.0707 20.0112 29.1465C20.1252 29.2981 20.2904 29.5154 20.4934 29.7764C20.9001 30.2993 21.4558 30.9939 22.0559 31.6862C22.6591 32.3823 23.2924 33.0589 23.8553 33.5556C24.1375 33.8046 24.3844 33.9926 24.5873 34.1143C24.729 34.1994 24.8151 34.2311 24.8541 34.243C24.8637 34.2357 24.8765 34.2252 24.8925 34.2103C24.9737 34.1341 25.081 33.9925 25.2023 33.765C25.444 33.3119 25.6617 32.6719 25.8451 31.9842C26.0259 31.3061 26.1628 30.6227 26.2547 30.1056C26.3005 29.848 26.3348 29.6336 26.3575 29.4844C26.3689 29.4099 26.3773 29.3517 26.3829 29.3126L26.389 29.2688L26.3905 29.2583L26.3908 29.256L26.3908 29.2557L26.4776 28.6048ZM26.4776 28.6048L26.3908 29.2556L26.4776 28.6048ZM24.8311 34.2575C24.8311 34.2575 24.8321 34.257 24.8338 34.2563C24.8319 34.2573 24.831 34.2576 24.8311 34.2575Z" stroke="#594B3E" stroke-width="1.5"/>
</svg>
