<svg width="32" height="33" viewBox="0 0 32 33" fill="none" xmlns="http://www.w3.org/2000/svg">
<path fill-rule="evenodd" clip-rule="evenodd" d="M13.073 14.4423C13.8798 15.3044 14.9401 15.7354 16.0002 15.7354C17.0603 15.7354 18.1204 15.3044 18.9275 14.4423C20.5417 12.7185 20.5417 9.91326 18.9275 8.18916C18.1455 7.35418 17.1061 6.89404 16.0002 6.89404C14.8944 6.89404 13.8547 7.35395 13.073 8.18916C11.4588 9.91326 11.4588 12.7185 13.073 14.4423ZM14.2306 9.42583C14.7185 8.90473 15.3592 8.6443 16 8.6443C16.6408 8.6443 17.2816 8.90473 17.7695 9.42583C18.7452 10.468 18.7452 12.1637 17.7695 13.2059C17.2969 13.7106 16.6685 13.9886 16 13.9886C15.3316 13.9886 14.7031 13.7106 14.2306 13.2059C13.2548 12.1637 13.2548 10.468 14.2306 9.42583Z" fill="#594B3E"/>
<path fill-rule="evenodd" clip-rule="evenodd" d="M16.0003 8.64453C15.3595 8.64453 14.7187 8.90497 14.2308 9.42606C13.2551 10.4683 13.2551 12.1639 14.2308 13.2061C14.7034 13.7108 15.3318 13.9888 16.0003 13.9888C16.6688 13.9888 17.2972 13.7108 17.7697 13.2061C18.7455 12.1639 18.7455 10.4683 17.7697 9.42606C17.2819 8.90497 16.6411 8.64453 16.0003 8.64453Z" fill="#F4C027"/>
<path fill-rule="evenodd" clip-rule="evenodd" d="M10.532 20.9381C10.4761 20.5461 11.3879 20.1452 11.7246 20.3537C12.4511 20.8034 13.4416 21.0322 14.7028 20.4957C16.656 19.6649 16.0269 17.7722 17.6337 16.5619C19.8973 14.8568 24.0258 15.8161 24.0258 15.8161L16.6209 29.3354L14.4643 27.6758C12.3245 26.0291 10.9133 23.6111 10.532 20.9381Z" fill="#BB926A"/>
<path fill-rule="evenodd" clip-rule="evenodd" d="M15.3799 30.2597L16.0099 31.0606L16.6287 30.2494C16.9973 29.7662 25.6556 18.3343 25.6556 11.4489C25.6556 5.68734 21.3243 1 16.0004 1C10.6765 1 6.34521 5.68734 6.34521 11.4489C6.34521 18.6905 15.0111 29.7907 15.3799 30.2597ZM7.97437 11.4489C7.97437 6.65976 11.5747 2.76343 16.0001 2.76343C20.4254 2.76343 24.0258 6.65976 24.0258 11.4489C24.0258 13.9949 22.5451 17.8407 19.7435 22.5701C18.2782 25.0438 16.798 27.1673 15.9912 28.2851C15.1857 27.1971 13.7194 25.1412 12.2632 22.7136C9.4574 18.0357 7.97437 14.1405 7.97437 11.4489Z" fill="#594B3E"/>
<path d="M16.0099 31.0606L15.9313 31.1224L16.0111 31.2239L16.0894 31.1213L16.0099 31.0606ZM15.3799 30.2597L15.3013 30.3215L15.3013 30.3216L15.3799 30.2597ZM16.6287 30.2494L16.7082 30.3101L16.7082 30.3101L16.6287 30.2494ZM19.7435 22.5701L19.6574 22.5191L19.6574 22.5191L19.7435 22.5701ZM15.9912 28.2851L15.9108 28.3446L15.9922 28.4545L16.0723 28.3436L15.9912 28.2851ZM12.2632 22.7136L12.1775 22.7651H12.1775L12.2632 22.7136ZM16.0885 30.9988L15.4585 30.1979L15.3013 30.3216L15.9313 31.1224L16.0885 30.9988ZM16.5492 30.1888L15.9304 31L16.0894 31.1213L16.7082 30.3101L16.5492 30.1888ZM25.5556 11.4489C25.5556 13.1517 25.0196 15.1434 24.2041 17.1862C23.3891 19.2276 22.2979 21.3125 21.194 23.1995C18.9863 26.9735 16.7324 29.9486 16.5492 30.1888L16.7082 30.3101C16.8936 30.067 19.1531 27.0846 21.3667 23.3005C22.4734 21.4084 23.5699 19.3142 24.3898 17.2604C25.2092 15.2081 25.7556 13.1888 25.7556 11.4489H25.5556ZM16.0004 1.1C21.2618 1.1 25.5556 5.73498 25.5556 11.4489H25.7556C25.7556 5.63969 21.3868 0.9 16.0004 0.9V1.1ZM6.44521 11.4489C6.44521 5.73498 10.739 1.1 16.0004 1.1V0.9C10.614 0.9 6.24521 5.63969 6.24521 11.4489H6.44521ZM15.4585 30.1979C15.2753 29.965 13.0197 27.0766 10.8103 23.3431C9.70565 21.4764 8.61362 19.4002 7.798 17.3404C6.98191 15.2794 6.44521 13.2413 6.44521 11.4489H6.24521C6.24521 13.2773 6.79176 15.3424 7.61205 17.414C8.43282 19.4868 9.53032 21.5728 10.6382 23.445C12.854 27.1893 15.1157 30.0855 15.3013 30.3215L15.4585 30.1979ZM16.0001 2.66343C11.5122 2.66343 7.87437 6.61211 7.87437 11.4489H8.07437C8.07437 6.7074 11.6372 2.86343 16.0001 2.86343V2.66343ZM24.1258 11.4489C24.1258 6.61211 20.488 2.66343 16.0001 2.66343V2.86343C20.3629 2.86343 23.9258 6.7074 23.9258 11.4489H24.1258ZM19.8295 22.621C21.2322 20.2531 22.3056 18.1042 23.0285 16.2267C23.751 14.3503 24.1258 12.7393 24.1258 11.4489H23.9258C23.9258 12.7045 23.5602 14.2894 22.8419 16.1548C22.1241 18.019 21.0563 20.1577 19.6574 22.5191L19.8295 22.621ZM16.0723 28.3436C16.8801 27.2244 18.3622 25.0982 19.8295 22.621L19.6574 22.5191C18.1943 24.9893 16.7158 27.1102 15.9101 28.2266L16.0723 28.3436ZM12.1775 22.7651C13.6358 25.1964 15.1041 27.255 15.9108 28.3446L16.0715 28.2256C15.2672 27.1391 13.8029 25.0861 12.349 22.6622L12.1775 22.7651ZM7.87437 11.4489C7.87437 14.1694 9.3701 18.0846 12.1775 22.7651L12.349 22.6622C9.5447 17.9868 8.07437 14.1116 8.07437 11.4489H7.87437Z" fill="#594B3E"/>
</svg>
