<svg width="104" height="104" viewBox="0 0 104 104" fill="none" xmlns="http://www.w3.org/2000/svg">
<mask id="mask0_21_533" style="mask-type:alpha" maskUnits="userSpaceOnUse" x="26" y="26" width="53" height="53">
<circle cx="52.7316" cy="52.7316" r="21.4701" transform="rotate(180 52.7316 52.7316)" stroke="white" stroke-width="9"/>
</mask>
<g mask="url(#mask0_21_533)">
<g opacity="0.3">
<circle cx="36.1044" cy="78.2523" r="0.68471" transform="rotate(180 36.1044 78.2523)" fill="#4B6C87"/>
<circle cx="46.3749" cy="78.2538" r="0.68471" transform="rotate(180 46.3749 78.2538)" fill="#4B6C87"/>
<circle cx="56.6449" cy="78.2538" r="0.68471" transform="rotate(180 56.6449 78.2538)" fill="#4B6C87"/>
<circle cx="39.5282" cy="78.2518" r="0.68471" transform="rotate(180 39.5282 78.2518)" fill="#4B6C87"/>
<circle cx="49.7997" cy="78.2518" r="0.68471" transform="rotate(180 49.7997 78.2518)" fill="#4B6C87"/>
<circle cx="60.0687" cy="78.2538" r="0.68471" transform="rotate(180 60.0687 78.2538)" fill="#4B6C87"/>
<circle cx="42.952" cy="78.2518" r="0.68471" transform="rotate(180 42.952 78.2518)" fill="#4B6C87"/>
<circle cx="53.222" cy="78.2538" r="0.68471" transform="rotate(180 53.222 78.2538)" fill="#4B6C87"/>
<circle cx="63.4925" cy="78.2538" r="0.68471" transform="rotate(180 63.4925 78.2538)" fill="#4B6C87"/>
<circle cx="36.1044" cy="74.8295" r="0.68471" transform="rotate(180 36.1044 74.8295)" fill="#4B6C87"/>
<circle cx="46.3749" cy="74.8295" r="0.68471" transform="rotate(180 46.3749 74.8295)" fill="#4B6C87"/>
<circle cx="56.6454" cy="74.8299" r="0.68471" transform="rotate(180 56.6454 74.8299)" fill="#4B6C87"/>
<circle cx="39.5277" cy="74.8299" r="0.68471" transform="rotate(180 39.5277 74.8299)" fill="#4B6C87"/>
<circle cx="49.7987" cy="74.8295" r="0.68471" transform="rotate(180 49.7987 74.8295)" fill="#4B6C87"/>
<circle cx="60.0692" cy="74.8299" r="0.68471" transform="rotate(180 60.0692 74.8299)" fill="#4B6C87"/>
<circle cx="42.9515" cy="74.8299" r="0.68471" transform="rotate(180 42.9515 74.8299)" fill="#4B6C87"/>
<circle cx="53.222" cy="74.8299" r="0.68471" transform="rotate(180 53.222 74.8299)" fill="#4B6C87"/>
<circle cx="63.4925" cy="74.8295" r="0.68471" transform="rotate(180 63.4925 74.8295)" fill="#4B6C87"/>
<circle cx="29.2557" cy="78.2538" r="0.68471" transform="rotate(180 29.2557 78.2538)" fill="#4B6C87"/>
<circle cx="32.68" cy="78.2533" r="0.68471" transform="rotate(180 32.68 78.2533)" fill="#4B6C87"/>
<circle cx="29.2557" cy="74.8299" r="0.68471" transform="rotate(180 29.2557 74.8299)" fill="#4B6C87"/>
<circle cx="32.68" cy="74.8299" r="0.68471" transform="rotate(180 32.68 74.8299)" fill="#4B6C87"/>
</g>
<g opacity="0.3">
<circle cx="36.1044" cy="57.7113" r="0.68471" transform="rotate(180 36.1044 57.7113)" fill="#4B6C87"/>
<circle cx="46.3763" cy="57.7108" r="0.68471" transform="rotate(180 46.3763 57.7108)" fill="#4B6C87"/>
<circle cx="56.6454" cy="57.7118" r="0.68471" transform="rotate(180 56.6454 57.7118)" fill="#4B6C87"/>
<circle cx="39.5287" cy="57.7113" r="0.68471" transform="rotate(180 39.5287 57.7113)" fill="#4B6C87"/>
<circle cx="49.8002" cy="57.7108" r="0.68471" transform="rotate(180 49.8002 57.7108)" fill="#4B6C87"/>
<circle cx="60.0692" cy="57.7118" r="0.68471" transform="rotate(180 60.0692 57.7118)" fill="#4B6C87"/>
<circle cx="42.9525" cy="57.7113" r="0.68471" transform="rotate(180 42.9525 57.7113)" fill="#4B6C87"/>
<circle cx="53.222" cy="57.7113" r="0.68471" transform="rotate(180 53.222 57.7113)" fill="#4B6C87"/>
<circle cx="63.4925" cy="57.7118" r="0.68471" transform="rotate(180 63.4925 57.7118)" fill="#4B6C87"/>
<circle cx="36.1044" cy="54.2875" r="0.68471" transform="rotate(180 36.1044 54.2875)" fill="#4B6C87"/>
<circle cx="46.3763" cy="54.2865" r="0.68471" transform="rotate(180 46.3763 54.2865)" fill="#4B6C87"/>
<circle cx="56.6454" cy="54.2879" r="0.68471" transform="rotate(180 56.6454 54.2879)" fill="#4B6C87"/>
<circle cx="39.5287" cy="54.2875" r="0.68471" transform="rotate(180 39.5287 54.2875)" fill="#4B6C87"/>
<circle cx="49.7987" cy="54.2879" r="0.68471" transform="rotate(180 49.7987 54.2879)" fill="#4B6C87"/>
<circle cx="60.0702" cy="54.2875" r="0.68471" transform="rotate(180 60.0702 54.2875)" fill="#4B6C87"/>
<circle cx="42.9525" cy="54.2875" r="0.68471" transform="rotate(180 42.9525 54.2875)" fill="#4B6C87"/>
<circle cx="53.222" cy="54.2879" r="0.68471" transform="rotate(180 53.222 54.2879)" fill="#4B6C87"/>
<circle cx="63.4925" cy="54.2879" r="0.68471" transform="rotate(180 63.4925 54.2879)" fill="#4B6C87"/>
<circle cx="29.2577" cy="57.7113" r="0.68471" transform="rotate(180 29.2577 57.7113)" fill="#4B6C87"/>
<circle cx="32.6815" cy="57.7113" r="0.68471" transform="rotate(180 32.6815 57.7113)" fill="#4B6C87"/>
<circle cx="29.2591" cy="54.287" r="0.68471" transform="rotate(180 29.2591 54.287)" fill="#4B6C87"/>
<circle cx="32.6815" cy="54.2875" r="0.68471" transform="rotate(180 32.6815 54.2875)" fill="#4B6C87"/>
</g>
<g opacity="0.3">
<circle cx="36.1044" cy="71.4056" r="0.68471" transform="rotate(180 36.1044 71.4056)" fill="#4B6C87"/>
<circle cx="46.3749" cy="71.4061" r="0.68471" transform="rotate(180 46.3749 71.4061)" fill="#4B6C87"/>
<circle cx="56.6449" cy="71.4061" r="0.68471" transform="rotate(180 56.6449 71.4061)" fill="#4B6C87"/>
<circle cx="39.5282" cy="71.4056" r="0.68471" transform="rotate(180 39.5282 71.4056)" fill="#4B6C87"/>
<circle cx="49.7982" cy="71.4061" r="0.68471" transform="rotate(180 49.7982 71.4061)" fill="#4B6C87"/>
<circle cx="60.0687" cy="71.4061" r="0.68471" transform="rotate(180 60.0687 71.4061)" fill="#4B6C87"/>
<circle cx="42.951" cy="71.4061" r="0.68471" transform="rotate(180 42.951 71.4061)" fill="#4B6C87"/>
<circle cx="53.222" cy="71.4061" r="0.68471" transform="rotate(180 53.222 71.4061)" fill="#4B6C87"/>
<circle cx="63.4925" cy="71.4061" r="0.68471" transform="rotate(180 63.4925 71.4061)" fill="#4B6C87"/>
<circle cx="36.1058" cy="67.9818" r="0.68471" transform="rotate(180 36.1058 67.9818)" fill="#4B6C87"/>
<circle cx="46.3749" cy="67.9823" r="0.68471" transform="rotate(180 46.3749 67.9823)" fill="#4B6C87"/>
<circle cx="56.6454" cy="67.9823" r="0.68471" transform="rotate(180 56.6454 67.9823)" fill="#4B6C87"/>
<circle cx="39.5277" cy="67.9823" r="0.68471" transform="rotate(180 39.5277 67.9823)" fill="#4B6C87"/>
<circle cx="49.7987" cy="67.9818" r="0.68471" transform="rotate(180 49.7987 67.9818)" fill="#4B6C87"/>
<circle cx="60.0692" cy="67.9823" r="0.68471" transform="rotate(180 60.0692 67.9823)" fill="#4B6C87"/>
<circle cx="42.9515" cy="67.9823" r="0.68471" transform="rotate(180 42.9515 67.9823)" fill="#4B6C87"/>
<circle cx="53.222" cy="67.9823" r="0.68471" transform="rotate(180 53.222 67.9823)" fill="#4B6C87"/>
<circle cx="63.4925" cy="67.9818" r="0.68471" transform="rotate(180 63.4925 67.9818)" fill="#4B6C87"/>
<circle cx="29.2562" cy="71.4061" r="0.68471" transform="rotate(180 29.2562 71.4061)" fill="#4B6C87"/>
<circle cx="32.681" cy="71.4061" r="0.68471" transform="rotate(180 32.681 71.4061)" fill="#4B6C87"/>
<circle cx="29.2577" cy="67.9818" r="0.68471" transform="rotate(180 29.2577 67.9818)" fill="#4B6C87"/>
<circle cx="32.681" cy="67.9818" r="0.68471" transform="rotate(180 32.681 67.9818)" fill="#4B6C87"/>
</g>
<g opacity="0.3">
<circle cx="36.1034" cy="50.8641" r="0.68471" transform="rotate(180 36.1034 50.8641)" fill="#4B6C87"/>
<circle cx="46.3739" cy="50.8641" r="0.68471" transform="rotate(180 46.3739 50.8641)" fill="#4B6C87"/>
<circle cx="56.6449" cy="50.8631" r="0.68471" transform="rotate(180 56.6449 50.8631)" fill="#4B6C87"/>
<circle cx="39.5272" cy="50.8641" r="0.68471" transform="rotate(180 39.5272 50.8641)" fill="#4B6C87"/>
<circle cx="49.7982" cy="50.8631" r="0.68471" transform="rotate(180 49.7982 50.8631)" fill="#4B6C87"/>
<circle cx="60.0677" cy="50.8651" r="0.68471" transform="rotate(180 60.0677 50.8651)" fill="#4B6C87"/>
<circle cx="42.9505" cy="50.8641" r="0.68471" transform="rotate(180 42.9505 50.8641)" fill="#4B6C87"/>
<circle cx="53.2215" cy="50.8641" r="0.68471" transform="rotate(180 53.2215 50.8641)" fill="#4B6C87"/>
<circle cx="63.4911" cy="50.8651" r="0.68471" transform="rotate(180 63.4911 50.8651)" fill="#4B6C87"/>
<circle cx="36.1034" cy="47.4403" r="0.68471" transform="rotate(180 36.1034 47.4403)" fill="#4B6C87"/>
<circle cx="46.3749" cy="47.4403" r="0.68471" transform="rotate(180 46.3749 47.4403)" fill="#4B6C87"/>
<circle cx="56.6439" cy="47.4408" r="0.68471" transform="rotate(180 56.6439 47.4408)" fill="#4B6C87"/>
<circle cx="39.5272" cy="47.4403" r="0.68471" transform="rotate(180 39.5272 47.4403)" fill="#4B6C87"/>
<circle cx="49.7982" cy="47.4403" r="0.68471" transform="rotate(180 49.7982 47.4403)" fill="#4B6C87"/>
<circle cx="60.0677" cy="47.4408" r="0.68471" transform="rotate(180 60.0677 47.4408)" fill="#4B6C87"/>
<circle cx="42.9505" cy="47.4403" r="0.68471" transform="rotate(180 42.9505 47.4403)" fill="#4B6C87"/>
<circle cx="53.2215" cy="47.4403" r="0.68471" transform="rotate(180 53.2215 47.4403)" fill="#4B6C87"/>
<circle cx="63.4911" cy="47.4408" r="0.68471" transform="rotate(180 63.4911 47.4408)" fill="#4B6C87"/>
<circle cx="29.2557" cy="50.8651" r="0.68471" transform="rotate(180 29.2557 50.8651)" fill="#4B6C87"/>
<circle cx="32.68" cy="50.8651" r="0.68471" transform="rotate(180 32.68 50.8651)" fill="#4B6C87"/>
<circle cx="29.2562" cy="47.4403" r="0.68471" transform="rotate(180 29.2562 47.4403)" fill="#4B6C87"/>
<circle cx="32.68" cy="47.4408" r="0.68471" transform="rotate(180 32.68 47.4408)" fill="#4B6C87"/>
</g>
<g opacity="0.3">
<circle cx="36.1034" cy="64.5594" r="0.68471" transform="rotate(180 36.1034 64.5594)" fill="#4B6C87"/>
<circle cx="46.3739" cy="64.5594" r="0.68471" transform="rotate(180 46.3739 64.5594)" fill="#4B6C87"/>
<circle cx="56.6449" cy="64.5589" r="0.68471" transform="rotate(180 56.6449 64.5589)" fill="#4B6C87"/>
<circle cx="39.5272" cy="64.5594" r="0.68471" transform="rotate(180 39.5272 64.5594)" fill="#4B6C87"/>
<circle cx="49.7982" cy="64.5589" r="0.68471" transform="rotate(180 49.7982 64.5589)" fill="#4B6C87"/>
<circle cx="60.0677" cy="64.5599" r="0.68471" transform="rotate(180 60.0677 64.5599)" fill="#4B6C87"/>
<circle cx="42.9505" cy="64.5594" r="0.68471" transform="rotate(180 42.9505 64.5594)" fill="#4B6C87"/>
<circle cx="53.2215" cy="64.5594" r="0.68471" transform="rotate(180 53.2215 64.5594)" fill="#4B6C87"/>
<circle cx="63.4911" cy="64.5599" r="0.68471" transform="rotate(180 63.4911 64.5599)" fill="#4B6C87"/>
<circle cx="36.1034" cy="61.1356" r="0.68471" transform="rotate(180 36.1034 61.1356)" fill="#4B6C87"/>
<circle cx="46.3749" cy="61.1356" r="0.68471" transform="rotate(180 46.3749 61.1356)" fill="#4B6C87"/>
<circle cx="56.6439" cy="61.1361" r="0.68471" transform="rotate(180 56.6439 61.1361)" fill="#4B6C87"/>
<circle cx="39.5272" cy="61.1356" r="0.68471" transform="rotate(180 39.5272 61.1356)" fill="#4B6C87"/>
<circle cx="49.7982" cy="61.1356" r="0.68471" transform="rotate(180 49.7982 61.1356)" fill="#4B6C87"/>
<circle cx="60.0677" cy="61.1361" r="0.68471" transform="rotate(180 60.0677 61.1361)" fill="#4B6C87"/>
<circle cx="42.9505" cy="61.1356" r="0.68471" transform="rotate(180 42.9505 61.1356)" fill="#4B6C87"/>
<circle cx="53.2215" cy="61.1356" r="0.68471" transform="rotate(180 53.2215 61.1356)" fill="#4B6C87"/>
<circle cx="63.4911" cy="61.1361" r="0.68471" transform="rotate(180 63.4911 61.1361)" fill="#4B6C87"/>
<circle cx="29.2557" cy="64.5594" r="0.68471" transform="rotate(180 29.2557 64.5594)" fill="#4B6C87"/>
<circle cx="32.6795" cy="64.5594" r="0.68471" transform="rotate(180 32.6795 64.5594)" fill="#4B6C87"/>
<circle cx="29.2557" cy="61.1356" r="0.68471" transform="rotate(180 29.2557 61.1356)" fill="#4B6C87"/>
<circle cx="32.6795" cy="61.1356" r="0.68471" transform="rotate(180 32.6795 61.1356)" fill="#4B6C87"/>
</g>
<g opacity="0.3">
<circle cx="36.1039" cy="44.0174" r="0.68471" transform="rotate(180 36.1039 44.0174)" fill="#4B6C87"/>
<circle cx="46.3749" cy="44.0174" r="0.68471" transform="rotate(180 46.3749 44.0174)" fill="#4B6C87"/>
<circle cx="56.6454" cy="44.0174" r="0.68471" transform="rotate(180 56.6454 44.0174)" fill="#4B6C87"/>
<circle cx="39.5282" cy="44.0174" r="0.68471" transform="rotate(180 39.5282 44.0174)" fill="#4B6C87"/>
<circle cx="49.7987" cy="44.0174" r="0.68471" transform="rotate(180 49.7987 44.0174)" fill="#4B6C87"/>
<circle cx="60.0687" cy="44.0174" r="0.68471" transform="rotate(180 60.0687 44.0174)" fill="#4B6C87"/>
<circle cx="42.9515" cy="44.0174" r="0.68471" transform="rotate(180 42.9515 44.0174)" fill="#4B6C87"/>
<circle cx="53.222" cy="44.0174" r="0.68471" transform="rotate(180 53.222 44.0174)" fill="#4B6C87"/>
<circle cx="63.4925" cy="44.0174" r="0.68471" transform="rotate(180 63.4925 44.0174)" fill="#4B6C87"/>
<circle cx="36.1039" cy="40.5941" r="0.68471" transform="rotate(180 36.1039 40.5941)" fill="#4B6C87"/>
<circle cx="46.3744" cy="40.5941" r="0.68471" transform="rotate(180 46.3744 40.5941)" fill="#4B6C87"/>
<circle cx="56.6454" cy="40.5941" r="0.68471" transform="rotate(180 56.6454 40.5941)" fill="#4B6C87"/>
<circle cx="39.5272" cy="40.5946" r="0.68471" transform="rotate(180 39.5272 40.5946)" fill="#4B6C87"/>
<circle cx="49.7987" cy="40.5941" r="0.68471" transform="rotate(180 49.7987 40.5941)" fill="#4B6C87"/>
<circle cx="60.0687" cy="40.5941" r="0.68471" transform="rotate(180 60.0687 40.5941)" fill="#4B6C87"/>
<circle cx="42.952" cy="40.5941" r="0.68471" transform="rotate(180 42.952 40.5941)" fill="#4B6C87"/>
<circle cx="53.2211" cy="40.5946" r="0.68471" transform="rotate(180 53.2211 40.5946)" fill="#4B6C87"/>
<circle cx="63.4925" cy="40.5941" r="0.68471" transform="rotate(180 63.4925 40.5941)" fill="#4B6C87"/>
<circle cx="29.2562" cy="44.0174" r="0.68471" transform="rotate(180 29.2562 44.0174)" fill="#4B6C87"/>
<circle cx="32.681" cy="44.0174" r="0.68471" transform="rotate(180 32.681 44.0174)" fill="#4B6C87"/>
<circle cx="29.2577" cy="40.5946" r="0.68471" transform="rotate(180 29.2577 40.5946)" fill="#4B6C87"/>
<circle cx="32.681" cy="40.5931" r="0.68471" transform="rotate(180 32.681 40.5931)" fill="#4B6C87"/>
</g>
<g opacity="0.3">
<circle cx="36.1068" cy="37.1693" r="0.68471" transform="rotate(180 36.1068 37.1693)" fill="#4B6C87"/>
<circle cx="46.3768" cy="37.1693" r="0.68471" transform="rotate(180 46.3768 37.1693)" fill="#4B6C87"/>
<circle cx="56.6473" cy="37.1693" r="0.68471" transform="rotate(180 56.6473 37.1693)" fill="#4B6C87"/>
<circle cx="39.5292" cy="37.1693" r="0.68471" transform="rotate(180 39.5292 37.1693)" fill="#4B6C87"/>
<circle cx="49.8011" cy="37.1683" r="0.68471" transform="rotate(180 49.8011 37.1683)" fill="#4B6C87"/>
<circle cx="60.0707" cy="37.1693" r="0.68471" transform="rotate(180 60.0707 37.1693)" fill="#4B6C87"/>
<circle cx="42.9535" cy="37.1683" r="0.68471" transform="rotate(180 42.9535 37.1683)" fill="#4B6C87"/>
<circle cx="53.2235" cy="37.1693" r="0.68471" transform="rotate(180 53.2235 37.1693)" fill="#4B6C87"/>
<circle cx="63.4945" cy="37.1693" r="0.68471" transform="rotate(180 63.4945 37.1693)" fill="#4B6C87"/>
<circle cx="36.1063" cy="33.7464" r="0.68471" transform="rotate(180 36.1063 33.7464)" fill="#4B6C87"/>
<circle cx="46.3768" cy="33.746" r="0.68471" transform="rotate(180 46.3768 33.746)" fill="#4B6C87"/>
<circle cx="56.6473" cy="33.746" r="0.68471" transform="rotate(180 56.6473 33.746)" fill="#4B6C87"/>
<circle cx="39.5292" cy="33.7464" r="0.68471" transform="rotate(180 39.5292 33.7464)" fill="#4B6C87"/>
<circle cx="49.8006" cy="33.746" r="0.68471" transform="rotate(180 49.8006 33.746)" fill="#4B6C87"/>
<circle cx="60.0711" cy="33.746" r="0.68471" transform="rotate(180 60.0711 33.746)" fill="#4B6C87"/>
<circle cx="42.953" cy="33.7464" r="0.68471" transform="rotate(180 42.953 33.7464)" fill="#4B6C87"/>
<circle cx="53.223" cy="33.7464" r="0.68471" transform="rotate(180 53.223 33.7464)" fill="#4B6C87"/>
<circle cx="63.4945" cy="33.746" r="0.68471" transform="rotate(180 63.4945 33.746)" fill="#4B6C87"/>
<circle cx="29.2596" cy="37.1693" r="0.68471" transform="rotate(180 29.2596 37.1693)" fill="#4B6C87"/>
<circle cx="32.683" cy="37.1693" r="0.68471" transform="rotate(180 32.683 37.1693)" fill="#4B6C87"/>
<circle cx="29.2596" cy="33.7445" r="0.68471" transform="rotate(180 29.2596 33.7445)" fill="#4B6C87"/>
<circle cx="32.683" cy="33.7445" r="0.68471" transform="rotate(180 32.683 33.7445)" fill="#4B6C87"/>
</g>
<g opacity="0.3">
<circle cx="36.1063" cy="30.3226" r="0.68471" transform="rotate(180 36.1063 30.3226)" fill="#4B6C87"/>
<circle cx="46.3753" cy="30.3241" r="0.68471" transform="rotate(180 46.3753 30.3241)" fill="#4B6C87"/>
<circle cx="56.6468" cy="30.3241" r="0.68471" transform="rotate(180 56.6468 30.3241)" fill="#4B6C87"/>
<circle cx="39.5292" cy="30.3221" r="0.68471" transform="rotate(180 39.5292 30.3221)" fill="#4B6C87"/>
<circle cx="49.8006" cy="30.3221" r="0.68471" transform="rotate(180 49.8006 30.3221)" fill="#4B6C87"/>
<circle cx="60.0697" cy="30.3241" r="0.68471" transform="rotate(180 60.0697 30.3241)" fill="#4B6C87"/>
<circle cx="42.953" cy="30.3221" r="0.68471" transform="rotate(180 42.953 30.3221)" fill="#4B6C87"/>
<circle cx="53.223" cy="30.3241" r="0.68471" transform="rotate(180 53.223 30.3241)" fill="#4B6C87"/>
<circle cx="63.494" cy="30.3241" r="0.68471" transform="rotate(180 63.494 30.3241)" fill="#4B6C87"/>
<circle cx="36.1063" cy="26.8993" r="0.68471" transform="rotate(180 36.1063 26.8993)" fill="#4B6C87"/>
<circle cx="46.3753" cy="26.8993" r="0.68471" transform="rotate(180 46.3753 26.8993)" fill="#4B6C87"/>
<circle cx="56.6468" cy="26.9003" r="0.68471" transform="rotate(180 56.6468 26.9003)" fill="#4B6C87"/>
<circle cx="39.5287" cy="26.9003" r="0.68471" transform="rotate(180 39.5287 26.9003)" fill="#4B6C87"/>
<circle cx="49.8002" cy="26.8993" r="0.68471" transform="rotate(180 49.8002 26.8993)" fill="#4B6C87"/>
<circle cx="60.0707" cy="26.9003" r="0.68471" transform="rotate(180 60.0707 26.9003)" fill="#4B6C87"/>
<circle cx="42.9525" cy="26.9003" r="0.68471" transform="rotate(180 42.9525 26.9003)" fill="#4B6C87"/>
<circle cx="53.223" cy="26.9003" r="0.68471" transform="rotate(180 53.223 26.9003)" fill="#4B6C87"/>
<circle cx="63.494" cy="26.8993" r="0.68471" transform="rotate(180 63.494 26.8993)" fill="#4B6C87"/>
<circle cx="29.2567" cy="30.3241" r="0.68471" transform="rotate(180 29.2567 30.3241)" fill="#4B6C87"/>
<circle cx="32.6815" cy="30.3241" r="0.68471" transform="rotate(180 32.6815 30.3241)" fill="#4B6C87"/>
<circle cx="29.2582" cy="26.9003" r="0.68471" transform="rotate(180 29.2582 26.9003)" fill="#4B6C87"/>
<circle cx="32.6815" cy="26.9003" r="0.68471" transform="rotate(180 32.6815 26.9003)" fill="#4B6C87"/>
</g>
<g opacity="0.3">
<circle cx="66.9164" cy="78.2508" r="0.68471" transform="rotate(180 66.9164 78.2508)" fill="#4B6C87"/>
<circle cx="77.1864" cy="78.2513" r="0.68471" transform="rotate(180 77.1864 78.2513)" fill="#4B6C87"/>
<circle cx="70.3392" cy="78.2513" r="0.68471" transform="rotate(180 70.3392 78.2513)" fill="#4B6C87"/>
<circle cx="73.763" cy="78.2504" r="0.68471" transform="rotate(180 73.763 78.2504)" fill="#4B6C87"/>
<circle cx="66.9154" cy="74.8285" r="0.68471" transform="rotate(180 66.9154 74.8285)" fill="#4B6C87"/>
<circle cx="77.1864" cy="74.8275" r="0.68471" transform="rotate(180 77.1864 74.8275)" fill="#4B6C87"/>
<circle cx="70.3392" cy="74.8285" r="0.68471" transform="rotate(180 70.3392 74.8285)" fill="#4B6C87"/>
<circle cx="73.7626" cy="74.8285" r="0.68471" transform="rotate(180 73.7626 74.8285)" fill="#4B6C87"/>
</g>
<g opacity="0.3">
<circle cx="66.9169" cy="57.7098" r="0.68471" transform="rotate(180 66.9169 57.7098)" fill="#4B6C87"/>
<circle cx="77.1869" cy="57.7103" r="0.68471" transform="rotate(180 77.1869 57.7103)" fill="#4B6C87"/>
<circle cx="70.3407" cy="57.7098" r="0.68471" transform="rotate(180 70.3407 57.7098)" fill="#4B6C87"/>
<circle cx="73.764" cy="57.7088" r="0.68471" transform="rotate(180 73.764 57.7088)" fill="#4B6C87"/>
<circle cx="66.9169" cy="54.285" r="0.68471" transform="rotate(180 66.9169 54.285)" fill="#4B6C87"/>
<circle cx="77.1879" cy="54.285" r="0.68471" transform="rotate(180 77.1879 54.285)" fill="#4B6C87"/>
<circle cx="70.3407" cy="54.285" r="0.68471" transform="rotate(180 70.3407 54.285)" fill="#4B6C87"/>
<circle cx="73.765" cy="54.286" r="0.68471" transform="rotate(180 73.765 54.286)" fill="#4B6C87"/>
</g>
<g opacity="0.3">
<circle cx="66.9173" cy="71.4037" r="0.68471" transform="rotate(180 66.9173 71.4037)" fill="#4B6C87"/>
<circle cx="77.1879" cy="71.4051" r="0.68471" transform="rotate(180 77.1879 71.4051)" fill="#4B6C87"/>
<circle cx="70.3407" cy="71.4037" r="0.68471" transform="rotate(180 70.3407 71.4037)" fill="#4B6C87"/>
<circle cx="73.763" cy="71.4051" r="0.68471" transform="rotate(180 73.763 71.4051)" fill="#4B6C87"/>
<circle cx="66.9173" cy="67.9808" r="0.68471" transform="rotate(180 66.9173 67.9808)" fill="#4B6C87"/>
<circle cx="77.1879" cy="67.9808" r="0.68471" transform="rotate(180 77.1879 67.9808)" fill="#4B6C87"/>
<circle cx="70.3397" cy="67.9813" r="0.68471" transform="rotate(180 70.3397 67.9813)" fill="#4B6C87"/>
<circle cx="73.763" cy="67.9808" r="0.68471" transform="rotate(180 73.763 67.9808)" fill="#4B6C87"/>
</g>
<g opacity="0.3">
<circle cx="66.9164" cy="50.8631" r="0.68471" transform="rotate(180 66.9164 50.8631)" fill="#4B6C87"/>
<circle cx="77.1869" cy="50.8631" r="0.68471" transform="rotate(180 77.1869 50.8631)" fill="#4B6C87"/>
<circle cx="70.3397" cy="50.8631" r="0.68471" transform="rotate(180 70.3397 50.8631)" fill="#4B6C87"/>
<circle cx="73.763" cy="50.8631" r="0.68471" transform="rotate(180 73.763 50.8631)" fill="#4B6C87"/>
<circle cx="66.9164" cy="47.4398" r="0.68471" transform="rotate(180 66.9164 47.4398)" fill="#4B6C87"/>
<circle cx="77.1869" cy="47.4398" r="0.68471" transform="rotate(180 77.1869 47.4398)" fill="#4B6C87"/>
<circle cx="70.3397" cy="47.4398" r="0.68471" transform="rotate(180 70.3397 47.4398)" fill="#4B6C87"/>
<circle cx="73.763" cy="47.4398" r="0.68471" transform="rotate(180 73.763 47.4398)" fill="#4B6C87"/>
</g>
<g opacity="0.3">
<circle cx="66.9173" cy="64.557" r="0.68471" transform="rotate(180 66.9173 64.557)" fill="#4B6C87"/>
<circle cx="77.1879" cy="64.557" r="0.68471" transform="rotate(180 77.1879 64.557)" fill="#4B6C87"/>
<circle cx="70.3407" cy="64.557" r="0.68471" transform="rotate(180 70.3407 64.557)" fill="#4B6C87"/>
<circle cx="73.7655" cy="64.557" r="0.68471" transform="rotate(180 73.7655 64.557)" fill="#4B6C87"/>
<circle cx="66.9173" cy="61.1332" r="0.68471" transform="rotate(180 66.9173 61.1332)" fill="#4B6C87"/>
<circle cx="77.1879" cy="61.1332" r="0.68471" transform="rotate(180 77.1879 61.1332)" fill="#4B6C87"/>
<circle cx="70.3412" cy="61.1332" r="0.68471" transform="rotate(180 70.3412 61.1332)" fill="#4B6C87"/>
<circle cx="73.7655" cy="61.1332" r="0.68471" transform="rotate(180 73.7655 61.1332)" fill="#4B6C87"/>
</g>
<g opacity="0.3">
<circle cx="66.9164" cy="44.016" r="0.68471" transform="rotate(180 66.9164 44.016)" fill="#4B6C87"/>
<circle cx="77.1864" cy="44.0165" r="0.68471" transform="rotate(180 77.1864 44.0165)" fill="#4B6C87"/>
<circle cx="70.3397" cy="44.016" r="0.68471" transform="rotate(180 70.3397 44.016)" fill="#4B6C87"/>
<circle cx="73.763" cy="44.0145" r="0.68471" transform="rotate(180 73.763 44.0145)" fill="#4B6C87"/>
<circle cx="66.9164" cy="40.5917" r="0.68471" transform="rotate(180 66.9164 40.5917)" fill="#4B6C87"/>
<circle cx="77.1864" cy="40.5921" r="0.68471" transform="rotate(180 77.1864 40.5921)" fill="#4B6C87"/>
<circle cx="70.3392" cy="40.5926" r="0.68471" transform="rotate(180 70.3392 40.5926)" fill="#4B6C87"/>
<circle cx="73.7626" cy="40.5926" r="0.68471" transform="rotate(180 73.7626 40.5926)" fill="#4B6C87"/>
</g>
<g opacity="0.3">
<circle cx="66.9169" cy="37.1693" r="0.68471" transform="rotate(180 66.9169 37.1693)" fill="#4B6C87"/>
<circle cx="77.1879" cy="37.1693" r="0.68471" transform="rotate(180 77.1879 37.1693)" fill="#4B6C87"/>
<circle cx="70.3397" cy="37.1693" r="0.68471" transform="rotate(180 70.3397 37.1693)" fill="#4B6C87"/>
<circle cx="73.765" cy="37.1693" r="0.68471" transform="rotate(180 73.765 37.1693)" fill="#4B6C87"/>
<circle cx="66.9169" cy="33.7464" r="0.68471" transform="rotate(180 66.9169 33.7464)" fill="#4B6C87"/>
<circle cx="77.1879" cy="33.7464" r="0.68471" transform="rotate(180 77.1879 33.7464)" fill="#4B6C87"/>
<circle cx="70.3397" cy="33.7464" r="0.68471" transform="rotate(180 70.3397 33.7464)" fill="#4B6C87"/>
<circle cx="73.764" cy="33.7464" r="0.68471" transform="rotate(180 73.764 33.7464)" fill="#4B6C87"/>
</g>
<g opacity="0.3">
<circle cx="66.9169" cy="30.3221" r="0.68471" transform="rotate(180 66.9169 30.3221)" fill="#4B6C87"/>
<circle cx="77.1869" cy="30.3221" r="0.68471" transform="rotate(180 77.1869 30.3221)" fill="#4B6C87"/>
<circle cx="70.3407" cy="30.3211" r="0.68471" transform="rotate(180 70.3407 30.3211)" fill="#4B6C87"/>
<circle cx="73.764" cy="30.3211" r="0.68471" transform="rotate(180 73.764 30.3211)" fill="#4B6C87"/>
<circle cx="66.9169" cy="26.8983" r="0.68471" transform="rotate(180 66.9169 26.8983)" fill="#4B6C87"/>
<circle cx="77.1869" cy="26.8988" r="0.68471" transform="rotate(180 77.1869 26.8988)" fill="#4B6C87"/>
<circle cx="70.3397" cy="26.8993" r="0.68471" transform="rotate(180 70.3397 26.8993)" fill="#4B6C87"/>
<circle cx="73.763" cy="26.8993" r="0.68471" transform="rotate(180 73.763 26.8993)" fill="#4B6C87"/>
</g>
</g>
<path d="M55.0381 53.2078C55.0386 53.1055 55.019 53.004 54.9803 52.9093C54.9416 52.8145 54.8846 52.7284 54.8126 52.6557L51.7024 49.5456C51.556 49.3991 51.3574 49.3169 51.1504 49.3169C50.9433 49.3169 50.7447 49.3991 50.5983 49.5456C50.4519 49.692 50.3696 49.8906 50.3696 50.0976C50.3696 50.3047 50.4519 50.5033 50.5983 50.6497L53.1642 53.2078L50.6061 55.7659C50.4787 55.9146 50.4121 56.106 50.4197 56.3017C50.4272 56.4973 50.5084 56.683 50.6468 56.8215C50.7853 56.9599 50.9709 57.0411 51.1666 57.0486C51.3623 57.0562 51.5537 56.9896 51.7024 56.8622L54.8126 53.7521C54.9562 53.6072 55.0372 53.4118 55.0381 53.2078Z" fill="#C2CDD5"/>
<path d="M103.624 51.8118C103.624 80.4267 80.4267 103.624 51.8118 103.624C23.1969 103.624 0 80.4267 0 51.8118C0 23.1969 23.1969 0 51.8118 0C80.4267 0 103.624 23.1969 103.624 51.8118ZM17.9488 51.8118C17.9488 70.5138 33.1098 85.6748 51.8118 85.6748C70.5138 85.6748 85.6748 70.5138 85.6748 51.8118C85.6748 33.1098 70.5138 17.9488 51.8118 17.9488C33.1098 17.9488 17.9488 33.1098 17.9488 51.8118Z" fill="#EBEDEE"/>
<path d="M51.8122 3C51.8122 1.34315 53.1566 -0.00905665 54.8107 0.0868035C65.1507 0.686046 75.0998 4.37367 83.3532 10.7067C92.4019 17.65 98.9066 27.385 101.859 38.4019C104.811 49.4189 104.045 61.102 99.6801 71.6394C95.6989 81.2507 88.9266 89.4188 80.2715 95.1078C78.8869 96.0178 77.0465 95.519 76.2181 94.0841L70.2437 83.7361C69.4153 82.3012 69.9161 80.4771 71.2721 79.5249C76.518 75.8414 80.6288 70.7306 83.0975 64.7706C85.9502 57.8837 86.4507 50.2478 84.5213 43.0474C82.592 35.847 78.3406 29.4845 72.4267 24.9465C67.3088 21.0194 61.1932 18.6487 54.8084 18.0816C53.1581 17.935 51.8122 16.6057 51.8122 14.9488V3Z" fill="#E49E71"/>
</svg>
