<svg width="27" height="27" viewBox="0 0 27 27" fill="none" xmlns="http://www.w3.org/2000/svg">
<circle cx="13.5" cy="13.5" r="12" fill="#F4C027" stroke="#F5F5F6" stroke-width="3"/>
<path d="M15.9159 13.3887C15.9165 13.4964 15.8959 13.6033 15.8551 13.703C15.8144 13.8028 15.7543 13.8935 15.6785 13.97L12.4034 17.245C12.2493 17.3992 12.0401 17.4858 11.8221 17.4858C11.6041 17.4858 11.395 17.3992 11.2408 17.245C11.0866 17.0909 11 16.8818 11 16.6637C11 16.4457 11.0866 16.2366 11.2408 16.0824L13.9427 13.3887L11.249 10.695C11.1148 10.5383 11.0448 10.3369 11.0527 10.1308C11.0607 9.92475 11.1461 9.72928 11.2919 9.58346C11.4377 9.43764 11.6332 9.35222 11.8393 9.34426C12.0453 9.3363 12.2468 9.40639 12.4034 9.54053L15.6785 12.8156C15.8297 12.9681 15.915 13.1739 15.9159 13.3887Z" fill="white"/>
</svg>
