<svg width="17" height="14" viewBox="0 0 17 14" fill="none" xmlns="http://www.w3.org/2000/svg">
<path d="M1.03228 6.06318C1.03228 6.06318 8.47916 3.00698 11.0619 1.93082C12.0519 1.50039 15.4095 0.122897 15.4095 0.122897C15.4095 0.122897 16.9591 -0.479703 16.83 0.983816C16.7869 1.58648 16.4425 3.69567 16.0982 5.97709C15.5816 9.20552 15.022 12.7352 15.022 12.7352C15.022 12.7352 14.936 13.7253 14.2042 13.8975C13.4724 14.0696 12.2671 13.2949 12.0519 13.1226C11.8797 12.9935 8.8235 11.0565 7.70432 10.1095C7.40299 9.85119 7.05865 9.33468 7.74734 8.73202C9.297 7.31151 11.1479 5.54666 12.2671 4.42749C12.7837 3.91091 13.3002 2.70565 11.1479 4.16917C8.09174 6.27842 5.07856 8.25852 5.07856 8.25852C5.07856 8.25852 4.38981 8.68894 3.09846 8.30153C1.80706 7.91417 0.300466 7.3976 0.300466 7.3976C0.300466 7.3976 -0.732564 6.75192 1.03228 6.06318Z" fill="#37AEE3"/>
</svg>
