<svg width="505" height="505" viewBox="0 0 505 505" fill="none" xmlns="http://www.w3.org/2000/svg">
<path d="M165.369 26.1938C163.385 21.0398 165.949 15.233 171.177 13.4542C192.321 6.26108 214.327 1.90496 236.617 0.500061C242.128 0.152651 246.711 4.54471 246.84 10.0661L248.986 101.967C249.115 107.488 244.737 112.032 239.238 112.553C229.812 113.446 220.5 115.29 211.444 118.055C206.162 119.668 200.383 117.135 198.398 111.981L165.369 26.1938Z" fill="#CA662E"/>
<path d="M94.1989 68.7964C90.5937 64.6126 91.0505 58.2815 95.3737 54.8448C110.86 42.5342 127.739 32.0861 145.664 23.7157C150.668 21.3789 156.538 23.7935 158.675 28.8862L194.242 113.653C196.379 118.745 193.963 124.574 189.035 127.068C181.851 130.702 174.993 134.948 168.536 139.756C164.107 143.055 157.812 142.618 154.207 138.434L94.1989 68.7964Z" fill="#FDAB0C"/>
<path d="M37.8598 365.353C32.9714 367.923 26.9057 366.052 24.531 361.065C1.91098 313.569 -5.34402 260.104 3.92542 208.15C13.1948 156.196 38.4919 108.539 76.1418 71.7956C80.0943 67.9383 86.433 68.2798 90.1309 72.3819L151.681 140.66C155.379 144.762 155.022 151.062 151.193 155.042C131.955 175.039 119.011 200.346 114.111 227.809C109.211 255.272 112.605 283.494 123.74 308.91C125.957 313.968 124.113 320.003 119.225 322.573L37.8598 365.353Z" fill="#594B3E"/>
<path d="M207.508 490.79C206.484 496.217 201.248 499.805 195.866 498.567C162.963 490.994 131.878 476.891 104.471 457.058C77.0644 437.224 53.9503 412.107 36.4712 383.22C33.612 378.495 35.3841 372.4 40.2187 369.73L120.689 325.291C125.524 322.621 131.578 324.399 134.585 329.032C144.001 343.539 156.03 356.21 170.088 366.383C184.146 376.556 199.942 384.022 216.667 388.43C222.007 389.838 225.588 395.033 224.564 400.46L207.508 490.79Z" fill="#8D6B48"/>
<path d="M432.924 414.529C437.033 418.219 437.387 424.557 433.537 428.517C406.356 456.473 373.035 477.789 336.16 490.738C299.285 503.687 259.952 507.884 221.26 503.06C215.78 502.377 212.093 497.209 212.993 491.76L227.969 401.062C228.869 395.613 234.015 391.963 239.515 392.473C259.626 394.339 279.945 391.852 299.076 385.134C318.207 378.416 335.62 367.653 350.149 353.623C354.122 349.786 360.421 349.418 364.53 353.108L432.924 414.529Z" fill="#E7BF98"/>
<path d="M493.606 226.538C499.097 225.947 504.049 229.919 504.422 235.429C506.522 266.419 502.888 297.56 493.672 327.283C484.456 357.005 469.834 384.739 450.569 409.104C447.144 413.437 440.814 413.91 436.62 410.316L366.825 350.492C362.632 346.898 362.178 340.604 365.465 336.166C374.866 323.473 382.075 309.266 386.767 294.134C391.46 279.001 393.553 263.208 392.982 247.423C392.783 241.903 396.718 236.971 402.209 236.38L493.606 226.538Z" fill="#EEBA24"/>
<path d="M456.516 121.414C461.163 118.428 467.368 119.765 470.167 124.526C485.491 150.589 496.009 179.194 501.221 208.976C502.173 214.416 498.312 219.455 492.838 220.19L401.732 232.438C396.258 233.174 391.26 229.323 390.137 223.915C387.319 210.348 382.511 197.27 375.868 185.109C373.22 180.262 374.532 174.091 379.179 171.105L456.516 121.414Z" fill="#BB926A"/>
<path d="M348.49 29.8068C350.676 24.7351 356.57 22.3777 361.551 24.7629C398.747 42.5736 431.017 69.2274 455.534 102.388C458.817 106.829 457.616 113.063 453.049 116.168L377.025 167.848C372.458 170.953 366.266 169.742 362.844 165.406C350.474 149.734 334.906 136.875 317.179 127.689C312.275 125.148 309.916 119.296 312.102 114.224L348.49 29.8068Z" fill="#E49E71"/>
<path d="M252.5 10C252.5 4.47716 256.979 -0.0206744 262.498 0.197994C287.587 1.19216 312.389 5.92337 336.083 14.2352C341.295 16.0634 343.803 21.8942 341.77 27.0292L307.93 112.5C305.897 117.635 300.094 120.113 294.828 118.45C284.328 115.134 273.475 113.064 262.492 112.281C256.983 111.889 252.5 107.449 252.5 101.926V10Z" fill="#FF7E62"/>
<path d="M284.902 55.8047H282.5V54.4375H278.496V58.1973H278.584C278.76 57.7415 278.893 57.4551 278.984 57.3379C279.186 57.0775 279.577 56.9147 280.156 56.8496C280.521 56.804 281.035 56.7812 281.699 56.7812C282.155 56.7812 282.549 56.804 282.881 56.8496C283.219 56.8952 283.503 56.9473 283.73 57.0059C283.965 57.0579 284.157 57.1589 284.307 57.3086C284.456 57.4583 284.57 57.5885 284.648 57.6992C284.733 57.8099 284.792 57.9954 284.824 58.2559C284.863 58.5163 284.886 58.7311 284.893 58.9004C284.899 59.0697 284.902 59.3366 284.902 59.7012V63.1973C284.902 63.5228 284.899 63.7604 284.893 63.9102C284.886 64.0534 284.867 64.2454 284.834 64.4863C284.801 64.7272 284.746 64.903 284.668 65.0137C284.596 65.1178 284.492 65.248 284.355 65.4043C284.219 65.5605 284.043 65.6712 283.828 65.7363C283.613 65.7949 283.35 65.8633 283.037 65.9414C282.731 66.013 282.367 66.0586 281.943 66.0781C281.527 66.1042 281.045 66.1172 280.498 66.1172C279.951 66.1172 279.466 66.1042 279.043 66.0781C278.626 66.0586 278.265 66.013 277.959 65.9414C277.653 65.8633 277.393 65.7949 277.178 65.7363C276.963 65.6712 276.787 65.5605 276.65 65.4043C276.514 65.248 276.406 65.1178 276.328 65.0137C276.257 64.9095 276.204 64.737 276.172 64.4961C276.139 64.2552 276.12 64.0632 276.113 63.9199C276.107 63.7702 276.104 63.5326 276.104 63.207V63.1973V55.1992V55.1895C276.104 54.8639 276.107 54.6296 276.113 54.4863C276.12 54.3366 276.139 54.1413 276.172 53.9004C276.204 53.6595 276.257 53.487 276.328 53.3828C276.406 53.2786 276.514 53.1484 276.65 52.9922C276.787 52.8359 276.963 52.7285 277.178 52.6699C277.393 52.6048 277.653 52.5365 277.959 52.4648C278.265 52.3867 278.626 52.3379 279.043 52.3184C279.466 52.2923 279.951 52.2793 280.498 52.2793C281.045 52.2793 281.527 52.2923 281.943 52.3184C282.367 52.3379 282.731 52.3867 283.037 52.4648C283.35 52.5365 283.613 52.6048 283.828 52.6699C284.043 52.7285 284.219 52.8359 284.355 52.9922C284.492 53.1484 284.596 53.2819 284.668 53.3926C284.746 53.4967 284.801 53.6693 284.834 53.9102C284.867 54.151 284.886 54.3464 284.893 54.4961C284.899 54.6393 284.902 54.8737 284.902 55.1992V55.8047ZM282.5 58.9395H278.496V63.959H282.5V58.9395ZM292.803 56.8008C292.803 57.0026 292.799 57.1523 292.793 57.25C292.793 57.3411 292.783 57.4681 292.764 57.6309C292.751 57.7871 292.728 57.901 292.695 57.9727C292.663 58.0443 292.614 58.1387 292.549 58.2559C292.484 58.3665 292.402 58.4479 292.305 58.5C292.207 58.5521 292.087 58.6107 291.943 58.6758C291.8 58.7409 291.631 58.7897 291.436 58.8223C291.247 58.8483 291.022 58.8711 290.762 58.8906C290.508 58.9102 290.221 58.9199 289.902 58.9199C289.583 58.9199 289.294 58.9102 289.033 58.8906C288.779 58.8711 288.555 58.8483 288.359 58.8223C288.171 58.7897 288.005 58.7409 287.861 58.6758C287.718 58.6107 287.598 58.5521 287.5 58.5C287.402 58.4479 287.321 58.3665 287.256 58.2559C287.191 58.1387 287.142 58.0443 287.109 57.9727C287.077 57.901 287.051 57.7871 287.031 57.6309C287.018 57.4681 287.008 57.3411 287.002 57.25C287.002 57.1523 287.002 57.0026 287.002 56.8008V54.3984C287.002 54.1966 287.002 54.0501 287.002 53.959C287.008 53.8613 287.018 53.7344 287.031 53.5781C287.051 53.4154 287.077 53.2982 287.109 53.2266C287.142 53.1549 287.191 53.0638 287.256 52.9531C287.321 52.8359 287.402 52.7513 287.5 52.6992C287.598 52.6471 287.718 52.5885 287.861 52.5234C288.005 52.4583 288.171 52.4128 288.359 52.3867C288.555 52.3542 288.779 52.3281 289.033 52.3086C289.294 52.2891 289.583 52.2793 289.902 52.2793C290.221 52.2793 290.508 52.2891 290.762 52.3086C291.022 52.3281 291.247 52.3542 291.436 52.3867C291.631 52.4128 291.8 52.4583 291.943 52.5234C292.087 52.5885 292.207 52.6471 292.305 52.6992C292.402 52.7513 292.484 52.8359 292.549 52.9531C292.614 53.0638 292.663 53.1549 292.695 53.2266C292.728 53.2982 292.751 53.4154 292.764 53.5781C292.783 53.7344 292.793 53.8613 292.793 53.959C292.799 54.0501 292.803 54.1966 292.803 54.3984V56.8008ZM290.879 57.2402V53.959H288.916V57.2402H290.879ZM297.041 52.3965H299.199L292.158 66H290L297.041 52.3965ZM298.428 59.5059C298.688 59.4863 298.978 59.4766 299.297 59.4766C299.616 59.4766 299.902 59.4863 300.156 59.5059C300.417 59.5254 300.641 59.5514 300.83 59.584C301.025 59.61 301.195 59.6556 301.338 59.7207C301.481 59.7858 301.602 59.8444 301.699 59.8965C301.797 59.9486 301.878 60.0332 301.943 60.1504C302.008 60.2611 302.057 60.3522 302.09 60.4238C302.122 60.4954 302.145 60.6126 302.158 60.7754C302.178 60.9316 302.188 61.0586 302.188 61.1562C302.194 61.2474 302.197 61.3939 302.197 61.5957V63.998C302.197 64.1999 302.194 64.3496 302.188 64.4473C302.188 64.5384 302.178 64.6654 302.158 64.8281C302.145 64.9844 302.122 65.0983 302.09 65.1699C302.057 65.2415 302.008 65.3359 301.943 65.4531C301.878 65.5638 301.797 65.6452 301.699 65.6973C301.602 65.7493 301.481 65.8079 301.338 65.873C301.195 65.9382 301.025 65.9837 300.83 66.0098C300.641 66.0423 300.417 66.0684 300.156 66.0879C299.902 66.1074 299.616 66.1172 299.297 66.1172C298.978 66.1172 298.688 66.1074 298.428 66.0879C298.174 66.0684 297.949 66.0423 297.754 66.0098C297.565 65.9837 297.399 65.9382 297.256 65.873C297.113 65.8079 296.992 65.7493 296.895 65.6973C296.797 65.6452 296.715 65.5638 296.65 65.4531C296.585 65.3359 296.536 65.2415 296.504 65.1699C296.471 65.0983 296.445 64.9844 296.426 64.8281C296.413 64.6654 296.403 64.5384 296.396 64.4473C296.396 64.3496 296.396 64.1999 296.396 63.998V61.5957C296.396 61.3939 296.396 61.2474 296.396 61.1562C296.403 61.0586 296.413 60.9316 296.426 60.7754C296.445 60.6126 296.471 60.4954 296.504 60.4238C296.536 60.3522 296.585 60.2611 296.65 60.1504C296.715 60.0332 296.797 59.9486 296.895 59.8965C296.992 59.8444 297.113 59.7858 297.256 59.7207C297.399 59.6556 297.565 59.61 297.754 59.584C297.949 59.5514 298.174 59.5254 298.428 59.5059ZM300.283 64.4375V61.1562H298.32V64.4375H300.283Z" fill="white"/>
<path d="M367.945 94.3184C368.368 94.2923 368.854 94.2793 369.4 94.2793C369.947 94.2793 370.429 94.2923 370.846 94.3184C371.269 94.3379 371.633 94.3867 371.939 94.4648C372.252 94.5365 372.516 94.6048 372.73 94.6699C372.945 94.7285 373.121 94.8359 373.258 94.9922C373.395 95.1484 373.499 95.2819 373.57 95.3926C373.648 95.4967 373.704 95.6693 373.736 95.9102C373.769 96.151 373.788 96.3464 373.795 96.4961C373.801 96.6393 373.805 96.8737 373.805 97.1992V105.197C373.805 105.523 373.801 105.76 373.795 105.91C373.788 106.053 373.769 106.245 373.736 106.486C373.704 106.727 373.648 106.903 373.57 107.014C373.499 107.118 373.395 107.248 373.258 107.404C373.121 107.561 372.945 107.671 372.73 107.736C372.516 107.795 372.252 107.863 371.939 107.941C371.633 108.013 371.269 108.059 370.846 108.078C370.429 108.104 369.947 108.117 369.4 108.117C368.854 108.117 368.368 108.104 367.945 108.078C367.529 108.059 367.164 108.013 366.852 107.941C366.546 107.863 366.285 107.795 366.07 107.736C365.855 107.671 365.68 107.561 365.543 107.404C365.406 107.248 365.299 107.118 365.221 107.014C365.149 106.903 365.097 106.727 365.064 106.486C365.032 106.245 365.012 106.053 365.006 105.91C364.999 105.76 364.996 105.523 364.996 105.197V104.602H367.398V105.959H371.402V102.199H371.324C371.148 102.655 371.015 102.945 370.924 103.068C370.715 103.329 370.315 103.492 369.723 103.557C369.352 103.596 368.844 103.615 368.199 103.615C367.743 103.615 367.346 103.592 367.008 103.547C366.676 103.501 366.393 103.452 366.158 103.4C365.93 103.342 365.742 103.238 365.592 103.088C365.442 102.938 365.325 102.808 365.24 102.697C365.162 102.587 365.104 102.401 365.064 102.141C365.032 101.88 365.012 101.665 365.006 101.496C364.999 101.327 364.996 101.06 364.996 100.695V97.1992C364.996 96.8737 364.999 96.6393 365.006 96.4961C365.012 96.3464 365.032 96.151 365.064 95.9102C365.097 95.6693 365.149 95.4967 365.221 95.3926C365.299 95.2819 365.406 95.1484 365.543 94.9922C365.68 94.8359 365.855 94.7285 366.07 94.6699C366.285 94.6048 366.546 94.5365 366.852 94.4648C367.164 94.3867 367.529 94.3379 367.945 94.3184ZM371.402 101.457V96.4375H367.398V101.457H371.402ZM381.803 98.8008C381.803 99.0026 381.799 99.1523 381.793 99.25C381.793 99.3411 381.783 99.4681 381.764 99.6309C381.751 99.7871 381.728 99.901 381.695 99.9727C381.663 100.044 381.614 100.139 381.549 100.256C381.484 100.367 381.402 100.448 381.305 100.5C381.207 100.552 381.087 100.611 380.943 100.676C380.8 100.741 380.631 100.79 380.436 100.822C380.247 100.848 380.022 100.871 379.762 100.891C379.508 100.91 379.221 100.92 378.902 100.92C378.583 100.92 378.294 100.91 378.033 100.891C377.779 100.871 377.555 100.848 377.359 100.822C377.171 100.79 377.005 100.741 376.861 100.676C376.718 100.611 376.598 100.552 376.5 100.5C376.402 100.448 376.321 100.367 376.256 100.256C376.191 100.139 376.142 100.044 376.109 99.9727C376.077 99.901 376.051 99.7871 376.031 99.6309C376.018 99.4681 376.008 99.3411 376.002 99.25C376.002 99.1523 376.002 99.0026 376.002 98.8008V96.3984C376.002 96.1966 376.002 96.0501 376.002 95.959C376.008 95.8613 376.018 95.7344 376.031 95.5781C376.051 95.4154 376.077 95.2982 376.109 95.2266C376.142 95.1549 376.191 95.0638 376.256 94.9531C376.321 94.8359 376.402 94.7513 376.5 94.6992C376.598 94.6471 376.718 94.5885 376.861 94.5234C377.005 94.4583 377.171 94.4128 377.359 94.3867C377.555 94.3542 377.779 94.3281 378.033 94.3086C378.294 94.2891 378.583 94.2793 378.902 94.2793C379.221 94.2793 379.508 94.2891 379.762 94.3086C380.022 94.3281 380.247 94.3542 380.436 94.3867C380.631 94.4128 380.8 94.4583 380.943 94.5234C381.087 94.5885 381.207 94.6471 381.305 94.6992C381.402 94.7513 381.484 94.8359 381.549 94.9531C381.614 95.0638 381.663 95.1549 381.695 95.2266C381.728 95.2982 381.751 95.4154 381.764 95.5781C381.783 95.7344 381.793 95.8613 381.793 95.959C381.799 96.0501 381.803 96.1966 381.803 96.3984V98.8008ZM379.879 99.2402V95.959H377.916V99.2402H379.879ZM386.041 94.3965H388.199L381.158 108H379L386.041 94.3965ZM387.428 101.506C387.688 101.486 387.978 101.477 388.297 101.477C388.616 101.477 388.902 101.486 389.156 101.506C389.417 101.525 389.641 101.551 389.83 101.584C390.025 101.61 390.195 101.656 390.338 101.721C390.481 101.786 390.602 101.844 390.699 101.896C390.797 101.949 390.878 102.033 390.943 102.15C391.008 102.261 391.057 102.352 391.09 102.424C391.122 102.495 391.145 102.613 391.158 102.775C391.178 102.932 391.188 103.059 391.188 103.156C391.194 103.247 391.197 103.394 391.197 103.596V105.998C391.197 106.2 391.194 106.35 391.188 106.447C391.188 106.538 391.178 106.665 391.158 106.828C391.145 106.984 391.122 107.098 391.09 107.17C391.057 107.242 391.008 107.336 390.943 107.453C390.878 107.564 390.797 107.645 390.699 107.697C390.602 107.749 390.481 107.808 390.338 107.873C390.195 107.938 390.025 107.984 389.83 108.01C389.641 108.042 389.417 108.068 389.156 108.088C388.902 108.107 388.616 108.117 388.297 108.117C387.978 108.117 387.688 108.107 387.428 108.088C387.174 108.068 386.949 108.042 386.754 108.01C386.565 107.984 386.399 107.938 386.256 107.873C386.113 107.808 385.992 107.749 385.895 107.697C385.797 107.645 385.715 107.564 385.65 107.453C385.585 107.336 385.536 107.242 385.504 107.17C385.471 107.098 385.445 106.984 385.426 106.828C385.413 106.665 385.403 106.538 385.396 106.447C385.396 106.35 385.396 106.2 385.396 105.998V103.596C385.396 103.394 385.396 103.247 385.396 103.156C385.403 103.059 385.413 102.932 385.426 102.775C385.445 102.613 385.471 102.495 385.504 102.424C385.536 102.352 385.585 102.261 385.65 102.15C385.715 102.033 385.797 101.949 385.895 101.896C385.992 101.844 386.113 101.786 386.256 101.721C386.399 101.656 386.565 101.61 386.754 101.584C386.949 101.551 387.174 101.525 387.428 101.506ZM389.283 106.438V103.156H387.32V106.438H389.283Z" fill="white"/>
<path d="M427.303 180.396H436.502L431.697 194H429.158L433.201 182.564H427.303V180.396ZM443.514 184.801C443.514 185.003 443.51 185.152 443.504 185.25C443.504 185.341 443.494 185.468 443.475 185.631C443.462 185.787 443.439 185.901 443.406 185.973C443.374 186.044 443.325 186.139 443.26 186.256C443.195 186.367 443.113 186.448 443.016 186.5C442.918 186.552 442.798 186.611 442.654 186.676C442.511 186.741 442.342 186.79 442.146 186.822C441.958 186.848 441.733 186.871 441.473 186.891C441.219 186.91 440.932 186.92 440.613 186.92C440.294 186.92 440.005 186.91 439.744 186.891C439.49 186.871 439.266 186.848 439.07 186.822C438.882 186.79 438.715 186.741 438.572 186.676C438.429 186.611 438.309 186.552 438.211 186.5C438.113 186.448 438.032 186.367 437.967 186.256C437.902 186.139 437.853 186.044 437.82 185.973C437.788 185.901 437.762 185.787 437.742 185.631C437.729 185.468 437.719 185.341 437.713 185.25C437.713 185.152 437.713 185.003 437.713 184.801V182.398C437.713 182.197 437.713 182.05 437.713 181.959C437.719 181.861 437.729 181.734 437.742 181.578C437.762 181.415 437.788 181.298 437.82 181.227C437.853 181.155 437.902 181.064 437.967 180.953C438.032 180.836 438.113 180.751 438.211 180.699C438.309 180.647 438.429 180.589 438.572 180.523C438.715 180.458 438.882 180.413 439.07 180.387C439.266 180.354 439.49 180.328 439.744 180.309C440.005 180.289 440.294 180.279 440.613 180.279C440.932 180.279 441.219 180.289 441.473 180.309C441.733 180.328 441.958 180.354 442.146 180.387C442.342 180.413 442.511 180.458 442.654 180.523C442.798 180.589 442.918 180.647 443.016 180.699C443.113 180.751 443.195 180.836 443.26 180.953C443.325 181.064 443.374 181.155 443.406 181.227C443.439 181.298 443.462 181.415 443.475 181.578C443.494 181.734 443.504 181.861 443.504 181.959C443.51 182.05 443.514 182.197 443.514 182.398V184.801ZM441.59 185.24V181.959H439.627V185.24H441.59ZM447.752 180.396H449.91L442.869 194H440.711L447.752 180.396ZM449.139 187.506C449.399 187.486 449.689 187.477 450.008 187.477C450.327 187.477 450.613 187.486 450.867 187.506C451.128 187.525 451.352 187.551 451.541 187.584C451.736 187.61 451.906 187.656 452.049 187.721C452.192 187.786 452.312 187.844 452.41 187.896C452.508 187.949 452.589 188.033 452.654 188.15C452.719 188.261 452.768 188.352 452.801 188.424C452.833 188.495 452.856 188.613 452.869 188.775C452.889 188.932 452.898 189.059 452.898 189.156C452.905 189.247 452.908 189.394 452.908 189.596V191.998C452.908 192.2 452.905 192.35 452.898 192.447C452.898 192.538 452.889 192.665 452.869 192.828C452.856 192.984 452.833 193.098 452.801 193.17C452.768 193.242 452.719 193.336 452.654 193.453C452.589 193.564 452.508 193.645 452.41 193.697C452.312 193.749 452.192 193.808 452.049 193.873C451.906 193.938 451.736 193.984 451.541 194.01C451.352 194.042 451.128 194.068 450.867 194.088C450.613 194.107 450.327 194.117 450.008 194.117C449.689 194.117 449.399 194.107 449.139 194.088C448.885 194.068 448.66 194.042 448.465 194.01C448.276 193.984 448.11 193.938 447.967 193.873C447.824 193.808 447.703 193.749 447.605 193.697C447.508 193.645 447.426 193.564 447.361 193.453C447.296 193.336 447.247 193.242 447.215 193.17C447.182 193.098 447.156 192.984 447.137 192.828C447.124 192.665 447.114 192.538 447.107 192.447C447.107 192.35 447.107 192.2 447.107 191.998V189.596C447.107 189.394 447.107 189.247 447.107 189.156C447.114 189.059 447.124 188.932 447.137 188.775C447.156 188.613 447.182 188.495 447.215 188.424C447.247 188.352 447.296 188.261 447.361 188.15C447.426 188.033 447.508 187.949 447.605 187.896C447.703 187.844 447.824 187.786 447.967 187.721C448.11 187.656 448.276 187.61 448.465 187.584C448.66 187.551 448.885 187.525 449.139 187.506ZM450.994 192.438V189.156H449.031V192.438H450.994Z" fill="white"/>
<path d="M428.305 316V304.604H426.498V302.396H430.697V316H428.305ZM435.941 302.318C436.365 302.292 436.85 302.279 437.396 302.279C437.943 302.279 438.425 302.292 438.842 302.318C439.265 302.338 439.63 302.387 439.936 302.465C440.248 302.536 440.512 302.605 440.727 302.67C440.941 302.729 441.117 302.836 441.254 302.992C441.391 303.148 441.495 303.282 441.566 303.393C441.645 303.497 441.7 303.669 441.732 303.91C441.765 304.151 441.785 304.346 441.791 304.496C441.798 304.639 441.801 304.874 441.801 305.199V306.4C441.801 306.693 441.798 306.911 441.791 307.055C441.791 307.191 441.775 307.37 441.742 307.592C441.716 307.813 441.674 307.979 441.615 308.09C441.563 308.194 441.482 308.318 441.371 308.461C441.26 308.604 441.124 308.715 440.961 308.793C440.798 308.865 440.593 308.936 440.346 309.008C440.105 309.073 439.822 309.125 439.496 309.164V309.242C439.724 309.268 439.932 309.301 440.121 309.34C440.31 309.372 440.476 309.421 440.619 309.486C440.769 309.545 440.899 309.6 441.01 309.652C441.12 309.698 441.218 309.77 441.303 309.867C441.387 309.965 441.456 310.046 441.508 310.111C441.566 310.176 441.612 310.277 441.645 310.414C441.684 310.551 441.713 310.661 441.732 310.746C441.758 310.824 441.775 310.951 441.781 311.127C441.794 311.296 441.801 311.433 441.801 311.537C441.801 311.635 441.801 311.788 441.801 311.996V313.197C441.801 313.523 441.798 313.76 441.791 313.91C441.785 314.053 441.765 314.245 441.732 314.486C441.7 314.727 441.645 314.903 441.566 315.014C441.495 315.118 441.391 315.248 441.254 315.404C441.117 315.561 440.941 315.671 440.727 315.736C440.512 315.795 440.248 315.863 439.936 315.941C439.63 316.013 439.265 316.059 438.842 316.078C438.425 316.104 437.943 316.117 437.396 316.117C436.85 316.117 436.365 316.104 435.941 316.078C435.525 316.059 435.16 316.013 434.848 315.941C434.542 315.863 434.281 315.795 434.066 315.736C433.852 315.671 433.676 315.561 433.539 315.404C433.402 315.248 433.295 315.118 433.217 315.014C433.145 314.903 433.093 314.727 433.061 314.486C433.028 314.245 433.008 314.053 433.002 313.91C432.995 313.76 432.992 313.523 432.992 313.197V311.4H435.395V313.959H439.398V310.277H435.6V308.119H439.398V304.438H435.395V306.996H432.992V305.199C432.992 304.874 432.995 304.639 433.002 304.496C433.008 304.346 433.028 304.151 433.061 303.91C433.093 303.669 433.145 303.497 433.217 303.393C433.295 303.282 433.402 303.148 433.539 302.992C433.676 302.836 433.852 302.729 434.066 302.67C434.281 302.605 434.542 302.536 434.848 302.465C435.16 302.387 435.525 302.338 435.941 302.318ZM449.799 306.801C449.799 307.003 449.796 307.152 449.789 307.25C449.789 307.341 449.779 307.468 449.76 307.631C449.747 307.787 449.724 307.901 449.691 307.973C449.659 308.044 449.61 308.139 449.545 308.256C449.48 308.367 449.398 308.448 449.301 308.5C449.203 308.552 449.083 308.611 448.939 308.676C448.796 308.741 448.627 308.79 448.432 308.822C448.243 308.848 448.018 308.871 447.758 308.891C447.504 308.91 447.217 308.92 446.898 308.92C446.579 308.92 446.29 308.91 446.029 308.891C445.775 308.871 445.551 308.848 445.355 308.822C445.167 308.79 445.001 308.741 444.857 308.676C444.714 308.611 444.594 308.552 444.496 308.5C444.398 308.448 444.317 308.367 444.252 308.256C444.187 308.139 444.138 308.044 444.105 307.973C444.073 307.901 444.047 307.787 444.027 307.631C444.014 307.468 444.005 307.341 443.998 307.25C443.998 307.152 443.998 307.003 443.998 306.801V304.398C443.998 304.197 443.998 304.05 443.998 303.959C444.005 303.861 444.014 303.734 444.027 303.578C444.047 303.415 444.073 303.298 444.105 303.227C444.138 303.155 444.187 303.064 444.252 302.953C444.317 302.836 444.398 302.751 444.496 302.699C444.594 302.647 444.714 302.589 444.857 302.523C445.001 302.458 445.167 302.413 445.355 302.387C445.551 302.354 445.775 302.328 446.029 302.309C446.29 302.289 446.579 302.279 446.898 302.279C447.217 302.279 447.504 302.289 447.758 302.309C448.018 302.328 448.243 302.354 448.432 302.387C448.627 302.413 448.796 302.458 448.939 302.523C449.083 302.589 449.203 302.647 449.301 302.699C449.398 302.751 449.48 302.836 449.545 302.953C449.61 303.064 449.659 303.155 449.691 303.227C449.724 303.298 449.747 303.415 449.76 303.578C449.779 303.734 449.789 303.861 449.789 303.959C449.796 304.05 449.799 304.197 449.799 304.398V306.801ZM447.875 307.24V303.959H445.912V307.24H447.875ZM454.037 302.396H456.195L449.154 316H446.996L454.037 302.396ZM455.424 309.506C455.684 309.486 455.974 309.477 456.293 309.477C456.612 309.477 456.898 309.486 457.152 309.506C457.413 309.525 457.637 309.551 457.826 309.584C458.021 309.61 458.191 309.656 458.334 309.721C458.477 309.786 458.598 309.844 458.695 309.896C458.793 309.949 458.874 310.033 458.939 310.15C459.005 310.261 459.053 310.352 459.086 310.424C459.118 310.495 459.141 310.613 459.154 310.775C459.174 310.932 459.184 311.059 459.184 311.156C459.19 311.247 459.193 311.394 459.193 311.596V313.998C459.193 314.2 459.19 314.35 459.184 314.447C459.184 314.538 459.174 314.665 459.154 314.828C459.141 314.984 459.118 315.098 459.086 315.17C459.053 315.242 459.005 315.336 458.939 315.453C458.874 315.564 458.793 315.645 458.695 315.697C458.598 315.749 458.477 315.808 458.334 315.873C458.191 315.938 458.021 315.984 457.826 316.01C457.637 316.042 457.413 316.068 457.152 316.088C456.898 316.107 456.612 316.117 456.293 316.117C455.974 316.117 455.684 316.107 455.424 316.088C455.17 316.068 454.945 316.042 454.75 316.01C454.561 315.984 454.395 315.938 454.252 315.873C454.109 315.808 453.988 315.749 453.891 315.697C453.793 315.645 453.712 315.564 453.646 315.453C453.581 315.336 453.533 315.242 453.5 315.17C453.467 315.098 453.441 314.984 453.422 314.828C453.409 314.665 453.399 314.538 453.393 314.447C453.393 314.35 453.393 314.2 453.393 313.998V311.596C453.393 311.394 453.393 311.247 453.393 311.156C453.399 311.059 453.409 310.932 453.422 310.775C453.441 310.613 453.467 310.495 453.5 310.424C453.533 310.352 453.581 310.261 453.646 310.15C453.712 310.033 453.793 309.949 453.891 309.896C453.988 309.844 454.109 309.786 454.252 309.721C454.395 309.656 454.561 309.61 454.75 309.584C454.945 309.551 455.17 309.525 455.424 309.506ZM457.279 314.438V311.156H455.316V314.438H457.279Z" fill="white"/>
<path d="M305.305 442V430.604H303.498V428.396H307.697V442H305.305ZM318.898 431.805H316.496V430.438H312.492V434.197H312.58C312.756 433.742 312.889 433.455 312.98 433.338C313.182 433.077 313.573 432.915 314.152 432.85C314.517 432.804 315.031 432.781 315.695 432.781C316.151 432.781 316.545 432.804 316.877 432.85C317.215 432.895 317.499 432.947 317.727 433.006C317.961 433.058 318.153 433.159 318.303 433.309C318.452 433.458 318.566 433.589 318.645 433.699C318.729 433.81 318.788 433.995 318.82 434.256C318.859 434.516 318.882 434.731 318.889 434.9C318.895 435.07 318.898 435.337 318.898 435.701V439.197C318.898 439.523 318.895 439.76 318.889 439.91C318.882 440.053 318.863 440.245 318.83 440.486C318.798 440.727 318.742 440.903 318.664 441.014C318.592 441.118 318.488 441.248 318.352 441.404C318.215 441.561 318.039 441.671 317.824 441.736C317.609 441.795 317.346 441.863 317.033 441.941C316.727 442.013 316.363 442.059 315.939 442.078C315.523 442.104 315.041 442.117 314.494 442.117C313.947 442.117 313.462 442.104 313.039 442.078C312.622 442.059 312.261 442.013 311.955 441.941C311.649 441.863 311.389 441.795 311.174 441.736C310.959 441.671 310.783 441.561 310.646 441.404C310.51 441.248 310.402 441.118 310.324 441.014C310.253 440.91 310.201 440.737 310.168 440.496C310.135 440.255 310.116 440.063 310.109 439.92C310.103 439.77 310.1 439.533 310.1 439.207V439.197V431.199V431.189C310.1 430.864 310.103 430.63 310.109 430.486C310.116 430.337 310.135 430.141 310.168 429.9C310.201 429.66 310.253 429.487 310.324 429.383C310.402 429.279 310.51 429.148 310.646 428.992C310.783 428.836 310.959 428.729 311.174 428.67C311.389 428.605 311.649 428.536 311.955 428.465C312.261 428.387 312.622 428.338 313.039 428.318C313.462 428.292 313.947 428.279 314.494 428.279C315.041 428.279 315.523 428.292 315.939 428.318C316.363 428.338 316.727 428.387 317.033 428.465C317.346 428.536 317.609 428.605 317.824 428.67C318.039 428.729 318.215 428.836 318.352 428.992C318.488 429.148 318.592 429.282 318.664 429.393C318.742 429.497 318.798 429.669 318.83 429.91C318.863 430.151 318.882 430.346 318.889 430.496C318.895 430.639 318.898 430.874 318.898 431.199V431.805ZM316.496 434.939H312.492V439.959H316.496V434.939ZM326.799 432.801C326.799 433.003 326.796 433.152 326.789 433.25C326.789 433.341 326.779 433.468 326.76 433.631C326.747 433.787 326.724 433.901 326.691 433.973C326.659 434.044 326.61 434.139 326.545 434.256C326.48 434.367 326.398 434.448 326.301 434.5C326.203 434.552 326.083 434.611 325.939 434.676C325.796 434.741 325.627 434.79 325.432 434.822C325.243 434.848 325.018 434.871 324.758 434.891C324.504 434.91 324.217 434.92 323.898 434.92C323.579 434.92 323.29 434.91 323.029 434.891C322.775 434.871 322.551 434.848 322.355 434.822C322.167 434.79 322.001 434.741 321.857 434.676C321.714 434.611 321.594 434.552 321.496 434.5C321.398 434.448 321.317 434.367 321.252 434.256C321.187 434.139 321.138 434.044 321.105 433.973C321.073 433.901 321.047 433.787 321.027 433.631C321.014 433.468 321.005 433.341 320.998 433.25C320.998 433.152 320.998 433.003 320.998 432.801V430.398C320.998 430.197 320.998 430.05 320.998 429.959C321.005 429.861 321.014 429.734 321.027 429.578C321.047 429.415 321.073 429.298 321.105 429.227C321.138 429.155 321.187 429.064 321.252 428.953C321.317 428.836 321.398 428.751 321.496 428.699C321.594 428.647 321.714 428.589 321.857 428.523C322.001 428.458 322.167 428.413 322.355 428.387C322.551 428.354 322.775 428.328 323.029 428.309C323.29 428.289 323.579 428.279 323.898 428.279C324.217 428.279 324.504 428.289 324.758 428.309C325.018 428.328 325.243 428.354 325.432 428.387C325.627 428.413 325.796 428.458 325.939 428.523C326.083 428.589 326.203 428.647 326.301 428.699C326.398 428.751 326.48 428.836 326.545 428.953C326.61 429.064 326.659 429.155 326.691 429.227C326.724 429.298 326.747 429.415 326.76 429.578C326.779 429.734 326.789 429.861 326.789 429.959C326.796 430.05 326.799 430.197 326.799 430.398V432.801ZM324.875 433.24V429.959H322.912V433.24H324.875ZM331.037 428.396H333.195L326.154 442H323.996L331.037 428.396ZM332.424 435.506C332.684 435.486 332.974 435.477 333.293 435.477C333.612 435.477 333.898 435.486 334.152 435.506C334.413 435.525 334.637 435.551 334.826 435.584C335.021 435.61 335.191 435.656 335.334 435.721C335.477 435.786 335.598 435.844 335.695 435.896C335.793 435.949 335.874 436.033 335.939 436.15C336.005 436.261 336.053 436.352 336.086 436.424C336.118 436.495 336.141 436.613 336.154 436.775C336.174 436.932 336.184 437.059 336.184 437.156C336.19 437.247 336.193 437.394 336.193 437.596V439.998C336.193 440.2 336.19 440.35 336.184 440.447C336.184 440.538 336.174 440.665 336.154 440.828C336.141 440.984 336.118 441.098 336.086 441.17C336.053 441.242 336.005 441.336 335.939 441.453C335.874 441.564 335.793 441.645 335.695 441.697C335.598 441.749 335.477 441.808 335.334 441.873C335.191 441.938 335.021 441.984 334.826 442.01C334.637 442.042 334.413 442.068 334.152 442.088C333.898 442.107 333.612 442.117 333.293 442.117C332.974 442.117 332.684 442.107 332.424 442.088C332.17 442.068 331.945 442.042 331.75 442.01C331.561 441.984 331.395 441.938 331.252 441.873C331.109 441.808 330.988 441.749 330.891 441.697C330.793 441.645 330.712 441.564 330.646 441.453C330.581 441.336 330.533 441.242 330.5 441.17C330.467 441.098 330.441 440.984 330.422 440.828C330.409 440.665 330.399 440.538 330.393 440.447C330.393 440.35 330.393 440.2 330.393 439.998V437.596C330.393 437.394 330.393 437.247 330.393 437.156C330.399 437.059 330.409 436.932 330.422 436.775C330.441 436.613 330.467 436.495 330.5 436.424C330.533 436.352 330.581 436.261 330.646 436.15C330.712 436.033 330.793 435.949 330.891 435.896C330.988 435.844 331.109 435.786 331.252 435.721C331.395 435.656 331.561 435.61 331.75 435.584C331.945 435.551 332.17 435.525 332.424 435.506ZM334.279 440.438V437.156H332.316V440.438H334.279Z" fill="white"/>
<path d="M122.305 418V406.604H120.498V404.396H124.697V418H122.305ZM135.293 412.941H136.494V415.1H135.293V418H132.9V415.1H126.094L131.172 404.396H135.293V412.941ZM132.9 412.941V406.564H132.812L129.775 412.941H132.9ZM143.896 408.801C143.896 409.003 143.893 409.152 143.887 409.25C143.887 409.341 143.877 409.468 143.857 409.631C143.844 409.787 143.822 409.901 143.789 409.973C143.757 410.044 143.708 410.139 143.643 410.256C143.577 410.367 143.496 410.448 143.398 410.5C143.301 410.552 143.18 410.611 143.037 410.676C142.894 410.741 142.725 410.79 142.529 410.822C142.34 410.848 142.116 410.871 141.855 410.891C141.602 410.91 141.315 410.92 140.996 410.92C140.677 410.92 140.387 410.91 140.127 410.891C139.873 410.871 139.648 410.848 139.453 410.822C139.264 410.79 139.098 410.741 138.955 410.676C138.812 410.611 138.691 410.552 138.594 410.5C138.496 410.448 138.415 410.367 138.35 410.256C138.285 410.139 138.236 410.044 138.203 409.973C138.171 409.901 138.145 409.787 138.125 409.631C138.112 409.468 138.102 409.341 138.096 409.25C138.096 409.152 138.096 409.003 138.096 408.801V406.398C138.096 406.197 138.096 406.05 138.096 405.959C138.102 405.861 138.112 405.734 138.125 405.578C138.145 405.415 138.171 405.298 138.203 405.227C138.236 405.155 138.285 405.064 138.35 404.953C138.415 404.836 138.496 404.751 138.594 404.699C138.691 404.647 138.812 404.589 138.955 404.523C139.098 404.458 139.264 404.413 139.453 404.387C139.648 404.354 139.873 404.328 140.127 404.309C140.387 404.289 140.677 404.279 140.996 404.279C141.315 404.279 141.602 404.289 141.855 404.309C142.116 404.328 142.34 404.354 142.529 404.387C142.725 404.413 142.894 404.458 143.037 404.523C143.18 404.589 143.301 404.647 143.398 404.699C143.496 404.751 143.577 404.836 143.643 404.953C143.708 405.064 143.757 405.155 143.789 405.227C143.822 405.298 143.844 405.415 143.857 405.578C143.877 405.734 143.887 405.861 143.887 405.959C143.893 406.05 143.896 406.197 143.896 406.398V408.801ZM141.973 409.24V405.959H140.01V409.24H141.973ZM148.135 404.396H150.293L143.252 418H141.094L148.135 404.396ZM149.521 411.506C149.782 411.486 150.072 411.477 150.391 411.477C150.71 411.477 150.996 411.486 151.25 411.506C151.51 411.525 151.735 411.551 151.924 411.584C152.119 411.61 152.288 411.656 152.432 411.721C152.575 411.786 152.695 411.844 152.793 411.896C152.891 411.949 152.972 412.033 153.037 412.15C153.102 412.261 153.151 412.352 153.184 412.424C153.216 412.495 153.239 412.613 153.252 412.775C153.271 412.932 153.281 413.059 153.281 413.156C153.288 413.247 153.291 413.394 153.291 413.596V415.998C153.291 416.2 153.288 416.35 153.281 416.447C153.281 416.538 153.271 416.665 153.252 416.828C153.239 416.984 153.216 417.098 153.184 417.17C153.151 417.242 153.102 417.336 153.037 417.453C152.972 417.564 152.891 417.645 152.793 417.697C152.695 417.749 152.575 417.808 152.432 417.873C152.288 417.938 152.119 417.984 151.924 418.01C151.735 418.042 151.51 418.068 151.25 418.088C150.996 418.107 150.71 418.117 150.391 418.117C150.072 418.117 149.782 418.107 149.521 418.088C149.268 418.068 149.043 418.042 148.848 418.01C148.659 417.984 148.493 417.938 148.35 417.873C148.206 417.808 148.086 417.749 147.988 417.697C147.891 417.645 147.809 417.564 147.744 417.453C147.679 417.336 147.63 417.242 147.598 417.17C147.565 417.098 147.539 416.984 147.52 416.828C147.507 416.665 147.497 416.538 147.49 416.447C147.49 416.35 147.49 416.2 147.49 415.998V413.596C147.49 413.394 147.49 413.247 147.49 413.156C147.497 413.059 147.507 412.932 147.52 412.775C147.539 412.613 147.565 412.495 147.598 412.424C147.63 412.352 147.679 412.261 147.744 412.15C147.809 412.033 147.891 411.949 147.988 411.896C148.086 411.844 148.206 411.786 148.35 411.721C148.493 411.656 148.659 411.61 148.848 411.584C149.043 411.551 149.268 411.525 149.521 411.506ZM151.377 416.438V413.156H149.414V416.438H151.377Z" fill="white"/>
<path d="M47.4961 223.4V225.842H53.9023V228H45.1035V221.916L51.5 219.797V216.438H47.4961V218.996H45.1035V217.199V217.189C45.1035 216.864 45.1068 216.63 45.1133 216.486C45.1198 216.337 45.1393 216.141 45.1719 215.9C45.2044 215.66 45.2565 215.487 45.3281 215.383C45.4062 215.279 45.5137 215.148 45.6504 214.992C45.7871 214.836 45.9629 214.729 46.1777 214.67C46.3926 214.605 46.653 214.536 46.959 214.465C47.265 214.387 47.6263 214.338 48.043 214.318C48.4661 214.292 48.9512 214.279 49.498 214.279C50.0449 214.279 50.5267 214.292 50.9434 214.318C51.3665 214.338 51.7311 214.387 52.0371 214.465C52.3496 214.536 52.6133 214.605 52.8281 214.67C53.043 214.729 53.2188 214.836 53.3555 214.992C53.4922 215.148 53.5964 215.282 53.668 215.393C53.7461 215.497 53.8014 215.669 53.834 215.91C53.8665 216.151 53.8861 216.346 53.8926 216.496C53.8991 216.639 53.9023 216.874 53.9023 217.199V221.281L47.4961 223.4ZM57.2031 228V216.604H55.3965V214.396H59.5957V228H57.2031ZM67.7988 218.801C67.7988 219.003 67.7956 219.152 67.7891 219.25C67.7891 219.341 67.7793 219.468 67.7598 219.631C67.7467 219.787 67.724 219.901 67.6914 219.973C67.6589 220.044 67.61 220.139 67.5449 220.256C67.4798 220.367 67.3984 220.448 67.3008 220.5C67.2031 220.552 67.0827 220.611 66.9395 220.676C66.7962 220.741 66.627 220.79 66.4316 220.822C66.2428 220.848 66.0182 220.871 65.7578 220.891C65.5039 220.91 65.2174 220.92 64.8984 220.92C64.5794 220.92 64.2897 220.91 64.0293 220.891C63.7754 220.871 63.5508 220.848 63.3555 220.822C63.1667 220.79 63.0007 220.741 62.8574 220.676C62.7142 220.611 62.5938 220.552 62.4961 220.5C62.3984 220.448 62.3171 220.367 62.252 220.256C62.1868 220.139 62.138 220.044 62.1055 219.973C62.0729 219.901 62.0469 219.787 62.0273 219.631C62.0143 219.468 62.0046 219.341 61.998 219.25C61.998 219.152 61.998 219.003 61.998 218.801V216.398C61.998 216.197 61.998 216.05 61.998 215.959C62.0046 215.861 62.0143 215.734 62.0273 215.578C62.0469 215.415 62.0729 215.298 62.1055 215.227C62.138 215.155 62.1868 215.064 62.252 214.953C62.3171 214.836 62.3984 214.751 62.4961 214.699C62.5938 214.647 62.7142 214.589 62.8574 214.523C63.0007 214.458 63.1667 214.413 63.3555 214.387C63.5508 214.354 63.7754 214.328 64.0293 214.309C64.2897 214.289 64.5794 214.279 64.8984 214.279C65.2174 214.279 65.5039 214.289 65.7578 214.309C66.0182 214.328 66.2428 214.354 66.4316 214.387C66.627 214.413 66.7962 214.458 66.9395 214.523C67.0827 214.589 67.2031 214.647 67.3008 214.699C67.3984 214.751 67.4798 214.836 67.5449 214.953C67.61 215.064 67.6589 215.155 67.6914 215.227C67.724 215.298 67.7467 215.415 67.7598 215.578C67.7793 215.734 67.7891 215.861 67.7891 215.959C67.7956 216.05 67.7988 216.197 67.7988 216.398V218.801ZM65.875 219.24V215.959H63.9121V219.24H65.875ZM72.0371 214.396H74.1953L67.1543 228H64.9961L72.0371 214.396ZM73.4238 221.506C73.6842 221.486 73.974 221.477 74.293 221.477C74.612 221.477 74.8984 221.486 75.1523 221.506C75.4128 221.525 75.6374 221.551 75.8262 221.584C76.0215 221.61 76.1908 221.656 76.334 221.721C76.4772 221.786 76.5977 221.844 76.6953 221.896C76.793 221.949 76.8743 222.033 76.9395 222.15C77.0046 222.261 77.0534 222.352 77.0859 222.424C77.1185 222.495 77.1413 222.613 77.1543 222.775C77.1738 222.932 77.1836 223.059 77.1836 223.156C77.1901 223.247 77.1934 223.394 77.1934 223.596V225.998C77.1934 226.2 77.1901 226.35 77.1836 226.447C77.1836 226.538 77.1738 226.665 77.1543 226.828C77.1413 226.984 77.1185 227.098 77.0859 227.17C77.0534 227.242 77.0046 227.336 76.9395 227.453C76.8743 227.564 76.793 227.645 76.6953 227.697C76.5977 227.749 76.4772 227.808 76.334 227.873C76.1908 227.938 76.0215 227.984 75.8262 228.01C75.6374 228.042 75.4128 228.068 75.1523 228.088C74.8984 228.107 74.612 228.117 74.293 228.117C73.974 228.117 73.6842 228.107 73.4238 228.088C73.1699 228.068 72.9453 228.042 72.75 228.01C72.5612 227.984 72.3952 227.938 72.252 227.873C72.1087 227.808 71.9883 227.749 71.8906 227.697C71.793 227.645 71.7116 227.564 71.6465 227.453C71.5814 227.336 71.5326 227.242 71.5 227.17C71.4674 227.098 71.4414 226.984 71.4219 226.828C71.4089 226.665 71.3991 226.538 71.3926 226.447C71.3926 226.35 71.3926 226.2 71.3926 225.998V223.596C71.3926 223.394 71.3926 223.247 71.3926 223.156C71.3991 223.059 71.4089 222.932 71.4219 222.775C71.4414 222.613 71.4674 222.495 71.5 222.424C71.5326 222.352 71.5814 222.261 71.6465 222.15C71.7116 222.033 71.793 221.949 71.8906 221.896C71.9883 221.844 72.1087 221.786 72.252 221.721C72.3952 221.656 72.5612 221.61 72.75 221.584C72.9453 221.551 73.1699 221.525 73.4238 221.506ZM75.2793 226.438V223.156H73.3164V226.438H75.2793Z" fill="white"/>
<path d="M141.596 81.2988C142.149 81.2988 142.634 81.3086 143.051 81.3281C143.467 81.3477 143.829 81.3932 144.135 81.4648C144.447 81.5299 144.708 81.5918 144.916 81.6504C145.131 81.709 145.307 81.8132 145.443 81.9629C145.587 82.1061 145.694 82.2298 145.766 82.334C145.844 82.4316 145.899 82.5977 145.932 82.832C145.964 83.0599 145.984 83.2487 145.99 83.3984C145.997 83.5482 146 83.7826 146 84.1016V87.1973C146 87.5228 145.997 87.7604 145.99 87.9102C145.984 88.0534 145.964 88.2454 145.932 88.4863C145.899 88.7272 145.844 88.903 145.766 89.0137C145.694 89.1178 145.59 89.248 145.453 89.4043C145.316 89.5605 145.141 89.6712 144.926 89.7363C144.711 89.7949 144.447 89.8633 144.135 89.9414C143.829 90.013 143.464 90.0586 143.041 90.0781C142.624 90.1042 142.143 90.1172 141.596 90.1172C141.049 90.1172 140.564 90.1042 140.141 90.0781C139.724 90.0586 139.363 90.013 139.057 89.9414C138.751 89.8633 138.49 89.7949 138.275 89.7363C138.061 89.6712 137.885 89.5605 137.748 89.4043C137.611 89.248 137.504 89.1178 137.426 89.0137C137.354 88.9095 137.302 88.737 137.27 88.4961C137.237 88.2552 137.217 88.0632 137.211 87.9199C137.204 87.7702 137.201 87.5326 137.201 87.207V87.1973V85.4004H139.604V87.959H143.598V83.457H137.201V76.3965H145.805V78.5645H139.604V81.2988H141.596ZM153.9 80.8008C153.9 81.0026 153.897 81.1523 153.891 81.25C153.891 81.3411 153.881 81.4681 153.861 81.6309C153.848 81.7871 153.826 81.901 153.793 81.9727C153.76 82.0443 153.712 82.1387 153.646 82.2559C153.581 82.3665 153.5 82.4479 153.402 82.5C153.305 82.5521 153.184 82.6107 153.041 82.6758C152.898 82.7409 152.729 82.7897 152.533 82.8223C152.344 82.8483 152.12 82.8711 151.859 82.8906C151.605 82.9102 151.319 82.9199 151 82.9199C150.681 82.9199 150.391 82.9102 150.131 82.8906C149.877 82.8711 149.652 82.8483 149.457 82.8223C149.268 82.7897 149.102 82.7409 148.959 82.6758C148.816 82.6107 148.695 82.5521 148.598 82.5C148.5 82.4479 148.419 82.3665 148.354 82.2559C148.288 82.1387 148.24 82.0443 148.207 81.9727C148.174 81.901 148.148 81.7871 148.129 81.6309C148.116 81.4681 148.106 81.3411 148.1 81.25C148.1 81.1523 148.1 81.0026 148.1 80.8008V78.3984C148.1 78.1966 148.1 78.0501 148.1 77.959C148.106 77.8613 148.116 77.7344 148.129 77.5781C148.148 77.4154 148.174 77.2982 148.207 77.2266C148.24 77.1549 148.288 77.0638 148.354 76.9531C148.419 76.8359 148.5 76.7513 148.598 76.6992C148.695 76.6471 148.816 76.5885 148.959 76.5234C149.102 76.4583 149.268 76.4128 149.457 76.3867C149.652 76.3542 149.877 76.3281 150.131 76.3086C150.391 76.2891 150.681 76.2793 151 76.2793C151.319 76.2793 151.605 76.2891 151.859 76.3086C152.12 76.3281 152.344 76.3542 152.533 76.3867C152.729 76.4128 152.898 76.4583 153.041 76.5234C153.184 76.5885 153.305 76.6471 153.402 76.6992C153.5 76.7513 153.581 76.8359 153.646 76.9531C153.712 77.0638 153.76 77.1549 153.793 77.2266C153.826 77.2982 153.848 77.4154 153.861 77.5781C153.881 77.7344 153.891 77.8613 153.891 77.959C153.897 78.0501 153.9 78.1966 153.9 78.3984V80.8008ZM151.977 81.2402V77.959H150.014V81.2402H151.977ZM158.139 76.3965H160.297L153.256 90H151.098L158.139 76.3965ZM159.525 83.5059C159.786 83.4863 160.076 83.4766 160.395 83.4766C160.714 83.4766 161 83.4863 161.254 83.5059C161.514 83.5254 161.739 83.5514 161.928 83.584C162.123 83.61 162.292 83.6556 162.436 83.7207C162.579 83.7858 162.699 83.8444 162.797 83.8965C162.895 83.9486 162.976 84.0332 163.041 84.1504C163.106 84.2611 163.155 84.3522 163.188 84.4238C163.22 84.4954 163.243 84.6126 163.256 84.7754C163.275 84.9316 163.285 85.0586 163.285 85.1562C163.292 85.2474 163.295 85.3939 163.295 85.5957V87.998C163.295 88.1999 163.292 88.3496 163.285 88.4473C163.285 88.5384 163.275 88.6654 163.256 88.8281C163.243 88.9844 163.22 89.0983 163.188 89.1699C163.155 89.2415 163.106 89.3359 163.041 89.4531C162.976 89.5638 162.895 89.6452 162.797 89.6973C162.699 89.7493 162.579 89.8079 162.436 89.873C162.292 89.9382 162.123 89.9837 161.928 90.0098C161.739 90.0423 161.514 90.0684 161.254 90.0879C161 90.1074 160.714 90.1172 160.395 90.1172C160.076 90.1172 159.786 90.1074 159.525 90.0879C159.271 90.0684 159.047 90.0423 158.852 90.0098C158.663 89.9837 158.497 89.9382 158.354 89.873C158.21 89.8079 158.09 89.7493 157.992 89.6973C157.895 89.6452 157.813 89.5638 157.748 89.4531C157.683 89.3359 157.634 89.2415 157.602 89.1699C157.569 89.0983 157.543 88.9844 157.523 88.8281C157.51 88.6654 157.501 88.5384 157.494 88.4473C157.494 88.3496 157.494 88.1999 157.494 87.998V85.5957C157.494 85.3939 157.494 85.2474 157.494 85.1562C157.501 85.0586 157.51 84.9316 157.523 84.7754C157.543 84.6126 157.569 84.4954 157.602 84.4238C157.634 84.3522 157.683 84.2611 157.748 84.1504C157.813 84.0332 157.895 83.9486 157.992 83.8965C158.09 83.8444 158.21 83.7858 158.354 83.7207C158.497 83.6556 158.663 83.61 158.852 83.584C159.047 83.5514 159.271 83.5254 159.525 83.5059ZM161.381 88.4375V85.1562H159.418V88.4375H161.381Z" fill="white"/>
<path d="M198.596 55.2988C199.149 55.2988 199.634 55.3086 200.051 55.3281C200.467 55.3477 200.829 55.3932 201.135 55.4648C201.447 55.5299 201.708 55.5918 201.916 55.6504C202.131 55.709 202.307 55.8132 202.443 55.9629C202.587 56.1061 202.694 56.2298 202.766 56.334C202.844 56.4316 202.899 56.5977 202.932 56.832C202.964 57.0599 202.984 57.2487 202.99 57.3984C202.997 57.5482 203 57.7826 203 58.1016V61.1973C203 61.5228 202.997 61.7604 202.99 61.9102C202.984 62.0534 202.964 62.2454 202.932 62.4863C202.899 62.7272 202.844 62.903 202.766 63.0137C202.694 63.1178 202.59 63.248 202.453 63.4043C202.316 63.5605 202.141 63.6712 201.926 63.7363C201.711 63.7949 201.447 63.8633 201.135 63.9414C200.829 64.013 200.464 64.0586 200.041 64.0781C199.624 64.1042 199.143 64.1172 198.596 64.1172C198.049 64.1172 197.564 64.1042 197.141 64.0781C196.724 64.0586 196.363 64.013 196.057 63.9414C195.751 63.8633 195.49 63.7949 195.275 63.7363C195.061 63.6712 194.885 63.5605 194.748 63.4043C194.611 63.248 194.504 63.1178 194.426 63.0137C194.354 62.9095 194.302 62.737 194.27 62.4961C194.237 62.2552 194.217 62.0632 194.211 61.9199C194.204 61.7702 194.201 61.5326 194.201 61.207V61.1973V59.4004H196.604V61.959H200.598V57.457H194.201V50.3965H202.805V52.5645H196.604V55.2988H198.596ZM205.344 61.5293C205.643 61.2298 206.001 61.0801 206.418 61.0801C206.835 61.0801 207.189 61.2298 207.482 61.5293C207.782 61.8223 207.932 62.1803 207.932 62.6035C207.932 63.0267 207.782 63.3848 207.482 63.6777C207.189 63.9707 206.835 64.1172 206.418 64.1172C205.995 64.1172 205.633 63.9707 205.334 63.6777C205.041 63.3783 204.895 63.0202 204.895 62.6035C204.895 62.1803 205.044 61.8223 205.344 61.5293ZM214.436 55.2988C214.989 55.2988 215.474 55.3086 215.891 55.3281C216.307 55.3477 216.669 55.3932 216.975 55.4648C217.287 55.5299 217.548 55.5918 217.756 55.6504C217.971 55.709 218.146 55.8132 218.283 55.9629C218.426 56.1061 218.534 56.2298 218.605 56.334C218.684 56.4316 218.739 56.5977 218.771 56.832C218.804 57.0599 218.824 57.2487 218.83 57.3984C218.837 57.5482 218.84 57.7826 218.84 58.1016V61.1973C218.84 61.5228 218.837 61.7604 218.83 61.9102C218.824 62.0534 218.804 62.2454 218.771 62.4863C218.739 62.7272 218.684 62.903 218.605 63.0137C218.534 63.1178 218.43 63.248 218.293 63.4043C218.156 63.5605 217.98 63.6712 217.766 63.7363C217.551 63.7949 217.287 63.8633 216.975 63.9414C216.669 64.013 216.304 64.0586 215.881 64.0781C215.464 64.1042 214.982 64.1172 214.436 64.1172C213.889 64.1172 213.404 64.1042 212.98 64.0781C212.564 64.0586 212.202 64.013 211.896 63.9414C211.59 63.8633 211.33 63.7949 211.115 63.7363C210.9 63.6712 210.725 63.5605 210.588 63.4043C210.451 63.248 210.344 63.1178 210.266 63.0137C210.194 62.9095 210.142 62.737 210.109 62.4961C210.077 62.2552 210.057 62.0632 210.051 61.9199C210.044 61.7702 210.041 61.5326 210.041 61.207V61.1973V59.4004H212.443V61.959H216.438V57.457H210.041V50.3965H218.645V52.5645H212.443V55.2988H214.436ZM226.74 54.8008C226.74 55.0026 226.737 55.1523 226.73 55.25C226.73 55.3411 226.721 55.4681 226.701 55.6309C226.688 55.7871 226.665 55.901 226.633 55.9727C226.6 56.0443 226.551 56.1387 226.486 56.2559C226.421 56.3665 226.34 56.4479 226.242 56.5C226.145 56.5521 226.024 56.6107 225.881 56.6758C225.738 56.7409 225.568 56.7897 225.373 56.8223C225.184 56.8483 224.96 56.8711 224.699 56.8906C224.445 56.9102 224.159 56.9199 223.84 56.9199C223.521 56.9199 223.231 56.9102 222.971 56.8906C222.717 56.8711 222.492 56.8483 222.297 56.8223C222.108 56.7897 221.942 56.7409 221.799 56.6758C221.656 56.6107 221.535 56.5521 221.438 56.5C221.34 56.4479 221.258 56.3665 221.193 56.2559C221.128 56.1387 221.079 56.0443 221.047 55.9727C221.014 55.901 220.988 55.7871 220.969 55.6309C220.956 55.4681 220.946 55.3411 220.939 55.25C220.939 55.1523 220.939 55.0026 220.939 54.8008V52.3984C220.939 52.1966 220.939 52.0501 220.939 51.959C220.946 51.8613 220.956 51.7344 220.969 51.5781C220.988 51.4154 221.014 51.2982 221.047 51.2266C221.079 51.1549 221.128 51.0638 221.193 50.9531C221.258 50.8359 221.34 50.7513 221.438 50.6992C221.535 50.6471 221.656 50.5885 221.799 50.5234C221.942 50.4583 222.108 50.4128 222.297 50.3867C222.492 50.3542 222.717 50.3281 222.971 50.3086C223.231 50.2891 223.521 50.2793 223.84 50.2793C224.159 50.2793 224.445 50.2891 224.699 50.3086C224.96 50.3281 225.184 50.3542 225.373 50.3867C225.568 50.4128 225.738 50.4583 225.881 50.5234C226.024 50.5885 226.145 50.6471 226.242 50.6992C226.34 50.7513 226.421 50.8359 226.486 50.9531C226.551 51.0638 226.6 51.1549 226.633 51.2266C226.665 51.2982 226.688 51.4154 226.701 51.5781C226.721 51.7344 226.73 51.8613 226.73 51.959C226.737 52.0501 226.74 52.1966 226.74 52.3984V54.8008ZM224.816 55.2402V51.959H222.854V55.2402H224.816ZM230.979 50.3965H233.137L226.096 64H223.938L230.979 50.3965ZM232.365 57.5059C232.626 57.4863 232.915 57.4766 233.234 57.4766C233.553 57.4766 233.84 57.4863 234.094 57.5059C234.354 57.5254 234.579 57.5514 234.768 57.584C234.963 57.61 235.132 57.6556 235.275 57.7207C235.419 57.7858 235.539 57.8444 235.637 57.8965C235.734 57.9486 235.816 58.0332 235.881 58.1504C235.946 58.2611 235.995 58.3522 236.027 58.4238C236.06 58.4954 236.083 58.6126 236.096 58.7754C236.115 58.9316 236.125 59.0586 236.125 59.1562C236.132 59.2474 236.135 59.3939 236.135 59.5957V61.998C236.135 62.1999 236.132 62.3496 236.125 62.4473C236.125 62.5384 236.115 62.6654 236.096 62.8281C236.083 62.9844 236.06 63.0983 236.027 63.1699C235.995 63.2415 235.946 63.3359 235.881 63.4531C235.816 63.5638 235.734 63.6452 235.637 63.6973C235.539 63.7493 235.419 63.8079 235.275 63.873C235.132 63.9382 234.963 63.9837 234.768 64.0098C234.579 64.0423 234.354 64.0684 234.094 64.0879C233.84 64.1074 233.553 64.1172 233.234 64.1172C232.915 64.1172 232.626 64.1074 232.365 64.0879C232.111 64.0684 231.887 64.0423 231.691 64.0098C231.503 63.9837 231.337 63.9382 231.193 63.873C231.05 63.8079 230.93 63.7493 230.832 63.6973C230.734 63.6452 230.653 63.5638 230.588 63.4531C230.523 63.3359 230.474 63.2415 230.441 63.1699C230.409 63.0983 230.383 62.9844 230.363 62.8281C230.35 62.6654 230.34 62.5384 230.334 62.4473C230.334 62.3496 230.334 62.1999 230.334 61.998V59.5957C230.334 59.3939 230.334 59.2474 230.334 59.1562C230.34 59.0586 230.35 58.9316 230.363 58.7754C230.383 58.6126 230.409 58.4954 230.441 58.4238C230.474 58.3522 230.523 58.2611 230.588 58.1504C230.653 58.0332 230.734 57.9486 230.832 57.8965C230.93 57.8444 231.05 57.7858 231.193 57.7207C231.337 57.6556 231.503 57.61 231.691 57.584C231.887 57.5514 232.111 57.5254 232.365 57.5059ZM234.221 62.4375V59.1562H232.258V62.4375H234.221Z" fill="white"/>
<path d="M358.128 279.973L358.125 279.983L358.122 279.994C357.549 282.003 356.976 283.87 356.401 285.741L356.401 285.743C355.826 287.613 355.251 289.488 354.674 291.508L354.672 291.516L354.67 291.524C354.394 292.631 353.979 293.603 353.546 294.614L353.54 294.628C353.117 295.615 352.678 296.64 352.382 297.812C340.367 324.723 318.069 344.768 291.189 355.082L291.166 355.09L291.144 355.101C290.032 355.658 288.774 356.079 287.474 356.514L287.456 356.52C286.187 356.943 284.878 357.38 283.705 357.964C282.851 358.249 282.015 358.528 281.251 358.737C280.47 358.951 279.804 359.08 279.299 359.08H279.235L279.174 359.096C263.731 363.107 247.144 363.681 230.555 360.243L230.553 360.242C171.636 348.208 133.309 289.75 145.894 230.722L145.895 230.718C157.907 171.689 216.256 133.291 275.172 145.898C296.341 150.484 315.219 160.802 330.091 175.701C355.25 200.907 366.692 238.147 359.268 274.244C358.972 275.144 358.825 276.177 358.686 277.155L358.682 277.182C358.537 278.201 358.398 279.16 358.128 279.973Z" stroke="#EAECED"/>
<path d="M299.718 270.858C299.453 271.925 298.922 272.726 298.656 273.526C293.081 286.066 282.726 295.404 270.247 300.207L226.438 256.184L244.493 244.711L261.485 264.722L279.009 250.048L299.718 270.858Z" fill="url(#paint0_linear_64_581)"/>
<path d="M257.502 270.325L245.289 247.913C245.024 247.38 244.227 247.113 243.696 247.38C243.43 247.38 243.43 247.647 243.43 247.647L237.058 255.918C236.793 256.451 235.996 256.718 235.465 256.718H227.235C226.438 256.718 225.642 255.918 225.642 255.117V250.315C225.642 249.514 226.438 248.714 227.235 248.714H231.748C232.279 248.714 232.81 248.447 233.341 247.913L243.696 234.573C244.493 233.506 246.086 233.239 247.148 234.04C247.413 234.306 247.679 234.573 247.679 234.84L259.626 256.985C259.892 257.518 260.688 257.785 261.219 257.518C261.485 257.518 261.485 257.252 261.485 257.252L267.326 249.247C267.592 248.714 268.388 248.447 268.919 248.447H277.415C278.212 248.447 279.008 249.247 279.008 250.048V254.85C279.008 255.651 278.212 256.451 277.415 256.451H272.902C272.371 256.451 271.84 256.718 271.309 257.252L261.485 270.325C260.688 271.392 259.095 271.659 258.033 270.859C257.768 270.859 257.768 270.592 257.502 270.325Z" fill="url(#paint1_linear_64_581)"/>
<defs>
<linearGradient id="paint0_linear_64_581" x1="257.138" y1="257.63" x2="284.546" y2="284.905" gradientUnits="userSpaceOnUse">
<stop stop-color="#E6E6E6"/>
<stop offset="1" stop-color="#E6E6E6" stop-opacity="0"/>
</linearGradient>
<linearGradient id="paint1_linear_64_581" x1="265.122" y1="265.103" x2="241.667" y2="242.458" gradientUnits="userSpaceOnUse">
<stop offset="0.0113208" stop-color="white"/>
<stop offset="1" stop-color="white"/>
</linearGradient>
</defs>
</svg>
