<svg width="35" height="44" viewBox="0 0 35 44" fill="none" xmlns="http://www.w3.org/2000/svg">
<path d="M2.68606 8.74012L1.5 8.99397V10.2069V40V41.855L3.31394 41.4668L32.3139 35.2599L33.5 35.006V33.7931V4V2.14498L31.6861 2.53322L2.68606 8.74012Z" fill="#C28665" stroke="#F5F6F6" stroke-width="3"/>
<path d="M17.6419 24.3696C17.5461 24.3702 17.4511 24.3518 17.3625 24.3156C17.2738 24.2794 17.1932 24.226 17.1251 24.1586L14.214 21.2475C14.077 21.1104 14 20.9246 14 20.7308C14 20.5369 14.077 20.3511 14.214 20.214C14.3511 20.077 14.5369 20 14.7308 20C14.9246 20 15.1104 20.077 15.2475 20.214L17.6419 22.6157L20.0363 20.2213C20.1755 20.1021 20.3546 20.0398 20.5377 20.0469C20.7209 20.0539 20.8947 20.1299 21.0243 20.2595C21.1539 20.3891 21.2298 20.5628 21.2369 20.746C21.244 20.9292 21.1817 21.1083 21.0624 21.2475L18.1513 24.1586C18.0158 24.293 17.8328 24.3688 17.6419 24.3696Z" fill="white"/>
</svg>
