<svg width="35" height="23" viewBox="0 0 35 23" fill="none" xmlns="http://www.w3.org/2000/svg">
<path d="M30.0998 0.339976C30.4098 0.339976 30.7298 0.339976 31.0998 0.389975C31.5469 0.425982 31.9741 0.590266 32.3301 0.863106C32.6861 1.13595 32.9558 1.50574 33.1068 1.9281C33.2578 2.35045 33.2837 2.80741 33.1813 3.24411C33.079 3.68081 32.8528 4.07869 32.5298 4.38997C31.9474 4.90881 31.4894 5.55225 31.1899 6.27246C30.8904 6.99268 30.757 7.77114 30.7998 8.54997C32.376 9.37368 33.6072 10.732 34.2724 12.3814C34.9377 14.0308 34.9935 15.8632 34.4298 17.55C34.0709 18.6079 33.464 19.5645 32.6598 20.34C31.6647 21.3759 30.3944 22.106 28.9984 22.4443C27.6024 22.7827 26.1388 22.7153 24.7798 22.25C23.3076 21.7546 22.0009 20.8621 21.0038 19.671C20.0068 18.4799 19.3583 17.0364 19.1298 15.5C18.6376 12.7382 19.0699 9.89114 20.3598 7.39998L20.3598 7.31998C23.4398 2.47998 26.3798 0.339976 30.0998 0.339976ZM30.4698 2.84998C28.2598 2.73998 25.7698 3.48998 22.5498 8.60998C21.5389 10.5809 21.1884 12.8246 21.5498 15.01C21.6993 16.1128 22.1526 17.1524 22.8589 18.0124C23.5653 18.8725 24.497 19.5191 25.5498 19.88C26.4656 20.2022 27.4553 20.2508 28.3982 20.0199C29.3411 19.7891 30.1965 19.2888 30.8598 18.58C31.3823 18.0673 31.7734 17.4361 31.9998 16.74C32.3984 15.5377 32.3259 14.2291 31.7968 13.0782C31.2678 11.9274 30.3218 11.0203 29.1498 10.54C28.9577 10.4631 28.7877 10.3396 28.6551 10.1808C28.5224 10.022 28.4313 9.83271 28.3898 9.62997C28.1512 8.41597 28.2162 7.16181 28.5791 5.97899C28.942 4.79617 29.5915 3.72131 30.4698 2.84998ZM11.4098 0.339977C11.7298 0.339977 12.0398 0.339977 12.4098 0.389977C12.8569 0.425983 13.2841 0.590267 13.6401 0.863108C13.9961 1.13595 14.2658 1.50574 14.4168 1.9281C14.5678 2.35045 14.5937 2.80741 14.4913 3.24411C14.389 3.68081 14.1628 4.07869 13.8398 4.38998C13.2574 4.90881 12.7994 5.55225 12.4999 6.27246C12.2004 6.99268 12.067 7.77114 12.1098 8.54998C13.6846 9.37522 14.9145 10.7337 15.5795 12.3826C16.2446 14.0314 16.3014 15.8631 15.7398 17.55C15.3865 18.6035 14.7904 19.5592 13.9998 20.34C13.0023 21.3786 11.7285 22.1103 10.3288 22.4487C8.92901 22.7871 7.46167 22.7182 6.09982 22.25C4.62642 21.7566 3.3185 20.8647 2.32118 19.6732C1.32385 18.4817 0.676116 17.0372 0.449825 15.5C-0.0424432 12.7382 0.389888 9.89114 1.67982 7.39998C1.67802 7.37334 1.67802 7.34661 1.67982 7.31998C4.74982 2.47998 7.69982 0.339978 11.4098 0.339977ZM11.7898 2.84998C9.56982 2.73998 7.08982 3.48998 3.85982 8.60998C2.84065 10.5782 2.48964 12.8247 2.85982 15.01C2.85517 15.0431 2.85517 15.0768 2.85982 15.11C3.01561 16.1989 3.47271 17.2226 4.17952 18.0655C4.88634 18.9083 5.81471 19.5368 6.85982 19.88C7.77557 20.2022 8.7653 20.2508 9.70823 20.0199C10.6511 19.7891 11.5065 19.2888 12.1698 18.58C12.6856 18.0673 13.0668 17.4353 13.2798 16.74C13.6784 15.5377 13.6059 14.2291 13.0769 13.0782C12.5478 11.9274 11.6018 11.0203 10.4298 10.54C10.2401 10.461 10.0725 10.3367 9.94179 10.1781C9.81107 10.0195 9.72113 9.83133 9.67982 9.62998C9.44318 8.41351 9.51207 7.15734 9.88032 5.97405C10.2486 4.79076 10.9047 3.71733 11.7898 2.84998Z" fill="#E49E71"/>
</svg>
