<svg width="216" height="155" viewBox="0 0 216 155" fill="none" xmlns="http://www.w3.org/2000/svg">
<g filter="url(#filter0_d_3638_116008)">
<path d="M161.021 16.7773V104.347C161.021 107.515 158.331 110.124 155.063 110.124H27.9579C24.6906 110.124 22 107.515 22 104.347V16.7773C22 13.6091 24.6906 11 27.9579 11H155.063C158.331 11 161.021 13.6091 161.021 16.7773Z" fill="url(#paint0_linear_3638_116008)"/>
</g>
<rect x="29.292" y="57.916" width="125.323" height="24.8281" rx="3" fill="#D5DDEA"/>
<path d="M161.021 16.7773V20.9705H22V16.7773C22 13.6091 24.6906 11 27.9579 11H155.063C158.331 11 161.021 13.6091 161.021 16.7773Z" fill="url(#paint1_linear_3638_116008)"/>
<path d="M28.2457 17.8026C29.2541 17.8026 30.0715 17.01 30.0715 16.0322C30.0715 15.0544 29.2541 14.2617 28.2457 14.2617C27.2374 14.2617 26.4199 15.0544 26.4199 16.0322C26.4199 17.01 27.2374 17.8026 28.2457 17.8026Z" fill="white"/>
<path opacity="0.6" d="M33.9156 17.8026C34.924 17.8026 35.7414 17.01 35.7414 16.0322C35.7414 15.0544 34.924 14.2617 33.9156 14.2617C32.9073 14.2617 32.0898 15.0544 32.0898 16.0322C32.0898 17.01 32.9073 17.8026 33.9156 17.8026Z" fill="white"/>
<path opacity="0.4" d="M39.6813 17.8026C40.6896 17.8026 41.5071 17.01 41.5071 16.0322C41.5071 15.0544 40.6896 14.2617 39.6813 14.2617C38.6729 14.2617 37.8555 15.0544 37.8555 16.0322C37.8555 17.01 38.6729 17.8026 39.6813 17.8026Z" fill="white"/>
<path d="M57.5323 32.6939H37.3129C36.0492 32.6939 34.9961 31.4209 34.9961 30.4026C34.9961 29.1297 36.0492 28.1113 37.3129 28.1113H57.5323C58.796 28.1113 59.8491 29.3843 59.8491 30.4026C59.8491 31.6755 58.796 32.6939 57.5323 32.6939Z" fill="#D5DDEA"/>
<path d="M52.0641 67.1362H37.2581C36.0243 67.1362 34.9961 65.8633 34.9961 64.845C34.9961 63.572 36.0243 62.5537 37.2581 62.5537H52.0641C53.298 62.5537 54.3262 63.8266 54.3262 64.845C54.1205 65.8633 53.0923 67.1362 52.0641 67.1362Z" fill="#989FB0"/>
<path d="M147.217 67.1362H118.836C117.539 67.1362 116.458 65.8633 116.458 64.845C116.458 63.572 117.539 62.5537 118.836 62.5537H147.217C148.514 62.5537 149.595 63.8266 149.595 64.845C149.379 65.8633 148.298 67.1362 147.217 67.1362Z" fill="#989FB0"/>
<g filter="url(#filter1_d_3638_116008)">
<path d="M155.444 66.0174L128.917 108.301C126.41 112.297 129.282 117.489 133.999 117.489L187.053 117.489C191.771 117.489 194.643 112.297 192.136 108.301L165.609 66.0174C163.257 62.2689 157.795 62.2689 155.444 66.0174Z" fill="url(#paint2_linear_3638_116008)"/>
</g>
<path d="M157.987 86.7002C154.973 86.7002 153.255 88.4122 153.255 91.4294C153.255 92.7985 153.241 93.1129 153.144 93.4984C153.046 93.8956 152.874 94.2574 152.183 95.6407C152.017 95.9741 152.017 96.3429 152.183 96.6764C152.874 98.0608 153.045 98.4214 153.144 98.8187C153.241 99.2041 153.255 99.5186 153.255 100.888C153.255 103.905 154.973 105.617 157.987 105.617C158.639 105.617 159.17 105.087 159.17 104.435C159.17 103.782 158.639 103.252 157.987 103.252C156.278 103.252 155.621 102.6 155.621 100.888C155.621 99.3011 155.598 98.8766 155.436 98.2275C155.309 97.718 155.001 97.0854 154.55 96.1585C155.001 95.2316 155.309 94.5991 155.436 94.0895C155.598 93.4404 155.621 93.016 155.621 91.4294C155.621 89.7174 156.278 89.0648 157.987 89.0648C158.639 89.0648 159.17 88.5351 159.17 87.8825C159.17 87.2299 158.639 86.7002 157.987 86.7002ZM162.719 86.7002C162.067 86.7002 161.536 87.2299 161.536 87.8825C161.536 88.5351 162.067 89.0648 162.719 89.0648C164.429 89.0648 165.048 89.7174 165.048 91.4294C165.048 93.016 165.071 93.4404 165.233 94.0895C165.361 94.5991 165.668 95.2316 166.12 96.1585C165.668 97.0854 165.361 97.718 165.233 98.2275C165.071 98.8766 165.048 99.3011 165.048 100.888C165.048 102.6 164.429 103.252 162.719 103.252C162.067 103.252 161.536 103.782 161.536 104.435C161.536 105.087 162.067 105.617 162.719 105.617C165.733 105.617 167.414 103.905 167.414 100.888C167.414 99.5186 167.428 99.2041 167.525 98.8187C167.624 98.4214 167.795 98.0596 168.487 96.6764C168.652 96.3429 168.652 95.9741 168.487 95.6407C167.795 94.2562 167.624 93.8956 167.525 93.4984C167.428 93.1129 167.414 92.7985 167.414 91.4294C167.414 88.4122 165.733 86.7002 162.719 86.7002Z" fill="white"/>
<path d="M107.153 67.1362H63.633C62.3225 67.1362 61.2305 65.8633 61.2305 64.845C61.2305 63.572 62.3225 62.5537 63.633 62.5537H107.153C108.464 62.5537 109.556 63.8266 109.556 64.845C109.337 65.8633 108.245 67.1362 107.153 67.1362Z" fill="#989FB0"/>
<path d="M72.611 77.4468H45.7061C44.3829 77.4468 43.2803 76.1739 43.2803 75.1555C43.2803 73.8826 44.3829 72.8643 45.7061 72.8643H72.611C73.9342 72.8643 75.0368 74.1372 75.0368 75.1555C74.8163 76.4284 73.7136 77.4468 72.611 77.4468Z" fill="#989FB0"/>
<path d="M97.5525 77.4468H82.8968C81.6219 77.4468 80.5596 76.1739 80.5596 75.1555C80.5596 73.8826 81.6219 72.8643 82.8968 72.8643H97.5525C98.8273 72.8643 99.8897 74.1372 99.8897 75.1555C99.6772 76.4284 98.6148 77.4468 97.5525 77.4468Z" fill="#989FB0"/>
<path d="M68.4722 91.2676H37.4187C36.0973 91.2676 34.9961 89.9947 34.9961 88.9763C34.9961 87.7034 36.0973 86.6851 37.4187 86.6851H68.4722C69.7936 86.6851 70.8948 87.958 70.8948 88.9763C70.8948 90.2492 70.0139 91.2676 68.4722 91.2676Z" fill="#D5DDEA"/>
<path d="M90.6549 91.2676H78.7497C77.4779 91.2676 76.418 89.9947 76.418 88.9763C76.418 87.7034 77.4779 86.6851 78.7497 86.6851H90.6549C91.9267 86.6851 92.9866 87.958 92.9866 88.9763C92.9866 90.2492 92.1387 91.2676 90.6549 91.2676Z" fill="#D5DDEA"/>
<path d="M50.5376 101.579H37.4039C36.0906 101.579 34.9961 100.306 34.9961 99.2874C34.9961 98.0144 36.0906 96.9961 37.4039 96.9961H50.5376C51.851 96.9961 52.9455 98.269 52.9455 99.2874C52.9455 100.56 52.0699 101.579 50.5376 101.579Z" fill="#D5DDEA"/>
<path d="M61.8208 101.579H59.2566C58.0731 101.579 57.0869 100.306 57.0869 99.2874C57.0869 98.0144 58.0731 96.9961 59.2566 96.9961H61.8208C63.0043 96.9961 63.9905 98.269 63.9905 99.2874C63.9905 100.56 63.0043 101.579 61.8208 101.579Z" fill="#D5DDEA"/>
<path d="M42.5765 54.4609H37.0807C35.9436 54.4609 34.9961 53.188 34.9961 52.1697C34.9961 50.8968 35.9436 49.8784 37.0807 49.8784H42.5765C43.7136 49.8784 44.6611 51.1513 44.6611 52.1697C44.6611 53.4426 43.7136 54.4609 42.5765 54.4609Z" fill="#D5DDEA"/>
<path d="M90.6016 54.4609H56.7128C55.4115 54.4609 54.3271 53.188 54.3271 52.1697C54.3271 50.8968 55.4115 49.8784 56.7128 49.8784H90.6016C91.9029 49.8784 92.9873 51.1513 92.9873 52.1697C92.9873 53.4426 91.9029 54.4609 90.6016 54.4609Z" fill="#D5DDEA"/>
<path d="M68.4722 43.0044H37.4187C36.0973 43.0044 34.9961 41.7315 34.9961 40.7131C34.9961 39.4402 36.0973 38.4219 37.4187 38.4219H68.4722C69.7936 38.4219 70.8948 39.6948 70.8948 40.7131C70.8948 41.9861 70.0139 43.0044 68.4722 43.0044Z" fill="#D5DDEA"/>
<path d="M109.894 43.0044H78.8406C77.5192 43.0044 76.418 41.7315 76.418 40.7131C76.418 39.4402 77.5192 38.4219 78.8406 38.4219H109.894C111.216 38.4219 112.317 39.6948 112.317 40.7131C112.317 41.9861 111.436 43.0044 109.894 43.0044Z" fill="#D5DDEA"/>
<path d="M132.077 43.0044H120.172C118.9 43.0044 117.84 41.7315 117.84 40.7131C117.84 39.4402 118.9 38.4219 120.172 38.4219H132.077C133.349 38.4219 134.408 39.6948 134.408 40.7131C134.408 41.9861 133.561 43.0044 132.077 43.0044Z" fill="#D5DDEA"/>
<defs>
<filter id="filter0_d_3638_116008" x="0" y="0" width="183.021" height="143.124" filterUnits="userSpaceOnUse" color-interpolation-filters="sRGB">
<feFlood flood-opacity="0" result="BackgroundImageFix"/>
<feColorMatrix in="SourceAlpha" type="matrix" values="0 0 0 0 0 0 0 0 0 0 0 0 0 0 0 0 0 0 127 0" result="hardAlpha"/>
<feOffset dy="11"/>
<feGaussianBlur stdDeviation="11"/>
<feColorMatrix type="matrix" values="0 0 0 0 0.397708 0 0 0 0 0.47749 0 0 0 0 0.575 0 0 0 0.18 0"/>
<feBlend mode="normal" in2="BackgroundImageFix" result="effect1_dropShadow_3638_116008"/>
<feBlend mode="normal" in="SourceGraphic" in2="effect1_dropShadow_3638_116008" result="shape"/>
</filter>
<filter id="filter1_d_3638_116008" x="105.989" y="52.2061" width="109.074" height="98.2832" filterUnits="userSpaceOnUse" color-interpolation-filters="sRGB">
<feFlood flood-opacity="0" result="BackgroundImageFix"/>
<feColorMatrix in="SourceAlpha" type="matrix" values="0 0 0 0 0 0 0 0 0 0 0 0 0 0 0 0 0 0 127 0" result="hardAlpha"/>
<feOffset dy="11"/>
<feGaussianBlur stdDeviation="11"/>
<feColorMatrix type="matrix" values="0 0 0 0 0.397708 0 0 0 0 0.47749 0 0 0 0 0.575 0 0 0 0.27 0"/>
<feBlend mode="normal" in2="BackgroundImageFix" result="effect1_dropShadow_3638_116008"/>
<feBlend mode="normal" in="SourceGraphic" in2="effect1_dropShadow_3638_116008" result="shape"/>
</filter>
<linearGradient id="paint0_linear_3638_116008" x1="91.4653" y1="8.70717" x2="91.4653" y2="111.192" gradientUnits="userSpaceOnUse">
<stop stop-color="white"/>
<stop offset="0.9964" stop-color="white"/>
</linearGradient>
<linearGradient id="paint1_linear_3638_116008" x1="155.507" y1="11" x2="26.5415" y2="17.2607" gradientUnits="userSpaceOnUse">
<stop stop-color="#B0BACC"/>
<stop offset="1" stop-color="#969EAE"/>
</linearGradient>
<linearGradient id="paint2_linear_3638_116008" x1="136.289" y1="130.627" x2="184.763" y2="82.1529" gradientUnits="userSpaceOnUse">
<stop stop-color="#F4BD87"/>
<stop offset="1" stop-color="#B68B62"/>
</linearGradient>
</defs>
</svg>
