<svg width="149" height="136" viewBox="0 0 149 136" fill="none" xmlns="http://www.w3.org/2000/svg">
<path d="M147.021 51.3478L148.605 50.6437C149.132 50.4676 149.132 49.7635 148.605 49.5874L147.021 48.8833C145.086 48.0031 143.503 46.4188 142.624 44.4824L141.92 42.898C141.744 42.3699 141.04 42.3699 140.865 42.898L140.161 44.4824C139.281 46.4188 137.698 48.0031 135.763 48.8833L134.18 49.5874C133.652 49.7635 133.652 50.4676 134.18 50.6437L135.763 51.3478C137.698 52.228 139.281 53.8123 140.161 55.7487L140.865 57.333C141.04 57.8612 141.744 57.8612 141.92 57.333L142.624 55.7487C143.327 53.8123 144.91 52.228 147.021 51.3478Z" fill="#C2C8D6"/>
<path d="M135.49 76.7415L136.545 76.2134C136.897 76.0373 136.897 75.6852 136.545 75.5092L135.49 75.1571C134.083 74.629 133.027 73.5728 132.499 72.1645L131.972 71.1083C131.796 70.7562 131.444 70.7562 131.268 71.1083L130.916 72.1645C130.213 73.5728 129.157 74.629 127.926 75.1571L126.694 75.6852C126.519 75.6852 126.519 76.2134 126.694 76.2134L127.75 76.7415C129.157 77.2696 130.213 78.3258 130.916 79.7341L131.444 80.7903C131.62 81.1424 131.972 81.1424 132.148 80.7903L132.499 79.7341C133.027 78.3258 134.083 77.2696 135.49 76.7415Z" fill="#C2C8D6"/>
<path d="M33.0702 95.6325L34.6534 94.9283C35.1812 94.7523 35.1812 94.0481 34.6534 93.8721L33.0702 93.168C31.1352 92.2878 29.552 90.7034 28.6725 88.767L27.9689 87.1827C27.7929 86.6546 27.0893 86.6546 26.9134 87.1827L26.2098 88.767C25.3302 90.7034 23.747 92.2878 21.812 93.168L20.2288 93.8721C19.7011 94.0481 19.7011 94.7523 20.2288 94.9283L21.812 95.6325C23.747 96.5126 25.3302 98.097 26.2098 100.033L26.9134 101.618C27.0893 102.146 27.7929 102.146 27.9689 101.618L28.6725 100.033C29.3761 98.097 30.9593 96.5126 33.0702 95.6325Z" fill="#C2C8D6"/>
<path d="M33.7077 16.9568L34.7632 16.4287C35.115 16.2527 35.115 15.9006 34.7632 15.7245L33.7077 15.3725C32.3004 14.8444 31.245 13.7881 30.7172 12.3798L30.1895 11.3236C30.0136 10.9716 29.6618 10.9716 29.4859 11.3236L29.134 12.3798C28.4304 13.7881 27.3749 14.8444 26.1436 15.3725L24.9122 15.9006C24.7363 15.9006 24.7363 16.4287 24.9122 16.4287L25.9677 16.9568C27.3749 17.4849 28.4304 18.5411 29.134 19.9494L29.6618 21.0056C29.8377 21.3577 30.1895 21.3577 30.3654 21.0056L30.7172 19.9494C31.245 18.5411 32.3004 17.4849 33.7077 16.9568Z" fill="#C2C8D6"/>
<path d="M47.2529 4.53295L48.1324 4.18087C48.3083 4.00484 48.3083 3.8288 48.1324 3.65276L47.2529 3.30069C46.1974 2.94861 45.4938 2.06843 44.966 1.01221L44.6142 0.132028C44.4383 -0.0440092 44.2624 -0.0440092 44.0865 0.132028L43.7347 1.01221C43.3829 2.06843 42.5033 2.77258 41.4478 3.30069L40.9201 3.65276C40.5683 3.8288 40.5683 4.18087 40.9201 4.18087L41.7997 4.53295C42.8551 4.88502 43.5588 5.7652 44.0865 6.82142L44.4383 7.70161C44.6142 7.87764 44.7901 7.87764 44.966 7.70161L45.3179 6.82142C45.4938 5.7652 46.3733 4.88502 47.2529 4.53295Z" fill="#C2C8D6"/>
<path d="M91.1154 27.9814H65.291V22.8806C65.291 18.1625 69.2412 14.3369 73.956 14.3369H82.4504C87.2926 14.3369 91.1154 18.29 91.1154 22.8806V27.9814Z" fill="url(#paint0_linear_3638_116039)"/>
<path d="M108.978 43.156L102.352 36.015L108.723 30.1492C109.615 29.2565 111.017 29.384 111.781 30.2767L115.476 34.2297C116.368 35.1224 116.241 36.5251 115.349 37.2902L108.978 43.156Z" fill="url(#paint1_linear_3638_116039)"/>
<path d="M46.4111 43.156L53.0373 36.015L46.666 30.1492C45.774 29.2565 44.3723 29.384 43.6078 30.2767L39.9124 34.2297C39.0204 35.1224 39.1478 36.5251 40.0398 37.2902L46.4111 43.156Z" fill="url(#paint2_linear_3638_116039)"/>
<g filter="url(#filter0_d_3638_116039)">
<path d="M77.7576 102.962C99.6444 102.962 117.387 85.378 117.387 63.6867C117.387 41.9954 99.6444 24.4111 77.7576 24.4111C55.8707 24.4111 38.1279 41.9954 38.1279 63.6867C38.1279 85.378 55.8707 102.962 77.7576 102.962Z" fill="#D5DDEA"/>
</g>
<path d="M77.7578 97.0964C96.337 97.0964 111.398 82.1383 111.398 63.6866C111.398 45.2349 96.337 30.2769 77.7578 30.2769C59.1786 30.2769 44.1172 45.2349 44.1172 63.6866C44.1172 82.1383 59.1786 97.0964 77.7578 97.0964Z" fill="white" stroke="#D5DDEA" stroke-width="2" stroke-miterlimit="10"/>
<path opacity="0.2" d="M110.13 63.7509C110.13 64.3656 110.13 64.8574 110.008 65.4721C109.149 48.3838 95.0466 34.9836 77.7554 34.9836C60.4642 34.9836 46.3615 48.5067 45.3804 65.3491C45.3804 64.7344 45.2578 64.2427 45.2578 63.628C45.2578 45.8021 59.8511 31.4185 77.6328 31.4185C95.6598 31.5414 110.13 45.925 110.13 63.7509Z" fill="#989FB0"/>
<path opacity="0.7" d="M104.773 63.6865C104.773 64.7066 104.645 65.5992 104.645 66.4919C104.518 68.5322 102.224 69.6798 100.313 68.7872L86.1683 61.3911C85.1489 60.8811 84.5117 59.8609 84.5117 58.7133V42.0084C84.5117 39.8406 86.678 38.3103 88.7168 39.203C98.1464 43.4111 104.773 52.7199 104.773 63.6865Z" fill="#D5DDEA"/>
<path d="M79.669 62.284H75.9736L76.1011 45.7066C76.1011 44.6865 76.993 43.9214 77.885 43.9214C78.9044 43.9214 79.669 44.814 79.669 45.7066V62.284Z" fill="#989FB0"/>
<path d="M75.3369 64.5791C75.3369 63.3039 76.3563 62.1562 77.758 62.1562C79.1597 62.1562 80.0517 63.1764 80.0517 64.4516C80.0517 65.7268 79.0323 66.8744 77.6306 66.8744C76.3563 66.8744 75.3369 65.9818 75.3369 64.5791Z" fill="#989FB0"/>
<path d="M101.459 76.8208C101.331 76.9483 100.949 76.9483 100.822 76.9483L77.3752 65.2167C77.1203 65.0891 76.9929 64.7066 77.1203 64.4515C77.2477 64.1965 77.63 64.069 77.8849 64.1965L101.331 75.9282C101.586 76.0557 101.714 76.4383 101.586 76.6933C101.714 76.8208 101.586 76.8208 101.459 76.8208Z" fill="#989FB0"/>
<path d="M73.5527 64.5793C73.5527 62.4115 75.3367 60.6262 77.6304 60.4987C79.9241 60.3712 81.5806 62.284 81.5806 64.4518C81.5806 66.6196 79.7966 68.4048 77.503 68.5324C75.3367 68.7874 73.5527 66.8746 73.5527 64.5793Z" fill="white" stroke="#989FB0" stroke-width="2" stroke-miterlimit="10"/>
<path d="M78.7775 87.0225H76.6112C76.229 87.0225 75.8467 87.2775 75.8467 87.7876V93.1433C75.8467 93.5259 76.1015 93.9084 76.6112 93.9084H78.7775C79.1598 93.9084 79.5421 93.6534 79.5421 93.1433V87.7876C79.4146 87.405 79.1598 87.0225 78.7775 87.0225Z" fill="#D5DDEA"/>
<path d="M78.7775 32.8271H76.6112C76.229 32.8271 75.8467 33.0822 75.8467 33.5923V38.948C75.8467 39.3306 76.1015 39.7131 76.6112 39.7131H78.7775C79.1598 39.7131 79.5421 39.4581 79.5421 38.948V33.5923C79.4146 33.2097 79.1598 32.8271 78.7775 32.8271Z" fill="#D5DDEA"/>
<path d="M53.6741 61.2637H48.3222C47.9399 61.2637 47.5576 61.5187 47.5576 62.0288V64.1966C47.5576 64.5791 47.8125 64.9617 48.3222 64.9617H53.6741C54.0564 64.9617 54.4386 64.7067 54.4386 64.1966V62.0288C54.4386 61.5187 54.0564 61.2637 53.6741 61.2637Z" fill="#D5DDEA"/>
<path d="M88.6024 91.7547C89.5224 91.4016 89.9817 90.3691 89.6283 89.4487C89.275 88.5283 88.2428 88.0684 87.3229 88.4216C86.403 88.7747 85.9437 89.8072 86.297 90.7276C86.6503 91.648 87.6825 92.1079 88.6024 91.7547Z" fill="#D5DDEA"/>
<path d="M99.5654 84.5176C100.25 83.8084 100.23 82.6782 99.5216 81.9932C98.8129 81.3082 97.6835 81.3279 96.9991 82.0371C96.3146 82.7464 96.3343 83.8766 97.043 84.5615C97.7516 85.2465 98.881 85.2268 99.5654 84.5176Z" fill="#D5DDEA"/>
<path d="M51.3069 73.553C52.2391 73.234 52.736 72.2192 52.4168 71.2864C52.0976 70.3537 51.0831 69.8562 50.1508 70.1752C49.2186 70.4943 48.7217 71.5091 49.0409 72.4418C49.3601 73.3746 50.3747 73.8721 51.3069 73.553Z" fill="#D5DDEA"/>
<path d="M58.5817 83.9727C59.2917 83.2892 59.3136 82.159 58.6305 81.4484C57.9475 80.7378 56.8181 80.7159 56.108 81.3995C55.3979 82.0831 55.376 83.2132 56.0591 83.9238C56.7422 84.6344 57.8716 84.6563 58.5817 83.9727Z" fill="#D5DDEA"/>
<path d="M69.2666 89.9448C69.6216 89.0251 69.1642 87.9919 68.245 87.637C67.3257 87.2822 66.2927 87.7402 65.9377 88.6599C65.5827 89.5796 66.0401 90.6128 66.9593 90.9677C67.8786 91.3225 68.9116 90.8645 69.2666 89.9448Z" fill="#D5DDEA"/>
<path d="M69.6494 38.4654C70.5847 38.1553 71.0913 37.1452 70.7809 36.2094C70.4706 35.2736 69.4608 34.7664 68.5255 35.0766C67.5902 35.3867 67.0836 36.3968 67.394 37.3326C67.7044 38.2684 68.7142 38.7756 69.6494 38.4654Z" fill="#D5DDEA"/>
<path d="M59.4739 44.457C60.1904 43.7802 60.223 42.6504 59.5467 41.9334C58.8704 41.2164 57.7413 41.1838 57.0249 41.8606C56.3084 42.5373 56.2758 43.6672 56.9521 44.3842C57.6284 45.1012 58.7574 45.1338 59.4739 44.457Z" fill="#D5DDEA"/>
<path d="M52.7589 54.0982C53.0965 53.2473 52.6808 52.2836 51.8305 51.9458C50.9802 51.608 50.0173 52.0239 49.6796 52.8748C49.342 53.7257 49.7577 54.6894 50.608 55.0272C51.4583 55.365 52.4212 54.9491 52.7589 54.0982Z" fill="#D5DDEA"/>
<g filter="url(#filter1_d_3638_116039)">
<path d="M35.2403 112.799C35.1341 112.799 34.9217 112.799 34.8155 112.692C30.461 110.123 19.9465 102.847 16.1231 90.969C13.1493 81.1242 11.8748 73.3126 11.3438 68.3903C11.3438 68.1763 11.45 68.0693 11.45 67.9623C11.5562 67.8552 11.6624 67.7482 11.981 67.6412C14.1051 67.5342 17.9286 65.9291 18.0348 65.9291C19.9465 64.966 22.1768 63.6819 24.4072 62.1838C27.912 59.9367 32.7975 56.9404 35.1341 56.9404C37.3644 56.9404 42.0375 59.9367 45.4361 62.0768C47.8789 63.5749 50.1092 65.073 52.1272 65.9291L52.3396 66.0361C55.4196 67.2132 57.2251 67.6412 58.3934 67.6412C58.4996 67.6412 58.712 67.7482 58.8182 67.8552C58.9244 67.9623 59.0306 68.0693 58.9244 68.3903C58.3934 73.3126 57.1189 81.1242 54.1451 90.969C50.5341 102.847 40.0196 110.016 35.6651 112.585C35.4527 112.692 35.3465 112.799 35.2403 112.799Z" fill="url(#paint3_linear_3638_116039)"/>
</g>
<path d="M57.7561 89.5777C57.4375 90.5408 57.1189 91.3968 56.8002 92.2529C56.694 92.5739 56.5878 92.7879 56.4816 93.002C54.1451 98.6734 51.2775 102.954 47.3478 106.699L30.4609 89.7917L40.5506 80.8031L46.4982 78.2349L57.7561 89.5777Z" fill="url(#paint4_linear_3638_116039)"/>
<path opacity="0.2" d="M33.0099 70.1025C33.0099 70.6375 32.5851 71.1726 31.9478 71.1726C31.4168 71.1726 30.8857 70.7446 30.8857 70.1025C30.8857 69.6745 31.2044 69.2464 31.523 69.1394V60.1508L36.9395 54.6934C37.2582 54.8004 37.4706 54.9074 37.7892 55.0144L32.3726 60.4718V69.1394C32.7975 69.2464 33.0099 69.6745 33.0099 70.1025Z" fill="white"/>
<path opacity="0.2" d="M29.7169 94.7141C29.7169 95.2492 29.2921 95.7842 28.6549 95.7842C28.4425 95.7842 28.3363 95.7842 28.1238 95.6772L28.23 95.7842L23.1321 100.921V107.127C22.8135 106.913 22.6011 106.592 22.3887 106.378V100.6L27.699 95.2492C27.699 95.0351 27.699 94.8211 27.699 94.7141C27.699 94.1791 28.1238 93.644 28.7611 93.644C29.2921 93.644 29.7169 94.0721 29.7169 94.7141Z" fill="white"/>
<path opacity="0.2" d="M33.5408 98.1385C33.5408 98.6736 33.116 99.2086 32.4788 99.2086C32.3726 99.2086 32.3726 99.2086 32.2664 99.2086V99.3156L28.5491 103.061V111.622C28.3367 111.408 28.0181 111.193 27.8057 110.979V102.633L31.7353 98.6736V98.5665C31.6291 98.3525 31.5229 98.2455 31.5229 98.0315C31.5229 97.4965 31.9477 96.9614 32.585 96.9614C33.116 97.0684 33.5408 97.6035 33.5408 98.1385Z" fill="white"/>
<path opacity="0.2" d="M26.6368 104.666C26.6368 105.094 26.3182 105.522 25.9996 105.629V109.588C25.7872 109.374 25.4686 109.16 25.2561 108.946V105.629C24.8313 105.415 24.5127 105.094 24.5127 104.666C24.5127 104.131 24.9375 103.596 25.5748 103.596C26.212 103.596 26.6368 104.024 26.6368 104.666Z" fill="white"/>
<path opacity="0.2" d="M41.2935 112.049C40.7625 112.477 40.2315 112.799 39.8066 113.12C39.8066 113.013 39.8066 113.013 39.8066 112.906C39.8066 112.37 40.2315 111.835 40.8687 111.835C40.9749 111.942 41.1873 111.942 41.2935 112.049Z" fill="white"/>
<path opacity="0.2" d="M9.00684 66.8923C9.21925 66.4643 9.43166 66.1433 9.75028 65.8223V76.202C9.43166 74.3829 9.21925 72.6708 9.00684 71.2797V66.8923Z" fill="white"/>
<path opacity="0.2" d="M14.7416 90.541C14.7416 91.076 14.3167 91.6111 13.6795 91.6111C13.5733 91.6111 13.5733 91.6111 13.4671 91.6111C13.2547 90.755 12.936 89.899 12.7236 89.1499L13.2547 89.6849C13.3609 89.5779 13.5733 89.5779 13.6795 89.5779C14.2105 89.4709 14.7416 89.899 14.7416 90.541Z" fill="white"/>
<path opacity="0.2" d="M15.9103 82.7292C15.9103 83.2642 15.4854 83.7993 14.8482 83.7993C14.3172 83.7993 13.7861 83.3712 13.7861 82.7292C13.7861 82.3011 14.1048 81.8731 14.5296 81.7661C14.5296 81.3381 14.5296 80.803 14.5296 80.375C14.6358 78.6629 14.6358 76.8437 14.6358 75.1316V64.4308C14.9544 64.3238 15.1668 64.2168 15.3792 64.2168V75.1316C15.3792 76.9507 15.273 78.6629 15.273 80.482C15.273 80.91 15.273 81.4451 15.1668 81.8731C15.6979 81.9801 15.9103 82.3011 15.9103 82.7292Z" fill="white"/>
<path opacity="0.2" d="M22.6009 60.2578V92.8952L22.1761 92.7882C21.8575 92.6812 21.4326 92.8952 21.2202 93.2163V93.3233L17.3968 97.1756V99.7437C17.0781 99.3157 16.8657 98.8877 16.6533 98.4596V96.8545L20.6892 92.7882C21.0078 92.3602 21.4326 92.0392 21.9637 92.0392V60.6858C22.0699 60.5788 22.3885 60.3648 22.6009 60.2578Z" fill="white"/>
<path opacity="0.2" d="M45.2231 93.6439C45.2231 93.8579 45.3293 93.9649 45.3293 94.1789L43.4176 96.1051C43.3114 95.9981 43.0989 95.9981 42.9927 95.9981C42.4617 95.9981 41.9307 96.4261 41.9307 97.0681C41.9307 97.7102 42.3555 98.1382 42.9927 98.1382C43.63 98.1382 44.0548 97.7102 44.0548 97.0681C44.0548 96.9611 44.0548 96.7471 43.9486 96.6401L45.9665 94.607C46.0727 94.607 46.1789 94.607 46.2851 94.607C46.8162 94.607 47.3472 94.1789 47.3472 93.5369C47.3472 93.0018 46.9224 92.4668 46.2851 92.4668C45.7541 92.5738 45.2231 93.1088 45.2231 93.6439Z" fill="white"/>
<path opacity="0.2" d="M55.9501 93.4302C55.8439 93.7512 55.7377 93.9652 55.6315 94.1793H50.5336C50.4273 94.6073 50.0025 94.8213 49.5777 94.8213C49.0467 94.8213 48.5156 94.3933 48.5156 93.7512C48.5156 93.2162 48.9405 92.6812 49.5777 92.6812C50.0025 92.6812 50.4273 93.0022 50.5336 93.3232H55.9501V93.4302Z" fill="white"/>
<path opacity="0.2" d="M57.4367 88.7218C57.3305 88.9358 57.3305 89.2568 57.2243 89.4708H50.1084L50.0022 89.3638C49.7898 89.1498 48.9402 88.2937 48.1967 87.5447C47.2408 86.5816 46.7098 86.0466 46.3912 85.7255C46.285 85.7255 46.0726 85.8325 45.9664 85.8325C45.4353 85.8325 44.9043 85.4045 44.9043 84.7625C44.9043 84.2274 45.3291 83.6924 45.9664 83.6924C46.4974 83.6924 47.0284 84.1204 47.0284 84.7625C47.0284 84.8695 47.0284 85.0835 46.9222 85.1905C47.1346 85.4045 47.9843 86.2606 48.7277 87.0096C49.5774 87.8657 50.2146 88.5077 50.4271 88.8288H57.4367V88.7218Z" fill="white"/>
<path opacity="0.2" d="M44.2676 77.9138C44.2676 78.4489 44.6924 78.9839 45.3296 78.9839C45.4359 78.9839 45.6483 78.9839 45.7545 78.8769L49.2593 82.4082L50.109 83.1572C50.0027 83.3712 50.0027 83.4782 50.0027 83.6923C50.0027 84.2273 50.4276 84.7623 51.0648 84.7623C51.7021 84.7623 52.1269 84.3343 52.1269 83.6923C52.1269 83.0502 51.7021 82.6222 51.0648 82.6222C50.9586 82.6222 50.9586 82.6222 50.8524 82.6222L49.7903 81.8731L46.2855 78.3419C46.2855 78.2349 46.3917 78.1278 46.3917 77.9138C46.3917 77.3788 45.9669 76.8438 45.3296 76.8438C44.6924 76.8437 44.2676 77.2718 44.2676 77.9138Z" fill="white"/>
<path opacity="0.2" d="M50.7461 77.9139C50.7461 78.4489 51.1709 78.984 51.8082 78.984C51.9144 78.984 52.0206 78.984 52.1268 78.877L56.2689 83.0503C56.1626 83.2643 56.0564 83.3713 56.0564 83.6923C56.0564 84.2274 56.4813 84.7624 57.1185 84.7624C57.7557 84.7624 58.1806 84.3344 58.1806 83.6923C58.1806 83.0503 57.7557 82.6223 57.1185 82.6223C57.0123 82.6223 57.0123 82.6223 56.9061 82.6223L52.6578 78.3419C52.764 78.2349 52.764 78.0209 52.764 77.8069C52.764 77.2719 52.3392 76.7368 51.702 76.7368C51.2771 76.8438 50.7461 77.2719 50.7461 77.9139Z" fill="white"/>
<path opacity="0.2" d="M60.9422 73.2057C60.9422 73.4197 60.836 73.7407 60.836 73.9547H48.516C48.3036 74.2758 47.9849 74.4898 47.5601 74.4898C47.0291 74.4898 46.498 74.0617 46.498 73.4197C46.498 72.7776 46.9229 72.3496 47.5601 72.3496C47.9849 72.3496 48.4098 72.6706 48.516 73.0987H60.9422V73.2057Z" fill="white"/>
<path opacity="0.2" d="M59.6679 79.84C59.5617 80.1611 59.5617 80.4821 59.4555 80.8031L57.5438 78.877C57.4376 78.877 57.3314 78.877 57.2252 78.877C56.6941 78.877 56.1631 78.4489 56.1631 77.8069C56.1631 77.2719 56.5879 76.7368 57.2252 76.7368C57.7562 76.7368 58.2872 77.1648 58.2872 77.8069C58.2872 78.0209 58.2872 78.1279 58.181 78.3419L59.6679 79.84Z" fill="white"/>
<path opacity="0.2" d="M54.57 96.8545C54.4637 97.1755 54.2513 97.3895 54.1451 97.6035H48.0913L45.33 100.386L45.1175 100.172C45.2237 100.279 45.2237 100.493 45.2237 100.707C45.2237 101.242 44.7989 101.777 44.1617 101.777C43.6306 101.777 43.0996 101.349 43.0996 100.707C43.0996 100.065 43.5244 99.6367 44.1617 99.6367C44.3741 99.6367 44.5865 99.7437 44.6927 99.8507L47.6665 96.8545H54.57Z" fill="white"/>
<path opacity="0.2" d="M53.189 99.4224C53.0828 99.7435 52.8704 99.9575 52.6579 100.171H48.6221L45.8607 102.954C45.9669 103.061 45.9669 103.275 45.9669 103.382C45.9669 103.917 45.5421 104.452 44.9048 104.452C44.3738 104.452 43.8428 104.024 43.8428 103.382C43.8428 102.847 44.2676 102.312 44.9048 102.312C45.011 102.312 45.1173 102.312 45.2235 102.419L48.3035 99.3154H53.189V99.4224Z" fill="white"/>
<path opacity="0.2" d="M42.0371 106.699C42.0371 106.164 41.6122 105.629 40.975 105.629C40.3378 105.629 39.9129 106.057 39.9129 106.699C39.9129 106.806 39.9129 106.913 39.9129 106.913L35.2398 111.621C35.1336 111.514 34.9212 111.514 34.815 111.514C34.284 111.514 33.7529 111.942 33.7529 112.584C33.7529 113.119 34.1778 113.654 34.815 113.654C35.346 113.654 35.8771 113.226 35.8771 112.584C35.8771 112.477 35.8771 112.37 35.7709 112.263L40.444 107.555C40.5502 107.662 40.7626 107.662 40.975 107.662C41.6122 107.769 42.0371 107.341 42.0371 106.699Z" fill="white"/>
<path opacity="0.2" d="M41.8249 101.242C41.8249 100.707 41.4001 100.172 40.7628 100.172C40.1256 100.172 39.7008 100.6 39.7008 101.242C39.7008 101.349 39.7008 101.456 39.807 101.563L35.3463 106.057C35.2401 105.95 35.0277 105.95 34.9214 105.95C34.3904 105.95 33.8594 106.378 33.8594 107.02C33.8594 107.555 34.2842 108.09 34.9214 108.09C35.4525 108.09 35.9835 107.662 35.9835 107.02C35.9835 106.913 35.9835 106.806 35.8773 106.699L40.338 102.205C40.4442 102.312 40.6566 102.312 40.7628 102.312C41.4001 102.312 41.8249 101.884 41.8249 101.242Z" fill="white"/>
<path opacity="0.2" d="M35.5588 100.279C35.5588 100.814 35.134 101.349 34.4968 101.349C34.2844 101.349 34.1782 101.349 34.0719 101.242C34.0719 101.349 33.9657 101.349 33.9657 101.456C33.8595 101.563 33.7533 101.777 33.6471 101.884V101.991L31.6292 104.024V113.869C31.4168 113.655 31.0982 113.548 30.8857 113.334V103.703L33.1161 101.456C33.2223 101.349 33.3285 101.242 33.3285 101.028C33.4347 100.921 33.5409 100.814 33.6471 100.6C33.6471 100.493 33.5409 100.386 33.5409 100.279C33.5409 99.7435 33.9657 99.2085 34.603 99.2085C35.2402 99.2085 35.5588 99.7435 35.5588 100.279Z" fill="white"/>
<path opacity="0.2" d="M31.7355 96.4265C31.7355 95.8915 31.3106 95.3564 30.6734 95.3564C30.1424 95.3564 29.6113 95.7845 29.6113 96.4265C29.6113 96.6405 29.7175 96.8546 29.8238 96.9616L26.4251 100.386C26.3189 100.279 26.1065 100.279 25.8941 100.279C25.3631 100.279 24.832 100.707 24.832 101.349C24.832 101.884 25.2569 102.419 25.8941 102.419C26.5313 102.419 26.9562 101.991 26.9562 101.349C26.9562 101.135 26.9562 101.028 26.85 100.921L26.9562 101.028L30.2486 97.7106L30.1424 97.3896C30.2486 97.4966 30.461 97.4966 30.6734 97.4966C31.2044 97.4966 31.7355 96.9616 31.7355 96.4265Z" fill="white"/>
<path opacity="0.2" d="M33.8594 95.5702C33.8594 96.1053 34.2842 96.6403 34.9214 96.6403C35.4525 96.6403 35.9835 96.2123 35.9835 95.5702C35.9835 95.3562 35.8773 95.2492 35.8773 95.0352L39.0635 91.825C39.1697 91.7179 39.1697 91.7179 39.2759 91.6109L39.3821 91.5039C39.4883 91.5039 39.5945 91.5039 39.7008 91.5039C40.2318 91.5039 40.7628 91.0759 40.7628 90.4338C40.7628 89.8988 40.338 89.3638 39.7008 89.3638C39.0635 89.3638 38.6387 89.7918 38.6387 90.4338C38.6387 90.6479 38.6387 90.7549 38.7449 90.9689L38.6387 91.0759C38.6387 91.1829 38.5325 91.1829 38.5325 91.2899L35.2401 94.6072C35.1339 94.6072 35.0276 94.6072 34.9214 94.6072C34.3904 94.6072 33.8594 95.0352 33.8594 95.5702Z" fill="white"/>
<path opacity="0.2" d="M29.505 79.0911C29.505 78.556 29.0802 78.021 28.4429 78.021C27.8057 78.021 27.3809 78.449 27.3809 79.0911C27.3809 79.5191 27.6995 79.9471 28.0181 80.0541C28.0181 82.9434 27.9119 87.8657 27.9119 88.2938L27.8057 89.3638L31.0981 86.0466C31.2043 86.1536 31.4167 86.1536 31.6291 86.1536C32.1602 86.1536 32.6912 85.7256 32.6912 85.0835C32.6912 84.4415 32.2664 84.0134 31.6291 84.0134C30.9919 84.0134 30.5671 84.4415 30.5671 85.0835C30.5671 85.1905 30.5671 85.1905 30.5671 85.2975C30.5671 85.4045 30.4609 85.4045 30.4609 85.5116L28.7615 87.3307C28.7615 85.4045 28.8678 81.3382 28.8678 80.0541C29.1864 79.9471 29.505 79.6261 29.505 79.0911Z" fill="white"/>
<path opacity="0.2" d="M29.505 58.2244C29.505 57.6893 29.0802 57.1543 28.4429 57.1543C27.8057 57.1543 27.3809 57.5823 27.3809 58.2244C27.3809 58.6524 27.5933 58.9734 28.0181 59.1874V71.8144C28.0181 72.2424 28.0181 72.6705 28.0181 72.9915C28.0181 73.0985 28.0181 73.2055 28.0181 73.2055C27.5933 73.3125 27.3809 73.7405 27.3809 74.1686C27.3809 74.7036 27.8057 75.2386 28.4429 75.2386C29.0802 75.2386 29.505 74.8106 29.505 74.1686C29.505 73.7405 29.1864 73.3125 28.8678 73.2055C28.8678 73.0985 28.8678 72.9915 28.8678 72.8845C28.8678 72.4564 28.8678 72.1354 28.8678 71.7074V59.1874C29.1864 59.0804 29.505 58.7594 29.505 58.2244Z" fill="white"/>
<path opacity="0.2" d="M34.2842 62.3977C34.2842 62.8257 34.6028 63.2538 35.0276 63.3608V66.357C34.6028 66.464 34.2842 66.8921 34.2842 67.3201C34.2842 67.8551 34.709 68.3902 35.3462 68.3902C35.9835 68.3902 36.4083 67.9621 36.4083 67.3201C36.4083 66.8921 36.1959 66.571 35.7711 66.357V63.3608C36.0897 63.1468 36.4083 62.8257 36.4083 62.3977C36.4083 61.8627 35.9835 61.3276 35.3462 61.3276C34.709 61.3276 34.2842 61.8627 34.2842 62.3977Z" fill="white"/>
<path opacity="0.2" d="M25.4693 58.4385V94.3931H24.9383L20.3714 98.9945V99.1015C20.3714 99.3155 20.3714 99.6365 20.3714 99.8505V103.81C20.0528 103.489 19.8403 103.168 19.6279 102.847V99.8505C19.6279 99.6365 19.6279 99.3155 19.6279 99.1015C19.6279 98.8875 19.6279 98.5665 19.6279 98.3524V97.2824L20.2652 98.1384L24.6196 93.7511H24.7259V58.9735C24.9383 58.7595 25.1507 58.6525 25.4693 58.4385Z" fill="white"/>
<path opacity="0.2" d="M13.255 83.4784C13.255 84.0135 12.8302 84.5485 12.1929 84.5485C11.8743 84.5485 11.6619 84.4415 11.4495 84.2275C11.2371 84.0135 11.1309 83.7994 11.1309 83.4784C11.1309 83.3714 11.1309 83.1574 11.2371 83.0504C11.3433 82.7294 11.5557 82.5153 11.8743 82.4083V65.2871C11.6619 65.2871 11.5557 65.0731 11.4495 64.966C11.5557 64.966 11.7681 64.966 11.8743 64.859C12.1929 64.859 12.6178 64.752 13.1488 64.645C13.0426 64.859 12.8302 65.0731 12.6178 65.1801V82.4083C12.9364 82.7294 13.255 83.0504 13.255 83.4784Z" fill="white"/>
<path opacity="0.2" d="M19.4153 90.5406L16.3353 93.6439C16.3353 93.7509 16.3353 93.7509 16.3353 93.8579C16.3353 94.3929 15.9105 94.928 15.2732 94.928C15.0608 94.928 14.8484 94.8209 14.7422 94.7139C14.4236 94.4999 14.3174 94.1789 14.3174 93.8579C14.3174 93.7509 14.3174 93.7509 14.3174 93.6439C14.4236 93.1088 14.8484 92.7878 15.3795 92.7878C15.5919 92.7878 15.8043 92.8948 15.9105 93.0018L18.6719 90.2196V62.7186C18.8843 62.6116 19.2029 62.3975 19.4153 62.2905V90.5406Z" fill="white"/>
<path opacity="0.2" d="M47.5601 60.3643H39.3822C39.276 60.7924 38.8512 61.0064 38.4263 61.0064C37.8953 61.0064 37.3643 60.5783 37.3643 59.9363C37.3643 59.2942 37.7891 58.8662 38.4263 58.8662C38.8512 58.8662 39.276 59.1872 39.3822 59.5083H46.2856C46.7105 59.8293 47.1353 60.0433 47.5601 60.3643Z" fill="white"/>
<path opacity="0.2" d="M53.7199 63.6816H39.2757C39.1695 64.1097 38.7447 64.4307 38.3199 64.4307C37.7888 64.4307 37.2578 64.0027 37.2578 63.3606C37.2578 62.8256 37.6826 62.2905 38.3199 62.2905C38.7447 62.2905 39.0633 62.5045 39.2757 62.8256H52.1268C52.5516 63.0396 52.9764 63.2536 53.295 63.4676C53.295 63.5746 53.5075 63.6816 53.7199 63.6816Z" fill="white"/>
<path opacity="0.2" d="M40.3375 65.1802C39.8064 65.1802 39.2754 65.6082 39.2754 66.2503C39.2754 66.8923 39.7002 67.3203 40.3375 67.3203C40.7623 67.3203 41.0809 67.1063 41.2933 66.7853H58.1802C58.2864 67.2133 58.7112 67.4273 59.1361 67.4273C59.6671 67.4273 60.1981 66.9993 60.1981 66.3573C60.1981 65.7152 59.7733 65.2872 59.1361 65.2872C58.7112 65.2872 58.2864 65.6082 58.1802 65.9292H41.3995C41.2933 65.5012 40.8685 65.1802 40.3375 65.1802Z" fill="white"/>
<path opacity="0.2" d="M61.4733 68.9253C61.4733 69.1393 61.4732 69.4604 61.367 69.6744H38.5326C38.3202 69.9954 38.0015 70.3164 37.5767 70.3164C37.0457 70.3164 36.5146 69.8884 36.5146 69.2463C36.5146 68.7113 36.9395 68.1763 37.5767 68.1763C38.0015 68.1763 38.4264 68.4973 38.5326 68.9253H61.4733Z" fill="white"/>
<path opacity="0.2" d="M43.0992 57.4753C42.8868 57.7963 42.5682 58.0103 42.2496 58.0103C41.7185 58.0103 41.1875 57.5823 41.1875 56.9402C41.1875 56.8332 41.1875 56.6192 41.2937 56.5122C41.8247 56.8332 42.462 57.1543 43.0992 57.4753Z" fill="white"/>
<path opacity="0.2" d="M38.957 73.3128C38.957 73.7408 39.2757 74.1688 39.7005 74.2758V85.9397C39.2757 86.0467 38.957 86.4747 38.957 86.9028C38.957 87.4378 39.3819 87.9728 40.0191 87.9728C40.5501 87.9728 41.0812 87.5448 41.0812 86.9028C41.0812 86.4747 40.8688 86.1537 40.4439 85.9397V74.3828V74.2758C40.7625 74.0618 40.975 73.7408 40.975 73.3128C40.975 72.7777 40.5501 72.2427 39.9129 72.2427C39.3819 72.2427 38.957 72.7777 38.957 73.3128Z" fill="white"/>
<path opacity="0.2" d="M41.7181 73.3128C41.7181 73.7408 42.0367 74.1688 42.3553 74.2758V91.0761L37.2574 96.2125L37.3636 96.3195C37.2574 96.2125 37.045 96.2125 36.8326 96.2125C36.3015 96.2125 35.7705 96.6405 35.7705 97.2825C35.7705 97.9246 36.1953 98.3526 36.8326 98.3526C37.3636 98.3526 37.8946 97.9246 37.8946 97.2825C37.8946 97.0685 37.8946 96.9615 37.7884 96.7475L43.0988 91.3971V74.2758C43.5236 74.1688 43.736 73.7408 43.736 73.3128C43.736 72.7777 43.3112 72.2427 42.674 72.2427C42.0367 72.2427 41.7181 72.7777 41.7181 73.3128Z" fill="white"/>
<path opacity="0.2" d="M36.1955 73.3127C36.1955 73.7407 36.408 74.0617 36.7266 74.2758V89.1499L34.6024 91.29C34.39 91.504 34.1776 91.7181 33.859 92.0391C33.6466 92.2531 33.5404 92.3601 33.328 92.5741C33.2217 92.5741 33.1155 92.4671 33.0093 92.4671C32.4783 92.4671 31.9473 92.8951 31.9473 93.5372C31.9473 94.1792 32.3721 94.6073 33.0093 94.6073C33.5404 94.6073 34.0714 94.1792 34.0714 93.5372C34.0714 93.3232 34.0714 93.2162 33.9652 93.1092C34.0714 93.0021 34.2838 92.7881 34.39 92.6811C34.6024 92.4671 34.8148 92.2531 35.1335 91.9321L37.47 89.5779V74.3828C37.8948 74.2758 38.2135 73.8477 38.2135 73.4197C38.2135 72.8846 37.7886 72.3496 37.1514 72.3496C36.5142 72.3496 36.1955 72.7776 36.1955 73.3127Z" fill="white"/>
<path opacity="0.2" d="M33.434 73.3128C33.434 73.7408 33.7526 74.1688 34.0713 74.2758V88.2939L31.6285 90.7551C31.5223 90.648 31.3099 90.648 31.2037 90.648C30.6726 90.648 30.1416 91.0761 30.1416 91.7181C30.1416 92.3602 30.5664 92.7882 31.2037 92.7882C31.7347 92.7882 32.2657 92.3602 32.2657 91.7181C32.2657 91.6111 32.2657 91.5041 32.1595 91.3971L34.9209 88.6149V74.2758C35.3457 74.1688 35.5582 73.7408 35.5582 73.3128C35.5582 72.7777 35.1333 72.2427 34.4961 72.2427C33.8588 72.2427 33.434 72.7777 33.434 73.3128Z" fill="white"/>
<path opacity="0.2" d="M50.7462 102.954C50.5338 103.275 50.2152 103.596 50.0027 103.917L49.0469 102.954H50.7462Z" fill="white"/>
<path opacity="0.2" d="M47.3478 106.806C47.0292 107.02 46.8168 107.341 46.6044 107.555H45.8609C45.6485 107.876 45.3299 108.09 45.0113 108.09C44.4803 108.09 43.9492 107.662 43.9492 107.02C43.9492 106.485 44.374 105.95 45.0113 105.95C45.5423 105.95 45.8609 106.271 45.9671 106.699H47.3478V106.806Z" fill="white"/>
<path d="M60.9422 65.8221C60.3049 65.0731 59.3491 64.6451 58.287 64.6451C55.1008 64.6451 50.8525 61.9699 46.7105 59.4017C44.9049 58.3316 43.0994 57.1545 41.4001 56.1914C38.5325 54.5863 36.727 54.0513 35.0277 54.0513C32.1601 54.0513 29.5049 55.6564 24.3008 58.8666C22.7077 59.9367 20.796 61.0068 18.5656 62.3979C15.9105 63.896 13.7863 64.324 12.1932 64.6451C8.26358 65.5011 7.62634 65.9292 9.53807 76.2019C10.3877 81.0173 12.6181 90.22 13.9988 93.6442C14.105 93.9652 14.3174 94.3933 14.4236 94.7143C17.5036 102.312 24.6194 109.909 33.3284 115.046C33.9656 115.367 34.4967 115.581 35.1339 115.581C36.5146 115.581 38.1077 114.725 41.5063 112.157C42.6746 111.301 43.6305 110.551 44.4801 109.802C45.3298 109.053 46.1794 108.304 46.9229 107.555C50.8525 103.81 53.6139 99.6367 55.8442 94.1793C55.9504 93.9652 56.0567 93.6442 56.1629 93.4302C56.4815 92.5741 56.8001 91.7181 57.1187 90.862C57.3311 90.22 57.5436 89.5779 57.756 88.9359C59.4553 83.5855 60.7298 77.165 61.6856 69.4604C61.7918 69.0324 61.7918 68.4973 61.7918 68.4973C61.898 67.6413 61.5794 66.6782 60.9422 65.8221ZM42.1436 107.555C39.4884 109.802 37.0456 111.408 35.4525 112.371C35.3463 112.371 35.3463 112.371 35.2401 112.371C35.1339 112.371 35.0277 112.371 34.9215 112.264C30.567 109.695 20.1587 102.526 16.3353 90.755C13.3615 80.9103 12.087 73.0987 11.556 68.2833C11.556 68.1763 11.556 68.1763 11.556 68.0693C11.6622 67.9623 11.7684 67.9623 11.8746 67.9623C16.0167 67.8553 21.1146 64.6451 25.6815 61.7558C29.3987 59.4017 32.9036 57.2615 35.0277 57.2615C37.0456 57.2615 40.5505 59.4017 44.1615 61.7558C48.9408 64.6451 54.2511 67.9623 58.287 67.9623C58.3932 67.9623 58.3932 67.9623 58.3932 68.0693C58.3932 68.1763 58.4994 68.2833 58.4994 68.3903C58.0746 72.3496 57.1187 78.7701 54.8884 86.9027C54.7822 87.4378 54.5698 87.8658 54.4635 88.4008C54.2511 89.2569 54.0387 90.1129 53.7201 90.969C51.8084 97.1755 48.0911 101.991 44.4801 105.415C43.7367 106.164 42.887 106.913 42.1436 107.555Z" fill="url(#paint5_linear_3638_116039)"/>
<path d="M33.7537 91.8253C33.0102 91.8253 32.373 91.5043 31.8419 90.9692L26.3192 85.4048C25.7881 84.8698 25.7881 84.1207 26.3192 83.5857L28.4433 81.4455C28.9743 80.9105 29.7178 80.9105 30.2488 81.4455L33.0102 84.2277C33.5412 84.7628 34.2847 84.7628 34.8157 84.2277L42.8874 76.0951C43.4185 75.5601 44.1619 75.5601 44.693 76.0951L46.8171 78.2353C47.3481 78.7703 47.3481 79.5194 46.8171 80.0544L35.6654 90.9692C35.1343 91.5043 34.4971 91.8253 33.7537 91.8253Z" fill="url(#paint6_linear_3638_116039)"/>
<defs>
<filter id="filter0_d_3638_116039" x="16.1279" y="13.4111" width="123.259" height="122.551" filterUnits="userSpaceOnUse" color-interpolation-filters="sRGB">
<feFlood flood-opacity="0" result="BackgroundImageFix"/>
<feColorMatrix in="SourceAlpha" type="matrix" values="0 0 0 0 0 0 0 0 0 0 0 0 0 0 0 0 0 0 127 0" result="hardAlpha"/>
<feOffset dy="11"/>
<feGaussianBlur stdDeviation="11"/>
<feColorMatrix type="matrix" values="0 0 0 0 0.397708 0 0 0 0 0.47749 0 0 0 0 0.575 0 0 0 0.27 0"/>
<feBlend mode="normal" in2="BackgroundImageFix" result="effect1_dropShadow_3638_116039"/>
<feBlend mode="normal" in="SourceGraphic" in2="effect1_dropShadow_3638_116039" result="shape"/>
</filter>
<filter id="filter1_d_3638_116039" x="0.34375" y="54.9404" width="69.625" height="77.8584" filterUnits="userSpaceOnUse" color-interpolation-filters="sRGB">
<feFlood flood-opacity="0" result="BackgroundImageFix"/>
<feColorMatrix in="SourceAlpha" type="matrix" values="0 0 0 0 0 0 0 0 0 0 0 0 0 0 0 0 0 0 127 0" result="hardAlpha"/>
<feOffset dy="9"/>
<feGaussianBlur stdDeviation="5.5"/>
<feColorMatrix type="matrix" values="0 0 0 0 0.0901961 0 0 0 0 0.380392 0 0 0 0 0.658824 0 0 0 0.41 0"/>
<feBlend mode="normal" in2="BackgroundImageFix" result="effect1_dropShadow_3638_116039"/>
<feBlend mode="normal" in="SourceGraphic" in2="effect1_dropShadow_3638_116039" result="shape"/>
</filter>
<linearGradient id="paint0_linear_3638_116039" x1="90.091" y1="14.3369" x2="66.0792" y2="14.4952" gradientUnits="userSpaceOnUse">
<stop stop-color="#B0BACC"/>
<stop offset="1" stop-color="#969EAE"/>
</linearGradient>
<linearGradient id="paint1_linear_3638_116039" x1="115.54" y1="29.5401" x2="102.77" y2="29.5849" gradientUnits="userSpaceOnUse">
<stop stop-color="#B0BACC"/>
<stop offset="1" stop-color="#969EAE"/>
</linearGradient>
<linearGradient id="paint2_linear_3638_116039" x1="52.4925" y1="29.5401" x2="39.7225" y2="29.5849" gradientUnits="userSpaceOnUse">
<stop stop-color="#B0BACC"/>
<stop offset="1" stop-color="#969EAE"/>
</linearGradient>
<linearGradient id="paint3_linear_3638_116039" x1="32.6404" y1="73.9422" x2="48.3228" y2="95.7466" gradientUnits="userSpaceOnUse">
<stop stop-color="#EAB681"/>
<stop offset="1" stop-color="#EBDDCF"/>
</linearGradient>
<linearGradient id="paint4_linear_3638_116039" x1="39.3818" y1="87.1825" x2="52.8207" y2="100.621" gradientUnits="userSpaceOnUse">
<stop stop-color="#E1A970"/>
<stop offset="1" stop-color="#E1A970" stop-opacity="0"/>
</linearGradient>
<linearGradient id="paint5_linear_3638_116039" x1="49.6791" y1="106.537" x2="27.0646" y2="57.7116" gradientUnits="userSpaceOnUse">
<stop offset="0.00570563" stop-color="#DED0C2"/>
<stop offset="0.2843" stop-color="#EFDBC8"/>
<stop offset="0.6778" stop-color="#EAB681"/>
<stop offset="1" stop-color="#E1A86E"/>
</linearGradient>
<linearGradient id="paint6_linear_3638_116039" x1="40.4159" y1="86.149" x2="33.1256" y2="78.9674" gradientUnits="userSpaceOnUse">
<stop offset="0.0113208" stop-color="#E7BF98"/>
<stop offset="1" stop-color="white"/>
</linearGradient>
</defs>
</svg>
