<svg width="130" height="111" viewBox="0 0 130 111" fill="none" xmlns="http://www.w3.org/2000/svg">
<path fill-rule="evenodd" clip-rule="evenodd" d="M0 110.696C0.649744 110.701 1.3112 110.703 1.98438 110.703C6.35938 110.703 10.2135 110.599 13.5469 110.391C16.9323 110.234 19.849 109.87 22.2969 109.297C24.7969 108.672 26.9062 108.125 28.625 107.656C30.3438 107.135 31.75 106.25 32.8438 105C33.9375 103.75 34.7708 102.708 35.3438 101.875C35.9688 100.99 36.4115 99.5833 36.6719 97.6562C36.9323 95.7292 37.0885 94.1927 37.1406 93.0469C37.1927 91.849 37.2188 89.9479 37.2188 87.3438V23.3594C37.2188 20.7552 37.1927 18.8802 37.1406 17.7344C37.0885 16.5365 36.9323 14.974 36.6719 13.0469C36.4115 11.1198 35.9688 9.73958 35.3438 8.90625C34.7708 8.02083 33.9375 6.95312 32.8438 5.70312C31.75 4.45312 30.3438 3.59375 28.625 3.125C26.9062 2.60417 24.7969 2.05729 22.2969 1.48438C19.849 0.859375 16.9323 0.46875 13.5469 0.3125C10.2135 0.104166 6.35938 0 1.98438 0C1.3112 0 0.649744 0.00246617 0 0.00739852V1.00743C0.649513 1.00248 1.31097 1 1.98438 1C6.34453 1 10.1771 1.10384 13.4845 1.31055L13.4926 1.31106L13.5008 1.31144C16.8397 1.46554 19.6854 1.8497 22.0495 2.45329L22.0615 2.45635L22.0735 2.45911C24.5597 3.02886 26.6453 3.57 28.335 4.08202L28.3484 4.08608L28.3619 4.08976C29.9053 4.51071 31.1364 5.27049 32.0912 6.36163C33.169 7.59343 33.9679 8.62066 34.5042 9.4495L34.523 9.47856L34.5437 9.50625C35.0113 10.1297 35.4267 11.2996 35.6809 13.1808C35.9394 15.0938 36.0914 16.6228 36.1416 17.7778L36.1417 17.7798C36.1926 18.901 36.2188 20.7563 36.2188 23.3594V87.3438C36.2188 89.9447 36.1927 91.8266 36.1417 93.0015C36.0915 94.1044 35.9396 95.6075 35.6809 97.5223C35.4274 99.3979 35.0118 100.611 34.5268 101.298L34.5267 101.298L34.5197 101.308C33.9782 102.096 33.1733 103.105 32.0912 104.341C31.1333 105.436 29.8967 106.224 28.348 106.695C26.6426 107.16 24.5479 107.703 22.0623 108.325C19.6919 108.879 16.8414 109.238 13.5008 109.392L13.4926 109.392L13.4845 109.393C10.1771 109.599 6.34453 109.703 1.98438 109.703C1.31097 109.703 0.649513 109.701 0 109.696V110.696ZM0 94.4375H18H19V93.4375V17.2656V16.2656H18H0V17.2656H17H18V18.2656V92.4375V93.4375H17H0V94.4375ZM119.344 69.2969V70.2969H120.344H128.953V85.5625H120.344H119.344V86.5625V108.766H102.203V86.5625V85.5625H101.203H48.3313L88.0074 1.9375H119.344V69.2969ZM46.75 86.5625H47.8568H100.203H101.203V87.5625V108.766V109.766H102.203H119.344H120.344V108.766V87.5625V86.5625H121.344H128.953H129.953V85.5625V70.2969V69.2969H128.953H121.344H120.344V68.2969V1.9375V0.9375H119.344H87.375L47.2244 85.5625L46.75 86.5625ZM101.203 70.2969H102.203V69.2969V18.2812V17.2812H101.203H100.5H99.8686L99.5972 17.8513L75.3003 68.8669L74.6192 70.2969H76.2031H101.203ZM100.203 18.9046L100.5 18.2812H101.203V18.6161V19.1306V19.2812V68.2969V69.2969H100.203H77.3107H76.2031L76.6794 68.2969L100.203 18.9046Z" fill="#EAECED"/>
</svg>
