<svg width="189" height="157" viewBox="0 0 189 157" fill="none" xmlns="http://www.w3.org/2000/svg">
<g filter="url(#filter0_d_3638_122194)">
<path d="M160.67 123.968H33.7577C30.595 123.968 28 121.41 28 118.291V21.3876C28 18.2695 30.595 15.7109 33.7577 15.7109H160.67C163.832 15.7109 166.427 18.2695 166.427 21.3876V118.291C166.427 121.41 163.832 123.968 160.67 123.968Z" fill="url(#paint0_linear_3638_122194)"/>
</g>
<path d="M154.75 86.3947H38.8669C37.0017 86.3947 35.4609 84.8528 35.4609 82.9863V47.8474C35.4609 45.9809 37.0017 44.439 38.8669 44.439H154.75C156.615 44.439 158.156 45.9809 158.156 47.8474V82.9051C158.156 84.8528 156.615 86.3947 154.75 86.3947Z" fill="#EAEEF9"/>
<mask id="mask0_3638_122194" style="mask-type:alpha" maskUnits="userSpaceOnUse" x="35" y="44" width="124" height="43">
<path d="M154.75 86.3947H38.8669C37.0017 86.3947 35.4609 84.8528 35.4609 82.9863V47.8474C35.4609 45.9809 37.0017 44.439 38.8669 44.439H154.75C156.615 44.439 158.156 45.9809 158.156 47.8474V82.9051C158.156 84.8528 156.615 86.3947 154.75 86.3947Z" fill="#F1F3F9"/>
</mask>
<g mask="url(#mask0_3638_122194)">
<path d="M138.206 88.8291H55.4092V54.2582C55.4092 52.9598 56.4634 51.9048 57.7609 51.9048H135.854C137.152 51.9048 138.206 52.9598 138.206 54.2582V88.8291Z" fill="white"/>
</g>
<path fill-rule="evenodd" clip-rule="evenodd" d="M67.3311 65.376C67.3311 64.9278 67.6941 64.5645 68.142 64.5645H88.902C89.3499 64.5645 89.713 64.9278 89.713 65.376C89.713 65.8242 89.3499 66.1875 88.902 66.1875H68.142C67.6941 66.1875 67.3311 65.8242 67.3311 65.376Z" fill="#989FB0"/>
<path fill-rule="evenodd" clip-rule="evenodd" d="M67.3311 70.6509C67.3311 70.2027 67.6941 69.8394 68.142 69.8394H82.1712C82.6191 69.8394 82.9822 70.2027 82.9822 70.6509C82.9822 71.0991 82.6191 71.4624 82.1712 71.4624H68.142C67.6941 71.4624 67.3311 71.0991 67.3311 70.6509Z" fill="#989FB0"/>
<path fill-rule="evenodd" clip-rule="evenodd" d="M67.3311 75.1953C67.3311 74.7471 67.6941 74.3838 68.142 74.3838H124.989C125.437 74.3838 125.8 74.7471 125.8 75.1953C125.8 75.6435 125.437 76.0068 124.989 76.0068H68.142C67.6941 76.0068 67.3311 75.6435 67.3311 75.1953Z" fill="#989FB0"/>
<path fill-rule="evenodd" clip-rule="evenodd" d="M67.3311 79.9023C67.3311 79.4542 67.6941 79.0908 68.142 79.0908H124.989C125.437 79.0908 125.8 79.4542 125.8 79.9023C125.8 80.3505 125.437 80.7139 124.989 80.7139H68.142C67.6941 80.7139 67.3311 80.3505 67.3311 79.9023Z" fill="#989FB0"/>
<path fill-rule="evenodd" clip-rule="evenodd" d="M67.3311 84.6094C67.3311 84.1612 67.6941 83.7979 68.142 83.7979H124.989C125.437 83.7979 125.8 84.1612 125.8 84.6094C125.8 85.0576 125.437 85.4209 124.989 85.4209H68.142C67.6941 85.4209 67.3311 85.0576 67.3311 84.6094Z" fill="#989FB0"/>
<path d="M128.313 33.6453H57.1932C56.2201 33.6453 55.4092 33.003 55.4092 32.2322V29.984C55.4092 29.2131 56.2201 28.5708 57.1932 28.5708H128.313C129.286 28.5708 130.097 29.2131 130.097 29.984V32.2322C130.178 33.003 129.367 33.6453 128.313 33.6453Z" fill="url(#paint1_linear_3638_122194)"/>
<path d="M156.858 101.732H56.7067C55.9769 101.732 55.3281 101.323 55.3281 100.738V99.2753C55.3281 98.7488 55.8958 98.2808 56.7067 98.2808H156.777C157.506 98.2808 158.155 98.6903 158.155 99.2753V100.738C158.155 101.323 157.588 101.732 156.858 101.732Z" fill="url(#paint2_linear_3638_122194)"/>
<path d="M122.636 111.876H56.7067C55.9769 111.876 55.3281 111.467 55.3281 110.882V109.419C55.3281 108.893 55.8958 108.425 56.7067 108.425H122.555C123.285 108.425 123.934 108.834 123.934 109.419V110.882C123.934 111.408 123.366 111.876 122.636 111.876Z" fill="url(#paint3_linear_3638_122194)"/>
<path d="M46.4086 37.0542H37.4072C36.353 37.0542 35.4609 36.1615 35.4609 35.1065V26.0175C35.4609 24.9625 36.353 24.0698 37.4072 24.0698H46.4086C47.4628 24.0698 48.3549 24.9625 48.3549 26.0175V35.0254C48.3549 36.1615 47.4628 37.0542 46.4086 37.0542Z" fill="#EAEEF9"/>
<path d="M42.7594 111.876C38.7047 111.876 35.4609 108.63 35.4609 104.573C35.4609 100.515 38.7047 97.269 42.7594 97.269C46.8141 97.269 50.0578 100.515 50.0578 104.573C50.0578 108.549 46.8141 111.876 42.7594 111.876Z" fill="#C2C8D6"/>
<path d="M47.138 108.305C46.0027 107.169 44.9485 106.52 42.759 106.52C40.4883 106.52 39.5152 107.25 38.3799 108.305C39.4341 109.523 41.056 110.334 42.84 110.334C44.4619 110.334 45.9216 109.685 46.9758 108.63C46.9758 108.549 47.138 108.468 47.138 108.305C47.2191 108.305 47.138 108.305 47.138 108.305Z" fill="white"/>
<path d="M42.758 105.141C44.1016 105.141 45.1908 104.051 45.1908 102.706C45.1908 101.361 44.1016 100.271 42.758 100.271C41.4144 100.271 40.3252 101.361 40.3252 102.706C40.3252 104.051 41.4144 105.141 42.758 105.141Z" fill="white"/>
<path fill-rule="evenodd" clip-rule="evenodd" d="M45.8409 27.7622H37.6504V26.5449H45.8409V27.7622Z" fill="#989FB0"/>
<path fill-rule="evenodd" clip-rule="evenodd" d="M45.8409 31.0083H37.6504V29.791H45.8409V31.0083Z" fill="#989FB0"/>
<path fill-rule="evenodd" clip-rule="evenodd" d="M43.2459 34.2544H37.6504V33.0371H43.2459V34.2544Z" fill="#989FB0"/>
<path d="M51.0998 26.0658C51.0998 32.741 48.499 38.735 44.1187 43.2305C43.708 43.6392 43.4343 44.0478 43.0236 44.3203C38.5064 48.4071 32.6204 50.9954 26.0499 50.9954C20.7114 50.9954 15.7836 49.3607 11.8139 46.4999C10.5819 45.6826 9.48685 44.729 8.52866 43.7754C3.87458 39.2799 1 33.0134 1 25.9296C1 12.1706 12.2245 1 26.0499 1C39.8753 1 51.0998 12.1706 51.0998 26.0658Z" fill="#E9F0F8"/>
<path d="M51.0998 26.0658C51.0998 33.2859 47.9515 39.8248 43.0236 44.3203C38.5064 48.4071 32.6204 50.9954 26.0499 50.9954C20.7114 50.9954 15.7836 49.3607 11.8139 46.4999C5.24343 42.0044 1 34.5119 1 25.9296C1 12.1706 12.2245 1 26.0499 1C39.8753 1 51.0998 12.1706 51.0998 26.0658Z" fill="#D8E2EB"/>
<path d="M44.256 43.2307C43.8454 43.6394 43.5716 44.0481 43.161 44.3205C38.6438 48.4073 32.7577 50.9956 26.1873 50.9956C20.8488 50.9956 15.9209 49.3609 11.9512 46.5001C10.7193 45.6828 9.62421 44.7292 8.66602 43.7756C9.21355 43.0945 10.1717 42.5495 12.0881 41.7322L12.9094 41.4597C14.4152 40.9148 16.4684 40.0975 19.2061 39.0076C19.6168 38.8714 20.0274 38.599 20.1643 38.1903C20.3012 38.054 20.4381 37.7816 20.4381 37.6454C20.575 37.3729 20.7119 36.9642 20.7119 36.5555V31.5151C20.575 31.3789 20.575 31.3789 20.4381 31.2427C20.0274 30.5615 19.7537 29.8804 19.6168 29.063L19.2061 28.7906C17.9742 29.063 17.9742 27.7008 17.7004 25.1124C17.5635 24.0226 17.7004 23.7502 18.2479 23.6139L18.6586 23.069C17.7004 20.8894 17.2898 19.1184 17.2898 17.4837C17.2898 15.0316 18.3848 13.3969 19.8906 12.5795C19.0693 10.8086 19.0693 10.1274 19.0693 10.1274C19.0693 10.1274 24.4078 10.9448 26.1873 10.6724C28.5143 10.2637 32.0733 10.8086 33.3053 13.8056C35.4954 14.6229 36.3167 15.9852 36.5905 17.4837C36.8643 19.7996 35.4954 22.5241 35.3585 23.4777V23.6139C35.7692 23.7502 35.7692 24.0226 35.6323 24.9762C35.3585 27.5645 35.3585 29.063 34.1266 28.6544L32.7577 30.834C32.7577 31.1065 32.7577 31.1065 32.6208 31.2427C32.6208 31.6514 32.6208 32.3325 32.6208 36.5555C32.6208 37.1005 32.7577 37.5091 33.0315 37.9178C33.1684 38.054 33.1684 38.1903 33.3053 38.1903C33.579 38.4627 33.8528 38.7352 34.2635 38.8714C37.2749 40.0975 39.4651 40.9148 40.9708 41.596C42.6134 42.2771 43.5716 42.6858 44.256 43.2307Z" fill="white"/>
<path d="M44.256 43.2304C43.8454 43.639 43.5716 44.0477 43.161 44.3202C38.6438 48.407 32.7577 50.9953 26.1873 50.9953C20.8488 50.9953 15.9209 49.3606 11.9512 46.4998C10.7193 45.6824 9.62421 44.7289 8.66602 43.7753C9.21355 43.0941 10.1717 42.5492 12.0881 41.7319L12.9094 41.4594C14.4152 40.9145 16.4684 40.0971 19.2061 39.0073C19.6168 38.8711 20.0274 38.5986 20.1643 38.1899C21.6701 40.2334 24.134 41.5956 26.8717 41.5956C29.6094 41.5956 31.9364 40.2334 33.4421 38.3262C33.7159 38.5986 33.9897 38.8711 34.4003 39.0073C37.4118 40.2334 39.602 41.0507 41.1077 41.7319C42.6134 42.2768 43.5716 42.6854 44.256 43.2304Z" fill="url(#paint4_linear_3638_122194)"/>
<path d="M35.0846 23.4777C35.2215 22.7966 34.9478 22.1154 34.674 21.4343C34.674 21.2981 34.5371 21.2981 34.5371 21.1619C33.5789 19.1184 31.2519 18.3011 29.1986 18.1649C23.7232 17.8924 23.1757 18.9822 21.5331 17.3475C22.0806 18.1649 22.0806 19.3909 21.2593 21.0256C20.7117 22.1154 19.6167 22.6604 18.6585 22.9328C16.1946 17.3475 17.4265 13.8056 19.8904 12.4433C19.0691 10.6723 19.0691 9.99121 19.0691 9.99121C19.0691 9.99121 24.4076 10.8086 26.1871 10.5361C28.5142 10.1274 32.0732 10.6723 33.3051 13.6693C35.4953 14.4867 36.3166 15.849 36.5904 17.3475C36.7273 19.9358 35.3584 22.5241 35.0846 23.4777Z" fill="#1C3754"/>
<path d="M20.5755 36.5555V31.5151C20.4386 31.3789 20.4386 31.3789 20.3018 31.2427V30.9702C20.5755 31.3789 20.9862 31.7876 21.3968 32.1963L25.3665 34.9208C26.3247 35.7382 27.6935 35.7382 28.6517 34.9208L32.3476 31.6514C32.4845 31.5151 32.6214 31.3789 32.7583 31.2427C32.7583 31.6513 32.7583 32.3325 32.7583 36.5555C32.7583 36.828 32.7583 37.1004 32.8952 37.2367H20.5755C20.5755 37.1004 20.5755 36.828 20.5755 36.5555Z" fill="url(#paint5_linear_3638_122194)"/>
<path d="M51.0998 26.0658C51.0998 33.2859 47.9515 39.8248 43.0236 44.3203C38.5064 48.4071 32.6204 50.9954 26.0499 50.9954C20.7114 50.9954 15.7835 49.3607 11.8139 46.4999C5.24343 42.0044 1 34.5119 1 25.9296C1 12.1706 12.2245 1 26.0499 1C39.8753 1 51.0998 12.1706 51.0998 26.0658Z" stroke="white" stroke-width="1.9345" stroke-miterlimit="10" stroke-linecap="round" stroke-linejoin="round"/>
<path d="M45.697 52.9055C45.0126 52.9055 44.465 52.4968 44.0544 51.9519L42.4117 48.9549C42.138 48.5463 42.0011 48.0013 42.0011 47.5927V37.9205C39.1265 36.5583 37.2101 33.5612 37.0732 30.2918C37.0732 30.2918 37.0732 30.2918 37.0732 30.1556C37.0732 26.6137 39.4003 23.3442 42.8224 22.1182C43.7806 21.8457 44.7388 21.5732 45.697 21.5732C49.256 21.5732 52.5412 23.8891 53.7732 27.2948C55.2789 31.3816 53.2256 35.8771 49.3929 37.7843C49.256 38.3292 48.9822 39.0103 48.7084 39.419L48.4347 39.6915L48.8453 40.1002C48.9822 40.2364 49.1191 40.3726 49.1191 40.5088C49.5298 41.19 49.3929 42.0073 48.8453 42.5523C48.8453 42.6885 48.7084 42.8247 48.7084 42.9609L48.8453 43.0972C49.1191 43.5058 49.3929 44.0508 49.3929 44.4594V45.1406C49.3929 45.6855 49.1191 46.2304 48.8453 46.6391L48.9822 46.7753C49.256 47.184 49.5297 47.5927 49.5297 48.1376V48.6825C49.5297 49.4998 49.256 50.181 48.7084 50.7259L47.0658 52.2244C47.0658 52.2244 46.7921 52.3606 46.7921 52.4968C46.3814 52.7693 46.1076 52.9055 45.697 52.9055ZM45.8339 26.4774C45.697 26.4774 45.5601 26.6137 45.5601 26.7499C45.5601 26.8861 45.697 27.0223 45.8339 27.0223C45.9708 27.0223 45.9707 27.0223 46.1076 26.8861C46.2445 26.7499 46.2445 26.7499 46.2445 26.6137C46.1076 26.6137 45.9708 26.4774 45.8339 26.4774Z" fill="url(#paint6_linear_3638_122194)"/>
<path d="M45.8342 23.0717C48.8457 23.0717 51.5834 24.8427 52.5416 27.8397C53.9104 31.5178 51.8571 35.6046 48.1612 36.9669V37.2394C48.1612 37.7843 48.0244 38.3292 47.6137 38.7379L46.7924 39.8277C46.6555 39.9639 46.6555 40.2364 46.7924 40.3726L47.8875 41.3262C48.0244 41.4624 47.8875 41.5986 47.7506 41.7349V41.8711V42.0073C47.7506 42.2798 47.6137 42.5522 47.3399 42.6884C47.2031 42.8247 47.2031 43.0971 47.3399 43.2334L48.0244 44.0507C48.1613 44.187 48.1612 44.3232 48.1612 44.5956V45.2768C48.1612 45.5492 48.0244 45.6854 47.8875 45.8217L47.3399 46.3666C47.2031 46.5028 47.2031 46.7753 47.3399 46.9115L48.0244 47.7289C48.1613 47.8651 48.1612 48.0013 48.1612 48.2738V48.8187C48.1612 49.2274 48.0244 49.636 47.7506 49.9085L46.108 51.407C46.108 51.407 46.108 51.407 45.9711 51.407C45.8342 51.407 45.8342 51.407 45.6973 51.407C45.5604 51.407 45.4236 51.2708 45.2867 51.1345L45.1498 50.9983L43.6441 48.41C43.5072 48.1375 43.5072 48.0013 43.5072 47.7289V37.1031C40.6326 36.1495 38.7162 33.425 38.7162 30.428C38.7162 27.431 40.6326 24.7064 43.5072 23.7529C44.1916 23.2079 45.0129 23.0717 45.8342 23.0717ZM45.8342 28.5208C46.7924 28.5208 47.4768 27.7034 47.4768 26.8861C47.4768 25.9325 46.6555 25.2514 45.8342 25.2514C44.876 25.2514 44.1916 26.0687 44.1916 26.8861C44.0547 27.8397 44.876 28.5208 45.8342 28.5208ZM45.8342 20.3472C44.7391 20.3472 43.6441 20.4834 42.549 20.8921C38.5793 22.2544 35.9785 26.0687 35.9785 30.1555V30.2918C35.9785 33.8337 37.8949 36.9669 40.9064 38.6016V47.4564C40.9064 48.1375 41.0433 48.9549 41.4539 49.4998L42.9596 52.0881L43.0965 52.4968C43.6441 53.4504 44.7391 54.1315 45.8342 54.1315C46.3818 54.1315 46.9293 53.9953 47.4768 53.7229C47.4768 53.7229 47.6137 53.7229 47.6137 53.5866C47.7506 53.4504 47.8875 53.3142 48.0244 53.178L49.667 51.5432C50.4883 50.7259 51.0358 49.636 51.0358 48.5462V48.0013C51.0358 47.4564 50.8989 46.9115 50.7621 46.5028C51.0358 46.0941 51.0358 45.5492 51.0358 45.0043V44.3232C51.0358 43.7783 50.8989 43.2334 50.6252 42.6884C51.1727 41.7349 51.1727 40.5088 50.4883 39.5552L50.3514 39.419C50.4883 39.1465 50.6252 38.8741 50.7621 38.6016C54.8686 36.2858 56.9219 31.2454 55.2793 26.7499C53.7735 23.0717 49.9408 20.3472 45.8342 20.3472Z" fill="white"/>
<defs>
<filter id="filter0_d_3638_122194" x="6" y="4.71094" width="182.428" height="152.257" filterUnits="userSpaceOnUse" color-interpolation-filters="sRGB">
<feFlood flood-opacity="0" result="BackgroundImageFix"/>
<feColorMatrix in="SourceAlpha" type="matrix" values="0 0 0 0 0 0 0 0 0 0 0 0 0 0 0 0 0 0 127 0" result="hardAlpha"/>
<feOffset dy="11"/>
<feGaussianBlur stdDeviation="11"/>
<feColorMatrix type="matrix" values="0 0 0 0 0.397708 0 0 0 0 0.47749 0 0 0 0 0.575 0 0 0 0.18 0"/>
<feBlend mode="normal" in2="BackgroundImageFix" result="effect1_dropShadow_3638_122194"/>
<feBlend mode="normal" in="SourceGraphic" in2="effect1_dropShadow_3638_122194" result="shape"/>
</filter>
<linearGradient id="paint0_linear_3638_122194" x1="97.1685" y1="13.2068" x2="97.1685" y2="125.135" gradientUnits="userSpaceOnUse">
<stop stop-color="#FDFEFF"/>
<stop offset="0.9964" stop-color="#ECF0F5"/>
</linearGradient>
<linearGradient id="paint1_linear_3638_122194" x1="127.139" y1="28.5708" x2="57.8679" y2="32.1208" gradientUnits="userSpaceOnUse">
<stop stop-color="#B0BACC"/>
<stop offset="1" stop-color="#969EAE"/>
</linearGradient>
<linearGradient id="paint2_linear_3638_122194" x1="154.076" y1="98.2808" x2="59.4802" y2="108.093" gradientUnits="userSpaceOnUse">
<stop stop-color="#B0BACC"/>
<stop offset="1" stop-color="#969EAE"/>
</linearGradient>
<linearGradient id="paint3_linear_3638_122194" x1="121.212" y1="108.425" x2="57.7234" y2="112.819" gradientUnits="userSpaceOnUse">
<stop stop-color="#B0BACC"/>
<stop offset="1" stop-color="#969EAE"/>
</linearGradient>
<linearGradient id="paint4_linear_3638_122194" x1="8.47273" y1="44.591" x2="44.2274" y2="44.591" gradientUnits="userSpaceOnUse">
<stop stop-color="#ECB782"/>
<stop offset="1" stop-color="#C09367"/>
</linearGradient>
<linearGradient id="paint5_linear_3638_122194" x1="26.5997" y1="37.366" x2="26.5997" y2="33.8462" gradientUnits="userSpaceOnUse">
<stop stop-color="white"/>
<stop offset="0.9913" stop-color="#E6EDF7"/>
</linearGradient>
<linearGradient id="paint6_linear_3638_122194" x1="37.2509" y1="37.3132" x2="54.3328" y2="37.3132" gradientUnits="userSpaceOnUse">
<stop offset="0.00289017" stop-color="#FFD44F"/>
<stop offset="1" stop-color="#FFA607"/>
</linearGradient>
</defs>
</svg>
