<svg width="90" height="93" viewBox="0 0 90 93" fill="none" xmlns="http://www.w3.org/2000/svg">
<path d="M29.7687 68.3704C29.6334 68.0987 29.4303 67.895 29.1595 67.7591C29.1595 67.7591 29.1595 67.7591 29.0918 67.7591L22.9318 64.1591C22.3226 63.8195 21.6457 63.8874 21.1041 64.1591L15.0795 67.6233C14.8088 67.827 14.538 68.0308 14.4026 68.3025C14.2672 68.5742 14.1318 68.9138 14.1318 69.2534V76.8609C14.1318 77.5402 14.4703 78.1515 15.0795 78.4911L20.9011 81.8873C21.2395 82.0911 21.6457 82.2269 22.0518 82.2269C22.458 82.2269 22.8641 82.0911 23.2026 81.8873L29.0241 78.4911C29.6334 78.1515 29.9718 77.5402 29.9718 76.8609V69.2534C29.9718 68.9817 29.9041 68.6421 29.7687 68.3704Z" stroke="#BB926A" stroke-width="2" stroke-miterlimit="10" stroke-linecap="round" stroke-linejoin="round"/>
<path d="M73.5658 18.7856L19.209 74.687" stroke="#BB926A" stroke-width="2" stroke-linecap="round" stroke-linejoin="round" stroke-dasharray="0.5 4"/>
<path d="M18.2617 75.6382V75.7059" stroke="url(#paint0_linear_3638_116245)" stroke-width="2" stroke-linecap="round" stroke-linejoin="round"/>
<path d="M20.1572 18.7856L74.4464 74.687" stroke="#BB926A" stroke-width="2" stroke-linecap="round" stroke-linejoin="round" stroke-dasharray="0.5 4"/>
<path d="M75.3936 75.6382V75.7059" stroke="url(#paint1_linear_3638_116245)" stroke-width="2" stroke-linecap="round" stroke-linejoin="round"/>
<path d="M46.4893 9.27637L47.5046 87.3889" stroke="#BB926A" stroke-width="2" stroke-linecap="round" stroke-linejoin="round" stroke-dasharray="0.5 4"/>
<path d="M5.87402 45.7515H5.94172" stroke="url(#paint2_linear_3638_116245)" stroke-width="2" stroke-linecap="round" stroke-linejoin="round"/>
<path d="M8.58203 45.8193L86.4281 46.7703" stroke="#BB926A" stroke-width="2" stroke-linecap="round" stroke-linejoin="round" stroke-dasharray="0.5 4"/>
<path d="M87.7139 46.7705H87.7816" stroke="url(#paint3_linear_3638_116245)" stroke-width="2" stroke-linecap="round" stroke-linejoin="round"/>
<path d="M29.9718 69.3212V76.9287C29.9718 77.6079 29.6334 78.2192 29.0241 78.5588L23.2026 81.955C22.8641 82.1588 22.458 82.2946 22.0518 82.2946C21.6457 82.2946 21.2395 82.1588 20.9011 81.955L15.0795 78.5588C14.4703 78.2192 14.1318 77.6079 14.1318 76.9287V69.3212C14.1318 68.9816 14.1995 68.6419 14.4026 68.3702C14.538 68.0985 14.8088 67.8269 15.0795 67.691L21.1041 64.2269C21.6457 63.8873 22.3903 63.8873 22.9318 64.2269H22.9995L29.0241 67.7589C29.0241 67.7589 29.0918 67.7589 29.0918 67.8268C29.0918 67.8268 29.0918 67.8268 29.1595 67.8268C29.4303 67.9627 29.6334 68.2344 29.7687 68.4382C29.9041 68.6419 29.9718 68.9816 29.9718 69.3212Z" fill="#F3F6FA"/>
<path d="M29.9717 69.3211V76.9285C29.9717 77.6078 29.6333 78.2191 29.0241 78.5587L23.2025 81.9549C22.8641 82.1587 22.4579 82.2945 22.0518 82.2945V72.7852L29.7687 68.3701C29.9041 68.6418 29.9717 68.9814 29.9717 69.3211Z" fill="#DBDFE6"/>
<path d="M22.0518 72.7852V82.2945C21.6457 82.2945 21.2395 82.1587 20.9011 81.9549L15.0795 78.5587C14.4703 78.2191 14.1318 77.6078 14.1318 76.9285V69.3211C14.1318 68.9814 14.1995 68.6418 14.4026 68.3701L22.0518 72.7852Z" fill="#EAEEF9"/>
<path d="M29.7688 68.3703L22.0519 72.7854L14.335 68.3024C14.4703 68.0307 14.7411 67.759 15.0119 67.6231L21.0365 64.159C21.578 63.8194 22.3226 63.8194 22.8642 64.159L29.0242 67.759C29.0242 67.759 29.0242 67.759 29.0919 67.759C29.4303 67.8948 29.5657 68.0986 29.7688 68.3703Z" fill="#F3F6FA"/>
<path d="M19.1101 75.2672L19.0424 74.8596C19.0424 74.2483 18.6362 73.4332 18.027 73.1615C17.4855 72.8898 17.0793 73.0936 17.0793 73.7049V74.1125H17.0116C16.8085 73.9766 16.6055 74.1125 16.6055 74.3162V75.8106C16.6055 76.2181 16.8762 76.6936 17.2147 76.8973L18.7716 77.7804C19.1101 77.9841 19.3808 77.8483 19.3808 77.4407V75.9464C19.5162 75.7426 19.3132 75.403 19.1101 75.2672ZM18.2978 76.4219C18.2978 76.4898 18.2301 76.5577 18.1624 76.5577H18.0947C17.9593 76.4898 17.8916 76.354 17.8916 76.2181V75.7426C17.8916 75.6068 17.9593 75.5389 18.0947 75.6068C18.2301 75.6747 18.2978 75.8106 18.2978 75.9464V76.4219ZM18.6362 75.0634L17.4855 74.3842V73.9766C17.4855 73.637 17.7562 73.5012 18.0947 73.7049C18.3655 73.9087 18.6362 74.3162 18.6362 74.6559V75.0634Z" fill="#BB926A"/>
<path d="M17.3137 41.8118C17.1783 41.5401 16.9752 41.3364 16.7044 41.2005C16.7044 41.2005 16.7044 41.2005 16.6367 41.2005L10.4767 37.6006C9.86752 37.2609 9.19059 37.3289 8.64906 37.6006L2.62445 41.0647C2.35368 41.2684 2.08291 41.4722 1.94753 41.7439C1.74445 42.0835 1.67676 42.4232 1.67676 42.7628V50.3703C1.67676 51.0495 2.01522 51.6608 2.62445 52.0004L8.44598 55.3966C8.78444 55.6004 9.19059 55.7362 9.59675 55.7362C10.0029 55.7362 10.4091 55.6004 10.7475 55.3966L16.569 52.0004C17.1783 51.6608 17.5167 51.0495 17.5167 50.3703V42.7628C17.5844 42.4232 17.5167 42.0835 17.3137 41.8118Z" stroke="#BB926A" stroke-width="2" stroke-miterlimit="10" stroke-linecap="round" stroke-linejoin="round"/>
<path d="M17.5844 42.763V50.3705C17.5844 51.0497 17.246 51.6611 16.6367 52.0007L10.8152 55.3969C10.4767 55.6006 10.0706 55.7365 9.66444 55.7365C9.25829 55.7365 8.85213 55.6006 8.51367 55.3969L2.69214 52.0007C2.01522 51.729 1.67676 51.1177 1.67676 50.4384V42.8309C1.67676 42.4913 1.74445 42.1517 1.94753 41.88C2.08291 41.6083 2.35368 41.3366 2.62445 41.2008L8.64906 37.7366C9.19059 37.397 9.93521 37.397 10.4767 37.7366H10.5444L16.569 41.2687C16.569 41.2687 16.6367 41.2687 16.6367 41.3366C16.6367 41.3366 16.6367 41.3366 16.7044 41.3366C16.9752 41.4725 17.1783 41.7442 17.3137 41.9479C17.5167 42.0838 17.5844 42.4234 17.5844 42.763Z" fill="#F3F6FA"/>
<path d="M17.5841 42.7625V50.3699C17.5841 51.0492 17.2456 51.6605 16.6364 52.0001L10.8148 55.3963C10.4764 55.6001 10.0702 55.7359 9.66406 55.7359V46.2266L17.381 41.8115C17.5164 42.0832 17.5841 42.4228 17.5841 42.7625Z" fill="#DBDFE6"/>
<path d="M9.66444 46.2945V55.8038C9.25829 55.8038 8.85213 55.668 8.51367 55.4642L2.69214 52.068C2.01522 51.7284 1.67676 51.117 1.67676 50.4378V42.8303C1.67676 42.4907 1.74445 42.1511 1.94753 41.8794L9.66444 46.2945Z" fill="#EAEEF9"/>
<path d="M17.3134 41.8116L9.59649 46.2267L1.94727 41.8116C2.08265 41.54 2.35342 41.2683 2.62419 41.1324L8.64879 37.6683C9.19033 37.3287 9.93495 37.3287 10.4765 37.6683L16.6365 41.2683C16.6365 41.2683 16.6365 41.2683 16.7042 41.2683C16.9749 41.3362 17.178 41.54 17.3134 41.8116Z" fill="#F3F6FA"/>
<path d="M6.65469 48.777V48.3695C6.65469 47.7582 6.24854 46.9431 5.63931 46.6714C5.09777 46.3318 4.69162 46.6035 4.69162 47.2148V47.6223H4.62393C4.42085 47.4865 4.21777 47.6223 4.21777 47.8261V49.3204C4.21777 49.728 4.48854 50.2034 4.827 50.4072L6.38392 51.2902C6.72238 51.494 6.99315 51.3581 6.99315 50.9506V49.4563C7.06085 49.1846 6.92546 48.9129 6.65469 48.777ZM5.84238 49.8638C5.84238 49.9317 5.77469 49.9997 5.707 49.9997H5.63931C5.50392 49.9317 5.43623 49.7959 5.43623 49.66V49.1846C5.43623 49.0487 5.50392 48.9808 5.63931 49.0487C5.77469 49.1166 5.84238 49.2525 5.84238 49.3883V49.8638ZM6.24854 48.5053L5.09777 47.8261V47.4185C5.09777 47.0789 5.36854 46.9431 5.707 47.1469C5.97777 47.3506 6.24854 47.7582 6.24854 48.0978V48.5053Z" fill="#BB926A"/>
<path d="M88.7971 42.0833C88.6617 41.8116 88.4586 41.6079 88.1878 41.472C88.1878 41.472 88.1878 41.472 88.1201 41.472L81.9601 37.872C81.3509 37.5324 80.674 37.6003 80.1325 37.872L74.1078 41.3362C73.8371 41.5399 73.5663 41.7437 73.4309 42.0154C73.2955 42.2871 73.1602 42.6267 73.1602 42.9663V50.5738C73.1602 51.253 73.4986 51.8644 74.1078 52.204L79.9294 55.6002C80.2678 55.804 80.674 55.9398 81.0801 55.9398C81.4863 55.9398 81.8925 55.804 82.2309 55.6002L88.0524 52.204C88.6617 51.8644 89.0001 51.253 89.0001 50.5738V43.0343C89.0001 42.6946 88.9324 42.355 88.7971 42.0833Z" stroke="#BB926A" stroke-width="2" stroke-miterlimit="10" stroke-linecap="round" stroke-linejoin="round"/>
<path d="M89.0001 43.0346V50.642C89.0001 51.3213 88.6617 51.9326 88.0524 52.2722L82.2309 55.6684C81.8925 55.8722 81.4863 56.008 81.0801 56.008C80.674 56.008 80.2678 55.8722 79.9294 55.6684L74.1078 52.2722C73.4986 51.9326 73.1602 51.3213 73.1602 50.642V43.0346C73.1602 42.6949 73.2278 42.3553 73.4309 42.0836C73.5663 41.8119 73.8371 41.5402 74.1078 41.4044L80.1325 37.9403C80.674 37.6006 81.4186 37.6006 81.9601 37.9403H82.0278L88.0524 41.4723C88.0524 41.4723 88.1201 41.4723 88.1201 41.5402C88.1201 41.5402 88.1201 41.5402 88.1878 41.5402C88.4586 41.6761 88.6617 41.9478 88.7971 42.1515C88.9324 42.3553 89.0001 42.6949 89.0001 43.0346Z" fill="#F3F6FA"/>
<path d="M89.0001 43.0344V50.6419C89.0001 51.3212 88.6616 51.9325 88.0524 52.2721L82.2308 55.6683C81.8924 55.8721 81.4862 56.0079 81.0801 56.0079V46.4985L88.797 42.0835C88.9324 42.3552 89.0001 42.6948 89.0001 43.0344Z" fill="#DBDFE6"/>
<path d="M81.0801 46.4985V56.0079C80.674 56.0079 80.2678 55.8721 79.9294 55.6683L74.1078 52.2721C73.4986 51.9325 73.1602 51.3212 73.1602 50.6419V43.0344C73.1602 42.6948 73.2278 42.3552 73.4309 42.0835L81.0801 46.4985Z" fill="#EAEEF9"/>
<path d="M88.7971 42.0837L81.0802 46.4987L73.3633 42.0157C73.4987 41.7441 73.7694 41.4724 74.0402 41.3365L80.0648 37.8724C80.6063 37.5328 81.351 37.5328 81.8925 37.8724L88.0525 41.4724C88.0525 41.4724 88.0525 41.4724 88.1202 41.4724C88.4586 41.6082 88.6617 41.812 88.7971 42.0837Z" fill="#F3F6FA"/>
<path d="M78.1374 48.9806L78.0697 48.573C78.0697 47.9617 77.6636 47.1466 77.0543 46.8749C76.5128 46.6032 76.1067 46.807 76.1067 47.4183V47.8258H76.039C75.8359 47.69 75.6328 47.8258 75.6328 48.0296V49.5239C75.6328 49.9315 75.9036 50.407 76.242 50.6107L77.799 51.4937C78.1374 51.6975 78.4082 51.5617 78.4082 51.1541V49.6598C78.5436 49.456 78.3405 49.1164 78.1374 48.9806ZM77.3251 50.1353C77.3251 50.2032 77.2574 50.2711 77.1897 50.2711H77.122C76.9867 50.2032 76.919 50.0673 76.919 49.9315V49.456C76.919 49.3202 76.9867 49.2523 77.122 49.3202C77.2574 49.3881 77.3251 49.5239 77.3251 49.6598V50.1353ZM77.6636 48.7089L76.5128 48.0296V47.69C76.5128 47.3504 76.7836 47.2145 77.122 47.4183C77.3928 47.6221 77.6636 48.0296 77.6636 48.3692V48.7089Z" fill="#BB926A"/>
<path d="M76.0705 16.6121C75.9351 16.3404 75.732 16.1367 75.4613 16.0008C75.4613 16.0008 75.4613 16.0008 75.3936 16.0008L69.2336 12.4008C68.6244 12.0612 67.9474 12.1291 67.4059 12.4008L61.3813 15.865C61.1105 16.0687 60.8397 16.2725 60.7044 16.5442C60.569 16.8159 60.4336 17.1555 60.4336 17.4951V25.1026C60.4336 25.7819 60.7721 26.3932 61.3813 26.7328L67.2028 30.129C67.5413 30.3328 67.9474 30.4686 68.3536 30.4686C68.7597 30.4686 69.1659 30.3328 69.5043 30.129L75.3259 26.7328C75.9351 26.3932 76.2736 25.7819 76.2736 25.1026V17.5631C76.3413 17.2234 76.2059 16.8838 76.0705 16.6121Z" stroke="#BB926A" stroke-width="2" stroke-miterlimit="10" stroke-linecap="round" stroke-linejoin="round"/>
<path d="M76.3419 17.5629V25.1704C76.3419 25.8496 76.0035 26.4609 75.3942 26.8005L69.5727 30.1967C69.2343 30.4005 68.8281 30.5363 68.4219 30.5363C68.0158 30.5363 67.6096 30.4005 67.2712 30.1967L61.4496 26.8005C60.8404 26.4609 60.502 25.8496 60.502 25.1704V17.5629C60.502 17.2233 60.5696 16.8836 60.7727 16.6119C60.9081 16.3402 61.1789 16.0686 61.4496 15.9327L67.4742 12.4686C68.0158 12.129 68.7604 12.129 69.3019 12.4686H69.3696L75.3942 16.0006C75.3942 16.0006 75.4619 16.0006 75.4619 16.0685C75.4619 16.0685 75.4619 16.0685 75.5296 16.0685C75.8004 16.2044 76.0035 16.4761 76.1389 16.6799C76.2065 16.8836 76.3419 17.2233 76.3419 17.5629Z" fill="#F3F6FA"/>
<path d="M76.3409 17.5628V25.1702C76.3409 25.8495 76.0024 26.4608 75.3932 26.8004L69.5717 30.1966C69.2332 30.4004 68.8271 30.5362 68.4209 30.5362V21.0269L76.1378 16.6118C76.2055 16.8835 76.3409 17.2231 76.3409 17.5628Z" fill="#DBDFE6"/>
<path d="M68.3536 21.0269V30.5362C67.9474 30.5362 67.5413 30.4004 67.2028 30.1966L61.3813 26.8004C60.7721 26.4608 60.4336 25.8495 60.4336 25.1702V17.5628C60.4336 17.2231 60.5013 16.8835 60.7044 16.6118L68.3536 21.0269Z" fill="#EAEEF9"/>
<path d="M76.0705 16.612L68.3536 21.0271L60.6367 16.5441C60.7721 16.2724 61.0429 16.0007 61.3136 15.8648L67.3382 12.4007C67.8798 12.0611 68.6244 12.0611 69.1659 12.4007L75.3259 16.0007C75.3259 16.0007 75.3259 16.0007 75.3936 16.0007C75.7321 16.1365 75.9352 16.3403 76.0705 16.612Z" fill="#F3F6FA"/>
<path d="M65.4109 23.5089L65.3432 23.1013C65.3432 22.49 64.937 21.6749 64.3278 21.4032C63.7863 21.1315 63.3801 21.3353 63.3801 21.9466V22.3542H63.3124C63.1093 22.2183 62.9062 22.3542 62.9062 22.5579V24.0523C62.9062 24.4598 63.177 24.9353 63.5155 25.139L65.0724 26.0221C65.4109 26.2258 65.6816 26.09 65.6816 25.6824V24.1881C65.817 23.9843 65.6139 23.6447 65.4109 23.5089ZM64.5986 24.6636C64.5986 24.7315 64.5309 24.7994 64.4632 24.7994H64.3955C64.2601 24.7315 64.1924 24.5957 64.1924 24.4598V23.9164C64.1924 23.7806 64.2601 23.7126 64.3955 23.7806C64.5309 23.8485 64.5986 23.9843 64.5986 24.1202V24.6636ZM64.937 23.3051L63.7863 22.6259V22.2183C63.7863 21.8787 64.057 21.7429 64.3955 21.9466C64.6662 22.1504 64.937 22.5579 64.937 22.8976V23.3051Z" fill="#BB926A"/>
<path d="M54.2736 5.67658C54.1382 5.40489 53.9352 5.20111 53.6644 5.06527C53.6644 5.06527 53.6644 5.06527 53.5967 5.06527L47.4367 1.4653C46.8275 1.12568 46.1506 1.1936 45.609 1.4653L39.5844 4.92942C39.3136 5.13319 39.0429 5.33696 38.9075 5.60866C38.7044 5.94828 38.6367 6.2879 38.6367 6.62752V14.235C38.6367 14.9142 38.9752 15.5256 39.5844 15.8652L45.4059 19.2614C45.7444 19.4651 46.1506 19.601 46.5567 19.601C46.9629 19.601 47.369 19.4651 47.7075 19.2614L53.529 15.8652C54.1382 15.5256 54.4767 14.9142 54.4767 14.235V6.62752C54.5444 6.2879 54.409 5.94828 54.2736 5.67658Z" stroke="#BB926A" stroke-width="2" stroke-miterlimit="10" stroke-linecap="round" stroke-linejoin="round"/>
<path d="M54.5441 6.62733V14.2348C54.5441 14.9141 54.2056 15.5254 53.5964 15.865L47.7749 19.2612C47.4364 19.465 47.0302 19.6008 46.6241 19.6008C46.2179 19.6008 45.8118 19.465 45.4733 19.2612L39.6518 15.865C39.0426 15.5254 38.7041 14.9141 38.7041 14.2348V6.62733C38.7041 6.28771 38.7718 5.94809 38.9749 5.67639C39.1103 5.4047 39.381 5.133 39.6518 4.99716L45.6764 1.53304C46.2179 1.19342 46.9625 1.19342 47.5041 1.53304H47.5718L53.5964 5.06508C53.5964 5.06508 53.6641 5.06508 53.6641 5.133C53.6641 5.133 53.6641 5.133 53.7318 5.133C54.0025 5.26885 54.2056 5.54055 54.341 5.74432C54.4087 5.94809 54.5441 6.28771 54.5441 6.62733Z" fill="#F3F6FA"/>
<path d="M54.544 6.6272V14.2347C54.544 14.9139 54.2055 15.5252 53.5963 15.8649L47.7748 19.2611C47.4363 19.4648 47.0302 19.6007 46.624 19.6007V10.0913L54.3409 5.67627C54.4086 5.94797 54.544 6.28759 54.544 6.6272Z" fill="#DBDFE6"/>
<path d="M46.5567 10.0913V19.6007C46.1506 19.6007 45.7444 19.4648 45.4059 19.2611L39.5844 15.8649C38.9752 15.5252 38.6367 14.9139 38.6367 14.2347V6.6272C38.6367 6.28759 38.7044 5.94797 38.9075 5.67627L46.5567 10.0913Z" fill="#EAEEF9"/>
<path d="M54.2734 5.67645L46.5564 10.0915L38.9072 5.60852C39.0426 5.33683 39.3134 5.06513 39.5841 4.92928L45.6088 1.46516C46.1503 1.12554 46.8949 1.12554 47.4364 1.46516L53.5964 5.06513C53.5964 5.06513 53.5964 5.06513 53.6641 5.06513C53.9349 5.20098 54.138 5.40475 54.2734 5.67645Z" fill="#F3F6FA"/>
<path d="M43.614 12.5733L43.5463 12.1658C43.5463 11.5545 43.1401 10.7394 42.5309 10.4677C41.9894 10.196 41.5832 10.3998 41.5832 11.0111V11.4186H41.5155C41.3125 11.2828 41.1094 11.4186 41.1094 11.6224V13.1167C41.1094 13.5243 41.3801 13.9997 41.7186 14.2035L43.2755 15.0865C43.614 15.2903 43.8848 15.1544 43.8848 14.7469V13.2526C44.0201 13.0488 43.8171 12.7092 43.614 12.5733ZM42.8017 13.728C42.8017 13.796 42.734 13.8639 42.6663 13.8639H42.5986C42.4632 13.796 42.3955 13.6601 42.3955 13.5243V12.9809C42.3955 12.845 42.4632 12.7771 42.5986 12.845C42.734 12.9129 42.8017 13.0488 42.8017 13.1846V13.728ZM43.1401 12.3016L41.9894 11.6224V11.2148C41.9894 10.8752 42.2601 10.7394 42.5986 10.9432C42.8694 11.1469 43.1401 11.5545 43.1401 11.8941V12.3016Z" fill="#BB926A"/>
<path d="M55.1535 77.8797C55.0181 77.608 54.815 77.4042 54.5443 77.2684C54.5443 77.2684 54.5443 77.2684 54.4766 77.2684L48.3166 73.6684C47.7074 73.3288 47.0304 73.3967 46.4889 73.6684L40.4643 77.1325C40.1935 77.3363 39.9228 77.5401 39.7874 77.8118C39.652 78.0835 39.5166 78.4231 39.5166 78.7627V86.3702C39.5166 87.0494 39.8551 87.6608 40.4643 88.0004L46.2858 91.3966C46.6243 91.6003 47.0304 91.7362 47.4366 91.7362C47.8427 91.7362 48.2489 91.6003 48.5874 91.3966L54.4089 88.0004C55.0181 87.6608 55.3566 87.0494 55.3566 86.3702V78.7627C55.3566 78.491 55.2889 78.1514 55.1535 77.8797Z" stroke="#BB926A" stroke-width="2" stroke-miterlimit="10" stroke-linecap="round" stroke-linejoin="round"/>
<path d="M55.3566 78.8305V86.4379C55.3566 87.1172 55.0181 87.7285 54.4089 88.0681L48.5874 91.4643C48.2489 91.6681 47.8427 91.8039 47.4366 91.8039C47.0304 91.8039 46.6243 91.6681 46.2858 91.4643L40.4643 88.0681C39.8551 87.7285 39.5166 87.1172 39.5166 86.4379V78.8305C39.5166 78.4908 39.5843 78.1512 39.7874 77.8795C39.9228 77.6078 40.1935 77.3361 40.4643 77.2003L46.4889 73.7362C47.0304 73.3965 47.7751 73.3965 48.3166 73.7362H48.3843L54.4089 77.2682C54.4089 77.2682 54.4766 77.2682 54.4766 77.3361C54.4766 77.3361 54.4766 77.3361 54.5443 77.3361C54.815 77.472 55.0181 77.7437 55.1535 77.9474C55.2889 78.1512 55.3566 78.4908 55.3566 78.8305Z" fill="#F3F6FA"/>
<path d="M55.3565 78.8303V86.4378C55.3565 87.117 55.0181 87.7284 54.4088 88.068L48.5873 91.4642C48.2488 91.6679 47.8427 91.8038 47.4365 91.8038V82.2944L55.1534 77.8794C55.2888 78.1511 55.3565 78.4907 55.3565 78.8303Z" fill="#DBDFE6"/>
<path d="M47.4366 82.2944V91.8038C47.0304 91.8038 46.6243 91.6679 46.2858 91.4642L40.4643 88.068C39.8551 87.7284 39.5166 87.117 39.5166 86.4378V78.8303C39.5166 78.4907 39.5843 78.1511 39.7874 77.8794L47.4366 82.2944Z" fill="#EAEEF9"/>
<path d="M55.1536 77.8796L47.4366 82.2946L39.7197 77.8117C39.8551 77.54 40.1259 77.2683 40.3966 77.1324L46.4213 73.6683C46.9628 73.3287 47.7074 73.3287 48.2489 73.6683L54.4089 77.2683C54.4089 77.2683 54.4089 77.2683 54.4766 77.2683C54.8151 77.4041 55.0182 77.6079 55.1536 77.8796Z" fill="#F3F6FA"/>
<path d="M44.4939 84.7765L44.4262 84.3689C44.4262 83.7576 44.02 82.9425 43.4108 82.6708C42.8693 82.3991 42.4631 82.6029 42.4631 83.2142V83.6217H42.3954C42.1923 83.4859 41.9893 83.6217 41.9893 83.8255V85.3198C41.9893 85.7274 42.26 86.2029 42.5985 86.4066L44.1554 87.2896C44.4939 87.4934 44.7646 87.3576 44.7646 86.95V85.4557C44.9 85.2519 44.6969 84.9123 44.4939 84.7765ZM43.6816 85.9312C43.6816 85.9991 43.6139 86.067 43.5462 86.067H43.4785C43.3431 85.9991 43.2754 85.8632 43.2754 85.7274V85.2519C43.2754 85.1161 43.3431 85.0481 43.4785 85.1161C43.6139 85.184 43.6816 85.3198 43.6816 85.4557V85.9312ZM44.02 84.5048L42.8693 83.8255V83.418C42.8693 83.0784 43.14 82.9425 43.4785 83.1463C43.7493 83.35 44.02 83.7576 44.02 84.0972V84.5048Z" fill="#BB926A"/>
<path d="M78.5754 65.5174C78.44 65.2457 78.2369 65.0419 77.9661 64.9061C77.9661 64.9061 77.9661 64.9061 77.8985 64.9061L71.7385 61.3061C71.1292 60.9665 70.4523 61.0344 69.9108 61.3061L63.8862 64.7702C63.6154 64.974 63.3446 65.1778 63.2092 65.4495C63.0739 65.7212 62.9385 66.0608 62.9385 66.4004V74.0079C62.9385 74.6871 63.2769 75.2984 63.8862 75.6381L69.7077 79.0343C70.0462 79.238 70.4523 79.3739 70.8585 79.3739C71.2646 79.3739 71.6708 79.238 72.0092 79.0343L77.8308 75.6381C78.44 75.2984 78.7785 74.6871 78.7785 74.0079V66.4683C78.8461 66.1287 78.7785 65.857 78.5754 65.5174Z" stroke="#BB926A" stroke-width="2" stroke-miterlimit="10" stroke-linecap="round" stroke-linejoin="round"/>
<path d="M78.8458 66.4682V74.0756C78.8458 74.7549 78.5074 75.3662 77.8981 75.7058L72.0766 79.102C71.7382 79.3058 71.332 79.4416 70.9259 79.4416C70.5197 79.4416 70.1135 79.3058 69.7751 79.102L63.9536 75.7058C63.3443 75.3662 63.0059 74.7549 63.0059 74.0756V66.4682C63.0059 66.1285 63.0736 65.7889 63.2766 65.5172C63.412 65.2455 63.6828 64.9738 63.9536 64.838L69.9782 61.3739C70.5197 61.0342 71.2643 61.0342 71.8058 61.3739H71.8735L77.8981 64.9059C77.8981 64.9059 77.9658 64.9059 77.9658 64.9738C77.9658 64.9738 77.9658 64.9738 78.0335 64.9738C78.3043 65.1097 78.5074 65.3814 78.6428 65.5851C78.7781 65.8568 78.8458 66.1285 78.8458 66.4682Z" fill="#F3F6FA"/>
<path d="M78.8458 66.468V74.0755C78.8458 74.7547 78.5073 75.3661 77.8981 75.7057L72.0765 79.1019C71.7381 79.3056 71.3319 79.4415 70.9258 79.4415V69.9321L78.6427 65.5171C78.7781 65.8567 78.8458 66.1284 78.8458 66.468Z" fill="#DBDFE6"/>
<path d="M70.9259 70V79.5094C70.5197 79.5094 70.1135 79.3735 69.7751 79.1697L63.9536 75.7736C63.3443 75.4339 63.0059 74.8226 63.0059 74.1434V66.5359C63.0059 66.1963 63.0736 65.8567 63.2766 65.585L70.9259 70Z" fill="#EAEEF9"/>
<path d="M78.5754 65.5173L70.8585 69.9323L63.1416 65.4493C63.277 65.1776 63.5478 64.906 63.8185 64.7701L69.8431 61.306C70.3847 60.9664 71.1293 60.9664 71.6708 61.306L77.8308 64.906C77.8308 64.906 77.8308 64.906 77.8985 64.906C78.237 65.0418 78.44 65.3135 78.5754 65.5173Z" fill="#F3F6FA"/>
<path d="M67.9831 72.4825L67.9154 72.075C67.9154 71.4636 67.5093 70.6486 66.9 70.3769C66.3585 70.1052 65.9524 70.3089 65.9524 70.9203V71.3278H65.8847C65.6816 71.192 65.4785 71.3278 65.4785 71.5316V73.0259C65.4785 73.4334 65.7493 73.9089 66.0877 74.1127L67.6447 74.9957C67.9831 75.1995 68.2539 75.0636 68.2539 74.6561V73.1617C68.3893 72.89 68.1862 72.6184 67.9831 72.4825ZM67.1708 73.5693C67.1708 73.6372 67.1031 73.7051 67.0354 73.7051H66.9677C66.8324 73.6372 66.7647 73.5014 66.7647 73.3655V72.89C66.7647 72.7542 66.8324 72.6863 66.9677 72.7542C67.1031 72.8221 67.1708 72.958 67.1708 73.0938V73.5693ZM67.5093 72.2108L66.3585 71.5316V71.124C66.3585 70.7844 66.6293 70.6486 66.9677 70.8523C67.2385 71.0561 67.5093 71.4636 67.5093 71.8033V72.2108Z" fill="#BB926A"/>
<path d="M29.7687 16.0687C29.6334 15.797 29.4303 15.5932 29.1595 15.4574C29.1595 15.4574 29.1595 15.4574 29.0918 15.4574L22.9318 11.8574C22.3226 11.5178 21.6457 11.5857 21.1041 11.8574L15.0795 15.3215C14.8088 15.5253 14.538 15.7291 14.4026 16.0007C14.2672 16.2724 14.1318 16.6121 14.1318 16.9517V24.5592C14.1318 25.2384 14.4703 25.8497 15.0795 26.1893L20.9011 29.5855C21.2395 29.7893 21.6457 29.9252 22.0518 29.9252C22.458 29.9252 22.8641 29.7893 23.2026 29.5855L29.0241 26.1893C29.6334 25.8497 29.9718 25.2384 29.9718 24.5592V17.0875C30.0395 16.7479 29.9041 16.4083 29.7687 16.0687Z" stroke="#BB926A" stroke-width="2" stroke-miterlimit="10" stroke-linecap="round" stroke-linejoin="round"/>
<path d="M30.0402 17.0878V24.6953C30.0402 25.3745 29.7017 25.9858 29.0925 26.3254L23.271 29.7216C22.9325 29.9254 22.5263 30.0613 22.1202 30.0613C21.714 30.0613 21.3079 29.9254 20.9694 29.7216L15.1479 26.3254C14.5387 25.9858 14.2002 25.3745 14.2002 24.6953V17.0878C14.2002 16.7482 14.2679 16.4085 14.471 16.1368C14.6063 15.8651 14.8771 15.5935 15.1479 15.4576L21.1725 11.9935C21.714 11.6539 22.4586 11.6539 23.0002 11.9935H23.0679L29.0925 15.5255C29.0925 15.5255 29.1602 15.5255 29.1602 15.5935C29.1602 15.5935 29.1602 15.5935 29.2279 15.5935C29.4986 15.7293 29.7017 16.001 29.8371 16.2048C29.9048 16.4085 30.0402 16.7482 30.0402 17.0878Z" fill="#F3F6FA"/>
<path d="M30.0401 17.0877V24.6951C30.0401 25.3744 29.7016 25.9857 29.0924 26.3253L23.2709 29.7215C22.9324 29.9253 22.5263 30.0611 22.1201 30.0611V20.5518L29.837 16.1367C29.9047 16.4084 30.0401 16.748 30.0401 17.0877Z" fill="#DBDFE6"/>
<path d="M22.0518 20.5518V30.0611C21.6457 30.0611 21.2395 29.9253 20.9011 29.7215L15.0795 26.3253C14.4703 25.9857 14.1318 25.3744 14.1318 24.6951V17.0877C14.1318 16.748 14.1995 16.4084 14.4026 16.1367L22.0518 20.5518Z" fill="#EAEEF9"/>
<path d="M29.7688 16.0685L22.0519 20.4836L14.335 16.0006C14.4703 15.7289 14.7411 15.4572 15.0119 15.3214L21.0365 11.8573C21.578 11.5176 22.3226 11.5176 22.8642 11.8573L29.0242 15.4572C29.0242 15.4572 29.0242 15.4572 29.0919 15.4572C29.4303 15.5931 29.6334 15.8648 29.7688 16.0685Z" fill="#F3F6FA"/>
<path d="M19.1101 23.0338L19.0424 22.6262C19.0424 22.0149 18.6362 21.1998 18.027 20.9281C17.4855 20.6564 17.0793 20.8602 17.0793 21.4715V21.8791H17.0116C16.8085 21.7432 16.6055 21.8791 16.6055 22.0828V23.5772C16.6055 23.9847 16.8762 24.4602 17.2147 24.664L18.7716 25.547C19.1101 25.7507 19.3808 25.6149 19.3808 25.2073V23.713C19.5162 23.5092 19.3132 23.1696 19.1101 23.0338ZM18.2978 24.1206C18.2978 24.1885 18.2301 24.2564 18.1624 24.2564H18.0947C17.9593 24.1885 17.8916 24.0526 17.8916 23.9168V23.4413C17.8916 23.3055 17.9593 23.2375 18.0947 23.3055C18.2301 23.3734 18.2978 23.5092 18.2978 23.6451V24.1206ZM18.6362 22.7621L17.4855 22.0828V21.6753C17.4855 21.3357 17.7562 21.1998 18.0947 21.4036C18.3655 21.6074 18.6362 22.0149 18.6362 22.3545V22.7621Z" fill="#BB926A"/>
<path d="M45.7443 62.2572C54.4925 62.2572 61.5843 55.1411 61.5843 46.363C61.5843 37.5848 54.4925 30.4688 45.7443 30.4688C36.9961 30.4688 29.9043 37.5848 29.9043 46.363C29.9043 55.1411 36.9961 62.2572 45.7443 62.2572Z" fill="#F4F5F5"/>
<path d="M60.1631 46.3628C60.1631 52.3401 56.5754 57.4344 51.4308 59.6759C49.6708 60.4231 47.7754 60.8306 45.7446 60.8306C43.7138 60.8306 41.8185 60.4231 40.0585 59.6759C34.9139 57.5023 31.3262 52.3401 31.3262 46.3628C31.3262 40.3855 34.9139 35.2912 40.0585 33.0497C41.8185 32.3026 43.7138 31.895 45.7446 31.895C47.7754 31.895 49.6708 32.3026 51.4308 33.0497C56.5754 35.2912 60.1631 40.3855 60.1631 46.3628Z" fill="#594B3E"/>
<path d="M50.415 61.6457C50.2796 61.6457 50.0765 61.5778 49.9411 61.5099C49.6027 61.2382 49.535 60.7627 49.8057 60.4231C50.1442 59.9476 50.4827 59.5401 50.8888 59.1325C53.6642 56.3476 55.2888 51.525 55.2888 46.3628C55.2888 41.2006 53.6642 36.4459 50.8888 33.5931C50.5504 33.2535 50.2796 32.9139 49.9411 32.5743C49.6704 32.2346 49.7381 31.7592 50.0765 31.4875C50.415 31.2158 50.8888 31.2837 51.1596 31.6233C51.4304 31.9629 51.7011 32.2346 51.9719 32.5063C55.0181 35.6308 56.8457 40.7931 56.8457 46.3628C56.8457 51.9326 55.0181 57.0948 51.9719 60.2193C51.6334 60.5589 51.295 60.9665 51.0242 61.3061C50.8888 61.5778 50.6181 61.6457 50.415 61.6457Z" fill="#F4F5F5"/>
<path d="M40.8023 61.2384C40.5992 61.2384 40.3284 61.1705 40.193 60.9667C39.99 60.695 39.7869 60.4913 39.5838 60.2875C36.5377 57.163 34.71 52.0008 34.71 46.431C34.71 40.8613 36.5377 35.699 39.5838 32.5745C39.7869 32.3708 39.99 32.0991 40.193 31.8953C40.4638 31.5557 40.9376 31.4877 41.2761 31.7594C41.6146 32.0311 41.6823 32.5066 41.4115 32.8462C41.2084 33.1179 40.9376 33.3896 40.6669 33.6613C37.8915 36.4462 36.1992 41.2009 36.1992 46.3631C36.1992 51.5253 37.8238 56.28 40.6669 59.1328C40.9376 59.4045 41.1407 59.6762 41.4115 59.9479C41.6823 60.2875 41.6146 60.763 41.2761 61.0347C41.1407 61.1705 40.9376 61.2384 40.8023 61.2384Z" fill="#F4F5F5"/>
<path d="M45.7439 62.1887C45.3378 62.1887 44.9316 61.8491 44.9316 61.3736V31.3512C44.9316 30.9437 45.2701 30.5361 45.7439 30.5361C46.2178 30.5361 46.5563 30.8758 46.5563 31.3512V61.3736C46.5563 61.8491 46.2178 62.1887 45.7439 62.1887Z" fill="#F4F5F5"/>
<path d="M59.0797 41.6761H32.409C32.0028 41.6761 31.5967 41.3365 31.5967 40.861C31.5967 40.4534 31.9351 40.0459 32.409 40.0459H59.0797C59.4859 40.0459 59.892 40.3855 59.892 40.861C59.892 41.3365 59.5536 41.6761 59.0797 41.6761Z" fill="#F4F5F5"/>
<path d="M59.0797 52.68H32.409C32.0028 52.68 31.5967 52.3404 31.5967 51.8649C31.5967 51.3894 31.9351 51.0498 32.409 51.0498H59.0797C59.4859 51.0498 59.892 51.3894 59.892 51.8649C59.892 52.3404 59.5536 52.68 59.0797 52.68Z" fill="#F4F5F5"/>
<path d="M35.8615 49.6914C34.643 49.6914 33.6953 48.7404 33.6953 47.5178C33.6953 46.2952 34.643 45.3442 35.8615 45.3442C37.0799 45.3442 38.0276 46.2952 38.0276 47.5178C38.0276 48.7404 37.0799 49.6914 35.8615 49.6914Z" fill="#BB926A"/>
<path d="M49.4676 39.2308C48.3168 39.2308 47.3691 38.2799 47.3691 37.1252C47.3691 35.9705 48.3168 35.0195 49.4676 35.0195C50.6184 35.0195 51.5661 35.9705 51.5661 37.1252C51.5661 38.2799 50.6184 39.2308 49.4676 39.2308Z" fill="#BB926A"/>
<path d="M51.9718 56.0761C50.8211 56.0761 49.8057 55.1252 49.8057 53.9026C49.8057 52.7479 50.7534 51.729 51.9718 51.729C53.1226 51.729 54.138 52.6799 54.138 53.9026C54.138 55.1252 53.1226 56.0761 51.9718 56.0761Z" fill="#BB926A"/>
<path d="M49.3319 61.1705C49.2642 61.1705 49.1965 61.1705 49.1288 61.1026C48.9934 60.9667 48.9257 60.7629 49.0611 60.5592C49.1965 60.3554 49.3319 60.2196 49.3996 60.0158C49.5349 59.812 49.738 59.812 49.9411 59.8799C50.1442 60.0158 50.1442 60.2196 50.0765 60.4233C49.9411 60.6271 49.8057 60.8309 49.6703 61.0346C49.5349 61.1705 49.4673 61.1705 49.3319 61.1705ZM50.5503 59.1328C50.4826 59.1328 50.4149 59.1328 50.4149 59.0648C50.2119 58.9969 50.1442 58.7252 50.2119 58.5894C50.2796 58.3856 50.4149 58.1818 50.4826 57.9781C50.5503 57.7743 50.7534 57.7064 50.9565 57.7743C51.1596 57.8422 51.2273 58.046 51.1596 58.2498C51.0919 58.4535 50.9565 58.6573 50.8888 58.8611C50.8211 59.0649 50.6857 59.1328 50.5503 59.1328ZM51.3626 56.8913C51.2949 56.8913 51.2949 56.8913 51.2273 56.8913C51.0242 56.8234 50.8888 56.6196 50.9565 56.4158C51.0242 56.212 51.0919 56.0083 51.1596 55.8045C51.2273 55.6007 51.4303 55.4649 51.6334 55.5328C51.8365 55.6007 51.9719 55.8045 51.9042 56.0083C51.8365 56.212 51.7688 56.4837 51.7011 56.6875C51.7011 56.8234 51.5657 56.8913 51.3626 56.8913Z" fill="#BB926A"/>
<path d="M52.378 51.5932C52.3103 51.5932 52.3103 51.5932 52.378 51.5932C52.1749 51.5932 51.9719 51.3895 51.9719 51.1857C51.9719 50.9819 51.9719 50.7102 52.0395 50.5064C52.0395 50.3027 52.2426 50.1668 52.4457 50.1668C52.6488 50.1668 52.7842 50.3706 52.7842 50.5744C52.7842 50.7781 52.7842 51.0498 52.7165 51.2536C52.7165 51.4574 52.5134 51.5932 52.378 51.5932ZM52.378 49.2159C52.1749 49.2159 52.0396 49.08 51.9719 48.8763C51.9719 48.6725 51.9719 48.4008 51.9719 48.197C51.9719 47.9933 52.1072 47.7895 52.3103 47.7895C52.5134 47.7895 52.7165 47.9253 52.7165 48.1291C52.7165 48.3329 52.7165 48.6046 52.7165 48.8084C52.7842 49.08 52.6488 49.2159 52.378 49.2159ZM52.2426 46.8386C52.0395 46.8386 51.9042 46.7027 51.9042 46.4989C51.9042 46.2952 51.8365 46.0235 51.8365 45.8197C51.8365 45.6159 51.9719 45.4122 52.1749 45.4122C52.378 45.4122 52.5811 45.548 52.5811 45.7518C52.5811 45.9555 52.6488 46.2272 52.6488 46.431C52.6488 46.6348 52.5134 46.8386 52.2426 46.8386ZM51.9042 44.5291C51.7011 44.5291 51.5657 44.3933 51.5657 44.2574C51.498 44.0537 51.498 43.8499 51.4303 43.5782C51.3626 43.3744 51.498 43.1707 51.7011 43.1027C51.9042 43.0348 52.1072 43.1707 52.1749 43.3744C52.2426 43.5782 52.2426 43.8499 52.3103 44.0537C52.378 44.2574 52.2426 44.4612 52.0395 44.4612C51.9719 44.5291 51.9042 44.5291 51.9042 44.5291ZM51.3626 42.2197C51.2272 42.2197 51.0242 42.0839 51.0242 41.948C50.9565 41.7443 50.8888 41.5405 50.8211 41.3367C50.7534 41.1329 50.8888 40.9292 51.0919 40.8613C51.2949 40.7933 51.498 40.9292 51.5657 41.1329C51.6334 41.3367 51.7011 41.5405 51.7688 41.8122C51.8365 42.016 51.7011 42.2197 51.498 42.2877C51.4303 42.1518 51.3626 42.2197 51.3626 42.2197ZM50.618 39.9103C50.4826 39.9103 50.3472 39.8424 50.2796 39.6386C50.2119 39.4348 50.1442 39.2311 50.0088 39.0273C49.9411 38.8235 50.0088 38.6198 50.2119 38.5518C50.4149 38.4839 50.618 38.5518 50.6857 38.7556C50.7534 38.9594 50.8888 39.1632 50.9565 39.3669C51.0242 39.5707 50.9565 39.7745 50.7534 39.8424C50.6857 39.9103 50.618 39.9103 50.618 39.9103Z" fill="#BB926A"/>
<path d="M48.0457 35.0198C47.9103 35.0198 47.8426 34.9518 47.7072 34.8839C47.5718 34.6801 47.4365 34.5443 47.3011 34.3405C47.1657 34.2047 47.2334 33.933 47.3688 33.7971C47.5041 33.6613 47.7749 33.7292 47.9103 33.865C48.0457 34.0688 48.1811 34.2047 48.3165 34.4084C48.4518 34.5443 48.3841 34.816 48.2488 34.9518C48.1811 35.0198 48.1134 35.0198 48.0457 35.0198ZM46.5565 33.1858C46.4888 33.1858 46.3534 33.1179 46.2857 33.05C46.1503 32.9141 45.9472 32.7103 45.8118 32.5745C45.6765 32.4386 45.6765 32.1669 45.8118 32.0311C45.9472 31.8953 46.218 31.8953 46.3534 32.0311C46.4888 32.1669 46.6918 32.3707 46.8272 32.5066C46.9626 32.6424 46.9626 32.9141 46.8272 33.05C46.7595 33.1858 46.6242 33.1858 46.5565 33.1858ZM44.7965 31.6236C44.7288 31.6236 44.6611 31.6236 44.5934 31.5556C44.3903 31.4198 44.2549 31.2839 44.0518 31.1481C43.8488 31.0122 43.8488 30.8085 43.9165 30.6047C44.0518 30.4009 44.2549 30.4009 44.458 30.4688C44.6611 30.6047 44.8642 30.7405 44.9995 30.8764C45.1349 31.0122 45.2026 31.216 45.0672 31.4198C44.9995 31.5556 44.9318 31.6236 44.7965 31.6236Z" fill="#BB926A"/>
<path d="M34.4396 46.3629C34.3719 46.3629 34.2365 46.295 34.1688 46.2271C34.0334 46.0912 33.8304 45.8875 33.695 45.6837C33.5596 45.5478 33.5596 45.2761 33.695 45.1403C33.8304 45.0044 34.1011 45.0044 34.2365 45.1403C34.3719 45.2761 34.5073 45.4799 34.7104 45.6158C34.8458 45.7516 34.8458 46.0233 34.7104 46.1592C34.575 46.3629 34.5073 46.3629 34.4396 46.3629ZM32.8827 44.5969C32.7473 44.5969 32.6796 44.529 32.6119 44.4611C32.4765 44.2573 32.3411 44.0535 32.2058 43.9177C32.0704 43.7139 32.1381 43.5101 32.2735 43.3743C32.4765 43.2384 32.6796 43.3064 32.815 43.4422C32.9504 43.646 33.0858 43.7818 33.2211 43.9856C33.3565 44.1214 33.2888 44.3931 33.1535 44.529C33.0181 44.529 32.9504 44.5969 32.8827 44.5969ZM31.5965 42.5592C31.4611 42.5592 31.3258 42.4913 31.2581 42.3554C31.1227 42.1516 31.055 41.9479 30.9873 41.7441C30.9196 41.5403 30.9873 41.3366 31.1904 41.2686C31.3935 41.2007 31.5965 41.2686 31.6642 41.4724C31.7319 41.6762 31.8673 41.88 31.935 42.0837C32.0027 42.2875 31.935 42.4913 31.7996 42.5592C31.7319 42.5592 31.6642 42.5592 31.5965 42.5592Z" fill="#BB926A"/>
<path d="M50.0086 54.0383C49.941 54.0383 49.941 54.0383 50.0086 54.0383C49.7379 54.0383 49.5348 53.9704 49.264 53.9704C49.061 53.9704 48.9256 53.7666 48.9256 53.5628C48.9256 53.3591 49.1286 53.2232 49.3317 53.2232C49.5348 53.2911 49.8056 53.2911 50.0086 53.2911C50.2117 53.2911 50.3471 53.4949 50.3471 53.6987C50.3471 53.9024 50.144 54.0383 50.0086 54.0383ZM47.6394 53.6307H47.5717C47.3687 53.5628 47.0979 53.4949 46.8948 53.4949C46.6917 53.427 46.5563 53.2232 46.624 53.0194C46.6917 52.8157 46.8948 52.6798 47.0979 52.7477C47.301 52.8157 47.504 52.8836 47.7748 52.8836C47.9779 52.9515 48.1133 53.1553 48.0456 53.3591C47.9779 53.4949 47.8425 53.6307 47.6394 53.6307ZM45.3379 52.9515C45.2702 52.9515 45.2702 52.9515 45.2025 52.9515C44.9994 52.8836 44.7963 52.8157 44.5256 52.7477C44.3225 52.6798 44.2548 52.476 44.3225 52.2723C44.3902 52.0685 44.5933 52.0006 44.7963 52.0685C44.9994 52.1364 45.2025 52.2043 45.4056 52.2723C45.6087 52.3402 45.744 52.544 45.6763 52.7477C45.6763 52.8836 45.541 52.9515 45.3379 52.9515ZM43.104 52.1364C43.0363 52.1364 43.0363 52.1364 42.9687 52.1364C42.7656 52.0685 42.5625 51.9326 42.3594 51.8647C42.1563 51.7968 42.0887 51.593 42.1563 51.3893C42.224 51.1855 42.4271 51.1176 42.6302 51.1855C42.8333 51.2534 43.0363 51.3893 43.2394 51.4572C43.4425 51.5251 43.5102 51.7289 43.4425 51.9326C43.3748 52.0685 43.2394 52.1364 43.104 52.1364ZM40.9379 51.1855C40.8702 51.1855 40.8025 51.1855 40.7348 51.1176C40.5317 50.9817 40.3287 50.9138 40.1256 50.7779C39.9225 50.71 39.8548 50.4383 39.9902 50.3025C40.0579 50.0987 40.3287 50.0308 40.464 50.1666C40.6671 50.3025 40.8702 50.3704 41.0733 50.5062C41.2764 50.5742 41.344 50.8459 41.2087 50.9817C41.2087 51.1176 41.0733 51.1855 40.9379 51.1855ZM38.9071 50.0308C38.8394 50.0308 38.7717 50.0308 38.704 49.9629C38.501 49.827 38.2979 49.6912 38.0948 49.5553C37.8917 49.4195 37.8917 49.2157 37.9594 49.0119C38.0948 48.8082 38.2979 48.8081 38.501 48.8761C38.704 49.0119 38.9071 49.1478 39.0425 49.2157C39.2456 49.3515 39.2456 49.5553 39.1779 49.7591C39.1102 49.9629 39.0425 50.0308 38.9071 50.0308Z" fill="#BB926A"/>
<path d="M54.8824 54.1065C54.6793 54.1065 54.5439 53.9706 54.5439 53.7668C54.5439 53.5631 54.6793 53.3593 54.8824 53.3593C55.0855 53.3593 55.3563 53.2914 55.5593 53.2914C55.7624 53.2914 55.9655 53.4272 55.9655 53.631C55.9655 53.8348 55.8301 54.0385 55.627 54.0385C55.4239 54.0385 55.1532 54.0385 54.8824 54.1065C54.9501 54.1065 54.8824 54.1065 54.8824 54.1065ZM57.2516 53.6989C57.1162 53.6989 56.9132 53.5631 56.9132 53.4272C56.8455 53.2235 56.9809 53.0197 57.1839 52.9518C57.387 52.8838 57.5901 52.8159 57.7932 52.748C57.9963 52.6801 58.1993 52.8159 58.267 53.0197C58.3347 53.2235 58.1993 53.4272 57.9962 53.4951C57.7932 53.5631 57.5224 53.631 57.3193 53.6989C57.3193 53.631 57.2516 53.6989 57.2516 53.6989ZM59.4855 52.8838C59.3501 52.8838 59.2147 52.8159 59.147 52.6801C59.0793 52.4763 59.147 52.2725 59.3501 52.2046C59.5532 52.1367 59.7562 52.0008 59.9593 51.9329C60.1624 51.865 60.3655 51.9329 60.4332 52.0687C60.5009 52.2046 60.4332 52.4763 60.2978 52.5442C60.0947 52.6801 59.8916 52.748 59.6886 52.8838C59.5532 52.8838 59.4855 52.8838 59.4855 52.8838Z" fill="#BB926A"/>
<path d="M51.3629 37.0576C51.1598 37.0576 51.0244 36.9218 51.0244 36.7859C50.9568 36.5822 51.0921 36.3784 51.2952 36.3105C51.4983 36.2426 51.7691 36.1746 51.9721 36.1746C52.1752 36.1067 52.3783 36.2426 52.3783 36.4463C52.446 36.6501 52.3106 36.8539 52.1075 36.8539C51.9044 36.9218 51.7014 36.9218 51.4306 36.9897C51.4306 37.0576 51.4306 37.0576 51.3629 37.0576ZM53.7321 36.6501C53.5291 36.6501 53.3937 36.5143 53.3937 36.3105C53.3937 36.1067 53.5291 35.9029 53.7321 35.9029C53.9352 35.9029 54.206 35.835 54.4091 35.835C54.6121 35.835 54.8152 35.9709 54.8152 36.1746C54.8152 36.3784 54.6798 36.5822 54.4767 36.5822C54.206 36.5822 54.0029 36.6501 53.7321 36.6501ZM56.7783 36.5822C56.5075 36.5822 56.3044 36.5822 56.1014 36.5143C55.8983 36.5143 55.7629 36.3105 55.7629 36.1067C55.7629 35.9029 55.8983 35.7671 56.1691 35.7671C56.3721 35.7671 56.6429 35.7671 56.846 35.835C57.0491 35.835 57.1844 36.0388 57.1844 36.2426C57.1167 36.4463 56.9814 36.5822 56.7783 36.5822Z" fill="#BB926A"/>
<path d="M37.0116 46.2272C36.9439 46.2272 36.8762 46.2272 36.8085 46.1593C36.6731 46.0235 36.6054 45.8197 36.7408 45.6159C36.8762 45.4121 37.0116 45.2763 37.1469 45.0725C37.2823 44.9367 37.4854 44.8688 37.6885 45.0046C37.8239 45.1404 37.8916 45.3442 37.7562 45.548C37.6208 45.7518 37.4854 45.8876 37.35 46.0914C37.2823 46.1593 37.1469 46.2272 37.0116 46.2272ZM38.6362 44.4612C38.5685 44.4612 38.4331 44.3933 38.3654 44.3254C38.23 44.1895 38.23 43.9178 38.3654 43.782C38.5008 43.6461 38.7039 43.4423 38.8392 43.3065C38.9746 43.1707 39.2454 43.1707 39.3808 43.3065C39.5162 43.4423 39.5162 43.714 39.3808 43.8499C39.2454 43.9857 39.0423 44.1895 38.9069 44.3254C38.8392 44.3933 38.7039 44.4612 38.6362 44.4612ZM40.3285 42.831C40.1931 42.831 40.1254 42.7631 40.0577 42.6952C39.9223 42.5593 39.9223 42.2876 40.1254 42.1518C40.3285 42.0159 40.4639 41.8801 40.6669 41.6763C40.8023 41.5405 41.0731 41.5405 41.2085 41.7443C41.3439 41.8801 41.3439 42.1518 41.1408 42.2876C40.9377 42.4235 40.8023 42.5593 40.5992 42.6952C40.5316 42.831 40.4639 42.831 40.3285 42.831ZM42.2239 41.3367C42.0885 41.3367 42.0208 41.2688 41.9531 41.2009C41.8177 41.065 41.8854 40.7933 42.0208 40.6575C42.1562 40.5216 42.2915 40.4537 42.4946 40.3178L42.63 40.2499C42.8331 40.1141 43.0362 40.182 43.1715 40.3178C43.3069 40.5216 43.2392 40.7254 43.1039 40.8612L42.9685 40.9292C42.8331 41.065 42.6977 41.1329 42.4946 41.2688C42.3592 41.3367 42.2916 41.3367 42.2239 41.3367ZM44.1869 40.0462C44.0515 40.0462 43.9162 39.9782 43.8485 39.8424C43.7131 39.6386 43.7808 39.4348 43.9839 39.299C44.1869 39.1631 44.39 39.0952 44.5931 38.9594C44.7962 38.8235 44.9992 38.8914 45.1346 39.0952C45.27 39.299 45.2023 39.5028 44.9992 39.6386C44.7962 39.7745 44.5931 39.8424 44.39 39.9782C44.3223 40.0462 44.2546 40.0462 44.1869 40.0462ZM46.2854 38.8914C46.15 38.8914 46.0146 38.8235 45.9469 38.6877C45.8792 38.4839 45.9469 38.2801 46.15 38.2122C46.3531 38.1443 46.5562 38.0084 46.7592 37.9405C46.9623 37.8726 47.1654 37.9405 47.2331 38.1443C47.3008 38.3481 47.2331 38.5518 47.03 38.6197C46.8269 38.6877 46.6239 38.8235 46.4208 38.8914C46.4208 38.8914 46.3531 38.8914 46.2854 38.8914Z" fill="#BB926A"/>
<path d="M33.0858 55.7366C32.8828 55.7366 32.6797 55.5328 32.6797 55.3291C32.6797 55.1253 32.6797 54.8536 32.6797 54.6498C32.6797 54.4461 32.8828 54.3102 33.0858 54.3102C33.2889 54.3102 33.4243 54.514 33.4243 54.7178C33.4243 54.9215 33.4243 55.1253 33.4243 55.397C33.4243 55.6008 33.2889 55.7366 33.0858 55.7366ZM33.3566 53.4272H33.2889C33.0858 53.3593 32.9505 53.1555 33.0181 52.9517C33.0858 52.748 33.1535 52.4763 33.2212 52.2725C33.2889 52.0687 33.492 51.9329 33.6951 52.0008C33.8981 52.0687 34.0335 52.2725 33.9658 52.4763C33.8981 52.68 33.8305 52.8838 33.8305 53.0876C33.6951 53.2914 33.5597 53.4272 33.3566 53.4272ZM34.1012 51.1178C34.0335 51.1178 34.0335 51.1178 33.9658 51.1178C33.7628 51.0499 33.6951 50.8461 33.7628 50.6423C33.8305 50.4385 33.9658 50.2348 34.0335 50.031C34.1012 49.8272 34.372 49.7593 34.5074 49.8272C34.7105 49.8952 34.7781 50.1669 34.7105 50.3027C34.6428 50.5065 34.5074 50.7102 34.4397 50.914C34.372 51.0499 34.2366 51.1178 34.1012 51.1178Z" fill="#BB926A"/>
<defs>
<linearGradient id="paint0_linear_3638_116245" x1="-nan" y1="-nan" x2="-nan" y2="-nan" gradientUnits="userSpaceOnUse">
<stop stop-color="#51DFD4"/>
<stop offset="1" stop-color="#1BE068"/>
</linearGradient>
<linearGradient id="paint1_linear_3638_116245" x1="-nan" y1="-nan" x2="-nan" y2="-nan" gradientUnits="userSpaceOnUse">
<stop stop-color="#51DFD4"/>
<stop offset="1" stop-color="#1BE068"/>
</linearGradient>
<linearGradient id="paint2_linear_3638_116245" x1="-nan" y1="-nan" x2="-nan" y2="-nan" gradientUnits="userSpaceOnUse">
<stop stop-color="#51DFD4"/>
<stop offset="1" stop-color="#1BE068"/>
</linearGradient>
<linearGradient id="paint3_linear_3638_116245" x1="-nan" y1="-nan" x2="-nan" y2="-nan" gradientUnits="userSpaceOnUse">
<stop stop-color="#51DFD4"/>
<stop offset="1" stop-color="#1BE068"/>
</linearGradient>
</defs>
</svg>
