<svg width="143" height="145" viewBox="0 0 143 145" fill="none" xmlns="http://www.w3.org/2000/svg">
<path d="M53.5381 59.5774V87.1191C53.5381 89.514 54.9379 91.909 56.9377 93.1064L78.1354 105.281C79.3353 106.079 80.9351 106.478 82.335 106.478V72.1508L54.538 56.1846C53.7381 57.1825 53.5381 58.3799 53.5381 59.5774Z" fill="#EAEEF9"/>
<path d="M82.335 72.1508V106.478C83.7348 106.478 85.1347 106.079 86.5345 105.281L107.732 93.1064C109.932 91.909 111.132 89.7136 111.132 87.1191V59.5774C111.132 58.3799 110.732 57.1825 110.132 56.1846L82.335 72.1508Z" fill="#C2C8D6"/>
<path d="M54.3379 56.1843L82.1349 72.1505L110.132 55.9847C109.532 54.9868 108.732 53.989 107.532 53.3902L85.7345 40.8168C83.7347 39.6194 81.135 39.6194 78.9352 40.6173L56.7377 53.7894C56.7377 53.7894 56.7377 53.7894 56.5377 53.7894C55.7378 54.3881 54.9379 55.1864 54.3379 56.1843Z" fill="white"/>
<path d="M53.5381 20.8362V48.3779C53.5381 50.7728 54.9379 53.1677 56.9377 54.3652L78.1354 66.5394C79.3353 67.3378 80.9351 67.7369 82.335 67.7369V33.4096L54.538 17.4434C53.7381 18.4412 53.5381 19.6387 53.5381 20.8362Z" fill="#D5DDEA"/>
<path d="M82.335 33.4096V67.7369C83.7348 67.7369 85.1347 67.3378 86.5345 66.5394L107.732 54.3652C109.932 53.1677 111.132 50.9724 111.132 48.3779V20.8362C111.132 19.6387 110.732 18.4412 110.132 17.4434L82.335 33.4096Z" fill="#C2C8D6"/>
<path d="M54.3379 17.4431L82.1349 33.4093L110.132 17.2435C109.532 16.2456 108.732 15.2477 107.532 14.649L85.7345 2.07563C83.7347 0.878163 81.135 0.878163 78.9352 1.87605L56.7377 15.0482C56.7377 15.0482 56.7377 15.0482 56.5377 15.0482C55.7378 15.6469 54.9379 16.4452 54.3379 17.4431Z" fill="white"/>
<path d="M85.1582 77.7371V105.279C85.1582 107.674 86.5581 110.069 88.5578 111.266L109.756 123.44C110.955 124.239 112.555 124.638 113.955 124.638V90.3104L86.1581 74.3442C85.3582 75.3421 85.1582 76.5396 85.1582 77.7371Z" fill="#D5DDEA"/>
<path d="M113.955 90.3104V124.638C115.355 124.638 116.755 124.239 118.155 123.44L139.352 111.266C141.552 110.069 142.752 107.873 142.752 105.279V77.7371C142.752 76.5396 142.352 75.3421 141.752 74.3442L113.955 90.3104Z" fill="#C2C8D6"/>
<path d="M85.958 74.344L113.755 90.3102L141.752 74.1444C141.152 73.1465 140.352 72.1486 139.152 71.5499L117.355 58.9765C115.355 57.779 112.755 57.779 110.555 58.7769L88.3578 71.9491C88.3578 71.9491 88.3578 71.9491 88.1578 71.9491C87.3579 72.5478 86.558 73.3461 85.958 74.344Z" fill="#EAEEF9"/>
<path d="M21.919 78.948V106.49C21.919 108.885 23.3188 111.28 25.3186 112.477L46.5163 124.651C47.7161 125.45 49.316 125.849 50.7158 125.849V91.5214L22.9188 75.5552C22.1189 76.5531 21.919 77.7505 21.919 78.948Z" fill="#D5DDEA"/>
<path d="M50.7158 91.5214V125.849C52.1157 125.849 53.5155 125.45 54.9154 124.651L76.1131 112.477C78.3128 111.28 79.5127 109.084 79.5127 106.49V78.948C79.5127 77.7505 79.1127 76.5531 78.5128 75.5552L50.7158 91.5214Z" fill="#C2C8D6"/>
<path d="M22.7198 75.5544L50.5167 91.5206L78.5137 75.3549C77.9137 74.357 77.1138 73.3591 75.914 72.7603L54.1163 60.187C52.1166 58.9895 49.5168 58.9895 47.3171 59.9874L25.1195 73.1595C25.1195 73.1595 25.1195 73.1595 24.9195 73.1595C24.1196 73.7582 23.3197 74.5565 22.7198 75.5544Z" fill="#F5F5F5"/>
<path d="M85.1582 38.9963V66.538C85.1582 68.933 86.5581 71.3279 88.5578 72.5254L109.756 84.6996C110.955 85.4979 112.555 85.8971 113.955 85.8971V51.5697L86.1581 35.6035C85.3582 36.6014 85.1582 37.7989 85.1582 38.9963Z" fill="#D5DDEA"/>
<path d="M113.955 51.5697V85.8971C115.355 85.8971 116.755 85.4979 118.155 84.6996L139.352 72.5254C141.552 71.3279 142.752 69.1325 142.752 66.538V38.9963C142.752 37.7989 142.352 36.6014 141.752 35.6035L113.955 51.5697Z" fill="#C2C8D6"/>
<path d="M85.958 35.6028L113.755 51.569L141.752 35.4032C141.152 34.4053 140.352 33.4074 139.152 32.8087L117.355 20.2353C115.355 19.0378 112.755 19.0378 110.555 20.0357L88.3578 33.2078C88.3578 33.2078 88.3578 33.2078 88.1578 33.2078C87.3579 33.8066 86.558 34.6049 85.958 35.6028Z" fill="white"/>
<path d="M-0.000965118 19.6853V47.227C-0.000965118 49.6219 1.39888 52.0169 3.39866 53.2143L24.5964 65.3886C25.7962 66.1869 27.3961 66.586 28.7959 66.586V32.2587L0.998926 16.2925C0.199013 17.2904 -0.000965118 18.4878 -0.000965118 19.6853Z" fill="#CEA47A"/>
<path d="M28.7959 32.2587V66.586C30.1958 66.586 31.5956 66.1869 32.9955 65.3886L54.1931 53.2143C56.3929 52.0169 57.5928 49.8215 57.5928 47.227V19.6853C57.5928 18.4878 57.1928 17.2904 56.5929 16.2925L28.7959 32.2587Z" fill="#BB926A"/>
<path d="M0.799835 16.2922L28.5968 32.2584L56.5938 16.0926C55.9938 15.0948 55.1939 14.0969 53.994 13.4981L32.1964 0.92475C30.1966 -0.272716 27.5969 -0.272716 25.3972 0.725172L3.19957 13.8973C3.19957 13.8973 3.19957 13.8973 2.9996 13.8973C2.19968 14.496 1.39977 15.2943 0.799835 16.2922Z" fill="#DDB38A"/>
<path d="M53.5381 97.1077V124.649C53.5381 127.044 54.9379 129.439 56.9377 130.637L78.1354 142.811C79.3353 143.609 80.9351 144.008 82.335 144.008V109.681L54.538 93.7148C53.7381 94.7127 53.5381 95.9102 53.5381 97.1077Z" fill="#D5DDEA"/>
<path d="M82.335 109.681V144.008C83.7348 144.008 85.1347 143.609 86.5345 142.811L107.732 130.637C109.932 129.439 111.132 127.244 111.132 124.649V97.1077C111.132 95.9102 110.732 94.7127 110.132 93.7148L82.335 109.681Z" fill="#C2C8D6"/>
<path d="M54.3379 93.7146L82.1349 109.681L110.132 93.515C109.532 92.5171 108.732 91.5192 107.532 90.9205L85.7345 78.3471C83.7347 77.1496 81.135 77.1496 78.9352 78.1475L56.7377 91.3197C56.7377 91.3197 56.7377 91.3197 56.5377 91.3197C55.7378 91.9184 54.9379 92.7167 54.3379 93.7146Z" fill="#EAEEF9"/>
<path d="M53.5381 58.3665V85.9082C53.5381 88.3031 54.9379 90.698 56.9377 91.8955L78.1354 104.07C79.3353 104.868 80.9351 105.267 82.335 105.267V70.9398L54.538 54.9736C53.7381 55.9715 53.5381 57.169 53.5381 58.3665Z" fill="#D5DDEA"/>
<path d="M82.335 70.9398V105.267C83.7348 105.267 85.1347 104.868 86.5345 104.07L107.732 91.8955C109.932 90.698 111.132 88.5027 111.132 85.9082V58.3665C111.132 57.169 110.732 55.9715 110.132 54.9736L82.335 70.9398Z" fill="#C2C8D6"/>
<path d="M54.3379 54.9734L82.1349 70.9396L110.132 54.7738C109.532 53.7759 108.732 52.778 107.532 52.1793L85.7345 39.6059C83.7347 38.4084 81.135 38.4084 78.9352 39.4063L56.7377 52.5784C56.7377 52.5784 56.7377 52.5784 56.5377 52.5784C55.7378 53.1772 54.9379 53.9755 54.3379 54.9734Z" fill="white"/>
</svg>
