<svg width="4" height="61" viewBox="0 0 4 61" fill="none" xmlns="http://www.w3.org/2000/svg">
<circle cx="0.480316" cy="5.28311" r="0.480316" transform="rotate(-90 0.480316 5.28311)" fill="#C2CDD5"/>
<circle cx="0.480316" cy="12.4882" r="0.480316" transform="rotate(-90 0.480316 12.4882)" fill="#C2CDD5"/>
<circle cx="0.480316" cy="0.480377" r="0.480316" transform="rotate(-90 0.480316 0.480377)" fill="#C2CDD5"/>
<circle cx="0.480316" cy="7.68497" r="0.480316" transform="rotate(-90 0.480316 7.68497)" fill="#C2CDD5"/>
<circle cx="0.480316" cy="14.8896" r="0.480316" transform="rotate(-90 0.480316 14.8896)" fill="#C2CDD5"/>
<circle cx="0.480316" cy="2.88174" r="0.480316" transform="rotate(-90 0.480316 2.88174)" fill="#C2CDD5"/>
<circle cx="0.480316" cy="10.0868" r="0.480316" transform="rotate(-90 0.480316 10.0868)" fill="#C2CDD5"/>
<circle cx="0.480316" cy="17.2914" r="0.480316" transform="rotate(-90 0.480316 17.2914)" fill="#C2CDD5"/>
<circle cx="2.88193" cy="5.28311" r="0.480316" transform="rotate(-90 2.88193 5.28311)" fill="#C2CDD5"/>
<circle cx="2.88193" cy="12.4882" r="0.480316" transform="rotate(-90 2.88193 12.4882)" fill="#C2CDD5"/>
<circle cx="2.88193" cy="0.480377" r="0.480316" transform="rotate(-90 2.88193 0.480377)" fill="#C2CDD5"/>
<circle cx="2.88193" cy="7.68497" r="0.480316" transform="rotate(-90 2.88193 7.68497)" fill="#C2CDD5"/>
<circle cx="2.88193" cy="14.8896" r="0.480316" transform="rotate(-90 2.88193 14.8896)" fill="#C2CDD5"/>
<circle cx="2.88193" cy="2.88174" r="0.480316" transform="rotate(-90 2.88193 2.88174)" fill="#C2CDD5"/>
<circle cx="2.88193" cy="10.0868" r="0.480316" transform="rotate(-90 2.88193 10.0868)" fill="#C2CDD5"/>
<circle cx="2.88193" cy="17.2914" r="0.480316" transform="rotate(-90 2.88193 17.2914)" fill="#C2CDD5"/>
<circle cx="0.480316" cy="41.3075" r="0.480316" transform="rotate(-90 0.480316 41.3075)" fill="#C2CDD5"/>
<circle cx="0.480316" cy="48.5116" r="0.480316" transform="rotate(-90 0.480316 48.5116)" fill="#C2CDD5"/>
<circle cx="0.480316" cy="55.7167" r="0.480316" transform="rotate(-90 0.480316 55.7167)" fill="#C2CDD5"/>
<circle cx="0.480316" cy="43.7089" r="0.480316" transform="rotate(-90 0.480316 43.7089)" fill="#C2CDD5"/>
<circle cx="0.480316" cy="50.9135" r="0.480316" transform="rotate(-90 0.480316 50.9135)" fill="#C2CDD5"/>
<circle cx="0.480316" cy="58.1181" r="0.480316" transform="rotate(-90 0.480316 58.1181)" fill="#C2CDD5"/>
<circle cx="0.480316" cy="46.1103" r="0.480316" transform="rotate(-90 0.480316 46.1103)" fill="#C2CDD5"/>
<circle cx="0.480316" cy="53.3153" r="0.480316" transform="rotate(-90 0.480316 53.3153)" fill="#C2CDD5"/>
<circle cx="0.480316" cy="60.5199" r="0.480316" transform="rotate(-90 0.480316 60.5199)" fill="#C2CDD5"/>
<circle cx="2.88193" cy="41.3075" r="0.480316" transform="rotate(-90 2.88193 41.3075)" fill="#C2CDD5"/>
<circle cx="2.88193" cy="48.5116" r="0.480316" transform="rotate(-90 2.88193 48.5116)" fill="#C2CDD5"/>
<circle cx="2.88193" cy="55.7167" r="0.480316" transform="rotate(-90 2.88193 55.7167)" fill="#C2CDD5"/>
<circle cx="2.88193" cy="43.7089" r="0.480316" transform="rotate(-90 2.88193 43.7089)" fill="#C2CDD5"/>
<circle cx="2.88193" cy="50.9135" r="0.480316" transform="rotate(-90 2.88193 50.9135)" fill="#C2CDD5"/>
<circle cx="2.88193" cy="58.1181" r="0.480316" transform="rotate(-90 2.88193 58.1181)" fill="#C2CDD5"/>
<circle cx="2.88193" cy="46.1103" r="0.480316" transform="rotate(-90 2.88193 46.1103)" fill="#C2CDD5"/>
<circle cx="2.88193" cy="53.3153" r="0.480316" transform="rotate(-90 2.88193 53.3153)" fill="#C2CDD5"/>
<circle cx="2.88181" cy="60.5199" r="0.480316" transform="rotate(-90 2.88181 60.5199)" fill="#C2CDD5"/>
<circle cx="0.480316" cy="19.6933" r="0.480316" transform="rotate(-90 0.480316 19.6933)" fill="#C2CDD5"/>
<circle cx="0.480316" cy="26.8974" r="0.480316" transform="rotate(-90 0.480316 26.8974)" fill="#C2CDD5"/>
<circle cx="0.480316" cy="34.1024" r="0.480316" transform="rotate(-90 0.480316 34.1024)" fill="#C2CDD5"/>
<circle cx="0.480316" cy="22.0946" r="0.480316" transform="rotate(-90 0.480316 22.0946)" fill="#C2CDD5"/>
<circle cx="0.480316" cy="29.2992" r="0.480316" transform="rotate(-90 0.480316 29.2992)" fill="#C2CDD5"/>
<circle cx="0.480316" cy="36.5038" r="0.480316" transform="rotate(-90 0.480316 36.5038)" fill="#C2CDD5"/>
<circle cx="0.480316" cy="24.496" r="0.480316" transform="rotate(-90 0.480316 24.496)" fill="#C2CDD5"/>
<circle cx="0.480316" cy="31.7011" r="0.480316" transform="rotate(-90 0.480316 31.7011)" fill="#C2CDD5"/>
<circle cx="0.480316" cy="38.9057" r="0.480316" transform="rotate(-90 0.480316 38.9057)" fill="#C2CDD5"/>
<circle cx="2.88193" cy="19.6933" r="0.480316" transform="rotate(-90 2.88193 19.6933)" fill="#C2CDD5"/>
<circle cx="2.88193" cy="26.8974" r="0.480316" transform="rotate(-90 2.88193 26.8974)" fill="#C2CDD5"/>
<circle cx="2.88193" cy="34.1024" r="0.480316" transform="rotate(-90 2.88193 34.1024)" fill="#C2CDD5"/>
<circle cx="2.88193" cy="22.0946" r="0.480316" transform="rotate(-90 2.88193 22.0946)" fill="#C2CDD5"/>
<circle cx="2.88193" cy="29.2992" r="0.480316" transform="rotate(-90 2.88193 29.2992)" fill="#C2CDD5"/>
<circle cx="2.88193" cy="36.5038" r="0.480316" transform="rotate(-90 2.88193 36.5038)" fill="#C2CDD5"/>
<circle cx="2.88193" cy="24.496" r="0.480316" transform="rotate(-90 2.88193 24.496)" fill="#C2CDD5"/>
<circle cx="2.88193" cy="31.7011" r="0.480316" transform="rotate(-90 2.88193 31.7011)" fill="#C2CDD5"/>
<circle cx="2.88193" cy="38.9057" r="0.480316" transform="rotate(-90 2.88193 38.9057)" fill="#C2CDD5"/>
</svg>
