<svg width="59" height="28" viewBox="0 0 59 28" fill="none" xmlns="http://www.w3.org/2000/svg">
<g opacity="0.1">
<path d="M12.1188 1.05607L12.7652 0.220811C12.5801 0.0776642 12.3528 0 12.1188 0C11.8848 0 11.6575 0.0776642 11.4724 0.220811L12.1188 1.05607ZM23.1955 4.31021L24.2527 4.32745C24.2549 4.18723 24.2292 4.04798 24.177 3.91781C24.1249 3.78763 24.0474 3.66913 23.949 3.56921C23.8506 3.46928 23.7333 3.38993 23.6039 3.33577C23.4746 3.28161 23.3358 3.25373 23.1955 3.25375V4.31021ZM12.1188 26.9384L11.5335 27.8181C11.7068 27.9337 11.9105 27.9954 12.1188 27.9954C12.3271 27.9954 12.5308 27.9337 12.7041 27.8181L12.1188 26.9384ZM1.05862 4.31021V3.25375C0.918447 3.25382 0.779691 3.28178 0.650422 3.33598C0.521153 3.39018 0.403954 3.46954 0.305643 3.56946C0.207332 3.66937 0.129872 3.78784 0.07777 3.91797C0.0256681 4.0481 -3.57083e-05 4.18729 0.0021545 4.32745L1.05862 4.31021ZM11.4724 1.89133C16.2678 5.60655 21.7548 5.36739 23.1962 5.36739V3.25375C21.7053 3.25375 16.9242 3.44191 12.7666 0.220811L11.4724 1.89133ZM22.1398 4.29297C22.0608 9.20111 21.8525 12.6635 21.4553 15.2282C21.0625 17.7663 20.5016 19.2867 19.7791 20.3554C19.0472 21.465 18.1272 22.1236 16.7691 22.9366C15.3966 23.7582 13.6636 24.6437 11.5342 26.0586L12.7049 27.8181C14.7309 26.4679 16.4201 25.6075 17.8543 24.75C19.3 23.8832 20.5712 22.9294 21.53 21.539C22.4982 20.1069 23.1273 18.241 23.541 15.5514C23.9518 12.8883 24.1701 9.28227 24.2513 4.32745L22.1398 4.29297ZM12.7041 26.0586C10.5747 24.6437 8.84241 23.7603 7.47209 22.9366C6.11327 22.1243 5.19685 21.4657 4.46717 20.3561C3.74897 19.2882 3.18735 17.7706 2.79593 15.2289C2.39949 12.6635 2.19265 9.20111 2.11293 4.29297L0 4.32745C0.081156 9.28299 0.298051 12.8883 0.707421 15.5507C1.12182 18.2403 1.74952 20.1062 2.71837 21.5383C3.67428 22.9287 4.94477 23.8832 6.38906 24.75C7.82114 25.6068 9.50961 26.4679 11.5364 27.8181L12.7041 26.0586ZM1.05646 5.36739C2.48352 5.36739 7.97052 5.60655 12.763 1.89133L11.4703 0.220811C7.31194 3.44191 2.53092 3.25375 1.05646 3.25375V5.36739Z" fill="white"/>
<path d="M33.3712 7.94606H31.2425V13.7376H29.8097V7.94606H27.709V6.78618H33.3712V7.94606ZM36.7669 11.1966H35.6256V13.7412H34.1928V6.78618H36.7783C37.6 6.78618 38.2334 6.96908 38.6787 7.33488C39.124 7.70068 39.3468 8.21802 39.3473 8.8869C39.3473 9.36091 39.2439 9.75711 39.0371 10.0755C38.8302 10.3939 38.519 10.6455 38.1034 10.8303L39.6073 13.6708V13.7376H38.0704L36.7669 11.1966ZM35.6256 10.036H36.7812C37.1408 10.036 37.4192 9.94528 37.6165 9.76381C37.8137 9.58235 37.9124 9.32931 37.9124 9.00468C37.9124 8.67719 37.8185 8.41935 37.6308 8.23119C37.4432 8.04302 37.1583 7.94918 36.7762 7.94966H35.6271L35.6256 10.036ZM45.7005 6.78977V11.3683C45.7005 12.1291 45.4611 12.7307 44.9823 13.1731C44.5035 13.6155 43.8542 13.8367 43.0345 13.8367C42.2206 13.8367 41.5759 13.6212 41.1004 13.1903C40.625 12.7594 40.3815 12.1688 40.37 11.4185V6.78618H41.8028V11.3747C41.8028 11.8296 41.9108 12.1621 42.1267 12.3723C42.3427 12.5825 42.6453 12.6859 43.0345 12.6826C43.8394 12.6826 44.2483 12.2593 44.2612 11.4128V6.78618L45.7005 6.78977ZM50.4793 11.9148C50.4859 11.7957 50.4631 11.6767 50.4131 11.5684C50.363 11.4601 50.2871 11.3657 50.1921 11.2936C50.0005 11.1499 49.6568 10.9972 49.1607 10.8354C48.7547 10.7103 48.3601 10.5505 47.9815 10.3578C47.1919 9.93163 46.7972 9.35708 46.7972 8.6341C46.7917 8.2738 46.9022 7.92129 47.1124 7.62862C47.3458 7.31716 47.6618 7.07731 48.0245 6.93628C48.4493 6.76606 48.9036 6.68184 49.3611 6.68851C49.8184 6.68013 50.2719 6.77309 50.689 6.9607C51.0566 7.12159 51.3698 7.38519 51.5911 7.71983C51.8088 8.05114 51.9219 8.44024 51.9157 8.83663H50.4844C50.4844 8.51823 50.3841 8.27165 50.1834 8.09689C49.9828 7.92213 49.7011 7.83307 49.3381 7.82972C48.9886 7.82972 48.7164 7.90441 48.5215 8.05379C48.4292 8.11972 48.3543 8.20729 48.3036 8.30883C48.2529 8.41037 48.2279 8.52279 48.2307 8.63625C48.2307 8.86224 48.3437 9.05161 48.5697 9.20434C48.7956 9.35708 49.1308 9.50072 49.5751 9.63526C50.3891 9.8804 50.9825 10.1842 51.3555 10.5466C51.5378 10.7214 51.6816 10.9322 51.7779 11.1657C51.8741 11.3992 51.9205 11.6502 51.9143 11.9026C51.9143 12.5044 51.6869 12.9773 51.232 13.321C50.7771 13.6648 50.1643 13.835 49.3934 13.8317C48.8917 13.8395 48.394 13.7416 47.9326 13.5444C47.5287 13.3744 47.1804 13.0948 46.9271 12.7371C46.6955 12.3855 46.5765 11.9717 46.586 11.5507H48.0224C48.0224 12.3168 48.4808 12.6998 49.3977 12.6998C49.7382 12.6998 50.0039 12.6313 50.1949 12.4944C50.2865 12.4288 50.3604 12.3415 50.41 12.2404C50.4596 12.1392 50.4835 12.0274 50.4793 11.9148ZM58.1238 7.94678H55.9943V13.7383H54.558V7.94606H52.4608V6.78618H58.1238V7.94678Z" fill="white"/>
<path d="M30.2483 20.0643L30.4164 20.9074L30.6218 20.1023L31.8003 16.0998H32.2147L33.3782 20.1023L33.58 20.9153L33.7589 20.065L34.7399 16.0998H35.2096L33.8185 21.5308H33.3782L32.1501 17.2813L32.0065 16.7441L31.8722 17.2813L30.611 21.5301H30.1715L28.7832 16.0991H29.2536L30.2483 20.0643ZM38.8616 20.0083H36.3961L35.8366 21.5301H35.3554L37.4109 16.0991H37.8468L39.9023 21.5301H39.4247L38.8616 20.0083ZM36.5375 19.6168H38.7158L37.627 16.6586L36.5375 19.6168ZM41.167 21.1423H43.8488V21.5301H40.7045V16.0991H41.167V21.1423ZM45.1954 21.1423H47.8786V21.5301H44.7329V16.0991H45.1954V21.1423ZM51.7604 18.9267H49.2201V21.1423H52.141V21.5301H48.7619V16.0991H52.1224V16.4905H49.2201V18.5388H51.7604V18.9267ZM56.8711 16.4905H55.0095V21.5301H54.5506V16.4905H52.6905V16.0991H56.8682L56.8711 16.4905Z" fill="white"/>
</g>
</svg>
