<svg width="69" height="33" viewBox="0 0 69 33" fill="none" xmlns="http://www.w3.org/2000/svg">
<g opacity="0.3">
<path d="M14.2038 1.23776L14.9614 0.2588C14.7445 0.0910261 14.478 0 14.2038 0C13.9296 0 13.6631 0.0910261 13.4462 0.2588L14.2038 1.23776ZM27.1862 5.05177L28.4253 5.07197C28.4279 4.90763 28.3977 4.74442 28.3366 4.59185C28.2755 4.43928 28.1846 4.30039 28.0693 4.18328C27.954 4.06616 27.8165 3.97315 27.6649 3.90968C27.5133 3.8462 27.3506 3.81352 27.1862 3.81354V5.05177ZM14.2038 31.573L13.5178 32.6042C13.7209 32.7396 13.9596 32.8119 14.2038 32.8119C14.448 32.8119 14.6867 32.7396 14.8898 32.6042L14.2038 31.573ZM1.24075 5.05177V3.81354C1.07646 3.81363 0.913834 3.8464 0.762325 3.90992C0.610816 3.97345 0.473453 4.06647 0.358228 4.18357C0.243003 4.30068 0.152216 4.43953 0.0911501 4.59205C0.0300843 4.74456 -4.18518e-05 4.9077 0.00252517 5.07197L1.24075 5.05177ZM13.4462 2.21673C19.0666 6.57114 25.4977 6.29083 27.1871 6.29083V3.81354C25.4396 3.81354 19.836 4.03408 14.9631 0.2588L13.4462 2.21673ZM25.9489 5.03157C25.8563 10.7841 25.6121 14.8422 25.1467 17.8482C24.6862 20.8229 24.0288 22.6049 23.182 23.8575C22.3242 25.158 21.246 25.9299 19.6542 26.8827C18.0456 27.8457 16.0144 28.8836 13.5186 30.5419L14.8907 32.6042C17.2653 31.0217 19.2451 30.0132 20.9261 29.0082C22.6205 27.9922 24.1105 26.8743 25.2342 25.2447C26.3689 23.5662 27.1063 21.3793 27.5911 18.227C28.0726 15.1057 28.3285 10.8793 28.4236 5.07197L25.9489 5.03157ZM14.8898 30.5419C12.394 28.8836 10.3637 27.8482 8.75764 26.8827C7.16504 25.9307 6.09096 25.1588 5.23573 23.8583C4.39397 22.6066 3.73572 20.828 3.27696 17.849C2.81231 14.8422 2.56988 10.7841 2.47645 5.03157L0 5.07197C0.0951186 10.8801 0.349329 15.1057 0.829131 18.2261C1.31482 21.3785 2.05052 23.5654 3.18605 25.2438C4.30643 26.8735 5.7955 27.9922 7.48827 29.0082C9.16674 30.0124 11.1457 31.0217 13.5211 32.6042L14.8898 30.5419ZM1.23822 6.29083C2.9108 6.29083 9.34182 6.57114 14.9589 2.21673L13.4437 0.2588C8.56993 4.03408 2.96635 3.81354 1.23822 3.81354V6.29083Z" fill="#565F77"/>
<path d="M39.1125 9.3129H36.6175V16.1008H34.9382V9.3129H32.4761V7.95347H39.1125V9.3129ZM43.0923 13.1227H41.7548V16.105H40.0755V7.95347H43.1058C44.0688 7.95347 44.8112 8.16783 45.3331 8.59657C45.855 9.0253 46.1162 9.63165 46.1168 10.4156C46.1168 10.9712 45.9955 11.4355 45.7531 11.8087C45.5107 12.1819 45.1459 12.4768 44.6588 12.6934L46.4215 16.0226V16.1008H44.6201L43.0923 13.1227ZM41.7548 11.7624H43.1091C43.5306 11.7624 43.8569 11.6561 44.0881 11.4434C44.3193 11.2307 44.4349 10.9341 44.4349 10.5537C44.4349 10.1698 44.3249 9.86762 44.1049 9.64708C43.885 9.42654 43.5511 9.31655 43.1033 9.31711H41.7564L41.7548 11.7624ZM53.5629 7.95768V13.3239C53.5629 14.2156 53.2823 14.9207 52.7212 15.4392C52.16 15.9577 51.3991 16.217 50.4383 16.217C49.4843 16.217 48.7287 15.9645 48.1715 15.4594C47.6142 14.9544 47.3289 14.2622 47.3154 13.3828V7.95347H48.9947V13.3315C48.9947 13.8646 49.1213 14.2543 49.3743 14.5007C49.6274 14.747 49.9821 14.8682 50.4383 14.8643C51.3817 14.8643 51.8609 14.3682 51.8761 13.3761V7.95347L53.5629 7.95768ZM59.164 13.9645C59.1717 13.8248 59.145 13.6854 59.0863 13.5585C59.0276 13.4315 58.9387 13.3209 58.8273 13.2363C58.6028 13.068 58.1999 12.889 57.6185 12.6993C57.1426 12.5527 56.6802 12.3654 56.2364 12.1395C55.311 11.6401 54.8483 10.9667 54.8483 10.1193C54.8419 9.69702 54.9714 9.28387 55.2178 8.94085C55.4914 8.57579 55.8617 8.29468 56.2869 8.12939C56.7847 7.92988 57.3171 7.83117 57.8534 7.83899C58.3894 7.82917 58.9209 7.93812 59.4098 8.15801C59.8405 8.34657 60.2077 8.65553 60.467 9.04775C60.7222 9.43605 60.8548 9.8921 60.8475 10.3567H59.1699C59.1699 9.98351 59.0523 9.6945 58.8172 9.48967C58.5821 9.28485 58.2518 9.18047 57.8264 9.17654C57.4168 9.17654 57.0978 9.26408 56.8694 9.43917C56.7611 9.51644 56.6734 9.61907 56.614 9.73808C56.5545 9.85709 56.5252 9.98885 56.5284 10.1218C56.5284 10.3867 56.6609 10.6086 56.9258 10.7877C57.1906 10.9667 57.5834 11.135 58.1042 11.2927C59.0582 11.58 59.7538 11.9361 60.1909 12.3609C60.4046 12.5657 60.5731 12.8129 60.6859 13.0865C60.7987 13.3601 60.8531 13.6543 60.8458 13.9501C60.8458 14.6555 60.5793 15.2097 60.0461 15.6126C59.513 16.0155 58.7947 16.215 57.8913 16.2111C57.3032 16.2203 56.7199 16.1055 56.1791 15.8744C55.7057 15.6752 55.2975 15.3474 55.0007 14.9283C54.7291 14.5162 54.5897 14.0311 54.6008 13.5377H56.2843C56.2843 14.4356 56.8217 14.8845 57.8963 14.8845C58.2953 14.8845 58.6067 14.8042 58.8307 14.6438C58.938 14.5668 59.0246 14.4646 59.0827 14.346C59.1409 14.2275 59.1688 14.0964 59.164 13.9645ZM68.1237 9.31375H65.6278V16.1017H63.9443V9.3129H61.4864V7.95347H68.1237V9.31375Z" fill="#565F77"/>
<path d="M35.4525 23.5157L35.6495 24.504L35.8902 23.5604L37.2716 18.8693H37.7573L39.1209 23.5604L39.3574 24.5132L39.567 23.5166L40.7169 18.8693H41.2674L39.6369 25.2346H39.1209L37.6815 20.2539L37.5132 19.6243L37.3558 20.2539L35.8776 25.2338H35.3625L33.7354 18.8684H34.2867L35.4525 23.5157ZM45.5477 23.4501H42.658L42.0023 25.2338H41.4383L43.8474 18.8684H44.3583L46.7674 25.2338H46.2077L45.5477 23.4501ZM42.8238 22.9913H45.3769L44.1008 19.5241L42.8238 22.9913ZM48.2498 24.7792H51.3929V25.2338H47.7077V18.8684H48.2498V24.7792ZM52.9712 24.7792H56.116V25.2338H52.4291V18.8684H52.9712V24.7792ZM60.6657 22.1824H57.6884V24.7792H61.1118V25.2338H57.1514V18.8684H61.0899V19.3272H57.6884V21.7279H60.6657V22.1824ZM66.6556 19.3272H64.4738V25.2338H63.9359V19.3272H61.7558V18.8684H66.6523L66.6556 19.3272Z" fill="#565F77"/>
</g>
</svg>
