<svg width="31" height="31" viewBox="0 0 31 31" fill="none" xmlns="http://www.w3.org/2000/svg">
<circle cx="15.5" cy="15.5" r="15.5" fill="url(#paint0_linear_2855_95935)"/>
<path d="M21.8817 13.4608C21.1876 12.82 20.2274 11.8413 19.4454 11.1472L19.3991 11.1148C19.3222 11.053 19.2354 11.0045 19.1423 10.9714C17.2567 10.6197 8.48123 8.97937 8.31002 9.0002C8.26205 9.00692 8.2162 9.02431 8.17583 9.0511L8.13188 9.0858C8.07775 9.14077 8.03664 9.20718 8.01157 9.28014L8 9.31022V9.47449V9.49994C8.98791 12.2508 12.8887 21.2623 13.6568 23.377C13.703 23.5204 13.791 23.7934 13.9552 23.8073H13.9922C14.0802 23.8073 14.455 23.3122 14.455 23.3122C14.455 23.3122 21.1552 15.1868 21.8331 14.3215C21.9208 14.2149 21.9983 14.1003 22.0644 13.9791C22.0813 13.8843 22.0733 13.7867 22.0413 13.6959C22.0093 13.6051 21.9543 13.5241 21.8817 13.4608ZM16.174 14.4071L19.0336 12.0357L20.711 13.5811L16.174 14.4071ZM15.0634 14.2521L10.1401 10.2172L18.1058 11.6863L15.0634 14.2521ZM15.5077 15.3094L20.5467 14.4973L14.7858 21.4382L15.5077 15.3094ZM9.47146 10.6197L14.6516 15.0156L13.902 21.4428L9.47146 10.6197Z" fill="white"/>
<defs>
<linearGradient id="paint0_linear_2855_95935" x1="15.5" y1="0" x2="15.5" y2="31" gradientUnits="userSpaceOnUse">
<stop stop-color="#525B73"/>
<stop offset="1" stop-color="#384056"/>
</linearGradient>
</defs>
</svg>
