<svg width="73" height="22" viewBox="0 0 73 22" fill="none" xmlns="http://www.w3.org/2000/svg">
<g opacity="0.1" clip-path="url(#clip0_2931_329)">
<path d="M28.1631 16.0532V8.90332H28.6571V16.0532H28.1631Z" fill="white" stroke="white"/>
<path d="M24.9473 6.06828V5.57422H34.0492V6.06828H24.9473Z" fill="white" stroke="white"/>
<path d="M30.3369 16.0532V8.90332H30.831V16.0532H30.3369Z" fill="white" stroke="white"/>
<path d="M65.2998 11.8181V16.0607H64.7949V11.2568L65.2998 11.8181Z" fill="white" stroke="white"/>
<path d="M63.1018 7.6367V16.0605H62.5996V5.37061L70.5725 14.2317L71.1908 14.9192V13.9943V5.57325H71.6989V16.2634L63.7203 7.39931L63.1018 6.71209V7.6367Z" fill="white" stroke="white"/>
<path d="M49.1357 10.8115C49.1357 7.91953 51.4873 5.56787 54.3793 5.56787C57.2712 5.56787 59.6229 7.92208 59.6229 10.8115C59.6229 13.7035 57.2713 16.0551 54.3793 16.0551C51.4873 16.0551 49.1357 13.7035 49.1357 10.8115ZM49.6325 10.8115C49.6325 13.4314 51.7625 15.5584 54.3793 15.5584C56.9963 15.5584 59.1262 13.4285 59.1262 10.8115C59.1262 8.19162 56.9962 6.06465 54.3793 6.06465C51.7596 6.06465 49.6325 8.19176 49.6325 10.8115Z" fill="white" stroke="white"/>
<path d="M53.9287 10.8112C53.9287 10.5625 54.1305 10.3608 54.3791 10.3608C54.6277 10.3608 54.8295 10.5625 54.8295 10.8112C54.8295 11.0599 54.6277 11.2616 54.3791 11.2616C54.1305 11.2616 53.9287 11.0599 53.9287 10.8112Z" fill="white" stroke="white"/>
<path d="M44.0159 12.0814L46.1278 16.0607H45.5408L43.3526 11.9201L43.2527 11.731H43.0388H40.2382H39.8834V12.0859V16.0634H39.3975V11.2264L43.2908 11.2289L43.295 11.2288C44.6895 11.2131 45.8093 10.0608 45.8093 8.6536C45.8093 7.2395 44.6735 6.08108 43.2666 6.08108H38.0585H37.7037V6.43592V16.0634H37.2178V5.57617H43.2666C44.947 5.57617 46.3196 6.95483 46.3196 8.6536C46.3196 9.97062 45.4519 11.1685 44.2175 11.5783L43.8191 11.7106L44.0159 12.0814Z" fill="white" stroke="white"/>
<path d="M16.2994 4.0668L16.0704 3.84926L15.8278 4.05147L11.4981 7.65993L10.4644 8.52148L11.7885 8.28168L18.6151 7.04543L19.3034 6.92079L18.7963 6.43902L16.2994 4.0668ZM10.0158 7.95899L10.2429 8.14734L10.4695 7.95842L15.0323 4.15469L15.6136 3.6701L14.8694 3.53316L3.11124 1.36968L1.77358 1.12355L2.82052 1.99179L10.0158 7.95899ZM10.0795 8.78569L10.1027 8.59365L9.95388 8.4701L2.45761 2.24811L1.90122 2.65217L8.22624 18.5719L8.90831 18.4834L10.0795 8.78569ZM10.7484 8.90641L10.4908 8.9531L10.4594 9.21306L9.35051 18.4065L9.20474 19.6154L9.97716 18.6741L18.6446 8.11157L19.257 7.3652L18.307 7.5373L10.7484 8.90641ZM8.69335 20.9117L0.566406 0.464844L16.1472 3.3309L20.0638 7.05683L8.69335 20.9117Z" fill="white" stroke="white"/>
</g>
<defs>
<clipPath id="clip0_2931_329">
<rect width="72.3871" height="22" fill="white"/>
</clipPath>
</defs>
</svg>
