<svg width="66" height="20" viewBox="0 0 66 20" fill="none" xmlns="http://www.w3.org/2000/svg">
<g opacity="0.3" clip-path="url(#clip0_3359_529)">
<path d="M25.6025 14.5941V8.09424H26.0516V14.5941H25.6025Z" fill="#565F77" stroke="#565F77"/>
<path d="M22.6792 5.51653V5.06738H30.9537V5.51653H22.6792Z" fill="#565F77" stroke="#565F77"/>
<path d="M27.5791 14.5941V8.09424H28.0283V14.5941H27.5791Z" fill="#565F77" stroke="#565F77"/>
<path d="M59.3638 10.7439V14.6008H58.9048V10.2336L59.3638 10.7439Z" fill="#565F77" stroke="#565F77"/>
<path d="M57.3652 6.94265V14.6007H56.9087V4.88257L64.1568 12.9381L64.7188 13.5631V12.7223V5.06679H65.1808V14.7851L57.9275 6.72685L57.3652 6.1021V6.94265Z" fill="#565F77" stroke="#565F77"/>
<path d="M44.6689 9.82867C44.6689 7.19964 46.8068 5.06177 49.4358 5.06177C52.0648 5.06177 54.2028 7.20196 54.2028 9.82867C54.2028 12.4578 52.0649 14.5956 49.4358 14.5956C46.8068 14.5956 44.6689 12.4578 44.6689 9.82867ZM45.1206 9.82867C45.1206 12.2104 47.0569 14.144 49.4358 14.144C51.8149 14.144 53.7511 12.2078 53.7511 9.82867C53.7511 7.44699 51.8148 5.51338 49.4358 5.51338C47.0543 5.51338 45.1206 7.44712 45.1206 9.82867Z" fill="#565F77" stroke="#565F77"/>
<path d="M49.0264 9.82861C49.0264 9.60254 49.2098 9.41919 49.4359 9.41919C49.6619 9.41919 49.8453 9.60254 49.8453 9.82861C49.8453 10.0547 49.6619 10.238 49.4359 10.238C49.2098 10.238 49.0264 10.0547 49.0264 9.82861Z" fill="#565F77" stroke="#565F77"/>
<path d="M40.0146 10.9832L41.9345 14.6007H41.4009L39.4116 10.8365L39.3207 10.6647H39.1263H36.5803H36.2578V10.9873V14.6032H35.816V10.2059L39.3554 10.2082L39.3592 10.2081C40.6269 10.1938 41.6449 9.14629 41.6449 7.867C41.6449 6.58145 40.6124 5.52834 39.3334 5.52834H34.5988H34.2762V5.85092V14.6032H33.8345V5.06934H39.3334C40.8611 5.06934 42.1089 6.32266 42.1089 7.867C42.1089 9.06429 41.32 10.1533 40.1979 10.5258L39.8357 10.6461L40.0146 10.9832Z" fill="#565F77" stroke="#565F77"/>
<path d="M14.8178 3.69735L14.6097 3.49959L14.3891 3.68342L10.4531 6.96384L9.51333 7.74707L10.7171 7.52907L16.9231 6.40521L17.5488 6.2919L17.0878 5.85392L14.8178 3.69735ZM9.10553 7.23571L9.31198 7.40694L9.51798 7.23519L13.666 3.77726L14.1944 3.33672L13.5178 3.21223L2.82862 1.24543L1.61257 1.02168L2.56433 1.81099L9.10553 7.23571ZM9.1634 7.98726L9.18449 7.81268L9.0492 7.70036L2.23441 2.04401L1.72861 2.41133L7.47862 16.8838L8.09869 16.8033L9.1634 7.98726ZM9.77153 8.097L9.53727 8.13945L9.50875 8.37577L8.50069 16.7335L8.36817 17.8324L9.07037 16.9767L16.9499 7.37442L17.5066 6.6959L16.6429 6.85236L9.77153 8.097ZM7.90327 19.0109L0.515137 0.422852L14.6795 3.02835L18.24 6.41557L7.90327 19.0109Z" fill="#565F77" stroke="#565F77"/>
</g>
<defs>
<clipPath id="clip0_3359_529">
<rect width="65.8064" height="20" fill="white"/>
</clipPath>
</defs>
</svg>
