<svg width="16" height="13" viewBox="0 0 16 13" fill="none" xmlns="http://www.w3.org/2000/svg">
<path d="M5.34051 12.8211C11.2087 12.8211 14.4178 7.95775 14.4178 3.74042C14.4178 3.6023 14.415 3.46481 14.4088 3.3279C15.0332 2.87591 15.5721 2.31628 16.0002 1.67524C15.4285 1.92947 14.8134 2.10059 14.1681 2.17774C14.8268 1.78263 15.3324 1.15757 15.571 0.412494C14.9447 0.784144 14.2596 1.04614 13.5452 1.18718C12.963 0.566824 12.1342 0.178833 11.2164 0.178833C9.45456 0.178833 8.02586 1.60811 8.02586 3.3699C8.02586 3.62038 8.05389 3.86393 8.10863 4.09762C5.45707 3.96415 3.10586 2.69417 1.53231 0.763096C1.2489 1.25015 1.09983 1.8037 1.10032 2.36721C1.10032 3.47449 1.66354 4.45195 2.52005 5.02383C2.01341 5.00835 1.5179 4.87145 1.07517 4.62465C1.07469 4.63805 1.07469 4.6511 1.07469 4.66542C1.07469 6.21103 2.17438 7.50152 3.63418 7.79394C3.36001 7.86864 3.0771 7.9064 2.79294 7.90624C2.58772 7.90624 2.38772 7.88604 2.19334 7.84871C2.59951 9.1168 3.77726 10.0396 5.17364 10.0654C4.08169 10.9215 2.70618 11.4315 1.2112 11.4315C0.956882 11.4317 0.702774 11.417 0.450195 11.3873C1.86215 12.2926 3.5387 12.8209 5.34067 12.8209" fill="#00ACED"/>
</svg>
