<svg width="24" height="16" viewBox="0 0 24 16" fill="none" xmlns="http://www.w3.org/2000/svg">
<path d="M22.5577 0.00444881L16.7146 0.00292969H16.713C16.7084 0.00292969 16.704 0.00372923 16.6996 0.00372923C15.8969 0.0281951 14.8971 0.669266 14.715 1.45969L11.9518 13.6337C11.7696 14.4316 12.2649 15.0807 13.0619 15.0926H19.2004C19.985 15.054 20.7477 14.4203 20.9267 13.6388L23.6901 1.46473C23.8751 0.658872 23.3679 0.00444881 22.5577 0.00444881Z" fill="#01798A"/>
<path d="M11.9506 13.6342L14.7139 1.46015C14.8959 0.669728 15.8958 0.0286577 16.6985 0.00419183L14.3752 0.00275266L10.1894 0.00195312C9.38448 0.0183437 8.37171 0.663892 8.18966 1.46023L5.42558 13.6342C5.24281 14.432 5.73892 15.0812 6.53528 15.0931H13.0607C12.2638 15.0812 11.7685 14.432 11.9506 13.6342Z" fill="#024381"/>
<path d="M5.42642 13.6337L8.1905 1.45964C8.37255 0.663298 9.38532 0.0177498 10.1903 0.00135922L4.82809 0C4.01864 0 2.98082 0.652984 2.7958 1.45964L0.0317194 13.6337C0.0149362 13.7079 0.00554085 13.7808 0 13.8519V14.0777C0.0541237 14.6593 0.500202 15.0828 1.14142 15.0925H6.53612C5.73976 15.0807 5.24365 14.4315 5.42642 13.6337Z" fill="#DD0228"/>
<path d="M10.3026 8.87218H10.4041C10.4973 8.87218 10.5601 8.84092 10.5895 8.77927L10.8532 8.38638H11.5593L11.4122 8.64479H12.2588L12.1513 9.0408H11.1439C11.0278 9.21462 10.885 9.29626 10.7133 9.28658H10.1885L10.3026 8.87218ZM10.1867 9.43961H12.0417L11.9234 9.86977H11.1773L11.0636 10.2849H11.7895L11.6713 10.715H10.9454L10.7767 11.3285C10.735 11.4311 10.7899 11.4772 10.9405 11.4668H11.5321L11.4225 11.8665H10.2866C10.0713 11.8665 9.99747 11.7439 10.065 11.498L10.2806 10.7151H9.81663L9.93451 10.285H10.3986L10.5124 9.86985H10.0688L10.1867 9.43961ZM13.1474 8.38334L13.1183 8.6352C13.1183 8.6352 13.4681 8.37367 13.7859 8.37367H14.9601L14.5111 9.99226C14.4738 10.1773 14.3141 10.2693 14.0321 10.2693H12.7011L12.3893 11.4058C12.3713 11.4668 12.3967 11.4979 12.4639 11.4979H12.7258L12.6295 11.8508H11.9637C11.7082 11.8508 11.6019 11.7743 11.6441 11.6205L12.5251 8.38334H13.1474ZM14.1419 8.84092H13.0937L12.9682 9.27771C12.9682 9.27771 13.1428 9.15226 13.4346 9.14778C13.7255 9.14323 14.0575 9.14778 14.0575 9.14778L14.1419 8.84092ZM13.762 9.8541C13.8395 9.86457 13.883 9.83411 13.8881 9.76199L13.9523 9.5318H12.9026L12.8145 9.8541H13.762ZM13.0541 10.3771H13.6592L13.6478 10.6378H13.8089C13.8904 10.6378 13.9308 10.6118 13.9308 10.5606L13.9784 10.3919H14.4814L14.4142 10.6378C14.3574 10.8428 14.2068 10.9498 13.9621 10.9603H13.6397L13.6382 11.4058C13.6323 11.4772 13.6971 11.5136 13.8306 11.5136H14.1335L14.0358 11.8665H13.3091C13.1054 11.8761 13.0055 11.7795 13.0077 11.5745L13.0541 10.3771ZM5.72186 6.22699C5.63979 6.62739 5.44955 6.9349 5.15444 7.15325C4.86198 7.36793 4.48488 7.47563 4.02306 7.47563C3.58847 7.47563 3.26991 7.36569 3.06658 7.1451C2.92557 6.98839 2.85547 6.7893 2.85547 6.54864C2.85547 6.4491 2.86743 6.34212 2.89128 6.22707L3.38329 3.86499H4.12633L3.64115 6.2002C3.62727 6.25886 3.62053 6.31896 3.62107 6.37922C3.62027 6.49883 3.65014 6.59685 3.71053 6.67337C3.79854 6.78706 3.9414 6.84343 4.1403 6.84343C4.36892 6.84343 4.55731 6.78778 4.70354 6.67553C4.84977 6.56407 4.94525 6.40592 4.98813 6.20012L5.47493 3.86475H6.21427L5.72186 6.22699ZM8.84256 5.29768H9.42451L8.96864 7.40583H8.38781L8.84256 5.29768ZM9.02573 4.52964H9.6129L9.50321 5.04135H8.91612L9.02573 4.52964ZM9.93965 7.24536C9.7874 7.10048 9.71055 6.90515 9.70982 6.65706C9.70982 6.61468 9.71239 6.56647 9.7181 6.5137C9.72372 6.46021 9.73078 6.40824 9.74082 6.35995C9.8098 6.01751 9.95683 5.74566 10.1832 5.54506C10.4093 5.34373 10.682 5.24275 11.0013 5.24275C11.2628 5.24275 11.4702 5.31559 11.6221 5.46111C11.7738 5.6075 11.8499 5.80499 11.8499 6.05612C11.8499 6.09914 11.8466 6.14895 11.841 6.20244C11.8344 6.25517 11.8264 6.30769 11.8167 6.35995C11.7493 6.69719 11.6027 6.96608 11.3763 7.16293C11.1498 7.36121 10.8778 7.45995 10.5608 7.45995C10.2982 7.46003 10.0915 7.38872 9.93965 7.24536ZM11.0487 6.82792C11.1513 6.71726 11.2247 6.54936 11.2695 6.32581C11.2763 6.29087 11.2822 6.25449 11.2859 6.21811C11.2896 6.18245 11.2911 6.14903 11.2911 6.11857C11.2911 5.98856 11.2579 5.88758 11.1912 5.81626C11.1248 5.74422 11.0305 5.70856 10.9085 5.70856C10.7473 5.70856 10.616 5.76493 10.5131 5.87791C10.4093 5.99088 10.3358 6.16166 10.2895 6.38897C10.2832 6.42391 10.278 6.45885 10.2731 6.49299C10.2695 6.52793 10.2683 6.56055 10.269 6.5903C10.269 6.71958 10.3023 6.81912 10.369 6.88964C10.4354 6.96024 10.5294 6.9951 10.6529 6.9951C10.8149 6.99502 10.9461 6.93929 11.0487 6.82792Z" fill="white"/>
<path d="M16.7136 0.00267271L14.377 0.00195312L16.7003 0.00347225C16.7046 0.00347225 16.709 0.00267271 16.7136 0.00267271Z" fill="#E02F41"/>
<path d="M14.3762 0.00223871L10.2226 0C10.2121 0 10.2013 0.000719586 10.1904 0.00143917L14.3762 0.00223871Z" fill="#2E4F7D"/>
<path d="M15.6262 8.89012L15.7665 8.39841H16.4761L16.4455 8.57894C16.4455 8.57894 16.808 8.39841 17.0691 8.39841H17.9464L17.807 8.89012H17.669L17.0072 11.2093H17.1452L17.014 11.6698H16.8759L16.8185 11.8696H16.1313L16.1887 11.6698H14.8332L14.9653 11.2093H15.1011L15.7635 8.89012H15.6262ZM16.3918 8.89012L16.2113 9.51776C16.2113 9.51776 16.5203 9.39967 16.7865 9.36625C16.8453 9.14717 16.9222 8.89012 16.9222 8.89012H16.3918ZM16.1277 9.81199L15.9464 10.4695C15.9464 10.4695 16.2888 10.3015 16.5238 10.2875C16.5916 10.0334 16.6596 9.81207 16.6596 9.81207L16.1277 9.81199ZM16.2604 11.2093L16.3961 10.7323H15.8666L15.73 11.2093H16.2604ZM17.9763 8.36794H18.6434L18.6717 8.613C18.6672 8.67537 18.7046 8.70519 18.7837 8.70519H18.9015L18.7823 9.12031H18.292C18.1049 9.1299 18.0087 9.05866 17.9997 8.90491L17.9763 8.36794ZM17.7808 9.25863H19.9414L19.8146 9.70437H19.1267L19.0087 10.1188H19.696L19.5684 10.5637H18.803L18.6299 10.8245H19.0046L19.091 11.3467C19.1013 11.3987 19.1476 11.4239 19.2268 11.4239H19.343L19.2208 11.8539H18.8089C18.5955 11.8644 18.4852 11.7931 18.4762 11.6393L18.3769 11.1624L18.036 11.6698C17.9554 11.8132 17.8315 11.88 17.6645 11.8696H17.0356L17.1579 11.4395H17.3541C17.4347 11.4395 17.5018 11.4039 17.5622 11.3318L18.0958 10.5637H17.4079L17.5354 10.1188H18.2815L18.4001 9.70437H17.6534L17.7808 9.25863ZM6.40691 5.29715H6.93177L6.8717 5.6017L6.94703 5.51479C7.11719 5.33353 7.3238 5.24366 7.56776 5.24366C7.78859 5.24366 7.94783 5.30755 8.04789 5.43603C8.14634 5.56452 8.17324 5.7421 8.12658 5.97012L7.83742 7.40674H7.29803L7.55909 6.10461C7.58599 5.97013 7.57852 5.86986 7.53709 5.80518C7.49613 5.74058 7.41776 5.70868 7.30469 5.70868C7.16593 5.70868 7.04917 5.75169 6.95401 5.83716C6.85853 5.92335 6.79549 6.04296 6.7645 6.1952L6.52391 7.40674H5.9834L6.40691 5.29715ZM12.4256 5.29715H12.951L12.8913 5.6017L12.9658 5.51479C13.1361 5.33353 13.3434 5.24366 13.5867 5.24366C13.8075 5.24366 13.967 5.30755 14.0663 5.43603C14.1642 5.56452 14.1924 5.7421 14.1447 5.97012L13.8566 7.40674H13.3165L13.5777 6.10461C13.6046 5.97013 13.597 5.86986 13.556 5.80518C13.5134 5.74058 13.4366 5.70868 13.324 5.70868C13.1851 5.70868 13.0689 5.75169 12.9726 5.83716C12.8771 5.92335 12.8137 6.04296 12.7839 6.1952L12.5421 7.40674H12.0023L12.4256 5.29715ZM15.0221 3.98975H16.547C16.8401 3.98975 17.067 4.05587 17.2228 4.18579C17.378 4.3174 17.4556 4.50601 17.4556 4.75187V4.7593C17.4556 4.80608 17.4526 4.85885 17.4481 4.91601C17.4403 4.97406 17.4304 5.0318 17.4183 5.08911C17.3511 5.41445 17.1952 5.67597 16.9543 5.87426C16.7124 6.07183 16.4261 6.17137 16.0963 6.17137H15.2785L15.0257 7.40666H14.3176L15.0221 3.98975ZM15.4032 5.57723H16.0813C16.2581 5.57723 16.3984 5.53629 16.5007 5.45538C16.6022 5.37367 16.6694 5.24886 16.7065 5.07952C16.7124 5.04826 16.7162 5.02003 16.7207 4.99405C16.7229 4.96958 16.7259 4.94496 16.7259 4.92129C16.7259 4.80016 16.6827 4.71253 16.5961 4.65752C16.5096 4.60171 16.3738 4.57509 16.1858 4.57509H15.6099L15.4032 5.57723ZM20.6248 7.81458C20.4009 8.28847 20.1877 8.56471 20.0624 8.6932C19.937 8.82032 19.6885 9.11591 19.0902 9.0936L19.1418 8.73197C19.6453 8.57742 19.9175 7.88134 20.0728 7.57312L19.8877 5.30307L20.2772 5.29787H20.6039L20.6391 6.72185L21.2515 5.29787H21.8716L20.6248 7.81458ZM18.8911 5.46945L18.6448 5.63808C18.3874 5.43755 18.1525 5.31346 17.6989 5.52294C17.0812 5.80814 16.5649 7.99584 18.2659 7.27529L18.3629 7.38971L19.0321 7.40682L19.4716 5.419L18.8911 5.46945ZM18.5105 6.55619C18.403 6.87193 18.1629 7.08061 17.9748 7.0212C17.7869 6.96323 17.7196 6.65869 17.8287 6.34223C17.9361 6.02577 18.1779 5.81781 18.3643 5.87722C18.5523 5.93519 18.6202 6.23973 18.5105 6.55619Z" fill="white"/>
</svg>
