<svg width="106" height="26" viewBox="0 0 106 26" fill="none" xmlns="http://www.w3.org/2000/svg">
<g opacity="0.1" clip-path="url(#clip0_201_483)">
<path d="M31.207 6.37873H32.0626C32.2803 6.37873 32.4575 6.55584 32.4575 6.77344V14.4298C32.4575 16.8486 33.7688 18.3768 36.2091 18.3768C38.6494 18.3768 39.9607 16.8486 39.9607 14.4298V6.77344C39.9607 6.55584 40.1379 6.37873 40.3556 6.37873H41.2112C41.4289 6.37873 41.6061 6.55584 41.6061 6.77344V14.45C41.6061 17.7443 39.7987 19.8444 36.2091 19.8444C32.6196 19.8444 30.8121 17.7241 30.8121 14.4702V6.77344C30.8071 6.55584 30.9843 6.37873 31.207 6.37873ZM44.1274 16.8081C44.254 16.6462 44.497 16.631 44.6438 16.7727C45.5298 17.633 46.8563 18.3768 48.5372 18.3768C50.8965 18.3768 51.6508 17.1067 51.6508 16.0946C51.6508 14.5057 50.0459 14.0705 48.2992 13.5948C46.1779 13.0382 43.8135 12.4461 43.8135 9.84508C43.8135 7.66406 45.7577 6.17631 48.36 6.17631C50.2282 6.17631 51.7065 6.74813 52.795 7.75515C52.952 7.89684 52.9672 8.13973 52.8305 8.30167L52.3141 8.93421C52.1875 9.09108 51.9546 9.1012 51.8078 8.96458C50.8408 8.05877 49.5649 7.64382 48.2385 7.64382C46.6487 7.64382 45.5197 8.49902 45.5197 9.74387C45.5197 11.0747 47.0487 11.4695 48.7346 11.9249C50.8965 12.5018 53.357 13.1748 53.357 15.9529C53.357 17.8759 52.0457 19.8393 48.4764 19.8393C46.3399 19.8393 44.7299 19.0853 43.6363 17.9923C43.4946 17.8506 43.4794 17.6229 43.606 17.466L44.1274 16.8081ZM55.3163 6.77344C55.3163 6.55584 55.4935 6.37873 55.7112 6.37873H59.8375C63.9435 6.37873 66.6268 9.25302 66.6268 13.0027C66.6268 16.7727 63.9485 19.6065 59.8375 19.6065H55.7112C55.4935 19.6065 55.3163 19.4294 55.3163 19.2118V6.77344ZM59.8425 18.139C63.0575 18.139 64.9206 15.8365 64.9206 13.0027C64.9206 10.1436 63.1131 7.84623 59.8425 7.84623H56.9668V18.139H59.8425ZM83.0962 14.8093C83.0962 12.0312 84.9239 9.78941 87.8401 9.78941C90.7563 9.78941 92.584 12.0312 92.584 14.8093C92.584 17.5874 90.7563 19.8494 87.8401 19.8494C84.9239 19.8494 83.0962 17.5824 83.0962 14.8093ZM91.0145 14.8093C91.0145 12.8661 89.8855 11.1203 87.8401 11.1203C85.7947 11.1203 84.6455 12.8661 84.6455 14.8093C84.6455 16.7727 85.7947 18.5185 87.8401 18.5185C89.8855 18.5185 91.0145 16.7727 91.0145 14.8093ZM94.0118 7.41104C94.0118 6.8544 94.4674 6.41921 95.0041 6.41921C95.561 6.41921 96.0166 6.8544 96.0166 7.41104C96.0166 7.96768 95.561 8.42312 95.0041 8.42312C94.4674 8.42312 94.0118 7.96262 94.0118 7.41104ZM94.6649 10.0273H95.3585C95.5762 10.0273 95.7534 10.2044 95.7534 10.422V19.2118C95.7534 19.4294 95.5762 19.6065 95.3585 19.6065H94.6649C94.4472 19.6065 94.27 19.4294 94.27 19.2118V10.422C94.27 10.2044 94.4472 10.0273 94.6649 10.0273ZM104.33 13.3418C104.33 11.6567 103.474 11.1203 102.188 11.1203C101.019 11.1203 99.9049 11.8338 99.348 12.608V19.2118C99.348 19.4294 99.1708 19.6065 98.9531 19.6065H98.2595C98.0418 19.6065 97.8646 19.4294 97.8646 19.2118V10.422C97.8646 10.2044 98.0418 10.0273 98.2595 10.0273H98.9531C99.1708 10.0273 99.348 10.2044 99.348 10.422V11.4138C100.021 10.6193 101.333 9.78941 102.76 9.78941C104.765 9.78941 105.818 10.8015 105.818 12.8813V19.2067C105.818 19.4243 105.641 19.6015 105.423 19.6015H104.73C104.512 19.6015 104.335 19.4243 104.335 19.2067L104.33 13.3418ZM70.3885 13.0027C70.3885 8.93421 73.3857 6.16113 77.1373 6.16113C79.3598 6.16113 80.9192 7.12766 81.9723 8.45348C82.1039 8.62047 82.0584 8.86843 81.871 8.97469L81.1318 9.38458C80.9648 9.48073 80.7521 9.43519 80.6306 9.28844C79.8459 8.31685 78.5751 7.6337 77.1373 7.6337C74.297 7.6337 72.0947 9.8552 72.0947 13.0078C72.0947 16.1402 74.297 18.3819 77.1373 18.3819C78.5802 18.3819 79.8509 17.7139 80.6306 16.7272C80.7521 16.5754 80.9597 16.5349 81.1318 16.626L81.8812 17.0359C82.0735 17.1421 82.1191 17.3951 81.9824 17.5621C80.8888 18.8981 79.3598 19.8494 77.1373 19.8494C73.3857 19.8444 70.3885 17.0713 70.3885 13.0027Z" fill="white"/>
<path opacity="0.3" d="M13.254 25.9065C20.3842 25.9065 26.1643 20.1292 26.1643 13.0026C26.1643 5.87592 20.3842 0.0986328 13.254 0.0986328C6.12388 0.0986328 0.34375 5.87592 0.34375 13.0026C0.34375 20.1292 6.12388 25.9065 13.254 25.9065Z" fill="white"/>
<path d="M10.834 21.9748C10.834 22.2784 10.5961 22.4504 10.3024 22.3594C6.39898 21.1145 3.56885 17.4559 3.56885 13.1394C3.56885 8.82289 6.39898 5.16425 10.3024 3.9194C10.5961 3.82831 10.834 4.00036 10.834 4.30398V5.05292C10.834 5.25533 10.6771 5.49317 10.4847 5.55895C7.39637 6.69247 5.1839 9.65785 5.1839 13.1343C5.1839 16.6108 7.39637 19.5762 10.4847 20.7097C10.6771 20.7805 10.834 21.0133 10.834 21.2157V21.9748Z" fill="white"/>
<path d="M14.0592 19.1865C14.0592 19.4091 13.8769 19.5913 13.6541 19.5913H12.8491C12.6264 19.5913 12.4441 19.4091 12.4441 19.1865V17.9113C10.6822 17.6734 9.82156 16.6866 9.58867 15.3456C9.54816 15.1179 9.73043 14.9105 9.96332 14.9105H10.8848C11.0771 14.9105 11.2392 15.0471 11.2797 15.2394C11.4518 16.0389 11.9125 16.6512 13.3251 16.6512C14.368 16.6512 15.1072 16.0693 15.1072 15.1989C15.1072 14.3285 14.6718 13.9996 13.1428 13.7466C10.8848 13.443 9.8165 12.7598 9.8165 10.9887C9.8165 9.62238 10.8493 8.5597 12.4492 8.33199V7.08208C12.4492 6.85942 12.6314 6.67725 12.8542 6.67725H13.6592C13.882 6.67725 14.0642 6.85942 14.0642 7.08208V8.36741C15.3654 8.60018 16.1906 9.339 16.459 10.5636C16.5096 10.7964 16.3273 11.014 16.0894 11.014H15.2388C15.0566 11.014 14.9047 10.8925 14.849 10.7154C14.6211 9.93612 14.0642 9.60214 13.0972 9.60214C12.029 9.60214 11.4771 10.1183 11.4771 10.8419C11.4771 11.606 11.791 11.9906 13.4314 12.2285C15.6489 12.5321 16.7931 13.1646 16.7931 15.0521C16.7931 16.4842 15.7299 17.6431 14.0642 17.9113V19.1865H14.0592Z" fill="white"/>
<path d="M16.2059 22.3589C15.9123 22.45 15.6743 22.2779 15.6743 21.9743V21.2254C15.6743 21.0027 15.811 20.7953 16.0237 20.7193C19.112 19.5858 21.3245 16.6205 21.3245 13.144C21.3245 9.66752 19.112 6.70214 16.0237 5.56862C15.8313 5.49778 15.6743 5.265 15.6743 5.06259V4.31365C15.6743 4.01003 15.9123 3.83292 16.2059 3.92907C20.1094 5.17392 22.9395 8.83255 22.9395 13.149C22.9345 17.4554 20.1094 21.109 16.2059 22.3589Z" fill="white"/>
</g>
<defs>
<clipPath id="clip0_201_483">
<rect width="106" height="26" fill="white"/>
</clipPath>
</defs>
</svg>
