<svg width="106" height="26" viewBox="0 0 106 26" fill="none" xmlns="http://www.w3.org/2000/svg">
<g opacity="0.3" clip-path="url(#clip0_201_471)">
<path d="M31.207 6.37848H32.0626C32.2803 6.37848 32.4575 6.5556 32.4575 6.77319V14.4295C32.4575 16.8484 33.7688 18.3766 36.2091 18.3766C38.6494 18.3766 39.9607 16.8484 39.9607 14.4295V6.77319C39.9607 6.5556 40.1379 6.37848 40.3556 6.37848H41.2112C41.4289 6.37848 41.6061 6.5556 41.6061 6.77319V14.4498C41.6061 17.7441 39.7987 19.8441 36.2091 19.8441C32.6196 19.8441 30.8121 17.7238 30.8121 14.47V6.77319C30.8071 6.5556 30.9843 6.37848 31.207 6.37848ZM44.1274 16.8079C44.254 16.646 44.497 16.6308 44.6438 16.7725C45.5298 17.6327 46.8563 18.3766 48.5372 18.3766C50.8965 18.3766 51.6508 17.1065 51.6508 16.0944C51.6508 14.5054 50.0459 14.0702 48.2992 13.5946C46.1779 13.0379 43.8135 12.4459 43.8135 9.84483C43.8135 7.66382 45.7577 6.17607 48.36 6.17607C50.2282 6.17607 51.7065 6.74789 52.795 7.7549C52.952 7.89659 52.9672 8.13949 52.8305 8.30142L52.3141 8.93397C52.1875 9.09084 51.9546 9.10096 51.8078 8.96433C50.8408 8.05853 49.5649 7.64357 48.2385 7.64357C46.6487 7.64357 45.5197 8.49878 45.5197 9.74362C45.5197 11.0745 47.0487 11.4692 48.7346 11.9246C50.8965 12.5015 53.357 13.1746 53.357 15.9527C53.357 17.8756 52.0457 19.839 48.4764 19.839C46.3399 19.839 44.7299 19.0851 43.6363 17.992C43.4946 17.8503 43.4794 17.6226 43.606 17.4657L44.1274 16.8079ZM55.3163 6.77319C55.3163 6.5556 55.4935 6.37848 55.7112 6.37848H59.8375C63.9435 6.37848 66.6268 9.25277 66.6268 13.0025C66.6268 16.7725 63.9485 19.6063 59.8375 19.6063H55.7112C55.4935 19.6063 55.3163 19.4292 55.3163 19.2116V6.77319ZM59.8425 18.1388C63.0575 18.1388 64.9206 15.8363 64.9206 13.0025C64.9206 10.1434 63.1131 7.84599 59.8425 7.84599H56.9668V18.1388H59.8425ZM83.0962 14.809C83.0962 12.0309 84.9239 9.78917 87.8401 9.78917C90.7563 9.78917 92.584 12.0309 92.584 14.809C92.584 17.5872 90.7563 19.8492 87.8401 19.8492C84.9239 19.8492 83.0962 17.5821 83.0962 14.809ZM91.0145 14.809C91.0145 12.8659 89.8855 11.12 87.8401 11.12C85.7947 11.12 84.6455 12.8659 84.6455 14.809C84.6455 16.7725 85.7947 18.5183 87.8401 18.5183C89.8855 18.5183 91.0145 16.7725 91.0145 14.809ZM94.0118 7.4108C94.0118 6.85416 94.4674 6.41897 95.0041 6.41897C95.561 6.41897 96.0166 6.85416 96.0166 7.4108C96.0166 7.96744 95.561 8.42287 95.0041 8.42287C94.4674 8.42287 94.0118 7.96238 94.0118 7.4108ZM94.6649 10.027H95.3585C95.5762 10.027 95.7534 10.2041 95.7534 10.4217V19.2116C95.7534 19.4292 95.5762 19.6063 95.3585 19.6063H94.6649C94.4472 19.6063 94.27 19.4292 94.27 19.2116V10.4217C94.27 10.2041 94.4472 10.027 94.6649 10.027ZM104.33 13.3415C104.33 11.6564 103.474 11.12 102.188 11.12C101.019 11.12 99.9049 11.8336 99.348 12.6078V19.2116C99.348 19.4292 99.1708 19.6063 98.9531 19.6063H98.2595C98.0418 19.6063 97.8646 19.4292 97.8646 19.2116V10.4217C97.8646 10.2041 98.0418 10.027 98.2595 10.027H98.9531C99.1708 10.027 99.348 10.2041 99.348 10.4217V11.4135C100.021 10.6191 101.333 9.78917 102.76 9.78917C104.765 9.78917 105.818 10.8012 105.818 12.881V19.2065C105.818 19.4241 105.641 19.6012 105.423 19.6012H104.73C104.512 19.6012 104.335 19.4241 104.335 19.2065L104.33 13.3415ZM70.3885 13.0025C70.3885 8.93397 73.3857 6.16089 77.1373 6.16089C79.3598 6.16089 80.9192 7.12742 81.9723 8.45323C82.1039 8.62022 82.0584 8.86818 81.871 8.97445L81.1318 9.38434C80.9648 9.48049 80.7521 9.43494 80.6306 9.28819C79.8459 8.3166 78.5751 7.63345 77.1373 7.63345C74.297 7.63345 72.0947 9.85495 72.0947 13.0076C72.0947 16.1399 74.297 18.3817 77.1373 18.3817C78.5802 18.3817 79.8509 17.7137 80.6306 16.7269C80.7521 16.5751 80.9597 16.5346 81.1318 16.6257L81.8812 17.0356C82.0735 17.1419 82.1191 17.3949 81.9824 17.5619C80.8888 18.8978 79.3598 19.8492 77.1373 19.8492C73.3857 19.8441 70.3885 17.071 70.3885 13.0025Z" fill="#565F77"/>
<path d="M13.254 25.9065C20.3842 25.9065 26.1643 20.1292 26.1643 13.0026C26.1643 5.87592 20.3842 0.0986328 13.254 0.0986328C6.12388 0.0986328 0.34375 5.87592 0.34375 13.0026C0.34375 20.1292 6.12388 25.9065 13.254 25.9065Z" fill="#565F77"/>
<path d="M10.834 21.9745C10.834 22.2781 10.5961 22.4502 10.3024 22.3591C6.39898 21.1143 3.56885 17.4556 3.56885 13.1391C3.56885 8.82265 6.39898 5.164 10.3024 3.91915C10.5961 3.82807 10.834 4.00012 10.834 4.30374V5.05267C10.834 5.25509 10.6771 5.49292 10.4847 5.55871C7.39637 6.69223 5.1839 9.6576 5.1839 13.1341C5.1839 16.6105 7.39637 19.5759 10.4847 20.7094C10.6771 20.7803 10.834 21.0131 10.834 21.2155V21.9745Z" fill="white"/>
<path d="M14.0592 19.1862C14.0592 19.4089 13.8769 19.591 13.6541 19.591H12.8491C12.6264 19.591 12.4441 19.4089 12.4441 19.1862V17.911C10.6822 17.6732 9.82156 16.6864 9.58867 15.3454C9.54816 15.1177 9.73043 14.9102 9.96332 14.9102H10.8848C11.0771 14.9102 11.2392 15.0468 11.2797 15.2391C11.4518 16.0387 11.9125 16.651 13.3251 16.651C14.368 16.651 15.1072 16.069 15.1072 15.1987C15.1072 14.3283 14.6718 13.9993 13.1428 13.7463C10.8848 13.4427 9.8165 12.7596 9.8165 10.9884C9.8165 9.62213 10.8493 8.55946 12.4492 8.33174V7.08183C12.4492 6.85918 12.6314 6.677 12.8542 6.677H13.6592C13.882 6.677 14.0642 6.85918 14.0642 7.08183V8.36716C15.3654 8.59994 16.1906 9.33875 16.459 10.5634C16.5096 10.7961 16.3273 11.0137 16.0894 11.0137H15.2388C15.0566 11.0137 14.9047 10.8923 14.849 10.7152C14.6211 9.93588 14.0642 9.60189 13.0972 9.60189C12.029 9.60189 11.4771 10.118 11.4771 10.8417C11.4771 11.6058 11.791 11.9904 13.4314 12.2282C15.6489 12.5318 16.7931 13.1644 16.7931 15.0519C16.7931 16.484 15.7299 17.6428 14.0642 17.911V19.1862H14.0592Z" fill="white"/>
<path d="M16.2059 22.3591C15.9123 22.4502 15.6743 22.2782 15.6743 21.9746V21.2256C15.6743 21.003 15.811 20.7955 16.0237 20.7196C19.112 19.5861 21.3245 16.6207 21.3245 13.1442C21.3245 9.66776 19.112 6.70239 16.0237 5.56887C15.8313 5.49802 15.6743 5.26524 15.6743 5.06283V4.3139C15.6743 4.01027 15.9123 3.83316 16.2059 3.92931C20.1094 5.17416 22.9395 8.8328 22.9395 13.1493C22.9345 17.4557 20.1094 21.1092 16.2059 22.3591Z" fill="white"/>
</g>
<defs>
<clipPath id="clip0_201_471">
<rect width="106" height="26" fill="white"/>
</clipPath>
</defs>
</svg>
