<svg width="31" height="31" viewBox="0 0 31 31" fill="none" xmlns="http://www.w3.org/2000/svg">
<circle cx="15.5" cy="15.5" r="15.5" fill="url(#paint0_linear_2855_97088)"/>
<path d="M16.767 13.9939V12.4109H20.3856V10H10.5455V12.4109H14.153V13.9917C11.2078 14.1264 9 14.7092 9 15.4069C9 16.1045 11.2078 16.6874 14.153 16.8221V21.9H16.7692V16.8221C19.7034 16.6874 21.9112 16.1045 21.9112 15.4069C21.9112 14.7092 19.7034 14.1286 16.767 13.9939ZM16.767 16.3938C16.6919 16.3938 16.3122 16.4203 15.4688 16.4203C14.7932 16.4203 14.3186 16.4004 14.1442 16.3916C11.5456 16.279 9.60714 15.8264 9.60714 15.2877C9.60714 14.749 11.5456 14.2942 14.1442 14.1838V15.95C14.3142 15.95 14.8065 15.9897 15.4688 15.9897C16.2747 15.9897 16.6809 15.9566 16.756 15.95V14.1838C19.3479 14.2986 21.2842 14.7512 21.2842 15.2877C21.2842 15.8242 19.3612 16.2768 16.7692 16.4026L16.767 16.3938Z" fill="white"/>
<defs>
<linearGradient id="paint0_linear_2855_97088" x1="15.5" y1="0" x2="15.5" y2="31" gradientUnits="userSpaceOnUse">
<stop stop-color="#50AF95"/>
<stop offset="1" stop-color="#2C7E68"/>
</linearGradient>
</defs>
</svg>
