<svg width="87" height="20" viewBox="0 0 87 20" fill="none" xmlns="http://www.w3.org/2000/svg">
<g opacity="0.1">
<path fill-rule="evenodd" clip-rule="evenodd" d="M19.2462 9.62312C19.2462 14.9378 14.9378 19.2462 9.62312 19.2462C4.30842 19.2462 0 14.9378 0 9.62312C0 4.30842 4.30842 0 9.62312 0C14.9378 0 19.2462 4.30842 19.2462 9.62312ZM10.6491 10.5095V10.5111V10.5126C12.993 10.4074 14.7428 9.99899 14.7428 9.5101C14.7428 9.02121 12.9945 8.61277 10.6491 8.50756V10.1042C10.581 10.1104 10.2159 10.1413 9.48565 10.1413C8.87763 10.1413 8.4367 10.115 8.28353 10.1042V8.50601C5.935 8.60967 4.18056 9.01966 4.18056 9.50855C4.18056 9.99899 5.93345 10.4074 8.28353 10.5111V10.5095C8.43515 10.5173 8.86371 10.5343 9.47482 10.5343C10.2391 10.5343 10.5826 10.5142 10.6491 10.5095ZM10.6491 6.91247V8.34202L10.6506 8.34357C13.3055 8.46579 15.3013 8.99336 15.3013 9.62304C15.3013 10.2543 13.3055 10.7803 10.6506 10.9025V15.4851H8.28508V10.9025C5.62712 10.7787 3.62669 10.2527 3.62669 9.62149C3.62669 8.99026 5.62557 8.46424 8.28508 8.34202V6.91247H5.01291V4.73257H13.9213V6.91247H10.6491Z" fill="white"/>
<path d="M30.41 4.0345V7.04217H33.3332V9.29894H30.3899V13.8749C30.3899 14.8855 30.9475 15.3787 31.7649 15.3787C32.1736 15.3787 32.6467 15.2499 33.0332 15.0566L33.764 17.2912C33.0131 17.5912 32.389 17.72 31.5938 17.7422C29.2947 17.8287 27.7909 16.5182 27.7909 13.8749V9.29894H25.814V7.04217H27.7909V4.31433L30.41 4.0345ZM80.8057 6.90125L80.999 8.12526C81.8163 6.81469 82.9115 6.62142 83.9865 6.62142C85.0817 6.62142 86.1346 7.05023 86.7143 7.63002L85.5326 9.90691C84.9951 9.45596 84.5019 9.21841 83.6423 9.21841C82.2673 9.21841 80.999 9.94919 80.999 11.904V17.4905H78.3778V6.89723L80.8057 6.90125ZM74.3817 10.9618C74.2106 9.58682 73.1355 8.89832 71.6317 8.89832C70.2144 8.89832 69.0528 9.58682 68.6663 10.9618H74.3817ZM68.624 13.132C68.7951 14.4426 69.9346 15.3888 71.7827 15.3888C72.749 15.3888 74.0173 15.0224 74.6192 14.4003L76.2942 16.0551C75.1769 17.2147 73.3509 17.7744 71.7384 17.7744C68.0865 17.7744 65.9143 15.5176 65.9143 12.1234C65.9143 8.90033 68.1066 6.57915 71.5451 6.57915C75.0903 6.57915 77.3048 8.77149 76.8961 13.132H68.624ZM57.0644 2.45215V8.33866C58.0106 7.11465 59.1702 6.74825 60.374 6.74825C63.3817 6.74825 64.7144 8.78961 64.7144 11.906V17.4925H62.0933V11.9281C62.0933 9.99348 61.0827 9.17815 59.6855 9.17815C58.1374 9.17815 57.0644 10.4887 57.0644 12.0791V17.4945H54.4432V2.45416L57.0644 2.45215ZM50.1028 3.91371V6.92138H53.026V9.17815H50.0827V13.7541C50.0827 14.7647 50.6424 15.2579 51.4577 15.2579C51.8664 15.2579 52.3395 15.1291 52.726 14.9358L53.4568 17.1704C52.7059 17.4704 52.0818 17.5992 51.2866 17.6214C48.9876 17.7079 47.4837 16.3954 47.4837 13.7541V9.17815H45.5068V6.92138H47.4837V4.19354L50.1028 3.91371ZM42.8615 10.9618C42.6904 9.58682 41.6153 8.89832 40.1115 8.89832C38.6942 8.89832 37.5326 9.58682 37.1461 10.9618H42.8615ZM37.1038 13.132C37.2749 14.4426 38.4144 15.3888 40.2625 15.3888C41.2288 15.3888 42.4971 15.0224 43.099 14.4003L44.774 16.0551C43.6567 17.2147 41.8307 17.7744 40.2182 17.7744C36.5643 17.7744 34.3941 15.5176 34.3941 12.1234C34.3941 8.90033 36.5864 6.57915 40.0229 6.57915C43.5681 6.57915 45.7806 8.77149 45.3739 13.132H37.1038Z" fill="white"/>
</g>
</svg>
