<svg width="109" height="29" viewBox="0 0 109 29" fill="none" xmlns="http://www.w3.org/2000/svg">
<path d="M5.25467 4.66665C6.54332 4.6729 7.588 3.62823 7.588 2.33332C7.588 1.04468 6.54332 0 5.25467 0C3.96603 0 2.92135 1.04468 2.92135 2.33332C2.92135 3.62197 3.96603 4.66665 5.25467 4.66665ZM7.59425 5.19212H5.25467H2.91509C1.15102 5.19212 0 6.7435 0 8.21981V15.3261C0 16.7024 1.93922 16.7024 1.93922 15.3261V8.75779H2.31456V26.6237C2.31456 28.5254 4.94189 28.4628 5.00445 26.6237V16.327H5.44234H5.50489V26.6299C5.61124 28.5817 8.19479 28.394 8.19479 26.6237V8.75779H8.50756V15.3261C8.50756 16.7024 10.5093 16.7024 10.5093 15.3261V8.21981C10.5093 6.74975 9.35207 5.19212 7.59425 5.19212Z" fill="#E49E71"/>
<path d="M19.2547 4.66665C20.5433 4.6729 21.588 3.62823 21.588 2.33332C21.588 1.04468 20.5433 0 19.2547 0C17.966 0 16.9213 1.04468 16.9213 2.33332C16.9213 3.62197 17.966 4.66665 19.2547 4.66665ZM21.5943 5.19212H19.2547H16.9151C15.151 5.19212 14 6.7435 14 8.21981V15.3261C14 16.7024 15.9392 16.7024 15.9392 15.3261V8.75779H16.3146V26.6237C16.3146 28.5254 18.9419 28.4628 19.0044 26.6237V16.327H19.4423H19.5049V26.6299C19.6112 28.5817 22.1948 28.394 22.1948 26.6237V8.75779H22.5076V15.3261C22.5076 16.7024 24.5093 16.7024 24.5093 15.3261V8.21981C24.5093 6.74975 23.3521 5.19212 21.5943 5.19212Z" fill="#E49E71"/>
<g opacity="0.05">
<path d="M33.2547 4.66665C34.5433 4.6729 35.588 3.62823 35.588 2.33332C35.588 1.04468 34.5433 0 33.2547 0C31.966 0 30.9213 1.04468 30.9213 2.33332C30.9213 3.62197 31.966 4.66665 33.2547 4.66665ZM35.5943 5.19212H33.2547H30.9151C29.151 5.19212 28 6.7435 28 8.21981V15.3261C28 16.7024 29.9392 16.7024 29.9392 15.3261V8.75779H30.3146V26.6237C30.3146 28.5254 32.9419 28.4628 33.0044 26.6237V16.327H33.4423H33.5049V26.6299C33.6112 28.5817 36.1948 28.394 36.1948 26.6237V8.75779H36.5076V15.3261C36.5076 16.7024 38.5093 16.7024 38.5093 15.3261V8.21981C38.5093 6.74975 37.3521 5.19212 35.5943 5.19212Z" fill="black"/>
</g>
<g opacity="0.05">
<path d="M47.2547 4.66665C48.5433 4.6729 49.588 3.62823 49.588 2.33332C49.588 1.04468 48.5433 0 47.2547 0C45.966 0 44.9213 1.04468 44.9213 2.33332C44.9213 3.62197 45.966 4.66665 47.2547 4.66665ZM49.5943 5.19212H47.2547H44.9151C43.151 5.19212 42 6.7435 42 8.21981V15.3261C42 16.7024 43.9392 16.7024 43.9392 15.3261V8.75779H44.3146V26.6237C44.3146 28.5254 46.9419 28.4628 47.0044 26.6237V16.327H47.4423H47.5049V26.6299C47.6112 28.5817 50.1948 28.394 50.1948 26.6237V8.75779H50.5076V15.3261C50.5076 16.7024 52.5093 16.7024 52.5093 15.3261V8.21981C52.5093 6.74975 51.3521 5.19212 49.5943 5.19212Z" fill="black"/>
</g>
<g opacity="0.05">
<path d="M61.2547 4.66665C62.5433 4.6729 63.588 3.62823 63.588 2.33332C63.588 1.04468 62.5433 0 61.2547 0C59.966 0 58.9213 1.04468 58.9213 2.33332C58.9213 3.62197 59.966 4.66665 61.2547 4.66665ZM63.5943 5.19212H61.2547H58.9151C57.151 5.19212 56 6.7435 56 8.21981V15.3261C56 16.7024 57.9392 16.7024 57.9392 15.3261V8.75779H58.3146V26.6237C58.3146 28.5254 60.9419 28.4628 61.0044 26.6237V16.327H61.4423H61.5049V26.6299C61.6112 28.5817 64.1948 28.394 64.1948 26.6237V8.75779H64.5076V15.3261C64.5076 16.7024 66.5093 16.7024 66.5093 15.3261V8.21981C66.5093 6.74975 65.3521 5.19212 63.5943 5.19212Z" fill="black"/>
</g>
<g opacity="0.05">
<path d="M75.2547 4.66665C76.5433 4.6729 77.588 3.62823 77.588 2.33332C77.588 1.04468 76.5433 0 75.2547 0C73.966 0 72.9213 1.04468 72.9213 2.33332C72.9213 3.62197 73.966 4.66665 75.2547 4.66665ZM77.5943 5.19212H75.2547H72.9151C71.151 5.19212 70 6.7435 70 8.21981V15.3261C70 16.7024 71.9392 16.7024 71.9392 15.3261V8.75779H72.3146V26.6237C72.3146 28.5254 74.9419 28.4628 75.0044 26.6237V16.327H75.4423H75.5049V26.6299C75.6112 28.5817 78.1948 28.394 78.1948 26.6237V8.75779H78.5076V15.3261C78.5076 16.7024 80.5093 16.7024 80.5093 15.3261V8.21981C80.5093 6.74975 79.3521 5.19212 77.5943 5.19212Z" fill="black"/>
</g>
<g opacity="0.05">
<path d="M89.2547 4.66665C90.5433 4.6729 91.588 3.62823 91.588 2.33332C91.588 1.04468 90.5433 0 89.2547 0C87.966 0 86.9213 1.04468 86.9213 2.33332C86.9213 3.62197 87.966 4.66665 89.2547 4.66665ZM91.5943 5.19212H89.2547H86.9151C85.151 5.19212 84 6.7435 84 8.21981V15.3261C84 16.7024 85.9392 16.7024 85.9392 15.3261V8.75779H86.3146V26.6237C86.3146 28.5254 88.9419 28.4628 89.0044 26.6237V16.327H89.4423H89.5049V26.6299C89.6112 28.5817 92.1948 28.394 92.1948 26.6237V8.75779H92.5076V15.3261C92.5076 16.7024 94.5093 16.7024 94.5093 15.3261V8.21981C94.5093 6.74975 93.3521 5.19212 91.5943 5.19212Z" fill="black"/>
</g>
<g opacity="0.05">
<path d="M103.255 4.66665C104.543 4.6729 105.588 3.62823 105.588 2.33332C105.588 1.04468 104.543 0 103.255 0C101.966 0 100.921 1.04468 100.921 2.33332C100.921 3.62197 101.966 4.66665 103.255 4.66665ZM105.594 5.19212H103.255H100.915C99.151 5.19212 98 6.7435 98 8.21981V15.3261C98 16.7024 99.9392 16.7024 99.9392 15.3261V8.75779H100.315V26.6237C100.315 28.5254 102.942 28.4628 103.004 26.6237V16.327H103.442H103.505V26.6299C103.611 28.5817 106.195 28.394 106.195 26.6237V8.75779H106.508V15.3261C106.508 16.7024 108.509 16.7024 108.509 15.3261V8.21981C108.509 6.74975 107.352 5.19212 105.594 5.19212Z" fill="black"/>
</g>
</svg>
