<svg width="25" height="25" viewBox="0 0 25 25" fill="none" xmlns="http://www.w3.org/2000/svg">
<circle cx="12.5" cy="12.5" r="12" fill="#F4F4F5" stroke="#EAECED"/>
<path d="M10.2344 12.6355C10.234 12.5662 10.2472 12.4974 10.2734 12.4333C10.2997 12.3691 10.3383 12.3108 10.3871 12.2615L12.4937 10.1549C12.5929 10.0557 12.7274 10 12.8677 10C13.0079 10 13.1424 10.0557 13.2416 10.1549C13.3408 10.2541 13.3965 10.3886 13.3965 10.5288C13.3965 10.6691 13.3408 10.8036 13.2416 10.9027L11.5036 12.6355L13.2363 14.3682C13.3226 14.4689 13.3677 14.5985 13.3626 14.7311C13.3575 14.8636 13.3025 14.9894 13.2087 15.0832C13.1149 15.177 12.9892 15.2319 12.8566 15.237C12.7241 15.2422 12.5945 15.1971 12.4937 15.1108L10.3871 13.0041C10.2898 12.906 10.2349 12.7736 10.2344 12.6355Z" fill="#E49E71"/>
</svg>
