<svg width="28" height="28" viewBox="0 0 28 28" fill="none" xmlns="http://www.w3.org/2000/svg">
<path d="M4.04613 16.427C4.29115 16.4926 4.55273 16.4964 4.81018 16.4342C6.74447 15.9638 10.5193 15.3169 14.0742 16.2695C14.4255 16.3636 14.787 16.155 14.8814 15.8025C14.9759 15.4499 14.7672 15.0886 14.4159 14.9944C10.579 13.9664 6.55658 14.6514 4.49983 15.1512C4.39291 15.1786 4.31651 15.1226 4.28227 15.0875C4.24647 15.0505 4.19061 14.9713 4.22153 14.8559L7.53374 2.4946C7.56278 2.38622 7.64231 2.34399 7.68732 2.32872C7.7317 2.31328 7.82018 2.29872 7.90853 2.36613C8.09688 2.51089 8.30379 2.67292 8.52787 2.8498C10.2383 4.19501 13.1006 6.44675 16.4647 7.34814C16.816 7.44227 17.1776 7.23306 17.2719 6.88115C17.3708 6.51203 17.1253 6.12509 16.7567 6.05982C13.675 5.21973 11.0697 3.16942 9.34303 1.81099C9.11437 1.63083 8.90305 1.46488 8.71076 1.31701C8.29587 0.999489 7.75411 0.911038 7.26372 1.07892C6.77107 1.24756 6.39622 1.64864 6.26093 2.15355L2.94872 14.5149C2.80455 15.053 2.95092 15.6115 3.33997 16.0102C3.53942 16.2153 3.7833 16.3565 4.04613 16.427Z" fill="#594B3E"/>
<path d="M13.3797 9.37094C13.7316 9.46524 14.0926 9.25586 14.1869 8.90395C14.2812 8.55205 14.0732 8.19022 13.7213 8.09592C10.769 7.30486 9.37302 5.25471 9.35884 5.23382C9.15686 4.93372 8.74914 4.84907 8.44631 5.05012C8.14347 5.25118 8.05957 5.65848 8.25925 5.96206C8.3256 6.0632 9.92399 8.44499 13.3797 9.37094Z" fill="#ECC65A"/>
<path d="M14.0743 16.2695L21.3923 18.2304C22.6212 18.5597 23.8886 17.8265 24.2184 16.5954L25.7555 10.8591C26.0853 9.62809 25.3544 8.35947 24.1255 8.03019L16.8075 6.06934C16.4562 5.97521 16.0945 6.18442 16.0002 6.53632C15.9059 6.88823 16.1145 7.25023 16.4658 7.34436L23.7838 9.30521C24.3108 9.44641 24.6241 9.99022 24.4827 10.5181L22.9456 16.2544C22.8044 16.7816 22.2609 17.0965 21.734 16.9553L14.416 14.9945C14.0647 14.9004 13.7032 15.1089 13.6087 15.4615C13.5143 15.814 13.723 16.1754 14.0743 16.2695Z" fill="#594B3E"/>
<path d="M14.0743 16.2696C14.4256 16.3638 14.7871 16.1552 14.8815 15.8027L17.273 6.8775C17.3673 6.5256 17.1587 6.1636 16.8074 6.06947C16.4561 5.97534 16.0945 6.18455 16.0002 6.53645L13.6087 15.4616C13.5143 15.8142 13.723 16.1755 14.0743 16.2696Z" fill="#594B3E"/>
<path fill-rule="evenodd" clip-rule="evenodd" d="M18.5293 17.4631L13.8764 23.9189L11.4561 22.197L14.7109 16.44L18.5293 17.4631Z" fill="#ECC65A"/>
<path d="M12.979 24.1754C13.9387 24.4325 14.9512 24.0472 15.4992 23.2163L19.4408 17.2401C19.6417 16.9358 19.5584 16.5261 19.2547 16.3258C18.9493 16.1238 18.5425 16.2088 18.3417 16.513L14.4001 22.4892C14.1647 22.8457 13.7311 23.0103 13.3206 22.9004C13.0247 22.8211 12.7869 22.6139 12.6674 22.3318C12.548 22.0497 12.5649 21.7344 12.7138 21.4662L15.6488 16.1741C15.8255 15.8559 15.7108 15.4541 15.3926 15.2773C15.0735 15.101 14.6734 15.2145 14.4962 15.5346L11.5613 20.8266C11.2142 21.4524 11.175 22.1894 11.4542 22.8478C11.7326 23.5066 12.2885 23.9904 12.979 24.1754Z" fill="#594B3E"/>
</svg>
