<svg width="221" height="7" viewBox="0 0 221 7" fill="none" xmlns="http://www.w3.org/2000/svg">
<g opacity="0.4">
<circle cx="99.5594" cy="0.858268" r="0.858268" fill="#BCCBDA"/>
<circle cx="86.6849" cy="0.858268" r="0.858268" fill="#BCCBDA"/>
<circle cx="108.142" cy="0.858268" r="0.858268" fill="#BCCBDA"/>
<circle cx="95.2679" cy="0.858268" r="0.858268" fill="#BCCBDA"/>
<circle cx="82.3939" cy="0.858268" r="0.858268" fill="#BCCBDA"/>
<circle cx="103.85" cy="0.858268" r="0.858268" fill="#BCCBDA"/>
<circle cx="90.9764" cy="0.858268" r="0.858268" fill="#BCCBDA"/>
<circle cx="78.1024" cy="0.858268" r="0.858268" fill="#BCCBDA"/>
<circle cx="99.5594" cy="5.14977" r="0.858268" fill="#BCCBDA"/>
<circle cx="86.6849" cy="5.14977" r="0.858268" fill="#BCCBDA"/>
<circle cx="108.142" cy="5.14977" r="0.858268" fill="#BCCBDA"/>
<circle cx="95.2679" cy="5.14977" r="0.858268" fill="#BCCBDA"/>
<circle cx="82.3939" cy="5.14977" r="0.858268" fill="#BCCBDA"/>
<circle cx="103.85" cy="5.14977" r="0.858268" fill="#BCCBDA"/>
<circle cx="90.9764" cy="5.14977" r="0.858268" fill="#BCCBDA"/>
<circle cx="78.1024" cy="5.14977" r="0.858268" fill="#BCCBDA"/>
<circle cx="35.1888" cy="0.858268" r="0.858268" fill="#BCCBDA"/>
<circle cx="22.3153" cy="0.858268" r="0.858268" fill="#BCCBDA"/>
<circle cx="9.44079" cy="0.858268" r="0.858268" fill="#BCCBDA"/>
<circle cx="30.8978" cy="0.858268" r="0.858268" fill="#BCCBDA"/>
<circle cx="18.0238" cy="0.858268" r="0.858268" fill="#BCCBDA"/>
<circle cx="5.14977" cy="0.858268" r="0.858268" fill="#BCCBDA"/>
<circle cx="26.6063" cy="0.858268" r="0.858268" fill="#BCCBDA"/>
<circle cx="13.7323" cy="0.858268" r="0.858268" fill="#BCCBDA"/>
<circle cx="0.858268" cy="0.858268" r="0.858268" fill="#BCCBDA"/>
<circle cx="35.1888" cy="5.14953" r="0.858268" fill="#BCCBDA"/>
<circle cx="22.3153" cy="5.14953" r="0.858268" fill="#BCCBDA"/>
<circle cx="9.44079" cy="5.14953" r="0.858268" fill="#BCCBDA"/>
<circle cx="30.8978" cy="5.14953" r="0.858268" fill="#BCCBDA"/>
<circle cx="18.0238" cy="5.14953" r="0.858268" fill="#BCCBDA"/>
<circle cx="5.14977" cy="5.14953" r="0.858268" fill="#BCCBDA"/>
<circle cx="26.6063" cy="5.14953" r="0.858268" fill="#BCCBDA"/>
<circle cx="13.7323" cy="5.14953" r="0.858268" fill="#BCCBDA"/>
<circle cx="0.858268" cy="5.14953" r="0.858268" fill="#BCCBDA"/>
<circle cx="73.8109" cy="0.858268" r="0.858268" fill="#BCCBDA"/>
<circle cx="60.9374" cy="0.858268" r="0.858268" fill="#BCCBDA"/>
<circle cx="48.0629" cy="0.858268" r="0.858268" fill="#BCCBDA"/>
<circle cx="69.5199" cy="0.858268" r="0.858268" fill="#BCCBDA"/>
<circle cx="56.6459" cy="0.858268" r="0.858268" fill="#BCCBDA"/>
<circle cx="43.7718" cy="0.858268" r="0.858268" fill="#BCCBDA"/>
<circle cx="65.2284" cy="0.858268" r="0.858268" fill="#BCCBDA"/>
<circle cx="52.3544" cy="0.858268" r="0.858268" fill="#BCCBDA"/>
<circle cx="39.4803" cy="0.858268" r="0.858268" fill="#BCCBDA"/>
<circle cx="73.8109" cy="5.14977" r="0.858268" fill="#BCCBDA"/>
<circle cx="60.9374" cy="5.14977" r="0.858268" fill="#BCCBDA"/>
<circle cx="48.0629" cy="5.14977" r="0.858268" fill="#BCCBDA"/>
<circle cx="69.5199" cy="5.14977" r="0.858268" fill="#BCCBDA"/>
<circle cx="56.6459" cy="5.14977" r="0.858268" fill="#BCCBDA"/>
<circle cx="43.7718" cy="5.14977" r="0.858268" fill="#BCCBDA"/>
<circle cx="65.2284" cy="5.14977" r="0.858268" fill="#BCCBDA"/>
<circle cx="52.3544" cy="5.14977" r="0.858268" fill="#BCCBDA"/>
<circle cx="39.4803" cy="5.14977" r="0.858268" fill="#BCCBDA"/>
</g>
<g opacity="0.4">
<circle cx="211.559" cy="0.858268" r="0.858268" fill="#BCCBDA"/>
<circle cx="198.685" cy="0.858268" r="0.858268" fill="#BCCBDA"/>
<circle cx="220.142" cy="0.858268" r="0.858268" fill="#BCCBDA"/>
<circle cx="207.268" cy="0.858268" r="0.858268" fill="#BCCBDA"/>
<circle cx="194.394" cy="0.858268" r="0.858268" fill="#BCCBDA"/>
<circle cx="215.85" cy="0.858268" r="0.858268" fill="#BCCBDA"/>
<circle cx="202.976" cy="0.858268" r="0.858268" fill="#BCCBDA"/>
<circle cx="190.102" cy="0.858268" r="0.858268" fill="#BCCBDA"/>
<circle cx="211.559" cy="5.14977" r="0.858268" fill="#BCCBDA"/>
<circle cx="198.685" cy="5.14977" r="0.858268" fill="#BCCBDA"/>
<circle cx="220.142" cy="5.14977" r="0.858268" fill="#BCCBDA"/>
<circle cx="207.268" cy="5.14977" r="0.858268" fill="#BCCBDA"/>
<circle cx="194.394" cy="5.14977" r="0.858268" fill="#BCCBDA"/>
<circle cx="215.85" cy="5.14977" r="0.858268" fill="#BCCBDA"/>
<circle cx="202.976" cy="5.14977" r="0.858268" fill="#BCCBDA"/>
<circle cx="190.102" cy="5.14977" r="0.858268" fill="#BCCBDA"/>
<circle cx="147.189" cy="0.858268" r="0.858268" fill="#BCCBDA"/>
<circle cx="134.315" cy="0.858268" r="0.858268" fill="#BCCBDA"/>
<circle cx="121.441" cy="0.858268" r="0.858268" fill="#BCCBDA"/>
<circle cx="142.898" cy="0.858268" r="0.858268" fill="#BCCBDA"/>
<circle cx="130.024" cy="0.858268" r="0.858268" fill="#BCCBDA"/>
<circle cx="117.15" cy="0.858268" r="0.858268" fill="#BCCBDA"/>
<circle cx="138.606" cy="0.858268" r="0.858268" fill="#BCCBDA"/>
<circle cx="125.732" cy="0.858268" r="0.858268" fill="#BCCBDA"/>
<circle cx="112.858" cy="0.858268" r="0.858268" fill="#BCCBDA"/>
<circle cx="147.189" cy="5.14953" r="0.858268" fill="#BCCBDA"/>
<circle cx="134.315" cy="5.14953" r="0.858268" fill="#BCCBDA"/>
<circle cx="121.441" cy="5.14953" r="0.858268" fill="#BCCBDA"/>
<circle cx="142.898" cy="5.14953" r="0.858268" fill="#BCCBDA"/>
<circle cx="130.024" cy="5.14953" r="0.858268" fill="#BCCBDA"/>
<circle cx="117.15" cy="5.14953" r="0.858268" fill="#BCCBDA"/>
<circle cx="138.606" cy="5.14953" r="0.858268" fill="#BCCBDA"/>
<circle cx="125.732" cy="5.14953" r="0.858268" fill="#BCCBDA"/>
<circle cx="112.858" cy="5.14953" r="0.858268" fill="#BCCBDA"/>
<circle cx="185.811" cy="0.858268" r="0.858268" fill="#BCCBDA"/>
<circle cx="172.937" cy="0.858268" r="0.858268" fill="#BCCBDA"/>
<circle cx="160.063" cy="0.858268" r="0.858268" fill="#BCCBDA"/>
<circle cx="181.52" cy="0.858268" r="0.858268" fill="#BCCBDA"/>
<circle cx="168.646" cy="0.858268" r="0.858268" fill="#BCCBDA"/>
<circle cx="155.772" cy="0.858268" r="0.858268" fill="#BCCBDA"/>
<circle cx="177.228" cy="0.858268" r="0.858268" fill="#BCCBDA"/>
<circle cx="164.354" cy="0.858268" r="0.858268" fill="#BCCBDA"/>
<circle cx="151.48" cy="0.858268" r="0.858268" fill="#BCCBDA"/>
<circle cx="185.811" cy="5.14977" r="0.858268" fill="#BCCBDA"/>
<circle cx="172.937" cy="5.14977" r="0.858268" fill="#BCCBDA"/>
<circle cx="160.063" cy="5.14977" r="0.858268" fill="#BCCBDA"/>
<circle cx="181.52" cy="5.14977" r="0.858268" fill="#BCCBDA"/>
<circle cx="168.646" cy="5.14977" r="0.858268" fill="#BCCBDA"/>
<circle cx="155.772" cy="5.14977" r="0.858268" fill="#BCCBDA"/>
<circle cx="177.228" cy="5.14977" r="0.858268" fill="#BCCBDA"/>
<circle cx="164.354" cy="5.14977" r="0.858268" fill="#BCCBDA"/>
<circle cx="151.48" cy="5.14977" r="0.858268" fill="#BCCBDA"/>
</g>
</svg>
