<svg width="28" height="29" viewBox="0 0 28 29" fill="none" xmlns="http://www.w3.org/2000/svg">
<rect x="11.0654" y="0.537354" width="6.45424" height="1.8983" rx="0.949152" fill="#BB926A"/>
<path d="M10.0698 20.7883H10.9294V21.6479H10.0698V20.7883Z" fill="#594B3E"/>
<path fill-rule="evenodd" clip-rule="evenodd" d="M12.0475 17.2754C12.083 16.1445 13.3392 15.881 14.2927 16.4902C17.1806 18.3356 18.0166 12.4544 20.1001 12.9271C20.9972 13.1307 21.2633 14.2414 21.2972 15.1606L21.5359 21.6312C21.6221 23.9694 19.6917 25.8822 17.3543 25.7744L11.7891 25.5177L12.0475 17.2754Z" fill="#BB926A"/>
<path d="M4.05273 20.7883H4.91234V21.6479H4.05273V20.7883Z" fill="#594B3E"/>
<path d="M7.06139 19.9288H7.921C8.15837 19.9288 8.3508 20.1212 8.3508 20.3586H9.21041C9.21041 19.6465 8.63312 19.0692 7.921 19.0692V18.6394H7.06139V19.0692C6.34926 19.0692 5.77197 19.6465 5.77197 20.3586C5.77197 21.0707 6.34926 21.648 7.06139 21.648H7.921C8.15837 21.648 8.3508 21.8405 8.3508 22.0778C8.3508 22.3152 8.15837 22.5076 7.921 22.5076H7.06139C6.82401 22.5076 6.63158 22.3152 6.63158 22.0778H5.77197C5.77197 22.79 6.34926 23.3673 7.06139 23.3673V23.7971H7.921V23.3673C8.63312 23.3673 9.21041 22.79 9.21041 22.0778C9.21041 21.3657 8.63312 20.7884 7.921 20.7884H7.06139C6.82401 20.7884 6.63158 20.596 6.63158 20.3586C6.63158 20.1212 6.82401 19.9288 7.06139 19.9288Z" fill="#594B3E"/>
<path d="M19.5257 7.46446H20.3854C20.6227 7.46446 20.8152 7.65689 20.8152 7.89427H21.6748C21.6748 7.18214 21.0975 6.60485 20.3854 6.60485V6.17505H19.5257V6.60485C18.8136 6.60485 18.2363 7.18214 18.2363 7.89427C18.2363 8.60639 18.8136 9.18368 19.5257 9.18368H20.3854C20.6227 9.18368 20.8152 9.37611 20.8152 9.61349C20.8152 9.85086 20.6227 10.0433 20.3854 10.0433H19.5257C19.2884 10.0433 19.0959 9.85086 19.0959 9.61349H18.2363C18.2363 10.3256 18.8136 10.9029 19.5257 10.9029V11.3327H20.3854V10.9029C21.0975 10.9029 21.6748 10.3256 21.6748 9.61349C21.6748 8.90136 21.0975 8.32407 20.3854 8.32407H19.5257C19.2884 8.32407 19.0959 8.13164 19.0959 7.89427C19.0959 7.65689 19.2884 7.46446 19.5257 7.46446Z" fill="#594B3E"/>
<path fill-rule="evenodd" clip-rule="evenodd" d="M22.1045 4.07109C23.9353 4.91115 25.11 6.73954 25.1132 8.75381C25.1108 10.7689 23.936 12.5983 22.1045 13.4387V23.797C22.1031 24.9833 21.1418 25.9446 19.9555 25.946H5.34213C3.68129 25.9441 2.33539 24.5982 2.3335 22.9374V20.7884C2.336 18.9482 3.31871 17.2488 4.91233 16.3287V15.6307H5.41992L4.5096 13.2027C4.46011 13.0707 4.47852 12.9228 4.55888 12.8069C4.63924 12.691 4.77132 12.622 4.91233 12.6221C5.06763 12.6109 5.21661 12.556 5.34213 12.4639C5.59737 12.2942 5.89534 12.2 6.20174 12.1923C6.35161 12.1926 6.49914 12.2295 6.63155 12.2997V2.30674C6.63297 1.12045 7.59429 0.159136 8.78057 0.157715H19.9555C21.1418 0.159136 22.1031 1.12045 22.1045 2.30674V4.07109ZM16.9469 1.01732H11.7892V1.44713C11.7892 1.6845 11.9817 1.87693 12.219 1.87693H16.5171C16.7544 1.87693 16.9469 1.6845 16.9469 1.44713V1.01732ZM5.48614 13.3583C5.5841 13.3142 5.67952 13.2647 5.77196 13.21C5.89748 13.1179 6.04646 13.0631 6.20176 13.0519C6.27236 13.0519 6.40561 13.2026 6.5101 13.3207L6.52283 13.3351C6.7427 13.6629 7.09823 13.8745 7.49118 13.9115C7.88413 13.8745 8.23966 13.6629 8.45953 13.3351L8.47225 13.3207C8.57674 13.2026 8.71 13.0519 8.78059 13.0519C8.93589 13.0631 9.08488 13.1179 9.2104 13.21C9.30228 13.2647 9.39713 13.3142 9.4945 13.3583L8.64434 15.6307H6.33801L5.48614 13.3583ZM3.19309 22.9374C3.19451 24.1237 4.15583 25.085 5.34211 25.0864H9.64016C10.8264 25.085 11.7878 24.1237 11.7892 22.9374V20.7884C11.787 19.0449 10.733 17.475 9.1201 16.8131C9.17844 16.9861 9.20891 17.1673 9.21036 17.3499V17.7797H8.35075V17.3499C8.35075 16.8752 7.96588 16.4903 7.49114 16.4903C7.01639 16.4903 6.63153 16.8752 6.63153 17.3499V17.7797H5.77192V17.3499C5.77336 17.1673 5.80383 16.9861 5.86217 16.8131C4.24927 17.475 3.19524 19.0449 3.19309 20.7884V22.9374ZM21.2449 23.797C21.2449 24.5091 20.6676 25.0864 19.9555 25.0864H11.7415C12.3217 24.522 12.649 23.7469 12.6488 22.9374V20.7884C12.6463 18.9482 11.6636 17.2488 10.07 16.3287V15.6307H9.56238L10.4727 13.2027C10.5222 13.0707 10.5038 12.9228 10.4234 12.8069C10.3431 12.691 10.211 12.622 10.07 12.6221C9.91468 12.6109 9.7657 12.556 9.64018 12.4639C9.38494 12.2942 9.08697 12.2 8.78057 12.1923C8.38762 12.2292 8.03209 12.4408 7.81222 12.7686L7.7995 12.783C7.69501 12.9012 7.56175 13.0519 7.49115 13.0519V2.30674C7.49115 1.59462 8.06844 1.01732 8.78057 1.01732H10.9296V1.44713C10.9296 2.15925 11.5069 2.73654 12.219 2.73654H16.5171C17.2292 2.73654 17.8065 2.15925 17.8065 1.44713V1.01732H19.9555C20.6676 1.01732 21.2449 1.59462 21.2449 2.30674V3.76808C19.1524 3.21384 16.9365 4.02519 15.6966 5.79956C14.4567 7.57392 14.4567 9.93371 15.6966 11.7081C16.9365 13.4824 19.1524 14.2938 21.2449 13.7395V23.797ZM15.6574 8.75381C15.6574 11.1276 17.5817 13.0519 19.9555 13.0519C22.3281 13.0493 24.2509 11.1265 24.2535 8.75381C24.2535 6.38007 22.3292 4.45576 19.9555 4.45576C17.5817 4.45576 15.6574 6.38007 15.6574 8.75381Z" fill="#594B3E"/>
<path d="M25.1132 8.75381L25.2632 8.75399V8.75358L25.1132 8.75381ZM22.1045 4.07109H21.9545V4.1673L22.042 4.20742L22.1045 4.07109ZM22.1045 13.4387L22.042 13.3024L21.9545 13.3425V13.4387H22.1045ZM22.1045 23.797L22.2545 23.7972V23.797H22.1045ZM19.9555 25.946V26.096H19.9557L19.9555 25.946ZM5.34213 25.946L5.34196 26.096H5.34213V25.946ZM2.3335 22.9374H2.1835L2.1835 22.9375L2.3335 22.9374ZM2.3335 20.7884L2.1835 20.7881V20.7884H2.3335ZM4.91233 16.3287L4.98733 16.4586L5.06233 16.4153V16.3287H4.91233ZM4.91233 15.6307V15.4807H4.76233V15.6307H4.91233ZM5.41992 15.6307V15.7807H5.63636L5.56038 15.578L5.41992 15.6307ZM4.5096 13.2027L4.36914 13.2554L4.36915 13.2554L4.5096 13.2027ZM4.55888 12.8069L4.43563 12.7214H4.43563L4.55888 12.8069ZM4.91233 12.6221L4.91223 12.7725L4.92312 12.7717L4.91233 12.6221ZM5.34213 12.4639L5.25899 12.3388L5.25337 12.343L5.34213 12.4639ZM6.20174 12.1923L6.20209 12.0422L6.19793 12.0423L6.20174 12.1923ZM6.63155 12.2997L6.56127 12.4322L6.78155 12.549V12.2997H6.63155ZM6.63155 2.30674L6.48154 2.30656V2.30674H6.63155ZM8.78057 0.157715V0.00771473L8.78039 0.00771494L8.78057 0.157715ZM19.9555 0.157715L19.9557 0.00771484H19.9555V0.157715ZM22.1045 2.30674H22.2545V2.30656L22.1045 2.30674ZM11.7892 1.01732V0.867325H11.6392V1.01732H11.7892ZM16.9469 1.01732H17.0969V0.867325H16.9469V1.01732ZM5.77196 13.21L5.84836 13.3391L5.85474 13.3353L5.86072 13.331L5.77196 13.21ZM5.48614 13.3583L5.4246 13.2215L5.2963 13.2792L5.34568 13.411L5.48614 13.3583ZM6.20176 13.0519V12.9015L6.19097 12.9023L6.20176 13.0519ZM6.5101 13.3207L6.39773 13.4201L6.39776 13.4201L6.5101 13.3207ZM6.52283 13.3351L6.6474 13.2515L6.64181 13.2432L6.63517 13.2357L6.52283 13.3351ZM7.49118 13.9115L7.47712 14.0608L7.49118 14.0621L7.50523 14.0608L7.49118 13.9115ZM8.45953 13.3351L8.34718 13.2357L8.34054 13.2432L8.33496 13.2515L8.45953 13.3351ZM8.47225 13.3207L8.5846 13.4201L8.58462 13.4201L8.47225 13.3207ZM8.78059 13.0519L8.79142 12.9019H8.78059V13.0519ZM9.2104 13.21L9.12164 13.331L9.12748 13.3352L9.13372 13.3389L9.2104 13.21ZM9.4945 13.3583L9.63499 13.4109L9.68412 13.2796L9.55641 13.2217L9.4945 13.3583ZM8.64434 15.6307V15.7807H8.74838L8.78483 15.6833L8.64434 15.6307ZM6.33801 15.6307L6.19756 15.6833L6.23405 15.7807H6.33801V15.6307ZM5.34211 25.0864L5.34193 25.2364H5.34211V25.0864ZM3.19309 22.9374H3.04309L3.04309 22.9376L3.19309 22.9374ZM9.64016 25.0864V25.2364H9.64034L9.64016 25.0864ZM11.7892 22.9374L11.9392 22.9376V22.9374H11.7892ZM11.7892 20.7884H11.9392L11.9392 20.7882L11.7892 20.7884ZM9.1201 16.8131L9.17705 16.6743L8.87291 16.5495L8.97796 16.861L9.1201 16.8131ZM9.21036 17.3499H9.36036L9.36035 17.3487L9.21036 17.3499ZM9.21036 17.7797V17.9297H9.36036V17.7797H9.21036ZM8.35075 17.7797H8.20075V17.9297H8.35075V17.7797ZM6.63153 17.7797V17.9297H6.78153V17.7797H6.63153ZM5.77192 17.7797H5.62192V17.9297H5.77192V17.7797ZM5.77192 17.3499L5.62192 17.3487V17.3499H5.77192ZM5.86217 16.8131L6.00431 16.861L6.10936 16.5495L5.80522 16.6743L5.86217 16.8131ZM3.19309 20.7884L3.04309 20.7882V20.7884H3.19309ZM11.7415 25.0864L11.6369 24.9789L11.3722 25.2364H11.7415V25.0864ZM12.6488 22.9374H12.4988V22.9374L12.6488 22.9374ZM12.6488 20.7884H12.7988L12.7988 20.7881L12.6488 20.7884ZM10.07 16.3287H9.91998V16.4153L9.99498 16.4586L10.07 16.3287ZM10.07 15.6307H10.22V15.4807H10.07V15.6307ZM9.56238 15.6307L9.42193 15.578L9.34595 15.7807H9.56238V15.6307ZM10.4727 13.2027L10.6132 13.2554L10.6132 13.2554L10.4727 13.2027ZM10.4234 12.8069L10.5467 12.7214V12.7214L10.4234 12.8069ZM10.07 12.6221L10.0592 12.7721L10.0701 12.7721L10.07 12.6221ZM9.64018 12.4639L9.72903 12.3428L9.72323 12.339L9.64018 12.4639ZM8.78057 12.1923L8.78438 12.0423L8.77543 12.0421L8.76651 12.0429L8.78057 12.1923ZM7.81222 12.7686L7.92457 12.868L7.93121 12.8605L7.93679 12.8522L7.81222 12.7686ZM7.7995 12.783L7.68715 12.6836L7.68713 12.6836L7.7995 12.783ZM7.49115 13.0519H7.34115V13.2019H7.49115V13.0519ZM10.9296 1.01732H11.0796V0.867325H10.9296V1.01732ZM17.8065 1.01732V0.867325H17.6565V1.01732H17.8065ZM21.2449 3.76808L21.2065 3.91308L21.3949 3.96298V3.76808H21.2449ZM15.6966 5.79956L15.8196 5.88547L15.6966 5.79956ZM21.2449 13.7395H21.3949V13.5446L21.2065 13.5945L21.2449 13.7395ZM19.9555 13.0519V13.2019L19.9556 13.2019L19.9555 13.0519ZM24.2535 8.75381L24.4035 8.75398V8.75381H24.2535ZM25.2632 8.75358C25.2599 6.68076 24.051 4.79923 22.1671 3.93476L22.042 4.20742C23.8195 5.02307 24.9601 6.79831 24.9632 8.75405L25.2632 8.75358ZM22.1671 13.575C24.0518 12.7102 25.2608 10.8276 25.2632 8.75399L24.9632 8.75364C24.9609 10.7101 23.8202 12.4864 22.042 13.3024L22.1671 13.575ZM22.2545 23.797V13.4387H21.9545V23.797H22.2545ZM19.9557 26.096C21.2247 26.0945 22.253 25.0662 22.2545 23.7972L21.9545 23.7968C21.9532 24.9004 21.0589 25.7947 19.9553 25.796L19.9557 26.096ZM5.34213 26.096H19.9555V25.796H5.34213V26.096ZM2.1835 22.9375C2.18549 24.6811 3.59841 26.094 5.34196 26.096L5.3423 25.796C3.76417 25.7942 2.4853 24.5153 2.4835 22.9372L2.1835 22.9375ZM2.1835 20.7884V22.9374H2.4835V20.7884H2.1835ZM4.83733 16.1988C3.19736 17.1456 2.18607 18.8945 2.1835 20.7881L2.4835 20.7886C2.48592 19.0019 3.44005 17.3519 4.98733 16.4586L4.83733 16.1988ZM4.76233 15.6307V16.3287H5.06233V15.6307H4.76233ZM5.41992 15.4807H4.91233V15.7807H5.41992V15.4807ZM4.36915 13.2554L5.27947 15.6834L5.56038 15.578L4.65005 13.1501L4.36915 13.2554ZM4.43563 12.7214C4.32722 12.8777 4.30238 13.0773 4.36914 13.2554L4.65005 13.1501C4.61783 13.0641 4.62982 12.9678 4.68214 12.8924L4.43563 12.7214ZM4.91242 12.4721C4.7222 12.4719 4.54403 12.5651 4.43563 12.7214L4.68214 12.8924C4.73445 12.817 4.82044 12.772 4.91223 12.7721L4.91242 12.4721ZM5.25337 12.343C5.15062 12.4184 5.02866 12.4633 4.90153 12.4724L4.92312 12.7717C5.10659 12.7584 5.2826 12.6937 5.43089 12.5848L5.25337 12.343ZM6.19793 12.0423C5.86329 12.0508 5.53785 12.1536 5.25908 12.339L5.42518 12.5888C5.65689 12.4347 5.92739 12.3493 6.20555 12.3422L6.19793 12.0423ZM6.70182 12.1672C6.54788 12.0855 6.37635 12.0427 6.20209 12.0423L6.20139 12.3423C6.32688 12.3425 6.4504 12.3734 6.56127 12.4322L6.70182 12.1672ZM6.48154 2.30674V12.2997H6.78155V2.30674H6.48154ZM8.78039 0.00771494C7.5114 0.00923499 6.48307 1.03757 6.48154 2.30656L6.78155 2.30692C6.78287 1.20334 7.67717 0.309037 8.78075 0.307715L8.78039 0.00771494ZM19.9555 0.00771484H8.78057V0.307715H19.9555V0.00771484ZM22.2545 2.30656C22.253 1.03757 21.2247 0.00923499 19.9557 0.00771494L19.9553 0.307715C21.0589 0.309037 21.9532 1.20334 21.9545 2.30692L22.2545 2.30656ZM22.2545 4.07109V2.30674H21.9545V4.07109H22.2545ZM11.7892 1.16732H16.9469V0.867325H11.7892V1.16732ZM11.9392 1.44713V1.01732H11.6392V1.44713H11.9392ZM12.219 1.72693C12.0645 1.72693 11.9392 1.60166 11.9392 1.44713H11.6392C11.6392 1.76735 11.8988 2.02693 12.219 2.02693V1.72693ZM16.5171 1.72693H12.219V2.02693H16.5171V1.72693ZM16.7969 1.44713C16.7969 1.60166 16.6716 1.72693 16.5171 1.72693V2.02693C16.8373 2.02693 17.0969 1.76735 17.0969 1.44713H16.7969ZM16.7969 1.01732V1.44713H17.0969V1.01732H16.7969ZM5.69556 13.0809C5.60793 13.1328 5.51746 13.1797 5.4246 13.2215L5.54768 13.4951C5.65073 13.4487 5.75111 13.3967 5.84836 13.3391L5.69556 13.0809ZM6.19097 12.9023C6.00749 12.9155 5.83149 12.9803 5.6832 13.0891L5.86072 13.331C5.96347 13.2555 6.08543 13.2106 6.21256 13.2015L6.19097 12.9023ZM6.62247 13.2214C6.57134 13.1635 6.50739 13.091 6.44654 13.0332C6.41618 13.0044 6.38246 12.9752 6.34801 12.9523C6.31877 12.9329 6.26581 12.9019 6.20176 12.9019V13.2019C6.17301 13.2019 6.16319 13.1897 6.18205 13.2022C6.1957 13.2113 6.21507 13.2271 6.23991 13.2507C6.28945 13.2978 6.34437 13.3597 6.39773 13.4201L6.62247 13.2214ZM6.63517 13.2357L6.62245 13.2213L6.39776 13.4201L6.41048 13.4345L6.63517 13.2357ZM7.50523 13.7621C7.15713 13.7294 6.84218 13.5419 6.6474 13.2515L6.39826 13.4187C6.64322 13.7838 7.03933 14.0196 7.47712 14.0608L7.50523 13.7621ZM8.33496 13.2515C8.14018 13.5419 7.82523 13.7294 7.47712 13.7621L7.50523 14.0608C7.94303 14.0196 8.33913 13.7838 8.5841 13.4187L8.33496 13.2515ZM8.3599 13.2213L8.34718 13.2357L8.57188 13.4345L8.5846 13.4201L8.3599 13.2213ZM8.78059 12.9019C8.71654 12.9019 8.66359 12.9329 8.63434 12.9523C8.59989 12.9752 8.56618 13.0044 8.53582 13.0332C8.47496 13.091 8.41101 13.1635 8.35988 13.2214L8.58462 13.4201C8.63798 13.3597 8.6929 13.2978 8.74245 13.2507C8.76728 13.2271 8.78665 13.2113 8.80031 13.2022C8.81917 13.1897 8.80934 13.2019 8.78059 13.2019V12.9019ZM9.29916 13.0891C9.15087 12.9803 8.97486 12.9155 8.79139 12.9023L8.7698 13.2015C8.89693 13.2106 9.01889 13.2555 9.12164 13.331L9.29916 13.0891ZM9.55641 13.2217C9.4641 13.1799 9.37418 13.1329 9.28708 13.0811L9.13372 13.3389C9.23037 13.3964 9.33015 13.4485 9.43258 13.4949L9.55641 13.2217ZM8.78483 15.6833L9.63499 13.4109L9.35401 13.3058L8.50385 15.5781L8.78483 15.6833ZM6.33801 15.7807H8.64434V15.4807H6.33801V15.7807ZM5.34568 13.411L6.19756 15.6833L6.47847 15.578L5.62659 13.3057L5.34568 13.411ZM5.34229 24.9364C4.23871 24.9351 3.34441 24.0408 3.34309 22.9372L3.04309 22.9376C3.04461 24.2065 4.07294 25.2349 5.34193 25.2364L5.34229 24.9364ZM9.64016 24.9364H5.34211V25.2364H9.64016V24.9364ZM11.6392 22.9372C11.6379 24.0408 10.7436 24.9351 9.63998 24.9364L9.64034 25.2364C10.9093 25.2349 11.9377 24.2065 11.9392 22.9376L11.6392 22.9372ZM11.6392 20.7884V22.9374H11.9392V20.7884H11.6392ZM9.06314 16.9519C10.6198 17.5907 11.6371 19.1059 11.6392 20.7885L11.9392 20.7882C11.937 18.9839 10.8462 17.3594 9.17705 16.6743L9.06314 16.9519ZM9.36035 17.3487C9.35878 17.1502 9.32566 16.9532 9.26223 16.7652L8.97796 16.861C9.03123 17.019 9.05904 17.1844 9.06036 17.3511L9.36035 17.3487ZM9.36036 17.7797V17.3499H9.06036V17.7797H9.36036ZM8.35075 17.9297H9.21036V17.6297H8.35075V17.9297ZM8.20075 17.3499V17.7797H8.50075V17.3499H8.20075ZM7.49114 16.6403C7.88304 16.6403 8.20075 16.958 8.20075 17.3499H8.50075C8.50075 16.7923 8.04873 16.3403 7.49114 16.3403V16.6403ZM6.78153 17.3499C6.78153 16.958 7.09923 16.6403 7.49114 16.6403V16.3403C6.93354 16.3403 6.48153 16.7923 6.48153 17.3499H6.78153ZM6.78153 17.7797V17.3499H6.48153V17.7797H6.78153ZM5.77192 17.9297H6.63153V17.6297H5.77192V17.9297ZM5.62192 17.3499V17.7797H5.92192V17.3499H5.62192ZM5.72004 16.7652C5.65661 16.9532 5.62349 17.1502 5.62192 17.3487L5.92191 17.3511C5.92323 17.1844 5.95104 17.019 6.00431 16.861L5.72004 16.7652ZM3.34309 20.7885C3.34516 19.1059 4.36245 17.5907 5.91913 16.9519L5.80522 16.6743C4.13609 17.3594 3.04531 18.9839 3.04309 20.7882L3.34309 20.7885ZM3.34309 22.9374V20.7884H3.04309V22.9374H3.34309ZM19.9555 25.2364C20.7505 25.2364 21.3949 24.592 21.3949 23.797H21.0949C21.0949 24.4263 20.5848 24.9364 19.9555 24.9364V25.2364ZM11.7415 25.2364H19.9555V24.9364H11.7415V25.2364ZM12.4988 22.9374C12.499 23.7064 12.1881 24.4427 11.6369 24.9789L11.8461 25.1939C12.4554 24.6013 12.799 23.7873 12.7988 22.9373L12.4988 22.9374ZM12.4988 20.7884V22.9374H12.7988V20.7884H12.4988ZM9.99498 16.4586C11.5423 17.3519 12.4964 19.0019 12.4988 20.7886L12.7988 20.7881C12.7962 18.8945 11.7849 17.1456 10.145 16.1988L9.99498 16.4586ZM9.91998 15.6307V16.3287H10.22V15.6307H9.91998ZM9.56238 15.7807H10.07V15.4807H9.56238V15.7807ZM10.3323 13.1501L9.42193 15.578L9.70284 15.6834L10.6132 13.2554L10.3323 13.1501ZM10.3002 12.8924C10.3525 12.9678 10.3645 13.0641 10.3323 13.1501L10.6132 13.2554C10.6799 13.0773 10.6551 12.8777 10.5467 12.7214L10.3002 12.8924ZM10.0701 12.7721C10.1619 12.772 10.2479 12.817 10.3002 12.8924L10.5467 12.7214C10.4383 12.5651 10.2601 12.4719 10.0699 12.4721L10.0701 12.7721ZM9.55142 12.5848C9.69971 12.6937 9.87571 12.7584 10.0592 12.7717L10.0808 12.4724C9.95365 12.4633 9.83169 12.4184 9.72894 12.343L9.55142 12.5848ZM8.77676 12.3422C9.05492 12.3493 9.32542 12.4347 9.55713 12.5888L9.72323 12.339C9.44446 12.1536 9.11902 12.0508 8.78438 12.0423L8.77676 12.3422ZM7.93679 12.8522C8.13156 12.5618 8.44652 12.3744 8.79462 12.3416L8.76651 12.0429C8.32872 12.0841 7.93261 12.3199 7.68765 12.6851L7.93679 12.8522ZM7.91185 12.8824L7.92457 12.868L7.69987 12.6692L7.68715 12.6836L7.91185 12.8824ZM7.49115 13.2019C7.5552 13.2019 7.60816 13.1708 7.63741 13.1514C7.67185 13.1285 7.70557 13.0993 7.73593 13.0705C7.79678 13.0127 7.86074 12.9402 7.91187 12.8824L7.68713 12.6836C7.63377 12.744 7.57884 12.8059 7.5293 12.853C7.50446 12.8766 7.48509 12.8924 7.47144 12.9015C7.45258 12.914 7.4624 12.9019 7.49115 12.9019V13.2019ZM7.34115 2.30674V13.0519H7.64115V2.30674H7.34115ZM8.78057 0.867325C7.9856 0.867325 7.34115 1.51177 7.34115 2.30674H7.64115C7.64115 1.67746 8.15129 1.16732 8.78057 1.16732V0.867325ZM10.9296 0.867325H8.78057V1.16732H10.9296V0.867325ZM11.0796 1.44713V1.01732H10.7796V1.44713H11.0796ZM12.219 2.58654C11.5897 2.58654 11.0796 2.07641 11.0796 1.44713H10.7796C10.7796 2.2421 11.424 2.88654 12.219 2.88654V2.58654ZM16.5171 2.58654H12.219V2.88654H16.5171V2.58654ZM17.6565 1.44713C17.6565 2.07641 17.1463 2.58654 16.5171 2.58654V2.88654C17.312 2.88654 17.9565 2.2421 17.9565 1.44713H17.6565ZM17.6565 1.01732V1.44713H17.9565V1.01732H17.6565ZM19.9555 0.867325H17.8065V1.16732H19.9555V0.867325ZM21.3949 2.30674C21.3949 1.51177 20.7505 0.867325 19.9555 0.867325V1.16732C20.5848 1.16732 21.0949 1.67746 21.0949 2.30674H21.3949ZM21.3949 3.76808V2.30674H21.0949V3.76808H21.3949ZM15.8196 5.88547C17.0234 4.16271 19.1749 3.37496 21.2065 3.91308L21.2833 3.62308C19.13 3.05273 16.8496 3.88767 15.5737 5.71364L15.8196 5.88547ZM15.8196 11.6222C14.6157 9.89939 14.6157 7.60823 15.8196 5.88547L15.5737 5.71364C14.2977 7.53961 14.2977 9.96802 15.5737 11.794L15.8196 11.6222ZM21.2065 13.5945C19.1749 14.1327 17.0234 13.3449 15.8196 11.6222L15.5737 11.794C16.8496 13.62 19.13 14.4549 21.2833 13.8846L21.2065 13.5945ZM21.3949 23.797V13.7395H21.0949V23.797H21.3949ZM19.9555 12.9019C17.6646 12.9019 15.8074 11.0447 15.8074 8.75381H15.5074C15.5074 11.2104 17.4989 13.2019 19.9555 13.2019V12.9019ZM24.1035 8.75365C24.101 11.0436 22.2453 12.8993 19.9553 12.9019L19.9556 13.2019C22.411 13.1992 24.4008 11.2094 24.4035 8.75398L24.1035 8.75365ZM19.9555 4.60576C22.2464 4.60576 24.1035 6.46291 24.1035 8.75381H24.4035C24.4035 6.29722 22.4121 4.30576 19.9555 4.30576V4.60576ZM15.8074 8.75381C15.8074 6.46291 17.6646 4.60576 19.9555 4.60576V4.30576C17.4989 4.30576 15.5074 6.29722 15.5074 8.75381H15.8074Z" fill="#594B3E"/>
<path d="M17.9004 14.9323L16.1812 17.0813C16.0779 17.2103 16.0577 17.3871 16.1293 17.5361C16.2009 17.6851 16.3516 17.7798 16.5169 17.7797H16.9467V20.7883H17.8063V17.3499C17.807 17.125 17.6342 16.9376 17.41 16.9201L18.2361 15.8886L19.0622 16.9201C18.838 16.9376 18.6652 17.125 18.6659 17.3499V21.648H19.5255V17.7797H19.9553C20.1206 17.7798 20.2713 17.6851 20.3429 17.5361C20.4145 17.3871 20.3943 17.2103 20.291 17.0813L18.5718 14.9323C18.4872 14.8352 18.3648 14.7795 18.2361 14.7795C18.1074 14.7795 17.985 14.8352 17.9004 14.9323Z" fill="#594B3E"/>
<path d="M14.2739 11.4938C14.1894 11.3968 14.067 11.3411 13.9383 11.3411C13.8095 11.3411 13.6871 11.3968 13.6026 11.4938L11.8834 13.6428C11.7801 13.7718 11.7599 13.9486 11.8315 14.0976C11.9031 14.2466 12.0538 14.3413 12.219 14.3412H12.6488V17.3499H13.5084V13.9114C13.5091 13.6866 13.3364 13.4992 13.1122 13.4816L13.9383 12.4501L14.7643 13.4816C14.5401 13.4992 14.3674 13.6866 14.3681 13.9114V18.2095H15.2277V14.3412H15.6575C15.8228 14.3413 15.9734 14.2466 16.045 14.0976C16.1166 13.9486 16.0964 13.7718 15.9931 13.6428L14.2739 11.4938Z" fill="#594B3E"/>
<path d="M12.6058 7.65052C12.6774 7.50163 12.6574 7.32485 12.5542 7.19578L10.835 5.04676C10.7504 4.94973 10.628 4.89404 10.4993 4.89404C10.3706 4.89404 10.2482 4.94973 10.1636 5.04676L8.44439 7.19578C8.34104 7.32486 8.32091 7.50179 8.39261 7.65079C8.46432 7.79979 8.61514 7.89444 8.7805 7.89422H9.2103V10.9029H10.0699V7.46441C10.0706 7.23954 9.89782 7.05215 9.67363 7.03461L10.4997 6.00307L11.3258 7.03461C11.1016 7.05215 10.9288 7.23954 10.9295 7.46441V11.7625H11.7891V7.89422H12.2189C12.384 7.89399 12.5343 7.79928 12.6058 7.65052Z" fill="#594B3E"/>
<path d="M14.3682 19.0691H15.2278V19.9287H14.3682V19.0691Z" fill="#594B3E"/>
<path d="M14.3682 20.7883H15.2278V21.6479H14.3682V20.7883Z" fill="#594B3E"/>
<path d="M18.666 22.5076H19.5256V23.3672H18.666V22.5076Z" fill="#594B3E"/>
<path d="M16.9468 21.6479H17.8064V22.5076H16.9468V21.6479Z" fill="#594B3E"/>
</svg>
