<svg width="87" height="25" viewBox="0 0 87 25" fill="none" xmlns="http://www.w3.org/2000/svg">
<g opacity="0.1" clip-path="url(#clip0_2931_280)">
<path d="M31.677 9.43891C31.4474 9.36236 30.9628 9.31131 30.478 9.31131C29.0239 9.31131 27.4677 10.4893 27.4677 11.9434V18.8779H24.1514V6.50515H27.3402V7.75516C28.08 6.83677 29.432 6.25 30.9372 6.25C31.3136 6.25271 31.6891 6.28684 32.0597 6.35204L31.677 9.43891Z" fill="white"/>
<path d="M35.4262 0C36.6253 0 37.5947 0.918386 37.5947 2.11742C37.5947 3.31644 36.6253 4.23476 35.4262 4.23476C34.2272 4.23476 33.2578 3.31644 33.2578 2.11742C33.2578 0.918386 34.2273 0 35.4262 0ZM37.0844 18.878H33.7681V6.50528H37.0844V18.878V18.878Z" fill="white"/>
<path d="M46.8813 6.24948C45.5651 6.23282 44.2842 6.67524 43.2589 7.50068V6.50512H40.0693V24.9999H43.386V18.0108C44.3293 18.7559 45.5008 19.1525 46.7027 19.1335C48.5396 19.1335 50.2994 18.3165 51.3964 17.0409C52.3663 15.9182 52.952 14.3884 52.952 12.7043C52.952 9.05624 50.248 6.24948 46.8813 6.24948ZM46.4782 16.1225C44.4181 16.1225 43.0641 14.7008 43.0641 12.7152C43.0641 10.7295 44.4181 9.30782 46.4782 9.30782C48.2366 9.30782 49.6624 10.8336 49.6624 12.7152C49.6624 14.5967 48.2366 16.1225 46.4782 16.1225V16.1225Z" fill="white"/>
<path d="M73.0802 18.8779H69.7637V0.765137H73.0802V18.8779V18.8779Z" fill="white"/>
<path d="M86.6014 16.9135C85.4024 18.3421 83.438 19.133 81.5247 19.133C77.8256 19.133 75.0449 16.582 75.0449 12.7043C75.0449 9.26032 77.392 6.25 81.0655 6.25C84.484 6.25 86.9076 9.13272 86.9076 12.5767C86.9095 12.893 86.8839 13.2088 86.8309 13.5206H78.2593C78.4379 15.2553 79.841 16.4544 81.6013 16.4544C83.0043 16.4544 84.1268 15.6635 84.7136 15.0257L86.6014 16.9135ZM83.5146 11.0971C83.4125 10.0001 82.4177 8.92868 81.0655 8.92868C79.6879 8.92868 78.5655 9.97468 78.4124 11.0971H83.5146Z" fill="white"/>
<path d="M61.729 6.24948C60.4128 6.23283 59.1319 6.67525 58.1066 7.50068V6.50512H54.917V24.9999H58.2337V18.0108C59.1769 18.7559 60.3485 19.1525 61.5504 19.1335C63.3873 19.1335 65.1471 18.3165 66.2441 17.0409C67.214 15.9182 67.7997 14.3884 67.7997 12.7043C67.7997 9.05623 65.0957 6.24948 61.729 6.24948ZM61.3259 16.1225C59.2658 16.1225 57.9118 14.7008 57.9118 12.7152C57.9118 10.7295 59.2658 9.3078 61.3259 9.3078C63.0843 9.3078 64.51 10.8336 64.51 12.7151C64.51 14.5967 63.0843 16.1225 61.3259 16.1225Z" fill="white"/>
<path d="M17.3141 14.3704C16.5653 13.938 15.7221 13.8127 14.8869 13.7835C14.1861 13.7591 13.1406 13.31 13.1406 12.0353C13.1406 11.0855 13.9106 10.3211 14.8872 10.287C15.7224 10.2578 16.5656 10.1323 17.3141 9.70015C17.9865 9.31193 18.5449 8.75354 18.9332 8.08112C19.3214 7.4087 19.5258 6.64593 19.5258 5.86949C19.5257 5.09304 19.3214 4.33028 18.9331 3.65786C18.5449 2.98544 17.9865 2.42707 17.3141 2.03886C16.6417 1.65064 15.8789 1.44627 15.1024 1.44629C14.326 1.4463 13.5632 1.6507 12.8908 2.03894C12.2184 2.42718 11.66 2.98558 11.2718 3.65801C10.8836 4.33045 10.6793 5.09322 10.6793 5.86966C10.6793 6.72666 10.9841 7.51531 11.373 8.24677C11.7001 8.86197 11.8656 10.0038 10.7438 10.6515C9.9092 11.1333 8.86766 10.8282 8.34742 9.99564C7.90799 9.2924 7.37751 8.63349 6.63482 8.20462C5.96241 7.8164 5.19965 7.61202 4.42321 7.61202C3.64678 7.61201 2.88402 7.81639 2.21161 8.20461C1.53919 8.59283 0.980817 9.1512 0.592598 9.82362C0.20438 10.496 0 11.2588 0 12.0352C0 12.8117 0.20438 13.5744 0.592598 14.2468C0.980817 14.9192 1.53919 15.4776 2.21161 15.8658C2.88402 16.254 3.64678 16.4584 4.42321 16.4584C5.19965 16.4584 5.96241 16.254 6.63482 15.8658C7.3773 15.4371 7.90783 14.7786 8.34699 14.0758C8.70761 13.4987 9.60827 12.7631 10.7437 13.4191C11.577 13.9006 11.8346 14.9554 11.3726 15.8243C10.9838 16.5556 10.6794 17.3441 10.6794 18.2009C10.6794 18.9774 10.8837 19.7401 11.272 20.4125C11.6602 21.0849 12.2185 21.6433 12.8909 22.0315C13.5634 22.4197 14.3261 22.6241 15.1025 22.6241C15.879 22.6241 16.6417 22.4197 17.3141 22.0315C17.9865 21.6433 18.5449 21.0849 18.9331 20.4125C19.3213 19.7401 19.5257 18.9774 19.5257 18.2009C19.5257 17.4245 19.3213 16.6618 18.9331 15.9894C18.5449 15.317 17.9865 14.7586 17.3141 14.3704V14.3704Z" fill="white"/>
</g>
<defs>
<clipPath id="clip0_2931_280">
<rect width="86.9073" height="25" fill="white"/>
</clipPath>
</defs>
</svg>
