<svg width="67" height="19" viewBox="0 0 67 19" fill="none" xmlns="http://www.w3.org/2000/svg">
<g opacity="0.3" clip-path="url(#clip0_3360_552)">
<path d="M24.0745 7.17357C23.9 7.11539 23.5317 7.07659 23.1633 7.07659C22.0581 7.07659 20.8754 7.97183 20.8754 9.07695V14.3472H18.355V4.94391H20.7785V5.89392C21.3407 5.19595 22.3683 4.75 23.5122 4.75C23.7983 4.75206 24.0836 4.778 24.3653 4.82755L24.0745 7.17357Z" fill="#565F77"/>
<path d="M26.9244 0C27.8356 0 28.5724 0.697974 28.5724 1.60924C28.5724 2.5205 27.8357 3.21842 26.9244 3.21842C26.0131 3.21842 25.2764 2.5205 25.2764 1.60924C25.2764 0.697974 26.0131 0 26.9244 0ZM28.1846 14.3473H25.6642V4.94401H28.1846V14.3473V14.3473Z" fill="#565F77"/>
<path d="M35.6297 4.74961C34.6294 4.73695 33.6559 5.07319 32.8767 5.70053V4.9439H30.4526V19H32.9733V13.6882C33.6902 14.2545 34.5806 14.5559 35.494 14.5415C36.8901 14.5415 38.2275 13.9205 39.0612 12.9511C39.7983 12.0979 40.2435 10.9352 40.2435 9.6553C40.2435 6.88275 38.1885 4.74961 35.6297 4.74961ZM35.3234 12.2531C33.7577 12.2531 32.7287 11.1727 32.7287 9.66353C32.7287 8.1544 33.7577 7.07395 35.3234 7.07395C36.6598 7.07395 37.7433 8.23355 37.7433 9.66353C37.7433 11.0935 36.6598 12.2531 35.3234 12.2531V12.2531Z" fill="#565F77"/>
<path d="M55.5411 14.3472H53.0205V0.581543H55.5411V14.3472V14.3472Z" fill="#565F77"/>
<path d="M65.8166 12.8543C64.9053 13.94 63.4124 14.5411 61.9583 14.5411C59.147 14.5411 57.0337 12.6023 57.0337 9.65527C57.0337 7.03784 58.8175 4.75 61.6094 4.75C64.2074 4.75 66.0493 6.94087 66.0493 9.55829C66.0508 9.79866 66.0313 10.0387 65.9911 10.2757H59.4766C59.6124 11.594 60.6787 12.5053 62.0166 12.5053C63.0828 12.5053 63.936 11.9043 64.3819 11.4196L65.8166 12.8543ZM63.4706 8.43381C63.393 7.6001 62.637 6.7858 61.6093 6.7858C60.5624 6.7858 59.7093 7.58075 59.593 8.43381H63.4706Z" fill="#565F77"/>
<path d="M46.9139 4.74961C45.9136 4.73696 44.9402 5.0732 44.1609 5.70053V4.9439H41.7368V19H44.2575V13.6882C44.9744 14.2545 45.8648 14.5559 46.7782 14.5415C48.1743 14.5415 49.5117 13.9205 50.3454 12.9511C51.0825 12.0979 51.5276 10.9352 51.5276 9.6553C51.5276 6.88275 49.4726 4.74961 46.9139 4.74961ZM46.6076 12.2531C45.0419 12.2531 44.0128 11.1727 44.0128 9.66352C44.0128 8.15439 45.0419 7.07394 46.6076 7.07394C47.944 7.07394 49.0275 8.23354 49.0275 9.66351C49.0275 11.0935 47.944 12.2531 46.6076 12.2531Z" fill="#565F77"/>
<path d="M13.1587 10.9214C12.5897 10.5928 11.9488 10.4976 11.314 10.4754C10.7815 10.4568 9.98688 10.1156 9.98688 9.14673C9.98688 8.4249 10.572 7.84396 11.3143 7.81804C11.949 7.79588 12.5898 7.70052 13.1587 7.37205C13.6698 7.07701 14.0941 6.65263 14.3892 6.14159C14.6842 5.63055 14.8396 5.05085 14.8396 4.46075C14.8396 3.87065 14.6842 3.29095 14.3892 2.77992C14.0941 2.26888 13.6697 1.84451 13.1587 1.54947C12.6477 1.25443 12.068 1.09911 11.4779 1.09912C10.8878 1.09913 10.3081 1.25448 9.79702 1.54954C9.28599 1.8446 8.86163 2.26898 8.5666 2.78003C8.27156 3.29108 8.11625 3.87079 8.11627 4.46089C8.11627 5.1122 8.34792 5.71158 8.64351 6.26748C8.89211 6.73504 9.01788 7.60283 8.16525 8.09508C7.53099 8.46127 6.73942 8.2294 6.34404 7.59663C6.01007 7.06217 5.60691 6.5614 5.04246 6.23545C4.53143 5.94041 3.95173 5.78508 3.36164 5.78507C2.77155 5.78507 2.19186 5.9404 1.68082 6.23545C1.16979 6.53049 0.745421 6.95486 0.450375 7.46589C0.155329 7.97692 0 8.55662 0 9.14671C0 9.7368 0.155329 10.3165 0.450375 10.8275C0.745421 11.3386 1.16979 11.7629 1.68082 12.058C2.19186 12.353 2.77155 12.5083 3.36164 12.5083C3.95173 12.5083 4.53143 12.353 5.04246 12.058C5.60675 11.7321 6.00995 11.2317 6.34371 10.6976C6.61778 10.259 7.30229 9.69987 8.16522 10.1985C8.79851 10.5644 8.99429 11.3661 8.64321 12.0264C8.34767 12.5822 8.11632 13.1815 8.11632 13.8327C8.11632 14.4227 8.27165 15.0024 8.56669 15.5135C8.86173 16.0245 9.28609 16.4488 9.79712 16.7439C10.3081 17.0389 10.8878 17.1943 11.4779 17.1943C12.068 17.1943 12.6477 17.0389 13.1587 16.7439C13.6697 16.4488 14.0941 16.0245 14.3892 15.5135C14.6842 15.0024 14.8395 14.4227 14.8395 13.8327C14.8395 13.2426 14.6842 12.6629 14.3892 12.1519C14.0941 11.6408 13.6698 11.2165 13.1587 10.9214V10.9214Z" fill="url(#paint0_linear_3360_552)"/>
</g>
<defs>
<linearGradient id="paint0_linear_3360_552" x1="4.18506" y1="3.56906" x2="15.3403" y2="14.7243" gradientUnits="userSpaceOnUse">
<stop stop-color="#565F77"/>
<stop offset="1" stop-color="#565F77"/>
</linearGradient>
<clipPath id="clip0_3360_552">
<rect width="66.0495" height="19" fill="white"/>
</clipPath>
</defs>
</svg>
