<svg width="31" height="31" viewBox="0 0 31 31" fill="none" xmlns="http://www.w3.org/2000/svg">
<circle cx="15.5" cy="15.5" r="15.5" fill="url(#paint0_linear_2855_94778)"/>
<path d="M17.2718 9.32709C16.8947 9.55209 16.5817 9.87313 16.3636 10.2586C16.1455 10.6441 16.0298 11.0808 16.0279 11.5256C16.0533 12.0068 16.1976 12.4737 16.4474 12.8831C16.6257 13.2694 16.7117 13.9097 16.0824 14.2427C15.8552 14.3731 15.5866 14.4068 15.3351 14.3364C15.0836 14.266 14.8696 14.0973 14.7399 13.867C14.4629 13.4685 14.1201 13.1218 13.7268 12.8425C13.3518 12.6131 12.9225 12.4919 12.4849 12.4919C12.0474 12.4919 11.6181 12.6131 11.2431 12.8425C10.8649 13.0669 10.551 13.3883 10.3329 13.7746C10.1148 14.1609 10 14.5986 10 15.0442C10 15.4897 10.1148 15.9274 10.3329 16.3138C10.551 16.7001 10.8649 17.0214 11.2431 17.2458C11.6185 17.4752 12.0481 17.5963 12.486 17.5963C12.9239 17.5963 13.3535 17.4752 13.7289 17.2458C14.1391 17.0019 14.4735 16.6454 14.6938 16.217C14.7528 16.0993 14.8351 15.9951 14.9355 15.9111C15.0359 15.8271 15.1521 15.7651 15.2771 15.7288C15.4021 15.6926 15.5331 15.6829 15.6619 15.7004C15.7907 15.718 15.9146 15.7623 16.0258 15.8307C16.2421 15.9699 16.3997 16.186 16.4679 16.4369C16.5362 16.6879 16.5102 16.9557 16.395 17.1882C16.1613 17.6018 16.0343 18.0688 16.0258 18.5457C16.0258 18.9914 16.141 19.4293 16.3596 19.8155C16.5783 20.2017 16.8929 20.5227 17.2718 20.7463C17.6468 20.9757 18.0761 21.0969 18.5136 21.0969C18.9511 21.0969 19.3804 20.9757 19.7554 20.7463C20.1337 20.5222 20.4476 20.201 20.6658 19.8149C20.884 19.4288 20.9988 18.9911 20.9988 18.5457C20.9988 18.1003 20.884 17.6627 20.6658 17.2765C20.4476 16.8904 20.1337 16.5692 19.7554 16.3451C19.331 16.1159 18.8554 16.0026 18.3752 16.0164C18.1192 16.0164 17.8738 15.913 17.6929 15.7288C17.5119 15.5447 17.4102 15.295 17.4102 15.0346C17.4102 14.7742 17.5119 14.5244 17.6929 14.3403C17.8738 14.1562 18.1192 14.0527 18.3752 14.0527C18.8549 14.0612 19.3292 13.9482 19.7554 13.724C20.1338 13.5002 20.4477 13.1793 20.666 12.7933C20.8842 12.4073 20.9991 11.9698 20.9991 11.5245C20.9991 11.0792 20.8842 10.6417 20.666 10.2557C20.4477 9.86971 20.1338 9.54877 19.7554 9.32496C19.3783 9.10351 18.9489 8.99131 18.5136 9.00052C18.078 8.9913 17.6484 9.10429 17.2718 9.32709Z" fill="white"/>
<defs>
<linearGradient id="paint0_linear_2855_94778" x1="15.5" y1="0" x2="15.5" y2="31" gradientUnits="userSpaceOnUse">
<stop stop-color="#26A9E0"/>
<stop offset="1" stop-color="#0A629D"/>
</linearGradient>
</defs>
</svg>
