<svg width="21" height="15" viewBox="0 0 21 15" fill="none" xmlns="http://www.w3.org/2000/svg">
<path d="M11.2924 14.508L7.12442 14.4318C5.77494 14.4052 4.42209 14.4583 3.09907 14.1831C1.08644 13.7719 0.943856 11.7559 0.79466 10.0649C0.589082 7.68752 0.668667 5.26699 1.05662 2.90946C1.27563 1.58664 2.13753 0.797299 3.47043 0.711404C7.96994 0.399678 12.4994 0.436621 16.9889 0.582052C17.4631 0.595384 17.9405 0.668252 18.408 0.751196C20.7159 1.15574 20.7722 3.4403 20.9218 5.36347C21.071 7.30649 21.008 9.25948 20.7228 11.1893C20.494 12.7871 20.0563 14.127 18.209 14.2563C15.8946 14.4255 13.6332 14.5617 11.3122 14.5183C11.3123 14.508 11.299 14.508 11.2924 14.508ZM8.84202 10.4628C10.5862 9.46139 12.2971 8.47665 14.0312 7.48194C12.2838 6.48051 10.5762 5.49577 8.84202 4.50106V10.4628Z" fill="#DE3C3C"/>
</svg>
