<?xml version="1.0" standalone="no"?>
<!DOCTYPE svg PUBLIC "-//W3C//DTD SVG 1.1//EN" "http://www.w3.org/Graphics/SVG/1.1/DTD/svg11.dtd" >
<svg xmlns="http://www.w3.org/2000/svg" xmlns:xlink="http://www.w3.org/1999/xlink" version="1.1">
<metadata>
Created by FontForge 20170731 at Wed Aug 17 01:20:33 2022
 By Aleksey,,,
Copyright (c) 2018 by Alexander Pravdin. All rights reserved.
</metadata>
<defs>
<font id="SONGERSemiExpanded-Heavy" horiz-adv-x="1656" >
  <font-face 
    font-family="SONGER SemiExpanded"
    font-weight="900"
    font-stretch="semi-expanded"
    units-per-em="2048"
    panose-1="2 0 9 3 3 0 0 2 0 4"
    ascent="1638"
    descent="-410"
    x-height="1458"
    cap-height="1458"
    bbox="-229 -784 2777 2118"
    underline-thickness="342"
    underline-position="-655"
    unicode-range="U+0020-F6C3"
  />
<missing-glyph horiz-adv-x="1536" 
d="M123 0v1458h1290v-1458h-1290zM350 227h836v1002h-836v-1002z" />
    <glyph glyph-name=".notdef" horiz-adv-x="1536" 
d="M123 0v1458h1290v-1458h-1290zM350 227h836v1002h-836v-1002z" />
    <glyph glyph-name=".null" horiz-adv-x="0" 
 />
    <glyph glyph-name="nonmarkingreturn" horiz-adv-x="682" 
 />
    <glyph glyph-name="space" unicode=" " horiz-adv-x="972" 
 />
    <glyph glyph-name="exclam" unicode="!" horiz-adv-x="614" 
d="M131 520v938h352v-938h-352zM51 205q0 104 74 177t180 73t180 -73t74 -177q0 -108 -74 -181t-180 -73t-180 73t-74 181z" />
    <glyph glyph-name="quotedbl" unicode="&#x22;" horiz-adv-x="985" 
d="M100 930v577h336v-577h-336zM549 930v577h336v-577h-336z" />
    <glyph glyph-name="numbersign" unicode="#" horiz-adv-x="1615" 
d="M190 0l43 246h-194v309h248l65 350h-192v309h241l48 244h313l-43 -244h348l43 244h317l-45 -244h195v-309h-250l-59 -350h188v-309h-246l-43 -246h-313l47 246h-356l-43 -246h-312zM600 555h354l60 350h-352z" />
    <glyph glyph-name="dollar" unicode="$" horiz-adv-x="1439" 
d="M553 -285v265q-247 55 -504 241l215 293q295 -211 524 -211q102 0 167 30t65 70q0 34 -32 61t-86.5 47t-125.5 39t-149 40.5t-156 46.5t-149 62t-125.5 83t-86.5 113t-32 149q0 169 131 298t344 159v246h319v-268q224 -55 451 -197l-197 -299q-274 174 -485 174
q-91 0 -149 -29.5t-58 -68.5q0 -23 32 -42.5t86.5 -36t125.5 -34t149 -40t156 -50.5t149 -69.5t125.5 -92.5t86.5 -124t32 -160q0 -171 -140 -300t-364 -153v-242h-319z" />
    <glyph glyph-name="percent" unicode="%" horiz-adv-x="1892" 
d="M31 1102q0 171 118 288t291 117q172 0 292 -117.5t120 -287.5q0 -169 -120.5 -289.5t-291.5 -120.5q-172 0 -290.5 120t-118.5 290zM1040 360q0 171 118.5 288.5t291.5 117.5q171 0 290.5 -118t119.5 -288q0 -169 -120 -289t-290 -120q-172 0 -291 119.5t-119 289.5z
M391 0l823 1458h293l-833 -1458h-283zM440 940q64 0 113 49t49 113q0 62 -48.5 106.5t-113.5 44.5q-66 0 -110.5 -44t-44.5 -107q0 -66 45 -114t110 -48zM1450 199q64 0 112 48t48 113q0 63 -47.5 108.5t-112.5 45.5q-67 0 -112.5 -45t-45.5 -109q0 -65 45.5 -113t112.5 -48
z" />
    <glyph glyph-name="ampersand" unicode="&#x26;" horiz-adv-x="1595" 
d="M926 905h655v-346h-266q63 -92 63 -203q0 -96 -53.5 -174.5t-142.5 -128t-200 -76t-230 -26.5q-126 0 -241.5 27.5t-209 80t-149.5 138.5t-56 194q0 221 195 354q-160 123 -160 295q0 90 35.5 173t101.5 149t169.5 105.5t228.5 39.5q215 0 501 -121l-135 -327
q-82 36 -190 66t-197 30q-76 0 -120 -27.5t-44 -68.5q0 -61 112.5 -107.5t332.5 -46.5zM449 424q0 -51 77.5 -88t221.5 -37q133 0 207.5 37t74.5 88q0 58 -71 100.5t-211 42.5q-143 0 -221 -42t-78 -101z" />
    <glyph glyph-name="quotesingle" unicode="'" horiz-adv-x="557" 
d="M100 930v577h357v-577h-357z" />
    <glyph glyph-name="parenleft" unicode="(" horiz-adv-x="673" 
d="M682 -211l-291 -195q-157 231 -242.5 524.5t-85.5 608.5t85.5 608.5t242.5 524.5l291 -199q-126 -187 -196 -430t-70 -504q0 -263 70 -505.5t196 -432.5z" />
    <glyph glyph-name="parenright" unicode=")" horiz-adv-x="673" 
d="M283 -406l-293 195q128 190 198 432t70 506q0 262 -70.5 505t-197.5 429l293 199q156 -230 241.5 -523.5t85.5 -609.5t-85.5 -609.5t-241.5 -523.5z" />
    <glyph glyph-name="asterisk" unicode="*" horiz-adv-x="839" 
d="M109 891l145 184l-231 76l63 199l233 -82l-4 239h209l-2 -239l232 75l63 -196l-231 -72l145 -190l-170 -123l-143 201l-139 -197z" />
    <glyph glyph-name="plus" unicode="+" horiz-adv-x="1198" 
d="M436 213v350h-348v318h348v352h318v-352h356v-318h-356v-350h-318z" />
    <glyph glyph-name="comma" unicode="," horiz-adv-x="655" 
d="M225 -424l-145 240q139 89 199 170q-91 0 -150 63.5t-59 149.5q0 112 73 190t187 78q84 0 144.5 -48t89 -124.5t28.5 -169.5q0 -318 -367 -549z" />
    <glyph glyph-name="hyphen" unicode="-" horiz-adv-x="849" 
d="M88 553v338h674v-338h-674z" />
    <glyph glyph-name="period" unicode="." horiz-adv-x="655" 
d="M70 211q0 106 75 181t185 75q106 0 181 -75t75 -181q0 -110 -75 -185t-181 -75q-110 0 -185 75t-75 185z" />
    <glyph glyph-name="slash" unicode="/" horiz-adv-x="1001" 
d="M0 -49l647 1556h354l-643 -1556h-358z" />
    <glyph glyph-name="zero" unicode="0" horiz-adv-x="1484" 
d="M745 309q96 0 168.5 65.5t106 160t33.5 198.5q0 74 -20 147.5t-57 135.5t-97.5 100.5t-133.5 38.5q-74 0 -135 -38.5t-98 -100.5t-56.5 -135t-19.5 -148q0 -104 33 -198.5t105.5 -160t170.5 -65.5zM745 -47q-156 0 -283.5 62t-210 169t-127 248t-44.5 301q0 159 44.5 299
t127 246t210 167.5t283.5 61.5q153 0 279.5 -61.5t209 -167.5t127 -246t44.5 -299q0 -127 -28 -243.5t-84 -214t-134 -169.5t-184.5 -112.5t-229.5 -40.5z" />
    <glyph glyph-name="one" unicode="1" horiz-adv-x="882" 
d="M395 0v1053l-192 -135l-195 296l371 244h369v-1458h-353z" />
    <glyph glyph-name="two" unicode="2" horiz-adv-x="1361" 
d="M1262 993q0 -69 -16.5 -132t-44 -114.5t-70.5 -100.5t-88.5 -87t-106 -77.5t-114.5 -69t-122 -62.5h549v-350h-1132v401q790 379 790 592q0 74 -62.5 121t-152.5 47q-92 0 -177 -59t-132 -176l-311 114q38 119 104 210t149 146.5t175 83t190 27.5q150 0 279.5 -62.5
t211 -182t81.5 -269.5z" />
    <glyph glyph-name="three" unicode="3" horiz-adv-x="1337" 
d="M55 326l307 161q49 -90 127.5 -136t165.5 -46q98 0 166 45.5t68 104.5q0 52 -67 88.5t-193 36.5h-166v323h166q114 0 174.5 36.5t60.5 88.5q0 53 -62 90t-159 37q-84 0 -158 -37t-114 -114l-310 157q54 119 148 199t199.5 113.5t224.5 33.5q162 0 300 -66.5t217 -175.5
t79 -233q0 -156 -144 -278q168 -110 168 -299q0 -94 -47 -185.5t-127 -161t-193.5 -112.5t-238.5 -43q-122 0 -232.5 38t-207.5 124t-152 211z" />
    <glyph glyph-name="four" unicode="4" horiz-adv-x="1423" 
d="M47 197v401l752 860h352v-930h225v-331h-225v-197h-352v197h-752zM399 528h400v455z" />
    <glyph glyph-name="five" unicode="5" horiz-adv-x="1333" 
d="M53 369l326 139q45 -103 118 -153t162 -50q109 0 172.5 54.5t63.5 132.5q0 84 -64.5 138t-154.5 54q-131 0 -217 -115l-322 152l51 739h992v-340h-688l-21 -166q110 58 246 58q78 0 152 -18.5t142 -59t119.5 -98.5t82 -143.5t30.5 -188.5q0 -110 -40.5 -209
t-114.5 -175.5t-188 -121.5t-251 -45q-126 0 -238 42.5t-208 138t-150 235.5z" />
    <glyph glyph-name="six" unicode="6" horiz-adv-x="1347" 
d="M399 535q0 -91 78 -162.5t197 -71.5t197.5 71.5t78.5 162.5q0 92 -78 161.5t-198 69.5q-122 0 -198.5 -67.5t-76.5 -163.5zM463 1294l215 283l289 -211l-232 -299q111 -5 204.5 -37.5t158.5 -84.5t111 -120t67.5 -143.5t21.5 -155.5q0 -157 -83.5 -289t-227 -208
t-313.5 -76q-169 0 -312.5 76t-228 208t-84.5 289q0 94 31 179.5t117 218t266 370.5z" />
    <glyph glyph-name="seven" unicode="7" horiz-adv-x="1277" 
d="M254 80l549 1030h-740v348h1170v-295l-651 -1251z" />
    <glyph glyph-name="eight" unicode="8" horiz-adv-x="1409" 
d="M258 758q-137 106 -137 284q0 128 77 235t211.5 168.5t295.5 61.5q160 0 293.5 -61.5t210.5 -168.5t77 -235q0 -170 -143 -284q182 -120 182 -318q0 -135 -82.5 -247t-224.5 -176t-313 -64q-172 0 -315 64t-224.5 176t-81.5 247q0 97 45.5 178.5t128.5 139.5zM438 453
q0 -64 74.5 -109t192.5 -45q115 0 189.5 45t74.5 109q0 65 -74.5 110t-189.5 45q-118 0 -192.5 -44.5t-74.5 -110.5zM467 1030q0 -56 66.5 -96.5t171.5 -40.5q103 0 170 40.5t67 96.5q0 57 -67 98t-170 41q-106 0 -172 -41t-66 -98z" />
    <glyph glyph-name="nine" unicode="9" horiz-adv-x="1337" 
d="M397 932q0 -91 77 -159t196 -68q120 0 194 66t74 161q0 89 -75.5 159t-192.5 70q-118 0 -195.5 -70t-77.5 -159zM377 92l231 307q-136 6 -245 53.5t-176 123t-102.5 168t-35.5 194.5q0 155 83 286t226 207t312 76q166 0 308.5 -76t226 -207t83.5 -286q0 -97 -31 -182.5
t-114.5 -216.5t-265.5 -375l-211 -281z" />
    <glyph glyph-name="colon" unicode=":" horiz-adv-x="681" 
d="M82 211q0 106 76 181t184 75q107 0 182.5 -75t75.5 -181q0 -110 -75 -185t-183 -75q-109 0 -184.5 75t-75.5 185zM82 1020q0 106 76 181t184 75q107 0 182.5 -75t75.5 -181q0 -110 -75 -185t-183 -75q-109 0 -184.5 75t-75.5 185z" />
    <glyph glyph-name="semicolon" unicode=";" horiz-adv-x="681" 
d="M82 1020q0 106 76 181t186 75q106 0 181 -75t75 -181q0 -110 -75 -185t-181 -75q-110 0 -186 75t-76 185zM240 -424l-146 240q139 89 199 170q-91 0 -151 63.5t-60 149.5q0 112 74 190t188 78q84 0 144.5 -48t89 -124.5t28.5 -169.5q0 -319 -366 -549z" />
    <glyph glyph-name="less" unicode="&#x3c;" horiz-adv-x="1159" 
d="M23 563v322l1052 463v-381l-614 -240l614 -235v-381z" />
    <glyph glyph-name="equal" unicode="=" horiz-adv-x="1191" 
d="M113 784v303h966v-303h-966zM113 352v303h966v-303h-966z" />
    <glyph glyph-name="greater" unicode="&#x3e;" horiz-adv-x="1157" 
d="M84 111v381l612 235l-612 240v381l1051 -463v-322z" />
    <glyph glyph-name="question" unicode="?" horiz-adv-x="1335" 
d="M438 512v346h250q119 0 179.5 40.5t60.5 105.5q0 62 -66 106.5t-190 44.5q-69 0 -134 -22t-127 -76t-100 -133l-319 151q68 146 180 245.5t236.5 143t259.5 43.5q147 0 267 -44.5t194.5 -118.5t114.5 -165.5t40 -189.5q0 -76 -21.5 -145t-69 -130t-116 -105.5
t-168.5 -70.5t-221 -26h-250zM352 207q0 104 74 176t180 72t180 -72t74 -176q0 -108 -74 -181t-180 -73t-180 73t-74 181z" />
    <glyph glyph-name="at" unicode="@" horiz-adv-x="2338" 
d="M1466 -39l123 -303q-209 -82 -420 -82q-229 0 -436.5 88.5t-358 239t-239 358t-88.5 436.5t88.5 437t239 358t358 239t436.5 89t437 -89.5t358 -240.5t239 -358.5t89 -434.5q0 -147 -31.5 -270t-84.5 -206.5t-123.5 -142t-146 -85.5t-153.5 -27q-133 0 -236 76.5
t-133 212.5q-122 -125 -321 -125q-95 0 -188 45t-165 120.5t-116.5 181.5t-44.5 220t44.5 220t116.5 181.5t165 121t188 45.5q179 0 309 -133v81h322v-852q0 -38 21 -59.5t52 -21.5q72 0 134.5 108t62.5 309q0 161 -63 308.5t-169.5 254t-254 169.5t-308.5 63
q-207 0 -390 -106.5t-293.5 -290.5t-110.5 -398q0 -161 65.5 -308.5t173.5 -253.5t254 -169t301 -63q160 0 297 57zM877 698q0 -98 71.5 -168.5t171.5 -70.5q101 0 173.5 70.5t72.5 168.5t-72.5 169t-173.5 71q-100 0 -171.5 -71t-71.5 -169z" />
    <glyph glyph-name="A" unicode="A" horiz-adv-x="1622" 
d="M0 0l645 1458h328l649 -1458h-385l-70 152h-718l-64 -152h-385zM590 485h440l-221 541z" />
    <glyph glyph-name="B" unicode="B" horiz-adv-x="1474" 
d="M135 0v1458h774q186 0 319.5 -133t133.5 -319q0 -156 -115 -263q146 -105 146 -290q0 -187 -132.5 -320t-320.5 -133h-805zM487 350h447q44 0 75 33t31 78q0 46 -31 79t-75 33h-447v-223zM487 889h410q46 0 78.5 30t32.5 74q0 46 -33 80.5t-78 34.5h-410v-219z" />
    <glyph glyph-name="C" unicode="C" horiz-adv-x="1554" 
d="M1204 530l314 -168q-100 -188 -283.5 -299.5t-405.5 -111.5q-158 0 -302.5 61.5t-249 166t-166.5 249t-62 303.5q0 157 62 300.5t166.5 247.5t249 166t302.5 62q220 0 404.5 -113t284.5 -300l-314 -164q-55 102 -155 163.5t-220 61.5q-175 0 -300.5 -125.5t-125.5 -298.5
q0 -177 125.5 -302.5t300.5 -125.5q121 0 220.5 62t154.5 165z" />
    <glyph glyph-name="D" unicode="D" horiz-adv-x="1542" 
d="M135 0v1458h631q197 0 364.5 -98t265 -266.5t97.5 -366.5q0 -196 -97.5 -363.5t-265 -265.5t-364.5 -98h-631zM487 348h295q150 0 253.5 111.5t103.5 267.5q0 159 -103.5 271t-253.5 112h-295v-762z" />
    <glyph glyph-name="E" unicode="E" horiz-adv-x="1411" 
d="M135 0v1458h1190v-346h-838v-207h598v-342h-598v-215h838v-348h-1190z" />
    <glyph glyph-name="F" unicode="F" horiz-adv-x="1390" 
d="M135 0v1458h1184v-346h-832v-213h586v-342h-586v-557h-352z" />
    <glyph glyph-name="G" unicode="G" 
d="M991 559v346h598q19 -108 19 -174q0 -212 -105 -392t-284 -284t-390 -104q-158 0 -302.5 61.5t-249 166t-166.5 249t-62 303.5q0 157 62 300.5t166.5 247.5t249 166t302.5 62q277 0 490 -172l-221 -272q-127 92 -269 92q-175 0 -300.5 -125.5t-125.5 -298.5
q0 -177 125.5 -302.5t300.5 -125.5q131 0 238.5 69t161.5 187h-238z" />
    <glyph glyph-name="H" unicode="H" horiz-adv-x="1624" 
d="M135 0v1458h352v-551h650v551h352v-1458h-352v559h-650v-559h-352z" />
    <glyph glyph-name="I" unicode="I" horiz-adv-x="622" 
d="M135 0v1458h352v-1458h-352z" />
    <glyph glyph-name="J" unicode="J" horiz-adv-x="1241" 
d="M-10 135l237 256q41 -41 98 -64.5t119 -23.5q133 0 224.5 86t91.5 213v856h352v-860q0 -180 -89 -329t-242.5 -233.5t-336.5 -84.5q-131 0 -248 48t-206 136z" />
    <glyph glyph-name="K" unicode="K" horiz-adv-x="1609" 
d="M135 0v1458h352v-756l625 756h459l-604 -727l604 -731h-459l-379 453l-246 -289v-164h-352z" />
    <glyph glyph-name="L" unicode="L" horiz-adv-x="1404" 
d="M135 0v1458h352v-1110h836v-348h-1188z" />
    <glyph glyph-name="M" unicode="M" horiz-adv-x="1994" 
d="M135 0v1458h447l415 -966l418 966h445v-1458h-353v858l-356 -858h-307l-357 848v-848h-352z" />
    <glyph glyph-name="N" unicode="N" horiz-adv-x="1652" 
d="M135 0v1458h365l665 -901v901h353v-1458h-363l-668 899v-899h-352z" />
    <glyph glyph-name="O" unicode="O" 
d="M1253 731q0 174 -124 299t-300 125q-175 0 -300.5 -125.5t-125.5 -298.5q0 -177 125.5 -302.5t300.5 -125.5q177 0 300.5 125.5t123.5 302.5zM49 731q0 157 62 300.5t166.5 247.5t249 166t302.5 62t302 -62t248.5 -166t166.5 -247.5t62 -300.5q0 -212 -105 -392
t-284 -284t-390 -104q-158 0 -302.5 61.5t-249 166t-166.5 249t-62 303.5z" />
    <glyph glyph-name="P" unicode="P" horiz-adv-x="1492" 
d="M135 0v1458h674q168 0 313 -76.5t232.5 -212.5t87.5 -299q0 -122 -51 -231.5t-137 -187.5t-202.5 -124t-242.5 -46h-322v-281h-352zM487 627h318q121 0 203 72t82 171q0 97 -87 169.5t-208 72.5h-308v-485z" />
    <glyph glyph-name="Q" unicode="Q" 
d="M1253 -254l-163 250q-127 -45 -261 -45q-158 0 -302.5 61.5t-249 166t-166.5 249t-62 303.5q0 157 62 300.5t166.5 247.5t249 166t302.5 62t302 -62t248.5 -166t166.5 -247.5t62 -300.5q0 -154 -59 -295.5t-163 -251.5l164 -245zM829 303q177 0 300.5 125.5t123.5 302.5
q0 174 -124 299t-300 125q-175 0 -300.5 -125.5t-125.5 -298.5q0 -177 125.5 -302.5t300.5 -125.5z" />
    <glyph glyph-name="R" unicode="R" horiz-adv-x="1519" 
d="M135 0v1458h680q168 0 313 -76.5t232.5 -212.5t87.5 -299q0 -146 -70.5 -270t-191.5 -209l274 -391h-432l-197 281h-344v-281h-352zM487 627h324q121 0 203 72t82 171q0 97 -87 169.5t-208 72.5h-314v-485z" />
    <glyph glyph-name="S" unicode="S" horiz-adv-x="1439" 
d="M49 221l215 293q295 -211 524 -211q102 0 167 30t65 70q0 34 -32 61t-86.5 47t-125.5 39t-149 40.5t-156 46.5t-149 62t-125.5 83t-86.5 113t-32 149q0 93 42 177.5t116.5 147.5t184.5 100.5t238 37.5q316 0 664 -225l-197 -299q-274 174 -485 174q-91 0 -149 -29.5
t-58 -68.5q0 -23 32 -42.5t86.5 -36t125.5 -34t149 -40t156 -50.5t149 -69.5t125.5 -92.5t86.5 -124t32 -160q0 -92 -44 -175.5t-121.5 -146.5t-191 -100t-243.5 -37q-346 0 -727 270z" />
    <glyph glyph-name="T" unicode="T" horiz-adv-x="1458" 
d="M557 0v1110h-500v348h1348v-348h-496v-1110h-352z" />
    <glyph glyph-name="U" unicode="U" horiz-adv-x="1607" 
d="M129 616v842h352v-842q0 -130 95 -221.5t229 -91.5t227.5 91.5t93.5 221.5v842h353v-842q0 -138 -53.5 -261.5t-144 -212t-215 -140t-261.5 -51.5t-262 51.5t-215.5 140t-144.5 212t-54 261.5z" />
    <glyph glyph-name="V" unicode="V" horiz-adv-x="1589" 
d="M602 0l-602 1458h385l410 -1001l409 1001h385l-602 -1458h-385z" />
    <glyph glyph-name="W" unicode="W" horiz-adv-x="2148" 
d="M2148 1458l-508 -1458h-374l-191 881l-192 -881h-375l-508 1458h375l299 -872l205 872h391l205 -872l301 872h372z" />
    <glyph glyph-name="X" unicode="X" horiz-adv-x="1583" 
d="M20 0l549 731l-544 727h442l324 -438l325 438h440l-544 -727l549 -731h-443l-327 442l-328 -442h-443z" />
    <glyph glyph-name="Y" unicode="Y" horiz-adv-x="1460" 
d="M553 0v352l-553 1106h399l332 -702l332 702h397l-555 -1106v-352h-352z" />
    <glyph glyph-name="Z" unicode="Z" horiz-adv-x="1468" 
d="M115 0v362l755 744h-755v352h1239v-364l-756 -744h756v-350h-1239z" />
    <glyph glyph-name="bracketleft" unicode="[" horiz-adv-x="743" 
d="M104 -240v1930h603v-332h-271v-1266h271v-332h-603z" />
    <glyph glyph-name="backslash" unicode="\" horiz-adv-x="1001" 
d="M643 -49l-643 1556h356l645 -1556h-358z" />
    <glyph glyph-name="bracketright" unicode="]" horiz-adv-x="735" 
d="M29 -240v332h270v1266h-270v332h602v-1930h-602z" />
    <glyph glyph-name="asciicircum" unicode="^" horiz-adv-x="1187" 
d="M18 713l433 745h274l444 -745h-370l-207 377l-207 -377h-367z" />
    <glyph glyph-name="underscore" unicode="_" horiz-adv-x="1404" 
d="M0 -485v342h1405v-342h-1405z" />
    <glyph glyph-name="grave" unicode="`" horiz-adv-x="659" 
d="M39 1864l192 215l390 -355l-179 -194z" />
    <glyph glyph-name="a" unicode="a" horiz-adv-x="1622" 
d="M0 0l645 1458h328l649 -1458h-385l-70 152h-718l-64 -152h-385zM590 485h440l-221 541z" />
    <glyph glyph-name="b" unicode="b" horiz-adv-x="1474" 
d="M135 0v1458h774q186 0 319.5 -133t133.5 -319q0 -156 -115 -263q146 -105 146 -290q0 -187 -132.5 -320t-320.5 -133h-805zM487 350h447q44 0 75 33t31 78q0 46 -31 79t-75 33h-447v-223zM487 889h410q46 0 78.5 30t32.5 74q0 46 -33 80.5t-78 34.5h-410v-219z" />
    <glyph glyph-name="c" unicode="c" horiz-adv-x="1554" 
d="M1204 530l314 -168q-100 -188 -283.5 -299.5t-405.5 -111.5q-158 0 -302.5 61.5t-249 166t-166.5 249t-62 303.5q0 157 62 300.5t166.5 247.5t249 166t302.5 62q220 0 404.5 -113t284.5 -300l-314 -164q-55 102 -155 163.5t-220 61.5q-175 0 -300.5 -125.5t-125.5 -298.5
q0 -177 125.5 -302.5t300.5 -125.5q121 0 220.5 62t154.5 165z" />
    <glyph glyph-name="d" unicode="d" horiz-adv-x="1542" 
d="M135 0v1458h631q197 0 364.5 -98t265 -266.5t97.5 -366.5q0 -196 -97.5 -363.5t-265 -265.5t-364.5 -98h-631zM487 348h295q150 0 253.5 111.5t103.5 267.5q0 159 -103.5 271t-253.5 112h-295v-762z" />
    <glyph glyph-name="e" unicode="e" horiz-adv-x="1411" 
d="M135 0v1458h1190v-346h-838v-207h598v-342h-598v-215h838v-348h-1190z" />
    <glyph glyph-name="f" unicode="f" horiz-adv-x="1390" 
d="M135 0v1458h1184v-346h-832v-213h586v-342h-586v-557h-352z" />
    <glyph glyph-name="g" unicode="g" 
d="M991 559v346h598q19 -108 19 -174q0 -212 -105 -392t-284 -284t-390 -104q-158 0 -302.5 61.5t-249 166t-166.5 249t-62 303.5q0 157 62 300.5t166.5 247.5t249 166t302.5 62q277 0 490 -172l-221 -272q-127 92 -269 92q-175 0 -300.5 -125.5t-125.5 -298.5
q0 -177 125.5 -302.5t300.5 -125.5q131 0 238.5 69t161.5 187h-238z" />
    <glyph glyph-name="h" unicode="h" horiz-adv-x="1624" 
d="M135 0v1458h352v-551h650v551h352v-1458h-352v559h-650v-559h-352z" />
    <glyph glyph-name="i" unicode="i" horiz-adv-x="622" 
d="M135 0v1458h352v-1458h-352z" />
    <glyph glyph-name="j" unicode="j" horiz-adv-x="1241" 
d="M-10 135l237 256q41 -41 98 -64.5t119 -23.5q133 0 224.5 86t91.5 213v856h352v-860q0 -180 -89 -329t-242.5 -233.5t-336.5 -84.5q-131 0 -248 48t-206 136z" />
    <glyph glyph-name="k" unicode="k" horiz-adv-x="1609" 
d="M135 0v1458h352v-756l625 756h459l-604 -727l604 -731h-459l-379 453l-246 -289v-164h-352z" />
    <glyph glyph-name="l" unicode="l" horiz-adv-x="1404" 
d="M135 0v1458h352v-1110h836v-348h-1188z" />
    <glyph glyph-name="m" unicode="m" horiz-adv-x="1994" 
d="M135 0v1458h447l415 -966l418 966h445v-1458h-353v858l-356 -858h-307l-357 848v-848h-352z" />
    <glyph glyph-name="n" unicode="n" horiz-adv-x="1652" 
d="M135 0v1458h365l665 -901v901h353v-1458h-363l-668 899v-899h-352z" />
    <glyph glyph-name="o" unicode="o" 
d="M1253 731q0 174 -124 299t-300 125q-175 0 -300.5 -125.5t-125.5 -298.5q0 -177 125.5 -302.5t300.5 -125.5q177 0 300.5 125.5t123.5 302.5zM49 731q0 157 62 300.5t166.5 247.5t249 166t302.5 62t302 -62t248.5 -166t166.5 -247.5t62 -300.5q0 -212 -105 -392
t-284 -284t-390 -104q-158 0 -302.5 61.5t-249 166t-166.5 249t-62 303.5z" />
    <glyph glyph-name="p" unicode="p" horiz-adv-x="1492" 
d="M135 0v1458h674q168 0 313 -76.5t232.5 -212.5t87.5 -299q0 -122 -51 -231.5t-137 -187.5t-202.5 -124t-242.5 -46h-322v-281h-352zM487 627h318q121 0 203 72t82 171q0 97 -87 169.5t-208 72.5h-308v-485z" />
    <glyph glyph-name="q" unicode="q" 
d="M1253 -254l-163 250q-127 -45 -261 -45q-158 0 -302.5 61.5t-249 166t-166.5 249t-62 303.5q0 157 62 300.5t166.5 247.5t249 166t302.5 62t302 -62t248.5 -166t166.5 -247.5t62 -300.5q0 -154 -59 -295.5t-163 -251.5l164 -245zM829 303q177 0 300.5 125.5t123.5 302.5
q0 174 -124 299t-300 125q-175 0 -300.5 -125.5t-125.5 -298.5q0 -177 125.5 -302.5t300.5 -125.5z" />
    <glyph glyph-name="r" unicode="r" horiz-adv-x="1519" 
d="M135 0v1458h680q168 0 313 -76.5t232.5 -212.5t87.5 -299q0 -146 -70.5 -270t-191.5 -209l274 -391h-432l-197 281h-344v-281h-352zM487 627h324q121 0 203 72t82 171q0 97 -87 169.5t-208 72.5h-314v-485z" />
    <glyph glyph-name="s" unicode="s" horiz-adv-x="1439" 
d="M49 221l215 293q295 -211 524 -211q102 0 167 30t65 70q0 34 -32 61t-86.5 47t-125.5 39t-149 40.5t-156 46.5t-149 62t-125.5 83t-86.5 113t-32 149q0 93 42 177.5t116.5 147.5t184.5 100.5t238 37.5q316 0 664 -225l-197 -299q-274 174 -485 174q-91 0 -149 -29.5
t-58 -68.5q0 -23 32 -42.5t86.5 -36t125.5 -34t149 -40t156 -50.5t149 -69.5t125.5 -92.5t86.5 -124t32 -160q0 -92 -44 -175.5t-121.5 -146.5t-191 -100t-243.5 -37q-346 0 -727 270z" />
    <glyph glyph-name="t" unicode="t" horiz-adv-x="1458" 
d="M557 0v1110h-500v348h1348v-348h-496v-1110h-352z" />
    <glyph glyph-name="u" unicode="u" horiz-adv-x="1607" 
d="M129 616v842h352v-842q0 -130 95 -221.5t229 -91.5t227.5 91.5t93.5 221.5v842h353v-842q0 -138 -53.5 -261.5t-144 -212t-215 -140t-261.5 -51.5t-262 51.5t-215.5 140t-144.5 212t-54 261.5z" />
    <glyph glyph-name="v" unicode="v" horiz-adv-x="1589" 
d="M602 0l-602 1458h385l410 -1001l409 1001h385l-602 -1458h-385z" />
    <glyph glyph-name="w" unicode="w" horiz-adv-x="2148" 
d="M2148 1458l-508 -1458h-374l-191 881l-192 -881h-375l-508 1458h375l299 -872l205 872h391l205 -872l301 872h372z" />
    <glyph glyph-name="x" unicode="x" horiz-adv-x="1583" 
d="M20 0l549 731l-544 727h442l324 -438l325 438h440l-544 -727l549 -731h-443l-327 442l-328 -442h-443z" />
    <glyph glyph-name="y" unicode="y" horiz-adv-x="1460" 
d="M553 0v352l-553 1106h399l332 -702l332 702h397l-555 -1106v-352h-352z" />
    <glyph glyph-name="z" unicode="z" horiz-adv-x="1468" 
d="M115 0v362l755 744h-755v352h1239v-364l-756 -744h756v-350h-1239z" />
    <glyph glyph-name="braceleft" unicode="{" horiz-adv-x="808" 
d="M201 221v115q0 45 -3.5 76t-15 63.5t-32 52.5t-57.5 32.5t-89 12.5v304q52 0 89 12.5t57.5 32.5t32 53t15 64.5t3.5 76.5v113q0 51 4 91t17.5 90t37.5 87.5t67.5 75.5t103.5 62.5t149 39.5t200 15v-332q-69 0 -114.5 -8.5t-71.5 -21.5t-39 -40t-16.5 -52.5t-3.5 -70.5
v-125q0 -49 -1.5 -76t-10 -67.5t-25 -66t-49 -54t-80.5 -49.5q40 -19 69 -40.5t47 -48.5t28.5 -49.5t15 -57.5t5.5 -57.5t1 -63.5v-125q0 -44 3.5 -69.5t16.5 -52.5t39 -40.5t72 -22t114 -8.5v-332q-111 0 -200 15t-149 39.5t-103.5 62.5t-67.5 75.5t-37.5 87.5t-17.5 90
t-4 91z" />
    <glyph glyph-name="bar" unicode="|" horiz-adv-x="598" 
d="M131 -313v1929h336v-1929h-336z" />
    <glyph glyph-name="braceright" unicode="}" horiz-adv-x="808" 
d="M29 -240v332q68 0 114 8.5t72 22t39 40.5t16.5 52.5t3.5 69.5v125q0 40 1 63.5t6 57.5t16 57.5t28.5 49.5t47 48t69.5 41q-48 21 -80.5 49.5t-49.5 54.5t-26 65.5t-10.5 67.5t-1.5 76v125q0 45 -3.5 70.5t-16.5 52.5t-39 40t-71.5 21.5t-114.5 8.5v332q111 0 200.5 -15
t149 -39.5t103.5 -62.5t68 -75.5t38 -87.5t18 -90t4 -91v-113q0 -58 6 -95t24.5 -73t59.5 -53.5t105 -17.5v-304q-64 0 -105 -17.5t-59.5 -53.5t-24.5 -72.5t-6 -93.5v-115q0 -51 -4 -91t-18 -90t-38 -87.5t-68 -75.5t-103.5 -62.5t-149 -39.5t-200.5 -15z" />
    <glyph glyph-name="asciitilde" unicode="~" horiz-adv-x="1243" 
d="M283 496l-246 186q55 73 113.5 131t139.5 104t156 46q58 0 115 -29t94 -63.5t76 -63.5t64 -29q23 0 59.5 31.5t57 56.5t51.5 66l243 -187q-86 -116 -192 -197t-215 -81q-57 0 -114.5 29t-95 64t-76 64t-62.5 29q-8 0 -18 -4t-20.5 -12t-21 -16.5t-22.5 -21t-20.5 -22.5
t-20.5 -24.5t-18 -22t-15.5 -20t-11.5 -14.5z" />
    <glyph glyph-name="exclamdown" unicode="&#xa1;" horiz-adv-x="614" 
d="M131 0v938h352v-938h-352zM55 1253q0 108 74 181t180 73t180 -73t74 -181q0 -104 -74 -176.5t-180 -72.5t-180 72.5t-74 176.5z" />
    <glyph glyph-name="cent" unicode="&#xa2;" horiz-adv-x="1148" 
d="M442 -270v250q-175 53 -285 201t-110 335q0 189 110 339t285 204v252h308v-242q115 -26 207.5 -97.5t152.5 -176.5l-293 -154q-69 115 -203 115q-98 0 -168.5 -70t-70.5 -170q0 -98 70.5 -167.5t168.5 -69.5q132 0 203 112l289 -151q-56 -104 -147.5 -175t-208.5 -98
v-237h-308z" />
    <glyph glyph-name="sterling" unicode="&#xa3;" horiz-adv-x="1382" 
d="M539 541q-24 -119 -70 -195h821v-346h-1270v342q92 41 128.5 99.5t48.5 150.5l36 274q17 133 62 246.5t116 203t175 140.5t231 51q148 0 274.5 -52t260.5 -155l-215 -270q-103 77 -173.5 104t-146.5 27q-66 0 -116.5 -42.5t-77.5 -102t-43 -135.5h464v-340h-505z" />
    <glyph glyph-name="currency" unicode="&#xa4;" horiz-adv-x="1456" 
d="M55 174l174 178q-67 125 -67 271q0 145 67 270l-174 176l228 227l174 -176q124 70 272 70q139 0 272 -70l177 176l225 -227l-176 -176q67 -125 67 -270q0 -147 -69 -273l178 -176l-225 -223l-179 174q-127 -68 -270 -68q-148 0 -272 68l-174 -174zM479 623
q0 -103 73 -175.5t177 -72.5t177 72.5t73 175.5q0 104 -73 176.5t-177 72.5t-177 -72.5t-73 -176.5z" />
    <glyph glyph-name="yen" unicode="&#xa5;" horiz-adv-x="1505" 
d="M213 188v254h326l-37 74h-289v258h162l-355 684h400l332 -702l331 702h400l-355 -684h164v-258h-291l-38 -74h329v-254h-366v-188h-353v188h-360z" />
    <glyph glyph-name="brokenbar" unicode="&#xa6;" horiz-adv-x="598" 
d="M131 827v789h336v-789h-336zM131 -313v790h336v-790h-336z" />
    <glyph glyph-name="section" unicode="&#xa7;" horiz-adv-x="1449" 
d="M119 -111l194 299q278 -174 486 -174q93 0 150 30.5t57 70.5q0 23 -32.5 42.5t-87 35.5t-125 33.5t-149 40t-156.5 50.5t-148.5 69.5t-125 92t-87 123.5t-32.5 160q0 171 154 293q-127 111 -127 270q0 93 42 177.5t117 147.5t184.5 100.5t236.5 37.5q318 0 663 -223
l-196 -299q-278 174 -484 174q-93 0 -150 -30.5t-57 -70.5q0 -23 32 -42.5t86.5 -35.5t125 -33.5t148.5 -40t156 -50.5t148.5 -69.5t125 -92t86.5 -123.5t32 -160q0 -179 -149 -297q125 -106 125 -266q0 -93 -42.5 -178t-117 -148.5t-184.5 -101t-238 -37.5q-315 0 -661 225
zM870 553q77 12 123.5 48.5t46.5 78.5q0 23 -12 43t-38.5 37t-54.5 30.5t-74.5 28t-82.5 25t-95 26.5t-97 27q-78 -9 -125 -45t-47 -78q0 -23 12 -43t39 -37.5t55 -31t74.5 -28.5t83 -25.5t95.5 -27t97 -28.5z" />
    <glyph glyph-name="dieresis" unicode="&#xa8;" horiz-adv-x="1001" 
d="M551 1786q0 86 61 144.5t146 58.5q84 0 144.5 -59t60.5 -144q0 -86 -60.5 -146.5t-144.5 -60.5q-85 0 -146 60.5t-61 146.5zM39 1786q0 86 60 144.5t147 58.5q86 0 144.5 -58.5t58.5 -144.5q0 -87 -58.5 -147t-144.5 -60t-146.5 60.5t-60.5 146.5z" />
    <glyph glyph-name="copyright" unicode="&#xa9;" horiz-adv-x="1654" 
d="M825 -49q-157 0 -300.5 61.5t-247.5 165.5t-166 247.5t-62 301.5t62 302.5t166 249t247.5 166.5t300.5 62q159 0 304 -62t249 -166.5t166 -249t62 -302.5t-62 -301.5t-166.5 -247.5t-249 -165.5t-303.5 -61.5zM825 139q161 0 297.5 79t215.5 214.5t79 294.5
q0 161 -79 296.5t-215 213.5t-298 78q-120 0 -228.5 -46t-187 -124.5t-125 -187.5t-46.5 -230q0 -159 78.5 -294.5t214 -214.5t294.5 -79zM1055 627l192 -103q-61 -112 -168 -178.5t-231 -66.5q-188 0 -320.5 130.5t-132.5 317.5q0 188 132.5 318.5t320.5 130.5
q124 0 231 -67.5t168 -178.5l-196 -101q-35 56 -88 92.5t-115 36.5q-97 0 -164.5 -67t-67.5 -164q0 -92 68.5 -161.5t163.5 -69.5q63 0 116 36t91 95z" />
    <glyph glyph-name="guillemotleft" unicode="&#xab;" horiz-adv-x="1128" 
d="M1087 371l-247 -164l-344 520l344 510l247 -168l-241 -346zM621 350l-252 -166l-357 543l361 530l245 -167l-258 -363z" />
    <glyph glyph-name="registered" unicode="&#xae;" horiz-adv-x="1046" 
d="M51 1036q0 128 63.5 236.5t172.5 171.5t237 63q195 0 333 -138t138 -333q0 -128 -63 -236t-171.5 -170.5t-236.5 -62.5t-237 62.5t-172.5 170.5t-63.5 236zM524 692q142 0 244 101.5t102 242.5q0 144 -101.5 245t-244.5 101q-145 0 -244.5 -100.5t-99.5 -245.5
q0 -142 100 -243t244 -101zM307 788v494h246q91 0 154 -57.5t63 -145.5q0 -109 -102 -164l90 -127h-168l-68 99h-76v-99h-139zM446 1020h107q34 0 55 17.5t21 41.5q0 26 -22.5 47t-55.5 21h-105v-127z" />
    <glyph glyph-name="macron" unicode="&#xaf;" horiz-adv-x="905" 
d="M39 1602v278h827v-278h-827z" />
    <glyph glyph-name="degree" unicode="&#xb0;" horiz-adv-x="935" 
d="M465 670q-173 0 -294.5 122t-121.5 295q0 177 121 298.5t295 121.5q177 0 299.5 -121.5t122.5 -298.5q0 -174 -122.5 -295.5t-299.5 -121.5zM465 924q70 0 119 47.5t49 115.5q0 69 -49 117.5t-119 48.5q-67 0 -115.5 -48.5t-48.5 -117.5q0 -67 49 -115t115 -48z" />
    <glyph glyph-name="plusminus" unicode="&#xb1;" horiz-adv-x="1226" 
d="M113 748v307h348v331h307v-331h346v-307h-346v-316h-307v316h-348zM113 53v314h1001v-314h-1001z" />
    <glyph glyph-name="acute" unicode="&#xb4;" horiz-adv-x="659" 
d="M621 1864l-404 -334l-178 194l389 355z" />
    <glyph glyph-name="mu" unicode="&#xb5;" horiz-adv-x="1286" 
d="M111 -541v1575h331v-499q0 -88 58.5 -150.5t144.5 -62.5q83 0 142 62.5t59 150.5v499h330v-1034h-330v78q-125 -82 -234 -82q-43 0 -85.5 12.5t-63.5 25.5l-21 13v-588h-331z" />
    <glyph glyph-name="paragraph" unicode="&#xb6;" horiz-adv-x="1581" 
d="M623 0v350q-154 0 -285.5 72.5t-209 198.5t-77.5 276q0 153 77 282t209 204t286 75h823v-1458h-340v1120h-145v-1120h-338z" />
    <glyph glyph-name="periodcentered" unicode="&#xb7;" horiz-adv-x="618" 
d="M51 731q0 106 75 181t185 75q106 0 181 -75t75 -181q0 -110 -75 -185t-181 -75q-110 0 -185 75t-75 185z" />
    <glyph glyph-name="cedilla" unicode="&#xb8;" horiz-adv-x="770" 
d="M39 -559l86 197q99 -44 199 -44q92 0 141 17.5t49 42.5t-44 43t-105 18q-65 0 -129 -24l-72 180q90 43 211 43q93 0 171.5 -25.5t131.5 -84t53 -140.5q0 -119 -110 -204t-297 -85q-139 0 -285 66z" />
    <glyph glyph-name="guillemotright" unicode="&#xbb;" horiz-adv-x="1128" 
d="M289 207l-248 164l242 352l-242 346l248 168l342 -510zM760 184l-254 166l260 377l-256 363l246 167l360 -530z" />
    <glyph glyph-name="questiondown" unicode="&#xbf;" horiz-adv-x="1335" 
d="M897 600h-250q-119 0 -179 -40t-60 -105q0 -62 66 -107t190 -45q107 0 205.5 57.5t154.5 174.5l319 -152q-68 -146 -180 -245.5t-236 -143t-259 -43.5q-119 0 -220.5 29.5t-173.5 79.5t-123 116t-75.5 140.5t-24.5 152.5q0 76 21.5 145t69 130t116 105.5t168.5 70.5
t221 26h250v-346zM475 1253q0 108 74 181t180 73t180 -73t74 -181q0 -104 -74 -176.5t-180 -72.5t-180 72.5t-74 176.5z" />
    <glyph glyph-name="Agrave" unicode="&#xc0;" horiz-adv-x="1622" 
d="M0 0l645 1458h328l649 -1458h-385l-70 152h-718l-64 -152h-385zM590 485h440l-221 541zM432 1864l193 215l389 -355l-178 -194z" />
    <glyph glyph-name="Aacute" unicode="&#xc1;" horiz-adv-x="1622" 
d="M0 0l645 1458h328l649 -1458h-385l-70 152h-718l-64 -152h-385zM590 485h440l-221 541zM1163 1864l-403 -334l-178 194l389 355z" />
    <glyph glyph-name="Acircumflex" unicode="&#xc2;" horiz-adv-x="1622" 
d="M0 0l645 1458h328l649 -1458h-385l-70 152h-718l-64 -152h-385zM590 485h440l-221 541zM809 1776l-307 -244l-160 211l467 352l473 -352l-156 -213z" />
    <glyph glyph-name="Atilde" unicode="&#xc3;" horiz-adv-x="1622" 
d="M0 0l645 1458h328l649 -1458h-385l-70 152h-718l-64 -152h-385zM590 485h440l-221 541zM473 1579l-205 150q81 115 179 194.5t202 79.5q60 0 109 -17.5t78.5 -42.5t53 -50t45 -42.5t42.5 -17.5q30 0 69.5 35t104.5 121l207 -150q-197 -274 -377 -274q-60 0 -108.5 18
t-78.5 43.5t-53.5 51t-46 43.5t-43.5 18q-30 0 -71.5 -36t-106.5 -124z" />
    <glyph glyph-name="Adieresis" unicode="&#xc4;" horiz-adv-x="1622" 
d="M0 0l645 1458h328l649 -1458h-385l-70 152h-718l-64 -152h-385zM590 485h440l-221 541zM862 1786q0 86 61 144.5t146 58.5q84 0 144.5 -59t60.5 -144q0 -86 -60.5 -146.5t-144.5 -60.5q-85 0 -146 60.5t-61 146.5zM350 1786q0 86 60 144.5t147 58.5q86 0 144.5 -58.5
t58.5 -144.5q0 -87 -58.5 -147t-144.5 -60t-146.5 60.5t-60.5 146.5z" />
    <glyph glyph-name="Aring" unicode="&#xc5;" horiz-adv-x="1622" 
d="M0 0l645 1458h328l649 -1458h-385l-70 152h-718l-64 -152h-385zM590 485h440l-221 541zM514 1825q0 123 86 208t209 85q122 0 207.5 -85t85.5 -208q0 -120 -85.5 -204.5t-207.5 -84.5q-123 0 -209 84.5t-86 204.5zM721 1825q0 -35 25.5 -60.5t62.5 -25.5q33 0 61.5 26
t28.5 60t-28.5 60t-61.5 26q-37 0 -62.5 -25.5t-25.5 -60.5z" />
    <glyph glyph-name="AE" unicode="&#xc6;" horiz-adv-x="2334" 
d="M0 0l895 1458h1354v-346h-828v-207h588v-342h-588v-215h828v-348h-1174v152h-573l-92 -152h-410zM696 481h379v649z" />
    <glyph glyph-name="Ccedilla" unicode="&#xc7;" horiz-adv-x="1579" 
d="M1212 530l314 -168q-101 -187 -283.5 -296t-404.5 -109q-159 0 -303.5 60.5t-249.5 164t-166.5 247t-61.5 302.5q0 210 104.5 388.5t284.5 283t392 104.5q218 0 402.5 -113t285.5 -300l-314 -164q-55 102 -154.5 163.5t-219.5 61.5q-116 0 -214.5 -57.5t-156 -155
t-57.5 -211.5q0 -177 125.5 -302.5t302.5 -125.5q121 0 220 61.5t154 165.5zM463 -559l86 197q99 -44 199 -44q92 0 141 17.5t49 42.5t-44.5 43t-105.5 18q-64 0 -129 -24l-71 180q90 43 211 43q93 0 171.5 -25.5t131.5 -84t53 -140.5q0 -119 -110 -204t-297 -85
q-139 0 -285 66z" />
    <glyph glyph-name="Egrave" unicode="&#xc8;" horiz-adv-x="1411" 
d="M135 0v1458h1190v-346h-838v-207h598v-342h-598v-215h838v-348h-1190zM352 1864l193 215l389 -355l-178 -194z" />
    <glyph glyph-name="Eacute" unicode="&#xc9;" horiz-adv-x="1411" 
d="M135 0v1458h1190v-346h-838v-207h598v-342h-598v-215h838v-348h-1190zM1083 1864l-403 -334l-178 194l389 355z" />
    <glyph glyph-name="Ecircumflex" unicode="&#xca;" horiz-adv-x="1411" 
d="M135 0v1458h1190v-346h-838v-207h598v-342h-598v-215h838v-348h-1190zM729 1776l-307 -244l-160 211l467 352l473 -352l-155 -213z" />
    <glyph glyph-name="Edieresis" unicode="&#xcb;" horiz-adv-x="1411" 
d="M135 0v1458h1190v-346h-838v-207h598v-342h-598v-215h838v-348h-1190zM782 1786q0 86 61 144.5t146 58.5q84 0 144.5 -59t60.5 -144q0 -86 -60.5 -146.5t-144.5 -60.5q-85 0 -146 60.5t-61 146.5zM270 1786q0 86 60 144.5t147 58.5q86 0 144.5 -58.5t58.5 -144.5
q0 -87 -58.5 -147t-144.5 -60t-146.5 60.5t-60.5 146.5z" />
    <glyph glyph-name="Igrave" unicode="&#xcc;" horiz-adv-x="622" 
d="M135 0v1458h352v-1458h-352zM-66 1864l193 215l389 -355l-178 -194z" />
    <glyph glyph-name="Iacute" unicode="&#xcd;" horiz-adv-x="622" 
d="M135 0v1458h352v-1458h-352zM666 1864l-404 -334l-178 194l389 355z" />
    <glyph glyph-name="Icircumflex" unicode="&#xce;" horiz-adv-x="622" 
d="M135 0v1458h352v-1458h-352zM311 1776l-307 -244l-160 211l467 352l473 -352l-155 -213z" />
    <glyph glyph-name="Idieresis" unicode="&#xcf;" horiz-adv-x="622" 
d="M135 0v1458h352v-1458h-352zM365 1786q0 86 60.5 144.5t145.5 58.5q84 0 144.5 -59t60.5 -144q0 -86 -60.5 -146.5t-144.5 -60.5q-85 0 -145.5 60.5t-60.5 146.5zM-147 1786q0 86 59.5 144.5t146.5 58.5q86 0 144.5 -58.5t58.5 -144.5q0 -87 -58.5 -147t-144.5 -60
t-146 60.5t-60 146.5z" />
    <glyph glyph-name="Eth" unicode="&#xd0;" horiz-adv-x="1570" 
d="M0 565v336h164v557h631q197 0 364.5 -98t265 -266.5t97.5 -366.5q0 -196 -97.5 -363.5t-265 -265.5t-364.5 -98h-631v565h-164zM516 348h295q150 0 253 111.5t103 267.5q0 159 -103 271t-253 112h-295v-209h354v-336h-354v-217z" />
    <glyph glyph-name="Ntilde" unicode="&#xd1;" horiz-adv-x="1652" 
d="M135 0v1458h365l665 -901v901h353v-1458h-363l-668 899v-899h-352zM489 1579l-204 150q81 115 179 194.5t202 79.5q60 0 109 -17.5t78.5 -42.5t52.5 -50t44.5 -42.5t42.5 -17.5q30 0 69.5 35t104.5 121l207 -150q-197 -274 -377 -274q-60 0 -108.5 18t-78 43.5t-53 51
t-46 43.5t-43.5 18q-31 0 -72.5 -36t-106.5 -124z" />
    <glyph glyph-name="Ograve" unicode="&#xd2;" 
d="M1253 731q0 174 -124 299t-300 125q-175 0 -300.5 -125.5t-125.5 -298.5q0 -177 125.5 -302.5t300.5 -125.5q177 0 300.5 125.5t123.5 302.5zM49 731q0 157 62 300.5t166.5 247.5t249 166t302.5 62t302 -62t248.5 -166t166.5 -247.5t62 -300.5q0 -212 -105 -392
t-284 -284t-390 -104q-158 0 -302.5 61.5t-249 166t-166.5 249t-62 303.5zM453 1864l192 215l389 -355l-178 -194z" />
    <glyph glyph-name="Oacute" unicode="&#xd3;" 
d="M1253 731q0 174 -124 299t-300 125q-175 0 -300.5 -125.5t-125.5 -298.5q0 -177 125.5 -302.5t300.5 -125.5q177 0 300.5 125.5t123.5 302.5zM49 731q0 157 62 300.5t166.5 247.5t249 166t302.5 62t302 -62t248.5 -166t166.5 -247.5t62 -300.5q0 -212 -105 -392
t-284 -284t-390 -104q-158 0 -302.5 61.5t-249 166t-166.5 249t-62 303.5zM1184 1864l-404 -334l-178 194l389 355z" />
    <glyph glyph-name="Ocircumflex" unicode="&#xd4;" 
d="M1253 731q0 174 -124 299t-300 125q-175 0 -300.5 -125.5t-125.5 -298.5q0 -177 125.5 -302.5t300.5 -125.5q177 0 300.5 125.5t123.5 302.5zM49 731q0 157 62 300.5t166.5 247.5t249 166t302.5 62t302 -62t248.5 -166t166.5 -247.5t62 -300.5q0 -212 -105 -392
t-284 -284t-390 -104q-158 0 -302.5 61.5t-249 166t-166.5 249t-62 303.5zM829 1776l-307 -244l-160 211l467 352l474 -352l-156 -213z" />
    <glyph glyph-name="Otilde" unicode="&#xd5;" 
d="M1253 731q0 174 -124 299t-300 125q-175 0 -300.5 -125.5t-125.5 -298.5q0 -177 125.5 -302.5t300.5 -125.5q177 0 300.5 125.5t123.5 302.5zM49 731q0 157 62 300.5t166.5 247.5t249 166t302.5 62t302 -62t248.5 -166t166.5 -247.5t62 -300.5q0 -212 -105 -392
t-284 -284t-390 -104q-158 0 -302.5 61.5t-249 166t-166.5 249t-62 303.5zM494 1579l-205 150q81 115 179 194.5t202 79.5q60 0 109 -17.5t78.5 -42.5t52.5 -50t44.5 -42.5t42.5 -17.5q30 0 69.5 35t104.5 121l207 -150q-197 -274 -377 -274q-60 0 -108.5 18t-78 43.5
t-53 51t-46 43.5t-43.5 18q-30 0 -71.5 -36t-106.5 -124z" />
    <glyph glyph-name="Odieresis" unicode="&#xd6;" 
d="M1253 731q0 174 -124 299t-300 125q-175 0 -300.5 -125.5t-125.5 -298.5q0 -177 125.5 -302.5t300.5 -125.5q177 0 300.5 125.5t123.5 302.5zM49 731q0 157 62 300.5t166.5 247.5t249 166t302.5 62t302 -62t248.5 -166t166.5 -247.5t62 -300.5q0 -212 -105 -392
t-284 -284t-390 -104q-158 0 -302.5 61.5t-249 166t-166.5 249t-62 303.5zM883 1786q0 86 61 144.5t146 58.5q84 0 144 -59t60 -144q0 -86 -60 -146.5t-144 -60.5q-85 0 -146 60.5t-61 146.5zM371 1786q0 86 60 144.5t147 58.5q86 0 144 -58.5t58 -144.5q0 -87 -58 -147
t-144 -60t-146.5 60.5t-60.5 146.5z" />
    <glyph glyph-name="multiply" unicode="&#xd7;" horiz-adv-x="1126" 
d="M313 254l-223 223l252 246l-252 246l223 225l246 -254l250 258l225 -225l-258 -250l260 -252l-223 -225l-254 260z" />
    <glyph glyph-name="Oslash" unicode="&#xd8;" 
d="M829 303q177 0 300.5 125.5t123.5 302.5q0 97 -36.5 179.5t-102.5 140.5l-287 -748h2zM829 1155q-175 0 -300.5 -125.5t-125.5 -298.5q0 -99 38 -183t106 -142l289 749h-7zM352 -102l66 172q-168 107 -268.5 281.5t-100.5 379.5q0 155 61 298t163 246.5t243 165.5t295 62
q51 0 150 -16l30 74h318l-68 -175q168 -107 267.5 -280t99.5 -375q0 -157 -60.5 -300t-162.5 -247t-242.5 -165.5t-294.5 -61.5q-72 0 -146 16l-28 -75h-322z" />
    <glyph glyph-name="Ugrave" unicode="&#xd9;" horiz-adv-x="1607" 
d="M129 616v842h352v-842q0 -130 95 -221.5t229 -91.5t227.5 91.5t93.5 221.5v842h353v-842q0 -138 -53.5 -261.5t-144 -212t-215 -140t-261.5 -51.5t-262 51.5t-215.5 140t-144.5 212t-54 261.5zM428 1864l193 215l389 -355l-179 -194z" />
    <glyph glyph-name="Uacute" unicode="&#xda;" horiz-adv-x="1607" 
d="M129 616v842h352v-842q0 -130 95 -221.5t229 -91.5t227.5 91.5t93.5 221.5v842h353v-842q0 -138 -53.5 -261.5t-144 -212t-215 -140t-261.5 -51.5t-262 51.5t-215.5 140t-144.5 212t-54 261.5zM1159 1864l-403 -334l-178 194l389 355z" />
    <glyph glyph-name="Ucircumflex" unicode="&#xdb;" horiz-adv-x="1607" 
d="M129 616v842h352v-842q0 -130 95 -221.5t229 -91.5t227.5 91.5t93.5 221.5v842h353v-842q0 -138 -53.5 -261.5t-144 -212t-215 -140t-261.5 -51.5t-262 51.5t-215.5 140t-144.5 212t-54 261.5zM805 1776l-307 -244l-160 211l467 352l473 -352l-156 -213z" />
    <glyph glyph-name="Udieresis" unicode="&#xdc;" horiz-adv-x="1607" 
d="M129 616v842h352v-842q0 -130 95 -221.5t229 -91.5t227.5 91.5t93.5 221.5v842h353v-842q0 -138 -53.5 -261.5t-144 -212t-215 -140t-261.5 -51.5t-262 51.5t-215.5 140t-144.5 212t-54 261.5zM858 1786q0 86 61 144.5t146 58.5q84 0 144.5 -59t60.5 -144
q0 -86 -60.5 -146.5t-144.5 -60.5q-85 0 -146 60.5t-61 146.5zM346 1786q0 86 60 144.5t147 58.5q86 0 144.5 -58.5t58.5 -144.5q0 -87 -58.5 -147t-144.5 -60t-146.5 60.5t-60.5 146.5z" />
    <glyph glyph-name="Yacute" unicode="&#xdd;" horiz-adv-x="1460" 
d="M553 0v352l-553 1106h399l332 -702l332 702h397l-555 -1106v-352h-352zM1085 1864l-403 -334l-178 194l389 355z" />
    <glyph glyph-name="Thorn" unicode="&#xde;" horiz-adv-x="1490" 
d="M487 516h353q106 0 178 63.5t72 151.5q0 86 -73.5 149.5t-176.5 63.5h-353v-428zM135 0v1458h352v-168h361q162 0 298.5 -74t216 -203.5t79.5 -285.5q0 -115 -48 -218.5t-129 -177t-190 -116.5t-227 -43h-361v-172h-352z" />
    <glyph glyph-name="germandbls" unicode="&#xdf;" horiz-adv-x="1724" 
d="M106 0v588q0 174 43.5 323.5t118.5 256.5t175 183.5t213 114t231 37.5q211 0 396.5 -114t299.5 -338l-354 -224q212 -68 318 -191t106 -276q0 -118 -72 -212t-195.5 -145.5t-273.5 -51.5q-335 0 -620 233l217 269q98 -82 205 -121t202 -39q86 0 140.5 25.5t54.5 62.5
q0 79 -146.5 145t-412.5 66v278l389 246q-73 49 -211 49q-68 0 -130.5 -15t-126.5 -55.5t-110.5 -103.5t-76 -166.5t-29.5 -236.5v-588h-351z" />
    <glyph glyph-name="agrave" unicode="&#xe0;" horiz-adv-x="1622" 
d="M0 0l645 1458h328l649 -1458h-385l-70 152h-718l-64 -152h-385zM590 485h440l-221 541zM432 1864l193 215l389 -355l-178 -194z" />
    <glyph glyph-name="aacute" unicode="&#xe1;" horiz-adv-x="1622" 
d="M0 0l645 1458h328l649 -1458h-385l-70 152h-718l-64 -152h-385zM590 485h440l-221 541zM1163 1864l-403 -334l-178 194l389 355z" />
    <glyph glyph-name="acircumflex" unicode="&#xe2;" horiz-adv-x="1622" 
d="M0 0l645 1458h328l649 -1458h-385l-70 152h-718l-64 -152h-385zM590 485h440l-221 541zM809 1776l-307 -244l-160 211l467 352l473 -352l-156 -213z" />
    <glyph glyph-name="atilde" unicode="&#xe3;" horiz-adv-x="1622" 
d="M0 0l645 1458h328l649 -1458h-385l-70 152h-718l-64 -152h-385zM590 485h440l-221 541zM473 1579l-205 150q81 115 179 194.5t202 79.5q60 0 109 -17.5t78.5 -42.5t53 -50t45 -42.5t42.5 -17.5q30 0 69.5 35t104.5 121l207 -150q-197 -274 -377 -274q-60 0 -108.5 18
t-78.5 43.5t-53.5 51t-46 43.5t-43.5 18q-30 0 -71.5 -36t-106.5 -124z" />
    <glyph glyph-name="adieresis" unicode="&#xe4;" horiz-adv-x="1622" 
d="M0 0l645 1458h328l649 -1458h-385l-70 152h-718l-64 -152h-385zM590 485h440l-221 541zM862 1786q0 86 61 144.5t146 58.5q84 0 144.5 -59t60.5 -144q0 -86 -60.5 -146.5t-144.5 -60.5q-85 0 -146 60.5t-61 146.5zM350 1786q0 86 60 144.5t147 58.5q86 0 144.5 -58.5
t58.5 -144.5q0 -87 -58.5 -147t-144.5 -60t-146.5 60.5t-60.5 146.5z" />
    <glyph glyph-name="aring" unicode="&#xe5;" horiz-adv-x="1622" 
d="M0 0l645 1458h328l649 -1458h-385l-70 152h-718l-64 -152h-385zM590 485h440l-221 541zM514 1825q0 123 86 208t209 85q122 0 207.5 -85t85.5 -208q0 -120 -85.5 -204.5t-207.5 -84.5q-123 0 -209 84.5t-86 204.5zM721 1825q0 -35 25.5 -60.5t62.5 -25.5q33 0 61.5 26
t28.5 60t-28.5 60t-61.5 26q-37 0 -62.5 -25.5t-25.5 -60.5z" />
    <glyph glyph-name="ae" unicode="&#xe6;" horiz-adv-x="2334" 
d="M0 0l895 1458h1354v-346h-828v-207h588v-342h-588v-215h828v-348h-1174v152h-573l-92 -152h-410zM696 481h379v649z" />
    <glyph glyph-name="ccedilla" unicode="&#xe7;" horiz-adv-x="1579" 
d="M1212 530l314 -168q-101 -187 -283.5 -296t-404.5 -109q-159 0 -303.5 60.5t-249.5 164t-166.5 247t-61.5 302.5q0 210 104.5 388.5t284.5 283t392 104.5q218 0 402.5 -113t285.5 -300l-314 -164q-55 102 -154.5 163.5t-219.5 61.5q-116 0 -214.5 -57.5t-156 -155
t-57.5 -211.5q0 -177 125.5 -302.5t302.5 -125.5q121 0 220 61.5t154 165.5zM463 -559l86 197q99 -44 199 -44q92 0 141 17.5t49 42.5t-44.5 43t-105.5 18q-64 0 -129 -24l-71 180q90 43 211 43q93 0 171.5 -25.5t131.5 -84t53 -140.5q0 -119 -110 -204t-297 -85
q-139 0 -285 66z" />
    <glyph glyph-name="egrave" unicode="&#xe8;" horiz-adv-x="1411" 
d="M135 0v1458h1190v-346h-838v-207h598v-342h-598v-215h838v-348h-1190zM352 1864l193 215l389 -355l-178 -194z" />
    <glyph glyph-name="eacute" unicode="&#xe9;" horiz-adv-x="1411" 
d="M135 0v1458h1190v-346h-838v-207h598v-342h-598v-215h838v-348h-1190zM1083 1864l-403 -334l-178 194l389 355z" />
    <glyph glyph-name="ecircumflex" unicode="&#xea;" horiz-adv-x="1411" 
d="M135 0v1458h1190v-346h-838v-207h598v-342h-598v-215h838v-348h-1190zM729 1776l-307 -244l-160 211l467 352l473 -352l-155 -213z" />
    <glyph glyph-name="edieresis" unicode="&#xeb;" horiz-adv-x="1411" 
d="M135 0v1458h1190v-346h-838v-207h598v-342h-598v-215h838v-348h-1190zM782 1786q0 86 61 144.5t146 58.5q84 0 144.5 -59t60.5 -144q0 -86 -60.5 -146.5t-144.5 -60.5q-85 0 -146 60.5t-61 146.5zM270 1786q0 86 60 144.5t147 58.5q86 0 144.5 -58.5t58.5 -144.5
q0 -87 -58.5 -147t-144.5 -60t-146.5 60.5t-60.5 146.5z" />
    <glyph glyph-name="igrave" unicode="&#xec;" horiz-adv-x="622" 
d="M135 0v1458h352v-1458h-352zM-66 1864l193 215l389 -355l-178 -194z" />
    <glyph glyph-name="iacute" unicode="&#xed;" horiz-adv-x="622" 
d="M135 0v1458h352v-1458h-352zM666 1864l-404 -334l-178 194l389 355z" />
    <glyph glyph-name="icircumflex" unicode="&#xee;" horiz-adv-x="622" 
d="M135 0v1458h352v-1458h-352zM311 1776l-307 -244l-160 211l467 352l473 -352l-155 -213z" />
    <glyph glyph-name="idieresis" unicode="&#xef;" horiz-adv-x="622" 
d="M135 0v1458h352v-1458h-352zM365 1786q0 86 60.5 144.5t145.5 58.5q84 0 144.5 -59t60.5 -144q0 -86 -60.5 -146.5t-144.5 -60.5q-85 0 -145.5 60.5t-60.5 146.5zM-147 1786q0 86 59.5 144.5t146.5 58.5q86 0 144.5 -58.5t58.5 -144.5q0 -87 -58.5 -147t-144.5 -60
t-146 60.5t-60 146.5z" />
    <glyph glyph-name="eth" unicode="&#xf0;" horiz-adv-x="1570" 
d="M0 565v336h164v557h631q197 0 364.5 -98t265 -266.5t97.5 -366.5q0 -196 -97.5 -363.5t-265 -265.5t-364.5 -98h-631v565h-164zM516 348h295q150 0 253 111.5t103 267.5q0 159 -103 271t-253 112h-295v-209h354v-336h-354v-217z" />
    <glyph glyph-name="ntilde" unicode="&#xf1;" horiz-adv-x="1652" 
d="M135 0v1458h365l665 -901v901h353v-1458h-363l-668 899v-899h-352zM489 1579l-204 150q81 115 179 194.5t202 79.5q60 0 109 -17.5t78.5 -42.5t52.5 -50t44.5 -42.5t42.5 -17.5q30 0 69.5 35t104.5 121l207 -150q-197 -274 -377 -274q-60 0 -108.5 18t-78 43.5t-53 51
t-46 43.5t-43.5 18q-31 0 -72.5 -36t-106.5 -124z" />
    <glyph glyph-name="ograve" unicode="&#xf2;" 
d="M1253 731q0 174 -124 299t-300 125q-175 0 -300.5 -125.5t-125.5 -298.5q0 -177 125.5 -302.5t300.5 -125.5q177 0 300.5 125.5t123.5 302.5zM49 731q0 157 62 300.5t166.5 247.5t249 166t302.5 62t302 -62t248.5 -166t166.5 -247.5t62 -300.5q0 -212 -105 -392
t-284 -284t-390 -104q-158 0 -302.5 61.5t-249 166t-166.5 249t-62 303.5zM453 1864l192 215l389 -355l-178 -194z" />
    <glyph glyph-name="oacute" unicode="&#xf3;" 
d="M1253 731q0 174 -124 299t-300 125q-175 0 -300.5 -125.5t-125.5 -298.5q0 -177 125.5 -302.5t300.5 -125.5q177 0 300.5 125.5t123.5 302.5zM49 731q0 157 62 300.5t166.5 247.5t249 166t302.5 62t302 -62t248.5 -166t166.5 -247.5t62 -300.5q0 -212 -105 -392
t-284 -284t-390 -104q-158 0 -302.5 61.5t-249 166t-166.5 249t-62 303.5zM1184 1864l-404 -334l-178 194l389 355z" />
    <glyph glyph-name="ocircumflex" unicode="&#xf4;" 
d="M1253 731q0 174 -124 299t-300 125q-175 0 -300.5 -125.5t-125.5 -298.5q0 -177 125.5 -302.5t300.5 -125.5q177 0 300.5 125.5t123.5 302.5zM49 731q0 157 62 300.5t166.5 247.5t249 166t302.5 62t302 -62t248.5 -166t166.5 -247.5t62 -300.5q0 -212 -105 -392
t-284 -284t-390 -104q-158 0 -302.5 61.5t-249 166t-166.5 249t-62 303.5zM829 1776l-307 -244l-160 211l467 352l474 -352l-156 -213z" />
    <glyph glyph-name="otilde" unicode="&#xf5;" 
d="M1253 731q0 174 -124 299t-300 125q-175 0 -300.5 -125.5t-125.5 -298.5q0 -177 125.5 -302.5t300.5 -125.5q177 0 300.5 125.5t123.5 302.5zM49 731q0 157 62 300.5t166.5 247.5t249 166t302.5 62t302 -62t248.5 -166t166.5 -247.5t62 -300.5q0 -212 -105 -392
t-284 -284t-390 -104q-158 0 -302.5 61.5t-249 166t-166.5 249t-62 303.5zM494 1579l-205 150q81 115 179 194.5t202 79.5q60 0 109 -17.5t78.5 -42.5t52.5 -50t44.5 -42.5t42.5 -17.5q30 0 69.5 35t104.5 121l207 -150q-197 -274 -377 -274q-60 0 -108.5 18t-78 43.5
t-53 51t-46 43.5t-43.5 18q-30 0 -71.5 -36t-106.5 -124z" />
    <glyph glyph-name="odieresis" unicode="&#xf6;" 
d="M1253 731q0 174 -124 299t-300 125q-175 0 -300.5 -125.5t-125.5 -298.5q0 -177 125.5 -302.5t300.5 -125.5q177 0 300.5 125.5t123.5 302.5zM49 731q0 157 62 300.5t166.5 247.5t249 166t302.5 62t302 -62t248.5 -166t166.5 -247.5t62 -300.5q0 -212 -105 -392
t-284 -284t-390 -104q-158 0 -302.5 61.5t-249 166t-166.5 249t-62 303.5zM883 1786q0 86 61 144.5t146 58.5q84 0 144 -59t60 -144q0 -86 -60 -146.5t-144 -60.5q-85 0 -146 60.5t-61 146.5zM371 1786q0 86 60 144.5t147 58.5q86 0 144 -58.5t58 -144.5q0 -87 -58 -147
t-144 -60t-146.5 60.5t-60.5 146.5z" />
    <glyph glyph-name="divide" unicode="&#xf7;" horiz-adv-x="1200" 
d="M88 563v318h1024v-318h-1024zM387 1157q0 86 61.5 146.5t149.5 60.5q86 0 146.5 -60.5t60.5 -146.5q0 -85 -60.5 -145t-146.5 -60q-88 0 -149.5 60t-61.5 145zM391 285q0 86 60.5 146.5t146.5 60.5q88 0 149.5 -60.5t61.5 -146.5q0 -85 -62 -146t-149 -61
q-86 0 -146.5 61t-60.5 146z" />
    <glyph glyph-name="oslash" unicode="&#xf8;" 
d="M829 303q177 0 300.5 125.5t123.5 302.5q0 97 -36.5 179.5t-102.5 140.5l-287 -748h2zM829 1155q-175 0 -300.5 -125.5t-125.5 -298.5q0 -99 38 -183t106 -142l289 749h-7zM352 -102l66 172q-168 107 -268.5 281.5t-100.5 379.5q0 155 61 298t163 246.5t243 165.5t295 62
q51 0 150 -16l30 74h318l-68 -175q168 -107 267.5 -280t99.5 -375q0 -157 -60.5 -300t-162.5 -247t-242.5 -165.5t-294.5 -61.5q-72 0 -146 16l-28 -75h-322z" />
    <glyph glyph-name="ugrave" unicode="&#xf9;" horiz-adv-x="1607" 
d="M129 616v842h352v-842q0 -130 95 -221.5t229 -91.5t227.5 91.5t93.5 221.5v842h353v-842q0 -138 -53.5 -261.5t-144 -212t-215 -140t-261.5 -51.5t-262 51.5t-215.5 140t-144.5 212t-54 261.5zM428 1864l193 215l389 -355l-179 -194z" />
    <glyph glyph-name="uacute" unicode="&#xfa;" horiz-adv-x="1607" 
d="M129 616v842h352v-842q0 -130 95 -221.5t229 -91.5t227.5 91.5t93.5 221.5v842h353v-842q0 -138 -53.5 -261.5t-144 -212t-215 -140t-261.5 -51.5t-262 51.5t-215.5 140t-144.5 212t-54 261.5zM1159 1864l-403 -334l-178 194l389 355z" />
    <glyph glyph-name="ucircumflex" unicode="&#xfb;" horiz-adv-x="1607" 
d="M129 616v842h352v-842q0 -130 95 -221.5t229 -91.5t227.5 91.5t93.5 221.5v842h353v-842q0 -138 -53.5 -261.5t-144 -212t-215 -140t-261.5 -51.5t-262 51.5t-215.5 140t-144.5 212t-54 261.5zM805 1776l-307 -244l-160 211l467 352l473 -352l-156 -213z" />
    <glyph glyph-name="udieresis" unicode="&#xfc;" horiz-adv-x="1607" 
d="M129 616v842h352v-842q0 -130 95 -221.5t229 -91.5t227.5 91.5t93.5 221.5v842h353v-842q0 -138 -53.5 -261.5t-144 -212t-215 -140t-261.5 -51.5t-262 51.5t-215.5 140t-144.5 212t-54 261.5zM858 1786q0 86 61 144.5t146 58.5q84 0 144.5 -59t60.5 -144
q0 -86 -60.5 -146.5t-144.5 -60.5q-85 0 -146 60.5t-61 146.5zM346 1786q0 86 60 144.5t147 58.5q86 0 144.5 -58.5t58.5 -144.5q0 -87 -58.5 -147t-144.5 -60t-146.5 60.5t-60.5 146.5z" />
    <glyph glyph-name="yacute" unicode="&#xfd;" horiz-adv-x="1460" 
d="M553 0v352l-553 1106h399l332 -702l332 702h397l-555 -1106v-352h-352zM1085 1864l-403 -334l-178 194l389 355z" />
    <glyph glyph-name="thorn" unicode="&#xfe;" horiz-adv-x="1490" 
d="M487 516h353q106 0 178 63.5t72 151.5q0 86 -73.5 149.5t-176.5 63.5h-353v-428zM135 0v1458h352v-168h361q162 0 298.5 -74t216 -203.5t79.5 -285.5q0 -115 -48 -218.5t-129 -177t-190 -116.5t-227 -43h-361v-172h-352z" />
    <glyph glyph-name="ydieresis" unicode="&#xff;" horiz-adv-x="1460" 
d="M553 0v352l-553 1106h399l332 -702l332 702h397l-555 -1106v-352h-352zM784 1786q0 86 61 144.5t146 58.5q84 0 144.5 -59t60.5 -144q0 -86 -60.5 -146.5t-144.5 -60.5q-85 0 -146 60.5t-61 146.5zM272 1786q0 86 60 144.5t147 58.5q86 0 144.5 -58.5t58.5 -144.5
q0 -87 -58.5 -147t-144.5 -60t-146.5 60.5t-60.5 146.5z" />
    <glyph glyph-name="Amacron" unicode="&#x100;" horiz-adv-x="1622" 
d="M0 0l645 1458h328l649 -1458h-385l-70 152h-718l-64 -152h-385zM590 485h440l-221 541zM393 1602v278h828v-278h-828z" />
    <glyph glyph-name="amacron" unicode="&#x101;" horiz-adv-x="1622" 
d="M0 0l645 1458h328l649 -1458h-385l-70 152h-718l-64 -152h-385zM590 485h440l-221 541zM393 1602v278h828v-278h-828z" />
    <glyph glyph-name="Abreve" unicode="&#x102;" horiz-adv-x="1622" 
d="M0 0l645 1458h328l649 -1458h-385l-70 152h-718l-64 -152h-385zM590 485h440l-221 541zM307 1933l244 125q18 -35 45.5 -73t62.5 -75t75.5 -61t76.5 -24q41 0 86 28.5t79 69.5t57 75.5t34 57.5l246 -121q-36 -72 -87 -138t-115 -122t-142.5 -89.5t-157.5 -33.5
q-83 0 -163.5 35t-144.5 93t-113.5 122t-82.5 131z" />
    <glyph glyph-name="abreve" unicode="&#x103;" horiz-adv-x="1622" 
d="M0 0l645 1458h328l649 -1458h-385l-70 152h-718l-64 -152h-385zM590 485h440l-221 541zM307 1933l244 125q18 -35 45.5 -73t62.5 -75t75.5 -61t76.5 -24q41 0 86 28.5t79 69.5t57 75.5t34 57.5l246 -121q-36 -72 -87 -138t-115 -122t-142.5 -89.5t-157.5 -33.5
q-83 0 -163.5 35t-144.5 93t-113.5 122t-82.5 131z" />
    <glyph glyph-name="Aogonek" unicode="&#x104;" horiz-adv-x="1622" 
d="M0 0l645 1458h328l649 -1458q-227 -112 -227 -178q0 -43 61 -43q56 0 138.5 29t129.5 59l105 -221q-186 -109 -361 -109q-151 0 -246.5 74t-95.5 176q0 111 109 217l-68 148h-718l-64 -152h-385zM590 485h440l-221 541z" />
    <glyph glyph-name="aogonek" unicode="&#x105;" horiz-adv-x="1622" 
d="M0 0l645 1458h328l649 -1458q-227 -112 -227 -178q0 -43 61 -43q56 0 138.5 29t129.5 59l105 -221q-186 -109 -361 -109q-151 0 -246.5 74t-95.5 176q0 111 109 217l-68 148h-718l-64 -152h-385zM590 485h440l-221 541z" />
    <glyph glyph-name="Cacute" unicode="&#x106;" horiz-adv-x="1554" 
d="M1204 530l314 -168q-100 -188 -283.5 -299.5t-405.5 -111.5q-158 0 -302.5 61.5t-249 166t-166.5 249t-62 303.5q0 157 62 300.5t166.5 247.5t249 166t302.5 62q220 0 404.5 -113t284.5 -300l-314 -164q-55 102 -155 163.5t-220 61.5q-175 0 -300.5 -125.5t-125.5 -298.5
q0 -177 125.5 -302.5t300.5 -125.5q121 0 220.5 62t154.5 165zM1184 1864l-404 -334l-178 194l389 355z" />
    <glyph glyph-name="cacute" unicode="&#x107;" horiz-adv-x="1554" 
d="M1204 530l314 -168q-100 -188 -283.5 -299.5t-405.5 -111.5q-158 0 -302.5 61.5t-249 166t-166.5 249t-62 303.5q0 157 62 300.5t166.5 247.5t249 166t302.5 62q220 0 404.5 -113t284.5 -300l-314 -164q-55 102 -155 163.5t-220 61.5q-175 0 -300.5 -125.5t-125.5 -298.5
q0 -177 125.5 -302.5t300.5 -125.5q121 0 220.5 62t154.5 165zM1184 1864l-404 -334l-178 194l389 355z" />
    <glyph glyph-name="Ccircumflex" unicode="&#x108;" horiz-adv-x="1554" 
d="M1204 530l314 -168q-100 -188 -283.5 -299.5t-405.5 -111.5q-158 0 -302.5 61.5t-249 166t-166.5 249t-62 303.5q0 157 62 300.5t166.5 247.5t249 166t302.5 62q220 0 404.5 -113t284.5 -300l-314 -164q-55 102 -155 163.5t-220 61.5q-175 0 -300.5 -125.5t-125.5 -298.5
q0 -177 125.5 -302.5t300.5 -125.5q121 0 220.5 62t154.5 165zM829 1776l-307 -244l-160 211l467 352l474 -352l-156 -213z" />
    <glyph glyph-name="ccircumflex" unicode="&#x109;" horiz-adv-x="1554" 
d="M1204 530l314 -168q-100 -188 -283.5 -299.5t-405.5 -111.5q-158 0 -302.5 61.5t-249 166t-166.5 249t-62 303.5q0 157 62 300.5t166.5 247.5t249 166t302.5 62q220 0 404.5 -113t284.5 -300l-314 -164q-55 102 -155 163.5t-220 61.5q-175 0 -300.5 -125.5t-125.5 -298.5
q0 -177 125.5 -302.5t300.5 -125.5q121 0 220.5 62t154.5 165zM829 1776l-307 -244l-160 211l467 352l474 -352l-156 -213z" />
    <glyph glyph-name="Cdotaccent" unicode="&#x10a;" horiz-adv-x="1554" 
d="M1204 530l314 -168q-100 -188 -283.5 -299.5t-405.5 -111.5q-158 0 -302.5 61.5t-249 166t-166.5 249t-62 303.5q0 157 62 300.5t166.5 247.5t249 166t302.5 62q220 0 404.5 -113t284.5 -300l-314 -164q-55 102 -155 163.5t-220 61.5q-175 0 -300.5 -125.5t-125.5 -298.5
q0 -177 125.5 -302.5t300.5 -125.5q121 0 220.5 62t154.5 165zM623 1786q0 86 59.5 144.5t146.5 58.5q86 0 144.5 -58.5t58.5 -144.5q0 -87 -58.5 -147t-144.5 -60t-146 60.5t-60 146.5z" />
    <glyph glyph-name="cdotaccent" unicode="&#x10b;" horiz-adv-x="1554" 
d="M1204 530l314 -168q-100 -188 -283.5 -299.5t-405.5 -111.5q-158 0 -302.5 61.5t-249 166t-166.5 249t-62 303.5q0 157 62 300.5t166.5 247.5t249 166t302.5 62q220 0 404.5 -113t284.5 -300l-314 -164q-55 102 -155 163.5t-220 61.5q-175 0 -300.5 -125.5t-125.5 -298.5
q0 -177 125.5 -302.5t300.5 -125.5q121 0 220.5 62t154.5 165zM623 1786q0 86 59.5 144.5t146.5 58.5q86 0 144.5 -58.5t58.5 -144.5q0 -87 -58.5 -147t-144.5 -60t-146 60.5t-60 146.5z" />
    <glyph glyph-name="Ccaron" unicode="&#x10c;" horiz-adv-x="1554" 
d="M1204 530l314 -168q-100 -188 -283.5 -299.5t-405.5 -111.5q-158 0 -302.5 61.5t-249 166t-166.5 249t-62 303.5q0 157 62 300.5t166.5 247.5t249 166t302.5 62q220 0 404.5 -113t284.5 -300l-314 -164q-55 102 -155 163.5t-220 61.5q-175 0 -300.5 -125.5t-125.5 -298.5
q0 -177 125.5 -302.5t300.5 -125.5q121 0 220.5 62t154.5 165zM829 1534l-467 352l160 211l307 -244l318 246l156 -213z" />
    <glyph glyph-name="ccaron" unicode="&#x10d;" horiz-adv-x="1554" 
d="M1204 530l314 -168q-100 -188 -283.5 -299.5t-405.5 -111.5q-158 0 -302.5 61.5t-249 166t-166.5 249t-62 303.5q0 157 62 300.5t166.5 247.5t249 166t302.5 62q220 0 404.5 -113t284.5 -300l-314 -164q-55 102 -155 163.5t-220 61.5q-175 0 -300.5 -125.5t-125.5 -298.5
q0 -177 125.5 -302.5t300.5 -125.5q121 0 220.5 62t154.5 165zM829 1534l-467 352l160 211l307 -244l318 246l156 -213z" />
    <glyph glyph-name="Dcaron" unicode="&#x10e;" horiz-adv-x="1542" 
d="M135 0v1458h631q197 0 364.5 -98t265 -266.5t97.5 -366.5q0 -196 -97.5 -363.5t-265 -265.5t-364.5 -98h-631zM487 348h295q150 0 253.5 111.5t103.5 267.5q0 159 -103.5 271t-253.5 112h-295v-762zM715 1534l-467 352l160 211l307 -244l317 246l156 -213z" />
    <glyph glyph-name="dcaron" unicode="&#x10f;" horiz-adv-x="1542" 
d="M135 0v1458h631q197 0 364.5 -98t265 -266.5t97.5 -366.5q0 -196 -97.5 -363.5t-265 -265.5t-364.5 -98h-631zM487 348h295q150 0 253.5 111.5t103.5 267.5q0 159 -103.5 271t-253.5 112h-295v-762zM715 1534l-467 352l160 211l307 -244l317 246l156 -213z" />
    <glyph glyph-name="Dcroat" unicode="&#x110;" horiz-adv-x="1570" 
d="M0 565v336h164v557h631q197 0 364.5 -98t265 -266.5t97.5 -366.5q0 -196 -97.5 -363.5t-265 -265.5t-364.5 -98h-631v565h-164zM516 348h295q150 0 253 111.5t103 267.5q0 159 -103 271t-253 112h-295v-209h354v-336h-354v-217z" />
    <glyph glyph-name="dcroat" unicode="&#x111;" horiz-adv-x="1570" 
d="M0 565v336h164v557h631q197 0 364.5 -98t265 -266.5t97.5 -366.5q0 -196 -97.5 -363.5t-265 -265.5t-364.5 -98h-631v565h-164zM516 348h295q150 0 253 111.5t103 267.5q0 159 -103 271t-253 112h-295v-209h354v-336h-354v-217z" />
    <glyph glyph-name="Emacron" unicode="&#x112;" horiz-adv-x="1411" 
d="M135 0v1458h1190v-346h-838v-207h598v-342h-598v-215h838v-348h-1190zM313 1602v278h828v-278h-828z" />
    <glyph glyph-name="emacron" unicode="&#x113;" horiz-adv-x="1411" 
d="M135 0v1458h1190v-346h-838v-207h598v-342h-598v-215h838v-348h-1190zM313 1602v278h828v-278h-828z" />
    <glyph glyph-name="Ebreve" unicode="&#x114;" horiz-adv-x="1411" 
d="M135 0v1458h1190v-346h-838v-207h598v-342h-598v-215h838v-348h-1190zM227 1933l244 125q18 -35 45.5 -73t62.5 -75t75.5 -61t76.5 -24q41 0 86 28.5t79 69.5t57 75.5t34 57.5l246 -121q-36 -72 -87 -138t-115 -122t-142.5 -89.5t-157.5 -33.5q-83 0 -163.5 35t-144.5 93
t-113.5 122t-82.5 131z" />
    <glyph glyph-name="ebreve" unicode="&#x115;" horiz-adv-x="1411" 
d="M135 0v1458h1190v-346h-838v-207h598v-342h-598v-215h838v-348h-1190zM227 1933l244 125q18 -35 45.5 -73t62.5 -75t75.5 -61t76.5 -24q41 0 86 28.5t79 69.5t57 75.5t34 57.5l246 -121q-36 -72 -87 -138t-115 -122t-142.5 -89.5t-157.5 -33.5q-83 0 -163.5 35t-144.5 93
t-113.5 122t-82.5 131z" />
    <glyph glyph-name="Edotaccent" unicode="&#x116;" horiz-adv-x="1411" 
d="M135 0v1458h1190v-346h-838v-207h598v-342h-598v-215h838v-348h-1190zM522 1786q0 86 60 144.5t147 58.5q86 0 144.5 -58.5t58.5 -144.5q0 -87 -58.5 -147t-144.5 -60t-146.5 60.5t-60.5 146.5z" />
    <glyph glyph-name="edotaccent" unicode="&#x117;" horiz-adv-x="1411" 
d="M135 0v1458h1190v-346h-838v-207h598v-342h-598v-215h838v-348h-1190zM522 1786q0 86 60 144.5t147 58.5q86 0 144.5 -58.5t58.5 -144.5q0 -87 -58.5 -147t-144.5 -60t-146.5 60.5t-60.5 146.5z" />
    <glyph glyph-name="Eogonek" unicode="&#x118;" horiz-adv-x="1411" 
d="M135 0v1458h1190v-346h-838v-207h598v-342h-598v-215h838v-348q-227 -112 -227 -178q0 -43 61 -43q56 0 138.5 29t129.5 59l105 -221q-186 -109 -361 -109q-151 0 -246.5 74t-95.5 176q0 104 103 213h-797z" />
    <glyph glyph-name="eogonek" unicode="&#x119;" horiz-adv-x="1411" 
d="M135 0v1458h1190v-346h-838v-207h598v-342h-598v-215h838v-348q-227 -112 -227 -178q0 -43 61 -43q56 0 138.5 29t129.5 59l105 -221q-186 -109 -361 -109q-151 0 -246.5 74t-95.5 176q0 104 103 213h-797z" />
    <glyph glyph-name="Ecaron" unicode="&#x11a;" horiz-adv-x="1411" 
d="M135 0v1458h1190v-346h-838v-207h598v-342h-598v-215h838v-348h-1190zM729 1534l-467 352l160 211l307 -244l318 246l155 -213z" />
    <glyph glyph-name="ecaron" unicode="&#x11b;" horiz-adv-x="1411" 
d="M135 0v1458h1190v-346h-838v-207h598v-342h-598v-215h838v-348h-1190zM729 1534l-467 352l160 211l307 -244l318 246l155 -213z" />
    <glyph glyph-name="Gcircumflex" unicode="&#x11c;" 
d="M991 559v346h598q19 -108 19 -174q0 -212 -105 -392t-284 -284t-390 -104q-158 0 -302.5 61.5t-249 166t-166.5 249t-62 303.5q0 157 62 300.5t166.5 247.5t249 166t302.5 62q277 0 490 -172l-221 -272q-127 92 -269 92q-175 0 -300.5 -125.5t-125.5 -298.5
q0 -177 125.5 -302.5t300.5 -125.5q131 0 238.5 69t161.5 187h-238zM829 1776l-307 -244l-160 211l467 352l474 -352l-156 -213z" />
    <glyph glyph-name="gcircumflex" unicode="&#x11d;" 
d="M991 559v346h598q19 -108 19 -174q0 -212 -105 -392t-284 -284t-390 -104q-158 0 -302.5 61.5t-249 166t-166.5 249t-62 303.5q0 157 62 300.5t166.5 247.5t249 166t302.5 62q277 0 490 -172l-221 -272q-127 92 -269 92q-175 0 -300.5 -125.5t-125.5 -298.5
q0 -177 125.5 -302.5t300.5 -125.5q131 0 238.5 69t161.5 187h-238zM829 1776l-307 -244l-160 211l467 352l474 -352l-156 -213z" />
    <glyph glyph-name="Gbreve" unicode="&#x11e;" 
d="M991 559v346h598q19 -108 19 -174q0 -212 -105 -392t-284 -284t-390 -104q-158 0 -302.5 61.5t-249 166t-166.5 249t-62 303.5q0 157 62 300.5t166.5 247.5t249 166t302.5 62q277 0 490 -172l-221 -272q-127 92 -269 92q-175 0 -300.5 -125.5t-125.5 -298.5
q0 -177 125.5 -302.5t300.5 -125.5q131 0 238.5 69t161.5 187h-238zM328 1933l243 125q18 -35 45.5 -73t62.5 -75t75.5 -61t76.5 -24q41 0 86 28.5t79 69.5t57 75.5t34 57.5l246 -121q-36 -72 -87 -138t-115 -122t-142.5 -89.5t-157.5 -33.5q-83 0 -163.5 35t-144 93
t-112.5 122t-83 131z" />
    <glyph glyph-name="gbreve" unicode="&#x11f;" 
d="M991 559v346h598q19 -108 19 -174q0 -212 -105 -392t-284 -284t-390 -104q-158 0 -302.5 61.5t-249 166t-166.5 249t-62 303.5q0 157 62 300.5t166.5 247.5t249 166t302.5 62q277 0 490 -172l-221 -272q-127 92 -269 92q-175 0 -300.5 -125.5t-125.5 -298.5
q0 -177 125.5 -302.5t300.5 -125.5q131 0 238.5 69t161.5 187h-238zM328 1933l243 125q18 -35 45.5 -73t62.5 -75t75.5 -61t76.5 -24q41 0 86 28.5t79 69.5t57 75.5t34 57.5l246 -121q-36 -72 -87 -138t-115 -122t-142.5 -89.5t-157.5 -33.5q-83 0 -163.5 35t-144 93
t-112.5 122t-83 131z" />
    <glyph glyph-name="Gdotaccent" unicode="&#x120;" 
d="M991 559v346h598q19 -108 19 -174q0 -212 -105 -392t-284 -284t-390 -104q-158 0 -302.5 61.5t-249 166t-166.5 249t-62 303.5q0 157 62 300.5t166.5 247.5t249 166t302.5 62q277 0 490 -172l-221 -272q-127 92 -269 92q-175 0 -300.5 -125.5t-125.5 -298.5
q0 -177 125.5 -302.5t300.5 -125.5q131 0 238.5 69t161.5 187h-238zM623 1786q0 86 59.5 144.5t146.5 58.5q86 0 144.5 -58.5t58.5 -144.5q0 -87 -58.5 -147t-144.5 -60t-146 60.5t-60 146.5z" />
    <glyph glyph-name="gdotaccent" unicode="&#x121;" 
d="M991 559v346h598q19 -108 19 -174q0 -212 -105 -392t-284 -284t-390 -104q-158 0 -302.5 61.5t-249 166t-166.5 249t-62 303.5q0 157 62 300.5t166.5 247.5t249 166t302.5 62q277 0 490 -172l-221 -272q-127 92 -269 92q-175 0 -300.5 -125.5t-125.5 -298.5
q0 -177 125.5 -302.5t300.5 -125.5q131 0 238.5 69t161.5 187h-238zM623 1786q0 86 59.5 144.5t146.5 58.5q86 0 144.5 -58.5t58.5 -144.5q0 -87 -58.5 -147t-144.5 -60t-146 60.5t-60 146.5z" />
    <glyph glyph-name="Gcommaaccent" unicode="&#x122;" 
d="M991 559v346h598q19 -108 19 -174q0 -212 -105 -392t-284 -284t-390 -104q-158 0 -302.5 61.5t-249 166t-166.5 249t-62 303.5q0 157 62 300.5t166.5 247.5t249 166t302.5 62q277 0 490 -172l-221 -272q-127 92 -269 92q-175 0 -300.5 -125.5t-125.5 -298.5
q0 -177 125.5 -302.5t300.5 -125.5q131 0 238.5 69t161.5 187h-238zM823 -94q96 0 156.5 -82.5t60.5 -206.5q0 -215 -211 -399l-159 176q65 58 116 127q-72 -3 -121 47t-49 127q0 88 60 149.5t147 61.5z" />
    <glyph glyph-name="gcommaaccent" unicode="&#x123;" 
d="M991 559v346h598q19 -108 19 -174q0 -212 -105 -392t-284 -284t-390 -104q-158 0 -302.5 61.5t-249 166t-166.5 249t-62 303.5q0 157 62 300.5t166.5 247.5t249 166t302.5 62q277 0 490 -172l-221 -272q-127 92 -269 92q-175 0 -300.5 -125.5t-125.5 -298.5
q0 -177 125.5 -302.5t300.5 -125.5q131 0 238.5 69t161.5 187h-238zM823 -94q96 0 156.5 -82.5t60.5 -206.5q0 -215 -211 -399l-159 176q65 58 116 127q-72 -3 -121 47t-49 127q0 88 60 149.5t147 61.5z" />
    <glyph glyph-name="Hcircumflex" unicode="&#x124;" horiz-adv-x="1624" 
d="M135 0v1458h352v-551h650v551h352v-1458h-352v559h-650v-559h-352zM811 1776l-307 -244l-160 211l467 352l473 -352l-156 -213z" />
    <glyph glyph-name="hcircumflex" unicode="&#x125;" horiz-adv-x="1624" 
d="M135 0v1458h352v-551h650v551h352v-1458h-352v559h-650v-559h-352zM811 1776l-307 -244l-160 211l467 352l473 -352l-156 -213z" />
    <glyph glyph-name="Hbar" unicode="&#x126;" horiz-adv-x="1634" 
d="M16 981v326h125v151h353v-151h649v151h352v-151h123v-326h-123v-981h-352v549h-649v-549h-353v981h-125zM494 889h649v92h-649v-92z" />
    <glyph glyph-name="hbar" unicode="&#x127;" horiz-adv-x="1634" 
d="M16 981v326h125v151h353v-151h649v151h352v-151h123v-326h-123v-981h-352v549h-649v-549h-353v981h-125zM494 889h649v92h-649v-92z" />
    <glyph glyph-name="Itilde" unicode="&#x128;" horiz-adv-x="622" 
d="M135 0v1458h352v-1458h-352zM-25 1579l-204 150q81 115 179 194.5t202 79.5q60 0 109 -17.5t78.5 -42.5t52.5 -50t44.5 -42.5t42.5 -17.5q30 0 69.5 35t104.5 121l207 -150q-197 -274 -377 -274q-60 0 -108.5 18t-78 43.5t-53 51t-46 43.5t-43.5 18q-31 0 -72.5 -36
t-106.5 -124z" />
    <glyph glyph-name="itilde" unicode="&#x129;" horiz-adv-x="622" 
d="M135 0v1458h352v-1458h-352zM-25 1579l-204 150q81 115 179 194.5t202 79.5q60 0 109 -17.5t78.5 -42.5t52.5 -50t44.5 -42.5t42.5 -17.5q30 0 69.5 35t104.5 121l207 -150q-197 -274 -377 -274q-60 0 -108.5 18t-78 43.5t-53 51t-46 43.5t-43.5 18q-31 0 -72.5 -36
t-106.5 -124z" />
    <glyph glyph-name="Imacron" unicode="&#x12a;" horiz-adv-x="622" 
d="M135 0v1458h352v-1458h-352zM-104 1602v278h827v-278h-827z" />
    <glyph glyph-name="imacron" unicode="&#x12b;" horiz-adv-x="622" 
d="M135 0v1458h352v-1458h-352zM-104 1602v278h827v-278h-827z" />
    <glyph glyph-name="Ibreve" unicode="&#x12c;" horiz-adv-x="622" 
d="M135 0v1458h352v-1458h-352zM-190 1933l243 125q18 -35 45.5 -73t62.5 -75t75.5 -61t76.5 -24q41 0 86 28.5t79 69.5t57 75.5t34 57.5l246 -121q-36 -72 -87 -138t-115 -122t-142.5 -89.5t-157.5 -33.5q-83 0 -163.5 35t-144 93t-112.5 122t-83 131z" />
    <glyph glyph-name="ibreve" unicode="&#x12d;" horiz-adv-x="622" 
d="M135 0v1458h352v-1458h-352zM-190 1933l243 125q18 -35 45.5 -73t62.5 -75t75.5 -61t76.5 -24q41 0 86 28.5t79 69.5t57 75.5t34 57.5l246 -121q-36 -72 -87 -138t-115 -122t-142.5 -89.5t-157.5 -33.5q-83 0 -163.5 35t-144 93t-112.5 122t-83 131z" />
    <glyph glyph-name="Iogonek" unicode="&#x12e;" horiz-adv-x="622" 
d="M487 1458v-1458q-227 -112 -227 -178q0 -43 62 -43q56 0 138.5 29t129.5 59l104 -221q-186 -109 -360 -109q-151 0 -246.5 74t-95.5 176q0 127 143 250v1421h352z" />
    <glyph glyph-name="iogonek" unicode="&#x12f;" horiz-adv-x="622" 
d="M487 1458v-1458q-227 -112 -227 -178q0 -43 62 -43q56 0 138.5 29t129.5 59l104 -221q-186 -109 -360 -109q-151 0 -246.5 74t-95.5 176q0 127 143 250v1421h352z" />
    <glyph glyph-name="Idotaccent" unicode="&#x130;" horiz-adv-x="622" 
d="M135 0v1458h352v-1458h-352zM104 1786q0 86 60 144.5t147 58.5q86 0 144.5 -58.5t58.5 -144.5q0 -87 -58.5 -147t-144.5 -60t-146.5 60.5t-60.5 146.5z" />
    <glyph glyph-name="dotlessi" unicode="&#x131;" horiz-adv-x="622" 
d="M135 0v1458h352v-1458h-352z" />
    <glyph glyph-name="Jcircumflex" unicode="&#x134;" horiz-adv-x="1241" 
d="M-10 135l237 256q41 -41 98 -64.5t119 -23.5q133 0 224.5 86t91.5 213v856h352v-860q0 -180 -89 -329t-242.5 -233.5t-336.5 -84.5q-131 0 -248 48t-206 136zM932 1776l-307 -244l-160 211l467 352l473 -352l-156 -213z" />
    <glyph glyph-name="jcircumflex" unicode="&#x135;" horiz-adv-x="1241" 
d="M-10 135l237 256q41 -41 98 -64.5t119 -23.5q133 0 224.5 86t91.5 213v856h352v-860q0 -180 -89 -329t-242.5 -233.5t-336.5 -84.5q-131 0 -248 48t-206 136zM932 1776l-307 -244l-160 211l467 352l473 -352l-156 -213z" />
    <glyph glyph-name="Kcommaaccent" unicode="&#x136;" horiz-adv-x="1609" 
d="M135 0v1458h352v-756l625 756h459l-604 -727l604 -731h-459l-379 453l-246 -289v-164h-352zM766 -94q96 0 156.5 -82.5t60.5 -206.5q0 -215 -211 -399l-160 176q68 61 117 127q-72 -3 -121 47t-49 127q0 88 60 149.5t147 61.5z" />
    <glyph glyph-name="kcommaaccent" unicode="&#x137;" horiz-adv-x="1609" 
d="M135 0v1458h352v-756l625 756h459l-604 -727l604 -731h-459l-379 453l-246 -289v-164h-352zM766 -94q96 0 156.5 -82.5t60.5 -206.5q0 -215 -211 -399l-160 176q68 61 117 127q-72 -3 -121 47t-49 127q0 88 60 149.5t147 61.5z" />
    <glyph glyph-name="Lacute" unicode="&#x139;" horiz-adv-x="1404" 
d="M135 0v1458h352v-1110h836v-348h-1188zM664 1864l-404 -334l-178 194l389 355z" />
    <glyph glyph-name="lacute" unicode="&#x13a;" horiz-adv-x="1404" 
d="M135 0v1458h352v-1110h836v-348h-1188zM664 1864l-404 -334l-178 194l389 355z" />
    <glyph glyph-name="Lcommaaccent" unicode="&#x13b;" horiz-adv-x="1404" 
d="M135 0v1458h352v-1110h836v-348h-1188zM696 -94q96 0 156.5 -82.5t60.5 -206.5q0 -215 -211 -399l-159 176q65 58 116 127q-72 -3 -121 47t-49 127q0 88 60 149.5t147 61.5z" />
    <glyph glyph-name="lcommaaccent" unicode="&#x13c;" horiz-adv-x="1404" 
d="M135 0v1458h352v-1110h836v-348h-1188zM696 -94q96 0 156.5 -82.5t60.5 -206.5q0 -215 -211 -399l-159 176q65 58 116 127q-72 -3 -121 47t-49 127q0 88 60 149.5t147 61.5z" />
    <glyph glyph-name="Lcaron" unicode="&#x13d;" horiz-adv-x="1404" 
d="M811 1507q94 0 152.5 -75.5t58.5 -190.5q0 -133 -78.5 -243.5t-210.5 -190.5l-129 199q82 50 152 120q-69 4 -111.5 53t-42.5 115q0 86 59 149.5t150 63.5zM135 0v1458h352v-1110h836v-348h-1188z" />
    <glyph glyph-name="lcaron" unicode="&#x13e;" horiz-adv-x="1404" 
d="M811 1507q94 0 152.5 -75.5t58.5 -190.5q0 -133 -78.5 -243.5t-210.5 -190.5l-129 199q82 50 152 120q-69 4 -111.5 53t-42.5 115q0 86 59 149.5t150 63.5zM135 0v1458h352v-1110h836v-348h-1188z" />
    <glyph glyph-name="Ldot" unicode="&#x13f;" horiz-adv-x="1404" 
d="M657 729q0 86 60 144.5t147 58.5q86 0 144.5 -58.5t58.5 -144.5q0 -87 -58.5 -147t-144.5 -60t-146.5 60.5t-60.5 146.5zM135 0v1458h352v-1110h836v-348h-1188z" />
    <glyph glyph-name="ldot" unicode="&#x140;" horiz-adv-x="1404" 
d="M657 729q0 86 60 144.5t147 58.5q86 0 144.5 -58.5t58.5 -144.5q0 -87 -58.5 -147t-144.5 -60t-146.5 60.5t-60.5 146.5zM135 0v1458h352v-1110h836v-348h-1188z" />
    <glyph glyph-name="Lslash" unicode="&#x141;" horiz-adv-x="1445" 
d="M94 385l-108 311l190 66v696h352v-575l250 86l109 -312l-359 -125v-184h836v-348h-1188v412z" />
    <glyph glyph-name="lslash" unicode="&#x142;" horiz-adv-x="1445" 
d="M94 385l-108 311l190 66v696h352v-575l250 86l109 -312l-359 -125v-184h836v-348h-1188v412z" />
    <glyph glyph-name="Nacute" unicode="&#x143;" horiz-adv-x="1652" 
d="M135 0v1458h365l665 -901v901h353v-1458h-363l-668 899v-899h-352zM1180 1864l-404 -334l-178 194l389 355z" />
    <glyph glyph-name="nacute" unicode="&#x144;" horiz-adv-x="1652" 
d="M135 0v1458h365l665 -901v901h353v-1458h-363l-668 899v-899h-352zM1180 1864l-404 -334l-178 194l389 355z" />
    <glyph glyph-name="Ncommaaccent" unicode="&#x145;" horiz-adv-x="1652" 
d="M135 0v1458h365l665 -901v901h353v-1458h-363l-668 899v-899h-352zM821 -94q96 0 156.5 -82.5t60.5 -206.5q0 -215 -211 -399l-159 176q65 58 116 127q-72 -3 -121 47t-49 127q0 88 60 149.5t147 61.5z" />
    <glyph glyph-name="ncommaaccent" unicode="&#x146;" horiz-adv-x="1652" 
d="M135 0v1458h365l665 -901v901h353v-1458h-363l-668 899v-899h-352zM821 -94q96 0 156.5 -82.5t60.5 -206.5q0 -215 -211 -399l-159 176q65 58 116 127q-72 -3 -121 47t-49 127q0 88 60 149.5t147 61.5z" />
    <glyph glyph-name="Ncaron" unicode="&#x147;" horiz-adv-x="1652" 
d="M135 0v1458h365l665 -901v901h353v-1458h-363l-668 899v-899h-352zM825 1534l-467 352l160 211l307 -244l318 246l155 -213z" />
    <glyph glyph-name="ncaron" unicode="&#x148;" horiz-adv-x="1652" 
d="M135 0v1458h365l665 -901v901h353v-1458h-363l-668 899v-899h-352zM825 1534l-467 352l160 211l307 -244l318 246l155 -213z" />
    <glyph glyph-name="Eng" unicode="&#x14a;" horiz-adv-x="1648" 
d="M135 0v1458h363l667 -899v899h353v-1169q0 -176 -87.5 -321.5t-237.5 -228.5t-329 -83q-128 0 -242 47.5t-202 132.5l231 250q41 -39 97 -62.5t116 -23.5q134 0 226 86l-603 809v-895h-352z" />
    <glyph glyph-name="eng" unicode="&#x14b;" horiz-adv-x="1648" 
d="M135 0v1458h363l667 -899v899h353v-1169q0 -176 -87.5 -321.5t-237.5 -228.5t-329 -83q-128 0 -242 47.5t-202 132.5l231 250q41 -39 97 -62.5t116 -23.5q134 0 226 86l-603 809v-895h-352z" />
    <glyph glyph-name="Omacron" unicode="&#x14c;" 
d="M1253 731q0 174 -124 299t-300 125q-175 0 -300.5 -125.5t-125.5 -298.5q0 -177 125.5 -302.5t300.5 -125.5q177 0 300.5 125.5t123.5 302.5zM49 731q0 157 62 300.5t166.5 247.5t249 166t302.5 62t302 -62t248.5 -166t166.5 -247.5t62 -300.5q0 -212 -105 -392
t-284 -284t-390 -104q-158 0 -302.5 61.5t-249 166t-166.5 249t-62 303.5zM414 1602v278h827v-278h-827z" />
    <glyph glyph-name="omacron" unicode="&#x14d;" 
d="M1253 731q0 174 -124 299t-300 125q-175 0 -300.5 -125.5t-125.5 -298.5q0 -177 125.5 -302.5t300.5 -125.5q177 0 300.5 125.5t123.5 302.5zM49 731q0 157 62 300.5t166.5 247.5t249 166t302.5 62t302 -62t248.5 -166t166.5 -247.5t62 -300.5q0 -212 -105 -392
t-284 -284t-390 -104q-158 0 -302.5 61.5t-249 166t-166.5 249t-62 303.5zM414 1602v278h827v-278h-827z" />
    <glyph glyph-name="Obreve" unicode="&#x14e;" 
d="M1253 731q0 174 -124 299t-300 125q-175 0 -300.5 -125.5t-125.5 -298.5q0 -177 125.5 -302.5t300.5 -125.5q177 0 300.5 125.5t123.5 302.5zM49 731q0 157 62 300.5t166.5 247.5t249 166t302.5 62t302 -62t248.5 -166t166.5 -247.5t62 -300.5q0 -212 -105 -392
t-284 -284t-390 -104q-158 0 -302.5 61.5t-249 166t-166.5 249t-62 303.5zM328 1933l243 125q18 -35 45.5 -73t62.5 -75t75.5 -61t76.5 -24q41 0 86 28.5t79 69.5t57 75.5t34 57.5l246 -121q-36 -72 -87 -138t-115 -122t-142.5 -89.5t-157.5 -33.5q-83 0 -163.5 35t-144 93
t-112.5 122t-83 131z" />
    <glyph glyph-name="obreve" unicode="&#x14f;" 
d="M1253 731q0 174 -124 299t-300 125q-175 0 -300.5 -125.5t-125.5 -298.5q0 -177 125.5 -302.5t300.5 -125.5q177 0 300.5 125.5t123.5 302.5zM49 731q0 157 62 300.5t166.5 247.5t249 166t302.5 62t302 -62t248.5 -166t166.5 -247.5t62 -300.5q0 -212 -105 -392
t-284 -284t-390 -104q-158 0 -302.5 61.5t-249 166t-166.5 249t-62 303.5zM328 1933l243 125q18 -35 45.5 -73t62.5 -75t75.5 -61t76.5 -24q41 0 86 28.5t79 69.5t57 75.5t34 57.5l246 -121q-36 -72 -87 -138t-115 -122t-142.5 -89.5t-157.5 -33.5q-83 0 -163.5 35t-144 93
t-112.5 122t-83 131z" />
    <glyph glyph-name="Ohungarumlaut" unicode="&#x150;" 
d="M1253 731q0 174 -124 299t-300 125q-175 0 -300.5 -125.5t-125.5 -298.5q0 -177 125.5 -302.5t300.5 -125.5q177 0 300.5 125.5t123.5 302.5zM49 731q0 157 62 300.5t166.5 247.5t249 166t302.5 62t302 -62t248.5 -166t166.5 -247.5t62 -300.5q0 -212 -105 -392
t-284 -284t-390 -104q-158 0 -302.5 61.5t-249 166t-166.5 249t-62 303.5zM639 1530l-207 141l301 430l225 -157zM1055 1530l-207 141l301 430l225 -157z" />
    <glyph glyph-name="ohungarumlaut" unicode="&#x151;" 
d="M1253 731q0 174 -124 299t-300 125q-175 0 -300.5 -125.5t-125.5 -298.5q0 -177 125.5 -302.5t300.5 -125.5q177 0 300.5 125.5t123.5 302.5zM49 731q0 157 62 300.5t166.5 247.5t249 166t302.5 62t302 -62t248.5 -166t166.5 -247.5t62 -300.5q0 -212 -105 -392
t-284 -284t-390 -104q-158 0 -302.5 61.5t-249 166t-166.5 249t-62 303.5zM639 1530l-207 141l301 430l225 -157zM1055 1530l-207 141l301 430l225 -157z" />
    <glyph glyph-name="OE" unicode="&#x152;" horiz-adv-x="2355" 
d="M1444 348h825v-348h-1167q-128 -49 -273 -49q-158 0 -302.5 61.5t-249 166t-166.5 249t-62 303.5q0 157 62 300.5t166.5 247.5t249 166t302.5 62q137 0 273 -49h1167v-346h-825v-207h586v-342h-586v-215zM1090 395v670q-111 90 -261 90q-175 0 -300.5 -125.5
t-125.5 -298.5q0 -177 125.5 -302.5t300.5 -125.5q148 0 261 92z" />
    <glyph glyph-name="oe" unicode="&#x153;" horiz-adv-x="2355" 
d="M1444 348h825v-348h-1167q-128 -49 -273 -49q-158 0 -302.5 61.5t-249 166t-166.5 249t-62 303.5q0 157 62 300.5t166.5 247.5t249 166t302.5 62q137 0 273 -49h1167v-346h-825v-207h586v-342h-586v-215zM1090 395v670q-111 90 -261 90q-175 0 -300.5 -125.5
t-125.5 -298.5q0 -177 125.5 -302.5t300.5 -125.5q148 0 261 92z" />
    <glyph glyph-name="Racute" unicode="&#x154;" horiz-adv-x="1519" 
d="M135 0v1458h680q168 0 313 -76.5t232.5 -212.5t87.5 -299q0 -146 -70.5 -270t-191.5 -209l274 -391h-432l-197 281h-344v-281h-352zM487 627h324q121 0 203 72t82 171q0 97 -87 169.5t-208 72.5h-314v-485zM1133 1866l-404 -334l-178 194l389 355z" />
    <glyph glyph-name="racute" unicode="&#x155;" horiz-adv-x="1519" 
d="M135 0v1458h680q168 0 313 -76.5t232.5 -212.5t87.5 -299q0 -146 -70.5 -270t-191.5 -209l274 -391h-432l-197 281h-344v-281h-352zM487 627h324q121 0 203 72t82 171q0 97 -87 169.5t-208 72.5h-314v-485zM1133 1866l-404 -334l-178 194l389 355z" />
    <glyph glyph-name="Rcommaaccent" unicode="&#x156;" horiz-adv-x="1519" 
d="M135 0v1458h680q168 0 313 -76.5t232.5 -212.5t87.5 -299q0 -146 -70.5 -270t-191.5 -209l274 -391h-432l-197 281h-344v-281h-352zM487 627h324q121 0 203 72t82 171q0 97 -87 169.5t-208 72.5h-314v-485zM739 -94q96 0 156.5 -82.5t60.5 -206.5q0 -215 -211 -399
l-159 176q65 58 116 127q-72 -3 -121 47t-49 127q0 88 60 149.5t147 61.5z" />
    <glyph glyph-name="rcommaaccent" unicode="&#x157;" horiz-adv-x="1519" 
d="M135 0v1458h680q168 0 313 -76.5t232.5 -212.5t87.5 -299q0 -146 -70.5 -270t-191.5 -209l274 -391h-432l-197 281h-344v-281h-352zM487 627h324q121 0 203 72t82 171q0 97 -87 169.5t-208 72.5h-314v-485zM739 -94q96 0 156.5 -82.5t60.5 -206.5q0 -215 -211 -399
l-159 176q65 58 116 127q-72 -3 -121 47t-49 127q0 88 60 149.5t147 61.5z" />
    <glyph glyph-name="Rcaron" unicode="&#x158;" horiz-adv-x="1519" 
d="M135 0v1458h680q168 0 313 -76.5t232.5 -212.5t87.5 -299q0 -146 -70.5 -270t-191.5 -209l274 -391h-432l-197 281h-344v-281h-352zM487 627h324q121 0 203 72t82 171q0 97 -87 169.5t-208 72.5h-314v-485zM766 1536l-467 352l160 211l307 -244l317 246l156 -213z" />
    <glyph glyph-name="rcaron" unicode="&#x159;" horiz-adv-x="1519" 
d="M135 0v1458h680q168 0 313 -76.5t232.5 -212.5t87.5 -299q0 -146 -70.5 -270t-191.5 -209l274 -391h-432l-197 281h-344v-281h-352zM487 627h324q121 0 203 72t82 171q0 97 -87 169.5t-208 72.5h-314v-485zM766 1536l-467 352l160 211l307 -244l317 246l156 -213z" />
    <glyph glyph-name="Sacute" unicode="&#x15a;" horiz-adv-x="1439" 
d="M49 221l215 293q295 -211 524 -211q102 0 167 30t65 70q0 34 -32 61t-86.5 47t-125.5 39t-149 40.5t-156 46.5t-149 62t-125.5 83t-86.5 113t-32 149q0 93 42 177.5t116.5 147.5t184.5 100.5t238 37.5q316 0 664 -225l-197 -299q-274 174 -485 174q-91 0 -149 -29.5
t-58 -68.5q0 -23 32 -42.5t86.5 -36t125.5 -34t149 -40t156 -50.5t149 -69.5t125.5 -92.5t86.5 -124t32 -160q0 -92 -44 -175.5t-121.5 -146.5t-191 -100t-243.5 -37q-346 0 -727 270zM1044 1864l-403 -334l-178 194l389 355z" />
    <glyph glyph-name="sacute" unicode="&#x15b;" horiz-adv-x="1439" 
d="M49 221l215 293q295 -211 524 -211q102 0 167 30t65 70q0 34 -32 61t-86.5 47t-125.5 39t-149 40.5t-156 46.5t-149 62t-125.5 83t-86.5 113t-32 149q0 93 42 177.5t116.5 147.5t184.5 100.5t238 37.5q316 0 664 -225l-197 -299q-274 174 -485 174q-91 0 -149 -29.5
t-58 -68.5q0 -23 32 -42.5t86.5 -36t125.5 -34t149 -40t156 -50.5t149 -69.5t125.5 -92.5t86.5 -124t32 -160q0 -92 -44 -175.5t-121.5 -146.5t-191 -100t-243.5 -37q-346 0 -727 270zM1044 1864l-403 -334l-178 194l389 355z" />
    <glyph glyph-name="Scircumflex" unicode="&#x15c;" horiz-adv-x="1439" 
d="M49 221l215 293q295 -211 524 -211q102 0 167 30t65 70q0 34 -32 61t-86.5 47t-125.5 39t-149 40.5t-156 46.5t-149 62t-125.5 83t-86.5 113t-32 149q0 93 42 177.5t116.5 147.5t184.5 100.5t238 37.5q316 0 664 -225l-197 -299q-274 174 -485 174q-91 0 -149 -29.5
t-58 -68.5q0 -23 32 -42.5t86.5 -36t125.5 -34t149 -40t156 -50.5t149 -69.5t125.5 -92.5t86.5 -124t32 -160q0 -92 -44 -175.5t-121.5 -146.5t-191 -100t-243.5 -37q-346 0 -727 270zM690 1776l-307 -244l-160 211l467 352l473 -352l-155 -213z" />
    <glyph glyph-name="scircumflex" unicode="&#x15d;" horiz-adv-x="1439" 
d="M49 221l215 293q295 -211 524 -211q102 0 167 30t65 70q0 34 -32 61t-86.5 47t-125.5 39t-149 40.5t-156 46.5t-149 62t-125.5 83t-86.5 113t-32 149q0 93 42 177.5t116.5 147.5t184.5 100.5t238 37.5q316 0 664 -225l-197 -299q-274 174 -485 174q-91 0 -149 -29.5
t-58 -68.5q0 -23 32 -42.5t86.5 -36t125.5 -34t149 -40t156 -50.5t149 -69.5t125.5 -92.5t86.5 -124t32 -160q0 -92 -44 -175.5t-121.5 -146.5t-191 -100t-243.5 -37q-346 0 -727 270zM690 1776l-307 -244l-160 211l467 352l473 -352l-155 -213z" />
    <glyph glyph-name="Scedilla" unicode="&#x15e;" horiz-adv-x="1439" 
d="M49 221l215 293q295 -211 524 -211q102 0 167 30t65 70q0 34 -32 61t-86.5 47t-125.5 39t-149 40.5t-156 46.5t-149 62t-125.5 83t-86.5 113t-32 149q0 93 42 177.5t116.5 147.5t184.5 100.5t238 37.5q316 0 664 -225l-197 -299q-274 174 -485 174q-91 0 -149 -29.5
t-58 -68.5q0 -23 32 -42.5t86.5 -36t125.5 -34t149 -40t156 -50.5t149 -69.5t125.5 -92.5t86.5 -124t32 -160q0 -92 -44 -175t-122 -145t-191 -98.5t-243 -36.5q-352 0 -727 266zM367 -559l86 197q99 -44 198 -44q92 0 141.5 17.5t49.5 42.5t-44.5 43t-105.5 18
q-64 0 -129 -24l-71 180q90 43 210 43q93 0 172 -25.5t132 -84t53 -140.5q0 -119 -110.5 -204t-297.5 -85q-138 0 -284 66z" />
    <glyph glyph-name="scedilla" unicode="&#x15f;" horiz-adv-x="1439" 
d="M49 221l215 293q295 -211 524 -211q102 0 167 30t65 70q0 34 -32 61t-86.5 47t-125.5 39t-149 40.5t-156 46.5t-149 62t-125.5 83t-86.5 113t-32 149q0 93 42 177.5t116.5 147.5t184.5 100.5t238 37.5q316 0 664 -225l-197 -299q-274 174 -485 174q-91 0 -149 -29.5
t-58 -68.5q0 -23 32 -42.5t86.5 -36t125.5 -34t149 -40t156 -50.5t149 -69.5t125.5 -92.5t86.5 -124t32 -160q0 -92 -44 -175t-122 -145t-191 -98.5t-243 -36.5q-352 0 -727 266zM367 -559l86 197q99 -44 198 -44q92 0 141.5 17.5t49.5 42.5t-44.5 43t-105.5 18
q-64 0 -129 -24l-71 180q90 43 210 43q93 0 172 -25.5t132 -84t53 -140.5q0 -119 -110.5 -204t-297.5 -85q-138 0 -284 66z" />
    <glyph glyph-name="Scaron" unicode="&#x160;" horiz-adv-x="1439" 
d="M49 221l215 293q295 -211 524 -211q102 0 167 30t65 70q0 34 -32 61t-86.5 47t-125.5 39t-149 40.5t-156 46.5t-149 62t-125.5 83t-86.5 113t-32 149q0 93 42 177.5t116.5 147.5t184.5 100.5t238 37.5q316 0 664 -225l-197 -299q-274 174 -485 174q-91 0 -149 -29.5
t-58 -68.5q0 -23 32 -42.5t86.5 -36t125.5 -34t149 -40t156 -50.5t149 -69.5t125.5 -92.5t86.5 -124t32 -160q0 -92 -44 -175.5t-121.5 -146.5t-191 -100t-243.5 -37q-346 0 -727 270zM690 1534l-467 352l160 211l307 -244l318 246l155 -213z" />
    <glyph glyph-name="scaron" unicode="&#x161;" horiz-adv-x="1439" 
d="M49 221l215 293q295 -211 524 -211q102 0 167 30t65 70q0 34 -32 61t-86.5 47t-125.5 39t-149 40.5t-156 46.5t-149 62t-125.5 83t-86.5 113t-32 149q0 93 42 177.5t116.5 147.5t184.5 100.5t238 37.5q316 0 664 -225l-197 -299q-274 174 -485 174q-91 0 -149 -29.5
t-58 -68.5q0 -23 32 -42.5t86.5 -36t125.5 -34t149 -40t156 -50.5t149 -69.5t125.5 -92.5t86.5 -124t32 -160q0 -92 -44 -175.5t-121.5 -146.5t-191 -100t-243.5 -37q-346 0 -727 270zM690 1534l-467 352l160 211l307 -244l318 246l155 -213z" />
    <glyph glyph-name="Tcommaaccent" unicode="&#x162;" horiz-adv-x="1458" 
d="M557 0v1110h-500v348h1348v-348h-496v-1110h-352zM408 -559l86 197q99 -44 198 -44q92 0 141.5 17.5t49.5 42.5t-44.5 43t-105.5 18q-65 0 -129 -24l-72 180q90 43 211 43q93 0 172 -25.5t132 -84t53 -140.5q0 -119 -110.5 -204t-297.5 -85q-138 0 -284 66z" />
    <glyph glyph-name="tcommaaccent" unicode="&#x163;" horiz-adv-x="1458" 
d="M557 0v1110h-500v348h1348v-348h-496v-1110h-352zM408 -559l86 197q99 -44 198 -44q92 0 141.5 17.5t49.5 42.5t-44.5 43t-105.5 18q-65 0 -129 -24l-72 180q90 43 211 43q93 0 172 -25.5t132 -84t53 -140.5q0 -119 -110.5 -204t-297.5 -85q-138 0 -284 66z" />
    <glyph glyph-name="Tcaron" unicode="&#x164;" horiz-adv-x="1458" 
d="M557 0v1110h-500v348h1348v-348h-496v-1110h-352zM731 1534l-467 352l160 211l307 -244l318 246l155 -213z" />
    <glyph glyph-name="tcaron" unicode="&#x165;" horiz-adv-x="1458" 
d="M557 0v1110h-500v348h1348v-348h-496v-1110h-352zM731 1534l-467 352l160 211l307 -244l318 246l155 -213z" />
    <glyph glyph-name="Tbar" unicode="&#x166;" horiz-adv-x="1456" 
d="M295 535v331h260v244h-500v348h1348v-348h-496v-244h258v-331h-258v-535h-352v535h-260z" />
    <glyph glyph-name="tbar" unicode="&#x167;" horiz-adv-x="1456" 
d="M295 535v331h260v244h-500v348h1348v-348h-496v-244h258v-331h-258v-535h-352v535h-260z" />
    <glyph glyph-name="Utilde" unicode="&#x168;" horiz-adv-x="1607" 
d="M129 616v842h352v-842q0 -130 95 -221.5t229 -91.5t227.5 91.5t93.5 221.5v842h353v-842q0 -138 -53.5 -261.5t-144 -212t-215 -140t-261.5 -51.5t-262 51.5t-215.5 140t-144.5 212t-54 261.5zM469 1579l-205 150q81 115 179 194.5t202 79.5q60 0 109 -17.5t78.5 -42.5
t53 -50t45 -42.5t42.5 -17.5q30 0 69.5 35t104.5 121l207 -150q-197 -274 -377 -274q-60 0 -108.5 18t-78.5 43.5t-53.5 51t-46 43.5t-43.5 18q-30 0 -71.5 -36t-106.5 -124z" />
    <glyph glyph-name="utilde" unicode="&#x169;" horiz-adv-x="1607" 
d="M129 616v842h352v-842q0 -130 95 -221.5t229 -91.5t227.5 91.5t93.5 221.5v842h353v-842q0 -138 -53.5 -261.5t-144 -212t-215 -140t-261.5 -51.5t-262 51.5t-215.5 140t-144.5 212t-54 261.5zM469 1579l-205 150q81 115 179 194.5t202 79.5q60 0 109 -17.5t78.5 -42.5
t53 -50t45 -42.5t42.5 -17.5q30 0 69.5 35t104.5 121l207 -150q-197 -274 -377 -274q-60 0 -108.5 18t-78.5 43.5t-53.5 51t-46 43.5t-43.5 18q-30 0 -71.5 -36t-106.5 -124z" />
    <glyph glyph-name="Umacron" unicode="&#x16a;" horiz-adv-x="1607" 
d="M129 616v842h352v-842q0 -130 95 -221.5t229 -91.5t227.5 91.5t93.5 221.5v842h353v-842q0 -138 -53.5 -261.5t-144 -212t-215 -140t-261.5 -51.5t-262 51.5t-215.5 140t-144.5 212t-54 261.5zM389 1602v278h828v-278h-828z" />
    <glyph glyph-name="umacron" unicode="&#x16b;" horiz-adv-x="1607" 
d="M129 616v842h352v-842q0 -130 95 -221.5t229 -91.5t227.5 91.5t93.5 221.5v842h353v-842q0 -138 -53.5 -261.5t-144 -212t-215 -140t-261.5 -51.5t-262 51.5t-215.5 140t-144.5 212t-54 261.5zM389 1602v278h828v-278h-828z" />
    <glyph glyph-name="Ubreve" unicode="&#x16c;" horiz-adv-x="1607" 
d="M129 616v842h352v-842q0 -130 95 -221.5t229 -91.5t227.5 91.5t93.5 221.5v842h353v-842q0 -138 -53.5 -261.5t-144 -212t-215 -140t-261.5 -51.5t-262 51.5t-215.5 140t-144.5 212t-54 261.5zM303 1933l244 125q18 -35 45.5 -73t62.5 -75t75.5 -61t76.5 -24
q41 0 86 28.5t79 69.5t57 75.5t34 57.5l246 -121q-36 -72 -87 -138t-115 -122t-142.5 -89.5t-157.5 -33.5q-83 0 -163.5 35t-144.5 93t-113.5 122t-82.5 131z" />
    <glyph glyph-name="ubreve" unicode="&#x16d;" horiz-adv-x="1607" 
d="M129 616v842h352v-842q0 -130 95 -221.5t229 -91.5t227.5 91.5t93.5 221.5v842h353v-842q0 -138 -53.5 -261.5t-144 -212t-215 -140t-261.5 -51.5t-262 51.5t-215.5 140t-144.5 212t-54 261.5zM303 1933l244 125q18 -35 45.5 -73t62.5 -75t75.5 -61t76.5 -24
q41 0 86 28.5t79 69.5t57 75.5t34 57.5l246 -121q-36 -72 -87 -138t-115 -122t-142.5 -89.5t-157.5 -33.5q-83 0 -163.5 35t-144.5 93t-113.5 122t-82.5 131z" />
    <glyph glyph-name="Uring" unicode="&#x16e;" horiz-adv-x="1607" 
d="M129 616v842h352v-842q0 -130 95 -221.5t229 -91.5t227.5 91.5t93.5 221.5v842h353v-842q0 -138 -53.5 -261.5t-144 -212t-215 -140t-261.5 -51.5t-262 51.5t-215.5 140t-144.5 212t-54 261.5zM510 1825q0 123 86 208t209 85q122 0 207.5 -85t85.5 -208
q0 -120 -85.5 -204.5t-207.5 -84.5q-123 0 -209 84.5t-86 204.5zM717 1825q0 -35 25.5 -60.5t62.5 -25.5q33 0 61.5 26t28.5 60t-28.5 60t-61.5 26q-37 0 -62.5 -25.5t-25.5 -60.5z" />
    <glyph glyph-name="uring" unicode="&#x16f;" horiz-adv-x="1607" 
d="M129 616v842h352v-842q0 -130 95 -221.5t229 -91.5t227.5 91.5t93.5 221.5v842h353v-842q0 -138 -53.5 -261.5t-144 -212t-215 -140t-261.5 -51.5t-262 51.5t-215.5 140t-144.5 212t-54 261.5zM510 1825q0 123 86 208t209 85q122 0 207.5 -85t85.5 -208
q0 -120 -85.5 -204.5t-207.5 -84.5q-123 0 -209 84.5t-86 204.5zM717 1825q0 -35 25.5 -60.5t62.5 -25.5q33 0 61.5 26t28.5 60t-28.5 60t-61.5 26q-37 0 -62.5 -25.5t-25.5 -60.5z" />
    <glyph glyph-name="Uhungarumlaut" unicode="&#x170;" horiz-adv-x="1607" 
d="M129 616v842h352v-842q0 -130 95 -221.5t229 -91.5t227.5 91.5t93.5 221.5v842h353v-842q0 -138 -53.5 -261.5t-144 -212t-215 -140t-261.5 -51.5t-262 51.5t-215.5 140t-144.5 212t-54 261.5zM614 1530l-206 141l301 430l225 -157zM1030 1530l-207 141l301 430l226 -157
z" />
    <glyph glyph-name="uhungarumlaut" unicode="&#x171;" horiz-adv-x="1607" 
d="M129 616v842h352v-842q0 -130 95 -221.5t229 -91.5t227.5 91.5t93.5 221.5v842h353v-842q0 -138 -53.5 -261.5t-144 -212t-215 -140t-261.5 -51.5t-262 51.5t-215.5 140t-144.5 212t-54 261.5zM614 1530l-206 141l301 430l225 -157zM1030 1530l-207 141l301 430l226 -157
z" />
    <glyph glyph-name="Uogonek" unicode="&#x172;" horiz-adv-x="1607" 
d="M129 616v842h352v-842q0 -130 95 -221.5t229 -91.5t227.5 91.5t93.5 221.5v842h353v-842q0 -130 -48 -248t-130 -204.5t-195 -141.5t-240 -67q-137 -81 -137 -133q0 -43 62 -43q56 0 138.5 29t129.5 59l104 -221q-186 -109 -360 -109q-151 0 -246.5 74t-95.5 176
q0 105 98 209q-191 72 -310.5 239.5t-119.5 380.5z" />
    <glyph glyph-name="uogonek" unicode="&#x173;" horiz-adv-x="1607" 
d="M129 616v842h352v-842q0 -130 95 -221.5t229 -91.5t227.5 91.5t93.5 221.5v842h353v-842q0 -129 -47 -246t-128.5 -203.5t-193 -142.5t-236.5 -69q-58 -32 -98.5 -67.5t-40.5 -65.5q0 -43 62 -43q56 0 138.5 29t129.5 59l104 -221q-186 -109 -360 -109q-151 0 -246.5 74
t-95.5 176q0 103 98 207q-194 72 -315 240t-121 382z" />
    <glyph glyph-name="Wcircumflex" unicode="&#x174;" horiz-adv-x="2148" 
d="M2148 1458l-508 -1458h-374l-191 881l-192 -881h-375l-508 1458h375l299 -872l205 872h391l205 -872l301 872h372zM1075 1776l-307 -244l-160 211l467 352l473 -352l-155 -213z" />
    <glyph glyph-name="wcircumflex" unicode="&#x175;" horiz-adv-x="2148" 
d="M2148 1458l-508 -1458h-374l-191 881l-192 -881h-375l-508 1458h375l299 -872l205 872h391l205 -872l301 872h372zM1075 1776l-307 -244l-160 211l467 352l473 -352l-155 -213z" />
    <glyph glyph-name="Ycircumflex" unicode="&#x176;" horiz-adv-x="1460" 
d="M553 0v352l-553 1106h399l332 -702l332 702h397l-555 -1106v-352h-352zM731 1776l-307 -244l-160 211l467 352l473 -352l-155 -213z" />
    <glyph glyph-name="ycircumflex" unicode="&#x177;" horiz-adv-x="1460" 
d="M553 0v352l-553 1106h399l332 -702l332 702h397l-555 -1106v-352h-352zM731 1776l-307 -244l-160 211l467 352l473 -352l-155 -213z" />
    <glyph glyph-name="Ydieresis" unicode="&#x178;" horiz-adv-x="1460" 
d="M553 0v352l-553 1106h399l332 -702l332 702h397l-555 -1106v-352h-352zM784 1786q0 86 61 144.5t146 58.5q84 0 144.5 -59t60.5 -144q0 -86 -60.5 -146.5t-144.5 -60.5q-85 0 -146 60.5t-61 146.5zM272 1786q0 86 60 144.5t147 58.5q86 0 144.5 -58.5t58.5 -144.5
q0 -87 -58.5 -147t-144.5 -60t-146.5 60.5t-60.5 146.5z" />
    <glyph glyph-name="Zacute" unicode="&#x179;" horiz-adv-x="1468" 
d="M115 0v362l755 744h-755v352h1239v-364l-756 -744h756v-350h-1239zM1087 1864l-403 -334l-178 194l389 355z" />
    <glyph glyph-name="zacute" unicode="&#x17a;" horiz-adv-x="1468" 
d="M115 0v362l755 744h-755v352h1239v-364l-756 -744h756v-350h-1239zM1087 1864l-403 -334l-178 194l389 355z" />
    <glyph glyph-name="Zdotaccent" unicode="&#x17b;" horiz-adv-x="1468" 
d="M115 0v362l755 744h-755v352h1239v-364l-756 -744h756v-350h-1239zM526 1786q0 86 60 144.5t147 58.5q86 0 144.5 -58.5t58.5 -144.5q0 -87 -58.5 -147t-144.5 -60t-146.5 60.5t-60.5 146.5z" />
    <glyph glyph-name="zdotaccent" unicode="&#x17c;" horiz-adv-x="1468" 
d="M115 0v362l755 744h-755v352h1239v-364l-756 -744h756v-350h-1239zM526 1786q0 86 60 144.5t147 58.5q86 0 144.5 -58.5t58.5 -144.5q0 -87 -58.5 -147t-144.5 -60t-146.5 60.5t-60.5 146.5z" />
    <glyph glyph-name="Zcaron" unicode="&#x17d;" horiz-adv-x="1468" 
d="M115 0v362l755 744h-755v352h1239v-364l-756 -744h756v-350h-1239zM733 1534l-467 352l160 211l307 -244l318 246l155 -213z" />
    <glyph glyph-name="zcaron" unicode="&#x17e;" horiz-adv-x="1468" 
d="M115 0v362l755 744h-755v352h1239v-364l-756 -744h756v-350h-1239zM733 1534l-467 352l160 211l307 -244l318 246l155 -213z" />
    <glyph glyph-name="Gcaron" unicode="&#x1e6;" 
d="M991 559v346h598q19 -108 19 -174q0 -212 -105 -392t-284 -284t-390 -104q-158 0 -302.5 61.5t-249 166t-166.5 249t-62 303.5q0 157 62 300.5t166.5 247.5t249 166t302.5 62q277 0 490 -172l-221 -272q-127 92 -269 92q-175 0 -300.5 -125.5t-125.5 -298.5
q0 -177 125.5 -302.5t300.5 -125.5q131 0 238.5 69t161.5 187h-238zM827 1534l-467 352l160 211l307 -244l318 246l155 -213z" />
    <glyph glyph-name="gcaron" unicode="&#x1e7;" 
d="M991 559v346h598q19 -108 19 -174q0 -212 -105 -392t-284 -284t-390 -104q-158 0 -302.5 61.5t-249 166t-166.5 249t-62 303.5q0 157 62 300.5t166.5 247.5t249 166t302.5 62q277 0 490 -172l-221 -272q-127 92 -269 92q-175 0 -300.5 -125.5t-125.5 -298.5
q0 -177 125.5 -302.5t300.5 -125.5q131 0 238.5 69t161.5 187h-238zM827 1534l-467 352l160 211l307 -244l318 246l155 -213z" />
    <glyph glyph-name="uni01EA" unicode="&#x1ea;" 
d="M49 731q0 157 62 300.5t166.5 247.5t249 166t302.5 62t302 -62t248.5 -166t166.5 -247.5t62 -300.5q0 -149 -54.5 -286t-148 -238.5t-222 -168t-272.5 -81.5q-141 -81 -141 -135q0 -43 61 -43q56 0 139 29t130 59l104 -221q-186 -109 -360 -109q-151 0 -246.5 74
t-95.5 176q0 101 92 201q-239 74 -392 279t-153 464zM1253 731q0 174 -124 299t-300 125q-175 0 -300.5 -125.5t-125.5 -298.5q0 -177 125.5 -302.5t300.5 -125.5q177 0 300.5 125.5t123.5 302.5z" />
    <glyph glyph-name="uni01EB" unicode="&#x1eb;" 
d="M49 731q0 157 62 300.5t166.5 247.5t249 166t302.5 62t302 -62t248.5 -166t166.5 -247.5t62 -300.5q0 -149 -54.5 -286t-148 -238.5t-222 -168t-272.5 -81.5q-141 -81 -141 -135q0 -43 61 -43q56 0 139 29t130 59l104 -221q-186 -109 -360 -109q-151 0 -246.5 74
t-95.5 176q0 101 92 201q-239 74 -392 279t-153 464zM1253 731q0 174 -124 299t-300 125q-175 0 -300.5 -125.5t-125.5 -298.5q0 -177 125.5 -302.5t300.5 -125.5q177 0 300.5 125.5t123.5 302.5z" />
    <glyph glyph-name="AEacute" unicode="&#x1fc;" horiz-adv-x="2334" 
d="M0 0l895 1458h1354v-346h-828v-207h588v-342h-588v-215h828v-348h-1174v152h-573l-92 -152h-410zM696 481h379v649zM1776 1864l-404 -334l-178 194l389 355z" />
    <glyph glyph-name="aeacute" unicode="&#x1fd;" horiz-adv-x="2334" 
d="M0 0l895 1458h1354v-346h-828v-207h588v-342h-588v-215h828v-348h-1174v152h-573l-92 -152h-410zM696 481h379v649zM1776 1864l-404 -334l-178 194l389 355z" />
    <glyph glyph-name="Oslashacute" unicode="&#x1fe;" 
d="M1184 1864l-404 -334l-178 194l389 355zM829 303q177 0 300.5 125.5t123.5 302.5q0 97 -36.5 179.5t-102.5 140.5l-287 -748h2zM829 1155q-175 0 -300.5 -125.5t-125.5 -298.5q0 -99 38 -183t106 -142l289 749h-7zM352 -102l66 172q-168 107 -268.5 281.5t-100.5 379.5
q0 155 61 298t163 246.5t243 165.5t295 62q51 0 150 -16l30 74h318l-68 -175q168 -107 267.5 -280t99.5 -375q0 -157 -60.5 -300t-162.5 -247t-242.5 -165.5t-294.5 -61.5q-72 0 -146 16l-28 -75h-322z" />
    <glyph glyph-name="oslashacute" unicode="&#x1ff;" 
d="M1184 1864l-404 -334l-178 194l389 355zM829 303q177 0 300.5 125.5t123.5 302.5q0 97 -36.5 179.5t-102.5 140.5l-287 -748h2zM829 1155q-175 0 -300.5 -125.5t-125.5 -298.5q0 -99 38 -183t106 -142l289 749h-7zM352 -102l66 172q-168 107 -268.5 281.5t-100.5 379.5
q0 155 61 298t163 246.5t243 165.5t295 62q51 0 150 -16l30 74h318l-68 -175q168 -107 267.5 -280t99.5 -375q0 -157 -60.5 -300t-162.5 -247t-242.5 -165.5t-294.5 -61.5q-72 0 -146 16l-28 -75h-322z" />
    <glyph glyph-name="Scommaaccent" unicode="&#x218;" horiz-adv-x="1439" 
d="M49 221l215 293q295 -211 524 -211q102 0 167 30t65 70q0 34 -32 61t-86.5 47t-125.5 39t-149 40.5t-156 46.5t-149 62t-125.5 83t-86.5 113t-32 149q0 93 42 177.5t116.5 147.5t184.5 100.5t238 37.5q316 0 664 -225l-197 -299q-274 174 -485 174q-91 0 -149 -29.5
t-58 -68.5q0 -23 32 -42.5t86.5 -36t125.5 -34t149 -40t156 -50.5t149 -69.5t125.5 -92.5t86.5 -124t32 -160q0 -92 -44 -175.5t-121.5 -146.5t-191 -100t-243.5 -37q-346 0 -727 270zM686 -94q96 0 156.5 -82.5t60.5 -206.5q0 -215 -211 -399l-160 176q68 61 117 127
q-72 -3 -121 47t-49 127q0 88 60 149.5t147 61.5z" />
    <glyph glyph-name="scommaaccent" unicode="&#x219;" horiz-adv-x="1439" 
d="M49 221l215 293q295 -211 524 -211q102 0 167 30t65 70q0 34 -32 61t-86.5 47t-125.5 39t-149 40.5t-156 46.5t-149 62t-125.5 83t-86.5 113t-32 149q0 93 42 177.5t116.5 147.5t184.5 100.5t238 37.5q316 0 664 -225l-197 -299q-274 174 -485 174q-91 0 -149 -29.5
t-58 -68.5q0 -23 32 -42.5t86.5 -36t125.5 -34t149 -40t156 -50.5t149 -69.5t125.5 -92.5t86.5 -124t32 -160q0 -92 -44 -175.5t-121.5 -146.5t-191 -100t-243.5 -37q-346 0 -727 270zM686 -94q96 0 156.5 -82.5t60.5 -206.5q0 -215 -211 -399l-160 176q68 61 117 127
q-72 -3 -121 47t-49 127q0 88 60 149.5t147 61.5z" />
    <glyph glyph-name="uni021A" unicode="&#x21a;" horiz-adv-x="1458" 
d="M557 0v1110h-500v348h1348v-348h-496v-1110h-352zM727 -94q96 0 156.5 -82.5t60.5 -206.5q0 -215 -211 -399l-160 176q68 61 117 127q-72 -3 -121 47t-49 127q0 88 60 149.5t147 61.5z" />
    <glyph glyph-name="uni021B" unicode="&#x21b;" horiz-adv-x="1458" 
d="M557 0v1110h-500v348h1348v-348h-496v-1110h-352zM727 -94q96 0 156.5 -82.5t60.5 -206.5q0 -215 -211 -399l-160 176q68 61 117 127q-72 -3 -121 47t-49 127q0 88 60 149.5t147 61.5z" />
    <glyph glyph-name="uni0232" unicode="&#x232;" horiz-adv-x="1460" 
d="M553 0v352l-553 1106h399l332 -702l332 702h397l-555 -1106v-352h-352zM317 1602v278h828v-278h-828z" />
    <glyph glyph-name="uni0233" unicode="&#x233;" horiz-adv-x="1460" 
d="M553 0v352l-553 1106h399l332 -702l332 702h397l-555 -1106v-352h-352zM317 1602v278h828v-278h-828z" />
    <glyph glyph-name="circumflex" unicode="&#x2c6;" horiz-adv-x="1017" 
d="M506 1776l-307 -244l-160 211l467 352l473 -352l-156 -213z" />
    <glyph glyph-name="caron" unicode="&#x2c7;" horiz-adv-x="1017" 
d="M506 1534l-467 352l160 211l307 -244l317 246l156 -213z" />
    <glyph glyph-name="breve" unicode="&#x2d8;" horiz-adv-x="1083" 
d="M39 1933l244 125q18 -35 45.5 -73t62.5 -75t75.5 -61t76.5 -24q41 0 86 28.5t79 69.5t57 75.5t34 57.5l245 -121q-36 -72 -87 -138t-114.5 -122t-142 -89.5t-157.5 -33.5q-83 0 -163.5 35t-144.5 93t-113.5 122t-82.5 131z" />
    <glyph glyph-name="dotaccent" unicode="&#x2d9;" horiz-adv-x="487" 
d="M39 1786q0 86 60 144.5t147 58.5q86 0 144.5 -58.5t58.5 -144.5q0 -87 -58.5 -147t-144.5 -60t-146.5 60.5t-60.5 146.5z" />
    <glyph glyph-name="ring" unicode="&#x2da;" horiz-adv-x="665" 
d="M39 1825q0 123 86 208t209 85q122 0 207.5 -85t85.5 -208q0 -120 -85.5 -204.5t-207.5 -84.5q-123 0 -209 84.5t-86 204.5zM246 1825q0 -35 25.5 -60.5t62.5 -25.5q33 0 61.5 26t28.5 60t-28.5 60t-61.5 26q-37 0 -62.5 -25.5t-25.5 -60.5z" />
    <glyph glyph-name="ogonek" unicode="&#x2db;" horiz-adv-x="780" 
d="M215 66l320 -66q-228 -112 -228 -178q0 -43 62 -43q56 0 138.5 29t129.5 59l104 -221q-186 -109 -360 -109q-151 0 -246.5 74t-95.5 176q0 138 176 279z" />
    <glyph glyph-name="tilde" unicode="&#x2dc;" horiz-adv-x="1167" 
d="M244 1579l-205 150q81 115 179 194.5t202 79.5q60 0 109 -17.5t78.5 -42.5t53 -50t45 -42.5t42.5 -17.5q30 0 69.5 35t104.5 121l206 -150q-197 -274 -376 -274q-60 0 -108.5 18t-78.5 43.5t-53.5 51t-46 43.5t-43.5 18q-30 0 -71.5 -36t-106.5 -124z" />
    <glyph glyph-name="hungarumlaut" unicode="&#x2dd;" horiz-adv-x="1019" 
d="M246 1530l-207 141l301 430l225 -157zM662 1530l-207 141l301 430l225 -157z" />
    <glyph glyph-name="tonos" unicode="&#x384;" horiz-adv-x="389" 
d="M33 979v528h356l-78 -528h-278z" />
    <glyph glyph-name="Alphatonos" unicode="&#x386;" horiz-adv-x="1652" 
d="M33 0l645 1458h328l647 -1458h-385l-68 152h-719l-63 -152h-385zM111 979v528h356l-78 -528h-278zM623 485h438l-219 541z" />
    <glyph glyph-name="Epsilontonos" unicode="&#x388;" horiz-adv-x="1734" 
d="M33 979v528h356l-80 -528h-276zM459 0v1458h1190v-346h-838v-207h598v-342h-598v-215h838v-348h-1190z" />
    <glyph glyph-name="Etatonos" unicode="&#x389;" horiz-adv-x="1947" 
d="M33 979v528h356l-80 -528h-276zM459 0v1458h352v-551h649v551h352v-1458h-352v559h-649v-559h-352z" />
    <glyph glyph-name="Iotatonos" unicode="&#x38a;" horiz-adv-x="948" 
d="M459 0v1458h354v-1458h-354zM33 979v528h356l-80 -528h-276z" />
    <glyph glyph-name="Omicrontonos" unicode="&#x38c;" horiz-adv-x="1953" 
d="M1550 731q0 174 -124 299t-300 125q-116 0 -214.5 -57.5t-156 -155t-57.5 -211.5q0 -177 125.5 -302.5t302.5 -125.5t300.5 125.5t123.5 302.5zM346 731q0 157 61.5 300.5t166 247.5t249 166t303.5 62q158 0 301.5 -62t248 -166t166 -247.5t61.5 -300.5
q0 -159 -61.5 -303.5t-166 -249t-248 -166t-301.5 -61.5q-159 0 -303.5 61.5t-249 166t-166 249t-61.5 303.5zM33 979v528h356l-80 -528h-276z" />
    <glyph glyph-name="Upsilontonos" unicode="&#x38e;" horiz-adv-x="1888" 
d="M979 0v352l-551 1106h399l330 -702l332 702h399l-555 -1112v-346h-354zM33 979v528h356l-80 -528h-276z" />
    <glyph glyph-name="Omegatonos" unicode="&#x38f;" horiz-adv-x="2017" 
d="M1051 0h-729v338h213q-183 169 -183 432q0 136 55 267.5t152.5 236t244.5 169t318 64.5t318 -64.5t244.5 -169t152.5 -236t55 -267.5q0 -264 -182 -432h215v-338h-731v338q171 69 258.5 180.5t87.5 237.5q0 101 -50.5 191.5t-148 149t-219.5 58.5q-91 0 -170.5 -34.5
t-132 -90.5t-82.5 -127.5t-30 -146.5q0 -126 87 -237.5t257 -180.5v-338zM33 979v528h356l-80 -528h-276z" />
    <glyph glyph-name="Alpha" unicode="&#x391;" horiz-adv-x="1622" 
d="M0 0l645 1458h328l649 -1458h-385l-70 152h-718l-64 -152h-385zM590 485h440l-221 541z" />
    <glyph glyph-name="Beta" unicode="&#x392;" horiz-adv-x="1474" 
d="M135 0v1458h774q186 0 319.5 -133t133.5 -319q0 -156 -115 -263q146 -105 146 -290q0 -187 -132.5 -320t-320.5 -133h-805zM487 350h447q44 0 75 33t31 78q0 46 -31 79t-75 33h-447v-223zM487 889h410q46 0 78.5 30t32.5 74q0 46 -33 80.5t-78 34.5h-410v-219z" />
    <glyph glyph-name="Gamma" unicode="&#x393;" horiz-adv-x="1343" 
d="M135 0v1458h1145v-346h-793v-1112h-352z" />
    <glyph glyph-name="uni0394" unicode="&#x394;" horiz-adv-x="1599" 
d="M494 344h610l-303 705zM975 1458l561 -1233v-225h-1473v225l560 1233h352z" />
    <glyph glyph-name="Epsilon" unicode="&#x395;" horiz-adv-x="1411" 
d="M135 0v1458h1190v-346h-838v-207h598v-342h-598v-215h838v-348h-1190z" />
    <glyph glyph-name="Zeta" unicode="&#x396;" horiz-adv-x="1468" 
d="M115 0v362l755 744h-755v352h1239v-364l-756 -744h756v-350h-1239z" />
    <glyph glyph-name="Eta" unicode="&#x397;" horiz-adv-x="1624" 
d="M135 0v1458h352v-551h650v551h352v-1458h-352v559h-650v-559h-352z" />
    <glyph glyph-name="Theta" unicode="&#x398;" 
d="M49 731q0 157 62 300.5t166.5 247.5t249 166t302.5 62t302 -62t248.5 -166t166.5 -247.5t62 -300.5q0 -212 -105 -392t-284 -284t-390 -104q-158 0 -302.5 61.5t-249 166t-166.5 249t-62 303.5zM829 295q177 0 302.5 128t125.5 308q0 174 -126 300t-302 126
q-178 0 -306 -126t-128 -300q0 -118 58.5 -218.5t158.5 -159t217 -58.5zM526 557v342h602v-342h-602z" />
    <glyph glyph-name="Iota" unicode="&#x399;" horiz-adv-x="622" 
d="M135 0v1458h352v-1458h-352z" />
    <glyph glyph-name="Kappa" unicode="&#x39a;" horiz-adv-x="1564" 
d="M135 0v1458h352v-553h230l377 553h428l-500 -727l500 -731h-428l-375 553h-232v-553h-352z" />
    <glyph glyph-name="Lambda" unicode="&#x39b;" horiz-adv-x="1622" 
d="M0 0l641 1458h336l645 -1458h-393l-420 1006l-418 -1006h-391z" />
    <glyph glyph-name="Mu" unicode="&#x39c;" horiz-adv-x="1994" 
d="M135 0v1458h447l415 -966l418 966h445v-1458h-353v858l-356 -858h-307l-357 848v-848h-352z" />
    <glyph glyph-name="Nu" unicode="&#x39d;" horiz-adv-x="1652" 
d="M135 0v1458h365l665 -901v901h353v-1458h-363l-668 899v-899h-352z" />
    <glyph glyph-name="Xi" unicode="&#x39e;" horiz-adv-x="1357" 
d="M84 0v348h1190v-348h-1190zM84 1110v348h1190v-348h-1190zM250 559v348h858v-348h-858z" />
    <glyph glyph-name="Omicron" unicode="&#x39f;" 
d="M1253 731q0 174 -124 299t-300 125q-175 0 -300.5 -125.5t-125.5 -298.5q0 -177 125.5 -302.5t300.5 -125.5q177 0 300.5 125.5t123.5 302.5zM49 731q0 157 62 300.5t166.5 247.5t249 166t302.5 62t302 -62t248.5 -166t166.5 -247.5t62 -300.5q0 -212 -105 -392
t-284 -284t-390 -104q-158 0 -302.5 61.5t-249 166t-166.5 249t-62 303.5z" />
    <glyph glyph-name="Pi" unicode="&#x3a0;" horiz-adv-x="1617" 
d="M135 0v1458h1348v-1458h-353v1108h-643v-1108h-352z" />
    <glyph glyph-name="Rho" unicode="&#x3a1;" horiz-adv-x="1492" 
d="M135 0v1458h674q168 0 313 -76.5t232.5 -212.5t87.5 -299q0 -122 -51 -231.5t-137 -187.5t-202.5 -124t-242.5 -46h-322v-281h-352zM487 627h318q121 0 203 72t82 171q0 97 -87 169.5t-208 72.5h-308v-485z" />
    <glyph glyph-name="Sigma" unicode="&#x3a3;" horiz-adv-x="1443" 
d="M111 0v367l389 360l-389 363v368h1224v-352h-741l403 -379l-403 -377h741v-350h-1224z" />
    <glyph glyph-name="Tau" unicode="&#x3a4;" horiz-adv-x="1454" 
d="M553 0v1110h-500v348h1348v-348h-496v-1110h-352z" />
    <glyph glyph-name="Upsilon" unicode="&#x3a5;" horiz-adv-x="1460" 
d="M553 0v352l-553 1106h399l332 -702l332 702h397l-555 -1106v-352h-352z" />
    <glyph glyph-name="Phi" unicode="&#x3a6;" horiz-adv-x="1796" 
d="M723 0v131q-311 43 -495.5 226t-184.5 452q0 203 107 362t301.5 247.5t445.5 88.5q252 0 447 -88.5t302 -247.5t107 -362q0 -269 -184.5 -452t-495.5 -226v-131h-350zM723 477v674q-153 -32 -247.5 -117.5t-94.5 -224.5q0 -72 26.5 -129.5t74.5 -97t107.5 -65.5
t133.5 -40zM1073 1151v-674q152 31 247 112.5t95 219.5q0 71 -27 130.5t-75.5 100.5t-108 68.5t-131.5 42.5z" />
    <glyph glyph-name="Chi" unicode="&#x3a7;" horiz-adv-x="1583" 
d="M20 0l549 731l-544 727h442l324 -438l325 438h440l-544 -727l549 -731h-443l-327 442l-328 -442h-443z" />
    <glyph glyph-name="Psi" unicode="&#x3a8;" horiz-adv-x="1853" 
d="M1104 0h-352v164q-180 41 -324.5 153.5t-227.5 279.5t-83 357v504h354v-504q0 -144 76.5 -260t204.5 -170v934h352v-930q127 51 202.5 166.5t75.5 259.5v504h353v-504q0 -190 -82.5 -357t-226 -279.5t-322.5 -153.5v-164z" />
    <glyph glyph-name="uni03A9" unicode="&#x3a9;" horiz-adv-x="1787" 
d="M823 0h-731v338h215q-182 168 -182 432q0 136 55 267.5t152.5 236t244.5 169t318 64.5q170 0 317 -64.5t244.5 -169t153 -236t55.5 -267.5q0 -261 -182 -432h213v-338h-729v338q169 70 256.5 181.5t87.5 236.5q0 101 -50.5 191.5t-147.5 149t-218 58.5
q-122 0 -219.5 -58.5t-148 -149t-50.5 -191.5q0 -126 87.5 -237.5t258.5 -180.5v-338z" />
    <glyph glyph-name="Iotadieresis" unicode="&#x3aa;" horiz-adv-x="622" 
d="M135 0v1458h352v-1458h-352zM365 1786q0 86 60.5 144.5t145.5 58.5q84 0 144.5 -59t60.5 -144q0 -86 -60.5 -146.5t-144.5 -60.5q-85 0 -145.5 60.5t-60.5 146.5zM-147 1786q0 86 59.5 144.5t146.5 58.5q86 0 144.5 -58.5t58.5 -144.5q0 -87 -58.5 -147t-144.5 -60
t-146 60.5t-60 146.5z" />
    <glyph glyph-name="Upsilondieresis" unicode="&#x3ab;" horiz-adv-x="1460" 
d="M553 0v352l-553 1106h399l332 -702l332 702h397l-555 -1106v-352h-352zM784 1786q0 86 61 144.5t146 58.5q84 0 144.5 -59t60.5 -144q0 -86 -60.5 -146.5t-144.5 -60.5q-85 0 -146 60.5t-61 146.5zM272 1786q0 86 60 144.5t147 58.5q86 0 144.5 -58.5t58.5 -144.5
q0 -87 -58.5 -147t-144.5 -60t-146.5 60.5t-60.5 146.5z" />
    <glyph glyph-name="alphatonos" unicode="&#x3ac;" horiz-adv-x="1652" 
d="M33 0l645 1458h328l647 -1458h-385l-68 152h-719l-63 -152h-385zM111 979v528h356l-78 -528h-278zM623 485h438l-219 541z" />
    <glyph glyph-name="epsilontonos" unicode="&#x3ad;" horiz-adv-x="1734" 
d="M33 979v528h356l-80 -528h-276zM459 0v1458h1190v-346h-838v-207h598v-342h-598v-215h838v-348h-1190z" />
    <glyph glyph-name="etatonos" unicode="&#x3ae;" horiz-adv-x="1947" 
d="M33 979v528h356l-80 -528h-276zM459 0v1458h352v-551h649v551h352v-1458h-352v559h-649v-559h-352z" />
    <glyph glyph-name="iotatonos" unicode="&#x3af;" horiz-adv-x="948" 
d="M459 0v1458h354v-1458h-354zM33 979v528h356l-80 -528h-276z" />
    <glyph glyph-name="alpha" unicode="&#x3b1;" horiz-adv-x="1622" 
d="M0 0l645 1458h328l649 -1458h-385l-70 152h-718l-64 -152h-385zM590 485h440l-221 541z" />
    <glyph glyph-name="beta" unicode="&#x3b2;" horiz-adv-x="1474" 
d="M135 0v1458h774q186 0 319.5 -133t133.5 -319q0 -156 -115 -263q146 -105 146 -290q0 -187 -132.5 -320t-320.5 -133h-805zM487 350h447q44 0 75 33t31 78q0 46 -31 79t-75 33h-447v-223zM487 889h410q46 0 78.5 30t32.5 74q0 46 -33 80.5t-78 34.5h-410v-219z" />
    <glyph glyph-name="gamma" unicode="&#x3b3;" horiz-adv-x="1343" 
d="M135 0v1458h1145v-346h-793v-1112h-352z" />
    <glyph glyph-name="delta" unicode="&#x3b4;" horiz-adv-x="1599" 
d="M494 344h610l-303 705zM975 1458l561 -1233v-225h-1473v225l560 1233h352z" />
    <glyph glyph-name="epsilon" unicode="&#x3b5;" horiz-adv-x="1411" 
d="M135 0v1458h1190v-346h-838v-207h598v-342h-598v-215h838v-348h-1190z" />
    <glyph glyph-name="zeta" unicode="&#x3b6;" horiz-adv-x="1468" 
d="M115 0v362l755 744h-755v352h1239v-364l-756 -744h756v-350h-1239z" />
    <glyph glyph-name="eta" unicode="&#x3b7;" horiz-adv-x="1624" 
d="M135 0v1458h352v-551h650v551h352v-1458h-352v559h-650v-559h-352z" />
    <glyph glyph-name="theta" unicode="&#x3b8;" 
d="M49 731q0 157 62 300.5t166.5 247.5t249 166t302.5 62t302 -62t248.5 -166t166.5 -247.5t62 -300.5q0 -212 -105 -392t-284 -284t-390 -104q-158 0 -302.5 61.5t-249 166t-166.5 249t-62 303.5zM829 295q177 0 302.5 128t125.5 308q0 174 -126 300t-302 126
q-178 0 -306 -126t-128 -300q0 -118 58.5 -218.5t158.5 -159t217 -58.5zM526 557v342h602v-342h-602z" />
    <glyph glyph-name="iota" unicode="&#x3b9;" horiz-adv-x="622" 
d="M135 0v1458h352v-1458h-352z" />
    <glyph glyph-name="kappa" unicode="&#x3ba;" horiz-adv-x="1564" 
d="M135 0v1458h352v-553h230l377 553h428l-500 -727l500 -731h-428l-375 553h-232v-553h-352z" />
    <glyph glyph-name="lambda" unicode="&#x3bb;" horiz-adv-x="1622" 
d="M0 0l641 1458h336l645 -1458h-393l-420 1006l-418 -1006h-391z" />
    <glyph glyph-name="uni03BC" unicode="&#x3bc;" horiz-adv-x="1994" 
d="M135 0v1458h447l415 -966l418 966h445v-1458h-353v858l-356 -858h-307l-357 848v-848h-352z" />
    <glyph glyph-name="nu" unicode="&#x3bd;" horiz-adv-x="1652" 
d="M135 0v1458h365l665 -901v901h353v-1458h-363l-668 899v-899h-352z" />
    <glyph glyph-name="xi" unicode="&#x3be;" horiz-adv-x="1357" 
d="M84 0v348h1190v-348h-1190zM84 1110v348h1190v-348h-1190zM250 559v348h858v-348h-858z" />
    <glyph glyph-name="omicron" unicode="&#x3bf;" 
d="M1253 731q0 174 -124 299t-300 125q-175 0 -300.5 -125.5t-125.5 -298.5q0 -177 125.5 -302.5t300.5 -125.5q177 0 300.5 125.5t123.5 302.5zM49 731q0 157 62 300.5t166.5 247.5t249 166t302.5 62t302 -62t248.5 -166t166.5 -247.5t62 -300.5q0 -212 -105 -392
t-284 -284t-390 -104q-158 0 -302.5 61.5t-249 166t-166.5 249t-62 303.5z" />
    <glyph glyph-name="pi" unicode="&#x3c0;" horiz-adv-x="1617" 
d="M135 0v1458h1348v-1458h-353v1108h-643v-1108h-352z" />
    <glyph glyph-name="rho" unicode="&#x3c1;" horiz-adv-x="1492" 
d="M135 0v1458h674q168 0 313 -76.5t232.5 -212.5t87.5 -299q0 -122 -51 -231.5t-137 -187.5t-202.5 -124t-242.5 -46h-322v-281h-352zM487 627h318q121 0 203 72t82 171q0 97 -87 169.5t-208 72.5h-308v-485z" />
    <glyph glyph-name="uni03C2" unicode="&#x3c2;" horiz-adv-x="1443" 
d="M111 0v367l389 360l-389 363v368h1224v-352h-741l403 -379l-403 -377h741v-350h-1224z" />
    <glyph glyph-name="sigma" unicode="&#x3c3;" horiz-adv-x="1443" 
d="M111 0v367l389 360l-389 363v368h1224v-352h-741l403 -379l-403 -377h741v-350h-1224z" />
    <glyph glyph-name="tau" unicode="&#x3c4;" horiz-adv-x="1458" 
d="M557 0v1110h-500v348h1348v-348h-496v-1110h-352z" />
    <glyph glyph-name="upsilon" unicode="&#x3c5;" horiz-adv-x="1460" 
d="M553 0v352l-553 1106h399l332 -702l332 702h397l-555 -1106v-352h-352z" />
    <glyph glyph-name="phi" unicode="&#x3c6;" horiz-adv-x="1796" 
d="M723 0v131q-311 43 -495.5 226t-184.5 452q0 203 107 362t301.5 247.5t445.5 88.5q252 0 447 -88.5t302 -247.5t107 -362q0 -269 -184.5 -452t-495.5 -226v-131h-350zM723 477v674q-153 -32 -247.5 -117.5t-94.5 -224.5q0 -72 26.5 -129.5t74.5 -97t107.5 -65.5
t133.5 -40zM1073 1151v-674q152 31 247 112.5t95 219.5q0 71 -27 130.5t-75.5 100.5t-108 68.5t-131.5 42.5z" />
    <glyph glyph-name="chi" unicode="&#x3c7;" horiz-adv-x="1583" 
d="M20 0l549 731l-544 727h442l324 -438l325 438h440l-544 -727l549 -731h-443l-327 442l-328 -442h-443z" />
    <glyph glyph-name="psi" unicode="&#x3c8;" horiz-adv-x="1853" 
d="M1104 0h-352v164q-180 41 -324.5 153.5t-227.5 279.5t-83 357v504h354v-504q0 -144 76.5 -260t204.5 -170v934h352v-930q127 51 202.5 166.5t75.5 259.5v504h353v-504q0 -190 -82.5 -357t-226 -279.5t-322.5 -153.5v-164z" />
    <glyph glyph-name="omega" unicode="&#x3c9;" horiz-adv-x="1787" 
d="M823 0h-731v338h215q-182 168 -182 432q0 136 55 267.5t152.5 236t244.5 169t318 64.5q170 0 317 -64.5t244.5 -169t153 -236t55.5 -267.5q0 -261 -182 -432h213v-338h-729v338q169 70 256.5 181.5t87.5 236.5q0 101 -50.5 191.5t-147.5 149t-218 58.5
q-122 0 -219.5 -58.5t-148 -149t-50.5 -191.5q0 -126 87.5 -237.5t258.5 -180.5v-338z" />
    <glyph glyph-name="iotadieresis" unicode="&#x3ca;" horiz-adv-x="622" 
d="M135 0v1458h352v-1458h-352zM365 1786q0 86 60.5 144.5t145.5 58.5q84 0 144.5 -59t60.5 -144q0 -86 -60.5 -146.5t-144.5 -60.5q-85 0 -145.5 60.5t-60.5 146.5zM-147 1786q0 86 59.5 144.5t146.5 58.5q86 0 144.5 -58.5t58.5 -144.5q0 -87 -58.5 -147t-144.5 -60
t-146 60.5t-60 146.5z" />
    <glyph glyph-name="upsilondieresis" unicode="&#x3cb;" horiz-adv-x="1460" 
d="M553 0v352l-553 1106h399l332 -702l332 702h397l-555 -1106v-352h-352zM784 1786q0 86 61 144.5t146 58.5q84 0 144.5 -59t60.5 -144q0 -86 -60.5 -146.5t-144.5 -60.5q-85 0 -146 60.5t-61 146.5zM272 1786q0 86 60 144.5t147 58.5q86 0 144.5 -58.5t58.5 -144.5
q0 -87 -58.5 -147t-144.5 -60t-146.5 60.5t-60.5 146.5z" />
    <glyph glyph-name="omicrontonos" unicode="&#x3cc;" horiz-adv-x="1953" 
d="M1550 731q0 174 -124 299t-300 125q-116 0 -214.5 -57.5t-156 -155t-57.5 -211.5q0 -177 125.5 -302.5t302.5 -125.5t300.5 125.5t123.5 302.5zM346 731q0 157 61.5 300.5t166 247.5t249 166t303.5 62q158 0 301.5 -62t248 -166t166 -247.5t61.5 -300.5
q0 -159 -61.5 -303.5t-166 -249t-248 -166t-301.5 -61.5q-159 0 -303.5 61.5t-249 166t-166 249t-61.5 303.5zM33 979v528h356l-80 -528h-276z" />
    <glyph glyph-name="upsilontonos" unicode="&#x3cd;" horiz-adv-x="1888" 
d="M979 0v352l-551 1106h399l330 -702l332 702h399l-555 -1112v-346h-354zM33 979v528h356l-80 -528h-276z" />
    <glyph glyph-name="omegatonos" unicode="&#x3ce;" horiz-adv-x="2017" 
d="M1051 0h-729v338h213q-183 169 -183 432q0 136 55 267.5t152.5 236t244.5 169t318 64.5t318 -64.5t244.5 -169t152.5 -236t55 -267.5q0 -264 -182 -432h215v-338h-731v338q171 69 258.5 180.5t87.5 237.5q0 101 -50.5 191.5t-148 149t-219.5 58.5q-91 0 -170.5 -34.5
t-132 -90.5t-82.5 -127.5t-30 -146.5q0 -126 87 -237.5t257 -180.5v-338zM33 979v528h356l-80 -528h-276z" />
    <glyph glyph-name="uni0401" unicode="&#x401;" horiz-adv-x="1411" 
d="M135 0v1458h1190v-346h-838v-207h598v-342h-598v-215h838v-348h-1190zM782 1761q0 86 61 144.5t146 58.5q84 0 144.5 -59t60.5 -144q0 -86 -60.5 -146.5t-144.5 -60.5q-85 0 -146 60.5t-61 146.5zM270 1761q0 86 60 144.5t147 58.5q86 0 144.5 -58.5t58.5 -144.5
q0 -87 -58.5 -147t-144.5 -60t-146.5 60.5t-60.5 146.5z" />
    <glyph glyph-name="uni0402" unicode="&#x402;" horiz-adv-x="1796" 
d="M524 0v1112h-481v346h1315v-346h-481v-211q162 92 309 92q133 0 242.5 -43t177.5 -114t104.5 -158.5t36.5 -181.5q0 -76 -21 -146.5t-67 -135.5t-113.5 -113t-167.5 -76.5t-221 -28.5h-74v342h74q116 0 180 47.5t64 110.5t-61 109t-171 46q-128 0 -292 -106v-545h-353z
" />
    <glyph glyph-name="uni0403" unicode="&#x403;" horiz-adv-x="1343" 
d="M135 0v1458h1145v-346h-793v-1112h-352zM1061 1843l-404 -334l-178 195l389 354z" />
    <glyph glyph-name="uni0404" unicode="&#x404;" horiz-adv-x="1568" 
d="M436 899h590v-344h-590q49 -115 156.5 -183.5t236.5 -68.5q121 0 220.5 62t154.5 165l314 -168q-101 -188 -284.5 -299.5t-404.5 -111.5q-159 0 -303.5 61.5t-249 166t-166 249t-61.5 303.5q0 157 61.5 300.5t166 247.5t249 166t303.5 62q218 0 403 -113t286 -300
l-314 -164q-55 102 -155 163.5t-220 61.5q-129 0 -237.5 -71t-155.5 -185z" />
    <glyph glyph-name="uni0405" unicode="&#x405;" horiz-adv-x="1439" 
d="M49 221l215 293q295 -211 524 -211q102 0 167 30t65 70q0 34 -32 61t-86.5 47t-125.5 39t-149 40.5t-156 46.5t-149 62t-125.5 83t-86.5 113t-32 149q0 93 42 177.5t116.5 147.5t184.5 100.5t238 37.5q316 0 664 -225l-197 -299q-274 174 -485 174q-91 0 -149 -29.5
t-58 -68.5q0 -23 32 -42.5t86.5 -36t125.5 -34t149 -40t156 -50.5t149 -69.5t125.5 -92.5t86.5 -124t32 -160q0 -92 -44 -175.5t-121.5 -146.5t-191 -100t-243.5 -37q-346 0 -727 270z" />
    <glyph glyph-name="uni0406" unicode="&#x406;" horiz-adv-x="622" 
d="M135 0v1458h352v-1458h-352z" />
    <glyph glyph-name="uni0407" unicode="&#x407;" horiz-adv-x="622" 
d="M135 0v1458h352v-1458h-352zM365 1761q0 86 60.5 144.5t145.5 58.5q84 0 144.5 -59t60.5 -144q0 -86 -60.5 -146.5t-144.5 -60.5q-85 0 -145.5 60.5t-60.5 146.5zM-147 1761q0 86 59.5 144.5t146.5 58.5q86 0 144.5 -58.5t58.5 -144.5q0 -87 -58.5 -147t-144.5 -60
t-146 60.5t-60 146.5z" />
    <glyph glyph-name="uni0408" unicode="&#x408;" horiz-adv-x="1241" 
d="M-10 135l237 256q41 -41 98 -64.5t119 -23.5q133 0 224.5 86t91.5 213v856h352v-860q0 -180 -89 -329t-242.5 -233.5t-336.5 -84.5q-131 0 -248 48t-206 136z" />
    <glyph glyph-name="uni0409" unicode="&#x409;" horiz-adv-x="2369" 
d="M1839 963q132 0 243.5 -61t178 -169.5t66.5 -240.5q0 -204 -141 -348t-337 -144h-747v1108h-422q0 -410 -64 -625q-61 -213 -188.5 -343.5t-345.5 -194.5l-98 338q122 37 191.5 107t103.5 192q18 64 28.5 141t14.5 204t5 224t1 307h1126v-495h385zM1839 342q55 0 95 43
t40 100q0 53 -40 94.5t-95 41.5h-385v-279h385z" />
    <glyph glyph-name="uni040A" unicode="&#x40a;" horiz-adv-x="2373" 
d="M135 0v1458h352v-530h629v530h352v-528h400q191 0 327 -127.5t136 -321.5q0 -132 -60.5 -242.5t-165 -174.5t-227.5 -64h-762v584h-629v-584h-352zM1468 342h400q45 0 77.5 38.5t32.5 90.5q0 48 -32.5 82.5t-77.5 34.5h-400v-246z" />
    <glyph glyph-name="uni040B" unicode="&#x40b;" horiz-adv-x="1792" 
d="M524 0v1112h-481v346h1315v-346h-481v-186q179 51 294 51t209.5 -31.5t164.5 -94t108.5 -163t38.5 -231.5v-457h-353v449q0 186 -182 186q-93 0 -280 -68v-567h-353z" />
    <glyph glyph-name="uni040C" unicode="&#x40c;" horiz-adv-x="1564" 
d="M135 0v1458h352v-553h230l377 553h428l-500 -727l500 -731h-428l-375 553h-232v-553h-352zM1161 1833l-403 -334l-178 195l389 354z" />
    <glyph glyph-name="uni040E" unicode="&#x40e;" horiz-adv-x="1488" 
d="M362 0l191 377l-533 1081h398l330 -688l339 688h392l-719 -1458h-398zM260 1851l236 121q40 -78 113 -151.5t139 -73.5q40 0 83 27.5t76 67.5t55 72.5t33 55.5l238 -117q-34 -70 -83.5 -133.5t-111 -117.5t-137.5 -86.5t-153 -32.5q-80 0 -158 34t-140 90t-109.5 117.5
t-80.5 126.5z" />
    <glyph glyph-name="uni040F" unicode="&#x40f;" horiz-adv-x="1617" 
d="M135 0v1458h352v-1106h643v1106h353v-1458h-500v-246h-352v246h-496z" />
    <glyph glyph-name="uni0410" unicode="&#x410;" horiz-adv-x="1622" 
d="M0 0l645 1458h328l649 -1458h-385l-70 152h-718l-64 -152h-385zM590 485h440l-221 541z" />
    <glyph glyph-name="uni0411" unicode="&#x411;" horiz-adv-x="1458" 
d="M135 0v1458h1165v-346h-813v-145h404q146 0 261.5 -66t178 -176.5t62.5 -243.5q0 -131 -66.5 -242t-180 -175t-245.5 -64h-766zM487 346h404q63 0 106 44.5t43 101.5q0 59 -42 102t-103 43h-408v-291z" />
    <glyph glyph-name="uni0412" unicode="&#x412;" horiz-adv-x="1474" 
d="M135 0v1458h774q186 0 319.5 -133t133.5 -319q0 -156 -115 -263q146 -105 146 -290q0 -187 -132.5 -320t-320.5 -133h-805zM487 350h447q44 0 75 33t31 78q0 46 -31 79t-75 33h-447v-223zM487 889h410q46 0 78.5 30t32.5 74q0 46 -33 80.5t-78 34.5h-410v-219z" />
    <glyph glyph-name="uni0413" unicode="&#x413;" horiz-adv-x="1343" 
d="M135 0v1458h1145v-346h-793v-1112h-352z" />
    <glyph glyph-name="uni0414" unicode="&#x414;" horiz-adv-x="1679" 
d="M37 -246v598h129q65 109 113.5 299.5t48.5 450.5v356h1140v-1106h174v-598h-352v246h-901v-246h-352zM682 1102q0 -459 -145 -750h579v760h-434v-10z" />
    <glyph glyph-name="uni0415" unicode="&#x415;" horiz-adv-x="1411" 
d="M135 0v1458h1190v-346h-838v-207h598v-342h-598v-215h838v-348h-1190z" />
    <glyph glyph-name="uni0416" unicode="&#x416;" horiz-adv-x="2410" 
d="M1868 731l499 -731h-428l-372 553h-187v-553h-352v553h-184l-373 -553h-428l498 731l-498 727h428l377 -553h180v553h352v-553h183l376 553h428z" />
    <glyph glyph-name="uni0417" unicode="&#x417;" horiz-adv-x="1376" 
d="M39 221l229 260q214 -182 428 -182q112 0 182 46t70 101q0 53 -60.5 90t-187.5 37h-319v328h315q105 0 161 36.5t56 86.5t-65 90.5t-166 40.5q-208 0 -408 -162l-217 260q289 254 611 254q134 0 250.5 -46t191.5 -117.5t117.5 -156.5t42.5 -165q0 -145 -140 -270
q87 -59 128.5 -139.5t41.5 -168.5q0 -87 -45.5 -174.5t-125 -158.5t-200.5 -115.5t-259 -44.5q-158 0 -320 66t-311 204z" />
    <glyph glyph-name="uni0418" unicode="&#x418;" horiz-adv-x="1652" 
d="M135 0v1458h352v-919l668 919h363v-1458h-353v920l-665 -920h-365z" />
    <glyph glyph-name="uni0419" unicode="&#x419;" horiz-adv-x="1652" 
d="M338 1849l235 121q40 -78 113 -151.5t139 -73.5q40 0 83 27.5t76.5 67.5t55.5 72.5t33 55.5l238 -117q-47 -95 -116.5 -175.5t-168.5 -137.5t-201 -57q-80 0 -158 34t-139.5 90t-109 117.5t-80.5 126.5zM135 0v1458h352v-919l668 919h363v-1458h-353v920l-665 -920h-365z
" />
    <glyph glyph-name="uni041A" unicode="&#x41a;" horiz-adv-x="1564" 
d="M135 0v1458h352v-553h230l377 553h428l-500 -727l500 -731h-428l-375 553h-232v-553h-352z" />
    <glyph glyph-name="uni041B" unicode="&#x41b;" horiz-adv-x="1622" 
d="M330 1458h1157v-1458h-352v1108h-453q0 -410 -64 -625q-61 -213 -188.5 -343.5t-345.5 -194.5l-98 338q122 37 191.5 107t103.5 192q18 64 28.5 141t14.5 204t5 224t1 307z" />
    <glyph glyph-name="uni041C" unicode="&#x41c;" horiz-adv-x="1994" 
d="M135 0v1458h447l415 -966l418 966h445v-1458h-353v858l-356 -858h-307l-357 848v-848h-352z" />
    <glyph glyph-name="uni041D" unicode="&#x41d;" horiz-adv-x="1624" 
d="M135 0v1458h352v-551h650v551h352v-1458h-352v559h-650v-559h-352z" />
    <glyph glyph-name="uni041E" unicode="&#x41e;" 
d="M1253 731q0 174 -124 299t-300 125q-175 0 -300.5 -125.5t-125.5 -298.5q0 -177 125.5 -302.5t300.5 -125.5q177 0 300.5 125.5t123.5 302.5zM49 731q0 157 62 300.5t166.5 247.5t249 166t302.5 62t302 -62t248.5 -166t166.5 -247.5t62 -300.5q0 -212 -105 -392
t-284 -284t-390 -104q-158 0 -302.5 61.5t-249 166t-166.5 249t-62 303.5z" />
    <glyph glyph-name="uni041F" unicode="&#x41f;" horiz-adv-x="1617" 
d="M135 0v1458h1348v-1458h-353v1108h-643v-1108h-352z" />
    <glyph glyph-name="uni0420" unicode="&#x420;" horiz-adv-x="1492" 
d="M135 0v1458h674q168 0 313 -76.5t232.5 -212.5t87.5 -299q0 -122 -51 -231.5t-137 -187.5t-202.5 -124t-242.5 -46h-322v-281h-352zM487 627h318q121 0 203 72t82 171q0 97 -87 169.5t-208 72.5h-308v-485z" />
    <glyph glyph-name="uni0421" unicode="&#x421;" horiz-adv-x="1554" 
d="M1204 530l314 -168q-100 -188 -283.5 -299.5t-405.5 -111.5q-158 0 -302.5 61.5t-249 166t-166.5 249t-62 303.5q0 157 62 300.5t166.5 247.5t249 166t302.5 62q220 0 404.5 -113t284.5 -300l-314 -164q-55 102 -155 163.5t-220 61.5q-175 0 -300.5 -125.5t-125.5 -298.5
q0 -177 125.5 -302.5t300.5 -125.5q121 0 220.5 62t154.5 165z" />
    <glyph glyph-name="uni0422" unicode="&#x422;" horiz-adv-x="1449" 
d="M549 0v1110h-500v348h1348v-348h-496v-1110h-352z" />
    <glyph glyph-name="uni0423" unicode="&#x423;" horiz-adv-x="1488" 
d="M362 0l191 377l-533 1081h398l330 -688l339 688h392l-719 -1458h-398z" />
    <glyph glyph-name="uni0424" unicode="&#x424;" horiz-adv-x="1796" 
d="M723 0v131q-311 43 -495.5 226t-184.5 452q0 203 107 362t301.5 247.5t445.5 88.5q252 0 447 -88.5t302 -247.5t107 -362q0 -269 -184.5 -452t-495.5 -226v-131h-350zM723 477v674q-153 -32 -247.5 -117.5t-94.5 -224.5q0 -72 26.5 -129.5t74.5 -97t107.5 -65.5
t133.5 -40zM1073 1151v-674q152 31 247 112.5t95 219.5q0 71 -27 130.5t-75.5 100.5t-108 68.5t-131.5 42.5z" />
    <glyph glyph-name="uni0425" unicode="&#x425;" horiz-adv-x="1583" 
d="M20 0l549 731l-544 727h442l324 -438l325 438h440l-544 -727l549 -731h-443l-327 442l-328 -442h-443z" />
    <glyph glyph-name="uni0426" unicode="&#x426;" horiz-adv-x="1667" 
d="M143 0v1458h353v-1108h620v1108h352v-1108h174v-596h-352v246h-1147z" />
    <glyph glyph-name="uni0427" unicode="&#x427;" horiz-adv-x="1501" 
d="M1366 0h-352v451q-229 -99 -408 -99q-113 0 -206 31t-162.5 93t-107.5 162.5t-38 231.5v588h352v-577q0 -187 181 -187q130 0 389 111v653h352v-1458z" />
    <glyph glyph-name="uni0428" unicode="&#x428;" horiz-adv-x="2310" 
d="M135 0v1458h352v-1108h490v1108h352v-1108h492v1108h352v-1458h-2038z" />
    <glyph glyph-name="uni0429" unicode="&#x429;" horiz-adv-x="2383" 
d="M135 0v1458h352v-1108h490v1108h352v-1108h492v1108h352v-1108h176v-596h-354v246h-1860z" />
    <glyph glyph-name="uni042A" unicode="&#x42a;" horiz-adv-x="1574" 
d="M266 0v1104h-231v354h586v-395h348q155 0 284 -72t202 -194.5t73 -268.5q0 -145 -76 -267t-203.5 -191.5t-275.5 -69.5h-707zM621 346h342q87 0 150 55.5t63 128.5q0 77 -59.5 133t-147.5 56h-348v-373z" />
    <glyph glyph-name="uni042B" unicode="&#x42b;" horiz-adv-x="1970" 
d="M135 0v1458h352v-395h332q155 0 283.5 -72t201 -194.5t72.5 -268.5q0 -145 -75.5 -267t-202.5 -191.5t-275 -69.5h-688zM1483 0h352v1458h-352v-1458zM487 346h326q86 0 147.5 55.5t61.5 128.5q0 77 -58 133t-145 56h-332v-373z" />
    <glyph glyph-name="uni042C" unicode="&#x42c;" horiz-adv-x="1435" 
d="M487 346h342q88 0 151.5 55.5t63.5 128.5q0 76 -60 132.5t-146 56.5h-351v-373zM135 0v1458h352v-395h351q155 0 284 -72t202 -194.5t73 -268.5q0 -145 -76 -267t-203.5 -191.5t-275.5 -69.5h-707z" />
    <glyph glyph-name="uni042D" unicode="&#x42d;" horiz-adv-x="1568" 
d="M49 362l313 168q55 -103 154.5 -165t220.5 -62q129 0 236.5 68.5t156.5 183.5h-589v344h589q-47 114 -155.5 185t-237.5 71q-120 0 -220 -61.5t-155 -163.5l-313 164q101 187 285.5 300t402.5 113q212 0 392 -104.5t284.5 -283t104.5 -388.5q0 -159 -62 -303.5
t-166.5 -249t-249 -166t-303.5 -61.5q-221 0 -403.5 111.5t-284.5 299.5z" />
    <glyph glyph-name="uni042E" unicode="&#x42e;" horiz-adv-x="2166" 
d="M135 0v1458h350v-555h121q55 262 260 433t482 171q210 0 387.5 -104.5t280 -283t102.5 -388.5q0 -159 -60.5 -303.5t-163.5 -249t-245.5 -166t-300.5 -61.5q-277 0 -482 170.5t-264 437.5h-117v-559h-350zM1348 303q176 0 295.5 125t119.5 303q0 175 -120 299.5
t-295 124.5q-116 0 -212.5 -57.5t-151 -155t-54.5 -211.5q0 -178 121 -303t297 -125z" />
    <glyph glyph-name="uni042F" unicode="&#x42f;" horiz-adv-x="1519" 
d="M61 0l275 391q-124 84 -194 207.5t-70 271.5q0 163 87.5 299t233 212.5t314.5 76.5h677v-1458h-352v281h-344l-196 -281h-431zM709 627h323v485h-313q-121 0 -208 -72.5t-87 -169.5q0 -99 82 -171t203 -72z" />
    <glyph glyph-name="uni0430" unicode="&#x430;" horiz-adv-x="1622" 
d="M0 0l645 1458h328l649 -1458h-385l-70 152h-718l-64 -152h-385zM590 485h440l-221 541z" />
    <glyph glyph-name="uni0431" unicode="&#x431;" horiz-adv-x="1458" 
d="M135 0v1458h1165v-346h-813v-145h404q146 0 261.5 -66t178 -176.5t62.5 -243.5q0 -131 -66.5 -242t-180 -175t-245.5 -64h-766zM487 346h404q63 0 106 44.5t43 101.5q0 59 -42 102t-103 43h-408v-291z" />
    <glyph glyph-name="uni0432" unicode="&#x432;" horiz-adv-x="1474" 
d="M135 0v1458h774q186 0 319.5 -133t133.5 -319q0 -156 -115 -263q146 -105 146 -290q0 -187 -132.5 -320t-320.5 -133h-805zM487 350h447q44 0 75 33t31 78q0 46 -31 79t-75 33h-447v-223zM487 889h410q46 0 78.5 30t32.5 74q0 46 -33 80.5t-78 34.5h-410v-219z" />
    <glyph glyph-name="uni0433" unicode="&#x433;" horiz-adv-x="1343" 
d="M135 0v1458h1145v-346h-793v-1112h-352z" />
    <glyph glyph-name="uni0434" unicode="&#x434;" horiz-adv-x="1679" 
d="M37 -246v598h129q65 109 113.5 299.5t48.5 450.5v356h1140v-1106h174v-598h-352v246h-901v-246h-352zM682 1102q0 -459 -145 -750h579v760h-434v-10z" />
    <glyph glyph-name="uni0435" unicode="&#x435;" horiz-adv-x="1411" 
d="M135 0v1458h1190v-346h-838v-207h598v-342h-598v-215h838v-348h-1190z" />
    <glyph glyph-name="uni0436" unicode="&#x436;" horiz-adv-x="2410" 
d="M1868 731l499 -731h-428l-372 553h-187v-553h-352v553h-184l-373 -553h-428l498 731l-498 727h428l377 -553h180v553h352v-553h183l376 553h428z" />
    <glyph glyph-name="uni0437" unicode="&#x437;" horiz-adv-x="1376" 
d="M39 221l229 260q214 -182 428 -182q112 0 182 46t70 101q0 53 -60.5 90t-187.5 37h-319v328h315q105 0 161 36.5t56 86.5t-65 90.5t-166 40.5q-208 0 -408 -162l-217 260q289 254 611 254q134 0 250.5 -46t191.5 -117.5t117.5 -156.5t42.5 -165q0 -145 -140 -270
q87 -59 128.5 -139.5t41.5 -168.5q0 -87 -45.5 -174.5t-125 -158.5t-200.5 -115.5t-259 -44.5q-158 0 -320 66t-311 204z" />
    <glyph glyph-name="uni0438" unicode="&#x438;" horiz-adv-x="1652" 
d="M135 0v1458h352v-919l668 919h363v-1458h-353v920l-665 -920h-365z" />
    <glyph glyph-name="uni0439" unicode="&#x439;" horiz-adv-x="1652" 
d="M338 1849l235 121q40 -78 113 -151.5t139 -73.5q40 0 83 27.5t76.5 67.5t55.5 72.5t33 55.5l238 -117q-47 -95 -116.5 -175.5t-168.5 -137.5t-201 -57q-80 0 -158 34t-139.5 90t-109 117.5t-80.5 126.5zM135 0v1458h352v-919l668 919h363v-1458h-353v920l-665 -920h-365z
" />
    <glyph glyph-name="uni043A" unicode="&#x43a;" horiz-adv-x="1564" 
d="M135 0v1458h352v-553h230l377 553h428l-500 -727l500 -731h-428l-375 553h-232v-553h-352z" />
    <glyph glyph-name="uni043B" unicode="&#x43b;" horiz-adv-x="1622" 
d="M330 1458h1157v-1458h-352v1108h-453q0 -410 -64 -625q-61 -213 -188.5 -343.5t-345.5 -194.5l-98 338q122 37 191.5 107t103.5 192q18 64 28.5 141t14.5 204t5 224t1 307z" />
    <glyph glyph-name="uni043C" unicode="&#x43c;" horiz-adv-x="1994" 
d="M135 0v1458h447l415 -966l418 966h445v-1458h-353v858l-356 -858h-307l-357 848v-848h-352z" />
    <glyph glyph-name="uni043D" unicode="&#x43d;" horiz-adv-x="1624" 
d="M135 0v1458h352v-551h650v551h352v-1458h-352v559h-650v-559h-352z" />
    <glyph glyph-name="uni043E" unicode="&#x43e;" 
d="M1253 731q0 174 -124 299t-300 125q-175 0 -300.5 -125.5t-125.5 -298.5q0 -177 125.5 -302.5t300.5 -125.5q177 0 300.5 125.5t123.5 302.5zM49 731q0 157 62 300.5t166.5 247.5t249 166t302.5 62t302 -62t248.5 -166t166.5 -247.5t62 -300.5q0 -212 -105 -392
t-284 -284t-390 -104q-158 0 -302.5 61.5t-249 166t-166.5 249t-62 303.5z" />
    <glyph glyph-name="uni043F" unicode="&#x43f;" horiz-adv-x="1617" 
d="M135 0v1458h1348v-1458h-353v1108h-643v-1108h-352z" />
    <glyph glyph-name="uni0440" unicode="&#x440;" horiz-adv-x="1492" 
d="M135 0v1458h674q168 0 313 -76.5t232.5 -212.5t87.5 -299q0 -122 -51 -231.5t-137 -187.5t-202.5 -124t-242.5 -46h-322v-281h-352zM487 627h318q121 0 203 72t82 171q0 97 -87 169.5t-208 72.5h-308v-485z" />
    <glyph glyph-name="uni0441" unicode="&#x441;" horiz-adv-x="1554" 
d="M1204 530l314 -168q-100 -188 -283.5 -299.5t-405.5 -111.5q-158 0 -302.5 61.5t-249 166t-166.5 249t-62 303.5q0 157 62 300.5t166.5 247.5t249 166t302.5 62q220 0 404.5 -113t284.5 -300l-314 -164q-55 102 -155 163.5t-220 61.5q-175 0 -300.5 -125.5t-125.5 -298.5
q0 -177 125.5 -302.5t300.5 -125.5q121 0 220.5 62t154.5 165z" />
    <glyph glyph-name="uni0442" unicode="&#x442;" horiz-adv-x="1458" 
d="M557 0v1110h-500v348h1348v-348h-496v-1110h-352z" />
    <glyph glyph-name="uni0443" unicode="&#x443;" horiz-adv-x="1488" 
d="M362 0l191 377l-533 1081h398l330 -688l339 688h392l-719 -1458h-398z" />
    <glyph glyph-name="uni0444" unicode="&#x444;" horiz-adv-x="1796" 
d="M723 0v131q-311 43 -495.5 226t-184.5 452q0 203 107 362t301.5 247.5t445.5 88.5q252 0 447 -88.5t302 -247.5t107 -362q0 -269 -184.5 -452t-495.5 -226v-131h-350zM723 477v674q-153 -32 -247.5 -117.5t-94.5 -224.5q0 -72 26.5 -129.5t74.5 -97t107.5 -65.5
t133.5 -40zM1073 1151v-674q152 31 247 112.5t95 219.5q0 71 -27 130.5t-75.5 100.5t-108 68.5t-131.5 42.5z" />
    <glyph glyph-name="uni0445" unicode="&#x445;" horiz-adv-x="1583" 
d="M20 0l549 731l-544 727h442l324 -438l325 438h440l-544 -727l549 -731h-443l-327 442l-328 -442h-443z" />
    <glyph glyph-name="uni0446" unicode="&#x446;" horiz-adv-x="1667" 
d="M143 0v1458h353v-1108h620v1108h352v-1108h174v-596h-352v246h-1147z" />
    <glyph glyph-name="uni0447" unicode="&#x447;" horiz-adv-x="1501" 
d="M1366 0h-352v451q-229 -99 -408 -99q-113 0 -206 31t-162.5 93t-107.5 162.5t-38 231.5v588h352v-577q0 -187 181 -187q130 0 389 111v653h352v-1458z" />
    <glyph glyph-name="uni0448" unicode="&#x448;" horiz-adv-x="2310" 
d="M135 0v1458h352v-1108h490v1108h352v-1108h492v1108h352v-1458h-2038z" />
    <glyph glyph-name="uni0449" unicode="&#x449;" horiz-adv-x="2383" 
d="M135 0v1458h352v-1108h490v1108h352v-1108h492v1108h352v-1108h176v-596h-354v246h-1860z" />
    <glyph glyph-name="uni044A" unicode="&#x44a;" horiz-adv-x="1574" 
d="M266 0v1104h-231v354h586v-395h348q155 0 284 -72t202 -194.5t73 -268.5q0 -145 -76 -267t-203.5 -191.5t-275.5 -69.5h-707zM621 346h342q87 0 150 55.5t63 128.5q0 77 -59.5 133t-147.5 56h-348v-373z" />
    <glyph glyph-name="uni044B" unicode="&#x44b;" horiz-adv-x="1970" 
d="M135 0v1458h352v-395h332q155 0 283.5 -72t201 -194.5t72.5 -268.5q0 -145 -75.5 -267t-202.5 -191.5t-275 -69.5h-688zM1483 0h352v1458h-352v-1458zM487 346h326q86 0 147.5 55.5t61.5 128.5q0 77 -58 133t-145 56h-332v-373z" />
    <glyph glyph-name="uni044C" unicode="&#x44c;" horiz-adv-x="1435" 
d="M487 346h342q88 0 151.5 55.5t63.5 128.5q0 76 -60 132.5t-146 56.5h-351v-373zM135 0v1458h352v-395h351q155 0 284 -72t202 -194.5t73 -268.5q0 -145 -76 -267t-203.5 -191.5t-275.5 -69.5h-707z" />
    <glyph glyph-name="uni044D" unicode="&#x44d;" horiz-adv-x="1568" 
d="M49 362l313 168q55 -103 154.5 -165t220.5 -62q129 0 236.5 68.5t156.5 183.5h-589v344h589q-47 114 -155.5 185t-237.5 71q-120 0 -220 -61.5t-155 -163.5l-313 164q101 187 285.5 300t402.5 113q212 0 392 -104.5t284.5 -283t104.5 -388.5q0 -159 -62 -303.5
t-166.5 -249t-249 -166t-303.5 -61.5q-221 0 -403.5 111.5t-284.5 299.5z" />
    <glyph glyph-name="uni044E" unicode="&#x44e;" horiz-adv-x="2166" 
d="M135 0v1458h350v-555h121q55 262 260 433t482 171q210 0 387.5 -104.5t280 -283t102.5 -388.5q0 -159 -60.5 -303.5t-163.5 -249t-245.5 -166t-300.5 -61.5q-277 0 -482 170.5t-264 437.5h-117v-559h-350zM1348 303q176 0 295.5 125t119.5 303q0 175 -120 299.5
t-295 124.5q-116 0 -212.5 -57.5t-151 -155t-54.5 -211.5q0 -178 121 -303t297 -125z" />
    <glyph glyph-name="uni044F" unicode="&#x44f;" horiz-adv-x="1519" 
d="M61 0l275 391q-124 84 -194 207.5t-70 271.5q0 163 87.5 299t233 212.5t314.5 76.5h677v-1458h-352v281h-344l-196 -281h-431zM709 627h323v485h-313q-121 0 -208 -72.5t-87 -169.5q0 -99 82 -171t203 -72z" />
    <glyph glyph-name="uni0451" unicode="&#x451;" horiz-adv-x="1411" 
d="M135 0v1458h1190v-346h-838v-207h598v-342h-598v-215h838v-348h-1190zM782 1761q0 86 61 144.5t146 58.5q84 0 144.5 -59t60.5 -144q0 -86 -60.5 -146.5t-144.5 -60.5q-85 0 -146 60.5t-61 146.5zM270 1761q0 86 60 144.5t147 58.5q86 0 144.5 -58.5t58.5 -144.5
q0 -87 -58.5 -147t-144.5 -60t-146.5 60.5t-60.5 146.5z" />
    <glyph glyph-name="uni0452" unicode="&#x452;" horiz-adv-x="1796" 
d="M524 0v1112h-481v346h1315v-346h-481v-211q162 92 309 92q133 0 242.5 -43t177.5 -114t104.5 -158.5t36.5 -181.5q0 -76 -21 -146.5t-67 -135.5t-113.5 -113t-167.5 -76.5t-221 -28.5h-74v342h74q116 0 180 47.5t64 110.5t-61 109t-171 46q-128 0 -292 -106v-545h-353z
" />
    <glyph glyph-name="uni0453" unicode="&#x453;" horiz-adv-x="1343" 
d="M135 0v1458h1145v-346h-793v-1112h-352zM1061 1843l-404 -334l-178 195l389 354z" />
    <glyph glyph-name="uni0454" unicode="&#x454;" horiz-adv-x="1568" 
d="M436 899h590v-344h-590q49 -115 156.5 -183.5t236.5 -68.5q121 0 220.5 62t154.5 165l314 -168q-101 -188 -284.5 -299.5t-404.5 -111.5q-159 0 -303.5 61.5t-249 166t-166 249t-61.5 303.5q0 157 61.5 300.5t166 247.5t249 166t303.5 62q218 0 403 -113t286 -300
l-314 -164q-55 102 -155 163.5t-220 61.5q-129 0 -237.5 -71t-155.5 -185z" />
    <glyph glyph-name="uni0455" unicode="&#x455;" horiz-adv-x="1439" 
d="M49 221l215 293q295 -211 524 -211q102 0 167 30t65 70q0 34 -32 61t-86.5 47t-125.5 39t-149 40.5t-156 46.5t-149 62t-125.5 83t-86.5 113t-32 149q0 93 42 177.5t116.5 147.5t184.5 100.5t238 37.5q316 0 664 -225l-197 -299q-274 174 -485 174q-91 0 -149 -29.5
t-58 -68.5q0 -23 32 -42.5t86.5 -36t125.5 -34t149 -40t156 -50.5t149 -69.5t125.5 -92.5t86.5 -124t32 -160q0 -92 -44 -175.5t-121.5 -146.5t-191 -100t-243.5 -37q-346 0 -727 270z" />
    <glyph glyph-name="uni0456" unicode="&#x456;" horiz-adv-x="622" 
d="M135 0v1458h352v-1458h-352z" />
    <glyph glyph-name="uni0457" unicode="&#x457;" horiz-adv-x="622" 
d="M135 0v1458h352v-1458h-352zM365 1761q0 86 60.5 144.5t145.5 58.5q84 0 144.5 -59t60.5 -144q0 -86 -60.5 -146.5t-144.5 -60.5q-85 0 -145.5 60.5t-60.5 146.5zM-147 1761q0 86 59.5 144.5t146.5 58.5q86 0 144.5 -58.5t58.5 -144.5q0 -87 -58.5 -147t-144.5 -60
t-146 60.5t-60 146.5z" />
    <glyph glyph-name="uni0458" unicode="&#x458;" horiz-adv-x="1241" 
d="M-10 135l237 256q41 -41 98 -64.5t119 -23.5q133 0 224.5 86t91.5 213v856h352v-860q0 -180 -89 -329t-242.5 -233.5t-336.5 -84.5q-131 0 -248 48t-206 136z" />
    <glyph glyph-name="uni0459" unicode="&#x459;" horiz-adv-x="2369" 
d="M1839 963q132 0 243.5 -61t178 -169.5t66.5 -240.5q0 -204 -141 -348t-337 -144h-747v1108h-422q0 -410 -64 -625q-61 -213 -188.5 -343.5t-345.5 -194.5l-98 338q122 37 191.5 107t103.5 192q18 64 28.5 141t14.5 204t5 224t1 307h1126v-495h385zM1839 342q55 0 95 43
t40 100q0 53 -40 94.5t-95 41.5h-385v-279h385z" />
    <glyph glyph-name="uni045A" unicode="&#x45a;" horiz-adv-x="2373" 
d="M135 0v1458h352v-530h629v530h352v-528h400q191 0 327 -127.5t136 -321.5q0 -132 -60.5 -242.5t-165 -174.5t-227.5 -64h-762v584h-629v-584h-352zM1468 342h400q45 0 77.5 38.5t32.5 90.5q0 48 -32.5 82.5t-77.5 34.5h-400v-246z" />
    <glyph glyph-name="uni045B" unicode="&#x45b;" horiz-adv-x="1792" 
d="M524 0v1112h-481v346h1315v-346h-481v-186q179 51 294 51t209.5 -31.5t164.5 -94t108.5 -163t38.5 -231.5v-457h-353v449q0 186 -182 186q-93 0 -280 -68v-567h-353z" />
    <glyph glyph-name="uni045C" unicode="&#x45c;" horiz-adv-x="1564" 
d="M135 0v1458h352v-553h230l377 553h428l-500 -727l500 -731h-428l-375 553h-232v-553h-352zM1161 1833l-403 -334l-178 195l389 354z" />
    <glyph glyph-name="uni045E" unicode="&#x45e;" horiz-adv-x="1488" 
d="M362 0l191 377l-533 1081h398l330 -688l339 688h392l-719 -1458h-398zM260 1851l236 121q40 -78 113 -151.5t139 -73.5q40 0 83 27.5t76 67.5t55 72.5t33 55.5l238 -117q-34 -70 -83.5 -133.5t-111 -117.5t-137.5 -86.5t-153 -32.5q-80 0 -158 34t-140 90t-109.5 117.5
t-80.5 126.5z" />
    <glyph glyph-name="uni045F" unicode="&#x45f;" horiz-adv-x="1617" 
d="M135 0v1458h352v-1106h643v1106h353v-1458h-500v-246h-352v246h-496z" />
    <glyph glyph-name="uni0490" unicode="&#x490;" horiz-adv-x="1314" 
d="M135 0v1458h791v277h354v-625h-793v-1110h-352z" />
    <glyph glyph-name="uni0491" unicode="&#x491;" horiz-adv-x="1314" 
d="M135 0v1458h791v277h354v-625h-793v-1110h-352z" />
    <glyph glyph-name="Wgrave" unicode="&#x1e80;" horiz-adv-x="2148" 
d="M2148 1458l-508 -1458h-374l-191 881l-192 -881h-375l-508 1458h375l299 -872l205 872h391l205 -872l301 872h372zM698 1864l193 215l389 -355l-178 -194z" />
    <glyph glyph-name="wgrave" unicode="&#x1e81;" horiz-adv-x="2148" 
d="M2148 1458l-508 -1458h-374l-191 881l-192 -881h-375l-508 1458h375l299 -872l205 872h391l205 -872l301 872h372zM698 1864l193 215l389 -355l-178 -194z" />
    <glyph glyph-name="Wacute" unicode="&#x1e82;" horiz-adv-x="2148" 
d="M2148 1458l-508 -1458h-374l-191 881l-192 -881h-375l-508 1458h375l299 -872l205 872h391l205 -872l301 872h372zM1430 1864l-404 -334l-178 194l389 355z" />
    <glyph glyph-name="wacute" unicode="&#x1e83;" horiz-adv-x="2148" 
d="M2148 1458l-508 -1458h-374l-191 881l-192 -881h-375l-508 1458h375l299 -872l205 872h391l205 -872l301 872h372zM1430 1864l-404 -334l-178 194l389 355z" />
    <glyph glyph-name="Wdieresis" unicode="&#x1e84;" horiz-adv-x="2148" 
d="M2148 1458l-508 -1458h-374l-191 881l-192 -881h-375l-508 1458h375l299 -872l205 872h391l205 -872l301 872h372zM616 1786q0 86 60 144.5t147 58.5q86 0 144.5 -58.5t58.5 -144.5q0 -87 -58.5 -147t-144.5 -60t-146.5 60.5t-60.5 146.5zM1128 1786q0 86 61 144.5
t146 58.5q84 0 144.5 -59t60.5 -144q0 -86 -60.5 -146.5t-144.5 -60.5q-85 0 -146 60.5t-61 146.5z" />
    <glyph glyph-name="wdieresis" unicode="&#x1e85;" horiz-adv-x="2148" 
d="M2148 1458l-508 -1458h-374l-191 881l-192 -881h-375l-508 1458h375l299 -872l205 872h391l205 -872l301 872h372zM616 1786q0 86 60 144.5t147 58.5q86 0 144.5 -58.5t58.5 -144.5q0 -87 -58.5 -147t-144.5 -60t-146.5 60.5t-60.5 146.5zM1128 1786q0 86 61 144.5
t146 58.5q84 0 144.5 -59t60.5 -144q0 -86 -60.5 -146.5t-144.5 -60.5q-85 0 -146 60.5t-61 146.5z" />
    <glyph glyph-name="uni1E9E" unicode="&#x1e9e;" horiz-adv-x="1724" 
d="M106 0v588q0 174 43.5 323.5t118.5 256.5t175 183.5t213 114t231 37.5q211 0 396.5 -114t299.5 -338l-354 -224q212 -68 318 -191t106 -276q0 -118 -72 -212t-195.5 -145.5t-273.5 -51.5q-335 0 -620 233l217 269q98 -82 205 -121t202 -39q86 0 140.5 25.5t54.5 62.5
q0 79 -146.5 145t-412.5 66v278l389 246q-73 49 -211 49q-68 0 -130.5 -15t-126.5 -55.5t-110.5 -103.5t-76 -166.5t-29.5 -236.5v-588h-351z" />
    <glyph glyph-name="Ygrave" unicode="&#x1ef2;" horiz-adv-x="1460" 
d="M553 0v352l-553 1106h399l332 -702l332 702h397l-555 -1106v-352h-352zM354 1864l193 215l389 -355l-178 -194z" />
    <glyph glyph-name="ygrave" unicode="&#x1ef3;" horiz-adv-x="1460" 
d="M553 0v352l-553 1106h399l332 -702l332 702h397l-555 -1106v-352h-352zM354 1864l193 215l389 -355l-178 -194z" />
    <glyph glyph-name="endash" unicode="&#x2013;" horiz-adv-x="1177" 
d="M88 553v338h1002v-338h-1002z" />
    <glyph glyph-name="emdash" unicode="&#x2014;" horiz-adv-x="1638" 
d="M88 553v342h1462v-342h-1462z" />
    <glyph glyph-name="quoteleft" unicode="&#x2018;" horiz-adv-x="600" 
d="M461 1669l119 -244q-130 -69 -220 -159q74 -10 118 -64.5t44 -124.5q0 -97 -65 -169t-168 -72q-107 0 -171.5 82t-64.5 206q0 175 111.5 314t296.5 231z" />
    <glyph glyph-name="quoteright" unicode="&#x2019;" horiz-adv-x="598" 
d="M137 772l-119 244q128 68 220 160q-74 10 -118 64t-44 124q0 97 65 169.5t168 72.5q107 0 171.5 -82.5t64.5 -206.5q0 -175 -111.5 -314t-296.5 -231z" />
    <glyph glyph-name="quotesinglbase" unicode="&#x201a;" horiz-adv-x="606" 
d="M141 -367l-118 244q126 67 219 160q-74 10 -118 64t-44 124q0 97 65 169.5t168 72.5q107 0 171.5 -82.5t64.5 -206.5q0 -175 -111.5 -314t-296.5 -231z" />
    <glyph glyph-name="quotedblleft" unicode="&#x201c;" horiz-adv-x="1134" 
d="M461 1669l119 -244q-130 -69 -220 -159q74 -10 116 -64t42 -125q0 -97 -63 -169t-166 -72q-107 0 -171.5 82t-64.5 206q0 175 111.5 314t296.5 231zM995 1669l119 -244q-128 -68 -219 -159q74 -10 118 -64.5t44 -124.5q0 -97 -65.5 -169t-168.5 -72q-107 0 -171 82
t-64 206q0 175 111 314t296 231z" />
    <glyph glyph-name="quotedblright" unicode="&#x201d;" horiz-adv-x="1132" 
d="M672 772l-119 244q126 67 219 160q-74 10 -116 63.5t-42 124.5q0 97 63.5 169.5t166.5 72.5q106 0 170.5 -82.5t64.5 -206.5q0 -175 -111 -314t-296 -231zM137 772l-119 244q128 68 220 160q-74 10 -118 64t-44 124q0 97 65 169.5t168 72.5q107 0 171.5 -82.5
t64.5 -206.5q0 -175 -111.5 -314t-296.5 -231z" />
    <glyph glyph-name="quotedblbase" unicode="&#x201e;" horiz-adv-x="1140" 
d="M676 -367l-119 244q126 67 219 160q-74 10 -116 63.5t-42 124.5q0 97 63.5 169.5t166.5 72.5q106 0 170.5 -82.5t64.5 -206.5q0 -175 -111 -314t-296 -231zM141 -367l-118 244q126 67 219 160q-74 10 -118 64t-44 124q0 97 65 169.5t168 72.5q107 0 171.5 -82.5
t64.5 -206.5q0 -175 -111.5 -314t-296.5 -231z" />
    <glyph glyph-name="dagger" unicode="&#x2020;" horiz-adv-x="1300" 
d="M481 -313v1163h-428v334h428v432h336v-432h430v-334h-430v-1163h-336z" />
    <glyph glyph-name="daggerdbl" unicode="&#x2021;" horiz-adv-x="1353" 
d="M508 -313v432h-428v334h428v397h-428v334h428v432h334v-432h432v-334h-432v-397h432v-334h-432v-432h-334z" />
    <glyph glyph-name="bullet" unicode="&#x2022;" horiz-adv-x="980" 
d="M78 731q0 172 120 293t291 121q172 0 293 -121t121 -293t-121 -292t-293 -120t-291.5 120t-119.5 292z" />
    <glyph glyph-name="ellipsis" unicode="&#x2026;" horiz-adv-x="1961" 
d="M70 211q0 106 76 181t184 75q107 0 182.5 -75t75.5 -181q0 -110 -75 -185t-183 -75q-109 0 -184.5 75t-75.5 185zM723 211q0 106 76 181t184 75q106 0 181 -75t75 -181q0 -110 -75 -185t-181 -75q-109 0 -184.5 75t-75.5 185zM1374 211q0 106 76 181t184 75
q107 0 182.5 -75t75.5 -181q0 -110 -75 -185t-183 -75q-109 0 -184.5 75t-75.5 185z" />
    <glyph glyph-name="perthousand" unicode="&#x2030;" horiz-adv-x="2787" 
d="M51 1102q0 170 118.5 287.5t291.5 117.5q171 0 290 -117.5t119 -287.5q0 -169 -119.5 -289.5t-289.5 -120.5q-172 0 -291 120t-119 290zM1059 360q0 171 118 288.5t291 117.5q172 0 291 -118t119 -288q0 -169 -119.5 -289t-290.5 -120q-172 0 -290.5 119.5t-118.5 289.5z
M410 0l823 1458h293l-834 -1458h-282zM461 940q64 0 112 48.5t48 113.5q0 63 -47.5 107t-112.5 44q-67 0 -112.5 -44t-45.5 -107q0 -66 46 -114t112 -48zM1468 199q65 0 113.5 48.5t48.5 112.5q0 63 -48.5 108.5t-113.5 45.5t-110 -45t-45 -109q0 -65 45 -113t110 -48z
M1958 360q0 171 118 288.5t291 117.5q171 0 290.5 -118t119.5 -288q0 -169 -120 -289t-290 -120q-172 0 -290.5 119.5t-118.5 289.5zM2367 199q64 0 112 48t48 113q0 63 -47.5 108.5t-112.5 45.5q-67 0 -112 -45t-45 -109q0 -66 45.5 -113.5t111.5 -47.5z" />
    <glyph glyph-name="guilsinglleft" unicode="&#x2039;" horiz-adv-x="636" 
d="M600 371l-250 -164l-342 520l342 510l250 -168l-242 -346z" />
    <glyph glyph-name="guilsinglright" unicode="&#x203a;" horiz-adv-x="634" 
d="M285 207l-248 164l242 352l-242 346l248 168l342 -510z" />
    <glyph glyph-name="franc" unicode="&#x20a3;" horiz-adv-x="1380" 
d="M14 170v303h121v985h1184v-346h-832v-211h586v-340h-586v-88h228v-303h-228v-170h-352v170h-121z" />
    <glyph glyph-name="Euro" unicode="&#x20ac;" horiz-adv-x="1662" 
d="M20 442v252h144v68h-144v258h193q88 217 284.5 352t438.5 135q220 0 404 -113t284 -300l-313 -164q-55 102 -154 163.5t-221 61.5q-96 0 -180 -36t-144 -99h439v-258h-545v-68h545v-252h-439q60 -66 143.5 -102.5t180.5 -36.5q122 0 221 61.5t154 165.5l313 -168
q-100 -188 -283 -299.5t-405 -111.5q-242 0 -436.5 135.5t-282.5 355.5h-197z" />
    <glyph glyph-name="uni20BD" unicode="&#x20bd;" horiz-adv-x="1433" 
d="M487 1112v-285h408q59 0 101 42t42 100q0 57 -42.5 100t-104.5 43h-404zM135 0v1458h766q131 0 243.5 -63.5t178.5 -174t66 -241.5q0 -201 -140 -336t-358 -135h-404v-76h435v-285h-435v-147h-352z" />
    <glyph glyph-name="uni20BF" unicode="&#x20bf;" horiz-adv-x="1474" 
d="M795 -242v242h-160v-242h-303v242h-197v1458h197v246h303v-246h160v246h303v-289q119 -55 191.5 -165.5t72.5 -243.5q0 -156 -115 -263q146 -105 146 -290q0 -144 -82 -260t-213 -166v-269h-303zM487 350h447q44 0 75 33t31 78q0 46 -31 79t-75 33h-447v-223zM487 889
h410q46 0 78.5 30t32.5 74q0 46 -33 80.5t-78 34.5h-410v-219z" />
    <glyph glyph-name="afii61352" unicode="&#x2116;" horiz-adv-x="2664" 
d="M135 0v1458h365l651 -895v895h352v-1458h-362l-654 895v-895h-352zM2267 987q0 77 -43.5 127.5t-118.5 50.5q-73 0 -116 -50.5t-43 -127.5t43 -127.5t116 -50.5q75 0 118.5 50.5t43.5 127.5zM1610 987q0 222 141 371t354 149q215 0 359.5 -149.5t144.5 -370.5
q0 -223 -144.5 -371.5t-359.5 -148.5q-213 0 -354 148.5t-141 371.5zM1786 0h647v344h-647v-344z" />
    <glyph glyph-name="trademark" unicode="&#x2122;" horiz-adv-x="1558" 
d="M700 813v645h213l164 -428l160 428h215v-645h-174v358l-129 -358h-145l-125 348v-348h-179zM268 813v481h-207v164h592v-164h-211v-481h-174z" />
    <glyph glyph-name="Omega" unicode="&#x2126;" horiz-adv-x="1787" 
d="M823 0h-731v338h215q-182 168 -182 432q0 136 55 267.5t152.5 236t244.5 169t318 64.5q170 0 317 -64.5t244.5 -169t153 -236t55.5 -267.5q0 -261 -182 -432h213v-338h-729v338q169 70 256.5 181.5t87.5 236.5q0 101 -50.5 191.5t-147.5 149t-218 58.5
q-122 0 -219.5 -58.5t-148 -149t-50.5 -191.5q0 -126 87.5 -237.5t258.5 -180.5v-338z" />
    <glyph glyph-name="arrowleft" unicode="&#x2190;" horiz-adv-x="1503" 
d="M63 571v310l717 716l250 -249l-475 -447h885v-348h-885l475 -447l-250 -249z" />
    <glyph glyph-name="arrowup" unicode="&#x2191;" horiz-adv-x="1748" 
d="M254 451l-250 249l717 717h309l715 -717l-250 -249l-446 475v-885h-349v885z" />
    <glyph glyph-name="arrowright" unicode="&#x2192;" horiz-adv-x="1503" 
d="M473 106l475 447h-885v348h885l-475 447l250 249l717 -716v-310l-717 -714z" />
    <glyph glyph-name="arrowdown" unicode="&#x2193;" horiz-adv-x="1748" 
d="M4 758l250 250l446 -476v885h349v-885l446 476l250 -250l-715 -717h-309z" />
    <glyph glyph-name="arrowboth" unicode="&#x2194;" horiz-adv-x="2324" 
d="M1546 1597l717 -716v-310l-717 -714l-250 249l478 447h-1223l477 -447l-250 -249l-717 714v310l717 716l250 -249l-477 -447h1223l-478 447z" />
    <glyph glyph-name="arrowupdn" unicode="&#x2195;" horiz-adv-x="1847" 
d="M1794 346l-717 -717h-309l-715 717l250 250l447 -477v1222l-447 -477l-250 250l715 717h309l717 -717l-250 -250l-446 477v-1222l446 477z" />
    <glyph glyph-name="uni2196" unicode="&#x2196;" horiz-adv-x="1458" 
d="M487 115h-344v1011l219 220h1012v-345h-651l627 -614l-248 -248l-615 627v-651z" />
    <glyph glyph-name="uni2197" unicode="&#x2197;" horiz-adv-x="1458" 
d="M971 115v651l-615 -627l-247 248l626 614h-651v345h1012l219 -220v-1011h-344z" />
    <glyph glyph-name="uni2198" unicode="&#x2198;" horiz-adv-x="1458" 
d="M971 1346h344v-1012l-219 -219h-1012v344h651l-626 614l247 248l615 -627v652z" />
    <glyph glyph-name="uni2199" unicode="&#x2199;" horiz-adv-x="1458" 
d="M143 1346h344v-652l615 627l248 -248l-627 -614h651v-344h-1012l-219 219v1012z" />
    <glyph glyph-name="Delta" unicode="&#x2206;" horiz-adv-x="1599" 
d="M494 344h610l-303 705zM975 1458l561 -1233v-225h-1473v225l560 1233h352z" />
    <glyph glyph-name="minus" unicode="&#x2212;" horiz-adv-x="1198" 
d="M88 553v338h1022v-338h-1022z" />
    <glyph glyph-name="uni2713" unicode="&#x2713;" horiz-adv-x="1693" 
d="M1495 1970l315 -166l-907 -1710h-317l-559 778l288 207l408 -579z" />
    <glyph glyph-name="uni2715" unicode="&#x2715;" horiz-adv-x="1961" 
d="M35 39l696 688l-696 688l258 258l688 -696l688 696l256 -258l-694 -688l694 -688l-256 -256l-688 694l-688 -694z" />
    <glyph glyph-name="uni2717" unicode="&#x2717;" horiz-adv-x="1718" 
d="M70 184l548 543l-548 543l247 246l543 -547l541 547l248 -246l-547 -543l547 -543l-248 -245l-541 546l-543 -546z" />
    <glyph glyph-name="songer" unicode="&#x2b24;" horiz-adv-x="2197" 
d="M1614 1905q113 -68 200 -200t137.5 -296t75.5 -337t25 -347t-25 -347t-75.5 -337t-137.5 -296t-200 -200q-110 -67 -250 -67q-144 0 -279 30q-203 48 -380 162t-305 272.5t-201.5 361.5t-73.5 421q0 217 73.5 420t201.5 361t305 272t380 161q139 31 279 31q138 0 250 -65
z" />
    <glyph glyph-name="commaaccent" unicode="&#xf6c3;" horiz-adv-x="542" 
d="M289 -96q96 0 156.5 -82.5t60.5 -206.5q0 -215 -211 -399l-160 176q68 61 117 127q-72 -3 -121 47t-49 127q0 88 60 149.5t147 61.5z" />
    <glyph glyph-name="uni041B.ss02" horiz-adv-x="1622" 
d="M0 0l641 1458h336l645 -1458h-393l-420 1006l-418 -1006h-391z" />
    <glyph glyph-name="uni0414.ss02" horiz-adv-x="1775" 
d="M57 0v352h179l462 1106h375l467 -1106h178v-352h-1661zM610 352h551l-274 699z" />
    <glyph glyph-name="uni0426.ss02" horiz-adv-x="1763" 
d="M135 0v1458h352v-1106h621v1106h352v-1106h260v-352h-1585z" />
    <glyph glyph-name="uni0429.ss02" horiz-adv-x="2476" 
d="M135 0v1458h352v-1106h490v1106h352v-1106h492v1106h352v-1106h260v-352h-2298z" />
    <glyph glyph-name="zero.slash" horiz-adv-x="1484" 
d="M1047 944l-385 -661q40 -9 81 -9q63 0 117.5 27t92 72.5t64.5 105t39.5 124t12.5 130.5q0 127 -22 211zM438 516l387 662q-36 8 -82 8q-63 0 -118 -27t-93 -72.5t-65 -104.5t-40 -123t-13 -128q0 -121 24 -215zM743 -47q-125 0 -232 40.5t-185.5 112t-134.5 169.5
t-83.5 214t-27.5 244q0 159 44.5 299t126.5 246t209 167.5t283 61.5q154 0 280.5 -61.5t209 -167.5t127.5 -246t45 -299q0 -160 -45 -301t-127.5 -248t-209 -169t-280.5 -62z" />
    <glyph glyph-name="K.ss02" horiz-adv-x="1564" 
d="M135 0v1458h352v-553h230l377 553h428l-500 -727l500 -731h-428l-375 553h-232v-553h-352z" />
    <glyph glyph-name="uni0414.loclBGR" horiz-adv-x="1779" 
d="M59 -246v598h179l462 1106h375l467 -1106h178v-598h-352v246h-956v-246h-353zM612 352h551l-274 699z" />
    <glyph glyph-name="uni041B.loclBGR" horiz-adv-x="1622" 
d="M0 0l641 1458h336l645 -1458h-393l-420 1006l-418 -1006h-391z" />
    <glyph glyph-name="uni0424.loclBGR" horiz-adv-x="1808" 
d="M729 -246v213q-297 53 -488.5 265.5t-191.5 498.5q0 186 88 347.5t242.5 269t349.5 143.5v213h350v-213q194 -36 349 -143.5t243 -269t88 -347.5q0 -189 -88.5 -352t-243 -270t-348.5 -142v-213h-350zM1079 1139v-820q149 44 241.5 154.5t92.5 257.5q0 141 -92.5 252
t-241.5 156zM729 319v818q-149 -44 -241.5 -153t-92.5 -253q0 -147 92.5 -257.5t241.5 -154.5z" />
    <glyph glyph-name="brevecyr" horiz-adv-x="1050" 
d="M39 1886l235 121q40 -78 113 -151.5t139 -73.5q40 0 83 27.5t76.5 67.5t55.5 72.5t33 55.5l238 -117q-47 -95 -116.5 -175.5t-168.5 -137.5t-201 -57q-80 0 -158 34t-139.5 90t-109 117.5t-80.5 126.5z" />
    <glyph glyph-name="Kcommaaccent.ss02" horiz-adv-x="1564" 
d="M135 0v1458h352v-553h230l377 553h428l-500 -727l500 -731h-428l-375 553h-232v-553h-352zM764 -94q96 0 156.5 -82.5t60.5 -206.5q0 -215 -211 -399l-160 176q68 61 117 127q-72 -3 -121 47t-49 127q0 88 60 149.5t147 61.5z" />
    <glyph glyph-name="zero.tf" horiz-adv-x="1413" 
d="M711 309q73 0 133 38t97 99.5t57 136t20 150.5q0 74 -20 147.5t-57 135.5t-97 100.5t-133 38.5q-74 0 -135 -38.5t-98 -100.5t-57 -135.5t-20 -147.5q0 -77 20 -150.5t57 -135.5t98 -100t135 -38zM711 -47q-126 0 -233.5 40.5t-186 112t-134.5 169.5t-84 214t-28 244
q0 127 28 242.5t84 212.5t134.5 168t186 111t233.5 40q123 0 229.5 -40t184.5 -111t133.5 -168t83.5 -212.5t28 -242.5t-28 -243.5t-83.5 -214t-133.5 -169.5t-184.5 -112.5t-229.5 -40.5z" />
    <glyph glyph-name="one.tf" horiz-adv-x="1413" 
d="M1278 350v-350h-1112v350h381v703l-203 -144l-194 297l380 252h369v-1108h379z" />
    <glyph glyph-name="two.tf" horiz-adv-x="1413" 
d="M1290 993q0 -95 -32 -179.5t-81.5 -147.5t-127.5 -123.5t-150 -102.5t-170 -90h549v-350h-1133v401q791 379 791 592q0 74 -62.5 121t-152.5 47q-92 0 -177 -59t-132 -176l-312 114q38 119 104.5 210t149.5 146.5t175 83t190 27.5q111 0 214.5 -37t182.5 -102.5
t126.5 -163.5t47.5 -211z" />
    <glyph glyph-name="three.tf" horiz-adv-x="1413" 
d="M72 326l307 161q49 -90 127.5 -136t165.5 -46q98 0 165.5 45.5t67.5 104.5q0 52 -67 88.5t-193 36.5h-166v323h166q114 0 175 36.5t61 88.5t-62.5 89.5t-159.5 37.5q-84 0 -158 -37t-114 -114l-309 157q54 119 148 199t199 113.5t224 33.5q162 0 300 -66.5t217 -175.5
t79 -233q0 -157 -143 -278q168 -110 168 -299q0 -94 -47 -185.5t-127 -161t-193.5 -112.5t-238.5 -43q-122 0 -232.5 38t-207.5 124t-152 211z" />
    <glyph glyph-name="four.tf" horiz-adv-x="1413" 
d="M410 528h370v455zM59 197v391l709 870h360v-930h215v-331h-215v-197h-350v197h-719z" />
    <glyph glyph-name="five.tf" horiz-adv-x="1413" 
d="M92 369l326 139q45 -103 118 -153t162 -50q109 0 172.5 54.5t63.5 132.5q0 84 -64.5 138t-154.5 54q-131 0 -217 -115l-322 152l51 739h992v-340h-689l-20 -166q110 58 246 58q78 0 152 -18.5t142 -59t119.5 -98.5t82 -143.5t30.5 -188.5q0 -110 -40.5 -209
t-114.5 -175.5t-188 -121.5t-251 -45q-126 0 -238 42.5t-208 138t-150 235.5z" />
    <glyph glyph-name="six.tf" horiz-adv-x="1413" 
d="M430 535q0 -91 78 -162.5t197 -71.5t197.5 71.5t78.5 162.5q0 92 -78 161.5t-198 69.5q-122 0 -198.5 -67.5t-76.5 -163.5zM494 1294l215 283l288 -211l-231 -299q111 -5 204.5 -37.5t158.5 -84.5t111 -120t67.5 -143.5t21.5 -155.5q0 -157 -83.5 -289t-227 -208
t-313.5 -76q-169 0 -312.5 76t-228 208t-84.5 289q0 94 31 179.5t117 218t266 370.5z" />
    <glyph glyph-name="seven.tf" horiz-adv-x="1413" 
d="M299 80l549 1030h-746v348h1176v-295l-651 -1251z" />
    <glyph glyph-name="eight.tf" horiz-adv-x="1413" 
d="M260 758q-137 106 -137 284q0 128 77 235t211.5 168.5t295.5 61.5q160 0 293.5 -61.5t210.5 -168.5t77 -235q0 -170 -143 -284q182 -120 182 -318q0 -135 -82.5 -247t-224.5 -176t-313 -64q-172 0 -315 64t-224.5 176t-81.5 247q0 97 45.5 178.5t128.5 139.5zM440 453
q0 -64 74.5 -109t192.5 -45q115 0 189.5 45t74.5 109q0 65 -74.5 110t-189.5 45q-118 0 -192.5 -44.5t-74.5 -110.5zM469 1030q0 -56 66.5 -96.5t171.5 -40.5q103 0 170 40.5t67 96.5q0 57 -67 98t-170 41q-106 0 -172 -41t-66 -98z" />
    <glyph glyph-name="nine.tf" horiz-adv-x="1413" 
d="M438 932q0 -91 77 -159t196 -68q120 0 194 66t74 161q0 89 -75.5 159t-192.5 70q-118 0 -195.5 -70t-77.5 -159zM418 92l231 307q-136 6 -245 53.5t-176 123t-102.5 168t-35.5 194.5q0 155 83 286t226 207t312 76q166 0 308.5 -76t226 -207t83.5 -286q0 -97 -31 -182.5
t-114.5 -216.5t-265.5 -375l-211 -281z" />
    <glyph glyph-name="zeroslash.tf" horiz-adv-x="1413" 
d="M1012 944l-385 -661q41 -9 82 -9q79 0 142.5 41t102.5 108t59.5 147t20.5 163q0 127 -22 211zM403 516l388 662q-36 8 -82 8q-79 0 -143.5 -41t-104 -107.5t-61 -146t-21.5 -160.5q0 -121 24 -215zM709 -47q-125 0 -232.5 40.5t-186 112t-134 169.5t-83.5 214t-28 244
q0 159 44.5 299t127 246t209.5 167.5t283 61.5q154 0 280.5 -61.5t209 -167.5t127 -246t44.5 -299q0 -160 -44.5 -301t-127 -248t-209 -169t-280.5 -62z" />
    <glyph glyph-name="dollar.tf" horiz-adv-x="1413" 
d="M545 -285v265q-247 55 -504 241l215 293q295 -211 524 -211q102 0 167 30t65 70q0 34 -32 61t-86.5 47t-125.5 39t-149 40.5t-156 46.5t-149 62t-125.5 83t-86.5 113t-32 149q0 169 131 298t344 159v246h319v-268q224 -55 451 -197l-197 -299q-274 174 -485 174
q-91 0 -149 -29.5t-58 -68.5q0 -23 32 -42.5t86.5 -36t125.5 -34t149 -40t156 -50.5t149 -69.5t125.5 -92.5t86.5 -124t32 -160q0 -171 -140 -300t-364 -153v-242h-319z" />
    <glyph glyph-name="cent.tf" horiz-adv-x="1413" 
d="M588 -270v250q-175 53 -285 201t-110 335q0 189 110 339t285 204v252h307v-242q115 -26 207.5 -97.5t152.5 -176.5l-292 -154q-69 115 -203 115q-99 0 -169.5 -70.5t-70.5 -169.5q0 -98 70.5 -167.5t169.5 -69.5q132 0 203 112l288 -151q-56 -104 -147.5 -175t-208.5 -98
v-237h-307z" />
    <glyph glyph-name="sterling.tf" horiz-adv-x="1413" 
d="M567 541q-24 -121 -69 -195h821v-346h-1270v342q92 41 128 99t48 151l37 274q17 133 62 246.5t116 203t175 140.5t231 51q148 0 273.5 -52t260.5 -155l-215 -270q-103 77 -173 104t-146 27q-50 0 -91.5 -23.5t-69.5 -65t-46.5 -88.5t-30.5 -103h465v-340h-506z" />
    <glyph glyph-name="yen.tf" horiz-adv-x="1413" 
d="M166 188v254h326l-37 74h-289v258h162l-355 684h400l332 -702l331 702h400l-355 -684h164v-258h-291l-39 -74h330v-254h-366v-188h-353v188h-360z" />
    <glyph glyph-name="space.tf" horiz-adv-x="1413" 
 />
    <glyph glyph-name="uni041B.ss03" horiz-adv-x="1699" 
d="M-53 57l145 320q89 -41 146 -41q29 0 53.5 25.5t41 72t29.5 101t20.5 124.5t13 129t7.5 127t2.5 107t0.5 80v356h1159v-1458h-353v1108h-454v-6q0 -81 -1.5 -148.5t-6 -152t-14 -154t-23 -147t-35 -139.5t-49.5 -123t-66.5 -105.5t-85.5 -79.5t-107.5 -53t-131.5 -18
q-135 0 -291 75z" />
    <glyph glyph-name="uni0409.ss03" horiz-adv-x="2449" 
d="M-53 57l145 320q89 -41 148 -41q38 0 67.5 43.5t46.5 120.5t28.5 156t16 177t6 154t1.5 115v356h1128v-495h385q132 0 243.5 -61t177.5 -169.5t66 -240.5q0 -204 -140.5 -348t-336.5 -144h-747v1110h-422v-8q0 -81 -1.5 -148.5t-6 -152t-14 -154t-23 -147t-35 -139.5
t-49.5 -123t-66.5 -105.5t-85.5 -79.5t-107.5 -53t-131.5 -18q-137 0 -293 75zM1534 342h385q55 0 95 43t40 100q0 53 -40 94.5t-95 41.5h-385v-279z" />
    <glyph glyph-name="uni0409.ss02" horiz-adv-x="2281" 
d="M1753 963q132 0 243.5 -61t178 -169.5t66.5 -240.5q0 -204 -141 -348t-337 -144h-534l-420 1006l-418 -1006h-391l641 1458h336l219 -495h557zM1753 342q55 0 95 43t40 100q0 53 -40 94.5t-95 41.5h-410l127 -279h283z" />
    <glyph glyph-name="uni041A.ss02" horiz-adv-x="1609" 
d="M135 0v1458h352v-756l625 756h459l-604 -727l604 -731h-459l-379 453l-246 -289v-164h-352z" />
    <glyph glyph-name="uni040C.ss02" horiz-adv-x="1609" 
d="M135 0v1458h352v-756l625 756h459l-604 -727l604 -731h-459l-379 453l-246 -289v-164h-352zM1169 1833l-403 -334l-178 195l389 354z" />
    <glyph glyph-name="uni0416.ss02" horiz-adv-x="2490" 
d="M1421 713l580 745h453l-580 -721l582 -737h-449l-367 461l-219 -260v-201h-352v201l-219 260l-367 -461h-448l581 737l-579 721h452l580 -745v745h352v-745z" />
    </font>
</defs>
</svg>
